<svg id="圖層_1" data-name="圖層 1" xmlns="http://www.w3.org/2000/svg" viewBox="0 0 287.81 324.7"><defs><style>.cls-1{fill:#fff;}.cls-2{fill:#9e3224;}.cls-3{fill:#eabf29;}.cls-4{fill:#d05351;}</style></defs><title>chks</title><path d="M238.44,158.77a50.13,50.13,0,0,1,.52,7.82c0,14.17-.3,28.26-3.8,42.22A72.72,72.72,0,0,1,223.86,234c-2.27,3.18-4.44,6.45-6.57,9.73-4.53,7-10.82,12.22-17.34,17.14-7.62,5.74-12.82,12.81-14.65,22.33-1.32,6.87-4.89,12.74-9.22,18.15-1.19,1.48-2.6,2.44-4.66,1.82a4,4,0,0,1-3.14-4.16c.48-5.75,1.26-11.47,2-17.19.16-1.25.49-2.49.82-4.19a141.22,141.22,0,0,1-43.43-1.08c.7,4,1.25,7.46,1.94,10.94.57,2.87,1.31,5.72,1.92,8.58.65,3.08-.55,4.66-3.68,5-5.09.52-8.25-1.11-10.07-5.86-2.71-7-6.05-13.88-7.18-21.51-.25-1.66-2.11-3.4-3.67-4.46a41.53,41.53,0,0,0-8-4.16c-10.12-4-17.71-11.19-24.53-19.36-7-8.4-10.89-18.27-13.25-28.79q-3-13.23-5.5-26.56c-1-5-1.5-10.13-2.21-15.21a5.65,5.65,0,0,1,0-1.47c2.44-19,6.62-37.57,15.69-54.64A162.48,162.48,0,0,1,88.69,89.88a49.06,49.06,0,0,1,17.59-13q6.35-2.85,12.56-6A2.84,2.84,0,0,0,120,68.63q-.73-11-1.71-22c-.57-6.44-.91-12.85.23-19.28,1-5.8,4.4-9,10.22-9.33,2.36-.15,4.15.76,5,3.1,1,2.92,2,5.88,3,8.78.22.6.74,1.47,1.22,1.54,4.77.76,6.45,4.24,7.53,8.3.14.52.33,1,.5,1.55.3-.07.49-.05.6-.14,4.54-3.73,9-2.85,11,4.19,1.36,4.93.94,9.87,0,14.8-1.3,7.19-1.32,7.14,5.55,9.21a53.82,53.82,0,0,1,13.23,5.54c3,1.84,6.66,2.54,10.1,3.54a35.54,35.54,0,0,1,15.22,9C207.3,93,213,98.51,218.54,104.14a18.41,18.41,0,0,1,3.26,4.55A168.21,168.21,0,0,1,238.44,158.77Zm-3.27,24.28c.34-5.77.05-11.57.05-16.86-.49-4.09-.7-7.69-1.37-11.2-2.8-14.68-8.66-28.3-14.77-41.82a15,15,0,0,0-2-3.34c-9.83-12-20.55-22.74-35.91-27.66-6.34-2-12.44-4.84-18.61-7.4-7.38-3.06-15-3.5-22.84-2.53-9.78,1.22-19.62,2.42-28.43,7.34-2.75,1.54-5.18,3.67-7.91,5.28A49.53,49.53,0,0,0,87.94,98.63c-4.85,6.82-9.11,14.08-13.36,21.3-7,12-12.42,24.56-14.2,38.49-.61,4.76-2.23,9.56-1.91,14.23.61,8.67,2.17,17.29,3.62,25.88.86,5,2.91,9.94,3.3,15a48.08,48.08,0,0,0,8.39,23.91c5.36,7.83,11.7,14.68,20,19.51,9.33,5.45,18.21,11.9,29.12,14,7,1.34,14.12,2.5,21.23,3.29,5.74.63,11.56.51,17.34.85,6,.36,10.82-4.39,16.84-4,.5,0,1-.43,1.54-.71a117.94,117.94,0,0,0,33.55-28C227.85,225.1,233.87,205,235.17,183.05Zm-63,114.9c6.52-7.2,10.2-15.42,12.06-25-2.24.8-4.09,1.59-6,2.1a4.11,4.11,0,0,0-3.23,3.75c-.88,5.21-1.91,10.38-2.78,15.59A21.61,21.61,0,0,0,172.16,298Zm-18.9-237.8c.88-4.95,1-9.89-1.58-14.46a8.12,8.12,0,0,0-1.89-1.7c-.6.69-1.56,1.3-1.74,2.09-.62,2.85-1,5.75-1.42,8.65-.48,3.75-.82,7.52-1.24,11.43C154,67.14,152.06,66.86,153.26,60.16Zm-14.07,7.23c1.5,0,1.94-.78,1.91-2.17C141,62.13,141.28,59,141,56c-.44-5.1-1.12-10.18-1.83-15.25a3.56,3.56,0,0,0-3.92-3.26c-2.32.06-2.8,1.93-3,3.78-.13,1.29,0,2.6,0,3.91h-.19c.54,6.73,1.16,13.45,1.58,20.19.14,2.27,1.17,2.81,3.13,2.46A15.86,15.86,0,0,1,139.18,67.38ZM131.68,33.3a3.1,3.1,0,0,0,.5-2.22A28.28,28.28,0,0,0,131,25.61c-.39-1.11-1.26-2.72-2.11-2.85a4.8,4.8,0,0,0-3.52,1.52,14.62,14.62,0,0,0-4,11.2c1,10.46,1.91,20.93,3,31.39.1,1,1,1.85,1.55,2.77,1-1.13,2.08-2.24,3.06-3.41.14-.17-.06-.63-.1-1-.58-5.1-1.21-10.19-1.72-15.3C126.55,43.87,127.5,38.16,131.68,33.3Zm-4.79,263.39a16.38,16.38,0,0,0,0-1.95c-1.18-6.32-2.33-12.66-3.61-19a2.48,2.48,0,0,0-1.69-1.45c-2.05-.41-4.17-.57-6.64-.88a14.35,14.35,0,0,0,.35,2.31c2,5.75,4.06,11.52,6.19,17.24a5.4,5.4,0,0,0,1.87,2.5A14.3,14.3,0,0,0,126.89,296.69Z"/><path class="cls-1" d="M235.23,166.2c0,5.28.29,11.09-.05,16.86-1.3,21.91-7.33,42-21.79,59.24a117.94,117.94,0,0,1-33.55,28c-.5.27-1,.74-1.54.71-6-.38-10.81,4.37-16.84,4-5.78-.34-11.6-.22-17.34-.85-7.11-.78-14.19-2-21.23-3.29-10.91-2.07-19.79-8.52-29.12-14-8.28-4.83-14.62-11.68-20-19.51a48.08,48.08,0,0,1-8.39-23.91c-.4-5-2.45-9.95-3.3-15-1.45-8.59-3-17.21-3.62-25.88-.33-4.68,1.3-9.47,1.91-14.23,1.78-13.93,7.18-26.53,14.2-38.49,4.25-7.22,8.51-14.48,13.36-21.3a49.53,49.53,0,0,1,15.44-13.77c2.73-1.61,5.15-3.73,7.91-5.28,8.82-4.92,18.65-6.12,28.43-7.34,7.79-1,15.45-.53,22.84,2.53,6.17,2.56,12.27,5.37,18.61,7.4,15.36,4.92,26.08,15.67,35.91,27.66a15,15,0,0,1,2,3.34c6.11,13.52,12,27.14,14.77,41.82C234.53,158.51,234.74,162.11,235.23,166.2Zm-20.06,36.24c.65-1.38.32-1.9-1.26-2.22-1.57,2.42-3,5-4.79,7.29a164.68,164.68,0,0,1-11.06,13.62,18,18,0,0,1-13,5.52,4.26,4.26,0,0,1-3-1.56c-.31-.4.53-1.76.95-2.66a2.81,2.81,0,0,1,.85-.87c6.53-5.12,10.18-12.45,14.59-19.17,1.51-2.3,2.8-5,2.11-8.1-2.31,0-3.7.73-4.28,3.15a19.75,19.75,0,0,1-6,10.31c-1-2.48-1.79-4.7-2.74-6.84-2-4.6-5.24-8.2-10.05-9.77a41.47,41.47,0,0,0-11.42-2.39c-7.17-.23-13.88,1.25-17.73,8.4a28.46,28.46,0,0,1-1.9,2.66c-5.57-10.89-14.19-16-26.26-14.3-12.23,1.72-18.74,9.42-21,21.38-7.38-5.08-11-12.35-14.09-20.13-1.64,1.67-2.17,3.32-1.3,5.25,1.77,3.94,3.55,7.87,5.4,11.77a6.85,6.85,0,0,0,1.54,1.88c5,4.7,10,9.34,15,14.06,1.13,1.07,3.15,2.38,1.89,3.94-.88,1.08-3.16,1.08-4.83,1.45a2.59,2.59,0,0,1-1.38-.41c-9.76-4.57-17.12-11.58-21.48-21.49a5.62,5.62,0,0,0-4.29-3.53c.45,1.69.82,3.15,1.22,4.61C79.84,215,87.53,222,96.11,228.2a4.84,4.84,0,0,0,2,.87c2.94.46,4.27,2.45,5.5,4.94,1.44,2.89,2.83,6.21,5.21,8.14,8.13,6.58,17,12.18,26.87,15.76s19.91,2.85,30,1.75c2.1-.23,4.33-.12,5.66-2.68a23,23,0,0,0-2.39-2.06c-2.07-1.37-2.35-2.27-.63-4a84.85,84.85,0,0,1,7.32-6.86c4.41-3.57,8.5-7.35,11.3-12.4a4.62,4.62,0,0,1,2.85-2,19.85,19.85,0,0,0,10.75-5.9A79.46,79.46,0,0,0,215.17,202.44ZM163.2,117q.09-3.06-3.45-3.11c-2.37,0-3.55,1.15-3.6,3.58,0,2.12,1.12,3.14,3.1,3.3A3.81,3.81,0,0,0,163.2,117Zm-12.72,32.7c-.61-3.63-1.14-8.68-2.4-13.54-.69-2.66-2.41-5.13-4-7.45s-3.33-2.25-5.13,0a22,22,0,0,0-5.21,13.93,133.49,133.49,0,0,0,.58,13.93,136.16,136.16,0,0,0,2.48,17.87c1.25,5.33,3.5,10.44,5.55,15.54.31.77,1.95,1.39,2.95,1.37.6,0,1.55-1.37,1.68-2.23.54-3.71.89-7.44,1.21-11.17C148.93,168.93,149.64,160,150.48,149.66ZM121.9,120.19c1.86,0,4.93-2.69,4.24-3.92a8.59,8.59,0,0,0-4-3.72c-1.52-.59-3.3,2.14-3.31,4.57A3,3,0,0,0,121.9,120.19Z"/><path d="M213.91,200.22c1.58.31,1.91.83,1.26,2.22a79.46,79.46,0,0,1-14.59,21.31,19.85,19.85,0,0,1-10.75,5.9,4.62,4.62,0,0,0-2.85,2c-2.8,5-6.89,8.83-11.3,12.4a84.85,84.85,0,0,0-7.32,6.86c-1.73,1.77-1.45,2.67.63,4a23,23,0,0,1,2.39,2.06c-1.33,2.56-3.56,2.45-5.66,2.68-10.11,1.1-20.26,1.78-30-1.75s-18.74-9.19-26.87-15.76c-2.38-1.93-3.77-5.25-5.21-8.14-1.24-2.49-2.56-4.48-5.5-4.94a4.84,4.84,0,0,1-2-.87C87.53,222,79.84,215,76.92,204.29c-.4-1.46-.77-2.93-1.22-4.61A5.62,5.62,0,0,1,80,203.21c4.36,9.91,11.72,16.92,21.48,21.49a2.59,2.59,0,0,0,1.38.41c1.67-.37,3.95-.37,4.83-1.45,1.26-1.55-.75-2.86-1.89-3.94-5-4.72-10-9.36-15-14.06a6.85,6.85,0,0,1-1.54-1.88c-1.85-3.9-3.63-7.83-5.4-11.77-.87-1.93-.34-3.59,1.3-5.25,3.12,7.78,6.71,15.05,14.09,20.13,2.26-12,8.77-19.65,21-21.38,12.07-1.7,20.69,3.41,26.26,14.3a28.46,28.46,0,0,0,1.9-2.66c3.85-7.15,10.56-8.63,17.73-8.4a41.47,41.47,0,0,1,11.42,2.39c4.81,1.58,8,5.18,10.05,9.77.95,2.15,1.75,4.36,2.74,6.84a19.75,19.75,0,0,0,6-10.31c.58-2.42,2-3.13,4.28-3.15.69,3.12-.6,5.79-2.11,8.1-4.41,6.72-8.06,14.06-14.59,19.17a2.81,2.81,0,0,0-.85.87c-.41.89-1.26,2.26-.95,2.66a4.26,4.26,0,0,0,3,1.56,18,18,0,0,0,13-5.52,164.68,164.68,0,0,0,11.06-13.62C210.89,205.2,212.34,202.64,213.91,200.22Zm-32.4,17.94c5-4.55,5.41-13.38.45-18.22-5.33-5.2-11.67-8.09-19.33-6.6-4.44.86-8.9,1.89-11.1,6.57-1.25,2.65-2.34,5.37-3.61,8a16.69,16.69,0,0,1-2,2.56c-.75-2.27-1-4.05-1.89-5.47-2.15-3.51-4.08-7.37-7-10.15-5.68-5.39-12.9-6.6-20.05-3.72-7.35,3-13.29,7.83-14.14,16.59a6,6,0,0,0,1.17,3.89c1.61,2,3.83,3.59,5.41,5.65a24.21,24.21,0,0,1,3.29,6.11c.75,2-.26,3.45-2.27,4.2-1.35.5-2.66,1.09-4.22,1.74a22,22,0,0,0,1.95,3.06c3.13,3.44,6.22,6.93,9.56,10.17a37,37,0,0,0,21.07,10.57c8,1.09,16,1.91,24.19,2.87.75-7.35.89-7.58,6.55-12.42,3.41-2.92,6.82-5.83,10.15-8.85A42.91,42.91,0,0,0,183,230.9C176.46,226.79,176.1,223,181.51,218.16Z"/><path class="cls-2" d="M182,199.94c5,4.84,4.6,13.67-.45,18.22-5.41,4.87-5,8.63,1.49,12.73a42.91,42.91,0,0,1-3.34,3.82c-3.33,3-6.74,5.93-10.15,8.85-5.66,4.84-5.79,5.07-6.55,12.42-8.17-1-16.19-1.78-24.19-2.87a37,37,0,0,1-21.07-10.57c-3.33-3.24-6.43-6.73-9.56-10.17a22,22,0,0,1-1.95-3.06c1.55-.64,2.87-1.24,4.22-1.74,2-.75,3-2.24,2.27-4.2a24.21,24.21,0,0,0-3.29-6.11c-1.58-2.05-3.8-3.61-5.41-5.65a6,6,0,0,1-1.17-3.89c.84-8.75,6.78-13.63,14.14-16.59,7.16-2.88,14.38-1.68,20.05,3.72,2.92,2.77,4.85,6.64,7,10.15.87,1.41,1.13,3.2,1.89,5.47a16.69,16.69,0,0,0,2-2.56c1.27-2.64,2.36-5.36,3.61-8,2.2-4.68,6.66-5.71,11.1-6.57C170.3,191.86,176.64,194.74,182,199.94Zm-14.88,11.15a3.14,3.14,0,0,0-1.78-2.42c-1.68-.42-5.55,2.2-5,3a14.88,14.88,0,0,0,3,2.86C166.31,214.26,167.07,212.72,167.09,211.09Zm-9.32,25.46c4.65,0,7.3-2.9,6.71-7.07a42.51,42.51,0,0,0-2-7.52c-.81-2.4-2.37-2.52-4.61-1.33a131.22,131.22,0,0,1-13.55,6.46c-4.5,1.76-9,1.89-12.19-2.84-.09-.13-.22-.32-.35-.33-.76-.08-1.71-.4-2.24-.06a2.25,2.25,0,0,0-.34,2.05,8.25,8.25,0,0,0,9.19,5.54c2.9-.44,5.82-.82,8.66-1.51,1.64-.41,2.3.09,3,1.45C151.85,234.61,154.58,236.48,157.77,236.55Zm-32.53-29.23c-3.74-1.26-5.84-.77-6.56,1.47-.6,1.85.18,3.41,1.91,3.79C122.76,213.08,124.29,211.39,125.24,207.33Z"/><path class="cls-3" d="M184.22,273c-1.86,9.58-5.53,17.8-12.06,25a21.61,21.61,0,0,1,0-3.56c.88-5.21,1.9-10.38,2.78-15.59a4.11,4.11,0,0,1,3.23-3.75C180.13,274.55,182,273.75,184.22,273Z"/><path d="M165.3,208.68a3.14,3.14,0,0,1,1.78,2.42c0,1.63-.78,3.17-3.76,3.46a14.88,14.88,0,0,1-3-2.86C159.75,210.87,163.62,208.26,165.3,208.68Z"/><path d="M164.48,229.48c.6,4.17-2.06,7.07-6.71,7.07-3.2-.07-5.92-1.94-7.68-5.17-.74-1.36-1.4-1.86-3-1.45-2.84.7-5.76,1.07-8.66,1.51a8.25,8.25,0,0,1-9.19-5.54,2.25,2.25,0,0,1,.34-2.05c.52-.33,1.47,0,2.24.06.13,0,.25.2.35.33,3.18,4.73,7.69,4.6,12.19,2.84a131.22,131.22,0,0,0,13.55-6.46c2.24-1.19,3.8-1.07,4.61,1.33A42.51,42.51,0,0,1,164.48,229.48Zm-4.31.86.73-.28c-.3-1.63-.59-3.26-1-5.25l-2.24,1.54Zm-3.61,1c1-1-1.47-2-1.47-3.92-1-.49-1.47.49-2.45.49C153.12,229.9,155.08,233.33,156.56,231.37Z"/><path d="M159.75,113.86q3.54.05,3.45,3.11a3.81,3.81,0,0,1-4,3.77c-2-.16-3.14-1.18-3.1-3.3C156.2,115,157.38,113.82,159.75,113.86Z"/><path class="cls-4" d="M160.89,230.06l-.73.28-2.47-4,2.24-1.54C160.3,226.8,160.59,228.43,160.89,230.06Z"/><path class="cls-4" d="M155.08,227.45c0,2,2.45,2.94,1.47,3.92-1.47,2-3.43-1.47-3.92-3.43C153.61,227.94,154.1,227,155.08,227.45Z"/><path class="cls-2" d="M151.67,45.7c2.61,4.57,2.47,9.51,1.58,14.46-1.2,6.71.72,7-7.87,6,.42-3.91.77-7.68,1.24-11.43.37-2.9.79-5.8,1.42-8.65.17-.78,1.13-1.4,1.74-2.09A8.12,8.12,0,0,1,151.67,45.7Z"/><path d="M148.08,136.12c1.26,4.86,1.79,9.92,2.4,13.54-.84,10.33-1.54,19.27-2.3,28.21-.32,3.73-.67,7.46-1.21,11.17-.12.85-1.07,2.21-1.68,2.23-1,0-2.64-.59-2.95-1.37-2.05-5.11-4.3-10.21-5.55-15.54a136.16,136.16,0,0,1-2.48-17.87,133.49,133.49,0,0,1-.58-13.93,22,22,0,0,1,5.21-13.93c1.8-2.22,3.49-2.33,5.13,0S147.39,133.46,148.08,136.12ZM145.37,165c1.62-10.14,1.65-20.11-1.88-29.88a24,24,0,0,0-1.38-2.75l-1.05.05c-.81,2.5-2,4.95-2.37,7.51a85.8,85.8,0,0,0,.7,27.49c.92,5,2.3,9.87,3.48,14.8l.87-.1c.1-.76.22-1.52.29-2.28C144.46,174.84,144.59,169.84,145.37,165Z"/><path class="cls-3" d="M143.49,135.07c3.53,9.77,3.5,19.74,1.88,29.88-.78,4.89-.91,9.89-1.34,14.83-.07.76-.19,1.52-.29,2.28l-.87.1c-1.17-4.93-2.55-9.82-3.48-14.8a85.8,85.8,0,0,1-.7-27.49c.36-2.56,1.55-5,2.37-7.51l1.05-.05A24,24,0,0,1,143.49,135.07Z"/><path class="cls-2" d="M141.09,65.21c0,1.39-.41,2.14-1.91,2.17a15.86,15.86,0,0,0-2.4.42c-2,.35-3-.19-3.13-2.46-.42-6.73-1-13.46-1.58-20.19h.19c0-1.3-.1-2.62,0-3.91.18-1.85.66-3.72,3-3.78a3.56,3.56,0,0,1,3.92,3.26c.71,5.07,1.39,10.15,1.83,15.25C141.28,59,141,62.13,141.09,65.21Z"/><path class="cls-2" d="M132.18,31.08a3.1,3.1,0,0,1-.5,2.22c-4.18,4.87-5.13,10.58-4.51,16.7.51,5.11,1.14,10.2,1.72,15.3,0,.32.24.78.1,1-1,1.17-2,2.27-3.06,3.41-.53-.93-1.46-1.81-1.55-2.77-1.07-10.46-2-20.93-3-31.39a14.62,14.62,0,0,1,4-11.2,4.8,4.8,0,0,1,3.52-1.52c.85.13,1.72,1.74,2.11,2.85A28.28,28.28,0,0,1,132.18,31.08Z"/><path class="cls-3" d="M126.88,294.74a16.38,16.38,0,0,1,0,1.95,14.3,14.3,0,0,1-3.54-1.18,5.4,5.4,0,0,1-1.87-2.5c-2.13-5.72-4.16-11.48-6.19-17.24a14.35,14.35,0,0,1-.35-2.31c2.47.3,4.58.47,6.64.88a2.48,2.48,0,0,1,1.69,1.45C124.55,282.09,125.71,288.42,126.88,294.74Z"/><path d="M126.14,116.28c.69,1.23-2.38,3.87-4.24,3.92a3,3,0,0,1-3-3.06c0-2.43,1.79-5.16,3.31-4.57A8.59,8.59,0,0,1,126.14,116.28Z"/><path d="M118.68,208.79c.72-2.24,2.82-2.73,6.56-1.47-1,4.06-2.48,5.75-4.66,5.26C118.86,212.2,118.08,210.64,118.68,208.79Z"/></svg>