<svg id="圖層_1" data-name="圖層 1" xmlns="http://www.w3.org/2000/svg" viewBox="0 0 287.81 324.7"><defs><style>.cls-1{fill:#fff;}.cls-2{fill:#f3e7b8;}.cls-3{fill:#bf5145;}.cls-4{fill:#cf543f;}.cls-5{fill:#ddae1d;}</style></defs><title>chks</title><path d="M281.2,139.47a9.6,9.6,0,0,1,2.92,13.2c-2.1,3.56-4.44,7-6.88,10.33-2.15,2.94-5.35,4.15-8.92,4.44-2.39.2-4.79.43-7,.63-.22.47-.35.61-.33.73,1.36,11.05-3.25,20.54-8.79,29.32A175.67,175.67,0,0,1,234,221.86c-4.33,4.8-9.87,8.66-15.34,12.24-11.05,7.23-23.28,12.09-35.73,16.37-5.53,1.9-11,4.05-16.57,5.79-4.19,1.3-8.53,2.12-13.36,3.29-1,4.62-2.11,9.55-3.31,14.94-6.95-3.13-8.84-8.76-9.94-15.4l-13.67-2.5c-13.34-2.44-26.63-5.08-39.46-9.7-16.5-5.94-29.26-17-40.95-29.54-5-5.31-9.43-11.08-14.06-16.7-5.26-6.37-7.46-14.07-9-21.95-1.06-5.23-1.1-5.29-6.35-6.46a43,43,0,0,1-8.93-2.82C.11,166.07-2.81,159.6-4.23,152.36c-.61-3.11,3.57-7.11,7.63-7.26,4.76-.18,9.44.33,13.14,4a12.43,12.43,0,0,0,2.07,1.27,9.65,9.65,0,0,0,1.2-2.73c.69-10.28,4.67-19.53,8.84-28.73A103.72,103.72,0,0,1,65.15,75.48a126.47,126.47,0,0,0,9.91-8.13C87.32,57,101.81,51.69,117.41,49.11a147.81,147.81,0,0,1,19.13-2.28,143.74,143.74,0,0,1,20.51.95c8.92,1,17.78,2.58,26.67,3.93a8.46,8.46,0,0,1,1.64.46,129.34,129.34,0,0,1,41.44,24.48,27.37,27.37,0,0,1,5,5.31c5.88,9.11,11.75,18.23,17.28,27.55,4.69,7.9,5.59,17,7.09,25.82.59,3.47,1.38,6.91,2.11,10.48,4.47,0,7.13-1.93,9.44-4.68C271.5,136.56,276.31,136,281.2,139.47Zm-.09,11c1.6-2.27.68-4.76-1.56-6.84s-4-2.57-6.53-1-4.71,3.66-7.1,5.44c-1.36,1-2.71,2.4-4.25,2.72-3.6.76-7.32,1-11,1.42-3.86.48-6.7-.64-7.66-4.8,0-.16-.44-.24-.67-.36-6.86,6.78-5.67,17.23.95,20.88,1.67-3.81,2.24-4.11,5.78-3.6a26.59,26.59,0,0,0,4.67.24c4.13-.16,8.27-.26,12.36-.71,1.92-.21,4.3-.65,5.52-1.9A94.63,94.63,0,0,0,281.11,150.43Zm-36,25.39h12.41c-.36-2.5-.69-4.68-1-6.9H246.29ZM251.92,192c2.35-4.26,4.22-8.26,4.73-13.25l-12.53.65c-.61,2.24-1.16,4.27-1.78,6.57Zm-1.69-44.36c2.66-.24,3.15-.73,3-3.52-.15-2.51-.59-5-.94-7.81l-7.7,2.87,2.29,8.47C248.26,147.69,249.25,147.76,250.23,147.67ZM252,133.5l-2.56-9.61-8.22,3.22,2.65,8.78Zm-1.69,61.31c-3-2.48-5.32-5.07-9.21-5.43l-3.69,7.45,8.1,5.46Zm-2-74-5.15-12-8.59,4.56,5.14,9.83Zm-4.65,83.85c-2.15-1.52-3.92-2.87-5.78-4.06a2.78,2.78,0,0,0-4.33,1c-1.12,1.79-2.31,3.53-3.68,5.61l7.3,5.56Zm-5.44-17.45a19.3,19.3,0,0,0,2.72-11.39c-1.07,2-1.75,3.19-2.38,4.42-2.59,5.09-5,10.28-7.78,15.25a64.14,64.14,0,0,1-6.92,10.27c-6,7.05-12.2,14-20.84,18.15-2,1-2.58,2.49-.85,4.79,1.88-1.19,3.89-2.06,5.39-3.47,5.91-5.58,12.23-10.86,17.3-17.13S234.12,194.42,238.21,187.23Zm2.2-46.46a12,12,0,0,0,.36-3.49c-.74-3.77-1.18-7.73-2.72-11.17-2.43-5.44-5.66-10.53-8.55-15.76a105.47,105.47,0,0,0-23.23-28.93A54.23,54.23,0,0,0,188.36,70.7c-3.64-1.25-7.3-2.45-10.91-3.78a72.66,72.66,0,0,0-25.56-4.8c-10.71.06-21.42.55-32.13,1a36.47,36.47,0,0,0-7.18,1.12C98.23,67.72,85.87,74.92,75.19,85c-4.88,4.6-9.47,9.52-14,14.46a63.57,63.57,0,0,0-5.94,7.82c-2.27,3.42-4,7.26-6.5,10.48-5.19,6.63-7.45,14.39-9.47,22.3-.35,1.34-.77,2.73.78,4.16,1.08-3.1,2-5.92,3-8.72,4-10.94,9.28-21.21,16.92-30.09,4.92-5.72,10-11.28,15.29-16.7a37.59,37.59,0,0,1,7.7-6.1c5.14-3.06,10.42-6,15.84-8.49s11.07-4.61,16.66-6.76a18.93,18.93,0,0,1,5-1.06,209.7,209.7,0,0,1,48.31.82,54.54,54.54,0,0,1,22.33,8.05c15.53,9.94,29,21.75,37.88,38.25.27.5.65.94.93,1.44,3.66,6.49,7.1,13,7.87,20.64a47.82,47.82,0,0,0,1.12,5.25Zm.75-35.1a21.2,21.2,0,0,0-6.1-10.91l-8.52,4.47,6.79,11.61Zm-3.48,68.91c.61-1.36.68-3.71-.1-4.83-4-5.71-3.95-11.88-2.29-18.1a27.54,27.54,0,0,0,.27-13.38c-1.51-7-3.3-13.69-6.68-20.14-9.61-18.35-24-31.83-41.57-42.14a31.82,31.82,0,0,0-8.7-3.5c-5.41-1.26-10.93-2.14-16.43-2.94-11.81-1.72-23.69-.92-35.54-.65a29.74,29.74,0,0,0-10,2c-8.1,3.18-16.08,6.66-24,10.33-5.56,2.58-11,5.44-15.37,9.94C74.79,93.72,72.43,96.39,70,99a122.44,122.44,0,0,0-26.47,45.12c-.89,2.66-1,4.79.69,7.19,2.78,4,4.07,8.56,2.89,13.43a32.63,32.63,0,0,1-2.69,6.73,6.62,6.62,0,0,0-.29,6.17c4.07,8.18,7.91,16.55,14.22,23.34,5.54,6,11.18,11.87,17,17.52,4.89,4.72,10.46,8.43,18,8.43,1.6-4.6,1.38-6.12-1-8.39-3.75-3.5-7.37-7.13-11.23-10.5-8.59-7.5-15.38-16.47-21.69-25.88-3.12-4.65-5.15-9.46-4.92-15.18a77.34,77.34,0,0,0-.5-8.13c-.51-7.82.41-15.44,3.69-22.61,4.85-10.59,11.72-19.93,18.75-29.12a23.11,23.11,0,0,1,4-3.85C87.23,97.81,94,92.27,101,87.1a35.13,35.13,0,0,1,9.8-5.08c7.32-2.39,14.77-4.43,22.27-6.21a40.88,40.88,0,0,1,11-1c6.27.25,12.52,1,18.77,1.63,18.19,1.7,33.74,9.16,46.92,21.68,9.53,9,15.57,20,17.28,33.11.4,3.08.09,6.25.27,9.37.75,12.36-.73,24.45-3.37,36.56-2.8,12.85-10.55,22.29-19.37,31.18-1.66,1.68-4,2.68-6,4-1.37.9-2.72,1.83-4.34,2.91l4.83,6.33c.81-.22,1.23-.3,1.61-.45,7.73-3,13.17-9.09,18.61-14.86C227.78,197.21,232.69,185.81,237.67,174.58Zm-11.5,50.29,9-9.62c-3.61-3.69-3.93-3.87-8-4.79l-5.68,7.22ZM224.63,96.35l8.78-4.85L221.73,79.37l-6.13,5.55c1.66,2,3.17,3.89,4.65,5.76S223.13,94.42,224.63,96.35Zm-3.21,77.13c1.64-10,4.19-19.74,3.35-30.09-.83-10.19-2.23-20.13-6.25-29.57a27.14,27.14,0,0,0-3.37-6.4,66.22,66.22,0,0,0-22.66-18.64c-11-5.35-22.4-9.32-34.71-10.15-9.27-.62-18.6-1.42-27.66,1.36-7.9,2.42-16.31,4.09-23.38,8.07-14.14,8-26.6,18.28-35.47,32.29A76.35,76.35,0,0,1,66.58,127a41.43,41.43,0,0,0-9.12,27c0,3.72.41,7.43.29,11.14a25.77,25.77,0,0,0,4.63,15.29c9.91,15.28,22.68,27.82,37,39.28-1.27,5.7-4.12,11.43-2.06,17.64,5.4,1.6,10.61,3.09,15.78,4.7A89.62,89.62,0,0,0,135,245.55a7,7,0,0,0,6.62-3c3.2-4.28,4.64-4.39,8.56-.79a5.64,5.64,0,0,0,5.79,1.47c8.46-2,17-3.71,25.5-5.64,6.13-1.4,12.17-3.1,17.59-7.16a24.16,24.16,0,0,0-7-12.32c-2.59-2.57-2.33-4.57.61-6.72,1.49-1.09,3.2-1.87,4.78-2.85,1.82-1.12,3.89-2,5.35-3.51C211.6,196.06,219.28,186.48,221.42,173.48Zm2.12,52.63-4-6.29-7.51,6.7,2.61,5.75ZM219,77l-8-6.29-4.44,5.71L213,82.19Zm-6.83,157-2.62-6-9.84,6.83,1.35,4.95ZM204.06,74.3l3.84-5.63-10.14-6.23c-1.73,2.12-3.08,4-3.63,6.37Zm-6.59,166.6L196,237l-9.65,3.56c.24,1.46.41,2.54.68,4.24ZM190.25,67.17l4.42-6.54c-3.91-2.49-7.82-4.36-12.9-4.81l-3,7.11ZM183.77,246l-.77-4.83-7.16,1.5c.31,2,.56,3.75.88,5.89ZM175.92,62l2.1-7.34-11.67-2.57-2,7.16Zm-2.06,187.34-1.21-6.21-5.56,1.45c.2,2.43.36,4.37.59,7Zm-9,3.44L163.49,245l-8.83,2v8.63Zm-3-194.18L163,51.76l-13-1.28c-.25,2.48-.46,4.51-.72,6.95Zm-11,191.87c0-2.17-1.6-4.52-2.91-6.48s-3.27-1.6-4.53.35a6.68,6.68,0,0,0-1,2.36,33.05,33.05,0,0,0,2.56,19.2c.36.84,1.16,1.5,2.45,3.1C149.35,262.27,150.88,256.47,150.92,250.52ZM146.76,50.85H137.3c-.15,2.3-.27,4.26-.42,6.55h9.47C146.49,55.15,146.62,53.11,146.76,50.85ZM138.9,255.13v-5.53l-7.43-.79c-.23,2-.39,3.37-.64,5.53Zm-5.23-197V50.54l-9,1.1v7Zm-5.81,195.43c.22-2,.39-3.41.57-5l-8.77-1.3-1.27,4.2ZM122,58.82c-.25-2.43-.44-4.33-.69-6.74C117,53.3,112.88,53.3,109,55.24l1.09,4.66Zm-6.61,192,1.33-4.14-8.41-2-1.28,4.21Zm-8.09-190-1.42-5.18-7.1,2.5,1.13,5.85Zm-3.08,187.45,1-4.08c-6.86-3-10.62-2.9-13.39.78ZM97.4,64.94c-.51-2-1-3.75-1.52-6L85.78,64.3l2,5.19ZM92.82,235.43c1.32-3.35-.26-4.5-2.54-5.29A48.83,48.83,0,0,1,69,215.46c-2.43-2.81-5.11-5.4-7.77-8-6.61-6.43-12.46-13.38-16-22a27,27,0,0,0-2.48-4.5,25.58,25.58,0,0,0-2.39-2.73l-1.25.6a41.06,41.06,0,0,0,.78,4.43c2,7,5.85,13,10.41,18.55,9.79,12,21.89,21.29,34.68,29.76C87.39,233.15,90.17,234.14,92.82,235.43Zm-4.06,8.35,3.08-5.07-8-4.15L79.47,240ZM79.15,75.87l6.23-4.94-2.64-4.42-6,4.7Zm-2,162.84,4-5.86-7.09-5.51-5.46,6.08ZM76.7,77.5l-2.47-4.37L62.89,82.21l4.2,5.44ZM72.12,225.83,65,220.25c-2,2-4,3.53-4.44,6.47l5.5,4.76ZM64,90.65,60.15,84.3l-8.87,8,6.26,5.66ZM57.85,224.06l4.62-5.92-6-5.41-5.89,5.21Zm-3-123-5.54-6.79-9.88,12.86,7.85,4.6Zm-.32,109.78-5.7-6.42-5.53,4.77,5.32,6.69ZM38.44,170.92c4.19-3,5.28-5.74,4.45-11.78-.42-3-1.34-6-4.73-7.43l-1.4,5c-3.9.12-7.61,0-11.28.39-5.21.56-9.22-1.6-12.57-5.15A8.28,8.28,0,0,0,6,149.31c-3.62.18-5,1.73-5.13,5.45-.11,5,4.17,11.13,9.26,12.07,6.13,1.13,12.28,2.81,18.65,1.66,2.62-.47,5.29-.73,7.82-1.06Zm3.22,36,5.21-4.78-6.25-9.24-6.22,4.69Zm-.42-84.47,4.4-8.21-8-4.09-4.36,8.43Zm-3,9.3,2.05-6.64-9-2.38-3.51,8.49Zm-1,3.14H26.4l-1.81,7.66,11.19-1.11Zm2.05,55.23-3.72-9.85-8.19,2.8c1.44,4.45,2.33,8.61,5.41,12.27ZM26.67,179.95c6.49-2.28,7.61-3.5,6.86-7.29-2.55-.12-5.16-.63-8,.72C25.92,175.56,26.27,177.6,26.67,179.95Zm-2.43-28.26c9.09,1.53,9.55,1.25,10.69-7.1l-10.62.87C24.17,147,24,148,24,148.92A27,27,0,0,0,24.25,151.69Z"/><path class="cls-1" d="M279.55,143.59c2.24,2.08,3.16,4.57,1.56,6.84a94.63,94.63,0,0,1-9.49,11.48c-1.22,1.26-3.6,1.69-5.52,1.9-4.1.45-8.24.55-12.36.71a26.59,26.59,0,0,1-4.67-.24c-3.54-.51-4.11-.21-5.78,3.6-6.62-3.66-7.81-14.11-.95-20.88.24.12.64.2.67.36,1,4.17,3.8,5.28,7.66,4.8,3.67-.45,7.39-.66,11-1.42,1.54-.32,2.9-1.7,4.25-2.72,2.39-1.79,4.58-3.87,7.1-5.44S277.29,141.49,279.55,143.59Z"/><path class="cls-2" d="M257.48,175.82H245.07l1.22-6.9h10.18C256.79,171.13,257.11,173.32,257.48,175.82Z"/><path class="cls-3" d="M256.65,178.79c-.51,5-2.39,9-4.73,13.25l-9.58-6c.62-2.3,1.17-4.32,1.78-6.57Z"/><path class="cls-3" d="M253.21,144.15c.18,2.8-.31,3.28-3,3.52-1,.09-2,0-3.38,0l-2.29-8.47,7.7-2.87C252.62,139.14,253.05,141.64,253.21,144.15Z"/><path class="cls-2" d="M249.4,123.9,252,133.5l-8.13,2.4-2.65-8.78Z"/><path class="cls-2" d="M241.06,189.39c3.9.36,6.21,2.95,9.21,5.43l-4.8,7.48-8.1-5.46Z"/><path class="cls-3" d="M243.16,108.88l5.15,12-8.6,2.44-5.14-9.83Z"/><path class="cls-3" d="M237.87,200.63c1.86,1.19,3.63,2.54,5.78,4.06l-6.49,8.08-7.3-5.56c1.36-2.07,2.56-3.82,3.68-5.61A2.78,2.78,0,0,1,237.87,200.63Z"/><path class="cls-3" d="M240.92,175.84a19.3,19.3,0,0,1-2.72,11.39c-4.08,7.18-8.19,14.48-13.35,20.88s-11.39,11.56-17.3,17.13c-1.5,1.41-3.5,2.28-5.39,3.47-1.74-2.3-1.18-3.83.85-4.79,8.64-4.12,14.81-11.1,20.84-18.15a64.14,64.14,0,0,0,6.92-10.27c2.8-5,5.2-10.16,7.78-15.25C239.17,179,239.86,177.83,240.92,175.84Z"/><path class="cls-3" d="M240.77,137.28a12,12,0,0,1-.36,3.49l-1.45,0a47.82,47.82,0,0,1-1.12-5.25c-.77-7.6-4.2-14.16-7.87-20.64-.28-.49-.66-.94-.93-1.44-8.85-16.5-22.36-28.31-37.88-38.25a54.54,54.54,0,0,0-22.33-8.05,209.7,209.7,0,0,0-48.31-.82,18.93,18.93,0,0,0-5,1.06c-5.59,2.14-11.24,4.22-16.66,6.76S88.14,79.54,83,82.61a37.59,37.59,0,0,0-7.7,6.1C70,94.12,64.93,99.68,60,105.4c-7.64,8.87-12.9,19.15-16.92,30.09-1,2.79-2,5.62-3,8.72-1.55-1.43-1.13-2.82-.78-4.16,2-7.91,4.28-15.66,9.47-22.3,2.52-3.21,4.23-7.05,6.5-10.48a63.57,63.57,0,0,1,5.94-7.82c4.54-4.94,9.13-9.86,14-14.46,10.68-10.07,23-17.27,37.39-20.78a36.47,36.47,0,0,1,7.18-1.12c10.71-.43,21.42-.91,32.13-1a72.66,72.66,0,0,1,25.56,4.8c3.61,1.33,7.28,2.53,10.91,3.78a54.23,54.23,0,0,1,17.91,10.72,105.47,105.47,0,0,1,23.23,28.93c2.9,5.23,6.12,10.31,8.55,15.76C239.59,129.55,240,133.51,240.77,137.28Z"/><path class="cls-2" d="M235.06,94.75a21.2,21.2,0,0,1,6.1,10.91l-7.83,5.17-6.79-11.61Z"/><path class="cls-2" d="M237.57,169.75c.78,1.12.71,3.46.1,4.83-5,11.23-9.9,22.63-18.43,31.69-5.43,5.77-10.88,11.82-18.61,14.86-.39.15-.8.23-1.61.45l-4.83-6.33c1.61-1.09,3-2,4.34-2.91,2-1.33,4.37-2.33,6-4,8.82-8.89,16.57-18.33,19.37-31.18,2.64-12.11,4.12-24.19,3.37-36.56-.18-3.12.13-6.29-.27-9.37-1.71-13.12-7.75-24.06-17.28-33.11-13.18-12.51-28.73-20-46.92-21.68-6.25-.58-12.5-1.38-18.77-1.63a40.88,40.88,0,0,0-11,1c-7.49,1.78-14.95,3.82-22.27,6.21A35.13,35.13,0,0,0,101,87.1c-7,5.17-13.75,10.71-20.56,16.16a23.11,23.11,0,0,0-4,3.85c-7,9.2-13.9,18.53-18.75,29.12C54.37,143.4,53.45,151,54,158.84a77.34,77.34,0,0,1,.5,8.13c-.23,5.72,1.8,10.53,4.92,15.18,6.31,9.41,13.1,18.38,21.69,25.88,3.86,3.37,7.49,7,11.23,10.5,2.42,2.27,2.65,3.78,1,8.39-7.5,0-13.07-3.71-18-8.43-5.86-5.65-11.5-11.55-17-17.52-6.31-6.79-10.15-15.16-14.22-23.34a6.62,6.62,0,0,1,.29-6.17,32.63,32.63,0,0,0,2.69-6.73c1.18-4.86-.11-9.41-2.89-13.43-1.66-2.4-1.59-4.53-.69-7.19A122.44,122.44,0,0,1,70,99c2.42-2.6,4.78-5.27,7.25-7.83,4.34-4.5,9.82-7.37,15.37-9.94,7.89-3.66,15.88-7.15,24-10.33a29.74,29.74,0,0,1,10-2c11.85-.27,23.73-1.06,35.54.65,5.51.8,11,1.68,16.43,2.94a31.82,31.82,0,0,1,8.7,3.5c17.61,10.31,32,23.79,41.57,42.14,3.38,6.45,5.18,13.14,6.68,20.14a27.54,27.54,0,0,1-.27,13.38C233.62,157.87,233.59,164,237.57,169.75Z"/><path class="cls-2" d="M235.16,215.24l-9,9.62-4.68-7.19,5.68-7.22C231.24,211.37,231.56,211.55,235.16,215.24Z"/><path class="cls-3" d="M233.4,91.5l-8.78,4.85c-1.49-1.93-2.92-3.82-4.38-5.67s-3-3.72-4.65-5.76l6.13-5.55Z"/><path class="cls-1" d="M224.77,143.39c.84,10.35-1.71,20.11-3.35,30.09-2.14,13-9.82,22.59-18.61,31.54-1.46,1.49-3.53,2.39-5.35,3.51-1.58,1-3.29,1.76-4.78,2.85-2.94,2.14-3.2,4.15-.61,6.72a24.16,24.16,0,0,1,7,12.32c-5.42,4.07-11.46,5.77-17.59,7.16-8.49,1.93-17,3.61-25.5,5.64a5.64,5.64,0,0,1-5.79-1.47c-3.93-3.6-5.36-3.49-8.56.79a7,7,0,0,1-6.62,3,89.62,89.62,0,0,1-21.94-3.47c-5.17-1.61-10.38-3.1-15.78-4.7-2.06-6.21.79-11.94,2.06-17.64-14.29-11.46-27.07-24-37-39.28a25.77,25.77,0,0,1-4.63-15.29c.12-3.7-.25-7.42-.29-11.14a41.43,41.43,0,0,1,9.12-27,76.35,76.35,0,0,0,4.69-6.65C80.14,106.32,92.6,96,106.74,88c7.07-4,15.48-5.66,23.38-8.07,9.06-2.77,18.39-2,27.66-1.36,12.31.83,23.72,4.8,34.71,10.15a66.22,66.22,0,0,1,22.66,18.64,27.14,27.14,0,0,1,3.37,6.4C222.55,123.26,223.94,133.2,224.77,143.39Zm-41.6,3.9c1.51-4.4,3-9.25,2.68-13.75-1.19-15-8.55-26.45-22-33.56a113.46,113.46,0,0,0-13.37-5.75c-6.91-2.59-14.14-3.06-21-.43-16.84,6.43-30.14,16.77-35.89,34.77-.7,2.18-1.55,4.3-2.29,6.46A29.58,29.58,0,0,0,90.91,154a73.52,73.52,0,0,0,3.94,9.93,14,14,0,0,0,3.72,4.54c4.32,3.51,8.88,6.74,13.24,10.21,6.78,5.4,14.25,8.37,23.06,7.09,1.14-.07,2.28-.16,3.42-.21,10.29-.45,19.5-4,28-9.64a24.22,24.22,0,0,0,9.08-10.07C178.14,159.7,181,153.6,183.17,147.28Zm-11.44,71.15c-.67-.42-1.43-1.27-1.92-1.14-3.6,1-7.35,1.63-10.43,4.23C163.28,224.38,167.21,223.37,171.73,218.43Zm-4.35,11.41c-1.23-1.9-2.28-3.38-4.26-2.68a4.33,4.33,0,0,0-2.33,2.19c-.64,1.59.41,2.6,2.12,3.23Zm-39.7-8.68.35-1.23A89.92,89.92,0,0,0,115.8,214c-1,1.71-1,3,.63,3.86a49.39,49.39,0,0,0,7,3.19C124.68,221.52,126.24,221.16,127.68,221.16Zm-5.12,5.3c-.52-.57-1.15-1.78-2.13-2.21-1.3-.57-3.52,1.34-3.08,2.61a3.66,3.66,0,0,0,2.3,1.95C120.87,229.13,122.26,228.84,122.56,226.47Z"/><path class="cls-3" d="M219.49,219.82l4,6.29-8.95,6.16L212,226.52Z"/><path class="cls-2" d="M211,70.71,219,77,213,82.19l-6.52-5.77Z"/><path class="cls-2" d="M209.5,228l2.62,6L201,239.79l-1.35-4.95Z"/><path class="cls-3" d="M207.9,68.67l-3.84,5.63-9.93-5.49c.55-2.37,1.9-4.24,3.63-6.37Z"/><path class="cls-3" d="M196,237l1.42,3.85-10.38,4c-.27-1.7-.45-2.78-.68-4.24Z"/><path class="cls-2" d="M194.67,60.63l-4.42,6.54L178.8,62.93l3-7.11C186.85,56.26,190.76,58.14,194.67,60.63Z"/><path d="M185.85,133.53c.36,4.5-1.16,9.36-2.68,13.75-2.18,6.32-5,12.42-7.8,18.52a24.22,24.22,0,0,1-9.08,10.07c-8.5,5.63-17.71,9.19-28,9.64-1.14,0-2.28.14-3.42.21-8.81,1.28-16.28-1.69-23.06-7.09-4.36-3.47-8.92-6.7-13.24-10.21a14,14,0,0,1-3.72-4.54A73.52,73.52,0,0,1,90.91,154,29.58,29.58,0,0,1,91.3,135c.74-2.16,1.59-4.29,2.29-6.46,5.76-18,19.06-28.34,35.89-34.77,6.87-2.63,14.1-2.15,21,.43A113.46,113.46,0,0,1,163.86,100C177.3,107.08,184.66,118.54,185.85,133.53ZM178.29,148c2-2.37,2.66-4.45,1.7-7.4L175.37,144Zm-1.41-24.17c-.2-1.14-.4-2.27-.6-3.41l-1.46.39,1,3.29Zm.63-8.34-4.89-4.31-1,5.35ZM172,153.78c4.17-.82,4.17-.82,2-5.13ZM171.62,164l3.09-4.85C169.85,158.69,169.52,159.23,171.62,164Zm-7.06-4a49,49,0,0,0,7.73-32.66,15.28,15.28,0,0,0-2-5.56A20.62,20.62,0,0,0,154.75,111c-2.81-.41-4.83-1.57-5.72-4.37-5.59-.9-10.44.36-15.32,1.42A42.22,42.22,0,0,0,105,129.36c-7,12.36-4.22,26.56,6.69,34.53,1.49,1.09,2.74,2.56,4.31,3.51a70.63,70.63,0,0,0,9.7,5.25c7,2.84,14,1.44,21.05-.15A27.42,27.42,0,0,0,164.55,160.07Zm.9-48.59c1.48-2,1.7-3.53-.28-5.15l-4,1.66c0,.34-.07.68-.11,1Zm.75,59-4.28-1.06c-.16,1.51-.27,2.64-.49,4.72ZM156.48,174c.08-.32-.16-.72-.33-1.36l-3.07,1.79C155,175.48,156,175.74,156.48,174Zm-5.7-73.8c2.91,4.46,4.73,4.69,7.46,1.24Zm-2.48,78.55,3.69-.53C150.1,176.44,149.16,176.65,148.31,178.7Zm-4.72-78-7.08-4-3.15,5C136.8,103.27,136.85,103.27,143.58,100.7Zm-4.26,79.63c1.79.11,2.91-1.22,3.26-3.43l-5.86.38-.37,1C137.33,179,138.29,180.26,139.32,180.33ZM130,181.76l4.88-.55C131.82,179.16,131.82,179.16,130,181.76Zm-.75-81.49c-2.91-.76-5.26.4-7.34,3.81C127.24,105.47,127.86,105.12,129.24,100.26Zm-10.57,78.22c2.56,1.22,5.11.54,7.24-2l-8.76-4C116.39,176.75,116.59,177.49,118.67,178.48Zm-5.87-66.29c3.23-.1,5.35-1.1,6.68-4.53l-6.68-.39Zm-.53,61.18c.59-4.44-.76-5.31-5.8-3.65A7.35,7.35,0,0,0,112.26,173.36Zm-4.36-55.59c1.85-1.33,1.38-3.35.85-5.66-2.92,1.06-4.53,3-6.06,5.3A4.06,4.06,0,0,0,107.9,117.77Zm-8.23,45.61c.84,1.74,4.32,2.36,7.64,1.28l-4.66-6.73C100.15,159.57,98.95,161.88,99.68,163.38ZM98.54,149c-.13-2.33-.25-4.4-.41-7.28-2.09,1.16-3.7,2.12-3.49,4S96.15,148.81,98.54,149Zm.25-13.34c-.63-1.65-.4-3.35-2.9-3.6l-2.41,5.36,1.15,1.07Zm-3.84,23.51c4.2-5.37,3.63-7.19-1.81-7.46Z"/><path class="cls-2" d="M183,241.12l.77,4.83-7.05,2.56c-.32-2.14-.57-3.84-.88-5.89Z"/><path class="cls-3" d="M180,140.55c1,3,.3,5-1.7,7.4L175.37,144Z"/><path class="cls-3" d="M178,54.69,175.92,62l-11.57-2.76,2-7.16Z"/><path class="cls-2" d="M176.28,120.37c.2,1.14.4,2.28.6,3.41l-1.1.27-1-3.29Z"/><path class="cls-3" d="M172.61,111.14l4.89,4.31-5.93,1Z"/><path class="cls-2" d="M173.93,148.65c2.19,4.3,2.19,4.3-2,5.13Z"/><path class="cls-3" d="M172.65,243.17l1.21,6.21-6.18,2.29c-.22-2.68-.39-4.62-.59-7Z"/><path class="cls-3" d="M174.71,159.18,171.62,164C169.52,159.23,169.85,158.69,174.71,159.18Z"/><path class="cls-1" d="M172.28,127.41a49,49,0,0,1-7.73,32.66,27.42,27.42,0,0,1-17.77,12.42c-7,1.59-14.08,3-21.05.15a70.63,70.63,0,0,1-9.7-5.25c-1.57-.95-2.82-2.42-4.31-3.51-10.91-8-13.67-22.17-6.69-34.53a42.22,42.22,0,0,1,28.68-21.3c4.89-1.06,9.73-2.31,15.32-1.42.88,2.79,2.9,4,5.72,4.37a20.62,20.62,0,0,1,15.58,10.85A15.28,15.28,0,0,1,172.28,127.41Zm-8.6,8.59a7.69,7.69,0,0,0-3.32-7.84,14.62,14.62,0,0,0-18.82,1.42,30.11,30.11,0,0,0-3.05,4.08l-1-.71c-.28-.92-.59-1.83-.83-2.75-1-4.09-2.09-5.06-6.32-5.72a29,29,0,0,0-3-.36,19.11,19.11,0,0,0-17.07,8c-3.57,4.78-2.67,9.18,2.42,12.24a18.69,18.69,0,0,0,5,2.35,8.31,8.31,0,0,1,6.68,6.83,11.86,11.86,0,0,0,.42,1.21c2.55,7.43,13.55,10.22,19.49,4.14a20.36,20.36,0,0,0,5.8-10.25c.23-1.09.51-2.17.77-3.27,2.16-.43,4.15-.68,6.06-1.22C161,142.94,163.09,139.85,163.69,136Z"/><path d="M169.81,217.29c.49-.13,1.25.72,1.92,1.14-4.53,4.94-8.45,5.95-12.36,3.09C162.46,218.92,166.21,218.25,169.81,217.29Z"/><path class="cls-2" d="M165.17,106.33c2,1.62,1.76,3.12.28,5.15L161.1,109c0-.34.08-.68.11-1Z"/><path d="M163.11,227.17c2-.7,3,.78,4.26,2.68l-4.47,2.75c-1.72-.63-2.76-1.64-2.12-3.23A4.33,4.33,0,0,1,163.11,227.17Z"/><path class="cls-2" d="M163.49,245l1.34,7.79-10.17,2.82V247Z"/><path class="cls-3" d="M161.92,169.42l4.28,1.06-4.77,3.66C161.65,172.06,161.77,170.92,161.92,169.42Z"/><path d="M160.36,128.17a7.69,7.69,0,0,1,3.32,7.84c-.6,3.85-2.69,6.93-6.71,8.09-1.9.54-3.9.79-6.06,1.22-.26,1.1-.54,2.18-.77,3.27a20.36,20.36,0,0,1-5.8,10.25c-5.95,6.08-16.95,3.29-19.49-4.14a11.86,11.86,0,0,1-.42-1.21,8.31,8.31,0,0,0-6.68-6.83,18.69,18.69,0,0,1-5-2.35c-5.09-3.06-6-7.46-2.42-12.24a19.11,19.11,0,0,1,17.07-8,29,29,0,0,1,3,.36c4.23.66,5.29,1.63,6.32,5.72.24.93.55,1.84.83,2.75l1,.71a30.11,30.11,0,0,1,3.05-4.08A14.62,14.62,0,0,1,160.36,128.17Zm-2.89,11c2.6-1.41,2.93-3.57,1.39-6.15a8.19,8.19,0,0,0-10.12-3.12c-3.14,1.19-5.22,4.07-4.87,6.77.3,2.39,2.5,4.09,6,4.61l1.55.24A43.79,43.79,0,0,0,157.48,139.21Zm-12.94,12.57c2.16-3.29,1.77-5.77-1.34-8.1-2.45-1.83-5.18-2.44-8-1a31.85,31.85,0,0,0-5,3.18,6.44,6.44,0,0,0-2.3,7.5A7.54,7.54,0,0,0,134.4,158C137.93,158.1,142.05,155.56,144.54,151.78Zm-12.42-13.66c2.78-4.16,1.89-7.61-2.6-9.82a10,10,0,0,0-3.7-.91c-5.86-.39-9.59,3.12-12.65,7.43a4.17,4.17,0,0,0,1.16,6.09,36.53,36.53,0,0,0,6.1,3.11C126.1,143.69,129.64,141.82,132.11,138.11Z"/><path class="cls-2" d="M163,51.76l-1.17,6.88-12.52-1.21c.25-2.44.46-4.47.72-6.95Z"/><path class="cls-4" d="M158.87,133.06c1.54,2.58,1.21,4.74-1.39,6.15a43.79,43.79,0,0,1-6.1,2.34l-1.55-.24c-3.45-.52-5.65-2.23-6-4.61-.34-2.7,1.73-5.58,4.87-6.77A8.19,8.19,0,0,1,158.87,133.06Z"/><path class="cls-2" d="M156.15,172.59c.17.64.41,1,.33,1.36-.45,1.79-1.5,1.53-3.4.43Z"/><path class="cls-3" d="M158.24,101.4c-2.73,3.45-4.55,3.22-7.46-1.24Z"/><path class="cls-5" d="M148,244c1.32,2,2.93,4.31,2.91,6.48,0,6-1.57,11.75-3.4,18.53-1.29-1.6-2.08-2.26-2.45-3.1a33.05,33.05,0,0,1-2.56-19.2,6.68,6.68,0,0,1,1-2.36C144.74,242.43,146.74,242.15,148,244Z"/><path class="cls-3" d="M152,178.16l-3.69.53C149.16,176.65,150.1,176.44,152,178.16Z"/><path class="cls-3" d="M137.3,50.85h9.47c-.14,2.27-.27,4.3-.41,6.55h-9.47C137,55.11,137.15,53.15,137.3,50.85Z"/><path class="cls-4" d="M143.19,143.68c3.11,2.32,3.5,4.81,1.34,8.1-2.48,3.78-6.61,6.32-10.13,6.22a7.54,7.54,0,0,1-6.55-4.68,6.44,6.44,0,0,1,2.3-7.5,31.85,31.85,0,0,1,5-3.18C138,141.24,140.74,141.85,143.19,143.68Z"/><path class="cls-2" d="M136.5,96.69l7.08,4c-6.74,2.57-6.78,2.57-10.23,1Z"/><path class="cls-2" d="M142.58,176.9c-.34,2.21-1.46,3.54-3.26,3.43-1-.06-2-1.36-3-2.09l.37-1Z"/><path class="cls-2" d="M138.9,249.59v5.53l-8.07-.79c.25-2.15.41-3.54.64-5.53Z"/><path class="cls-2" d="M133.67,50.54v7.57l-9,.57v-7Z"/><path class="cls-3" d="M134.87,181.21l-4.88.55C131.82,179.16,131.82,179.16,134.87,181.21Z"/><path class="cls-4" d="M129.51,128.29c4.5,2.21,5.38,5.67,2.6,9.82-2.48,3.71-6,5.57-11.69,5.9a36.53,36.53,0,0,1-6.1-3.11,4.17,4.17,0,0,1-1.16-6.09c3.06-4.31,6.79-7.82,12.65-7.43A10,10,0,0,1,129.51,128.29Z"/><path class="cls-3" d="M128.43,248.51c-.18,1.62-.35,3.05-.57,5l-9.47-2.14,1.27-4.2Z"/><path d="M128,219.93l-.35,1.23c-1.44,0-3,.36-4.29-.08a49.39,49.39,0,0,1-7-3.19c-1.58-.82-1.63-2.15-.63-3.86A89.92,89.92,0,0,1,128,219.93Z"/><path class="cls-3" d="M121.9,104.07c2.07-3.41,4.43-4.56,7.34-3.81C127.86,105.12,127.24,105.47,121.9,104.07Z"/><path d="M120.43,224.26c1,.43,1.61,1.63,2.13,2.21-.29,2.38-1.68,2.66-2.9,2.35a3.66,3.66,0,0,1-2.3-1.95C116.91,225.6,119.13,223.69,120.43,224.26Z"/><path class="cls-3" d="M121.34,52.08c.24,2.41.44,4.31.69,6.74l-11.9,1.07L109,55.24C112.88,53.3,117,53.3,121.34,52.08Z"/><path class="cls-2" d="M125.91,176.48c-2.13,2.53-4.68,3.21-7.24,2-2.08-1-2.28-1.73-1.53-6Z"/><path class="cls-2" d="M119.47,107.65c-1.33,3.43-3.44,4.43-6.68,4.53v-4.92Z"/><path class="cls-2" d="M116.75,246.65l-1.33,4.14-8.37-2,1.28-4.21Z"/><path class="cls-3" d="M106.46,169.71c5-1.66,6.39-.79,5.8,3.65A7.35,7.35,0,0,1,106.46,169.71Z"/><path class="cls-3" d="M108.75,112.11c.54,2.32,1,4.33-.85,5.66a4.06,4.06,0,0,1-5.22-.36C104.22,115.08,105.83,113.17,108.75,112.11Z"/><path class="cls-2" d="M105.91,55.58l1.42,5.18-7.39,3.17-1.13-5.85Z"/><path class="cls-3" d="M105.29,244.13l-1,4.08-12.36-3.3C94.67,241.23,98.43,241.16,105.29,244.13Z"/><path class="cls-2" d="M107.31,164.66c-3.32,1.08-6.8.45-7.64-1.28-.73-1.51.48-3.81,3-5.45Z"/><path class="cls-2" d="M98.13,141.7c.16,2.87.27,4.94.41,7.28-2.38-.16-3.69-1.45-3.9-3.28S96,142.86,98.13,141.7Z"/><path class="cls-3" d="M95.89,132c2.5.26,2.27,2,2.9,3.6l-4.15,2.83-1.15-1.07Z"/><path class="cls-3" d="M95.88,59c.57,2.23,1,4,1.52,6l-9.62,4.55-2-5.19Z"/><path class="cls-3" d="M93.14,151.68c5.43.27,6,2.09,1.81,7.46Z"/><path class="cls-3" d="M90.28,230.14c2.27.79,3.85,1.94,2.54,5.29-2.65-1.29-5.43-2.28-7.82-3.86-12.79-8.47-24.88-17.79-34.68-29.76-4.56-5.57-8.39-11.57-10.41-18.55a41.06,41.06,0,0,1-.78-4.43l1.25-.6a25.58,25.58,0,0,1,2.39,2.73,27,27,0,0,1,2.48,4.5c3.54,8.65,9.4,15.6,16,22,2.66,2.59,5.35,5.18,7.77,8A48.83,48.83,0,0,0,90.28,230.14Z"/><path class="cls-2" d="M91.84,238.71l-3.08,5.07L79.47,240l4.35-5.41Z"/><path class="cls-2" d="M85.39,70.93l-6.23,4.94-2.42-4.66,6-4.7Z"/><path class="cls-3" d="M81.16,232.86l-4,5.86-8.5-5.29,5.46-6.08Z"/><path class="cls-3" d="M74.23,73.12,76.7,77.5,67.09,87.65l-4.2-5.44Z"/><path class="cls-2" d="M65,220.25l7.08,5.58-6,5.64-5.5-4.76C61,223.78,63.08,222.26,65,220.25Z"/><path class="cls-2" d="M60.15,84.3,64,90.65l-6.44,7.28-6.26-5.66Z"/><path class="cls-3" d="M62.48,218.13l-4.62,5.92-7.22-6.13,5.89-5.21Z"/><path class="cls-3" d="M49.33,94.26,54.87,101,47.3,111.72l-7.85-4.6Z"/><path class="cls-2" d="M48.85,204.41l5.7,6.42-5.92,5-5.32-6.69Z"/><path class="cls-1" d="M42.89,159.14c.83,6-.26,8.78-4.45,11.78l-1.82-3.49c-2.54.34-5.2.59-7.82,1.06-6.37,1.15-12.53-.52-18.65-1.66C5,165.9.77,159.72.88,154.77,1,151,2.38,149.49,6,149.31A8.28,8.28,0,0,1,12.9,152c3.35,3.55,7.37,5.71,12.57,5.15,3.66-.39,7.38-.27,11.28-.39l1.4-5C41.54,153.15,42.47,156.09,42.89,159.14Z"/><path class="cls-3" d="M46.87,202.17,41.65,207l-7.25-9.34,6.22-4.69Z"/><path class="cls-2" d="M45.64,114.28l-4.4,8.21-8-3.87,4.36-8.43Z"/><path class="cls-3" d="M40.25,125.15l-2.05,6.64-10.43-.52,3.51-8.49Z"/><path class="cls-2" d="M26.4,134.93H37.18l-1.41,6.55-11.19,1.11Z"/><path class="cls-2" d="M35.51,180.32l3.72,9.85-6.5,5.21c-3.08-3.65-4-7.82-5.41-12.27Z"/><path class="cls-3" d="M33.54,172.66c.75,3.79-.37,5-6.86,7.29-.4-2.35-.75-4.39-1.12-6.57C28.38,172,31,172.55,33.54,172.66Z"/><path class="cls-3" d="M34.94,144.59c-1.14,8.35-1.6,8.63-10.69,7.1a27,27,0,0,1-.24-2.77c0-1,.17-1.94.32-3.47Z"/></svg>