<svg id="圖層_1" data-name="圖層 1" xmlns="http://www.w3.org/2000/svg" viewBox="0 0 287.81 324.7"><defs><style>.cls-1{fill:#4f5654;}.cls-2{fill:#ddae1d;}.cls-3{fill:#fff;}.cls-4{fill:#1d7052;}.cls-5{fill:#b8b7b7;}.cls-6{fill:#cf543f;}</style></defs><title>chks</title><path d="M271.56,287.42c2.61,2.9.79,6.38-1.26,8.28a1.94,1.94,0,0,1-1,.4c-5.36.68-10.71,1.68-16.09,1.92-6,.26-11.93-.11-17.9-.34a13.14,13.14,0,0,1-6.16-1.39c-2.52-1.39-3.27-3.79-4.26-6-2.3-5.12-4.39-10.34-6.38-15.6a74.18,74.18,0,0,0-8.92-16.8,7.15,7.15,0,0,0-4.92-2.85c-2-.32-4-.29-6-.49-1.3-.13-2.19.2-2.5,1.59-.22,1-.53,1.92-.81,2.88-2,6.83-4.84,13.45-9.34,18.81a104.19,104.19,0,0,1-14.66,14.85A56.18,56.18,0,0,1,158,300.26a60.73,60.73,0,0,1-18.64,4.21,131.1,131.1,0,0,1-26.48-.37c-6.08-.7-12.1-1.64-17.65-4-4-1.71-7.55-4.39-11.09-6.94a100.52,100.52,0,0,1-10-8.23,37.52,37.52,0,0,1-4.94-6.34c-3.86-5.64-8.08-11.1-10.28-17.68-3.37-10.06-5.47-20.28-3.33-31A118,118,0,0,0,58,215.78c.2-2.58.25-5.56-2.2-7.8-1-.92-1.35-2.66-1.78-4.09-1.23-4-2.45-8.06-3.51-12.13a93.62,93.62,0,0,1-3.3-25.15c.06-3.95-.68-7.9-.64-11.85a92.29,92.29,0,0,1,2.76-21.28,30.12,30.12,0,0,0,.28-13.91c-.9-4.08-.85-8.37-1.56-12.5a46.13,46.13,0,0,0-2.48-9.2C44,94,39.16,92,35,92.62c-3.57.53-7.24,1-10.75-.56-.11-.05-.26-.17-.34-.14-2,.8-3.22-.19-5-1.19-3.16-1.81-5.18-4.9-2.79-8.57a11.17,11.17,0,0,1,6-4.78c3.31-1.15,6.61-1.22,10-1.37,1.85-.09,3.68-.58,5.52-.59,3.44,0,6.89.16,10.32.36,1.49.09,2.95.52,4.44.64a5.23,5.23,0,0,1,4.69,3.49C58.87,84,60.89,88,62.54,92.2c.65,1.63.58,3.55.87,5.53,1.34-2.16,2.48-4.28,3.89-6.2A64.27,64.27,0,0,1,80.1,78.17a124.84,124.84,0,0,1,19-12.46,68.41,68.41,0,0,1,10.32-3.92c5.36-1.7,10.79-3.18,16.19-4.75l.18-.07c4.71-1.1,4.63-1.21,3.3-6.13-.44-1.63-1.35-3.13-1.75-4.76a87,87,0,0,1-2.2-10.23,42.81,42.81,0,0,1,1.41-18.47c1.09-3.43,2.4-6.94,5.67-9.06s8.25-1.68,8.76,4c.47,5.09,1.33,10.15,2,15.32,1.41-1.45,2.8-2.76,4-4.19,2.48-2.87,9.52-1.8,10.56,3.12A41.69,41.69,0,0,1,157,45.73c-.69,2.71-1.48,5.39-2.2,8,4.25,1.41,8.13,2.81,12.07,4a66.15,66.15,0,0,1,17.87,9c1.82,1.22,3.73,2.32,5.43,3.68,5.09,4.08,10.09,8.25,15.12,12.39a1.7,1.7,0,0,1,.42.39c2.2,3.83,6.16,5.23,9.89,6.69,2.51,1,5.38,1.07,8.1,1.55s5.66,1.11,8.51,1.47c2.48.31,5,.34,7.48.52,6.2.45,12.4.83,18.58,1.44a11.64,11.64,0,0,1,4.22,1.66c1.52.84,2.46,2.43,1.57,4s-2.24,3.17-3.73,3.61a38.44,38.44,0,0,1-17.08,1.23,109.72,109.72,0,0,1-15-3.19c-2-.62-4.31-.44-6.47-.7-1-.12-2.07-.42-3.71-.76l1.51,2.89c2.56,4.86,5.15,9.71,7.66,14.59a68.46,68.46,0,0,1,4.32,9.1,85.45,85.45,0,0,1,3.8,14.29,132.46,132.46,0,0,1,1.21,17.41,44.55,44.55,0,0,1-1.06,10.28c-1.65,7.61-3.64,15.14-5.49,22.7-1,4-1.65,8.07-3,11.94a68.39,68.39,0,0,1-4.65,9.82c-1.5,2.81-3.27,5.48-5,8.38,1.05.7,2.41,1.56,3.71,2.5a109.74,109.74,0,0,1,9.1,6.72c4.85,4.31,7.86,9.63,7.18,16.43C237,250.88,235,253,232,253.14a1.48,1.48,0,0,1-1-.2c-2.67-2.47-5.43-4.85-7-8.23-2.47-5.19-7.12-8.2-11.6-11.35-.65-.47-1.36-.85-2.62-1.62.21,2.12.27,3.73.59,5.29.09.45.85.88,1.39,1.1,3.26,1.33,4.65,4.11,5.92,7.12a20.4,20.4,0,0,0,2.66,4.08c2.47,3.29,4.64,6.71,5.47,10.83a5.71,5.71,0,0,0,.73,1.52c2.72,4.89,5.4,9.81,8.2,14.66a14.73,14.73,0,0,0,3.29,4.31c1.12.87,3.06,1.59,4.31,1.23,3.33-1,6.61-.29,9.86-.21,5.06.14,10.27.09,15,2.39A14.78,14.78,0,0,1,271.56,287.42Zm-3.23,3.67c.43-1.24-1.67-3.92-3-4-4.13-.26-8.28-.85-12.38-.57a44.81,44.81,0,0,1-16.56-1.72,2.7,2.7,0,0,1-1.3-.66,29.32,29.32,0,0,1-3-4.22c-2-3.66-3.69-7.44-5.58-11.13-3.9-7.64-7.3-15.54-12.23-22.65-3.21-4.62-7.57-6.12-12.84-5.8-.63,0-1.65.68-1.75,1.18-.6,3.12-1,6.27-1.48,9.59a52.41,52.41,0,0,0,6.65-.06c3.06-.38,4.81,1.19,6.28,3.46s2.95,4.31,4.17,6.6c1.82,3.42,3.43,7,5.1,10.45,3,6.15,5.85,12.33,8.89,18.43.52,1,1.61,2.34,2.6,2.51A94.7,94.7,0,0,0,245.43,294c5.08.08,10.17-.51,15.26-.84a49.58,49.58,0,0,0,5.81-.57A2.78,2.78,0,0,0,268.33,291.09Zm-7.79-189.92a1.91,1.91,0,0,0,.42-3.58,8.62,8.62,0,0,0-3.71-1.13c-7-.51-14-.81-21-1.35-3.23-.25-6.44-.79-9.63-1.35-4.06-.71-8.1-1.58-12.14-2.38-.71-.14-1.43-.23-2.44-.39,1.16,2,2,3.71,3.16,5.26a3,3,0,0,0,2.23,1.19c3-.35,5.57.93,8.31,1.53s5.64,1.69,8.52,2.21c4.25.78,8.58,1.13,12.84,1.87C251.83,103.88,256.18,102.41,260.54,101.17ZM234.06,248.08a4.47,4.47,0,0,0,.32-1.46,15.57,15.57,0,0,0-2.52-8.51,27.52,27.52,0,0,0-12-9.72c-1.61-.7-3.16-1.55-4.79-2.17a1.89,1.89,0,0,0-1.6.43,1.47,1.47,0,0,0-.15,1.44c2.09,2,3.29,5,6.36,5.93a2.69,2.69,0,0,1,1.17.91c3.58,4.51,7.12,9.06,10.7,13.57.32.4,1,1.06,1.15,1A3.83,3.83,0,0,0,234.06,248.08Zm-2.39-78c1.23-9.72,2.29-19.41.83-29.19a40.2,40.2,0,0,0-1.65-7.7c-1.4-3.88-3.16-7.63-4.86-11.4-1.57-3.47-3.08-7-4.91-10.32-2.22-4-4.85-7.87-7.1-11.9-4.12-7.38-8.95-14.14-15.83-19.23-1.41-1-2.71-2.22-4.09-3.31-2.76-2.18-5.33-4.68-8.35-6.42-4.95-2.85-10.19-5.2-15.31-7.76-2.35-1.18-4.58-2.73-7.06-3.44-3.83-1.1-7.83-1.58-11.74-2.38s-7.72,0-11.55.53c-2.43.33-4.79,1.11-7.19,1.67a2.67,2.67,0,0,1-.88,0,6,6,0,0,0-2-.23c-5.25,1.42-10.51,2.82-15.7,4.44a98.66,98.66,0,0,0-13.39,4.78,97.63,97.63,0,0,0-12,7.45,71.3,71.3,0,0,0-8.11,6.28,70.46,70.46,0,0,0-5.46,6.23c-3.53,4.08-7.11,8.12-9.14,13.25-1.25,3.16-3,6-1.24,9.76,1.25,2.74,1.29,6.06,1.69,9.15.31,2.39.19,4.84.52,7.23.94,6.7,2.07,13.37,3,20.06.17,1.19.54,1.72,1.68,1.72l6.78,0c9.08-.08,18.15-.2,27.23-.22,3.22,0,2.47.55,3.49-2.55,3-8.92,7.76-16.48,15.87-21.54,1.29,1.23,2.34,2.19.9,3.89a66.32,66.32,0,0,0-5.92,7.74A50.73,50.73,0,0,0,114,149.9a61.35,61.35,0,0,0-1.8,20.84c.24,3.42.65,6.83,1.08,10.23A39.15,39.15,0,0,0,117,193.51a1.37,1.37,0,0,0,.79.71,24.39,24.39,0,0,0,4.48.51c2.86-.09,3.76-.77,3.9-3.52.3-5.93.57-11.88.38-17.8a73.13,73.13,0,0,1,1.13-17.51,33.31,33.31,0,0,1,6.76-14.56c.39-.49,1.17-.67,1.77-1a6,6,0,0,1,0,1.95c-.92,2.46-2,4.88-3,7.43a9.68,9.68,0,0,0,1.27.21c6.14.06,12.27.18,18.41.11,3.18,0,6.36-.51,9.54-.59,6.26-.16,12.52-.29,18.78-.24,6.64.06,13.29.19,19.92.6,5.6.35,10.29,2.66,12.9,8a4.72,4.72,0,0,1,.08,3.16,16.51,16.51,0,0,1-1.77,3c-.85,1.52-1.41,3.29-2.54,4.53a3.57,3.57,0,0,0-1,2.81c.26,8.87.68,17.75.71,26.62,0,8.07,1.6,16.08.78,24.17,0,0,.06.1.43.66,1.93-3.06,3.87-5.77,5.42-8.68,3.1-5.83,6.45-11.58,8.83-17.71A110.71,110.71,0,0,0,231.67,170.09Zm-24.54-4.24c1.21-.89,2.83-2.47,2.77-3.67-.32-6-2.53-9.54-9-9.52-5.42,0-10.84.34-16.27.52s-10.87.54-16.3.45c-5.12-.09-10.22-.86-15.34-1-6.75-.17-13.51,0-20.26,0a2,2,0,0,0-1.53,1,26.9,26.9,0,0,0-1.88,11c.09,1.53.68,2.11,2.31,2.16,5.63.15,11.26.48,16.88.76,1.57.08,3.12.27,4.69.29,5.24.06,10.48,0,15.72.11,5.45.14,10.89.55,16.35.69,4.76.12,9.52,0,14.28,0,0,.09,0,.19,0,.28a10.09,10.09,0,0,0,2.17-.45A27.66,27.66,0,0,0,207.13,165.85Zm-1.19,70.61c0-.46.1-.88.09-1.31-.13-8.41-.17-16.83-.45-25.24-.17-5.33-.74-10.65-1-16-.19-3.57-.27-7.16-.29-10.74,0-3.91.09-7.82.16-12.16-2.61.41-4.64.67-6.64,1.06s-3.89,1.18-5.85,1.27c-3.47.16-7,0-10.44-.14-3.73-.1-7.49-.61-11.19-.3-5.65.47-11.2-.22-16.78-.65-2.63-.21-5.27-.32-7.91-.48a2.66,2.66,0,0,0,1.46,1c5,1.45,10.09,2.76,15.05,4.39,2,.65,3.66,2.23,5.64,2.93a31.3,31.3,0,0,1,10.32,6.64c2,1.79,4.32,3.35,5.86,5.47,3.45,4.75,6.51,9.79,9.72,14.72a4,4,0,0,1,.57,1.18c1.42,5.65,2.88,11.3,4.19,17a41.4,41.4,0,0,1,.81,6.31c.13,1.83,0,3.68,0,5.69ZM194.7,247.84a46.25,46.25,0,0,0,.78-10.1,112.54,112.54,0,0,0-1-15.37c-1-6-3.49-11.63-6.36-17-1.89-3.57-3.57-7.34-6-10.48-3.75-4.79-8.93-8.1-14.17-11a74.12,74.12,0,0,0-11.77-5.15c-4.12-1.45-8.41-2.46-12.66-3.52-3.81-.94-7.68-1.65-11.5-2.51-1.27-.29-1.88,0-1.93,1.41-.07,1.75-.3,3.49-.45,5,2.76.42,5.19.92,7.65,1.11a30.7,30.7,0,0,1,10.66,3,30.1,30.1,0,0,1,3.49,1.4c2.74,1.72,6.81.94,8.52,4.57.11.22.56.25.83.41,2,1.22,4.19,2.19,5.88,3.72a107.58,107.58,0,0,1,8.31,8.65,43.11,43.11,0,0,1,5.69,7.46c3.49,6.41,5.13,13.47,6.22,20.65.73,4.87-.16,9.65-.81,14.45-1,7.54-3.16,14.68-8.19,20.56a203.92,203.92,0,0,1-14.28,15.55,42.88,42.88,0,0,1-11.28,7.73c-7.23,3.35-15.07,4.78-23.05,5.32-14.75,1-28.25-2.34-39.82-11.86-5.81-4.78-11.49-9.62-15-16.69-2.79-5.62-4.94-11.26-5.3-17.52-.23-4-.35-7.91-.55-11.86-.47-9.3.31-18.34,5.62-26.39,1.83-2.78,4-5.36,5.67-8.22,2.79-4.74,7-8,11.13-11.41,4.62-3.77,10.17-5.73,15.89-7.15,1.6-.4,2.37-1.07,2.06-2.84a18.17,18.17,0,0,1-.15-4c.07-1.4-.39-1.62-1.77-1.46-5.76.66-10.59,3.72-15.62,6.12A38.91,38.91,0,0,0,81,187.2a59.18,59.18,0,0,0-13.88,19.61A22.22,22.22,0,0,1,65,211.41c-2.23,3.07-3.06,6.58-3.75,10.17-.65,3.39-1.35,6.77-1.92,10.18a27.93,27.93,0,0,0-.59,6c.2,3.75.64,7.5,1.15,11.22a45,45,0,0,0,1.61,8.11c1.16,3.5,3,6.76,4.19,10.27,1.86,5.71,5.91,9.72,9.92,13.81,1.25,1.28,2.64,2.42,3.9,3.69,1.88,1.9,3.57,4,5.58,5.76,5.09,4.41,11.42,6.37,17.62,8.57a50.86,50.86,0,0,0,13.85,2.36c5.3.34,10.56,1.56,15.93.75,2.35-.36,4.74-.45,7.1-.78,2.52-.35,5-.82,7.52-1.29.74-.14,1.44-.46,2.16-.67,6.31-1.86,12.5-4.1,17.8-8a97.58,97.58,0,0,0,9.35-8.62,54.62,54.62,0,0,0,4.83-5.29,64.43,64.43,0,0,0,9.92-17.28A84,84,0,0,0,194.7,247.84Zm-14.29-11.27c1.15-.19,1.43-.83,1.27-2-.35-2.74-.35-5.52-.73-8.25s-.65-5.59-1.71-8.07a106.33,106.33,0,0,0-6.41-12.27,26.61,26.61,0,0,0-8.64-8.79c-.76.84-1.41,1.58-2.08,2.29-2.38,2.51-4.81,5-7.14,7.52-1.5,1.64-2.77,3.48-4.28,5.11-1,1.05-2.26,1.8-3.29,2.81q-5.72,5.62-11.34,11.33a3.9,3.9,0,0,0-.59,5.25c.87,1.51,1.64,3.09,2.52,4.77,1.15.1,2.51.28,3.87.34q7.1.33,14.2.6c3.12.11,6.27,0,9.37.25A58.47,58.47,0,0,0,180.41,236.56Zm1.49,6.23c-.6-.06-.79-.09-1-.09l-41.82.21-.76,0c-2,0-2.55,1.74-3.26,3-.31.53.67,2,1.3,2.87,1.86,2.54,4.86,2.51,7.49,2.6,5.07.16,10.17-.28,15.25-.29,5.57,0,11.14.25,16.71.26,1.32,0,3.48-.09,3.81-.81C180.75,248.15,181.19,245.49,181.91,242.8Zm-3.49,13.46c.21-.55.45-1.35.2-1.74s-1.08-.37-1.66-.38c-.81,0-1.62.19-2.43.19-8.14,0-16.28-.1-24.42,0-2.39,0-4.77.42-7.15.65l-.25.59,19.12,21.35a17.49,17.49,0,0,0,1.62-1.28c2-2,4-3.85,5.77-6C172.69,265.46,176.42,261.44,178.42,256.26Zm-22.15,24.61c1.92-1.35,1.91-1.61.32-3.29-3.31-3.48-6.67-6.93-9.86-10.52-1.49-1.67-2.48-3.8-4-5.46a84,84,0,0,0-6.09-5.79,2.45,2.45,0,0,0-1.58-.71c-2.87.25-5.73.59-8.58,1-.49.07-1.27.69-1.29,1.09-.28,5.27-.51,10.55-.62,15.83-.1,4.71,0,9.43,0,14.14a12,12,0,0,0,.35,2,9.38,9.38,0,0,1,1.07-.08C137,289.73,147.16,287.23,156.27,280.87Zm3-87c-2.21-1.12-4.07-2.13-6-3s-4-1.8-6.09-2.52c-2.31-.81-4.67-1.51-7.05-2.09a35,35,0,0,0-6.6-1.17c-2.92-.13-3.83.91-3.79,3.85a11.44,11.44,0,0,1-3.44,8.65,1.83,1.83,0,0,0-.6,1.07c0,1.44.11,2.89.15,4.33.14,5.82.24,11.64.39,17.46.05,2.23.18,4.45.28,6.79a9.16,9.16,0,0,0,5.34-3.2c2.91-3.21,6.32-6,9.2-9.19C147.19,208,153.15,200.93,159.23,193.9ZM156,34.74a17.54,17.54,0,0,0-.72-6.67c-.47-1.84-1.8-2.31-3.14-1.44a15.48,15.48,0,0,0-6.75,10.47c-.79,4.17-.8,8.48-1.16,12.73-.22,2.57.42,3.26,3,3.27.37,0,.75,0,1.13-.05V53a10.2,10.2,0,0,1,2.07,0c1.48.31,2.08-.46,2.33-1.72C153.84,45.76,155.13,40.28,156,34.74ZM138.8,53.91c2-.37,2.56-1.7,2.55-3.52,0-6.18,0-12.36,0-18.54l-.26,0c-.4-3.54-.64-7.1-1.24-10.59-.48-2.8-.95-5.77-2.25-8.22-1.86-3.49-3.88-4-6.16-.72-.32.46-.61.95-.88,1.44A22.94,22.94,0,0,0,128,23.45c-.41,5.26-1,10.5.62,15.68.73,2.38,1.21,4.84,1.84,7.26s1.36,5.05,2,7.58c.25,1,.73,1.35,1.78,1A43.9,43.9,0,0,1,138.8,53.91ZM133.5,239.1l-.4-.33a28.52,28.52,0,0,0-.68-3.88c-.49-1.55-1.47-2.82-3.3-2.89-2.48-.09-5,.17-6.51,2.4a22.61,22.61,0,0,0-2.26,4.65c-.88,2.23,1.47,5.73,3.84,5.38a25.32,25.32,0,0,0,7.06-2.25C132.26,241.71,132.76,240.16,133.5,239.1Zm-.79,12.4c-1.74-2.69-1.72-2.6-5.11-1.83-1.54.35-1.35,1.35-1.41,2.64Zm-11.62-22.07.74-.51c-.15-1.68-.41-3.36-.44-5-.12-6.67-.12-13.34-.31-20a7.12,7.12,0,0,0-1.19-4,14.09,14.09,0,0,0-5.86-4.38,4.1,4.1,0,0,1-2.92-3.92c-.08-2.7-2.07-4.07-4.61-3.24-4.34,1.41-8.63,3-12.83,4.84-2.08.9-4.09,2.21-4.82,4.84C99.71,208.28,111.67,217.52,121.08,229.43Zm-.54,23.11a13,13,0,0,0,.11-2.46c-.12-.85-.27-2.15-.8-2.39a3.28,3.28,0,0,0-2.76.31c-1.85,1.27-3.5,2.83-5.54,4.54Zm-.29,37.27V257.44c-3.83,0-7.83,0-11.83,0a4.37,4.37,0,0,0-2.67.66c-3.23,3-6.41,6-9.41,9.17-2.68,2.85-5.09,5.94-7.71,9a8.65,8.65,0,0,0,1.65,1.39c6.52,3.5,12.93,7.26,19.67,10.29C112.95,289.37,116.62,289.23,120.25,289.81Zm-7-54.11a4.17,4.17,0,0,0,4.36-3.18c-2.32-2.1-5.08-4-7.1-6.54-3.85-4.81-8.45-8.79-13-12.87-3.42-3.07-6.85-6.13-10.15-9.33-1.33-1.29-2.44-.22-3.63-.08-.19,0-.43,1-.38,1.43.47,4.07,1.37,8.05,1.45,12.21a54.48,54.48,0,0,0,1.71,11.87c.51,2.08,2.14,3.89,3.26,5.82,3.83.54,7.65,1.43,11.48,1.53C105.27,236.65,109.28,235.83,113.28,235.7ZM115,243l-.37-.48c-11.06,1.86-22.13,1.37-33.35.08,2.81,5,7.65,7.08,12.61,8.44,3.57,1,7.46.79,11.21,1.05a2.18,2.18,0,0,0,1.54-.48C109.41,248.74,112.17,245.84,115,243Zm-7-76.58V153.59c-5-.42-9.93-.87-14.86-1.21a30,30,0,0,0-7.32,0c-4.06.74-8,1.13-12.07.09-1.61-.41-3,.59-2.78,1.69.57,3.53,1.18,7,1.88,10.55a1.64,1.64,0,0,0,1.21,1c4.86.16,9.72.21,14.59.31,5.4.12,10.79.28,16.18.4C105.89,166.4,107,166.38,108,166.38Zm.88,4.23c-.26-1.44-.26-1.4-1.81-1.33-4.88.21-9.75.48-14.64.56-5.92.1-11.85,0-18,0,.85,4.9,1,9.47,3.06,14.08a42.6,42.6,0,0,1,14.72-8.73C97.49,173.26,103.16,172.14,108.85,170.61Zm-6.9,85c-.91,0-1.55,0-2.17,0a12.59,12.59,0,0,1-2.78.34c-4.64-.66-9.38-1.15-13.27-4.09a21,21,0,0,1-3.58-3.92,9.52,9.52,0,0,1-1.35-2.67c-1-2.84-3-3.74-5.82-3.1a6.8,6.8,0,0,0-.64.32c.27,1.19.48,2.46.85,3.68.42,1.37,1.54,2.79,1.36,4a10.66,10.66,0,0,0,1.28,6.26c1.38,3,3.35,5.71,4.26,8.79,1,3.46,3.52,5.64,5.37,8.43ZM83.86,235.14a2.1,2.1,0,0,0,.56-1.78c-.37-1.44-1-2.81-1.5-4.23a7,7,0,0,1-.45-2,26.32,26.32,0,0,0,0-3.27c-.55-3.15-1.31-6.26-1.89-9.41-.33-1.77-.48-3.57-.73-5.55-.4.25-.54.29-.6.38-5.12,7.1-5.68,14.93-3.57,23.13C76.57,235.76,81.2,237.27,83.86,235.14ZM73.5,188.47a4.57,4.57,0,0,0,.82-3c-.43-3.79-.9-7.6-1.7-11.33-1.9-8.84-4.13-17.61-6-26.46-1.34-6.47-2.4-13-3.33-19.56-.89-6.26-1.43-12.57-2.16-18.86-.2-1.74-.53-3.46-.81-5.2-.74-4.75-1.14-9.58-2.34-14.22s-3.12-9.41-8.75-10.77L50,77.32c-1,.62-1.55,1.19-2.08,1.21-4.52.12-9,.07-13.57.24-2.7.1-5.38.54-8.07.77a10.18,10.18,0,0,0-6.37,2.94c-2.45,2.35-2,4.25,1.21,5.12l.18.06c4,1.6,8.27,1.52,12.4,1.17s7.82.34,10.81,3c2.68,2.41,5.53,5,5.51,9.13a4,4,0,0,0,.17.73c.84,4.37,2,8.72,2.41,13.13.41,4.64,1.61,9.12,2,13.74.38,4.11,1.44,8.14,2.15,12.22,1,5.86,1.94,11.74,3,17.59.48,2.76,1.19,5.49,1.68,8.25.73,4.06,1.23,8.17,2,12.22,1.18,5.8,2.55,11.55,3.83,17.31C69.45,193.55,71.57,191.08,73.5,188.47ZM64,202.77a5,5,0,0,0,.45-2.7c-.45-2.84-1-5.68-1.66-8.48-1.06-4.53-2.43-9-3.32-13.54-1.21-6.16-2.12-12.39-3.11-18.59S54.49,147.17,53.54,141c0-.06-.19-.1-.48-.25-.16,2.06-.43,4-.45,6,0,7-.07,14.08,0,21.12,0,2.44.74,4.89.67,7.31a59.15,59.15,0,0,0,3.4,21.09C58,200.17,59.5,204,61,208.15,62.21,206.06,63.23,204.46,64,202.77Z"/><path class="cls-1" d="M265.29,287.09c1.36.09,3.46,2.76,3,4a2.78,2.78,0,0,1-1.83,1.5,49.58,49.58,0,0,1-5.81.57c-5.09.33-10.18.92-15.26.84a94.7,94.7,0,0,1-13.59-1.52c-1-.16-2.08-1.47-2.6-2.51-3-6.1-5.94-12.28-8.89-18.43-1.68-3.49-3.28-7-5.1-10.45-1.22-2.29-2.76-4.41-4.17-6.6s-3.22-3.84-6.28-3.46a52.41,52.41,0,0,1-6.65.06c.49-3.32.88-6.48,1.48-9.59.1-.5,1.12-1.15,1.75-1.18,5.27-.32,9.63,1.18,12.84,5.8,4.93,7.11,8.33,15,12.23,22.65,1.89,3.7,3.63,7.47,5.58,11.13a29.32,29.32,0,0,0,3,4.22,2.7,2.7,0,0,0,1.3.66,44.81,44.81,0,0,0,16.56,1.72C257,286.24,261.17,286.82,265.29,287.09Z"/><path class="cls-2" d="M261,97.59a1.91,1.91,0,0,1-.42,3.58c-4.36,1.24-8.71,2.7-13.41,1.89-4.26-.74-8.59-1.09-12.84-1.87-2.88-.52-5.65-1.6-8.52-2.21s-5.35-1.88-8.31-1.53a3,3,0,0,1-2.23-1.19c-1.13-1.55-2-3.29-3.16-5.26,1,.16,1.74.25,2.44.39,4,.79,8.08,1.67,12.14,2.38,3.19.56,6.4,1.1,9.63,1.35,7,.54,14,.84,21,1.35A8.62,8.62,0,0,1,261,97.59Z"/><path class="cls-2" d="M234.38,246.62a4.47,4.47,0,0,1-.32,1.46,3.83,3.83,0,0,1-1.36,1.39c-.15.09-.82-.57-1.15-1-3.58-4.52-7.12-9.06-10.7-13.57a2.69,2.69,0,0,0-1.17-.91c-3.07-1-4.27-3.93-6.36-5.93a1.47,1.47,0,0,1,.15-1.44,1.89,1.89,0,0,1,1.6-.43c1.64.62,3.18,1.47,4.79,2.17a27.52,27.52,0,0,1,12,9.72A15.57,15.57,0,0,1,234.38,246.62Z"/><path class="cls-3" d="M232.5,140.91c1.46,9.77.4,19.46-.83,29.19a110.71,110.71,0,0,1-6.81,26.31c-2.38,6.13-5.73,11.88-8.83,17.71-1.55,2.91-3.49,5.62-5.42,8.68-.37-.56-.44-.62-.43-.66.82-8.09-.75-16.1-.78-24.17,0-8.87-.46-17.75-.71-26.62a3.57,3.57,0,0,1,1-2.81c1.14-1.24,1.69-3,2.54-4.53a16.51,16.51,0,0,0,1.77-3,4.72,4.72,0,0,0-.08-3.16c-2.61-5.3-7.29-7.61-12.9-8-6.63-.41-13.28-.54-19.92-.6-6.26-.06-12.52.08-18.78.24-3.18.08-6.36.56-9.54.59-6.14.06-12.27-.06-18.41-.11a9.68,9.68,0,0,1-1.27-.21c1-2.55,2.08-5,3-7.43a6,6,0,0,0,0-1.95c-.6.32-1.37.5-1.77,1a33.31,33.31,0,0,0-6.76,14.56,73.13,73.13,0,0,0-1.13,17.51c.2,5.92-.08,11.88-.38,17.8-.14,2.75-1,3.42-3.9,3.52a24.39,24.39,0,0,1-4.48-.51,1.37,1.37,0,0,1-.79-.71A39.15,39.15,0,0,1,113.24,181c-.43-3.4-.84-6.81-1.08-10.23A61.35,61.35,0,0,1,114,149.9a50.73,50.73,0,0,1,6.17-13.28,66.32,66.32,0,0,1,5.92-7.74c1.44-1.71.39-2.66-.9-3.89C117,130,112.23,137.6,109.28,146.52c-1,3.1-.27,2.54-3.49,2.55-9.08,0-18.15.14-27.23.22l-6.78,0c-1.14,0-1.51-.53-1.68-1.72-.93-6.7-2.06-13.37-3-20.06-.34-2.39-.21-4.84-.52-7.23-.4-3.09-.44-6.4-1.69-9.15-1.72-3.79,0-6.61,1.24-9.76,2-5.13,5.61-9.17,9.14-13.25a70.46,70.46,0,0,1,5.46-6.23,71.3,71.3,0,0,1,8.11-6.28,97.63,97.63,0,0,1,12-7.45,98.66,98.66,0,0,1,13.39-4.78c5.19-1.62,10.45-3,15.7-4.44a6,6,0,0,1,2,.23,2.67,2.67,0,0,0,.88,0c2.4-.56,4.76-1.35,7.19-1.67,3.82-.51,7.65-1.32,11.55-.53s7.92,1.28,11.74,2.38c2.48.71,4.71,2.26,7.06,3.44,5.12,2.56,10.36,4.91,15.31,7.76,3,1.74,5.59,4.24,8.35,6.42,1.38,1.09,2.68,2.27,4.09,3.31C205,85.45,209.87,92.21,214,99.59c2.25,4,4.88,7.85,7.1,11.9,1.83,3.33,3.34,6.84,4.91,10.32,1.69,3.77,3.46,7.52,4.86,11.4A40.2,40.2,0,0,1,232.5,140.91ZM183.82,88.22c0-1.26-1.76-3.2-2.95-3.2s-2.47,1.64-2.4,3,.48,2.39,2.14,2.22C182.29,90.22,183.8,89.27,183.82,88.22Z"/><path class="cls-1" d="M209.9,162.19c.06,1.19-1.55,2.78-2.77,3.67a27.66,27.66,0,0,1-5.37,2.68,10.09,10.09,0,0,1-2.17.45c0-.09,0-.18,0-.28-4.76,0-9.52.09-14.28,0-5.45-.14-10.9-.55-16.35-.69-5.24-.13-10.48-.05-15.72-.11-1.57,0-3.12-.21-4.69-.29-5.63-.28-11.25-.61-16.88-.76-1.64,0-2.22-.62-2.31-2.16a26.9,26.9,0,0,1,1.88-11,2,2,0,0,1,1.53-1c6.75-.08,13.51-.22,20.26,0,5.12.13,10.22.9,15.34,1,5.43.1,10.86-.27,16.3-.45s10.84-.5,16.27-.52C207.36,152.65,209.58,156.18,209.9,162.19Z"/><path class="cls-4" d="M206,235.15c0,.43-.06.85-.09,1.31l-6.68.63c0-2,.11-3.86,0-5.69a41.4,41.4,0,0,0-.81-6.31c-1.31-5.68-2.77-11.32-4.19-17a4,4,0,0,0-.57-1.18c-3.21-4.93-6.27-10-9.72-14.72-1.54-2.12-3.87-3.68-5.86-5.47a31.3,31.3,0,0,0-10.32-6.64c-2-.7-3.65-2.29-5.64-2.93-5-1.62-10-2.93-15.05-4.39a2.66,2.66,0,0,1-1.46-1c2.64.16,5.28.27,7.91.48,5.58.44,11.13,1.12,16.78.65,3.7-.31,7.46.2,11.19.3,3.48.09,7,.3,10.44.14,2-.09,3.89-.89,5.85-1.27s4-.65,6.64-1.06c-.06,4.34-.18,8.25-.16,12.16,0,3.58.1,7.16.29,10.74.29,5.33.85,10.65,1,16C205.86,218.33,205.9,226.74,206,235.15Z"/><path class="cls-5" d="M195.49,237.74a46.25,46.25,0,0,1-.78,10.1,84,84,0,0,1-3.6,12.45,64.43,64.43,0,0,1-9.92,17.28,54.62,54.62,0,0,1-4.83,5.29,97.58,97.58,0,0,1-9.35,8.62c-5.3,3.94-11.49,6.19-17.8,8-.73.21-1.43.53-2.16.67-2.5.47-5,.94-7.52,1.29-2.36.33-4.75.42-7.1.78-5.37.81-10.62-.41-15.93-.75a50.86,50.86,0,0,1-13.85-2.36C96.46,297,90.12,295,85,290.59c-2-1.74-3.7-3.86-5.58-5.76-1.26-1.27-2.65-2.41-3.9-3.69-4-4.09-8.06-8.1-9.92-13.81-1.14-3.5-3-6.77-4.19-10.27A45,45,0,0,1,59.84,249c-.51-3.72-1-7.47-1.15-11.22a27.93,27.93,0,0,1,.59-6c.57-3.41,1.26-6.79,1.92-10.18.69-3.59,1.52-7.1,3.75-10.17a22.22,22.22,0,0,0,2.19-4.59A59.18,59.18,0,0,1,81,187.2a38.91,38.91,0,0,1,10.36-6.75c5-2.4,9.86-5.46,15.62-6.12,1.38-.16,1.84.06,1.77,1.46a18.17,18.17,0,0,0,.15,4c.31,1.77-.46,2.45-2.06,2.84C101.14,184,95.6,186,91,189.74c-4.13,3.37-8.34,6.67-11.13,11.41-1.69,2.86-3.84,5.44-5.67,8.22-5.31,8-6.08,17.09-5.62,26.39.2,4,.33,7.91.55,11.86.36,6.26,2.5,11.89,5.3,17.52,3.51,7.07,9.2,11.91,15,16.69,11.57,9.52,25.07,12.86,39.82,11.86,8-.53,15.82-2,23.05-5.32a42.88,42.88,0,0,0,11.28-7.73,203.92,203.92,0,0,0,14.28-15.55c5-5.88,7.15-13,8.19-20.56.65-4.8,1.55-9.58.81-14.45-1.08-7.18-2.72-14.24-6.22-20.65a43.11,43.11,0,0,0-5.69-7.46,107.58,107.58,0,0,0-8.31-8.65c-1.69-1.54-3.9-2.51-5.88-3.72-.26-.16-.72-.2-.83-.41-1.71-3.64-5.78-2.85-8.52-4.57a30.1,30.1,0,0,0-3.49-1.4,30.7,30.7,0,0,0-10.66-3c-2.45-.19-4.88-.7-7.65-1.11.14-1.55.38-3.29.45-5,.05-1.41.65-1.7,1.93-1.41,3.83.87,7.69,1.57,11.5,2.51,4.25,1.05,8.54,2.07,12.66,3.52a74.12,74.12,0,0,1,11.77,5.15c5.24,3,10.43,6.26,14.17,11,2.46,3.15,4.14,6.92,6,10.48,2.86,5.38,5.4,11,6.36,17A112.54,112.54,0,0,1,195.49,237.74Z"/><path d="M180.87,85c1.19,0,3,1.94,2.95,3.2,0,1.05-1.53,2-3.22,2-1.66.18-2.07-.95-2.14-2.22S179.81,85,180.87,85Z"/><path class="cls-4" d="M181.68,234.54c.16,1.2-.12,1.84-1.27,2a58.47,58.47,0,0,1-15,.87c-3.11-.29-6.25-.14-9.37-.25q-7.1-.26-14.2-.6c-1.36-.06-2.72-.24-3.87-.34-.88-1.68-1.65-3.26-2.52-4.77a3.9,3.9,0,0,1,.59-5.25q5.63-5.71,11.34-11.33c1-1,2.31-1.76,3.29-2.81,1.5-1.63,2.78-3.47,4.28-5.11,2.33-2.56,4.76-5,7.14-7.52.67-.71,1.32-1.45,2.08-2.29a26.61,26.61,0,0,1,8.64,8.79,106.33,106.33,0,0,1,6.41,12.27c1.06,2.48,1.32,5.35,1.71,8.07S181.34,231.8,181.68,234.54Z"/><path class="cls-1" d="M180.94,242.71c.19,0,.37,0,1,.09-.72,2.7-1.15,5.36-2.25,7.72-.33.72-2.49.81-3.81.81-5.57,0-11.14-.27-16.71-.26-5.08,0-10.17.45-15.25.29-2.63-.09-5.63-.05-7.49-2.6-.64-.87-1.62-2.34-1.3-2.87.71-1.21,1.29-3,3.26-3l.76,0Z"/><path class="cls-4" d="M153.24,190.9c1.92.88,3.77,1.89,6,3-6.08,7-12,14.09-18.2,21-2.88,3.23-6.3,6-9.2,9.19a9.16,9.16,0,0,1-5.34,3.2c-.1-2.33-.23-4.56-.28-6.79-.14-5.82-.25-11.64-.39-17.46,0-1.44-.16-2.89-.15-4.33a1.83,1.83,0,0,1,.6-1.07,11.44,11.44,0,0,0,3.44-8.65c0-2.94.87-4,3.79-3.85a35,35,0,0,1,6.6,1.17c2.38.58,4.74,1.29,7.05,2.09C149.22,189.1,151.24,190,153.24,190.9Z"/><path class="cls-6" d="M155.24,28.07a17.54,17.54,0,0,1,.72,6.67c-.83,5.54-2.12,11-3.23,16.52-.26,1.26-.85,2-2.33,1.72a10.2,10.2,0,0,0-2.07,0V53c-.38,0-.76.05-1.13.05-2.59,0-3.23-.7-3-3.27.36-4.25.37-8.56,1.16-12.73a15.48,15.48,0,0,1,6.75-10.47C153.44,25.76,154.77,26.23,155.24,28.07Z"/><path class="cls-6" d="M141.35,50.39c0,1.82-.51,3.16-2.55,3.52a43.9,43.9,0,0,0-4.56,1.1c-1.05.31-1.53-.08-1.78-1-.67-2.53-1.37-5-2-7.58s-1.11-4.87-1.84-7.26c-1.6-5.19-1-10.42-.62-15.68a22.94,22.94,0,0,1,2.56-9.72c.28-.49.56-1,.88-1.44,2.28-3.27,4.3-2.77,6.16.72,1.31,2.45,1.77,5.42,2.25,8.22.6,3.5.85,7.06,1.24,10.59l.26,0C141.34,38,141.33,44.21,141.35,50.39Z"/><path class="cls-1" d="M133.09,238.77l.4.33c-.73,1.07-1.24,2.61-2.25,3.09a25.32,25.32,0,0,1-7.06,2.25c-2.36.35-4.72-3.15-3.84-5.38a22.61,22.61,0,0,1,2.26-4.65c1.55-2.23,4-2.49,6.51-2.4,1.82.07,2.81,1.33,3.3,2.89A28.52,28.52,0,0,1,133.09,238.77Z"/><path class="cls-1" d="M127.59,249.67c3.39-.77,3.37-.86,5.11,1.83l-6.52.81C126.24,251,126.06,250,127.59,249.67Z"/><path class="cls-4" d="M121.82,228.92l-.74.51c-9.41-11.91-21.37-21.15-32.23-31.45.73-2.63,2.74-3.94,4.82-4.84,4.2-1.8,8.48-3.43,12.83-4.84,2.54-.82,4.53.55,4.61,3.24a4.1,4.1,0,0,0,2.92,3.92,14.09,14.09,0,0,1,5.86,4.38,7.12,7.12,0,0,1,1.19,4c.19,6.67.18,13.34.31,20C121.41,225.57,121.67,227.24,121.82,228.92Z"/><path class="cls-1" d="M120.65,250.09a13,13,0,0,1-.11,2.46h-9c2-1.71,3.69-3.26,5.54-4.54a3.28,3.28,0,0,1,2.76-.31C120.38,247.93,120.53,249.23,120.65,250.09Z"/><path class="cls-4" d="M117.63,232.52a4.17,4.17,0,0,1-4.36,3.18c-4,.13-8,1-12,.86-3.84-.09-7.66-1-11.48-1.53-1.12-1.93-2.75-3.74-3.26-5.82a54.48,54.48,0,0,1-1.71-11.87c-.08-4.16-1-8.14-1.45-12.21-.05-.48.19-1.41.38-1.43,1.19-.14,2.3-1.21,3.63.08,3.29,3.2,6.73,6.26,10.15,9.33,4.55,4.08,9.14,8.06,13,12.87C112.56,228.5,115.31,230.42,117.63,232.52Z"/><path class="cls-1" d="M114.58,242.48l.37.48c-2.78,2.88-5.54,5.78-8.36,8.62a2.18,2.18,0,0,1-1.54.48c-3.75-.26-7.65-.08-11.21-1.05-5-1.36-9.8-3.42-12.61-8.44C92.44,243.85,103.51,244.34,114.58,242.48Z"/><path class="cls-1" d="M108,153.59v12.79c-1,0-2.08,0-3.17,0-5.39-.13-10.79-.28-16.18-.4-4.86-.11-9.72-.16-14.59-.31a1.64,1.64,0,0,1-1.21-1c-.7-3.5-1.3-7-1.88-10.55-.18-1.1,1.17-2.1,2.78-1.69,4.06,1,8,.65,12.07-.09a30,30,0,0,1,7.32,0C98,152.71,103,153.17,108,153.59Z"/><path class="cls-4" d="M107,169.28c1.55-.07,1.55-.11,1.81,1.33-5.69,1.53-11.36,2.65-16.72,4.61a42.6,42.6,0,0,0-14.72,8.73c-2.08-4.61-2.21-9.17-3.06-14.08,6.19,0,12.12.08,18,0C97.29,169.76,102.17,169.49,107,169.28Z"/><path class="cls-1" d="M84.42,233.35a2.1,2.1,0,0,1-.56,1.78c-2.66,2.13-7.29.62-8.15-2.68-2.12-8.2-1.55-16,3.57-23.13.06-.09.2-.13.6-.38.26,2,.4,3.79.73,5.55.58,3.15,1.34,6.26,1.89,9.41a26.32,26.32,0,0,1,0,3.27,7,7,0,0,0,.45,2C83.4,230.54,84.05,231.91,84.42,233.35Z"/><path class="cls-1" d="M74.32,185.51a4.57,4.57,0,0,1-.82,3c-1.92,2.62-4,5.09-6.18,7.72-1.28-5.75-2.66-11.51-3.83-17.31-.82-4-1.32-8.15-2-12.22-.49-2.76-1.19-5.49-1.68-8.25-1-5.86-2-11.73-3-17.59-.71-4.08-1.77-8.12-2.15-12.22-.42-4.63-1.62-9.11-2-13.74-.39-4.41-1.57-8.76-2.41-13.13A4,4,0,0,1,50,101c0-4.16-2.82-6.72-5.51-9.13-3-2.69-6.68-3.38-10.81-3s-8.38.43-12.4-1.17l-.18-.06c-3.18-.87-3.66-2.77-1.21-5.12a10.18,10.18,0,0,1,6.37-2.94c2.7-.22,5.38-.67,8.07-.77,4.52-.17,9-.11,13.57-.24.53,0,1.05-.59,2.08-1.21l-.76,1.79c5.63,1.36,7.52,6,8.75,10.77s1.6,9.47,2.34,14.22c.28,1.73.6,3.46.81,5.2.73,6.28,1.27,12.59,2.16,18.86.93,6.55,2,13.09,3.33,19.56,1.84,8.86,4.07,17.62,6,26.46C73.42,177.9,73.89,181.71,74.32,185.51Z"/><path class="cls-4" d="M64.48,200.07a5,5,0,0,1-.45,2.7c-.8,1.69-1.81,3.29-3,5.38-1.53-4.17-3-8-4.31-11.83a59.15,59.15,0,0,1-3.4-21.09c.06-2.43-.64-4.87-.67-7.31-.11-7-.08-14.08,0-21.12,0-2,.29-4,.45-6,.3.15.48.19.48.25,1,6.14,1.87,12.29,2.85,18.42s1.9,12.43,3.11,18.59c.89,4.56,2.26,9,3.32,13.54C63.48,194.39,64,197.23,64.48,200.07Z"/></svg>