<svg id="圖層_1" data-name="圖層 1" xmlns="http://www.w3.org/2000/svg" viewBox="0 0 287.81 324.7"><defs><style>.cls-1{fill:#fff;}.cls-2{fill:#bf5145;}.cls-3{fill:#f3e7b8;}.cls-4{fill:#ddae1d;}.cls-5{fill:#cf543f;}</style></defs><title>chks</title><path d="M272.26,113a46.73,46.73,0,0,1,0,10.21c-1.22,8.88-2.83,17.71-4.25,26.57-1,6-3.51,8.77-9.62,9.79-3.65.61-7.36.84-11.38,1.27l1.56,6.46c4.18.6,7.44,2.29,7.67,7.07.2,4.2-2.45,6.83-5.33,9.31.74,5,2,9.89,2.08,14.82.15,7.55-.28,15.13-.86,22.66-.49,6.37-3.52,11.37-9.46,14.32-3.32,1.65-6.54,3.53-9.87,5.15a24.08,24.08,0,0,0-8.34,6.56c-3.23,4-6.68,7.76-10.62,12.29,2.11.28,3.57.51,5,.66,5.39.56,10.86.76,15.87,3.18,1.41.68,2.87,1.3,4.2,2.11,3.23,2,4.25,4,3.47,6.6a7.59,7.59,0,0,1-7.06,5.29,5.3,5.3,0,0,1-2.11-.26c-8.19-3.73-17.1-2.87-25.69-4-4-.52-8-.78-12-.91-1.64-.06-3.76,0-4.88.9-6,5-13.38,6.19-20.63,7.71-6.59,1.39-13.22,2.3-20,1.19a18.41,18.41,0,0,0-5.55.18A42.2,42.2,0,0,1,125.49,281c-3.68-1.15-5-.22-5.3,3.79-.34,4.69-.29,9.42-.27,14.13,0,2.43.2,4.84-1.5,6.91-2.44.31-3.31-1.27-4-3.11q-2.85-8.08-5.68-16.16a22.67,22.67,0,0,1-.95-3.29c-.94-5.08-3.83-7.92-8.76-9.9-11.45-4.59-20.6-12.71-29.45-21.09a5.55,5.55,0,0,1-1.36-1.65c-1.89-4.36-5.79-6.51-9.5-8.91-5-3.25-10.08-6.52-15-9.9s-8.32-8.21-8.88-14.47a20,20,0,0,1,.2-5.11c1.63-9.57,3.35-19.12,5.07-28.67A28.56,28.56,0,0,1,41.18,179a10.16,10.16,0,0,0,0-7.46,7.65,7.65,0,0,1,2-8.64c4.11-4.05,4.7-9.67,6.14-14.83.26-.95-1.24-2.71-2.33-3.65-2.58-2.25-5.56-4.06-8-6.39a10.6,10.6,0,0,1-3-5c-2.19-9.18-1.8-18.09,3.19-26.51,2.69-4.54,5-9.33,7.39-14C49.52,86.87,53,87.15,59,89.19a2.88,2.88,0,0,1,1.85,3.49,19.72,19.72,0,0,1-1.38,4.91c-2.08,4.38-4.41,8.65-6.56,13-3.35,6.79-2.15,12.95,2.6,18.73,6.9-5.63,13.9-10.66,18.54-18.54A58.13,58.13,0,0,1,92.11,92.1a8.06,8.06,0,0,0,3.72-6.4c0-.43.08-.85.12-1.28.85-8,3.08-9.83,11.16-9.24,3.4.25,6.79.65,11,1.06-.35-4.34-.58-8-.94-11.65-.71-7.25-1.68-14.49-2.14-21.75a54.44,54.44,0,0,1,.7-11,6,6,0,0,1,5.76-5.42c3.93-.44,7.15.94,8.7,4.09a61.43,61.43,0,0,1,2.47,6.39c.57,1.6,1.06,3.23,1.64,5,4.93.45,9.53,1.43,11,7.32,1.74-.59,3.18-1.17,4.67-1.57,2.78-.75,4-.21,5.07,2.43a17.29,17.29,0,0,1,.82,11.32c-1,3.84-1.63,7.77-2.49,12,7.19,1.81,13.89,3.78,20.91,1.19,1.71-.63,3.47-1.59,5.1.27s3.57,3.69,3.14,6.69c-.66,4.6-.6,4.63,3.53,6.68a131.77,131.77,0,0,1,33.79,23.95,72.41,72.41,0,0,1,11.11,14.11,12.16,12.16,0,0,0,5.47,5.19c1.62.73,2.92,2.65,3.83,4.32a34.62,34.62,0,0,1,2,6c6.07,1.87,8.4,1,11.39-4.14,3.39-5.83,4.47-12.3,5.29-18.84a29.34,29.34,0,0,1,.65-4.22,8.11,8.11,0,0,1,9.33-5.62A4.09,4.09,0,0,1,272.26,113Zm-2.68,5.27a53,53,0,0,0,.37-5.36c-4.92.32-6.92,2.28-7.58,7-.6,4.23-1,8.48-1.6,12.71a19.65,19.65,0,0,1-3.65,9.46c-1.55,2.05-3.38,3.36-6.09,3.27s-5.7,0-8.55,0c-1.9,0-3.36.41-3.67,2.64s.42,4.29,2.5,4.77a116.28,116.28,0,0,0,14.23,2.69c5.56.57,7.43-1,8.5-6.59C266,138.66,267.79,128.44,269.59,118.23Zm-21.4,62.87c3-1.67,5-3.5,4.93-6.75,0-2.9-1.84-4.12-4.46-3a33.08,33.08,0,0,0-3.11,1.81Zm1.33,35.69V201.71c-2.84,1.18-5.09,2-7.25,3A152.74,152.74,0,0,1,215,214.66c-9.6,2.4-19.37,3.38-29.19,4.17-2.77.22-5.53.58-8.2.86-.13,7,1.67,14,4.77,18.79,1.24,0,2.66.06,4.08,0a151.51,151.51,0,0,0,42.33-8c5.89-2,11.41-5.14,17-7.91A6.23,6.23,0,0,0,249.51,216.78Zm-2.65-17.37c1.55-.68,2.89-1.54,1.21-3.94-.93.27-1.74.46-2.51.75-10,3.73-20,7.52-30,11.16a38.47,38.47,0,0,1-7.87,1.91c-9.32,1.27-18.66,2.37-28,3.53a7.24,7.24,0,0,0-2.09.39,1.74,1.74,0,0,0-.9,1.23,1.62,1.62,0,0,0,.77,1.32,8.63,8.63,0,0,0,2.9.36c2.84-.15,5.68-.43,8.53-.61,12.56-.8,25-2.54,36.83-6.95C232.9,205.89,239.83,202.51,246.86,199.42Zm-.21,27.46-.81-.82c-18.37,9.37-38.34,13.23-58.39,17.07a8.62,8.62,0,0,0,3.07,1.63c6.13,1.53,12.38,2.42,18.62,1.12,10.69-2.22,20.5-6.8,30.07-11.9a28.41,28.41,0,0,0,5.38-4.2A16.08,16.08,0,0,0,246.65,226.87Zm-3-33.36c3.92-1.27,4.46-2.19,2.86-6.79-6.68,3.39-13.94,4.81-21.17,6.38-4.59,1-9.13,2.25-13.69,3.38-3.17.79-6.31,1.75-9.53,2.3-5.06.86-10.17,1.41-15.26,2.13-3.75.53-7.48,1.14-11.28,1.72.09,2,.16,3.39.25,5.41,2.18.15,4,.41,5.84.38a129.24,129.24,0,0,0,47.1-9.59C233.66,196.85,238.65,195.14,243.66,193.52Zm.86-25.43-.52-1a36.54,36.54,0,0,0-3.86,1c-9.6,3.69-19.14,7.51-28.76,11.1a55.36,55.36,0,0,1-9.88,2.64c-1.18.21-2.38.36-3.58.5-2.63.29-5.29.45-7.93.64-4.13.3-8.28.44-12.41.65-1.43.07-3,0-2.93,2.26,1.81,1.21,3.77.62,5.71.34,5.9-.85,11.79-2,17.7-2.71,1.87-.21,3.75-.38,5.62-.46,13.87-.65,26.1-5.73,37.9-12.36A17.57,17.57,0,0,0,244.52,168.09Zm-4.2,17.58c4.3-1.28,6-3.17,3.45-8.76-.75-1.65-1.73-2.94-3.88-2.37-2.5.66-4.52,2.51-4.45,4.39.09,2.51.37,5,.59,7.91C237.65,186.4,239,186.06,240.32,185.66Zm.31-21.06-6-9.64c-19.9,9.18-40,15.73-61.63,17.86.28,2.66.51,4.86.75,7.07a21.05,21.05,0,0,0,3.81.56c8-.44,16.09-.15,23.84-1.69,8-1.59,15.77-4.83,23.53-7.62C230.08,169.27,235.11,166.92,240.63,164.61Zm-3.84-21.93c1.31-1.81.49-5.3-1.24-7.1s-3.2-.42-4.67.24c-5.34,2.38-10.59,4.92-15.95,7.26-9.44,4.12-19.13,7.32-29.5,8.2a43.91,43.91,0,0,0-13.28,3.37c.6,2.28,1.12,4.31,1.76,6.78,2.26,0,4.11.06,6,0,1.42-.06,2.83-.31,4.24-.5,17.13-2.29,33-8.69,48.86-15.05A9.47,9.47,0,0,0,236.78,142.68Zm-2.55,130.57c2.54.69,3,.27,4.92-3.26a24,24,0,0,0-15.2-6.5c-7.09-.51-14.22-.76-21.33-.69-4.6,0-8.79,1.84-13.08,4.74a15.57,15.57,0,0,0,1.55.33C205.59,268.74,220.1,269.41,234.23,273.25Zm-.67-121.4c1-.59,1.88-1.41.78-3.19-1.72.63-3.55,1.26-5.34,2-11.14,4.4-22.27,8.81-34.08,11.17-6.56,1.32-13.14,2.6-19.73,3.81-2,.37-2.75,1.24-1.84,3.35,4.39.77,8.73-.16,13-1,14.18-2.78,27.67-7.83,41.18-12.79A35.33,35.33,0,0,0,233.56,151.85Zm-.72,34.8c1.17-2,.49-4.56-2-7.22l-7.05,3.2.51,6C229.5,189.2,231.69,188.66,232.84,186.65Zm-2.47-54.42c-2.88-4.11-5.32-7.79-8-11.33a64.91,64.91,0,0,0-20.6-17.8c-2-1.11-3.89-2.38-5.89-3.46-4.76-2.57-9.51-5.2-14.37-7.57a16.87,16.87,0,0,0-10.4-1.35c-7.75,1.24-15.57,2.05-23.38,2.82a172.28,172.28,0,0,1-41.87-1.46,13.2,13.2,0,0,0-9.37,2.11A78.39,78.39,0,0,0,73.2,117.76a22.28,22.28,0,0,0-1.42,3.17c9.45,4.12,18.58,8.16,27.75,12.08,9.45,4,18.93,8,29.13,9.89a31.16,31.16,0,0,1,5.18,2c2,.77,2.75,2.3,2.67,4.38-.07,1.81,0,3.63,0,5.65,4.14.68,8.17,2.51,11.93.82,5.24-2.36,9.76-3.25,14.67.86,2.54,2.12,5.1.78,5.86-2.42a5.25,5.25,0,0,1,4.3-4.22c2.37-.52,4.75-1,7.14-1.38,12-2.08,23.9-4.3,35.05-9.37C220.36,137,225.21,134.65,230.37,132.22ZM220,247.82c.23-.27.15-.79.27-1.48-1.1.18-2.06.29-3,.5a77.29,77.29,0,0,1-25.52,1.57,15.83,15.83,0,0,1-10.63-5.72,22.82,22.82,0,0,1-5.4-11c-.7-3.93-1.14-7.91-1.67-11.86-.76-5.63-1.51-11.27-2.3-17.14-13.91-.89-27.61,2.54-41.15-1.06a12,12,0,0,0-.84,1.84c-1.6,6.66-3.23,13.31-4.73,20-1.67,7.39-3.52,14.71-6.87,21.56-2.29,4.67-5.84,7.9-11.15,8.28-10,.73-20,.67-29.51-3.33a37.45,37.45,0,0,0-5.68-1.33c22.51,28.46,80.45,39.55,114,23.72-1.15-5.16-.2-7.34,4.42-10.19a11.9,11.9,0,0,1,7.73-1.93C208.29,261.35,214.17,254.59,220,247.82Zm-8.13-55.33,9.35-2.89c-.42-6.71-3.05-7.75-9.35-4.37Zm-2.42.81L208.06,186c-2.6.13-5,.14-7.33.41a2.43,2.43,0,0,0-2.39,2.9c.23,2.08.43,4.17.66,6.47Zm-12.76,2.28-2.34-7.94L187,188.81v8.84Zm-23.06,1.78h10c-.18-2.81-.32-5.13-.46-7.34h-9.14C173.91,192.67,173.78,195,173.65,197.36Zm-.57-110.89c3.27-1.23,3.27-1.23,3.28-4.35Zm-3.83-.79c1.7-2.39,3.83-3.85,4.17-7.06l-9,1.69Zm1.56,111.53a33.49,33.49,0,0,0-.34-3.37,23.44,23.44,0,0,0-.92-2.84c-.67-.08-1.23-.19-1.79-.21-7.45-.16-7.18,1.18-6.42,7.48C164.63,198.09,167.75,199.27,170.81,197.2Zm-.39-10.26c0-1.39.06-2.36,0-3.33-.46-5.83-1-11.65-1.43-17.48-.4-4.77-.84-5.11-5.92-4.46-.59,1.42-1.28,2.84-1.77,4.32-2,6.06-6.42,9.55-12.2,11.69-4.82,1.78-7.27,1.15-11.09-3.23,1.5-.89,2.9-1.81,4.39-2.57,5-2.56,6.44-5.39,5.43-11.58l-11.88-1.67c-.84,9.21-1.64,17.94-2.46,26.88A87.85,87.85,0,0,0,170.41,186.95Zm-4.62-99.08-5-6.21c-1.21,2.55-2.84,4.31-3,7.15Zm-20,86.82c8.21.21,13.23-6.28,12.67-16.35-4.76-2.58-6.19-1.89-6.8,3.16-.15,1.27-.27,2.54-.43,3.81a11.21,11.21,0,0,1-4.34,8A7.44,7.44,0,0,0,145.83,174.69Zm11.75,22.94c-.37-1.93-.73-3.81-1.13-5.92l-8.9-.4c-1.22,2.66-2.46,5-.47,7.76C150.63,199,154.23,200.26,157.58,197.63ZM153.74,88.15l3.74-6.72-8.14.76-.4,1.19Zm-2.1-30.29c.45-3.85-.08-5.16-1.78-5.38s-3.28,1.35-3.78,4.46C145,63.63,144.27,70.38,143.4,77c4.32,1.4,5.41,1,6-2.72C150.39,68.86,151,63.36,151.64,57.87ZM149,88.43l-4.86-5.63L139,89.7C143,90.15,146,90.66,149,88.43Zm-7,109.71c.79-2,2.16-4.28.57-6.33s-4.34-2.33-7.18-2l-1.62,8.3ZM140.89,56.64a21.64,21.64,0,0,0-1-6.73c-.29-1.05-1.47-2.61-2.23-2.6a5,5,0,0,0-3.5,1.88,10,10,0,0,0-1.4,4.41c-1,7.42-.21,14.81.55,22.19a12,12,0,0,0,.63,2.1h4.71a4.15,4.15,0,0,0,.64-1.24C139.88,70,140.54,63.32,140.89,56.64Zm-6,32.27c1.94-2.57,4.08-4,5.29-6.85l-9.43-.52Zm-1.95,63c.75-2.88.05-3.87-3.92-5.33a25.93,25.93,0,0,0-2.88-.71c-3.74-.91-7.65-1.37-11.18-2.8-13.34-5.41-27-10-39.76-16.89-6.05-3.29-13.14-.6-16,6.16a55.86,55.86,0,0,0,13.9,9.39,187.43,187.43,0,0,0,53.3,15.19C130.17,157.42,131.87,156.1,133,151.91Zm-3.26,26c2.3-4.43,2.7-7.13,2-11.33-2.18-.13-4.33.07-6.29-.44Q105.54,161,85.73,155.53a85.14,85.14,0,0,1-28-13.49c-.66-.48-1.4-.87-2.48-1.53-.51,1.68-.86,2.76-1.16,3.86s-.66,2.48-.92,3.74c-.88,4.23-.63,5.11,3.26,7.29a46.38,46.38,0,0,0,8.22,3.5c5.29,1.72,10.67,3.14,16,4.77,12.83,3.92,25.62,7.95,38.47,11.8C122.6,176.54,126.24,177.15,129.7,177.94Zm2-13.58v-4.92c-2.85,0-5.48.39-7.95-.07-9.38-1.76-18.88-3.24-28-5.86-12.84-3.69-25.53-8-36.52-16.06,1.93,3.24,5,5.05,8.11,6.77C87.39,155.19,109.47,159.74,131.71,164.37Zm-.85,32.54.84-7.67L122.94,188l-1.14,8.89ZM119.37,89.47h11.12A13.2,13.2,0,0,0,124,82.05l-5.18,6.56Zm10.74-43.61c1.22-4.82-.39-9.34-3.63-13.14-2.11-2.48-3.82-2.44-6,0-1.78,1.95-2.11,4.25-1.93,6.77.52,7.4.88,14.81,1.48,22.2.43,5.23.9,10.49,3.23,15.36h5.08a5.25,5.25,0,0,0,.26-1.48A72.83,72.83,0,0,1,130.11,45.86Zm-.34,137.32c.28-1.66-.89-2.3-2.16-2.68s-2.76-.69-4.16-1c-24.56-5.35-48.16-13.7-72.08-22.26-2.88,4.14-2.72,4.86,1.75,6.68,5.55,2.24,11.09,4.5,16.67,6.66,2.91,1.13,6.07,1.74,8.82,3.16a55.65,55.65,0,0,0,14.07,4.92c7.8,1.65,15.56,3.5,23.39,5a99.26,99.26,0,0,0,11,1C128.26,184.71,129.51,184.73,129.77,183.18ZM118.25,218c3.54-.05,4.09-.76,4.08-5.19-27.44-3.87-54-11.11-79.2-24.07-.48,4.86-.47,4.83,3.14,6.55,21.5,10.24,44.2,16.85,67.32,22.17A20,20,0,0,0,118.25,218Zm7.51-16.22c-1.46-.3-2.69-.54-3.92-.81-5.28-1.19-10.8-1.75-15.77-3.73a125.74,125.74,0,0,0-24.75-6.67c-12.17-2.14-24-5.26-34.8-11.46a5.32,5.32,0,0,0-1.09-.29l-1.94,6.1a32.71,32.71,0,0,0,3.06,2c14.36,7.12,29.13,13.26,44.71,17.14a226.77,226.77,0,0,0,26,5C124.45,210,124.52,209.46,125.76,201.78Zm-7.68,33.62A69.2,69.2,0,0,0,121,221c-27.4-4.83-53.64-12.4-79.39-24.3-1.14,5.8-2.23,10.92-3.05,16.08A3.62,3.62,0,0,0,40,215.54,84.52,84.52,0,0,0,50,222.22c9.57,5.1,19.25,10,29,14.83s20,6.59,30.46,8.15c3.14.47,4.81-.54,6.17-3.44A41.93,41.93,0,0,0,118.08,235.4Zm.55-38.75c.22-3.23.39-5.86.58-8.69l-6.56-1.53L112,195ZM115.8,87l4.37-6.29-7.95-1.3Zm-.19,205.86c.4-4.29.8-8.59,1.19-12.77-2.05-1.5-3.8-2.59-6.6-1.35C111.22,283.73,111.14,288.95,115.61,292.89Zm-3.12-203.7-3.89-7.48-4.08,6.84Zm-4.13,104.26c1.66-7.55.72-9.08-5.17-8.61-.39,2.09-.8,4.25-1.27,6.78Zm-.06,56.18,0-1.09a54,54,0,0,0-5.51-1.35c-9.09-1.28-17.91-3.44-26.14-7.59-10.68-5.4-21.31-10.89-32-16.34-1.36-.69-2.73-1.36-4.86-2.43a9,9,0,0,0,4.33,6.62c7.25,4.95,13.91,10.87,22.39,13.84,11,7.71,23.44,9.9,36.56,9.2A45.3,45.3,0,0,0,108.31,249.62Zm-5.63-165c2.39-1.71,2-3.53,2.23-5.46L101.86,79Zm-4,105.16c1.65-6.12.36-7.6-6.31-7.22l-1.72,6Zm-11.48-2.39c.59-2.05,1.11-3.87,1.67-5.87l-6.6-2.42c-.11,2.85-1.41,5.11.09,7.63Zm-9.58-2.16c2-6.75,1.42-8.29-3.65-9.35-1.43,2.93-1.64,6-1.57,9.38,1.29.07,2.26.15,3.23.15C76.34,185.45,77,185.33,77.65,185.27Zm-8.74-1c.34-3.56.62-6.47.92-9.61L63.23,172c-.34,3.56-.64,6.62-1,10Zm-10.15-4.58,1.11-9.51L54.15,167c-.45,2.77-.88,4.86-1.12,7C52.53,178.55,53.42,179.45,58.75,179.66ZM55.54,96.79c.39-.87.32-2.62-.25-3.06a4.43,4.43,0,0,0-3.45-.54,4.12,4.12,0,0,0-2.33,2.18c-4.4,10.17-9.27,20.15-9.71,31.6-.29,7.42,3.28,12.59,11.24,14.55l3.6-7.92A62.69,62.69,0,0,0,50.19,129c-2.53-2.12-3.35-4.83-3.31-8a29.58,29.58,0,0,1,3.87-14.7A102.54,102.54,0,0,0,55.54,96.79Zm-5.08,71.84c.16-2-.88-3-2.66-3s-3.47,1.42-3.18,3.15c.43,2.63,1.24,5.17,4.7,6.54C49.77,172.77,50.29,170.71,50.46,168.63Z"/><path class="cls-1" d="M270,112.87a53,53,0,0,1-.37,5.36c-1.79,10.21-3.59,20.43-5.54,30.61-1.07,5.57-2.94,7.16-8.5,6.59a116.28,116.28,0,0,1-14.23-2.69c-2.08-.48-2.82-2.42-2.5-4.77s1.78-2.66,3.67-2.64c2.85,0,5.71-.09,8.55,0s4.54-1.22,6.09-3.27a19.65,19.65,0,0,0,3.65-9.46c.58-4.23,1-8.49,1.6-12.71C263,115.15,265,113.19,270,112.87Z"/><path class="cls-2" d="M253.12,174.34c0,3.25-1.94,5.08-4.93,6.75l-2.64-7.92a33.08,33.08,0,0,1,3.11-1.81C251.28,170.22,253.09,171.44,253.12,174.34Z"/><path class="cls-3" d="M249.51,201.71v15.07a6.23,6.23,0,0,1-3.72,5.83c-5.62,2.77-11.14,5.88-17,7.91a151.51,151.51,0,0,1-42.33,8c-1.42.06-2.84,0-4.08,0-3.1-4.82-4.91-11.83-4.77-18.79,2.66-.28,5.43-.64,8.2-.86,9.82-.79,19.59-1.77,29.19-4.17a152.74,152.74,0,0,0,27.29-9.94C244.42,203.72,246.67,202.89,249.51,201.71Z"/><path class="cls-2" d="M248.07,195.48c1.68,2.4.34,3.26-1.21,3.94-7,3.09-14,6.47-21.15,9.15-11.84,4.4-24.26,6.15-36.83,6.95-2.84.18-5.68.47-8.53.61a8.63,8.63,0,0,1-2.9-.36,1.62,1.62,0,0,1-.77-1.32,1.74,1.74,0,0,1,.9-1.23,7.24,7.24,0,0,1,2.09-.39c9.33-1.17,18.67-2.26,28-3.53a38.47,38.47,0,0,0,7.87-1.91c10-3.64,20-7.43,30-11.16C246.33,195.94,247.14,195.75,248.07,195.48Z"/><path class="cls-2" d="M245.84,226.06l.81.82a16.08,16.08,0,0,1-2.06,2.9,28.41,28.41,0,0,1-5.38,4.2c-9.57,5.1-19.38,9.68-30.07,11.9-6.24,1.3-12.48.41-18.62-1.12a8.62,8.62,0,0,1-3.07-1.63C207.5,239.28,227.47,235.43,245.84,226.06Z"/><path class="cls-3" d="M246.52,186.72c1.6,4.6,1.06,5.52-2.86,6.79-5,1.62-10,3.33-14.87,5.32a129.24,129.24,0,0,1-47.1,9.59c-1.82,0-3.66-.23-5.84-.38-.09-2-.16-3.43-.25-5.41,3.81-.58,7.54-1.19,11.28-1.72,5.08-.73,10.2-1.27,15.26-2.13,3.22-.54,6.36-1.51,9.53-2.3,4.56-1.13,9.1-2.38,13.69-3.38C232.58,191.53,239.84,190.11,246.52,186.72Z"/><path class="cls-2" d="M244,167.11l.52,1a17.57,17.57,0,0,1-2.94,2.65c-11.8,6.64-24,11.72-37.9,12.36-1.87.09-3.75.25-5.62.46l-.13-1.18c1.2-.13,2.39-.29,3.58-.5a55.36,55.36,0,0,0,9.88-2.64c9.63-3.59,19.17-7.41,28.76-11.1A36.54,36.54,0,0,1,244,167.11Z"/><path class="cls-3" d="M243.77,176.91c2.53,5.59.85,7.47-3.45,8.76-1.33.4-2.67.73-4.29,1.17-.22-2.89-.5-5.39-.59-7.91-.07-1.88,2-3.73,4.45-4.39C242,174,243,175.26,243.77,176.91Z"/><path class="cls-1" d="M234.58,155l6,9.64c-5.52,2.31-10.55,4.66-15.76,6.53-7.76,2.79-15.49,6-23.53,7.62-7.76,1.54-15.88,1.25-23.84,1.69a21.05,21.05,0,0,1-3.81-.56c-.23-2.21-.46-4.41-.75-7.07C194.6,170.7,214.68,164.15,234.58,155Z"/><path class="cls-3" d="M235.55,135.58c1.73,1.8,2.55,5.29,1.24,7.1a9.47,9.47,0,0,1-3.83,3.17c-15.86,6.37-31.73,12.76-48.86,15.05-1.41.19-2.82.43-4.24.5-1.84.09-3.69,0-6,0-.64-2.47-1.17-4.5-1.76-6.78a43.91,43.91,0,0,1,13.28-3.37c10.37-.88,20.06-4.08,29.5-8.2,5.35-2.33,10.61-4.88,15.95-7.26C232.35,135.17,233.9,133.87,235.55,135.58Z"/><path class="cls-4" d="M239.15,270c-1.95,3.53-2.38,4-4.92,3.26-14.13-3.84-28.64-4.51-43.13-5.39a15.57,15.57,0,0,1-1.55-.33c4.28-2.9,8.48-4.7,13.08-4.74,7.11-.06,14.24.18,21.33.69A24,24,0,0,1,239.15,270Z"/><path class="cls-2" d="M234.34,148.66c1.1,1.78.19,2.6-.78,3.19a35.33,35.33,0,0,1-6,3.29c-13.51,5-27,10-41.18,12.79-4.3.85-8.64,1.78-13,1-.91-2.11-.18-3,1.84-3.35,6.59-1.2,13.17-2.49,19.73-3.81,11.8-2.36,22.93-6.77,34.08-11.17C230.8,149.92,232.62,149.29,234.34,148.66Z"/><path class="cls-2" d="M230.84,179.42c2.5,2.66,3.17,5.19,2,7.22s-3.34,2.55-8.54,1.94l-.51-6Z"/><path class="cls-1" d="M222.41,120.9c2.64,3.53,5.08,7.22,8,11.33-5.17,2.43-10,4.76-14.91,7-11.16,5.07-23.09,7.28-35.05,9.37-2.39.42-4.77.86-7.14,1.38a5.25,5.25,0,0,0-4.3,4.22c-.77,3.2-3.32,4.54-5.86,2.42-4.91-4.11-9.43-3.22-14.67-.86-3.76,1.69-7.79-.14-11.93-.82,0-2-.06-3.84,0-5.65.08-2.08-.63-3.6-2.67-4.38a31.16,31.16,0,0,0-5.18-2C118.46,141,109,137,99.53,133c-9.18-3.92-18.3-8-27.75-12.08a22.28,22.28,0,0,1,1.42-3.17A78.39,78.39,0,0,1,96.53,94.19a13.2,13.2,0,0,1,9.37-2.11,172.28,172.28,0,0,0,41.87,1.46c7.81-.77,15.63-1.58,23.38-2.82a16.87,16.87,0,0,1,10.4,1.35c4.86,2.38,9.61,5,14.37,7.57,2,1.08,3.91,2.35,5.89,3.46A64.91,64.91,0,0,1,222.41,120.9Zm-57,29.61a4.57,4.57,0,0,0,2.08-4.82c-.6-4.28-1.78-8.37-4.75-11.68a112.58,112.58,0,0,0-7.91-8.39c-2.91-2.63-6.2-4.83-9.43-7.31-3.53,4.26-4.17,8.55-1.67,12.68a132.17,132.17,0,0,0,10.11,14.22c1.64,2,4.14,3.44,6.34,5A4.51,4.51,0,0,0,165.36,150.51Zm-.05-37.65c.33-1.35-1-2.21-2.43-2.21s-2.54.82-2.48,2.27c0,.85.88,1.65,1.69,3.08C163.58,114.62,165.06,113.89,165.31,112.86Zm-.64-9.64c-2.26-3.13-4.29-1.12-6.11-.32-3.12,1.38-3.27,1.82-3,5.1C159.39,108.18,161.7,105.59,164.67,103.22Zm-38.4,2c3.8,1.81,6.35,5,10.48,2.55-1.64-3.22-4.64-3.85-7.55-4.37C128.51,103.23,127.6,104.31,126.27,105.18Zm3,12.38c1.9.1,3.83-1.23,3.66-2.42a2.58,2.58,0,0,0-3-2.31,3.87,3.87,0,0,0-2.46,2.3C127,116.52,128.07,117.39,129.23,117.55Z"/><path class="cls-1" d="M220.29,246.34c-.11.69,0,1.21-.27,1.48-5.86,6.77-11.73,13.53-22,12.39a11.9,11.9,0,0,0-7.73,1.93c-4.62,2.85-5.57,5-4.42,10.19-33.53,15.83-91.47,4.74-114-23.72a37.45,37.45,0,0,1,5.68,1.33c9.52,4,19.49,4.06,29.51,3.33,5.3-.38,8.86-3.62,11.15-8.28,3.35-6.85,5.2-14.17,6.87-21.56,1.51-6.68,3.13-13.32,4.73-20a12,12,0,0,1,.84-1.84c13.53,3.59,27.23.16,41.15,1.06.79,5.87,1.54,11.51,2.3,17.14.54,4,1,7.93,1.67,11.86a22.82,22.82,0,0,0,5.4,11,15.83,15.83,0,0,0,10.63,5.72,77.29,77.29,0,0,0,25.52-1.57C218.23,246.63,219.19,246.52,220.29,246.34Z"/><path class="cls-3" d="M221.24,189.6l-9.35,2.89v-7.26C218.19,181.85,220.82,182.9,221.24,189.6Z"/><path class="cls-2" d="M208.06,186l1.42,7.34L199,195.73c-.24-2.3-.43-4.39-.66-6.47a2.43,2.43,0,0,1,2.39-2.9C203.07,186.09,205.45,186.09,208.06,186Z"/><path class="cls-2" d="M197.92,182.39l.13,1.18c-5.91.68-11.79,1.87-17.7,2.71-1.94.28-3.89.87-5.71-.34-.07-2.3,1.5-2.19,2.93-2.26,4.14-.21,8.28-.35,12.41-.65C192.63,182.84,195.29,182.68,197.92,182.39Z"/><path class="cls-3" d="M194.38,187.64l2.34,7.94L187,197.65v-8.84Z"/><path class="cls-2" d="M183.65,197.36h-10c.13-2.38.26-4.69.4-7.34h9.14C183.33,192.24,183.48,194.55,183.65,197.36Z"/><path class="cls-2" d="M176.36,82.12c0,3.12,0,3.12-3.28,4.35Z"/><path class="cls-3" d="M173.42,78.62c-.33,3.21-2.47,4.67-4.17,7.06L164.4,80.3Z"/><path class="cls-3" d="M170.47,193.84a33.49,33.49,0,0,1,.34,3.37c-3.05,2.06-6.18.88-9.47,1.07-.76-6.3-1-7.64,6.42-7.48.56,0,1.12.12,1.79.21A23.44,23.44,0,0,1,170.47,193.84Z"/><path class="cls-1" d="M170.4,183.61c.08,1,0,1.94,0,3.33a87.85,87.85,0,0,1-37-1.44c.82-8.94,1.62-17.67,2.46-26.88l11.88,1.67c1,6.19-.42,9-5.43,11.58-1.49.76-2.89,1.69-4.39,2.57,3.82,4.38,6.27,5,11.09,3.23,5.78-2.14,10.18-5.63,12.2-11.69.49-1.48,1.18-2.9,1.77-4.32,5.09-.65,5.53-.32,5.92,4.46C169.45,172,169.94,177.79,170.4,183.61Z"/><path d="M167.44,145.69a4.57,4.57,0,0,1-2.08,4.82,4.51,4.51,0,0,1-5.23-.3c-2.21-1.56-4.7-2.95-6.34-5A132.17,132.17,0,0,1,143.69,131c-2.5-4.13-1.87-8.43,1.67-12.68,3.23,2.47,6.52,4.68,9.43,7.31a112.58,112.58,0,0,1,7.91,8.39C165.66,137.32,166.84,141.41,167.44,145.69Zm-4.8.76c.65-7.44-6.88-17.81-15.88-21.53C146.41,133,155.62,145.38,162.64,146.45Z"/><path d="M162.88,110.65c1.44,0,2.77.86,2.43,2.21-.26,1-1.73,1.76-3.21,3.13-.82-1.42-1.66-2.23-1.69-3.08C160.34,111.47,161.42,110.65,162.88,110.65Z"/><path class="cls-2" d="M160.83,81.66l5,6.21-8,.94C158,86,159.62,84.21,160.83,81.66Z"/><path class="cls-4" d="M146.77,124.91c9,3.72,16.53,14.09,15.88,21.53C155.62,145.38,146.41,133,146.77,124.91Z"/><path d="M158.56,102.9c1.82-.81,3.86-2.81,6.11.32-3,2.37-5.28,5-9.08,4.78C155.29,104.72,155.44,104.28,158.56,102.9Z"/><path class="cls-3" d="M158.5,158.34c.56,10.07-4.46,16.56-12.67,16.35a7.44,7.44,0,0,1,1.11-1.37,11.21,11.21,0,0,0,4.34-8c.16-1.27.27-2.54.43-3.81C152.32,156.45,153.74,155.76,158.5,158.34Z"/><path class="cls-2" d="M156.45,191.71c.4,2.1.76,4,1.13,5.92-3.35,2.63-6.95,1.37-10.5,1.44-2-2.73-.75-5.1.47-7.76Z"/><path class="cls-3" d="M157.48,81.44l-3.74,6.72-4.8-4.77.4-1.19Z"/><path class="cls-5" d="M149.86,52.49c1.71.22,2.23,1.53,1.78,5.38-.63,5.49-1.25,11-2.19,16.44-.64,3.74-1.73,4.12-6,2.72.87-6.65,1.61-13.39,2.68-20.08C146.57,53.84,148.25,52.28,149.86,52.49Z"/><path class="cls-2" d="M144.16,82.8,149,88.43c-3,2.23-6,1.72-10,1.27Z"/><path class="cls-3" d="M142.59,191.81c1.59,2.05.22,4.29-.57,6.33h-8.23l1.62-8.3C138.25,189.47,140.92,189.65,142.59,191.81Z"/><path class="cls-5" d="M139.91,49.91a21.64,21.64,0,0,1,1,6.73c-.35,6.68-1,13.35-1.57,20a4.15,4.15,0,0,1-.64,1.24H134a12,12,0,0,1-.63-2.1c-.76-7.38-1.57-14.77-.55-22.19a10,10,0,0,1,1.4-4.41,5,5,0,0,1,3.5-1.88C138.44,47.3,139.62,48.86,139.91,49.91Z"/><path class="cls-3" d="M140.19,82.07c-1.21,2.88-3.35,4.28-5.29,6.85l-4.15-7.37Z"/><path d="M136.75,107.72c-4.14,2.42-6.68-.74-10.48-2.55,1.33-.87,2.24-1.95,2.94-1.82C132.12,103.88,135.12,104.5,136.75,107.72Z"/><path class="cls-3" d="M129,146.58c4,1.46,4.66,2.45,3.92,5.33-1.09,4.19-2.78,5.51-6.57,5a187.43,187.43,0,0,1-53.3-15.19,55.86,55.86,0,0,1-13.9-9.39c2.9-6.77,10-9.45,16-6.16,12.72,6.9,26.41,11.48,39.76,16.89,3.53,1.43,7.44,1.89,11.18,2.8A25.93,25.93,0,0,1,129,146.58Z"/><path d="M132.89,115.14c.17,1.18-1.76,2.52-3.66,2.42-1.17-.16-2.25-1-1.78-2.43a3.87,3.87,0,0,1,2.46-2.3A2.58,2.58,0,0,1,132.89,115.14Z"/><path class="cls-3" d="M131.71,166.61c.69,4.2.29,6.9-2,11.33-3.46-.79-7.1-1.4-10.61-2.46-12.84-3.86-25.64-7.88-38.47-11.8-5.32-1.63-10.7-3.05-16-4.77a46.38,46.38,0,0,1-8.22-3.5c-3.89-2.18-4.14-3.06-3.26-7.29.26-1.26.58-2.5.92-3.74s.65-2.18,1.16-3.86c1.08.66,1.82,1,2.48,1.53a85.14,85.14,0,0,0,28,13.49q19.81,5.42,39.69,10.64C127.38,166.68,129.53,166.48,131.71,166.61Z"/><path class="cls-2" d="M131.71,159.44v4.92c-22.24-4.62-44.32-9.18-64.39-20.15-3.14-1.71-6.18-3.52-8.11-6.77,11,8,23.69,12.37,36.52,16.06,9.15,2.63,18.64,4.11,28,5.86C126.23,159.84,128.86,159.44,131.71,159.44Z"/><path class="cls-2" d="M131.71,189.23l-.84,7.67h-9.06l1.14-8.89Z"/><path class="cls-2" d="M130.49,89.47H119.37l-.58-.86L124,82.05A13.2,13.2,0,0,1,130.49,89.47Z"/><path class="cls-5" d="M126.48,32.73c3.24,3.8,4.85,8.32,3.63,13.14a72.83,72.83,0,0,0-1.51,29.69,5.25,5.25,0,0,1-.26,1.48h-5.08c-2.34-4.87-2.8-10.13-3.23-15.36-.6-7.39-1-14.8-1.48-22.2-.18-2.52.15-4.83,1.93-6.77C122.66,30.29,124.36,30.24,126.48,32.73Z"/><path class="cls-2" d="M127.61,180.5c1.27.39,2.45,1,2.16,2.68s-1.51,1.53-2.66,1.45a99.26,99.26,0,0,1-11-1c-7.83-1.48-15.59-3.34-23.39-5a55.65,55.65,0,0,1-14.07-4.92c-2.75-1.42-5.91-2-8.82-3.16-5.58-2.16-11.12-4.41-16.67-6.66-4.47-1.81-4.64-2.54-1.75-6.68,23.91,8.56,47.52,16.92,72.08,22.26C124.85,179.81,126.25,180.09,127.61,180.5Z"/><path class="cls-2" d="M122.34,212.82c0,4.43-.54,5.14-4.08,5.19a20,20,0,0,1-4.65-.54c-23.12-5.32-45.82-11.93-67.32-22.17-3.61-1.72-3.63-1.69-3.14-6.55C68.33,201.71,94.89,208.94,122.34,212.82Z"/><path class="cls-3" d="M121.84,201c1.22.27,2.45.51,3.92.81-1.24,7.68-1.3,8.22-8.46,7.31a226.77,226.77,0,0,1-26-5c-15.58-3.88-30.35-10-44.71-17.14a32.71,32.71,0,0,1-3.06-2l1.94-6.1a5.32,5.32,0,0,1,1.09.29c10.82,6.19,22.63,9.31,34.8,11.46a125.74,125.74,0,0,1,24.75,6.67C111,199.22,116.57,199.78,121.84,201Z"/><path class="cls-3" d="M121,221a69.2,69.2,0,0,1-3,14.37,41.93,41.93,0,0,1-2.51,6.37c-1.36,2.9-3,3.91-6.17,3.44-10.46-1.56-20.88-3.36-30.46-8.15s-19.39-9.73-29-14.83A84.52,84.52,0,0,1,40,215.54a3.62,3.62,0,0,1-1.45-2.72c.83-5.17,1.92-10.28,3.05-16.08C67.4,208.63,93.63,216.2,121,221Z"/><path class="cls-3" d="M119.21,188c-.19,2.83-.36,5.45-.58,8.69L112,195l.67-8.61Z"/><path class="cls-3" d="M120.17,80.74,115.8,87l-3.58-7.59Z"/><path class="cls-4" d="M116.8,280.12c-.39,4.18-.79,8.48-1.19,12.77-4.47-3.94-4.38-9.16-5.41-14.12C113,277.53,114.75,278.62,116.8,280.12Z"/><path class="cls-2" d="M108.6,81.71l3.89,7.48-8-.64Z"/><path class="cls-2" d="M103.19,184.84c5.89-.47,6.83,1.06,5.17,8.61l-6.44-1.83C102.4,189.09,102.8,186.93,103.19,184.84Z"/><path class="cls-2" d="M108.35,248.53l0,1.09a45.3,45.3,0,0,1-5.15.86c-13.12.69-25.54-1.49-36.56-9.2-8.48-3-15.14-8.9-22.39-13.84a9,9,0,0,1-4.33-6.62c2.13,1.06,3.5,1.74,4.86,2.43,10.65,5.45,21.28,10.94,32,16.34,8.23,4.16,17.05,6.31,26.14,7.59A54,54,0,0,1,108.35,248.53Z"/><path class="cls-3" d="M104.91,79.2c-.28,1.93.16,3.75-2.23,5.46L101.86,79Z"/><path class="cls-3" d="M92.41,182.61c6.66-.39,8,1.09,6.31,7.22l-8-1.27Z"/><path class="cls-2" d="M88.9,181.56c-.57,2-1.09,3.82-1.67,5.87l-4.84-.66c-1.5-2.52-.19-4.78-.09-7.63Z"/><path class="cls-3" d="M74,175.92c5.07,1.06,5.67,2.6,3.65,9.35-.62.06-1.3.18-2,.18-1,0-1.94-.08-3.23-.15C72.36,182,72.57,178.86,74,175.92Z"/><path class="cls-2" d="M69.82,174.63c-.3,3.15-.58,6.05-.92,9.61l-6.65-2.18c.33-3.41.63-6.47,1-10Z"/><path class="cls-3" d="M59.86,170.16l-1.11,9.51c-5.33-.21-6.22-1.12-5.71-5.68.24-2.11.66-4.2,1.12-7Z"/><path class="cls-1" d="M55.29,93.73c.57.44.63,2.2.25,3.06a102.54,102.54,0,0,1-4.79,9.53A29.58,29.58,0,0,0,46.88,121c0,3.14.79,5.85,3.31,8a62.69,62.69,0,0,1,4.44,4.59L51,141.51c-8-2-11.52-7.13-11.24-14.55.44-11.45,5.31-21.43,9.71-31.6a4.12,4.12,0,0,1,2.33-2.18A4.43,4.43,0,0,1,55.29,93.73Z"/><path class="cls-2" d="M47.8,165.63c1.78,0,2.82,1,2.66,3s-.69,4.14-1.15,6.68c-3.45-1.37-4.26-3.91-4.7-6.54C44.33,167.05,46,165.63,47.8,165.63Z"/></svg>