<svg id="圖層_1" data-name="圖層 1" xmlns="http://www.w3.org/2000/svg" viewBox="0 0 287.81 324.7"><defs><style>.cls-1,.cls-2{fill:#fff;}.cls-1{fill-rule:evenodd;}.cls-3{fill:#f3e7b8;}.cls-4{fill:#bf5145;}.cls-5{fill:#ddae1d;}</style></defs><title>chks</title><path class="cls-1" d="M177.72,221.84l4.51,10c-5.08,2.24-9.81,4.47-15.53,5l-2-12Z"/><path class="cls-1" d="M120,241.53l-.55-9.88,14.8-1.12,1.4,11C130.38,241.82,125.47,241.65,120,241.53Z"/><path class="cls-1" d="M201.31,223.95,195,214.5,206.2,208c3,2.28,5.68,4.47,5.94,8.87Z"/><path class="cls-1" d="M115.34,232.25l.57,9a35.05,35.05,0,0,1-12.38.07,2.48,2.48,0,0,1-2.32-3.21c.38-2,.86-4.07,1.33-6.23C106.85,231.57,110.81,229.93,115.34,232.25Z"/><path class="cls-1" d="M191.65,215.65l6.24,10.11-11.83,5.07c-1.33-2.59-2.64-5.07-3.88-7.58-.79-1.58.11-2.71,1.34-3.41C186,218.43,188.59,217.21,191.65,215.65Z"/><path class="cls-1" d="M153.16,239.38l-2.61-10.9c3.31-2.25,6.55-2.55,10.51-2.48l1.79,11.56Z"/><path class="cls-1" d="M73.51,224.67l-5,7.23-12.14-5.11c.08-.58,0-.77.13-.87,6.43-8.44,5.28-7.42,13.28-3.36C70.88,223.11,71.9,223.75,73.51,224.67Z"/><path class="cls-1" d="M210.14,205.59l9-7.8,5.94,7.06-8.95,8.31Z"/><path class="cls-1" d="M49.56,206.56l-7.16,6c-3.84-1.61-5.23-4.53-5.51-8-.34-4.12,3.58-4.65,6.14-6.91Z"/><path class="cls-1" d="M149.32,239.35l-9.76,1.26L138,230l7.25-1.6C148,231.59,148.75,235,149.32,239.35Z"/><path class="cls-1" d="M45,215.93l5.64-6.1,7.66,8.56L52,224.46Z"/><path class="cls-1" d="M97.46,240.51l-11.5-3,3.35-7.9,8.68,1.1Z"/><path class="cls-1" d="M77.28,226.35l7.86,1.76-3,8.93-9.89-3.82Z"/><path class="cls-1" d="M142.4,247.45l8.54-1.39c.17,5,.21,9.64-.06,14.52C148.25,258.73,144.91,253.54,142.4,247.45Z"/><path d="M285.43,144.09a12.24,12.24,0,0,1-3,8.41c-4.86,5.9-10.27,10.93-18.69,11.5-.27,3.05-.73,5.76-.69,8.47a42.19,42.19,0,0,1-3.32,17.4c-4.31,9.91-8.92,19.7-13.73,29.38-1.53,3.08-4,5.72-6.24,8.42-2,2.47-4.47,4.61-6.44,7.12-5.08,6.48-11.94,10.83-18.31,15.77a14,14,0,0,1-2.37,1.37c-9.54,4.76-19.13,9.41-28.6,14.31a39.52,39.52,0,0,1-15.27,4.3,73.2,73.2,0,0,0-8.18.9c-13.38,2.62-26.73.66-40.09-.17a13.48,13.48,0,0,1-3.1-.69c-6-1.84-11.94-3.58-17.83-5.6-8.63-3-17.42-5.62-25.73-9.34a64.9,64.9,0,0,1-30-26.56,41.93,41.93,0,0,0-2.8-4.17c-7.19-9.42-10.65-20.46-13.65-31.65-1-3.78-1-7.84-1.45-11.77-.27-2.26-.63-4.5-1-7.35-5.23-.57-10.05-1.2-14.9-1.6-7.33-.6-10.41-3.62-10.64-11a20.84,20.84,0,0,1,6.45-16.05,14.15,14.15,0,0,1,8.64-3.77c2.92-.35,4.53,1.09,4.92,4,.23,1.66.55,3.31.63,5,.13,2.62,1.5,3.84,4.59,4,.43-1.38.9-2.92,1.39-4.45C30.46,136,35.86,122,45,110A126.37,126.37,0,0,1,59.56,93.65,163.5,163.5,0,0,1,89.79,71.57a97.65,97.65,0,0,1,38.43-12.72c.35-4,.63-8.09,1.06-12.13.37-3.47.89-6.94,1.41-10.4a5,5,0,0,1,.87-2.56,6.59,6.59,0,0,1,3.19-2.08c1.62-.29,2.18,1.21,2.66,2.58,1.61,4.58,3.17,9.17,5,13.68A27.62,27.62,0,0,0,145.47,53a11.64,11.64,0,0,0,10.92,5.37c5.63-.3,11.28-.24,16.92-.46a68.87,68.87,0,0,1,26.43,4.33c8.31,3,16.65,5.91,25.06,8.61a27.14,27.14,0,0,1,12,7.28c4.14,4.47,8.17,9.06,12,13.8a34.29,34.29,0,0,1,6.45,14,31.52,31.52,0,0,0,2.94,8.1A43.91,43.91,0,0,1,263.52,136c0,3.49,0,7,0,10.51a5.29,5.29,0,0,0,6.75-1.44c.91-1,1.66-2.19,2.58-3.2a16.57,16.57,0,0,1,3-2.81,7.29,7.29,0,0,1,7-.88C285.28,139.21,285.33,141.86,285.43,144.09Zm-4.73,4.06c1.45-2.19,1.73-4.47-.81-7-5.59,3.58-9.3,9.67-16.66,10.28a52.35,52.35,0,0,0,.41,6.2c.41,2.18,1.71,2.88,3.65,1.81C272.49,156.59,277.34,153.21,280.7,148.15Zm-20.94-6.92c0-1.67,0-3.16,0-4.64,0-1-.2-2.05-.35-3.51l-6.28.89,1.17,8.76ZM259,155c.42-3.38.79-6.32,1.16-9.3-6.95-.43-7.88,3.07-5.92,9.59Zm.12,10.9v-6c-2-1.1-4-1.76-5.6-.31-2,1.82-.72,4.1-.28,6.31Zm-.88,11.39,1.07-6.91-7.76-1.12-2.58,6.45Zm1.25-48.13L256.81,120l-8.13,2.43,2.95,7.91Zm-2.71,57.4c.46-1.55.82-3.13,1.3-5l-9.6-2.42-2.69,6.72c1.19.88,2.14,1.62,3.14,2.3a12.05,12.05,0,0,0,2,1.1C254.52,190.85,255.62,190.35,256.75,186.58Zm-6.3,15.61,2.82-7.45-8.94-5.62-3.16,7.79Zm-2-82.79,5.81-3.32-5.08-10.72-4.47,3.47c.63,1.93,1.14,3.66,1.74,5.36S247.72,117.52,248.44,119.4ZM242,185.63c5.28-13.56,8.41-27.36,8.09-41.87a37.68,37.68,0,0,0-1.61-10.33c-2.23-7.08-4.76-14.08-7.49-21a45.82,45.82,0,0,0-18.33-22.15,79.29,79.29,0,0,0-32.8-12c-3-.37-6-.72-9.57-1.15l1,4.87c1.47,0,2.53.08,3.58,0A46.63,46.63,0,0,1,203,84c4.19,1.29,8.54,2.66,12.19,5a63.34,63.34,0,0,1,14.09,11.48c6.08,7,11.92,13.89,12.82,23.62a18.51,18.51,0,0,0,1.18,3.44c3.39,11.12,4.89,22.36,1.66,33.76a170.15,170.15,0,0,1-14.67,35.89A77,77,0,0,1,211.44,220c-1.65,1.35-3.34,2.67-4.9,4.12A44.78,44.78,0,0,1,187,234.46c-9,2.35-18,4.76-26.84,7.49-20.72,6.38-40.7,3.66-60.09-4.92-11.19-4.95-21.22-11.9-31-19.24-15.68-11.73-21.68-27.69-21.14-46.62.09-3.31,1.14-6.59,1.81-9.87,3-14.78,7.84-28.81,17.18-41A120.76,120.76,0,0,1,85.48,100.9c1.6-1.32,3-2.89,4.48-4.34l-.67-1.08c-3.09.12-5.62,1.63-8,3.61-1.27,1.08-2.43,2.49-3.9,3.09-3.85,1.57-6.52,4.43-9.08,7.46-3.35,4-6.71,7.91-10,11.91a50.61,50.61,0,0,0-9,15.79c-1.84,5.32-4,10.55-6.08,15.77a38.78,38.78,0,0,0-2,23.75c1.32,5.79,3,11.51,4.16,17.32a30.17,30.17,0,0,0,7.28,14c4.24,4.8,8.86,9.29,12.75,14.35A46.27,46.27,0,0,0,85,237.15c9.15,3.77,18.28,7.63,27.58,11a52.59,52.59,0,0,0,13.73,3.17,249.43,249.43,0,0,0,25.58.73c20.5-.5,38.78-7.74,54.9-20.06A106,106,0,0,0,242,185.63Zm-.27-78.88c2.55-2.26,6.47-2.78,6.13-6.91-.28-3.45-1.68-6.37-5.51-8l-7.16,6Zm3.38,104.67c3.42-5.18,3.36-5.65-1-8.66-1.34-.92-2.73-1.76-4.29-2.76l-3.13,5.15Zm-3,6.65c1.21-1.84,1-3.45-.87-4.73-2.1-1.47-4.22-2.91-6.62-4.57L227,217.93l9.68,8.22C238.73,223.12,240.43,220.6,242.1,218.06Zm-3.82-46c5.91-12.12,5.46-24.79,3.26-37.58-.3-1.76-.69-3.85-2.73-4.81-2.05,2.11-.92,4.16-.26,6.12,3.11,9.28,3.41,18.63-.12,27.78-3.13,8.08-6.74,16-10.32,23.89a44.1,44.1,0,0,1-4.41,7.47C211.38,212,196.1,225.3,175.38,231.35c-2.34.68-4.59,1.65-6.93,2.32-20.59,5.93-41.24,8.27-61.87.3a58.64,58.64,0,0,1-10.44-5.5c-6.51-4.2-12.8-8.76-19.25-13-9.79-6.5-16.78-14.92-18.94-26.8a93.93,93.93,0,0,0-2.45-11.13,17.66,17.66,0,0,1,0-10.35,160.22,160.22,0,0,1,6.78-19.83c2.88-6.53,6.63-12.68,10.18-18.9,3.84-6.74,8.28-13,14.28-18.09a32.15,32.15,0,0,0,3.69-4c.24-.29.17-.83.27-1.42l-2.94-1.49c-5.78,3.9-9.58,9.08-13.38,14.23-4.61,6.22-9.83,12.05-12.64,19.45-1.14,3-1.91,6.18-3.48,8.91-5.2,9-6.81,19-6.58,29.05.26,11.13,4,21.5,10.15,30.88a17,17,0,0,0,3.39,3.67c9,7.51,18.37,14.57,28.66,20.27,7.44,4.13,14.73,8.71,23.4,10a69.19,69.19,0,0,0,9,1c7.9.1,16,1,23.67-.33,11.65-2.07,23-5.71,34.49-8.82,18.55-5.05,32.08-16.52,41.09-33.26C230.15,189.77,234,180.78,238.28,172Zm-4-6.48a39.71,39.71,0,0,0,3-21c-.42-3.05-1.21-6-3.32-8.37-2.31-2.59-3.5-2.9-6.72-1.28-7.75,3.9-15.49,7.84-23.16,11.9-5.52,2.93-10.89,6.13-16.39,9.09-3.2,1.72-6,1.29-8.4-1s-1.94-4.93-.87-7.62a12,12,0,0,1,6-6.63q3.08-1.51,6.2-2.93c10.53-4.8,21.09-9.57,31.59-14.42,2.69-1.24,5.25-2.79,7.93-4.23-3.17-6.74-7.78-11.71-12.55-16.29-3.21-3.08-7.69-4.85-11.64-7.15a20.4,20.4,0,0,0-9.52-2.78c-6.05-.29-12.08-1-18.64-1.61,0-2.3.12-4.25,0-6.19a31,31,0,0,0-.91-5.37,3,3,0,0,0-3.32-2.51c-6.25.21-12.6-.33-18.72.64-15.79,2.5-31.49,5.56-47.19,8.58a33.94,33.94,0,0,0-14.37,7c1.19,1.41,2.14,2.59,3.14,3.72,4.5,5,4.37,5-.34,9.79-3.28,3.33-5.89,7.34-9.22,10.62a50,50,0,0,0-8.95,11.49c-3.54,6.4-7.37,12.66-10.46,19.27A110.14,110.14,0,0,0,61,165.75c-1,3.72-.88,7.81-.95,11.74,0,2.57.63,5.14.68,7.72.17,9.19,4.27,16.44,11.21,22,6,4.88,12.43,9.31,18.68,13.92A69.88,69.88,0,0,0,133.38,235c14.81,0,28.94-3.51,43-7.93a75.64,75.64,0,0,0,28.08-15.76c8.94-8,16.77-16.89,22-27.75C229.3,177.63,231.79,171.56,234.31,165.53Zm-.21-71,5.64-6.1-7-8.53L226.44,86Zm-2.23,34.32c2.24-.9,4.69-1.59,5.19-4.86-3.09-1.33-5.74-.29-8.31.48-14.39,4.29-27.3,12-40.91,18.08-1.89.85-3.26,3.08-4.58,4.89-.7,1-.77,2.36-1.14,3.6,4.95,1.51,8.69-.26,12.31-2.25,2.4-1.32,4.59-3,6.9-4.48A181.23,181.23,0,0,1,231.87,128.88Zm3.27-10.06c1.42-5-4.85-14.13-15-22.21-12.43-9.88-29.57-13.47-37.64-9.12,2.21.36,3.8.65,5.4.86,4.07.54,8.13,1.32,12.22,1.49,6.52.28,11.4,3.89,16.3,7.45,6.87,5,12.53,11.06,16.09,18.92C233,117.33,233.29,118.95,235.14,118.82ZM225,238.41l8.82-9.45-9.37-8.42-9.57,9.79Zm3.26-159.94c.08-.11,0-.3.12-.87l-12.14-5.11-5,7.24c1.6.92,2.63,1.56,3.7,2.11C222.94,85.89,221.79,86.91,228.22,78.47ZM216.44,244.63c1.9-1,3.7-2.13,3.8-5l-8.23-7-6.89,4.94c2.65,2.48,4.83,4.36,6.81,6.43C213.37,245.54,214.86,245.45,216.44,244.63ZM207.47,78l5-6.87-9.89-3.82-3,8.93Zm2,170.3-6.52-9-9.56,5.92,4.91,9.2Zm-14-173.59,3.35-7.9-11.5-3c-.2,3.68-.36,6.63-.54,9.77Zm-7.1,185.7,5.8-4.66-4.66-9-6.56,2.74ZM183.53,66.32a2.47,2.47,0,0,0-2.31-3.21,35.1,35.1,0,0,0-12.38.06c.2,3.23.38,6.05.57,9,4.53,2.33,8.49.69,12.8.42C182.67,70.39,183.15,68.37,183.53,66.32Zm-9.89,198.83c4.05-.47,7.5-1.22,11-3.68l-6-10.18-8.47,2.52Zm-4.56,1.22c-.09-.57-.17-1.17-.27-1.75-1.54-8.62-3.05-10.88-9.44-9.93a15.47,15.47,0,0,0-.86-2c-.66-1.22-2.51-.14-1.85,1.08l.13.24a1,1,0,0,0,0,.64l.13.48c-.63.14-1.3.3-2,.47-2.62.64-3.28,1.46-2.71,4.19.53,2.51,1.41,5,2.11,7.35a21.71,21.71,0,0,0,6.34.6,2.79,2.79,0,0,1,.1.57,1,1,0,0,0,.32.7h0c.32,1.35,2.39.78,2.07-.57-.07-.3-.15-.59-.24-.88A33.45,33.45,0,0,0,169.07,266.37ZM165.3,72.74c-.19-3.36-.35-6.33-.55-9.88-5.48-.12-10.38-.29-15.65,0,.5,3.9.92,7.17,1.4,11ZM149.7,267.5c-.71-3.74-1.36-7.13-2-10.4h-10.4c.28,3.92-.54,7.57.91,11.12C142,268.66,145.6,269.33,149.7,267.5ZM146.78,74.38c-.57-3.81-1.06-7.05-1.59-10.6L135.43,65c.57,4.3,1.3,7.76,4.1,10.94Zm-13-16,8.54-1.39c-2.51-6.1-5.84-11.28-8.48-13.13C133.59,48.69,133.64,53.37,133.8,58.33Zm.39,17.57L131.59,65l-9.7,1.81,1.79,11.56C127.65,78.46,130.89,78.15,134.2,75.91Zm-2.22,191a42.77,42.77,0,0,0-.08-6.11c-.16-1.06-.92-2.55-1.78-2.89-3.75-1.48-7.62-2.78-12.13-2,.28,1.74.48,3.23.77,4.7,1.27,6.48,2.42,7.38,9,7A41.09,41.09,0,0,0,132,266.88ZM120.05,79.58l-2-12c-5.71.53-10.45,2.76-15.53,5l4.51,10Zm-5.62,185.09c1.28-10.13.35-11.75-7.8-14.27-.24-.08-.56.1-1.09.21a13.15,13.15,0,0,0-1.58,8.6,4.09,4.09,0,0,0,1.85,2.78C108.57,263.1,111.49,263.79,114.43,264.67ZM101.23,84.55c1.23-.7,2.13-1.82,1.34-3.41-1.25-2.51-2.55-5-3.89-7.58L86.86,78.63,93.1,88.75C96.16,87.18,98.75,86,101.23,84.55ZM99.61,261c.73-4.86,1.37-9.14,2-13.6l-10.46-4-5.87,13.32ZM89.7,89.9l-6.27-9.45-10.82,7c.26,4.4,2.91,6.59,5.94,8.87ZM83,254.7c1.15-3.8,2.27-7.49,3.33-11C79.7,238,74.06,239,72.59,248.56,75.64,251,78.21,254.31,83,254.7ZM74.61,98.8l-6-7.57-8.95,8.31,5.95,7.06ZM68.3,248.3l5.36-12.39c-5.3-5-6.52-5.06-11.45-1-1.72,1.41-3.29,3-5.25,4.82ZM60.61,232c4.12-3.57,4.24-5.37.43-9.23a30.34,30.34,0,0,0-3.57-2.7l-9.52,8.5,6.42,8.81Zm2.21-122.52-6.49-6-6.19,7.17,8.37,4.87ZM55.37,119c-1.39-.93-2.48-1.72-3.63-2.41s-2.57-1.42-4-2.21c-1.06,1.55-2,2.75-2.75,4-3.66,6-3.26,7.06,4.13,10Zm-9,106.84,8.1-8.79-7.07-7.94-9,5.4Zm-2.75-83.68,3.89-9.76L40,128.84l-4.67,10.58Zm1.92,63.4-2.85-5.46c-4.38.19-5.71.59-8.79,2.74,1.15,2.59,2.35,5.28,3.75,8.43ZM39,154.83l2.61-8.11L33.95,143,31.2,153.51Zm2.87,40.39-3.36-10.79-8,.39,2.59,13.75ZM37.8,179.7l-1.33-5.37-7-1.15c.4,3.17.68,5.35,1,7.85ZM36.44,169c.15-3.53.3-6.8.45-10.36l-5.68-1.22A20.93,20.93,0,0,0,29.65,169Zm-12.32,1.42V159.14c-8.31-2.74-8.31-2.74-9.72-13.59-2,.51-4,.52-5.33,1.45-4.9,3.38-7.37,12.66-5.2,18.18a5,5,0,0,0,4.38,3.47C13.34,169.23,18.43,169.79,24.13,170.42Z"/><path class="cls-2" d="M279.89,141.16c2.54,2.52,2.26,4.8.81,7-3.36,5.06-8.22,8.44-13.41,11.31-1.93,1.06-3.24.36-3.65-1.81a52.35,52.35,0,0,1-.41-6.2C270.59,150.83,274.3,144.74,279.89,141.16Z"/><path class="cls-3" d="M259.75,136.59c.05,1.48,0,3,0,4.64l-5.48,1.5L253.12,134l6.28-.89C259.55,134.54,259.72,135.56,259.75,136.59Z"/><path class="cls-4" d="M260.13,145.71c-.37,3-.74,5.92-1.16,9.3l-4.75.3C252.25,148.78,253.19,145.28,260.13,145.71Z"/><path class="cls-3" d="M259.09,159.91v6h-5.89c-.43-2.22-1.75-4.5.28-6.31C255.11,158.14,257.14,158.81,259.09,159.91Z"/><path class="cls-4" d="M259.28,170.39l-1.07,6.91-9.28-1.57,2.58-6.45Z"/><path class="cls-4" d="M256.81,120l2.66,9.15-7.83,1.19-2.95-7.91Z"/><path class="cls-3" d="M258.05,181.55c-.48,1.89-.84,3.47-1.3,5-1.13,3.77-2.23,4.27-5.88,2.69a12.05,12.05,0,0,1-2-1.1c-1-.68-1.94-1.42-3.14-2.3l2.69-6.72Z"/><path class="cls-4" d="M253.28,194.74l-2.82,7.45-9.28-5.27,3.16-7.79Z"/><path class="cls-3" d="M254.25,116.09l-5.81,3.32c-.73-1.88-1.4-3.53-2-5.2s-1.12-3.43-1.74-5.36l4.47-3.47Z"/><path class="cls-3" d="M250.08,143.76c.32,14.52-2.81,28.32-8.09,41.87A106,106,0,0,1,206.76,232c-16.13,12.32-34.41,19.56-54.9,20.06a249.43,249.43,0,0,1-25.58-.73,52.59,52.59,0,0,1-13.73-3.17c-9.29-3.4-18.42-7.25-27.58-11a46.27,46.27,0,0,1-19.55-14.58c-3.9-5.06-8.52-9.55-12.75-14.35a30.17,30.17,0,0,1-7.28-14c-1.21-5.81-2.84-11.53-4.16-17.32a38.78,38.78,0,0,1,2-23.75c2.12-5.22,4.24-10.45,6.08-15.77a50.61,50.61,0,0,1,9-15.79c3.29-4,6.66-7.95,10-11.91,2.57-3,5.23-5.89,9.08-7.46,1.48-.6,2.63-2,3.9-3.09,2.35-2,4.87-3.49,8-3.61L90,96.56c-1.49,1.45-2.88,3-4.48,4.34a120.76,120.76,0,0,0-18.63,19.46c-9.34,12.14-14.15,26.18-17.18,41-.67,3.28-1.72,6.56-1.81,9.87-.54,18.93,5.47,34.89,21.14,46.62,9.8,7.33,19.83,14.29,31,19.24,19.39,8.58,39.37,11.3,60.09,4.92,8.88-2.73,17.85-5.14,26.84-7.49a44.78,44.78,0,0,0,19.58-10.39c1.57-1.45,3.25-2.77,4.9-4.12a77,77,0,0,0,18.8-22.81,170.15,170.15,0,0,0,14.67-35.89c3.23-11.4,1.73-22.65-1.66-33.76a18.51,18.51,0,0,1-1.18-3.44c-.9-9.73-6.74-16.67-12.82-23.62A63.34,63.34,0,0,0,215.14,89c-3.65-2.32-8-3.69-12.19-5A46.63,46.63,0,0,0,184.89,82c-1,.09-2.11,0-3.58,0l-1-4.87c3.61.43,6.59.78,9.57,1.15a79.29,79.29,0,0,1,32.8,12A45.82,45.82,0,0,1,241,112.45c2.73,6.91,5.26,13.9,7.49,21A37.68,37.68,0,0,1,250.08,143.76Z"/><path class="cls-4" d="M247.86,99.84c.34,4.12-3.58,4.65-6.13,6.91l-6.53-8.91,7.16-6C246.18,93.47,247.58,96.39,247.86,99.84Z"/><path class="cls-3" d="M244.09,202.76c4.36,3,4.42,3.48,1,8.66l-8.43-6.28L239.8,200C241.36,201,242.76,201.83,244.09,202.76Z"/><path class="cls-4" d="M241.23,213.33c1.85,1.28,2.08,2.89.87,4.73-1.67,2.54-3.37,5.05-5.39,8.09L227,217.93l7.59-9.18C237,210.42,239.13,211.86,241.23,213.33Z"/><path class="cls-4" d="M241.55,134.43c2.2,12.79,2.64,25.46-3.26,37.58-4.27,8.77-8.13,17.75-12.75,26.33-9,16.74-22.54,28.21-41.09,33.26-11.45,3.12-22.84,6.76-34.49,8.82-7.67,1.36-15.77.43-23.67.33a69.19,69.19,0,0,1-9-1c-8.67-1.27-16-5.85-23.4-10-10.29-5.7-19.64-12.76-28.66-20.27a17,17,0,0,1-3.39-3.67c-6.13-9.38-9.89-19.75-10.15-30.88-.23-10.06,1.38-20,6.58-29.05,1.57-2.73,2.34-5.93,3.48-8.91,2.81-7.4,8-13.22,12.64-19.45,3.81-5.15,7.6-10.33,13.38-14.23l2.94,1.49c-.1.6,0,1.14-.27,1.42a32.15,32.15,0,0,1-3.69,4c-6,5.07-10.44,11.35-14.28,18.09-3.54,6.22-7.3,12.37-10.18,18.9a160.22,160.22,0,0,0-6.78,19.83,17.66,17.66,0,0,0,0,10.35,93.93,93.93,0,0,1,2.45,11.13c2.17,11.89,9.15,20.3,18.94,26.8,6.46,4.29,12.74,8.84,19.25,13a58.64,58.64,0,0,0,10.44,5.5c20.63,8,41.28,5.64,61.87-.3,2.34-.67,4.59-1.64,6.93-2.32,20.72-6.06,36-19.33,48.32-36.47a44.1,44.1,0,0,0,4.41-7.47c3.57-7.9,7.19-15.8,10.32-23.89,3.53-9.15,3.23-18.5.12-27.78-.66-2-1.79-4,.26-6.12C240.86,130.58,241.25,132.67,241.55,134.43Z"/><path class="cls-2" d="M237.28,144.51a39.71,39.71,0,0,1-3,21c-2.52,6-5,12.09-7.86,18-5.26,10.87-13.1,19.76-22,27.75A75.64,75.64,0,0,1,176.34,227c-14,4.42-28.15,7.92-43,7.93a69.88,69.88,0,0,1-42.73-13.78c-6.25-4.61-12.64-9-18.68-13.92-6.94-5.61-11-12.86-11.21-22-.05-2.58-.73-5.15-.68-7.72.07-3.93-.07-8,.95-11.74a110.14,110.14,0,0,1,6.38-17.55c3.09-6.61,6.92-12.87,10.46-19.27a50,50,0,0,1,8.95-11.49c3.33-3.28,5.94-7.28,9.22-10.62,4.71-4.78,4.85-4.75.34-9.79-1-1.13-2-2.31-3.14-3.72a33.94,33.94,0,0,1,14.37-7c15.7-3,31.4-6.08,47.19-8.58,6.12-1,12.48-.43,18.72-.64a3,3,0,0,1,3.32,2.51,31,31,0,0,1,.91,5.37c.15,1.93,0,3.89,0,6.19,6.55.59,12.58,1.32,18.64,1.61a20.4,20.4,0,0,1,9.52,2.78c3.95,2.3,8.43,4.07,11.64,7.15,4.77,4.58,9.38,9.55,12.55,16.29-2.68,1.44-5.24,3-7.93,4.23-10.51,4.86-21.06,9.62-31.59,14.42q-3.12,1.42-6.2,2.93a12,12,0,0,0-6,6.63c-1.07,2.69-1.47,5.34.87,7.62s5.2,2.74,8.4,1c5.5-3,10.87-6.16,16.39-9.09,7.67-4.06,15.41-8,23.16-11.9,3.22-1.62,4.41-1.31,6.72,1.28C236.08,138.52,236.87,141.46,237.28,144.51Zm-120,12.69a6.24,6.24,0,0,0-6.37-6.37c-4.26-.13-8.12,3-8.06,6.46.07,3.66,3.14,7,6.41,7.08A7.74,7.74,0,0,0,117.26,157.2Z"/><path class="cls-3" d="M239.74,88.46l-5.64,6.1L226.44,86l6.3-6.07Z"/><path class="cls-5" d="M237.05,124c-.5,3.27-3,4-5.19,4.86a181.23,181.23,0,0,0-30.54,15.46c-2.31,1.48-4.5,3.16-6.9,4.48-3.62,2-7.37,3.76-12.31,2.25.37-1.24.44-2.65,1.14-3.6,1.32-1.81,2.69-4,4.58-4.89,13.61-6.09,26.52-13.79,40.91-18.08C231.32,123.73,234,122.69,237.05,124Z"/><path class="cls-2" d="M220.12,96.61c10.17,8.08,16.44,17.23,15,22.21-1.85.12-2.14-1.49-2.65-2.61-3.56-7.85-9.22-13.93-16.09-18.92-4.9-3.56-9.79-7.17-16.3-7.45-4.08-.18-8.15-1-12.22-1.49-1.6-.21-3.18-.5-5.4-.86C190.55,83.14,207.69,86.73,220.12,96.61Z"/><path class="cls-3" d="M233.78,229,225,238.41l-10.11-8.07,9.57-9.79Z"/><path class="cls-4" d="M228.34,77.6c-.08.57,0,.76-.12.87-6.43,8.44-5.28,7.42-13.28,3.36-1.07-.54-2.09-1.19-3.7-2.11l5-7.24Z"/><path class="cls-4" d="M220.24,239.66c-.1,2.84-1.9,4-3.8,5-1.58.82-3.07.91-4.5-.58-2-2.07-4.16-3.95-6.81-6.43l6.89-4.94Z"/><path class="cls-3" d="M212.51,71.17l-5,6.87-7.86-1.76,3-8.93Z"/><path class="cls-3" d="M202.93,239.29l6.52,9-11.17,6.07-4.91-9.2Z"/><path class="cls-4" d="M198.79,66.84l-3.35,7.9-8.68-1.09c.17-3.14.33-6.09.54-9.77Z"/><path class="cls-4" d="M194.13,255.78l-5.8,4.66-5.43-10.89,6.56-2.74Z"/><path class="cls-3" d="M181.22,63.11a2.47,2.47,0,0,1,2.31,3.21c-.38,2-.86,4.07-1.33,6.23-4.3.27-8.26,1.91-12.8-.42-.18-2.91-.36-5.73-.57-9A35.1,35.1,0,0,1,181.22,63.11Z"/><path class="cls-3" d="M184.61,261.47c-3.47,2.46-6.92,3.21-11,3.68l-3.5-11.35,8.47-2.52Z"/><path class="cls-4" d="M168.8,264.62c.11.59.19,1.18.27,1.75a33.45,33.45,0,0,1-6.2,1.24c-.06-.18-.11-.37-.17-.55a1.07,1.07,0,0,0,0-.43c-.42-1.81-.9-3.6-1.4-5.38a23.76,23.76,0,0,0-1.49-5.26c-.13-.44-.27-.87-.43-1.3C165.75,253.74,167.26,256,168.8,264.62Z"/><path class="cls-4" d="M164.76,62.86c.2,3.55.36,6.52.55,9.88l-14.8,1.12c-.48-3.79-.91-7.06-1.4-11C154.37,62.57,159.27,62.74,164.76,62.86Z"/><path d="M163.1,268.48c.32,1.35-1.75,1.92-2.07.57h0a1,1,0,0,1-.32-.7,2.79,2.79,0,0,0-.1-.57l.33,0a1.13,1.13,0,0,0,1.42-.09l.5-.05C163,267.9,163,268.19,163.1,268.48Z"/><path d="M162.7,267.06c.06.18.12.36.17.55l-.5.05A1,1,0,0,0,162.7,267.06Z"/><path d="M162.68,266.63a1.07,1.07,0,0,1,0,.43c-.3-.9-.65-1.77-1-2.64-.2-1-.22-2.08-.38-3l0-.16C161.78,263,162.25,264.82,162.68,266.63Z"/><path d="M162.7,267.06a1,1,0,0,1-.33.6c-.48,0-1,.07-1.42.09a1,1,0,0,1-.33-.56c-.56-2.38-1.18-4.74-1.89-7.08-.48-1.6-.86-3.41-1.49-5,.7-.15,1.35-.27,2-.37.22.42.42.84.6,1.27.36,1.19.66,2.42,1,3.56l.49,1.7,0,.16c.15.94.18,2,.38,3C162,265.29,162.4,266.16,162.7,267.06Z"/><path d="M162.37,267.66a1.13,1.13,0,0,1-1.42.09C161.41,267.73,161.89,267.7,162.37,267.66Z"/><path d="M161.28,261.24l-.49-1.7c-.34-1.14-.64-2.36-1-3.56A23.76,23.76,0,0,1,161.28,261.24Z"/><path d="M160.94,267.75l-.33,0c-.22-.76-.68-1.45-.83-2.23a24,24,0,0,1-1.31-3.56c-.57-2.26-1-4.56-1.59-6.82l.35-.07c.63,1.61,1,3.43,1.49,5,.71,2.34,1.33,4.7,1.89,7.08A1,1,0,0,0,160.94,267.75Z"/><path class="cls-3" d="M159.78,265.54c.15.79.61,1.47.83,2.23a21.71,21.71,0,0,1-6.34-.6c-.7-2.4-1.58-4.83-2.11-7.35-.57-2.73.09-3.55,2.71-4.19.71-.18,1.38-.33,2-.47.6,2.26,1,4.56,1.59,6.82A24,24,0,0,0,159.78,265.54Z"/><path d="M159.35,254.69c.15.42.3.86.43,1.3-.18-.43-.38-.85-.6-1.27Z"/><path d="M159.35,254.69l-.17,0c-.15-.29-.31-.57-.48-.86a1.09,1.09,0,0,0-1.94.18l-.13-.24c-.66-1.22,1.2-2.3,1.85-1.08A15.47,15.47,0,0,1,159.35,254.69Z"/><path d="M158.71,253.86c.17.28.33.57.48.86-.6.09-1.26.22-2,.37-.14-.36-.29-.71-.46-1A1.09,1.09,0,0,1,158.71,253.86Z"/><path d="M157.23,255.09l-.35.07-.13-.48a1,1,0,0,1,0-.64C156.94,254.37,157.09,254.73,157.23,255.09Z"/><path class="cls-4" d="M147.73,257.1c.62,3.27,1.26,6.66,2,10.4-4.11,1.84-7.7,1.17-11.47.72-1.45-3.54-.62-7.2-.91-11.12Z"/><path class="cls-3" d="M145.18,63.78c.53,3.54,1,6.78,1.59,10.6L139.52,76c-2.8-3.17-3.52-6.64-4.1-10.94Z"/><path class="cls-5" d="M142.34,56.94l-8.54,1.39c-.17-5-.21-9.64.06-14.52C136.5,45.67,139.84,50.85,142.34,56.94Z"/><path class="cls-4" d="M131.59,65l2.61,10.9c-3.31,2.25-6.55,2.55-10.51,2.48l-1.79-11.56Z"/><path class="cls-3" d="M131.89,260.77a42.77,42.77,0,0,1,.08,6.11,41.09,41.09,0,0,1-4.19.68c-6.62.36-7.76-.54-9-7-.29-1.47-.48-3-.77-4.7,4.5-.74,8.37.56,12.13,2C131,258.22,131.74,259.71,131.89,260.77Z"/><path class="cls-3" d="M118,67.54l2,12-13,3-4.51-10C107.6,70.3,112.33,68.07,118,67.54Z"/><path d="M110.89,150.83a6.24,6.24,0,0,1,6.37,6.37,7.74,7.74,0,0,1-8,7.17c-3.28,0-6.34-3.42-6.41-7.08C102.77,153.79,106.63,150.7,110.89,150.83Zm1.69,7.55a4.52,4.52,0,0,0-1-3.15c-1.35-1.34-2.7-.59-3.84.84.32,1.75.63,3.63,2.92,3.76C111.31,159.87,112.56,158.92,112.58,158.38Z"/><path class="cls-4" d="M106.63,250.4c8.15,2.52,9.09,4.14,7.8,14.27-2.95-.88-5.87-1.57-8.62-2.68a4.09,4.09,0,0,1-1.85-2.78,13.15,13.15,0,0,1,1.58-8.6C106.07,250.5,106.39,250.32,106.63,250.4Z"/><path class="cls-5" d="M111.59,155.24a4.52,4.52,0,0,1,1,3.15c0,.54-1.27,1.49-1.91,1.45-2.28-.13-2.6-2-2.92-3.76C108.89,154.64,110.25,153.89,111.59,155.24Z"/><path class="cls-4" d="M102.58,81.14c.79,1.58-.12,2.71-1.34,3.41-2.48,1.41-5.08,2.63-8.13,4.2L86.86,78.63l11.83-5.07C100,76.15,101.33,78.63,102.58,81.14Z"/><path class="cls-3" d="M101.66,247.44c-.67,4.46-1.32,8.73-2,13.6l-14.28-4.26,5.87-13.32Z"/><path class="cls-3" d="M83.43,80.44,89.7,89.9,78.55,96.34c-3-2.27-5.68-4.47-5.94-8.87Z"/><path class="cls-4" d="M86.37,243.69c-1.07,3.53-2.19,7.22-3.33,11-4.83-.39-7.4-3.72-10.44-6.14C74.06,239,79.7,238,86.37,243.69Z"/><path class="cls-4" d="M68.57,91.23l6,7.57-9,7.8-5.95-7.06Z"/><path class="cls-3" d="M73.65,235.92,68.3,248.3,57,239.72c2-1.81,3.53-3.41,5.25-4.82C67.14,230.86,68.36,231,73.65,235.92Z"/><path class="cls-4" d="M61,222.76c3.81,3.86,3.69,5.65-.43,9.23l-6.24,5.38-6.42-8.81,9.52-8.5A30.34,30.34,0,0,1,61,222.76Z"/><path class="cls-3" d="M56.33,103.48l6.49,6-4.31,6-8.37-4.87Z"/><path class="cls-4" d="M51.74,116.57c1.15.69,2.24,1.48,3.63,2.41l-6.27,9.43c-7.39-2.95-7.78-4-4.13-10,.78-1.28,1.69-2.48,2.75-4C49.17,115.16,50.48,115.82,51.74,116.57Z"/><path class="cls-3" d="M54.47,217l-8.1,8.79-8-11.33,9-5.4Z"/><path class="cls-3" d="M47.51,132.38l-3.89,9.76-8.28-2.71L40,128.84Z"/><path class="cls-4" d="M42.7,200.08l2.85,5.46-7.89,5.71c-1.39-3.15-2.6-5.84-3.75-8.43C37,200.67,38.32,200.27,42.7,200.08Z"/><path class="cls-4" d="M41.62,146.72,39,154.83l-7.8-1.33L33.95,143Z"/><path class="cls-3" d="M38.52,184.43l3.36,10.79-8.74,3.35-2.59-13.75Z"/><path class="cls-4" d="M36.46,174.33l1.33,5.37L30.47,181c-.31-2.5-.59-4.68-1-7.85Z"/><path class="cls-3" d="M36.9,158.65c-.15,3.56-.3,6.83-.45,10.36h-6.8a20.93,20.93,0,0,1,1.57-11.58Z"/><path class="cls-2" d="M24.13,164.74v5.68c-5.69-.63-10.79-1.19-15.87-1.78a5,5,0,0,1-4.38-3.47c-2.18-5.52.3-14.8,5.2-18.18,1.34-.93,3.32-.93,5.33-1.45,1.42,10.85,1.42,10.85,9.72,13.59Z"/></svg>