<svg id="圖層_1" data-name="圖層 1" xmlns="http://www.w3.org/2000/svg" viewBox="0 0 287.81 324.7"><defs><style>.cls-1{fill:#fff;}.cls-2{fill:#b8b7b7;}.cls-3{fill:#4f5654;}.cls-4{fill:#1d7052;}.cls-5{fill:#ddae1d;}.cls-6{fill:#cf543f;}</style></defs><title>chks</title><path d="M256.15,160.25c6.26,1.1,8.63,6.76,8.37,11.54-.14,2.67-1.33,5.33-2.24,7.92-1,2.92-3,5.25-4.94,7.62a6,6,0,0,0-1,3.3c-.51,9.09-1,18.18-1.33,27.27-.1,2.56.3,5.15.46,7.72a11.78,11.78,0,0,1-2,8,3.26,3.26,0,0,1-1.84,1.1c-2.51.52-5.06.89-7.9,1.37,0,.61,0,1.4,0,2.19.4,12.45.85,24.9,1.17,37.36.09,3.3.51,6.73-1.21,9.79a32.62,32.62,0,0,1-3.3,4.78,3.66,3.66,0,0,1-2.28,1.13,44.57,44.57,0,0,1-6.59.18c-2.59-.15-3.94-1.51-4.66-4-2.19-7.76-1.85-15.71-1.85-23.64v-7.69l-7.58,5.81c-.1.08-.17.2-.28.26-6.78,3.78-12.38,9.68-20.09,11.72-8.51,2.25-17.13,4.07-25.7,6.11-3.78.9-7.51,2-11.32,2.77-4.67.9-9.39,1.66-14.12,2.17a77.12,77.12,0,0,1-12.65.58c-6.25-.37-12.49-1.17-18.69-2.11-2.43-.36-4.76-1.54-7.11-2.4q-5.39-2-10.74-4.07c-3.91-1.51-7.77-3.18-11.73-4.56-6.8-2.38-13.67-4.57-20.49-6.89-1.24-.42-2.39-1.09-3.62-1.57a8.62,8.62,0,0,0-1.67-.33c0,4,.21,7.76-.05,11.49-.39,5.57-1.11,11.12-1.73,16.68-.27,2.47-3.08,4.56-5.46,3.94a42.56,42.56,0,0,1-6.2-2.12,2.7,2.7,0,0,1-1.37-2c0-3.5.17-7,.26-10.5.06-2.26.71-4.76,0-6.72a19.66,19.66,0,0,1-.92-5.57c-.51-5.77.54-11.37,1.78-17a16.35,16.35,0,0,0,0-4.14c-.19-4.58-.47-9.16-.56-13.74,0-1.66-.77-2.1-2.1-1.68a4.67,4.67,0,0,1-4.29-.7,36.62,36.62,0,0,1-5.75-4.16c-2.21-2.26-1.93-5.48-2.25-8.38-1.09-9.92-.7-19.86-.15-29.79a3,3,0,0,0-1.21-2.88c-1.91-1.5-3.24-3.3-3-6.09.22-2.4-.22-4.81.78-7.2a7,7,0,0,1,3.44-3.77,2.36,2.36,0,0,0,1.19-1.66c-.19-6.66-.62-13.31-.74-20-.12-5.85,0-11.7.14-17.55.08-3.64.39-7.28.59-10.93.14-2.59,1.17-5.36,3.2-6.28,2.79-1.27,6.17-1.44,9.33-1.63,1.3-.08,2.64,1.16,4,1.47a32.67,32.67,0,0,0,5.73.62c.37,0,.9-.8,1.16-1.33,2.72-5.6,5.47-11.18,8.07-16.83,1.33-2.9,2.34-5.94,3.6-8.88.54-1.24,1.36-2.36,2-3.56,2.36-4.2,3-8.87,3.59-13.54.63-5.4.78-10.87,1.75-16.2,1.12-6.17,5-10.42,10.64-13.3a29.45,29.45,0,0,1,11.18-3.54c6-.48,11.93-1.2,17.89-1.88,5.71-.65,11.39-1.49,17.11-2,2.47-.24,5,.14,7.49.07,4.75-.13,9.49-.42,14.24-.54a15.7,15.7,0,0,1,4.09.46,104.39,104.39,0,0,0,19.31,2.42c5.15.27,10.34.17,15.42.88a39.3,39.3,0,0,1,17.89,7.51c5.48,4,7.46,9.71,7.55,16.15.06,3.89-.74,7.8-.59,11.68s.39,7.92,1.74,11.45c2.34,6.07,5.59,11.78,8.42,17.66.67,1.4,1.13,2.9,1.79,4.31,1.87,4,3.69,8,5.77,11.86.43.8,1.91,1,2.92,1.54.28-.47.34-.51.34-.57.42-6.38,1.46-5.16,6-6.14,1.71-.36,3.47-.5,5.22-.71a4.29,4.29,0,0,1,5,4.28c.2,4.15.19,8.31.47,12.45.29,4.49,1,9,1.19,13.46s.11,8.72,0,13.08c0,1.83-.39,3.67-.42,5.51C254.88,159.51,255.66,160.16,256.15,160.25Zm4.28,11.94a4.84,4.84,0,0,0-3-5.72c-3.66-1.57-7.43-2.37-11.52-1.26-8.19,2.22-10.76,2.29-16.13-5.55-.81-1.18-.83-2.88-1.46-4.22-3.16-6.76-3.62-14.05-4.41-20.89.61-4.67-1.37-8.23-3.07-11.89-.39-.85-.67-1.75-1-2.62a85,85,0,0,0-3.63-9.12c-1.21-2.3-3.22-4.16-4.73-6.31-4.11-5.88-10-9.74-16.18-12.65S182,87.36,175.28,85.25A52,52,0,0,0,158.58,83c-3,.06-2.84.09-3.13,3a25.6,25.6,0,0,1-1.55,6.91c-1.76,4.4-3.86,8.67-5.83,13-.69,1.51-2.06,1.69-3,.24a37,37,0,0,1-3.52-6.15c-2.23-5.48-4.43-11-3.11-17.19.06-.29-.78-1.12-1.13-1.08-4.56.51-9.13,1-13.64,1.77a106.26,106.26,0,0,0-12.1,2.87c-6.12,1.85-12.24,3.82-17.65,7.4a101.23,101.23,0,0,0-11.53,8.7A70.36,70.36,0,0,0,69,118.63c-1.6,2.62-3.08,5.32-4.79,7.86A36.33,36.33,0,0,0,58.3,139.6,102.88,102.88,0,0,0,57,153.82c-.19,3.31.26,6.67,0,10-.14,1.59-1,3.66-2.17,4.48-1.61,1.09-3.88,1.32-5.91,1.67-4.51.76-9.08,1.21-13.57,2.08a7.3,7.3,0,0,0-5.7,5.68c-.65,2.53-.81,4.89,2.18,6.76,2.32,1.45,4.48,3,7.18,3.46,5.12.86,10.27,1.7,15.43,2.21a2.37,2.37,0,0,1,2.48,2.33c.65,5.55,1.17,11.12,1.67,16.69.14,1.49,0,3,.09,4.5.22,4,.52,8,.73,12a28.32,28.32,0,0,0,7.07,17.08,37.66,37.66,0,0,0,7.86,6.67,62.7,62.7,0,0,0,24.85,10.33c6.77,1.12,13.55,2.2,20.34,3.13s13.83,2.16,20.78,2.41c6.24.23,12.52-.62,18.78-1.1,4.64-.37,9.3-.73,13.9-1.43,7-1.07,14.2-.31,21-3.46,4.67-2.17,9.49-3.94,12.69-8.11a118.91,118.91,0,0,0,8.88-13.07c3.33-5.81,6.16-11.9,9.15-17.9a25.3,25.3,0,0,0,1.77-4.36,58.32,58.32,0,0,0,2.3-15.62,18.12,18.12,0,0,1,.79-6.45c1.09-2.78,2.88-5.44,6-6.3,3.32-.9,6.84-.78,10.1-2.36,2.9-1.41,6.13-2.12,9.21-3.16s4.55-3.43,5.26-6.39C260.31,174.46,260.23,173.3,260.43,172.18Zm-8.17,29.22c.16-4.2.45-8.4.7-12.95-2.85.76-5.34,1.35-7.78,2.12A2.07,2.07,0,0,0,244,192.1c0,6.25.2,12.51.13,18.76-.06,5.21-.44,10.41-.64,15.62-.06,1.65,0,3.3,0,5.29a22.15,22.15,0,0,0,3.58-.74,19.53,19.53,0,0,0,3.92-2.11,3,3,0,0,0,1.21-2.05c0-4.78-.12-9.55-.14-14.33C252.07,208.83,252.12,205.11,252.26,201.4Zm-.67-42a58.93,58.93,0,0,0,.75-8.21c-.09-8.72-.37-17.44-.59-26.15h-.15c-.14-2.76-.28-5.52-.45-8.28-.08-1.17-.43-2.06-1.92-2-1.75.08-3.52-.15-5.25.05-2.35.27-3.36,0-3.35,2.76,0,6.63.12,13.27.43,19.9.18,3.83.88,7.63,1.24,11.46.33,3.44.46,6.89.79,10.32.09.9-.22,2.38,1.58,2.15s3.74-.42,5.57-.79A2,2,0,0,0,251.59,159.41ZM241.34,281.86a8,8,0,0,0,.06-1.32q-.27-14.44-.56-28.87h-.21c-.2-1.54-.1-3.2-.67-4.59a5.23,5.23,0,0,0-5.58-3,5.62,5.62,0,0,0-5,5,55.17,55.17,0,0,0-.44,6.71c-.11,3.39-.27,6.79-.2,10.17.09,4.21.4,8.42.6,12.63.08,1.76.05,3.53.17,5.29.19,2.75,1.05,4,2.78,4.37A7.81,7.81,0,0,0,241.34,281.86Zm-1.22-58.69c.08-2.53.84-5.06.81-7.57-.08-5.65-.48-11.3-.75-17-.12-2.48-.23-5-.34-7.43-2.53-.16-5.1,1.08-5.88,2.81a21.15,21.15,0,0,0-2,9.9c.37,8,.08,16.06.07,24.08,0,3.83,0,7.66,0,12,3.45-1,6,.25,8.83,1.56,0-3.29-.29-6.42-.47-9.55C240.23,229.08,240,226.12,240.12,223.18Zm-2-63.58c0-7.41.05-14.84-.22-22.24-.16-4.32-.87-8.62-1.44-12.91-.09-.7-.72-1.85-1.17-1.89-2.28-.19-4.58-.09-7.37-.09.38,5.06.56,9.92,1.14,14.73.61,5.1,1.55,10.16,2.42,15.22.51,3,1.19,6,3.74,8a8.24,8.24,0,0,0,2.34.89A5.75,5.75,0,0,0,238.09,159.59Zm-8.29-42.23a2.6,2.6,0,0,0-.09-.88c-2.21-4.4-4.46-8.79-6.67-13.2-.79-1.56-1.6-3.12-2.26-4.73q-2.22-5.38-4.3-10.81c-1.09-2.85-2.23-5.69-3.06-8.62-1.35-4.77-.37-9.61-.12-14.42.15-2.81.7-5.91-.23-8.41a19.4,19.4,0,0,0-9.42-10.65,54.63,54.63,0,0,0-19.38-5.09,89.31,89.31,0,0,1-9.94-1A45.74,45.74,0,0,0,161,38.34a3.41,3.41,0,0,1-1.13,0,51.69,51.69,0,0,0-18-1.13c-4.39.37-8.81.25-13.21.48q-8.94.48-17.88,1.19c-6.81.54-13.63.95-20.31,2.71a19.6,19.6,0,0,0-11.2,8.06C76.57,53.52,76.41,58,76.2,62.43c-.25,5.09-.07,10.26-2,15-3.37,8.26-7,16.42-10.49,24.61-1.66,3.86-3.35,7.69-4.85,11.12.93,1,1.73,1.85,2.5,2.73.63.71,1.34,1.16,2,.17A24.11,24.11,0,0,0,65.53,112c2.11-5.38,4-10.84,6.17-16.18,2.43-5.92,5.15-11.74,7.7-17.62.79-1.82,1.85-3.67,2-5.58a65.21,65.21,0,0,0,.06-10.35c-.26-4.22,1-8.18,3.84-10.79a21.47,21.47,0,0,1,13-5.46c11.09-.65,22.21-1,33.33-1.2,9.36-.15,18.72,0,28.08.25,4.9.11,9.79.59,14.69.92,8.36.57,16.79.41,24.86,3.42,4.72,1.76,6.5,5.46,7.83,9.72a1.25,1.25,0,0,1,0,.38c-.07,3.57.12,7.18-.28,10.72-.64,5.64.72,11,2,16.31.79,3.27,2.1,6.41,3.09,9.64.78,2.56,1.51,5.1,3.61,7a11.23,11.23,0,0,1,2,2.72c2.48,4.28,4.91,8.6,7.3,12.81Zm-4.56,123.52c1.49-1.5,2.8-2.95,2.65-5.47-.24-4.23,0-8.5.06-12.75a1.07,1.07,0,0,0-.12-.35l-.62-.28a185.28,185.28,0,0,1-14.06,29,39,39,0,0,0,6.23-4.48C221.41,244.78,223.32,242.82,225.24,240.88ZM223,253.08a6.92,6.92,0,0,0,2.74-6.77,4.06,4.06,0,0,0-.82.42c-2.51,2.13-4.91,4.39-7.52,6.38-3.69,2.8-7.39,5.61-11.92,7a28.86,28.86,0,0,0-2.62,1.44c-3.89,1.71-7.73,3.56-11.72,5a38.86,38.86,0,0,1-7.19,1.29c-2.65.4-5.34.57-7.95,1.14-5.77,1.26-11.58,1-17.42.84-4.2-.1-8.41.16-12.61.34-1,0-2,.63-3,.55-4.86-.4-9.7-1.12-14.56-1.39-6.81-.38-13.63-.3-20.3-2.23-5.35-1.54-10.86-2.48-16.25-3.9-3.13-.82-6.09-2.23-9.21-3.08-6.76-1.86-13.59-3.47-20.36-5.3-2.9-.78-2.86-.91-3,2.15a.18.18,0,0,0,.05.11c2.51,1,4.95,2.09,7.43,3.06,5.63,2.22,11.28,4.39,16.93,6.59.92.36,1.82.76,2.76,1,2.93.89,5.88,1.69,8.8,2.59,9.53,2.93,18.72,7,28.85,7.81,3.08.24,6.06,1.49,9.14,1.87,8.12,1,16.12-.4,24.12-1.59,2.42-.36,4.82-.84,7.24-1.17,3.73-.52,7.52-.72,11.2-1.48,7.66-1.58,15.29-3.24,22.51-6.48a52.21,52.21,0,0,0,9-4.58C212.62,261,218,257.36,223,253.08ZM206,95.16c-.14-.75-.19-1.12-.28-1.47-1-3.87-2.5-7.61-3-11.6a2,2,0,0,0,1.32-.92c.6-1.6.21-4.44-.73-6.76l.17,0,.44-4c-.35-.14-.57-.24-.8-.32a33.57,33.57,0,0,0-6.3-1.32,13,13,0,0,0-3.79-1.23,184,184,0,0,0-22.72-2c-7.16-.09-14.27-.73-21.4-1.07-.34-1.77-.88-3.5-1.31-5.25l-.78,0c-.65,1.72-1.36,3.42-2,5.14-3.58-.13-7.15-.23-10.73-.24-3,0-6,.08-9,.29-3.44.25-6.87.7-10.3,1.06,0-.15,0-.29,0-.44-3.91.34-7.83.63-11.74,1-5.22-.37-10.43-.88-15.65-1.23A2.51,2.51,0,0,0,85.46,66,7.92,7.92,0,0,0,85,69.16c0,1.37.27,2.76.17,4.12s-.07,2,.73,2.2c.17.7.74,1.12,1.79,1.27,2.59.38,5.22.67,7.77,1.27l.88.2c-3.43.16-6.87.37-10.3.36a2.3,2.3,0,0,0-2.31,1.3C79.43,86.51,76.36,93.72,73.56,101c-.68,1.79-1.15,3.66-1.71,5.49l.4.26c.8-.66,1.66-1.26,2.4-2,1.47-1.46,2.74-3.13,4.32-4.45,3.71-3.11,7.65-6,11.31-9.12A22.71,22.71,0,0,1,100,85.79c3.55-.79,4.71-3.32,6.08-6.21.81.06,1.63.11,2.44.15-.54,1.07-1.07,2.23-1.73,3.55,1.61-.38,3-.29,3.78-1A22.32,22.32,0,0,0,113,79.88l2.72,0c-.07.2-.13.41-.19.64a32.54,32.54,0,0,0,3.57,0l4.27-.52,2.64.07c3.63.12,7.29-.46,10.91-.25,2.39.14,3.84-.52,4.85-2.15,0,.13-.06.26-.1.39-1.07,3.85-.71,7.72-.08,11.41s2.54,7.14,3.88,10.7l1,.05c1.39-2.79,2.91-5.53,4.12-8.4A15,15,0,0,0,152,86.29c0-2.29-.76-4.57-1.06-6.87-.21-1.56-.4-3.13-.59-4.69a31.4,31.4,0,0,1,1.18,3.5c.45,1.71,1.25,1.71,2.55,1.52,1.81-.25,3.61-.51,5.42-.63a36.27,36.27,0,0,1,12.4,2.13c2.51.84,5.13,1.37,8.26,2.18l-.94-2.86,2.91.16a7.71,7.71,0,0,0,2.42,4.42,5.45,5.45,0,0,0,2,.41,4.3,4.3,0,0,0,0-1.66c-.41-1-.84-2-1.28-3L187,81l1,.07A23.69,23.69,0,0,0,190,86.3c.53.95,2.16,1.32,3.34,1.86,1.53.7,3.18,1.15,4.63,2C200.59,91.63,203.11,93.32,206,95.16ZM72.3,254.34a9.85,9.85,0,0,0-2-2.47C67,248.54,62.68,246,61.42,241c-.12-.5-.62-.91-1.17-1.67a25.74,25.74,0,0,0-.71,10.18c0,.26.46.54.76.66,3.33,1.29,6.65,2.57,10,3.8A11.32,11.32,0,0,0,72.3,254.34ZM58.62,122.91c.89-2.81-.26-4.95-3.19-5.2a33.77,33.77,0,0,0-6.72.4c-.38,0-.91.88-.95,1.39-.36,4.81-.79,9.63-.89,14.45-.16,7.65-.11,15.31-.08,23,0,3,.23,6.09.37,9.37l6.08-.89c0-4.22-.1-8.11,0-12a90.47,90.47,0,0,1,.8-9.75c.51-3.57.53-7.24,2.4-10.58a14.89,14.89,0,0,0,2-9.06A2.71,2.71,0,0,1,58.62,122.91ZM56,257.67a41.27,41.27,0,0,0,.46-4.85,3.57,3.57,0,0,0-1-2.42c-1.32-1.16-4.71-.89-6.09.21-2.09,1.66-2.34,4.17-2.54,6.45-.41,4.68-.47,9.4-.5,14.1,0,2.72.38,5.44.45,8.16.08,3-.28,6,.11,9a6.25,6.25,0,0,0,2.59,4,4,4,0,0,0,4.88-.66c.34-.33.77-.76.81-1.16.44-5.18,1-10.37,1.16-15.56.19-5.75,0-11.52,0-17.28ZM56.6,248c-.12-1.58-.22-2.56-.27-3.55q-.48-10-.95-19.94c0-.57,0-1.13,0-1.69-.07-5.91-.06-11.82-.24-17.72-.11-3.61-.5-7.21-.84-10.81a1.53,1.53,0,0,0-.78-1.13c-2-.5-4-.87-6-1.28-.52,1.94.49,53.62,1,55.59C51.16,246.72,53.82,245.29,56.6,248Zm-12-118.57c.59-3.27-.4-6.85-.75-10.28-.39-3.85-1.07-4.35-5-3.57a9,9,0,0,0-2.62,1,2.5,2.5,0,0,0-1.1,1.41,21.46,21.46,0,0,0-.62,4.26q-.2,7.6-.23,15.21c0,9.74,0,19.48,0,29.31,2.64,0,4.87-.07,7.1,0,1.71.07,2.59-.53,2.63-2.3,0-1.25.28-2.5.28-3.75,0-4.9-.27-9.82.05-14.69C44.79,140.47,43.63,135,44.64,129.38ZM44.16,226c.13-3.8.43-7.6.38-11.4-.11-7.16-.45-14.31-.6-21.47,0-1.3-.51-1.47-1.64-1.65-2.88-.46-5.72-1.16-8.94-1.83-.14,2-.48,4.4-.42,6.76.14,6.34.44,12.67.71,19a67.92,67.92,0,0,0,.56,8.24c.6,3.56,2.51,4.72,6,4.21a5,5,0,0,1,1.86-.1C43.72,228.14,44.12,227.3,44.16,226Z"/><path class="cls-1" d="M257.47,166.46a4.84,4.84,0,0,1,3,5.72c-.2,1.11-.12,2.28-.38,3.37-.71,3-2.17,5.36-5.26,6.39s-6.31,1.75-9.21,3.16c-3.26,1.58-6.78,1.46-10.1,2.36-3.14.85-4.93,3.51-6,6.3a18.12,18.12,0,0,0-.79,6.45,58.32,58.32,0,0,1-2.3,15.62,25.3,25.3,0,0,1-1.77,4.36c-3,6-5.83,12.09-9.15,17.9a118.91,118.91,0,0,1-8.88,13.07c-3.19,4.17-8,5.94-12.69,8.11-6.79,3.15-14,2.39-21,3.46-4.6.7-9.26,1.07-13.9,1.43-6.25.49-12.54,1.33-18.78,1.1-6.95-.26-13.86-1.46-20.78-2.41s-13.57-2-20.34-3.13A62.7,62.7,0,0,1,74.26,249.4a37.66,37.66,0,0,1-7.86-6.67,28.32,28.32,0,0,1-7.07-17.08c-.21-4-.51-8-.73-12-.08-1.5,0-3-.09-4.5-.51-5.57-1-11.13-1.67-16.69a2.37,2.37,0,0,0-2.48-2.33c-5.17-.51-10.31-1.35-15.43-2.21-2.69-.45-4.86-2-7.18-3.46-3-1.87-2.83-4.22-2.18-6.76a7.3,7.3,0,0,1,5.7-5.68c4.49-.87,9.06-1.32,13.57-2.08,2-.34,4.3-.57,5.91-1.67,1.21-.82,2-2.89,2.17-4.48.3-3.29-.14-6.65,0-10A102.88,102.88,0,0,1,58.3,139.6a36.33,36.33,0,0,1,5.89-13.11c1.72-2.54,3.2-5.24,4.79-7.86a70.36,70.36,0,0,1,13.4-16.15,101.23,101.23,0,0,1,11.53-8.7c5.41-3.58,11.52-5.55,17.65-7.4a106.26,106.26,0,0,1,12.1-2.87c4.51-.81,9.08-1.26,13.64-1.77.35,0,1.19.79,1.13,1.08-1.32,6.17.88,11.71,3.11,17.19a37,37,0,0,0,3.52,6.15c.95,1.45,2.32,1.27,3-.24,2-4.32,4.07-8.59,5.83-13A25.6,25.6,0,0,0,155.44,86c.29-2.92.11-3,3.13-3a52,52,0,0,1,16.71,2.25C182,87.36,189,89,195.34,91.94s12.07,6.78,16.18,12.65c1.51,2.16,3.52,4,4.73,6.31a85,85,0,0,1,3.63,9.12c.34.87.61,1.77,1,2.62,1.7,3.65,3.68,7.22,3.07,11.89.79,6.84,1.24,14.13,4.41,20.89.63,1.34.65,3,1.46,4.22,5.37,7.85,7.94,7.77,16.13,5.55C250,164.09,253.82,164.89,257.47,166.46ZM168.67,106.7c1.41.27,2.93-1.4,2.84-2.88a2,2,0,0,0-2.12-2c-1.3-.05-2.41,1.32-2.43,3.55C167.29,105.69,167.91,106.55,168.67,106.7Zm-4.14,76.83c4-4,5.37-10.83,2.76-15.89a7.43,7.43,0,0,0-3.76-3.39c-2.3-.78-4.87-.76-7.5-1.11,1.87-2.81,1.88-5.95,1.18-9.17-.57-2.65-1.34-5.42-4.45-5.85a43.7,43.7,0,0,0-10.64-.41c-6,.67-11.2,6.76-11.1,12.79,0,2.71,1,5.41,1.6,8.31a17.41,17.41,0,0,0-2.33.73c-6.11,2.71-8.18,13-1.39,17.86,3.33,2.39,6.92,2.35,10.61,2.2a5.17,5.17,0,0,0,2.69-1.21c1.35-1.06,2.55-2.32,3.91-3.6,2.19,2,5,2.76,8,3.24,3.18.5,6,0,8.36-2.3C163.21,185,163.82,184.23,164.53,183.52Zm-36.78-82c.15-1.86-.63-2.87-2.07-2.93-1.81-.08-2,1.05-1.92,2.27-.09,1.57-.06,3.05,1.72,3.15C127,104.12,127.64,102.93,127.75,101.56Z"/><path class="cls-2" d="M253,188.46c-.25,4.55-.54,8.75-.7,12.95-.14,3.71-.19,7.42-.18,11.13,0,4.78.18,9.56.14,14.33a3,3,0,0,1-1.21,2.05,19.53,19.53,0,0,1-3.92,2.11,22.15,22.15,0,0,1-3.58.74c0-2-.06-3.64,0-5.29.2-5.21.58-10.41.64-15.62.07-6.25-.14-12.51-.13-18.76a2.07,2.07,0,0,1,1.16-1.52C247.61,189.81,250.1,189.22,253,188.46Z"/><path class="cls-2" d="M252.34,151.2a58.93,58.93,0,0,1-.75,8.21,2,2,0,0,1-1.35,1.22c-1.83.37-3.71.54-5.57.79s-1.49-1.24-1.58-2.15c-.33-3.43-.46-6.89-.79-10.32-.36-3.83-1.07-7.63-1.24-11.46-.31-6.62-.4-13.26-.43-19.9,0-2.72,1-2.48,3.35-2.76,1.73-.2,3.5,0,5.25-.05,1.49-.07,1.85.82,1.92,2,.17,2.76.3,5.52.45,8.28h.15C252,133.76,252.25,142.48,252.34,151.2Z"/><path class="cls-3" d="M241.4,280.55a8,8,0,0,1-.06,1.32,7.81,7.81,0,0,1-9,6.32c-1.72-.34-2.58-1.63-2.78-4.37-.12-1.76-.09-3.52-.17-5.29-.19-4.21-.51-8.42-.6-12.63-.07-3.39.08-6.79.2-10.17a55.17,55.17,0,0,1,.44-6.71,5.62,5.62,0,0,1,5-5,5.23,5.23,0,0,1,5.58,3c.57,1.39.47,3.06.67,4.59h.21Q241.12,266.11,241.4,280.55Z"/><path class="cls-3" d="M240.93,215.6c0,2.52-.73,5-.81,7.57-.09,2.95.1,5.91.28,8.86.18,3.13.48,6.27.47,9.55-2.8-1.31-5.38-2.57-8.83-1.56,0-4.36,0-8.19,0-12,0-8,.3-16.07-.07-24.08a21.15,21.15,0,0,1,2-9.9c.77-1.73,3.35-3,5.88-2.81.12,2.47.23,4.95.34,7.43C240.44,204.3,240.85,209.95,240.93,215.6Z"/><path class="cls-3" d="M237.86,137.35c.28,7.41.2,14.83.22,22.24a5.75,5.75,0,0,1-.56,1.68,8.24,8.24,0,0,1-2.34-.89c-2.54-2-3.23-5-3.74-8-.87-5.06-1.81-10.12-2.42-15.22-.58-4.82-.76-9.68-1.14-14.73,2.79,0,5.09-.11,7.37.09.45,0,1.08,1.19,1.17,1.89C237,128.73,237.7,133,237.86,137.35Z"/><path class="cls-3" d="M229.7,116.48a2.6,2.6,0,0,1,.09.88l-4.89,1.35c-2.39-4.22-4.82-8.53-7.3-12.81a11.23,11.23,0,0,0-2-2.72c-2.1-1.91-2.83-4.44-3.61-7-1-3.23-2.3-6.37-3.09-9.64-1.29-5.34-2.65-10.67-2-16.31.4-3.54.21-7.14.28-10.72a1.25,1.25,0,0,0,0-.38c-1.33-4.26-3.11-8-7.83-9.72-8.08-3-16.5-2.85-24.86-3.42-4.9-.33-9.79-.81-14.69-.92-9.35-.22-18.72-.4-28.08-.25-11.12.18-22.24.55-33.33,1.2a21.47,21.47,0,0,0-13,5.46c-2.88,2.61-4.1,6.58-3.84,10.79a65.21,65.21,0,0,1-.06,10.35c-.19,1.91-1.25,3.75-2,5.58-2.54,5.88-5.26,11.69-7.7,17.62-2.19,5.34-4.06,10.81-6.17,16.18a24.11,24.11,0,0,1-2.23,4.12c-.64,1-1.35.55-2-.17-.77-.88-1.57-1.72-2.5-2.73,1.5-3.43,3.2-7.27,4.85-11.12C67.2,93.9,70.8,85.73,74.17,77.48c2-4.79,1.78-10,2-15,.22-4.45.37-8.91,3.16-12.78a19.6,19.6,0,0,1,11.2-8.06c6.68-1.76,13.5-2.17,20.31-2.71q8.94-.71,17.88-1.19c4.4-.23,8.82-.11,13.21-.48a51.69,51.69,0,0,1,18,1.13,3.41,3.41,0,0,0,1.13,0,45.74,45.74,0,0,1,13.26,1.23,89.31,89.31,0,0,0,9.94,1,54.63,54.63,0,0,1,19.38,5.09A19.4,19.4,0,0,1,213,56.3c.92,2.49.37,5.59.23,8.41-.25,4.82-1.23,9.66.12,14.42.83,2.93,2,5.77,3.06,8.62q2.08,5.43,4.3,10.81c.67,1.61,1.48,3.17,2.26,4.73C225.24,107.69,227.49,112.08,229.7,116.48Z"/><path class="cls-4" d="M227.89,235.41c.14,2.52-1.16,4-2.65,5.47-1.92,1.94-3.82,3.9-5.86,5.7a39,39,0,0,1-6.23,4.48,185.28,185.28,0,0,0,14.06-29l.62.28a1.07,1.07,0,0,1,.12.35C227.91,226.91,227.65,231.18,227.89,235.41Z"/><path class="cls-4" d="M225.74,246.31a6.92,6.92,0,0,1-2.74,6.77c-5,4.27-10.38,7.91-15.73,11.67a52.21,52.21,0,0,1-9,4.58c-7.21,3.24-14.85,4.9-22.51,6.48-3.68.76-7.47,1-11.2,1.48-2.42.34-4.82.82-7.24,1.17-8,1.18-16,2.59-24.12,1.59-3.08-.38-6.06-1.63-9.14-1.87-10.13-.8-19.32-4.89-28.85-7.81-2.92-.9-5.87-1.7-8.8-2.59-.94-.29-1.85-.69-2.76-1-5.64-2.19-11.29-4.37-16.93-6.59-2.48-1-4.92-2-7.43-3.06a.18.18,0,0,1-.05-.11c.15-3.06.11-2.93,3-2.15,6.77,1.83,13.6,3.45,20.36,5.3,3.12.85,6.09,2.26,9.21,3.08,5.38,1.42,10.9,2.36,16.25,3.9,6.67,1.92,13.49,1.85,20.3,2.23,4.87.27,9.7,1,14.56,1.39,1,.08,2-.5,3-.55,4.2-.18,8.41-.44,12.61-.34,5.84.15,11.65.42,17.42-.84,2.61-.57,5.3-.73,7.95-1.14a38.86,38.86,0,0,0,7.19-1.29c4-1.43,7.84-3.27,11.72-5a28.86,28.86,0,0,1,2.62-1.44c4.53-1.43,8.23-4.24,11.92-7,2.61-2,5-4.25,7.52-6.38A4.06,4.06,0,0,1,225.74,246.31Z"/><path d="M203.35,74.42c.94,2.32,1.33,5.16.73,6.76a2,2,0,0,1-1.32.92,20.4,20.4,0,0,1-.17-2.26c0-.46-1.07-1.27-1.65-1.29q-5.9-.18-11.81,0c-.52,0-1.52,1-1.44,1.27l.35,1.28L187,81l-1.8-.11c-.54-1.24-1.12-2.46-1.69-3.68a12.79,12.79,0,0,0-1.36-1.85,9.25,9.25,0,0,0-.1,5.35l-2.91-.16c-.32-.95-.6-1.81-.88-2.68-7.78.6-15.48-.06-23.11.66,0,.25,0,.5,0,.74.16.06.34.2.49.17a27.35,27.35,0,0,1,3.73-.35c-1.81.11-3.61.37-5.42.63-1.3.19-2.1.19-2.55-1.52a31.4,31.4,0,0,0-1.18-3.5c-.37-3.09-.73-6.19-1.19-9.26,0-.32-.1-.64-.17-1,7.13.34,14.25,1,21.4,1.07a184,184,0,0,1,22.72,2,13,13,0,0,1,3.79,1.23,90.45,90.45,0,0,0-9.72-.42c-4.51,0-9,.18-13.54-.11-6.3-.4-12.57-.93-18.85,0-3.61.53-.7,3-1.12,4.47-.29,1,0,2.53,1.85,2.27.56-.08,1.13-.1,1.69-.18a20.83,20.83,0,0,1,2.78-.4c5.09,0,10.17.11,15.25.05,1.69,0,3.43,0,4.85-1.39s2.64-1.1,3.64.44a2.23,2.23,0,0,0,2.36,1c4.62-.18,9.24-.28,13.86-.36C201,74.16,202.14,74.33,203.35,74.42Z"/><path class="cls-3" d="M204,70.43l-.44,4-.17,0A7,7,0,0,0,200.93,71c-1.3-.77-2.66-1.6-4.06-2.26a33.57,33.57,0,0,1,6.3,1.32C203.39,70.19,203.61,70.29,204,70.43Z"/><path class="cls-3" d="M200.93,71a7,7,0,0,1,2.43,3.38c-1.22-.1-2.33-.26-3.44-.25-4.62.08-9.24.18-13.86.36a2.23,2.23,0,0,1-2.36-1c-1-1.54-2.31-1.72-3.64-.44s-3.16,1.37-4.85,1.39c-5.08.05-10.17-.06-15.25-.05a20.83,20.83,0,0,0-2.78.4c-.56.08-1.13.1-1.69.18-1.87.26-2.14-1.24-1.85-2.27.42-1.48-2.49-3.94,1.12-4.47,6.28-.91,12.56-.39,18.85,0,4.5.29,9,.08,13.54.11a90.45,90.45,0,0,1,9.72.42C198.26,69.45,199.62,70.28,200.93,71Z"/><path class="cls-5" d="M186.52,83.88a4.3,4.3,0,0,1,0,1.66,5.45,5.45,0,0,1-2-.41,7.71,7.71,0,0,1-2.42-4.42l3.15.18C185.68,81.89,186.11,82.88,186.52,83.88Z"/><path class="cls-5" d="M183.54,77.22c.58,1.22,1.15,2.45,1.69,3.68l-3.15-.18a9.25,9.25,0,0,1,.1-5.35A12.79,12.79,0,0,1,183.54,77.22Z"/><path d="M171.5,103.82c.09,1.48-1.42,3.15-2.84,2.88-.76-.14-1.37-1-1.72-1.28,0-2.23,1.14-3.6,2.43-3.55A2,2,0,0,1,171.5,103.82Z"/><path d="M167.29,167.64c2.62,5.06,1.29,11.84-2.76,15.89-.71.71-1.32,1.52-2,2.22-2.36,2.26-5.18,2.8-8.36,2.3-3-.48-5.84-1.27-8-3.24-1.36,1.27-2.56,2.54-3.91,3.6a5.17,5.17,0,0,1-2.69,1.21c-3.69.15-7.29.19-10.61-2.2-6.79-4.86-4.72-15.15,1.39-17.86a17.41,17.41,0,0,1,2.33-.73c-.59-2.9-1.56-5.6-1.6-8.31-.09-6,5.13-12.13,11.1-12.79a43.7,43.7,0,0,1,10.64.41c3.11.42,3.88,3.19,4.45,5.85.7,3.22.69,6.36-1.18,9.17,2.63.34,5.2.33,7.5,1.11A7.43,7.43,0,0,1,167.29,167.64Zm-3,11.64c2.11-2.88,1.82-6.11.54-8.95-.93-2.06-3.47-2.68-6.37-2.76a25,25,0,0,0-4.65.76,35.52,35.52,0,0,0-5.27,2.61,6.51,6.51,0,0,0-2.43,9.06c1.8,2.83,4.86,3.44,7.72,4.06C158.39,185,161.72,182.85,164.33,179.27Zm-10-17.76c1.9-2.84,1.49-6.85-.79-8.59a13.08,13.08,0,0,0-7.69-2.79c-1.36.21-2.73.37-4.08.63-5.7,1.12-9.72,7.18-8.34,12.73.66,2.66,1.94,4.64,5.1,5.3,2.2.45,4.05-.21,6-.57A14.92,14.92,0,0,0,154.38,161.52ZM142.2,184.37a4,4,0,0,0,.78-3.31,9.7,9.7,0,0,1,.17-7.21,26.86,26.86,0,0,0-4-1.59c-4.19-.93-8.38-.65-10,3-.33.74-.49,1.55-.79,2.3a6.4,6.4,0,0,0,2.22,7.6C133.41,187.19,139.67,186.9,142.2,184.37Z"/><path class="cls-6" d="M164.87,170.32c1.28,2.84,1.56,6.07-.54,8.95-2.61,3.57-5.94,5.77-10.47,4.78-2.85-.62-5.91-1.24-7.72-4.06a6.51,6.51,0,0,1,2.43-9.06,35.52,35.52,0,0,1,5.27-2.61,25,25,0,0,1,4.65-.76C161.4,167.64,163.95,168.26,164.87,170.32Z"/><path class="cls-6" d="M153.59,152.93c2.27,1.74,2.69,5.75.79,8.59a14.92,14.92,0,0,1-9.8,6.71c-1.94.36-3.79,1-6,.57-3.17-.66-4.45-2.64-5.1-5.3-1.38-5.55,2.64-11.6,8.34-12.73,1.35-.26,2.72-.42,4.08-.63A13.08,13.08,0,0,1,153.59,152.93Z"/><path class="cls-5" d="M150.9,79.41c.31,2.3,1.07,4.59,1.06,6.87a15,15,0,0,1-1.37,5.57c-1.21,2.87-2.73,5.61-4.12,8.4l-1-.05c-1.35-3.56-3.26-7-3.88-10.7s-1-7.56.08-11.41c0-.13.07-.26.1-.39a8.58,8.58,0,0,0,.74-1.56,26.13,26.13,0,0,1,3.37-6c1-1.35,2.06-1.1,2.7.42s1.22,2.79,1.77,4.2C150.5,76.28,150.69,77.85,150.9,79.41Z"/><path class="cls-4" d="M150.31,74.72c-.56-1.41-1.18-2.81-1.77-4.2s-1.74-1.77-2.7-.42a26.13,26.13,0,0,0-3.37,6,8.58,8.58,0,0,1-.74,1.56c.76-3,.84-6.11,1.64-9a44.83,44.83,0,0,1,1.46-4.31l1.47,0,2.65.11c.06.32.12.64.17,1C149.58,68.53,149.94,71.63,150.31,74.72Z"/><path class="cls-5" d="M147.64,59.25c.43,1.75,1,3.49,1.31,5.25l-2.65-.11-1.47,0c.66-1.72,1.38-3.42,2-5.14Z"/><path d="M144.84,64.34a44.83,44.83,0,0,0-1.46,4.31c-.81,2.94-.88,6.09-1.64,9-1,1.63-2.45,2.29-4.85,2.15-3.62-.21-7.28.37-10.91.25L123.33,80q6.92-.84,13.83-1.77c.47-.06.87-.58,1.3-.89-.51-.26-1-.77-1.54-.76-5.9.16-11.8.47-17.7.59a3.42,3.42,0,0,0-3.54,2.72l-2.72,0a11.27,11.27,0,0,0,2.48-5.16c.19-1.09,0-2.26-1.2-2.37-.69-.06-1.66.74-2.16,1.41a38.59,38.59,0,0,0-2.74,4.48c-.26.48-.52,1-.78,1.49-.81,0-1.63-.09-2.44-.15.23-.48.46-1,.71-1.47-2.95,0-5.43-.06-7.91,0l-2.61.1-.88-.2c-2.55-.6-5.17-.89-7.77-1.27-1.05-.16-1.62-.58-1.79-1.27a5.88,5.88,0,0,0,1.33.06c6.38-.22,12.75-.52,19.13-.63a3.47,3.47,0,0,0,3.41-2,8.9,8.9,0,0,1,2.33-2.68c2.52-1.92,4.47-1.13,5.17,2,.12.55.25,1.1.42,1.88.48,0,.85,0,1.22,0,5.5-.4,11-.83,16.5-1.21,4.23-.29,3.5-.1,4.23-3.91,0-.19,0-.38.08-.56.25-1-.24-1.39-1.19-1.4-3.81,0-7.63-.09-11.45-.17-6.76-.16-13.54-.2-20.29-.56-1.25-.06-2.5-.14-3.75-.23,3.91-.39,7.83-.67,11.74-1,0,.14,0,.29,0,.44,3.43-.36,6.85-.81,10.3-1.06,3-.22,6-.31,9-.29C137.69,64.11,141.26,64.21,144.84,64.34Z"/><path class="cls-6" d="M143,181.06a4,4,0,0,1-.78,3.31c-2.52,2.53-8.79,2.82-11.7.82a6.4,6.4,0,0,1-2.22-7.6c.3-.75.47-1.56.79-2.3,1.66-3.69,5.85-4,10-3a26.86,26.86,0,0,1,4,1.59A9.7,9.7,0,0,0,143,181.06Z"/><path class="cls-3" d="M138.51,67c.95,0,1.44.38,1.19,1.4,0,.18,0,.37-.08.56-.73,3.81,0,3.61-4.23,3.91-5.5.38-11,.81-16.5,1.21-.37,0-.74,0-1.22,0-.17-.77-.29-1.32-.42-1.88-.7-3.1-2.65-3.89-5.17-2a8.9,8.9,0,0,0-2.33,2.68,3.47,3.47,0,0,1-3.41,2c-6.38.11-12.75.41-19.13.63a5.88,5.88,0,0,1-1.33-.06,2.93,2.93,0,0,1,.05-1.39c.77-3.25,2.58-5.71,5.86-6.48a78.13,78.13,0,0,1,9.63-1.42L103,66c1.25.09,2.5.17,3.75.23,6.75.35,13.52.4,20.29.56C130.88,66.9,134.69,66.94,138.51,67Z"/><path d="M125.68,98.62c1.44.06,2.22,1.08,2.07,2.93-.11,1.37-.78,2.56-2.27,2.48-1.78-.09-1.81-1.57-1.72-3.15C123.65,99.67,123.87,98.54,125.68,98.62Z"/><path class="cls-5" d="M114.25,72.35c1.16.1,1.39,1.28,1.2,2.37A11.27,11.27,0,0,1,113,79.88c-1.47,0-2.93-.08-4.4-.16.26-.51.51-1,.78-1.49a38.59,38.59,0,0,1,2.74-4.48C112.58,73.09,113.56,72.29,114.25,72.35Z"/><path class="cls-5" d="M108.56,79.73c1.46.08,2.93.12,4.4.16a22.32,22.32,0,0,1-2.35,2.44c-.74.67-2.17.58-3.78,1C107.49,82,108,80.8,108.56,79.73Z"/><path class="cls-3" d="M103,66l-1.6.16a78.13,78.13,0,0,0-9.63,1.42c-3.28.78-5.09,3.24-5.86,6.48a2.93,2.93,0,0,0-.05,1.39c-.8-.17-.84-.72-.73-2.2S85,70.53,85,69.16A7.92,7.92,0,0,1,85.46,66a2.51,2.51,0,0,1,1.91-1.25C92.59,65.14,97.8,65.66,103,66Z"/><path class="cls-4" d="M70.28,251.87a9.85,9.85,0,0,1,2,2.47,11.32,11.32,0,0,1-2-.36c-3.35-1.23-6.67-2.51-10-3.8-.3-.12-.72-.4-.76-.66a25.74,25.74,0,0,1,.71-10.18c.54.76,1,1.17,1.17,1.67C62.68,246,67,248.54,70.28,251.87Z"/><path class="cls-3" d="M55.43,117.71c2.93.25,4.08,2.38,3.19,5.2a2.71,2.71,0,0,0-.15,1.11,14.89,14.89,0,0,1-2,9.06c-1.86,3.34-1.89,7-2.4,10.58a90.47,90.47,0,0,0-.8,9.75c-.13,3.88,0,7.77,0,12l-6.08.89c-.13-3.29-.35-6.33-.37-9.37,0-7.65-.08-15.31.08-23,.1-4.82.53-9.64.89-14.45,0-.51.57-1.35.95-1.39A33.77,33.77,0,0,1,55.43,117.71Z"/><path class="cls-3" d="M56.5,252.82a41.27,41.27,0,0,1-.46,4.85l.39,0c0,5.76.15,11.53,0,17.28-.18,5.19-.72,10.37-1.16,15.56,0,.41-.47.84-.81,1.16a4,4,0,0,1-4.88.66,6.25,6.25,0,0,1-2.59-4c-.39-2.95,0-6-.11-9-.07-2.72-.47-5.44-.45-8.16,0-4.7.09-9.42.5-14.1.2-2.28.45-4.79,2.54-6.45,1.38-1.1,4.78-1.36,6.09-.21A3.57,3.57,0,0,1,56.5,252.82Z"/><path class="cls-3" d="M56.33,244.41c0,1,.15,2,.27,3.55-2.78-2.67-5.44-1.24-8.06-.53-.54-2-1.56-53.66-1-55.59,2,.41,4,.78,6,1.28a1.53,1.53,0,0,1,.78,1.13c.33,3.6.72,7.2.84,10.81.18,5.9.17,11.81.24,17.72,0,.56,0,1.13,0,1.69Q55.85,234.44,56.33,244.41Z"/><path class="cls-2" d="M43.89,119.1c.34,3.43,1.34,7,.75,10.28-1,5.6.15,11.09-.22,16.62-.32,4.88,0,9.79-.05,14.69,0,1.25-.25,2.5-.28,3.75,0,1.77-.92,2.37-2.63,2.3-2.23-.1-4.46,0-7.1,0,0-9.83,0-19.57,0-29.31q0-7.61.23-15.21a21.46,21.46,0,0,1,.62-4.26,2.5,2.5,0,0,1,1.1-1.41,9,9,0,0,1,2.62-1C42.82,114.75,43.51,115.25,43.89,119.1Z"/><path class="cls-2" d="M44.54,214.55c.05,3.8-.25,7.6-.38,11.4,0,1.35-.45,2.19-2.07,1.77a5,5,0,0,0-1.86.1c-3.5.51-5.42-.65-6-4.21a67.92,67.92,0,0,1-.56-8.24c-.27-6.34-.57-12.67-.71-19-.06-2.35.28-4.71.42-6.76,3.22.68,6.06,1.37,8.94,1.83,1.13.18,1.61.36,1.64,1.65C44.1,200.24,44.44,207.4,44.54,214.55Z"/></svg>