<svg id="圖層_1" data-name="圖層 1" xmlns="http://www.w3.org/2000/svg" viewBox="0 0 287.81 324.7"><defs><style>.cls-1{fill:#fff;}.cls-2{fill:#eabf29;}.cls-3{fill:#9e3224;}</style></defs><title>chks</title><path d="M231.57,158.38c-4.87,9.7-9.66,19.78-14.92,29.59s-11.71,18.87-21.32,25.13a2.52,2.52,0,0,0-1.08,1.7c-.11,5.51-3.23,9.25-7.21,12.47-2.6,2.11-5.36,4-7.89,6.21-4.73,4.1-10.21,3.43-15.6,2.42a10.84,10.84,0,0,0-7.45.78c-2.79,1.4-5.93,2.11-9.16,3.21.34,4.07.71,8.44,1.07,12.81.25,3,.55,6,.69,9a7,7,0,0,1-3.6,6.75c-2.9,1.7-5.06.66-5.68-2.69-1.48-8-3-16-4.39-24a3.59,3.59,0,0,0-3.26-3.42c-6.32-1.33-12.14-3.8-16.77-8.54a5.44,5.44,0,0,0-1.87-1.05c-8.9-3.52-17.18-8-23.1-15.83-2.46-3.25-4.86-6.56-5.51-10.77-.11-.71-.86-1.33-1.36-2-12.22-15.19-23.07-31.2-29.1-50-1.25-3.88-2.15-7.87-3.42-11.74a32.73,32.73,0,0,1-.84-16c2-11.65,3.71-23.38,7.71-34.57,1.23-3.45,2.88-6.75,4.22-10.16.68-1.73,1-3.61,1.67-5.32a13,13,0,0,1,2.47-4.09C69.37,64.8,73,61.4,76.67,58.06c7.46-6.77,16.62-10.48,25.89-13.92,4.12-1.52,8.2-3.25,12.43-4.39s8.76-1.72,13.16-2.5a17,17,0,0,1,2.69-.19c3.38,0,5.72-.88,6.39-4.95.55-3.37,5.82-6.81,9.23-6.47a5.39,5.39,0,0,1,3.61,2.48c1.2,2.19,1.76,4.73,2.78,7.64,5.89,1.49,12.37,3.44,19,4.74,17.7,3.47,31,13.79,42.76,26.71a67.73,67.73,0,0,1,16.07,29.25c1.58,6.26,1.67,12.91,2.34,19.4.6,5.84,1.37,11.69,1.5,17.55.16,6.83-.2,13.67-.57,20.5-.09,1.7-1.1,3.35-1.84,5.45Zm-84-122.69c.24-3-1.08-5.52-3.32-5.52s-3.51,2.52-3.37,5.52Zm-5.94,4.47c-8-.26-15.73,1.41-23.46,3-11.91,2.51-23.17,6.66-33,14.07q-5.35,4-10.67,8.06a5.11,5.11,0,0,0-1.23,1.17c-3,4.58-6.15,9-8.73,13.82-4.83,8.93-6.26,19-8.87,28.66a59,59,0,0,0-.08,30.23c2.08,8.32,4.41,16.51,8.87,24s8.29,15,12.89,22.2c3.09,4.85,7,9.19,10.61,13.7a5,5,0,0,0,2.39,1.59c5.36,1.49,10,4.31,14.5,7.46,2.87,2,5.78,4,8.68,5.93l.54-.45a15.23,15.23,0,0,1-1.48-2.05c-.45-.88-1.18-2-.91-2.75s1.58-1.24,2.51-1.39c2.49-.39,5.12-.18,7.51-.84a45.24,45.24,0,0,1,26.76.89c5.88,2,11,5.32,13.5,11.52.71,1.76,2.07,1.89,3.64,1.4,5.67-1.76,11.44-3.28,17-5.36,8.27-3.09,15.6-7.89,20.34-15.43,9-14.25,19.13-27.85,24.52-44.12,1.6-4.82,3.49-9.57,3-14.72-.95-9.9-2.11-19.78-3.22-29.66-.36-3.23-1.33-6.47-1.19-9.67A27.06,27.06,0,0,0,223,87.06c-5.77-10.75-13.15-20.24-22.84-27.79C182.93,45.87,163,40.87,141.64,40.16Zm-46.28,167c-1.25-.74-2.68-1.13-3.35.37a3.59,3.59,0,0,0,.61,3.12c5.67,6.55,13.16,10.58,20.72,14.44,2,1,3.87,0,3.9-2.43-.43-2.54-2.66-4.08-4.83-5.43C106.8,213.78,101.05,210.53,95.36,207.18Zm48.91,4.17a56.64,56.64,0,0,0-16.63-1.24c-2.09.16-4.17.48-6.26.72l-4.12.5c.81,3.33,1.45,6.38,2.32,9.36.74,2.52,1.17,4.93-1.26,7.79,3.7,1.81,6.86,3.65,10.23,5,8.94,3.44,17.92,3.53,26.72-.56a5.26,5.26,0,0,0,2.4-2.25,25.42,25.42,0,0,0,1.75-5.31,4.07,4.07,0,0,0-.18-2.83c-1.45-2.19-2.84-4.64-4.87-6.18A25.56,25.56,0,0,0,144.28,211.35Zm46.11,6-.52-1.06a10.13,10.13,0,0,0-2.63.42c-3.53,1.57-6.95,3.43-10.53,4.87-3.36,1.35-6.91,2.25-10.32,3.49a8.66,8.66,0,0,0-3.25,2c-1.52,1.61-1.21,5,.51,5.24,3.52.57,7.25,1.49,10.58-.74a51.91,51.91,0,0,0,5.94-4.6C183.64,223.8,187,220.52,190.38,217.3Zm-46.56,22.39h-5.08c1.7,8,3.35,16.52,5.1,25.15C145.3,262.79,145.06,243.69,143.82,239.69Z"/><path class="cls-1" d="M144.27,30.17c2.23,0,3.55,2.52,3.32,5.52h-6.69C140.75,32.69,142.15,30.18,144.27,30.17Z"/><path class="cls-1" d="M118.19,43.21c7.72-1.64,15.45-3.31,23.46-3,21.36.72,41.29,5.72,58.48,19.11,9.69,7.55,17.06,17,22.84,27.79A27.06,27.06,0,0,1,226,101.45c-.15,3.2.82,6.44,1.19,9.67,1.11,9.88,2.27,19.76,3.22,29.66.49,5.16-1.4,9.9-3,14.72-5.39,16.27-15.56,29.86-24.52,44.12-4.74,7.55-12.07,12.35-20.34,15.43-5.56,2.07-11.32,3.6-17,5.36-1.57.48-2.93.36-3.64-1.4-2.49-6.2-7.62-9.55-13.5-11.52a45.24,45.24,0,0,0-26.76-.89c-2.4.66-5,.45-7.51.84-.93.15-2.24.69-2.51,1.39s.46,1.86.91,2.75a15.23,15.23,0,0,0,1.48,2.05l-.54.45c-2.89-2-5.81-3.92-8.68-5.93-4.49-3.15-9.15-6-14.5-7.46A5,5,0,0,1,88,199.11c-3.62-4.51-7.52-8.85-10.61-13.7-4.6-7.21-8.5-14.86-12.89-22.2s-6.78-15.66-8.87-24A59,59,0,0,1,55.67,109c2.61-9.67,4-19.73,8.87-28.66,2.59-4.78,5.78-9.24,8.73-13.82a5.11,5.11,0,0,1,1.23-1.17q5.32-4,10.67-8.06C95,49.86,106.28,45.72,118.19,43.21Zm56.47,78.53c-2.34-.94-5-1-7,.66s-1.1,4.22-.65,6.44a7.44,7.44,0,0,0,.63,1.84c1.68,3.37,3.58,4.41,6.56,3.64a4.75,4.75,0,0,0,3.75-3.69,9.1,9.1,0,0,0,.25-2.23c0-.25,0-.49,0-.74C178.17,125,177.2,122.75,174.66,121.74ZM115.46,123c-3.06,0-5,1.14-5.63,3.3a5.69,5.69,0,0,0,2.55,6.46,7.09,7.09,0,0,1,1.33,1.38,4.22,4.22,0,0,0,5.86.95c2.39-1.46,3.14-3.8,2.26-7.06A6.4,6.4,0,0,0,115.46,123Z"/><path d="M167.68,122.39c2-1.71,4.64-1.6,7-.66,2.54,1,3.51,3.26,3.55,5.92,0,.25,0,.49,0,.74a9.35,9.35,0,0,1-.24,2.23,4.75,4.75,0,0,1-3.75,3.69c-3,.77-4.89-.27-6.56-3.64a7.44,7.44,0,0,1-.63-1.84C166.58,126.61,165.6,124.15,167.68,122.39Zm5.09,2.83a2.54,2.54,0,0,0-2,.1,9.56,9.56,0,0,0,.06,2.72,1.44,1.44,0,0,0,.4.86c.62.58,1.3,1.1,2,1.65l1.17-1.78c-.07-.86,0-1.14-.12-1.33A7.17,7.17,0,0,0,172.77,125.23Z"/><path d="M109.84,126.33c.6-2.17,2.57-3.32,5.63-3.3a6.4,6.4,0,0,1,6.38,5c.87,3.26.12,5.6-2.26,7.06a4.22,4.22,0,0,1-5.86-.95,7.09,7.09,0,0,0-1.33-1.38A5.69,5.69,0,0,1,109.84,126.33Zm7.81,1.9c-.73-.76-2.19-.82-3.33-1.19-.09.7-.5,1.72-.2,2a26,26,0,0,0,3.49,2.64A2.3,2.3,0,0,0,117.65,128.23Z"/><path class="cls-2" d="M170.82,125.33a2.54,2.54,0,0,1,2-.1,7.17,7.17,0,0,1,1.53,2.22c.11.19,0,.47.12,1.33l-1.17,1.78c-.66-.54-1.35-1.06-2-1.65a1.44,1.44,0,0,1-.4-.86A9.56,9.56,0,0,1,170.82,125.33Z"/><path class="cls-2" d="M114.32,127c1.14.37,2.6.42,3.33,1.19a2.3,2.3,0,0,1,0,3.5,26,26,0,0,1-3.49-2.64C113.81,128.76,114.23,127.74,114.32,127Z"/><path d="M178.21,127.66c0,.25,0,.49,0,.74a9.1,9.1,0,0,1-.25,2.23,9.35,9.35,0,0,0,.24-2.23C178.21,128.15,178.22,127.9,178.21,127.66Z"/><path class="cls-1" d="M92,207.55c.68-1.5,2.1-1.11,3.35-.37,5.69,3.35,11.44,6.6,17,10.07,2.17,1.34,4.4,2.89,4.83,5.43,0,2.4-1.86,3.47-3.9,2.43-7.56-3.86-15.05-7.89-20.72-14.44A3.59,3.59,0,0,1,92,207.55Z"/><path class="cls-3" d="M127.65,210.11a56.64,56.64,0,0,1,16.63,1.24,25.56,25.56,0,0,1,10.11,5c2,1.54,3.42,4,4.87,6.18a4.07,4.07,0,0,1,.18,2.83,25.42,25.42,0,0,1-1.75,5.31,5.26,5.26,0,0,1-2.4,2.25c-8.8,4.09-17.78,4-26.72.56-3.37-1.3-6.53-3.14-10.23-5,2.43-2.87,2-5.27,1.26-7.79-.87-3-1.51-6-2.32-9.36l4.12-.5C123.48,210.59,125.56,210.28,127.65,210.11Z"/><path class="cls-1" d="M189.86,216.24l.52,1.06c-3.4,3.22-6.74,6.5-10.22,9.64a51.91,51.91,0,0,1-5.94,4.6c-3.33,2.23-7.05,1.3-10.58.74-1.72-.28-2-3.63-.51-5.24a8.66,8.66,0,0,1,3.25-2c3.41-1.24,7-2.14,10.32-3.49,3.59-1.45,7-3.3,10.53-4.87A10.13,10.13,0,0,1,189.86,216.24Z"/><path class="cls-2" d="M108.74,209.69h5.08c1.24,4,1.48,23.1,0,25.15C112.08,226.21,110.43,217.69,108.74,209.69Z"/></svg>