<svg id="圖層_1" data-name="圖層 1" xmlns="http://www.w3.org/2000/svg" viewBox="0 0 287.81 324.7"><defs><style>.cls-1{fill:#4f5654;}.cls-2{fill:#1d7052;}.cls-3{fill:#b8b7b7;}.cls-4{fill:#fff;}.cls-5{fill:#cf543f;}.cls-6{fill:#ddae1d;}</style></defs><title>chks</title><path d="M271.45,86.31c2.39,3.68.37,6.76-2.79,8.57-1.75,1-3,2-5,1.19-.08,0-.23.09-.34.14-3.51,1.56-7.18,1.09-10.75.56-4.19-.61-9.07,1.4-10.6,5.25a46.13,46.13,0,0,0-2.48,9.2c-.7,4.14-.66,8.42-1.56,12.5a30.12,30.12,0,0,0,.28,13.91A92.29,92.29,0,0,1,241,158.91c0,3.95-.7,7.9-.64,11.85a93.62,93.62,0,0,1-3.3,25.15C236,200,234.79,204,233.55,208c-.44,1.43-.78,3.17-1.78,4.09-2.44,2.23-2.39,5.22-2.2,7.8A118,118,0,0,0,232,234c2.14,10.69,0,20.9-3.33,31-2.2,6.58-6.42,12-10.28,17.68a37.52,37.52,0,0,1-4.94,6.34,100.52,100.52,0,0,1-10,8.23c-3.54,2.55-7.13,5.23-11.09,6.94-5.55,2.4-11.57,3.35-17.65,4a131.1,131.1,0,0,1-26.48.37,60.73,60.73,0,0,1-18.64-4.21,56.18,56.18,0,0,1-13.34-7.57A104.19,104.19,0,0,1,101.6,282c-4.5-5.37-7.34-12-9.34-18.81-.28-1-.59-1.91-.81-2.88-.32-1.39-1.2-1.72-2.5-1.59-2,.2-4,.17-6,.49A7.15,7.15,0,0,0,78,262a74.18,74.18,0,0,0-8.92,16.8c-2,5.25-4.09,10.47-6.38,15.6-1,2.21-1.74,4.61-4.26,6a13.18,13.18,0,0,1-6.16,1.39c-6,.23-11.95.6-17.9.34-5.38-.24-10.73-1.24-16.09-1.92a1.94,1.94,0,0,1-1-.4c-2.05-1.9-3.87-5.38-1.26-8.28a14.78,14.78,0,0,1,4.45-3.36c4.71-2.3,9.92-2.25,15-2.38,3.25-.09,6.53-.76,9.86.2,1.24.36,3.19-.36,4.31-1.23a14.73,14.73,0,0,0,3.29-4.31c2.8-4.84,5.48-9.76,8.2-14.66a5.71,5.71,0,0,0,.73-1.52c.82-4.12,3-7.54,5.47-10.83A20.4,20.4,0,0,0,70,249.4c1.27-3,2.66-5.79,5.92-7.12.54-.22,1.3-.65,1.39-1.1.31-1.56.37-3.18.59-5.29-1.25.77-2,1.15-2.62,1.62-4.48,3.15-9.12,6.17-11.6,11.35-1.61,3.38-4.37,5.76-7,8.23a1.48,1.48,0,0,1-1,.2c-3-.19-5.09-2.26-5.41-5.51-.68-6.8,2.33-12.12,7.18-16.43a109.74,109.74,0,0,1,9.1-6.72c1.3-.94,2.66-1.79,3.71-2.5-1.75-2.9-3.52-5.57-5-8.38A68.39,68.39,0,0,1,60.52,208c-1.33-3.86-2-8-3-11.94-1.85-7.57-3.84-15.1-5.49-22.7A44.55,44.55,0,0,1,51,163a132.46,132.46,0,0,1,1.21-17.41A85.45,85.45,0,0,1,56,131.33a68.46,68.46,0,0,1,4.32-9.1c2.51-4.89,5.11-9.73,7.66-14.59l1.51-2.89c-1.64.34-2.67.64-3.71.76-2.16.26-4.43.08-6.47.7a109.72,109.72,0,0,1-15,3.19,38.44,38.44,0,0,1-17.08-1.23c-1.49-.44-2.88-2.15-3.73-3.61s.05-3.13,1.57-4a11.64,11.64,0,0,1,4.22-1.66c6.18-.61,12.39-1,18.58-1.44,2.5-.18,5-.21,7.48-.52,2.85-.36,5.68-1,8.51-1.47S69.46,94.94,72,94c3.72-1.46,7.69-2.85,9.89-6.69a1.7,1.7,0,0,1,.42-.39c5-4.14,10-8.31,15.12-12.39,1.7-1.36,3.61-2.46,5.43-3.68a66.15,66.15,0,0,1,17.87-9c3.94-1.18,7.82-2.57,12.07-4-.72-2.59-1.51-5.27-2.2-8A41.69,41.69,0,0,1,130,30.7c1-4.92,8.07-6,10.56-3.12,1.24,1.44,2.63,2.74,4,4.19.7-5.17,1.57-10.23,2-15.32.52-5.66,5.39-6.17,8.76-4s4.58,5.63,5.67,9.06A42.81,42.81,0,0,1,162.47,40a87,87,0,0,1-2.2,10.23c-.41,1.63-1.32,3.13-1.75,4.76-1.33,4.92-1.41,5,3.3,6.13l.18.07c5.4,1.57,10.83,3.05,16.19,4.75a68.41,68.41,0,0,1,10.32,3.92,124.84,124.84,0,0,1,19,12.46,64.27,64.27,0,0,1,12.81,13.36c1.41,1.92,2.55,4,3.89,6.2.29-2,.22-3.89.87-5.53,1.65-4.16,3.67-8.18,5.45-12.3a5.23,5.23,0,0,1,4.69-3.49c1.49-.12,2.95-.56,4.44-.64,3.44-.2,6.88-.36,10.32-.36,1.84,0,3.67.5,5.52.59,3.37.15,6.68.23,10,1.37A11.17,11.17,0,0,1,271.45,86.31Zm-5,5.44c3.18-.87,3.66-2.77,1.21-5.12a10.18,10.18,0,0,0-6.37-2.94c-2.7-.22-5.38-.67-8.07-.77-4.52-.17-9-.11-13.57-.24-.53,0-1.05-.59-2.08-1.21l.76,1.79c-5.63,1.36-7.52,6-8.75,10.77s-1.6,9.47-2.34,14.22c-.28,1.73-.6,3.46-.81,5.2-.73,6.28-1.27,12.59-2.16,18.86-.93,6.55-2,13.09-3.34,19.56-1.83,8.86-4.06,17.62-6,26.46-.8,3.73-1.27,7.54-1.7,11.33a4.57,4.57,0,0,0,.82,3c1.92,2.62,4,5.09,6.18,7.72,1.28-5.75,2.66-11.51,3.83-17.31.82-4,1.32-8.15,2-12.22.49-2.76,1.19-5.49,1.68-8.25,1-5.86,2-11.73,3-17.59.71-4.08,1.77-8.12,2.15-12.22.42-4.63,1.62-9.11,2-13.74.39-4.41,1.57-8.76,2.41-13.13a4,4,0,0,0,.17-.73c0-4.16,2.82-6.72,5.51-9.13,3-2.69,6.68-3.38,10.81-3s8.38.43,12.4-1.17Zm-31.5,80.32C235,165,235,158,235,151c0-2-.29-4-.45-6-.3.16-.48.19-.48.26-1,6.14-1.87,12.29-2.85,18.42s-1.9,12.43-3.11,18.59c-.89,4.56-2.26,9-3.32,13.54-.66,2.8-1.22,5.64-1.66,8.48a5,5,0,0,0,.45,2.7c.8,1.69,1.81,3.29,3,5.38,1.53-4.17,3-8,4.31-11.83a59.15,59.15,0,0,0,3.4-21.09C234.21,177,234.91,174.51,234.94,172.07Zm-6,69.82a27.93,27.93,0,0,0-.59-6c-.57-3.41-1.26-6.79-1.92-10.18-.69-3.59-1.52-7.1-3.75-10.17a22.22,22.22,0,0,1-2.19-4.59,59.18,59.18,0,0,0-13.88-19.61,38.91,38.91,0,0,0-10.36-6.75c-5-2.4-9.86-5.46-15.62-6.12-1.38-.16-1.84.06-1.77,1.46a18.17,18.17,0,0,1-.15,4c-.31,1.77.46,2.45,2.06,2.84,5.72,1.42,11.27,3.38,15.89,7.15,4.13,3.37,8.34,6.67,11.13,11.41,1.69,2.86,3.84,5.44,5.67,8.22,5.31,8,6.08,17.09,5.62,26.39-.2,4-.33,7.91-.55,11.86-.36,6.26-2.5,11.89-5.3,17.52-3.51,7.07-9.2,11.91-15,16.69-11.57,9.52-25.07,12.86-39.82,11.86-8-.53-15.82-2-23.05-5.32A42.88,42.88,0,0,1,124,284.8a203.92,203.92,0,0,1-14.28-15.55c-5-5.88-7.15-13-8.19-20.56-.65-4.8-1.55-9.58-.81-14.45,1.08-7.18,2.72-14.24,6.22-20.65a43.11,43.11,0,0,1,5.69-7.46,107.58,107.58,0,0,1,8.31-8.65c1.69-1.54,3.9-2.51,5.88-3.72.26-.16.72-.2.83-.41,1.71-3.64,5.78-2.85,8.52-4.57a30.1,30.1,0,0,1,3.49-1.4,30.7,30.7,0,0,1,10.66-3c2.45-.19,4.88-.7,7.65-1.11-.14-1.55-.38-3.29-.45-5-.05-1.41-.65-1.7-1.93-1.41-3.83.87-7.69,1.57-11.5,2.51-4.25,1.05-8.54,2.07-12.66,3.52A74.12,74.12,0,0,0,119.68,188c-5.24,3-10.43,6.26-14.17,11-2.46,3.15-4.14,6.92-6,10.48-2.86,5.38-5.4,11-6.36,17a112.54,112.54,0,0,0-1,15.37,46.25,46.25,0,0,0,.78,10.1,84,84,0,0,0,3.6,12.45,64.43,64.43,0,0,0,9.92,17.28,54.62,54.62,0,0,0,4.83,5.29,97.58,97.58,0,0,0,9.35,8.62c5.3,3.94,11.49,6.19,17.8,8,.73.21,1.43.53,2.16.67,2.5.47,5,.94,7.52,1.29,2.36.33,4.75.42,7.1.78,5.37.81,10.62-.41,15.93-.75a50.86,50.86,0,0,0,13.85-2.36c6.2-2.2,12.53-4.16,17.62-8.57,2-1.74,3.7-3.86,5.58-5.76,1.26-1.27,2.65-2.41,3.9-3.69,4-4.09,8.06-8.1,9.92-13.81,1.14-3.5,3-6.77,4.19-10.27a45,45,0,0,0,1.61-8.11C228.25,249.39,228.69,245.64,228.89,241.89Zm-6.2-126.56c1.72-3.79,0-6.61-1.24-9.76-2-5.13-5.61-9.17-9.14-13.25a69.92,69.92,0,0,0-5.46-6.23,71.3,71.3,0,0,0-8.11-6.28,97.63,97.63,0,0,0-12-7.45,98.66,98.66,0,0,0-13.39-4.78c-5.19-1.62-10.45-3-15.7-4.44a6,6,0,0,0-2,.23,2.67,2.67,0,0,1-.88,0c-2.4-.56-4.76-1.35-7.19-1.67-3.82-.51-7.65-1.32-11.55-.53s-7.92,1.28-11.74,2.38c-2.48.71-4.71,2.26-7.06,3.44-5.12,2.56-10.36,4.91-15.31,7.76-3,1.74-5.59,4.24-8.35,6.42-1.38,1.09-2.68,2.27-4.09,3.31-6.88,5.09-11.71,11.85-15.83,19.23-2.25,4-4.88,7.85-7.1,11.9-1.83,3.33-3.34,6.84-4.91,10.32-1.69,3.77-3.46,7.52-4.86,11.4a40.2,40.2,0,0,0-1.65,7.7c-1.46,9.77-.4,19.46.83,29.19a110.71,110.71,0,0,0,6.81,26.31c2.38,6.13,5.73,11.88,8.83,17.71,1.55,2.91,3.49,5.62,5.42,8.68.37-.56.44-.62.43-.66-.82-8.09.75-16.1.78-24.17,0-8.87.46-17.75.71-26.62a3.57,3.57,0,0,0-1-2.81c-1.14-1.24-1.69-3-2.54-4.53a16.51,16.51,0,0,1-1.77-3,4.72,4.72,0,0,1,.08-3.16c2.61-5.3,7.29-7.61,12.9-8,6.63-.41,13.28-.54,19.92-.6,6.26-.06,12.52.08,18.78.24,3.18.08,6.36.56,9.54.59,6.14.06,12.27-.06,18.41-.11a9.68,9.68,0,0,0,1.27-.21c-1-2.55-2.08-5-3-7.43a6,6,0,0,1,0-1.95c.6.32,1.37.5,1.77,1a33.31,33.31,0,0,1,6.76,14.56,73.13,73.13,0,0,1,1.13,17.51c-.2,5.92.08,11.88.38,17.8.14,2.75,1,3.42,3.9,3.52a24.39,24.39,0,0,0,4.48-.51,1.37,1.37,0,0,0,.79-.71,39.15,39.15,0,0,0,3.72-12.54c.43-3.4.84-6.81,1.08-10.23a61.35,61.35,0,0,0-1.8-20.84,50.73,50.73,0,0,0-6.17-13.28,66.32,66.32,0,0,0-5.92-7.74c-1.44-1.71-.39-2.66.9-3.89,8.11,5.06,12.92,12.61,15.87,21.54,1,3.1.27,2.54,3.49,2.55,9.08,0,18.15.14,27.23.22l6.78,0c1.14,0,1.51-.53,1.68-1.72.93-6.7,2.06-13.37,3-20.06.34-2.39.21-4.84.52-7.23C221.4,121.39,221.45,118.07,222.69,115.33Zm-6.06,42.94c.18-1.1-1.17-2.1-2.78-1.69-4.06,1-8,.65-12.07-.09a30,30,0,0,0-7.32,0c-4.92.33-9.83.79-14.86,1.21v12.79c1,0,2.08,0,3.17,0,5.39-.13,10.79-.28,16.18-.4,4.86-.11,9.72-.16,14.59-.31a1.64,1.64,0,0,0,1.21-1C215.45,165.32,216.06,161.8,216.63,158.28Zm-1.4,88.33a6.8,6.8,0,0,0-.64-.32c-2.83-.64-4.81.27-5.82,3.1a9.52,9.52,0,0,1-1.35,2.67,21,21,0,0,1-3.58,3.92c-3.89,2.94-8.63,3.44-13.27,4.09a12.59,12.59,0,0,1-2.78-.34c-.62-.06-1.26,0-2.17,0l16.48,18.08c1.85-2.79,4.34-5,5.37-8.43.92-3.08,2.88-5.83,4.26-8.79a10.65,10.65,0,0,0,1.28-6.26c-.18-1.25.94-2.67,1.36-4C214.75,249.07,215,247.81,215.23,246.61Zm-5.07-58.52c2.08-4.61,2.21-9.17,3.06-14.08-6.19,0-12.12.08-18,0-4.88-.08-9.76-.35-14.64-.56-1.55-.07-1.55-.11-1.81,1.33,5.69,1.53,11.36,2.65,16.72,4.61A42.6,42.6,0,0,1,210.16,188.09Zm1.7,48.51c2.12-8.2,1.55-16-3.57-23.13-.06-.09-.2-.13-.6-.38-.26,2-.4,3.79-.73,5.55-.58,3.15-1.34,6.26-1.89,9.41a26.32,26.32,0,0,0,0,3.27,7,7,0,0,1-.45,2c-.49,1.42-1.14,2.79-1.5,4.23a2.1,2.1,0,0,0,.56,1.78C206.38,241.42,211,239.91,211.87,236.6Zm-7.67-27.32c.05-.48-.19-1.41-.38-1.43-1.19-.14-2.3-1.21-3.63.08-3.29,3.2-6.73,6.26-10.15,9.33-4.55,4.08-9.14,8.06-13,12.87-2,2.52-4.78,4.44-7.1,6.54a4.17,4.17,0,0,0,4.36,3.18c4,.13,8,1,12,.86,3.84-.09,7.66-1,11.48-1.53,1.12-1.93,2.75-3.74,3.26-5.82a54.48,54.48,0,0,0,1.71-11.87C202.82,217.34,203.72,213.35,204.19,209.29Zm-10.45,45.87c5-1.36,9.8-3.42,12.61-8.44-11.21,1.29-22.29,1.78-33.35-.08l-.37.48c2.78,2.88,5.54,5.78,8.36,8.62a2.18,2.18,0,0,0,1.54.48C186.28,255.93,190.17,256.13,193.74,255.15Zm3.57,26.72a8.65,8.65,0,0,0,1.65-1.39c-2.62-3.1-5-6.2-7.71-9-3-3.19-6.19-6.2-9.41-9.17a4.37,4.37,0,0,0-2.67-.66c-4-.07-8,0-11.83,0V294c3.63-.58,7.3-.45,10.3-1.8C184.37,289.14,190.79,285.38,197.3,281.88Zm1.43-79.74c-.73-2.63-2.74-3.94-4.82-4.84-4.2-1.8-8.48-3.43-12.83-4.84-2.54-.82-4.53.55-4.61,3.24a4.1,4.1,0,0,1-2.92,3.92A14.09,14.09,0,0,0,167.7,204a7.12,7.12,0,0,0-1.19,4c-.19,6.67-.18,13.34-.31,20,0,1.68-.29,3.36-.44,5l.74.51C175.91,221.68,187.87,212.43,198.73,202.14ZM167,256.69h9c-2-1.71-3.69-3.26-5.54-4.54a3.28,3.28,0,0,0-2.76-.31c-.53.23-.67,1.54-.8,2.39A13,13,0,0,0,167,256.69Zm-3.65-8.11c2.36.35,4.72-3.15,3.84-5.38a22.61,22.61,0,0,0-2.26-4.65c-1.55-2.23-4-2.49-6.51-2.4-1.82.07-2.81,1.33-3.3,2.89a28.52,28.52,0,0,0-.68,3.88l-.4.33c.73,1.07,1.24,2.61,2.25,3.09A25.32,25.32,0,0,0,163.39,248.59ZM163,291.31c0-4.71.08-9.43,0-14.14-.11-5.28-.34-10.56-.62-15.83,0-.4-.8-1-1.29-1.09-2.85-.42-5.71-.76-8.58-1a2.45,2.45,0,0,0-1.58.71,84,84,0,0,0-6.09,5.79c-1.5,1.66-2.5,3.79-4,5.46-3.19,3.59-6.55,7-9.86,10.52-1.59,1.67-1.6,1.94.32,3.29,9.11,6.36,19.26,8.86,30.27,8.24a9.38,9.38,0,0,1,1.07.08A12,12,0,0,0,163,291.31Zm-1.24-84.14c0-1.44.16-2.89.15-4.33a1.83,1.83,0,0,0-.6-1.07,11.44,11.44,0,0,1-3.44-8.65c0-2.94-.87-4-3.79-3.85a35,35,0,0,0-6.6,1.17c-2.38.58-4.74,1.29-7.05,2.09-2.07.73-4.09,1.61-6.09,2.52s-3.77,1.89-6,3c6.08,7,12,14.09,18.2,21,2.88,3.23,6.3,6,9.2,9.19a9.16,9.16,0,0,0,5.34,3.2c.1-2.33.23-4.56.28-6.79C161.52,218.82,161.63,213,161.76,207.18Zm-.36,49.28c-.06-1.29.12-2.28-1.41-2.64-3.39-.77-3.37-.86-5.11,1.83ZM159,43.29c1.6-5.19,1-10.42.62-15.68A22.94,22.94,0,0,0,157,17.88c-.28-.49-.56-1-.88-1.44-2.28-3.27-4.3-2.77-6.16.72-1.31,2.45-1.77,5.42-2.25,8.22-.6,3.5-.85,7.06-1.24,10.59l-.26,0c0,6.18,0,12.36,0,18.54,0,1.82.51,3.16,2.55,3.52a43.9,43.9,0,0,1,4.56,1.1c1.05.31,1.53-.08,1.78-1,.67-2.53,1.37-5,2-7.58S158.25,45.67,159,43.29Zm-.74,125.54a26.9,26.9,0,0,0-1.88-11,2,2,0,0,0-1.53-1c-6.75-.08-13.51-.22-20.26,0-5.12.13-10.22.9-15.34,1-5.43.1-10.86-.27-16.3-.45s-10.84-.5-16.27-.52c-6.46,0-8.67,3.51-9,9.52-.06,1.19,1.55,2.78,2.77,3.67a27.66,27.66,0,0,0,5.37,2.68,10.09,10.09,0,0,0,2.17.45c0-.09,0-.18,0-.28,4.76,0,9.52.09,14.28,0,5.45-.14,10.9-.55,16.35-.69,5.24-.13,10.48-.05,15.72-.11,1.57,0,3.12-.21,4.69-.29,5.63-.28,11.25-.61,16.88-.76C157.57,170.94,158.15,170.36,158.24,168.83Zm-7.07,84.08c.64-.87,1.62-2.34,1.3-2.87-.71-1.21-1.29-3-3.26-3l-.76,0-41.82-.21c-.19,0-.37,0-1,.09.72,2.7,1.15,5.36,2.25,7.72.33.72,2.49.81,3.81.81,5.57,0,11.14-.27,16.71-.26,5.08,0,10.17.45,15.25.29C146.31,255.42,149.31,255.45,151.18,252.91Zm.91-17.29a3.9,3.9,0,0,0-.59-5.25q-5.63-5.71-11.34-11.33c-1-1-2.31-1.76-3.29-2.81-1.5-1.63-2.78-3.47-4.28-5.11-2.33-2.56-4.76-5-7.14-7.52-.67-.71-1.32-1.45-2.08-2.29a26.61,26.61,0,0,0-8.64,8.79,106.33,106.33,0,0,0-6.41,12.27c-1.06,2.48-1.32,5.35-1.71,8.07s-.38,5.52-.73,8.25c-.16,1.2.12,1.84,1.27,2a58.47,58.47,0,0,0,15,.87c3.11-.29,6.25-.14,9.37-.25q7.1-.26,14.2-.6c1.36-.06,2.72-.24,3.87-.34C150.45,238.71,151.22,237.13,152.09,235.62Zm-7.21,24-.25-.59c-2.39-.23-4.77-.63-7.15-.65-8.14-.05-16.28,0-24.42,0-.81,0-1.62-.2-2.43-.19-.58,0-1.45,0-1.66.38s0,1.19.2,1.74c2,5.19,5.72,9.21,9.21,13.36,1.77,2.11,3.82,4,5.77,6a17.49,17.49,0,0,0,1.62,1.28ZM140.39,57.25c2.59,0,3.23-.7,3-3.27-.36-4.25-.37-8.56-1.16-12.73a15.48,15.48,0,0,0-6.75-10.47c-1.34-.87-2.68-.4-3.14,1.44a17.54,17.54,0,0,0-.72,6.67c.83,5.54,2.12,11,3.23,16.52.26,1.26.85,2,2.33,1.72a10.2,10.2,0,0,1,2.07,0v.09C139.63,57.21,140,57.25,140.39,57.25Zm.12,119.7a2.66,2.66,0,0,0,1.46-1c-2.64.16-5.28.27-7.91.48-5.58.44-11.13,1.12-16.78.65-3.7-.31-7.46.2-11.19.3-3.48.09-7,.3-10.44.14-2-.09-3.89-.89-5.85-1.27s-4-.65-6.64-1.06c.06,4.34.18,8.25.16,12.16,0,3.58-.1,7.16-.29,10.74-.29,5.33-.85,10.65-1,16-.27,8.41-.31,16.83-.45,25.24,0,.43.06.85.09,1.31l6.68.63c0-2-.11-3.86,0-5.69a41.4,41.4,0,0,1,.81-6.31c1.31-5.68,2.77-11.32,4.19-17a4,4,0,0,1,.57-1.18c3.21-4.93,6.27-10,9.72-14.72,1.54-2.12,3.87-3.68,5.86-5.47a31.3,31.3,0,0,1,10.32-6.64c2-.7,3.65-2.29,5.64-2.93C130.42,179.71,135.49,178.4,140.51,176.95ZM89.43,255.26c-.49-3.32-.88-6.48-1.48-9.59-.1-.5-1.12-1.15-1.75-1.18-5.27-.32-9.63,1.18-12.84,5.8-4.93,7.11-8.33,15-12.23,22.65-1.89,3.7-3.63,7.47-5.58,11.13a29.32,29.32,0,0,1-3,4.22,2.7,2.7,0,0,1-1.3.66,44.89,44.89,0,0,1-16.56,1.72c-4.09-.28-8.25.3-12.38.57-1.36.09-3.46,2.76-3,4a2.78,2.78,0,0,0,1.83,1.5,49.58,49.58,0,0,0,5.81.57c5.09.33,10.18.92,15.26.84a94.7,94.7,0,0,0,13.59-1.52c1-.16,2.08-1.47,2.6-2.51,3-6.1,5.94-12.28,8.89-18.43,1.68-3.49,3.28-7,5.1-10.45,1.22-2.29,2.76-4.41,4.17-6.6s3.22-3.84,6.28-3.46A52.41,52.41,0,0,0,89.43,255.26Zm-15.18-23a1.47,1.47,0,0,0-.15-1.44,1.89,1.89,0,0,0-1.6-.43c-1.64.62-3.18,1.47-4.79,2.17a27.52,27.52,0,0,0-12,9.72,15.57,15.57,0,0,0-2.52,8.51,4.47,4.47,0,0,0,.32,1.46,3.83,3.83,0,0,0,1.36,1.39c.15.09.82-.57,1.15-1,3.58-4.52,7.12-9.06,10.7-13.57a2.69,2.69,0,0,1,1.17-.91C71,237.22,72.16,234.24,74.25,232.24ZM75.51,95.16c-1,.16-1.74.25-2.44.39-4,.79-8.08,1.67-12.14,2.38-3.19.56-6.4,1.1-9.63,1.35-7,.54-14,.84-21,1.35a8.62,8.62,0,0,0-3.71,1.13,1.91,1.91,0,0,0,.42,3.58c4.36,1.24,8.71,2.7,13.41,1.89,4.26-.74,8.59-1.09,12.84-1.87,2.88-.52,5.65-1.6,8.52-2.21s5.35-1.88,8.31-1.53a3,3,0,0,0,2.23-1.19C73.48,98.87,74.35,97.13,75.51,95.16Z"/><path class="cls-1" d="M267.65,86.63c2.45,2.35,2,4.25-1.21,5.12l-.18.06c-4,1.6-8.27,1.52-12.4,1.17s-7.82.34-10.81,3c-2.68,2.41-5.53,5-5.51,9.13a4,4,0,0,1-.17.73c-.84,4.37-2,8.72-2.41,13.13-.41,4.64-1.61,9.12-2,13.74-.38,4.11-1.44,8.14-2.15,12.22-1,5.86-1.94,11.74-3,17.59-.48,2.76-1.19,5.49-1.68,8.25-.73,4.06-1.23,8.17-2,12.22-1.18,5.8-2.55,11.55-3.83,17.31-2.13-2.63-4.25-5.1-6.18-7.72a4.57,4.57,0,0,1-.82-3c.43-3.8.9-7.6,1.7-11.33,1.9-8.84,4.13-17.61,6-26.46,1.34-6.47,2.41-13,3.34-19.56.89-6.26,1.43-12.57,2.16-18.86.2-1.74.53-3.46.81-5.2.74-4.75,1.14-9.58,2.34-14.22s3.12-9.41,8.75-10.77l-.76-1.79c1,.62,1.55,1.19,2.08,1.21,4.52.12,9,.07,13.57.24,2.7.1,5.38.54,8.07.77A10.18,10.18,0,0,1,267.65,86.63Z"/><path class="cls-2" d="M235,151c0,7,.07,14.08,0,21.12,0,2.44-.74,4.89-.67,7.31a59.15,59.15,0,0,1-3.4,21.09c-1.33,3.85-2.79,7.66-4.31,11.83-1.19-2.09-2.2-3.69-3-5.38a5,5,0,0,1-.45-2.7c.45-2.84,1-5.68,1.66-8.48,1.06-4.53,2.43-9,3.32-13.54,1.21-6.16,2.12-12.39,3.11-18.59s1.89-12.28,2.85-18.42c0-.06.19-.1.48-.26C234.69,147,235,149,235,151Z"/><path class="cls-3" d="M228.3,235.9a27.93,27.93,0,0,1,.59,6c-.2,3.75-.64,7.5-1.15,11.22a45,45,0,0,1-1.61,8.11c-1.16,3.5-3,6.76-4.19,10.27-1.86,5.71-5.91,9.72-9.92,13.81-1.25,1.28-2.64,2.42-3.9,3.69-1.88,1.9-3.57,4-5.58,5.76-5.09,4.41-11.42,6.37-17.62,8.57a50.86,50.86,0,0,1-13.85,2.36c-5.3.34-10.56,1.56-15.93.75-2.35-.36-4.74-.45-7.1-.78-2.52-.35-5-.82-7.52-1.29-.74-.14-1.44-.46-2.16-.67-6.31-1.86-12.5-4.1-17.8-8a97.58,97.58,0,0,1-9.35-8.62,54.62,54.62,0,0,1-4.83-5.29,64.43,64.43,0,0,1-9.92-17.28A84,84,0,0,1,92.88,252a46.25,46.25,0,0,1-.78-10.1,112.54,112.54,0,0,1,1-15.37c1-6,3.49-11.63,6.36-17,1.89-3.57,3.57-7.34,6-10.48,3.75-4.79,8.93-8.1,14.17-11a74.12,74.12,0,0,1,11.77-5.15c4.12-1.45,8.41-2.46,12.66-3.52,3.81-.94,7.68-1.65,11.5-2.51,1.27-.29,1.88,0,1.93,1.41.07,1.75.3,3.49.45,5-2.76.42-5.19.92-7.65,1.11a30.7,30.7,0,0,0-10.66,3,30.1,30.1,0,0,0-3.49,1.4c-2.74,1.72-6.81.94-8.52,4.57-.11.22-.56.25-.83.41-2,1.22-4.19,2.19-5.88,3.72a107.58,107.58,0,0,0-8.31,8.65,43.11,43.11,0,0,0-5.69,7.46c-3.49,6.41-5.13,13.47-6.22,20.65-.73,4.87.16,9.65.81,14.45,1,7.54,3.16,14.68,8.19,20.56A203.92,203.92,0,0,0,124,284.8a42.88,42.88,0,0,0,11.28,7.73c7.23,3.35,15.07,4.78,23.05,5.32,14.75,1,28.25-2.34,39.82-11.86,5.81-4.78,11.49-9.62,15-16.69,2.79-5.62,4.94-11.26,5.3-17.52.23-4,.35-7.91.55-11.86.47-9.3-.31-18.34-5.62-26.39-1.83-2.78-4-5.36-5.67-8.22-2.79-4.74-7-8-11.13-11.41-4.62-3.77-10.17-5.73-15.89-7.15-1.6-.4-2.37-1.07-2.06-2.84a18.17,18.17,0,0,0,.15-4c-.07-1.4.39-1.62,1.77-1.46,5.76.66,10.59,3.72,15.62,6.12a38.91,38.91,0,0,1,10.36,6.75A59.18,59.18,0,0,1,220.44,211a22.22,22.22,0,0,0,2.19,4.59c2.23,3.07,3.06,6.58,3.75,10.17C227,229.12,227.73,232.5,228.3,235.9Z"/><path class="cls-4" d="M221.45,105.57c1.25,3.16,3,6,1.24,9.76-1.25,2.74-1.29,6.06-1.69,9.15-.31,2.39-.19,4.84-.52,7.23-.94,6.7-2.07,13.37-3,20.06-.17,1.19-.54,1.72-1.68,1.72l-6.78,0c-9.08-.08-18.15-.2-27.23-.22-3.23,0-2.47.55-3.49-2.55-3-8.92-7.76-16.48-15.87-21.54-1.29,1.23-2.34,2.19-.9,3.89a66.32,66.32,0,0,1,5.92,7.74,50.73,50.73,0,0,1,6.17,13.28,61.35,61.35,0,0,1,1.8,20.84c-.24,3.42-.65,6.83-1.08,10.23a39.15,39.15,0,0,1-3.72,12.54,1.37,1.37,0,0,1-.79.71,24.39,24.39,0,0,1-4.48.51c-2.86-.09-3.76-.77-3.9-3.52-.3-5.93-.57-11.88-.38-17.8a73.13,73.13,0,0,0-1.13-17.51,33.31,33.31,0,0,0-6.76-14.56c-.39-.49-1.17-.67-1.77-1a6,6,0,0,0,0,1.95c.92,2.46,2,4.88,3,7.43a9.68,9.68,0,0,1-1.27.21c-6.14.06-12.27.18-18.41.11-3.18,0-6.36-.51-9.54-.59-6.26-.16-12.52-.29-18.78-.24-6.64.06-13.29.19-19.92.6-5.6.35-10.29,2.66-12.9,8a4.72,4.72,0,0,0-.08,3.16,16.51,16.51,0,0,0,1.77,3c.85,1.52,1.41,3.29,2.54,4.53a3.57,3.57,0,0,1,1,2.81c-.26,8.87-.68,17.75-.71,26.62,0,8.07-1.6,16.08-.78,24.17,0,0-.06.1-.43.66-1.93-3.06-3.87-5.77-5.42-8.68-3.1-5.83-6.45-11.58-8.83-17.71a110.71,110.71,0,0,1-6.81-26.31c-1.23-9.72-2.29-19.41-.83-29.19a40.2,40.2,0,0,1,1.65-7.7c1.4-3.88,3.16-7.63,4.86-11.4,1.57-3.47,3.08-7,4.91-10.32,2.22-4,4.85-7.87,7.1-11.9,4.12-7.38,8.95-14.14,15.83-19.23,1.41-1,2.71-2.22,4.09-3.31,2.76-2.18,5.33-4.68,8.35-6.42,4.95-2.85,10.19-5.2,15.31-7.76,2.35-1.18,4.58-2.73,7.06-3.44,3.83-1.1,7.83-1.58,11.74-2.38s7.72,0,11.55.53c2.43.33,4.79,1.11,7.19,1.67a2.67,2.67,0,0,0,.88,0,6,6,0,0,1,2-.23c5.25,1.42,10.51,2.82,15.7,4.44a98.66,98.66,0,0,1,13.39,4.78,97.63,97.63,0,0,1,12,7.45,71.3,71.3,0,0,1,8.11,6.28,69.92,69.92,0,0,1,5.46,6.23C215.85,96.4,219.42,100.43,221.45,105.57ZM109.11,92.17c.07-1.35-1.35-3-2.4-3s-3,1.94-2.95,3.2c0,1.05,1.53,2,3.22,2C108.64,94.56,109,93.44,109.11,92.17Z"/><path class="cls-1" d="M213.85,156.59c1.61-.41,3,.59,2.78,1.69-.57,3.53-1.18,7-1.88,10.55a1.64,1.64,0,0,1-1.21,1c-4.86.16-9.72.21-14.59.31-5.4.12-10.79.28-16.18.4-1.09,0-2.17,0-3.17,0V157.74c5-.42,9.93-.87,14.86-1.21a30,30,0,0,1,7.32,0C205.84,157.24,209.79,157.62,213.85,156.59Z"/><path class="cls-2" d="M213.22,174c-.85,4.9-1,9.47-3.06,14.08a42.6,42.6,0,0,0-14.72-8.73c-5.36-2-11-3.07-16.72-4.61.26-1.44.26-1.4,1.81-1.33,4.88.21,9.75.48,14.64.56C201.1,174.09,207,174,213.22,174Z"/><path class="cls-1" d="M208.3,213.47c5.12,7.1,5.68,14.93,3.57,23.13-.85,3.31-5.49,4.82-8.15,2.68a2.1,2.1,0,0,1-.56-1.78c.37-1.44,1-2.81,1.5-4.23a7,7,0,0,0,.45-2,26.32,26.32,0,0,1,0-3.27c.55-3.15,1.31-6.26,1.89-9.41.33-1.77.48-3.57.73-5.55C208.1,213.34,208.24,213.38,208.3,213.47Z"/><path class="cls-2" d="M203.82,207.86c.19,0,.43,1,.38,1.43-.47,4.07-1.37,8.05-1.45,12.21A54.48,54.48,0,0,1,201,233.37c-.51,2.08-2.14,3.89-3.26,5.82-3.83.54-7.65,1.43-11.48,1.53-4,.09-8-.73-12-.86a4.17,4.17,0,0,1-4.36-3.18c2.32-2.1,5.08-4,7.1-6.54,3.85-4.81,8.45-8.79,13-12.87,3.42-3.07,6.85-6.13,10.15-9.33C201.51,206.65,202.63,207.71,203.82,207.86Z"/><path class="cls-1" d="M206.35,246.71c-2.81,5-7.65,7.08-12.61,8.44-3.57,1-7.46.78-11.21,1.05a2.18,2.18,0,0,1-1.54-.48c-2.82-2.84-5.58-5.74-8.36-8.62l.37-.48C184.07,248.49,195.14,248,206.35,246.71Z"/><path class="cls-2" d="M193.91,197.3c2.08.9,4.09,2.21,4.82,4.84-10.86,10.3-22.83,19.54-32.23,31.45l-.74-.51c.15-1.68.41-3.36.44-5,.12-6.67.12-13.34.31-20a7.12,7.12,0,0,1,1.19-4,14.09,14.09,0,0,1,5.86-4.38,4.1,4.1,0,0,0,2.92-3.92c.08-2.7,2.07-4.07,4.61-3.24C185.43,193.87,189.72,195.49,193.91,197.3Z"/><path class="cls-1" d="M176,256.69h-9a13,13,0,0,1-.11-2.46c.12-.85.27-2.15.8-2.39a3.28,3.28,0,0,1,2.76.31C172.34,253.43,174,255,176,256.69Z"/><path class="cls-1" d="M167.23,243.21c.88,2.23-1.47,5.73-3.84,5.38a25.32,25.32,0,0,1-7.06-2.25c-1-.48-1.51-2-2.25-3.09l.4-.33a28.52,28.52,0,0,1,.68-3.88c.49-1.55,1.47-2.82,3.3-2.89,2.48-.09,5,.17,6.51,2.4A22.61,22.61,0,0,1,167.23,243.21Z"/><path class="cls-2" d="M161.91,202.84c0,1.44-.11,2.89-.15,4.33-.14,5.82-.24,11.64-.39,17.46-.05,2.23-.18,4.45-.28,6.79a9.16,9.16,0,0,1-5.34-3.2c-2.91-3.21-6.32-6-9.2-9.19-6.16-6.89-12.13-13.95-18.2-21,2.21-1.12,4.07-2.13,6-3s4-1.8,6.09-2.52c2.31-.81,4.67-1.51,7.05-2.09a35,35,0,0,1,6.6-1.17c2.92-.13,3.83.91,3.79,3.85a11.44,11.44,0,0,0,3.44,8.65A1.83,1.83,0,0,1,161.91,202.84Z"/><path class="cls-1" d="M160,253.82c1.54.35,1.35,1.35,1.41,2.64l-6.52-.81C156.62,253,156.59,253,160,253.82Z"/><path class="cls-5" d="M159.6,27.6c.41,5.26,1,10.5-.62,15.68-.73,2.38-1.21,4.84-1.84,7.26s-1.36,5.05-2,7.58c-.25,1-.73,1.35-1.78,1a43.9,43.9,0,0,0-4.56-1.1c-2-.37-2.56-1.7-2.55-3.52,0-6.18,0-12.36,0-18.54l.26,0c.4-3.54.64-7.1,1.24-10.59.48-2.8.95-5.77,2.25-8.22,1.86-3.49,3.88-4,6.16-.72.32.46.61.95.88,1.44A22.94,22.94,0,0,1,159.6,27.6Z"/><path class="cls-1" d="M156.37,157.83a26.9,26.9,0,0,1,1.88,11c-.09,1.53-.68,2.11-2.31,2.16-5.63.15-11.26.48-16.88.76-1.57.08-3.12.27-4.69.29-5.24.06-10.48,0-15.72.11-5.45.14-10.89.55-16.35.69-4.76.12-9.52,0-14.28,0,0,.09,0,.19,0,.28a10.09,10.09,0,0,1-2.17-.45A27.66,27.66,0,0,1,80.45,170c-1.21-.89-2.83-2.47-2.77-3.67.32-6,2.53-9.54,9-9.52,5.42,0,10.84.34,16.27.52s10.87.54,16.3.45c5.12-.09,10.22-.86,15.34-1,6.75-.17,13.51,0,20.26,0A2,2,0,0,1,156.37,157.83Z"/><path class="cls-1" d="M152.48,250c.31.53-.67,2-1.3,2.87-1.86,2.54-4.86,2.51-7.49,2.6-5.07.16-10.17-.28-15.25-.29-5.57,0-11.14.25-16.71.26-1.32,0-3.48-.09-3.81-.81-1.09-2.36-1.52-5-2.25-7.72.6-.06.79-.09,1-.09l41.82.21.76,0C151.19,247.06,151.77,248.83,152.48,250Z"/><path class="cls-2" d="M151.5,230.37a3.9,3.9,0,0,1,.59,5.25c-.87,1.51-1.64,3.09-2.52,4.77-1.15.1-2.51.28-3.87.34q-7.1.33-14.2.6c-3.12.11-6.27,0-9.37.25a58.47,58.47,0,0,1-15-.87c-1.15-.19-1.43-.83-1.27-2,.35-2.74.35-5.52.73-8.25s.65-5.59,1.71-8.07a106.33,106.33,0,0,1,6.41-12.27,26.61,26.61,0,0,1,8.64-8.79c.76.84,1.41,1.58,2.08,2.29,2.38,2.51,4.81,5,7.14,7.52,1.5,1.64,2.77,3.48,4.28,5.11,1,1.05,2.26,1.8,3.29,2.81Q145.88,224.66,151.5,230.37Z"/><path class="cls-5" d="M143.4,54c.22,2.57-.42,3.26-3,3.27-.38,0-.75,0-1.13-.05V57.1a10.2,10.2,0,0,0-2.07,0c-1.48.31-2.08-.46-2.33-1.72-1.11-5.5-2.4-11-3.23-16.52a17.54,17.54,0,0,1,.72-6.67c.47-1.84,1.8-2.31,3.14-1.44a15.48,15.48,0,0,1,6.75,10.47C143,45.42,143,49.73,143.4,54Z"/><path class="cls-2" d="M142,175.94a2.66,2.66,0,0,1-1.46,1c-5,1.45-10.09,2.76-15.05,4.39-2,.65-3.66,2.23-5.64,2.93a31.3,31.3,0,0,0-10.32,6.64c-2,1.79-4.32,3.35-5.86,5.47-3.45,4.75-6.51,9.79-9.72,14.72a4,4,0,0,0-.57,1.18c-1.42,5.65-2.88,11.3-4.19,17a41.4,41.4,0,0,0-.81,6.31c-.13,1.83,0,3.68,0,5.69l-6.68-.63c0-.46-.1-.88-.09-1.31.13-8.41.17-16.83.45-25.24.17-5.33.74-10.65,1-16,.19-3.57.27-7.16.29-10.74,0-3.91-.09-7.82-.16-12.16,2.61.41,4.64.67,6.64,1.06s3.89,1.18,5.85,1.27c3.47.16,7,0,10.44-.14,3.73-.1,7.49-.61,11.19-.3,5.65.47,11.2-.22,16.78-.65C136.69,176.21,139.33,176.1,142,175.94Z"/><path d="M106.71,89.18c1.06,0,2.47,1.64,2.4,3s-.48,2.39-2.14,2.22c-1.69,0-3.2-1-3.22-2C103.73,91.11,105.52,89.18,106.71,89.18Z"/><path class="cls-1" d="M88,245.67c.6,3.12,1,6.27,1.48,9.59a52.41,52.41,0,0,1-6.65-.06c-3.06-.38-4.81,1.19-6.28,3.46s-2.95,4.31-4.17,6.6c-1.82,3.42-3.43,7-5.1,10.45-3,6.15-5.85,12.33-8.89,18.43-.52,1-1.61,2.34-2.6,2.51a94.7,94.7,0,0,1-13.59,1.52c-5.08.08-10.17-.51-15.26-.84a49.58,49.58,0,0,1-5.81-.57,2.78,2.78,0,0,1-1.83-1.5c-.43-1.24,1.67-3.92,3-4,4.13-.26,8.28-.85,12.38-.57a44.89,44.89,0,0,0,16.56-1.72,2.7,2.7,0,0,0,1.3-.66,29.32,29.32,0,0,0,3-4.22c2-3.66,3.69-7.44,5.58-11.13,3.9-7.64,7.3-15.54,12.23-22.65,3.21-4.62,7.57-6.12,12.84-5.8C86.83,244.52,87.85,245.17,88,245.67Z"/><path class="cls-6" d="M74.11,230.81a1.47,1.47,0,0,1,.15,1.44c-2.09,2-3.29,5-6.36,5.93a2.69,2.69,0,0,0-1.17.91c-3.58,4.51-7.12,9.06-10.7,13.57-.32.4-1,1.06-1.15,1a3.83,3.83,0,0,1-1.36-1.39,4.47,4.47,0,0,1-.32-1.46,15.57,15.57,0,0,1,2.52-8.51,27.52,27.52,0,0,1,12-9.72c1.61-.7,3.16-1.55,4.79-2.17A1.89,1.89,0,0,1,74.11,230.81Z"/><path class="cls-6" d="M73.07,95.54c.71-.14,1.43-.23,2.44-.39-1.16,2-2,3.71-3.16,5.26a3,3,0,0,1-2.23,1.19c-3-.35-5.57.93-8.31,1.53s-5.64,1.69-8.52,2.21c-4.25.78-8.58,1.13-12.84,1.87-4.7.81-9.05-.65-13.41-1.89a1.91,1.91,0,0,1-.42-3.58,8.62,8.62,0,0,1,3.71-1.13c7-.51,14-.81,21-1.35,3.23-.25,6.44-.79,9.63-1.35C65,97.21,69,96.34,73.07,95.54Z"/></svg>