<svg id="圖層_1" data-name="圖層 1" xmlns="http://www.w3.org/2000/svg" viewBox="0 0 287.81 324.7"><defs><style>.cls-1{fill:#bf5145;}.cls-2{fill:#f3e7b8;}.cls-3{fill:#fff;}.cls-4{fill:#ddae1d;}.cls-5{fill:#cf543f;}</style></defs><title>chks</title><path d="M263.86,182c4,1.88,4.43,5.29,1.85,8.91a10.06,10.06,0,0,1-1.38,1.63,13.21,13.21,0,0,0-4,8.28c-2.31,15.43-5.75,30.57-11.83,45-2.78,6.6-6.8,11.8-13.86,14.26a17.3,17.3,0,0,0-4.61,3,101.56,101.56,0,0,1-41,19.57c-3.05.67-6.22.85-9.34,1.25l-4.75.63c-1.08,6.57.46,12.25,1.74,18a39.44,39.44,0,0,1,1,5c.29,3.37-2.08,5-5.21,3.61a7.79,7.79,0,0,1-2.75-2c-4.9-5.88-9-12.15-9.65-20.11-.39-4.67-1.3-5.49-5.79-6.69-9-2.41-17.89-4.92-26.87-7.27A40,40,0,0,1,113,267.66c-3.84-3-7.79-3.55-12.45-2.22-11.94,3.39-24,6.53-36,9.68a19.22,19.22,0,0,1-5.92.69c-4-.24-5.41-3-3.47-6.6a12.35,12.35,0,0,1,9.56-6.49c9.29-1.42,17.75-5.29,26.35-8.76.37-.15.64-.54,1.43-1.23-2.18-2.05-4.17-4.23-6.45-6a20.16,20.16,0,0,1-6.3-8.46c-2.65-6.32-5.62-12.51-8.4-18.77a51.57,51.57,0,0,1-3-7.55,14.35,14.35,0,0,0-7.19-9.15c-1-.57-2-1.11-3-1.71-4.2-2.6-5.32-10.15-1.7-13.46,1.54-1.41,3.93-1.89,6.72-3.14.17-5,.4-10.78.52-16.6a3.17,3.17,0,0,0-.92-2.19c-2.57-2.24-3-5.17-2.61-8.23a34,34,0,0,1,1.47-7.1c1-3.08,2.59-5.76,6.67-5.41,1.45.12,1.48-.18,2.71-3.38-3.05.47-5.81.75-8.5,1.34-4.6,1-9.14,2.31-13.75,3.28a35.11,35.11,0,0,1-7.22.73c-3,0-4-.65-6.55-3.45.45-3.54,2.81-5.45,5.93-6.57,8.06-2.9,16-6.1,24.25-8.47,9.44-2.72,16.79-8.1,23.34-15.2,6.1-6.6,12.7-12.74,19.24-18.91a34.82,34.82,0,0,1,6.41-4.24,4.48,4.48,0,0,0,2.62-4c.5-7.16,3.09-9.49,10.31-9.6,3.86-.06,7.73.17,11.57,0a46.28,46.28,0,0,0,6.49-1.23C144.59,70.39,144,66,143.4,61.7,142.5,55.34,141,49,142,42.55a39,39,0,0,1,1-4.6c1-3.63,3.31-6.07,7.13-6.51a7.47,7.47,0,0,0,6.24-4.52,13.25,13.25,0,0,1,7.06-6.58c4.53-1.79,7.79-.63,10,3.72a17.58,17.58,0,0,1,1.77,11.65c-.42,2.09-1,4.16-1.48,6.25a47.38,47.38,0,0,0-1.32,13.56c.21,3.45-.86,7-1.62,10.49-.69,3.17-1.72,6.26-2.63,9.48,2.46,1.45,4.76.83,7,.72,4-.2,8-.56,12-.82a24,24,0,0,1,3.42,0c5.74.46,6.84,1.3,7.64,7.11a7.41,7.41,0,0,0,4.44,6.12c6.74,3.5,13.2,7.57,18.45,13.11A168.53,168.53,0,0,1,232,115.28c2.69,3.5,5,7.26,7.46,10.76,5.3-.28,5.87,0,7.64,4.9.83,2.27,1.42,4.63,2.14,6.95.34,1.09.43,2.51,1.17,3.17,2.5,2.24,2.51,5.25,3.05,8.15a31.74,31.74,0,0,0,1.45,5.36,81.08,81.08,0,0,1,4.64,20.85C259.89,178.41,260.74,180.57,263.86,182Zm-1.15,6.77a3.28,3.28,0,0,0-1-4.19c-1.89-1.4-4-1.28-6.09-.57-1.7.58-1.77,1.89-1.48,3.46.42,2.2.62,4.45,1,7.38C258.53,193.22,261.46,192.07,262.71,188.81Zm-6.38,14.41a12.29,12.29,0,0,0-.6-3.06c-1.42.51-2.46.86-3.47,1.27-4.37,1.75-8.58,4.13-13.11,5.19-18,4.2-35.86,9.56-54.46,11.17-8.68.75-17.28,1.84-26,.33a108,108,0,0,0-17.88-1.76,159.88,159.88,0,0,1-26-1.84c-10-1.68-20-3.28-30-4.88a19.76,19.76,0,0,0-3,0v3.9c1.3.45,2.34.91,3.44,1.18,13.71,3.37,27.35,7.12,41.18,9.95,12.71,2.6,25.57,4.88,38.63,4.57,10.7-.25,21.39-1,32.08-1.66,17.65-1.1,34.57-5.67,51.33-11,4.36-1.38,7.08-3.83,7.08-8.73C255.52,206.3,256.2,204.78,256.33,203.22ZM253,173.35c2.07-.82,2.63-2.37,2.33-4.44a46.83,46.83,0,0,0-4.62-14.31c-24.41,10.16-48.81,19.61-74.3,25.84-.36,4.87.64,9.71-3.05,13.63,1-.13,2-.18,2.91-.4,21.48-5.14,43-10.2,64.42-15.53C245,177.08,248.93,175,253,173.35Zm-.35,8.16c3.31-1.43,3.32-1.49,2-5.22l-4,1.28c-5.43,1.76-10.79,3.75-16.29,5.25C222.77,186,211,188.95,199.25,192a288.35,288.35,0,0,1-34,6.88c-7.23,1-14.26-.28-21.33-1.06-9.17-1-18.36-1.66-27.29-4.75-10.5-3.63-21.37-6.2-32.09-9.17a22.17,22.17,0,0,0-3.75-.36c-.42,2.55-.76,4.61-1.12,6.87a15,15,0,0,0,2.46.84c17.06,2.72,34.1,5.52,51.18,8.06a206.67,206.67,0,0,0,27.76,1.94c9.21.12,18.2-.43,27.17-2.69,9.54-2.41,19.16-4.6,28.86-6.26A155.38,155.38,0,0,0,252.69,181.51Zm-.1,41.65.77-4.47c-6.8,1.7-13.28,3.41-19.8,4.92-9.58,2.22-19.17,4.41-28.8,6.4-12.53,2.59-25.34,1.21-38,2.51-9.73,1-19.35-.76-28.93-2.5C121,227,104.1,224.18,87.73,219c-1.46-.46-3-.66-5.06-1.11,1.24,4.17,1.83,5,5.41,6.16,7.72,2.56,15.38,5.4,23.26,7.3a133.52,133.52,0,0,0,23.2,3.75c15.82.94,31.69.94,47.52,1.65a149.71,149.71,0,0,0,41.62-4.16C233.52,230.23,243.42,228,252.59,223.16Zm-3.1-23.56c.94-.62,2.13-2,2-2.86-.34-3.56-.09-7.38-2.92-10.54l-5.56,2.43a5.19,5.19,0,0,0-.27,1.23c.48,3.78,1,7.55,1.57,11.94A32,32,0,0,0,249.49,199.59Zm-3.1,41.28c2.34-3.64,3-8,4.7-12.53-5.2,1.47-9.61,2.61-14,4-18.26,5.71-36.84,8.88-56.07,8-15.54-.73-31.1-1.09-46.65-1.63-2.14-.07-4.28-.22-6.4-.45-11.4-1.24-22.4-4.27-33.33-7.59-3.12-1-6.25-1.87-9.92-3-.05,4.11-.17,7.54,3.82,8.88,10,3.37,19.89,7.14,30.08,9.73,11.18,2.84,22.65,4.53,34,6.76,10.42,2,20.87,3.1,31.49,1.84,8.07-1,16.19-1.57,24.26-2.59a141.81,141.81,0,0,0,32.77-8C243.09,243.55,245.36,242.48,246.39,240.87Zm3.37-90.54c-2-2.91-3.74-1.31-5.25-.57-21.08,10.17-43.34,16.77-66,22.1-1.47.35-2.91.86-4.66,1.38l2,3.71a39.7,39.7,0,0,0,3.92-.79c11.87-3.61,23.74-7.22,35.58-10.91,3.95-1.24,7.75-2.94,11.72-4.07,7.07-2,13.52-5.35,20-8.7A18.87,18.87,0,0,0,249.76,150.32Zm-1.66-5.76-4.92-13.94c-2.29.89-3.75,1.42-5.19,2-8.44,3.47-16.87,7-25.33,10.42a36.82,36.82,0,0,1-7.26,2.53c-9.55,1.68-19.12,3.36-28.73,4.55-9.11,1.12-18.26.34-27.34-.82-14.43-1.84-28.88-3.55-42.93-7.65a50.06,50.06,0,0,0-8.84-1.47,8.67,8.67,0,0,0-7.81,2.69c-3,3.44-4.9,7.34-4.19,12,12.49,9.44,49,16.44,61,11,.14-1.6.2-3.31.43-5,.54-3.83,2.57-5.8,6.4-6.35,5.89-.85,8.88,1.29,10,7.16.08.42.06.86.15,1.27.86,3.78,3.31,6,7.17,6.16a29.63,29.63,0,0,0,7.21-.6,358.71,358.71,0,0,0,54.74-16.85C237.81,149.68,242.73,147.08,248.1,144.57ZM240,252.77a9.08,9.08,0,0,0,4.53-6.34c-3.45,1.24-6.34,2.43-9.33,3.31-14.14,4.17-28.65,6.5-43.25,8.36-18.22,2.33-36.16.8-53.94-3.57-8.44-2.08-17-3.77-25.47-5.62-.42-.09-.87,0-1.28-.11a48.12,48.12,0,0,1-7-1.88c-5.77-2.44-11.42-5.16-17.16-7.7a7.54,7.54,0,0,0-2.34-.23c0,.92-.42,2.16,0,2.7a10.71,10.71,0,0,0,3.6,2.93c11.93,5.55,24.17,10.27,37.29,12.14,5.08.72,10.33.64,15.28,1.86,12.4,3.06,24.83,5.24,37.67,4.74,10.11-.39,20.26-.17,30.24-2.39a52.18,52.18,0,0,1,6.34-.86C223.9,259.26,232.34,257.59,240,252.77Zm.93-50c-.64-4.26-1.24-8.25-1.9-12.69l-6.78,2.47c-.18,4.41.15,8.4,2.12,12.41Zm-9.94-70.91c2.08-.84,4.11-1.81,6.61-2.93-3.46-5.2-6.54-10.15-9.94-14.86a77.4,77.4,0,0,0-24.42-21.87c-3.87-2.23-7.86-3.3-12.29-1.68a15.2,15.2,0,0,1-3.79.61c-6.83.62-13.69,1-20.49,1.85-13.27,1.61-26.49,1.88-39.72-.49-4.55-.82-8.75.48-12.65,2.83-8.06,4.87-13.94,12.2-20.76,18.46-1,.93-1.55,2.38-2.34,3.56-4,5.92-7.79,12-12,17.72a50.61,50.61,0,0,0-6.89,14.22c2.2.35,3.87.7,5.56.87,3,.29,4-.19,4.84-2.93,2.3-7.3,8.85-12.81,19.85-10.17,3.89.93,7.7,2.29,11.63,2.92,13.11,2.1,26.24,4.11,39.39,5.87,13.72,1.84,27.35,1,40.94-1.6C207.26,141.88,219,136.7,230.93,131.88Zm-1,73.63c-.6-4.08-.76-7.84-2.16-11.3-5.49-.33-5.83,0-5.2,4.88.32,2.51.79,5,1.33,8.38Zm-7.58,58.62-.42-1c-3.57.52-7.21.79-10.71,1.62-16.23,3.84-32.62,3.41-48.94,1.44a518.21,518.21,0,0,1-55.42-9.52c.55.86.81,1.36,1.16,1.8a38.12,38.12,0,0,0,19.48,12.61c11.08,3.28,22.24,6.27,33.4,9.25a29.28,29.28,0,0,0,7.2.91,93,93,0,0,0,49.36-13.35A52.82,52.82,0,0,0,222.38,264.13Zm-2.65-56.38c.06-4.38.3-8.33-2.3-11.78l-6.2.83c-.19,4.58-.93,8.82.82,13.35ZM207,209.68c.73-3.58,1.52-7.33-.25-10.91-.18-.35-.59-.58-1-1l-3.53.81v12.63C204.24,211.55,206.5,212.1,207,209.68Zm-14.8,2.7c5.15.49,6-.07,5.8-4.11-.11-2.78-.56-5.55-.91-8.75l-5.71,1.8C191.65,205.21,191.91,208.7,192.18,212.38ZM194,84.79c.85-1.79-.18-2.89-1.93-3.92L188,86.79C190.95,87.33,192.92,87.09,194,84.79Zm-7.7,129.57c3.06-3.57,2.25-7.4,1.26-11.42-2.06-.42-3.41-.38-3.52,1.68C183.87,208,183.69,211.43,186.32,214.35Zm.11-132.11-.51-.75-7.09,1.09,4.45,4.16ZM180.66,214.6c.27-3.81.44-7.31-1.83-10.69l-3.67.82c-.25,3.62-.81,7,.76,10.53ZM178,88.6l.19-1.19L171.82,83l-3.56,7Zm-6.49,99.09c2.07-5,.89-9.52-2.72-13.44-.94-1-1.91-2.18-4-1.33,0,1.75,0,3.58,0,5.41,0,2,.07,4-.06,6-.4,6-5.25,9.35-11.06,7.74a9.2,9.2,0,0,1-1.48-.7c2.09-2.34,2.09-2.34,4.21-2.7,4-.68,4.23-1.18,4.65-5.25.79-7.52-2.18-14.66-2-22.11a2.83,2.83,0,0,0-.4-1.21,3.64,3.64,0,0,0-3.79-2.22,3.07,3.07,0,0,0-3,2.59,12,12,0,0,0-.12,4.23c.45,3,1.18,5.87,1.71,8.82a18.52,18.52,0,0,1,.48,4.64c-.18,2.35-1.91,3.78-4.29,4-2.74.23-3.66-.48-4.56-3.71l3.94-.5c1.61-5.69-2.52-9.58-8.31-6.57-4.08,2.11-7.33,4.9-9,9.31-1.31,3.51-.82,5.49,2.15,7.91a23.23,23.23,0,0,0,10.46,4.63c2.52.5,5,1.22,7.51,1.69s5.08,1.23,7.56,1C164.88,195.54,169.28,192.95,171.46,187.69Zm-1,112.7.91-.22c-.64-4.34-1.22-8.68-1.95-13-.3-1.81-1.42-2.59-3.65-1.91A33.88,33.88,0,0,0,170.49,300.39Zm.82-85.23c0-2,.06-4.14,0-6.23-.15-4.11-.76-4.49-5.29-3.07,0,1.68,0,3.49,0,5.3C166.13,215.21,166.54,215.53,171.31,215.16Zm-.43-180.74c.66-2.72.73-5.67-1.75-7.46s-5.22-.1-7.54,1.13c-2.6,1.38-2.9,3.05-.69,5,2.72,2.46,3.33,5.49,3.38,8.85a14,14,0,0,0,.15,3.4A10,10,0,0,0,166,47.86l1.36-.37C168.55,43.13,169.82,38.8,170.88,34.42ZM167.6,61.07a19,19,0,0,0-.15-6.8c-.43-2.58-2-3.26-4.41-2.36a8.26,8.26,0,0,0-5.3,6.29c-1.09,4.87-2,9.79-2.8,14.71a32.66,32.66,0,0,0,0,5.16h8.57C164.93,72.15,166.47,66.65,167.6,61.07ZM167,83.65l-3.74-.23C164.31,84.75,165,85.73,167,83.65Zm-5.63,131.51c3.33-7.81,1.33-10.93-6.46-10.6a20.76,20.76,0,0,0-3,.57l-1,8.51Zm1.28-124.67c-1-3.78-3.28-5.53-5.69-7.12-3.71,2.64-4.21,3.39-5.08,7.69ZM159.51,48.4c2.3-2.83,1.33-6.35.4-9.47-.78-2.6-3.56-2.48-5.68-3.15a8,8,0,0,0-1.68-.33c-2.94-.25-4.83.76-5.37,3.65a41.37,41.37,0,0,0-1,11c.52,5.93,1.81,11.8,2.86,18.17.85-.79,1.16-.94,1.24-1.16C152.46,60.38,155,54,159.51,48.4ZM147.69,87.57l4.09-5.39-8.15-.84Zm-.55,123.5c.38-1.91.51-3.87.82-6.43l-5.42-.4a40.47,40.47,0,0,0-.32,6.37,3.41,3.41,0,0,0,2,2.23A2.16,2.16,0,0,0,147.14,211.08ZM144.44,90l-4.9-7.41a9.53,9.53,0,0,0-5.06,7.26A11.4,11.4,0,0,0,144.44,90ZM128.08,212.33c9.52,2.08,11.57.27,10.15-8.44a13.19,13.19,0,0,0-9.4-.81C128.59,206,128.34,209.08,128.08,212.33Zm3.45-126.28,2.52-5.22c-2.65-.17-4.61-.3-6.58-.4-.25,0-.51.2-1.14.47C127.06,83.46,128.26,85.4,131.53,86.06Zm-4.62,89c2.07.33,4,.15,4.43-2.9-15.53-3.88-31.42-5.54-46.21-11.69l-.52,1.39,5.84,3.11C101.86,171,114.39,173,126.91,175Zm2.81,16.35c-3.13-3.85-3.11-7.91-1.95-12.52-7.9-1.69-15.36-3-22.63-4.93s-14.27-4.65-21.53-7.05a17,17,0,0,0-1.56,10.49c12.84,4.16,25.55,8.37,38.34,12.36C123.39,190.67,126.61,190.86,129.72,191.38ZM126.26,87.25l-3.61-3.7C121.22,88,121.64,88.44,126.26,87.25Zm-2.54,124.08c1.27-1.59,1.87-7.64.81-9-1.8-2.35-4.26-1.54-7.12-1.18v10.51C119.64,212,121.78,213.74,123.71,211.32Zm-11.25-.53c1.12-3.52,2.57-6.81.1-9.64s-5.63-1.9-8.88-.88c-.38,2.94-.76,5.85-1.24,9.52Zm-12.78-10c.07-2.09-1.18-2.9-3.78-3.16-1.83-.18-3.2,0-3.93,2.22-1.9,5.77-.71,7.83,5.38,8.6a10.43,10.43,0,0,0,1.26-.17A64.27,64.27,0,0,0,99.68,200.84Zm3.79,59.93c-2.7-3.92-4.17-4.51-8.89-3.1C85,260.53,75.52,263.51,66,266.52c-2.42.76-4.79,1.75-6.56,4.08,1.42,2.1,2.94,1.31,4.44.91,8.53-2.26,17.08-4.47,25.61-6.76C94.14,263.51,98.74,262.13,103.46,260.77Zm-16.63-55c1-4.2.92-6.41-.13-9.57H81.51C78.2,203.06,79,204.58,86.83,205.78Zm-5.94-48.53a19,19,0,0,0,0-3.25H69.8a25.89,25.89,0,0,1-.26,5.2c-2,8-2.06,16.08-1.37,24.24.36,4.23.3,4.39,4.39,5.62a30,30,0,0,0,3.34.6c.53-4.72.87-9.12,1.56-13.45C78.48,169.85,79.78,163.56,80.89,157.24Zm-2.5,64.27a56.83,56.83,0,0,0-1.14-10.11c-.8-3.9-1.18-4.06-6.23-3.69A34.43,34.43,0,0,0,78.39,221.52ZM75.9,204.07v-10L69,192.75c-.62,3.15-1.13,5.74-1.69,8.6ZM65.8,137c5.92-.69,10.3-2.81,12.61-9.61-11.36,5.27-22.79,8.4-33.3,14a27.17,27.17,0,0,0,7.55-.77C57.06,139.46,61.34,137.51,65.8,137Zm-1.55,24.29,4.17-13.34C64.11,150.68,62.27,157.3,64.25,161.28Zm-.56,37.64,1.59-7.34c-7-2.64-7.9-1.93-7,5.29C59.89,197.6,61.35,199.06,63.68,198.92Z"/><path class="cls-1" d="M261.7,184.62a3.28,3.28,0,0,1,1,4.19c-1.25,3.26-4.18,4.41-7.58,6.09-.39-2.93-.59-5.18-1-7.38-.3-1.57-.23-2.88,1.48-3.46C257.7,183.34,259.8,183.22,261.7,184.62Z"/><path class="cls-2" d="M255.73,200.17a12.29,12.29,0,0,1,.6,3.06c-.13,1.55-.81,3.08-.81,4.62,0,4.9-2.72,7.35-7.08,8.73-16.77,5.3-33.69,9.87-51.33,11-10.69.67-21.38,1.41-32.08,1.66-13.06.31-25.92-2-38.63-4.57-13.83-2.83-27.46-6.58-41.18-9.95-1.1-.27-2.14-.73-3.44-1.18v-3.9a19.76,19.76,0,0,1,3,0c10,1.6,20,3.2,30,4.88a159.88,159.88,0,0,0,26,1.84,108,108,0,0,1,17.88,1.76c8.75,1.51,17.35.42,26-.33,18.6-1.61,36.41-7,54.46-11.17,4.53-1.06,8.74-3.43,13.11-5.19C253.27,201,254.31,200.68,255.73,200.17Z"/><path class="cls-2" d="M255.36,168.91c.3,2.08-.26,3.63-2.33,4.44-4.1,1.61-8.07,3.73-12.31,4.78-21.44,5.33-42.94,10.39-64.42,15.53-.95.23-1.94.27-2.91.4,3.69-3.91,2.69-8.75,3.05-13.63,25.49-6.24,49.89-15.68,74.3-25.84A46.83,46.83,0,0,1,255.36,168.91Z"/><path class="cls-1" d="M254.73,176.29c1.27,3.73,1.26,3.79-2,5.22a155.38,155.38,0,0,1-35.57,10.76c-9.7,1.66-19.32,3.85-28.86,6.26-9,2.26-18,2.81-27.17,2.69a206.67,206.67,0,0,1-27.76-1.94c-17.08-2.54-34.12-5.34-51.18-8.06a15,15,0,0,1-2.46-.84c.37-2.26.7-4.32,1.12-6.87a22.17,22.17,0,0,1,3.75.36c10.72,3,21.6,5.54,32.09,9.17,8.93,3.09,18.12,3.75,27.29,4.75,7.07.78,14.09,2,21.33,1.06a288.35,288.35,0,0,0,34-6.88c11.75-3,23.52-6,35.23-9.17,5.5-1.5,10.87-3.48,16.29-5.25Z"/><path class="cls-1" d="M253.36,218.69l-.77,4.47c-9.17,4.89-19.07,7.08-28.91,9.42a149.71,149.71,0,0,1-41.62,4.16c-15.83-.71-31.71-.7-47.52-1.65a133.52,133.52,0,0,1-23.2-3.75c-7.88-1.9-15.54-4.74-23.26-7.3-3.58-1.19-4.17-2-5.41-6.16,2.06.44,3.6.64,5.06,1.11,16.37,5.2,33.27,8,50.12,11.06,9.58,1.73,19.2,3.5,28.93,2.5,12.64-1.31,25.46.07,38-2.51,9.63-2,19.22-4.18,28.8-6.4C240.08,222.1,246.56,220.39,253.36,218.69Z"/><path class="cls-2" d="M251.54,196.73c.09.91-1.1,2.24-2,2.86a32,32,0,0,1-5.13,2.2c-.58-4.39-1.09-8.16-1.57-11.94a5.19,5.19,0,0,1,.27-1.23l5.56-2.43C251.44,189.35,251.19,193.17,251.54,196.73Z"/><path class="cls-2" d="M251.09,228.34c-1.73,4.5-2.36,8.89-4.7,12.53-1,1.61-3.3,2.68-5.23,3.41a141.81,141.81,0,0,1-32.77,8c-8.07,1-16.19,1.63-24.26,2.59-10.62,1.27-21.08.21-31.49-1.84-11.33-2.23-22.81-3.91-34-6.76-10.19-2.59-20.09-6.37-30.08-9.73-4-1.34-3.87-4.77-3.82-8.88,3.67,1.09,6.8,2,9.92,3,10.93,3.32,21.93,6.34,33.33,7.59,2.12.23,4.26.38,6.4.45,15.55.55,31.11.9,46.65,1.63,19.22.91,37.81-2.27,56.07-8C241.47,231,245.89,229.81,251.09,228.34Z"/><path class="cls-1" d="M244.51,149.75c1.51-.73,3.26-2.34,5.25.57a18.87,18.87,0,0,1-2.75,2.16c-6.47,3.35-12.91,6.7-20,8.7-4,1.12-7.77,2.83-11.72,4.07-11.84,3.7-23.71,7.31-35.58,10.91a39.7,39.7,0,0,1-3.92.79l-2-3.71c1.75-.52,3.19-1,4.66-1.38C201.17,166.52,223.43,159.92,244.51,149.75Z"/><path class="cls-2" d="M243.18,130.63l4.92,13.94c-5.38,2.51-10.29,5.12-15.43,7.14a358.71,358.71,0,0,1-54.74,16.85,29.63,29.63,0,0,1-7.21.6c-3.86-.13-6.31-2.39-7.17-6.16-.09-.42-.07-.86-.15-1.27-1.12-5.88-4.1-8-10-7.16-3.83.55-5.86,2.52-6.4,6.35-.24,1.68-.3,3.39-.43,5-12.05,5.46-48.53-1.54-61-11-.71-4.68,1.21-8.58,4.19-12a8.67,8.67,0,0,1,7.81-2.69,50.06,50.06,0,0,1,8.84,1.47c14,4.1,28.49,5.81,42.93,7.65,9.08,1.16,18.23,1.93,27.34.82,9.62-1.18,19.18-2.87,28.73-4.55a36.82,36.82,0,0,0,7.26-2.53c8.46-3.44,16.89-6.95,25.33-10.42C239.43,132,240.89,131.52,243.18,130.63Z"/><path class="cls-1" d="M244.48,246.44a9.08,9.08,0,0,1-4.53,6.34c-7.61,4.81-16.05,6.48-24.79,7.34a52.18,52.18,0,0,0-6.34.86c-10,2.23-20.12,2-30.24,2.39-12.83.5-25.27-1.67-37.67-4.74-4.94-1.22-10.19-1.14-15.28-1.86-13.13-1.87-25.36-6.59-37.29-12.14a10.71,10.71,0,0,1-3.6-2.93c-.44-.54,0-1.78,0-2.7a7.54,7.54,0,0,1,2.34.23c5.73,2.54,11.39,5.26,17.16,7.7a48.12,48.12,0,0,0,7,1.88c.41.1.86,0,1.28.11,8.49,1.85,17,3.55,25.47,5.62,17.79,4.38,35.73,5.9,53.94,3.57,14.59-1.86,29.1-4.19,43.25-8.36C238.14,248.87,241,247.67,244.48,246.44Z"/><path class="cls-1" d="M239,190.1c.66,4.44,1.26,8.43,1.9,12.69L234.32,205c-2-4-2.3-8-2.12-12.41Z"/><path class="cls-3" d="M237.54,129c-2.5,1.12-4.53,2.09-6.61,2.93-11.9,4.82-23.67,10-36.43,12.39-13.59,2.55-27.23,3.44-40.94,1.6-13.16-1.77-26.29-3.77-39.39-5.87-3.93-.63-7.74-2-11.63-2.92-11-2.64-17.55,2.87-19.85,10.17-.86,2.73-1.89,3.22-4.84,2.93-1.69-.17-3.36-.52-5.56-.87a50.61,50.61,0,0,1,6.89-14.22c4.19-5.77,8-11.8,12-17.72.79-1.18,1.32-2.63,2.34-3.56,6.83-6.26,12.7-13.59,20.76-18.46,3.9-2.35,8.1-3.65,12.65-2.83,13.22,2.37,26.44,2.11,39.72.49,6.8-.83,13.66-1.23,20.49-1.85a15.2,15.2,0,0,0,3.79-.61c4.43-1.62,8.42-.55,12.29,1.68a77.4,77.4,0,0,1,24.42,21.87C231,118.81,234.08,123.76,237.54,129ZM107.82,110c-.42-.36-1-1.19-1.38-1.11a59.28,59.28,0,0,0-7.25,1.86c-.32.11-.61,1.71-.29,2.15,1.51,2,3.36.45,5,.07S107.34,112.39,107.82,110ZM101.9,122.3l-.1-1.23c-1.07-.55-2.13-1.52-3.21-1.54A5.83,5.83,0,0,0,95.42,121a1.93,1.93,0,0,0,0,1.85c1,.69,2.2,1.56,3.21,1.43S100.81,123,101.9,122.3Z"/><path class="cls-2" d="M227.8,194.22c1.4,3.45,1.56,7.22,2.16,11.3l-6,2c-.54-3.38-1-5.87-1.33-8.38C222,194.2,222.31,193.89,227.8,194.22Z"/><path class="cls-3" d="M222,263.12l.42,1a52.82,52.82,0,0,1-4.9,3.74,93,93,0,0,1-49.36,13.35,29.28,29.28,0,0,1-7.2-.91c-11.16-3-22.32-6-33.4-9.25A38.12,38.12,0,0,1,108,258.46c-.35-.43-.6-.94-1.16-1.8a518.21,518.21,0,0,0,55.42,9.52c16.33,2,32.72,2.4,48.94-1.44C214.76,263.91,218.39,263.65,222,263.12Z"/><path class="cls-1" d="M217.43,196c2.6,3.46,2.36,7.4,2.3,11.78l-7.68,2.39c-1.75-4.53-1-8.76-.82-13.35Z"/><path class="cls-2" d="M206.73,198.78c1.77,3.58,1,7.33.25,10.91-.48,2.42-2.74,1.87-4.81,1.52V198.58l3.53-.81C206.14,198.19,206.55,198.42,206.73,198.78Z"/><path class="cls-1" d="M198,208.27c.15,4-.65,4.61-5.8,4.11-.27-3.69-.54-7.17-.82-11.06l5.71-1.8C197.42,202.72,197.87,205.49,198,208.27Z"/><path class="cls-1" d="M192.09,80.86c1.75,1,2.78,2.13,1.93,3.92-1.09,2.31-3.07,2.55-6,2Z"/><path class="cls-2" d="M187.58,202.93c1,4,1.8,7.85-1.26,11.42-2.63-2.92-2.45-6.34-2.26-9.74C184.17,202.55,185.52,202.51,187.58,202.93Z"/><path class="cls-2" d="M185.92,81.49l.51.75-3.14,4.5-4.45-4.16Z"/><path class="cls-1" d="M178.84,203.9c2.27,3.38,2.1,6.89,1.83,10.69l-4.74.66c-1.57-3.56-1-6.91-.76-10.53Z"/><path class="cls-1" d="M178.14,87.41,178,88.6l-9.7,1.35,3.56-7Z"/><path class="cls-3" d="M168.74,174.25c3.61,3.92,4.79,8.46,2.72,13.44-2.18,5.26-6.58,7.84-12,8.25-2.48.18-5.06-.57-7.56-1s-5-1.2-7.51-1.69a23.23,23.23,0,0,1-10.46-4.63c-3-2.42-3.47-4.4-2.15-7.91,1.65-4.41,4.9-7.2,9-9.31,5.8-3,9.92.88,8.31,6.57l-3.94.5c.9,3.23,1.81,3.94,4.56,3.71,2.38-.2,4.11-1.63,4.29-4a18.52,18.52,0,0,0-.48-4.64c-.53-3-1.26-5.86-1.71-8.82a12,12,0,0,1,.12-4.23,3.07,3.07,0,0,1,3-2.59,3.64,3.64,0,0,1,3.79,2.22,2.83,2.83,0,0,1,.4,1.21c-.23,7.45,2.74,14.59,2,22.11-.42,4.07-.65,4.57-4.65,5.25-2.12.36-2.12.36-4.21,2.7a9.2,9.2,0,0,0,1.48.7c5.82,1.61,10.66-1.77,11.06-7.74.13-2,0-4,.06-6,0-1.82,0-3.65,0-5.41C166.82,172.07,167.79,173.23,168.74,174.25Z"/><path class="cls-4" d="M171.4,300.17l-.91.22a33.88,33.88,0,0,1-4.69-15.13c2.22-.68,3.34.09,3.65,1.91C170.17,291.49,170.76,295.84,171.4,300.17Z"/><path class="cls-2" d="M171.3,208.93c.08,2.08,0,4.18,0,6.23-4.77.37-5.18,0-5.29-4,0-1.81,0-3.63,0-5.3C170.54,204.44,171.15,204.82,171.3,208.93Z"/><path class="cls-5" d="M169.13,27c2.48,1.8,2.41,4.75,1.75,7.46-1.06,4.38-2.33,8.72-3.51,13.08l-1.36.37a10,10,0,0,1-1.57-2.49,14,14,0,0,1-.15-3.4c-.06-3.36-.66-6.38-3.38-8.85-2.21-2-1.92-3.67.69-5C163.92,26.85,166.54,25.07,169.13,27Z"/><path class="cls-5" d="M167.45,54.28a19,19,0,0,1,.15,6.8c-1.13,5.58-2.66,11.08-4.14,17h-8.57a32.66,32.66,0,0,1,0-5.16c.82-4.92,1.72-9.84,2.8-14.71a8.26,8.26,0,0,1,5.3-6.29C165.48,51,167,51.69,167.45,54.28Z"/><path class="cls-3" d="M163.25,83.42l3.74.23C165,85.73,164.31,84.75,163.25,83.42Z"/><path class="cls-1" d="M154.9,204.56c7.79-.33,9.79,2.79,6.46,10.6l-10.43-1.52,1-8.51A20.76,20.76,0,0,1,154.9,204.56Z"/><path class="cls-1" d="M156.95,83.37c2.41,1.59,4.69,3.34,5.69,7.12l-10.77.57C152.74,86.76,153.24,86,156.95,83.37Z"/><path class="cls-5" d="M159.91,38.93c.94,3.12,1.9,6.65-.4,9.47-4.53,5.56-7.06,12-9.18,18.67-.07.23-.39.38-1.24,1.16-1-6.37-2.34-12.24-2.86-18.17a41.37,41.37,0,0,1,1-11c.54-2.89,2.43-3.9,5.37-3.65a8,8,0,0,1,1.68.33C156.35,36.45,159.14,36.33,159.91,38.93Z"/><path class="cls-2" d="M151.79,82.19l-4.09,5.39-4.06-6.23Z"/><path class="cls-2" d="M148,204.64c-.31,2.56-.44,4.52-.82,6.43a2.16,2.16,0,0,1-2.89,1.76,3.41,3.41,0,0,1-2-2.23,40.47,40.47,0,0,1,.32-6.37Z"/><path class="cls-1" d="M139.54,82.55l4.9,7.41a11.4,11.4,0,0,1-10-.15A9.53,9.53,0,0,1,139.54,82.55Z"/><path class="cls-1" d="M138.23,203.89c1.42,8.71-.63,10.52-10.15,8.44.26-3.26.51-6.3.75-9.25A13.19,13.19,0,0,1,138.23,203.89Z"/><path class="cls-2" d="M134.06,80.84l-2.52,5.22c-3.28-.65-4.48-2.6-5.2-5.15.63-.27.89-.48,1.14-.47C129.44,80.53,131.41,80.67,134.06,80.84Z"/><path class="cls-1" d="M131.34,172.13c-.46,3.05-2.36,3.23-4.43,2.9-12.52-2-25-4-36.46-10.08l-5.84-3.11.52-1.39C99.92,166.59,115.81,168.25,131.34,172.13Z"/><path class="cls-2" d="M127.77,178.87c-1.16,4.61-1.18,8.67,1.95,12.52-3.11-.53-6.33-.71-9.32-1.65-12.78-4-25.5-8.2-38.34-12.36a17,17,0,0,1,1.56-10.49c7.26,2.41,14.3,5.08,21.53,7.05S119.87,177.17,127.77,178.87Z"/><path class="cls-1" d="M122.65,83.55l3.61,3.7C121.64,88.44,121.22,88,122.65,83.55Z"/><path class="cls-2" d="M124.52,202.31c1.06,1.37.46,7.43-.81,9-1.93,2.42-4.07.71-6.31.32V201.13C120.27,200.77,122.73,200,124.52,202.31Z"/><path class="cls-1" d="M112.56,201.15c2.48,2.83,1,6.12-.1,9.64l-10-1c.48-3.68.86-6.59,1.24-9.52C106.93,199.26,110.19,198.44,112.56,201.15Z"/><path d="M106.44,108.84c.39-.08,1,.76,1.38,1.11-.48,2.44-2.4,2.62-3.93,3s-3.48,2-5-.07c-.33-.44,0-2,.29-2.15A59.28,59.28,0,0,1,106.44,108.84Z"/><path d="M101.8,121.07l.1,1.23c-1.09.71-2.13,1.85-3.29,2s-2.25-.75-3.21-1.43a1.93,1.93,0,0,1,0-1.85,5.83,5.83,0,0,1,3.17-1.49C99.67,119.55,100.73,120.52,101.8,121.07Z"/><path class="cls-2" d="M95.89,197.68c2.61.26,3.85,1.07,3.78,3.16a64.27,64.27,0,0,1-1.08,7.49,10.43,10.43,0,0,1-1.26.17c-6.09-.77-7.28-2.83-5.38-8.6C92.69,197.69,94.07,197.5,95.89,197.68Z"/><path class="cls-4" d="M94.57,257.67c4.72-1.41,6.19-.82,8.89,3.1-4.73,1.36-9.33,2.74-14,4-8.53,2.3-17.08,4.5-25.61,6.76-1.51.4-3,1.19-4.44-.91,1.78-2.33,4.15-3.32,6.56-4.08C75.52,263.51,85,260.53,94.57,257.67Z"/><path class="cls-1" d="M86.7,196.21c1.05,3.16,1.09,5.38.13,9.57-7.81-1.2-8.64-2.72-5.32-9.57Z"/><path class="cls-3" d="M80.92,154a19,19,0,0,1,0,3.25c-1.12,6.32-2.42,12.61-3.43,18.94-.69,4.34-1,8.73-1.56,13.45a30,30,0,0,1-3.34-.6c-4.08-1.23-4-1.38-4.39-5.62-.69-8.16-.64-16.23,1.37-24.24a25.89,25.89,0,0,0,.26-5.2Z"/><path class="cls-3" d="M77.25,211.41a56.83,56.83,0,0,1,1.14,10.11A34.43,34.43,0,0,1,71,207.72C76.08,207.35,76.46,207.51,77.25,211.41Z"/><path class="cls-2" d="M75.9,194.08v10l-8.59-2.72c.56-2.85,1.07-5.44,1.69-8.6Z"/><path class="cls-4" d="M78.41,127.38c-2.32,6.81-6.69,8.92-12.61,9.61-4.46.52-8.73,2.47-13.14,3.59a27.17,27.17,0,0,1-7.55.77C55.62,135.78,67.05,132.64,78.41,127.38Z"/><path class="cls-2" d="M68.42,147.94l-4.17,13.34C62.27,157.3,64.11,150.68,68.42,147.94Z"/><path class="cls-1" d="M65.27,191.58l-1.59,7.34c-2.33.14-3.8-1.32-5.44-2.05C57.37,189.65,58.25,188.94,65.27,191.58Z"/></svg>