<svg id="圖層_1" data-name="圖層 1" xmlns="http://www.w3.org/2000/svg" viewBox="0 0 287.81 324.7"><defs><style>.cls-1{fill:#fff;}.cls-2{fill:#b8b7b7;}.cls-3{fill:#4f5654;}.cls-4{fill:#1d7052;}.cls-5{fill:#ddae1d;}.cls-6{fill:#cf543f;}</style></defs><title>chks</title><path d="M261.53,141.26c1.91,1.5,3.24,3.3,3,6.09-.22,2.4.22,4.81-.78,7.2a7,7,0,0,1-3.44,3.77A2.36,2.36,0,0,0,259.1,160c.19,6.66.62,13.31.74,20,.12,5.85,0,11.7-.14,17.55-.08,3.64-.39,7.28-.59,10.93-.14,2.59-1.17,5.36-3.2,6.28-2.79,1.27-6.17,1.44-9.33,1.63-1.3.08-2.64-1.16-4-1.47a32.67,32.67,0,0,0-5.73-.62c-.37,0-.9.8-1.16,1.33-2.72,5.6-5.47,11.18-8.07,16.83-1.33,2.9-2.34,5.94-3.6,8.88-.54,1.24-1.36,2.36-2,3.56-2.36,4.2-3,8.87-3.59,13.54-.63,5.4-.78,10.87-1.75,16.2-1.12,6.17-5,10.42-10.64,13.3a29.45,29.45,0,0,1-11.18,3.54c-6,.48-11.93,1.2-17.89,1.88-5.71.65-11.39,1.49-17.11,2-2.47.24-5-.14-7.49-.07-4.75.13-9.49.42-14.24.54a15.7,15.7,0,0,1-4.09-.46,104.39,104.39,0,0,0-19.31-2.42c-5.15-.27-10.34-.17-15.42-.88a39.3,39.3,0,0,1-17.89-7.51c-5.48-4-7.46-9.71-7.55-16.15-.06-3.89.74-7.8.59-11.68s-.39-7.92-1.74-11.45c-2.34-6.07-5.59-11.78-8.42-17.66-.67-1.4-1.13-2.9-1.79-4.31-1.87-4-3.69-8-5.77-11.86-.43-.8-1.91-1-2.92-1.54-.28.47-.34.51-.34.57-.42,6.38-1.46,5.16-6,6.14-1.71.36-3.47.5-5.22.71a4.29,4.29,0,0,1-5-4.28c-.2-4.15-.19-8.31-.47-12.45-.29-4.49-1-9-1.19-13.46s-.11-8.72,0-13.08c0-1.83.39-3.67.42-5.51,0-.38-.76-1-1.26-1.12-6.26-1.1-8.63-6.76-8.37-11.54.14-2.67,1.33-5.33,2.24-7.92,1-2.92,3-5.25,4.94-7.62a6,6,0,0,0,1-3.3c.51-9.09,1-18.18,1.33-27.27.1-2.56-.3-5.15-.46-7.72a11.78,11.78,0,0,1,2-8A3.26,3.26,0,0,1,39.09,93c2.51-.52,5.06-.89,7.9-1.37,0-.61,0-1.4,0-2.19-.4-12.45-.85-24.9-1.17-37.36-.09-3.3-.51-6.73,1.21-9.79a32.62,32.62,0,0,1,3.3-4.78,3.66,3.66,0,0,1,2.28-1.13,44.57,44.57,0,0,1,6.59-.18c2.59.15,3.94,1.51,4.66,4,2.19,7.76,1.85,15.71,1.85,23.64v7.69l7.58-5.81c.1-.08.17-.2.28-.26,6.78-3.78,12.38-9.68,20.09-11.72,8.51-2.25,17.13-4.07,25.7-6.11,3.78-.9,7.51-2,11.32-2.77,4.67-.9,9.39-1.66,14.12-2.17a77.12,77.12,0,0,1,12.65-.58c6.25.37,12.49,1.17,18.69,2.11,2.43.36,4.76,1.54,7.11,2.4q5.39,2,10.74,4.07c3.91,1.51,7.77,3.18,11.73,4.56,6.8,2.38,13.67,4.57,20.49,6.89,1.24.42,2.39,1.09,3.62,1.57a8.62,8.62,0,0,0,1.67.33c0-4-.21-7.76.05-11.49.39-5.57,1.11-11.12,1.73-16.68.27-2.47,3.08-4.56,5.46-3.94a42.56,42.56,0,0,1,6.2,2.12,2.7,2.7,0,0,1,1.37,2c0,3.5-.17,7-.26,10.5-.06,2.26-.71,4.76,0,6.72a19.66,19.66,0,0,1,.92,5.57c.51,5.77-.54,11.37-1.78,17a16.35,16.35,0,0,0,0,4.14c.19,4.58.47,9.16.56,13.74,0,1.66.77,2.1,2.1,1.68a4.67,4.67,0,0,1,4.29.7,36.62,36.62,0,0,1,5.75,4.16c2.21,2.26,1.93,5.48,2.25,8.38,1.09,9.92.7,19.86.15,29.79A3,3,0,0,0,261.53,141.26Zm-.35,8.71c.65-2.53.81-4.89-2.18-6.76-2.32-1.45-4.48-3-7.18-3.46-5.12-.86-10.27-1.7-15.43-2.21a2.37,2.37,0,0,1-2.48-2.33c-.65-5.55-1.17-11.12-1.67-16.69-.14-1.49,0-3-.09-4.5-.22-4-.52-8-.73-12a28.32,28.32,0,0,0-7.07-17.08,37.66,37.66,0,0,0-7.86-6.67,62.7,62.7,0,0,0-24.85-10.33c-6.77-1.12-13.55-2.2-20.34-3.13s-13.83-2.16-20.78-2.41c-6.24-.23-12.52.62-18.78,1.1-4.64.37-9.3.73-13.9,1.43-7,1.07-14.2.31-21,3.46-4.67,2.17-9.49,3.94-12.69,8.11A118.91,118.91,0,0,0,75.3,89.56c-3.33,5.81-6.16,11.9-9.15,17.9a25.3,25.3,0,0,0-1.77,4.36,58.32,58.32,0,0,0-2.3,15.62,18.12,18.12,0,0,1-.79,6.45c-1.09,2.78-2.88,5.44-6,6.3-3.32.9-6.84.78-10.1,2.36C42.27,144,39,144.68,36,145.71s-4.55,3.43-5.26,6.39c-.26,1.09-.18,2.26-.38,3.37a4.84,4.84,0,0,0,3,5.72c3.66,1.57,7.43,2.37,11.52,1.26,8.19-2.22,10.76-2.29,16.13,5.55.81,1.18.83,2.88,1.46,4.22,3.16,6.76,3.62,14.05,4.41,20.89-.61,4.67,1.37,8.23,3.07,11.89.39.85.67,1.75,1,2.62a85,85,0,0,0,3.63,9.12c1.21,2.3,3.22,4.16,4.73,6.31,4.11,5.88,10,9.74,16.18,12.65s13.32,4.58,20.06,6.69a52,52,0,0,0,16.71,2.25c3-.06,2.84-.09,3.13-3a25.6,25.6,0,0,1,1.55-6.91c1.76-4.4,3.86-8.67,5.83-13,.69-1.51,2.06-1.69,3-.24a37,37,0,0,1,3.52,6.15c2.23,5.48,4.43,11,3.11,17.19-.06.29.78,1.12,1.13,1.08,4.56-.51,9.13-1,13.64-1.77a106.26,106.26,0,0,0,12.1-2.87c6.12-1.85,12.24-3.82,17.65-7.4a101.23,101.23,0,0,0,11.53-8.7A70.36,70.36,0,0,0,221.77,209c1.6-2.62,3.08-5.32,4.79-7.86a36.33,36.33,0,0,0,5.89-13.11,102.88,102.88,0,0,0,1.35-14.21c.19-3.31-.26-6.67,0-10,.14-1.59,1-3.66,2.17-4.48,1.61-1.09,3.88-1.32,5.91-1.67,4.51-.76,9.08-1.21,13.57-2.08A7.3,7.3,0,0,0,261.18,150Zm-3.8-11.91c.14-2,.48-4.4.42-6.76-.14-6.34-.44-12.67-.71-19a67.92,67.92,0,0,0-.56-8.24c-.6-3.56-2.51-4.72-6-4.21a5,5,0,0,1-1.86.1c-1.62-.42-2,.42-2.07,1.77-.13,3.8-.43,7.6-.38,11.4.11,7.16.45,14.31.6,21.47,0,1.3.51,1.47,1.64,1.65C251.32,136.69,254.16,137.38,257.38,138.06Zm-1,52.18c0-9.74,0-19.48,0-29.31-2.64,0-4.87.07-7.1,0-1.71-.07-2.59.53-2.63,2.3,0,1.25-.28,2.5-.28,3.75,0,4.9.27,9.82-.05,14.69-.37,5.54.79,11-.22,16.62-.59,3.27.4,6.85.75,10.28.39,3.85,1.07,4.35,5,3.57a9,9,0,0,0,2.62-1,2.5,2.5,0,0,0,1.1-1.41,21.46,21.46,0,0,0,.62-4.26Q256.35,197.85,256.38,190.25Zm-12-133.75c0-2.72-.38-5.44-.45-8.16-.08-3,.28-6-.11-9a6.25,6.25,0,0,0-2.59-4,4,4,0,0,0-4.88.66c-.34.33-.77.76-.81,1.16-.44,5.18-1,10.37-1.16,15.56-.19,5.75,0,11.52,0,17.28l.39,0a41.27,41.27,0,0,0-.46,4.85,3.57,3.57,0,0,0,1,2.42c1.32,1.16,4.71.89,6.09-.21,2.09-1.66,2.34-4.17,2.54-6.45C244.27,65.92,244.33,61.2,244.36,56.5Zm-.48,137.2c.16-7.65.11-15.31.08-23,0-3-.23-6.09-.37-9.37l-6.08.89c0,4.22.1,8.11,0,12a90.47,90.47,0,0,1-.8,9.75c-.51,3.57-.53,7.24-2.4,10.58a14.89,14.89,0,0,0-2,9.06,2.71,2.71,0,0,1-.15,1.11c-.89,2.81.26,4.95,3.19,5.2a33.77,33.77,0,0,0,6.72-.4c.38,0,.91-.88.95-1.39C243.35,203.34,243.78,198.52,243.88,193.7Zm-.63-57.88c.52-1.94-.49-53.62-1-55.59-2.62.71-5.29,2.14-8.06-.53.12,1.58.22,2.56.27,3.55q.48,10,.95,19.94c0,.57,0,1.13,0,1.69.07,5.91.06,11.82.24,17.72.11,3.61.5,7.21.84,10.81a1.53,1.53,0,0,0,.78,1.13C239.26,135,241.27,135.42,243.25,135.82ZM231.49,70.68a.18.18,0,0,0-.05-.11c-2.51-1-4.95-2.09-7.43-3.06-5.63-2.22-11.28-4.39-16.93-6.59-.92-.36-1.82-.76-2.76-1-2.93-.89-5.88-1.69-8.8-2.59-9.53-2.93-18.72-7-28.85-7.81-3.08-.24-6.06-1.49-9.14-1.87-8.12-1-16.12.4-24.12,1.59-2.42.36-4.82.84-7.24,1.17-3.73.52-7.52.72-11.2,1.48-7.66,1.58-15.29,3.24-22.51,6.48a52.21,52.21,0,0,0-9,4.58c-5.34,3.76-10.75,7.4-15.73,11.67A6.92,6.92,0,0,0,65,81.34a4.06,4.06,0,0,0,.82-.42c2.51-2.13,4.91-4.39,7.52-6.38,3.69-2.8,7.39-5.61,11.92-7a28.86,28.86,0,0,0,2.62-1.44c3.89-1.71,7.73-3.56,11.72-5a38.86,38.86,0,0,1,7.19-1.29c2.65-.4,5.34-.57,7.95-1.14,5.77-1.26,11.58-1,17.42-.84,4.2.1,8.41-.16,12.61-.34,1,0,2-.63,3-.55,4.86.4,9.7,1.12,14.56,1.39,6.81.38,13.63.3,20.3,2.23,5.35,1.54,10.86,2.48,16.25,3.9,3.13.82,6.09,2.23,9.21,3.08,6.76,1.86,13.59,3.47,20.36,5.3C231.38,73.61,231.34,73.74,231.49,70.68Zm-1,17.64a25.74,25.74,0,0,0,.71-10.18c0-.26-.46-.54-.76-.66-3.33-1.29-6.65-2.57-10-3.8a11.32,11.32,0,0,0-2-.36,9.85,9.85,0,0,0,2,2.47c3.29,3.33,7.6,5.84,8.86,10.86C229.45,87.14,229.95,87.55,230.49,88.32Zm-3.43,137.25c1.66-3.86,3.35-7.69,4.85-11.12-.93-1-1.73-1.85-2.5-2.73-.63-.71-1.34-1.16-2-.17a24.11,24.11,0,0,0-2.23,4.12c-2.11,5.38-4,10.84-6.17,16.18-2.43,5.92-5.15,11.74-7.7,17.62-.79,1.82-1.85,3.67-2,5.58a65.21,65.21,0,0,0-.06,10.35c.26,4.22-1,8.18-3.84,10.79a21.47,21.47,0,0,1-13,5.46c-11.09.65-22.21,1-33.33,1.2-9.36.15-18.72,0-28.08-.25-4.9-.11-9.79-.59-14.69-.92-8.36-.57-16.79-.41-24.86-3.42-4.72-1.76-6.5-5.46-7.83-9.72a1.25,1.25,0,0,1,0-.38c.07-3.57-.12-7.18.28-10.72.64-5.64-.72-11-2-16.31-.79-3.27-2.1-6.41-3.09-9.64-.78-2.56-1.51-5.1-3.61-7a11.23,11.23,0,0,1-2-2.72c-2.48-4.28-4.91-8.6-7.3-12.81L61,210.3a2.6,2.6,0,0,0,.09.88c2.21,4.4,4.46,8.79,6.67,13.2.79,1.56,1.6,3.12,2.26,4.73q2.22,5.38,4.3,10.81c1.09,2.85,2.23,5.69,3.06,8.62,1.35,4.77.37,9.61.12,14.42-.15,2.81-.7,5.91.23,8.41A19.4,19.4,0,0,0,87.12,282a54.63,54.63,0,0,0,19.38,5.09,89.31,89.31,0,0,1,9.94,1,45.74,45.74,0,0,0,13.26,1.23,3.41,3.41,0,0,1,1.13,0,51.69,51.69,0,0,0,18,1.13c4.39-.37,8.81-.25,13.21-.48q8.94-.48,17.88-1.19c6.81-.54,13.63-.95,20.31-2.71a19.6,19.6,0,0,0,11.2-8.06c2.79-3.87,2.95-8.34,3.16-12.78.25-5.09.07-10.26,2-15C219.94,241.92,223.54,233.76,227.07,225.57Zm-8.17-4.45-.4-.26c-.8.66-1.66,1.26-2.4,2-1.47,1.46-2.74,3.13-4.32,4.45-3.71,3.11-7.65,6-11.31,9.12a22.71,22.71,0,0,1-9.78,5.46c-3.55.79-4.71,3.32-6.08,6.22q-1.22-.1-2.44-.15c.53-1.08,1.07-2.23,1.73-3.56-1.61.38-3,.29-3.78,1a22.39,22.39,0,0,0-2.35,2.44l-2.72,0c.07-.2.13-.41.19-.64a32.54,32.54,0,0,0-3.57,0l-4.3.52-2.62-.07c-3.63-.12-7.29.46-10.91.25-2.39-.14-3.85.52-4.85,2.15,0-.14.07-.27.11-.4,1.07-3.85.71-7.72.08-11.41s-2.54-7.14-3.88-10.7l-1-.05c-1.39,2.79-2.91,5.53-4.12,8.4a15,15,0,0,0-1.37,5.57c0,2.29.76,4.57,1.06,6.87.21,1.57.4,3.14.59,4.71a31.07,31.07,0,0,1-1.18-3.51c-.45-1.71-1.25-1.71-2.55-1.52-1.77.25-3.53.5-5.3.62a36.12,36.12,0,0,1-12.52-2.13c-2.51-.84-5.13-1.37-8.26-2.18l.95,2.87-2.91-.16a7.72,7.72,0,0,0-2.43-4.42,5.45,5.45,0,0,0-2-.41,4.3,4.3,0,0,0,0,1.66q.62,1.5,1.28,3l-1.8-.11-1-.07a23.53,23.53,0,0,0-1.95-5.23c-.53-.95-2.16-1.32-3.34-1.86-1.53-.7-3.18-1.15-4.63-2-2.63-1.5-5.15-3.19-8.08-5,.14.75.19,1.12.28,1.47,1,3.87,2.5,7.61,3,11.6a2,2,0,0,0-1.32.92c-.6,1.6-.21,4.44.73,6.75l-.17,0-.44,4c.35.14.57.24.8.32a33.42,33.42,0,0,0,6.29,1.32,13.1,13.1,0,0,0,3.8,1.23,184,184,0,0,0,22.72,2c7.16.09,14.27.73,21.4,1.07.34,1.77.88,3.5,1.32,5.25l.78,0c.65-1.72,1.36-3.42,2-5.13,3.58.13,7.15.23,10.73.24,3,0,6-.08,9-.29,3.44-.25,6.87-.7,10.3-1.06,0,.15,0,.29,0,.44,3.92-.34,7.85-.63,11.77-1,5.21.36,10.41.88,15.63,1.22a2.51,2.51,0,0,0,1.91-1.25,7.92,7.92,0,0,0,.48-3.11c0-1.37-.27-2.76-.17-4.12s.07-2-.73-2.2c-.17-.69-.74-1.12-1.79-1.27-2.59-.38-5.22-.67-7.77-1.27l-.89-.2c3.44-.16,6.88-.37,10.31-.36a2.3,2.3,0,0,0,2.31-1.3c4.28-6.63,7.35-13.83,10.15-21.16C217.88,224.82,218.34,223,218.9,221.12ZM77.6,76.61a39,39,0,0,0-6.23,4.48c-2,1.8-3.95,3.76-5.86,5.7-1.49,1.5-2.8,2.95-2.65,5.47.24,4.23,0,8.5-.06,12.75a1.07,1.07,0,0,0,.12.35l.62.28A185.28,185.28,0,0,1,77.6,76.61ZM62.87,205.2c-.38-5.06-.56-9.92-1.14-14.73-.61-5.1-1.55-10.16-2.42-15.22-.51-3-1.19-6-3.74-8a8.24,8.24,0,0,0-2.34-.89,5.75,5.75,0,0,0-.56,1.68c0,7.41-.05,14.84.22,22.24.16,4.32.87,8.62,1.44,12.91.09.7.72,1.85,1.17,1.89C57.77,205.3,60.08,205.2,62.87,205.2ZM61.76,71.94c.11-3.39.27-6.79.2-10.17-.09-4.21-.4-8.42-.6-12.63-.08-1.76-.05-3.53-.17-5.29-.19-2.75-1.05-4-2.78-4.37a7.81,7.81,0,0,0-9,6.32,8,8,0,0,0-.06,1.32q.27,14.44.56,28.87h.21c.2,1.54.1,3.2.67,4.59a5.23,5.23,0,0,0,5.58,3,5.62,5.62,0,0,0,5-5A55.17,55.17,0,0,0,61.76,71.94Zm-5,61.69a21.15,21.15,0,0,0,2-9.9c-.37-8-.08-16.06-.07-24.08,0-3.83,0-7.66,0-12-3.45,1-6-.25-8.83-1.56,0,3.29.29,6.42.47,9.55.17,2.95.37,5.91.28,8.86-.08,2.53-.84,5.06-.81,7.57.08,5.65.48,11.3.75,17,.12,2.48.23,5,.34,7.43C53.45,136.6,56,135.36,56.79,133.63Zm-10,79.2c2.35-.27,3.36,0,3.35-2.76,0-6.63-.12-13.27-.43-19.9-.18-3.83-.88-7.63-1.24-11.46-.33-3.44-.46-6.89-.79-10.32-.09-.9.22-2.38-1.58-2.15s-3.74.42-5.57.79a2,2,0,0,0-1.35,1.22,58.93,58.93,0,0,0-.75,8.21c.09,8.72.37,17.44.59,26.15h.15c.14,2.76.28,5.52.45,8.28.08,1.17.43,2.06,1.92,2C43.26,212.8,45,213,46.76,212.83Zm.49-111.66c.06-1.65,0-3.3,0-5.29a22.15,22.15,0,0,0-3.58.74,19.53,19.53,0,0,0-3.92,2.11,3,3,0,0,0-1.21,2.05c0,4.78.12,9.55.14,14.33,0,3.71,0,7.43-.18,11.13-.16,4.2-.45,8.4-.7,12.95,2.85-.76,5.34-1.35,7.78-2.12a2.07,2.07,0,0,0,1.16-1.52c0-6.25-.2-12.51-.13-18.76C46.66,111.58,47,106.38,47.24,101.17Z"/><path class="cls-1" d="M259,143.22c3,1.87,2.83,4.22,2.18,6.76a7.3,7.3,0,0,1-5.7,5.68c-4.49.87-9.06,1.32-13.57,2.08-2,.34-4.3.57-5.91,1.67-1.21.82-2,2.89-2.17,4.48-.3,3.29.14,6.65,0,10a102.88,102.88,0,0,1-1.35,14.21,36.33,36.33,0,0,1-5.89,13.11c-1.72,2.54-3.2,5.24-4.79,7.86a70.36,70.36,0,0,1-13.4,16.15,101.23,101.23,0,0,1-11.53,8.7c-5.41,3.58-11.52,5.55-17.65,7.4a106.26,106.26,0,0,1-12.1,2.87c-4.51.81-9.08,1.26-13.64,1.77-.35,0-1.19-.79-1.13-1.08,1.32-6.17-.88-11.71-3.11-17.19a37,37,0,0,0-3.52-6.15c-.95-1.45-2.32-1.27-3,.24-2,4.32-4.07,8.59-5.83,13a25.6,25.6,0,0,0-1.55,6.91c-.29,2.92-.11,3-3.13,3a52,52,0,0,1-16.71-2.25c-6.73-2.11-13.72-3.71-20.06-6.69s-12.07-6.78-16.18-12.65c-1.51-2.16-3.52-4-4.73-6.31a85,85,0,0,1-3.63-9.12c-.34-.87-.61-1.77-1-2.62-1.7-3.65-3.68-7.22-3.07-11.89-.79-6.84-1.24-14.13-4.41-20.89-.63-1.34-.65-3-1.46-4.22-5.37-7.85-7.94-7.77-16.13-5.55-4.09,1.11-7.87.31-11.52-1.26a4.84,4.84,0,0,1-3-5.72c.2-1.11.12-2.28.38-3.37.71-3,2.17-5.36,5.26-6.39s6.31-1.75,9.21-3.16c3.26-1.58,6.78-1.46,10.1-2.36,3.14-.85,4.93-3.51,6-6.3a18.12,18.12,0,0,0,.79-6.45,58.32,58.32,0,0,1,2.3-15.62,25.3,25.3,0,0,1,1.77-4.36c3-6,5.83-12.09,9.15-17.9a118.91,118.91,0,0,1,8.88-13.07c3.19-4.17,8-5.94,12.69-8.11,6.79-3.15,14-2.39,21-3.46,4.6-.7,9.26-1.07,13.9-1.43,6.25-.49,12.54-1.33,18.78-1.1,6.95.26,13.86,1.46,20.78,2.41s13.57,2,20.34,3.13a62.7,62.7,0,0,1,24.85,10.33,37.66,37.66,0,0,1,7.86,6.67A28.32,28.32,0,0,1,231.42,102c.21,4,.51,8,.73,12,.08,1.5,0,3,.09,4.5.51,5.57,1,11.13,1.67,16.69a2.37,2.37,0,0,0,2.48,2.33c5.17.51,10.31,1.35,15.43,2.21C254.52,140.21,256.68,141.77,259,143.22Zm-92,83.55c.09-1.57.06-3.05-1.72-3.15-1.49-.08-2.16,1.11-2.27,2.48-.15,1.86.63,2.87,2.07,2.93C166.88,229.12,167.1,228,167,226.77Zm-6.52-68.66c6.11-2.71,8.18-13,1.39-17.86-3.33-2.39-6.92-2.35-10.61-2.2a5.17,5.17,0,0,0-2.69,1.21c-1.35,1.06-2.55,2.32-3.91,3.6-2.19-2-5-2.76-8-3.24-3.18-.5-6,0-8.36,2.3-.72.7-1.33,1.51-2,2.22-4,4-5.37,10.83-2.76,15.89a7.43,7.43,0,0,0,3.76,3.39c2.3.78,4.87.76,7.5,1.11-1.87,2.81-1.88,5.95-1.18,9.17.57,2.65,1.34,5.42,4.45,5.85a43.7,43.7,0,0,0,10.64.41c6-.67,11.2-6.76,11.1-12.79,0-2.71-1-5.41-1.6-8.31A17.41,17.41,0,0,0,160.47,158.1ZM123.8,222.24c-.35-.28-1-1.14-1.72-1.28-1.41-.27-2.93,1.4-2.84,2.88a2,2,0,0,0,2.12,2C122.66,225.84,123.78,224.47,123.8,222.24Z"/><path class="cls-2" d="M257.8,131.31c.06,2.35-.28,4.71-.42,6.76-3.22-.68-6.06-1.37-8.94-1.83-1.13-.18-1.61-.36-1.64-1.65-.15-7.16-.5-14.31-.6-21.47-.05-3.8.25-7.6.38-11.4,0-1.35.45-2.19,2.07-1.77a5,5,0,0,0,1.86-.1c3.5-.51,5.42.65,6,4.21a67.92,67.92,0,0,1,.56,8.24C257.36,118.63,257.66,125,257.8,131.31Z"/><path class="cls-2" d="M256.39,160.94c0,9.83,0,19.57,0,29.31q0,7.61-.23,15.21a21.46,21.46,0,0,1-.62,4.26,2.5,2.5,0,0,1-1.1,1.41,9,9,0,0,1-2.62,1c-3.88.78-4.57.28-5-3.57-.34-3.43-1.34-7-.75-10.28,1-5.6-.15-11.09.22-16.62.32-4.88,0-9.79.05-14.69,0-1.25.25-2.5.28-3.75,0-1.77.92-2.37,2.63-2.3C251.52,161,253.75,160.94,256.39,160.94Z"/><path class="cls-3" d="M243.91,48.34c.07,2.72.47,5.44.45,8.16,0,4.7-.09,9.42-.5,14.1-.2,2.28-.45,4.79-2.54,6.45-1.38,1.1-4.78,1.36-6.09.21a3.57,3.57,0,0,1-1-2.42,41.27,41.27,0,0,1,.46-4.85l-.39,0c0-5.76-.15-11.53,0-17.28.18-5.19.72-10.37,1.16-15.56,0-.41.47-.84.81-1.16a4,4,0,0,1,4.88-.66,6.25,6.25,0,0,1,2.59,4C244.19,42.3,243.83,45.34,243.91,48.34Z"/><path class="cls-3" d="M244,170.74c0,7.65.08,15.31-.08,23-.1,4.82-.53,9.64-.89,14.45,0,.51-.57,1.35-.95,1.39a33.77,33.77,0,0,1-6.72.4c-2.93-.25-4.08-2.38-3.19-5.2a2.71,2.71,0,0,0,.15-1.11,14.89,14.89,0,0,1,2-9.06c1.86-3.34,1.89-7,2.4-10.58a90.47,90.47,0,0,0,.8-9.75c.13-3.88,0-7.77,0-12l6.08-.89C243.72,164.65,243.94,167.69,244,170.74Z"/><path class="cls-3" d="M242.21,80.23c.54,2,1.56,53.66,1,55.59-2-.41-4-.78-6-1.28a1.53,1.53,0,0,1-.78-1.13c-.33-3.6-.72-7.2-.84-10.81-.18-5.9-.17-11.81-.24-17.72,0-.56,0-1.13,0-1.69q-.47-10-.95-19.94c0-1-.15-2-.27-3.55C236.93,82.37,239.59,80.94,242.21,80.23Z"/><path class="cls-4" d="M231.44,70.57a.18.18,0,0,1,.05.11c-.15,3.06-.11,2.93-3,2.15-6.77-1.83-13.6-3.45-20.36-5.3-3.12-.85-6.09-2.26-9.21-3.08-5.38-1.42-10.9-2.36-16.25-3.9-6.67-1.92-13.49-1.85-20.3-2.23-4.87-.27-9.7-1-14.56-1.39-1-.08-2,.5-3,.55-4.2.18-8.41.44-12.61.34-5.84-.15-11.65-.42-17.42.84-2.61.57-5.3.73-7.95,1.14a38.86,38.86,0,0,0-7.19,1.29c-4,1.43-7.84,3.27-11.72,5a28.86,28.86,0,0,1-2.62,1.44c-4.53,1.43-8.23,4.24-11.92,7-2.61,2-5,4.25-7.52,6.38a4.06,4.06,0,0,1-.82.42,6.92,6.92,0,0,1,2.74-6.77c5-4.27,10.38-7.91,15.73-11.67a52.21,52.21,0,0,1,9-4.58c7.21-3.24,14.85-4.9,22.51-6.48,3.68-.76,7.47-1,11.2-1.48,2.42-.34,4.82-.82,7.24-1.17,8-1.18,16-2.59,24.12-1.59,3.08.38,6.06,1.63,9.14,1.87,10.13.8,19.32,4.89,28.85,7.81,2.92.9,5.87,1.7,8.8,2.59.94.29,1.85.69,2.76,1,5.64,2.19,11.29,4.37,16.93,6.59C226.49,68.48,228.93,69.54,231.44,70.57Z"/><path class="cls-4" d="M231.21,78.14a25.74,25.74,0,0,1-.71,10.18c-.54-.76-1-1.17-1.17-1.67-1.26-5-5.57-7.52-8.86-10.86a9.85,9.85,0,0,1-2-2.47,11.32,11.32,0,0,1,2,.36c3.35,1.23,6.67,2.51,10,3.8C230.75,77.59,231.17,77.88,231.21,78.14Z"/><path class="cls-3" d="M231.92,214.44c-1.5,3.43-3.2,7.27-4.85,11.12-3.52,8.19-7.12,16.36-10.49,24.61-2,4.79-1.78,10-2,15-.22,4.45-.37,8.91-3.16,12.78a19.6,19.6,0,0,1-11.2,8.06c-6.68,1.76-13.5,2.17-20.31,2.71q-8.94.71-17.88,1.19c-4.4.23-8.82.11-13.21.48a51.69,51.69,0,0,1-18-1.13,3.41,3.41,0,0,0-1.13,0,45.74,45.74,0,0,1-13.26-1.23,89.31,89.31,0,0,0-9.94-1A54.63,54.63,0,0,1,87.12,282a19.4,19.4,0,0,1-9.42-10.65c-.92-2.49-.37-5.59-.23-8.41.25-4.82,1.23-9.66-.12-14.42-.83-2.93-2-5.77-3.06-8.62q-2.08-5.43-4.3-10.81c-.67-1.61-1.48-3.17-2.26-4.73-2.22-4.4-4.46-8.79-6.67-13.2a2.6,2.6,0,0,1-.09-.88l4.89-1.35c2.39,4.22,4.82,8.53,7.3,12.81a11.23,11.23,0,0,0,2,2.72c2.1,1.91,2.83,4.44,3.61,7,1,3.23,2.3,6.37,3.09,9.64,1.29,5.34,2.65,10.67,2,16.31-.4,3.54-.21,7.14-.28,10.72a1.25,1.25,0,0,0,0,.38c1.33,4.26,3.11,8,7.83,9.72,8.08,3,16.5,2.85,24.86,3.42,4.9.33,9.79.81,14.69.92,9.35.22,18.72.4,28.08.25,11.12-.18,22.24-.55,33.33-1.2a21.47,21.47,0,0,0,13-5.46c2.88-2.61,4.1-6.58,3.84-10.79a65.21,65.21,0,0,1,.06-10.35c.19-1.91,1.25-3.75,2-5.58,2.54-5.88,5.26-11.69,7.7-17.62,2.19-5.34,4.06-10.81,6.17-16.18a24.11,24.11,0,0,1,2.23-4.12c.64-1,1.35-.55,2,.17C230.19,212.6,231,213.44,231.92,214.44Z"/><path class="cls-3" d="M205.59,254.38c-.09,1.36.2,2.75.17,4.12a7.92,7.92,0,0,1-.48,3.11,2.51,2.51,0,0,1-1.91,1.25c-5.21-.34-10.42-.86-15.63-1.22l1.57-.16a78.13,78.13,0,0,0,9.63-1.42c3.28-.78,5.09-3.24,5.86-6.48a3,3,0,0,0,.05-1.39C205.66,252.34,205.7,252.9,205.59,254.38Z"/><path class="cls-3" d="M204.86,252.18a3,3,0,0,1-.05,1.39c-.77,3.25-2.58,5.71-5.86,6.48a78.13,78.13,0,0,1-9.63,1.42l-1.57.16c-1.26-.09-2.51-.17-3.77-.23-6.75-.35-13.52-.4-20.29-.56-3.81-.09-7.63-.12-11.45-.17-.95,0-1.44-.38-1.19-1.4,0-.18,0-.37.08-.56.73-3.81,0-3.61,4.23-3.91,5.5-.38,11-.81,16.5-1.21.37,0,.74,0,1.22,0,.17.77.29,1.32.42,1.88.7,3.1,2.65,3.89,5.17,2a8.9,8.9,0,0,0,2.33-2.68,3.47,3.47,0,0,1,3.41-2c6.38-.11,12.75-.41,19.13-.63A5.88,5.88,0,0,1,204.86,252.18Z"/><path d="M204.86,252.18a5.88,5.88,0,0,0-1.33-.06c-6.38.22-12.75.52-19.13.63a3.47,3.47,0,0,0-3.41,2,8.9,8.9,0,0,1-2.33,2.68c-2.52,1.92-4.47,1.13-5.17-2-.12-.55-.25-1.1-.42-1.88-.48,0-.85,0-1.22,0-5.5.4-11,.83-16.5,1.21-4.23.29-3.5.1-4.23,3.91,0,.19,0,.38-.08.56-.25,1,.24,1.39,1.19,1.4,3.81,0,7.63.09,11.45.17,6.76.16,13.54.2,20.29.56,1.26.06,2.51.14,3.77.23-3.92.39-7.85.67-11.77,1,0-.14,0-.29,0-.44-3.43.36-6.85.81-10.3,1.06-3,.22-6,.31-9,.29-3.58,0-7.15-.11-10.73-.24.55-1.42,1.06-2.85,1.46-4.31.81-2.94.88-6.09,1.64-9,1-1.63,2.46-2.3,4.85-2.15,3.62.21,7.28-.37,10.91-.25l2.62.07q-6.91.84-13.81,1.76c-.47.06-.87.58-1.3.89.51.26,1,.77,1.54.76,5.9-.16,11.8-.47,17.7-.59a3.43,3.43,0,0,0,3.54-2.71l2.72,0a11.31,11.31,0,0,0-2.48,5.16c-.19,1.09,0,2.26,1.2,2.37.69.06,1.66-.74,2.16-1.41a38.59,38.59,0,0,0,2.74-4.48c.26-.48.52-1,.78-1.48q1.22.06,2.44.15c-.23.48-.46,1-.71,1.47,2.95,0,5.43.06,7.91,0l2.59-.1.89.2c2.55.6,5.17.89,7.77,1.27C204.12,251.06,204.69,251.48,204.86,252.18Z"/><path class="cls-5" d="M183.92,244.37c-.66,1.33-1.2,2.48-1.73,3.56-1.46-.08-2.93-.12-4.4-.16a22.39,22.39,0,0,1,2.35-2.44C180.87,244.66,182.3,244.75,183.92,244.37Z"/><path class="cls-5" d="M182.18,247.93c-.26.51-.51,1-.78,1.48a38.59,38.59,0,0,1-2.74,4.48c-.5.67-1.47,1.47-2.16,1.41-1.16-.1-1.39-1.28-1.2-2.37a11.31,11.31,0,0,1,2.48-5.16C179.25,247.81,180.72,247.86,182.18,247.93Z"/><path d="M165.27,223.62c1.78.09,1.81,1.57,1.72,3.15.11,1.22-.11,2.35-1.92,2.27-1.44-.06-2.22-1.08-2.07-2.93C163.11,224.73,163.78,223.54,165.27,223.62Z"/><path class="cls-6" d="M160.25,142.47a6.4,6.4,0,0,1,2.22,7.6c-.3.75-.47,1.56-.79,2.3-1.66,3.69-5.85,4-10,3a26.86,26.86,0,0,1-4-1.59,9.7,9.7,0,0,0,.17-7.21,4,4,0,0,1,.78-3.31C151.07,140.76,157.34,140.47,160.25,142.47Z"/><path d="M161.86,140.24c6.79,4.86,4.72,15.15-1.39,17.86a17.41,17.41,0,0,1-2.33.73c.59,2.9,1.56,5.6,1.6,8.31.09,6-5.13,12.13-11.1,12.79a43.7,43.7,0,0,1-10.64-.41c-3.11-.42-3.88-3.19-4.45-5.85-.7-3.22-.69-6.36,1.18-9.17-2.63-.34-5.2-.33-7.5-1.11a7.43,7.43,0,0,1-3.76-3.39c-2.62-5.06-1.29-11.84,2.76-15.89.71-.71,1.32-1.52,2-2.22,2.36-2.26,5.18-2.8,8.36-2.3,3,.48,5.84,1.27,8,3.24,1.36-1.27,2.56-2.54,3.91-3.6a5.17,5.17,0,0,1,2.69-1.21C154.94,137.9,158.53,137.86,161.86,140.24Zm.6,9.82a6.4,6.4,0,0,0-2.22-7.6c-2.91-2-9.18-1.71-11.7.82a4,4,0,0,0-.78,3.31,9.7,9.7,0,0,1-.17,7.21,26.86,26.86,0,0,0,4,1.59c4.19.93,8.38.65,10-3C162,151.62,162.16,150.81,162.47,150.07Zm-13.54,26.82c5.7-1.12,9.72-7.18,8.34-12.73-.66-2.66-1.94-4.64-5.1-5.3-2.2-.45-4.05.21-6,.57a14.92,14.92,0,0,0-9.8,6.71c-1.9,2.84-1.49,6.85.79,8.59a13.08,13.08,0,0,0,7.69,2.79C146.2,177.31,147.57,177.15,148.92,176.89Zm-6.75-20.17a6.51,6.51,0,0,0,2.43-9.06c-1.8-2.83-4.86-3.44-7.72-4.06-4.52-1-7.86,1.21-10.47,4.78-2.11,2.88-1.82,6.11-.54,8.95.93,2.06,3.47,2.68,6.37,2.76a25,25,0,0,0,4.65-.76A35.52,35.52,0,0,0,142.17,156.72Z"/><path class="cls-6" d="M157.26,164.16c1.38,5.55-2.64,11.6-8.34,12.73-1.35.26-2.72.42-4.08.63a13.08,13.08,0,0,1-7.69-2.79c-2.27-1.74-2.69-5.75-.79-8.59a14.92,14.92,0,0,1,9.8-6.71c1.94-.36,3.79-1,6-.57C155.33,159.52,156.61,161.5,157.26,164.16Z"/><path class="cls-5" d="M149.2,238.16c.63,3.68,1,7.56-.08,11.41,0,.13-.07.26-.11.4a8.66,8.66,0,0,0-.73,1.56,26.13,26.13,0,0,1-3.37,6c-1,1.35-2.06,1.1-2.7-.42s-1.21-2.78-1.77-4.19c-.19-1.57-.38-3.14-.59-4.71-.31-2.3-1.07-4.59-1.06-6.87a15,15,0,0,1,1.37-5.57c1.21-2.87,2.73-5.61,4.12-8.4l1,.05C146.66,231,148.57,234.48,149.2,238.16Z"/><path class="cls-3" d="M148.28,251.52A8.66,8.66,0,0,1,149,250c-.76,3-.83,6.1-1.64,9-.4,1.46-.91,2.89-1.46,4.31l-1.47,0-2.65-.11c-.06-.32-.12-.64-.16-1-.45-3.07-.81-6.16-1.19-9.25.56,1.41,1.18,2.8,1.77,4.19s1.74,1.77,2.7.42A26.13,26.13,0,0,0,148.28,251.52Z"/><path class="cls-5" d="M145.91,263.32c-.66,1.71-1.38,3.41-2,5.13l-.78,0c-.43-1.75-1-3.48-1.32-5.25l2.65.11Z"/><path class="cls-6" d="M144.6,147.67a6.51,6.51,0,0,1-2.43,9.06,35.52,35.52,0,0,1-5.27,2.61,25,25,0,0,1-4.65.76c-2.9-.07-5.45-.7-6.37-2.76-1.28-2.84-1.56-6.07.54-8.95,2.61-3.57,5.94-5.77,10.47-4.78C139.74,144.22,142.8,144.84,144.6,147.67Z"/><path d="M141.63,262.2c0,.32.1.64.16,1-7.13-.34-14.24-1-21.4-1.07a184,184,0,0,1-22.72-2,13.1,13.1,0,0,1-3.8-1.23,89.62,89.62,0,0,0,9.73.43c4.51,0,9-.18,13.54.11,6.3.4,12.57.93,18.85,0,3.61-.53.7-3,1.12-4.47.29-1,0-2.53-1.85-2.27-.56.08-1.13.1-1.69.18a20.83,20.83,0,0,1-2.78.4c-5.09,0-10.17-.11-15.25-.05-1.69,0-3.43,0-4.85,1.39s-2.64,1.1-3.64-.44a2.23,2.23,0,0,0-2.36-1c-4.62.18-9.24.28-13.86.36-1.11,0-2.22-.15-3.44-.25-.94-2.31-1.33-5.16-.73-6.75a2,2,0,0,1,1.32-.92,20.33,20.33,0,0,1,.17,2.26c0,.46,1.07,1.27,1.65,1.29q5.9.18,11.81,0c.52,0,1.52-1,1.44-1.27s-.23-.85-.35-1.27l1,.07,1.8.11q.82,1.85,1.69,3.68a12.79,12.79,0,0,0,1.36,1.85,9.27,9.27,0,0,0,.11-5.34l2.91.16.88,2.67c7.78-.6,15.48.06,23.11-.66,0-.25,0-.5,0-.74-.16-.06-.34-.2-.49-.17a26.8,26.8,0,0,1-3.61.34c1.77-.12,3.53-.37,5.3-.62,1.3-.19,2.1-.19,2.55,1.52a31.07,31.07,0,0,0,1.18,3.51C140.81,256,141.17,259.13,141.63,262.2Z"/><path class="cls-3" d="M135.27,252.69c1.87-.26,2.14,1.24,1.85,2.27-.42,1.48,2.49,3.94-1.12,4.47-6.28.91-12.56.39-18.85,0-4.5-.29-9-.08-13.54-.11a89.62,89.62,0,0,1-9.73-.43c-1.39-.66-2.74-1.48-4-2.25a7,7,0,0,1-2.43-3.38c1.22.1,2.33.26,3.44.25,4.62-.08,9.24-.18,13.86-.36a2.23,2.23,0,0,1,2.36,1c1,1.54,2.31,1.72,3.64.44s3.16-1.37,4.85-1.39c5.08-.05,10.17.06,15.25.05a20.83,20.83,0,0,0,2.78-.4C134.14,252.79,134.71,252.76,135.27,252.69Z"/><path d="M122.08,221c.76.14,1.37,1,1.72,1.28,0,2.23-1.14,3.6-2.43,3.55a2,2,0,0,1-2.12-2C119.15,222.35,120.67,220.69,122.08,221Z"/><path class="cls-5" d="M108.67,246.94a9.27,9.27,0,0,1-.11,5.34,12.79,12.79,0,0,1-1.36-1.85q-.87-1.83-1.69-3.68Z"/><path class="cls-5" d="M106.24,242.52a7.72,7.72,0,0,1,2.43,4.42l-3.16-.18q-.66-1.49-1.28-3a4.3,4.3,0,0,1,0-1.66A5.45,5.45,0,0,1,106.24,242.52Z"/><path d="M103.05,247.86c.08.29-.93,1.25-1.44,1.27q-5.9.16-11.81,0c-.59,0-1.64-.83-1.65-1.29a20.33,20.33,0,0,0-.17-2.26l.2,0c4.85.29,9.68.71,14.52,1C102.82,247,102.93,247.43,103.05,247.86Z"/><path class="cls-3" d="M89.82,256.62c1.3.77,2.66,1.59,4,2.25a33.42,33.42,0,0,1-6.29-1.32c-.23-.08-.45-.18-.8-.32l.44-4,.17,0A7,7,0,0,0,89.82,256.62Z"/><path class="cls-4" d="M71.37,81.08a39,39,0,0,1,6.23-4.48,185.28,185.28,0,0,0-14.06,29l-.62-.28a1.07,1.07,0,0,1-.12-.35c0-4.25.3-8.52.06-12.75-.14-2.52,1.16-4,2.65-5.47C67.43,84.84,69.33,82.88,71.37,81.08Z"/><path class="cls-3" d="M61.73,190.46c.58,4.82.76,9.68,1.14,14.73-2.79,0-5.09.11-7.37-.09-.45,0-1.08-1.19-1.17-1.89-.57-4.29-1.28-8.59-1.44-12.91-.28-7.41-.2-14.83-.22-22.24a5.75,5.75,0,0,1,.56-1.68,8.24,8.24,0,0,1,2.34.89c2.54,2,3.23,5,3.74,8C60.18,180.3,61.12,185.37,61.73,190.46Z"/><path class="cls-3" d="M62,61.77c.07,3.39-.08,6.79-.2,10.17a55.17,55.17,0,0,1-.44,6.71,5.62,5.62,0,0,1-5,5,5.23,5.23,0,0,1-5.58-3c-.57-1.39-.47-3.06-.67-4.59H49.9q-.28-14.43-.56-28.87a8,8,0,0,1,.06-1.32,7.81,7.81,0,0,1,9-6.32c1.72.34,2.58,1.63,2.78,4.37.12,1.76.09,3.52.17,5.29C61.55,53.35,61.87,57.56,62,61.77Z"/><path class="cls-3" d="M58.78,123.73a21.15,21.15,0,0,1-2,9.9c-.77,1.73-3.35,3-5.88,2.81-.12-2.47-.23-4.95-.34-7.43-.27-5.65-.67-11.3-.75-17,0-2.52.73-5,.81-7.57.09-2.95-.1-5.91-.28-8.86-.18-3.13-.48-6.27-.47-9.55,2.8,1.31,5.38,2.57,8.83,1.56,0,4.36,0,8.19,0,12C58.69,107.67,58.41,115.72,58.78,123.73Z"/><path class="cls-2" d="M50.11,210.07c0,2.72-1,2.48-3.35,2.76-1.73.2-3.5,0-5.25.05-1.49.07-1.85-.82-1.92-2-.17-2.76-.3-5.52-.45-8.28H39c-.21-8.72-.49-17.43-.59-26.15a58.93,58.93,0,0,1,.75-8.21A2,2,0,0,1,40.5,167c1.83-.37,3.71-.54,5.57-.79s1.49,1.24,1.58,2.15c.33,3.43.46,6.89.79,10.32.36,3.83,1.07,7.63,1.24,11.46C50,196.8,50.08,203.44,50.11,210.07Z"/><path class="cls-2" d="M47.25,95.88c0,2,.06,3.64,0,5.29-.2,5.21-.58,10.41-.64,15.62-.07,6.25.14,12.51.13,18.76a2.07,2.07,0,0,1-1.16,1.52c-2.43.77-4.93,1.36-7.78,2.12.25-4.55.54-8.75.7-12.95.14-3.71.19-7.42.18-11.13,0-4.78-.18-9.56-.14-14.33a3,3,0,0,1,1.21-2.05,19.53,19.53,0,0,1,3.92-2.11A22.15,22.15,0,0,1,47.25,95.88Z"/></svg>