<svg id="圖層_1" data-name="圖層 1" xmlns="http://www.w3.org/2000/svg" viewBox="0 0 287.81 324.7"><defs><style>.cls-1{fill:#fff;}.cls-2{fill:#4f7434;}.cls-3{fill:#eabf29;}.cls-4{fill:#6a4e22;}</style></defs><title>chks</title><path d="M256.72,126.6c2,3.42,1.07,7,.36,10.45-.31,1.54-2.82,3-4.79,2.8-3.46-.39-6.92-.9-8.88-4.46a17.58,17.58,0,0,0-2.61-2.73,71.38,71.38,0,0,0-1.42,7.27,105.62,105.62,0,0,1-7.11,29.23c-2.83,7.32-6.21,14.44-9.59,21.54a33.74,33.74,0,0,1-4.64,6.88c-2.88,3.47-5.94,6.79-9,10.07a39.77,39.77,0,0,1-12.71,8.91q-10.92,4.91-21.83,9.83a64.84,64.84,0,0,1-18.63,5c-.42,2.54-.84,5-1.25,7.49-1.14,6.72-2.27,13.45-3.44,20.16-.22,1.22-.34,2.56-2.07,2.76-2,.23-3.64-.3-4.41-2a12,12,0,0,1-1.07-4.33c-.3-7.62-1.22-15.23-.21-22.88.4-3-.18-3.63-3.27-4.07-3.55-.51-7.13-.76-10.67-1.35a25.77,25.77,0,0,1-6-1.73c-14.87-6.43-29.68-13-43.43-21.66a25.8,25.8,0,0,1-3.78-2.46c-9.19-8.41-17.72-17.28-21.33-29.74-2.1-7.21-4.45-14.36-6.78-21.5a55.61,55.61,0,0,1-2.42-16.06c-.07-3-.26-6-.41-9.29-1.5.25-2.73.41-3.94.65-3.62.74-7.25,1.49-10.86,2.29-2.8.62-5.14,0-6.57-2.58-1.21-2.14-2.89-2.25-5-1.94a25.56,25.56,0,0,1-5.86.31c-4-.35-6.3-3-6.35-6.91,0-3.09,2.59-5.88,6.32-6.12,4-.25,8,0,12.07-.06a7.57,7.57,0,0,0,3.38-.37c4.78-2.62,10-2.43,15.2-2.91C44.85,107,46,107,47,107c1.42-5.87,2.59-11.52,4.17-17.06s3.37-11,5.43-16.42a27.25,27.25,0,0,1,4.31-7.08C65.21,61.12,69.69,56,74.11,50.78c3.89-4.56,9.12-7.42,13.79-11,9-6.89,19.65-9.64,30.26-12.39a36.3,36.3,0,0,1,12.34-.76c8.63.78,17.33.82,26,1.31A33.45,33.45,0,0,1,164,29.16c11.32,3.32,22.64,6.69,33.26,11.94,11.7,5.78,22.06,13.14,28.59,24.89a93.11,93.11,0,0,1,9.93,28.73c.58,3.18.83,6.43,1.49,9.59.88,4.15,1.81,8.31,6.34,10.34,2.2,1,4.14,2.57,6.34,3.56a8.7,8.7,0,0,1,4.29,3.85C255.07,123.56,255.86,125.1,256.72,126.6Zm-2.66,6.22a8.57,8.57,0,0,0-1.95-8.09c-3.58-4-8.1-6.76-12.82-9.16l-.86.35a46,46,0,0,1,.84,5.71c.11,3.91,1.25,7.05,4.87,9.17,1.54.9,2.55,2.67,3.93,3.88C251,137.24,253.17,136.5,254.05,132.83Zm-18.84,9q.12-6.57.08-13.15c0-6.8-.11-13.61-.18-20.41a6.19,6.19,0,0,0-.2-1c-.59-3.29-1.28-6.57-1.77-9.88a83.34,83.34,0,0,0-8.61-27,41.23,41.23,0,0,0-9.22-12.06c-3.13-2.75-6.41-5.33-9.57-8a59.39,59.39,0,0,0-18.23-10.53c-2.49-.92-4.95-2-7.46-2.81-7.45-2.51-15-5.08-22.84-5.59-9.18-.6-18.43-.37-27.6-1S111.73,32,103.18,35a37.08,37.08,0,0,0-9.87,4.79c-4.28,3.06-8.84,5.69-12.76,9.3-4.42,4.07-9.22,7.76-12.69,12.75-2.64,3.8-5.25,7.62-7.69,11.54a25.25,25.25,0,0,0-2.94,6.25C54.34,89.7,51.39,99.8,50,110.25c-.84,6.17-1.4,12.38-2.14,19.07.64,4.16,1.33,8.71,2,13.27a13.44,13.44,0,0,1,.36,2c0,4.71,1.36,9.12,3.05,13.43,2.15,5.48,4.6,10.86,6.69,16.36,4.17,11,11.36,19.48,20.9,26.16A109.87,109.87,0,0,0,102.59,212c10.06,4.11,20.1,8.3,31,10a39.19,39.19,0,0,1,5.45,1c5.75,1.75,11.47,3.58,17.62,2.46.54-.1,1.14.22,1.71.19a28.4,28.4,0,0,0,4.81-.35c12.21-2.66,23.42-7.86,34.26-13.89a48.34,48.34,0,0,0,16-14.18A117.76,117.76,0,0,0,229.43,167c.83-2.4,1.33-4.92,2.21-7.29A54.39,54.39,0,0,0,235.21,141.79ZM148.52,258c2.38-9.41,3.15-18.42,4.68-27.56l-6.54-.47a26.54,26.54,0,0,0-.32,2.83c0,6.34,0,12.68.09,19a21.65,21.65,0,0,0,.67,4.43C147.22,256.7,147.78,257.08,148.52,258ZM46.37,110.54H42.09l4.1,3.07C46.26,112.29,46.31,111.51,46.37,110.54Zm-5.81,8.69v-3.87c-4.7-.23-5.57.48-5.19,4C38,120.24,38,120.24,40.56,119.23Zm-7,3.94h-7C28.87,125.15,30.15,125.12,33.6,123.17Zm-1.69-9H21.27c.2,1.8.38,3.35.57,5h8.73C31,117.46,31.43,116,31.91,114.15Zm-13.49,3.22a3.86,3.86,0,0,0-3.23-3.88c-2.37-.14-4.36,1.11-4.51,2.82-.18,2,1.89,3.95,4.26,4A3,3,0,0,0,18.42,117.38Z"/><path class="cls-1" d="M252.11,124.74a8.57,8.57,0,0,1,1.95,8.09c-.89,3.68-3.09,4.41-6,1.86-1.39-1.22-2.39-3-3.93-3.88-3.62-2.12-4.76-5.26-4.87-9.17a46,46,0,0,0-.84-5.71l.86-.35C244,118,248.53,120.71,252.11,124.74Z"/><path class="cls-2" d="M235.29,128.64q0,6.58-.08,13.15a54.39,54.39,0,0,1-3.57,17.94c-.88,2.38-1.38,4.89-2.21,7.29a117.76,117.76,0,0,1-16.06,30.22,48.34,48.34,0,0,1-16,14.18c-10.85,6-22,11.23-34.26,13.89a28.4,28.4,0,0,1-4.81.35c-.57,0-1.17-.29-1.71-.19-6.16,1.13-11.87-.71-17.62-2.46a39.19,39.19,0,0,0-5.45-1c-10.85-1.66-20.89-5.86-31-10a109.87,109.87,0,0,1-21.74-11.47c-9.54-6.68-16.73-15.18-20.9-26.16-2.09-5.51-4.53-10.88-6.69-16.36-1.7-4.31-3.07-8.72-3.05-13.43a13.44,13.44,0,0,0-.36-2c-.7-4.56-1.39-9.11-2-13.27.74-6.69,1.31-12.9,2.14-19.07C51.39,99.8,54.34,89.7,57.23,79.6a25.25,25.25,0,0,1,2.94-6.25c2.44-3.92,5.05-7.74,7.69-11.54,3.47-5,8.26-8.68,12.69-12.75,3.92-3.61,8.48-6.24,12.76-9.3A37.08,37.08,0,0,1,103.18,35c8.56-2.93,17.16-5.3,26.43-4.64s18.42.43,27.6,1c7.89.51,15.38,3.08,22.84,5.59,2.51.85,5,1.9,7.46,2.81a59.39,59.39,0,0,1,18.23,10.53c3.17,2.7,6.45,5.28,9.57,8a41.23,41.23,0,0,1,9.22,12.06,83.34,83.34,0,0,1,8.61,27c.49,3.31,1.17,6.59,1.77,9.88a6.19,6.19,0,0,1,.2,1C235.18,115,235.27,121.84,235.29,128.64Zm-3.72,6.64q.07-12.46,0-24.93a18.31,18.31,0,0,0-.47-4.1c-1.48-6.3-2.94-12.61-4.6-18.86a37.11,37.11,0,0,0-3.15-8.77c-6-10.62-13.12-20.4-22.22-28.68a45.65,45.65,0,0,0-18.27-10.25c-6.65-1.94-13.26-4-19.92-5.94a18.75,18.75,0,0,0-4.78-.67c-4.62-.09-9.25,0-11.84,0-10.26-.76-18.43-.71-26.45,1.6-4.1,1.17-8.21,2.32-12.37,3.23a47.92,47.92,0,0,0-13.59,5.74A63.68,63.68,0,0,0,78.65,56C72.76,62.42,67.3,69.08,63.09,76.71A67.48,67.48,0,0,0,58.7,86.5c-3,8.39-4.71,17.12-6.6,25.82a58.62,58.62,0,0,0,.06,24c1.07,5.44,2.36,10.85,3.76,16.21A60.59,60.59,0,0,0,59.13,162q4.05,9,8.61,17.79c3.52,6.79,8.19,12.57,15.1,16.29,12.9,7,25.35,14.67,39.67,18.86a82.58,82.58,0,0,0,24.87,3.74c1.85,0,3.7,0,5.55,0,2.74,0,5.58.38,8.21-.18,5.53-1.17,11-2.69,16.41-4.36,7.91-2.45,14.86-6.89,21.92-11.08a46.3,46.3,0,0,0,9.45-7.55c5.89-6,9.63-13.22,12.31-21.08,1.61-4.7,2.86-9.6,5.08-14C230.36,152.46,231.52,144,231.57,135.28Z"/><path d="M231.59,110.35q.05,12.46,0,24.93c0,8.74-1.21,17.18-5.25,25.18-2.22,4.4-3.47,9.3-5.08,14-2.69,7.86-6.42,15.09-12.31,21.08a46.3,46.3,0,0,1-9.45,7.55c-7.07,4.19-14,8.63-21.92,11.08-5.4,1.67-10.88,3.19-16.41,4.36-2.63.56-5.47.16-8.21.18-1.85,0-3.7,0-5.55,0A82.58,82.58,0,0,1,122.51,215c-14.32-4.19-26.77-11.9-39.67-18.86-6.91-3.73-11.58-9.51-15.1-16.29Q63.2,171.07,59.13,162a60.59,60.59,0,0,1-3.21-9.51c-1.4-5.37-2.69-10.77-3.76-16.21a58.62,58.62,0,0,1-.06-24c1.89-8.69,3.6-17.43,6.6-25.82a67.48,67.48,0,0,1,4.39-9.78c4.2-7.63,9.67-14.3,15.55-20.74A63.68,63.68,0,0,1,93.94,43.63a47.92,47.92,0,0,1,13.59-5.74c4.16-.91,8.27-2.06,12.37-3.23,8-2.3,16.19-2.36,26.45-1.6,2.59,0,7.21-.06,11.84,0a18.75,18.75,0,0,1,4.78.67c6.66,1.92,13.27,4,19.92,5.94a45.65,45.65,0,0,1,18.27,10.25c9.09,8.28,16.21,18.07,22.22,28.68a37.11,37.11,0,0,1,3.15,8.77c1.66,6.25,3.12,12.56,4.6,18.86A18.31,18.31,0,0,1,231.59,110.35Zm-4,35c.15-5.87,1-11.69.24-17.63-.63-5-.17-10.16-.44-15.24A135.3,135.3,0,0,0,226,98.73a81.37,81.37,0,0,0-2.77-11.45,43.64,43.64,0,0,0-4-9.91,174.8,174.8,0,0,0-10.23-14.43,34.08,34.08,0,0,0-5.38-5.37c-10-8.32-21.52-13.92-33.74-18.09a49.06,49.06,0,0,0-11.75-2.88c-12.2-1-24.38-1.22-36.53,1.38C109.81,40.52,98.82,44.89,89.3,52.3A110,110,0,0,0,74.61,66.5,64.89,64.89,0,0,0,59.8,94c-.31,1.23-.64,2.45-1,3.67-2.07,7.94-4.27,15.86-4.38,24.17a32.19,32.19,0,0,0,0,5.18c1.09,6.61,2.08,13.25,3.58,19.77C60.9,159,65.38,170.63,72.53,181.1a42.89,42.89,0,0,0,14.89,13.77c3.35,1.83,6.63,3.78,9.91,5.74a85.74,85.74,0,0,0,21,9.57c13.16,3.69,26.27,5.93,40,4.61a72.94,72.94,0,0,0,29.22-8.94c2.52-1.42,5-3,7.6-4.18,10.24-4.7,17.06-12.61,21.14-22.87,3.72-9.34,7-18.85,10.37-28.32A16.61,16.61,0,0,0,227.58,145.36Z"/><path class="cls-1" d="M227.82,127.74c.74,5.94-.09,11.76-.24,17.63a16.61,16.61,0,0,1-.91,5.1c-3.37,9.47-6.66,19-10.37,28.32-4.08,10.25-10.9,18.16-21.14,22.87-2.62,1.21-5.08,2.76-7.6,4.18a72.94,72.94,0,0,1-29.22,8.94c-13.74,1.32-26.85-.91-40-4.61a85.74,85.74,0,0,1-21-9.57c-3.27-2-6.56-3.9-9.91-5.74A42.89,42.89,0,0,1,72.53,181.1C65.38,170.63,60.9,159,58.09,146.77c-1.5-6.52-2.49-13.16-3.58-19.77a32.19,32.19,0,0,1,0-5.18c.1-8.31,2.31-16.22,4.38-24.17.32-1.23.65-2.45,1-3.67A64.89,64.89,0,0,1,74.61,66.5,110,110,0,0,1,89.3,52.3c9.52-7.41,20.51-11.78,32.37-14.32,12.16-2.61,24.33-2.36,36.53-1.38A49.06,49.06,0,0,1,170,39.48c12.22,4.18,23.73,9.78,33.74,18.09a34.08,34.08,0,0,1,5.38,5.37,174.8,174.8,0,0,1,10.23,14.43,43.64,43.64,0,0,1,4,9.91A81.37,81.37,0,0,1,226,98.73a135.3,135.3,0,0,1,1.33,13.77C227.65,117.57,227.19,122.72,227.82,127.74Zm-52.28-1.09c1.64-.79,2.16-2.46,1.76-4.45-.34-1.68-1.14-3.08-3-3.35a9.44,9.44,0,0,0-7.5,1.7,3.92,3.92,0,0,0-1.71,4.19,4,4,0,0,0,3.12,2.88,22,22,0,0,0,3.1.36A25.87,25.87,0,0,0,175.55,126.65ZM122.24,128a4.2,4.2,0,0,0,2.55-4.81c-.35-2.78-2.12-4-6.18-4-2.43-.51-4.32,1-6,2.85-2.14,2.32-1.41,5.38,1.52,6.4A10.77,10.77,0,0,0,122.24,128Z"/><path d="M177.31,122.2c.4,2-.12,3.65-1.76,4.45a25.87,25.87,0,0,1-4.22,1.33,22,22,0,0,1-3.1-.36,4,4,0,0,1-3.12-2.88,3.92,3.92,0,0,1,1.71-4.19,9.44,9.44,0,0,1,7.5-1.7C176.16,119.12,177,120.52,177.31,122.2ZM168,124c2.92,1.75,5.06,1.37,6.33-1.36C170.35,121.57,169.75,121.71,168,124Z"/><path class="cls-3" d="M174.38,122.65c-1.27,2.72-3.41,3.11-6.33,1.36C169.75,121.71,170.35,121.57,174.38,122.65Z"/><path class="cls-3" d="M153.2,230.41c-1.52,9.14-2.3,18.15-4.68,27.56-.74-.89-1.31-1.27-1.42-1.75a21.65,21.65,0,0,1-.67-4.43c-.09-6.34-.09-12.67-.09-19a26.54,26.54,0,0,1,.32-2.83Z"/><path d="M124.79,123.2a4.2,4.2,0,0,1-2.55,4.81,10.77,10.77,0,0,1-8.1.43c-2.94-1-3.66-4.08-1.52-6.4,1.67-1.8,3.56-3.36,6-2.85C122.67,119.2,124.44,120.42,124.79,123.2Zm-4.06,2.28a2.23,2.23,0,0,0,1.07-1.85c-.06-.55-.92-1.27-1.55-1.42-2.28-.56-4.15.48-5.79,3.21A7.88,7.88,0,0,0,120.73,125.48Z"/><path class="cls-3" d="M121.81,123.62a2.23,2.23,0,0,1-1.07,1.85,7.88,7.88,0,0,1-6.27-.07c1.64-2.73,3.52-3.77,5.79-3.21C120.88,122.35,121.74,123.08,121.81,123.62Z"/><path class="cls-1" d="M42.09,110.54h4.28c-.06,1-.1,1.74-.18,3.07Z"/><path class="cls-4" d="M40.56,115.36v3.87c-2.55,1-2.55,1-5.19.14C35,115.84,35.85,115.12,40.56,115.36Z"/><path class="cls-1" d="M26.6,123.17h7C30.15,125.12,28.87,125.15,26.6,123.17Z"/><path class="cls-4" d="M21.27,114.15H31.91c-.48,1.8-.88,3.31-1.34,5H21.83C21.64,117.5,21.47,115.95,21.27,114.15Z"/><path class="cls-4" d="M15.18,113.49a3.86,3.86,0,0,1,3.23,3.88,3,3,0,0,1-3.48,3c-2.37-.1-4.44-2.06-4.26-4C10.82,114.6,12.81,113.36,15.18,113.49Z"/></svg>