<svg id="圖層_1" data-name="圖層 1" xmlns="http://www.w3.org/2000/svg" viewBox="0 0 287.81 324.7"><defs><style>.cls-1{fill:#e6aa2b;}.cls-2{fill:#fff;}.cls-3{fill:#c2392a;}.cls-4{fill:#545757;}.cls-5{fill:#cf543f;}.cls-6,.cls-7{fill:none;stroke:#040000;stroke-miterlimit:10;}.cls-6{stroke-width:0.25px;}</style></defs><title>chks</title><path d="M276.75,133.72c.38,2.8-.38,4.54-2.86,6-4,2.3-8.4,2-12.72,2.14-5.54.23-11.08.55-16.61.45-3.37-.06-6.74-.82-10.53-1.32.37,1.81.65,3.67,1.12,5.47a139.79,139.79,0,0,1,4.18,30.17c.32,8.47-.15,16.81-2.5,24.87-2,7-5,13.75-7.7,20.55a104.31,104.31,0,0,1-4.73,10.66c-6.21,11.69-13.54,22.62-23.41,31.56a36.21,36.21,0,0,1-9.44,5.82c-6.27,2.83-12.67,5.42-19.16,7.69-4.2,1.47-8.67,2.2-13,3.27-.57.14-1.12.33-2.21.65-.35,3.13-1,6.36-1,9.59-.12,7.14-3.3,13.32-5.95,19.64-1.16,2.77-4,2.68-4.8-.18a71.07,71.07,0,0,1-2.13-13.65c-.35-5.35-.08-10.73-.08-16.34-1.08-.27-2.06-.58-3.06-.77-8.5-1.63-17-3.13-25.5-4.93a43.7,43.7,0,0,1-10.17-3.28c-7-3.44-14-6.89-20.52-11.17a56.47,56.47,0,0,1-11.72-11.05c-1.79-2.13-2.28-5.45-3.11-8.29a40.79,40.79,0,0,1-.9-5.46c-8.22-2.56-16.16-.83-24-.81-5.7,0-11.39.23-17.09.23-3.87,0-5.92-1.64-6.26-5.43-.85-9.54-1.44-19.1-2.19-28.64-.15-1.91-.57-3.78-.91-6-2.25-.43-4.29-1.18-6.29-1.1-2.37.09-3.38-1.18-3.88-3-2-7-1.88-14.25-.85-21.4.39-2.72,3.07-3.44,5.82-4.11.63-3.9,1.24-7.86,1.92-11.81a48.2,48.2,0,0,1,15.37-28.25A41.85,41.85,0,0,1,55,114.78a8.74,8.74,0,0,1,3.51.5c4.92,1.75,9.79,3.63,14.69,5.45.68.25,1.38.44,2.21.7,1.3-2.32,2.7-4.43,3.72-6.72,2.68-6,7.15-10.24,12.6-13.66,3.54-2.22,7-4.59,10.93-7.21-2.72-4.51-2.51-9.12-1.19-13.65,1.59-5.44,3.33-10.86,5.41-16.13s3.34-7.75,12.55-12.71c-.35-2.3-.77-4.77-1.08-7.25-.85-6.81-1.72-13.63-2.42-20.47a9.11,9.11,0,0,1,.62-4.39c.9-2.08,1.23-4.94,4.43-5s6.42,0,8.22,3.39c1.54,2.88,3,5.81,4.68,9l1.24-.85c3-2.06,5-2,6.73,1,3.55,6.1,6.7,12.4,6,19.85-.17,1.77,0,3.57,0,5.25,15.57,7.82,14.91,6.35,23.56,23.48,4.89,1.29,9.7-.56,14.58-.84s9.52-1,14.3-1.24c3.38-.17,6.45,1.24,9.18,3.14s2.74,4,.54,6.42-5.1,3-8.1,3.44c-1.29.18-2.6.17-5,.3,3.46,3,6.14,5.53,9,7.85,7.55,6.22,12.82,14.17,17.25,22.72,1,1.83,1.87,3.2,3.83,4,2.6,1.13,5,2.69,7.54,4,5.78,3,12.14,3,18.4,3.53,6.56.54,13.11,1.08,19.66,1.73C274.47,130.72,276.4,131.13,276.75,133.72Zm-2.26.54a9.58,9.58,0,0,0-2.43-.95c-6.4-.54-12.81-1.12-19.23-1.45-5.86-.3-11.63-.78-17-3.42-2.68-1.32-5.47-2.41-8.89-3.91l5.32,12.85c2.18.23,3.94.45,5.7.61,2.22.2,4.44.46,6.66.53,5.38.17,10.77.38,16.16.29a62.09,62.09,0,0,0,9.77-1A4.56,4.56,0,0,0,274.49,134.25Zm-41.73,68.36c2.51-10,4.18-20,3.32-30.25q-.85-10.3-2-20.58c-.09-.84-.91-1.61-1.52-2.62-5.47,5.22-8.69,12-15.13,15.7-3-3.32-5-18.44-3.06-25.38l17.39,4.67c-2-5.1-3.72-9.54-5.49-14a48.38,48.38,0,0,0-2.56-5.72,161.4,161.4,0,0,0-19-27c-5.63-6.45-11.92-11.28-21.17-10.65a27.87,27.87,0,0,1-9.33-.82,9,9,0,0,0-8,1c-7.72,4.95-16.25,7.41-25.3,8.63-11.18,1.5-22.31,2.68-33.58.67A7.71,7.71,0,0,0,102,97.88c-4.73,3.68-9.27,7.6-13.71,11.62s-6.95,9.59-9.51,14.69L85,136c2.15-1.69,3.94-3.65,6.16-4.73,8.5-4.14,17.23-7.69,26.88-8.19,7-.36,14.06-1,21.08.34,10.5,1.94,20.34,5.94,30.2,9.79a33.13,33.13,0,0,1,7.07,3.85c7.75,5.54,12.93,13.17,17,21.64,3.77,7.88,5.45,16.12,4.16,24.86-.5,3.4-.58,6.89-1.31,10.24-1.28,5.82-1.79,11.95-5.21,17.07A133,133,0,0,1,183,221.61c-7.78,9.45-18.34,13.22-30.12,13.69-6.26.26-12.55-.49-18.83-.85-10.39-.6-20.56-2.11-29.67-7.67a37.68,37.68,0,0,0-4.33-2.35c-4.27-1.89-8.3-4.08-11.64-8.73-.2,2.27-.36,3.7-.44,5.14-.1,1.94,0,3.91-.23,5.84-.46,3.92-1.53,5-5.44,6-2.59.66-5.19,1.28-8.11,2,.57,6.39,0,12.65,6.2,16.36.36.21.51.73.82,1.05,4.27,4.45,8.77,8.68,14.58,11,7.08,2.82,14.23,5.52,21.5,7.8,12.95,4.06,26.19,6.18,39.85,5,12.58-1,24.53-4.1,34.89-11.48a108,108,0,0,0,16.7-14.17c4.31-4.65,7.5-10.41,10.8-15.91A116.59,116.59,0,0,0,232.76,202.62Zm-14.51-41.88c5.52-3.28,8.53-8.15,12-13.59l-14.78-4C216.77,149.67,215.47,155.3,218.25,160.74ZM202.58,82.59c2.06-.16,4.19-.52,5.36-2.83-1.42-2.71-4-2.86-6.53-2.77q-8.95.35-17.88,1c-2.82.21-5.62.73-8.41,1.21-2.24.38-2.58,1.71-1.28,4,5.26,0,10.75.07,16.25,0Q196.34,83.07,202.58,82.59Zm-8,97.57c0-8-2.37-15.39-5.3-22.59-2.62-6.44-6.41-12.27-12.76-15.7-7.23-3.91-14.38-8.1-22-11.09a88.06,88.06,0,0,0-20-4.91c-8.16-1.13-16.4-.13-24.53,1.29A34.44,34.44,0,0,0,89,139.26c-1.5,1.77-2.08,3.56-1.11,5.77.56,1.29,1,2.65,1.47,4.09,8-6.24,16.95-9.17,26.4-10.27,11.53-1.33,23-.87,34.3,2.44,5.44,1.59,11.08,2.57,16,5.47,8.74,5.1,15.44,11.92,16.95,22.42.87,6.05,1.18,12.19,1.66,18.3.51,6.41-1.55,12.13-5,17.38-3.66,5.54-7.93,10.63-13.94,13.67-5.42,2.75-11.45,3.67-17.45,3.69-9,0-17.93-.32-26.6-3.32-11.77-4.07-23.38-8.32-32.24-18-.17,1.19-.35,2.19-.46,3.2-.5,4.6.52,8.67,4.44,11.54,2.54,1.85,5.2,3.53,7.8,5.29,7.09,4.79,15.18,7.22,23.38,8.77a104.39,104.39,0,0,0,31.82.75,52.82,52.82,0,0,0,15.82-4.59c6.95-3.25,11.76-9.21,15.39-15.85C192.72,200.73,194.52,190.64,194.53,180.16Zm-12.65,9c0-4,.35-8-.78-12-.92-3.29-1.11-6.77-1.86-10.12a19.14,19.14,0,0,0-2-5.31,29.67,29.67,0,0,0-15-13c-14.69-5.89-29.8-8.6-45.75-6.77a45.64,45.64,0,0,0-22.27,8.69c-3.26,2.38-5.14,5.27-5.09,9.45.08,5.69-.06,11.38-.14,17.08-.06,4.64-.19,9.28-.28,13.93-.08,3.76,1.77,6.38,4.53,8.81a61.89,61.89,0,0,0,17.4,10.94c10.25,4.26,20.55,8.28,32,7.76,1.16.05,2.35.15,3.55.15,6.81,0,13.5-.92,19.56-4.08,6.51-3.39,10.3-9.42,13.63-15.7A20.6,20.6,0,0,0,181.88,189.14Zm-17-104.49c2.4-.76,4.26-3.59,3.75-5.51-2.36-8.86-6.67-16.3-15.44-20.29-2.45-1.11-5-2.09-7.42-3.15-8.77-3.78-17.62-4.36-26.39-.24A25.56,25.56,0,0,0,113,60.13c-4.58,4.33-5.63,10.41-7.42,16.07a24.84,24.84,0,0,0-1.09,11.92c.42,2.44,1.35,3.76,3.89,4,3.84.4,7.66,1,11.28,1.48,4-.26,7.71-.66,11.44-.7C143,92.8,153.8,88.13,164.87,84.65ZM152.25,283.87c.34-2.25-1.16-2.81-4.1-2.47-.27,3.59-.87,7.12-.69,10.61s-.89,7.13.41,11.55C151,296.63,151.3,290.17,152.25,283.87ZM144,50.82c.43-5.93-.78-11.33-1.83-16.72a5.88,5.88,0,0,0-1.43-3.2,4.82,4.82,0,0,0-3.53-1.15c-.75.14-1.77,1.81-1.72,2.74.24,4.74.67,9.49,1.34,14.19a4.68,4.68,0,0,0,2.4,2.75A23.58,23.58,0,0,0,144,50.82Zm-10.72-2.65c-.24-10.64-1.3-20.86-8.72-29.57-3,.08-4.24,1.87-4.61,4.24a33,33,0,0,0-.45,7.09c.32,5.06.86,10.11,1.42,15.15.19,1.71.68,3.39,1,5ZM85.43,175.1c0-4.16,0-8.31,0-13l-20.28,1.42c-1.45,8.86.74,59.7,2.63,66.09,4,0,8,.1,12,0s5.07-1.33,5.11-5.62C85.05,207.69,85.26,191.4,85.43,175.1Zm.12-17.77c-.36-2.27-.75-4.67-1.21-7.5-19.51.48-38.46,3.65-57.67,4.92-.15,2.44-.28,4.5-.42,6.81C33.05,162.55,80.53,159.22,85.54,157.33ZM83,145.07l1-.74c-2-8.26-7.24-14.44-13.05-20.26-.59-.59-1.64-.7-2.43-1.11C62.93,120.13,57,120,51,119.9a21.89,21.89,0,0,0-10.72,2.71c-4.93,2.52-8.47,6.6-12.35,10.34a29.81,29.81,0,0,0-6.74,9.4c-4.62,10.37-4.41,21.54-5.53,32.5a.65.65,0,0,0,.08.43c.64.73,1.25,1.95,2,2s1.86-1,2.06-1.77a70.93,70.93,0,0,0,1.39-7.5c1.43-9.19,3.18-18.28,7.57-26.63,3.05-5.82,7-10.79,13.17-13.58s12.89-2.45,18.94-.85a30.44,30.44,0,0,1,18.5,13.31C80.37,142,81.75,143.48,83,145.07ZM76.26,147a5.74,5.74,0,0,0,1.59-.5c-2.09-8.79-14.13-16.94-24.5-17.11-9.47-.16-23.64,9.78-24.88,20.85,1.23.28,2.26.82,3.22.7C46.51,149.18,61.29,147,76.26,147ZM62.45,224.86c0-7.17,0-14.18-.13-21.34-.3-11.95-.73-23.82-1.18-35.77-.14-3.88-1.13-4.74-5-4.54-2.92.15-5.82.61-8.86.93,0,6.68-.16,12.81,0,18.91.21,6.42.92,12.83,1.14,19.25.25,7.32.16,14.34.29,21.67a33.2,33.2,0,0,0,.58,5.19h12.7A31,31,0,0,0,62.45,224.86ZM45,231c.1-1.59.28-2.73.23-3.86-.4-9.86-.84-19.72-1.26-29.58-.32-7.77-.43-15.56-1-23.3-.23-3,.42-6.31-1.9-9.33l-16.06,1.36c-.5,5.08-1.15,9.53-1.33,14-.43,10.62-.88,21.24-.82,31.85,0,5.35,1.07,10.7,1.79,16,.32,2.4,1.76,3.59,4.37,3.45C34.17,231.29,39.39,231.18,45,231ZM20.5,184.61c.18-1.63-.42-2.43-2.2-2.59-4.31-.4-6.31-2.56-6.5-6.78-.09-1.83-.1-3.65-.15-5.48l-1.66.1c.5,6.89,1,13.77,1.49,20.73,1.79.15,3.13.38,4.45.36,2.68,0,3.67-1,4.18-3.68C20.29,186.39,20.4,185.5,20.5,184.61Z"/><path class="cls-1" d="M272.06,133.31a9.58,9.58,0,0,1,2.43.95,4.56,4.56,0,0,1-3.94,3.51,62.09,62.09,0,0,1-9.77,1c-5.38.09-10.77-.12-16.16-.29-2.22-.07-4.44-.33-6.66-.53-1.76-.16-3.52-.37-5.7-.61l-5.32-12.85c3.42,1.5,6.21,2.59,8.89,3.91,5.38,2.64,11.15,3.13,17,3.42C259.25,132.19,265.65,132.77,272.06,133.31Z"/><path class="cls-2" d="M236.08,172.36c.86,10.29-.81,20.3-3.32,30.25a116.59,116.59,0,0,1-13.25,31.79c-3.31,5.5-6.5,11.26-10.8,15.91A108,108,0,0,1,192,264.48c-10.36,7.38-22.31,10.45-34.89,11.48-13.66,1.13-26.9-1-39.85-5-7.27-2.28-14.42-5-21.5-7.8-5.81-2.3-10.31-6.53-14.58-11-.31-.32-.46-.84-.82-1.05-6.17-3.71-5.63-10-6.2-16.36,2.92-.72,5.52-1.34,8.11-2,3.91-1,5-2.11,5.44-6,.23-1.93.13-3.9.23-5.84.08-1.44.24-2.87.44-5.14,3.34,4.65,7.37,6.84,11.64,8.73a37.68,37.68,0,0,1,4.33,2.35c9.12,5.56,19.28,7.07,29.67,7.67,6.27.36,12.57,1.1,18.83.85,11.78-.48,22.34-4.24,30.12-13.69A133,133,0,0,0,191,210.89c3.42-5.12,3.93-11.25,5.21-17.07.73-3.35.81-6.83,1.31-10.24,1.28-8.74-.39-17-4.16-24.86-4-8.47-9.22-16.1-17-21.64a33.13,33.13,0,0,0-7.07-3.85c-9.87-3.85-19.7-7.85-30.2-9.79-7-1.3-14-.71-21.08-.34-9.64.5-18.37,4.05-26.88,8.19-2.22,1.08-4,3-6.16,4.73l-6.27-11.84c2.56-5.1,5-10.61,9.51-14.69s9-7.94,13.71-11.62a7.71,7.71,0,0,1,5.35-1.63c11.27,2,22.39.83,33.58-.67,9-1.21,17.58-3.68,25.3-8.63a9,9,0,0,1,8-1,27.87,27.87,0,0,0,9.33.82c9.25-.63,15.54,4.2,21.17,10.65a161.4,161.4,0,0,1,19,27,48.38,48.38,0,0,1,2.56,5.72c1.77,4.42,3.49,8.86,5.49,14l-17.39-4.67c-1.93,6.94,0,22.06,3.06,25.38,6.43-3.68,9.65-10.48,15.13-15.7.61,1,1.43,1.77,1.52,2.62Q235.22,162.07,236.08,172.36Zm-27.89-65c-.62-.69-1.1-1.69-1.87-2a92.8,92.8,0,0,0-8.83-3.11,3.17,3.17,0,0,0-2.74.47c-1,1.25,0,2.26,1.23,2.75,3.16,1.29,6.36,2.47,9.77,3.78Zm-.8,9.67A2,2,0,0,0,205,114.7a3,3,0,0,0-1.86,2.34c.1,1,1.23,1.93,2.47,3.65C206.49,118.92,207.3,118,207.4,117Z"/><path class="cls-3" d="M230.3,147.14c-3.52,5.44-6.53,10.31-12,13.59-2.78-5.43-1.47-11.07-2.73-17.57Z"/><path d="M206.32,105.36c.77.32,1.26,1.32,1.87,2l-2.45,1.88c-3.41-1.32-6.61-2.5-9.77-3.78-1.2-.49-2.2-1.5-1.23-2.75a3.17,3.17,0,0,1,2.74-.47A92.8,92.8,0,0,1,206.32,105.36Z"/><path d="M205,114.7A2,2,0,0,1,207.4,117c-.1,1-.91,1.88-1.83,3.64-1.24-1.72-2.37-2.63-2.47-3.65A3,3,0,0,1,205,114.7Z"/><path class="cls-1" d="M207.94,79.76c-1.16,2.31-3.3,2.67-5.36,2.83q-6.24.49-12.5.59c-5.49.09-11,0-16.25,0-1.3-2.27-1-3.6,1.28-4,2.79-.48,5.59-1,8.41-1.21q8.93-.68,17.88-1C203.92,76.9,206.51,77.06,207.94,79.76Z"/><path class="cls-4" d="M189.23,157.57c2.93,7.21,5.31,14.63,5.3,22.59,0,10.48-1.81,20.57-6.86,29.8-3.63,6.64-8.45,12.61-15.39,15.85a52.82,52.82,0,0,1-15.82,4.59,104.39,104.39,0,0,1-31.82-.75c-8.2-1.55-16.29-4-23.38-8.77-2.6-1.76-5.27-3.44-7.8-5.29-3.92-2.86-4.93-6.93-4.44-11.54.11-1,.29-2,.46-3.2,8.86,9.73,20.46,14,32.24,18,8.67,3,17.63,3.36,26.6,3.32,6,0,12-.95,17.45-3.69,6-3,10.28-8.13,13.94-13.67,3.46-5.25,5.53-11,5-17.38-.49-6.11-.79-12.24-1.66-18.3-1.5-10.5-8.21-17.31-16.95-22.42-5-2.9-10.6-3.87-16-5.47-11.28-3.31-22.77-3.77-34.3-2.44-9.45,1.09-18.39,4-26.4,10.27-.51-1.44-.91-2.8-1.47-4.09-1-2.21-.39-4,1.11-5.77A34.44,34.44,0,0,1,110,127.16c8.13-1.42,16.37-2.41,24.53-1.29a88.06,88.06,0,0,1,20,4.91c7.61,3,14.77,7.18,22,11.09C182.83,145.3,186.62,151.13,189.23,157.57Z"/><path class="cls-2" d="M181.1,177.12c1.13,4,.79,8,.78,12a20.6,20.6,0,0,1-2.55,9.85c-3.34,6.28-7.13,12.31-13.63,15.7-6.06,3.16-12.76,4.09-19.56,4.08-1.2,0-2.39-.09-3.55-.15-11.44.52-21.74-3.5-32-7.76a61.89,61.89,0,0,1-17.4-10.94c-2.76-2.43-4.6-5.06-4.53-8.81.09-4.64.22-9.28.28-13.93.08-5.69.22-11.39.14-17.08-.05-4.17,1.83-7.07,5.09-9.45A45.64,45.64,0,0,1,116.44,142c15.94-1.83,31.06.88,45.75,6.77a29.67,29.67,0,0,1,15,13,19.14,19.14,0,0,1,2,5.31C180,170.35,180.18,173.83,181.1,177.12Zm-12.18,25.52c5.09-5,7.68-11,6.86-18.19a27.83,27.83,0,0,0-.73-5.33c-1.48-4.63-2.62-9.46-5.82-13.31l-1.06.27a7.35,7.35,0,0,0,.16,2.38c.87,2.05,2,4,2.91,6,4.3,9.48,2.35,20.09-5.63,27a29.41,29.41,0,0,1-5.14,3.56,4.6,4.6,0,0,1-5.43-1c-1.36-1.32-1.23-3.26-.1-5,.49-.74.71-1.65,1.23-2.36,4.32-6,4.17-12.66,2.39-19.35-.54-2-2.17-3.81-3.51-5.54-.35-.45-1.5-.27-3.12-.5,1.1,2.08,1.84,3.45,2.56,4.84,3.33,6.42,3.64,12.72-.23,19.13a29.54,29.54,0,0,0-2.87,7.48,4.21,4.21,0,0,0,.87,3.22,7.77,7.77,0,0,0,10.83,1.49A46.78,46.78,0,0,0,168.92,202.64Z"/><path d="M175.79,184.45c.81,7.23-1.78,13.22-6.86,18.19a46.78,46.78,0,0,1-5.83,4.89A7.77,7.77,0,0,1,152.27,206a4.21,4.21,0,0,1-.87-3.22,29.54,29.54,0,0,1,2.87-7.48c3.87-6.41,3.56-12.72.23-19.13-.72-1.39-1.46-2.76-2.56-4.84,1.62.23,2.77.06,3.12.5,1.34,1.73,3,3.51,3.51,5.54,1.78,6.68,1.93,13.33-2.39,19.35-.51.71-.74,1.63-1.23,2.36-1.13,1.71-1.26,3.65.1,5a4.6,4.6,0,0,0,5.43,1,29.41,29.41,0,0,0,5.14-3.56c8-6.88,9.93-17.49,5.63-27-.92-2-2-4-2.91-6a7.35,7.35,0,0,1-.16-2.38l1.06-.27c3.2,3.85,4.33,8.68,5.82,13.31A27.83,27.83,0,0,1,175.79,184.45Z"/><path class="cls-1" d="M168.62,79.14c.51,1.92-1.35,4.76-3.75,5.51C153.8,88.13,143,92.8,131.1,92.93c-3.73,0-7.45.44-11.44.7-3.62-.49-7.44-1.08-11.28-1.48-2.54-.27-3.46-1.59-3.89-4a24.84,24.84,0,0,1,1.09-11.92c1.79-5.66,2.84-11.74,7.42-16.07a25.56,25.56,0,0,1,6.37-4.67c8.77-4.12,17.62-3.54,26.39.24,2.47,1.06,5,2,7.42,3.15C162,62.84,166.27,70.28,168.62,79.14Z"/><path class="cls-1" d="M148.14,281.4c2.95-.34,4.45.22,4.1,2.47-1,6.31-1.27,12.77-4.38,19.7-1.31-4.42-.23-8-.41-11.55S147.88,285,148.14,281.4Z"/><path class="cls-5" d="M142.18,34.1c1.06,5.4,2.27,10.79,1.83,16.72a23.58,23.58,0,0,1-4.77-1.4,4.68,4.68,0,0,1-2.4-2.75c-.67-4.7-1.1-9.45-1.34-14.19,0-.93,1-2.59,1.72-2.74a4.82,4.82,0,0,1,3.53,1.15A5.88,5.88,0,0,1,142.18,34.1Z"/><path class="cls-5" d="M124.58,18.61c7.42,8.71,8.48,18.92,8.72,29.57l-11.34,2c-.34-1.65-.83-3.33-1-5-.55-5-1.1-10.09-1.42-15.15a33,33,0,0,1,.45-7.09C120.34,20.48,121.58,18.69,124.58,18.61Z"/><path class="cls-4" d="M85.43,162.11c0,4.68,0,8.83,0,13-.17,16.29-.37,32.58-.54,48.88,0,4.29-1,5.48-5.11,5.62s-8,0-12,0c-1.89-6.39-4.08-57.24-2.63-66.09Z"/><path class="cls-4" d="M84.33,149.83c.46,2.83.85,5.23,1.21,7.5-5,1.89-52.49,5.22-59.31,4.24.14-2.32.28-4.37.42-6.81C45.87,153.48,64.82,150.31,84.33,149.83Z"/><path class="cls-4" d="M83.93,144.33l-1,.74c-1.23-1.59-2.61-3.09-3.67-4.8A30.44,30.44,0,0,0,60.81,127c-6.06-1.6-12.73-2-18.94.85s-10.12,7.76-13.17,13.58c-4.38,8.35-6.14,17.44-7.57,26.63a70.93,70.93,0,0,1-1.39,7.5c-.2.77-1.42,1.84-2.06,1.77s-1.33-1.28-2-2a.65.65,0,0,1-.08-.43c1.12-11,.91-22.13,5.53-32.5a29.81,29.81,0,0,1,6.74-9.4c3.88-3.74,7.42-7.82,12.35-10.34A21.89,21.89,0,0,1,51,119.9c6,.12,12,.23,17.48,3.06.8.41,1.84.52,2.43,1.11C76.69,129.89,82,136.07,83.93,144.33Z"/><path class="cls-4" d="M77.85,146.48a5.74,5.74,0,0,1-1.59.5c-15,.06-29.75,2.2-44.56,3.95-1,.11-2-.42-3.22-.7,1.24-11.07,15.41-21,24.88-20.85C63.73,129.54,75.77,137.69,77.85,146.48Z"/><path class="cls-4" d="M62.32,203.67c.18,7.16.13,14,.13,21.19a31,31,0,0,1-.38,4.29H49.36a33.17,33.17,0,0,1-.58-5.18c-.13-7.32,0-14.5-.29-21.82-.22-6.42-.93-12.75-1.14-19.17-.2-6.1,0-12.18,0-18.86,3-.32,5.94-.74,8.86-.9,3.83-.19,4.82.71,5,4.59C61.59,179.76,62,191.72,62.32,203.67Z"/><path class="cls-4" d="M45.19,227.11c0,1.14-.13,2.27-.23,3.86-5.57.2-10.79.32-16,.61-2.62.15-4-1-4.37-3.45-.72-5.33-1.76-10.68-1.79-16-.05-10.62.4-21.24.82-31.85.18-4.47.83-8.92,1.33-14L41,164.89c2.32,3,1.67,6.35,1.9,9.33.61,7.75.72,15.54,1,23.3C44.35,207.39,44.8,217.25,45.19,227.11Z"/><path class="cls-2" d="M18.3,182c1.77.16,2.38,1,2.2,2.59-.1.89-.21,1.78-.38,2.66-.51,2.72-1.5,3.64-4.18,3.68-1.33,0-2.66-.21-4.45-.36-.5-7-1-13.85-1.49-20.73l1.66-.1c0,1.83.06,3.65.15,5.48C12,179.45,14,181.62,18.3,182Z"/><path class="cls-6" d="M169.24,165.81c3.2,3.85,4.33,8.68,5.82,13.31a27.83,27.83,0,0,1,.73,5.33c.81,7.23-1.78,13.22-6.86,18.19a46.78,46.78,0,0,1-5.83,4.89A7.77,7.77,0,0,1,152.27,206a4.21,4.21,0,0,1-.87-3.22,29.54,29.54,0,0,1,2.87-7.48c3.87-6.41,3.56-12.72.23-19.13-.72-1.39-1.46-2.76-2.56-4.84,1.62.23,2.77.06,3.12.5,1.34,1.73,3,3.51,3.51,5.54,1.78,6.68,1.93,13.33-2.39,19.35-.51.71-.74,1.63-1.23,2.36-1.13,1.71-1.26,3.65.1,5a4.6,4.6,0,0,0,5.43,1,29.41,29.41,0,0,0,5.14-3.56c8-6.88,9.93-17.49,5.63-27-.92-2-2-4-2.91-6a7.35,7.35,0,0,1-.16-2.38Z"/><path class="cls-6" d="M102.64,93.85c-2.72-4.51-2.51-9.12-1.19-13.65,1.59-5.44,3.33-10.86,5.41-16.13s3.34-7.75,12.55-12.71c-.35-2.3-.77-4.77-1.08-7.25-.85-6.81-1.72-13.63-2.42-20.47a9.11,9.11,0,0,1,.62-4.39c.9-2.08,1.23-4.94,4.43-5s6.42,0,8.22,3.39c1.54,2.88,3,5.81,4.68,9l1.24-.85c3-2.06,5-2,6.73,1,3.55,6.1,6.7,12.4,6,19.85-.17,1.77,0,3.57,0,5.25,15.57,7.82,14.91,6.35,23.56,23.48,4.89,1.29,9.7-.56,14.58-.84s9.52-1,14.3-1.24c3.38-.17,6.45,1.24,9.18,3.14s2.74,4,.54,6.42-5.1,3-8.1,3.44c-1.29.18-2.6.17-5,.3,3.46,3,6.14,5.53,9,7.85,7.55,6.22,12.82,14.17,17.25,22.72,1,1.83,1.87,3.2,3.83,4,2.6,1.13,5,2.69,7.54,4,5.78,3,12.14,3,18.4,3.53,6.56.54,13.11,1.08,19.66,1.73,2,.19,3.89.6,4.23,3.19.38,2.8-.38,4.54-2.86,6-4,2.3-8.4,2-12.72,2.14-5.54.23-11.08.55-16.61.45-3.37-.06-6.74-.82-10.53-1.32.37,1.81.65,3.67,1.12,5.47a139.79,139.79,0,0,1,4.18,30.17c.32,8.47-.15,16.81-2.5,24.87-2,7-5,13.75-7.7,20.55a104.31,104.31,0,0,1-4.73,10.66c-6.21,11.69-13.54,22.62-23.41,31.56a36.21,36.21,0,0,1-9.44,5.82c-6.27,2.83-12.67,5.42-19.16,7.69-4.2,1.47-8.67,2.2-13,3.27-.57.14-1.12.33-2.21.65-.35,3.13-1,6.36-1,9.59-.12,7.14-3.3,13.32-5.95,19.64-1.16,2.77-4,2.68-4.8-.18a71.07,71.07,0,0,1-2.13-13.65c-.35-5.35-.08-10.73-.08-16.34-1.08-.27-2.06-.58-3.06-.77-8.5-1.63-17-3.13-25.5-4.93a43.7,43.7,0,0,1-10.17-3.28c-7-3.44-14-6.89-20.52-11.17a56.47,56.47,0,0,1-11.72-11.05c-1.79-2.13-2.28-5.45-3.11-8.29a40.79,40.79,0,0,1-.9-5.46c-8.22-2.56-16.16-.83-24-.81-5.7,0-11.39.23-17.09.23-3.87,0-5.92-1.64-6.26-5.43-.85-9.54-1.44-19.1-2.19-28.64-.15-1.91-.57-3.78-.91-6-2.25-.43-4.29-1.18-6.29-1.1-2.37.09-3.38-1.18-3.88-3-2-7-1.88-14.25-.85-21.4.39-2.72,3.07-3.44,5.82-4.11.63-3.9,1.24-7.86,1.92-11.81a48.2,48.2,0,0,1,15.37-28.25A41.85,41.85,0,0,1,55,114.78a8.74,8.74,0,0,1,3.51.5c4.92,1.75,9.79,3.63,14.69,5.45.68.25,1.38.44,2.21.7,1.3-2.32,2.7-4.43,3.72-6.72,2.68-6,7.15-10.24,12.6-13.66C95.25,98.83,98.69,96.46,102.64,93.85Z"/><path class="cls-6" d="M74.16,234.73c.57,6.39,0,12.65,6.2,16.36.36.21.51.73.82,1.05,4.27,4.45,8.77,8.68,14.58,11,7.08,2.82,14.23,5.52,21.5,7.8,12.95,4.06,26.19,6.18,39.85,5,12.58-1,24.53-4.1,34.89-11.48a108,108,0,0,0,16.7-14.17c4.31-4.65,7.5-10.41,10.8-15.91a116.59,116.59,0,0,0,13.25-31.79c2.51-10,4.18-20,3.32-30.25q-.85-10.3-2-20.58c-.09-.84-.91-1.61-1.52-2.62-5.47,5.22-8.69,12-15.13,15.7-3-3.32-5-18.44-3.06-25.38l17.39,4.67c-2-5.1-3.72-9.54-5.49-14a48.38,48.38,0,0,0-2.56-5.72,161.4,161.4,0,0,0-19-27c-5.63-6.45-11.92-11.28-21.17-10.65a27.87,27.87,0,0,1-9.33-.82,9,9,0,0,0-8,1c-7.72,4.95-16.25,7.41-25.3,8.63-11.18,1.5-22.31,2.68-33.58.67A7.71,7.71,0,0,0,102,97.88c-4.73,3.68-9.27,7.6-13.71,11.62s-6.95,9.59-9.51,14.69L85,136c2.15-1.69,3.94-3.65,6.16-4.73,8.5-4.14,17.23-7.69,26.88-8.19,7-.36,14.06-1,21.08.34,10.5,1.94,20.34,5.94,30.2,9.79a33.13,33.13,0,0,1,7.07,3.85c7.75,5.54,12.93,13.17,17,21.64,3.77,7.88,5.45,16.12,4.16,24.86-.5,3.4-.58,6.89-1.31,10.24-1.28,5.82-1.79,11.95-5.21,17.07A133,133,0,0,1,183,221.61c-7.78,9.45-18.34,13.22-30.12,13.69-6.26.26-12.55-.49-18.83-.85-10.39-.6-20.56-2.11-29.67-7.67a37.68,37.68,0,0,0-4.33-2.35c-4.27-1.89-8.3-4.08-11.64-8.73-.2,2.27-.36,3.7-.44,5.14-.1,1.94,0,3.91-.23,5.84-.46,3.92-1.53,5-5.44,6C79.68,233.38,77.08,234,74.16,234.73Z"/><path class="cls-6" d="M181.94,184.07a25.89,25.89,0,0,0-.83-7c-.92-3.29-1.11-6.77-1.86-10.12a19.14,19.14,0,0,0-2-5.31,29.67,29.67,0,0,0-15-13c-14.69-5.89-29.8-8.6-45.75-6.77a45.64,45.64,0,0,0-22.27,8.69c-3.26,2.38-5.14,5.27-5.09,9.45.08,5.69-.06,11.38-.14,17.08-.06,4.64-.19,9.28-.28,13.93-.08,3.76,1.77,6.38,4.53,8.81a61.89,61.89,0,0,0,17.4,10.94c10.25,4.26,20.55,8.28,32,7.76,1.16.05,2.35.15,3.55.15,6.81,0,13.5-.92,19.56-4.08,6.51-3.39,10.3-9.42,13.63-15.7a20.6,20.6,0,0,0,2.55-9.85C181.89,187.44,182,185.75,181.94,184.07Z"/><path class="cls-6" d="M89.48,200.86c-.17,1.19-.35,2.19-.46,3.2-.5,4.6.52,8.67,4.44,11.54,2.54,1.85,5.2,3.53,7.8,5.29,7.09,4.79,15.18,7.22,23.38,8.77a104.39,104.39,0,0,0,31.82.75,52.82,52.82,0,0,0,15.82-4.59c6.95-3.25,11.76-9.21,15.39-15.85,5-9.24,6.85-19.33,6.86-29.8,0-8-2.37-15.39-5.3-22.59-2.62-6.44-6.41-12.27-12.76-15.7-7.23-3.91-14.38-8.1-22-11.09a88.06,88.06,0,0,0-20-4.91c-8.16-1.13-16.4-.13-24.53,1.29A34.44,34.44,0,0,0,89,139.26c-1.5,1.77-2.08,3.56-1.11,5.77.56,1.29,1,2.65,1.47,4.09,8-6.24,16.95-9.17,26.4-10.27,11.53-1.33,23-.87,34.3,2.44,5.44,1.59,11.08,2.57,16,5.47,8.74,5.1,15.44,11.92,16.95,22.42.87,6.05,1.18,12.19,1.66,18.3.51,6.41-1.55,12.13-5,17.38-3.66,5.54-7.93,10.63-13.94,13.67-5.42,2.75-11.45,3.67-17.45,3.69-9,0-17.93-.32-26.6-3.32C109.95,214.83,98.34,210.58,89.48,200.86Z"/><path class="cls-6" d="M119.66,93.63c4-.26,7.71-.66,11.44-.7,11.91-.13,22.7-4.8,33.77-8.28,2.4-.76,4.26-3.59,3.75-5.51-2.36-8.86-6.67-16.3-15.44-20.29-2.45-1.11-5-2.09-7.42-3.15-8.77-3.78-17.62-4.36-26.39-.24A25.56,25.56,0,0,0,113,60.13c-4.58,4.33-5.63,10.41-7.42,16.07a24.84,24.84,0,0,0-1.09,11.92c.42,2.44,1.35,3.76,3.89,4C112.22,92.55,116,93.14,119.66,93.63Z"/><path class="cls-6" d="M45,231c.1-1.59.28-2.73.23-3.86-.4-9.86-.84-19.72-1.26-29.58-.32-7.77-.43-15.56-1-23.3-.23-3,.42-6.31-1.9-9.33l-16.06,1.36c-.5,5.08-1.15,9.53-1.33,14-.43,10.62-.88,21.24-.82,31.85,0,5.35,1.07,10.7,1.79,16,.32,2.4,1.76,3.59,4.37,3.45C34.17,231.29,39.39,231.18,45,231Z"/><path class="cls-6" d="M65.15,163.54c-1.45,8.86.74,59.7,2.63,66.09,4,0,8,.1,12,0s5.07-1.33,5.11-5.62c.17-16.29.37-32.58.54-48.88,0-4.16,0-8.31,0-13Z"/><path class="cls-7" d="M62.07,229.66c.17-2,.39-3.21.38-4.54,0-7.17,0-14.31-.13-21.47-.3-11.95-.73-23.88-1.18-35.83-.14-3.88-1.13-4.77-5-4.57-2.92.15-5.82.59-8.86.92,0,6.68-.16,12.8,0,18.9.21,6.42.92,12.82,1.14,19.25.25,7.32.16,14.59.29,21.91,0,1.74.36,3.43.58,5.43Z"/><path class="cls-6" d="M28.47,150.23c1.23.28,2.26.82,3.22.7,14.82-1.75,29.6-3.89,44.56-3.95a5.74,5.74,0,0,0,1.59-.5c-2.09-8.79-14.13-16.94-24.5-17.11C43.89,129.21,29.72,139.16,28.47,150.23Z"/><path class="cls-6" d="M83,145.07l1-.74c-2-8.26-7.24-14.44-13.05-20.26-.59-.59-1.64-.7-2.43-1.11C62.93,120.13,57,120,51,119.9a21.89,21.89,0,0,0-10.72,2.71c-4.93,2.52-8.47,6.6-12.35,10.34a29.81,29.81,0,0,0-6.74,9.4c-4.62,10.37-4.41,21.54-5.53,32.5a.65.65,0,0,0,.08.43c.64.73,1.25,1.95,2,2s1.86-1,2.06-1.77a70.93,70.93,0,0,0,1.39-7.5c1.43-9.19,3.18-18.28,7.57-26.63,3.05-5.82,7-10.79,13.17-13.58s12.89-2.45,18.94-.85a30.44,30.44,0,0,1,18.5,13.31C80.37,142,81.75,143.48,83,145.07Z"/><path class="cls-6" d="M85.4,156.47c-.32-2-.67-4.17-1.07-6.64-19.51.48-38.46,3.65-57.67,4.92-.15,2.44-.28,4.5-.42,6.81,6.82,1,54.3-2.35,59.31-4.24C85.5,157,85.45,156.76,85.4,156.47Z"/><path class="cls-6" d="M124.58,18.61c-3,.08-4.24,1.87-4.61,4.24a33,33,0,0,0-.45,7.09c.32,5.06.86,10.11,1.42,15.15.19,1.71.68,3.39,1,5l11.34-2C133.05,37.53,132,27.32,124.58,18.61Z"/><path class="cls-6" d="M274.49,134.25a9.58,9.58,0,0,0-2.43-.95c-6.4-.54-12.81-1.12-19.23-1.45-5.86-.3-11.63-.78-17-3.42-2.68-1.32-5.47-2.41-8.89-3.91l5.32,12.85c2.18.23,3.94.45,5.7.61,2.22.2,4.44.46,6.66.53,5.38.17,10.77.38,16.16.29a62.09,62.09,0,0,0,9.77-1A4.56,4.56,0,0,0,274.49,134.25Z"/><path class="cls-6" d="M207.94,79.76c-1.42-2.71-4-2.86-6.53-2.77q-8.95.35-17.88,1c-2.82.21-5.62.73-8.41,1.21-2.24.38-2.58,1.71-1.28,4,5.26,0,10.75.07,16.25,0q6.26-.11,12.5-.59C204.64,82.43,206.77,82.07,207.94,79.76Z"/><path class="cls-6" d="M215.52,143.16c1.26,6.5,0,12.14,2.73,17.57,5.52-3.28,8.53-8.15,12-13.59Z"/><path class="cls-6" d="M144,50.82c.43-5.93-.78-11.33-1.83-16.72a5.88,5.88,0,0,0-1.43-3.2,4.82,4.82,0,0,0-3.53-1.15c-.75.14-1.77,1.81-1.72,2.74.24,4.74.67,9.49,1.34,14.19a4.68,4.68,0,0,0,2.4,2.75A23.58,23.58,0,0,0,144,50.82Z"/><path class="cls-6" d="M11.65,169.75l-1.66.1c.5,6.89,1,13.77,1.49,20.73,1.79.15,3.13.38,4.45.36,2.68,0,3.67-1,4.18-3.68.17-.88.28-1.77.38-2.66.18-1.63-.42-2.43-2.2-2.59-4.31-.4-6.31-2.56-6.5-6.78C11.71,173.41,11.69,171.58,11.65,169.75Z"/><path class="cls-6" d="M148.14,281.4c-.27,3.59-.87,7.12-.69,10.61s-.89,7.13.41,11.55c3.1-6.93,3.43-13.39,4.38-19.7C152.59,281.61,151.09,281.06,148.14,281.4Z"/><path class="cls-6" d="M205.75,109.26c-3.41-1.32-6.61-2.5-9.77-3.78-1.2-.49-2.2-1.5-1.23-2.75a3.17,3.17,0,0,1,2.74-.47,92.8,92.8,0,0,1,8.83,3.11c.77.32,1.26,1.32,1.87,2Z"/><path class="cls-6" d="M205.57,120.68c-1.24-1.72-2.37-2.63-2.47-3.65A3,3,0,0,1,205,114.7,2,2,0,0,1,207.4,117C207.3,118,206.49,118.92,205.57,120.68Z"/></svg>