<svg id="圖層_1" data-name="圖層 1" xmlns="http://www.w3.org/2000/svg" viewBox="0 0 287.81 324.7"><defs><style>.cls-1{fill:#fff;}.cls-2{fill:#545757;}.cls-3{fill:#e6aa2b;}.cls-4{fill:#cf543f;}.cls-5{fill:#2b6f87;}.cls-6{fill:#c2392a;}.cls-7{fill:none;}</style></defs><title>chks</title><path d="M269.43,172.25c4.87,1.06,4.8,1,4.3,5.77a123.46,123.46,0,0,0-1,12.54c0,5.37-2.32,8.54-7.59,9.44a8,8,0,0,0-1.5.67c-.59,10-1.17,20.15-1.76,30.27a25.37,25.37,0,0,1-.13,2.69c-.82,4.68-2.1,6.11-6.87,6.69a112.54,112.54,0,0,1-11.63.65c-3.58.06-7.16-.18-10.74-.22s-7.18,0-10.31,0c-3.15,4.81-5.75,9.9-9.43,14s-8.37,7.21-12.65,10.71c-1.27,1-2.82,1.78-4,2.94-5,5-11.3,8-17.57,10.52-7.55,3-15.49,5.74-24,4.85a9.59,9.59,0,0,0-1.79,0c-3.23.26-4,1-3.72,4.21.6,6.27,1.45,12.5,2,18.77.42,4.71.55,9.45.8,14.07-4.71,1.35-6.85.55-8.16-3.36-2-5.81-4.26-11.55-4.18-17.85a10.12,10.12,0,0,0-.45-2.65c-1.07-4-2.18-8-3.33-12.13a3.32,3.32,0,0,0-1.08-.31c-5.92.12-11.52-1.46-17.24-2.74-8.61-1.92-16.43-5.68-24.28-9.37a43,43,0,0,1-10-6.8c-6.93-6.14-13.71-12.44-18.49-20.6-2.64-4.51-5.93-8.64-7.47-13.75A90,90,0,0,1,53,203.44c.1-6.12-.2-12.25-.39-18.38-.17-5.57.93-11,1.43-16.49.36-4,.88-7.47,2.91-10.87.62-1,.45-2.56.71-4.38-1.34.48-2.27.75-3.14,1.14-8.88,3.86-18,6.43-27.84,5.69a11,11,0,0,1-7.86-3.82c-2-2.38-1.73-4.68,1.09-6.24a29.7,29.7,0,0,1,5.39-2.2c9-2.87,18-5.56,26.93-8.57,2.94-1,5.62-2.75,8.41-4.18s4.38-3.78,5.51-6.75a55.61,55.61,0,0,1,13.13-20.63c4.18-4,8.63-7.74,12.95-11.63.64-.58,1.17-1.3,2.17-2.43a17.9,17.9,0,0,0-2.81-.29c-6.12.45-11.9-1.17-17.61-3-3-1-4.67-3.92-3.86-6.25A4.38,4.38,0,0,1,74.54,81c5.09-.08,10.17-.17,15.26-.31,4.32-.12,8.65-.21,13-.5,2.62-.17,4.08-1.54,4.94-4.32,3.5-11.35,9.77-20.71,20.61-26.37a5.07,5.07,0,0,0,2.83-4.19c1.18-7.23,2.59-14.43,3.85-21.64a5.56,5.56,0,0,1,3.1-4.14,8.32,8.32,0,0,0,4.81-7.25c.55-5.48,4.54-7.72,9.27-5.77a6.66,6.66,0,0,1,3.45,3.2c1.24,3.15,2.6,6.38,1.63,10a21.38,21.38,0,0,0-.55,5.34c0,1,.18,2.36.81,2.82,4.63,3.41,3.69,8.16,3.21,12.76a65.33,65.33,0,0,1-1.4,6.72c3.19,1.93,6.37,3.8,9.49,5.77a64.56,64.56,0,0,1,5.5,3.85,13.61,13.61,0,0,1,4.75,6.38c2.21,6.58,4,13.19,2.47,20.22a15,15,0,0,0,0,2.87c14.51,4.51,25.76,13.17,34.21,26,7.64,0,15.13-.23,22.58.06a23.89,23.89,0,0,1,19.38,10.63c4.09,6.18,7.82,13,8.51,20.88.82,9.24,1.78,18.46,2.7,27.81C269,171.87,269.19,172.2,269.43,172.25Zm1.18,7.66a34.13,34.13,0,0,0-.18-4.06l-1.34-.09c.08,4.19,1.3,9.07-5.52,9,.33,4.11.64,7.9,1,11.71,4.21-.73,4.67-1,5.08-4.53C270.06,187.91,270.33,183.91,270.61,179.91Zm-9.11-2c.18,2.89.3,2.88,4.41,2.86-.61-8.45.41-17-1.53-25.34a16.8,16.8,0,0,1-.51-3.09,53.89,53.89,0,0,0-5.22-21.17c-4.32-9.13-10.85-14.82-21.22-15.36-3.89-.2-7.79-.35-11.68-.35-10.55,0-20,3.09-27.76,10.45-2.79,2.66-5.89,5.58-7.35,9a31,31,0,0,0-2.68,16.29h4.84c.15-2,.23-3.13.43-4.59.92-6.42,2.12-12.62,7.25-17.44s10.83-6.71,17.4-7.44c8-.91,15.85.54,23.68,1.71a14.88,14.88,0,0,1,9.4,5.67c3.74,4.6,6.13,9.89,8.22,15.34a16.36,16.36,0,0,1,.62,4c.22,1.93.43,3.87.56,5.81.31,4.46.6,8.92.82,13.39C261.32,171,261.27,174.44,261.49,177.87Zm-1,14.58a15.63,15.63,0,0,0,0-4.44,61.46,61.46,0,0,1-2.44-18.34,15.12,15.12,0,0,0-.58-3.51H237c-1.65,10-1.9,65.24-.35,71.06,3.63.14,7.36.43,11.09.52a39.31,39.31,0,0,0,4.94-.13c3.92-.41,5.28-1.58,6-5.44a39.85,39.85,0,0,0,.43-5.34c.09-1.79,0-3.58.12-5.38Q259.85,206.94,260.48,192.45ZM258,163.13v-8.56c-23,.37-46,.74-71,1.12v8.22C212,163.65,235,163.39,258,163.13Zm-.84-11.26c.41-7.82-3-13.58-6.73-19.24a15.19,15.19,0,0,0-9.77-6.66c-8.54-1.87-17.19-2.87-25.88-1.25-2.89.54-6.09,1.27-8.35,3-7.54,5.7-12.37,12.93-10.48,23.18Zm-24.22,14.29H218.68c0,5-.18,8,0,11.67.89,15.07,1.14,30.53.57,45.62-.17,4.41-.25,9.71,1.14,13.71h12.13c0-4,0-4.92,0-7-.24-9.09-.56-18.28-.76-27.37-.17-7.89-.23-15.83-.3-23.72a26.11,26.11,0,0,1,.34-2.61C232.19,173.29,232.54,171.16,232.93,166.16ZM215.5,245.91c1-1.38,1.42-3.14,2.33-5.26-2.1-.2-3.55-.41-5-.45-6-.2-12-.23-18-.55-4.48-.25-6.16-2.39-6.3-7s-.39-9-.68-13.44c-.24-3.61-1.18-4.38-4.58-3.09-5.45,2.05-11.17,2.07-16.79,2.5a48.16,48.16,0,0,1-12.51-.73c-12.81-2.44-23.49-9.45-33.84-16.86-2.81-2-5-5.14-6.87-8.16-4.38-7.18-4-15.08-2.88-23.09.81-5.73,3.36-10.82,5.14-16.2C119.31,142.3,127,134.39,137.18,129c4.54-2.41,9.63-3.77,14.79-5.73.05-.35.19-1.07.28-1.8.37-3.22.76-6.36-3.55-7.51-.73-.19-1.41-1.87-1.49-2.91a27.2,27.2,0,0,1,.45-4.9l1.46-13.63c-1.66-.19-3-.4-4.27-.5-5.07-.36-10.17-.55-15.22-1.09-4.45-.47-8.87-1.35-13.31-2-1.76-.27-3.41-.57-5.17.58a94.32,94.32,0,0,1-9.31,5.24c-6.07,3-11.81,6.53-16.48,11.55-7.52,8.1-13.59,17.13-17.35,27.59C66.16,139,64.2,144,62.66,149.29c-1.14,3.93-2.94,7.87-2.69,11.87H74.51c-1.54,5-2.84,10.21-4.31,14.88-1.18,3.75-3,4.53-6.33,2.42-1.86-1.18-3.57-2.54-5.78-4.16-.93,4.58-2.31,8.6-2.46,12.64-.44,11.09-.68,22.22,2,33.14,1.48,6.09,3,12.06,6.31,17.64,5.09,8.49,11.63,15.53,18.78,22.19,4.63,4.31,9.21,8.65,15.14,11.07,4.42,1.81,9,3.31,13.53,4.78,5.06,1.63,10.1,3.89,15.29,4.42,12.68,1.32,25.48,1.73,38.12-.38a55.31,55.31,0,0,0,14-4.53c8.17-3.8,15.25-9.4,22.35-14.91A69.64,69.64,0,0,0,215.5,245.91Zm.11-9.6c-.36-23.67-.7-46.62-1-69.53-9.66-.77-21,.74-24.51,3.07,0,4.48-.18,8.82,0,13.14.36,6.88,1,13.74,1.49,20.61.6,8.78.84,17.61,1.83,26.35.7,6.23,1.34,6.87,7.63,6.66,2.39-.09,4.79.19,7.19.15S212.95,236.47,215.61,236.31Zm-3.42-122.86c-2.27-2.85-4.09-5.36-6.13-7.68-5.84-6.68-13.64-10.53-21.34-14.48-1.66-.85-4-1.74-5.55-1.22a47.37,47.37,0,0,1-17.67,2.26c-.22,1.45-.49,2.61-.56,3.78-.28,4.63-.46,9.26-.78,13.89-.09,1.32-.12,3.26-.93,3.79-4.08,2.69-2.64,6.43-2.67,9.94,5.73.76,11.27,1,16.56,2.32,5.45,1.32,10.66,3.63,15.79,5.44,3.54-3.73,6.47-7.64,10.19-10.52S207.48,116.09,212.19,113.45Zm-26.8,31.8,2-10.74c-13.36-5.8-24.26-7.84-30.78-5.85,6.36,4.65,6.36,4.65,7.66,11C171.89,138.47,178.6,141.76,185.4,145.25Zm-2,66.38c3.68-2.1,3.66-2.56,2.81-7-.28-1.46-.39-3-.67-5.1a29.26,29.26,0,0,1-3.23,1.55c-3.68,1.18-7.32,2.8-11.11,3.31-8.11,1.08-15.62-2-23.2-4.32a48,48,0,0,1-7-2.86,36.62,36.62,0,0,1-5.72-3.36,22.58,22.58,0,0,1-8.73-14.18c-.82-3.93-2.93-7.72-1.84-11.84a79.15,79.15,0,0,1,3.77-10.55c2.59-6.07,7.44-10.11,13-13.23a7.49,7.49,0,0,0,4.19-5.41,17.61,17.61,0,0,1,5.54-9.9c-6.65-.23-12,1.29-16.49,5.69a50,50,0,0,1-5.17,4.32c-4.3,3.23-8,7.28-9.74,12.16a152.24,152.24,0,0,0-6.3,22.89c-2.13,10.9,1.87,19.82,10.89,26.14a91.06,91.06,0,0,0,32.75,14.11c6.3,1.41,12.54,1.14,18.78.32A21.18,21.18,0,0,0,183.43,211.63Zm-2.49-15.22c4.59-1.21,4.84-4.68,4.65-8.45-.21-4.19-.41-8.38-.66-12.56-.19-3.26-.61-6.51-.63-9.76,0-4.43.4-8.87.34-13.3A5.38,5.38,0,0,0,183,148.5c-5.27-3.85-11.17-5.74-17.78-4.49a4,4,0,0,0-3.56,3.47A68.31,68.31,0,0,1,159,157c-1.11,3-2.55,6-5.73,8.34-1.29-2.32-.53-3.83.2-5.51a124.75,124.75,0,0,0,5.11-12.95,43.06,43.06,0,0,0,1.28-9.32c.15-2-1.95-4.51-3.86-4.9-2.18-.45-4.24-.18-5.5,2-.67,1.16-1.66,2.41-1.68,3.63-.09,6.11-3.05,11.22-5.54,16.44-1.69,3.55-5.2,5.42-8.54,7.6a3.32,3.32,0,0,1,0-2.81c1.07-1.43,2.5-2.59,3.63-4a18,18,0,0,0,4.05-7.59,12.06,12.06,0,0,0-2.16.48,6.33,6.33,0,0,0-1.88,1.18c-7.23,7.29-12.51,15.13-9.36,26.3,2.18,7.72,6,14.22,13.06,17.89,8,4.14,16.48,7.24,25.71,7.5a17.18,17.18,0,0,0,10.59-3C179.29,197.65,180,196.66,180.95,196.41ZM178.62,85.67c0-4.16.27-7.47-.06-10.72-.44-4.3-1.11-8.81-3.82-12.24-4.34-5.48-10.31-9-16.79-11.48-5.41-2.06-11.18-2.11-16.85-1.63-9,.77-16.76,4.45-22.46,11.54-4.13,5.14-6.47,11.35-8.76,17.49a9.35,9.35,0,0,0-.15,2.68c-.09,1.94.69,3.13,2.73,3.39,3.26.41,6.5.94,9.76,1.34,6.82.84,13.65,1.7,20.49,2.37a38.88,38.88,0,0,0,6.22-.36c.13-1.8.13-3.14.33-4.46.38-2.5.85-5,1.32-7.49.43-2.29,1.92-3.25,4.17-3.23.9,0,1.8,0,2.7,0,4.28.13,5.28,1.26,4.75,5.46a28.89,28.89,0,0,0,.37,11.1ZM158.46,36.24c.28-2.88-1.36-5.08-3.5-5.51s-4.1.56-5.11,3.36c-1.28,3.58-2.06,7.33-3.15,11.36l10,1.28C157.35,42.92,158.14,39.6,158.46,36.24Zm-4.31-11.45c.16-3,.65-6,.29-8.94a10.43,10.43,0,0,0-2.71-5.48c-1.24-1.33-3.33-1.23-4.93,0s-2.65,5.2-1.42,6.59c2.86,3.21,3.72,7,4.07,11.19C152.66,28.56,154,27.37,154.15,24.79Zm-6.51,291.76c1.74-4.37.12-26.4-2-33.4h-6.27c0,2-.26,2.68,0,3.42,2.36,5.74,2.91,11.79,3.64,17.87A30.48,30.48,0,0,0,147.64,316.55ZM146.37,32.88a37.28,37.28,0,0,0,0-8.39c-.16-2.22-1.74-3.41-3.87-3.71-1.56-.22-3.85,1.53-4.26,3.3-1.49,6.39-2.93,12.78-4.29,19.2a14.62,14.62,0,0,0,.18,3.52l9.34-1.21C144.5,41.27,145.7,37.12,146.37,32.88ZM105.69,88.09c.1-1.87.19-3.33.32-5.59-7.72,2.09-15,1.91-22.26,1.36-3.4-.25-6.88.51-11,.87,2.71,5.11,7.26,4.88,10.89,5.45C91.08,91.34,98.69,92.13,105.69,88.09Zm-38,84.59c.81-2.37,1.37-4.83,2.13-7.59-3.33,0-6-.18-8.68.05s-3.53,2.32-1.88,4.47A22.86,22.86,0,0,0,64.22,174C65.79,175.17,67.17,174.34,67.73,172.68Zm-5.49-33.76-.75-.6c-2.46,1.35-4.79,3.07-7.4,4-8.31,2.87-16.71,5.45-25.09,8.11-1.57.5-3.29.66-4.7,1.42a3.77,3.77,0,0,0-1.63,2.72c0,.58,1.22,1.62,2,1.81a32.78,32.78,0,0,0,6.64.9c9.54.19,18.09-3.21,26.26-7.67a6.8,6.8,0,0,0,2.57-3.45C61.08,143.81,61.58,141.33,62.24,138.92Z"/><path class="cls-1" d="M270.42,175.85a34.13,34.13,0,0,1,.18,4.06c-.27,4-.55,8-1,12-.41,3.5-.87,3.8-5.08,4.53-.31-3.81-.62-7.59-1-11.71,6.82.11,5.6-4.77,5.52-9Z"/><path class="cls-2" d="M265.9,180.73c-4.11,0-4.22,0-4.41-2.86-.22-3.43-.17-6.88-.34-10.31-.22-4.47-.51-8.93-.82-13.39-.13-1.94-.34-3.87-.56-5.81a16.37,16.37,0,0,0-.62-4c-2.09-5.45-4.47-10.74-8.22-15.34a14.89,14.89,0,0,0-9.4-5.68c-7.83-1.17-15.66-2.63-23.68-1.72-6.57.74-12.41,2.74-17.4,7.43s-6.33,11.05-7.25,17.47c-.21,1.45-.28,2.59-.43,4.59h-4.84a31,31,0,0,1,2.68-16.29c1.46-3.41,4.56-6.3,7.35-9,7.72-7.36,17.21-10.47,27.76-10.47,3.9,0,7.79.14,11.68.34,10.37.54,16.9,6.22,21.22,15.36a53.88,53.88,0,0,1,5.22,21.17,16.8,16.8,0,0,0,.51,3.09C266.31,163.77,265.29,172.28,265.9,180.73Z"/><path class="cls-2" d="M260.52,188a15.63,15.63,0,0,1,0,4.44q-.61,14.51-1.23,29c-.08,1.79,0,3.59-.12,5.38a40.07,40.07,0,0,1-.43,5.36c-.7,3.86-2.06,5.06-6,5.47a39.33,39.33,0,0,1-4.94.18c-3.73-.09-7.46-.5-11.09-.64-1.54-5.82-1.3-61.06.35-71.06H257.5a15.12,15.12,0,0,1,.58,3.51A61.46,61.46,0,0,0,260.52,188Z"/><path class="cls-2" d="M258,154.57v8.56c-23,.26-46,.52-71,.78v-8.22C212,155.31,235,154.94,258,154.57Z"/><path class="cls-2" d="M250.42,132.62c3.71,5.66,7.14,11.42,6.73,19.24l-61.21-1c-1.89-10.25,2.95-17.48,10.48-23.18,2.26-1.71,5.46-2.44,8.35-3,8.69-1.62,17.34-.61,25.88,1.25A15.19,15.19,0,0,1,250.42,132.62Z"/><path class="cls-2" d="M218.68,166.16h14.25c-.39,5-.73,7.11-1.1,10.29a22.16,22.16,0,0,0-.34,2.4c.08,7.89.13,15.87.3,23.76.2,9.09.51,18.44.76,27.52.05,2.06,0,3,0,7H220.42c-1.39-4-1.3-9.12-1.14-13.52.57-15.08.32-30.63-.57-45.7C218.5,174.25,218.68,171.16,218.68,166.16Z"/><path class="cls-1" d="M217.83,240.65c-.91,2.12-1.35,3.88-2.33,5.26a69.64,69.64,0,0,1-14.35,14.44c-7.09,5.51-14.17,11.11-22.35,14.91a55.31,55.31,0,0,1-14,4.53c-12.64,2.11-25.44,1.7-38.12.38-5.19-.54-10.23-2.79-15.29-4.42-4.55-1.47-9.1-3-13.53-4.77-5.93-2.42-10.52-6.76-15.14-11.07-7.15-6.66-13.69-13.7-18.78-22.19-3.34-5.57-4.84-11.54-6.31-17.63-2.65-10.91-2.41-22-2-33.12.16-4,1.53-8,2.46-12.62,2.21,1.63,3.92,3,5.78,4.22,3.29,2.1,5.16,1.22,6.33-2.53,1.46-4.68,2.77-9.88,4.31-14.88H60c-.25-4,1.55-7.94,2.69-11.87,1.54-5.29,3.5-10.35,5.36-15.54,3.76-10.46,9.83-19.43,17.35-27.54,4.66-5,10.4-8.48,16.48-11.52a94.21,94.21,0,0,0,9.31-5.23c1.75-1.14,3.41-.84,5.17-.57,4.44.67,8.85,1.54,13.31,2,5.05.54,10.15.73,15.22,1.09,1.31.09,2.61.3,4.27.5l-1.46,13.63a27.21,27.21,0,0,0-.45,4.91c.09,1,.76,2.71,1.49,2.91,4.31,1.16,3.92,4.29,3.55,7.51-.09.73-.23,1.45-.28,1.8-5.15,2-10.25,3.32-14.79,5.73-10.22,5.41-17.87,13.32-21.61,24.61-1.78,5.38-4.33,10.47-5.14,16.2-1.13,8-1.5,15.9,2.88,23.09,1.84,3,4.06,6.15,6.87,8.16,10.35,7.41,21,14.42,33.84,16.86a48.16,48.16,0,0,0,12.51.73c5.63-.43,11.35-.44,16.79-2.5,3.41-1.28,4.34-.52,4.58,3.09.3,4.48.55,9,.68,13.44s1.82,6.74,6.3,7c6,.33,12,.36,18,.55C214.28,240.25,215.73,240.46,217.83,240.65ZM97.51,204.25c2.39-3.8,3.83-7.4,3.28-11.7-.42-3.28-1.08-4-4.41-3.86-4.18.2-8.36.39-12.54.33-5.08-.08-10.16-.33-15.23-.7-2.54-.18-4.09.87-4.69,3.15s-.77,4.39-1.14,6.59c-.41,2.44.33,4.07,3,4.6,2.19.44,4.33,1.46,6.51,1.51C80.61,204.35,89,204.25,97.51,204.25ZM98.86,111c.11-1.43-1.09-1.92-2.46-1.83l-4.56.3a35.63,35.63,0,0,0-4.78-.16,9.11,9.11,0,0,0-2.59,1.14c.72.77,1.39,2.14,2.17,2.21a80.89,80.89,0,0,0,10.24.14A2.75,2.75,0,0,0,98.86,111Zm-10.71,13.8c.07-.69-.83-1.49-1.12-2-2.14,0-3.35,1.19-3.12,2.89a2.4,2.4,0,0,0,1.47,1.69C87.3,127.83,88,126.3,88.15,124.84Z"/><path class="cls-2" d="M214.57,166.78c.34,22.91.68,45.86,1,69.53-2.67.17-5,.4-7.37.44s-4.8-.23-7.19-.15c-6.29.21-6.93-.42-7.63-6.66-1-8.74-1.23-17.56-1.83-26.35-.47-6.87-1.13-13.73-1.49-20.61-.23-4.32,0-8.66,0-13.14C193.59,167.51,204.91,166,214.57,166.78Z"/><path class="cls-1" d="M206.06,105.77c2,2.33,3.86,4.83,6.13,7.68-4.71,2.64-9.29,4.57-13.09,7.51s-6.65,6.78-10.19,10.52c-5.13-1.81-10.34-4.12-15.79-5.44-5.29-1.29-10.83-1.56-16.56-2.32,0-3.5-1.41-7.25,2.67-9.94.81-.53.83-2.47.93-3.79.32-4.63.5-9.26.78-13.89.07-1.17.34-2.33.56-3.78a47.37,47.37,0,0,0,17.67-2.26c1.55-.52,3.89.37,5.55,1.22C192.42,95.23,200.23,99.09,206.06,105.77Z"/><path class="cls-2" d="M187.35,134.51l-2,10.74c-6.8-3.49-13.51-6.78-21.17-5.6-1.3-6.35-1.3-6.35-7.66-11C163.08,126.67,174,128.71,187.35,134.51Z"/><path class="cls-2" d="M186.25,204.67c.85,4.41.87,4.87-2.81,7a21.18,21.18,0,0,1-7.49,2.76c-6.23.82-12.48,1.09-18.78-.32A91.06,91.06,0,0,1,124.42,200c-9-6.32-13-15.24-10.89-26.14a152.24,152.24,0,0,1,6.3-22.89c1.78-4.88,5.45-8.93,9.74-12.16a50,50,0,0,0,5.17-4.32c4.45-4.4,9.85-5.92,16.49-5.69a17.61,17.61,0,0,0-5.54,9.9,7.49,7.49,0,0,1-4.19,5.41c-5.58,3.12-10.43,7.16-13,13.23a79.15,79.15,0,0,0-3.77,10.55c-1.09,4.11,1,7.91,1.84,11.84a22.58,22.58,0,0,0,8.73,14.18,36.62,36.62,0,0,0,5.72,3.36,48,48,0,0,0,7,2.86c7.58,2.27,15.08,5.4,23.2,4.32,3.78-.51,7.42-2.13,11.11-3.31a29.26,29.26,0,0,0,3.23-1.55C185.85,201.71,186,203.21,186.25,204.67Z"/><path class="cls-1" d="M185.6,188c.19,3.77-.05,7.24-4.65,8.45-.93.25-1.66,1.23-2.51,1.83a17.18,17.18,0,0,1-10.59,3c-9.23-.26-17.73-3.36-25.71-7.5-7.07-3.67-10.88-10.16-13.06-17.89-3.15-11.17,2.13-19,9.36-26.3a6.33,6.33,0,0,1,1.88-1.18,12.06,12.06,0,0,1,2.16-.48,18,18,0,0,1-4.05,7.59c-1.14,1.39-2.56,2.55-3.63,4a3.32,3.32,0,0,0,0,2.81c3.34-2.18,6.86-4.05,8.54-7.6,2.49-5.23,5.45-10.34,5.54-16.44,0-1.22,1-2.47,1.68-3.63,1.26-2.16,3.32-2.42,5.5-2,1.91.39,4,2.91,3.86,4.9a43.06,43.06,0,0,1-1.28,9.32,124.75,124.75,0,0,1-5.11,12.95c-.73,1.68-1.5,3.19-.2,5.51C156.49,163,157.94,160,159,157a68.31,68.31,0,0,0,2.65-9.48,4,4,0,0,1,3.56-3.47c6.62-1.25,12.51.64,17.78,4.49a5.38,5.38,0,0,1,1.62,3.85c.06,4.43-.36,8.86-.34,13.3,0,3.25.43,6.5.63,9.76C185.18,179.59,185.39,183.77,185.6,188Z"/><path class="cls-3" d="M178.56,74.95c.33,3.25.06,6.56.06,10.72l-16,3.77a28.89,28.89,0,0,1-.37-11.1c.53-4.2-.47-5.33-4.75-5.46-.9,0-1.8,0-2.7,0-2.24,0-3.74.94-4.17,3.23-.47,2.5-.94,5-1.32,7.49-.2,1.32-.2,2.66-.33,4.46a38.88,38.88,0,0,1-6.22.36c-6.84-.67-13.66-1.54-20.49-2.37-3.26-.4-6.5-.93-9.76-1.34-2-.26-2.82-1.45-2.73-3.39a9.35,9.35,0,0,1,.15-2.68c2.29-6.14,4.63-12.35,8.76-17.49,5.7-7.08,13.46-10.77,22.46-11.54,5.67-.48,11.43-.43,16.85,1.63,6.48,2.47,12.45,6,16.79,11.48C177.45,66.14,178.12,70.65,178.56,74.95Z"/><path class="cls-4" d="M155,30.73c2.14.44,3.78,2.64,3.5,5.51-.32,3.36-1.11,6.68-1.78,10.49l-10-1.28c1.09-4,1.87-7.78,3.15-11.36C150.85,31.28,152.83,30.29,155,30.73Z"/><path class="cls-4" d="M154.45,15.86c.36,2.92-.13,6-.29,8.94-.14,2.58-1.5,3.77-4.7,3.4-.35-4.16-1.22-8-4.07-11.19-1.23-1.38-.14-5.35,1.42-6.59s3.69-1.36,4.93,0A10.43,10.43,0,0,1,154.45,15.86Z"/><path class="cls-3" d="M145.65,283.16c2.11,7,3.73,29,2,33.4-2.4-4-4.09-7.62-4.59-11.81-.73-6.08-1.28-12.58-3.64-18.32-.3-.73,0-1.27,0-3.27Z"/><path class="cls-4" d="M146.4,24.49a37.28,37.28,0,0,1,0,8.39c-.67,4.24-1.87,8.39-2.88,12.71l-9.34,1.21a14.62,14.62,0,0,1-.18-3.52c1.36-6.41,2.81-12.81,4.29-19.2.41-1.77,2.7-3.52,4.26-3.3C144.66,21.08,146.24,22.27,146.4,24.49Z"/><path class="cls-3" d="M106,82.5c-.13,2.27-.21,3.73-.32,5.59-7,4-14.61,3.25-22,2.09-3.63-.57-8.18-.33-10.89-5.45,4.09-.36,7.57-1.12,11-.87C91,84.4,98.29,84.59,106,82.5Z"/><path d="M100.79,192.55c.55,4.3-.89,7.9-3.28,11.7-8.55,0-16.9.11-25.26-.07-2.18,0-4.32-1.07-6.51-1.51-2.63-.53-3.37-2.16-3-4.6.37-2.2.58-4.45,1.14-6.59s2.14-3.34,4.69-3.15c5.07.37,10.15.62,15.23.7,4.18.06,8.36-.13,12.54-.33C99.71,188.53,100.37,189.27,100.79,192.55Zm-4.8,6.6v-5.56c-9-.25-18.55-2.4-28.22-1.51a34.1,34.1,0,0,0-.21,3.71c.07,4.59.5,5.39,5.18,5.36,7.46,0,14.72-.74,22.18-1.2C95.3,199.92,96,199.49,96,199.15Z"/><path d="M96.4,109.21c1.36-.09,2.57.4,2.46,1.83a2.75,2.75,0,0,1-2,1.79,80.89,80.89,0,0,1-10.24-.14c-.78-.07-1.45-1.44-2.17-2.21a9.11,9.11,0,0,1,2.59-1.14,35.63,35.63,0,0,1,4.78.16Z"/><path class="cls-5" d="M96,193.58v5.56c0,.35-.67.77-1,.79-7.46.46-14.8,1.15-22.26,1.2-4.68,0-5-.77-5.06-5.36a32.63,32.63,0,0,1,.12-3.71C77.41,191.19,87,193.33,96,193.58Z"/><path d="M87,122.88c.29.46,1.19,1.26,1.12,2-.16,1.46-.86,3-2.77,2.63a2.4,2.4,0,0,1-1.47-1.69C83.68,124.07,84.89,122.84,87,122.88Z"/><path class="cls-6" d="M69.86,165.1c-.76,2.76-1.32,5.21-2.13,7.59-.56,1.66-1.94,2.49-3.51,1.36a22.86,22.86,0,0,1-4.92-4.43c-1.64-2.14-.71-4.23,1.88-4.47S66.53,165.1,69.86,165.1Z"/><path class="cls-3" d="M61.49,138.32l.75.6c-.66,2.41-1.16,4.89-2.05,7.22a6.8,6.8,0,0,1-2.57,3.45c-8.18,4.46-16.73,7.86-26.26,7.67a32.78,32.78,0,0,1-6.64-.9c-.82-.19-2.08-1.23-2-1.81a3.77,3.77,0,0,1,1.63-2.72c1.41-.76,3.13-.92,4.7-1.42,8.38-2.67,16.78-5.24,25.09-8.11C56.7,141.39,59,139.66,61.49,138.32Z"/><path class="cls-7" d="M215.73,112.4c7.64,0,15.13-.23,22.58.06a23.89,23.89,0,0,1,19.38,10.63c4.09,6.18,7.82,13,8.51,20.88.82,9.24,1.78,18.46,2.7,27.81.09.09.27.42.51.47,4.87,1.06,4.8,1,4.3,5.77a123.46,123.46,0,0,0-1,12.54c0,5.37-2.32,8.54-7.59,9.44a8,8,0,0,0-1.5.67c-.59,10-1.17,20.15-1.76,30.27a25.37,25.37,0,0,1-.13,2.69c-.82,4.68-2.1,6.11-6.87,6.69a112.54,112.54,0,0,1-11.63.65c-3.58.06-7.16-.18-10.74-.22s-7.18,0-10.31,0c-3.15,4.81-5.75,9.9-9.43,14s-8.37,7.21-12.65,10.71c-1.27,1-2.82,1.78-4,2.94-5,5-11.3,8-17.57,10.52-7.55,3-15.49,5.74-24,4.85a9.59,9.59,0,0,0-1.79,0c-3.23.26-4,1-3.72,4.21.6,6.27,1.45,12.5,2,18.77.42,4.71.55,9.45.8,14.07-4.71,1.35-6.85.55-8.16-3.36-2-5.81-4.26-11.55-4.18-17.85a10.12,10.12,0,0,0-.45-2.65c-1.07-4-2.18-8-3.33-12.13a3.32,3.32,0,0,0-1.08-.31c-5.92.12-11.52-1.46-17.24-2.74-8.61-1.92-16.43-5.68-24.28-9.37a43,43,0,0,1-10-6.8c-6.93-6.14-13.71-12.44-18.49-20.6-2.64-4.51-5.93-8.64-7.47-13.75A90,90,0,0,1,53,203.44c.1-6.12-.2-12.25-.39-18.38-.17-5.57.93-11,1.43-16.49.36-4,.88-7.47,2.91-10.87.62-1,.45-2.56.71-4.38-1.34.48-2.27.75-3.14,1.14-8.88,3.86-18,6.43-27.84,5.69a11,11,0,0,1-7.86-3.82c-2-2.38-1.73-4.68,1.09-6.24a29.7,29.7,0,0,1,5.39-2.2c9-2.87,18-5.56,26.93-8.57,2.94-1,5.62-2.75,8.41-4.18s4.38-3.78,5.51-6.75a55.61,55.61,0,0,1,13.13-20.63c4.18-4,8.63-7.74,12.95-11.63.64-.58,1.17-1.3,2.17-2.43a17.9,17.9,0,0,0-2.81-.29c-6.12.45-11.9-1.17-17.61-3-3-1-4.67-3.92-3.86-6.25A4.38,4.38,0,0,1,74.54,81c5.09-.08,10.17-.17,15.26-.31,4.32-.12,8.65-.21,13-.5,2.62-.17,4.08-1.54,4.94-4.32,3.5-11.35,9.77-20.71,20.61-26.37a5.07,5.07,0,0,0,2.83-4.19c1.18-7.23,2.59-14.43,3.85-21.64a5.56,5.56,0,0,1,3.1-4.14,8.32,8.32,0,0,0,4.81-7.25c.55-5.48,4.54-7.72,9.27-5.77a6.66,6.66,0,0,1,3.45,3.2c1.24,3.15,2.6,6.38,1.63,10a21.38,21.38,0,0,0-.55,5.34c0,1,.18,2.36.81,2.82,4.63,3.41,3.69,8.16,3.21,12.76a65.33,65.33,0,0,1-1.4,6.72c3.19,1.93,6.37,3.8,9.49,5.77a64.56,64.56,0,0,1,5.5,3.85,13.61,13.61,0,0,1,4.75,6.38c2.21,6.58,4,13.19,2.47,20.22a15,15,0,0,0,0,2.87C196,90.95,207.29,99.6,215.73,112.4Z"/><path class="cls-7" d="M217.83,240.65c-2.1-.2-3.55-.41-5-.45-6-.2-12-.23-18-.55-4.48-.25-6.16-2.39-6.3-7s-.39-9-.68-13.44c-.24-3.61-1.18-4.38-4.58-3.09-5.45,2.05-11.17,2.07-16.79,2.5a48.16,48.16,0,0,1-12.51-.73c-12.81-2.44-23.49-9.45-33.84-16.86-2.81-2-5-5.14-6.87-8.16-4.38-7.18-4-15.08-2.88-23.09.81-5.73,3.36-10.82,5.14-16.2C119.31,142.3,127,134.39,137.18,129c4.54-2.41,9.63-3.77,14.79-5.73.05-.35.19-1.07.28-1.8.37-3.22.76-6.36-3.55-7.51-.73-.19-1.41-1.87-1.49-2.91a27.2,27.2,0,0,1,.45-4.9l1.46-13.63c-1.66-.19-3-.4-4.27-.5-5.07-.36-10.17-.55-15.22-1.09-4.45-.47-8.87-1.35-13.31-2-1.76-.27-3.41-.57-5.17.58a94.32,94.32,0,0,1-9.31,5.24c-6.07,3-11.81,6.53-16.48,11.55-7.52,8.1-13.59,17.13-17.35,27.59-1.86,5.19-3.82,10.65-5.36,15.93-1.14,3.93-2.94,8.37-2.69,12.37H74.51c-1.54,5-2.84,9.71-4.31,14.38-1.18,3.75-3,4.28-6.33,2.17-1.86-1.18-3.57-2.66-5.78-4.29C57.16,179,55.78,183,55.63,187c-.44,11.09-.68,22.19,2,33.11,1.48,6.09,3,12,6.31,17.62,5.09,8.49,11.63,15.52,18.78,22.18,4.63,4.31,9.21,8.65,15.14,11.07,4.42,1.81,9,3.3,13.53,4.77,5.06,1.63,10.1,3.89,15.29,4.42,12.68,1.32,25.48,1.72,38.12-.38a55.31,55.31,0,0,0,14-4.53c8.17-3.8,15.25-9.4,22.35-14.91a69.64,69.64,0,0,0,14.35-14.44C216.48,244.53,216.92,242.77,217.83,240.65Z"/><path class="cls-7" d="M153.31,165.3c-1.29-2.32-.53-3.83.2-5.51a124.75,124.75,0,0,0,5.11-12.95,43.06,43.06,0,0,0,1.28-9.32c.15-2-1.95-4.51-3.86-4.9-2.18-.45-4.24-.18-5.5,2-.67,1.16-1.66,2.41-1.68,3.63-.09,6.11-3.05,11.22-5.54,16.44-1.69,3.55-5.2,5.42-8.54,7.6a3.32,3.32,0,0,1,0-2.81c1.07-1.43,2.5-2.59,3.63-4a18,18,0,0,0,4.05-7.59,12.06,12.06,0,0,0-2.16.48,6.33,6.33,0,0,0-1.88,1.18c-7.23,7.29-12.51,15.13-9.36,26.3,2.18,7.72,6,14.22,13.06,17.89,8,4.14,16.48,7.24,25.71,7.5a17.18,17.18,0,0,0,10.59-3c.86-.59,1.58-1.58,2.51-1.83,4.59-1.21,4.84-4.68,4.65-8.45-.21-4.19-.41-8.38-.66-12.56-.19-3.26-.61-6.51-.63-9.76,0-4.43.4-8.87.34-13.3A5.38,5.38,0,0,0,183,148.5c-5.27-3.85-11.17-5.74-17.78-4.49a4,4,0,0,0-3.56,3.47A68.31,68.31,0,0,1,159,157C157.94,160,156.49,163,153.31,165.3Z"/><path class="cls-7" d="M178.72,77.78c0-1-.06-1.9-.16-2.83-.44-4.3-1.11-8.81-3.82-12.24-4.34-5.48-10.31-9-16.79-11.48-5.41-2.06-11.18-2.11-16.85-1.63-9,.77-16.76,4.45-22.46,11.54-4.13,5.14-6.47,11.35-8.76,17.49a9.35,9.35,0,0,0-.15,2.68c-.09,1.94.69,3.13,2.73,3.39,3.26.41,6.5.94,9.76,1.34,6.82.84,13.65,1.7,20.49,2.37a38.88,38.88,0,0,0,6.22-.36c.13-1.8.13-3.14.33-4.46.38-2.5.85-5,1.32-7.49.43-2.29,1.92-3.25,4.17-3.23.9,0,1.8,0,2.7,0,4.28.13,5.28,1.26,4.75,5.46a28.89,28.89,0,0,0,.37,11.1l16-3.77C178.62,82.7,178.76,80.16,178.72,77.78Z"/><path class="cls-7" d="M237,167.16c-1.65,9-1.9,64.74-.35,70.56,3.63.14,7.36.18,11.09.27a39.38,39.38,0,0,0,4.94-.25c3.92-.41,5.28-1.64,6-5.5a40.32,40.32,0,0,0,.43-5.37c.09-1.79,0-3.6.12-5.39q.6-14.51,1.23-29a15.64,15.64,0,0,0,0-4.44c-1.56-5.95-2.72-11.65-2.44-17.84,0-1-.33-1-.58-3Z"/><path class="cls-7" d="M215.61,236.31c-.36-23.67-.7-46.62-1-69.53-9.66-.77-21,.74-24.51,3.07,0,4.48-.18,8.82,0,13.14.36,6.88,1,13.74,1.49,20.61.6,8.78.84,17.61,1.83,26.35.7,6.23,1.34,6.87,7.63,6.66,2.39-.09,4.79.19,7.19.15S212.95,236.47,215.61,236.31Z"/><path class="cls-7" d="M185.58,199.57a29.26,29.26,0,0,1-3.23,1.55c-3.68,1.18-7.32,2.8-11.11,3.31-8.11,1.08-15.62-2-23.2-4.32a48,48,0,0,1-7-2.86,36.62,36.62,0,0,1-5.72-3.36,22.58,22.58,0,0,1-8.73-14.18c-.82-3.93-2.93-7.72-1.84-11.84a79.15,79.15,0,0,1,3.77-10.55c2.59-6.07,7.44-10.11,13-13.23a7.49,7.49,0,0,0,4.19-5.41,17.61,17.61,0,0,1,5.54-9.9c-6.65-.23-12,1.29-16.49,5.69a50,50,0,0,1-5.17,4.32c-4.3,3.23-8,7.28-9.74,12.16a152.24,152.24,0,0,0-6.3,22.89c-2.13,10.9,1.87,19.82,10.89,26.14a91.06,91.06,0,0,0,32.75,14.11c6.3,1.41,12.54,1.14,18.78.32a21.18,21.18,0,0,0,7.49-2.76c3.68-2.1,3.66-2.56,2.81-7C186,203.21,185.85,201.71,185.58,199.57Z"/><path class="cls-7" d="M212.19,113.45c-2.27-2.85-4.09-5.36-6.13-7.68-5.84-6.68-13.64-10.53-21.34-14.48-1.66-.85-4-1.74-5.55-1.22a47.37,47.37,0,0,1-17.67,2.26c-.22,1.45-.49,2.61-.56,3.78-.28,4.63-.46,9.26-.78,13.89-.09,1.32-.12,3.26-.93,3.79-4.08,2.69-2.64,6.43-2.67,9.94,5.73.76,11.27,1,16.56,2.32,5.45,1.32,10.66,3.63,15.79,5.44,3.54-3.73,6.47-7.64,10.19-10.52S207.48,116.09,212.19,113.45Z"/><path class="cls-7" d="M257.17,149.93c-.19-6.86-3.35-12.13-6.75-17.31a15.19,15.19,0,0,0-9.77-6.66c-8.54-1.87-17.19-2.87-25.88-1.25-2.89.54-6.09,1.27-8.35,3-7.54,5.7-12.37,12.93-10.48,23.18l61.21,1C257.19,151.21,257.19,150.56,257.17,149.93Z"/><path class="cls-7" d="M232.55,237.16c0-3,0-4.92,0-7-.24-9.09-.56-18.28-.76-27.37-.17-7.89-.23-15.83-.3-23.72a17.34,17.34,0,0,1,.34-2.11c.36-3.18.71-5.82,1.1-9.82H218.68c0,4-.18,7.48,0,11.17.89,15.07,1.14,30.28.57,45.37-.17,4.41-.25,9.46,1.14,13.46Z"/><path class="cls-7" d="M265.84,179.94c-.5-8.18.41-16.43-1.47-24.54a16.8,16.8,0,0,1-.51-3.09,53.89,53.89,0,0,0-5.22-21.17c-4.32-9.13-10.85-14.82-21.22-15.36-3.89-.2-7.79-.35-11.68-.35-10.55,0-20,3.09-27.76,10.45-2.79,2.66-5.89,6.08-7.35,9.49a31.18,31.18,0,0,0-2.68,16.79h4.84a43.66,43.66,0,0,1,.43-5.09c.92-6.42,2.12-12.87,7.25-17.69s10.83-6.83,17.4-7.57c8-.91,15.85.48,23.68,1.65a14.84,14.84,0,0,1,9.4,5.64c3.74,4.6,6.13,9.87,8.22,15.32a16.3,16.3,0,0,1,.62,4c.22,1.93.43,3.86.56,5.8.31,4.46.6,8.92.82,13.39.17,3.44.12,6.88.34,10.31.18,2.89.3,2.88,4.41,2.86Z"/><path class="cls-7" d="M187,155.69v8.22l71-.78v-8.56C234,154.94,210,155.31,187,155.69Z"/><path class="cls-7" d="M61.49,138.32c-2.46,1.35-4.79,3.07-7.4,4-8.31,2.87-16.71,5.45-25.09,8.11-1.57.5-3.29.66-4.7,1.42a3.77,3.77,0,0,0-1.63,2.72c0,.58,1.22,1.62,2,1.81a32.78,32.78,0,0,0,6.64.9c9.54.19,18.09-3.21,26.26-7.67a6.8,6.8,0,0,0,2.57-3.45c.9-2.32,1.39-4.8,2.05-7.22Z"/><path class="cls-7" d="M185.4,145.25l2-10.74c-13.36-5.8-24.26-7.84-30.78-5.85,6.36,4.65,6.36,4.65,7.66,11C171.89,138.47,178.6,141.76,185.4,145.25Z"/><path class="cls-7" d="M143.49,45.59c1-4.32,2.21-8.47,2.88-12.71a37.28,37.28,0,0,0,0-8.39c-.16-2.22-1.74-3.41-3.87-3.71-1.56-.22-3.85,1.53-4.26,3.3-1.49,6.39-2.93,12.78-4.29,19.2a14.62,14.62,0,0,0,.18,3.52Z"/><path class="cls-7" d="M106,82.5c-7.72,2.09-15,1.91-22.26,1.36-3.4-.25-6.88.51-11,.87,2.71,5.11,7.26,4.88,10.89,5.45,7.42,1.16,15,2,22-2.09C105.79,86.23,105.88,84.76,106,82.5Z"/><path class="cls-7" d="M139.38,285.16c0,1-.26,1.68,0,2.42,2.36,5.74,2.91,11.59,3.64,17.67a31.76,31.76,0,0,0,4.59,12.41c1.74-4.37.12-27.5-2-32.5Z"/><path class="cls-7" d="M156.68,46.72c.67-3.81,1.46-7.13,1.78-10.49.28-2.88-1.36-5.08-3.5-5.51s-4.1.56-5.11,3.36c-1.28,3.58-2.06,7.33-3.15,11.36Z"/><path class="cls-7" d="M149.45,28.19c3.21.37,4.56-.82,4.7-3.4.16-3,.65-6,.29-8.94a10.43,10.43,0,0,0-2.71-5.48c-1.24-1.33-3.33-1.23-4.93,0s-2.65,5.2-1.42,6.59C148.23,20.21,149.1,24,149.45,28.19Z"/><path class="cls-7" d="M270.42,175.85l-1.34-.09c.08,4.19,1.3,9.07-5.52,9,.33,4.11.64,7.9,1,11.71,4.21-.73,4.67-1,5.08-4.53.47-4,.75-8,1-12A34.13,34.13,0,0,0,270.42,175.85Z"/><path class="cls-7" d="M69.86,165.1c-3.33,0-6-.18-8.68.05s-3.53,2.32-1.88,4.47A22.86,22.86,0,0,0,64.22,174c1.58,1.13,3,.3,3.51-1.36C68.54,170.31,69.1,167.85,69.86,165.1Z"/><path class="cls-7" d="M97.51,204.25c-8.55,0-16.9.11-25.26-.07-2.18,0-4.32-1.07-6.51-1.51-2.63-.53-3.37-2.16-3-4.6.37-2.2.58-4.45,1.14-6.59s2.14-3.34,4.69-3.15c5.07.37,10.15.62,15.23.7,4.18.06,8.36-.13,12.54-.33,3.33-.16,4,.58,4.41,3.86C101.35,196.85,99.9,200.45,97.51,204.25Z"/><path class="cls-7" d="M67.77,192.07a34.1,34.1,0,0,0-.21,3.71c.07,4.59.5,5.39,5.18,5.36,7.46,0,14.72-.74,22.18-1.2.38,0-.92-.45,1.08-.79v-5.56C87,193.33,77.44,191.19,67.77,192.07Z"/><path class="cls-7" d="M91.84,109.5l4.56-.3c1.36-.09,2.57.4,2.46,1.83a2.75,2.75,0,0,1-2,1.79,80.89,80.89,0,0,1-10.24-.14c-.78-.07-1.45-1.44-2.17-2.21a9.11,9.11,0,0,1,2.59-1.14A35.63,35.63,0,0,1,91.84,109.5Z"/><path class="cls-7" d="M87,122.88c.29.46,1.19,1.26,1.12,2-.16,1.46-.86,3-2.77,2.63a2.4,2.4,0,0,1-1.47-1.69C83.68,124.07,84.89,122.84,87,122.88Z"/></svg>