<svg id="圖層_1" data-name="圖層 1" xmlns="http://www.w3.org/2000/svg" viewBox="0 0 287.81 324.7"><defs><style>.cls-1{fill:#fff;}.cls-2{fill:#545757;}.cls-3{fill:#c2a140;}.cls-4{fill:#e6aa2b;}.cls-5{fill:none;}</style></defs><title>chks</title><path d="M12.13,167.11c-3.78-3.22-4.4-7.14-2.52-11.73,2.82-6.89,4-7.74,13.5-9.83,1.41-4.41,2.87-8.78,4.15-13.2a6.71,6.71,0,0,0-.28-3c-1-4.81,1.11-8.54,5.9-9.26,2.47-.37,3.69-1.52,5.28-3.34C48.6,104.76,58.82,92.54,72.61,84.16c6.21-3.77,12.31-7.82,18.85-10.92,4.8-2.27,10.19-3.42,15.42-4.61,2.08-.48,3.23-1.27,3.78-3.16,1.39-4.73,3.39-9.3,3.29-14.38-.1-5.46,2.91-10,4.85-14.78a2.42,2.42,0,0,1,.85-1c.95-.63,2.18-1.85,2.87-1.6A4.35,4.35,0,0,1,125,36.4a83.43,83.43,0,0,1,1.39,11.13c.43,7.61.62,15.23.94,23.46,2.95.63,6.24,1.5,9.58,2,10.18,1.49,19.52,5.31,28.56,10,4.09,2.12,8.34,4,12.19,6.5,4.12,2.68,7.84,6,11.76,9,7.59,5.81,13.18,13.44,19,20.82a6.82,6.82,0,0,0,3.9,2.63c4.9,1.29,6.49,4.42,5.47,9.54a7.6,7.6,0,0,0,.16,3.42c1.12,4,2.4,8,3.79,12.61,2.27.32,5,.68,7.81,1.09,4,.59,8,1.05,11.95,1.91,1.66.36,3.89,1.19,4.53,2.47,1.07,2.15,2.63,2.21,4.36,2.28,4.17.18,8.34.22,12.51.36a10.11,10.11,0,0,1,1.81.42c.94,2.65.22,5.1-.64,7.48-1,2.77-3.55,3.08-5.95,3.07a33.76,33.76,0,0,1-6.22-.87c-1.9-.36-3.48-.27-4.78,1.48-4.08,5.45-9.7,7.14-16.27,6.51a21.77,21.77,0,0,0-4.49.21c-4.83.56-5,1-6.42,5.76-2.4,7.85-3.91,16-8.44,23.12a9,9,0,0,0-1.41,6.43,13.57,13.57,0,0,1-2.32,9.41c-1.77,2.76-3.83,5.08-7.68,3.88-1.48-.46-2.39.42-3.44,1.46-5.19,5.13-10.45,10.22-15.85,15.12a6.73,6.73,0,0,0-2.56,6.54,80.48,80.48,0,0,1-3.59,35.91,44.11,44.11,0,0,0-1.3,4.3c-.73,3.15-2.58,4.83-5.59,6.33C160,296,151.65,296,143.27,296.29c-4.17.12-8.34.46-12.4.69-.57,1.39-1,2.46-1.45,3.55a3.56,3.56,0,0,1-3.9,2.37c-5.68-.36-11.37-.63-17-1.18-2.85-.28-4-1.42-5.71-4.09-5.34,0-10.56,0-15.78,0a19.46,19.46,0,0,1-9-2c-3.56-1.82-7.55-2.78-11.3-4.27-5-2-7.7-6.94-7.53-12.43.36-12,.41-24,.72-35.93a81.67,81.67,0,0,1,1-8.25c-4.36-4.26-8.46-8.07-12.3-12.14-1.24-1.32-2.22-2.44-4.1-1.84-3.23,1-5.18-.87-6.79-3.12a13.92,13.92,0,0,1-2.86-10.16A9.22,9.22,0,0,0,33.41,201c-4.63-7.37-6.4-15.78-8.54-24-.71-2.71-1.92-3.81-4.44-4.8A29.79,29.79,0,0,1,12.13,167.11Zm-.56-8c-.45,5.09,3.15,9.09,10.15,10.7V149.07C14.72,149.44,12.12,153,11.57,159.09Zm16.31-12.51a65.91,65.91,0,0,0,1.59,33.22,13.82,13.82,0,0,1,.67,3.5,26.27,26.27,0,0,0,8.11,18.44c3.39-2.11,4.53-5.22,5.44-8.6,1.72-6.43.53-12.77-.58-19-1.38-7.76-3.13-15.45-5-23.1-1.23-4.92-3.74-9.35-6.86-14.59a37.88,37.88,0,0,0-2.37,4.88C28.33,143,28.25,144.82,27.88,146.58Zm4-21.76a2.76,2.76,0,0,0-1.47,3.79,17.49,17.49,0,0,0,2.89,4.95c5.79,6.69,8.39,14.78,10.13,23.17,1.18,5.68,1.71,11.49,2.63,17.23,1,6,2.51,12,1.22,18.17-1.06,5.06-2,10-7.36,12.89-3.43,1.84-3.68,7.8-1.13,10.87,1.76,2.11,6,2.27,7.53-.05,6-9.2,12-18.48,11.15-30.33-.72-5.32-1.11-10.72-2.26-16-1.69-7.72-2.89-15.65-6.43-22.83C46,141.07,43,135.58,39.77,130.16a16.93,16.93,0,0,0-4.27-4.56A4.49,4.49,0,0,0,31.92,124.82Zm6.6-2.7a17.73,17.73,0,0,0,1.26,1.81c9,8.9,12.67,20.75,16.34,32.19,3.07,9.57,5.23,19.72,5.2,29.94,0,7.31-.59,14.74-4.75,21.24-2.4,3.76-4.81,7.5-7.31,11.4a12.91,12.91,0,0,0,1.42,1.77c6.34,5.45,12.71,10.86,19,16.31,7.94,6.81,17.58,10.1,27.41,12.71,5.75,1.52,11.8,1.82,17.66,3,13,2.59,25.61.48,38-3.09,4-1.13,7.63-3.37,11.27-5.39,4.74-2.63,10.42-3.61,14-8.38,1.18-1.58,3.57-2.18,5.16-3.53,4.31-3.63,8.48-7.43,12.72-11.18-.71-1.19-1.06-1.83-1.46-2.44-2.27-3.51-5.09-6.78-6.7-10.58-2.13-5-4.18-10.36-4.66-15.71s.81-10.63,1.79-15.88c1.82-9.69,3.59-19.34,7.52-28.58,3.5-8.21,7.08-16.18,13.26-22.75.17-.18.13-.56.32-1.46-3.18-4.35-6.47-9.17-10.11-13.69a48.64,48.64,0,0,0-7.87-7.95,194.08,194.08,0,0,0-18.22-13A96.22,96.22,0,0,0,144,77.67a145.85,145.85,0,0,0-23.85-4,59.29,59.29,0,0,0-23.09,2.63C84.09,80.39,72.87,87.73,63,97.11c-6.4,6.09-12.7,12.29-18.94,18.53C42.1,117.61,40.43,119.88,38.53,122.12ZM64.16,236.41c-.29,4.16-.82,7.95-.76,11.72.19,11.39.63,22.76.91,34.15,0,2,.72,3.69,2.44,4.49,4,1.88,8.09,3.94,12.36,5.08a58.87,58.87,0,0,0,12.43,1.41c4.86.23,9.73,0,14.59.06,8.95,0,17.87,1.22,26.85,0,4.73-.62,9.55-.47,14.32-.81a85.52,85.52,0,0,0,12.46-1.29c5.27-1.17,9.55-3.76,11.18-9.64,3.07-11,5-22.17,4.2-33.64-.09-1.45-.44-2.87-.68-4.38-6.1,2.07-10.66,6.51-16.76,7.62a23.78,23.78,0,0,0-5.21,1.31,53.75,53.75,0,0,1-27.22,4.1c-7.45-.73-14.95-1-22.39-1.89-9-1-17-5.3-25.11-9a37.08,37.08,0,0,1-5.88-3C69.27,240.88,66.9,238.68,64.16,236.41Zm62.57,62H107.42c6.34,1,12.74,2.79,19.25,1.1C126.7,299.18,126.71,298.44,126.73,298.44ZM115.68,61.61c-.65,2-.29,4.37-.4,6.75l7.25,1.81a8.87,8.87,0,0,0,.47-1.72q.15-12.11.24-24.21c0-1.91-.82-3.33-3-4.66-.77,2.42-1.86,4.48-2,6.6A66.25,66.25,0,0,1,115.68,61.61Zm72.14,125.9c0,6,.45,12,3.39,17.48,2.2,4.07,4.53,8.09,7,12a4.93,4.93,0,0,0,8.71-.57,8.16,8.16,0,0,0-3.1-10.55,9.71,9.71,0,0,1-3-2.91c-4-6.28-4.12-13.29-3.16-20.29,1.14-8.42,3-16.71,4.22-25.15s4.34-16.48,10.49-22.95a9.27,9.27,0,0,0,2.19-4.75,4.12,4.12,0,0,0-1.66-3.25c-.64-.44-2.42,0-3.15.64a22.65,22.65,0,0,0-4.77,5.29c-5.87,10.09-11.7,20.17-13.81,32C189.75,172.12,187.86,179.67,187.81,187.5Zm12.73.27c-.36,5.86.59,11.65,6.31,16a17.68,17.68,0,0,1,1.84-2.76c4.27-4.25,5.51-9.67,6.12-15.37a16.53,16.53,0,0,1,.51-3.52c4.43-13.06,3.62-26.21.72-39.38-.29-1.31-1.25-2.46-2.46-4.75-2.88,5.79-5.72,10.31-6.91,15.6-1.28,5.66-2.52,11.33-3.55,17A145.4,145.4,0,0,0,200.55,187.77Zm21.18-37.38v19.42c4,0,6.9-.09,10,0,6.6.22,11.78-4.5,11.94-9.72.06-2-.55-3.09-2.31-4.37C235.53,151.51,229.72,152.78,221.72,150.39Z"/><path class="cls-1" d="M21.72,169.79c-7-1.62-10.6-5.62-10.15-10.7.55-6.12,3.15-9.65,10.15-10Z"/><path class="cls-1" d="M29.48,179.8a65.91,65.91,0,0,1-1.59-33.22c.37-1.76.45-3.58,1-5.28a37.88,37.88,0,0,1,2.37-4.88c3.11,5.24,5.63,9.67,6.86,14.59,1.91,7.64,3.65,15.34,5,23.1,1.11,6.27,2.3,12.6.58,19-.91,3.38-2,6.49-5.44,8.6a26.27,26.27,0,0,1-8.11-18.44A13.82,13.82,0,0,0,29.48,179.8Z"/><path class="cls-2" d="M30.45,128.61a2.76,2.76,0,0,1,1.47-3.79,4.49,4.49,0,0,1,3.57.78,16.93,16.93,0,0,1,4.27,4.56c3.18,5.42,6.28,10.92,9.07,16.56,3.55,7.18,4.74,15.1,6.43,22.83,1.14,5.23,1.53,10.63,2.26,16,.81,11.85-5.14,21.12-11.15,30.33-1.52,2.32-5.77,2.17-7.53.05-2.55-3.07-2.31-9,1.13-10.87,5.38-2.88,6.3-7.83,7.36-12.89C48.61,186,47.06,180,46.1,174c-.92-5.74-1.45-11.55-2.63-17.23-1.74-8.39-4.34-16.49-10.13-23.17A17.49,17.49,0,0,1,30.45,128.61Z"/><path class="cls-1" d="M39.78,123.93a17.73,17.73,0,0,1-1.26-1.81c1.9-2.24,3.58-4.51,5.55-6.48C50.32,109.4,56.62,103.19,63,97.11c9.86-9.38,21.07-16.72,34.07-20.85a59.29,59.29,0,0,1,23.09-2.63,145.85,145.85,0,0,1,23.85,4,96.22,96.22,0,0,1,25.8,11.2,194.08,194.08,0,0,1,18.22,13,48.64,48.64,0,0,1,7.87,7.95c3.64,4.53,6.93,9.35,10.11,13.69-.19.91-.15,1.28-.32,1.46-6.18,6.57-9.76,14.54-13.26,22.75-3.93,9.23-5.7,18.89-7.52,28.58-1,5.24-2.27,10.68-1.79,15.88s2.53,10.69,4.66,15.71c1.61,3.79,4.43,7.07,6.7,10.58.4.61.75,1.25,1.46,2.44-4.25,3.75-8.42,7.54-12.72,11.18-1.59,1.35-4,2-5.16,3.53-3.58,4.77-9.26,5.75-14,8.38-3.64,2-7.31,4.26-11.27,5.39-12.43,3.56-25,5.68-38,3.09-5.86-1.17-11.91-1.46-17.66-3-9.83-2.6-19.47-5.9-27.41-12.71-6.34-5.44-12.71-10.86-19-16.31a12.91,12.91,0,0,1-1.42-1.77c2.5-3.89,4.91-7.64,7.31-11.4,4.16-6.5,4.73-13.93,4.75-21.24,0-10.22-2.13-20.37-5.2-29.94C52.45,144.68,48.79,132.83,39.78,123.93Zm51.6,36.27c-2.28.06-4.57,3-4.47,5.71.07,2,2.82,4.32,5,4.22s4.16-2.42,4.09-5C95.91,162.32,93.9,160.14,91.38,160.2ZM151,164.13c-.09,2.25,2.75,5.15,5.13,5.24,3.53.13,6.09-1.95,6.19-5,.09-2.64-2.69-5.67-5.2-5.66C154.11,158.7,151.15,161.33,151,164.13Z"/><path class="cls-2" d="M63.4,248.13c-.06-3.78.47-7.57.76-11.72,2.74,2.27,5.11,4.47,7.73,6.32a37.08,37.08,0,0,0,5.88,3c8.11,3.74,16.07,8,25.11,9,7.44.84,14.93,1.15,22.39,1.89a53.75,53.75,0,0,0,27.22-4.1,23.78,23.78,0,0,1,5.21-1.31c6.1-1.11,10.66-5.54,16.76-7.62.24,1.5.59,2.93.68,4.38.75,11.48-1.13,22.61-4.2,33.64-1.63,5.88-5.92,8.47-11.18,9.64a85.52,85.52,0,0,1-12.46,1.29c-4.77.34-9.59.19-14.32.81-9,1.18-17.9,0-26.85,0-4.86,0-9.74.17-14.59-.06a58.87,58.87,0,0,1-12.43-1.41c-4.27-1.13-8.31-3.2-12.36-5.08-1.72-.8-2.39-2.51-2.44-4.49C64,270.9,63.59,259.52,63.4,248.13Z"/><path d="M86.91,165.91c-.1-2.73,2.19-5.65,4.47-5.71,2.52-.06,4.53,2.11,4.59,5,.06,2.54-1.85,4.85-4.09,5S87,167.91,86.91,165.91Zm2.55-.51a1.83,1.83,0,0,0,2,2.27c.72-.15,1.44-1.63,1.61-2.6.12-.67-.7-1.5-1.63-3.28C90.4,163.63,89.6,164.46,89.45,165.4Z"/><path class="cls-3" d="M91.49,167.68a1.83,1.83,0,0,1-2-2.27c.15-.94,1-1.77,2-3.61.93,1.78,1.74,2.61,1.63,3.28C92.92,166,92.21,167.53,91.49,167.68Z"/><path class="cls-1" d="M107.42,298.44h19.31s0,.73-.06,1.1C120.16,301.24,113.76,299.44,107.42,298.44Z"/><path class="cls-4" d="M115.28,68.35c.11-2.38-.26-4.73.4-6.75a66.25,66.25,0,0,0,2.59-15.43c.17-2.13,1.26-4.18,2-6.6,2.14,1.32,3,2.75,3,4.66q-.09,12.11-.24,24.21a8.87,8.87,0,0,1-.47,1.72Z"/><path d="M156.17,169.36c-2.38-.09-5.22-3-5.13-5.24.11-2.79,3.07-5.42,6.12-5.43,2.51,0,5.29,3,5.2,5.66C162.26,167.42,159.7,169.49,156.17,169.36ZM154,164.5c0,1.52,1,2.06,2.29,1.83s2.93-.6,3-3.19c-.66-.51-1.5-1.6-2.55-1.89C155.36,160.88,154,162.68,154,164.5Z"/><path class="cls-3" d="M156.27,166.33c-1.33.23-2.29-.31-2.29-1.83,0-1.82,1.39-3.62,2.79-3.25,1.05.28,1.89,1.37,2.55,1.89C159.19,165.73,157.7,166.08,156.27,166.33Z"/><path class="cls-2" d="M191.2,205c-2.94-5.45-3.38-11.43-3.39-17.48,0-7.83,1.93-15.38,3.3-23,2.11-11.81,7.94-21.88,13.81-32a22.65,22.65,0,0,1,4.77-5.29c.73-.65,2.51-1.07,3.15-.64a4.12,4.12,0,0,1,1.66,3.25,9.27,9.27,0,0,1-2.19,4.75c-6.16,6.47-9.31,14.55-10.49,22.95s-3.08,16.73-4.22,25.15c-1,7-.81,14,3.16,20.29a9.71,9.71,0,0,0,3,2.91,8.16,8.16,0,0,1,3.1,10.55,4.93,4.93,0,0,1-8.71.57C195.73,213.07,193.4,209.05,191.2,205Z"/><path class="cls-1" d="M206.85,203.77c-5.72-4.35-6.66-10.14-6.31-16a145.4,145.4,0,0,1,2.58-17.15c1-5.71,2.27-11.38,3.55-17,1.19-5.28,4-9.81,6.91-15.6,1.21,2.29,2.17,3.45,2.46,4.75,2.89,13.17,3.7,26.32-.72,39.38a16.53,16.53,0,0,0-.51,3.52c-.61,5.69-1.85,11.12-6.12,15.37A17.68,17.68,0,0,0,206.85,203.77Z"/><path class="cls-1" d="M221.72,169.81V150.39c8,2.39,13.87,1.11,19.68,5.34a4.53,4.53,0,0,1,2.25,4.37c-.16,5.22-5.41,9.95-12,9.72C228.55,169.73,225.72,169.81,221.72,169.81Z"/><path class="cls-5" d="M127.37,71c2.95.63,6.24,1.5,9.58,2,10.18,1.49,19.52,5.31,28.56,10,4.09,2.12,8.34,4,12.19,6.5,4.12,2.68,7.84,6,11.76,9,7.59,5.81,13.18,13.44,19,20.82a6.82,6.82,0,0,0,3.9,2.63c4.9,1.29,6.49,4.42,5.47,9.54a7.6,7.6,0,0,0,.16,3.42c1.12,4,2.4,8,3.79,12.61,2.27.32,5,.68,7.81,1.09,4,.59,8,1.05,11.95,1.91,1.66.36,3.89,1.19,4.53,2.47,1.07,2.15,2.63,2.21,4.36,2.28,4.17.18,8.34.22,12.51.36a10.11,10.11,0,0,1,1.81.42c.94,2.65.22,5.1-.64,7.48-1,2.77-3.55,3.08-5.95,3.07a33.76,33.76,0,0,1-6.22-.87c-1.9-.36-3.48-.27-4.78,1.48-4.08,5.45-9.7,7.14-16.27,6.51a21.77,21.77,0,0,0-4.49.21c-4.83.56-5,1-6.42,5.76-2.4,7.85-3.91,16-8.44,23.12a9,9,0,0,0-1.41,6.43,13.57,13.57,0,0,1-2.32,9.41c-1.77,2.76-3.83,5.08-7.68,3.88-1.48-.46-2.39.42-3.44,1.46-5.19,5.13-10.45,10.22-15.85,15.12a6.73,6.73,0,0,0-2.56,6.54,80.48,80.48,0,0,1-3.59,35.91,44.11,44.11,0,0,0-1.3,4.3c-.73,3.15-2.58,4.83-5.59,6.33C160,296,151.65,296,143.27,296.29c-4.17.12-8.34.46-12.4.69-.57,1.39-1,2.46-1.45,3.55a3.56,3.56,0,0,1-3.9,2.37c-5.68-.36-11.37-.63-17-1.18-2.85-.28-4-1.42-5.71-4.09-5.34,0-10.56,0-15.78,0a19.46,19.46,0,0,1-9-2c-3.56-1.82-7.55-2.78-11.3-4.27-5-2-7.7-6.94-7.53-12.43.36-12,.41-24,.72-35.93a81.67,81.67,0,0,1,1-8.25c-4.36-4.26-8.46-8.07-12.3-12.14-1.24-1.32-2.22-2.44-4.1-1.84-3.23,1-5.18-.87-6.79-3.12a13.92,13.92,0,0,1-2.86-10.16A9.22,9.22,0,0,0,33.41,201c-4.63-7.37-6.4-15.78-8.54-24-.71-2.71-1.92-3.81-4.44-4.8a29.79,29.79,0,0,1-8.29-5.09c-3.78-3.22-4.4-7.14-2.52-11.73,2.82-6.89,4-7.74,13.5-9.83,1.41-4.41,2.87-8.78,4.15-13.2a6.71,6.71,0,0,0-.28-3c-1-4.81,1.11-8.54,5.9-9.26,2.47-.37,3.69-1.52,5.28-3.34C48.6,104.76,58.82,92.54,72.61,84.16c6.21-3.77,12.31-7.82,18.85-10.92,4.8-2.27,10.19-3.42,15.42-4.61,2.08-.48,3.23-1.27,3.78-3.16,1.39-4.73,3.39-9.3,3.29-14.38-.1-5.46,2.91-10,4.85-14.78a2.42,2.42,0,0,1,.85-1c.95-.63,2.18-1.85,2.87-1.6A4.35,4.35,0,0,1,125,36.4a83.43,83.43,0,0,1,1.39,11.13C126.86,55.15,127.05,62.77,127.37,71Z"/><path class="cls-5" d="M38.66,122.31a13.89,13.89,0,0,0,1.13,1.62c9,8.9,12.67,20.75,16.34,32.19,3.07,9.57,5.23,19.72,5.2,29.94,0,7.31-.59,14.74-4.75,21.24-2.4,3.76-4.81,7.5-7.31,11.4a12.91,12.91,0,0,0,1.42,1.77c6.34,5.45,12.71,10.86,19,16.31,7.94,6.81,17.58,10.1,27.41,12.71,5.75,1.52,11.8,1.82,17.66,3,13,2.59,25.61.48,38-3.09,4-1.13,7.63-3.37,11.27-5.39,4.74-2.63,10.42-3.61,14-8.38,1.18-1.58,3.57-2.18,5.16-3.53,4.31-3.63,8.48-7.43,12.72-11.18-.71-1.19-1.06-1.83-1.46-2.44-2.27-3.51-5.09-6.78-6.7-10.58-2.13-5-4.18-10.36-4.66-15.71s.81-10.63,1.79-15.88c1.82-9.69,3.59-19.34,7.52-28.58,3.5-8.21,7.08-16.18,13.26-22.75.17-.18.13-.56.32-1.46-3.18-4.35-6.47-9.17-10.11-13.69a48.64,48.64,0,0,0-7.87-7.95,194.08,194.08,0,0,0-18.22-13A96.22,96.22,0,0,0,144,77.67a145.85,145.85,0,0,0-23.85-4,59.29,59.29,0,0,0-23.09,2.63C84.09,80.39,72.87,87.73,63,97.11c-6.4,6.09-12.7,12.29-18.94,18.53-2,2-3.65,4.24-5.55,6.48Z"/><path class="cls-5" d="M174.46,243.61c-6.1,2.07-10.66,6.51-16.76,7.62a23.78,23.78,0,0,0-5.21,1.31,53.75,53.75,0,0,1-27.22,4.1c-7.45-.73-14.95-1-22.39-1.89-9-1-17-5.3-25.11-9a37.08,37.08,0,0,1-5.88-3c-2.62-1.85-5-4-7.73-6.32-.29,4.16-.82,7.95-.76,11.72.19,11.39.63,22.76.91,34.15,0,2,.72,3.69,2.44,4.49,4,1.88,8.09,3.94,12.36,5.08a58.87,58.87,0,0,0,12.43,1.41c4.86.23,9.73,0,14.59.06,8.95,0,17.87,1.22,26.85,0,4.73-.62,9.55-.47,14.32-.81a85.52,85.52,0,0,0,12.46-1.29c5.27-1.17,9.55-3.76,11.18-9.64,3.07-11,5-22.17,4.2-33.64C175,246.54,174.7,245.11,174.46,243.61Z"/><path class="cls-5" d="M57.52,185.5c-.72-5.32-1.11-10.72-2.26-16-1.69-7.72-2.89-15.65-6.43-22.83C46,141.07,43,135.58,39.77,130.16a16.93,16.93,0,0,0-4.27-4.56,4.49,4.49,0,0,0-3.57-.78,2.76,2.76,0,0,0-1.47,3.79,17.49,17.49,0,0,0,2.89,4.95c5.79,6.69,8.39,14.78,10.13,23.17,1.18,5.68,1.71,11.49,2.63,17.23,1,6,2.51,12,1.22,18.17-1.06,5.06-2,10-7.36,12.89-3.43,1.84-3.68,7.8-1.13,10.87,1.76,2.11,6,2.27,7.53-.05C52.38,206.62,58.33,197.34,57.52,185.5Z"/><path class="cls-5" d="M187.81,187.5c0,6,.45,12,3.39,17.48,2.2,4.07,4.53,8.09,7,12a4.93,4.93,0,0,0,8.71-.57,8.16,8.16,0,0,0-3.1-10.55,9.71,9.71,0,0,1-3-2.91c-4-6.28-4.12-13.29-3.16-20.29,1.14-8.42,3-16.71,4.22-25.15s4.34-16.48,10.49-22.95a9.27,9.27,0,0,0,2.19-4.75,4.12,4.12,0,0,0-1.66-3.25c-.64-.44-2.42,0-3.15.64a22.65,22.65,0,0,0-4.77,5.29c-5.87,10.09-11.7,20.17-13.81,32C189.75,172.12,187.86,179.67,187.81,187.5Z"/><path class="cls-5" d="M31.22,136.41a37.88,37.88,0,0,0-2.37,4.88c-.52,1.7-.6,3.53-1,5.28a65.91,65.91,0,0,0,1.59,33.22,13.82,13.82,0,0,1,.67,3.5,26.27,26.27,0,0,0,8.11,18.44c3.39-2.11,4.53-5.22,5.44-8.6,1.72-6.43.53-12.77-.58-19-1.38-7.76-3.13-15.45-5-23.1C36.85,146.08,34.34,141.65,31.22,136.41Z"/><path class="cls-5" d="M206.85,203.77a17.68,17.68,0,0,1,1.84-2.76c4.27-4.25,5.51-9.67,6.12-15.37a16.53,16.53,0,0,1,.51-3.52c4.43-13.06,3.62-26.21.72-39.38-.29-1.31-1.25-2.46-2.46-4.75-2.88,5.79-5.72,10.31-6.91,15.6-1.28,5.66-2.52,11.33-3.55,17a145.4,145.4,0,0,0-2.58,17.15C200.19,193.63,201.14,199.42,206.85,203.77Z"/><path class="cls-5" d="M222.72,169.81c3,0,6.4-.09,9.49,0,6.6.22,11.53-4.5,11.69-9.72.06-2-.18-3.09-1.93-4.37-5.82-4.23-12.24-3-19.24-5.34Z"/><path class="cls-5" d="M122.53,70.16a8.87,8.87,0,0,0,.47-1.72q.15-12.11.24-24.21c0-1.91-.82-3.33-3-4.66-.77,2.42-1.86,4.48-2,6.6a66.25,66.25,0,0,1-2.59,15.43c-.65,2-.29,4.37-.4,6.75Z"/><path class="cls-5" d="M22.72,169.79V149.07c-6,.37-9.6,3.9-10.15,10C12.12,164.18,14.72,168.18,22.72,169.79Z"/><path class="cls-5" d="M126.67,298.54c0-.36,0-1.1.06-1.1H107.42C113.76,299.44,120.16,300.24,126.67,298.54Z"/><path class="cls-5" d="M162.36,164.36c-.1,3.06-2.66,5.14-6.19,5-2.38-.09-5.22-3-5.13-5.24.11-2.79,3.07-5.42,6.12-5.43C159.67,158.69,162.45,161.72,162.36,164.36Z"/><path class="cls-5" d="M159.31,163.14c-.66-.51-1.5-1.6-2.55-1.89-1.4-.37-2.79,1.43-2.79,3.25,0,1.52,1,2.06,2.29,1.83S159.19,165.73,159.31,163.14Z"/><path class="cls-5" d="M96,165.17c.06,2.54-1.85,4.85-4.09,5s-4.9-2.23-5-4.22c-.1-2.73,2.19-5.65,4.47-5.71C93.9,160.14,95.91,162.32,96,165.17Z"/><path class="cls-5" d="M91.47,161.79c-1.07,1.84-1.87,2.68-2,3.61a1.83,1.83,0,0,0,2,2.27c.72-.15,1.44-1.63,1.61-2.6C93.22,164.4,92.4,163.57,91.47,161.79Z"/></svg>