<svg id="圖層_1" data-name="圖層 1" xmlns="http://www.w3.org/2000/svg" viewBox="0 0 287.81 324.7"><defs><style>.cls-1{fill:#4f7434;}.cls-2{fill:#fff;}.cls-3{fill:#cf543f;}.cls-4{fill:#eabf29;}.cls-5{fill:#6a4e22;}</style></defs><title>chks</title><path d="M267.13,158.06c0,13.65-.44,27.31-4.56,40.53A15.56,15.56,0,0,0,262,203c0,3.28,0,3.28-2,5-.68,2.25-.91,4-1.68,5.36a88.19,88.19,0,0,1-6.75,11.28c-2.68,3.55-5.51,7.08-9.31,9.64-3.64,2.45-7,5.27-11.34,6.6a7.23,7.23,0,0,0-3,2.32,57.39,57.39,0,0,1-28,17.78c-10.08,2.92-20.42,5-30.69,7.25a3.43,3.43,0,0,0-3.09,3c-1.5,6.28-3.18,12.52-4.88,18.76a4.43,4.43,0,0,1-4.14,3.61c-2.28.16-4.37,0-5.8-2.23a4.58,4.58,0,0,1-.56-3.21c.36-4.83.69-9.68.6-14.52-.06-3.52-.86-4.13-4.31-4.69-5.71-.92-11.43-1.71-17.14-2.65-2.25-.36-4.46-1-7.14-1.58-.07,1.64-.15,3-.17,4.3-.05,4.86.06,9.72-.18,14.57a36,36,0,0,1-1.36,7.13c-.69,2.65-1.76,3.39-4.44,3.53-4.69.25-9.07-2.28-9.49-7.54-.43-5.41-.84-10.83-1.18-16.24-.13-2.07,0-4.15,0-6.51-3.28-1.34-6.48-2.61-9.64-3.95-3.61-1.55-7.27-3-10.76-4.79A32.69,32.69,0,0,1,74,245.41c-2.11-2.88-4.24-5.75-6.5-8.51a15.71,15.71,0,0,0-3.15-2.68c-1.23-.86-2.56-1.58-3.86-2.33-5.71-3.28-9.48-7.81-10.71-14.54-.89-4.86-2.79-9.53-3.93-14.36a84.63,84.63,0,0,1-1.28-9.26c-.44-3.56-.87-7.11-1.25-10.67a69.67,69.67,0,0,1,1.28-24.46,14.84,14.84,0,0,1,7.11-9.41c.74-.45,1.69-1,1.92-1.76,1.35-4.24,2.51-8.54,3.88-13.29a70.73,70.73,0,0,0-6.66,3,65.38,65.38,0,0,1-13.77,5.62c-3.53,1.08-7,2.41-10.43,3.75a12.44,12.44,0,0,1-13.31-2.09c-2.69-2.22-2.48-4.59.6-6.31a47.57,47.57,0,0,1,5-2.3c4.38-1.8,8.86-3.39,13.17-5.36C44,125.07,55.85,119.5,67.69,114a6.3,6.3,0,0,0,3.94-5.64,20.12,20.12,0,0,1,1-4,5.27,5.27,0,0,1,4.68-4.05c3.95-.51,7.08-2.58,10.16-4.92A179.26,179.26,0,0,1,120.88,75a70.58,70.58,0,0,1,15.77-5.2c5.56-1.11,6.06-1.95,5-7.57-.26-1.35-.54-2.72-.9-4.06-.84-3.1-1.56-3.6-4.73-2.79s-6.2,1.86-9.29,2.82c-3.77,1.17-7.1-.21-8.11-3.71a9,9,0,0,1,0-4.73,11.35,11.35,0,0,1,8.27-8.16c4-1.14,8.14-1.83,12.3-.43a8.58,8.58,0,0,0,2,.13c1.63-4.17,4.66-6.47,9.4-6.17L152,31.9a9,9,0,0,1,5.76-5.15c4.21-1.33,7.16-.1,8.48,4.1a66.21,66.21,0,0,1,2.55,11.82c.91,7.57,2,15.17.77,22.82a8.82,8.82,0,0,0,.2,2c3.12.28,6.24.33,9.26.89,3.84.71,7.61,1.82,11.4,2.8.78.2,1.51.58,2.28.83,18.66,6.14,34.16,17.14,48,30.81,7.24,7.13,11.87,15.91,16.14,24.91,1,2.15,1.35,4.63,2,7.07a8,8,0,0,0,1.27.41,5.64,5.64,0,0,1,5.1,5.34C266,146.34,267.13,152.21,267.13,158.06Zm-4.13,16a108.91,108.91,0,0,0-.82-28.32,13.84,13.84,0,0,0-1.66-4.5,2.74,2.74,0,0,0-2.19-1.22,3,3,0,0,0-1.9,1.69,9.6,9.6,0,0,0-.56,3.38c-.23,6.93-.51,13.87-.58,20.8-.14,15.34-2.62,30.34-6.22,45.2-.67,2.77-1.32,5.54-2,8.32l.79.19c.94-1.29,2-2.54,2.8-3.9a105.46,105.46,0,0,0,10.64-25.12,24.71,24.71,0,0,0,.79-4.77C262.44,181.9,262.57,178,263,174.07Zm-7.88-39.26a10,10,0,0,0-.23-1.4c-3.55-9.9-8.39-19-16.08-26.41-3.84-3.67-7.89-7.14-11.85-10.7-8.6-7.73-18.44-13.57-28.85-18.41a67.29,67.29,0,0,0-13.75-4.62c-11.14-2.48-22.5-2.69-33.83-1.85a83.92,83.92,0,0,0-32.6,8.75c-10.72,5.52-20.67,12.27-30.62,19-1.83,1.24-2.38,2.79-2.11,5.05a54.64,54.64,0,0,1,.27,9.33c-.16,3-1.93,4.63-4.93,4.78-1.94.09-3.91-.31-5.86-.32a3.53,3.53,0,0,0-2.45.69c-1.63,1.91-3.13,4-3,6.95,1.35.65,2.72,1.24,4,1.94,2.88,1.54,3.27,3.07,1.46,5.82a47.53,47.53,0,0,1-12.41,13c-.7.49-1.34,1.08-2.18,1.77a11.1,11.1,0,0,0,1.41.88c7.87,3,15.73,6.09,23.64,9a29.88,29.88,0,0,0,5.73,1.33c7.19,1.14,14.4,2.12,21.58,3.3a84.3,84.3,0,0,0,29-.73c2.94-.53,4.87-1.76,5.49-4.88a34.11,34.11,0,0,1,1.86-5.59c.85-2.16,1.29-2.26,4-1.28a9.71,9.71,0,0,1-.22,1.67c-3,9.64-6.3,19.13-13,27a19.9,19.9,0,0,0-1.8,2.55,46,46,0,0,1-8.43,9.61,66.71,66.71,0,0,0-5.51,6.18,6.57,6.57,0,0,0-1.09,2.15c-.67,2,.19,3.63,2.26,3.71a10,10,0,0,0,5-.83,34,34,0,0,0,7.87-5.56,162.87,162.87,0,0,0,14.51-16.31c5.84-7.87,10.89-16.32,13.6-25.92a5.11,5.11,0,0,1,.79-1.89c.84-1,2-1.9,3.29-1.22s.47,1.83.21,2.77c-.64,2.34-1.35,4.66-2,7-.25.95-.38,1.92-.6,3.06a45.09,45.09,0,0,0,14-1c13.56-2.91,26.83-7,40.23-10.44C234.75,149.53,244.63,141.95,255.12,134.81Zm-2.39,17.66a65.88,65.88,0,0,0-.24-7.5c-3.71,0-4.21.43-4.4,3.27-.06.92,0,1.85,0,2.78-.24,6.7-.39,13.4-.78,20.09-.24,4-1,8-1.27,12.08-1.11,15.43-3.9,30.48-9.91,44.83-.47,1.13-.77,2.32-1.15,3.48l.94.45a13.86,13.86,0,0,0,1.88-2.29,120.08,120.08,0,0,0,5.39-10.84c3.51-8.76,5.26-18,6.24-27.31C250.81,178.53,251.72,165.49,252.72,152.46Zm-7.84,10.67a41,41,0,0,0-.69-14.26c-4.14.47-4.95,1.17-5.13,4.62-.24,4.5-.35,9-.51,13.52a317.32,317.32,0,0,1-3.38,34.12c-1.51,10.45-4.57,20.5-7.66,30.55-.4,1.28-.69,2.59-1,3.89l.73.42a12.72,12.72,0,0,0,2.36-2.57c4.1-8.18,7.82-16.62,9.29-25.65C241.24,192.95,243,178,244.88,163.14Zm-8.81-2.52a21.79,21.79,0,0,0-.51-7.74l-8.27,2.67c-.28,2.77-.53,5.4-.81,8-.81,7.7-1.51,15.42-2.48,23.1-2,16.29-4.23,32.55-6.32,48.83a8.72,8.72,0,0,0,.38,2.41l.8.15a20.71,20.71,0,0,0,1.65-2.42c3.93-7.87,7.49-15.86,9.38-24.54s4.08-17.31,4.52-26.27C234.8,176.75,235.58,168.69,236.08,160.61Zm-13.82,0a35,35,0,0,0,.56-4.15c-2.58.84-4.62,1.59-6.7,2.17a5.46,5.46,0,0,0-3.54,3,23.66,23.66,0,0,0-2.72,9.61c-1.13,18.24-2.16,36.48-3.31,54.71-.22,3.44-.89,6.86-1.27,10.29a25.85,25.85,0,0,0-.19,4.83c0,.56,1,1.58,1.39,1.51a16.84,16.84,0,0,0,5.49-2c.9-.61,1.2-2.36,1.41-3.66,1.37-8.67,2.87-17.34,3.87-26.06,1.09-9.52,1.7-19.11,2.47-28.67C220.27,175,220.35,167.68,222.26,160.58Zm.12,83-.33-.68c-.55.09-1.1.16-1.64.26-7.15,1.33-14.28,2.8-21.45,4-8.43,1.41-16.92,2.46-25.34,3.89-9.23,1.57-18.43,3.34-27.87,2.48a13.48,13.48,0,0,0-2.08.08,56.81,56.81,0,0,1-15.52-1c-2.07-.43-4.22-.52-6.35-.77v8.83c1.16.27,2.14.58,3.14.74,6.15,1,12.34,1.88,18.46,3.05a53,53,0,0,0,18.27.34c6.05-.92,12.11-1.83,18.2-2.47a52.94,52.94,0,0,0,20.19-5.76c7.1-3.87,14.08-7.94,21.1-11.95A9,9,0,0,0,222.38,243.61Zm-14.7-77.13c.16-1.7.58-3.47-1.12-5.14l-10.74,3.25c-1.34,8.51-2.37,75.6-1.27,79,4.82.53,5.31.1,6.51-4.34a106.3,106.3,0,0,0,3.09-21.92c.49-9,.71-18,1.32-27C206,182.34,206.94,174.42,207.68,166.48Zm-16.86,38.67c.05-5.55-.13-11.1-.27-16.65q-.24-9.53-.62-19.07a26,26,0,0,0-.63-3.49l-10.24,2a15.48,15.48,0,0,0-.43,2.54c.14,14.23.27,28.47.48,42.69.14,9.71.61,19.43-1,29.08a23.78,23.78,0,0,0,0,3.83c4.11.59,7.67-.7,11.54-1.75.24-2.61.61-5.11.67-7.63C190.5,226.22,190.72,215.68,190.82,205.16Zm-18.65,28.07c1-10.23,3.29-20.31,3.17-30.67-.12-10.06-.07-20.12-.15-30.19a26.37,26.37,0,0,0-.58-3.73c-2.7,0-5-.15-7.3,0-3.14.26-4.77,2.7-4.43,5.76a58.79,58.79,0,0,1,.31,7.94c-.13,5.55-.55,11.09-.59,16.63-.09,14.12,0,28.24,0,42.35v7.53c2-.18,3.9-.32,5.8-.55,3.05-.39,3.34-.85,3.38-4C171.8,240.61,171.82,236.9,172.17,233.23Zm-6.22-169a26,26,0,0,0,.51-6.18c-.48-5.62-1.13-11.24-1.89-16.83a65.08,65.08,0,0,0-1.74-8.11,3.72,3.72,0,0,0-4.38-2.94c-2.61.63-4.72,5-3.25,7.25,2.4,3.77,2.94,7.91,3.35,12.19a10.5,10.5,0,0,0,1.75,5.46,9.85,9.85,0,0,1,2.36,6.61c0,1.75-.19,3.75,2,5.24A10.84,10.84,0,0,0,165.95,64.27Zm-9.46,224c3.54-3.13,6.52-14.44,5-19.31l-4.14.43C155.11,275.68,154.77,284.56,156.49,288.31Zm3.21-85.24a48.73,48.73,0,0,0-.55-5.82,16.86,16.86,0,0,1-.13-3.34,41,41,0,0,0-1-14.07,14.74,14.74,0,0,0-1.4,1.39c-2.59,3.55-5.07,7.19-7.77,10.65a7.58,7.58,0,0,0-1.54,5.82c.63,6.09,1.26,12.19,1.8,18.29.69,7.82,2,15.6,1.26,23.52-.27,3.08,0,6.22,0,9.86a43,43,0,0,0,4.54.32c2.22-.08,2.77-.62,3-2.95.23-2.65.3-5.31.41-8C158.77,226.87,159.29,215,159.7,203.06ZM154.11,66.94h5.54c-1.22-7.52-4.11-13.57-9.86-18.09a7.18,7.18,0,0,0-1.16-.75,35.73,35.73,0,0,0-14.5-4.23c-4.66-.23-8.69,1.34-11,5.66a4.81,4.81,0,0,0-.37,3.52c.51,1.4,2.1,1.81,3.54,1.48a32.12,32.12,0,0,0,4.23-1.45c9.54-3.64,19.24,1,22.43,10.71C153.26,64.85,153.71,65.89,154.11,66.94ZM154,47.12c.46-3.92-1.37-7.28-4.32-8.36a2.94,2.94,0,0,0-3.74,1.53c-.8,1.44-.21,2.39,1.08,3.08C149.3,44.62,151.6,45.84,154,47.12Zm-4.42,19.36a6.94,6.94,0,0,0-4.44-6.5c.19,2.08.2,3.63.5,5.12C146.22,68,146.65,68.17,149.58,66.49ZM143.76,245a255.47,255.47,0,0,0,.22-42.63c-.08-1.1-.35-2.19-.63-3.83L136.18,204c.71,6.12,1.56,11.48,1.88,16.86a112.74,112.74,0,0,1,0,16.28c-.48,5.45-1.16,5.73-6.55,6.54a2.9,2.9,0,0,1-.34,0,2.26,2.26,0,0,0-2.39,2.39c-.11,1.66.85,2.36,2.26,2.47,2.76.24,5.53.45,8.29.5C143,249.13,143.39,248.75,143.76,245Zm-4.11-73a26.69,26.69,0,0,0,1.73-4c-4.68-.75-8.85-1.57-13.52-.16.3,5.4.58,10.45.88,15.5a22.22,22.22,0,0,0,.43,2.22,21.4,21.4,0,0,0,3.33-2.93C135,179.08,137.36,175.54,139.65,172Zm-5.44,64.77A120.78,120.78,0,0,0,134,213.9a10.25,10.25,0,0,0-3-6.84,9.13,9.13,0,0,1-7.76-.79c-3.47-2.2-6.16-1.25-8.84,2.51-3.28,4.6-3.87,10-3,15.6a1.92,1.92,0,0,0,2.15,1.79c.8,0,1.59-.11,2.45-.18.46-1.27.91-2.45,1.32-3.64.59-1.74,1.44-3.12,3.52-3.32s4.05.5,4.94,2.43a31.83,31.83,0,0,1,2.15,6.83c.65,3.15,1,6.38,1.47,9.57a2.22,2.22,0,0,0,2.4,2,2.56,2.56,0,0,0,2.41-2.14A5,5,0,0,0,134.22,236.73Zm-8.91-49.11a65.59,65.59,0,0,0-1.64-17.5c-.23-.87-1.07-2.11-1.8-2.24a37.61,37.61,0,0,0-12.75-.67c.68,12.53.52,24.74,2.2,37.24,2-1,3.61-1.84,5.15-2.81a2.53,2.53,0,0,0,1.07-1.64c.35-4.2,2.82-6.87,6-9.23A4.63,4.63,0,0,0,125.31,187.62Zm-.67,58.76c1.36-3.42.24-15.29-2.15-20a27.25,27.25,0,0,0-.68,3.24c-.32,4.47-.63,8.94-.83,13.42C120.83,246,121.21,246.28,124.64,246.38Zm-6.89,41.56a34.26,34.26,0,0,0,.93-6.13c0-6.35-.19-12.7-.46-19a50.27,50.27,0,0,0-1.07-6.27l-7,.65c-.42,3.4-.42,3.4,1.93,6.23a4.5,4.5,0,0,0-1.92,4.94,22.92,22.92,0,0,1,0,2.76c.4,5.05.81,10.1,1.29,15.14a6.81,6.81,0,0,0,.8,2.28,3,3,0,0,0,3.19,1.57A2.27,2.27,0,0,0,117.74,287.94Zm-4.35-43.13c3.25-.39,4.45-2.39,3.64-6.44l-7.43,1.42C109.79,244,110.74,245.12,113.4,244.81Zm2.52,8c1.66-1.08,1.18-3,.6-5.08-1.74.24-3.21.38-4.65.66s-2.4,1-2.36,2.49a2.53,2.53,0,0,0,2.24,2.65A7.12,7.12,0,0,0,115.92,252.79Zm-1.06-17.66c2-.92,2-2.55,1.23-4.8l-5.76-.85c-.6,2.25-1.19,4.21.38,5.79C111.95,236.51,113.52,235.75,114.86,235.13Zm-8.74-5.25a111.65,111.65,0,0,0,1.15-23.14c-.42-5.88-.52-11.77-.86-17.66-.36-6.33-.23-12.72-2-18.9-1.38-4.78-1.94-5.18-7.66-5.09,0,1.41-.06,2.66,0,3.9.65,11.65,1.16,23.31,2,34.95.93,12.32,2.22,24.61,3.35,36.91.14,1.48.21,3,2.53,3.72a29.93,29.93,0,0,0,.64-3.3C105.6,237.48,105.61,233.64,106.12,229.88Zm-.6,29.21c0-2,0-3.91,0-5.86-.08-3.35-.53-4-3.76-4a27.2,27.2,0,0,1-9.41-2c-2.7-1-5.39-2.05-8.12-3-2.16-.72-4.37-1.24-7.14-2C80.13,248.94,97.34,258.84,105.52,259.09Zm-9.73-16.29c0-3,0-5.55,0-8.06-.11-10.06-.06-20.12-.39-30.18-.31-9.47-1-18.93-1.59-28.39a92.81,92.81,0,0,0-1.37-9.6c-.43-2.47-2.32-3.67-4.85-3.33-1.65.22-2.13.94-2,3.72.19,5.44.45,10.87.72,16.29.25,5.07.74,10.15.79,15.22.08,8.79-.18,17.58-.13,26.38,0,4.39.37,8.77.73,13.15.28,3.45,1.37,4.45,4.75,4.78C93.41,242.88,94.44,242.79,95.79,242.79Zm-12.06-2.94c-.31-3.91-.74-7.47-.85-11q-.78-25.16-1.39-50.33c-.1-4.39.2-8.79.16-13.19,0-4-.62-4.46-5.29-5.24-.25,2.87-.56,5.71-.73,8.56-.68,11.2-1.66,22.39-1.87,33.6-.17,9.47.51,19,.92,28.43C75,237.76,75.65,238.38,83.73,239.85ZM82.13,111.13c0-.34,0-.69.08-1.72a34.61,34.61,0,0,0-.93-4.37c-.49-1.49-2.12-1.92-2.93-.69a21.74,21.74,0,0,0-2.94,6.09c-.53,1.9,1.67,4.41,3.38,4.49C80.28,115,81.83,113.23,82.13,111.13ZM70.79,234.06c.08-1.41.16-2.18.15-2.95q-.07-20.47-.18-40.94a19.41,19.41,0,0,0-.24-2.76A105.86,105.86,0,0,1,70,160.11a33,33,0,0,0,0-3.42l-8.2-2.63c-.41,3.43-1,6.26-1.06,9.11-.39,13.89.33,27.74,1.31,41.58.52,7.38,1.26,14.73,2,22.1A5.29,5.29,0,0,0,65.14,230,52.86,52.86,0,0,0,70.79,234.06Zm-.91-101.81c.26-.34.27-1.35,0-1.51a2.25,2.25,0,0,0-1.82-.33A5.14,5.14,0,0,0,66,132.13c-1.5,2.31-2.91,4.69-4.24,7.09a10.61,10.61,0,0,0-.67,2.5l.93.42C64.65,138.86,67.31,135.59,69.88,132.26ZM61.72,127a10.34,10.34,0,0,0,4.77-7.08c-1.91.83-3.35,1.42-4.76,2.08-13.76,6.45-27,14.12-42.15,17.27-.86.18-1.58,1-2.71,1.73a8,8,0,0,0,5.65,1.68,35.13,35.13,0,0,0,11.07-2.56c2.74-1.2,5.58-2.18,8.41-3.15A83.77,83.77,0,0,0,61.72,127Zm-1.87,98.11c-.25-2.59-.5-4.52-.6-6.44-.77-14.21-1.59-28.41-2.22-42.62-.3-6.92-1-13.87.58-20.75a10.4,10.4,0,0,0-.13-2.59c-3.88-.16-4.47.15-5.43,3.25a19.48,19.48,0,0,0-1.11,5.41c-.08,8-.27,16,.15,23.93.49,9.23,1.67,18.42,2.38,27.65a18.34,18.34,0,0,0,4.16,10.44A14.86,14.86,0,0,0,59.85,225.13ZM46.51,179.71v-4.48h-.35v4.48Z"/><path class="cls-1" d="M262.18,145.75a108.91,108.91,0,0,1,.82,28.32c-.43,3.9-.56,7.83-.91,11.74a24.71,24.71,0,0,1-.79,4.77,105.46,105.46,0,0,1-10.64,25.12c-.83,1.36-1.86,2.61-2.8,3.9l-.79-.19c.66-2.78,1.31-5.55,2-8.32,3.6-14.86,6.08-29.86,6.22-45.2.07-6.93.35-13.87.58-20.8a9.6,9.6,0,0,1,.56-3.38,3,3,0,0,1,1.9-1.69,2.74,2.74,0,0,1,2.19,1.22A13.84,13.84,0,0,1,262.18,145.75Z"/><path class="cls-2" d="M254.89,133.41a10,10,0,0,1,.23,1.4c-10.48,7.14-20.37,14.72-33,18-13.41,3.48-26.67,7.54-40.23,10.44a45.09,45.09,0,0,1-14,1c.22-1.14.34-2.12.6-3.06.63-2.34,1.34-4.66,2-7,.26-.94,1.07-2.13-.21-2.77s-2.46.24-3.29,1.22a5.11,5.11,0,0,0-.79,1.89c-2.71,9.6-7.76,18-13.6,25.92A162.87,162.87,0,0,1,138,196.74a34,34,0,0,1-7.87,5.56,10,10,0,0,1-5,.83c-2.07-.08-2.93-1.69-2.26-3.71a6.57,6.57,0,0,1,1.09-2.15,66.71,66.71,0,0,1,5.51-6.18,46,46,0,0,0,8.43-9.61,19.9,19.9,0,0,1,1.8-2.55c6.65-7.9,10-17.38,13-27a9.71,9.71,0,0,0,.22-1.67c-2.75-1-3.19-.88-4,1.28a34.11,34.11,0,0,0-1.86,5.59c-.63,3.11-2.56,4.34-5.49,4.88a84.3,84.3,0,0,1-29,.73c-7.18-1.18-14.4-2.16-21.58-3.3a29.88,29.88,0,0,1-5.73-1.33c-7.91-2.93-15.77-6-23.64-9a11.1,11.1,0,0,1-1.41-.88c.84-.68,1.48-1.27,2.18-1.77a47.53,47.53,0,0,0,12.41-13c1.81-2.75,1.42-4.28-1.46-5.82-1.31-.71-2.67-1.29-4-1.94-.12-3,1.38-5,3-6.95a3.53,3.53,0,0,1,2.45-.69c2,0,3.92.41,5.86.32,3-.16,4.77-1.79,4.93-4.78a54.64,54.64,0,0,0-.27-9.33c-.27-2.26.28-3.81,2.11-5.05,9.94-6.77,19.9-13.52,30.62-19a83.92,83.92,0,0,1,32.6-8.75c11.33-.84,22.69-.63,33.83,1.85a67.29,67.29,0,0,1,13.75,4.62c10.4,4.84,20.25,10.68,28.85,18.41,4,3.55,8,7,11.85,10.7C246.5,114.36,251.33,123.51,254.89,133.41ZM122.14,101c1.55-2.16,1.55-2.54-.32-4.41-2.28-2.29-4.64-4.52-7-6.74-3.5-3.31-6.12-3.47-10.08-.6a9.54,9.54,0,0,0-4.35,7.49c.42.54,1,1.84,1.91,2.37,4,2.22,8.2,4.25,12.34,6.28a3.61,3.61,0,0,0,4.92-1.12C120.41,103.16,121.33,102.12,122.14,101Zm-13.4,27.25c1,0,1.79-.43,1.61-1.81a7.5,7.5,0,0,0-6.7-1.46A5,5,0,0,0,108.74,128.24Zm-3.91-10c4.16,2.85,6.87,2.64,8.83-.5C109.57,116.25,107.49,116.33,104.83,118.27Zm-7.6-8.47-2.14-2.41c-2.67,2.29-3,3.2-1.86,4.19S95.3,112.12,97.23,109.8Z"/><path class="cls-1" d="M252.49,145a65.88,65.88,0,0,1,.24,7.5c-1,13-1.91,26.06-3.29,39-1,9.31-2.73,18.55-6.24,27.31a120.08,120.08,0,0,1-5.39,10.84,13.86,13.86,0,0,1-1.88,2.29l-.94-.45c.38-1.17.68-2.36,1.15-3.48,6-14.35,8.79-29.4,9.91-44.83.29-4,1-8,1.27-12.08.39-6.69.54-13.39.78-20.09,0-.93-.05-1.85,0-2.78C248.28,145.4,248.77,145,252.49,145Z"/><path class="cls-1" d="M244.19,148.87a41,41,0,0,1,.69,14.26c-1.9,14.89-3.64,29.81-6,44.63-1.47,9-5.19,17.47-9.29,25.65a12.72,12.72,0,0,1-2.36,2.57l-.73-.42c.34-1.3.64-2.61,1-3.89,3.09-10,6.16-20.1,7.66-30.55A317.32,317.32,0,0,0,238.55,167c.16-4.51.27-9,.51-13.52C239.24,150,240,149.34,244.19,148.87Z"/><path class="cls-1" d="M235.57,152.87a21.79,21.79,0,0,1,.51,7.74c-.49,8.08-1.27,16.14-1.66,24.22-.43,9-2.62,17.57-4.52,26.27s-5.45,16.67-9.38,24.54a20.71,20.71,0,0,1-1.65,2.42l-.8-.15a8.72,8.72,0,0,1-.38-2.41C219.78,219.23,222,203,224,186.68c1-7.68,1.66-15.4,2.48-23.1.28-2.63.53-5.27.81-8Z"/><path class="cls-1" d="M222.81,156.43a35,35,0,0,1-.56,4.15c-1.9,7.1-2,14.4-2.57,21.66-.77,9.56-1.38,19.15-2.47,28.67-1,8.72-2.5,17.39-3.87,26.06-.2,1.3-.51,3.05-1.41,3.66a16.84,16.84,0,0,1-5.49,2c-.34.08-1.34-.94-1.39-1.51a25.85,25.85,0,0,1,.19-4.83c.39-3.44,1.05-6.85,1.27-10.29,1.15-18.24,2.18-36.48,3.31-54.71a23.66,23.66,0,0,1,2.72-9.61,5.46,5.46,0,0,1,3.54-3C218.2,158,220.24,157.27,222.81,156.43Z"/><path class="cls-2" d="M222.05,242.94l.33.68a9,9,0,0,1-1.22,1c-7,4-14,8.08-21.1,11.95a52.94,52.94,0,0,1-20.19,5.76c-6.09.64-12.15,1.55-18.2,2.47a53,53,0,0,1-18.27-.34c-6.12-1.18-12.31-2-18.46-3.05-1-.16-2-.47-3.14-.74v-8.83c2.13.25,4.27.34,6.35.77a56.81,56.81,0,0,0,15.52,1,13.48,13.48,0,0,1,2.08-.08c9.44.85,18.64-.91,27.87-2.48,8.42-1.43,16.91-2.48,25.34-3.89,7.17-1.19,14.3-2.65,21.45-4C221,243.09,221.5,243,222.05,242.94Z"/><path class="cls-1" d="M206.56,161.34c1.7,1.67,1.27,3.44,1.12,5.14-.74,7.93-1.67,15.85-2.22,23.8-.61,9-.83,18-1.32,27a106.3,106.3,0,0,1-3.09,21.92c-1.19,4.44-1.69,4.87-6.51,4.34-1.09-3.36-.07-70.46,1.27-79Z"/><path class="cls-1" d="M190.55,188.51c.14,5.55.32,11.1.27,16.65-.1,10.52-.32,21.06-.57,31.58-.06,2.52-.43,5-.67,7.63-3.88,1.06-7.44,2.34-11.54,1.75a23.78,23.78,0,0,1,0-3.83c1.65-9.65,1.18-19.37,1-29.08-.21-14.23-.34-28.46-.48-42.69a15.48,15.48,0,0,1,.43-2.54l10.24-2a26,26,0,0,1,.63,3.49Q190.31,179,190.55,188.51Z"/><path class="cls-1" d="M175.34,202.56c.12,10.36-2.2,20.45-3.17,30.67-.35,3.67-.36,7.38-.41,11.07,0,3.2-.33,3.66-3.38,4-1.91.24-3.83.37-5.8.55v-7.53c0-14.12-.05-28.24,0-42.35,0-5.54.46-11.09.59-16.63a58.79,58.79,0,0,0-.31-7.94c-.35-3.06,1.29-5.5,4.43-5.76,2.29-.19,4.61,0,7.3,0a26.37,26.37,0,0,1,.58,3.73C175.28,182.43,175.22,192.5,175.34,202.56Z"/><path class="cls-3" d="M166.46,58.09a26,26,0,0,1-.51,6.18,10.84,10.84,0,0,1-1.3,2.7c-2.19-1.48-2-3.49-2-5.24a9.85,9.85,0,0,0-2.36-6.61,10.5,10.5,0,0,1-1.75-5.46c-.41-4.28-.94-8.42-3.35-12.19-1.47-2.29.64-6.62,3.25-7.25a3.72,3.72,0,0,1,4.38,2.94,65.08,65.08,0,0,1,1.74,8.11C165.33,46.85,166,52.46,166.46,58.09Z"/><path class="cls-4" d="M161.46,269c1.55,4.87-1.43,16.18-5,19.31-1.72-3.74-1.38-12.63.83-18.88Z"/><path class="cls-1" d="M159.15,197.25a48.73,48.73,0,0,1,.55,5.82c-.41,11.91-.93,23.8-1.42,35.7-.11,2.66-.18,5.32-.41,8-.2,2.33-.76,2.87-3,2.95a43,43,0,0,1-4.54-.32c0-3.64-.23-6.77,0-9.86.7-7.92-.57-15.7-1.26-23.52-.55-6.1-1.17-12.2-1.8-18.29a7.58,7.58,0,0,1,1.54-5.82c2.7-3.46,5.18-7.1,7.77-10.65a14.74,14.74,0,0,1,1.4-1.39,41,41,0,0,1,1,14.07A16.86,16.86,0,0,0,159.15,197.25Z"/><path class="cls-3" d="M159.65,66.94h-5.54c-.4-1-.84-2.08-1.2-3.15-3.19-9.71-12.89-14.34-22.43-10.71a32.12,32.12,0,0,1-4.23,1.45c-1.44.33-3-.08-3.54-1.48a4.81,4.81,0,0,1,.37-3.52c2.36-4.32,6.39-5.89,11-5.66a35.73,35.73,0,0,1,14.5,4.23,7.18,7.18,0,0,1,1.16.75C155.53,53.36,158.43,59.42,159.65,66.94Z"/><path class="cls-3" d="M149.68,38.77c2.95,1.08,4.78,4.44,4.32,8.36-2.4-1.28-4.7-2.5-7-3.74-1.29-.69-1.88-1.64-1.08-3.08A2.94,2.94,0,0,1,149.68,38.77Z"/><path class="cls-3" d="M145.14,60a6.94,6.94,0,0,1,4.44,6.5c-2.92,1.68-3.36,1.56-3.94-1.38C145.34,63.62,145.33,62.07,145.14,60Z"/><path class="cls-1" d="M144,202.34a255.47,255.47,0,0,1-.22,42.63c-.37,3.78-.73,4.15-4.44,4.08-2.77-.06-5.54-.26-8.29-.5-1.41-.12-2.37-.82-2.26-2.47a2.26,2.26,0,0,1,2.39-2.39,2.9,2.9,0,0,0,.34,0c5.39-.81,6.08-1.09,6.55-6.54a112.74,112.74,0,0,0,0-16.28c-.32-5.38-1.17-10.74-1.88-16.86l7.17-5.44C143.63,200.15,143.9,201.24,144,202.34Z"/><path class="cls-1" d="M141.38,167.91a26.69,26.69,0,0,1-1.73,4c-2.3,3.58-4.68,7.12-7.16,10.58a21.4,21.4,0,0,1-3.33,2.93,22.22,22.22,0,0,1-.43-2.22c-.3-5-.58-10.09-.88-15.5C132.53,166.33,136.7,167.15,141.38,167.91Z"/><path class="cls-5" d="M134,213.9a120.78,120.78,0,0,1,.26,22.83,5,5,0,0,1-.14,1,2.56,2.56,0,0,1-2.41,2.14,2.22,2.22,0,0,1-2.4-2c-.5-3.19-.82-6.41-1.47-9.57a31.83,31.83,0,0,0-2.15-6.83c-.89-1.93-2.75-2.64-4.94-2.43s-2.93,1.59-3.52,3.32c-.4,1.19-.85,2.36-1.32,3.64-.86.07-1.65.15-2.45.18a1.92,1.92,0,0,1-2.15-1.79c-.83-5.56-.24-11,3-15.6,2.68-3.76,5.38-4.71,8.84-2.51a9.13,9.13,0,0,0,7.76.79A10.25,10.25,0,0,1,134,213.9Z"/><path class="cls-1" d="M123.68,170.12a65.59,65.59,0,0,1,1.64,17.5,4.63,4.63,0,0,1-1.74,3.14c-3.2,2.36-5.68,5-6,9.23a2.53,2.53,0,0,1-1.07,1.64c-1.55,1-3.2,1.76-5.15,2.81-1.67-12.5-1.51-24.71-2.2-37.24a37.61,37.61,0,0,1,12.75.67C122.6,168,123.45,169.25,123.68,170.12Z"/><path class="cls-1" d="M122.48,226.42c2.39,4.66,3.51,16.54,2.15,20-3.43-.1-3.8-.36-3.67-3.3.2-4.47.51-8.95.83-13.42A27.25,27.25,0,0,1,122.48,226.42Z"/><path d="M121.82,96.58c1.87,1.88,1.87,2.25.32,4.41-.81,1.13-1.73,2.17-2.57,3.27a3.61,3.61,0,0,1-4.92,1.12c-4.14-2-8.3-4.06-12.34-6.28-1-.53-1.49-1.83-1.91-2.37a9.54,9.54,0,0,1,4.35-7.49c4-2.87,6.58-2.71,10.08.6C117.18,92.06,119.54,94.28,121.82,96.58Zm-8.28,4.76c3.32,1.38,4.6.38,4-3.16a4.72,4.72,0,0,0-1.22-2.37,28.67,28.67,0,0,0-3.68-3.14c-2.76-2-4.31-1.88-6.68.48a26,26,0,0,0-1.81,2.33A27.76,27.76,0,0,0,113.54,101.33Z"/><path class="cls-5" d="M118.68,281.81a34.26,34.26,0,0,1-.93,6.13,2.27,2.27,0,0,1-2.32,2.12,3,3,0,0,1-3.19-1.57,6.81,6.81,0,0,1-.8-2.28c-.48-5-.9-10.09-1.29-15.14a22.92,22.92,0,0,0,0-2.76,4.5,4.5,0,0,1,1.92-4.94c-2.35-2.82-2.35-2.82-1.93-6.23l7-.65a50.27,50.27,0,0,1,1.07,6.27C118.49,269.11,118.66,275.46,118.68,281.81Z"/><path class="cls-5" d="M117.56,98.17c.58,3.54-.7,4.54-4,3.16a27.76,27.76,0,0,1-9.37-5.86A26,26,0,0,1,106,93.14c2.36-2.36,3.92-2.48,6.68-.48a28.67,28.67,0,0,1,3.68,3.14A4.72,4.72,0,0,1,117.56,98.17Z"/><path class="cls-2" d="M117,238.38c.82,4-.38,6.05-3.64,6.44-2.65.31-3.61-.85-3.79-5Z"/><path class="cls-2" d="M116.52,247.71c.57,2.1,1.05,4-.6,5.08a7.12,7.12,0,0,1-4.16.71,2.53,2.53,0,0,1-2.24-2.65c0-1.53,1-2.23,2.36-2.49S114.78,247.95,116.52,247.71Z"/><path class="cls-2" d="M116.09,230.33c.76,2.26.76,3.88-1.23,4.8-1.34.62-2.91,1.38-4.14.14-1.58-1.58-1-3.55-.38-5.79Z"/><path d="M110.35,126.43c.18,1.38-.62,1.82-1.61,1.81a5,5,0,0,1-5.09-3.27A7.5,7.5,0,0,1,110.35,126.43Z"/><path d="M113.66,117.77c-2,3.14-4.67,3.35-8.83.5C107.49,116.33,109.57,116.25,113.66,117.77Z"/><path class="cls-1" d="M107.27,206.74a111.65,111.65,0,0,1-1.15,23.14c-.51,3.77-.52,7.6-.82,11.39a29.93,29.93,0,0,1-.64,3.3c-2.32-.72-2.4-2.24-2.53-3.72-1.13-12.3-2.41-24.59-3.35-36.91-.88-11.63-1.39-23.3-2-34.95-.07-1.24,0-2.49,0-3.9,5.72-.1,6.28.31,7.66,5.09,1.79,6.18,1.65,12.57,2,18.9C106.75,195,106.84,200.86,107.27,206.74Z"/><path class="cls-2" d="M105.51,253.23c0,2,0,3.9,0,5.86-8.19-.25-25.4-10.15-28.44-16.82,2.76.77,5,1.29,7.14,2,2.73.9,5.42,1.95,8.12,3a27.2,27.2,0,0,0,9.41,2C105,249.25,105.43,249.88,105.51,253.23Z"/><path class="cls-1" d="M95.79,234.73c0,2.51,0,5,0,8.06-1.35,0-2.38.08-3.39,0-3.38-.34-4.47-1.34-4.75-4.78-.36-4.38-.7-8.77-.73-13.15-.06-8.79.21-17.58.13-26.38,0-5.07-.53-10.15-.79-15.22-.27-5.43-.53-10.85-.72-16.29-.09-2.78.38-3.5,2-3.72,2.53-.35,4.42.86,4.85,3.33a92.81,92.81,0,0,1,1.37,9.6c.64,9.46,1.28,18.92,1.59,28.39C95.72,214.61,95.68,224.67,95.79,234.73Z"/><path d="M95.09,107.39l2.14,2.41c-1.93,2.32-2.89,2.71-4,1.78S92.42,109.68,95.09,107.39Z"/><path class="cls-1" d="M82.89,228.82c.11,3.56.54,7.12.85,11-8.08-1.47-8.74-2.09-9-9.2-.41-9.48-1.09-19-.92-28.43.2-11.21,1.18-22.4,1.87-33.6.17-2.84.48-5.69.73-8.56,4.67.78,5.25,1.29,5.29,5.24,0,4.4-.26,8.8-.16,13.19Q82.09,203.66,82.89,228.82Z"/><path class="cls-2" d="M82.21,109.41c0,1,0,1.38-.08,1.72-.29,2.1-1.85,3.87-3.33,3.81-1.71-.08-3.91-2.6-3.38-4.49a21.74,21.74,0,0,1,2.94-6.09c.81-1.22,2.45-.8,2.93.69A34.61,34.61,0,0,1,82.21,109.41Z"/><path class="cls-1" d="M70.95,231.11c0,.77-.08,1.54-.15,2.95A52.86,52.86,0,0,1,65.14,230,5.29,5.29,0,0,1,64,226.84c-.72-7.36-1.46-14.72-2-22.1-1-13.84-1.71-27.69-1.31-41.58.08-2.84.65-5.68,1.06-9.11l8.2,2.63a33,33,0,0,1,0,3.42,105.86,105.86,0,0,0,.55,27.31,19.41,19.41,0,0,1,.24,2.76Q70.88,210.65,70.95,231.11Z"/><path class="cls-5" d="M69.91,130.74c.24.16.24,1.17,0,1.51-2.57,3.33-5.23,6.6-7.86,9.89l-.93-.42a10.61,10.61,0,0,1,.67-2.5c1.33-2.41,2.74-4.78,4.24-7.09a5.14,5.14,0,0,1,2.08-1.73A2.25,2.25,0,0,1,69.91,130.74Z"/><path class="cls-4" d="M66.49,119.94A10.34,10.34,0,0,1,61.72,127,83.77,83.77,0,0,1,42,137c-2.83,1-5.67,2-8.41,3.15a35.13,35.13,0,0,1-11.07,2.56A8,8,0,0,1,16.88,141c1.13-.74,1.85-1.55,2.71-1.73C34.72,136.14,48,128.47,61.74,122,63.15,121.36,64.59,120.77,66.49,119.94Z"/><path class="cls-1" d="M59.25,218.69c.1,1.92.36,3.85.6,6.44a14.86,14.86,0,0,1-2.22-1.73A18.34,18.34,0,0,1,53.47,213c-.71-9.22-1.89-18.41-2.38-27.65-.42-8-.23-16-.15-23.93A19.48,19.48,0,0,1,52,156c1-3.11,1.55-3.41,5.43-3.25a10.4,10.4,0,0,1,.13,2.59c-1.54,6.88-.89,13.84-.58,20.75C57.66,190.28,58.48,204.48,59.25,218.69Z"/><path class="cls-2" d="M46.51,175.23v4.48h-.35v-4.48Z"/></svg>