<svg id="圖層_1" data-name="圖層 1" xmlns="http://www.w3.org/2000/svg" viewBox="0 0 287.81 324.7"><defs><style>.cls-1{fill:#f3e7b8;}.cls-2{fill:#bf5145;}.cls-3{fill:#ddae1d;}.cls-4{fill:#fff;}.cls-5{fill:#cf543f;}</style></defs><title>chks</title><path class="cls-1" d="M245.47,202.3l-8.1-5.46,3.69-7.45c3.9.36,6.21,2.95,9.21,5.43Z"/><path class="cls-2" d="M31.28,122.77l9,2.38-2.05,6.64-10.43-.52Z"/><path class="cls-2" d="M177.51,115.45l-5.93,1,1-5.35Z"/><path class="cls-1" d="M117.14,172.51l8.76,4c-2.13,2.53-4.68,3.21-7.24,2C116.59,177.49,116.39,176.75,117.14,172.51Z"/><path class="cls-1" d="M138.9,249.59v5.53l-8.07-.79c.25-2.15.41-3.54.64-5.53Z"/><path class="cls-2" d="M229.5,110.35c2.9,5.23,6.12,10.31,8.55,15.76,1.54,3.44,2,7.4,2.72,11.17a12,12,0,0,1-.36,3.49l-1.45,0a47.82,47.82,0,0,1-1.12-5.25c-.77-7.6-4.2-14.16-7.87-20.64-.28-.49-.66-.94-.93-1.44-8.85-16.5-22.36-28.31-37.88-38.25a54.54,54.54,0,0,0-22.33-8.05,209.7,209.7,0,0,0-48.31-.82,18.93,18.93,0,0,0-5,1.06c-5.59,2.14-11.24,4.22-16.66,6.76S88.14,79.54,83,82.61a37.59,37.59,0,0,0-7.7,6.1C70,94.12,64.93,99.68,60,105.4c-7.64,8.87-12.9,19.15-16.92,30.09-1,2.79-2,5.62-3,8.72-1.55-1.43-1.13-2.82-.78-4.16,2-7.91,4.28-15.66,9.47-22.3,2.52-3.21,4.23-7.05,6.5-10.48a63.57,63.57,0,0,1,5.94-7.82c4.54-4.94,9.13-9.86,14-14.46,10.68-10.07,23-17.27,37.39-20.78a36.47,36.47,0,0,1,7.18-1.12c10.71-.43,21.42-.91,32.13-1a72.66,72.66,0,0,1,25.56,4.8c3.61,1.33,7.28,2.53,10.91,3.78a54.23,54.23,0,0,1,17.91,10.72A105.47,105.47,0,0,1,229.5,110.35Z"/><path class="cls-1" d="M41.23,122.49l-8-3.87,4.36-8.43,8,4.09Z"/><path class="cls-1" d="M241.16,105.66l-7.83,5.17-6.79-11.61,8.52-4.47A21.2,21.2,0,0,1,241.16,105.66Z"/><path d="M120.43,224.26c1,.43,1.61,1.63,2.13,2.21-.29,2.38-1.68,2.66-2.9,2.35a3.66,3.66,0,0,1-2.3-1.95C116.91,225.6,119.13,223.69,120.43,224.26Z"/><path class="cls-2" d="M251.92,192l-9.58-6c.62-2.3,1.17-4.32,1.78-6.57l12.53-.65C256.14,183.77,254.27,187.77,251.92,192Z"/><path class="cls-2" d="M237.17,212.76l-7.3-5.56c1.36-2.07,2.56-3.82,3.68-5.61a2.78,2.78,0,0,1,4.33-1c1.86,1.19,3.63,2.54,5.78,4.06Z"/><path class="cls-1" d="M165.17,106.33c2,1.62,1.76,3.12.28,5.15L161.1,109c0-.34.08-.68.11-1Z"/><path class="cls-1" d="M98.13,141.7c.16,2.87.27,4.94.41,7.28-2.38-.16-3.69-1.45-3.9-3.28S96,142.86,98.13,141.7Z"/><path class="cls-1" d="M112.8,107.26l6.68.39c-1.33,3.43-3.44,4.43-6.68,4.53Z"/><path class="cls-2" d="M244.57,139.22l7.7-2.87c.35,2.8.79,5.3.94,7.81.18,2.8-.31,3.28-3,3.52-1,.09-2,0-3.38,0Z"/><path class="cls-3" d="M148,244c1.32,2,2.93,4.31,2.91,6.48,0,6-1.57,11.75-3.4,18.53-1.29-1.6-2.08-2.26-2.45-3.1a33.05,33.05,0,0,1-2.56-19.2,6.68,6.68,0,0,1,1-2.36C144.74,242.43,146.74,242.15,148,244Z"/><path class="cls-1" d="M35.78,141.48l-11.19,1.11,1.81-7.66H37.18Z"/><path class="cls-2" d="M121.9,104.07c2.07-3.41,4.43-4.56,7.34-3.81C127.86,105.12,127.24,105.47,121.9,104.07Z"/><path class="cls-2" d="M91.89,244.91c2.77-3.68,6.54-3.75,13.39-.78l-1,4.08Z"/><path class="cls-2" d="M172.65,243.17l1.21,6.21-6.18,2.29c-.22-2.68-.39-4.62-.59-7Z"/><path class="cls-1" d="M136.5,96.69l7.08,4c-6.74,2.57-6.78,2.57-10.23,1Z"/><path class="cls-4" d="M157,144.09c4-1.15,6.11-4.24,6.71-8.09a7.69,7.69,0,0,0-3.32-7.84,14.62,14.62,0,0,0-18.82,1.42,30.11,30.11,0,0,0-3.05,4.08l-1-.71c-.28-.92-.59-1.83-.83-2.75-1-4.09-2.09-5.06-6.32-5.72a29,29,0,0,0-3-.36,19.11,19.11,0,0,0-17.07,8c-3.57,4.78-2.67,9.18,2.42,12.24a18.69,18.69,0,0,0,5,2.35,8.31,8.31,0,0,1,6.68,6.83,11.86,11.86,0,0,0,.42,1.21c2.55,7.43,13.55,10.22,19.49,4.14a20.36,20.36,0,0,0,5.8-10.25c.23-1.09.51-2.17.77-3.27C153.08,144.88,155.07,144.63,157,144.09Zm15.31-16.68a49,49,0,0,1-7.73,32.66,27.42,27.42,0,0,1-17.77,12.42c-7,1.59-14.08,3-21.05.15a70.63,70.63,0,0,1-9.7-5.25c-1.57-.95-2.82-2.42-4.31-3.51-10.91-8-13.67-22.17-6.69-34.53a42.22,42.22,0,0,1,28.68-21.3c4.89-1.06,9.73-2.31,15.32-1.42.88,2.79,2.9,4,5.72,4.37a20.62,20.62,0,0,1,15.58,10.85A15.28,15.28,0,0,1,172.28,127.41Z"/><path class="cls-4" d="M119.66,228.82c1.22.31,2.61,0,2.9-2.35-.52-.57-1.15-1.78-2.13-2.21-1.3-.57-3.52,1.34-3.08,2.61A3.66,3.66,0,0,0,119.66,228.82Zm8-7.65.35-1.23A89.92,89.92,0,0,0,115.8,214c-1,1.71-1,3,.63,3.86a49.39,49.39,0,0,0,7,3.19C124.68,221.52,126.24,221.16,127.68,221.16Zm35.23,11.42,4.47-2.75c-1.23-1.9-2.28-3.38-4.26-2.68a4.33,4.33,0,0,0-2.33,2.19C160.14,230.94,161.19,232,162.9,232.59Zm-3.53-11.07c3.91,2.86,7.83,1.85,12.36-3.09-.67-.42-1.43-1.27-1.92-1.14C166.21,218.25,162.46,218.92,159.38,221.52Zm23.8-74.24c1.51-4.4,3-9.25,2.68-13.75-1.19-15-8.55-26.45-22-33.56a113.46,113.46,0,0,0-13.37-5.75c-6.91-2.59-14.14-3.06-21-.43-16.84,6.43-30.14,16.77-35.89,34.77-.7,2.18-1.55,4.3-2.29,6.46A29.58,29.58,0,0,0,90.91,154a73.52,73.52,0,0,0,3.94,9.93,14,14,0,0,0,3.72,4.54c4.32,3.51,8.88,6.74,13.24,10.21,6.78,5.4,14.25,8.37,23.06,7.09,1.14-.07,2.28-.16,3.42-.21,10.29-.45,19.5-4,28-9.64a24.22,24.22,0,0,0,9.08-10.07C178.14,159.7,181,153.6,183.17,147.28Zm41.6-3.9c.84,10.35-1.71,20.11-3.35,30.09-2.14,13-9.82,22.59-18.61,31.54-1.46,1.49-3.53,2.39-5.35,3.51-1.58,1-3.29,1.76-4.78,2.85-2.94,2.14-3.2,4.15-.61,6.72a24.16,24.16,0,0,1,7,12.32c-5.42,4.07-11.46,5.77-17.59,7.16-8.49,1.93-17,3.61-25.5,5.64a5.64,5.64,0,0,1-5.79-1.47c-3.93-3.6-5.36-3.49-8.56.79a7,7,0,0,1-6.62,3,89.62,89.62,0,0,1-21.94-3.47c-5.17-1.61-10.38-3.1-15.78-4.7-2.06-6.21.79-11.94,2.06-17.64-14.29-11.46-27.07-24-37-39.28a25.77,25.77,0,0,1-4.63-15.29c.12-3.7-.25-7.42-.29-11.14a41.43,41.43,0,0,1,9.12-27,76.35,76.35,0,0,0,4.69-6.65C80.14,106.32,92.6,96,106.74,88c7.07-4,15.48-5.66,23.38-8.07,9.06-2.77,18.39-2,27.66-1.36,12.31.83,23.72,4.8,34.71,10.15a66.22,66.22,0,0,1,22.66,18.64,27.14,27.14,0,0,1,3.37,6.4C222.55,123.26,223.94,133.2,224.77,143.39Z"/><path class="cls-2" d="M239.71,123.27l-5.14-9.83,8.59-4.56,5.15,12Z"/><path class="cls-1" d="M133.67,50.54v7.57l-9,.57v-7Z"/><path class="cls-1" d="M136.71,177.28l5.86-.38c-.34,2.21-1.46,3.54-3.26,3.43-1-.06-2-1.36-3-2.09Z"/><path class="cls-2" d="M161.92,169.42l4.28,1.06-4.77,3.66C161.65,172.06,161.77,170.92,161.92,169.42Z"/><path class="cls-2" d="M221.73,79.37,233.4,91.5l-8.78,4.85c-1.49-1.93-2.92-3.82-4.38-5.67s-3-3.72-4.65-5.76Z"/><path class="cls-1" d="M181.77,55.82c5.08.45,9,2.32,12.9,4.81l-4.42,6.54L178.8,62.93Z"/><path class="cls-1" d="M176.28,120.37c.2,1.14.4,2.28.6,3.41l-1.1.27-1-3.29Z"/><path class="cls-2" d="M128.43,248.51c-.18,1.62-.35,3.05-.57,5l-9.47-2.14,1.27-4.2Z"/><path class="cls-2" d="M238.21,187.23c-4.08,7.18-8.19,14.48-13.35,20.88s-11.39,11.56-17.3,17.13c-1.5,1.41-3.5,2.28-5.39,3.47-1.74-2.3-1.18-3.83.85-4.79,8.64-4.12,14.81-11.1,20.84-18.15a64.14,64.14,0,0,0,6.92-10.27c2.8-5,5.2-10.16,7.78-15.25.63-1.23,1.31-2.43,2.38-4.42A19.3,19.3,0,0,1,238.21,187.23Z"/><path class="cls-1" d="M102.65,157.93l4.66,6.73c-3.32,1.08-6.8.45-7.64-1.28C98.95,161.88,100.15,159.57,102.65,157.93Z"/><path class="cls-2" d="M121.34,52.08c.24,2.41.44,4.31.69,6.74l-11.9,1.07L109,55.24C112.88,53.3,117,53.3,121.34,52.08Z"/><path class="cls-5" d="M158.87,133.06c1.54,2.58,1.21,4.74-1.39,6.15a43.79,43.79,0,0,1-6.1,2.34l-1.55-.24c-3.45-.52-5.65-2.23-6-4.61-.34-2.7,1.73-5.58,4.87-6.77A8.19,8.19,0,0,1,158.87,133.06Z"/><path class="cls-2" d="M33.54,172.66c.75,3.79-.37,5-6.86,7.29-.4-2.35-.75-4.39-1.12-6.57C28.38,172,31,172.55,33.54,172.66Z"/><path class="cls-2" d="M108.75,112.11c.54,2.32,1,4.33-.85,5.66a4.06,4.06,0,0,1-5.22-.36C104.22,115.08,105.83,113.17,108.75,112.11Z"/><path class="cls-2" d="M95.88,59c.57,2.23,1,4,1.52,6l-9.62,4.55-2-5.19Z"/><path class="cls-1" d="M183,241.12l.77,4.83-7.05,2.56c-.32-2.14-.57-3.84-.88-5.89Z"/><path class="cls-2" d="M196,237l1.42,3.85-10.38,4c-.27-1.7-.45-2.78-.68-4.24Z"/><path class="cls-1" d="M209.5,228l2.62,6L201,239.79l-1.35-4.95Z"/><path d="M77.12,238.72l4-5.86-7.09-5.51-5.46,6.08ZM85.39,70.93l-2.64-4.42-6,4.7,2.42,4.66Zm2.39-1.44,9.62-4.55c-.51-2-1-3.75-1.52-6L85.78,64.3Zm1,174.29,3.08-5.07-8-4.15L79.47,240Zm3.14,1.14,12.36,3.3,1-4.08C98.43,241.16,94.67,241.23,91.89,244.91ZM107.33,60.76l-1.42-5.18-7.1,2.5,1.13,5.85Zm1.7-5.53,1.09,4.66L122,58.82c-.25-2.43-.44-4.33-.69-6.74C117,53.3,112.88,53.3,109,55.24Zm6.38,195.55,1.33-4.14-8.41-2-1.28,4.21Zm12.44,2.75c.22-2,.39-3.41.57-5l-8.77-1.3-1.27,4.2Zm-65-171.33,4.2,5.44L76.7,77.5l-2.47-4.37ZM242.34,186l9.58,6c2.35-4.26,4.22-8.26,4.73-13.25l-12.53.65C243.51,181.68,243,183.71,242.34,186Zm14.13-17.08H246.29l-1.22,6.9h12.41C257.11,173.32,256.79,171.13,256.47,168.92Zm-4.2-32.58-7.7,2.87,2.29,8.47c1.4,0,2.4.07,3.38,0,2.66-.24,3.15-.73,3-3.52C253.05,141.64,252.62,139.14,252.27,136.34Zm-11.08-9.22,2.65,8.78,8.13-2.4-2.56-9.61Zm-107.52-69V50.54l-9,1.1v7Zm5.23,197v-5.53l-7.43-.79c-.23,2-.39,3.37-.64,5.53Zm-2-197.73h9.47c.14-2.25.27-4.28.41-6.55H137.3C137.15,53.15,137,55.11,136.88,57.39ZM147.52,269c1.83-6.78,3.36-12.58,3.4-18.53,0-2.17-1.6-4.52-2.91-6.48s-3.27-1.6-4.53.35a6.68,6.68,0,0,0-1,2.36,33.05,33.05,0,0,0,2.56,19.2C145.43,266.78,146.23,267.44,147.52,269Zm94.83-122c-6.86,6.78-5.67,17.23.95,20.88,1.67-3.81,2.24-4.11,5.78-3.6a26.59,26.59,0,0,0,4.67.24c4.13-.16,8.27-.26,12.36-.71,1.92-.21,4.3-.65,5.52-1.9a94.63,94.63,0,0,0,9.49-11.48c1.6-2.27.68-4.76-1.56-6.84s-4-2.57-6.53-1-4.71,3.66-7.1,5.44c-1.36,1-2.71,2.4-4.25,2.72-3.6.76-7.32,1-11,1.42-3.86.48-6.7-.64-7.66-4.8C243,147.2,242.58,147.12,242.34,147Zm-5,49.83,8.1,5.46,4.8-7.48c-3-2.48-5.32-5.07-9.21-5.43Zm-88-139.41,12.52,1.21L163,51.76l-13-1.28C149.82,53,149.61,55,149.35,57.43ZM65,220.25c-2,2-4,3.53-4.44,6.47l5.5,4.76,6-5.64Zm99.8,32.57L163.49,245l-8.83,2v8.63Zm-.48-193.54L175.92,62l2.1-7.34-11.67-2.57ZM37.18,134.93H26.4l-1.81,7.66,11.19-1.11ZM173.86,249.38l-1.21-6.21-5.56,1.45c.2,2.43.36,4.37.59,7Zm9.91-3.43-.77-4.83-7.16,1.5c.31,2,.56,3.75.88,5.89Zm-5-183,11.45,4.24,4.42-6.54c-3.91-2.49-7.82-4.36-12.9-4.81ZM54.87,101l-5.54-6.79-9.88,12.86,7.85,4.6ZM197.46,240.9,196,237l-9.65,3.56c.24,1.46.41,2.54.68,4.24ZM36.76,156.74c-3.9.12-7.61,0-11.28.39-5.21.56-9.22-1.6-12.57-5.15A8.28,8.28,0,0,0,6,149.31c-3.62.18-5,1.73-5.13,5.45-.11,5,4.17,11.13,9.26,12.07,6.13,1.13,12.28,2.81,18.65,1.66,2.62-.47,5.29-.73,7.82-1.06l1.82,3.49c4.19-3,5.28-5.74,4.45-11.78-.42-3-1.34-6-4.73-7.43Zm-12.51-5c9.09,1.53,9.55,1.25,10.69-7.1l-10.62.87C24.17,147,24,148,24,148.92A27,27,0,0,0,24.25,151.69ZM212.12,234l-2.62-6-9.84,6.83,1.35,4.95ZM213,82.19,219,77l-8-6.29-4.44,5.71ZM32.74,195.38l6.5-5.21-3.72-9.85-8.19,2.8C28.77,187.56,29.66,191.73,32.74,195.38Zm-5-64.11,10.43.52,2.05-6.64-9-2.38Zm9.86-21.08-4.36,8.43,8,3.87,4.4-8.21ZM223.54,226.11l-4-6.29-7.51,6.7,2.61,5.75Zm7.22-30.6a64.14,64.14,0,0,1-6.92,10.27c-6,7.05-12.2,14-20.84,18.15-2,1-2.58,2.49-.85,4.79,1.88-1.19,3.89-2.06,5.39-3.47,5.91-5.58,12.23-10.86,17.3-17.13s9.27-13.69,13.35-20.88a19.3,19.3,0,0,0,2.72-11.39c-1.07,2-1.75,3.19-2.38,4.42C236,185.35,233.56,190.54,230.77,195.51ZM26.67,179.95c6.49-2.28,7.61-3.5,6.86-7.29-2.55-.12-5.16-.63-8,.72C25.92,175.56,26.27,177.6,26.67,179.95Zm198-83.6,8.78-4.85L221.73,79.37l-6.13,5.55c1.66,2,3.17,3.89,4.65,5.76S223.13,94.42,224.63,96.35Zm-184,96.58-6.22,4.69L41.65,207l5.21-4.78Zm8,23,5.92-5-5.7-6.42-5.53,4.77ZM226.54,99.23l6.79,11.61,7.83-5.17a21.2,21.2,0,0,0-6.1-10.91Zm25.67,98.89A175.67,175.67,0,0,1,234,221.86c-4.33,4.8-9.87,8.66-15.34,12.24-11.05,7.23-23.28,12.09-35.73,16.37-5.53,1.9-11,4.05-16.57,5.79-4.19,1.3-8.53,2.12-13.36,3.29-1,4.62-2.11,9.55-3.31,14.94-6.95-3.13-8.84-8.76-9.94-15.4l-13.67-2.5c-13.34-2.44-26.63-5.08-39.46-9.7-16.5-5.94-29.26-17-40.95-29.54-5-5.31-9.43-11.08-14.06-16.7-5.26-6.37-7.46-14.07-9-21.95-1.06-5.23-1.1-5.29-6.35-6.46a43,43,0,0,1-8.93-2.82C.11,166.07-2.81,159.6-4.23,152.36c-.61-3.11,3.57-7.11,7.63-7.26,4.76-.18,9.44.33,13.14,4a12.43,12.43,0,0,0,2.07,1.27,9.65,9.65,0,0,0,1.2-2.73c.69-10.28,4.67-19.53,8.84-28.73A103.72,103.72,0,0,1,65.15,75.48a126.47,126.47,0,0,0,9.91-8.13C87.32,57,101.81,51.69,117.41,49.11a147.81,147.81,0,0,1,19.13-2.28,143.74,143.74,0,0,1,20.51.95c8.92,1,17.78,2.58,26.67,3.93a8.46,8.46,0,0,1,1.64.46,129.34,129.34,0,0,1,41.44,24.48,27.37,27.37,0,0,1,5,5.31c5.88,9.11,11.75,18.23,17.28,27.55,4.69,7.9,5.59,17,7.09,25.82.59,3.47,1.38,6.91,2.11,10.48,4.47,0,7.13-1.93,9.44-4.68,3.84-4.58,8.65-5.14,13.55-1.67a9.6,9.6,0,0,1,2.92,13.2c-2.1,3.56-4.44,7-6.88,10.33-2.15,2.94-5.35,4.15-8.92,4.44-2.39.2-4.79.43-7,.63-.22.47-.35.61-.33.73C262.36,179.86,257.75,189.35,252.21,198.12Zm-17,17.12c-3.61-3.69-3.93-3.87-8-4.79l-5.68,7.22,4.68,7.19ZM50.64,217.93l7.22,6.13,4.62-5.92-6-5.41Zm179.23-10.72,7.3,5.56,6.49-8.08c-2.15-1.52-3.92-2.87-5.78-4.06a2.78,2.78,0,0,0-4.33,1C232.43,203.39,231.23,205.14,229.87,207.21ZM50.32,201.8c9.79,12,21.89,21.29,34.68,29.76,2.39,1.58,5.17,2.57,7.82,3.86,1.32-3.35-.26-4.5-2.54-5.29A48.83,48.83,0,0,1,69,215.46c-2.43-2.81-5.11-5.4-7.77-8-6.61-6.43-12.46-13.38-16-22a27,27,0,0,0-2.48-4.5,25.58,25.58,0,0,0-2.39-2.73l-1.25.6a41.06,41.06,0,0,0,.78,4.43C41.93,190.24,45.76,196.23,50.32,201.8Zm1-109.53,6.26,5.66L64,90.65,60.15,84.3Zm186.77,33.84c-2.43-5.44-5.66-10.53-8.55-15.76a105.47,105.47,0,0,0-23.23-28.93A54.23,54.23,0,0,0,188.36,70.7c-3.64-1.25-7.3-2.45-10.91-3.78a72.66,72.66,0,0,0-25.56-4.8c-10.71.06-21.42.55-32.13,1a36.47,36.47,0,0,0-7.18,1.12C98.23,67.72,85.87,74.92,75.19,85c-4.88,4.6-9.47,9.52-14,14.46a63.57,63.57,0,0,0-5.94,7.82c-2.27,3.42-4,7.26-6.5,10.48-5.19,6.63-7.45,14.39-9.47,22.3-.35,1.34-.77,2.73.78,4.16,1.08-3.1,2-5.92,3-8.72,4-10.94,9.28-21.21,16.92-30.09,4.92-5.72,10-11.28,15.29-16.7a37.59,37.59,0,0,1,7.7-6.1c5.14-3.06,10.42-6,15.84-8.49s11.07-4.61,16.66-6.76a18.93,18.93,0,0,1,5-1.06,209.7,209.7,0,0,1,48.31.82,54.54,54.54,0,0,1,22.33,8.05c15.53,9.94,29,21.75,37.88,38.25.27.5.65.94.93,1.44,3.66,6.49,7.1,13,7.87,20.64a47.82,47.82,0,0,0,1.12,5.25l1.45,0a12,12,0,0,0,.36-3.49C240,133.51,239.59,129.55,238.05,126.11ZM57.46,154c0,3.72.41,7.43.29,11.14a25.77,25.77,0,0,0,4.63,15.29c9.91,15.28,22.68,27.82,37,39.28-1.27,5.7-4.12,11.43-2.06,17.64,5.4,1.6,10.61,3.09,15.78,4.7A89.62,89.62,0,0,0,135,245.55a7,7,0,0,0,6.62-3c3.2-4.28,4.64-4.39,8.56-.79a5.64,5.64,0,0,0,5.79,1.47c8.46-2,17-3.71,25.5-5.64,6.13-1.4,12.17-3.1,17.59-7.16a24.16,24.16,0,0,0-7-12.32c-2.59-2.57-2.33-4.57.61-6.72,1.49-1.09,3.2-1.87,4.78-2.85,1.82-1.12,3.89-2,5.35-3.51,8.8-9,16.47-18.54,18.61-31.54,1.64-10,4.19-19.74,3.35-30.09-.83-10.19-2.23-20.13-6.25-29.57a27.14,27.14,0,0,0-3.37-6.4,66.22,66.22,0,0,0-22.66-18.64c-11-5.35-22.4-9.32-34.71-10.15-9.27-.62-18.6-1.42-27.66,1.36-7.9,2.42-16.31,4.09-23.38,8.07-14.14,8-26.6,18.28-35.47,32.29A76.35,76.35,0,0,1,66.58,127,41.43,41.43,0,0,0,57.46,154Zm185.7-45.14-8.59,4.56,5.14,9.83,8.6-2.44Zm-5.59,60.87c-4-5.71-3.95-11.88-2.29-18.1a27.54,27.54,0,0,0,.27-13.38c-1.51-7-3.3-13.69-6.68-20.14-9.61-18.35-24-31.83-41.57-42.14a31.82,31.82,0,0,0-8.7-3.5c-5.41-1.26-10.93-2.14-16.43-2.94-11.81-1.72-23.69-.92-35.54-.65a29.74,29.74,0,0,0-10,2c-8.1,3.18-16.08,6.66-24,10.33-5.56,2.58-11,5.44-15.37,9.94C74.79,93.72,72.43,96.39,70,99a122.44,122.44,0,0,0-26.47,45.12c-.89,2.66-1,4.79.69,7.19,2.78,4,4.07,8.56,2.89,13.43a32.63,32.63,0,0,1-2.69,6.73,6.62,6.62,0,0,0-.29,6.17c4.07,8.18,7.91,16.55,14.22,23.34,5.54,6,11.18,11.87,17,17.52,4.89,4.72,10.46,8.43,18,8.43,1.6-4.6,1.38-6.12-1-8.39-3.75-3.5-7.37-7.13-11.23-10.5-8.59-7.5-15.38-16.47-21.69-25.88-3.12-4.65-5.15-9.46-4.92-15.18a77.34,77.34,0,0,0-.5-8.13c-.51-7.82.41-15.44,3.69-22.61,4.85-10.59,11.72-19.93,18.75-29.12a23.11,23.11,0,0,1,4-3.85C87.23,97.81,94,92.27,101,87.1a35.13,35.13,0,0,1,9.8-5.08c7.32-2.39,14.77-4.43,22.27-6.21a40.88,40.88,0,0,1,11-1c6.27.25,12.52,1,18.77,1.63,18.19,1.7,33.74,9.16,46.92,21.68,9.53,9,15.57,20,17.28,33.11.4,3.08.09,6.25.27,9.37.75,12.36-.73,24.45-3.37,36.56-2.8,12.85-10.55,22.29-19.37,31.18-1.66,1.68-4,2.68-6,4-1.37.9-2.72,1.83-4.34,2.91l4.83,6.33c.81-.22,1.23-.3,1.61-.45,7.73-3,13.17-9.09,18.61-14.86,8.53-9.06,13.44-20.46,18.43-31.69C238.28,173.21,238.35,170.87,237.57,169.75ZM204.06,74.3l3.84-5.63-10.14-6.23c-1.73,2.12-3.08,4-3.63,6.37Z"/><path class="cls-2" d="M41.65,207l-7.25-9.34,6.22-4.69,6.25,9.24Z"/><path class="cls-1" d="M257.48,175.82H245.07l1.22-6.9h10.18C256.79,171.13,257.11,173.32,257.48,175.82Z"/><path class="cls-2" d="M150.78,100.15l7.46,1.24C155.51,104.84,153.69,104.61,150.78,100.15Z"/><path class="cls-1" d="M235.28,151.65c-1.66,6.22-1.69,12.39,2.29,18.1.78,1.12.71,3.46.1,4.83-5,11.23-9.9,22.63-18.43,31.69-5.43,5.77-10.88,11.82-18.61,14.86-.39.15-.8.23-1.61.45l-4.83-6.33c1.61-1.09,3-2,4.34-2.91,2-1.33,4.37-2.33,6-4,8.82-8.89,16.57-18.33,19.37-31.18,2.64-12.11,4.12-24.19,3.37-36.56-.18-3.12.13-6.29-.27-9.37-1.71-13.12-7.75-24.06-17.28-33.11-13.18-12.51-28.73-20-46.92-21.68-6.25-.58-12.5-1.38-18.77-1.63a40.88,40.88,0,0,0-11,1c-7.49,1.78-14.95,3.82-22.27,6.21A35.13,35.13,0,0,0,101,87.1c-7,5.17-13.75,10.71-20.56,16.16a23.11,23.11,0,0,0-4,3.85c-7,9.2-13.9,18.53-18.75,29.12C54.37,143.4,53.45,151,54,158.84a77.34,77.34,0,0,1,.5,8.13c-.23,5.72,1.8,10.53,4.92,15.18,6.31,9.41,13.1,18.38,21.69,25.88,3.86,3.37,7.49,7,11.23,10.5,2.42,2.27,2.65,3.78,1,8.39-7.5,0-13.07-3.71-18-8.43-5.86-5.65-11.5-11.55-17-17.52-6.31-6.79-10.15-15.16-14.22-23.34a6.62,6.62,0,0,1,.29-6.17,32.63,32.63,0,0,0,2.69-6.73c1.18-4.86-.11-9.41-2.89-13.43-1.66-2.4-1.59-4.53-.69-7.19A122.44,122.44,0,0,1,70,99c2.42-2.6,4.78-5.27,7.25-7.83,4.34-4.5,9.82-7.37,15.37-9.94,7.89-3.66,15.88-7.15,24-10.33a29.74,29.74,0,0,1,10-2c11.85-.27,23.73-1.06,35.54.65,5.51.8,11,1.68,16.43,2.94a31.82,31.82,0,0,1,8.7,3.5c17.61,10.31,32,23.79,41.57,42.14,3.38,6.45,5.18,13.14,6.68,20.14A27.54,27.54,0,0,1,235.28,151.65Z"/><path class="cls-2" d="M67.09,87.65l-4.2-5.44,11.34-9.09L76.7,77.5Z"/><path class="cls-1" d="M60.59,226.71c.42-2.93,2.48-4.46,4.44-6.47l7.08,5.58-6,5.64Z"/><path class="cls-2" d="M197.76,62.44l10.14,6.23-3.84,5.63-9.93-5.49C194.68,66.44,196,64.57,197.76,62.44Z"/><path class="cls-4" d="M243.29,167.89c-6.62-3.66-7.81-14.11-.95-20.88.24.12.64.2.67.36,1,4.17,3.8,5.28,7.66,4.8,3.67-.45,7.39-.66,11-1.42,1.54-.32,2.9-1.7,4.25-2.72,2.39-1.79,4.58-3.87,7.1-5.44s4.27-1.09,6.53,1,3.16,4.57,1.56,6.84a94.63,94.63,0,0,1-9.49,11.48c-1.22,1.26-3.6,1.69-5.52,1.9-4.1.45-8.24.55-12.36.71a26.59,26.59,0,0,1-4.67-.24C245.54,163.78,245,164.08,243.29,167.89Z"/><path class="cls-1" d="M243.84,135.9l-2.65-8.78,8.22-3.22L252,133.5Z"/><path class="cls-2" d="M45.25,185.44c3.54,8.65,9.4,15.6,16,22,2.66,2.59,5.35,5.18,7.77,8a48.83,48.83,0,0,0,21.25,14.68c2.27.79,3.85,1.94,2.54,5.29-2.65-1.29-5.43-2.28-7.82-3.86-12.79-8.47-24.88-17.79-34.68-29.76-4.56-5.57-8.39-11.57-10.41-18.55a41.06,41.06,0,0,1-.78-4.43l1.25-.6a25.58,25.58,0,0,1,2.39,2.73A27,27,0,0,1,45.25,185.44Z"/><path class="cls-2" d="M95.89,132c2.5.26,2.27,2,2.9,3.6l-4.15,2.83-1.15-1.07Z"/><path d="M171.73,218.43c-4.53,4.94-8.45,5.95-12.36,3.09,3.08-2.6,6.84-3.27,10.43-4.23C170.3,217.16,171.06,218,171.73,218.43Z"/><path class="cls-1" d="M211,70.71,219,77,213,82.19l-6.52-5.77Z"/><path class="cls-1" d="M83.83,234.55l8,4.15-3.08,5.07L79.47,240Z"/><path class="cls-1" d="M54.55,210.83l-5.92,5-5.32-6.69,5.53-4.77Z"/><path class="cls-1" d="M227.17,210.46c4.07.91,4.39,1.1,8,4.79l-9,9.62-4.68-7.19Z"/><path class="cls-2" d="M106.46,169.71c5-1.66,6.39-.79,5.8,3.65A7.35,7.35,0,0,1,106.46,169.71Z"/><path class="cls-2" d="M148.31,178.7c.85-2,1.79-2.25,3.69-.53Z"/><path class="cls-1" d="M32.74,195.38c-3.08-3.65-4-7.82-5.41-12.27l8.19-2.8,3.72,9.85Z"/><path class="cls-2" d="M180,140.55c1,3,.3,5-1.7,7.4L175.37,144Z"/><path class="cls-1" d="M156.15,172.59c.17.64.41,1,.33,1.36-.45,1.79-1.5,1.53-3.4.43Z"/><path class="cls-2" d="M171.62,164c-2.1-4.8-1.76-5.34,3.09-4.85Z"/><path class="cls-2" d="M136.88,57.39c.15-2.28.27-4.24.42-6.55h9.47c-.14,2.27-.27,4.3-.41,6.55Z"/><path class="cls-4" d="M25.48,157.13c3.66-.39,7.38-.27,11.28-.39l1.4-5c3.39,1.43,4.32,4.38,4.73,7.43.83,6-.26,8.78-4.45,11.78l-1.82-3.49c-2.54.34-5.2.59-7.82,1.06-6.37,1.15-12.53-.52-18.65-1.66C5,165.9.77,159.72.88,154.77,1,151,2.38,149.49,6,149.31A8.28,8.28,0,0,1,12.9,152C16.25,155.52,20.27,157.68,25.48,157.13Z"/><path class="cls-2" d="M34.94,144.59c-1.14,8.35-1.6,8.63-10.69,7.1a27,27,0,0,1-.24-2.77c0-1,.17-1.94.32-3.47Z"/><path class="cls-1" d="M82.75,66.51l2.64,4.42-6.23,4.94-2.42-4.66Z"/><path class="cls-2" d="M56.53,212.72l6,5.41-4.62,5.92-7.22-6.13Z"/><path d="M128,219.93l-.35,1.23c-1.44,0-3,.36-4.29-.08a49.39,49.39,0,0,1-7-3.19c-1.58-.82-1.63-2.15-.63-3.86A89.92,89.92,0,0,1,128,219.93Z"/><path class="cls-1" d="M173.93,148.65c2.19,4.3,2.19,4.3-2,5.13Z"/><path class="cls-1" d="M116.75,246.65l-1.33,4.14-8.37-2,1.28-4.21Z"/><path class="cls-2" d="M74.07,227.35l7.09,5.51-4,5.86-8.5-5.29Z"/><path class="cls-5" d="M129.51,128.29c4.5,2.21,5.38,5.67,2.6,9.82-2.48,3.71-6,5.57-11.69,5.9a36.53,36.53,0,0,1-6.1-3.11,4.17,4.17,0,0,1-1.16-6.09c3.06-4.31,6.79-7.82,12.65-7.43A10,10,0,0,1,129.51,128.29Z"/><path class="cls-2" d="M166.35,52.12,178,54.69,175.92,62l-11.57-2.76Z"/><path d="M94.94,159.14c4.2-5.37,3.63-7.19-1.81-7.46ZM98.54,149c-.13-2.33-.25-4.4-.41-7.28-2.09,1.16-3.7,2.12-3.49,4S96.15,148.81,98.54,149Zm.25-13.34c-.63-1.65-.4-3.35-2.9-3.6l-2.41,5.36,1.15,1.07Zm.89,27.75c.84,1.74,4.32,2.36,7.64,1.28l-4.66-6.73C100.15,159.57,98.95,161.88,99.68,163.38Zm3-46a4.06,4.06,0,0,0,5.22.36c1.85-1.33,1.38-3.35.85-5.66C105.83,113.17,104.22,115.08,102.69,117.41Zm9.58,56c.59-4.44-.76-5.31-5.8-3.65A7.35,7.35,0,0,0,112.26,173.36Zm6.4,5.11c2.56,1.22,5.11.54,7.24-2l-8.76-4C116.39,176.75,116.59,177.49,118.67,178.48Zm3.23-74.41c5.34,1.39,6,1,7.34-3.81C126.33,99.51,124,100.67,121.9,104.07Zm13,77.13c-3.05-2.05-3.05-2.05-4.88.55Zm-1.52-79.55c3.45,1.61,3.5,1.61,10.23-1l-7.08-4Zm6,78.67c1.79.11,2.91-1.22,3.26-3.43l-5.86.38-.37,1C137.33,179,138.29,180.26,139.32,180.33Zm13.76-5.95c1.9,1.1,2.94,1.36,3.4-.43.08-.32-.16-.72-.33-1.36Zm-2.3-74.23c2.91,4.46,4.73,4.69,7.46,1.24Zm10.65,74,4.77-3.66-4.28-1.06C161.77,170.92,161.65,172.06,161.43,174.14Zm4-62.66c1.48-2,1.7-3.53-.28-5.15l-4,1.66c0,.34-.07.68-.11,1Zm-.9,48.59a49,49,0,0,0,7.73-32.66,15.28,15.28,0,0,0-2-5.56A20.62,20.62,0,0,0,154.75,111c-2.81-.41-4.83-1.57-5.72-4.37-5.59-.9-10.44.36-15.32,1.42A42.22,42.22,0,0,0,105,129.36c-7,12.36-4.22,26.56,6.69,34.53,1.49,1.09,2.74,2.56,4.31,3.51a70.63,70.63,0,0,0,9.7,5.25c7,2.84,14,1.44,21.05-.15A27.42,27.42,0,0,0,164.55,160.07Zm7.06,4,3.09-4.85C169.85,158.69,169.52,159.23,171.62,164Zm.34-10.25c4.17-.82,4.17-.82,2-5.13Zm4.92-30c-.2-1.14-.4-2.27-.6-3.41l-1.46.39,1,3.29Zm.63-8.34-4.89-4.31-1,5.35ZM175.37,144l2.91,3.91c2-2.37,2.66-4.45,1.7-7.4Zm10.48-10.52c.36,4.5-1.16,9.36-2.68,13.75-2.18,6.32-5,12.42-7.8,18.52a24.22,24.22,0,0,1-9.08,10.07c-8.5,5.63-17.71,9.19-28,9.64-1.14,0-2.28.14-3.42.21-8.81,1.28-16.28-1.69-23.06-7.09-4.36-3.47-8.92-6.7-13.24-10.21a14,14,0,0,1-3.72-4.54A73.52,73.52,0,0,1,90.91,154,29.58,29.58,0,0,1,91.3,135c.74-2.16,1.59-4.29,2.29-6.46,5.76-18,19.06-28.34,35.89-34.77,6.87-2.63,14.1-2.15,21,.43A113.46,113.46,0,0,1,163.86,100C177.3,107.08,184.66,118.54,185.85,133.53ZM148.31,178.7l3.69-.53C150.1,176.44,149.16,176.65,148.31,178.7ZM112.8,112.18c3.23-.1,5.35-1.1,6.68-4.53l-6.68-.39Z"/><path class="cls-5" d="M143.19,143.68c3.11,2.32,3.5,4.81,1.34,8.1-2.48,3.78-6.61,6.32-10.13,6.22a7.54,7.54,0,0,1-6.55-4.68,6.44,6.44,0,0,1,2.3-7.5,31.85,31.85,0,0,1,5-3.18C138,141.24,140.74,141.85,143.19,143.68Z"/><path class="cls-2" d="M54.87,101,47.3,111.72l-7.85-4.6,9.88-12.86Z"/><path d="M132.11,138.11c2.78-4.16,1.89-7.61-2.6-9.82a10,10,0,0,0-3.7-.91c-5.86-.39-9.59,3.12-12.65,7.43a4.17,4.17,0,0,0,1.16,6.09,36.53,36.53,0,0,0,6.1,3.11C126.1,143.69,129.64,141.82,132.11,138.11Zm12.42,13.66c2.16-3.29,1.77-5.77-1.34-8.1-2.45-1.83-5.18-2.44-8-1a31.85,31.85,0,0,0-5,3.18,6.44,6.44,0,0,0-2.3,7.5A7.54,7.54,0,0,0,134.4,158C137.93,158.1,142.05,155.56,144.54,151.78Zm12.94-12.57c2.6-1.41,2.93-3.57,1.39-6.15a8.19,8.19,0,0,0-10.12-3.12c-3.14,1.19-5.22,4.07-4.87,6.77.3,2.39,2.5,4.09,6,4.61l1.55.24A43.79,43.79,0,0,0,157.48,139.21Zm2.89-11a7.69,7.69,0,0,1,3.32,7.84c-.6,3.85-2.69,6.93-6.71,8.09-1.9.54-3.9.79-6.06,1.22-.26,1.1-.54,2.18-.77,3.27a20.36,20.36,0,0,1-5.8,10.25c-5.95,6.08-16.95,3.29-19.49-4.14a11.86,11.86,0,0,1-.42-1.21,8.31,8.31,0,0,0-6.68-6.83,18.69,18.69,0,0,1-5-2.35c-5.09-3.06-6-7.46-2.42-12.24a19.11,19.11,0,0,1,17.07-8,29,29,0,0,1,3,.36c4.23.66,5.29,1.63,6.32,5.72.24.93.55,1.84.83,2.75l1,.71a30.11,30.11,0,0,1,3.05-4.08A14.62,14.62,0,0,1,160.36,128.17Z"/><path class="cls-2" d="M219.49,219.82l4,6.29-8.95,6.16L212,226.52Z"/><path class="cls-1" d="M163.49,245l1.34,7.79-10.17,2.82V247Z"/><path class="cls-1" d="M163,51.76l-1.17,6.88-12.52-1.21c.25-2.44.46-4.47.72-6.95Z"/><path class="cls-1" d="M51.28,92.27l8.87-8L64,90.65l-6.44,7.28Z"/><path class="cls-1" d="M105.91,55.58l1.42,5.18-7.39,3.17-1.13-5.85Z"/><path class="cls-2" d="M93.14,151.68c5.43.27,6,2.09,1.81,7.46Z"/><path class="cls-2" d="M130,181.76c1.83-2.6,1.83-2.6,4.88-.55Z"/><path d="M167.38,229.84l-4.47,2.75c-1.72-.63-2.76-1.64-2.12-3.23a4.33,4.33,0,0,1,2.33-2.19C165.1,226.46,166.15,227.95,167.38,229.84Z"/></svg>