<svg id="圖層_1" data-name="圖層 1" xmlns="http://www.w3.org/2000/svg" viewBox="0 0 287.81 324.7"><defs><style>.cls-1{fill:#040000;}.cls-2{fill:#eabe29;}.cls-3{fill:#3860a3;}.cls-4{fill:#314462;}.cls-5{fill:#fff;}.cls-6{fill:#3761a4;}.cls-7{fill:#060303;}.cls-8{fill:#050000;}.cls-9{fill:#c86b78;}.cls-10{fill:#2c748c;}.cls-11{fill:#4e9136;}.cls-12{fill:#cd461e;}.cls-13{fill:#af2a24;}.cls-14{fill:#af2b25;}.cls-15{fill:#ce553f;}.cls-16{fill:#39609f;}.cls-17{fill:#555656;}</style></defs><title>chks</title><g id="_群組_" data-name="&lt;群組&gt;"><path class="cls-1" d="M263.73,125.26v2.09a3.8,3.8,0,0,1-3.17,1.78,28.47,28.47,0,0,1-11.85-1.3c-5.19-1.66-10.38-3.29-15.56-5-1.09-.35-1.72-.35-1.27,1,3.12,9.59,3.51,19.8,6.52,29.34a50.77,50.77,0,0,1,2,18.67c-.34,5.86-.12,11.8-1,17.56-2.73,17.59-7.79,34.4-17.24,49.74-3.33,5.4-6.48,10.72-11.16,15.18-6.31,6-13.56,10.7-20.59,15.71a7.6,7.6,0,0,1-3.74,1.32,38.59,38.59,0,0,0-11.39,3c-9,3.84-18.57,5.79-28.24,7.15-1.61.23-3.22.52-4.83.62-1.81.12-2.49,1.07-2.68,2.77-.51,4.55-1,9.12-1.75,13.64-.4,2.47-.72,5.11-3.11,6.71h-1.74a3.49,3.49,0,0,1-2.22-2c-2.92-5.42-4-11.4-5.17-17.31-.6-2.89-.47-3.05-3.45-3.32-9.29-.84-17.76-4.47-26.41-7.53-3.62-1.28-7.27-2.47-10.27-5a5.18,5.18,0,0,0-2.95-1,18.22,18.22,0,0,1-11.33-5.55,190.59,190.59,0,0,1-18.35-20c-7.15-9.35-12.46-19.57-15-31.14-2.08-9.36-4.32-18.69-6.07-28.12-.52-2.8-.59-5.63-1-8.43v-9.77a6.49,6.49,0,0,0,.31-3.54l-.13,0A52.88,52.88,0,0,1,33.08,147c1.36-4.81,2.29-9.73,3.49-14.59a11.76,11.76,0,0,1,2.84-5.7c3.07-3.12,4.83-7.1,7-10.78A135.1,135.1,0,0,1,64.18,92c12.37-13,26.48-23.68,43.22-30.58a85.41,85.41,0,0,1,8.8-2.8c1.87-.54,2.1-.89,1.54-2.76a72.89,72.89,0,0,1-2.92-14.69c-.71-8.51-1.32-17,.85-25.47a40.37,40.37,0,0,1,2.67-7.18c1.32-2.81,3.29-4.74,6.53-5h3.49s.06.12.11.13c5.07,1.45,6.27,4.37,6.35,9.09,0,1.45.37,1.9,1.78,2a42.57,42.57,0,0,1,5.18.66A4.31,4.31,0,0,1,145.45,19,30.51,30.51,0,0,1,145,32.46c-.72,3.28-1.26,6.61-1.93,9.9a1.18,1.18,0,0,0,.69,1.52A29.52,29.52,0,0,1,157.61,59a1.83,1.83,0,0,0,1.42,1.1,108.6,108.6,0,0,1,14.57,5.62c2.32,1,4.69,2,7.1,2.82a58.65,58.65,0,0,1,12.74,6.31c3.86,2.47,7.81,4.81,11.53,7.48C210.17,86,214.18,91,218.07,96c1.46,1.87,2.66,3.94,3.93,6a5,5,0,0,0,2.91,2.3,33.66,33.66,0,0,1,8.08,4c9.1,5.56,18.26,11,28.37,14.65C262.55,123.29,263.1,124.31,263.73,125.26Zm-2.84.67c.29-.89-.31-1.43-1-1.79a17.34,17.34,0,0,0-2.22-1,76.22,76.22,0,0,1-16.83-7.65,138,138,0,0,0-15.49-8.33,60.06,60.06,0,0,1,2.73,6.44A10.39,10.39,0,0,0,234,120.3a97.25,97.25,0,0,0,18.85,6.31,22,22,0,0,0,6.24.38A1.77,1.77,0,0,0,260.89,125.93ZM236,193.12c1.94-8.53,1.84-17.12,1.18-25.76-.06-.8-.4-1-1.12-.83-6.07,1.65-12.25,2.76-18.42,3.93a129.67,129.67,0,0,1-20.77,2.65c-6.81.17-13.58-.24-20.36-.64-6-.35-12-.27-17.94-.13-1.64,0-1.66.6-1.17,1.83a46.7,46.7,0,0,1,2.68,11.93c.15,1.26.85,1,1.58.82a25.1,25.1,0,0,1,7.2-.93c4.16.13,6.71,2.09,7.93,6a28.23,28.23,0,0,1,.77,8.09c.09,7-1,13.91-.69,21.08a59.58,59.58,0,0,1-.73,11.23c-1.88,10.06-7.75,16.68-17.19,20.31-3.41,1.31-7,1.42-10.57,1.63-3,.17-6,.2-9.06.29-.34,0-.7,0-.93.33a.51.51,0,0,0,.17.75c2,1.52,3.71,3.6,6.31,4.2a65.62,65.62,0,0,0,11.52,1.39c5.34.27,10.69.23,16,.41s10.76.23,16-1.4a21.83,21.83,0,0,1,10.45-.77,5,5,0,0,0,4.55-1.69,43.44,43.44,0,0,1,3.27-3.39c6.48-5.57,11-12.51,14.39-20.27.39-.9.86-1.78,1.27-2.67,2.95-6.46,6.69-12.55,9.09-19.26C233.65,206,234.59,199.52,236,193.12Zm-1-29.53c1.22-.58,1.78-1.14,1.58-2.68-.36-2.73-.21-2.81-2.92-1.91-10,3.34-20.18,5.79-30.76,6-5.74.11-11.49.34-17.23.38-9.76.07-19.52,0-29.29,0a8.11,8.11,0,0,0-4.2,1.13c2.53,1.93,5.46,1.76,8.21,2,4.9.4,9.83.43,14.73.78,1.61.12,3.23.21,4.83.39a98,98,0,0,0,11.38,1,64.78,64.78,0,0,0,9.2-.32c3.3-.49,6.62-.86,9.93-1.29,4.28-.57,8.45-1.71,12.73-2.26A38.75,38.75,0,0,0,235,163.58Zm-1.85-7.31c.18-.48-.31-.7-.59-.94q-3-2.63-6.07-5.22c-6-5.06-12.89-8.58-19.72-12.29S192.6,133.26,185,134c-5.36.5-10.73.78-16.11,1a50.94,50.94,0,0,0-10.1,1.34c-5.33,1.33-10.7,2.46-16.25,2.16-2.31-.13-4.62-.38-6.94-.37-9,0-18-.05-27,.06a77.44,77.44,0,0,1-9.49-.81c-5.89-.65-11.75-1.61-17.63-2.36a169.28,169.28,0,0,1-18-3c-5.38-1.28-10.7-2.79-16.06-4.13-1.18-.29-2.58-.86-3.57.31-1.16,1.38-1.3,3.18-1.45,4.9,0,.46.51.52.92.62,4.42,1.05,8.84,2.13,13.35,2.76,4.33.61,8.66,1.27,13,1.83,3.77.49,7.55.9,11.33,1.29,2.81.3,5.64.45,8.45.77,3.62.43,7.23.74,10.86,1,2.88.2,5.79.31,8.63.77A122.31,122.31,0,0,0,128,143.77a15.87,15.87,0,0,1,1.91.08,52.46,52.46,0,0,0,13.88-.19c4.8-.66,9.57-1.42,14.42-1.65a74.42,74.42,0,0,0,8.45-.77,75.64,75.64,0,0,1,14.16-1.36A73,73,0,0,1,195.06,141c2.89.51,5.7,1.42,8.56,2.07,8.73,2,16.9,5,23,12,1.66,1.91,3.33,2.55,5.65,1.61C232.57,156.57,233,156.6,233.16,156.27Zm-.83-11.19a56.78,56.78,0,0,0-1.75-14.44c-3.91-16.5-11.9-30.55-25.21-41.29-8.18-6.61-17.24-11.92-26.37-17.07a97.13,97.13,0,0,0-16.48-7.19c-2.72-.93-4.66-.66-6.67,1.92-4.7,6-11.46,7.52-18.6,6.33-4.44-.74-7.93-3.65-10.33-7.61-.59-1-1-2.18-2.31-2.43a48.48,48.48,0,0,0-5.13-.82c-4.19-.34-7.89,1.49-11.64,3-10.19,4-19,10.23-27.68,16.77C73.82,87,67.46,91.78,63,98.58a21.38,21.38,0,0,1-2.86,3.28c-6.09,6.07-9.88,13.67-14,21.05-.51.92-.35,1.61.8,2,9.42,2.8,19,4.82,28.64,6.7,4.23.82,8.54.86,12.76,1.49A233.56,233.56,0,0,0,123,135.73c6,0,12.1-.14,18.14.06a37.16,37.16,0,0,0,7.42-.27c5.3-.88,10.58-1.9,15.91-2.65s11-1.21,16.45-1.6c4.88-.35,9.7-1.05,14.7-.17,9.88,1.74,18.91,5.12,26.7,11.56,3,2.44,5.95,4.83,8.93,7.23.24.2.5.63.87.33.16-.13.18-.51.18-.78C232.34,148,232.33,146.53,232.33,145.08Zm-5.41,13c-5-4.7-10.06-8.71-16.52-10.38-7.24-1.87-14.31-4.5-21.86-5.11a77,77,0,0,0-13.9,0c-4.43.45-8.84,1-13.26,1.51-3.73.43-7.46.9-11.2,1.31s-7.71.94-11.57,1.1a150.82,150.82,0,0,1-25.33-1.28c-8.38-1.06-16.8-1.73-25.21-2.49-7.49-.68-15-1.31-22.41-2.46q-12.05-1.85-24.09-3.79a1.39,1.39,0,0,0-1.85,1.18c-.43,1.5-.92,3-1.39,4.46-1.33,4.28-1.22,4.5,3.17,5.84a99.74,99.74,0,0,0,14.6,2.75c6,.88,12.08,1.84,18.08,3,4.18.8,8.25,2.1,12.5,2.67,5.08.68,10.2,1.32,15.19,2.45a14.48,14.48,0,0,0,12.39-2.39c5.38-3.77,11.6-4.19,18-3a23,23,0,0,1,10.68,5.08c3.94,3.26,8.64,4.38,13.6,4.41,15.17.09,30.35.08,45.52-.37a68.41,68.41,0,0,0,15.78-2.14C220.77,159.63,223.72,158.9,226.92,158.07ZM196,262.66a2,2,0,0,0-1.71-.22c-7.08,1.76-14.32,1.85-21.53,2-8.53.2-17-.42-25.52-1.05-3-.22-5.76-.94-8-3.16a25.61,25.61,0,0,0-5.92-4.25,3.22,3.22,0,0,0-3.85.2c-2.08,1.57-4.49,2.75-6.39,4.5a13.33,13.33,0,0,1-10,3.44c-3.89-.11-7.79-.1-11.69,0a61.28,61.28,0,0,1-23.11-3.76,28.68,28.68,0,0,0-4.88-1.09c-.31-.06-1.53-.15-.86.6,1.61,1.79,2.95,4.15,5.33,4.88,7.12,2.18,14.34,4,21.89,3.9,6.16-.06,12.33.1,18.49,0,2.88-.05,5.65-.84,7.6-3.2,1.15-1.4,2.41-2.67,3.68-4,2.35-2.38,2.38-2.41,5.15-.37,1.58,1.17,3,2.53,4.62,3.68,2.9,2.08,6.36,1.82,9.67,2.13,3.9.37,7.83.6,11.7,1.15,4.24.6,8.49,1,12.74,1.25a59.15,59.15,0,0,0,12.47-.71C189.91,268,192.87,265.29,196,262.66Zm-22.54-32a35.52,35.52,0,0,0,.61-7.36c-.13-1.11.19-2.5-.18-3.88-.25-.94-.52-1.33-1.64-1.08-4.62,1-9.24,2.16-14,2.18-.73,0-.85.41-.91,1-.47,4.21-.95,8.42-1.47,12.63-.1.81.15,1,.91,1a87,87,0,0,0,14.12-1.74A3.18,3.18,0,0,0,173.44,230.66ZM174,194.9a5.89,5.89,0,0,0-6.63-5.83c-1.08.17-2.15.4-3.22.64s-2.69.22-3.42.95,0,2.3,0,3.49c0,2.48-.54,4.95-.2,7.47a77.55,77.55,0,0,0,10.28-2.41C173.72,198.34,174,198,174,194.9Zm-.41,18.39c.63-3.39.4-6.84.36-10.26,0-1.34-.9-1.62-2-.87a6.47,6.47,0,0,1-2.2,1c-2.73.61-5.54.38-8.28.94-.85.17-1.19.39-1.28,1.23-.43,4.1-1.22,8.15-2.08,12.38,4.6.36,8.87-.64,13.1-1.85A3.26,3.26,0,0,0,173.64,213.29Zm.73,58.7a4.78,4.78,0,0,0-3-.8q-15.38-.94-30.77-1.82c-2.33-.14-4.11-1.07-4.88-3.45a4.89,4.89,0,0,0-.5-1.1c-1.65-2.62-3.56-2.84-5.67-.65a8.45,8.45,0,0,0-1,1.17c-2.52,3.86-6.22,5.35-10.68,5.36-5.17,0-10.34.07-15.51.11a9.28,9.28,0,0,0-4.32,1c6,3.22,12.13,5.79,19,6.3a234.75,234.75,0,0,0,27.5.64c2.38-.1,4.76-.22,7.11-.52a88.26,88.26,0,0,0,13-3C167.82,274.27,171.3,273.82,174.37,272Zm-2.79-34.73c.19-.86.15-1.43-1.07-1.22a103.37,103.37,0,0,1-14.18,1.49c-.92,0-1.17.43-1.27,1.22-.37,3.11-.72,6.23-1.2,9.33-.23,1.5,0,2.28,1.52,1.77,6.24-.27,13.74-5.74,15.83-11.44A9.85,9.85,0,0,0,171.58,237.26Zm-16.17-19.54c1.1-5.59,2.54-11.08,2.32-16.89-.21-5.45-.14-10.92-.44-16.38a24.12,24.12,0,0,0-1.53-7.79c-4.11-10.11-11.82-16.41-21.8-20.07-6.31-2.31-12.59-2.13-18.53,1.43-6.76,4.06-11.14,10.23-14.59,17.06a22.4,22.4,0,0,0-2.15,11.1c.18,5.25-1.09,10.45-1.56,15.7-.65,7.22-1.28,14.43-.83,21.68.18,2.85.31,5.7.52,8.55.34,4.73,2.37,9.07,3,13.73.06.4.23.44.5.53a14.94,14.94,0,0,0,4.69,1,1.49,1.49,0,0,0,0-.4,76.77,76.77,0,0,1-4.39-25.23,126.17,126.17,0,0,1,.92-17.52c.66-5,.54-10.18,1-15.26.36-3.82.93-7.56,3.18-10.83,1.18-1.72,2.17-3.58,3.42-5.24,4.82-6.41,12.11-11.2,21.32-9.24a28.73,28.73,0,0,1,22.5,22.9,68.49,68.49,0,0,1,.66,16.83c-.34,6.13-1.37,12.17-2.18,18.24-1.27,9.48-2,19-3.82,28.44,4,.18,3.34.52,3.81-2.93a100.33,100.33,0,0,1,1.92-12.21,19.58,19.58,0,0,0,.47-4.13A87.38,87.38,0,0,1,155.41,217.72ZM153.77,65.46c1.32-3.22,1.73-6.69-.8-9.61A58.2,58.2,0,0,0,147,50c-2.36-2-4.77-4.21-8-3.54-.91,0-1.55,0-2.19,0q-1.3.1-2.58.31a3.93,3.93,0,0,0-3.41,3.63c-.07.63-.21,1.26-.23,1.89-.1,3.6.59,6.94,3.52,9.38a75.33,75.33,0,0,0,10,6.9,4.41,4.41,0,0,0,2.62.79C149.58,69,152.54,68.44,153.77,65.46ZM151.41,193c0-1-.57-.77-1.14-.72a79.12,79.12,0,0,1-9.82.38c-3.07,0-5.34,0-7.6,0-.82,0-1.14.22-1.18,1-.15,2.73-.34,5.45-.53,8.17,0,.66.14.88.84.92a131.26,131.26,0,0,0,18.11,0c1-.08,1.18-.49,1.19-1.27C151.33,198.66,151.34,195.81,151.41,193Zm-4.47-3.16a3,3,0,0,0,4-3.32c-.75-4.63-3.24-8.19-7.06-11.55.73,2.68,1.88,4.69,2.31,7s.17,4.74.26,7.1C146.47,189.37,146.5,189.66,146.94,189.8Zm4,16.4c.07-.69-.06-.91-.81-.89-2.2.06-4.41,0-6.61,0-3.66,0-7.3.5-11,.5-1.41,0-1.44.57-1.28,1.68.38,2.52.7,5,.92,7.58s.18,2.66,2.87,2.32c.29,0,.58,0,.87,0a114.29,114.29,0,0,1,12.18.23c1,.08,1.42-.12,1.61-1.2C150.27,213,150.53,209.61,150.89,206.21Zm-2,15.44c.11-.9-.11-1.26-1.05-1.24-2.21,0-4.41,0-6.62,0v-.17c-2.15,0-4.3.05-6.45,0-1,0-1.31.28-1.22,1.27.28,3.29.51,6.6.69,9.9,0,.78.39.89,1,1.05a104.32,104.32,0,0,0,10.52,2.13c1.53.22,1.72-.25,1.84-1.5C148,229.26,148.45,225.45,148.91,221.64Zm-2,16.72c.07-.87-.16-1.06-1-1.11-2.37-.14-4.74-.39-7.11-.61-2.92-.27-5.67-.36-8,2.08a5.44,5.44,0,0,1-6.19.91,12.79,12.79,0,0,1-6.14-4.69,5.7,5.7,0,0,0-5.58-2.79,60,60,0,0,1-7.84.14c-.91-.07-.93.29-.78,1,1,4.6,1.69,9.26,3.51,13.64a1.6,1.6,0,0,0,1.61,1.2c2,.13,3.91.47,5.86.71,7.2.88,14.39,1.85,21.67,1.64,2.21,0,4.42,0,6.63,0,.85,0,1.39-.14,1.59-1.14A94.14,94.14,0,0,0,146.91,238.36Zm-3.54-49.48c1.58-5.14.43-9.71-2.82-13.85a4.1,4.1,0,0,0-4-1.51c-3.46.38-6.93.75-10.4.89a3.94,3.94,0,0,0-3.63,2.15c-1.54,2.66-2,5.62-2.69,8.55-1.5,6.73-3,13.46-2.62,20.43a6.17,6.17,0,0,1-.08,1.39,59.65,59.65,0,0,0-1,10,32.23,32.23,0,0,0,.77,9c1,3.72,2.3,7.31,5.58,9.73,1.63,1.2,3.39,1.79,5.35.82a4.7,4.7,0,0,0,2.63-4.89c-.23-4.35-.52-8.69-.79-13-.51-8.11-1.58-16.21-.57-24.34.69-5.56,2.05-10.89,5.63-15.42.66-.83,1.4-1.42,2.3-.73s.28,1.49-.29,2.23a19.81,19.81,0,0,0-3.42,7.7c-.25,1.11,0,1.7,1.32,1.73,2.38.05,4.76.2,7.13.41C142.78,190.25,143.09,189.78,143.36,188.89ZM139.72,41c1.94-6,3.41-12.09,3.36-18.48,0-2-.73-3.27-2.48-3.93-2.07-.77-4.31-1.66-6.13.33a14.19,14.19,0,0,0-4,7.19,95.76,95.76,0,0,0-1,14.35c0,1.39,0,2.79,0,4.18,0,1,.31,1.25,1.24,1,2-.57,4-1.13,6-1.64A4.14,4.14,0,0,0,139.72,41Zm-9.31,25.56c3.14,3.82,8.7,5.37,11.7,4.18-6.8-4.15-13-8.69-14.5-17.55C125.25,57.51,126.39,61.63,130.41,66.52Zm8.9,104.69.09-.46c-5.07-3.82-10.65-5.66-17.08-4.08a10,10,0,0,0-6.11,4c-.41.6-.63.94.4,1.08a80.5,80.5,0,0,0,16.25.29C135,171.86,137.16,171.48,139.3,171.21Zm-4.42,129.41c.68-4.57,2-9,1.84-13.73q0-1.57,0-3.14c0-.47,0-1-.6-1.08-2.27-.39-4.5-1.11-6.86-.48-.71.19-.94.43-.92,1.14a27.13,27.13,0,0,0,.73,5,46,46,0,0,0,4.05,12.47c.22.4.31,1.13,1,1C134.64,301.6,134.82,301.08,134.89,300.62ZM129.74,20.89a8.51,8.51,0,0,0,1-4.82,12.35,12.35,0,0,0-1.32-6.39C128.72,8.23,127.69,7,125.92,7s-2.53,1.39-3.16,2.78c-2.29,5.12-3.18,10.6-3.79,16.09-.76,6.83-.09,13.69.06,20.53.07,3.15.7,6.33,3,8.85.43.47.93,1.16,1.52,1s.57-1,.68-1.57a4.56,4.56,0,0,1,.56-1.62c1.95-3,1.75-6.36,1.38-9.61C125.24,35.58,126.1,28,129.74,20.89ZM126,254.33c.34-.35,1.08-.65.8-1.18-.18-.35-.89-.54-1.38-.59-4.54-.47-9.08-1.18-13.64-1.28a39.12,39.12,0,0,1-21.11-6.38c-4.56-3-8.54-6.46-10-12a74.69,74.69,0,0,1-1.62-8.48c-.95-7-2.07-14.05-2.06-21.21a42,42,0,0,1,4.9-20c1.14-2.16,1.93-2.51,4.36-1.84s5,1.41,7.49,2.1c.73.2,1.42.37,1.77-.67,1.19-3.61,2.41-7.21,3.69-10.79.29-.83.06-1-.7-1.08-1.54-.21-3.06-.55-4.59-.81-5.06-.83-10.11-1.75-15.22-2.31-3.73-.41-7.47-.82-11.15-1.52-6.85-1.31-13.56-3.19-20.3-5A93.18,93.18,0,0,0,37,158.88c-.68-.1-1.78-.68-1.79.78,0,2.79-.11,5.59.09,8.37.36,4.91,1.09,9.8.86,16.44a54.13,54.13,0,0,0,1.21,12.29c2.17,11.11,4.89,22,10.92,31.89,3.68,6.05,7.16,12.18,11.82,17.54,3.71,4.27,7.53,8.38,13.15,10.23a81.33,81.33,0,0,0,17,3.82c7.8.82,15.67.27,23.5.66a11.37,11.37,0,0,0,9.47-3.89C124.07,256.06,125.07,255.25,126,254.33Zm-6.7-77.72c.57-2.25.47-2.37-1.83-2.49-.23,0-.46,0-.7,0-2.71,0-3.58.59-4.44,3.15-.2.6-.41,1.2-.57,1.8-.81,3.06-1.19,6.14-.1,9.21a2.65,2.65,0,0,0,2.78,1.9c1.42,0,1.68-1,1.94-2Q117.8,182.39,119.26,176.62Zm-4.16,18.27c.08-.74-.09-1.11-.89-1.34-2.75-.81-5.48-1.71-8.2-2.6-1.06-.35-1.28.11-1.28,1.06a72.59,72.59,0,0,1-.59,9c-.09.75.06,1,.83,1.07a35.69,35.69,0,0,0,5,.31c1.08.08,2,.08,2.93.22,1.09.16,1.54-.21,1.6-1.34C114.66,199.14,114.88,197,115.1,194.88Zm-2,34.71c1-.07,1.7-.46,1.38-1.8-.51-2.19-.8-4.43-1.2-6.65a1.38,1.38,0,0,0-1.43-1.35c-2.48-.2-4.95-.55-7.41-.94-1-.16-1.3.09-1.31,1.12,0,2.8.33,5.57.51,8.35.06.87.39,1.27,1.27,1.25,1.28,0,2.55,0,3.84,0v0C110.17,229.61,111.62,229.69,113.06,229.59Zm.62-22.78c0-.6-.08-.89-.8-1-2.69-.38-5.36-.86-8-1.32-.81-.14-.9.24-1,.94-.51,3.28-.07,6.62-.6,9.9-.13.81.3.95,1,1,2,.17,4,.42,5.83.62.86-.05,1.5-.08,2.14-.13.41,0,.77-.07.81-.66C113.21,213.06,113.45,209.93,113.69,206.81Zm-6.1-19.55c.22-2.1.39-4.2.58-6.3-2.16,1.67-2.48,3.93-2.58,6.26,0,.71.57.72,1.06.87C107.44,188.33,107.53,187.74,107.59,187.26Zm-8-19.16c3.13,0,4.17-2.66,5.69-5.15-3.86-.51-7.46-.9-11-1.46-6.25-1-12.48-2.06-18.72-3.09-8.06-1.33-16.06-2.93-24-4.75q-7.07-1.61-14.11-3.34c-.76-.18-1.14-.28-1.19.73s-.28,1.81-.36,2.74c-.13,1.45.46,1.89,1.81,2.3,6.47,2,13.1,3,19.74,4.17,12,2.14,23.91,4.71,35.87,7.06A33.06,33.06,0,0,0,99.58,168.1Zm-4.34,20.41c0-.68.29-1.37-.67-1.7-2.4-.81-4.75-1.79-7.19-2.48-1.41-.4-2.65-.13-3.15,1.74-.77,2.83-1.77,5.59-2.79,8.34-.39,1.07-.32,1.59.83,2a96.57,96.57,0,0,0,10.81,3.62c1.13.3,1.33,0,1.34-1A78,78,0,0,1,95.24,188.52Zm-1.13,15.31c.08-.68-.11-1-.9-1.12-3.83-.54-7.64-1.17-10.82-1.66-2.13-.23-2.14-.23-2.15,1.21,0,2.15,0,4.29,0,6.44,0,.67,0,1.16.88,1.4,3.81,1.09,7.6,2.27,11.39,3.42.76.23,1.16.08,1.19-.83C93.78,209.73,93.74,206.77,94.11,203.83Zm-.33,27.11a.82.82,0,0,0-.58-1c-3.18-.83-6.24-2.07-9.49-2.66-.75-.14-1.05.12-1.06.91a13,13,0,0,0,.62,4.1c2,6.22,7.27,9.09,12.54,12.28C95.34,239.83,93.55,235.53,93.78,230.94Zm-1.24-3.61c.91.28,1-.07.94-.8a32.91,32.91,0,0,1-.28-5.9,7.16,7.16,0,0,1,0-1.74c.31-1.33-.14-1.76-1.48-2a16.07,16.07,0,0,1-6.32-2.69,10.49,10.49,0,0,0-3.54-1.31c-.86-.23-1.1.1-1.07,1,.07,1.74,0,3.48,0,5.22.1,3.23,1.49,5.2,4.56,6.22C87.75,226.06,90.18,226.6,92.54,227.33Z"/><path class="cls-2" d="M259.88,124.14c.7.36,1.31.9,1,1.79a1.77,1.77,0,0,1-1.83,1.06,22,22,0,0,1-6.24-.38A97.25,97.25,0,0,1,234,120.3a10.39,10.39,0,0,1-5.91-6.65,60.06,60.06,0,0,0-2.73-6.44,138,138,0,0,1,15.49,8.33,76.22,76.22,0,0,0,16.83,7.65A17.34,17.34,0,0,1,259.88,124.14Z"/><path class="cls-3" d="M237.23,167.35c.66,8.64.76,17.23-1.18,25.76-1.46,6.4-2.4,12.93-4.61,19.15-2.39,6.72-6.14,12.8-9.09,19.26-.41.9-.87,1.77-1.27,2.67-3.39,7.76-7.9,14.7-14.39,20.27a43.44,43.44,0,0,0-3.27,3.39,5,5,0,0,1-4.55,1.69,21.83,21.83,0,0,0-10.45.77c-5.23,1.63-10.6,1.57-16,1.4s-10.69-.14-16-.41a65.62,65.62,0,0,1-11.52-1.39c-2.61-.6-4.29-2.68-6.31-4.2a.51.51,0,0,1-.17-.75c.23-.37.59-.32.93-.33,3-.09,6-.12,9.06-.29,3.57-.21,7.16-.32,10.57-1.63,9.44-3.63,15.31-10.25,17.19-20.31a59.58,59.58,0,0,0,.73-11.23c-.29-7.18.78-14.11.69-21.08a28.23,28.23,0,0,0-.77-8.09c-1.21-3.94-3.77-5.9-7.93-6a25.1,25.1,0,0,0-7.2.93c-.73.19-1.43.44-1.58-.82a46.7,46.7,0,0,0-2.68-11.93c-.49-1.23-.47-1.79,1.17-1.83,6-.14,12-.22,17.94.13,6.79.4,13.56.81,20.36.64a129.67,129.67,0,0,0,20.77-2.65c6.17-1.16,12.35-2.28,18.42-3.93C236.83,166.33,237.17,166.55,237.23,167.35Z"/><path class="cls-4" d="M236.59,160.9c.2,1.55-.36,2.1-1.58,2.68a38.75,38.75,0,0,1-11.8,3.18c-4.29.55-8.46,1.7-12.73,2.26-3.31.44-6.63.8-9.93,1.29a64.78,64.78,0,0,1-9.2.32,98,98,0,0,1-11.38-1c-1.6-.18-3.22-.27-4.83-.39-4.91-.35-9.83-.38-14.73-.78-2.75-.22-5.68,0-8.21-2a8.11,8.11,0,0,1,4.2-1.13c9.76,0,19.53.05,29.29,0,5.74,0,11.49-.28,17.23-.38,10.58-.2,20.76-2.65,30.76-6C236.37,158.09,236.23,158.16,236.59,160.9Z"/><path class="cls-4" d="M232.57,155.33c.28.24.77.46.59.94-.13.33-.58.3-.9.43-2.32.94-4,.29-5.65-1.61-6.08-7-14.25-10-23-12-2.87-.64-5.68-1.56-8.56-2.07a73,73,0,0,0-14.28-1.14,75.64,75.64,0,0,0-14.16,1.36,74.42,74.42,0,0,1-8.45.77c-4.85.23-9.62,1-14.42,1.65a52.46,52.46,0,0,1-13.88.19,15.87,15.87,0,0,0-1.91-.08,122.31,122.31,0,0,1-19.15-1.65c-2.84-.46-5.74-.57-8.63-.77-3.63-.25-7.25-.57-10.86-1-2.81-.33-5.64-.48-8.45-.77-3.78-.39-7.57-.81-11.33-1.29-4.34-.57-8.67-1.22-13-1.83-4.51-.64-8.92-1.71-13.35-2.76-.41-.1-1-.15-.92-.62.15-1.72.29-3.52,1.45-4.9,1-1.17,2.38-.61,3.57-.31C52.65,129.2,58,130.7,63.35,132a169.28,169.28,0,0,0,18,3c5.88.75,11.74,1.71,17.63,2.36a77.44,77.44,0,0,0,9.49.81c9-.11,18,0,27-.06,2.33,0,4.63.24,6.94.37,5.55.3,10.92-.83,16.25-2.16a50.94,50.94,0,0,1,10.1-1.34c5.37-.24,10.75-.53,16.11-1,7.65-.71,14.89.06,21.82,3.84s13.75,7.23,19.72,12.29Q229.55,152.69,232.57,155.33Z"/><path class="cls-5" d="M230.58,130.63a56.78,56.78,0,0,1,1.75,14.44c0,1.45,0,2.9,0,4.36,0,.27,0,.65-.18.78-.37.3-.62-.13-.87-.33-3-2.4-6-4.8-8.93-7.23-7.79-6.44-16.82-9.82-26.7-11.56-5-.88-9.82-.17-14.7.17-5.49.39-11,.83-16.45,1.6s-10.61,1.77-15.91,2.65a37.16,37.16,0,0,1-7.42.27c-6-.2-12.09-.07-18.14-.06A233.56,233.56,0,0,1,88.35,133c-4.23-.63-8.54-.66-12.76-1.49-9.63-1.88-19.23-3.89-28.64-6.7-1.15-.35-1.32-1-.8-2,4.11-7.38,7.9-15,14-21.05A21.38,21.38,0,0,0,63,98.58C67.46,91.78,73.82,87,80.17,82.19c8.65-6.54,17.49-12.78,27.68-16.77,3.74-1.46,7.44-3.29,11.64-3a48.48,48.48,0,0,1,5.13.82c1.32.25,1.72,1.45,2.31,2.43,2.4,4,5.9,6.87,10.33,7.61,7.14,1.18,13.89-.29,18.6-6.33,2-2.58,3.94-2.85,6.67-1.92A97.13,97.13,0,0,1,179,72.27c9.13,5.15,18.18,10.46,26.37,17.07C218.68,100.09,226.67,114.13,230.58,130.63Zm-29.4-35c.18-.72-1.56-3.35-2.22-3.41a4.54,4.54,0,0,0-2,2.84,2.14,2.14,0,0,0,4.23.57Zm-9.58,17.84c1.89-1.4,1.83-4.3-.22-5.25A24.57,24.57,0,0,0,181,105.95a35.25,35.25,0,0,0-9,1.77,9,9,0,0,0-4.24,3.17,1.61,1.61,0,0,0-.27,2c1.4,1.84,2.79,3.84,5.23,4.33,2.15.43,4.36.54,6.16.75A21.49,21.49,0,0,0,191.6,113.44Z"/><path class="cls-6" d="M210.4,147.69c6.46,1.67,11.55,5.68,16.52,10.38-3.2.83-6.14,1.56-9.07,2.35a68.41,68.41,0,0,1-15.78,2.14c-15.17.45-30.34.46-45.52.37-5,0-9.66-1.15-13.6-4.41a23,23,0,0,0-10.68-5.08c-6.39-1.19-12.61-.77-18,3a14.48,14.48,0,0,1-12.39,2.39c-5-1.13-10.11-1.77-15.19-2.45-4.25-.57-8.32-1.87-12.5-2.67-6-1.15-12-2.11-18.08-3A99.74,99.74,0,0,1,41.51,148c-4.39-1.34-4.5-1.56-3.17-5.84.46-1.49,1-3,1.39-4.46a1.39,1.39,0,0,1,1.85-1.18q12,2,24.09,3.79c7.43,1.14,14.92,1.78,22.41,2.46,8.41.76,16.84,1.43,25.21,2.49a150.82,150.82,0,0,0,25.33,1.28c3.87-.16,7.72-.69,11.57-1.1s7.46-.87,11.2-1.31c4.42-.51,8.83-1.06,13.26-1.51a77,77,0,0,1,13.9,0C196.09,143.19,203.15,145.82,210.4,147.69Z"/><path class="cls-7" d="M199,92.18c.66.06,2.4,2.7,2.22,3.41a2.14,2.14,0,0,1-4.23-.57A4.54,4.54,0,0,1,199,92.18Z"/><path class="cls-4" d="M194.27,262.44a2,2,0,0,1,1.71.22c-3.11,2.63-6.07,5.38-10.18,6a59.15,59.15,0,0,1-12.47.71c-4.26-.28-8.51-.64-12.74-1.25-3.88-.55-7.8-.78-11.7-1.15-3.32-.31-6.77,0-9.67-2.13-1.6-1.15-3-2.51-4.62-3.68-2.76-2-2.8-2-5.15.37-1.26,1.28-2.53,2.55-3.68,4-1.94,2.36-4.71,3.15-7.6,3.2-6.16.11-12.33-.06-18.49,0-7.55.08-14.77-1.72-21.89-3.9-2.38-.73-3.72-3.09-5.33-4.88-.67-.75.54-.65.86-.6a28.68,28.68,0,0,1,4.88,1.09,61.28,61.28,0,0,0,23.11,3.76c3.89-.1,7.8-.1,11.69,0a13.33,13.33,0,0,0,10-3.44c1.89-1.75,4.31-2.93,6.39-4.5a3.22,3.22,0,0,1,3.85-.2,25.61,25.61,0,0,1,5.92,4.25c2.29,2.22,5.07,2.94,8,3.16,8.49.64,17,1.25,25.52,1.05C180,264.29,187.2,264.21,194.27,262.44Z"/><path class="cls-8" d="M191.38,108.19c2,.95,2.11,3.84.22,5.25a21.49,21.49,0,0,1-12.77,4.48c-1.8-.21-4-.32-6.16-.75-2.44-.49-3.84-2.48-5.23-4.33a1.61,1.61,0,0,1,.27-2,9,9,0,0,1,4.24-3.17,35.25,35.25,0,0,1,9-1.77A24.57,24.57,0,0,1,191.38,108.19Zm-2.91,4.33c.74-.5,1.62-1.1,1.46-2-.13-.67-1.24-.62-1.93-.8-5.74-1.51-11.37-1.49-16.86,1.13-1.4.67-1.32,1.14-.4,2.18,2,2.31,4.71,2.39,7.6,2.45A17.79,17.79,0,0,0,188.47,112.53Z"/><path class="cls-9" d="M189.92,110.57c.17.86-.71,1.47-1.46,2a17.79,17.79,0,0,1-10.14,3c-2.88-.06-5.56-.14-7.6-2.45-.92-1-1-1.51.4-2.18,5.49-2.61,11.12-2.64,16.86-1.13C188.69,109.95,189.8,109.9,189.92,110.57Z"/><path class="cls-10" d="M174,223.3a35.52,35.52,0,0,1-.61,7.36,3.18,3.18,0,0,1-2.57,2.72,87,87,0,0,1-14.12,1.74c-.76.05-1-.17-.91-1,.52-4.21,1-8.42,1.47-12.63.06-.58.18-1,.91-1,4.78,0,9.4-1.15,14-2.18,1.12-.25,1.39.15,1.64,1.08C174.24,220.81,173.92,222.2,174,223.3Z"/><path class="cls-11" d="M167.42,189.07A5.89,5.89,0,0,1,174,194.9c-.06,3.05-.33,3.44-3.21,4.3a77.55,77.55,0,0,1-10.28,2.41c-.34-2.52.22-5,.2-7.47,0-1.2-.75-2.72,0-3.49s2.24-.69,3.42-.95S166.34,189.23,167.42,189.07Z"/><path class="cls-12" d="M174,203c0,3.42.27,6.87-.36,10.26a3.26,3.26,0,0,1-2.4,2.54c-4.23,1.21-8.51,2.21-13.1,1.85.86-4.23,1.65-8.28,2.08-12.38.09-.84.43-1.05,1.28-1.23,2.74-.56,5.55-.33,8.28-.94a6.47,6.47,0,0,0,2.2-1C173.1,201.41,174,201.7,174,203Z"/><path class="cls-5" d="M171.35,271.19a4.78,4.78,0,0,1,3,.8c-3.07,1.84-6.55,2.28-9.86,3.22a88.26,88.26,0,0,1-13,3c-2.36.3-4.74.42-7.11.52a234.75,234.75,0,0,1-27.5-.64c-6.83-.51-13-3.07-19-6.3a9.28,9.28,0,0,1,4.32-1c5.17,0,10.34-.09,15.51-.11,4.46,0,8.15-1.5,10.68-5.36a8.45,8.45,0,0,1,1-1.17c2.11-2.18,4-2,5.67.65a4.89,4.89,0,0,1,.5,1.1c.76,2.38,2.54,3.31,4.88,3.45Q156,270.28,171.35,271.19Z"/><path class="cls-11" d="M170.51,236c1.22-.21,1.26.36,1.07,1.22a9.85,9.85,0,0,1-.37,1.16c-2.09,5.7-9.58,11.17-15.83,11.44-1.54.51-1.75-.27-1.52-1.77.48-3.1.82-6.22,1.2-9.33.09-.79.34-1.19,1.27-1.22A103.37,103.37,0,0,0,170.51,236Z"/><path class="cls-12" d="M157.73,200.83c.22,5.81-1.22,11.3-2.32,16.89a87.38,87.38,0,0,0-1.57,13.09,19.58,19.58,0,0,1-.47,4.13,100.33,100.33,0,0,0-1.92,12.21c-.47,3.45.19,3.12-3.81,2.93,1.85-9.41,2.55-19,3.82-28.44.82-6.07,1.85-12.12,2.18-18.24a68.49,68.49,0,0,0-.66-16.83,28.73,28.73,0,0,0-22.5-22.9c-9.21-2-16.49,2.83-21.32,9.24-1.25,1.66-2.24,3.52-3.42,5.24-2.25,3.27-2.83,7-3.18,10.83-.47,5.08-.36,10.24-1,15.26a126.17,126.17,0,0,0-.92,17.52A76.77,76.77,0,0,0,105,247a1.49,1.49,0,0,1,0,.4,14.94,14.94,0,0,1-4.69-1c-.28-.09-.45-.13-.5-.53-.66-4.65-2.69-9-3-13.73-.2-2.85-.34-5.7-.52-8.55-.46-7.24.17-14.45.83-21.68.47-5.25,1.74-10.45,1.56-15.7a22.4,22.4,0,0,1,2.15-11.1c3.46-6.83,7.83-13,14.59-17.06,5.94-3.57,12.22-3.75,18.53-1.43,10,3.66,17.7,10,21.8,20.07a24.12,24.12,0,0,1,1.53,7.79C157.59,189.91,157.52,195.38,157.73,200.83Z"/><path class="cls-13" d="M153,55.85c2.54,2.93,2.13,6.39.8,9.61-1.22,3-4.19,3.57-7.07,3.89a4.41,4.41,0,0,1-2.62-.79,75.33,75.33,0,0,1-10-6.9c-2.93-2.44-3.63-5.78-3.52-9.38,0-.63.16-1.26.23-1.89a3.93,3.93,0,0,1,3.41-3.63q1.28-.21,2.58-.31c.64,0,1.28,0,2.19,0,3.28-.67,5.68,1.5,8,3.54A58.2,58.2,0,0,1,153,55.85ZM147.16,60c1.12-1.79.79-3.31-1.33-5.34-1.12-1.08-2.38-2-3.59-3-1-.85-2.13-1.55-3.46-.76a3.57,3.57,0,0,0-2.1,3.59c.08,4,1.76,6.66,4.63,7.5A5.27,5.27,0,0,0,147.16,60Z"/><path class="cls-11" d="M150.28,192.25c.57-.05,1.16-.28,1.14.72-.07,2.85-.08,5.7-.12,8.54,0,.78-.22,1.19-1.19,1.27a131.26,131.26,0,0,1-18.11,0c-.7,0-.89-.27-.84-.92.2-2.72.38-5.45.53-8.17,0-.82.36-1.06,1.18-1,2.26.06,4.53,0,7.6,0A79.12,79.12,0,0,0,150.28,192.25Z"/><path class="cls-3" d="M150.95,186.49a3,3,0,0,1-4,3.32c-.44-.14-.47-.43-.48-.79-.09-2.37.2-4.73-.26-7.1s-1.58-4.3-2.31-7C147.7,178.3,150.2,181.85,150.95,186.49Z"/><path class="cls-12" d="M150.08,205.32c.75,0,.88.2.81.89-.36,3.4-.62,6.81-1.2,10.19-.19,1.09-.63,1.28-1.61,1.2a114.29,114.29,0,0,0-12.18-.23c-.29,0-.58,0-.87,0-2.69.34-2.63.34-2.87-2.32s-.55-5.06-.92-7.58c-.16-1.11-.13-1.67,1.28-1.68,3.65,0,7.29-.49,11-.5C145.68,205.34,147.88,205.37,150.08,205.32Z"/><path class="cls-10" d="M147.86,220.4c.94,0,1.16.34,1.05,1.24-.46,3.8-.9,7.61-1.26,11.43-.12,1.25-.31,1.72-1.84,1.5a104.32,104.32,0,0,1-10.52-2.13c-.64-.16-1-.28-1-1.05-.18-3.3-.42-6.6-.69-9.9-.08-1,.22-1.31,1.22-1.27,2.15.07,4.3,0,6.45,0v.17C143.44,220.42,145.65,220.44,147.86,220.4Z"/><path class="cls-1" d="M145.83,54.64c2.12,2,2.45,3.55,1.33,5.34a5.27,5.27,0,0,1-5.86,2c-2.88-.84-4.55-3.52-4.63-7.5a3.57,3.57,0,0,1,2.1-3.59c1.34-.79,2.44-.08,3.46.76C143.45,52.62,144.71,53.56,145.83,54.64Zm-.91,4.05a2.37,2.37,0,0,0-.43-2.58,7.54,7.54,0,0,0-2.88-1.86c-.69-.33-1.42-1.25-2.13-.71s0,1.41.06,2.13c.18,2.06,2.06,4,3.68,4A1.69,1.69,0,0,0,144.92,58.69Z"/><path class="cls-11" d="M145.9,237.25c.84,0,1.07.24,1,1.11a94.14,94.14,0,0,1-1.8,11c-.21,1-.74,1.15-1.59,1.14-2.21,0-4.42,0-6.63,0-7.28.21-14.47-.75-21.67-1.64-2-.24-3.9-.58-5.86-.71a1.6,1.6,0,0,1-1.61-1.2c-1.83-4.38-2.55-9-3.51-13.64-.15-.71-.13-1.07.78-1a60,60,0,0,0,7.84-.14,5.7,5.7,0,0,1,5.58,2.79,12.79,12.79,0,0,0,6.14,4.69,5.44,5.44,0,0,0,6.19-.91c2.38-2.43,5.12-2.35,8-2.08C141.16,236.86,143.53,237.11,145.9,237.25Z"/><path class="cls-14" d="M144.49,56.11a2.37,2.37,0,0,1,.43,2.58,1.69,1.69,0,0,1-1.69,1c-1.62,0-3.5-1.94-3.68-4-.07-.72-.63-1.7-.06-2.13s1.44.38,2.13.71A7.54,7.54,0,0,1,144.49,56.11Z"/><path class="cls-5" d="M140.55,175c3.25,4.14,4.39,8.71,2.82,13.85-.27.89-.59,1.36-1.64,1.27-2.37-.22-4.75-.36-7.13-.41-1.31,0-1.57-.63-1.32-1.73a19.81,19.81,0,0,1,3.42-7.7c.56-.74,1.22-1.51.29-2.23s-1.64-.11-2.3.73c-3.58,4.53-4.94,9.86-5.63,15.42-1,8.13.07,16.23.57,24.34.27,4.35.57,8.69.79,13a4.7,4.7,0,0,1-2.63,4.89c-2,1-3.72.38-5.35-.82-3.28-2.42-4.57-6-5.58-9.73a32.23,32.23,0,0,1-.77-9,59.65,59.65,0,0,1,1-10,6.17,6.17,0,0,0,.08-1.39c-.37-7,1.12-13.7,2.62-20.43.65-2.93,1.15-5.89,2.69-8.55a3.94,3.94,0,0,1,3.63-2.15c3.48-.14,6.94-.51,10.4-.89A4.1,4.1,0,0,1,140.55,175Z"/><path class="cls-15" d="M143.08,22.49c0,6.39-1.42,12.47-3.36,18.48a4.14,4.14,0,0,1-3.06,3c-2,.51-4,1.07-6,1.64-.93.27-1.27,0-1.24-1,0-1.39,0-2.79,0-4.18a95.76,95.76,0,0,1,1-14.35,14.19,14.19,0,0,1,4-7.19c1.83-2,4.07-1.11,6.13-.33C142.35,19.22,143.07,20.53,143.08,22.49Z"/><path class="cls-13" d="M142.11,70.71c-3,1.19-8.56-.37-11.7-4.18-4-4.89-5.15-9-2.8-13.37C129.12,62,135.31,66.55,142.11,70.71Z"/><path class="cls-4" d="M139.4,170.75l-.09.46c-2.15.27-4.29.64-6.45.78a80.5,80.5,0,0,1-16.25-.29c-1-.14-.81-.48-.4-1.08a10,10,0,0,1,6.11-4C128.75,165.08,134.32,166.93,139.4,170.75Z"/><path class="cls-2" d="M136.72,286.89c.2,4.68-1.16,9.16-1.84,13.73-.07.46-.24,1-.74,1.1-.72.17-.81-.55-1-1a46,46,0,0,1-4.05-12.47,27.13,27.13,0,0,1-.73-5c0-.71.21-.95.92-1.14,2.36-.63,4.6.08,6.86.48.63.11.6.61.6,1.08Q136.72,285.32,136.72,286.89Z"/><path class="cls-15" d="M130.78,16.07a8.51,8.51,0,0,1-1,4.82c-3.64,7.13-4.5,14.69-3.6,22.59.37,3.26.57,6.62-1.38,9.61a4.56,4.56,0,0,0-.56,1.62c-.12.6-.08,1.45-.68,1.57s-1.09-.57-1.52-1c-2.26-2.52-2.89-5.71-3-8.85-.15-6.84-.82-13.7-.06-20.53.61-5.49,1.5-11,3.79-16.09.62-1.39,1.31-2.83,3.16-2.78s2.79,1.24,3.54,2.69A12.35,12.35,0,0,1,130.78,16.07Z"/><path class="cls-3" d="M126.76,253.15c.28.54-.46.83-.8,1.18-.89.91-1.89,1.73-2.74,2.68a11.37,11.37,0,0,1-9.47,3.89c-7.83-.38-15.69.17-23.5-.66a81.33,81.33,0,0,1-17-3.82c-5.62-1.86-9.44-6-13.15-10.23-4.66-5.36-8.14-11.48-11.82-17.54-6-9.91-8.75-20.78-10.92-31.89a54.13,54.13,0,0,1-1.21-12.29c.24-6.64-.5-11.53-.86-16.44-.2-2.77-.1-5.58-.09-8.37,0-1.47,1.11-.88,1.79-.78a93.18,93.18,0,0,1,10.24,2.45c6.74,1.77,13.46,3.65,20.3,5,3.68.7,7.42,1.11,11.15,1.52,5.11.55,10.15,1.47,15.22,2.31,1.53.25,3.05.6,4.59.81.76.11,1,.25.7,1.08-1.27,3.58-2.5,7.19-3.69,10.79-.35,1-1,.87-1.77.67-2.5-.69-5-1.4-7.49-2.1S83,181,81.9,183.21a42,42,0,0,0-4.9,20c0,7.16,1.11,14.16,2.06,21.21a74.69,74.69,0,0,0,1.62,8.48c1.42,5.55,5.4,9,10,12a39.12,39.12,0,0,0,21.11,6.38c4.55.1,9.1.8,13.64,1.28C125.88,252.61,126.58,252.8,126.76,253.15Z"/><path class="cls-5" d="M117.43,174.12c2.31.12,2.4.24,1.83,2.49q-1.46,5.78-2.93,11.55c-.26,1-.52,2-1.94,2a2.65,2.65,0,0,1-2.78-1.9c-1.08-3.07-.7-6.15.1-9.21.16-.61.37-1.21.57-1.8.86-2.57,1.73-3.18,4.44-3.15C117,174.12,117.2,174.11,117.43,174.12Z"/><path class="cls-11" d="M114.21,193.54c.8.23,1,.6.89,1.34-.22,2.13-.44,4.26-.56,6.39-.06,1.13-.51,1.5-1.6,1.34-.91-.14-1.85-.14-2.93-.22a35.69,35.69,0,0,1-5-.31c-.78-.11-.93-.32-.83-1.07a72.59,72.59,0,0,0,.59-9c0-1,.23-1.41,1.28-1.06C108.73,191.83,111.46,192.73,114.21,193.54Z"/><path class="cls-10" d="M114.45,227.79c.31,1.34-.37,1.73-1.38,1.8-1.44.1-2.9,0-4.34,0v0c-1.28,0-2.56,0-3.84,0-.88,0-1.21-.38-1.27-1.25-.18-2.78-.54-5.55-.51-8.35,0-1,.3-1.28,1.31-1.12,2.46.38,4.93.74,7.41.94a1.38,1.38,0,0,1,1.43,1.35C113.65,223.35,113.94,225.59,114.45,227.79Z"/><path class="cls-12" d="M112.89,205.82c.72.1.85.39.8,1-.24,3.12-.48,6.25-.69,9.37,0,.59-.4.62-.81.66-.64.05-1.27.08-2.14.13-1.8-.2-3.81-.44-5.83-.62-.69-.06-1.13-.2-1-1,.53-3.28.09-6.62.6-9.9.11-.7.2-1.08,1-.94C107.52,205,110.2,205.44,112.89,205.82Z"/><path class="cls-16" d="M108.17,181c-.19,2.1-.36,4.21-.58,6.3-.05.48-.15,1.07-.94.83-.49-.15-1.09-.16-1.06-.87C105.68,184.89,106,182.63,108.17,181Z"/><path class="cls-4" d="M105.27,162.95c-1.51,2.49-2.55,5.15-5.69,5.15a33.06,33.06,0,0,1-6.33-.79c-12-2.34-23.88-4.92-35.87-7.06-6.63-1.18-13.27-2.21-19.74-4.17-1.35-.41-1.94-.86-1.81-2.3.08-.92.31-1.83.36-2.74s.43-.92,1.19-.73q7,1.72,14.11,3.34c8,1.82,16,3.42,24,4.75,6.24,1,12.47,2.11,18.72,3.09C97.8,162,101.41,162.44,105.27,162.95Z"/><path class="cls-11" d="M94.57,186.82c1,.32.72,1,.67,1.7a78,78,0,0,0-.82,10.59c0,1-.21,1.28-1.34,1a96.57,96.57,0,0,1-10.81-3.62c-1.15-.45-1.22-1-.83-2,1-2.75,2-5.52,2.79-8.34.51-1.87,1.74-2.14,3.15-1.74C89.82,185,92.17,186,94.57,186.82Z"/><path class="cls-12" d="M93.21,202.71c.79.11,1,.44.9,1.12-.37,2.94-.33,5.9-.41,8.85,0,.92-.42,1.06-1.19.83-3.79-1.15-7.58-2.33-11.39-3.42-.86-.24-.89-.73-.88-1.4,0-2.15,0-4.29,0-6.44,0-1.43,0-1.43,2.15-1.21C85.57,201.54,89.38,202.16,93.21,202.71Z"/><path class="cls-11" d="M93.2,230a.82.82,0,0,1,.58,1c-.23,4.6,1.56,8.9,2,13.69-5.28-3.2-10.53-6.07-12.54-12.28a13,13,0,0,1-.62-4.1c0-.79.31-1,1.06-.91C87,227.91,90,229.15,93.2,230Z"/><path class="cls-10" d="M93.47,226.53c.06.72,0,1.08-.94.8-2.36-.73-4.79-1.27-7.13-2-3.06-1-4.45-3-4.56-6.22-.06-1.74,0-3.48,0-5.22,0-.86.22-1.19,1.07-1a10.49,10.49,0,0,1,3.54,1.31,16.07,16.07,0,0,0,6.32,2.69c1.35.26,1.79.69,1.48,2a7.16,7.16,0,0,0,0,1.74A32.91,32.91,0,0,0,93.47,226.53Z"/><path class="cls-17" d="M30.95,162.55a6.49,6.49,0,0,1-.31,3.54c.4-1.1.08-2.23.18-3.34,0-.06,0-.13,0-.18Z"/><path class="cls-17" d="M30.82,162.57c0,.06,0,.12,0,.18-.1,1.11.22,2.24-.18,3.34V162.6Z"/></g></svg>