<svg id="圖層_1" data-name="圖層 1" xmlns="http://www.w3.org/2000/svg" viewBox="0 0 287.81 324.7"><defs><style>.cls-1{fill:#fff;}.cls-2{fill:#b8b7b7;}.cls-3{fill:#4f5654;}.cls-4{fill:#1d7052;}.cls-5{fill:#ddae1d;}.cls-6{fill:#cf543f;}</style></defs><title>chks</title><path d="M267.78,160.78c1.36,4.9,1.24,10.34,1,15.52-.11,2.69-.79,5.83-3.44,7.67a3.63,3.63,0,0,1-2.26.68c-2.82-.34-4.26.76-4.25,3.63,0,4.13.25,8.25.2,12.37,0,4.7-.34,9.39-.43,14.09,0,2.5.15,5,.17,7.52,0,3.06.17,6.14-.06,9.18-.32,4.19-1.06,8.34-1.41,12.52-.55,6.55-1,13.11-1.37,19.68-.33,5.26-.56,10.53-.87,15.8-.19,3.19-.44,6.37-.7,9.55-.15,1.86-1.67,3.9-3.54,4.1a39.33,39.33,0,0,1-9.11.22c-3.66-.49-5.15-2.75-4.92-6.46.29-4.67.7-9.33,1.07-14s.79-9.54,1.18-14.31c.25-3,.55-6.08.68-9.13a41,41,0,0,0-.41-8.11c-.53,2-1.15,4-1.59,6-1.76,8.23-3.41,16.48-5.21,24.7-1.15,5.27-2.52,10.5-3.66,15.77-.32,1.47.14,3.15-.33,4.54-1.42,4.16-3.91,7.81-8,9.56a60.13,60.13,0,0,1-12,3.54,85.06,85.06,0,0,1-20.61,1.1c-3.73-.17-7.48.29-11.23.46-5.71.26-11.41.48-17.12.78-1.74.09-3.46.56-5.19.56-1.41,0-2.8-.62-4.22-.69-4.89-.24-9.79-.25-14.68-.55-5.83-.36-11.65-1-17.48-1.36-5.46-.31-10.93-.3-16.39-.5-3.44-.13-6.91-.17-10.32-.62-4-.53-7.86-1.43-11.77-2.24-1.91-.39-3.8-.87-5.65-1.43-2.1-.64-4.26-3.9-4.25-6.16a6,6,0,0,0-.16-1.67c-1.38-4.75-2.91-9.47-4.17-14.26-1.1-4.19-1.86-8.47-2.92-12.67-.22-.85-1.19-1.49-1.67-2.31-1.08-1.85-2.1-3.73-3.09-5.63s-1.9-3.78-2.85-5.71q.37,6.09.74,12.17c.22,3.58.55,7.15.67,10.74.28,7.92.58,15.85.62,23.78,0,4.83-1,6.21-5.25,7.55a19.67,19.67,0,0,1-6,1.1c-4.13,0-5.5-1.81-5.88-5.92-.47-5.1-1.31-10.16-2-15.25-.43-3.35-.8-6.72-1.25-10.08-.71-5.31-1.56-10.61-2.17-15.93-.35-3-.31-6.14-.5-9.21-.42-6.81-.89-13.61-1.3-20.42-.25-4.25-.36-8.51-.62-12.77-.34-5.3-.78-10.61-1.16-15.91-.13-1.75-.25-3.51-.4-5.6-.4.45-.54.53-.56.63a5.57,5.57,0,0,1-7.37,4.62A6,6,0,0,1,20,200.41a17,17,0,0,1-2.76-3.55,10.44,10.44,0,0,1-1.46-4.36,43.36,43.36,0,0,1,2-15.57c.57-1.63.56-3.45,1-5.13a51.61,51.61,0,0,1,7-16.31c2.43-3.56,4.39-7.45,6.86-11s5.48-7,8.22-10.53c.28-.36.66-.86.61-1.25-.74-6.29-1.63-12.57-2.29-18.87-.38-3.65-.42-7.34-.57-11-.13-2.91-.32-5.82-.29-8.73,0-4.71.25-9.42.38-14.13,0-.75-.08-1.51,0-2.26a8.45,8.45,0,0,1,9.13-7.85,3.48,3.48,0,0,1,2.33,1.6c1.64,3.06,3.45,6.07,4.12,9.57a1.55,1.55,0,0,0,1.28.78c4-.49,7.94-1.13,11.92-1.61a50.23,50.23,0,0,1,7.84-.61c2.39.08,4.08-1.07,5.76-2.35,3.58-2.73,7-5.76,10.68-8.28,4.35-2.94,8.9-5.61,13.53-8.11,3.51-1.89,7.25-3.37,10.93-4.94a10.36,10.36,0,0,1,3.11-.69c1.17-.11,1.46-.54,1.29-1.71-1-6.65-2-13.3-2.71-20-.66-6.42-1.13-12.87-1.27-19.32-.09-3.92.89-7.74,4.17-10.48,3.65-3.06,7.55-2.23,9.42,2.18a64.91,64.91,0,0,1,2.1,6.8c.2.65.35,1.31.51,1.92,2.9,0,5.7-.73,8.18,1.1s2.12,4.94,3.53,8a16.67,16.67,0,0,1,2.29-2.89,4.23,4.23,0,0,1,2.46-.53,9.4,9.4,0,0,1,2,.47c3.36.71,5.42,2.84,5.41,6.33,0,3.29-.62,6.57-.76,9.86-.19,4.38-1.45,8.5-2.71,12.63a10.79,10.79,0,0,0-.18,2c1.15,0,2.18,0,3.21,0a12.52,12.52,0,0,1,2.62.14c4.3,1,8.65,2,12.87,3.27,7.06,2.22,14,4.68,20.4,8.56C196,66,200.21,68,204,70.59c3.25,2.22,6.09,5,9.15,7.53,2.33,1.91,4.84,3.25,8.06,2.93a73.09,73.09,0,0,1,8.09-.2c1.18,0,1.21-.68,1.5-1.49A27,27,0,0,1,233,74.49c1.8-2.92,5-3.32,8-4,2.68-.64,4.64,1.17,6.87,2,.56.2.88,1.6,1,2.49.37,3.42.71,6.85.85,10.29.22,5.2.39,10.41.35,15.62-.08,8.58-.34,17.17-.54,25.75,0,2-.05,4.11-.29,6.14s1,3.17,2.61,3.89a17.9,17.9,0,0,1,8.62,7.92C263.19,149.79,266.21,155.11,267.78,160.78Zm-3.89,18.31a10.21,10.21,0,0,0,1.3-4.23c-.06-3.24-.59-6.47-.83-9.71-.4-5.32-3.09-9.93-4.66-14.88-2.53-8-9.68-11.14-16.27-14.82-2.51-1.4-5-2.87-7.47-4.31-.42-.24-.82-.5-1.25-.74s-1.26-.4-1.43-.79c-1.75-4.14-3.8-8.21-5-12.52-2.95-10.38-6.38-20.52-12-29.79-2.34-3.85-5-7.39-8.91-9.79A45.69,45.69,0,0,1,202.23,74,80,80,0,0,0,182.5,62.1c-3.66-1.52-7.39-2.86-11.12-4.19a30.25,30.25,0,0,0-5.91-1.69,76.74,76.74,0,0,0-10.28-.79,117.5,117.5,0,0,0-14.83.62c-5.85.74-11.62,2.12-17.42,3.24a72.6,72.6,0,0,0-20.61,7.09c-5.51,2.95-11.22,5.67-16,9.78-4,3.4-8.15,6.61-11.78,10.35-5.13,5.29-8.35,11.85-11.34,18.57-2.78,6.23-6.16,12.2-9.26,18.28a18.46,18.46,0,0,1-4.72,6A28.94,28.94,0,0,0,45,133.65c-3,3.78-5.87,7.65-8.78,11.49-6.35,8.41-10.83,17.82-14.43,27.65a83.78,83.78,0,0,0-3,11.47c-.82,3.88-.79,7.79,1.36,11.32.84,1.38,1.85,3.52,3.68,2.87,1.26-.45,2.42-2.34,2.81-3.81,1.75-6.59,3.17-13.28,4.79-19.91.92-3.76,1.93-7.52,5.07-10.2a1.42,1.42,0,0,0,.37-.84c.38-2.7.71-5.4,1.1-8.1.43-3,4.28-7,7.16-6.77s4.67-1.41,6.67-2.91c.6-.45,1.69-1,2.15-.7a3.15,3.15,0,0,1,1.54,2.2c0,1.21.55,1.36,1.41,1.79,1.31.65,2.87,1.35,3.61,2.5a9.86,9.86,0,0,1,1.67,6.58,21.45,21.45,0,0,0,.19,5.09c.56,4.36-1.07,6.51-5.48,7.13-1.29.18-2,.58-1.8,2.33,1.25,9.27,4.78,18.1,5,27.57.08,3.28,1.3,6.53,1.38,9.8a17.49,17.49,0,0,0,4.95,12.21c1.29,1.36,2.08,3.19,3.37,4.53a32,32,0,0,0,14.42,9.12c5.59,1.59,11.07,2.8,16.86,1.5a5.62,5.62,0,0,1,1.65.1,33.05,33.05,0,0,0,1.85-3.58,5.65,5.65,0,0,1,3.94-3.45c.78-.25,1.81-.69,2.38-.38,2,1.1,4,2.4,3.8,5.23-.05.65-.09,1.29-.12,1.94s-.07,1.3-.11,1.95h0c3,1.1,63.57,3,66.48,2-.15-.75-.29-1.53-.47-2.3-.9-4,1.53-7.53,5.1-7.2a6.82,6.82,0,0,1,5.15,3.44c1.18,1.89,2.13,3.93,3.14,5.82.74-.08,1.37-.11,2-.23,3.26-.61,6.73-.7,9.71-2,6.72-2.87,11.55-8.15,15.67-14.07.51-.74.48-2,1.09-2.53,4-3.72,5.54-8.81,7.92-13.43a18.52,18.52,0,0,0,1.91-6.28c.48-4.22.51-8.49.8-12.74.36-5.3,1.4-10.56.79-15.93a3,3,0,0,0-1.68-2.78,25.29,25.29,0,0,1-4.41-2.78c-3.26-2.61-1.38-6.33-1.66-9.52-.19-2.21.9-4.52,1.32-6.8a3.59,3.59,0,0,1,3.35-3.27l1.79-.23a4.29,4.29,0,0,1,0-.77c.24-1,.49-2,.74-3,1,.29,1.94.52,2.86.88,1.38.53,2.68,1.49,4.09,1.67,2.73.35,5.53.18,8.28.45a3.36,3.36,0,0,1,2.39,1.44,17.15,17.15,0,0,1,1.61,5.36c.23,2.14.09,4.21,1.93,5.85a5.4,5.4,0,0,1,1.07,2.58c.91,3.4,1.64,6.85,2.69,10.2.68,2.16,1.06,4.54,3.08,6.11C262.36,180.21,263.31,180.31,263.89,179.09Zm-8,11.57c-.17-2.57-.21-4.84-.54-7.07a2.5,2.5,0,0,0-1.58-1.75,15.89,15.89,0,0,0-4,.53c-.09,0-.14.33-.2.5-.48,1.43-1,2.85-1.41,4.3-2.52,8.85-.85,18-2.09,27-.73,5.32-.83,10.73-1.25,16.1s-1,10.5-1.26,15.76c-.27,5.89,0,11.81-.34,17.69-.4,7.15-1.29,14.27-1.72,21.42-.25,4.17-.83,6,5.27,5.41,2.05-.19,2.74-1,2.88-2.86a52,52,0,0,1,.64-5.58c.44-2.38,1.35-4.71,1.55-7.1.65-8,1.14-15.92,1.57-23.89.42-7.77.74-15.55,1-23.33.26-7.39.35-14.79.61-22.18C255.24,200.52,255.6,195.44,255.87,190.65Zm-2.52-14.21c1.14.46,1.33-.67,1-1.7q-.94-2.77-1.76-5.57c-.4-1.33-.71-2.7-.94-3.59l-5,4.25c-.12.11-.34.19-.37.31-.42,2.39-.82,4.78-1.23,7.2.37,0,.51.08.61,0C248.09,176.18,250.5,175.29,253.35,176.44Zm-3.78-17.93c.76-4.13-1.31-6.89-5.41-7.17a34.3,34.3,0,0,0-9,.34,7.25,7.25,0,0,0-4.53,3.2c-1.59,3-.85,6.51-.46,9.82a1.83,1.83,0,0,0,1,1.28c1.91.61,3.88,1.05,5.82,1.56l.11-.34a28.33,28.33,0,0,0,5.06-.42c1.83-.47,4.07-1,5.17-2.28C248.63,163,249.18,160.61,249.56,158.51Zm-2.2-45.86c.14-4.08.41-8.16.33-12.24-.12-6.71-.52-13.41-.72-20.11-.11-3.77-1.87-5.54-5.72-5.53A10.8,10.8,0,0,0,236.79,76a4,4,0,0,0-2.08,2.29,40.69,40.69,0,0,0-.79,7.66c0,5.68.09,11.36.29,17,.2,5.88.53,11.76.89,17.64.15,2.37.76,4.67,2.89,6.09,2.88,1.92,5.85,3.71,8.71,5.5C246.91,125.78,247.14,119.21,247.36,112.65Zm-5,70.3c.4-4.2.06-8.47.06-12.81-.59,0-1.08-.08-1.57-.07-2.42.06-2.68.34-2.78,2.67,0,1-.14,2-.26,3-.81,6.93-1.67,13.85-2.42,20.79-.79,7.22-1.41,14.46-2.22,21.68-.36,3.29-1,6.54-1.49,9.85a11.25,11.25,0,0,1,3.09.4c1.55.72,2.16,0,2.39-1.3.45-2.67.9-5.34,1.21-8C239.73,207.07,241.18,195,242.35,182.95Zm-6.52,49.84a2.43,2.43,0,0,0-1.3-1.89c-2.88-1-6.45,1.56-6.74,4.6-.47,4.9-.9,9.8-1.57,14.67-.89,6.43-1.8,12.86-3.05,19.22-1,5.3-2.57,10.5-3.89,15.74l6.73.72c1.27-6.42,2.51-12.57,3.69-18.73.61-3.21.93-6.47,1.67-9.64.67-2.85,2.07-5.56,2.54-8.43C234.8,243.67,235.31,238.22,235.83,232.79ZM230.42,112.1,231,112c-.34-9.09-.69-18.19-1-27.37-3,.2-6.44-1.05-9.36,1.55.57.86,1.13,1.68,1.68,2.52,1,1.47,2.25,2.83,2.79,4.45,1.3,3.9,2.24,7.92,3.35,11.9C229.07,107.39,229.75,109.74,230.42,112.1Zm-24.05,130c10,.44,23.48-13.14,22.58-23.09C224.38,229.44,216.76,236.91,206.36,242.09ZM224.21,292c.14-.4-.25-1.37-.55-1.44-2.59-.62-5.26-2.78-7.8.14a1,1,0,0,1-.52.2c-1.89.34-3.77.79-5.68,1-8.13.74-16.26,1.51-24.41,2-5.83.39-11.69.48-17.54.59q-14.91.29-29.82.45c-4.9.06-9.82.15-14.72,0-6.45-.24-12.89-.77-19.34-1.1-3.89-.2-7.8-.19-11.69-.41s-8-.65-12-.94a10.76,10.76,0,0,0-3.37.13,2.53,2.53,0,0,0-1.59,1.55,2.38,2.38,0,0,0,.79,2,9.67,9.67,0,0,0,3.44,1.36c2.89.54,5.83.85,8.73,1.35,3.57.61,7.1,1.48,10.69,1.91,3.27.4,6.59.33,9.89.52,1.63.09,3.25.37,4.88.47q8.88.54,17.76,1c4.25.22,8.5.42,12.75.5,2.62,0,5.25-.22,7.88-.23,5.51,0,11,.25,16.51.05,6.13-.22,12.25-.82,18.38-1.25,0,.23,0,.47.06.7,4.46-.49,8.92-1,13.38-1.46,2.93-.32,5.88-.59,8.81-.91,3.86-.43,7.72-.8,11-3.15A10.09,10.09,0,0,0,224.21,292Zm0-53.91-.51-.3c-8.64,6.71-18.71,8.3-29.34,8.25l1.17,4.65c.34,0,.71,0,1.07,0,6.92-.63,13.84-1.24,20.76-1.91,3.73-.36,3.92-.57,4.76-4.27a6.66,6.66,0,0,1,.16-.73C222.94,241.87,223.59,240,224.23,238.08ZM222,254.26c0-.93.13-2.28-1.58-2.11-3.6.34-7.2.7-10.81,1-3.93.31-7.87.58-11.81.78-1.91.1-2.5,1.23-2.6,2.87,0,.69,0,1.39-.08,2.08-.35,3.27-1.18,6.39-4.6,7.69a6.9,6.9,0,0,1-4.29.08,3.05,3.05,0,0,1-2-3.55c.28-2.9.07-5.84.07-8.75l-72-1.48c-.12,3.17-.27,6.28-.33,9.38,0,2.41-1.47,4.45-3.16,4-2.36-.58-4.62-1.68-5.3-4.25a40.18,40.18,0,0,1-1.15-7.17c-.17-2.18-.43-2.58-2.51-2.34a26.5,26.5,0,0,1-3,.21c-2.22,0-4.44-.06-6.65-.11s-4.48-.06-6.71-.18c-4-.2-8-.47-12.22-.73.3,1,.47,1.54.67,2.13.86,2.49,1.88,4.93,2.56,7.47,1.94,7.21,3.74,14.47,5.6,21.7a3.09,3.09,0,0,0,3.12,2.52c3.75.15,7.51.39,11.26.38,9.95,0,19.9-.17,29.85-.25q14.22-.11,28.45-.14c3.38,0,6.77.14,10.15.18,4.64.05,9.27,0,13.91.11,3.76.06,7.51.3,11.27.3,1.87,0,3.74-.4,5.62-.53,6.13-.44,12.26-.82,18.39-1.26,3.32-.24,4.16-1,4.9-4.26.15-.67.13-1.38.28-2.06.69-3.11,1.46-6.21,2.12-9.33.7-3.31,1.32-6.64,2-10A31,31,0,0,0,222,254.26ZM213.68,287c0-.23-.07-.46-.11-.69-1.43.13-2.86.28-4.29.38-5.68.43-11.35.9-17,1.24-4.87.29-9.76.59-14.64.59-6.5,0-13-.34-19.51-.45-3.19-.05-6.38.15-9.57.11-5.36-.06-10.72-.26-16.07-.34-2.87,0-5.75,0-8.62.07-3.3,0-6.62-.08-9.92.08-4.31.21-8.6.77-12.91.93-4.56.17-9.12,0-13.68,0l-.06.57c2.24.25,4.48.6,6.73.73,4.64.26,9.3.33,13.94.59,2.63.15,5.24.76,7.87.77,14,.06,28,.17,42.07-.07,10.68-.18,21.35-.75,32-1.34,4.83-.27,9.64-.94,14.44-1.57C207.46,288.2,210.56,287.53,213.68,287Zm-21.84-29.45c.57-5.22-1.21-10.14-1.95-15.2-.53-3.62-3-5.39-6.11-7.61a29,29,0,0,0,.6,4.59c.61,2,2,3.78,2.2,5.75.59,5.4.72,10.86,1.12,16.28a8.22,8.22,0,0,0,.86,2.24c.81-.5,2-.81,2.33-1.52A16.14,16.14,0,0,0,191.84,257.52Zm-8.46-7.84-1.44-4.94c-3.15.13-6.08.31-9,.36-2.78.06-5.57,0-8.35,0-2.94,0-5.88.19-8.81.14-6.2-.12-12.4-.37-18.6-.52-4.52-.11-9.06-.06-13.58-.25-2.81-.12-5.6-.61-8.41-.8-.66,0-1.87.32-2,.7-.44,1.86-.59,3.79-.88,6C136.1,250.29,159.58,251.23,183.38,249.68Zm-29.5-219.1a32.27,32.27,0,0,0-.26-5.06c-.22-1.62-1.56-2.26-3-2.39-2-.19-5.11,1.92-5.52,3.86a39.34,39.34,0,0,0-1.18,8c0,4.18.46,8.37.67,11.65-.14,5.51-.13,5.55,3.77,5.13a2,2,0,0,0,1.4-.93,57.64,57.64,0,0,0,2-5.44A52.34,52.34,0,0,0,153.88,30.58Zm-12.2,9.5c.08-2.58-.35-5.17-.47-7.75-.08-1.72.08-3.45,0-5.16s-.42-3.22-.65-4.83c-.25-1.76-2.72-4.48-4.31-4.76-1.88-.33-4.43,1.69-4.76,3.78-1,6.49-2.45,12.95-1.59,19.59.53,4.08,1.1,8.16,1.67,12.23,0,.11.13.21.42.64,2.51-.53,5.06-1,7.57-1.63.47-.11,1.18-.56,1.21-.91C141.13,47.54,141.56,43.81,141.67,40.08Zm-11.81-22a6.28,6.28,0,0,0,.49-4.11,43.56,43.56,0,0,0-1.26-4.67c-.64-1.57-1.1-3.58-3.15-3.87a5.22,5.22,0,0,0-5.39,2.28,13.16,13.16,0,0,0-2,8.62q.79,10.4,2.06,20.76c.64,5.23,1.59,10.42,2.49,15.61.11.61.74,1.61,1.13,1.61a30.89,30.89,0,0,0,4.08-.29l1.31-.17c.26,0,.46-.5.68-.77l-.28-.3-1.73,1.09c-.43-3.25-.83-6.11-1.19-9-.76-6-1-12,.53-17.91C128.41,24.06,128.81,21,129.86,18.12ZM111.68,236.51c.45-1.2.48-2.47-.59-3A2.27,2.27,0,0,0,108,235a34,34,0,0,0-2.63,7.37,50.84,50.84,0,0,0-.46,10.12c.12,3.12.5,6.34,4.25,8.53,0-1.85,0-3.37,0-4.89-.08-4.46-1.28-8.93.41-13.35C110.39,240.71,110.92,238.56,111.68,236.51Zm-10.46,10.64c.35-1.87.49-3.77.73-5.8-11.36-.34-22.38-1.05-33.55-1,.38,2.51.69,4.54,1.07,7,3.52,0,6.81,0,10.11,0,1.75,0,3.5.15,5.24.2,5,.16,10,.32,15,.4C100.28,248,101.15,247.51,101.22,247.15Zm-24.4,39.91c-.84-3.31-1.66-6.43-2.4-9.58-.44-1.89-.64-3.85-1.13-5.73-1.36-5.28-2.82-10.55-4.24-15.81-1-3.86-2-7.74-3.18-11.56-.54-1.79-1.45-3.47-2.16-5.21-.95-2.31-1.71-4.7-2.85-6.91-.86-1.65-4.65-1.77-5-.29-.44,2.11-1.09,4.48-.52,6.42,1.47,5,3.48,9.91,5.4,14.79,2.11,5.36,5,10.39,6.06,16.17,1.1,6.11,2.42,12.18,3.67,18.26a12.86,12.86,0,0,0,.6,1.69ZM66.5,235.48l7.34.76-10.12-9.93-.32.07ZM72.24,85.34c-3.53-.72-14.19,0-16.67,1.13a1.47,1.47,0,0,0-.73,1.09c0,2.5-.12,5,.05,7.49.36,5.23.87,10.45,1.32,15.67,0,.45.12.9.25,1.73C61.73,103.19,65,93.28,72.24,85.34ZM56.5,227h4a46.29,46.29,0,0,1-1.64-5c-.85-4.14-1.56-8.32-2.26-12.49a32,32,0,0,1-.44-4.49c-.06-2.24.26-4.51,0-6.71-.49-4-1.3-7.94-2-11.9-.8-4.6-1.6-9.2-2.37-13.57H47.05C51.31,190.54,52.14,209,56.5,227Zm2.62-65.44.33-.05c-.42-2.45-.74-4.93-1.3-7.35a2.42,2.42,0,0,0-1.59-1.52,39,39,0,0,0-6.3-.42c-2,0-4,.42-6,.6-2.17.2-2.57.71-2.77,2.94a13.25,13.25,0,0,1-.89,3.51,9.38,9.38,0,0,0,.67,7.44c.37.8,2.34.86,3.58,1.26a2.54,2.54,0,0,0,.55.13,26.34,26.34,0,0,0,11.68-1.32c.87-.32,1.54-1.62,2-2.62A7.34,7.34,0,0,0,59.12,161.51Zm-5.35-46.84a55.66,55.66,0,0,0-.32-8.17c-.54-5.4-1.19-10.79-1.9-16.17-.44-3.35-1-6.69-1.67-10a37.83,37.83,0,0,0-1.52-4.8c-.57-1.64-1.78-1.85-3.14-1.14A5.31,5.31,0,0,0,42,78.57c-.45,5.87-1,11.76-1,17.63.06,5.37.89,10.74,1.36,16.11q.79,9,1.54,17.93l.76.26c1.18-1.64,2.27-3.35,3.55-4.9C51,122.36,53.56,119.06,53.77,114.67Zm-1.89,185.9a49.82,49.82,0,0,0,.06-5.77c-.19-7-.34-13.93-.62-20.89-.25-6.2-.52-12.42-1-18.6-.55-6.48-1.51-12.92-2.09-19.39a124.78,124.78,0,0,1-1-14.89c.15-5.2-1-10.45-1.69-15.66-.37-2.84-.92-5.66-1.39-8.5l.37-.06c-.19-3-.42-6-.56-9-.06-1.28-.58-1.81-1.87-1.7a52.35,52.35,0,0,0-6.19.52c-.88.19-2.64-.1-2.52,1.84.14,2.31.09,4.64.32,6.94.66,6.68,1.48,13.34,2.12,20,.87,9,1.85,18,2.38,27,.57,9.58.56,19.2,1,28.8.24,4.95.88,9.88,1.49,14.8.46,3.66,1.47,7.27,1.72,10.94.3,4.55,1.43,5.88,5.85,5.54a5.83,5.83,0,0,0,2.22-.39C51.08,301.82,51.82,301.14,51.87,300.57ZM43,182.68a20.2,20.2,0,0,1,2.4,0L42.3,172.17l-5.64-1.38a41.75,41.75,0,0,0-2.41,13.09C37.3,183.46,40.15,183,43,182.68Z"/><path class="cls-1" d="M265.2,174.85a10.21,10.21,0,0,1-1.3,4.23c-.59,1.23-1.53,1.13-2.61.28-2-1.57-2.4-3.95-3.08-6.11-1.05-3.35-1.78-6.8-2.69-10.2a5.4,5.4,0,0,0-1.07-2.58c-1.84-1.64-1.71-3.71-1.93-5.85a17.15,17.15,0,0,0-1.61-5.36,3.36,3.36,0,0,0-2.39-1.44c-2.75-.27-5.54-.1-8.28-.45-1.41-.18-2.71-1.14-4.09-1.67-.93-.36-1.91-.59-2.86-.88-.25,1-.5,2-.74,3a4.29,4.29,0,0,0,0,.77l-1.79.23a3.59,3.59,0,0,0-3.35,3.27c-.42,2.28-1.51,4.59-1.32,6.8.28,3.18-1.6,6.9,1.66,9.52a25.29,25.29,0,0,0,4.41,2.78,3,3,0,0,1,1.68,2.78c.61,5.37-.43,10.63-.79,15.93-.29,4.25-.32,8.51-.8,12.74a18.52,18.52,0,0,1-1.91,6.28c-2.37,4.61-4,9.71-7.92,13.43-.61.57-.57,1.78-1.09,2.53-4.11,5.92-8.95,11.2-15.67,14.07-3,1.27-6.45,1.36-9.71,2-.61.12-1.24.15-2,.23-1-1.89-2-3.93-3.14-5.82a6.82,6.82,0,0,0-5.15-3.44c-3.58-.33-6,3.19-5.1,7.2.17.77.32,1.55.47,2.3-2.92,1-63.46-.85-66.48-2,0-.65.07-1.3.1-1.95s.07-1.3.12-1.94c.23-2.83-1.75-4.13-3.8-5.23-.57-.31-1.61.13-2.38.38a5.65,5.65,0,0,0-3.94,3.45,33.05,33.05,0,0,1-1.85,3.58,5.62,5.62,0,0,0-1.65-.1c-5.79,1.3-11.26.08-16.86-1.5a32,32,0,0,1-14.42-9.12c-1.3-1.34-2.09-3.17-3.37-4.53a17.49,17.49,0,0,1-4.95-12.21c-.08-3.28-1.29-6.53-1.38-9.8-.24-9.47-3.77-18.31-5-27.57-.23-1.75.51-2.15,1.8-2.33,4.4-.62,6-2.78,5.48-7.13a21.45,21.45,0,0,1-.19-5.09,9.86,9.86,0,0,0-1.67-6.58c-.74-1.14-2.3-1.84-3.61-2.5-.85-.42-1.41-.58-1.41-1.79a3.15,3.15,0,0,0-1.54-2.2c-.45-.26-1.55.25-2.15.7-2,1.49-3.74,3.1-6.67,2.91s-6.73,3.81-7.16,6.77c-.39,2.7-.72,5.4-1.1,8.1a1.42,1.42,0,0,1-.37.84c-3.13,2.69-4.15,6.44-5.07,10.2-1.62,6.63-3,13.32-4.79,19.91-.39,1.47-1.55,3.37-2.81,3.81-1.83.65-2.84-1.49-3.68-2.87-2.15-3.53-2.18-7.44-1.36-11.32a83.78,83.78,0,0,1,3-11.47c3.6-9.83,8.08-19.24,14.43-27.65,2.9-3.85,5.78-7.71,8.78-11.49a28.94,28.94,0,0,1,4.16-4.34,18.46,18.46,0,0,0,4.72-6c3.1-6.09,6.49-12,9.26-18.28,3-6.72,6.21-13.27,11.34-18.57,3.63-3.74,7.8-7,11.78-10.35,4.82-4.11,10.53-6.83,16-9.78a72.6,72.6,0,0,1,20.61-7.09c5.8-1.12,11.57-2.5,17.42-3.24a117.5,117.5,0,0,1,14.83-.62,76.74,76.74,0,0,1,10.28.79,30.25,30.25,0,0,1,5.91,1.69c3.73,1.33,7.47,2.67,11.12,4.19A80,80,0,0,1,202.23,74a45.69,45.69,0,0,0,5.11,3.52c3.94,2.4,6.56,5.94,8.91,9.79,5.65,9.28,9.09,19.41,12,29.79,1.22,4.3,3.26,8.37,5,12.52.17.39.95.52,1.43.79s.83.5,1.25.74c2.49,1.44,5,2.9,7.47,4.31,6.58,3.68,13.74,6.86,16.27,14.82,1.57,4.95,4.25,9.56,4.66,14.88C264.61,168.39,265.14,171.62,265.2,174.85ZM164.35,90.77c0-1.15-1.38-2.42-2.76-2.47-1.91-.06-3.54,1.25-3.55,2.85a3.08,3.08,0,0,0,2.88,2.68A3.82,3.82,0,0,0,164.35,90.77ZM153,120.89c0-2.2.15-4.4,0-6.59-.28-3.36-1.22-6.54-3.86-8.89-1.46-1.3-3-2.54-4.59-3.69a1.55,1.55,0,0,0-1.48.15c-2.67,2.53-5.19,5.07-5,9.28.17,3.35-.55,6.77-.19,10.09a65.8,65.8,0,0,0,4.42,17.93c1.51,3.69,2.34,7.68,4.94,10.89.95,1.17,1.47,1.21,2.15-.11.17-.33.27-.7.42-1.05,2.25-5.36,2.46-11.09,2.9-16.75.29-3.73.06-7.51.06-11.27ZM131.8,92.32a2.59,2.59,0,0,0-2.57-2.87,3.28,3.28,0,0,0-3,2.61c0,1.41,1.51,2.59,3.4,2.54A2.08,2.08,0,0,0,131.8,92.32Z"/><path class="cls-2" d="M255.32,183.59c.34,2.23.37,4.5.54,7.07-.26,4.78-.63,9.86-.82,14.95-.26,7.39-.36,14.79-.61,22.18-.27,7.78-.59,15.56-1,23.33-.43,8-.91,15.94-1.57,23.89-.2,2.39-1.11,4.72-1.55,7.1a52,52,0,0,0-.64,5.58c-.14,1.84-.82,2.68-2.88,2.86-6.1.55-5.52-1.24-5.27-5.41.43-7.15,1.32-14.27,1.72-21.42.33-5.89.08-11.8.34-17.69.23-5.26.85-10.51,1.26-15.76s.52-10.78,1.25-16.1c1.24-9-.43-18.15,2.09-27,.41-1.45.93-2.86,1.41-4.3.06-.18.11-.49.2-.5a15.89,15.89,0,0,1,4-.53A2.5,2.5,0,0,1,255.32,183.59Z"/><path class="cls-3" d="M244.15,151.34c4.11.29,6.17,3,5.41,7.17-.38,2.09-.93,4.45-2.23,6-1.1,1.3-3.34,1.81-5.17,2.28a28.33,28.33,0,0,1-5.06.42l-.11.34c-1.95-.51-3.91-1-5.82-1.56a1.83,1.83,0,0,1-1-1.28c-.39-3.31-1.13-6.79.46-9.82a7.25,7.25,0,0,1,4.53-3.2A34.3,34.3,0,0,1,244.15,151.34Z"/><path class="cls-3" d="M247.69,100.42c.08,4.07-.2,8.16-.33,12.24-.21,6.56-.44,13.13-.67,19.58-2.85-1.8-5.82-3.58-8.71-5.5-2.13-1.42-2.74-3.72-2.89-6.09-.36-5.88-.68-11.76-.89-17.64-.2-5.67-.32-11.35-.29-17a40.69,40.69,0,0,1,.79-7.66A4,4,0,0,1,236.79,76a10.8,10.8,0,0,1,4.46-1.26c3.86,0,5.61,1.77,5.72,5.53C247.17,87,247.56,93.71,247.69,100.42Z"/><path class="cls-4" d="M242.41,170.14c0,4.34.34,8.61-.06,12.81-1.17,12.08-2.62,24.13-4,36.18-.31,2.68-.75,5.36-1.21,8-.23,1.33-.84,2-2.39,1.3a11.25,11.25,0,0,0-3.09-.4c.51-3.31,1.13-6.56,1.49-9.85.8-7.22,1.43-14.45,2.22-21.68.75-6.94,1.62-13.86,2.42-20.79.12-1,.22-2,.26-3,.1-2.33.36-2.61,2.78-2.67C241.33,170.06,241.82,170.11,242.41,170.14Z"/><path class="cls-3" d="M234.53,230.9a2.43,2.43,0,0,1,1.3,1.89c-.53,5.44-1,10.89-1.93,16.27-.48,2.87-1.88,5.57-2.54,8.43-.74,3.17-1.06,6.43-1.67,9.64-1.17,6.16-2.42,12.31-3.69,18.73l-6.73-.72c1.32-5.25,2.85-10.45,3.89-15.74,1.25-6.36,2.16-12.79,3.05-19.22.67-4.87,1.11-9.77,1.57-14.67C228.08,232.46,231.65,229.88,234.53,230.9Z"/><path class="cls-4" d="M231,112l-.58.11c-.67-2.36-1.35-4.71-2-7.07-1.1-4-2-8-3.35-11.9-.54-1.61-1.83-3-2.79-4.45-.54-.84-1.11-1.66-1.68-2.52,2.92-2.6,6.33-1.34,9.36-1.55C230.31,93.8,230.66,102.89,231,112Z"/><path class="cls-4" d="M228.94,219c.9,10-12.59,23.53-22.58,23.09C216.76,236.91,224.38,229.44,228.94,219Z"/><path class="cls-3" d="M223.66,290.55c.3.07.68,1,.55,1.44a10.09,10.09,0,0,1-4,5c-3.32,2.36-7.19,2.72-11,3.15-2.93.33-5.88.6-8.81.91-4.47.48-8.92,1-13.38,1.46,0-.23,0-.47-.06-.7-6.13.43-12.24,1-18.38,1.25-5.5.2-11-.06-16.51-.05-2.62,0-5.25.28-7.88.23-4.25-.08-8.51-.28-12.75-.5q-8.88-.45-17.76-1c-1.63-.1-3.25-.37-4.88-.47-3.3-.19-6.62-.12-9.89-.52-3.59-.43-7.12-1.3-10.69-1.91-2.9-.5-5.84-.81-8.73-1.35A9.67,9.67,0,0,1,76,296.17a2.38,2.38,0,0,1-.79-2,2.53,2.53,0,0,1,1.59-1.55,10.76,10.76,0,0,1,3.37-.13c4,.29,8,.71,12,.94s7.8.21,11.69.41c6.45.33,12.89.87,19.34,1.1,4.9.19,9.82.09,14.72,0q14.91-.17,29.82-.45c5.85-.12,11.7-.21,17.54-.59,8.15-.54,16.28-1.3,24.41-2,1.91-.17,3.79-.63,5.68-1a1,1,0,0,0,.52-.2C218.41,287.77,221.07,289.92,223.66,290.55Z"/><path class="cls-4" d="M223.73,237.78l.51.3c-.64,1.89-1.29,3.79-1.92,5.69a6.66,6.66,0,0,0-.16.73c-.83,3.7-1,3.92-4.76,4.27-6.92.67-13.84,1.28-20.76,1.91-.37,0-.73,0-1.07,0L194.38,246C205,246.08,215.09,244.49,223.73,237.78Z"/><path class="cls-4" d="M213.57,286.28c0,.23.07.46.11.69-3.12.56-6.22,1.23-9.35,1.64-4.8.63-9.61,1.3-14.44,1.57-10.66.59-21.33,1.16-32,1.34-14,.24-28,.13-42.07.07-2.62,0-5.24-.62-7.87-.77-4.64-.26-9.3-.34-13.94-.59-2.25-.12-4.49-.48-6.73-.73l.06-.57c4.56,0,9.13.13,13.68,0,4.31-.16,8.61-.72,12.91-.93,3.3-.16,6.61-.06,9.92-.08,2.87,0,5.75-.11,8.62-.07,5.35.08,10.71.28,16.07.34,3.19,0,6.38-.17,9.57-.11,6.5.11,13,.44,19.51.45,4.88,0,9.76-.29,14.64-.59,5.68-.34,11.36-.81,17-1.24C210.71,286.56,212.14,286.41,213.57,286.28Z"/><path class="cls-5" d="M189.89,242.32c.74,5.06,2.51,10,1.95,15.2a16.14,16.14,0,0,1-.95,4.54c-.3.71-1.52,1-2.33,1.52a8.22,8.22,0,0,1-.86-2.24c-.4-5.43-.53-10.88-1.12-16.28-.22-2-1.6-3.79-2.2-5.75a29,29,0,0,1-.6-4.59C186.91,236.93,189.36,238.7,189.89,242.32Z"/><path class="cls-4" d="M181.94,244.75l1.44,4.94c-23.8,1.55-47.28.6-71,.64.29-2.17.43-4.1.88-6,.09-.38,1.3-.74,2-.7,2.81.19,5.6.68,8.41.8,4.52.19,9.06.14,13.58.25,6.2.15,12.4.4,18.6.52,2.93.06,5.87-.11,8.81-.14,2.78,0,5.57.07,8.35,0C175.86,245.05,178.8,244.88,181.94,244.75Z"/><path d="M161.6,88.3c1.38,0,2.79,1.32,2.76,2.47a3.82,3.82,0,0,1-3.43,3.06A3.08,3.08,0,0,1,158,91.14C158.05,89.55,159.69,88.23,161.6,88.3Z"/><path class="cls-6" d="M153.61,25.53a32.27,32.27,0,0,1,.26,5.06,52.34,52.34,0,0,1-2.07,14.85,57.64,57.64,0,0,1-2,5.44,2,2,0,0,1-1.4.93c-3.91.42-3.92.38-3.77-5.13-.21-3.29-.68-7.47-.67-11.65a39.34,39.34,0,0,1,1.18-8c.41-1.94,3.5-4,5.52-3.86C152.05,23.26,153.39,23.91,153.61,25.53Z"/><path d="M152.93,114.3c.18,2.18,0,4.39,0,6.59h-.24c0,3.76.24,7.54-.06,11.27-.44,5.66-.66,11.39-2.9,16.75-.15.35-.25.72-.42,1.05-.68,1.31-1.2,1.27-2.15.11-2.6-3.21-3.43-7.2-4.94-10.89a65.8,65.8,0,0,1-4.42-17.93c-.36-3.32.36-6.73.19-10.09-.21-4.2,2.32-6.75,5-9.28a1.55,1.55,0,0,1,1.48-.15c1.58,1.15,3.12,2.39,4.59,3.69C151.71,107.77,152.65,110.94,152.93,114.3ZM149,142.19c.79-9.27,1.67-18.53.48-27.84a12.7,12.7,0,0,0-3.88-7.52,1.85,1.85,0,0,0-1.81,0,16,16,0,0,0-3.44,14.93c1.1,4.41,2.15,8.84,3.37,13.22,1,3.58,2.22,7.1,3.33,10.64l.84-.12A14.89,14.89,0,0,0,149,142.19Z"/><path class="cls-5" d="M149.53,114.35c1.19,9.31.3,18.58-.48,27.84a14.89,14.89,0,0,1-1.1,3.34l-.84.12c-1.12-3.54-2.34-7.06-3.33-10.64-1.22-4.38-2.27-8.81-3.37-13.22a16,16,0,0,1,3.44-14.93,1.85,1.85,0,0,1,1.81,0A12.7,12.7,0,0,1,149.53,114.35Z"/><path class="cls-6" d="M141.2,32.32c.12,2.59.55,5.18.47,7.75-.12,3.74-.54,7.46-.93,11.18,0,.35-.74.8-1.21.91-2.52.6-5.06,1.1-7.57,1.63-.29-.43-.4-.53-.42-.64-.56-4.08-1.13-8.15-1.67-12.23-.87-6.64.57-13.1,1.59-19.59.33-2.09,2.88-4.11,4.76-3.78,1.59.28,4.06,3,4.31,4.76.23,1.61.54,3.21.65,4.83S141.12,30.6,141.2,32.32Z"/><path d="M129.22,89.45a2.59,2.59,0,0,1,2.57,2.87,2.08,2.08,0,0,1-2.21,2.28c-1.89.06-3.44-1.13-3.4-2.54A3.28,3.28,0,0,1,129.22,89.45Z"/><path class="cls-6" d="M130.35,14a6.28,6.28,0,0,1-.49,4.11c-1.05,2.85-1.45,5.94-2.21,8.9-1.52,5.94-1.29,11.91-.53,17.91.37,2.87.76,5.72,1.19,9l0,.16a30.89,30.89,0,0,1-4.08.29c-.39,0-1-1-1.13-1.61-.9-5.19-1.85-10.38-2.49-15.61q-1.27-10.36-2.06-20.76a13.16,13.16,0,0,1,2-8.62,5.22,5.22,0,0,1,5.39-2.28c2,.29,2.51,2.3,3.15,3.87A43.56,43.56,0,0,1,130.35,14Z"/><path class="cls-6" d="M130,52.82l.28.3c-.23.26-.43.73-.68.77l-1.31.17,0-.16Z"/><path class="cls-1" d="M114.66,237.43c0,.65-.06,1.3-.1,1.95h0C114.59,238.73,114.62,238.08,114.66,237.43Z"/><path class="cls-5" d="M111.1,233.52c1.07.52,1,1.79.59,3-.77,2.06-1.29,4.2-2.07,6.25-1.69,4.42-.48,8.9-.41,13.35,0,1.52,0,3,0,4.89-3.74-2.2-4.12-5.41-4.25-8.53a50.84,50.84,0,0,1,.46-10.12A34,34,0,0,1,108,235,2.27,2.27,0,0,1,111.1,233.52Z"/><path class="cls-4" d="M101.95,241.36c-.23,2-.38,3.93-.73,5.8-.07.36-.94.83-1.43.82-5-.08-10-.25-15-.4-1.75-.05-3.5-.19-5.24-.2-3.29,0-6.58,0-10.11,0-.38-2.49-.69-4.53-1.07-7C79.57,240.3,90.59,241,101.95,241.36Z"/><path class="cls-3" d="M74.42,277.48c.74,3.15,1.57,6.27,2.4,9.58l-5.71,2.25a12.86,12.86,0,0,1-.6-1.69c-1.24-6.08-2.57-12.15-3.67-18.26-1-5.78-4-10.81-6.06-16.17-1.92-4.89-3.94-9.77-5.4-14.79-.57-1.94.08-4.31.52-6.42.31-1.48,4.1-1.36,5,.29,1.14,2.2,1.9,4.6,2.85,6.91.71,1.74,1.62,3.42,2.16,5.21C67,248.21,68,252.09,69,255.94c1.43,5.27,2.88,10.53,4.24,15.81C73.78,273.63,74,275.59,74.42,277.48Z"/><path class="cls-4" d="M73.84,236.24l-7.34-.76-3.11-9.1.32-.07Z"/><path class="cls-4" d="M55.57,86.47c2.48-1.09,13.14-1.85,16.67-1.13C65,93.28,61.73,103.19,56.46,112.45c-.12-.84-.21-1.28-.25-1.73-.45-5.23-1-10.44-1.32-15.67-.17-2.49-.1-5-.05-7.49A1.47,1.47,0,0,1,55.57,86.47Z"/><path class="cls-4" d="M60.54,227h-4c-4.36-17.93-5.19-36.42-9.45-54.21h4.78c.76,4.38,1.57,9,2.37,13.57.68,4,1.5,7.91,2,11.9.28,2.2,0,4.48,0,6.71a32,32,0,0,0,.44,4.49c.7,4.17,1.41,8.35,2.26,12.49A46.29,46.29,0,0,0,60.54,227Z"/><path class="cls-3" d="M59.45,161.46l-.33.05a7.34,7.34,0,0,1-.06,2.62c-.42,1-1.09,2.3-2,2.62a26.34,26.34,0,0,1-11.68,1.32,2.54,2.54,0,0,1-.55-.13c-1.24-.4-3.21-.46-3.58-1.26a9.38,9.38,0,0,1-.67-7.44,13.25,13.25,0,0,0,.89-3.51c.2-2.23.6-2.74,2.77-2.94,2-.19,4-.56,6-.6a39,39,0,0,1,6.3.42,2.42,2.42,0,0,1,1.59,1.52C58.71,156.53,59,159,59.45,161.46Z"/><path class="cls-3" d="M53.45,106.5a55.66,55.66,0,0,1,.32,8.17c-.21,4.39-2.81,7.69-5.48,10.93-1.29,1.55-2.38,3.26-3.55,4.9l-.76-.26q-.77-9-1.54-17.93c-.47-5.37-1.3-10.73-1.36-16.11-.06-5.88.51-11.76,1-17.63a5.31,5.31,0,0,1,3.19-4.18c1.36-.71,2.57-.5,3.14,1.14a37.83,37.83,0,0,1,1.52,4.8c.66,3.31,1.23,6.65,1.67,10C52.26,95.71,52.9,101.1,53.45,106.5Z"/><path class="cls-2" d="M51.94,294.79a49.82,49.82,0,0,1-.06,5.77c-.05.57-.79,1.25-1.38,1.56a5.83,5.83,0,0,1-2.22.39c-4.42.34-5.55-1-5.85-5.54-.24-3.67-1.26-7.28-1.72-10.94-.62-4.92-1.25-9.85-1.49-14.8-.46-9.6-.45-19.21-1-28.8-.53-9-1.51-18-2.38-27-.64-6.68-1.46-13.34-2.12-20-.23-2.3-.18-4.63-.32-6.94-.12-1.94,1.63-1.66,2.52-1.84a52.35,52.35,0,0,1,6.19-.52c1.29-.11,1.81.42,1.87,1.7.14,3,.37,6,.56,9l-.37.06c.47,2.83,1,5.65,1.39,8.5.68,5.21,1.85,10.46,1.69,15.66a124.78,124.78,0,0,0,1,14.89c.58,6.47,1.54,12.91,2.09,19.39.52,6.19.79,12.4,1,18.6C51.6,280.87,51.75,287.83,51.94,294.79Z"/></svg>