<svg id="圖層_1" data-name="圖層 1" xmlns="http://www.w3.org/2000/svg" viewBox="0 0 287.81 324.7"><defs><style>.cls-1{fill:#fff;}.cls-2{fill:#b8b7b7;}.cls-3{fill:#4f5654;}.cls-4{fill:#1d7052;}.cls-5{fill:#ddae1d;}.cls-6{fill:#cf543f;}</style></defs><title>chks</title><path d="M274.61,197.28a9.66,9.66,0,0,1-6.16,10.14c-1.16.39-2.81-.5-4.18-1a15.68,15.68,0,0,1-2.64-1.63c0,3.5,0,6.72,0,9.93.1,6.79.42,13.57.32,20.35-.14,9.31-.53,18.61-.9,27.91-.33,8.36-.7,16.72-1.25,25.06A17.25,17.25,0,0,1,258.1,294c-.89,1.94-2.87,2.3-4.84,2.09-2.6-.27-5.21-.59-7.78-1a2,2,0,0,1-1.34-1.39c-.11-2.69,0-5.4,0-8.09,0-1.81,0-3.63,0-5.44.26-5.46.68-10.92.84-16.39.14-4.89,0-9.8,0-14.06-1.63,2.81-3.48,6.1-5.44,9.33s-4,6.21-5.9,9.37c-4.32,7.13-8.54,14.33-12.89,21.45-1.34,2.19-3,4.18-4.52,6.24a1.36,1.36,0,0,1-.76.37c-1-1.4-1.85,0-2.73.07-3.74.4-7.47.84-11.2,1.36-2.73.38-5.44,1-8.18,1.32-1.32.16-2.7-.29-4-.22-4.37.23-8.73.74-13.11.84s-8.65-.21-13-.27c-6.22-.08-12.45-.05-18.67-.16-3.64-.06-7.28-.4-10.92-.45-6.47-.08-12.94,0-19.41-.07-4.64-.08-9.3-.16-13.9-.68-1.73-.19-3.33-1.61-5-2.5-.38-.2-.65-.68-1-.79-4.7-1.3-7.13-5.2-9.85-8.68-4.28-5.49-7.15-11.8-10-18.12-.95-2.11-2.33-4-3.33-6.09-1.42-3-2.67-6-4-9a11.34,11.34,0,0,0-1.92-3.18c.07.67.16,1.34.21,2,.61,7.71,1.41,15.41,1.76,23.13a114,114,0,0,1-.36,16c-.28,2.89-1.64,5.71-2.76,8.46-.2.49-1.56.73-2.38.7a75.87,75.87,0,0,1-9.18-.59c-1.78-.27-2.78-1.85-2.94-3.7-.33-3.82-.67-7.64-.87-11.46-.24-4.51-.17-9-.55-13.53-.36-4.23-1.2-8.42-1.7-12.64C46,253.1,45.6,248,45,243c-.54-4.61-1.42-9.18-1.8-13.8-.31-3.75-.15-7.54-.1-11.31,0-2.37.22-4.73.36-7.47a18.27,18.27,0,0,0-2.68.66,3.67,3.67,0,0,1-4.69-1.3A14,14,0,0,1,34,204.88c-1.07-4.36.84-8.42,1.77-12.52,1.36-6,3.08-11.89,4.83-17.78,1.61-5.39,3-10.9,6.39-15.58,2.41-3.35,4.85-6.68,7.15-10.1a5.61,5.61,0,0,0,1-3.08c-.26-7.34-.73-14.67-1-22-.18-4.89-.05-9.78-.23-14.66a43.58,43.58,0,0,0-.89-7.09,5.74,5.74,0,0,0-1.63-2.45C47.94,96,45.17,87.31,48.26,81.7c1.91-3.48,5-5.94,8.46-6.37,3.84-.48,8.14-.63,11.77,2a12.46,12.46,0,0,1,5.46,9.1c.23,2.67-.9,5.47-1.38,8.21a16.71,16.71,0,0,0-.12,2,6.8,6.8,0,0,0,1.75-1.05q5.37-6.05,10.64-12.19c1.92-2.23,3.71-4.59,5.71-6.73,1.45-1.55,3.19-2.84,4.77-4.28,2.12-1.94,4.22-3.91,6.33-5.86a2.4,2.4,0,0,1,.6-.45c6.65-3.1,12.33-8.1,19.7-9.8,3.71-.86,7.33-2.12,11-3.08,4.64-1.21,5-2.2,3.12-6.51-2-4.66-3.69-9.48-5.4-14.26-1.23-3.43-.26-6.88.38-10.25a5,5,0,0,1,2.44-2.7,47.84,47.84,0,0,1,5.64-2.38c.09-1.19.27-2.8.35-4.42A16.44,16.44,0,0,1,145.83.15c3.41-2.75,9.63-1,11.44,3.58.51-.59,1-1,1.34-1.54a11.93,11.93,0,0,1,7.83-5c2.73-.49,4.25-.06,5,2.66a37.9,37.9,0,0,1,1.18,10,51.09,51.09,0,0,1-1.43,10.43c-1.1,4.82-2.67,9.52-3.85,14.32-.55,2.24-.56,4.6-1,6.89-.51,2.88-1.15,5.75-1.76,8.61-.11.53-.31,1-.48,1.58,4.26.67,8.36,1.15,12.39,2A93.5,93.5,0,0,1,189.72,57a139,139,0,0,1,15.92,7.11,79,79,0,0,1,10.88,7c6.89,5.17,12.72,11.27,15.4,19.84a13.92,13.92,0,0,1,6.37-12.32c4-2.78,11.88-1.85,15.28,1.74,2.57,2.71,3.52,9.26,1.71,12.59-2.53,4.66-3.31,9.82-3.65,14.91-.53,7.77-.28,15.59-.47,23.38-.09,3.56-.45,7.11-.69,10.66-.14,2.09-.34,4,2.12,5.26a15.92,15.92,0,0,1,3.87,3.28c2.16,2.16,4.23,4.4,6.32,6.62a3.32,3.32,0,0,1,.67.9c2.3,5.24,4.74,10.42,6.81,15.74a75.76,75.76,0,0,1,3,10.43,46.69,46.69,0,0,1,.47,5.8C274,192.43,274.33,194.85,274.61,197.28ZM270.3,199a15.16,15.16,0,0,0,.42-4.26c-.88-6.13-1.91-12.25-3-18.35a10.48,10.48,0,0,0-1.3-3.49c-3-5-6.29-9.74-9-14.86-1.64-3.13-4.11-5.14-6.64-7.26l-.65.13c-.1,7.4-.21,14.8-.25,22.21a1.65,1.65,0,0,0,.84,1.23c4,1.6,7.14,4.13,8.63,8.31s3,8.47,4.29,12.76c.67,2.21,1.49,4,3.83,4.95C269.18,201.08,270,200.77,270.3,199Zm-12.65,8.68c.27-3.27.71-6.51,1.12-10.07a46.93,46.93,0,0,0-5.38,0,3.3,3.3,0,0,0-3,3.15,32.41,32.41,0,0,0-.18,3.38q-.22,11.49-.41,23c-.07,4.65-.09,9.3-.11,14,0,3,.13,5.91,0,8.87-.4,11.57-.9,23.13-1.3,34.7-.22,6.45.3,7,5.55,7.1.12,0,.31.08.37,0,.44-.44,1.21-.88,1.24-1.36.48-7.32.86-14.65,1.29-22,.14-2.31.54-4.61.55-6.91,0-4.36-.21-8.72-.24-13.08,0-2.37.24-4.75.23-7.12,0-5.61-.14-11.23-.12-16.85,0-3.74.2-7.48.29-11.22C257.64,211.47,257.49,209.58,257.65,207.72Zm-.15-16.6a3.47,3.47,0,0,0-.11-.67c-1.19-2.82-2.3-5.68-3.61-8.44-.68-1.43-1.61-2.84-3.46-2.58v12.7ZM251.22,93c.8-1.34,1-3,1.46-4.57,0-4.14-1.5-6.41-5-7.16-3.8-.82-7.33-.74-9.46,3.27a35.51,35.51,0,0,0-1.85,3.77c-1.09,2.84,1.61,7.81,4.57,8.55C244.15,97.67,249.57,95.79,251.22,93Zm-4.09,21.77c.42-5.12,1-10.22,1.5-15.14-3,.11-5.8.16-8.58.35a1.76,1.76,0,0,0-1.3,1,24.8,24.8,0,0,0-.37,4.43q0,8.76.17,17.52c.12,6.79.37,13.58.45,20.37s0,13.45,0,20.18c0,3.08.43,6.16.32,9.23-.23,6.54-.76,13.06-1,19.6-.4,10.3-.71,20.61-1,30.92q-.24,8.61-.27,17.22a5.24,5.24,0,0,0,.9,2.58,1.7,1.7,0,0,0,3,.17c1.1-1.47,2.35-3.17,2.55-4.89.47-4,.33-8.07.48-12.11.13-3.33.35-6.65.51-10,.3-6.28.82-12.55.82-18.83,0-6-.79-12-.81-18s.42-11.94.76-17.91.65-11.66,1.21-17.48c.66-6.95-.91-13.9.34-20.86C247.3,120.47,246.9,117.58,247.13,114.78Zm-6.51,136.34a23.4,23.4,0,0,1,.8-2.74,13.58,13.58,0,0,1-3.48-.59,1.88,1.88,0,0,0-2.8,1c-.68,1.26-1.12,2.64-1.81,3.89-1.36,2.47-2.84,4.87-4.22,7.32q-5.66,10.09-11.26,20.22a10.66,10.66,0,0,0-1.17,2.94c-.3,1.49-.32,3-.54,4.55s-.5,2.76-.85,4.64a6.87,6.87,0,0,0,1.1-.88c2.35-3.62,4.71-7.23,7-10.87,3.1-4.92,6.06-9.92,9.24-14.79C235.71,261.09,239.68,256.94,240.62,251.12Zm-4.76-83c.07-5.66-.12-11.32-.25-17-.15-6.53-.35-13.07-.54-19.6-.14-4.56-.45-9.13-.42-13.69,0-5.59.36-11.17.5-16.76.06-2.29-.29-2.59-2.65-2.34-2.75.28-5.48.86-8.23,1-14.52.71-29,2.47-43.53,2.29-.81,0-1.62.15-2.42.12a48.5,48.5,0,0,0-5-.24c-6.65.48-13.28,1.21-19.93,1.61-3.13.19-6.28-.18-9.42-.25q-10.17-.22-20.34-.39c-1.74,0-3.48.09-5.21,0-9.27-.56-18.53-1.25-27.8-1.73-5.94-.31-11.89-.32-18-.47,0,1.91-.11,4.17,0,6.4.23,3.73.84,7.45.91,11.18.13,6.84,0,13.68,0,20.52,0,9.39-.36,18.8.16,28.16s-.6,18.68.82,28c.68,4.43.39,9,.54,13.53.34,10.48.74,21,1,31.46a4.35,4.35,0,0,0,2.52,4.18c4.64,2.37,9.17,5,14.66,5,5.79,0,11.58.26,17.37.24,4.59,0,9.18-.42,13.77-.43,8,0,16,.08,24,.16,6.23.06,12.48-.09,18.69.3a140.71,140.71,0,0,0,22.19-.09c6.76-.64,13.53-1.21,20.29-1.85a20.25,20.25,0,0,0,5.4-.8c5.49-2.15,11.66-1.78,17-4.74,1.38-.78,2.26-1.52,2.33-3,.23-5.33.5-10.67.6-16,.22-11.19.29-22.38.51-33.57C235.39,182.14,235.78,175.11,235.86,168.08Zm-2.17,78-.25-.42-5.06,1.67A70.69,70.69,0,0,1,220.2,250c-4.58.93-9.25,1.43-13.88,2.15-4.93.78-9.86,1.61-14.61,2.38a8.15,8.15,0,0,1-.9,2.2c-2.53,3.13-5,6.29-7.77,9.23a25.72,25.72,0,0,1-5.1,4c-1.45.92-4.28-.34-4.71-1.84-1-3.52.68-8.58,3.55-10.92,1.09-.89,2-1.94,3.41-3.23-18.88-1.83-37.17-.52-56-.15l1.75,2.42c1.24,1.73,2.55,3.42,3.68,5.22,1.33,2.11.79,4.4.19,6.59a2.28,2.28,0,0,1-1.54,1.14A12.3,12.3,0,0,1,118,266.94c-3.7-2.71-5.9-6.63-8-10.54a4.26,4.26,0,0,0-4.06-2.45c-2.45-.07-4.9-.12-7.35-.31-1.65-.13-3.29-.76-4.92-.7a20.7,20.7,0,0,1-9.79-2.37c-1.41-.67-2.93-1.14-4.39-1.7l-.57.58,2.28,4.66c.42.85.84,1.69,1.23,2.54,1.57,3.4,3.08,6.84,4.71,10.21,1.53,3.16,3.22,6.25,4.79,9.39,1.23,2.47,2.4,5,3.59,7.47a4,4,0,0,0,3.78,2.36c7.34.28,14.68.51,22,.83,1.77.08,3.54.62,5.3.57,4.09-.12,8.17-.52,12.25-.71,2.51-.12,5-.06,7.55-.08,5,0,10,0,15.07-.11,3.77-.09,7.53-.5,11.29-.54,6.47-.07,12.95.27,19.4,0,4.62-.21,9.19-1.49,13.81-1.67a9.33,9.33,0,0,0,8.53-5.41,27.19,27.19,0,0,1,2.17-3.69c.77-1,2.06-1.65,2.71-2.7,1.57-2.55,2.92-5.23,4.32-7.88,2.43-4.59,4.81-9.2,7.24-13.77C231.78,249.26,232.76,247.67,233.69,246.05ZM230.08,94.73,225.48,87a1.77,1.77,0,0,0-.26-.28c-2.84-2.81-5.72-5.58-8.5-8.44a63,63,0,0,0-14.24-11,86,86,0,0,0-26.28-9.57c-3.77-.72-7.55-1.4-11.32-2.09a85.09,85.09,0,0,0-28.61-.11,21.3,21.3,0,0,0-4.24.83c-5.73,2.16-11.45,4.37-17.11,6.73a38.35,38.35,0,0,0-6.63,3.57c-7,4.69-12.78,10.79-18.92,16.47-3.75,3.47-7,7.51-10.44,11.31-.74.82-1.41,1.72-2.17,2.65.37.26.47.4.57.4,6.14.28,12.29.57,18.43.81,3.93.16,7.92-.12,11.8.43,9,1.28,18,1,27.05,1.17,4.44.09,8.88-.48,13.32-.62,13.19-.42,26.39-.49,39.56-1.55,8-.65,16.07-1.4,24.16-1.05a37.45,37.45,0,0,0,5.83-.44C221.54,95.79,225.58,95.27,230.08,94.73Zm-18.13,197a15.13,15.13,0,0,0,1.24-3.73c-5.69.36-11.3.83-16.91,1.06-7.66.31-15.32.45-23,.62-6.6.15-13.2.34-19.8.35s-13-.21-19.56-.3c-8.47-.11-16.94-.14-25.41-.29-2.6,0-5.19-.34-7.82-.53a4.33,4.33,0,0,0,3.75,4.47,30.48,30.48,0,0,0,3.88.56c6.35.54,12.7,1.08,19.06,1.57,2.19.17,4.39.11,6.58.27,2.81.2,5.6.7,8.41.75,9,.16,17.95,0,26.91.29a106.75,106.75,0,0,0,19.72-1,35.56,35.56,0,0,1,8.05-.64,31.06,31.06,0,0,0,12.22-1.59A5.19,5.19,0,0,0,211.95,291.75Zm-24.2-38.13c-1.7.25-3.87-.06-5,.88a39.75,39.75,0,0,0-6.16,7,5.75,5.75,0,0,0-.45,5.68C178.6,266,186.36,257.43,187.74,253.62ZM168.94,17.08c1.09-5.16,2-10.34.17-15.6-.45-1.33-1-1.74-2.22-1.61a7.75,7.75,0,0,0-5.52,3.54,32.46,32.46,0,0,0-5,11.08c-2.08,7.65-4.51,15.29-3.53,23.43.19,3.38.4,6.77.57,10.16.07,1.45.64,2.12,2.2,2.1a34,34,0,0,1,3.64.54,1.45,1.45,0,0,0,1.2-.43A14.35,14.35,0,0,0,161.8,47c1.3-5.44,2.47-10.92,3.76-16.36C166.64,26.12,168,21.64,168.94,17.08Zm-15.15-5.59c.66-2.33,1.54-4.78-.85-6.62a8.4,8.4,0,0,0-4-1.94,4.18,4.18,0,0,0-3.3,1.75A21.4,21.4,0,0,0,142.89,15a22.85,22.85,0,0,0,.84,4.94,74.79,74.79,0,0,0,3.73,7.32,9.47,9.47,0,0,0,1.25,1.49A6.72,6.72,0,0,0,150,26.86c.27-1,.05-2.15.32-3.16C151.42,19.62,152.63,15.56,153.79,11.49Zm-5.32,37.72a44.81,44.81,0,0,0-.47-5.82c-1.34-6.44-2.39-13-5.49-18.91-1.2-2.3-2.51-3.38-5.08-3-.55.08-1.41.5-1.49.89-.4,1.92-1.22,4.07-.74,5.82,1.77,6.47,4,12.83,6.08,19.21.66,2,2.15,2.72,4.39,2.38C146.47,49.62,147.26,49.44,148.47,49.21ZM126.34,267.42c1-5.56-1-9.52-4.82-12.64a3.72,3.72,0,0,0-2.08-.71c-2.54-.08-5.08,0-8.16,0,3.3,4.8,6.31,9,10.61,12C123.09,266.9,124.82,267,126.34,267.42ZM89.19,288c1.57,2.19,4,3.12,7.07,3.27-1.8-3.24-3.52-6.21-5.1-9.26q-3.37-6.51-6.55-13.12c-1.23-2.57-2.15-5.29-3.43-7.84-2.59-5.17-5.32-10.27-7.92-15.29l-5,.76c1.58,4,3,7.78,4.59,11.47,2.59,5.86,5.1,11.79,8.12,17.43A114.63,114.63,0,0,0,89.19,288Zm-17-57.31c.29-6.89,1-13.75-.24-20.65a66.35,66.35,0,0,1-1.36-10.31c-.19-9.74-1.14-19.46-1.35-29.2C68.93,156.66,69,142.8,69,129c0-8,0-16.09,0-24.13,0-1.61-.2-3.22-.28-4.37L56,101.54c.74,4.86,1.81,10,2.23,15.15.62,7.69.84,15.41,1.12,23.12.33,8.8.63,17.6.76,26.41.09,5.83-.34,11.67-.21,17.5.18,7.6.58,15.19,1.08,22.77.53,8,1.26,16,1.94,24,.31,3.71.73,7.43,3.41,10.34.54.59,1.55,1.44,2,1.27A5.15,5.15,0,0,0,71.21,240a13,13,0,0,0,.85-4.47C72.21,233.93,72.1,232.3,72.17,230.67ZM63.8,97.58c6.56-1.21,10.06-10.42,6.1-15.31-2.89-3.57-6.65-4.65-11.07-4.12a8.9,8.9,0,0,0-7.94,9,40,40,0,0,0,1.48,6.56,8.63,8.63,0,0,0,3.06,3.57C58.06,99.12,61,98.09,63.8,97.58Zm-1,187.28c.09-3.44.33-6.89.27-10.34,0-2.75-.5-5.49-.65-8.24-.23-4.2-.34-8.41-.54-12.62-.11-2.32-.36-4.64-.45-7-.19-4.9-1.59-9.65-1.64-14.58a68.77,68.77,0,0,0-.85-8.56C58.22,218,57.44,212.5,56.51,207a26,26,0,0,0-1.67-5.32,2,2,0,0,0-1.62-.84,13.79,13.79,0,0,0-4,.76,4.36,4.36,0,0,0-2.4,2,12,12,0,0,0-.49,4.28c0,6,.06,11.93.25,17.88a255.69,255.69,0,0,0,1.82,25.72c.94,6.95,1.46,14,2.07,20.95.57,6.5.94,13,1.54,19.53.45,5,.54,4.95,5.57,5,4.25.08,5.5-1.36,5.24-5.74C62.64,289.13,62.78,287,62.83,284.86Zm-7.4-88.77V179.28c-2.61,1.82-8.07,16.24-7.27,19Zm-3.66-18c2.74-3.57,3.15-7.16,2.74-11.22,0-.12,0-.25,0-.38q0-6.2,0-12.41L54,154a4.63,4.63,0,0,0-.48.54c-2.09,3.19-4.19,6.37-6.25,9.58A12.05,12.05,0,0,0,45.64,167c-1.83,6.19-3.81,12.34-5.25,18.62S38,198.18,37,204.48c-.34,2.18,1.31,3.29,3.43,2.63,1.74-.54,3.11-1.32,2.86-3.5a4.11,4.11,0,0,1,.29-1.63c1.47-4.72,2.93-9.44,4.48-14.13C49.2,184.52,49.75,180.73,51.77,178.09Z"/><path class="cls-1" d="M270.72,194.78a15.16,15.16,0,0,1-.42,4.26c-.26,1.73-1.12,2-2.79,1.36-2.33-.94-3.16-2.73-3.83-4.95-1.3-4.3-2.79-8.54-4.29-12.76s-4.61-6.71-8.63-8.31a1.65,1.65,0,0,1-.84-1.23c0-7.4.16-14.8.25-22.21l.65-.13c2.53,2.12,5,4.13,6.64,7.26,2.68,5.11,6,9.89,9,14.86a10.48,10.48,0,0,1,1.3,3.49C268.81,182.53,269.84,188.64,270.72,194.78Z"/><path class="cls-2" d="M258.76,197.65c-.4,3.56-.84,6.81-1.12,10.07-.16,1.86,0,3.74,0,5.61-.08,3.74-.28,7.48-.29,11.22,0,5.61.12,11.23.12,16.85,0,2.37-.25,4.75-.23,7.12,0,4.36.26,8.72.24,13.08,0,2.3-.41,4.6-.55,6.91-.43,7.33-.81,14.66-1.29,22,0,.48-.8.92-1.24,1.36-.06.06-.24,0-.37,0-5.25-.06-5.77-.66-5.55-7.1.4-11.57.9-23.13,1.3-34.7.1-3,0-5.91,0-8.87,0-4.65,0-9.31.11-14q.18-11.49.41-23a32.41,32.41,0,0,1,.18-3.38,3.3,3.3,0,0,1,3-3.15A46.93,46.93,0,0,1,258.76,197.65Z"/><path class="cls-3" d="M252.68,88.44c-.47,1.54-.65,3.24-1.46,4.57-1.66,2.77-7.07,4.66-10.24,3.86-3-.74-5.66-5.71-4.57-8.55a35.51,35.51,0,0,1,1.85-3.77c2.13-4,5.66-4.09,9.46-3.27C251.18,82,252.65,84.31,252.68,88.44Z"/><path class="cls-3" d="M248.64,99.64c-.5,4.92-1.09,10-1.5,15.14-.23,2.8.17,5.68-.32,8.42-1.25,7,.32,13.91-.34,20.86-.56,5.82-.88,11.65-1.21,17.48s-.78,11.94-.76,17.91.81,12,.81,18c0,6.28-.52,12.55-.82,18.83-.16,3.32-.37,6.65-.51,10-.16,4,0,8.11-.48,12.11-.2,1.72-1.45,3.42-2.55,4.89a1.7,1.7,0,0,1-3-.17,5.24,5.24,0,0,1-.9-2.58q0-8.61.27-17.22c.29-10.31.6-20.62,1-30.92.26-6.53.79-13.06,1-19.6.11-3.07-.29-6.15-.32-9.23-.05-6.72,0-13.45,0-20.18s-.33-13.58-.45-20.37q-.15-8.76-.17-17.52a24.8,24.8,0,0,1,.37-4.43,1.76,1.76,0,0,1,1.3-1C242.84,99.8,245.63,99.75,248.64,99.64Z"/><path class="cls-3" d="M241.43,248.38a23.4,23.4,0,0,0-.8,2.74c-.95,5.82-4.92,10-8,14.64-3.18,4.87-6.14,9.87-9.24,14.79-2.3,3.65-4.66,7.26-7,10.87a6.87,6.87,0,0,1-1.1.88c.35-1.89.65-3.26.85-4.64s.23-3.06.54-4.55a10.66,10.66,0,0,1,1.17-2.94Q223.45,270,229.12,260c1.38-2.45,2.86-4.85,4.22-7.32.68-1.25,1.13-2.64,1.81-3.89a1.88,1.88,0,0,1,2.8-1A13.58,13.58,0,0,0,241.43,248.38Z"/><path class="cls-4" d="M235.61,151.09c.13,5.66.32,11.32.25,17-.08,7-.48,14.07-.61,21.1-.22,11.19-.3,22.38-.51,33.57-.11,5.34-.37,10.67-.6,16-.07,1.51-.95,2.25-2.33,3-5.29,3-11.46,2.59-17,4.74a20.25,20.25,0,0,1-5.4.8c-6.76.64-13.53,1.22-20.29,1.85a140.71,140.71,0,0,1-22.19.09c-6.21-.39-12.46-.24-18.69-.3-8-.08-16-.19-24-.16-4.59,0-9.18.41-13.77.43-5.79,0-11.58-.26-17.37-.24-5.49,0-10-2.58-14.66-5A4.35,4.35,0,0,1,76,239.87c-.25-10.49-.64-21-1-31.46-.15-4.51.14-9.1-.54-13.53-1.43-9.32-.31-18.67-.82-28s-.16-18.77-.16-28.16c0-6.84.17-13.68,0-20.52-.07-3.73-.68-7.45-.91-11.18-.14-2.23,0-4.49,0-6.4,6.1.15,12.05.17,18,.47,9.27.48,18.53,1.17,27.8,1.73,1.73.1,3.47,0,5.21,0q10.17.18,20.34.39c3.14.07,6.3.43,9.42.25,6.65-.4,13.29-1.12,19.93-1.61a48.5,48.5,0,0,1,5,.24c.81,0,1.61-.13,2.42-.12,14.56.17,29-1.58,43.53-2.29,2.75-.14,5.48-.71,8.23-1,2.36-.24,2.71.06,2.65,2.34-.14,5.59-.47,11.18-.5,16.76,0,4.56.28,9.13.42,13.69C235.26,138,235.46,144.56,235.61,151.09Z"/><path class="cls-1" d="M225.48,87l4.59,7.69c-4.49.54-8.54,1.06-12.59,1.52a37.45,37.45,0,0,1-5.83.44c-8.09-.35-16.14.4-24.16,1.05-13.17,1.06-26.37,1.13-39.56,1.55-4.45.14-8.89.71-13.32.62-9-.18-18.06.11-27.05-1.17-3.88-.55-7.86-.28-11.8-.43-6.14-.25-12.29-.53-18.43-.81-.1,0-.2-.14-.57-.4.76-.93,1.43-1.83,2.17-2.65,3.45-3.8,6.69-7.84,10.44-11.31,6.14-5.68,11.94-11.77,18.92-16.47a38.35,38.35,0,0,1,6.63-3.57c5.66-2.36,11.38-4.57,17.11-6.73a21.3,21.3,0,0,1,4.24-.83,85.09,85.09,0,0,1,28.61.11c3.77.69,7.55,1.36,11.32,2.09a86,86,0,0,1,26.28,9.57,63,63,0,0,1,14.24,11c2.79,2.86,5.66,5.63,8.5,8.44A1.77,1.77,0,0,1,225.48,87Z"/><path class="cls-3" d="M213.19,288a15.13,15.13,0,0,1-1.24,3.73,5.19,5.19,0,0,1-2.67,1.85,31.06,31.06,0,0,1-12.22,1.59,35.56,35.56,0,0,0-8.05.64,106.75,106.75,0,0,1-19.72,1c-9-.28-17.94-.13-26.91-.29-2.81,0-5.6-.54-8.41-.75-2.19-.16-4.39-.1-6.58-.27-6.36-.48-12.71-1-19.06-1.57a30.48,30.48,0,0,1-3.88-.56,4.33,4.33,0,0,1-3.75-4.47c2.62.19,5.22.48,7.82.53,8.47.15,16.94.19,25.41.29,6.52.09,13,.31,19.56.3s13.2-.2,19.8-.35c7.66-.18,15.32-.32,23-.62C201.89,288.85,207.5,288.38,213.19,288Z"/><path class="cls-5" d="M182.74,254.51c1.13-.94,3.3-.63,5-.88-1.38,3.81-9.15,12.39-11.61,13.55a5.75,5.75,0,0,1,.45-5.68A39.75,39.75,0,0,1,182.74,254.51Z"/><path class="cls-6" d="M169.11,1.48c1.78,5.26.92,10.44-.17,15.6-1,4.56-2.3,9-3.38,13.58-1.3,5.44-2.47,10.92-3.76,16.36a14.35,14.35,0,0,1-1.36,3.27,1.45,1.45,0,0,1-1.2.43,34,34,0,0,0-3.64-.54c-1.56,0-2.14-.65-2.2-2.1-.16-3.39-.37-6.78-.57-10.16-1-8.14,1.45-15.79,3.53-23.43a32.46,32.46,0,0,1,5-11.08,7.75,7.75,0,0,1,5.52-3.54C168.11-.26,168.66.15,169.11,1.48Z"/><path class="cls-6" d="M152.94,4.87c2.39,1.84,1.51,4.29.85,6.62-1.16,4.08-2.37,8.13-3.47,12.22-.27,1,0,2.15-.32,3.16a6.72,6.72,0,0,1-1.27,1.83,9.47,9.47,0,0,1-1.25-1.49,74.79,74.79,0,0,1-3.73-7.32,22.85,22.85,0,0,1-.84-4.94,21.4,21.4,0,0,1,2.7-10.27,4.18,4.18,0,0,1,3.3-1.75A8.4,8.4,0,0,1,152.94,4.87Z"/><path class="cls-6" d="M148,43.39a44.81,44.81,0,0,1,.47,5.82c-1.2.23-2,.41-2.8.54-2.23.34-3.73-.39-4.39-2.38C139.17,41,137,34.63,135.2,28.16c-.48-1.75.34-3.89.74-5.82.08-.39.95-.81,1.49-.89,2.57-.36,3.88.72,5.08,3C145.62,30.44,146.66,37,148,43.39Z"/><path class="cls-5" d="M121.52,254.78c3.86,3.12,5.77,7.08,4.82,12.64-1.52-.43-3.25-.52-4.45-1.36-4.31-3-7.32-7.22-10.61-12,3.09,0,5.63-.05,8.16,0A3.72,3.72,0,0,1,121.52,254.78Z"/><path class="cls-3" d="M96.26,291.25c-3-.15-5.5-1.08-7.07-3.27A114.63,114.63,0,0,1,81,275.41c-3-5.64-5.53-11.57-8.12-17.43-1.63-3.69-3-7.5-4.59-11.47l5-.76c2.61,5,5.33,10.11,7.92,15.29,1.27,2.55,2.19,5.27,3.43,7.84q3.18,6.61,6.55,13.12C92.74,285,94.46,288,96.26,291.25Z"/><path class="cls-3" d="M71.93,210c1.21,6.9.53,13.77.24,20.65-.07,1.63,0,3.26-.11,4.88a13,13,0,0,1-.85,4.47,5.15,5.15,0,0,1-2.82,2.09c-.47.17-1.47-.68-2-1.27-2.68-2.92-3.1-6.63-3.41-10.34-.68-8-1.41-16-1.94-24-.5-7.58-.9-15.18-1.08-22.77-.14-5.83.29-11.67.21-17.5-.13-8.81-.43-17.61-.76-26.41-.28-7.71-.5-15.43-1.12-23.12-.42-5.17-1.49-10.28-2.23-15.15l12.63-1.09c.08,1.15.27,2.76.28,4.37,0,8,0,16.09,0,24.13,0,13.85,0,27.71.26,41.56.21,9.74,1.16,19.46,1.35,29.2A66.35,66.35,0,0,0,71.93,210Z"/><path class="cls-3" d="M69.9,82.27c4,4.89.45,14.1-6.1,15.31-2.78.51-5.74,1.54-8.37-.28a8.63,8.63,0,0,1-3.06-3.57,40,40,0,0,1-1.48-6.56,8.9,8.9,0,0,1,7.94-9C63.25,77.62,67,78.71,69.9,82.27Z"/><path class="cls-2" d="M63.1,274.53c.06,3.44-.19,6.89-.27,10.34-.06,2.13-.19,4.26-.06,6.38.26,4.38-1,5.82-5.24,5.74-5-.1-5.12-.09-5.57-5-.59-6.5-1-13-1.54-19.53-.61-7-1.13-14-2.07-20.95a255.69,255.69,0,0,1-1.82-25.72c-.19-6-.22-11.92-.25-17.88a12,12,0,0,1,.49-4.28,4.36,4.36,0,0,1,2.4-2,13.79,13.79,0,0,1,4-.76,2,2,0,0,1,1.62.84A26,26,0,0,1,56.51,207c.92,5.51,1.71,11,2.47,16.59a68.77,68.77,0,0,1,.85,8.56c.05,4.93,1.46,9.68,1.64,14.58.09,2.32.33,4.64.45,7,.2,4.2.31,8.41.54,12.62C62.61,269,63.06,271.78,63.1,274.53Z"/><path class="cls-1" d="M54.51,166.87c.41,4.06,0,7.65-2.74,11.22-2,2.64-2.57,6.44-3.67,9.75-1.55,4.69-3,9.41-4.48,14.13a4.11,4.11,0,0,0-.29,1.63c.25,2.19-1.12,3-2.86,3.5-2.12.66-3.77-.45-3.43-2.63,1-6.3,1.91-12.64,3.33-18.84S43.81,173.2,45.64,167a12.05,12.05,0,0,1,1.61-2.92c2.06-3.21,4.16-6.39,6.25-9.58A4.63,4.63,0,0,1,54,154l.53.12q0,6.2,0,12.41C54.51,166.62,54.5,166.75,54.51,166.87Z"/></svg>