<svg id="圖層_1" data-name="圖層 1" xmlns="http://www.w3.org/2000/svg" viewBox="0 0 287.81 324.7"><defs><style>.cls-1{fill:#fff;}.cls-2{fill:#4e9136;}.cls-3{fill:#3761a4;}.cls-4{fill:#314462;}.cls-5{fill:#ebbf29;}</style></defs><title>chks</title><g id="_群組_" data-name="&lt;群組&gt;"><path d="M275.06,129.6c1.43,5.43-.79,9.41-5,12.75.21,3.7.36,7.51.64,11.31a45,45,0,0,1-2.35,17.5,10,10,0,0,0-.53,1.66c-1,7.2-6.12,10.22-12.34,12.1a8.7,8.7,0,0,1-2,.46c-2.55.12-3.75,1.63-4.77,3.84-2.48,5.36-5.19,10.62-7.94,15.85-4,7.67-10.57,12.92-17.89,17.07a196.23,196.23,0,0,1-18.78,9c-4.35,1.89-9,3.21-13.46,4.75-8.33,2.84-16.66,5.69-25,8.47a21.6,21.6,0,0,1-4.75,1,4.12,4.12,0,0,0-4.14,3.4,123.33,123.33,0,0,0-3.25,17.8,34.78,34.78,0,0,1-3.72,12.62c-.53,1-1,2.06-2.26,1.68a3.72,3.72,0,0,1-2.26-1.73,95.4,95.4,0,0,1-2.89-9.22c-1.22-4.71-2.32-9.45-3.39-14.2-.63-2.83-1.09-5.69-1.7-9-4.15-.27-8.1-.18-11.92-.86-5.35-.94-10.64-2.31-15.89-3.73-5.87-1.59-11.1-4.62-16.29-7.73-2.41-1.45-5.13-2.39-7.59-3.78-2.73-1.53-5.31-3.31-8-5a13.8,13.8,0,0,0-2.09-1.17c-2.41-1-4.72-2-6.28-4.27a9.79,9.79,0,0,0-2.19-1.7c-2.44-1.91-4.87-3.85-7.31-5.76-3.2-2.49-6.46-4.9-9.6-7.46-4.08-3.34-7.51-7.2-9.42-12.28-1.19-3.14-2.9-6.09-4-9.25-1.52-4.23-2.8-8.56-4-12.89A7.7,7.7,0,0,0,29.93,167c-2.62-2.27-5.41-4.5-7.42-7.26-2.63-3.6-2.58-7.92-.79-11.94a41.27,41.27,0,0,1,4.48-7.45,11.77,11.77,0,0,1,6.27-4.78,4.2,4.2,0,0,0,3.23-3.67c.08-.45.31-.88.38-1.34C37.33,122,42,115,46.17,107.79c1.32-2.27,3.55-4,5.11-6.14A188.63,188.63,0,0,1,67.81,82.38,52.13,52.13,0,0,1,75,75.82c6.13-4.4,12.34-8.71,18.75-12.68,3.12-1.93,6.84-2.88,10.18-4.49a99.46,99.46,0,0,1,31.34-9c10.57-1.31,21.25-2,31.94-.64,2.87.38,5.82.11,8.68.52,2.48.35,4.88,1.3,7.33,1.87,7.7,1.79,14.43,5.62,21,9.77,2.44,1.53,5.15,2.61,7.66,4a37.84,37.84,0,0,1,4.59,3.13,142.64,142.64,0,0,1,17.92,16.45c1.39,1.54,2.75,3.26,5.32,2.36a2.51,2.51,0,0,1,1.68.31c5.56,2.76,11.79,4.56,15.44,10.17a28.88,28.88,0,0,1,2.85,5.52c1.88,5,3.63,10,5.31,15.09a6.07,6.07,0,0,0,3.47,3.62A11.73,11.73,0,0,1,275.06,129.6Zm-5.66,7.78c3-1.81,2.55-4.23,2.44-6.45-.15-2.84-2.14-4.28-4.79-5.94.49,3,.87,5.49,1.32,7.95C268.61,134.27,269,135.59,269.4,137.38Zm-2.85,30.14c1.5-11.06,0-22-.92-33-.91-10.33-4.57-20.1-8.37-29.7-3.14-7.94-9.91-11.74-17.84-14.15,18.79,28.46,22.73,58.86,12.42,91.66,2.46-1.16,4.38-2.17,6.38-3C263.59,177.21,265.81,173,266.55,167.52ZM251,171.29c3.15-8,3.7-16.39,3.32-24.7A101.79,101.79,0,0,0,247,113.42c-5.57-13.94-13.38-26.24-24.9-35.92a129.5,129.5,0,0,0-15.51-11.18c-4.81-3-9.72-5.92-15.25-7.5a6.54,6.54,0,0,1-1.78-1.06c-4.45-3.1-9.57-4.06-14.81-4.49s-10.66-.84-16-1c-4.47-.17-9,0-13.92,0a16.48,16.48,0,0,0,1.54,3,26.3,26.3,0,0,0,14.08,9.12c4,1,8.25,1.32,12.3,2.27,8.49,2,17.34,2.43,25,7.69,5,3.46,10.72,6,15,10.55a12.53,12.53,0,0,0,2.14,1.77c6.9,4.67,11.5,11.35,16,18.11a69.77,69.77,0,0,1,8.61,17.81,6.89,6.89,0,0,0,2.16,2.62c.77.69,1.88,1,2.62,1.7,5.59,5.3,7,7.51,3.8,13.76-1.37,2.68-2.81,5.33-4,8.07a18,18,0,0,0-1.13,4.29c-.4,2.39-.55,4.82-1,7.2-.36,1.81-1.14,3.54-1.57,5.34A71.22,71.22,0,0,1,228.74,191C225,196.22,221,201.18,217,206.16a16.31,16.31,0,0,1-3.18,2.69c-1.49,1.1-3,2.11-4.58,3.15-2.59,1.76-5.08,3.69-7.79,5.22-8.67,4.89-18.16,7.72-27.79,9.83-7,1.54-14.21,2.2-21.35,3.15-6.25.84-12.35,2.16-18,5.14a13,13,0,0,0-6.62,6.85c7.05.31,13.56,1.6,20.2.83,2.07-.24,4.16-.33,6.24-.59a41.11,41.11,0,0,0,5.48-.91c5.72-1.51,11.43-3.06,17.1-4.75,4.66-1.38,9.54-2.07,13.91-4.41a42.85,42.85,0,0,1,5.11-2.17c3.56-1.34,7.27-2.34,10.69-4,5.86-2.79,11.58-5.88,17.29-9a36.85,36.85,0,0,0,13.44-12.37A90.53,90.53,0,0,0,250,175,24.05,24.05,0,0,1,251,171.29Zm-3.66-35.43c-2.74-2.86-4.79-5.38-7.22-7.46a15.54,15.54,0,0,1-4.76-8.28,17,17,0,0,0-.72-2.32,76.71,76.71,0,0,0-16.38-24c-6.87-6.93-15.07-12.35-23.35-17.38-4.53-2.75-10.12-3.85-15.33-5.33A71.82,71.82,0,0,0,168.35,69c-4.71-.55-9.45-.79-14.19-1a12.92,12.92,0,0,0-3.73.7c-1.24.32-1.83-1-2.78-1a11.09,11.09,0,0,0-3.81.26c-6.62,1.71-13.33,3.19-19.8,5.38-7.9,2.68-15.65,5.86-23.36,9.08a49.06,49.06,0,0,0-8.39,4.84c-2.68,1.82-5.16,4-7.7,6C78.24,98.29,72,103.47,67.69,110.59a12.38,12.38,0,0,1-1.24,1.68c-5.69,6.67-8.06,15.1-12,22.69a6.2,6.2,0,0,0-.5,2c-.52,3.65-2.71,6.28-5.18,8.78-2,2-4.32,3.85-5.24,7.18,1.23.86,2.4,1.75,3.65,2.52a37.74,37.74,0,0,0,4,2.13c1.88.86,2.63,2.33,3.13,4.28,1.38,5.5,2.76,11,4.55,16.4,2.13,6.37,6.3,11.58,10.55,16.65,1.08,1.29,2.76,2.08,4.17,3.09,2.53,1.81,5.18,3.49,7.58,5.45,4.66,3.81,9.05,7.94,14.54,10.62,1.34.66,2.43,1.8,3.74,2.54,2.71,1.53,5.35,3.35,8.26,4.32,5.37,1.79,10.89,3.19,16.41,4.48,4.24,1,8.54,2.25,12.95.55a5.35,5.35,0,0,1,2.06,0c5.44.29,11,1.35,16.28.72,10.57-1.26,21.26-2.44,31.1-7.1a12.62,12.62,0,0,1,3-.88c5.74-1.12,10.64-4.12,15.25-7.4A94.08,94.08,0,0,0,220,197.72a78.67,78.67,0,0,0,15.4-26.25,33.54,33.54,0,0,0,2.08-6.25c.8-5.15,1.25-10.36,1.89-15.54a7.28,7.28,0,0,1,.77-2.95C242.45,143,244.94,139.46,247.35,135.87Zm-94,116.07c.38-1.71,0-3.6-.06-5.49-3.89-.37-7,.86-10.39,2.06,1.87,9.07.24,18.53,4.17,28a11.05,11.05,0,0,0,.84-1.59C149.71,267.25,151.62,259.62,153.31,251.93ZM145,63.34c-2.35-1.27-4.91-2.17-6.83-3.82s-3.27-4.1-5.11-6.51l-13.74,3.25c1.27,4.84,2.83,6.41,6.16,6.22a2.8,2.8,0,0,0,2.13-1.19,3.25,3.25,0,0,0-.66-2.46c-.42-.6-1.29-.87-2.22-1.45A4.68,4.68,0,0,1,130,55.76c1.88.88,3.37,3.58,2.83,5.42s-1.24,3.37-1.9,5.15Zm-3.77-9.4-.74-1.76-.56.26.83,1.71Zm-19,187.5c2.24-.27,2.41-1.35,2.06-2.89Zm6-11.06-8.69-1.49c-1.24,5.28-3.85,6.9-8.77,5.12L113,231c-2.11-.66-3.58-3-5.87-1.49-2,1.33-3.34,3.2-2.58,5.75a49.11,49.11,0,0,0,5.59,3,56.38,56.38,0,0,0,6.42,1.68A19.53,19.53,0,0,1,128.2,230.38ZM117.87,72.43c2-1.13,4.1-2,6.86-3.37-8.86-.93-14-3.11-19.25-7.88L100.9,63.4c2.32,3.83,5.28,6.17,10.43,8.44C113.46,72.78,115.48,73.8,117.87,72.43Zm-8.39-13.26c2.2,3.18,4.3,4.21,7.52,4l-3.56-5.4ZM93.3,67.81c3.49,5.22,8.76,8.38,12.92,7.71L95.59,66.25a4.51,4.51,0,0,0-1.06.4A14.34,14.34,0,0,0,93.3,67.81Zm7.89,160.72a35.21,35.21,0,0,1,4-3.25c-6.83.48-9.27,1.35-12,4.34L98,233.08A41.49,41.49,0,0,1,101.19,228.54Zm-.24-6.47-6.1-3.28-10.16,6.7c1.86.89,3.06,1.54,4.31,2a2.21,2.21,0,0,0,1.62,0C94,225.79,97.28,224,101,222.06ZM96.7,80.53a20.16,20.16,0,0,0,2.32-2c-2.12-1.23-4-2.16-5.65-3.32s-3.44-2.72-5.53-4.4c-6.17,4.79-12.77,8.92-18.16,14.94-6,6.66-12,13.2-17.23,20.44-6.51,9-12.26,18.28-14.25,29.43-1.1,6.16-2.46,12.3-3.18,18.51-1,8.92.84,17.54,3.62,26,1.88,5.75,5.77,10.34,9.15,15.12,2.91,4.1,6.87,7.51,10.65,10.93,4,3.58,8.23,6.82,12.4,10.16a29.87,29.87,0,0,0,3.07,1.92l10-7.5c-3.29-2.75-5.29-6.48-9.51-7.68A6,6,0,0,1,72,201.61a65.26,65.26,0,0,1-5.57-5.68c-4.36-5.28-8.53-10.7-10.59-17.4-1.7-5.53-3.54-11-5.21-16.56a4.25,4.25,0,0,0-2.57-3,41.7,41.7,0,0,1-5-2.51c-2.87-1.69-3.42-4-1.53-6.72a22.9,22.9,0,0,1,4-4.82C47.85,143,49,140.56,50.07,138c2.38-5.67,4.66-11.38,7.05-17,3-7.14,7.66-13.26,12.78-19C77.64,93.39,86.84,86.53,96.7,80.53ZM89.06,215.07l-1.71-1.5-9.88,7.32L80.54,223ZM33.31,138.65a8.23,8.23,0,0,0-1.38.43,6.94,6.94,0,0,0-1.76,1.1c-4.25,4.16-5.67,9.39-5.5,15.16a6.81,6.81,0,0,0,.49,2,5.63,5.63,0,0,0,5.77,3.8C31.72,153.68,32.51,146.26,33.31,138.65Z"/><path class="cls-1" d="M271.84,130.92c.12,2.23.57,4.64-2.44,6.45-.42-1.79-.79-3.1-1-4.44-.45-2.46-.82-4.94-1.32-7.95C269.7,126.64,271.69,128.09,271.84,130.92Z"/><path class="cls-2" d="M265.63,134.52c1,11,2.42,21.94.92,33-.74,5.48-3,9.7-8.34,11.85-2,.8-3.91,1.82-6.38,3,10.31-32.8,6.38-63.21-12.42-91.66,7.93,2.41,14.7,6.21,17.84,14.15C261.06,114.42,264.72,124.19,265.63,134.52Z"/><path class="cls-3" d="M254.32,146.59c.39,8.31-.17,16.74-3.32,24.7a24.05,24.05,0,0,0-1,3.69,90.53,90.53,0,0,1-12.87,29.91,36.85,36.85,0,0,1-13.44,12.37c-5.71,3.1-11.43,6.19-17.29,9-3.42,1.63-7.13,2.63-10.69,4a42.85,42.85,0,0,0-5.11,2.17c-4.37,2.34-9.25,3-13.91,4.41-5.67,1.69-11.38,3.24-17.1,4.75a41.11,41.11,0,0,1-5.48.91c-2.07.25-4.16.35-6.24.59-6.64.77-13.15-.52-20.2-.83a13,13,0,0,1,6.62-6.85c5.64-3,11.74-4.3,18-5.14,7.13-1,14.34-1.61,21.35-3.15,9.63-2.12,19.11-4.94,27.79-9.83,2.72-1.53,5.2-3.47,7.79-5.22,1.53-1,3.09-2,4.58-3.15a16.31,16.31,0,0,0,3.18-2.69c4-5,8-9.94,11.75-15.12a71.22,71.22,0,0,0,11.59-25.5c.42-1.8,1.21-3.53,1.57-5.34.47-2.37.62-4.81,1-7.2a18,18,0,0,1,1.13-4.29c1.23-2.74,2.67-5.39,4-8.07,3.2-6.25,1.78-8.46-3.8-13.76-.74-.7-1.85-1-2.62-1.7a6.89,6.89,0,0,1-2.16-2.62,69.77,69.77,0,0,0-8.61-17.81c-4.53-6.75-9.13-13.44-16-18.11a12.53,12.53,0,0,1-2.14-1.77c-4.28-4.57-10-7.08-15-10.55-7.65-5.26-16.5-5.7-25-7.69-4.06-1-8.26-1.28-12.3-2.27a26.3,26.3,0,0,1-14.08-9.12,16.48,16.48,0,0,1-1.54-3c5,0,9.45-.14,13.92,0,5.34.2,10.68.6,16,1s10.36,1.39,14.81,4.49a6.54,6.54,0,0,0,1.78,1.06c5.54,1.58,10.45,4.55,15.25,7.5A129.5,129.5,0,0,1,222.1,77.51c11.52,9.68,19.33,22,24.9,35.92A101.79,101.79,0,0,1,254.32,146.59Z"/><path class="cls-4" d="M240.13,128.41c2.43,2.08,4.48,4.6,7.22,7.46-2.41,3.59-4.9,7.18-7.24,10.87a7.28,7.28,0,0,0-.77,2.95c-.64,5.18-1.09,10.39-1.89,15.54a33.54,33.54,0,0,1-2.08,6.25A78.67,78.67,0,0,1,220,197.72a94.08,94.08,0,0,1-15.22,13.65c-4.61,3.27-9.51,6.28-15.25,7.4a12.62,12.62,0,0,0-3,.88c-9.84,4.67-20.53,5.84-31.1,7.1-5.32.64-10.85-.43-16.28-.72a5.35,5.35,0,0,0-2.06,0c-4.41,1.7-8.71.44-12.95-.55-5.52-1.29-11-2.69-16.41-4.48-2.91-1-5.56-2.79-8.26-4.32-1.31-.74-2.4-1.88-3.74-2.54-5.49-2.68-9.88-6.82-14.54-10.62-2.41-2-5-3.64-7.58-5.45-1.41-1-3.09-1.8-4.17-3.09-4.25-5.07-8.43-10.28-10.55-16.65-1.79-5.37-3.17-10.9-4.55-16.4-.49-1.95-1.25-3.42-3.13-4.28a37.74,37.74,0,0,1-4-2.13c-1.25-.76-2.43-1.66-3.65-2.52.92-3.33,3.24-5.15,5.24-7.18,2.47-2.5,4.67-5.13,5.18-8.78a6.2,6.2,0,0,1,.5-2c4-7.59,6.33-16,12-22.69a12.38,12.38,0,0,0,1.24-1.68C72,103.47,78.24,98.29,84.6,93.2c2.54-2,5-4.16,7.7-6a49.06,49.06,0,0,1,8.39-4.84c7.71-3.22,15.45-6.4,23.36-9.08,6.46-2.19,13.17-3.67,19.8-5.38a11.09,11.09,0,0,1,3.81-.26c.95.09,1.54,1.37,2.78,1a12.92,12.92,0,0,1,3.73-.7c4.74.22,9.48.46,14.19,1a71.82,71.82,0,0,1,11.25,2.1c5.21,1.48,10.8,2.58,15.33,5.33,8.28,5,16.47,10.45,23.35,17.38a76.71,76.71,0,0,1,16.38,24,17,17,0,0,1,.72,2.32A15.54,15.54,0,0,0,240.13,128.41Zm.11,10.73a2.43,2.43,0,0,0,.55-3.63,19.67,19.67,0,0,0-5.81-6.38,8.43,8.43,0,0,1-4.23-5.66,12.68,12.68,0,0,0-1.88-3.7c-1.83-3.09-3.93-6-5.52-9.24C218.94,101.62,212,95,204,89.49a127.16,127.16,0,0,0-13.55-7.83c-5.75-3-11.64-5.8-18.28-6.36-3.12-.26-6.26-.52-9.35-1.06a42.17,42.17,0,0,0-18,.66c-3.49.89-7,1.76-10.5,2.53-8.17,1.79-16.35,3.52-24,7.18-3.13,1.5-6.3,3-9.45,4.4C90.48,93.82,81.16,100.28,74,109.43a114.44,114.44,0,0,0-16.27,28.67,34.08,34.08,0,0,1-4.12,6.75,22.23,22.23,0,0,1-2.76,2.63c-1,1-1.47,2.42-.51,3.45,2.25,2.44,4,5.54,7.54,6.46,2,.52,3.05,1.63,3,3.67-.18,5.09,1.8,9.67,3.13,14.43,2.17,7.82,7.54,13.19,13.38,18.15,4,3.43,8.46,6.43,12.79,9.49a79.91,79.91,0,0,0,8.76,5.6c4.19,2.2,8.59,4,12.86,6,2,1,3.76,2.56,5.83,3.07a107.87,107.87,0,0,0,16.71,3.24c6.67.55,13.43.13,22.44.13,2.91-.51,8-1.4,13.16-2.31,11-2,21.17-5.93,30-13.06,1.44-1.17,3-2.13,4.55-3.21,7.23-5.17,13.76-11,18-19,2.35-4.39,4.75-8.76,7.08-13.16a33,33,0,0,0,2.57-5.29,68.91,68.91,0,0,0,2.59-10.11,18.06,18.06,0,0,0-.31-7.18c-.57-2.15-.18-3.58,1.36-4.92S238.73,140.4,240.23,139.13Z"/><path d="M240.79,135.5a2.43,2.43,0,0,1-.55,3.63c-1.5,1.26-3,2.58-4.45,3.88s-1.92,2.77-1.36,4.92a18.06,18.06,0,0,1,.31,7.18,68.91,68.91,0,0,1-2.59,10.11,33,33,0,0,1-2.57,5.29c-2.34,4.4-4.74,8.77-7.08,13.16-4.27,8-10.8,13.82-18,19-1.51,1.08-3.11,2-4.55,3.21C191.14,213,181,217,170,218.93c-5.12.91-10.25,1.8-13.16,2.31-9,0-15.77.42-22.44-.13a107.87,107.87,0,0,1-16.71-3.24c-2.07-.51-3.84-2.12-5.83-3.07-4.27-2.05-8.67-3.85-12.86-6a79.91,79.91,0,0,1-8.76-5.6c-4.33-3.06-8.75-6.06-12.79-9.49-5.84-5-11.21-10.33-13.38-18.15-1.33-4.77-3.31-9.35-3.13-14.43.07-2-1-3.15-3-3.67-3.51-.92-5.29-4-7.54-6.46-1-1-.5-2.44.51-3.45a22.23,22.23,0,0,0,2.76-2.63,34.08,34.08,0,0,0,4.12-6.75A114.44,114.44,0,0,1,74,109.43C81.16,100.28,90.48,93.82,101,89c3.16-1.45,6.32-2.9,9.45-4.4,7.61-3.65,15.79-5.38,24-7.18,3.51-.77,7-1.64,10.5-2.53a42.17,42.17,0,0,1,18-.66c3.09.54,6.23.8,9.35,1.06,6.65.55,12.53,3.32,18.28,6.36A127.16,127.16,0,0,1,204,89.49c7.94,5.56,14.9,12.13,19.31,21,1.59,3.21,3.69,6.15,5.52,9.24a12.68,12.68,0,0,1,1.88,3.7,8.43,8.43,0,0,0,4.23,5.66A19.67,19.67,0,0,1,240.79,135.5Zm-2.5,1.89c-1.18-3.32-3.63-5-6-6.55a12.79,12.79,0,0,1-4.8-6.21,34.51,34.51,0,0,0-2.49-4.91c-3.06-4.92-6.22-9.77-9.34-14.66-3.77-5.91-9.34-10-14.89-13.94-3.92-2.78-8.6-4.48-12.87-6.8-7.25-3.93-15.23-5.23-23.19-6.57a27.61,27.61,0,0,0-6.26-.26c-7.76.47-15.55.7-23.15,2.58-6.85,1.69-13.89,2.74-20.2,6.23-2.33,1.29-4.89,2.15-7.3,3.29-4.4,2.09-8.93,4-13.1,6.47a72.83,72.83,0,0,0-11.24,8.11c-7.85,7-12.83,16.11-17.71,25.23a40.94,40.94,0,0,0-1.92,5.2c-1,2.7-2.17,5.35-3,8.1a6.94,6.94,0,0,1-2.51,4c-1.34,1-2.52,2.22-4,3.59a61.92,61.92,0,0,1,6.29,3.95c2.13,1.73,4.35,3.65,4.26,6.76-.29,10,3.34,18.38,10.22,25.38,2.91,3,6.33,5.41,9.4,8.2,8.56,7.8,18.82,12.7,29.33,17.13,4.15,1.75,8.53,3,12.83,4.36A38.31,38.31,0,0,0,134,218c8.21.87,16.45.29,24.65-.25a94.82,94.82,0,0,0,21.75-4.51A60.75,60.75,0,0,0,200.68,202a95.09,95.09,0,0,0,15-15c3.17-4,6.41-8.08,8.09-12.91,2.43-7,5.58-13.78,6.75-21.17a23.32,23.32,0,0,0,.37-5.83,4.64,4.64,0,0,1,1.63-4.31C234.44,141.06,236.27,139.28,238.28,137.39Z"/><path class="cls-1" d="M232.27,130.84c2.38,1.55,4.83,3.23,6,6.55-2,1.89-3.84,3.67-5.73,5.38a4.64,4.64,0,0,0-1.63,4.31,23.32,23.32,0,0,1-.37,5.83c-1.17,7.39-4.32,14.18-6.75,21.17-1.68,4.84-4.92,8.88-8.09,12.91a95.09,95.09,0,0,1-15,15,60.75,60.75,0,0,1-20.28,11.28,94.82,94.82,0,0,1-21.75,4.51c-8.2.54-16.44,1.12-24.65.25a38.31,38.31,0,0,1-7.39-1.92c-4.31-1.36-8.68-2.61-12.83-4.36-10.5-4.43-20.76-9.33-29.33-17.13-3.07-2.8-6.49-5.25-9.4-8.2-6.88-7-10.51-15.41-10.22-25.38.09-3.11-2.13-5-4.26-6.76a61.92,61.92,0,0,0-6.29-3.95c1.53-1.38,2.7-2.6,4-3.59a6.94,6.94,0,0,0,2.51-4c.81-2.75,2-5.4,3-8.1a40.94,40.94,0,0,1,1.92-5.2c4.88-9.12,9.86-18.24,17.71-25.23a72.83,72.83,0,0,1,11.24-8.11c4.18-2.48,8.7-4.38,13.1-6.47,2.41-1.15,5-2,7.3-3.29,6.32-3.49,13.36-4.53,20.2-6.23,7.6-1.87,15.39-2.11,23.15-2.58a27.61,27.61,0,0,1,6.26.26c8,1.34,15.94,2.64,23.19,6.57,4.27,2.31,8.94,4,12.87,6.8,5.55,3.93,11.12,8,14.89,13.94,3.12,4.88,6.28,9.74,9.34,14.66a34.51,34.51,0,0,1,2.49,4.91A12.79,12.79,0,0,0,232.27,130.84Zm-59.93,20c4.13,0,6.53-2.55,6.52-6.92a5.24,5.24,0,0,0-5.56-5.38c-3.14,0-7.13,3.83-7.27,6.92C165.92,147.92,169.35,150.83,172.34,150.83ZM129.61,147c0-.37-.06-.48-.06-.6-.2-4.51-7.41-8.32-11.13-5.72-4.37,3.05-4.29,6.55-.4,10,.51.45,1.29.64,1.72,1.13a4,4,0,0,0,5.37.73C127.27,151.25,129.3,149.59,129.61,147Z"/><path d="M178.86,143.91c0,4.37-2.39,6.91-6.52,6.92-3,0-6.42-2.91-6.31-5.37.14-3.1,4.13-6.89,7.27-6.92A5.24,5.24,0,0,1,178.86,143.91Zm-2.33.07c0-2.13-1-3.11-3.24-3.09-3,0-5.33,1.84-5.18,4,.12,1.64,2.32,3.5,4.18,3.52C174.88,148.45,176.48,146.78,176.53,144Z"/><path class="cls-5" d="M173.29,140.89c2.25,0,3.28,1,3.24,3.09-.05,2.8-1.64,4.47-4.24,4.44-1.86,0-4.06-1.87-4.18-3.52C168,142.73,170.28,140.92,173.29,140.89Z"/><path class="cls-5" d="M153.24,246.44c0,1.89.44,3.78.06,5.49-1.69,7.68-3.6,15.32-5.44,23a11.05,11.05,0,0,1-.84,1.59c-3.93-9.46-2.3-18.92-4.17-28C146.28,247.31,149.35,246.08,153.24,246.44Z"/><path class="cls-3" d="M138.17,59.52c1.92,1.65,4.49,2.55,6.83,3.82l-14,3c.67-1.78,1.4-3.43,1.9-5.15s-.95-4.54-2.83-5.42a4.68,4.68,0,0,0-5.31,1.62c.93.58,1.81.85,2.22,1.45a3.25,3.25,0,0,1,.66,2.46,2.8,2.8,0,0,1-2.13,1.19c-3.33.18-4.89-1.38-6.16-6.22L133.06,53C134.9,55.42,136.22,57.84,138.17,59.52Z"/><path class="cls-4" d="M140.5,52.18l.74,1.76-.47.21-.83-1.71Z"/><path d="M129.54,146.39c0,.12,0,.23.06.6-.31,2.6-2.34,4.26-4.5,5.53a4,4,0,0,1-5.37-.73c-.44-.5-1.21-.68-1.72-1.13-3.89-3.43-4-6.93.4-10C122.13,138.08,129.34,141.88,129.54,146.39Zm-2.93,1a2.63,2.63,0,0,0-.31-2.47,6.32,6.32,0,0,0-5.74-1.81c-2.36.54-3,2.53-1.53,4.4a3.5,3.5,0,0,0,4.15,1.27c.3.09.85.44,1.14.29A5.24,5.24,0,0,0,126.61,147.39Z"/><path class="cls-5" d="M126.3,144.93a2.63,2.63,0,0,1,.31,2.47,5.24,5.24,0,0,1-2.29,1.69c-.29.15-.84-.2-1.14-.29a3.5,3.5,0,0,1-4.15-1.27c-1.45-1.87-.83-3.86,1.53-4.4A6.32,6.32,0,0,1,126.3,144.93Z"/><path class="cls-4" d="M124.27,238.54c.36,1.55.18,2.62-2.06,2.89Z"/><path class="cls-3" d="M119.51,228.89l8.69,1.49a19.53,19.53,0,0,0-11.66,9.5,56.38,56.38,0,0,1-6.42-1.68,49.11,49.11,0,0,1-5.59-3c-.76-2.55.53-4.42,2.58-5.75,2.29-1.49,3.76.83,5.87,1.49L110.74,234C115.67,235.79,118.27,234.18,119.51,228.89Z"/><path class="cls-3" d="M124.73,69.06c-2.76,1.35-4.88,2.24-6.86,3.37-2.38,1.37-4.41.35-6.54-.59-5.15-2.27-8.11-4.61-10.43-8.44l4.58-2.23C110.71,66,115.87,68.13,124.73,69.06Z"/><path class="cls-4" d="M117,63.12c-3.22.26-5.32-.78-7.52-4l4-1.45Z"/><path class="cls-4" d="M106.22,75.52c-4.16.67-9.43-2.48-12.92-7.71a14.34,14.34,0,0,1,1.23-1.16,4.51,4.51,0,0,1,1.06-.4Z"/><path class="cls-4" d="M105.2,225.29a35.21,35.21,0,0,0-4,3.25A41.49,41.49,0,0,0,98,233.08l-4.86-3.45C95.92,226.64,98.37,225.77,105.2,225.29Z"/><path class="cls-3" d="M94.86,218.79l6.1,3.28c-3.67,1.94-7,3.72-10.32,5.43a2.21,2.21,0,0,1-1.62,0c-1.26-.49-2.45-1.14-4.31-2Z"/><path class="cls-3" d="M99,78.51a20.16,20.16,0,0,1-2.32,2c-9.86,6-19.06,12.86-26.79,21.46-5.12,5.7-9.76,11.81-12.78,19-2.4,5.66-4.68,11.37-7.05,17-1.07,2.56-2.22,5-4.49,6.91a22.9,22.9,0,0,0-4,4.82c-1.89,2.77-1.35,5,1.53,6.72a41.7,41.7,0,0,0,5,2.51,4.25,4.25,0,0,1,2.57,3c1.68,5.54,3.51,11,5.21,16.56,2.06,6.71,6.23,12.12,10.59,17.4A65.26,65.26,0,0,0,72,201.61,6,6,0,0,0,74.4,203c4.22,1.2,6.22,4.94,9.51,7.68l-10,7.5a29.87,29.87,0,0,1-3.07-1.92c-4.18-3.34-8.45-6.58-12.4-10.16-3.78-3.41-7.74-6.83-10.65-10.93-3.39-4.77-7.27-9.37-9.15-15.12C35.86,171.63,34,163,35,154.09c.72-6.21,2.08-12.34,3.18-18.51,2-11.15,7.74-20.45,14.25-29.43,5.25-7.24,11.28-13.78,17.23-20.44,5.39-6,12-10.15,18.16-14.94,2.09,1.69,3.73,3.16,5.53,4.4S96.9,77.28,99,78.51Z"/><path class="cls-4" d="M87.35,213.57l1.71,1.5-8.51,8-3.07-2.16Z"/><path class="cls-1" d="M31.93,139.08a8.23,8.23,0,0,1,1.38-.43c-.8,7.6-1.59,15-2.38,22.51a5.63,5.63,0,0,1-5.77-3.8,6.81,6.81,0,0,1-.49-2c-.16-5.77,1.25-11,5.5-15.16A6.94,6.94,0,0,1,31.93,139.08Z"/></g></svg>