<svg id="圖層_1" data-name="圖層 1" xmlns="http://www.w3.org/2000/svg" viewBox="0 0 287.81 324.7"><defs><style>.cls-1{fill:#fff;}.cls-2{fill:#9e3224;}.cls-3{fill:#eabf29;}</style></defs><title>chks</title><path class="cls-1" d="M34.09,228.23A20,20,0,0,0,36,232.47c4.48,5.77,11,7.87,17.78,9.22,2.51.5,5.1.61,8.28,1-2.76-4.12-5.36-7.2-9.24-8.88-4.61-2-9.17-4.13-13.88-5.85C37.56,227.41,35.72,228.09,34.09,228.23Z"/><path class="cls-1" d="M44.34,145.79c1.44-10.11,4.18-19.77,10.25-28.21,2.67-3.71,5.38-7.38,8-11.1A77.12,77.12,0,0,1,79.32,89c5.87-4.38,11.76-8.73,19.19-10.36,6.44-1.41,12.78-3.24,19.19-4.8,9.89-2.41,19.82-2.47,29.4,1,5.71,2.08,11.08,5.1,16.53,7.83,13.65,6.83,25.73,15.66,35.56,27.49,5,6,10.44,11.79,13,19.36a183.54,183.54,0,0,1,5.69,18.91c1.42,6.23,2,12.65,3,19.37-2-.11-3.38-.07-4.72-.29-10.25-1.67-19.11,1.15-26.38,8.48-5.73,5.78-9.28,12.42-6.7,20.95a25.54,25.54,0,0,1,.49,2.94,34.51,34.51,0,0,1-5.82-1.08c-7.06-2.66-13.7-6.09-19.34-11.23-2.9-2.64-5.78-5.3-8.8-7.8a22.08,22.08,0,0,0-3.92-2.11l-.94.78c.52,1.33.7,3,1.64,3.93,4,3.87,7.89,7.91,12.36,11.15a60.27,60.27,0,0,0,21.24,10.12c4.74,1.14,9.58,1.91,14.35,3a4.68,4.68,0,0,1,3.8,5c-.19,1.86-2.16,3.44-4.52,3.75a35.35,35.35,0,0,1-17.57-2c-7.52-2.88-15.1-5.69-22.42-9-4.43-2-8.41-5-12.61-7.59,0-.1-.11.11-.14.33a6.25,6.25,0,0,0,3.61,6.88c5.88,3,12,5.52,17.82,8.5a54.83,54.83,0,0,0,22.42,6.3c4.79.21,8.09,1.41,9.78,6a7.75,7.75,0,0,0,1.57,2.18,18.85,18.85,0,0,1,4.21,10c.31,2.12.86,5-.19,6.39-3.13,4.21-6.43,8.71-10.69,11.58-14,9.43-29.2,16.13-46.32,17.51-10.44.84-20.91,1.51-31.21-.84-11.19-2.55-22.2-5.9-30.55-14.4C74.34,250,67.67,242.41,60.84,235a49.49,49.49,0,0,1-10.52-18c-3.68-11.15-7-22.4-7.91-34.2-.36-4.79-1.16-9.62-.83-14.38C42.08,160.8,43.28,153.29,44.34,145.79ZM189.7,117.55c-.07-1.53-.18-3.66-2.4-3.41a4.4,4.4,0,0,0-3.15,2.3c-.58,1.69,1.32,3,4.46,3C188.86,119,189.73,118.26,189.7,117.55Z"/><path class="cls-2" d="M141.2,29.56a28.08,28.08,0,0,0-3.25-7.21c-1.94-2.7-4.47-2.3-5.44.85-1.28,4.17-2,8.51-2.91,12.79a3.29,3.29,0,0,0,0,.49c0,1.09-.07,2-.06,2.68a1.72,1.72,0,0,0-.12.41c-.49,3.35-.69,6.71-.95,10.09a2.53,2.53,0,0,0,.06.79c-1.09,4.82-2.1,9.66-3,14.53-.53,2.92.1,3.45,3.09,3.27,1.3-.07,2.59-.25,3.89-.35,4-.33,4.58-.88,4.86-4.83.07-1,0-2.11,0-3.17a21.6,21.6,0,0,0-.66-6.5,2.89,2.89,0,0,0,.23-1.81c-.33-1.79-.3-3.62-.74-5.39a2.71,2.71,0,0,0-.16-.47,32.54,32.54,0,0,0,1.59-7l.16-.37c.87-1.94,2.3-3.51,2.76-5.57l.14-.23A4.15,4.15,0,0,0,141.2,29.56Z"/><path class="cls-3" d="M132.56,277.54v21.16a3.85,3.85,0,0,1,1,.08c1.84-7.12,3.54-14.24,5.5-21.83Z"/><path class="cls-2" d="M143.65,37.6c-3.49,2.07-4.36,5.08-4.09,8.71.5,6.91,1.14,13.82,1.59,20.73.1,1.45.65,2,2,2.21s2.49.18,2.86-1.43a83.76,83.76,0,0,0,2-9c.49-4,.5-8.14.72-12.21l.68-.17c-.74-2.69-1.34-5.44-2.3-8.06C146.49,36.76,145.45,36.54,143.65,37.6Z"/><path d="M184.15,116.44c-.58,1.69,1.32,3,4.46,3,.25-.41,1.12-1.17,1.09-1.88-.07-1.53-.18-3.66-2.4-3.41A4.4,4.4,0,0,0,184.15,116.44Z"/><path class="cls-2" d="M236,187a23.24,23.24,0,0,0-20.57-15.29,41.27,41.27,0,0,0-8.31.16c-8.91,1.4-15.13,6.79-19.76,14.19-1.63,2.6-1.07,5.51-.38,8.32a9.61,9.61,0,0,1,.37,1.16c.4,3.64,2.5,5.57,6,6.28a17.08,17.08,0,0,1,3.65,1.38c4,1.86,5.49,4.49,5.2,9-.23,3.43-1.9,5.22-6.16,6.59a11.81,11.81,0,0,0-1.26.59c8.4,7,11.27,16,10,26.79,5.48-1.47,10.13-4.53,14.91-7.37,5.12-3,6.7-8.8,10.41-12.64-3.16-1-6.06-1.9-9-2.7a2.17,2.17,0,0,0-.77,0,3.27,3.27,0,0,0-1-.62l-.31-.13-.28-.14a40.79,40.79,0,0,0-3.84-5.48,2.09,2.09,0,0,0-2.64-.53q-1-1-2-2a2.62,2.62,0,0,0-.59-.45,14.7,14.7,0,0,0-1-1.27,2.14,2.14,0,0,0-1-.64c1.72-2.09,4-1.89,6.42.3a94.63,94.63,0,0,0,8.37,7.14c5.72,4.07,12.49,1.64,14.5-5.12a34.47,34.47,0,0,0,1.25-7.2C238.61,200.44,238.29,193.6,236,187Zm-12.79,10.42c-2.82-2.66-3.11-3.57-1.54-5.19,2.06-2.11,3.15-1.92,6,1.23Z"/><path class="cls-3" d="M217,131.28c1,4.53,1.75,8.3,5.68,11,9.2,6.31,19.5,10.4,29.37,15.37,2,1,4.16,1.51,6.74-.69A25.71,25.71,0,0,0,255,154.2a189.4,189.4,0,0,1-32.26-18.72C221,134.21,219.22,132.9,217,131.28Z"/><path d="M226.59,196.76a4.41,4.41,0,0,0,.46-.36,2.38,2.38,0,0,0,.47-2.77l.17-.15c-2.9-3.14-4-3.34-6-1.23-1.31,1.35-1.32,2.21.37,4a2.5,2.5,0,0,0,1,1l.17.17.05,0a2.32,2.32,0,0,0,2.23-.23,2.3,2.3,0,0,0,1-.31l.16-.09Z"/><path d="M260.64,153.07c-1-1.27-2.72-2-4.23-2.8-6.68-3.4-13.65-6.31-20-10.18-7.31-4.43-14.14-9.65-21.12-14.59a8.42,8.42,0,0,1-1.77-2.29c-2.64-3.91-4.88-8.15-7.93-11.7-14.48-16.87-31.1-30.94-52.28-38.85-3.23-1.21-3-1.36-2.49-5.47.92-7.19,1.81-14.4,2.2-21.63.16-2.82-.89-5.75-1.72-8.54a7.55,7.55,0,0,0-4.95-5c-.75-.28-1.35-1.82-1.47-2.85a16.55,16.55,0,0,0-5-10.34c-4.09-4-8.85-3-10.88,2.48a40.93,40.93,0,0,0-2.26,8.22c-1.76,11.92-3.38,23.86-5,35.81-.29,2.19-.77,3.55-3.46,3.63-2,.06-4,1.12-6.1,1.62-5,1.22-9.95,2.36-14.92,3.54A16.37,16.37,0,0,0,93,75.22c-8.55,4.81-17,10-23.59,17.27C63.86,98.64,59,105.48,53.91,112c-8,10.14-11.13,22.17-13.49,34.48a135.88,135.88,0,0,0-1,45.31c1.43,9.91,5.14,19.16,8.5,28.51.94,2.59,2.1,5.11,3.1,7.52-4.16-1.34-8.24-2.94-12.48-3.91a11.57,11.57,0,0,0-6.15.67c-2.81,1-3.38,2.73-2.22,5.48a21.17,21.17,0,0,0,8.64,10,43.14,43.14,0,0,0,23.61,6.11,5,5,0,0,1,4.5,2.13c11.51,14.69,26.35,24.11,44.79,27.47a136.31,136.31,0,0,0,13.85,1.53c2.21.17,2.67,1.18,2.6,3.15-.17,5.14-.15,10.29-.26,15.43a13.69,13.69,0,0,0,1.87,8c1.94,3.07,4.3,3.46,6.72.74a9.54,9.54,0,0,0,1.8-3.9c1.88-7.24,3.58-14.52,5.52-21.74a3.44,3.44,0,0,1,2.33-1.91c14.73-2.47,28.52-7.32,40.91-15.81,1.62-1.11,3.33-2.08,4.89-3.25,1.41-1.05,2.57-2.44,4-3.43a43.07,43.07,0,0,1,5.84-3.38c7-3.32,14-6.49,21-9.82a7.38,7.38,0,0,0,2.26-2.18c3.92-4.92,7.68-10,11.71-14.78,3.28-3.91,4.06-8.69,5-13.35,1.74-8.92.41-17.75-2.05-26.35-1.77-6.18-6.16-10.53-11.82-13.41a6.35,6.35,0,0,1-3.81-5.65c-.7-6.39-1.81-12.73-2.82-19.54l2.45,1.27c9,4.54,18,9.2,27.11,13.51,2.07,1,4.73,1,7.11.93s4.39-1.46,4.63-3.65C262.7,156.58,261.72,154.49,260.64,153.07ZM143.65,37.6c1.79-1.06,2.84-.84,3.44.78,1,2.62,1.56,5.37,2.3,8.06l-.68.17c-.22,4.07-.23,8.17-.72,12.21a83.76,83.76,0,0,1-2,9c-.38,1.61-1.54,1.62-2.86,1.43s-1.86-.76-2-2.21c-.45-6.91-1.09-13.82-1.59-20.73C139.29,42.68,140.16,39.67,143.65,37.6Zm-14.08-1.13a3.29,3.29,0,0,1,0-.49c.94-4.27,1.63-8.62,2.91-12.79,1-3.15,3.5-3.55,5.44-.85a28.08,28.08,0,0,1,3.25,7.21,4.15,4.15,0,0,1-.49,3c-1.82,3.09-3.83,6.06-6,9.47C129.37,42.28,129.37,42.28,129.57,36.47Zm-4,28.49c1-5.43,2.13-10.83,3.37-16.21.66-2.86,1.73-3.1,4-1.22,3.94,3.22,4.55,7.67,4.44,12.35,0,1.06.06,2.12,0,3.17-.27,4-.85,4.5-4.86,4.83-1.3.1-2.59.28-3.89.35C125.62,68.41,125,67.88,125.53,65ZM53.8,241.68c-6.8-1.35-13.3-3.45-17.78-9.22a20,20,0,0,1-1.93-4.24c1.64-.13,3.47-.81,4.87-.3,4.71,1.72,9.27,3.85,13.88,5.85,3.88,1.69,6.48,4.76,9.24,8.88C58.9,242.3,56.31,242.18,53.8,241.68Zm79.79,57.11a3.85,3.85,0,0,0-1-.08V277.54l6.53-.58C137.14,284.55,135.44,291.67,133.59,298.79Zm66.59-55.4c-3.13,4.21-6.43,8.71-10.69,11.58-14,9.43-29.2,16.13-46.32,17.51-10.44.84-20.91,1.51-31.21-.84-11.19-2.55-22.2-5.9-30.55-14.4C74.34,250,67.67,242.41,60.84,235a49.49,49.49,0,0,1-10.52-18c-3.68-11.15-7-22.4-7.91-34.2-.36-4.79-1.16-9.62-.83-14.38.51-7.55,1.7-15.06,2.77-22.56,1.44-10.11,4.18-19.77,10.25-28.21,2.67-3.71,5.38-7.38,8-11.1A77.12,77.12,0,0,1,79.32,89c5.87-4.38,11.76-8.73,19.19-10.36,6.44-1.41,12.78-3.24,19.19-4.8,9.89-2.41,19.82-2.47,29.4,1,5.71,2.08,11.08,5.1,16.53,7.83,13.65,6.83,25.73,15.66,35.56,27.49,5,6,10.44,11.79,13,19.36a183.54,183.54,0,0,1,5.69,18.91c1.42,6.23,2,12.65,3,19.37-2-.11-3.38-.07-4.72-.29-10.25-1.67-19.11,1.15-26.38,8.48-5.73,5.78-9.28,12.42-6.7,20.95a25.54,25.54,0,0,1,.49,2.94,34.51,34.51,0,0,1-5.82-1.08c-7.06-2.66-13.7-6.09-19.34-11.23-2.9-2.64-5.78-5.3-8.8-7.8a22.08,22.08,0,0,0-3.92-2.11l-.94.78c.52,1.33.7,3,1.64,3.93,4,3.87,7.89,7.91,12.36,11.15a60.27,60.27,0,0,0,21.24,10.12c4.74,1.14,9.58,1.91,14.35,3a4.68,4.68,0,0,1,3.8,5c-.19,1.86-2.16,3.44-4.52,3.75a35.35,35.35,0,0,1-17.57-2c-7.52-2.88-15.1-5.69-22.42-9-4.43-2-8.41-5-12.61-7.59,0-.1-.11.11-.14.33a6.25,6.25,0,0,0,3.61,6.88c5.88,3,12,5.52,17.82,8.5a54.83,54.83,0,0,0,22.42,6.3c4.79.21,8.09,1.41,9.78,6a7.75,7.75,0,0,0,1.57,2.18,18.85,18.85,0,0,1,4.21,10C200.68,239.12,201.23,242,200.18,243.39ZM236,187c2.31,6.57,2.64,13.42,2.14,20.29a34.47,34.47,0,0,1-1.25,7.2c-2,6.75-8.78,9.19-14.5,5.12A94.63,94.63,0,0,1,214,212.5c-2.53-2.28-4.9-2.41-6.65,0a29.2,29.2,0,0,1,4.74,4.61l.44.28-.1.11.37.44a10.93,10.93,0,0,1,1.82,1.47l.28.27,0,0a5,5,0,0,1,2.06,1.42.85.85,0,0,0-.54,0,14.33,14.33,0,0,1,3.35,2.53,2.47,2.47,0,0,1,1.27-.07c2.94.8,5.84,1.74,9,2.7-3.71,3.84-5.29,9.6-10.41,12.64-4.78,2.83-9.43,5.9-14.91,7.37,1.28-10.79-1.59-19.75-10-26.79a11.81,11.81,0,0,1,1.26-.59c4.26-1.38,5.93-3.16,6.16-6.59.3-4.53-1.19-7.16-5.2-9a17.08,17.08,0,0,0-3.65-1.38c-3.51-.71-5.61-2.64-6-6.28a9.61,9.61,0,0,0-.37-1.16c-.7-2.81-1.25-5.72.38-8.32,4.63-7.4,10.85-12.8,19.76-14.19a41.27,41.27,0,0,1,8.31-.16A23.24,23.24,0,0,1,236,187Zm16.11-29.37c-9.87-5-20.17-9.06-29.37-15.37-3.94-2.7-4.68-6.47-5.68-11,2.19,1.62,3.92,2.93,5.69,4.2A189.4,189.4,0,0,0,255,154.2a25.71,25.71,0,0,1,3.85,2.77C256.24,159.17,254.06,158.65,252.08,157.65Z"/></svg>