<svg id="圖層_1" data-name="圖層 1" xmlns="http://www.w3.org/2000/svg" viewBox="0 0 287.81 324.7"><defs><style>.cls-1,.cls-4{fill:#fff;}.cls-1{fill-rule:evenodd;}.cls-2{fill:#f3e7b8;}.cls-3{fill:#bf5145;}.cls-5{fill:#ddae1d;}.cls-6{fill:#cf543f;}</style></defs><title>chks</title><path class="cls-1" d="M266.22,96.23c2.91,2,3.48,4.68,3.78,7.38a21.93,21.93,0,0,1-2.18,11.64,39.32,39.32,0,0,1-14.66,16.92c-3.46,2.26-7,4.37-10.54,6.56-4.6,2.87-5,4-3.38,9.11.33,1,.57,2.08,1,3.79-2-.4-3.61-.42-4.93-1A21.86,21.86,0,0,1,225.29,141a8.84,8.84,0,0,1-.59-7.46c1.43-3.88,3.83-7.16,7.14-10.76.22,5,3.48,5,6.66,5.25a14.11,14.11,0,0,0,11-3.75C257,117.62,263,110,265,99.8a11.21,11.21,0,0,1,.5-1.64C265.64,97.63,265.87,97.11,266.22,96.23Z"/><path class="cls-1" d="M223.87,189.68,213,193.77c-1.91-2.45-1.59-5.27-2-7.87s-.6-5.06-.94-8.06l11.47-4.4C225.33,178.5,223.28,184.07,223.87,189.68Z"/><path class="cls-1" d="M235.83,171c0,3.26-.13,6.09,0,8.9s-.9,4.9-3.69,6c-1.42.53-2.79,1.21-4.75,2.08-.46-4.83-1-9.12-1.23-13.43-.12-2,2.75-4.18,5.45-4.22A24.51,24.51,0,0,1,235.83,171Z"/><path class="cls-1" d="M205.57,179.56c3.59,4.35,3.73,9.06,2.31,13.83-.95,3.19-3.89,3.27-7.26,3.22-.24-4.94-.1-9.81-.07-15Z"/><path class="cls-1" d="M239.09,180.24l-1-12.26a39.85,39.85,0,0,1,4.87-2.11,5.28,5.28,0,0,1,5.88,2.36c1.25,2.18.17,3.88-1.31,5.29C245.07,175.92,242.78,178.65,239.09,180.24Z"/><path d="M269.83,94.47c3.6,6.46,4.66,13.14,1.76,20.16a46.19,46.19,0,0,1-16.78,20.69c-4.22,2.92-8.56,5.66-13.33,8.79.63,2,1.12,4,1.93,5.91,1.45,3.41,3.29,6.66,3.34,10.54,0,.69.72,1.44,1.26,2a12,12,0,0,0,1.72,1.26c4.77,3.66,5.11,6.34,1.33,11.15a21.88,21.88,0,0,1-3.49,3.76c-2.95,2.31-3.89,5.33-4.29,8.94-.89,8.08-1.82,16.19-3.39,24.16-1.21,6.14-3.4,12.08-5.2,18.1a7.63,7.63,0,0,1-4.61,4.81c-5.37,2.3-9.69,6-13.79,10A39.79,39.79,0,0,1,202,253.94c-1.47.54-2.87,1.27-4.34,1.83a9.77,9.77,0,0,0-6.43,7.36,47.93,47.93,0,0,1-8.09,16.45c-3.75,5.22-7.73,10.28-11.72,15.32-2.23,2.82-3.57,3.29-5.29,2.37-1.88-1-2.36-2.75-.89-6.06,3.12-7,6.5-14,9.75-21,.69-1.47,1.24-3,2.2-5.31-4.79.91-8.67,1.7-12.56,2.37-8.44,1.45-16.86,3.1-25.35,4.19-14.32,1.84-27.93-.44-40.25-8.39-2.35-1.51-4.39-1.42-6.8-.21-5.49,2.75-11,5.52-16.67,7.84A34.66,34.66,0,0,1,66,272.86c-2.66.27-3.43-.9-3.5-3.66a7.17,7.17,0,0,1,3.61-6.43c3.11-2,6.36-3.82,9.56-5.7,2.8-1.64,5.62-3.25,8.31-4.81-1.66-5.59-4.65-8.43-10-8.2s-8.16-2.17-10.6-6.32a128,128,0,0,0-8.51-12.86c-4.62-6-7.23-12.89-9-20.12-.62-2.57-1.69-4.26-4.29-5.27-6.65-2.57-6.89-7.34-4.47-13.83.56-1.51,2.9-2.66,4.67-3.31s2.54-1.61,2.59-3.38c0-.43.07-.85.08-1.28.09-3.56,1-6.54,5.3-7l1.86-8.24c-2.13-.35-4-.51-5.72-1-6.5-1.69-12.37-4.66-14.32-11.52-1.26-4.42-1.19-9.28-1.27-14,0-2.36.8-4.77,1.47-7.09a8.08,8.08,0,0,1,9.53-5.2c1.8.53,3.24,3,3.57,5.34a80.15,80.15,0,0,0,2.25,12.13c1.79,5.85,8.27,7.07,12.46,2.63,1.17-1.24,1.78-2.83.5-4.23-1.77-1.93-1-3.63,0-5.46.85-1.65,1.63-3.34,2.46-5,2.42-4.84,2.87-5.1,8.74-4.68,1.05-2.42,2.18-5,3.29-7.58,3.5-8.23,8-15.85,14.59-22,3.13-2.89,6.56-5.45,10.3-8.53.11-1.72.24-4.12.41-6.52a2.92,2.92,0,0,1,3-3,76,76,0,0,1,8.07-.41,17.33,17.33,0,0,0,7.09-1c4.76-1.79,9.67-3.19,14.92-4.88-.39-1.45-.85-3.35-1.42-5.21-1.31-4.23-2.73-8.42-4-12.66a27.42,27.42,0,0,1-.81-4.63c-.48-4,1-7,4.75-8.7.76-.36,1.49-.79,2.59-1.39-.52-2.05-.94-4.12-1.58-6.12-1-3.19.26-5.58,2.49-7.64,1.33-1.24,2.8-1.88,4.68-1a21.55,21.55,0,0,0,3.46.95c.41-1.07.78-2,1.09-2.85.56-1.62,1-3.3,1.65-4.86C148.08,11.26,152.19,10,157,13c4,2.48,6.54,6,6.89,10.76.53,7.27.83,14.56,1.5,21.81S167.05,60,168,67.67h9.21c6.6,0,8.25,1.05,10.66,7.1a12.47,12.47,0,0,0,6.06,6.33c5.49,3.05,11,6.14,16.26,9.52A51.76,51.76,0,0,1,224,103.32c1.87,2.5,3.79,4.86,6.87,6.24s3.38,4.65,3.85,7.67a48.64,48.64,0,0,0,1.58,6.13c.55,1.86,1.95,2.24,3.72,2a15.48,15.48,0,0,0,9-4.56c6.71-6.88,12-14.52,13.29-24.38.25-1.95.81-3.7,3-4.25S268.82,92.66,269.83,94.47Zm-2,20.78A22,22,0,0,0,270,103.61c-.3-2.7-.88-5.34-3.78-7.38-.36.89-.59,1.41-.77,1.94a10.54,10.54,0,0,0-.5,1.63C263,110,257,117.62,249.5,124.29a14.1,14.1,0,0,1-11,3.75c-3.17-.27-6.43-.19-6.66-5.25-3.31,3.6-5.71,6.89-7.14,10.76a8.85,8.85,0,0,0,.6,7.46,21.86,21.86,0,0,0,10.06,9.57c1.31.62,2.91.63,4.92,1-.46-1.72-.69-2.77-1-3.8-1.64-5.08-1.23-6.24,3.37-9.11,3.51-2.19,7.07-4.3,10.54-6.56A39.34,39.34,0,0,0,267.82,115.25Zm-20.24,58.28c1.48-1.41,2.55-3.11,1.31-5.29a5.29,5.29,0,0,0-5.89-2.36,40,40,0,0,0-4.87,2.11c.32,4.08.63,8,1,12.26C242.79,178.64,245.07,175.92,247.58,173.53Zm-4.34-12c.06-6.34-2.59-8.13-7.52-5-10.42,6.62-21.89,11.1-32.89,16.53a50.89,50.89,0,0,1-16.35,4.86c-4.82.6-9.66,1.15-14.4,2.14-15.44,3.21-31.11,4.32-46.79,5.33-5.84.38-11.75,1.22-17.53.73-13.08-1.12-26.11-2.84-39.14-4.5-5.8-.74-11.54-2-17.32-2.92a22.1,22.1,0,0,0-3.43,0c-.14,1.42-.25,2.52-.41,4.06,8.1,1.9,15.72,3.72,23.36,5.48a51.35,51.35,0,0,0,8.39,1.63c6.42.37,12.86.51,19.28.53,19.44.07,38.88,0,58.31.1a70,70,0,0,0,26.75-5c12.46-5,25-9.68,37.53-14.58,5.14-2,10.76-2.89,15.17-6.65.91-.78,2.37-.93,3.57-1.37Zm-6.13,31.36c2.9-2,3.48-4.13,2.46-7.79l-3.07,1.46c-4.38,2.06-8.66,4.36-13.15,6.12-14.83,5.82-30.31,9-46.08,11.1a593.3,593.3,0,0,1-69.61,5,125.25,125.25,0,0,1-24.31-1.93c-9-1.61-18-3-27-4.59a6.42,6.42,0,0,0-5.41,1l1.3,4.34c8.16.92,15.71,1.43,23.12,2.71C85.53,212,95.72,213.5,106,213.54c15.85.05,31.7-.35,47.55-.72a94.74,94.74,0,0,0,14.93-1.25c12.76-2.36,25.53-4.79,38.13-7.84,8.43-2,16.61-5.12,24.85-7.89A22.9,22.9,0,0,0,237.12,192.87Zm2,7.46-.68-3.7c-9.79,3.16-19.09,6.35-28.52,9.13-8.75,2.59-17.5,5.49-26.47,6.94a379.28,379.28,0,0,1-60.15,4.74A357.21,357.21,0,0,1,67,212.53c-4.12-.65-8.27-2.27-12.67-.85,0,3.36,2.71,3.33,4.79,3.68,6.33,1.05,12.67,2.25,19.06,2.74,13.09,1,26.21,1.84,39.33,2.29a297.93,297.93,0,0,0,53.36-3.48c7.05-1,14.2-1.47,21.21-2.73,13.23-2.38,26-6.71,38.66-11C233.46,202.28,236.13,201.35,239.11,200.33Zm-1.27,6a14.44,14.44,0,0,0-.16-3.08c-2.7.87-5,1.58-7.27,2.35-14.07,4.72-28.12,9.57-42.81,12-6.89,1.15-13.84,2.05-20.78,2.79-9.93,1.06-19.87,2.41-29.82,2.67-12,.32-24-.2-36-.66-10.12-.38-20.23-1.1-30.33-1.85-4.51-.33-9-1.09-14.5-1.78,2.45,4,4.36,7.33,6.42,10.53a8.14,8.14,0,0,0,6.75,3.85c5.27.34,10.52.91,15.78,1.44,15.76,1.57,31.47,3.76,47.41,2.48,11.24-.91,22.52-1.12,33.78-1.83,4-.25,7.91-1.41,11.87-1.54a110,110,0,0,0,24.52-3.63c8.82-2.33,17.53-5.06,26.25-7.75,3.08-1,5.84-2.61,6.74-6S237.21,209.69,237.85,206.34Zm-5.67-20.44c2.78-1,3.86-3,3.69-6s0-5.64,0-8.9a24.49,24.49,0,0,0-4.18-.72c-2.71,0-5.58,2.21-5.45,4.22.27,4.31.77,8.6,1.23,13.42C229.39,187.11,230.76,186.43,232.18,185.9Zm-1.39-30.24a26.5,26.5,0,0,0,3-2.17l-9.87-7.55c-2.87,1-5.27,1.9-7.71,2.67a583.14,583.14,0,0,1-76.46,18.73c-6.33,1.08-12.69,2.06-19.08,2.6-12.78,1.08-25.32-1.83-38-2.84-5.35-.43-10.66-1.47-16.12-2.26-3.37,4.9-8.22,7.77-14.51,10.32,2.84.82,4.68,1.54,6.59,1.88,6.19,1.08,12.39,2.07,18.61,3,11.87,1.8,23.77,3.46,35.83,3,22.13-.92,44.23-2.34,66-6.53,6.57-1.26,13.43-2.11,19.48-4.72C209.62,167,220.11,161.11,230.78,155.66Zm-.36,74.26c.39-1.21.91-2.38,1.78-4.6C177.65,242.53,123,244.07,67.5,235.38c.83,3.7,3.08,5.11,6.15,5.53,7.49,1,15,2.23,22.47,3a242.61,242.61,0,0,0,36.27,1.17c8.11-.38,16.22-.69,24.32-1.18,4.55-.27,9.09-.76,13.63-1.29,5.23-.61,10.43-1.7,15.68-2a184.71,184.71,0,0,0,40.78-7.44A4.76,4.76,0,0,0,230.43,229.92Zm0-111.07c2.22-3.34,1.84-4.43-2-6.51a6.76,6.76,0,0,0-1,.67c-12.22,11.48-27,18-43,21.9-11.54,2.83-23.37,3.79-35.09,5.46-16.68,2.39-33.37,1.26-50.06.91-8.52-.18-16.07-3.62-23.23-8l-8.68-5.35c-4.88,7.9-4.88,7.9-1,15.74a26,26,0,0,1,1.84,3.86c.94,3.05,3,4,6,4.31,10.09,1,20.15,2.23,30.21,3.5a106.8,106.8,0,0,0,29.06-.28c13.13-1.93,26.3-3.77,39.27-6.5,14.65-3.08,29.09-7.11,43.62-10.72a7.51,7.51,0,0,0,5.87-5.55,30,30,0,0,1,3.47-6.82C227.09,123.18,228.9,121.11,230.4,118.85Zm-6.53,70.82c-.59-5.6,1.45-11.17-2.36-16.25L210,177.83c.34,3,.54,5.55.94,8.06s.1,5.43,2,7.88Zm1.62-79.11a41.28,41.28,0,0,0-9-11c-7.86-7.23-17.08-12.36-26.61-17a8.4,8.4,0,0,0-7.82.18c-11.25,5.59-23.29,7.46-35.7,7.51-10.85,0-21.71,0-32.56.18A92.78,92.78,0,0,0,101,91.5a9.76,9.76,0,0,0-5.21,2.57,90.45,90.45,0,0,0-8.5,10.13c-2.91,4-5.49,8.32-8.08,12.57a67.17,67.17,0,0,0-4,7.54c-1.18,2.63-.9,3.68,1.37,5.09,6.58,4.1,13.4,7.69,21.34,8.22,7.4.5,14.81,1.07,22.23,1.27a123.55,123.55,0,0,0,15-.55c7.24-.68,14.43-1.89,21.67-2.57,14.7-1.36,29-4.13,42.91-9.38C209.37,122.77,217.54,117,225.49,110.57Zm-7.17,33.88c1.51-.41,3-.86,2.91-3-2.4-1.46-4.53-.35-6.68.24-9.48,2.62-18.85,5.8-28.47,7.74-18.6,3.75-37.3,7-56,10.1a90.31,90.31,0,0,1-33.65-.48c-7.26-1.52-14.59-2.67-21.92-3.87a31.84,31.84,0,0,0-5,0v4.08l21.93,4.51c15.71,3.26,31.47,3.77,47.17.18,7.22-1.65,14.25-4.17,21.47-5.83,12.09-2.78,24.3-5.06,36.39-7.83C203.78,148.62,211,146.43,218.32,144.45Zm-1.81,95a5.64,5.64,0,0,0-1.36-.34c-14.24,2.11-28.45,4.48-42.73,6.26-10.47,1.31-21,2.05-31.55,2.63-8.26.46-16.58,0-24.84.47a106,106,0,0,1-25.14-1.13c-1.52-.27-3.05-.46-5.74-.87,2.44,2.73,4,4.94,6,6.65A61.69,61.69,0,0,0,126,267.94c8.33.82,16.5-.36,24.69-1.75,20.42-3.44,39.91-9.57,58.09-19.64A18.78,18.78,0,0,0,216.5,239.45Zm-8.61-46.07c1.42-4.77,1.28-9.48-2.31-13.83l-5,2c0,5.2-.17,10.07.07,15C204,196.66,206.94,196.58,207.89,193.39Zm-10.54,1.66c.09-3.92,0-7.84,0-12.17-1.74.66-3,1.12-4.31,1.65-9.11,3.78-9.38,4.26-8.19,14.25,0,.13.14.24.48.8,3-.51,6.16-1,9.32-1.61A3,3,0,0,0,197.35,195.05Zm-10.69,66.57c-3.36-.12-5.14,1.72-6.34,4.56s-2.53,5.72-3.92,8.51c-1.65,3.32-3.5,6.53-5.11,9.86a57.89,57.89,0,0,0-2,5.69C175.12,286,185.95,267.9,186.66,261.62Zm-.74-184.3-3.37-5.7-4.48,8.51.81.79Zm-5.83,122.5c.71-3.2,2.2-6.45.23-9.79-.79.19-1.34.3-1.89.45-2.47.67-5,1.32-7.41,2-3.88,1.11-4.24,1.6-4,5.69.07,1.1.39,2.2.7,3.91,3.88-.47,7.25-.83,10.61-1.31C179,200.7,180,200.26,180.09,199.82ZM175,80.3A19.78,19.78,0,0,0,179.1,71c-5.47-.86-10.42.25-16.28,1.52,3,3,5.29,5.46,7.75,7.77C171.94,81.59,173.69,82.06,175,80.3Zm-4.93,3.78L160,74.76l-6.35,13.09ZM161,202.79c2.51-.73,3.52-2.18,3.37-4.74a25.6,25.6,0,0,0-.75-3.73H152.73v8.39C155.5,203.95,158.29,203.58,161,202.79Zm-.44-133.57c.11-1.21.24-1.91.22-2.6-.18-7.13-.12-14.28-.65-21.39-.56-7.52-1.52-15-2.67-22.49a12.71,12.71,0,0,0-3-5.94c-2.24-2.6-4.74-1.93-5.66,1.34a18.61,18.61,0,0,0-.63,5.49q.51,18,1.22,35.92c.15,3.8.62,7.59,1,11.78Zm-8.46,13.53c2-3.07,4.05-5.67,5.13-9.32L146.36,75.3ZM149.52,197c.07-2.45-.87-3.47-3.28-3.43-2.66.05-5.31.42-8.14.66v10h10.75C149.11,201.5,149.45,199.26,149.52,197Zm.43-110c-1.65-5.32-4.33-8.32-9-9.85l-4.9,10,.61.9C141,87.12,145.61,89.06,149.95,87.05Zm-5.5-42.47,1.22-.57c-.58-3.62-1-7.29-1.84-10.85a11.16,11.16,0,0,0-2.73-4.71c-.84-.89-2.93-1.85-3.54-1.43a5.07,5.07,0,0,0-2.07,3.84,13.19,13.19,0,0,0,2.11,6.33C139.53,39.91,142.13,42.15,144.45,44.59Zm-.3,28.18c1.73-6.82,1.13-13.4-.09-20.05-.95-5.18-3.91-8.39-8.61-10.3-3.2-1.3-5.89.15-6,3.63a20.1,20.1,0,0,0,1,6.71c2,6.25,4.19,12.44,6.34,18.64A28.38,28.38,0,0,0,138,74.09Zm-6.7,4.79a12.34,12.34,0,0,0-2.15,0c-1.62.36-3.21.81-5.39,1.37l4,5.15ZM134.5,204.11c0-2.27.1-4.53,0-6.77a2.82,2.82,0,0,0-3.32-3c-2.35.12-4.7.14-7.1.21-.69,3.79-1.33,7.07,0,10.72C127.54,205,131.06,206.23,134.5,204.11ZM132,87.38l-5.29-6.62c-2.52,1.71-4.13,3.52-4.2,7.18C125.55,87.91,128.39,88.51,132,87.38Zm-9.47-7.23h-10.8L118,86Zm-2.57,125c.66-3.9,1.49-7.35-.3-10.87h-9.85c0,3.34.05,6.16,0,9-.05,2.26,1.21,3.11,3.19,2.93C115.33,206,117.65,205.5,120,205.16ZM104.74,86.53c3-.51,5.3,2.08,8.34.76-3-4-5.78-6.08-8.72-6.48C104.47,82.63,104.59,84.4,104.74,86.53ZM106,206.15V194.33c-2.81-.92-5.48-1.71-8.47-.26v11.11Zm-12.22-.7c.39-4.19.94-7.9.14-11.73H84.82c-.12,3.87-1.54,7.2.28,10.8ZM91.59,259.9c-4-5.4-4.41-5.55-9.45-2.62-4.55,2.65-9.08,5.32-13.52,8.13a37.51,37.51,0,0,0-4.36,3.95c3.24,1,5.53,1,7.8-.14,3.2-1.54,6.44-3,9.65-4.54S88.25,261.51,91.59,259.9ZM79.95,202c2.26-2.12,1.65-5.16,1-8.08a19.91,19.91,0,0,0-2.6-.52c-1.26-.09-2.54,0-4.53,0-.18,2.87-.33,5.5-.49,8.13C75.73,202.74,78.18,203.63,79.95,202ZM70,201.83,71,192l-10.09-2.4c-.59,3.67-1.52,6.9-.65,10.36ZM53.12,170.59c13-2.43,15.93-19.63,9.58-26a10.62,10.62,0,0,0-1,1.33c-2.34,4.26-6.46,4.37-10.46,4.16-3.83-.2-5.49-3-6.53-6.41q-1.95-6.33-4.3-12.54c-.33-.86-1.54-2-2.22-2a7,7,0,0,0-3.5,1.83c-.51.45-.5,1.59-.57,2.42q-.31,3.84-.5,7.69c-.54,10.8,6.93,18.2,17.75,17.64,1.11-.06,2.21,0,3.75,0C54.4,162.79,53.77,166.64,53.12,170.59Zm4,22.37c.37-4.58-.18-5.08-5.69-5v11.26h4.89C56.65,196.86,57,194.92,57.14,193ZM48,189.37c.06-2-.67-3.28-2.62-3.81a4.84,4.84,0,0,0-5.62,1.93,6.17,6.17,0,0,0,3.65,9.43c1.33.39,2.72.54,4.57.91C48,194.72,47.9,192,48,189.37Z"/><path class="cls-2" d="M248.89,168.24c1.24,2.18.17,3.88-1.31,5.29-2.51,2.39-4.8,5.12-8.49,6.71-.33-4.26-.64-8.17-1-12.26a40,40,0,0,1,4.87-2.11A5.29,5.29,0,0,1,248.89,168.24Z"/><path class="cls-3" d="M235.73,156.51c4.93-3.13,7.58-1.35,7.52,5l-3.41,1.28c-1.21.45-2.66.59-3.57,1.37-4.41,3.77-10,4.64-15.17,6.65-12.5,4.89-25.07,9.6-37.53,14.58a70,70,0,0,1-26.75,5c-19.44-.12-38.88,0-58.31-.1-6.43,0-12.87-.15-19.28-.53a51.35,51.35,0,0,1-8.39-1.63c-7.64-1.76-15.27-3.58-23.36-5.48.15-1.54.27-2.64.41-4.06a22.1,22.1,0,0,1,3.43,0c5.78.94,11.51,2.18,17.32,2.92,13,1.67,26.06,3.39,39.14,4.5,5.78.49,11.69-.35,17.53-.73,15.68-1,31.35-2.11,46.79-5.33,4.74-1,9.58-1.54,14.4-2.14A50.89,50.89,0,0,0,202.84,173C213.84,167.61,225.3,163.12,235.73,156.51Z"/><path class="cls-2" d="M239.58,185.08c1,3.66.44,5.78-2.46,7.79a22.9,22.9,0,0,1-5.66,3c-8.24,2.77-16.42,5.85-24.85,7.89-12.6,3.05-25.37,5.48-38.13,7.84a94.74,94.74,0,0,1-14.93,1.25c-15.85.37-31.7.77-47.55.72-10.28,0-20.47-1.51-30.63-3.26-7.42-1.28-15-1.78-23.12-2.71L51,203.23a6.42,6.42,0,0,1,5.41-1c9,1.57,18,3,27,4.59a125.25,125.25,0,0,0,24.31,1.93,593.3,593.3,0,0,0,69.61-5c15.77-2.12,31.24-5.28,46.08-11.1,4.49-1.76,8.77-4.06,13.15-6.12Z"/><path class="cls-3" d="M238.43,196.63l.68,3.7c-3,1-5.65,2-8.33,2.85-12.71,4.29-25.43,8.62-38.66,11-7,1.26-14.16,1.7-21.21,2.73a297.93,297.93,0,0,1-53.36,3.48c-13.12-.45-26.24-1.28-39.33-2.29-6.39-.49-12.73-1.69-19.06-2.74-2.08-.35-4.8-.32-4.79-3.68,4.41-1.42,8.55.2,12.67.85a357.21,357.21,0,0,0,56.25,4.92,379.28,379.28,0,0,0,60.15-4.74c9-1.45,17.72-4.35,26.47-6.94C219.33,203,228.64,199.78,238.43,196.63Z"/><path class="cls-2" d="M237.69,203.25a14.44,14.44,0,0,1,.16,3.08c-.63,3.35-1.27,6.72-2.14,10s-3.66,5.06-6.74,6c-8.72,2.69-17.43,5.41-26.25,7.75a110,110,0,0,1-24.52,3.63c-4,.14-7.9,1.3-11.87,1.54-11.26.71-22.54.92-33.78,1.83-15.94,1.28-31.65-.9-47.41-2.48-5.26-.53-10.51-1.1-15.78-1.44a8.14,8.14,0,0,1-6.75-3.85c-2.06-3.2-4-6.5-6.42-10.53,5.51.69,10,1.45,14.5,1.78,10.1.75,20.21,1.47,30.33,1.85,12,.45,24,1,36,.66,10-.27,19.9-1.61,29.82-2.67,6.95-.74,13.89-1.64,20.78-2.79,14.69-2.46,28.74-7.31,42.81-12C232.69,204.83,235,204.12,237.69,203.25Z"/><path class="cls-3" d="M235.87,179.95c.17,2.94-.91,4.9-3.69,6-1.42.54-2.79,1.21-4.75,2.08-.46-4.83-1-9.12-1.23-13.42-.12-2,2.75-4.18,5.45-4.22a24.49,24.49,0,0,1,4.18.72C235.83,174.31,235.7,177.14,235.87,179.95Z"/><path class="cls-2" d="M233.81,153.49a26.5,26.5,0,0,1-3,2.17c-10.68,5.45-21.16,11.35-32.15,16.08-6,2.61-12.91,3.46-19.48,4.72-21.81,4.19-43.9,5.61-66,6.53-12.05.5-24-1.16-35.83-3-6.21-.94-12.42-1.93-18.61-3-1.91-.33-3.75-1.06-6.59-1.88,6.3-2.54,11.14-5.41,14.51-10.32,5.46.79,10.76,1.82,16.12,2.26,12.65,1,25.19,3.92,38,2.84,6.39-.54,12.75-1.52,19.08-2.6a583.14,583.14,0,0,0,76.46-18.73c2.45-.77,4.85-1.68,7.71-2.67Z"/><path class="cls-3" d="M232.2,225.32c-.86,2.22-1.38,3.39-1.78,4.6a4.76,4.76,0,0,1-3.63,3.21A184.71,184.71,0,0,1,186,240.57c-5.25.33-10.44,1.42-15.68,2-4.53.53-9.07,1-13.63,1.29-8.1.48-16.21.79-24.32,1.18a242.61,242.61,0,0,1-36.27-1.17c-7.52-.77-15-2-22.47-3-3.07-.42-5.32-1.82-6.15-5.53C123,244.07,177.65,242.53,232.2,225.32Z"/><path class="cls-2" d="M228.37,112.34c3.87,2.08,4.24,3.17,2,6.51-1.5,2.26-3.3,4.32-4.73,6.62a30,30,0,0,0-3.47,6.82,7.51,7.51,0,0,1-5.87,5.55c-14.53,3.6-29,7.64-43.62,10.72-13,2.73-26.15,4.58-39.27,6.5a106.8,106.8,0,0,1-29.06.28c-10.06-1.27-20.12-2.48-30.21-3.5-3-.3-5.11-1.25-6-4.31a26,26,0,0,0-1.84-3.86c-3.91-7.84-3.91-7.83,1-15.74l8.68,5.35c7.15,4.38,14.71,7.82,23.23,8,16.69.34,33.38,1.47,50.06-.91,11.72-1.67,23.55-2.63,35.09-5.46,16.05-3.94,30.8-10.43,43-21.9A6.76,6.76,0,0,1,228.37,112.34Z"/><path class="cls-2" d="M221.51,173.43c3.81,5.08,1.77,10.64,2.36,16.25L213,193.77c-1.91-2.45-1.6-5.27-2-7.88s-.6-5.06-.94-8.06Z"/><path class="cls-4" d="M216.49,99.52a41.28,41.28,0,0,1,9,11c-7.95,6.44-16.12,12.2-25.77,15.85-13.88,5.25-28.21,8-42.91,9.38-7.24.67-14.43,1.89-21.67,2.57a123.55,123.55,0,0,1-15,.55c-7.41-.21-14.82-.77-22.23-1.27-7.95-.54-14.77-4.12-21.34-8.22-2.27-1.41-2.55-2.46-1.37-5.09a67.17,67.17,0,0,1,4-7.54c2.6-4.25,5.17-8.54,8.08-12.57a90.45,90.45,0,0,1,8.5-10.13A9.76,9.76,0,0,1,101,91.5a92.78,92.78,0,0,1,12.76-1.12c10.85-.18,21.71-.14,32.56-.18,12.42,0,24.45-1.92,35.7-7.51a8.4,8.4,0,0,1,7.82-.18C199.41,87.16,208.63,92.29,216.49,99.52Z"/><path class="cls-3" d="M221.23,141.49c.11,2.09-1.4,2.55-2.91,3-7.29,2-14.53,4.17-21.9,5.86-12.09,2.77-24.3,5-36.39,7.83-7.22,1.66-14.25,4.18-21.47,5.83-15.71,3.59-31.46,3.08-47.17-.18l-21.93-4.51v-4.08a31.84,31.84,0,0,1,5,0c7.32,1.2,14.66,2.35,21.92,3.87a90.31,90.31,0,0,0,33.65.48c18.72-3.12,37.42-6.34,56-10.1,9.62-1.94,19-5.12,28.47-7.74C216.7,141.14,218.83,140,221.23,141.49Z"/><path class="cls-4" d="M215.14,239.11a5.64,5.64,0,0,1,1.36.34,18.78,18.78,0,0,1-7.69,7.1c-18.18,10.07-37.67,16.2-58.09,19.64-8.19,1.38-16.36,2.57-24.69,1.75a61.69,61.69,0,0,1-34.89-14.8c-2-1.71-3.56-3.93-6-6.65,2.69.4,4.22.6,5.74.87A106,106,0,0,0,116,248.48c8.26-.51,16.58,0,24.84-.47,10.54-.58,21.09-1.33,31.55-2.63C186.69,243.6,200.9,241.22,215.14,239.11Z"/><path class="cls-3" d="M205.58,179.56c3.59,4.35,3.73,9.06,2.31,13.83-.95,3.19-3.89,3.27-7.27,3.22-.24-4.94-.1-9.82-.07-15Z"/><path class="cls-2" d="M197.38,182.89c0,4.33.06,8.25,0,12.17a3,3,0,0,1-2.67,2.92c-3.16.62-6.34,1.11-9.32,1.61-.34-.56-.46-.67-.48-.8-1.19-10-.92-10.47,8.19-14.25C194.34,184,195.64,183.55,197.38,182.89Z"/><path class="cls-5" d="M180.31,266.19c1.2-2.85,3-4.68,6.34-4.56-.71,6.28-11.54,24.38-17.41,28.63a57.89,57.89,0,0,1,2-5.69c1.62-3.33,3.47-6.55,5.11-9.86C177.78,271.91,179.1,269.07,180.31,266.19Z"/><path class="cls-3" d="M182.55,71.62l3.37,5.7-7,3.6-.81-.79Z"/><path class="cls-3" d="M180.32,190c2,3.35.48,6.59-.23,9.79-.1.44-1.1.88-1.73,1-3.35.48-6.73.84-10.61,1.31-.31-1.72-.63-2.81-.7-3.91-.27-4.09.09-4.58,4-5.69,2.46-.7,4.94-1.35,7.41-2C179,190.33,179.53,190.21,180.32,190Z"/><path class="cls-2" d="M179.1,71A19.78,19.78,0,0,1,175,80.3c-1.33,1.76-3.08,1.29-4.46,0-2.47-2.31-4.79-4.78-7.75-7.77C168.67,71.25,173.62,70.14,179.1,71Z"/><path class="cls-3" d="M160,74.76l10.12,9.32-16.48,3.77Z"/><path class="cls-2" d="M164.4,198.05c.15,2.57-.87,4-3.37,4.74-2.74.79-5.53,1.16-8.29-.08v-8.39h10.92A25.6,25.6,0,0,1,164.4,198.05Z"/><path class="cls-6" d="M160.8,66.61c0,.69-.11,1.39-.22,2.6l-10.2,2.12c-.36-4.2-.82-8-1-11.78q-.72-18-1.22-35.92a18.61,18.61,0,0,1,.63-5.49c.92-3.27,3.43-3.94,5.66-1.34a12.71,12.71,0,0,1,3,5.94c1.15,7.46,2.11,15,2.67,22.49C160.68,52.33,160.62,59.48,160.8,66.61Z"/><path class="cls-2" d="M157.25,73.42c-1.08,3.66-3.09,6.25-5.13,9.32l-5.76-7.44Z"/><path class="cls-3" d="M146.24,193.58c2.41,0,3.35,1,3.28,3.43-.07,2.25-.41,4.49-.67,7.19H138.1v-10C140.93,194,143.58,193.63,146.24,193.58Z"/><path class="cls-3" d="M141,77.2c4.64,1.53,7.32,4.53,9,9.85-4.34,2-8.9.07-13.26,1.09l-.61-.9Z"/><path class="cls-6" d="M145.67,44l-1.22.57c-2.32-2.44-4.92-4.68-6.86-7.39a13.19,13.19,0,0,1-2.11-6.33A5.07,5.07,0,0,1,137.55,27c.61-.42,2.7.54,3.54,1.43a11.16,11.16,0,0,1,2.73,4.71C144.69,36.72,145.08,40.39,145.67,44Z"/><path class="cls-6" d="M144.06,52.71c1.22,6.65,1.82,13.23.09,20.05L138,74.09a28.38,28.38,0,0,1-1.28-2.71c-2.15-6.2-4.36-12.38-6.34-18.64a20.1,20.1,0,0,1-1-6.71c.14-3.48,2.83-4.93,6-3.63C140.15,44.32,143.11,47.53,144.06,52.71Z"/><path class="cls-2" d="M135.3,77.57a12.34,12.34,0,0,1,2.15,0l-3.54,6.54-4-5.15C132.08,78.38,133.68,77.94,135.3,77.57Z"/><path class="cls-2" d="M134.47,197.34c.13,2.24,0,4.49,0,6.77-3.44,2.12-7,.9-10.44,1.2-1.34-3.65-.7-6.93,0-10.72,2.39-.06,4.74-.08,7.1-.21A2.82,2.82,0,0,1,134.47,197.34Z"/><path class="cls-3" d="M126.71,80.76,132,87.38c-3.61,1.13-6.45.53-9.49.55C122.58,84.28,124.19,82.47,126.71,80.76Z"/><path class="cls-2" d="M111.72,80.15h10.8L118,86Z"/><path class="cls-3" d="M119.66,194.29c1.79,3.52,1,7,.3,10.87-2.31.35-4.63.81-7,1-2,.18-3.24-.66-3.19-2.93.06-2.81,0-5.62,0-9Z"/><path class="cls-3" d="M113.07,87.28c-3,1.32-5.38-1.26-8.34-.76-.14-2.13-.26-3.9-.39-5.73C107.29,81.2,110.12,83.33,113.07,87.28Z"/><path class="cls-2" d="M106,194.33v11.82l-8.47-1V194.07C100.5,192.62,103.18,193.41,106,194.33Z"/><path class="cls-3" d="M93.9,193.72c.8,3.83.24,7.54-.14,11.73l-8.67-.93c-1.81-3.6-.4-6.92-.28-10.8Z"/><path class="cls-5" d="M82.14,257.27c5-2.93,5.48-2.78,9.45,2.62-3.33,1.61-6.6,3.21-9.88,4.78s-6.44,3-9.65,4.54c-2.28,1.09-4.56,1.17-7.8.14a37.51,37.51,0,0,1,4.36-3.95C73.05,262.59,77.59,259.92,82.14,257.27Z"/><path class="cls-2" d="M81,193.89c.61,2.92,1.21,6-1,8.08-1.77,1.66-4.22.78-6.57-.49.16-2.63.31-5.27.49-8.13,2,0,3.26-.06,4.53,0A19.91,19.91,0,0,1,81,193.89Z"/><path class="cls-3" d="M71,192,70,201.83,60.24,200c-.88-3.45.06-6.69.65-10.36Z"/><path class="cls-4" d="M62.7,144.55c6.35,6.41,3.43,23.61-9.58,26,.65-3.94,1.28-7.79,2-11.88-1.54,0-2.64,0-3.75,0-10.82.55-18.28-6.85-17.75-17.64q.19-3.85.5-7.69c.07-.84.06-2,.57-2.42a7,7,0,0,1,3.5-1.83c.68-.08,1.9,1.11,2.22,2q2.35,6.19,4.3,12.54c1,3.38,2.71,6.21,6.53,6.41,4,.21,8.12.1,10.46-4.16A10.62,10.62,0,0,1,62.7,144.55Z"/><path class="cls-2" d="M51.45,187.91c5.5,0,6.06.47,5.69,5-.16,2-.49,3.9-.79,6.21H51.45Z"/><path class="cls-3" d="M45.36,185.56c2,.53,2.69,1.82,2.62,3.81-.09,2.67,0,5.35,0,8.45-1.86-.36-3.25-.51-4.57-.91a6.17,6.17,0,0,1-3.65-9.43A4.84,4.84,0,0,1,45.36,185.56Z"/></svg>