<svg id="圖層_1" data-name="圖層 1" xmlns="http://www.w3.org/2000/svg" viewBox="0 0 287.81 324.7"><defs><style>.cls-1{fill:#fff;}.cls-2{fill:#4f7434;}.cls-3{fill:#eabf29;}.cls-4{fill:#cf543f;}.cls-5{fill:#6a4e22;}</style></defs><title>chks</title><path d="M283.11,182.17a26.79,26.79,0,0,1,.69,13c-.69,4.19-2.29,8-3.76,11.81a15.91,15.91,0,0,1-3.59,5.05c-1.68,1.73-3,1.64-4.89.08a17.58,17.58,0,0,1-5.77-10.45c-.68-3.55-.84-7.19-1.26-10.79-.78-6.73-3.74-12.58-7.35-18.17-.36-.56-.68-1.14-1-1.71l-1.18.35a14.39,14.39,0,0,0-.89,3.29c-.16,6.57-.15,13.14-.31,19.72-.15,6-.36,12.1-.69,18.14-.28,5.15-.71,10.3-1.18,15.44a9.65,9.65,0,0,1-4.31,7.07c-12.43,9.17-25.34,17.51-39.63,23.53-1.12.47-2.2,1-3.32,1.46a5.22,5.22,0,0,0-3,3.23,65.79,65.79,0,0,1-13.27,20.33,14.42,14.42,0,0,1-2.76,2.34c-3.08,2-6.53.41-6.64-3.29a27.09,27.09,0,0,1,1.18-7.76,58,58,0,0,1,2.64-6.4,15.65,15.65,0,0,0,.53-2.2c-9.75,0-19.28.35-28.77-.1s-19-1.68-29-2.61c0,1.24,0,2.42,0,3.6,0,3.63,0,7.27,0,10.9a12.41,12.41,0,0,1-.27,2.94,5.42,5.42,0,0,1-4.59,4.18c-2.29.23-3.78-1-4.79-2.85a37.25,37.25,0,0,1-4.15-12.11,91.79,91.79,0,0,0-1.95-9,7.86,7.86,0,0,0-4.66-5.25c-2.8-1.27-5.57-2.64-8.27-4.12-7.23-4-14.41-8-21.61-12a9.84,9.84,0,0,0-2.35-1.17c-3.71-.86-6.09-3.37-8.14-6.33a47.8,47.8,0,0,0-5.44-6.9,29.19,29.19,0,0,0-.43,3.35c-.06,4.52.18,9-.09,13.55-.61,10.21-1.42,20.41-2.22,30.61-.28,3.62-.71,7.23-1.16,10.83-.52,4.2-1.39,4.88-5.55,4.54-1.54-.13-3.08-.23-4.6-.5-2.48-.44-3.42-1.37-3.69-3.92-.46-4.38-.72-8.77-1.12-13.16q-.58-6.24-1.29-12.47c-.62-5.41.06-10.75.59-16.12.6-6.12.83-12.29,1-18.44.1-4.07-.18-8.15-.31-12.22-.15-4.93-3.15-8-8.09-8.18-6.75-.18-9.5,2.83-10.58,7.73a63.7,63.7,0,0,1-2.55,8.18c-1.21,3.29-3,4.2-6.43,3.51-5.25-1.06-6.88-3-7-8.32-.3-11.32,5.2-19.5,14.16-25.68a15.11,15.11,0,0,1,4.92-1.8,4.21,4.21,0,0,0,3.44-3.87,31.19,31.19,0,0,1,1.48-5.37q1.81-5,3.85-9.83c2.74-6.51,7.14-11.87,12.11-16.74a97.68,97.68,0,0,1,8.33-7c5-3.93,10.14-7.75,15.2-11.63a27.08,27.08,0,0,0,7-8.7A118.34,118.34,0,0,1,94.58,99.25a63.13,63.13,0,0,1,10.67-8.78A199.29,199.29,0,0,1,124.49,79a40.79,40.79,0,0,1,11.41-3.9c2.79-.52,5.52-1.37,8.25-2.07-.7-6.63-4.53-9.69-10.73-8.73-1.74.27-3.43.8-5.17,1.07-4.87.75-7.11-2.12-5.28-6.74a12.07,12.07,0,0,1,9.73-7.93,22.35,22.35,0,0,1,12,.94c2.38.89,2.82.8,3.81-1.56,1.42-3.4,5.36-5.38,9.68-4.27l4.51,1.16c.54-1.16.92-2.06,1.37-2.92a7.89,7.89,0,0,1,6.4-4.1,3.8,3.8,0,0,1,3.5,1.44,11,11,0,0,1,2.9,9.44c-.59,3.24-1.44,6.43-2.19,9.64l-3.24,13.85A55.05,55.05,0,0,0,178,76.92c14,3.62,27.18,9.48,40,16.11a33.57,33.57,0,0,1,9.36,7.75c3,3.35,6.06,6.7,8.94,10.16a35.73,35.73,0,0,1,4.12,6c2.94,5.54,5.71,11.16,8.47,16.79a17.47,17.47,0,0,1,1.49,4.35,7.74,7.74,0,0,0,4,5.39q4.66,2.82,9.26,5.73c7.92,5,12.39,12.57,15.47,21.12C280.53,174.22,281.81,178.2,283.11,182.17Zm-7.43,24.13a37.24,37.24,0,0,0,3.22-17c-.16-4.1-1.61-8.17-2.63-12.21a70.52,70.52,0,0,0-2.59-8.5c-2-5-4.1-10.15-8.61-13.43a167.12,167.12,0,0,0-14.73-9.39c-2.77-1.6-4.21-3.61-4.4-6.79a15.7,15.7,0,0,0-1.16-5.09,99.54,99.54,0,0,0-18.06-28.23,42.25,42.25,0,0,0-16-11.44c-13.11-5.12-26.17-10.42-39.5-14.89-12.41-4.16-25.27-3.82-37.74-.1C120.76,83.07,110,90.74,100.14,99.43s-16.68,19.56-22.69,31c-1.33,2.54-2.26,5.27-5.52,6-.3.06-.54.36-.81.55C65.41,141.1,59.61,145.1,54,149.35c-7.3,5.53-13.4,12.14-17,20.71-1.93,4.67-3.44,9.51-5,14.32a10.23,10.23,0,0,0,.26,7.12A3.86,3.86,0,0,0,36,194.24a3.56,3.56,0,0,0,3.65-2.31,16.85,16.85,0,0,0,1.4-4.35,42.57,42.57,0,0,1,7-18.66c3.61-5.48,8.23-10,13-14.42,3.06-2.82,6.46-3.39,10.51-2.39-.13,3.28,2.32,3.94,4.64,4.73.83.28,1.67.56,2.51.79a239,239,0,0,0,54.65,8.52c3.72.17,7.5-.51,11.2-.17,10.92,1,21.78.1,32.66-.47,5.28-.27,10.56-.8,15.83-.67a155.67,155.67,0,0,0,25.3-1.93c4.17-.59,8.28-1.53,12.54-1.81s8.47-1.31,12.71-2c1.88-.29,3.58-.56,4.5-2.68.58-1.33,2.07-1.53,3.47-1s3.3,1.09,3.12,2.9c-.29,2.93,1.31,4.72,3,6.61a28.94,28.94,0,0,1,3.17,3.78c4.86,7.76,8.69,15.86,7.62,25.41,0,.22,0,.44,0,.66-.2,4.48,1.73,8.33,3.63,12.18.3.61,1.12,1,1.73,1.48.42-.44.74-.74,1-1.08A5.15,5.15,0,0,0,275.68,206.3Zm-25.11-39.4a35.78,35.78,0,0,0-.69-5.24,15.52,15.52,0,0,0-7.85.85c-.43,8.37-.82,16.49-1.26,24.6s-1,16-1.32,24-1.39,16.11-1.46,24.44c5.45-.44,8.12-2.92,8.61-7.21a20.41,20.41,0,0,1,.75-3.87A65.65,65.65,0,0,0,250,207c.26-6.13-.85-12.23-.17-18.38.36-3.25.09-6.56.21-9.85C250.18,174.79,250.52,170.85,250.57,166.9Zm-14.17,2.79a12.27,12.27,0,0,0,.07-3.92,2,2,0,0,0-2.59-1.83c-1.4.26-2.79.58-4.2.84-1.68.31-2.32,1.29-2.38,3-.31,8.9-.69,17.79-1.06,26.69-.59,14.27-.19,28.59-2.11,42.8a40.61,40.61,0,0,0,0,5.48c2.13.49,3.75.38,5-1.32a3.45,3.45,0,0,1,1.58-1.09c2.37-.83,3-2.67,3.12-4.91.1-3.08.33-6.16.27-9.23-.14-7.48-.45-15-.62-22.43A150.74,150.74,0,0,1,236.41,169.69Zm-12.52,9.11c.13-3.29.21-6.6.07-9.89-.1-2.35-.58-2.74-2.84-2.63a71.19,71.19,0,0,0-7.87.81c-2.14.34-2.87,1.51-2.75,3.79.09,1.87.32,3.73.28,5.59q-.25,11.71-.64,23.42c-.17,4.73-.46,9.45-.72,14.17-.4,7.25-.94,14.48-1.16,21.73-.11,3.48.35,7,.56,10.72,2.34-.33,4.27-.58,6.2-.86,3.8-.55,4.73-1.41,5.05-5.25.89-11,1.83-21.93,2.51-32.9C223.2,197.94,223.51,188.37,223.89,178.8Zm-4,69.86a6.74,6.74,0,0,0-3.31-.1c-3.35.53-6.69,1.18-10.06,1.58-6.87.8-13.75,1.57-20.65,2.15-4.81.4-9.64.54-14.47.61-2.51,0-5-.32-7.55-.51-4.72-.34-9.45-.5-14.14-1.06-12.11-1.47-24.19-3.24-36.31-4.6-2.69-.3-5.38-.53-8.06-1a48.13,48.13,0,0,0-5.23-.62c-1.36-.1-2.73,0-4.1,0l-.68,1.23a12.49,12.49,0,0,1,1.51.65c1.48.89,2.94,1.82,4.41,2.73a13.37,13.37,0,0,0,2,1.13c5.62,2.23,11.23,4.49,16.89,6.59a46.58,46.58,0,0,0,9.43,2.85,310.59,310.59,0,0,0,43.73,3,43.87,43.87,0,0,0,6.9-.59A112.6,112.6,0,0,0,217.84,250C218.56,249.61,219.21,249.11,219.89,248.66Zm-12.65-74.4c0-2-.2-4.11-.31-6.18-2.93-.82-5.51-.33-8.11.08-4.36.67-4.39.72-4.53,5.15-.2,6.15-.32,12.31-.72,18.45-1.12,17.26-.39,34.51.11,51.76a34,34,0,0,0,.8,4.59l5.9-.42c3.29-.22,3.73-.65,3.94-3.94.59-9.53,1.35-19.07,1.74-28.61C206.6,201.51,206.89,187.88,207.24,174.26ZM192.75,265c-3.75-.52-4.28-.37-5.72,2.76-1.37,3-2.53,6.07-3.63,9.17a6.59,6.59,0,0,0,0,5.42C187.58,279.73,191.86,271.77,192.75,265Zm-2.27-63.86c.09-10.12,0-20.25-.08-30.37,0-.54-.12-1.08-.19-1.7-3.18-1.47-6.25-.7-9.78.24-3,26.57-3.27,53.19-6.1,79.87a28,28,0,0,0,3.63.38q4.61-.15,9.22-.51c2.48-.19,2.82-.53,2.84-3s-.23-4.84-.2-7.26C190,226.18,190.36,213.64,190.48,201.1Zm-20.14,47.74c1.51-4.27,6.51-74,5.64-78.47H165c-1.83,4.79-5.05,74.1-3.67,78.47Zm3.09-198.72c.34-2.73-.34-5.25-3.24-6.86-2.52,1.08-3.57,3.11-4.51,5.24-3.33,7.57-3.62,15.74-5,24l7.51,1.25c.4-1.39.76-2.51,1-3.66.84-3.53,1.7-7,2.46-10.59C172.31,56.39,173,53.28,173.43,50.12Zm-13.7,129.54c.09-2.41-.19-4.82-.24-7.24A2.21,2.21,0,0,0,157,170c-1.87,0-3.73,0-5.6.06-2.92.11-3.2.35-3.37,3.23-.6,10.42-1.24,20.85-1.72,31.28-.51,11.09-.86,22.19-1.23,33.29-.1,3,0,6.1,0,9.42l11.1,1.82a23.66,23.66,0,0,0,.6-2.9c.38-5.7.79-11.4,1-17.11Q158.85,204.38,159.73,179.66Zm-2.6-113.35c1.46-4.4,2.57-8.56,2.4-13-.09-2.32-1.12-3.69-2.71-4a4.92,4.92,0,0,0-5,2.34,6.21,6.21,0,0,0-.36,6c1.3,2.64,2.88,5.14,4.38,7.67C156,65.66,156.45,65.82,157.13,66.31Zm-6.33,6.27c.93,0,1.87-.11,2.82-.18-.85-5.48-5.06-12-7.47-14.73-4.52-5-13-5.47-17.86-1.07-1.4,1.28-2.57,2.7-2.23,5,2.3.6,2.33.72,6.22-.39a11.1,11.1,0,0,1,13.39,6.17c.73,1.7,1.58,3.34,2.44,5.15C149.07,72.58,149.94,72.6,150.8,72.57Zm-8.4,101.37c0-.66-.06-1.32-.1-2a1.92,1.92,0,0,0-1.87-2,79.11,79.11,0,0,0-13.39-.26c-.43,7.1-1.11,13.9-1.21,20.7-.22,16.18-.2,32.37-.21,48.56a56.39,56.39,0,0,0,.7,6.32c2.93.36,5.64.79,8.37,1,2,.16,3.93,0,6.34,0,.34-4.21.86-7.93.9-11.64C142.16,214.46,142.27,194.21,142.41,173.95Zm-19,4.59c.2-3.12.53-6.34-.63-9.52l-13-1.08c-.13,2.53-.33,4.6-.33,6.67-.07,16-.14,31.91-.13,47.87,0,5.72.26,11.44.38,17.16,0,1.37.1,2.83,1.64,3.26,3.37.92,6.75,2,10.74,1.23,0-1.3,0-2.6,0-3.89C121.85,219.65,122.1,199.08,123.41,178.53Zm-2.21,102.75c.44-1.9,1.16-3.56,1.14-5.21a83.74,83.74,0,0,0-.82-10.17c-.59-4.29-3-5.92-7.68-5.47C113.4,267.42,116.85,277.59,121.21,281.28Zm-15-104.17c.29-3.13,0-6.3,0-9.28a8.18,8.18,0,0,0-1.34-.6c-2.81-.48-5.63-.92-9-1.47a53.6,53.6,0,0,0-.69,5.54c-.07,4.07.08,8.15.07,12.22q0,16.34-.14,32.69c0,2.52-.55,5.08-.26,7.56.51,4.47,1.39,8.9,2.26,13.32.95,4.83,2.79,5.93,8,4.82a28.73,28.73,0,0,0,.7-4.39q.17-15.52.17-31C106,196.69,105.27,186.9,106.2,177.11ZM93.67,240.3c-.09-1.86,0-3.24-.23-4.59-1.39-8.79-3-17.54-2.77-26.5.11-5.38,0-10.76,0-16.14,0-3.07.15-6.14.37-9.21.37-5.14.87-10.28,1.29-15.43.2-2.46-.22-3.63-1.82-4.09-2.15-.63-4.39-1-6.51-1.4a5.54,5.54,0,0,0-.61,1.33c-.21,3-.45,5.92-.55,8.87-.55,17,.5,34.06,1.3,51.06.17,3.5.73,7,1.24,10.46.54,3.64,1.38,4.44,4.93,5.13C91.17,239.95,92,240.05,93.67,240.3ZM82.17,236c-.34-2.61-.85-5.06-.95-7.53-.64-16.8-1.27-33.61-1.73-50.41-.11-4.16.42-8.33.6-12.5.13-2.73-.42-3.55-3-4.4-1.76-.58-3.57-1-6.05-1.72,0,2.1-.07,3.72,0,5.34.57,11.75,1.1,23.49,1.77,35.24.53,9.32,1.23,18.64,1.86,27.95C75,232,77.24,234.49,82.17,236Zm-16.66-8.39a10.75,10.75,0,0,0,6.74,5.31c-5-25.24-4.05-50.55-4.46-75.77a7.66,7.66,0,0,0-7.2,6.33A104.18,104.18,0,0,0,59.83,175c-.07,2,.2,3.94.32,5.92q.56,9,1.13,18.09c.35,5.37,1.06,10.74,1,16.1A23.5,23.5,0,0,0,65.51,227.64Zm-8.25-21.51a2.17,2.17,0,0,0,.48-1.72c-.33-3.82-.78-7.64-1-11.47-.26-4.92-.22-9.85-.5-14.78-.22-3.9-.73-7.78-1.17-12.35-6.38,7.53-8.53,16.13-10.54,25.36,5.06,1.54,7.42,5.34,9.53,9.41C55.05,202.47,56.2,204.28,57.27,206.13ZM55,239.63c.07-1.27-.08-2.55-.14-4.08l-10,.71c-.32,3.7-.59,7-.88,10.23-1,11.32-.21,22.61.78,33.89a7,7,0,0,0,.41,1.92,4.91,4.91,0,0,0,4.59,2.64c2-.26,1.8-2,2-3.3.44-2.71.93-5.42,1.15-8.15.42-5.14.67-10.3,1-15.45C54.35,251.91,54.73,245.77,55,239.63ZM53.82,222.9c1.64-1.75,1.25-4,0-6.48l-9.18.6c-.34,3.91.22,5.07,3,6.16C49.73,224,52.1,224.75,53.82,222.9Zm-.72,7.88c2.17-1.17,2.21-1.59.8-4.07H45.31A13.82,13.82,0,0,0,45,228.8c0,3,1.56,4.26,4.47,3.51A16.23,16.23,0,0,0,53.11,230.78Zm-4-16.82c4.38-.25,5.58-2.48,3.4-6.35a5.58,5.58,0,0,0-.76-.89,2.85,2.85,0,0,0-.79-.07c-1.58.41-3.17.82-4.74,1.29-2.16.65-2.83,1.71-2.52,3.83.26,1.85,1.59,2.16,3.12,2.2C47.61,214,48.38,214,49.14,214Zm-2.36-9.32c2.47-.34,3.31-1.93,1.9-4a75.41,75.41,0,0,0-5-5.84l-1.92,1.07C36.56,198.77,32.7,198,29,193.34a5.7,5.7,0,0,0-7.59-1.58c-3.09,1.73-6,3.89-7.5,7.21a126.25,126.25,0,0,0-4.54,12,7.14,7.14,0,0,0,.74,6.35A4.32,4.32,0,0,0,14,219.62c1.63-.11,1.75-1.76,2.18-3,1.07-3,2-6.06,3.19-9,3.13-7.78,13.62-10.39,20.05-5A9,9,0,0,0,46.79,204.64Z"/><path class="cls-1" d="M278.9,189.32a37.24,37.24,0,0,1-3.22,17,5.15,5.15,0,0,1-.75,1.08c-.27.34-.59.64-1,1.08-.62-.51-1.43-.86-1.73-1.48-1.9-3.85-3.82-7.7-3.63-12.18,0-.22,0-.44,0-.66,1.06-9.55-2.77-17.65-7.62-25.41a28.94,28.94,0,0,0-3.17-3.78c-1.7-1.89-3.29-3.68-3-6.61.18-1.8-1.68-2.36-3.12-2.9s-2.89-.33-3.47,1c-.92,2.12-2.63,2.39-4.5,2.68-4.23.66-8.44,1.69-12.71,2s-8.37,1.22-12.54,1.81a155.67,155.67,0,0,1-25.3,1.93c-5.27-.13-10.55.4-15.83.67-10.88.57-21.74,1.47-32.66.47-3.69-.34-7.48.34-11.2.17a239,239,0,0,1-54.65-8.52c-.85-.24-1.68-.51-2.51-.79-2.32-.79-4.77-1.45-4.64-4.73-4.05-1-7.45-.43-10.51,2.39-4.8,4.41-9.42,8.94-13,14.42a42.57,42.57,0,0,0-7,18.66,16.85,16.85,0,0,1-1.4,4.35A3.56,3.56,0,0,1,36,194.24a3.86,3.86,0,0,1-3.73-2.73,10.23,10.23,0,0,1-.26-7.12c1.57-4.81,3.07-9.65,5-14.32,3.55-8.57,9.66-15.19,17-20.71,5.62-4.24,11.41-8.25,17.13-12.37.27-.19.52-.49.81-.55,3.25-.71,4.19-3.44,5.52-6,6-11.47,12.94-22.43,22.69-31s20.62-16.36,33.39-20.16c12.47-3.72,25.33-4.06,37.74.1,13.33,4.47,26.39,9.77,39.5,14.89a42.25,42.25,0,0,1,16,11.44,99.54,99.54,0,0,1,18.06,28.23,15.7,15.7,0,0,1,1.16,5.09c.19,3.18,1.63,5.19,4.4,6.79a167.12,167.12,0,0,1,14.73,9.39c4.52,3.28,6.65,8.39,8.61,13.43a70.52,70.52,0,0,1,2.59,8.5C277.29,181.15,278.74,185.22,278.9,189.32Z"/><path class="cls-2" d="M249.89,161.66a35.78,35.78,0,0,1,.69,5.24c-.06,3.95-.4,7.89-.53,11.83-.12,3.28.15,6.6-.21,9.85-.68,6.15.43,12.25.17,18.38a65.65,65.65,0,0,1-2.64,17.53,20.41,20.41,0,0,0-.75,3.87c-.49,4.29-3.17,6.77-8.61,7.21.08-8.33,1.13-16.37,1.46-24.44s.89-16,1.32-24,.83-16.23,1.26-24.6A15.52,15.52,0,0,1,249.89,161.66Z"/><path class="cls-2" d="M236.48,165.77a12.27,12.27,0,0,1-.07,3.92,150.74,150.74,0,0,0-3,34.09c.17,7.48.48,15,.62,22.43.06,3.07-.17,6.15-.27,9.23-.08,2.24-.75,4.08-3.12,4.91a3.45,3.45,0,0,0-1.58,1.09c-1.24,1.7-2.87,1.81-5,1.32a40.61,40.61,0,0,1,0-5.48c1.91-14.21,1.51-28.53,2.11-42.8.37-8.9.76-17.79,1.06-26.69.06-1.71.69-2.69,2.38-3,1.4-.26,2.79-.58,4.2-.84A2,2,0,0,1,236.48,165.77Z"/><path class="cls-2" d="M224,168.91c.14,3.29.06,6.6-.07,9.89-.38,9.57-.69,19.14-1.29,28.69-.69,11-1.62,21.94-2.51,32.9-.32,3.83-1.25,4.7-5.05,5.25-1.93.28-3.86.53-6.2.86-.22-3.75-.67-7.24-.56-10.72.23-7.25.76-14.48,1.16-21.73.26-4.72.55-9.44.72-14.17q.4-11.7.64-23.42c0-1.86-.19-3.72-.28-5.59-.11-2.28.62-3.45,2.75-3.79a71.19,71.19,0,0,1,7.87-.81C223.38,166.17,223.86,166.56,224,168.91Z"/><path class="cls-1" d="M216.58,248.56a6.74,6.74,0,0,1,3.31.1c-.68.45-1.33,1-2,1.35a112.6,112.6,0,0,1-37.62,12.63,43.87,43.87,0,0,1-6.9.59,310.59,310.59,0,0,1-43.73-3,46.58,46.58,0,0,1-9.43-2.85c-5.67-2.09-11.27-4.36-16.89-6.59a13.37,13.37,0,0,1-2-1.13c-1.48-.91-2.93-1.84-4.41-2.73a12.49,12.49,0,0,0-1.51-.65l.68-1.23c1.37,0,2.74-.08,4.1,0a48.13,48.13,0,0,1,5.23.62c2.67.49,5.36.73,8.06,1,12.12,1.35,24.2,3.13,36.31,4.6,4.69.57,9.42.72,14.14,1.06,2.51.18,5,.54,7.55.51,4.82-.07,9.66-.21,14.47-.61,6.89-.57,13.78-1.35,20.65-2.15C209.89,249.74,213.23,249.09,216.58,248.56Z"/><path class="cls-2" d="M206.93,168.08c.11,2.08.36,4.14.31,6.18-.35,13.63-.64,27.25-1.18,40.87-.38,9.55-1.15,19.08-1.74,28.61-.2,3.29-.65,3.72-3.94,3.94l-5.9.42a34,34,0,0,1-.8-4.59c-.5-17.25-1.23-34.5-.11-51.76.4-6.14.52-12.3.72-18.45.14-4.44.17-4.48,4.53-5.15C201.42,167.75,204,167.26,206.93,168.08Z"/><path class="cls-3" d="M187,267.72c1.44-3.14,2-3.28,5.72-2.76-.89,6.81-5.17,14.77-9.33,17.35a6.59,6.59,0,0,1,0-5.42C184.5,273.8,185.66,270.71,187,267.72Z"/><path class="cls-2" d="M190.4,170.73c0,10.12.17,20.25.08,30.37-.12,12.54-.45,25.08-.64,37.63,0,2.42.22,4.84.2,7.26s-.36,2.83-2.84,3q-4.61.35-9.22.51a28,28,0,0,1-3.63-.38c2.82-26.67,3.08-53.29,6.1-79.87,3.53-.94,6.6-1.72,9.78-.24C190.28,169.66,190.4,170.19,190.4,170.73Z"/><path class="cls-2" d="M176,170.37c.86,4.5-4.13,74.21-5.64,78.47h-9.05c-1.38-4.38,1.84-73.69,3.67-78.47Z"/><path class="cls-4" d="M170.19,43.27c2.91,1.6,3.59,4.12,3.24,6.86-.4,3.15-1.12,6.27-1.8,9.38-.77,3.54-1.62,7.07-2.46,10.59-.27,1.15-.64,2.27-1,3.66l-7.51-1.25c1.42-8.26,1.71-16.43,5-24C166.62,46.38,167.66,44.34,170.19,43.27Z"/><path class="cls-2" d="M159.49,172.42c.05,2.41.33,4.83.24,7.24q-.89,24.72-1.92,49.44c-.24,5.71-.66,11.41-1,17.11a23.66,23.66,0,0,1-.6,2.9l-11.1-1.82c0-3.32-.09-6.37,0-9.42.37-11.1.72-22.2,1.23-33.29.47-10.43,1.11-20.86,1.72-31.28.17-2.88.45-3.12,3.37-3.23,1.87-.07,3.74-.08,5.6-.06A2.21,2.21,0,0,1,159.49,172.42Z"/><path class="cls-4" d="M159.53,53.35c.17,4.39-.94,8.55-2.4,13-.68-.48-1.14-.65-1.33-1-1.5-2.53-3.09-5-4.38-7.67a6.21,6.21,0,0,1,.36-6,4.92,4.92,0,0,1,5-2.34C158.41,49.67,159.44,51,159.53,53.35Z"/><path class="cls-4" d="M153.62,72.4c-1,.06-1.89.14-2.82.18s-1.73,0-2.7,0c-.86-1.81-1.72-3.45-2.44-5.15a11.1,11.1,0,0,0-13.39-6.17c-3.89,1.1-3.92,1-6.22.39-.34-2.34.83-3.76,2.23-5,4.82-4.4,13.35-4,17.86,1.07C148.56,60.35,152.77,66.92,153.62,72.4Z"/><path class="cls-2" d="M142.3,172c0,.66.1,1.32.1,2-.14,20.26-.24,40.52-.47,60.78,0,3.72-.56,7.43-.9,11.64-2.41,0-4.38.13-6.34,0-2.73-.22-5.44-.64-8.37-1a56.39,56.39,0,0,1-.7-6.32c0-16.19,0-32.38.21-48.56.1-6.8.77-13.6,1.21-20.7a79.11,79.11,0,0,1,13.39.26A1.92,1.92,0,0,1,142.3,172Z"/><path class="cls-2" d="M122.79,169c1.15,3.18.83,6.39.63,9.52-1.31,20.55-1.56,41.12-1.32,61.7,0,1.3,0,2.59,0,3.89-4,.76-7.37-.31-10.74-1.23-1.55-.42-1.62-1.89-1.64-3.26-.12-5.72-.38-11.44-.38-17.16,0-16,.06-31.91.13-47.87,0-2.07.2-4.14.33-6.67Z"/><path class="cls-3" d="M122.35,276.07c0,1.65-.7,3.31-1.14,5.21-4.36-3.69-7.81-13.86-7.36-20.86,4.66-.44,7.09,1.18,7.68,5.47A83.74,83.74,0,0,1,122.35,276.07Z"/><path class="cls-2" d="M106.25,167.82c0,3,.25,6.16,0,9.28-.93,9.8-.2,19.58-.19,29.37q0,15.52-.17,31a28.73,28.73,0,0,1-.7,4.39c-5.18,1.11-7,0-8-4.82-.88-4.42-1.75-8.85-2.26-13.32-.28-2.48.24-5,.26-7.56q.12-16.34.14-32.69c0-4.07-.14-8.15-.07-12.22a53.6,53.6,0,0,1,.69-5.54c3.35.55,6.16,1,9,1.47A8.18,8.18,0,0,1,106.25,167.82Z"/><path class="cls-2" d="M93.44,235.71c.21,1.34.15,2.73.23,4.59-1.64-.25-2.49-.35-3.34-.51-3.56-.69-4.39-1.49-4.93-5.13-.51-3.47-1.07-7-1.24-10.46-.8-17-1.85-34-1.3-51.06.1-3,.34-5.92.55-8.87a5.54,5.54,0,0,1,.61-1.33c2.12.44,4.35.78,6.51,1.4,1.6.46,2,1.63,1.82,4.09-.42,5.15-.92,10.29-1.29,15.43-.22,3.07-.34,6.14-.37,9.21-.05,5.38.09,10.76,0,16.14C90.48,218.16,92,226.92,93.44,235.71Z"/><path class="cls-2" d="M81.23,228.49c.09,2.47.61,4.93.95,7.53-4.93-1.53-7.18-4-7.45-8-.63-9.31-1.32-18.63-1.86-27.95-.66-11.74-1.2-23.49-1.77-35.24-.08-1.61,0-3.23,0-5.34,2.48.7,4.29,1.14,6.05,1.72,2.54.84,3.08,1.67,3,4.4-.18,4.17-.72,8.34-.6,12.5C80,194.88,80.58,211.69,81.23,228.49Z"/><path class="cls-2" d="M72.25,232.95a10.75,10.75,0,0,1-6.74-5.31,23.5,23.5,0,0,1-3.25-12.56c.07-5.36-.64-10.73-1-16.1q-.58-9-1.13-18.09c-.12-2-.39-3.95-.32-5.92a104.18,104.18,0,0,1,.77-11.46,7.66,7.66,0,0,1,7.2-6.33C68.2,182.4,67.24,207.71,72.25,232.95Z"/><path class="cls-1" d="M57.74,204.41a2.17,2.17,0,0,1-.48,1.72c-1.07-1.85-2.21-3.66-3.2-5.55-2.11-4.07-4.46-7.87-9.53-9.41,2-9.23,4.16-17.83,10.54-25.36.45,4.57,1,8.45,1.17,12.35.28,4.92.24,9.86.5,14.78C57,196.77,57.41,200.59,57.74,204.41Z"/><path class="cls-5" d="M54.91,235.55c.06,1.53.21,2.81.14,4.08-.32,6.14-.7,12.28-1.07,18.42-.31,5.15-.56,10.31-1,15.45-.22,2.73-.71,5.44-1.15,8.15-.22,1.34,0,3-2,3.3a4.91,4.91,0,0,1-4.59-2.64,7,7,0,0,1-.41-1.92c-1-11.28-1.77-22.57-.78-33.89.28-3.27.56-6.53.88-10.23Z"/><path class="cls-1" d="M53.86,216.43c1.21,2.43,1.6,4.72,0,6.48s-4.1,1.1-6.17.28c-2.75-1.08-3.31-2.24-3-6.16Z"/><path class="cls-1" d="M53.9,226.72c1.41,2.48,1.37,2.89-.8,4.07a16.23,16.23,0,0,1-3.64,1.52c-2.9.75-4.44-.5-4.47-3.51a13.82,13.82,0,0,1,.31-2.08Z"/><path class="cls-1" d="M52.55,207.61c2.17,3.87,1,6.09-3.4,6.35-.76,0-1.54,0-2.3,0-1.52,0-2.85-.35-3.12-2.2-.31-2.12.36-3.18,2.52-3.83,1.57-.47,3.16-.88,4.74-1.29a2.85,2.85,0,0,1,.79.07A5.58,5.58,0,0,1,52.55,207.61Z"/><path class="cls-5" d="M48.69,200.69c1.41,2,.57,3.61-1.9,4a9,9,0,0,1-7.4-2c-6.43-5.38-16.92-2.77-20.05,5-1.19,2.95-2.12,6-3.19,9-.43,1.21-.56,2.85-2.18,3a4.32,4.32,0,0,1-3.79-2.28A7.14,7.14,0,0,1,9.42,211,126.25,126.25,0,0,1,14,199c1.48-3.32,4.4-5.48,7.5-7.21A5.7,5.7,0,0,1,29,193.34c3.65,4.65,7.51,5.43,12.71,2.58l1.92-1.07A75.41,75.41,0,0,1,48.69,200.69Z"/></svg>