<svg id="圖層_1" data-name="圖層 1" xmlns="http://www.w3.org/2000/svg" viewBox="0 0 287.81 324.7"><defs><style>.cls-1{fill:#eabf29;}.cls-2{fill:#fff;}.cls-3{fill:#6a4e22;}.cls-4{fill:#4f7434;}</style></defs><title>chks</title><path class="cls-1" d="M112.36,164.33c-1.7,2.3-2.3,2.44-6.33,1.36C107.3,163,109.44,162.57,112.36,164.33Z"/><path class="cls-2" d="M41.13,172.76c-4.72-2.41-9.25-5.14-12.82-9.16a8.57,8.57,0,0,1-1.95-8.09c.89-3.68,3.09-4.41,6-1.86,1.39,1.22,2.39,3,3.93,3.88,3.62,2.12,4.76,5.26,4.87,9.17a46,46,0,0,0,.84,5.71Z"/><path class="cls-3" d="M265.48,168c2.37.1,4.44,2.06,4.26,4-.15,1.71-2.14,3-4.51,2.82A3.86,3.86,0,0,1,262,171,3,3,0,0,1,265.48,168Z"/><path class="cls-3" d="M258.58,169.14c.19,1.69.37,3.24.57,5H248.5c.48-1.8.88-3.31,1.34-5Z"/><path class="cls-1" d="M134.07,55.56a26.54,26.54,0,0,1-.32,2.83l-6.54-.47c1.52-9.14,2.3-18.15,4.68-27.56.74.89,1.31,1.27,1.42,1.75a21.65,21.65,0,0,1,.67,4.43C134.07,42.89,134.07,49.22,134.07,55.56Z"/><path d="M166.27,159.89c2.94,1,3.66,4.08,1.52,6.4-1.67,1.8-3.56,3.36-6,2.85-4.06,0-5.83-1.23-6.18-4a4.2,4.2,0,0,1,2.55-4.81A10.77,10.77,0,0,1,166.27,159.89Zm-7.67,4.82c.06.55.92,1.27,1.55,1.42,2.28.56,4.15-.48,5.79-3.21a7.88,7.88,0,0,0-6.27-.07A2.23,2.23,0,0,0,158.61,164.71Z"/><path d="M106,165.69c4,1.08,4.63.94,6.33-1.36C109.44,162.57,107.3,163,106,165.69Zm3.05-5.33a22,22,0,0,1,3.1.36,4,4,0,0,1,3.12,2.88,3.92,3.92,0,0,1-1.71,4.19,9.44,9.44,0,0,1-7.5,1.7c-1.84-.26-2.64-1.66-3-3.35-.4-2,.12-3.65,1.76-4.45A25.87,25.87,0,0,1,109.08,160.36Z"/><path class="cls-1" d="M165.95,162.93c-1.64,2.73-3.52,3.77-5.79,3.21-.63-.15-1.49-.88-1.55-1.42a2.23,2.23,0,0,1,1.07-1.85A7.88,7.88,0,0,1,165.95,162.93Z"/><path class="cls-4" d="M117.45,254.58a18.75,18.75,0,0,0,4.78.67c4.62.09,9.25,0,11.84,0,10.26.76,18.43.71,26.45-1.6,4.1-1.17,8.21-2.32,12.37-3.23a47.92,47.92,0,0,0,13.59-5.74,63.68,63.68,0,0,0,15.29-12.34c5.88-6.45,11.35-13.11,15.55-20.74a67.48,67.48,0,0,0,4.39-9.78c3-8.39,4.71-17.12,6.6-25.82a58.62,58.62,0,0,0-.06-24c-1.07-5.44-2.36-10.85-3.76-16.21a60.59,60.59,0,0,0-3.21-9.51q-4.05-9-8.61-17.79c-3.52-6.79-8.19-12.57-15.1-16.29-12.9-7-25.35-14.67-39.67-18.86A82.58,82.58,0,0,0,133,69.6c-1.85,0-3.7,0-5.55,0-2.74,0-5.58-.38-8.21.18-5.53,1.17-11,2.69-16.41,4.36C95,76.61,88,81.05,80.94,85.24a46.3,46.3,0,0,0-9.45,7.55c-5.89,6-9.63,13.22-12.31,21.08-1.61,4.7-2.86,9.6-5.08,14-4,8-5.21,16.44-5.25,25.18q-.07,12.46,0,24.93a18.31,18.31,0,0,0,.47,4.1c1.48,6.3,2.94,12.61,4.6,18.86A37.11,37.11,0,0,0,57,209.71c6,10.62,13.12,20.4,22.22,28.68a45.65,45.65,0,0,0,18.27,10.25C104.19,250.58,110.8,252.67,117.45,254.58ZM230.2,143.72a13.44,13.44,0,0,0,.36,2c.7,4.56,1.39,9.11,2,13.27-.74,6.69-1.31,12.9-2.14,19.07-1.42,10.44-4.37,20.55-7.26,30.65a25.25,25.25,0,0,1-2.94,6.25c-2.44,3.92-5.05,7.74-7.69,11.54-3.47,5-8.26,8.68-12.69,12.75-3.92,3.61-8.48,6.24-12.76,9.3a37.08,37.08,0,0,1-9.87,4.79c-8.56,2.93-17.16,5.3-26.43,4.64s-18.42-.43-27.6-1c-7.89-.51-15.38-3.08-22.84-5.59-2.51-.85-5-1.9-7.46-2.81A59.39,59.39,0,0,1,74.67,238c-3.17-2.7-6.45-5.28-9.57-8a41.23,41.23,0,0,1-9.22-12.06,83.34,83.34,0,0,1-8.61-27c-.49-3.31-1.17-6.59-1.77-9.88a6.19,6.19,0,0,1-.2-1c-.07-6.8-.16-13.61-.18-20.41q0-6.58.08-13.15a54.39,54.39,0,0,1,3.57-17.94c.88-2.38,1.38-4.89,2.21-7.29A117.76,117.76,0,0,1,67,91.09,48.34,48.34,0,0,1,83,76.91c10.85-6,22-11.23,34.26-13.89a28.4,28.4,0,0,1,4.81-.35c.57,0,1.17.29,1.71.19,6.16-1.13,11.87.71,17.62,2.46a39.19,39.19,0,0,0,5.45,1c10.85,1.66,20.89,5.86,31,10a109.87,109.87,0,0,1,21.74,11.47c9.54,6.68,16.73,15.18,20.9,26.16,2.09,5.51,4.53,10.88,6.69,16.36C228.84,134.59,230.21,139,230.2,143.72Z"/><path class="cls-2" d="M234.22,174.72l4.1,3.07H234C234.1,176.83,234.15,176.05,234.22,174.72Z"/><path d="M246.81,165.17h7C251.54,163.19,250.26,163.22,246.81,165.17Zm1.69,9h10.65c-.2-1.8-.38-3.35-.57-5h-8.73C249.38,170.87,249,172.39,248.5,174.18ZM262,171a3.86,3.86,0,0,0,3.23,3.88c2.37.14,4.36-1.11,4.51-2.82.18-2-1.89-3.95-4.26-4A3,3,0,0,0,262,171Zm-22.14-1.85V173c4.7.23,5.57-.48,5.19-4C242.4,168.09,242.4,168.09,239.85,169.11ZM133.75,58.39a26.54,26.54,0,0,0,.32-2.83c0-6.34,0-12.68-.09-19a21.65,21.65,0,0,0-.67-4.43c-.11-.48-.67-.86-1.42-1.75-2.38,9.41-3.15,18.42-4.68,27.56ZM28.12,148.49c3.46.39,6.92.9,8.88,4.46a17.58,17.58,0,0,0,2.61,2.73A71.38,71.38,0,0,0,41,148.4a105.62,105.62,0,0,1,7.11-29.23c2.83-7.32,6.21-14.44,9.59-21.54a33.74,33.74,0,0,1,4.64-6.88c2.88-3.47,5.94-6.79,9-10.07a39.77,39.77,0,0,1,12.71-8.91Q95,66.86,105.95,61.94a64.84,64.84,0,0,1,18.63-5c.42-2.54.84-5,1.25-7.49C127,42.69,128.1,36,129.27,29.25c.22-1.22.34-2.56,2.07-2.76,2-.23,3.64.3,4.41,2a12,12,0,0,1,1.07,4.33c.3,7.62,1.22,15.23.21,22.88-.4,3,.18,3.63,3.27,4.07,3.55.51,7.13.76,10.67,1.35a25.77,25.77,0,0,1,6,1.73c14.87,6.43,29.68,13,43.43,21.66A25.8,25.8,0,0,1,204.13,87c9.19,8.41,17.72,17.28,21.33,29.74,2.1,7.21,4.45,14.36,6.78,21.5a55.61,55.61,0,0,1,2.42,16.06c.07,3,.26,6,.41,9.29,1.5-.25,2.73-.41,3.94-.65,3.62-.74,7.25-1.49,10.86-2.29,2.8-.62,5.14,0,6.57,2.58,1.21,2.14,2.89,2.25,5,1.94a25.56,25.56,0,0,1,5.86-.31c4,.35,6.3,3,6.35,6.91,0,3.09-2.59,5.88-6.32,6.12-4,.25-8,0-12.07.06a7.57,7.57,0,0,0-3.38.37c-4.78,2.62-10,2.43-15.2,2.91-1.12.11-2.25.11-3.3.16-1.42,5.87-2.59,11.52-4.17,17.06s-3.37,11-5.43,16.42a27.25,27.25,0,0,1-4.31,7.08c-4.27,5.32-8.76,10.47-13.18,15.66-3.89,4.56-9.12,7.42-13.79,11-9,6.89-19.65,9.64-30.26,12.39a36.3,36.3,0,0,1-12.34.76c-8.63-.78-17.33-.82-26-1.31a33.45,33.45,0,0,1-7.49-1.22c-11.32-3.32-22.64-6.69-33.26-11.94-11.7-5.78-22.06-13.14-28.59-24.89a93.11,93.11,0,0,1-9.93-28.73c-.58-3.18-.83-6.43-1.49-9.59-.88-4.15-1.81-8.31-6.34-10.34-2.2-1-4.14-2.57-6.34-3.56a8.7,8.7,0,0,1-4.29-3.85c-.84-1.51-1.63-3.06-2.49-4.56-2-3.42-1.07-7-.36-10.45C23.64,149.75,26.15,148.27,28.12,148.49Zm202.32,29.6c.84-6.17,1.4-12.38,2.14-19.07-.64-4.16-1.33-8.71-2-13.27a13.44,13.44,0,0,1-.36-2c0-4.71-1.36-9.12-3.05-13.43-2.15-5.48-4.6-10.86-6.69-16.36-4.17-11-11.36-19.48-20.9-26.16a109.87,109.87,0,0,0-21.74-11.47c-10.06-4.11-20.1-8.3-31-10a39.19,39.19,0,0,1-5.45-1c-5.75-1.75-11.47-3.58-17.62-2.46-.54.1-1.14-.22-1.71-.19a28.4,28.4,0,0,0-4.81.35C105.06,65.68,93.86,70.88,83,76.91A48.34,48.34,0,0,0,67,91.09,117.76,117.76,0,0,0,51,121.31c-.83,2.4-1.33,4.92-2.21,7.29a54.39,54.39,0,0,0-3.57,17.94q-.12,6.57-.08,13.15c0,6.8.11,13.61.18,20.41a6.19,6.19,0,0,0,.2,1c.59,3.29,1.28,6.57,1.77,9.88a83.34,83.34,0,0,0,8.61,27A41.23,41.23,0,0,0,65.1,230c3.13,2.75,6.41,5.33,9.57,8A59.39,59.39,0,0,0,92.9,248.57c2.49.92,4.95,2,7.46,2.81,7.45,2.51,15,5.08,22.84,5.59,9.18.6,18.43.37,27.6,1s17.87-1.71,26.43-4.64a37.08,37.08,0,0,0,9.87-4.79c4.28-3.06,8.84-5.69,12.76-9.3,4.42-4.07,9.22-7.76,12.69-12.75,2.64-3.8,5.25-7.62,7.69-11.54a25.25,25.25,0,0,0,2.94-6.25C226.07,198.64,229,188.53,230.44,178.09ZM32.35,153.65c-2.9-2.55-5.1-1.82-6,1.86a8.57,8.57,0,0,0,1.95,8.09c3.58,4,8.1,6.76,12.82,9.16l.86-.35a46,46,0,0,1-.84-5.71c-.11-3.91-1.25-7.05-4.87-9.17C34.74,156.63,33.74,154.87,32.35,153.65ZM234,177.79h4.28l-4.1-3.07C234.15,176.05,234.1,176.83,234,177.79Z"/><path class="cls-2" d="M155.62,165.14c.35,2.78,2.12,4,6.18,4,2.43.51,4.32-1,6-2.85,2.14-2.32,1.41-5.38-1.52-6.4a10.77,10.77,0,0,0-8.1.43A4.2,4.2,0,0,0,155.62,165.14Zm-52.52,1c.34,1.68,1.14,3.08,3,3.35a9.44,9.44,0,0,0,7.5-1.7,3.92,3.92,0,0,0,1.71-4.19,4,4,0,0,0-3.12-2.88,22,22,0,0,0-3.1-.36,25.87,25.87,0,0,0-4.22,1.33C103.23,162.48,102.71,164.15,103.1,166.14Zm19-92.57c13.74-1.32,26.85.91,40,4.61a85.74,85.74,0,0,1,21,9.57c3.27,2,6.56,3.9,9.91,5.74a42.89,42.89,0,0,1,14.89,13.77c7.15,10.46,11.63,22.07,14.44,34.33,1.5,6.52,2.49,13.16,3.58,19.77a32.19,32.19,0,0,1,0,5.18c-.1,8.31-2.31,16.22-4.38,24.17-.32,1.23-.65,2.45-1,3.67a64.89,64.89,0,0,1-14.81,27.48A110,110,0,0,1,191.11,236c-9.52,7.41-20.51,11.78-32.37,14.32-12.16,2.61-24.33,2.36-36.53,1.38a49.06,49.06,0,0,1-11.75-2.88c-12.22-4.18-23.73-9.78-33.74-18.09a34.08,34.08,0,0,1-5.38-5.37A174.8,174.8,0,0,1,61.1,211a43.64,43.64,0,0,1-4-9.91,81.37,81.37,0,0,1-2.77-11.45A135.3,135.3,0,0,1,53,175.84c-.27-5.08.18-10.22-.44-15.24-.74-5.94.09-11.76.24-17.63a16.61,16.61,0,0,1,.91-5.1c3.37-9.47,6.66-19,10.37-28.32C68.19,99.3,75,91.39,85.25,86.69c2.62-1.21,5.08-2.76,7.6-4.18A72.94,72.94,0,0,1,122.07,73.56Z"/><path class="cls-2" d="M253.81,165.17h-7C250.26,163.22,251.54,163.19,253.81,165.17Z"/><path d="M110.46,248.86a49.06,49.06,0,0,0,11.75,2.88c12.2,1,24.38,1.22,36.53-1.38,11.86-2.54,22.85-6.91,32.37-14.32a110,110,0,0,0,14.69-14.2,64.89,64.89,0,0,0,14.81-27.48c.31-1.23.64-2.45,1-3.67,2.07-7.94,4.27-15.86,4.38-24.17a32.19,32.19,0,0,0,0-5.18c-1.09-6.61-2.08-13.25-3.58-19.77-2.82-12.25-7.29-23.87-14.44-34.33A42.89,42.89,0,0,0,193,93.47c-3.35-1.83-6.63-3.78-9.91-5.74a85.74,85.74,0,0,0-21-9.57c-13.16-3.69-26.27-5.93-40-4.61a72.94,72.94,0,0,0-29.22,8.94c-2.52,1.42-5,3-7.6,4.18C75,91.39,68.19,99.3,64.11,109.55c-3.72,9.34-7,18.85-10.37,28.32a16.61,16.61,0,0,0-.91,5.1c-.15,5.87-1,11.69-.24,17.63.63,5,.17,10.16.44,15.24a135.3,135.3,0,0,0,1.33,13.77,81.37,81.37,0,0,0,2.77,11.45,43.64,43.64,0,0,0,4,9.91A174.8,174.8,0,0,0,71.33,225.4a34.08,34.08,0,0,0,5.38,5.37C86.73,239.08,98.24,244.68,110.46,248.86ZM228.25,152a58.62,58.62,0,0,1,.06,24c-1.89,8.69-3.6,17.43-6.6,25.82a67.48,67.48,0,0,1-4.39,9.78c-4.2,7.63-9.67,14.3-15.55,20.74a63.68,63.68,0,0,1-15.29,12.34,47.92,47.92,0,0,1-13.59,5.74c-4.16.91-8.27,2.06-12.37,3.23-8,2.3-16.19,2.36-26.45,1.6-2.59,0-7.21.06-11.84,0a18.75,18.75,0,0,1-4.78-.67c-6.66-1.92-13.27-4-19.92-5.94a45.65,45.65,0,0,1-18.27-10.25c-9.09-8.28-16.21-18.07-22.22-28.68a37.11,37.11,0,0,1-3.15-8.77c-1.66-6.25-3.12-12.56-4.6-18.86a18.31,18.31,0,0,1-.47-4.1q-.05-12.46,0-24.93c0-8.74,1.21-17.18,5.25-25.18,2.22-4.4,3.47-9.3,5.08-14,2.69-7.86,6.42-15.09,12.31-21.08a46.3,46.3,0,0,1,9.45-7.55c7.07-4.19,14-8.63,21.92-11.08,5.4-1.67,10.88-3.19,16.41-4.36,2.63-.56,5.47-.16,8.21-.18,1.85,0,3.7,0,5.55,0a82.58,82.58,0,0,1,24.87,3.74c14.32,4.19,26.77,11.9,39.67,18.86,6.91,3.73,11.58,9.51,15.1,16.29q4.54,8.77,8.61,17.79a60.59,60.59,0,0,1,3.21,9.51C225.88,141.16,227.18,146.57,228.25,152Z"/><path class="cls-3" d="M239.85,173v-3.87c2.55-1,2.55-1,5.19-.14C245.43,172.5,244.56,173.21,239.85,173Z"/></svg>