<svg id="圖層_1" data-name="圖層 1" xmlns="http://www.w3.org/2000/svg" viewBox="0 0 287.81 324.7"><defs><style>.cls-1{fill:#545757;}.cls-2{fill:#fff;}.cls-3{fill:#e6aa2b;}.cls-4{fill:#cf543f;}.cls-5{fill:none;}</style></defs><title>chks</title><path d="M217,253c-.47-5.68-2.53-7.57-8.29-7.81-6.73-.27-13.48-.52-20.19-1.12-6.11-.54-12.17-1.68-18.27-2.32a133.12,133.12,0,0,0-13.85-.85c-8.09,0-16.18.46-24.27.42-8.54,0-17.08-.6-25.62-.65-3.91,0-8-.52-11.43,2.42-.48.42-1.44.29-2.41.45-.29,4.25-.78,8.2-.85,12.11,0-.17,0-.34,0-.51,0-4.3.53-8.61.85-13.28,1-.17,1.93,0,2.41-.45,3.38-2.94,7.53-2.45,11.43-2.42,8.54.05,17.08.6,25.62.65,8.09,0,16.17-.43,24.26-.42a133.14,133.14,0,0,1,13.85.85c6.1.64,12.16,1.77,18.27,2.32,6.71.6,13.45.84,20.19,1.12,5.75.24,7.82,2.12,8.29,7.81.33,4,.49,8,.45,12C217.41,259.9,217.24,256.47,217,253Z"/><path class="cls-1" d="M132.1,241.83c8.09,0,16.18-.44,24.27-.43a130.65,130.65,0,0,1,13.85.87c6.1.66,12.16,1.81,18.27,2.36,6.71.61,13.45.86,20.19,1.14,5.76.24,8.18,2.17,8.65,8,.28,3.49.82,7,.82,10.47v.15a102,102,0,0,1-2.2,19.06c-.74,3.88-2.19,7.64-3,11.5C211.4,302,206.4,305.35,200,306.62c-4.81,1-9.84,1.06-14.75,1.44-6.85.54-13.73,1.17-20.6,1.43-5.65.21-11.34.13-17-.2a95.94,95.94,0,0,0-13.29.18c-5,.4-10.12-.4-15.18-.78-3-.22-6-.59-8.92-.94-5.53-.63-10-3.94-14.9-6.19-1.86-.86-2.69-2.81-2.78-4.93s-.45-4.27-.49-6.41c-.24-11.26-1-22.52-1-33.77v0c0-4,.88-8,1.18-12.33,1-.16,2.09,0,2.57-.46,3.38-3,7.6-2.49,11.51-2.46C114.94,241.22,123.56,241.78,132.1,241.83Z"/><path class="cls-2" d="M174.76,86.35c-.6-.22-1.61.64-3.21,1.34,1.52,1.23,2.28,2.13,3.25,2.56q4.87,2.2,9.89,4.08a4.94,4.94,0,0,0,3,.1,1.48,1.48,0,0,0,.33-2.76C183.64,89.76,179.22,88,174.76,86.35ZM136.65,75.06a3.34,3.34,0,0,0-3-.61c-1.07.52-1.75,1.82-2.58,2.77,1.67,1.9,3.21,1.9,4.92.77C137.21,77.18,137.65,76,136.65,75.06Zm3.56,10c-.13-.6-1.18-1-1.89-1.55-4.08,1-8,1.94-11.84,3.14-.84.27-1.35,1.61-2,2.46,1,.36,2.12,1.16,3,1,3.52-.61,7-1.53,10.46-2.36a2.14,2.14,0,0,0,1.2-.54C139.65,86.53,140.34,85.66,140.21,85Zm40.32-6.14a3.85,3.85,0,0,0-2.33-2.08c-1.39-.42-3,1.4-2.93,3.84A6.43,6.43,0,0,0,177.49,82C178.9,82.23,180.93,80.22,180.53,78.9Zm-109,47.43c-3.17-2.55-7.23-4-11.17-6.07a40.59,40.59,0,0,1,7.25-14.81A124.32,124.32,0,0,1,80.91,90.27C83.83,87.5,88,86,91.49,83.85c9.41-5.86,20-8.52,30.61-10.72,7.7-1.59,15.66-1.92,23.31-2.79,3.91,6.82,10.23,7.91,15.76,3a7.55,7.55,0,0,1,6.4-2.18,80.54,80.54,0,0,0,9.8.27c6.26,0,11.89,2.72,17.81,4.18,8.57,2.11,15.81,6.82,23.37,10.94,7.91,4.31,14.32,10.45,20.9,16.48,4.38,4,8.2,8.19,10.81,14a11.72,11.72,0,0,1-2.64,2c-7.5,2.89-12.19,8.91-16.85,15-2.72,3.54-5.25,7.25-8.13,10.66-5.84,6.95-9.61,15-13.25,23.2a83.81,83.81,0,0,1-5.67,10.27c6.25-22.32.79-40.56-18.39-54.57a31.42,31.42,0,0,1-.18-3.64c.47-9.52-3.4-17.35-10.23-23.44-8.86-7.89-19.48-11.05-31.2-8.28-4,.94-7.72,3.17-11.28,5.3-2.89,1.73-4.3,4.72-5.18,8.08-1.36,5.14-3.14,10.17-5,16-3.64,2.45-8.31,5-12.31,8.72-4.32,4-6.88,9.07-9.44,14a42.65,42.65,0,0,0-4.4,26.56,45.19,45.19,0,0,0,1.53,6.5l-.92.28c-1.92-6.35-3.85-12.7-6.36-18.8C86,144.18,80.73,133.78,71.49,126.33Z"/><path class="cls-2" d="M15.24,153.73c1.49-2.77,3.64-3.25,6.1-3.42,2.2-.16,4.37-.7,6.57-.91a19.4,19.4,0,0,1,5.38-.08c4.65.88,9.26,2,14.24,3.18-.16,1.94-.3,3.68-.46,5.63-1.49.46-2.95.79-4.3,1.36-2,.87-4,1.87-6,2.89-3,1.55-6,3.31-9.08,4.7-2.35,1.05-2.43.86-6.73-.92,2.87-.65,5-1.26,7.11-1.59,3.78-.58,4.23-.83,4.54-4.54a31.63,31.63,0,0,0-.3-5C26.61,152.42,21,154.6,15.24,153.73Z"/><path class="cls-1" d="M50.41,134c-2.54-1.68-3.13-4.1-1.94-7.09,1-2.45,2.76-3.11,5.8-3.12,7.07,0,11.94,4.15,17.16,8.06,8.9,6.67,12.37,16.64,16.36,26.21a150.3,150.3,0,0,1,6,19.17c1.13,4.28,1.63,8.74,2.33,13.13,1.84,11.31,3.77,22.62,5.37,34,.51,3.64.08,7.41.08,11.57-3,.89-5.74,1.68-8.45,2.44-.24.07-.56-.14-1-.28a16.61,16.61,0,0,1-.27-2.51c.54-12.65-1.72-25-3.9-37.38-1-5.86-2.09-11.73-3.55-17.49-1.58-6.21-3.62-12.29-5.54-18.41A11.86,11.86,0,0,0,77,158.71C73,153.38,69,148,64.7,142.88a21.84,21.84,0,0,0-10.65-7.15A14.22,14.22,0,0,1,50.41,134Z"/><path class="cls-2" d="M59.73,197.64c-6.29-18.36-9.69-37.08-7.12-57.21a26.25,26.25,0,0,1,4.15,2,101.55,101.55,0,0,1,9.88,7.71,22.82,22.82,0,0,1,4.91,6.81c3,6.33,6.14,12.67,8.21,19.32a180,180,0,0,1,7.53,43.13c.29,4.86-.12,9.75-.22,14.63l-1.31.44C73.87,224.51,67.43,210.61,59.73,197.64Z"/><path class="cls-2" d="M96.75,173.64l.92-.28a42.53,42.53,0,0,0,4.73,10.13c3.15,4.92,6.19,9.91,10.63,13.84a21.28,21.28,0,0,0,3,2.65c5.12,3,10.4,5.78,15.46,8.89,4,2.45,8.3,3.12,12.83,3.05a1.66,1.66,0,0,1,.45,0c8.86,2.24,17.51-.5,26.24-1.15a15.29,15.29,0,0,0,4.27-1.16c8.18-3.18,14.1-9.08,19.16-16,2.46-3.36,5-6.68,7.5-10a124.44,124.44,0,0,0-4.29,56.69c-2.93-.15-5.52.16-7.85-.48-7.49-2.06-15.15-1.63-22.73-1.84-9.73-.28-19.47.3-29.19.07s-19.13-1-28.7-1.6a24.94,24.94,0,0,1-4-.89A84,84,0,0,0,103.66,214c-1.51-8.36-2-16.91-3.07-25.36a48.79,48.79,0,0,0-1.81-8.29C98.09,178.11,97.42,175.87,96.75,173.64Z"/><path class="cls-3" d="M99.11,165.17c-.65-3.06,0-6.58.73-9.72a74.43,74.43,0,0,1,7.07-18.69c3.36-6.16,7.53-11.66,13.68-15A40.1,40.1,0,0,1,134,117c6.31-.85,12.8-.38,19.21-.45a7.91,7.91,0,0,1,2.22.32c7.3,2.17,14.8,3.86,21.84,6.69,7.2,2.9,14,6.79,18.19,13.94,1.25,2.14,3.08,3.94,2.68,6.76-.07.53.76,1.14,1,1.77,2.12,4.6,4.5,9.15,3.54,14.7.45,10.88-3.12,20.7-9.66,29.44a33.4,33.4,0,0,1-6.83,6.36,58.14,58.14,0,0,1-24.7,10.72c-11.13,2.1-21.39.17-31.5-3.59-4.1-1.53-7.64-4.61-11.38-7.08C107.28,189.16,101.8,177.93,99.11,165.17Zm28.56-.32c-.72,2.24-.33,4.82,1.82,6a30.87,30.87,0,0,0,8.37,2.83A16.48,16.48,0,0,0,152,170.13c3,3.17,6.37,5,9.72,5.2,8.51.43,17.67-5.14,16.3-16.54-.68-5.7-3.13-9-9.81-9.72a33.6,33.6,0,0,0-3.5,0c-3.18-9.4-7.59-12.11-17.23-10.59-4.47.7-8.17,6.77-8.39,14.1a9.9,9.9,0,0,1-1.71,1C131.73,155.23,129.29,159.76,127.66,164.86Z"/><path d="M124.46,89.08c.66-.85,1.17-2.19,2-2.46,3.83-1.2,7.76-2.09,11.84-3.14.71.55,1.76,1,1.89,1.55s-.56,1.49-1,2.14a2.14,2.14,0,0,1-1.2.54c-3.48.82-6.94,1.74-10.46,2.36C126.58,90.24,125.48,89.44,124.46,89.08Z"/><path class="cls-3" d="M127,115.15a3.88,3.88,0,0,1-.12-1.48c1-3.88,2.28-7.72,3.25-11.63,1.35-5.48,5.82-7.87,10.26-9.74,13.88-5.84,35.16.32,41.26,19.43,1,3,.92,6.09.23,9.9C164.09,112.28,145.94,111.26,127,115.15Z"/><path d="M129.48,170.83c-2.15-1.14-2.53-3.72-1.82-6,1.62-5.1,4.06-9.63,9.72-11.35a9.9,9.9,0,0,0,1.71-1c.22-7.33,3.91-13.4,8.39-14.1,9.65-1.52,14,1.18,17.23,10.59a33.6,33.6,0,0,1,3.5,0c6.69.71,9.13,4,9.81,9.72,1.37,11.4-7.79,17-16.3,16.54-3.35-.17-6.68-2-9.72-5.2a16.48,16.48,0,0,1-14.16,3.53A30.87,30.87,0,0,1,129.48,170.83Zm9.92-14c-2.92,2.65-6.41,5-7,10,2.11.78,4,1.48,6,2.23a9.92,9.92,0,0,0,12.4-3.87,3.19,3.19,0,0,0-.29-4.39c-2.26-2.67-5.46-3.46-8.53-4.45A3,3,0,0,0,139.4,156.8Zm2.85-10.06c-1.09,2.38-.78,4.67,1.53,5.73,3.52,1.62,7.08,4.27,11.18,1.23a3,3,0,0,1,1.2-.37c4.05-.72,5.77-5,3.14-8.13a9.65,9.65,0,0,0-8.16-3.85C147.26,141.6,144,142.87,142.24,146.73Zm12.37,18.34a4.17,4.17,0,0,0,1.67,3.8c2.62,2.2,5.69,2.71,8.76,2.82,7.73.31,12.22-7.12,9.41-14.35-1.08-2.78-3.45-4.86-7.73-4.65C161.28,152.68,154.9,158.81,154.62,165.07Z"/><path d="M131.07,77.22c.83-.95,1.51-2.25,2.58-2.77a3.34,3.34,0,0,1,3,.61c1,.94.56,2.12-.66,2.93C134.28,79.12,132.74,79.12,131.07,77.22Z"/><path class="cls-4" d="M132.35,166.8c.64-5,4.13-7.35,7-10a3,3,0,0,1,2.5-.48c3.08,1,6.27,1.78,8.53,4.45a3.19,3.19,0,0,1,.29,4.39,9.92,9.92,0,0,1-12.4,3.87C136.39,168.28,134.46,167.58,132.35,166.8Z"/><path class="cls-4" d="M143.77,152.46c-2.3-1.06-2.61-3.35-1.53-5.73,1.77-3.86,5-5.13,8.89-5.4a9.65,9.65,0,0,1,8.16,3.85c2.62,3.16.91,7.41-3.14,8.13a3,3,0,0,0-1.2.37C150.85,156.73,147.29,154.08,143.77,152.46Z"/><path class="cls-3" d="M153.13,73.16a43,43,0,0,1-3.71-19.22,109.12,109.12,0,0,1,4.66-26.76c1.27-4.1,1.75-8.43,2.76-12.62a66.43,66.43,0,0,1,2.25-6.31c.82,1.21,1.28,1.62,1.4,2.11,1.69,7.41,4.33,14.62,4.36,22.4s1.39,15.84-.08,23.73C163.42,63.63,160.3,69.64,153.13,73.16Z"/><path class="cls-4" d="M156.29,168.87a4.17,4.17,0,0,1-1.67-3.8c.28-6.26,6.67-12.4,12.11-12.38,4.28-.22,6.66,1.87,7.73,4.65,2.81,7.23-1.68,14.66-9.41,14.35C162,171.58,158.91,171.07,156.29,168.87Z"/><path d="M174.8,90.25c-1-.43-1.73-1.33-3.25-2.56,1.6-.7,2.6-1.56,3.21-1.34,4.46,1.63,8.88,3.41,13.22,5.32a1.48,1.48,0,0,1-.33,2.76,4.94,4.94,0,0,1-3-.1Q179.68,92.46,174.8,90.25Z"/><path d="M175.27,80.65c0-2.44,1.54-4.26,2.93-3.84a3.85,3.85,0,0,1,2.33,2.08c.4,1.33-1.63,3.33-3,3.08A6.43,6.43,0,0,1,175.27,80.65Z"/><path class="cls-1" d="M202.55,240.93c-.46-2.13-1.32-4.14-1.26-6.13.31-11,.5-22.08,1.42-33.07a36.91,36.91,0,0,1,4.69-15.35c3-5.18,5.17-10.81,7.52-16.32A133.89,133.89,0,0,1,231,141.95c5.08-6.74,11.6-12.47,17.9-18.18,3.77-3.42,7.92-2.13,10.33,2.33,2.82,5.24,2.41,7.33-2.15,11.24-4.86,4.16-9.95,8.1-14.48,12.59-5.24,5.19-10.58,10.38-14.28,16.93a50.79,50.79,0,0,1-3.76,5c-4.52,6.12-6.35,13.36-8.42,20.49-.67,2.28-1.15,4.63-1.69,6.95a66.51,66.51,0,0,0-.37,28.42c.92,4.64.88,9.48,1.29,14.46Z"/><path class="cls-2" d="M220.26,236.52c-1.44-7.72-2.85-15.48-1.77-23.37,1.3-9.46,2-19.08,6.28-27.89a13.11,13.11,0,0,0,1.09-3.41c1.12-6.24,4.43-11.3,8.42-16,1.93-2.29,4-4.5,5.67-6.95,4.62-6.61,10.8-11.44,18.47-16.58,0,3.51.11,6,0,8.5-.3,5.67-.55,11.36-1.16,17a66.6,66.6,0,0,1-2.09,10c-1.27,4.73-2.86,9.39-4.18,14.11a74.28,74.28,0,0,1-13.11,25.84c-2.93,3.77-5.32,7.95-8.14,11.81-2.43,3.33-5.13,6.48-8.17,10.3A24.36,24.36,0,0,1,220.26,236.52Z"/><path class="cls-2" d="M275.65,165.41c-4.19,3.09-8.69,5.78-14.5,5.78.34-8,.67-16,1-24.36a4.42,4.42,0,0,1,2-.17,72.71,72.71,0,0,1,7.91,2.82c2,.89,4.23,1.83,5.7,3.37C281,156.26,280,162.19,275.65,165.41Z"/><path d="M147.7,309.31c5.64.33,11.32.4,17,.19,6.87-.25,13.72-.87,20.58-1.4,4.91-.38,9.9-.47,14.71-1.41,6.35-1.25,11.26-4.59,12.78-11.52.83-3.79,2.46-7.49,3.2-11.3a107,107,0,0,0,2.2-20.4v-.15c0-4-.49-8-.82-12-.47-5.69-2.72-7.57-8.47-7.81-6.74-.28-13.57-.52-20.28-1.12-6.11-.55-12.22-1.68-18.32-2.32a133.57,133.57,0,0,0-13.87-.85c-8.09,0-16.19.46-24.28.42-8.54,0-17.08-.59-25.62-.65-3.91,0-8.05-.52-11.43,2.42-.48.42-1.43.29-2.41.45-.32,4.68-1.21,9-1.18,13.28,0,.17-.32.34-.32.51v0c0,.37.32.75.32,1.13.09,11.24.59,22.48.84,33.72,0,2.1.15,4.2.24,6.3a5.26,5.26,0,0,0,2.82,4.84c4.89,2.21,9.39,5.45,14.92,6.08,3,.33,6,.7,8.93.92,5.06.36,10.17,1.16,15.18.77A97,97,0,0,1,147.7,309.31Zm-114.42-160a19.4,19.4,0,0,0-5.38.08c-2.2.21-4.36.75-6.57.91-2.46.18-4.62.66-6.1,3.42,5.73.87,11.37-1.3,17,1.36a31.63,31.63,0,0,1,.3,5c-.31,3.71-.76,4-4.54,4.54-2.14.32-4.24.93-7.11,1.59,4.3,1.79,4.38,2,6.73.92,3.1-1.39,6-3.15,9.08-4.7,2-1,4-2,6-2.89,1.36-.57,2.81-.91,4.3-1.36.16-1.95.31-3.69.46-5.63C42.54,151.36,37.94,150.2,33.29,149.32Zm225.12,1.49c.13-2.49,0-5,0-8.5-7.67,5.14-13.85,10-18.47,16.58-1.71,2.45-3.74,4.66-5.67,6.95-4,4.73-7.3,9.78-8.42,16a13.11,13.11,0,0,1-1.09,3.41c-4.27,8.81-5,18.43-6.28,27.89-1.09,7.89.32,15.64,1.77,23.37a24.36,24.36,0,0,0,1.28,3.39c3-3.82,5.74-7,8.17-10.3,2.82-3.86,5.21-8,8.14-11.81A74.28,74.28,0,0,0,251,192c1.32-4.72,2.91-9.37,4.18-14.11a66.6,66.6,0,0,0,2.09-10C257.85,162.16,258.1,156.48,258.4,150.81Zm13.65-1.32a72.71,72.71,0,0,0-7.91-2.82,4.42,4.42,0,0,0-2,.17c-.36,8.4-.69,16.38-1,24.36,5.81,0,10.31-2.69,14.5-5.78,4.37-3.22,5.34-9.15,2.1-12.55C276.28,151.31,274.07,150.37,272.05,149.48Zm-90.36-37.75c-6.09-19.1-27.38-25.27-41.26-19.43-4.43,1.86-8.91,4.26-10.26,9.74-1,3.91-2.2,7.74-3.25,11.63a3.88,3.88,0,0,0,.12,1.48c18.89-3.89,37-2.87,54.87,6.48C182.61,117.82,182.65,114.76,181.69,111.73ZM71.42,131.89c-5.22-3.91-10.09-8.09-17.16-8.06-3,0-4.82.67-5.8,3.12-1.19,3-.59,5.41,1.94,7.09a14.22,14.22,0,0,0,3.64,1.69,21.84,21.84,0,0,1,10.65,7.15C69,148,73,153.38,77,158.71a11.86,11.86,0,0,1,1.77,3.59c1.92,6.12,4,12.2,5.54,18.41,1.46,5.76,2.51,11.63,3.55,17.49,2.18,12.36,4.43,24.73,3.9,37.38a16.61,16.61,0,0,0,.27,2.51c.49.14.81.35,1,.28,2.71-.75,5.41-1.55,8.45-2.44,0-4.16.43-7.93-.08-11.57-1.59-11.35-3.53-22.65-5.37-34-.71-4.39-1.2-8.84-2.33-13.13a150.3,150.3,0,0,0-6-19.17C83.79,148.53,80.32,138.56,71.42,131.89Zm127.74,14.18c-.29-.63-1.12-1.24-1-1.77.4-2.82-1.44-4.62-2.68-6.76-4.17-7.15-11-11-18.19-13.94-7-2.83-14.53-4.52-21.84-6.69a7.91,7.91,0,0,0-2.22-.32c-6.41.07-12.9-.41-19.21.45a40.1,40.1,0,0,0-13.37,4.72c-6.15,3.35-10.32,8.85-13.68,15a74.43,74.43,0,0,0-7.07,18.69c-.74,3.14-1.38,6.66-.73,9.72,2.69,12.75,8.17,24,19.51,31.45,3.74,2.46,7.28,5.55,11.38,7.08,10.11,3.77,20.37,5.69,31.5,3.59a58.14,58.14,0,0,0,24.7-10.72,33.4,33.4,0,0,0,6.83-6.36c6.54-8.74,10.11-18.55,9.66-29.44C203.65,155.23,201.27,150.68,199.16,146.07ZM160.48,10.35c-.11-.49-.58-.9-1.4-2.11a66.43,66.43,0,0,0-2.25,6.31c-1,4.19-1.49,8.52-2.76,12.62a109.12,109.12,0,0,0-4.66,26.76,43,43,0,0,0,3.71,19.22c7.18-3.52,10.3-9.53,11.63-16.68,1.47-7.89.11-15.82.08-23.73S162.17,17.76,160.48,10.35ZM214,227.75a66.51,66.51,0,0,1,.37-28.42c.54-2.32,1-4.67,1.69-6.95,2.08-7.13,3.9-14.37,8.42-20.49a50.79,50.79,0,0,0,3.76-5c3.7-6.55,9-11.74,14.28-16.93,4.53-4.5,9.62-8.43,14.48-12.59,4.56-3.91,5-6,2.15-11.24-2.41-4.47-6.57-5.75-10.33-2.33-6.3,5.72-12.82,11.44-17.9,18.18a133.89,133.89,0,0,0-16.05,28.12c-2.35,5.51-4.56,11.13-7.52,16.32a36.91,36.91,0,0,0-4.69,15.35c-.92,11-1.11,22-1.42,33.07-.05,2,.8,4,1.26,6.13l12.78,1.29C214.92,237.23,215,232.4,214,227.75Zm25.41-124.69c-6.58-6-13-12.17-20.9-16.48-7.57-4.12-14.81-8.83-23.37-10.94-5.92-1.46-11.55-4.14-17.81-4.18a80.54,80.54,0,0,1-9.8-.27,7.55,7.55,0,0,0-6.4,2.18c-5.54,4.86-11.86,3.77-15.76-3-7.65.87-15.61,1.2-23.31,2.79-10.62,2.2-21.2,4.87-30.61,10.72C88,86,83.83,87.5,80.91,90.27a124.32,124.32,0,0,0-13.34,15.18,40.59,40.59,0,0,0-7.25,14.81c3.93,2.09,8,3.52,11.17,6.07,9.25,7.45,14.49,17.86,18.89,28.52,2.52,6.1,4.45,12.45,6.36,18.8.67,2.23,1.34,4.46,2,6.68a48.79,48.79,0,0,1,1.81,8.29c1.08,8.45,1.55,17,3.07,25.36a84,84,0,0,1,1.56,21.54,24.94,24.94,0,0,0,4,.89c9.56.6,19.12,1.36,28.7,1.6s19.47-.35,29.19-.07c7.59.22,15.25-.22,22.73,1.84,2.33.64,4.92.33,7.85.48a124.44,124.44,0,0,1,4.29-56.69c-2.5,3.33-5,6.65-7.5,10-5.06,6.93-11,12.84-19.16,16a15.29,15.29,0,0,1-4.27,1.16c-8.73.66-17.38,3.4-26.24,1.15a1.66,1.66,0,0,0-.45,0c-4.53.06-8.83-.6-12.83-3.05C126.43,205.76,121.16,203,116,200a21.28,21.28,0,0,1-3-2.65c-4.44-3.92-7.47-8.92-10.63-13.84a42.53,42.53,0,0,1-4.73-10.13,45.19,45.19,0,0,1-1.53-6.5,42.65,42.65,0,0,1,4.4-26.56c2.56-5,5.13-10,9.44-14,4-3.75,8.67-6.27,12.31-8.72,1.83-5.79,3.62-10.81,5-16,.88-3.35,2.3-6.35,5.18-8.08,3.56-2.13,7.32-4.36,11.28-5.3,11.73-2.77,22.34.39,31.2,8.28,6.84,6.09,10.71,13.92,10.23,23.44a31.42,31.42,0,0,0,.18,3.64c19.18,14,24.64,32.25,18.39,54.57a83.81,83.81,0,0,0,5.67-10.27c3.64-8.19,7.41-16.26,13.25-23.2,2.88-3.41,5.41-7.12,8.13-10.66,4.66-6.06,9.35-12.08,16.85-15a11.72,11.72,0,0,0,2.64-2C247.65,111.25,243.83,107.08,239.45,103.06ZM56.76,142.41a26.25,26.25,0,0,0-4.15-2c-2.57,20.13.83,38.84,7.12,57.21,7.71,13,14.15,26.87,26,36.81l1.31-.44c.09-4.88.5-9.77.22-14.63a180,180,0,0,0-7.53-43.13c-2.07-6.65-5.23-13-8.21-19.32a22.82,22.82,0,0,0-4.91-6.81A101.55,101.55,0,0,0,56.76,142.41ZM-4.43,163.9c0-.45.06-.9.07-1.35.15-6.81.41-7.07,7-7.12,1.2,0,2.41-.18,3.59-.08a5.87,5.87,0,0,0,6.2-3.38c1.44-2.68,4.08-3.89,6.87-4.68a42.59,42.59,0,0,1,18.63-.65c3.18.51,6.41.69,9.86,1l1.29-9.27c-5.74-3.27-6.28-8.41-4.28-14.13,1.56-4.45,5.66-4.83,9.73-5.42L56.68,114c2.46-5.59,6.48-10,10.68-14.3Q72.8,94.17,78.3,88.63a14.6,14.6,0,0,1,2-1.85c8.5-5.85,17-11.69,27.38-13.9,7.3-1.55,14.53-3.48,21.88-4.79,4.09-.73,8.36-.59,12.54-.74,3.88-.14,3.88-.31,3.85-4-.11-12.4.36-24.77,3.58-36.86,1.73-6.49,3.38-13,5-19.51.41-1.64.7-3.32,2.68-3.69,1.41-.26,4.55,2,5.39,3.47,2.28,4.15,3,8.78,3.68,13.3a175,175,0,0,1,2.11,33.57c-.13,3.7-.82,7.39-1.32,11.62.77,1.46,2.55,1.86,4.63,1.81a45.9,45.9,0,0,1,18,3.53,13.28,13.28,0,0,0,2.13.73c16.77,3.48,30.65,12.45,43.73,23,1.84,1.48,4.08,2.47,5.93,3.94a54.12,54.12,0,0,1,4.39,4.36c3.71,3.69,7.33,7.4,9.14,12.54.44,1.25,1.89,2.16,2.92,3.18a57.36,57.36,0,0,1,5.08,5c3.34,4.28,3.25,8.81.48,13.42-1,1.59-1.71,3.3-2.61,5.05,3.82,1.21,7.13,2,10.23,3.31a40.8,40.8,0,0,1,7.34,4.1c4.32,3,5.44,7.18,4.37,12.19-.9,4.22-4.22,6.53-7.39,8.45a52.82,52.82,0,0,1-11.87,4.92c-2.64.81-3.65,1.82-4.27,4.72-3.2,14.81-7.26,29.48-16.41,41.86-6,8.14-12.32,16.3-20.92,22.08-2.85,1.92-3.36,3.61-2.75,7.29,2.22,13.38,2.23,26.84-1.89,40-1.07,3.42-2.12,6.86-3.1,10.31-.83,2.92-2.54,4.6-5.42,6-7.67,3.65-15.66,4.62-24,4.63-6.13,0-12.25.59-18.41.92-.31,1.09-.57,2.08-.88,3-.85,2.56-2.43,4-5.33,3.73-6-.5-11.94-.75-17.88-1.38-4-.43-5.16-1.4-7-4.6-6,0-11.95,0-17.92,0a21.56,21.56,0,0,1-9.93-2.23c-4-2-8.4-3.09-12.58-4.7a13,13,0,0,1-8.51-13.66c1.41-13.31.39-26.64.61-40a66.67,66.67,0,0,1,1.23-8.88,4.88,4.88,0,0,0-1.89-5.12c-2.25-1.72-4.33-3.64-6.51-5.45-6-5-9.86-11.61-14.21-17.81-6-8.5-9.62-18.21-12.57-28.09-1.78-6-2.51-12.24-3.73-18.37-.29-1.46-.65-2.91-1-4.58a14,14,0,0,0-11.45,2.34,20.66,20.66,0,0,1-13.79,4.36c-2.5-.14-4.76-.49-6.63-2.18A9.45,9.45,0,0,0,8,166.74a82,82,0,0,1-8.48.82C-3.18,167.71-4.27,166.61-4.43,163.9ZM140,313.73a3.77,3.77,0,0,0-.06.7c7.44,1.37,14.89,2.63,22.49.39,0-.42,0-1.09.07-1.09Z"/><path class="cls-5" d="M166.35,312.49c-.31,1.09-.57,2.08-.88,3-.85,2.56-2.43,4-5.33,3.73-6-.5-11.94-.75-17.88-1.38-4-.43-5.16-1.4-7-4.6-6,0-11.95,0-17.92,0a21.56,21.56,0,0,1-9.93-2.23c-4-2-8.4-3.09-12.58-4.7a13,13,0,0,1-8.51-13.66c1.41-13.31.39-26.64.61-40a66.67,66.67,0,0,1,1.23-8.88,4.88,4.88,0,0,0-1.89-5.12c-2.25-1.72-4.33-3.64-6.51-5.45-6-5-9.86-11.61-14.21-17.81-6-8.5-9.62-18.21-12.57-28.09-1.78-6-2.51-12.24-3.73-18.37-.29-1.46-.65-2.91-1-4.58a14,14,0,0,0-11.45,2.34,20.66,20.66,0,0,1-13.79,4.36c-2.5-.14-4.76-.49-6.63-2.18A9.45,9.45,0,0,0,8,166.74a82,82,0,0,1-8.48.82c-2.68.15-3.77-1-3.93-3.67,0-.45.06-.9.07-1.35.15-6.81.41-7.07,7-7.12,1.2,0,2.41-.18,3.59-.08a5.87,5.87,0,0,0,6.2-3.38c1.44-2.68,4.08-3.89,6.87-4.68a42.59,42.59,0,0,1,18.63-.65c3.18.51,6.41.69,9.86,1l1.29-9.27c-5.74-3.27-6.28-8.41-4.28-14.13,1.56-4.45,5.66-4.83,9.73-5.42L56.68,114c2.46-5.59,6.48-10,10.68-14.3Q72.8,94.17,78.3,88.63a14.6,14.6,0,0,1,2-1.85c8.5-5.85,17-11.69,27.38-13.9,7.3-1.55,14.53-3.48,21.88-4.79,4.09-.73,8.36-.59,12.54-.74,3.88-.14,3.88-.31,3.85-4-.11-12.4.36-24.77,3.58-36.86,1.73-6.49,3.38-13,5-19.51.41-1.64.7-3.32,2.68-3.69,1.41-.26,4.55,2,5.39,3.47,2.28,4.15,3,8.78,3.68,13.3a175,175,0,0,1,2.11,33.57c-.13,3.7-.82,7.39-1.32,11.62.77,1.46,2.55,1.86,4.63,1.81a45.9,45.9,0,0,1,18,3.53,13.28,13.28,0,0,0,2.13.73c16.77,3.48,30.65,12.45,43.73,23,1.84,1.48,4.08,2.47,5.93,3.94a54.12,54.12,0,0,1,4.39,4.36c3.71,3.69,7.33,7.4,9.14,12.54.44,1.25,1.89,2.16,2.92,3.18a57.36,57.36,0,0,1,5.08,5c3.34,4.28,3.25,8.81.48,13.42-1,1.59-1.71,3.3-2.61,5.05,3.82,1.21,7.13,2,10.23,3.31a40.8,40.8,0,0,1,7.34,4.1c4.32,3,5.44,7.18,4.37,12.19-.9,4.22-4.22,6.53-7.39,8.45a52.82,52.82,0,0,1-11.87,4.92c-2.64.81-3.65,1.82-4.27,4.72-3.2,14.81-7.26,29.48-16.41,41.86-6,8.14-12.32,16.3-20.92,22.08-2.85,1.92-3.36,3.61-2.75,7.29,2.22,13.38,2.23,26.84-1.89,40-1.07,3.42-2.12,6.86-3.1,10.31-.83,2.92-2.54,4.6-5.42,6-7.67,3.65-15.66,4.62-24,4.63C178.63,311.57,172.5,312.15,166.35,312.49Z"/><path class="cls-5" d="M96.75,173.64c.67,2.23,1.34,4.46,2,6.68a48.79,48.79,0,0,1,1.81,8.29c1.08,8.45,1.55,17,3.07,25.36a84,84,0,0,1,1.56,21.54,24.94,24.94,0,0,0,4,.89c9.56.6,19.12,1.36,28.7,1.6s19.47-.35,29.19-.07c7.59.22,15.25-.22,22.73,1.84,2.33.64,4.92.33,7.85.48a124.44,124.44,0,0,1,4.29-56.69c-2.5,3.33-5,6.65-7.5,10-5.06,6.93-11,12.84-19.16,16a15.29,15.29,0,0,1-4.27,1.16c-8.73.66-17.38,3.4-26.24,1.15a1.66,1.66,0,0,0-.45,0c-4.53.06-8.83-.6-12.83-3.05C126.43,205.76,121.16,203,116,200a21.28,21.28,0,0,1-3-2.65c-4.44-3.92-7.47-8.92-10.63-13.84a42.53,42.53,0,0,1-4.73-10.13,45.19,45.19,0,0,1-1.53-6.5,42.65,42.65,0,0,1,4.4-26.56c2.56-5,5.13-10,9.44-14,4-3.75,8.67-6.27,12.31-8.72,1.83-5.79,3.62-10.81,5-16,.88-3.35,2.3-6.35,5.18-8.08,3.56-2.13,7.32-4.36,11.28-5.3,11.73-2.77,22.34.39,31.2,8.28,6.84,6.09,10.71,13.92,10.23,23.44a31.42,31.42,0,0,0,.18,3.64c19.18,14,24.64,32.25,18.39,54.57a83.81,83.81,0,0,0,5.67-10.27c3.64-8.19,7.41-16.26,13.25-23.2,2.88-3.41,5.41-7.12,8.13-10.66,4.66-6.06,9.35-12.08,16.85-15a11.72,11.72,0,0,0,2.64-2c-2.61-5.77-6.43-9.94-10.81-14-6.58-6-13-12.17-20.9-16.48-7.57-4.12-14.81-8.83-23.37-10.94-5.92-1.46-11.55-4.14-17.81-4.18a80.54,80.54,0,0,1-9.8-.27,7.55,7.55,0,0,0-6.4,2.18c-5.54,4.86-11.86,3.77-15.76-3-7.65.87-15.61,1.2-23.31,2.79-10.62,2.2-21.2,4.87-30.61,10.72C88,86,83.83,87.5,80.91,90.27a124.32,124.32,0,0,0-13.34,15.18,40.59,40.59,0,0,0-7.25,14.81c3.93,2.09,8,3.52,11.17,6.07,9.25,7.45,14.49,17.86,18.89,28.52C92.9,160.95,94.83,167.29,96.75,173.64Z"/><path class="cls-5" d="M216.14,263.32c0-3.42.46-6.85.18-10.28-.47-5.68-2.21-7.57-8-7.81-6.73-.27-13.32-.52-20-1.12-6.11-.54-12.09-1.68-18.19-2.32a132.35,132.35,0,0,0-13.81-.85c-8.09,0-16.16.46-24.25.42-8.54,0-17.07-.6-25.61-.65-3.91,0-8-.52-11.42,2.42-.48.42-1.76.29-2.74.45-.29,4.25-1.17,8.2-1.17,12.11v0c0,.37.32.75.32,1.13.09,11.24.59,22.48.84,33.72,0,2.1.15,4.2.24,6.3a5.26,5.26,0,0,0,2.82,4.84c4.89,2.21,9.39,5.45,14.92,6.08,3,.33,6,.7,8.93.92,5.06.36,10.17,1.16,15.18.77a96.92,96.92,0,0,1,13.29-.18c5.64.33,11.32.4,17,.19,6.87-.25,13.73-.87,20.58-1.4,4.91-.38,9.9-.47,14.71-1.41,6.35-1.25,11.26-4.59,12.78-11.52.83-3.79,1.46-7.49,2.2-11.3,1.32-6.76,1.2-13.57,1.2-20.4Z"/><path class="cls-5" d="M202.69,160.77c1-5.54-1.42-10.09-3.54-14.7-.29-.63-1.12-1.24-1-1.77.4-2.82-1.44-4.62-2.68-6.76-4.17-7.15-11-11-18.19-13.94-7-2.83-14.53-4.52-21.84-6.69a7.91,7.91,0,0,0-2.22-.32c-6.41.07-12.9-.41-19.21.45a40.1,40.1,0,0,0-13.37,4.72c-6.15,3.35-10.32,8.85-13.68,15a74.43,74.43,0,0,0-7.07,18.69c-.74,3.14-1.38,6.66-.73,9.72,2.69,12.75,8.17,24,19.51,31.45,3.74,2.46,7.28,5.55,11.38,7.08,10.11,3.77,20.37,5.69,31.5,3.59a58.14,58.14,0,0,0,24.7-10.72,33.4,33.4,0,0,0,6.83-6.36C199.57,181.47,203.14,171.65,202.69,160.77Z"/><path class="cls-5" d="M258.43,142.31c-7.67,5.14-13.85,10-18.47,16.58-1.71,2.45-3.74,4.66-5.67,6.95-4,4.73-7.3,9.78-8.42,16a13.11,13.11,0,0,1-1.09,3.41c-4.27,8.81-5,18.43-6.28,27.89-1.09,7.89.32,15.64,1.77,23.37a24.36,24.36,0,0,0,1.28,3.39c3-3.82,5.74-7,8.17-10.3,2.82-3.86,5.21-8,8.14-11.81A74.28,74.28,0,0,0,251,192c1.32-4.72,2.91-9.37,4.18-14.11a66.6,66.6,0,0,0,2.09-10c.61-5.64.86-11.33,1.16-17C258.54,148.32,258.43,145.82,258.43,142.31Z"/><path class="cls-5" d="M85.77,234.45l1.31-.44c.09-4.88.5-9.77.22-14.63a180,180,0,0,0-7.53-43.13c-2.07-6.65-5.23-13-8.21-19.32a22.82,22.82,0,0,0-4.91-6.81,101.55,101.55,0,0,0-9.88-7.71,26.25,26.25,0,0,0-4.15-2c-2.57,20.13.83,38.84,7.12,57.21C67.43,210.61,73.87,224.51,85.77,234.45Z"/><path class="cls-5" d="M215.33,242.22c-.41-5-.37-9.82-1.29-14.46a66.51,66.51,0,0,1,.37-28.42c.54-2.32,1-4.67,1.69-6.95,2.08-7.13,3.9-14.37,8.42-20.49a50.79,50.79,0,0,0,3.76-5c3.7-6.55,9-11.74,14.28-16.93,4.53-4.5,9.62-8.43,14.48-12.59,4.56-3.91,5-6,2.15-11.24-2.41-4.47-6.57-5.75-10.33-2.33-6.3,5.72-12.82,11.44-17.9,18.18a133.89,133.89,0,0,0-16.05,28.12c-2.35,5.51-4.56,11.13-7.52,16.32a36.91,36.91,0,0,0-4.69,15.35c-.92,11-1.11,22-1.42,33.07-.05,2,.8,4,1.26,6.13Z"/><path class="cls-5" d="M101.56,235.94c0-4.16.43-7.93-.08-11.57-1.59-11.35-3.53-22.65-5.37-34-.71-4.39-1.2-8.84-2.33-13.13a150.3,150.3,0,0,0-6-19.17c-4-9.58-7.45-19.54-16.36-26.21-5.22-3.91-10.09-8.09-17.16-8.06-3,0-4.82.67-5.8,3.12-1.19,3-.59,5.41,1.94,7.09a14.22,14.22,0,0,0,3.64,1.69,21.84,21.84,0,0,1,10.65,7.15C69,148,73,153.38,77,158.71a11.86,11.86,0,0,1,1.77,3.59c1.92,6.12,4,12.2,5.54,18.41,1.46,5.76,2.51,11.63,3.55,17.49,2.18,12.36,4.43,24.73,3.9,37.38a16.61,16.61,0,0,0,.27,2.51c.49.14.81.35,1,.28C95.82,237.62,98.52,236.82,101.56,235.94Z"/><path class="cls-5" d="M181.91,121.63c.7-3.81.74-6.86-.23-9.9-6.09-19.1-27.38-25.27-41.26-19.43-4.43,1.86-8.91,4.26-10.26,9.74-1,3.91-2.2,7.74-3.25,11.63a3.88,3.88,0,0,0,.12,1.48C145.94,111.26,164.09,112.28,181.91,121.63Z"/><path class="cls-5" d="M159.08,8.24a66.43,66.43,0,0,0-2.25,6.31c-1,4.19-1.49,8.52-2.76,12.62a109.12,109.12,0,0,0-4.66,26.76,43,43,0,0,0,3.71,19.22c7.18-3.52,10.3-9.53,11.63-16.68,1.47-7.89.11-15.82.08-23.73s-2.67-15-4.36-22.4C160.37,9.86,159.9,9.45,159.08,8.24Z"/><path class="cls-5" d="M261.15,171.19c5.81,0,10.31-2.69,14.5-5.78,4.37-3.22,5.34-9.15,2.1-12.55-1.47-1.54-3.68-2.48-5.7-3.37a72.71,72.71,0,0,0-7.91-2.82,4.42,4.42,0,0,0-2,.17C261.82,155.23,261.49,163.21,261.15,171.19Z"/><path class="cls-5" d="M47.53,152.5c-5-1.14-9.59-2.3-14.24-3.18a19.4,19.4,0,0,0-5.38.08c-2.2.21-4.36.75-6.57.91-2.46.18-4.62.66-6.1,3.42,5.73.87,11.37-1.3,17,1.36a31.63,31.63,0,0,1,.3,5c-.31,3.71-.76,4-4.54,4.54-2.14.32-4.24.93-7.11,1.59,4.3,1.79,4.38,2,6.73.92,3.1-1.39,6-3.15,9.08-4.7,2-1,4-2,6-2.89,1.36-.57,2.81-.91,4.3-1.36C47.23,156.18,47.37,154.44,47.53,152.5Z"/><path class="cls-5" d="M162.47,314.63a7.08,7.08,0,0,1,.07-.9H140a7.86,7.86,0,0,0-.06.89C147.42,316,154.87,316.87,162.47,314.63Z"/><path class="cls-5" d="M171.55,87.69c1.6-.7,2.6-1.56,3.21-1.34,4.46,1.63,8.88,3.41,13.22,5.32a1.48,1.48,0,0,1-.33,2.76,4.94,4.94,0,0,1-3-.1q-5-1.87-9.89-4.08C173.83,89.82,173.08,88.92,171.55,87.69Z"/><path class="cls-5" d="M138.32,83.48c.71.55,1.76,1,1.89,1.55s-.56,1.49-1,2.14a2.14,2.14,0,0,1-1.2.54c-3.48.82-6.94,1.74-10.46,2.36-.93.16-2-.64-3-1,.66-.85,1.17-2.19,2-2.46C130.31,85.42,134.24,84.53,138.32,83.48Z"/><path class="cls-5" d="M175.27,80.65c0-2.44,1.54-4.26,2.93-3.84a3.85,3.85,0,0,1,2.33,2.08c.4,1.33-1.63,3.33-3,3.08A6.43,6.43,0,0,1,175.27,80.65Z"/><path class="cls-5" d="M131.07,77.22c.83-.95,1.51-2.25,2.58-2.77a3.34,3.34,0,0,1,3,.61c1,.94.56,2.12-.66,2.93C134.28,79.12,132.74,79.12,131.07,77.22Z"/><path class="cls-5" d="M139.1,152.56c.22-7.33,3.91-13.4,8.39-14.1,9.65-1.52,14,1.18,17.23,10.59a33.6,33.6,0,0,1,3.5,0c6.69.71,9.13,4,9.81,9.72,1.37,11.4-7.79,17-16.3,16.54-3.35-.17-6.68-2-9.72-5.2a16.48,16.48,0,0,1-14.16,3.53,30.87,30.87,0,0,1-8.37-2.83c-2.15-1.14-2.53-3.72-1.82-6,1.62-5.1,4.06-9.63,9.72-11.35A9.9,9.9,0,0,0,139.1,152.56Z"/><path class="cls-5" d="M166.73,152.69c-5.45,0-11.83,6.12-12.11,12.38a4.17,4.17,0,0,0,1.67,3.8c2.62,2.2,5.69,2.71,8.76,2.82,7.73.31,12.22-7.12,9.41-14.35C173.39,154.56,171,152.48,166.73,152.69Z"/><path class="cls-5" d="M151.14,141.34c-3.88.27-7.13,1.53-8.89,5.4-1.09,2.38-.78,4.67,1.53,5.73,3.52,1.62,7.08,4.27,11.18,1.23a3,3,0,0,1,1.2-.37c4.05-.72,5.77-5,3.14-8.13A9.65,9.65,0,0,0,151.14,141.34Z"/><path class="cls-5" d="M132.35,166.8c2.11.78,4,1.48,6,2.23a9.92,9.92,0,0,0,12.4-3.87,3.19,3.19,0,0,0-.29-4.39c-2.26-2.67-5.46-3.46-8.53-4.45a3,3,0,0,0-2.5.48C136.47,159.45,133,161.75,132.35,166.8Z"/></svg>