<svg id="圖層_1" data-name="圖層 1" xmlns="http://www.w3.org/2000/svg" viewBox="0 0 287.81 324.7"><defs><style>.cls-1{fill:#545757;}.cls-2{fill:#fff;}.cls-3{fill:#e6aa2b;}.cls-4{fill:#cf543f;}.cls-5{fill:none;}</style></defs><title>chks</title><path d="M65.76,78.47c.47,5.68,2.53,7.57,8.29,7.81,6.73.27,13.48.52,20.19,1.12,6.11.54,12.17,1.68,18.27,2.32a133.12,133.12,0,0,0,13.85.85c8.09,0,16.18-.46,24.27-.42,8.54,0,17.08.6,25.62.65,3.91,0,8,.52,11.43-2.42.48-.42,1.44-.29,2.41-.45.29-4.25.78-8.2.85-12.11,0,.17,0,.34,0,.51,0,4.3-.53,8.61-.85,13.28-1,.17-1.93,0-2.41.45-3.38,2.94-7.53,2.45-11.43,2.42-8.54-.05-17.08-.6-25.62-.65-8.09,0-16.17.43-24.26.42a133.14,133.14,0,0,1-13.85-.85c-6.1-.64-12.16-1.77-18.27-2.32C87.52,88.48,80.78,88.24,74,88c-5.75-.24-7.82-2.12-8.29-7.81-.33-4-.49-8-.45-12C65.31,71.61,65.48,75,65.76,78.47Z"/><path class="cls-1" d="M150.62,89.68c-8.09,0-16.18.44-24.27.43a130.65,130.65,0,0,1-13.85-.87c-6.1-.66-12.16-1.81-18.27-2.36C87.52,86.27,80.78,86,74,85.74c-5.76-.24-8.4-2.17-8.86-8-.28-3.49-1-7-1-10.47v-.15c0-6.38,1.21-12.74,2.41-19.06.74-3.88,2.3-7.64,3.13-11.5,1.52-7.06,6.57-10.45,12.93-11.72,4.81-1,9.86-1.06,14.77-1.44,6.85-.54,13.75-1.17,20.61-1.43,5.65-.21,11.35-.13,17,.2a96,96,0,0,0,13.3-.18c5-.4,10.12.4,15.18.78,3,.22,6,.59,8.92.94,5.53.63,10,3.94,14.9,6.19,1.86.86,2.69,2.81,2.78,4.93s.23,4.27.28,6.41c.24,11.26.79,22.52.79,33.77v0c0,4-.67,8-1,12.33-1,.16-2,0-2.47.46-3.38,3-7.55,2.49-11.46,2.46C167.72,90.29,159.16,89.72,150.62,89.68Z"/><path class="cls-2" d="M108,245.16c.6.22,1.61-.64,3.21-1.34-1.52-1.23-2.28-2.13-3.25-2.56q-4.87-2.2-9.89-4.08a4.94,4.94,0,0,0-3-.1,1.48,1.48,0,0,0-.33,2.76C99.08,241.75,103.5,243.52,108,245.16Zm38.11,11.29a3.34,3.34,0,0,0,3,.61c1.07-.52,1.75-1.82,2.58-2.77-1.67-1.9-3.21-1.9-4.92-.77C145.51,254.33,145.07,255.51,146.07,256.45Zm-3.56-10c.13.6,1.18,1,1.89,1.55,4.08-1,8-1.94,11.84-3.14.84-.27,1.35-1.61,2-2.46-1-.36-2.12-1.16-3-1-3.52.61-7,1.53-10.46,2.36a2.14,2.14,0,0,0-1.2.54C143.07,245,142.38,245.85,142.51,246.47Zm-40.32,6.14a3.85,3.85,0,0,0,2.33,2.08c1.39.42,3-1.4,2.93-3.84a6.43,6.43,0,0,0-2.23-1.32C103.81,249.28,101.79,251.28,102.19,252.61Zm109-47.43c3.17,2.55,7.23,4,11.17,6.07a40.59,40.59,0,0,1-7.25,14.81,124.32,124.32,0,0,1-13.34,15.18c-2.92,2.77-7.06,4.23-10.57,6.42-9.41,5.86-20,8.52-30.61,10.72-7.7,1.59-15.66,1.92-23.31,2.79-3.91-6.82-10.23-7.91-15.76-3a7.55,7.55,0,0,1-6.4,2.18,80.54,80.54,0,0,0-9.8-.27c-6.26,0-11.89-2.72-17.81-4.18C79,253.75,71.73,249,64.17,244.93c-7.91-4.31-14.32-10.45-20.9-16.48-4.38-4-8.2-8.19-10.81-14a11.72,11.72,0,0,1,2.64-2c7.5-2.89,12.19-8.91,16.85-15,2.72-3.54,5.25-7.25,8.13-10.66,5.84-6.95,9.61-15,13.25-23.2A83.81,83.81,0,0,1,79,153.35c-6.25,22.32-.79,40.56,18.39,54.57a31.42,31.42,0,0,1,.18,3.64c-.47,9.52,3.4,17.35,10.23,23.44,8.86,7.89,19.48,11.05,31.2,8.28,4-.94,7.72-3.17,11.28-5.3,2.89-1.73,4.3-4.72,5.18-8.08,1.36-5.14,3.14-10.17,5-16,3.64-2.45,8.31-5,12.31-8.72,4.32-4,6.88-9.07,9.44-14a42.65,42.65,0,0,0,4.4-26.56,45.19,45.19,0,0,0-1.53-6.5l.92-.28c1.92,6.35,3.85,12.7,6.36,18.8C196.74,187.32,202,197.73,211.23,205.18Z"/><path class="cls-2" d="M267.48,177.78c-1.49,2.77-3.64,3.25-6.1,3.42-2.2.16-4.37.7-6.57.91a19.4,19.4,0,0,1-5.38.08c-4.65-.88-9.26-2-14.24-3.18.16-1.94.3-3.68.46-5.63,1.49-.46,2.95-.79,4.3-1.36,2-.87,4-1.87,6-2.89,3-1.55,6-3.31,9.08-4.7,2.35-1.05,2.43-.86,6.73.92-2.87.65-5,1.26-7.11,1.59-3.78.58-4.23.83-4.54,4.54a31.63,31.63,0,0,0,.3,5C256.11,179.08,261.74,176.91,267.48,177.78Z"/><path class="cls-1" d="M232.31,197.47c2.54,1.68,3.13,4.1,1.94,7.09-1,2.45-2.76,3.11-5.8,3.12-7.07,0-11.94-4.15-17.16-8.06-8.9-6.67-12.37-16.64-16.36-26.21a150.3,150.3,0,0,1-6-19.17c-1.13-4.28-1.63-8.74-2.33-13.13-1.84-11.31-3.77-22.62-5.37-34-.51-3.64-.08-7.41-.08-11.57,3-.89,5.74-1.68,8.45-2.44.24-.07.56.14,1,.28a16.61,16.61,0,0,1,.27,2.51c-.54,12.65,1.72,25,3.9,37.38,1,5.86,2.09,11.73,3.55,17.49C200,157,202,163.09,203.91,169.2a11.86,11.86,0,0,0,1.77,3.59c4,5.32,8.09,10.66,12.34,15.82a21.84,21.84,0,0,0,10.65,7.15A14.22,14.22,0,0,1,232.31,197.47Z"/><path class="cls-2" d="M223,133.86c6.29,18.36,9.69,37.08,7.12,57.21a26.25,26.25,0,0,1-4.15-2,101.55,101.55,0,0,1-9.88-7.71,22.82,22.82,0,0,1-4.91-6.81c-3-6.33-6.14-12.67-8.21-19.32a180,180,0,0,1-7.53-43.13c-.29-4.86.12-9.75.22-14.63l1.31-.44C208.84,107,215.28,120.89,223,133.86Z"/><path class="cls-2" d="M186,157.86l-.92.28A42.53,42.53,0,0,0,180.32,148c-3.15-4.92-6.19-9.91-10.63-13.84a21.28,21.28,0,0,0-3-2.65c-5.12-3-10.4-5.78-15.46-8.89-4-2.45-8.3-3.12-12.83-3.05a1.66,1.66,0,0,1-.45,0c-8.86-2.24-17.51.5-26.24,1.15a15.29,15.29,0,0,0-4.27,1.16c-8.18,3.18-14.1,9.08-19.16,16-2.46,3.36-5,6.68-7.5,10a124.44,124.44,0,0,0,4.29-56.69c2.93.15,5.52-.16,7.85.48,7.49,2.06,15.15,1.63,22.73,1.84,9.73.28,19.47-.3,29.19-.07s19.13,1,28.7,1.6a24.94,24.94,0,0,1,4,.89,84,84,0,0,0,1.56,21.54c1.51,8.36,2,16.91,3.07,25.36a48.79,48.79,0,0,0,1.81,8.29C184.63,153.4,185.3,155.63,186,157.86Z"/><path class="cls-3" d="M183.61,166.33c.65,3.06,0,6.58-.73,9.72a74.43,74.43,0,0,1-7.07,18.69c-3.36,6.16-7.53,11.66-13.68,15a40.1,40.1,0,0,1-13.37,4.72c-6.31.85-12.8.38-19.21.45a7.91,7.91,0,0,1-2.22-.32c-7.3-2.17-14.8-3.86-21.84-6.69-7.2-2.9-14-6.79-18.19-13.94-1.25-2.14-3.08-3.94-2.68-6.76.07-.53-.76-1.14-1-1.77-2.12-4.6-4.5-9.15-3.54-14.7-.45-10.88,3.12-20.7,9.66-29.44a33.4,33.4,0,0,1,6.83-6.36,58.14,58.14,0,0,1,24.7-10.72c11.13-2.1,21.39-.17,31.5,3.59,4.1,1.53,7.64,4.61,11.38,7.08C175.43,142.35,180.92,153.58,183.61,166.33Zm-28.56.32c.72-2.24.33-4.82-1.82-6a30.87,30.87,0,0,0-8.37-2.83,16.48,16.48,0,0,0-14.16,3.53c-3-3.17-6.37-5-9.72-5.2-8.51-.43-17.67,5.14-16.3,16.54.68,5.7,3.13,9,9.81,9.72a33.6,33.6,0,0,0,3.5,0c3.18,9.4,7.59,12.11,17.23,10.59,4.47-.7,8.17-6.77,8.39-14.1a9.9,9.9,0,0,1,1.71-1C151,176.27,153.43,171.75,155.05,166.65Z"/><path d="M158.26,242.43c-.66.85-1.17,2.19-2,2.46-3.83,1.2-7.76,2.09-11.84,3.14-.71-.55-1.76-1-1.89-1.55s.56-1.49,1-2.14a2.14,2.14,0,0,1,1.2-.54c3.48-.82,6.94-1.74,10.46-2.36C156.14,241.27,157.24,242.07,158.26,242.43Z"/><path class="cls-3" d="M155.67,216.36a3.88,3.88,0,0,1,.12,1.48c-1,3.88-2.28,7.72-3.25,11.63-1.35,5.48-5.82,7.87-10.26,9.74-13.88,5.84-35.16-.32-41.26-19.43-1-3-.92-6.09-.23-9.9C118.62,219.23,136.77,220.24,155.67,216.36Z"/><path d="M153.24,160.68c2.15,1.14,2.53,3.72,1.82,6-1.62,5.1-4.06,9.63-9.72,11.35a9.9,9.9,0,0,0-1.71,1c-.22,7.33-3.91,13.4-8.39,14.1-9.65,1.52-14-1.18-17.23-10.59a33.6,33.6,0,0,1-3.5,0c-6.69-.71-9.13-4-9.81-9.72-1.37-11.4,7.79-17,16.3-16.54,3.35.17,6.68,2,9.72,5.2a16.48,16.48,0,0,1,14.16-3.53A30.87,30.87,0,0,1,153.24,160.68Zm-9.92,14c2.92-2.65,6.41-5,7-10-2.11-.78-4-1.48-6-2.23a9.92,9.92,0,0,0-12.4,3.87,3.19,3.19,0,0,0,.29,4.39c2.26,2.67,5.46,3.46,8.53,4.45A3,3,0,0,0,143.32,174.71Zm-2.85,10.06c1.09-2.38.78-4.67-1.53-5.73-3.52-1.62-7.08-4.27-11.18-1.23a3,3,0,0,1-1.2.37c-4.05.72-5.77,5-3.14,8.13a9.65,9.65,0,0,0,8.16,3.85C135.46,189.9,138.71,188.64,140.47,184.77ZM128.1,166.43a4.17,4.17,0,0,0-1.67-3.8c-2.62-2.2-5.69-2.71-8.76-2.82-7.73-.31-12.22,7.12-9.41,14.35,1.08,2.78,3.45,4.86,7.73,4.65C121.43,178.83,127.82,172.7,128.1,166.43Z"/><path d="M151.65,254.29c-.83.95-1.51,2.25-2.58,2.77a3.34,3.34,0,0,1-3-.61c-1-.94-.56-2.12.66-2.93C148.44,252.38,150,252.39,151.65,254.29Z"/><path class="cls-4" d="M150.37,164.71c-.64,5-4.13,7.35-7,10a3,3,0,0,1-2.5.48c-3.08-1-6.27-1.78-8.53-4.45a3.19,3.19,0,0,1-.29-4.39,9.92,9.92,0,0,1,12.4-3.87C146.32,163.23,148.26,163.93,150.37,164.71Z"/><path class="cls-4" d="M138.95,179c2.3,1.06,2.61,3.35,1.53,5.73-1.77,3.86-5,5.13-8.89,5.4a9.65,9.65,0,0,1-8.16-3.85c-2.62-3.16-.91-7.41,3.14-8.13a3,3,0,0,0,1.2-.37C131.87,174.77,135.43,177.42,138.95,179Z"/><path class="cls-3" d="M129.59,258.34a43,43,0,0,1,3.71,19.22,109.12,109.12,0,0,1-4.66,26.76c-1.27,4.1-1.75,8.43-2.76,12.62a66.43,66.43,0,0,1-2.25,6.31c-.82-1.21-1.28-1.62-1.4-2.11-1.69-7.41-4.33-14.62-4.36-22.4S116.5,282.92,118,275C119.29,267.87,122.41,261.87,129.59,258.34Z"/><path class="cls-4" d="M126.43,162.64a4.17,4.17,0,0,1,1.67,3.8c-.28,6.26-6.67,12.4-12.11,12.38-4.28.22-6.66-1.87-7.73-4.65-2.81-7.23,1.68-14.66,9.41-14.35C120.74,159.93,123.81,160.44,126.43,162.64Z"/><path d="M107.92,241.25c1,.43,1.73,1.33,3.25,2.56-1.6.7-2.6,1.56-3.21,1.34-4.46-1.63-8.88-3.41-13.22-5.32a1.48,1.48,0,0,1,.33-2.76,4.94,4.94,0,0,1,3,.1Q103,239,107.92,241.25Z"/><path d="M107.45,250.85c0,2.44-1.54,4.26-2.93,3.84a3.85,3.85,0,0,1-2.33-2.08c-.4-1.33,1.63-3.33,3-3.08A6.43,6.43,0,0,1,107.45,250.85Z"/><path class="cls-1" d="M80.17,90.58c.46,2.13,1.32,4.14,1.26,6.13-.31,11-.5,22.08-1.42,33.07a36.91,36.91,0,0,1-4.69,15.35c-3,5.18-5.17,10.81-7.52,16.32a133.89,133.89,0,0,1-16.05,28.12c-5.08,6.74-11.6,12.47-17.9,18.18-3.77,3.42-7.92,2.13-10.33-2.33-2.82-5.24-2.41-7.33,2.15-11.24,4.86-4.16,9.95-8.1,14.48-12.59,5.24-5.19,10.58-10.38,14.28-16.93a50.79,50.79,0,0,1,3.76-5c4.52-6.12,6.35-13.36,8.42-20.49.67-2.28,1.15-4.63,1.69-6.95a66.51,66.51,0,0,0,.37-28.42c-.92-4.64-.88-9.48-1.29-14.46Z"/><path class="cls-2" d="M62.45,95c1.44,7.72,2.85,15.48,1.77,23.37-1.3,9.46-2,19.08-6.28,27.89a13.11,13.11,0,0,0-1.09,3.41c-1.12,6.24-4.43,11.3-8.42,16-1.93,2.29-4,4.5-5.67,6.95-4.62,6.61-10.8,11.44-18.47,16.58,0-3.51-.11-6,0-8.5.3-5.67.55-11.36,1.16-17a66.6,66.6,0,0,1,2.09-10c1.27-4.73,2.86-9.39,4.18-14.11a74.28,74.28,0,0,1,13.11-25.84c2.93-3.77,5.32-7.95,8.14-11.81,2.43-3.33,5.13-6.48,8.17-10.3A24.36,24.36,0,0,1,62.45,95Z"/><path class="cls-2" d="M7.07,166.1c4.19-3.09,8.69-5.78,14.5-5.78-.34,8-.67,16-1,24.36a4.42,4.42,0,0,1-2,.17A72.71,72.71,0,0,1,10.67,182c-2-.89-4.23-1.83-5.7-3.37C1.73,175.25,2.7,169.31,7.07,166.1Z"/><path d="M135,22.19c-5.64-.33-11.32-.4-17-.19-6.87.25-13.72.87-20.58,1.4-4.91.38-9.9.47-14.71,1.41C76.41,26.06,71.5,29.4,70,36.33c-.83,3.79-2.68,7.49-3.42,11.3A107.31,107.31,0,0,0,64.14,68v.15c0,4,.7,8,1,12,.47,5.69,2.83,7.57,8.58,7.81,6.74.28,13.63.52,20.33,1.12,6.11.55,12.24,1.68,18.34,2.32a133.83,133.83,0,0,0,13.88.85c8.09,0,16.2-.46,24.28-.42,8.54,0,17.08.59,25.62.65,3.91,0,8.05.52,11.44-2.42.48-.42,1.43-.29,2.41-.45.32-4.68,1-9,1-13.28,0-.17.11-.34.11-.51v0c0-.37-.11-.75-.11-1.13-.09-11.24-.48-22.48-.73-33.72,0-2.1-.1-4.2-.19-6.3s-.93-4-2.79-4.84c-4.89-2.21-9.38-5.45-14.91-6.08-3-.33-5.94-.7-8.93-.92-5.06-.36-10.17-1.16-15.18-.77A96.91,96.91,0,0,1,135,22.19Zm114.42,160a19.4,19.4,0,0,0,5.38-.08c2.2-.21,4.36-.75,6.57-.91,2.46-.18,4.62-.66,6.1-3.42-5.73-.87-11.37,1.3-17-1.36a31.63,31.63,0,0,1-.3-5c.31-3.71.76-4,4.54-4.54,2.14-.32,4.24-.93,7.11-1.59-4.3-1.79-4.38-2-6.73-.92-3.1,1.39-6,3.15-9.08,4.7-2,1-4,2-6,2.89-1.36.57-2.81.91-4.3,1.36-.16,1.95-.31,3.69-.46,5.63C240.17,180.15,244.78,181.31,249.43,182.19ZM24.31,180.7c-.13,2.49,0,5,0,8.5,7.67-5.14,13.85-10,18.47-16.58,1.71-2.45,3.74-4.66,5.67-6.95,4-4.73,7.3-9.78,8.42-16a13.11,13.11,0,0,1,1.09-3.41c4.27-8.81,5-18.43,6.28-27.89,1.09-7.89-.32-15.64-1.77-23.37a24.36,24.36,0,0,0-1.28-3.39c-3,3.82-5.74,7-8.17,10.3-2.82,3.86-5.21,8-8.14,11.81a74.28,74.28,0,0,0-13.11,25.84c-1.32,4.72-2.91,9.37-4.18,14.11a66.6,66.6,0,0,0-2.09,10C24.87,169.34,24.61,175,24.31,180.7ZM10.67,182a72.71,72.71,0,0,0,7.91,2.82,4.42,4.42,0,0,0,2-.17c.36-8.4.69-16.38,1-24.36-5.81,0-10.31,2.69-14.5,5.78-4.37,3.22-5.34,9.15-2.1,12.55C6.44,180.2,8.65,181.13,10.67,182ZM101,219.77c6.09,19.1,27.38,25.27,41.26,19.43,4.43-1.86,8.91-4.26,10.26-9.74,1-3.91,2.2-7.74,3.25-11.63a3.88,3.88,0,0,0-.12-1.48c-18.89,3.89-37,2.87-54.87-6.48C100.11,213.69,100.07,216.74,101,219.77ZM211.3,199.62c5.22,3.91,10.09,8.09,17.16,8.06,3,0,4.82-.67,5.8-3.12,1.19-3,.59-5.41-1.94-7.09a14.22,14.22,0,0,0-3.64-1.69A21.84,21.84,0,0,1,218,188.62c-4.25-5.16-8.29-10.5-12.34-15.82a11.86,11.86,0,0,1-1.77-3.59c-1.92-6.12-4-12.2-5.54-18.41-1.46-5.76-2.51-11.63-3.55-17.49-2.18-12.36-4.43-24.73-3.9-37.38a16.61,16.61,0,0,0-.27-2.51c-.49-.14-.81-.35-1-.28-2.71.75-5.41,1.55-8.45,2.44,0,4.16-.43,7.93.08,11.57,1.59,11.35,3.53,22.65,5.37,34,.71,4.39,1.2,8.84,2.33,13.13a150.3,150.3,0,0,0,6,19.17C198.92,183,202.39,192.95,211.3,199.62ZM83.56,185.43c.29.63,1.12,1.24,1,1.77C84.21,190,86,191.83,87.3,194c4.17,7.15,11,11,18.19,13.94,7,2.83,14.53,4.52,21.84,6.69a7.91,7.91,0,0,0,2.22.32c6.41-.07,12.9.41,19.21-.45a40.1,40.1,0,0,0,13.37-4.72c6.15-3.35,10.32-8.85,13.68-15a74.43,74.43,0,0,0,7.07-18.69c.74-3.14,1.38-6.66.73-9.72-2.69-12.75-8.17-24-19.51-31.45-3.74-2.46-7.28-5.55-11.38-7.08-10.11-3.77-20.37-5.69-31.5-3.59a58.14,58.14,0,0,0-24.7,10.72,33.4,33.4,0,0,0-6.83,6.36C83.15,150,79.58,159.85,80,170.74,79.06,176.28,81.44,180.83,83.56,185.43Zm38.68,135.72c.11.49.58.9,1.4,2.11a66.43,66.43,0,0,0,2.25-6.31c1-4.19,1.49-8.52,2.76-12.62a109.12,109.12,0,0,0,4.66-26.76,43,43,0,0,0-3.71-19.22c-7.18,3.52-10.3,9.53-11.63,16.68-1.47,7.89-.11,15.82-.08,23.73S120.55,313.74,122.24,321.16ZM68.68,103.75a66.51,66.51,0,0,1-.37,28.42c-.54,2.32-1,4.67-1.69,6.95-2.08,7.13-3.9,14.37-8.42,20.49a50.79,50.79,0,0,0-3.76,5c-3.7,6.55-9,11.74-14.28,16.93-4.53,4.5-9.62,8.43-14.48,12.59-4.56,3.91-5,6-2.15,11.24,2.41,4.47,6.57,5.75,10.33,2.33,6.3-5.72,12.82-11.44,17.9-18.18A133.89,133.89,0,0,0,67.8,161.44c2.35-5.51,4.56-11.13,7.52-16.32A36.91,36.91,0,0,0,80,129.78c.92-11,1.11-22,1.42-33.07.05-2-.8-4-1.26-6.13L67.38,89.29C67.8,94.27,67.75,99.11,68.68,103.75ZM43.27,228.44c6.58,6,13,12.17,20.9,16.48C71.73,249,79,253.75,87.54,255.87c5.92,1.46,11.55,4.14,17.81,4.18a80.54,80.54,0,0,1,9.8.27,7.55,7.55,0,0,0,6.4-2.18c5.54-4.86,11.86-3.77,15.76,3,7.65-.87,15.61-1.2,23.31-2.79,10.62-2.2,21.2-4.87,30.61-10.72,3.51-2.18,7.65-3.65,10.57-6.42a124.32,124.32,0,0,0,13.34-15.18,40.59,40.59,0,0,0,7.25-14.81c-3.93-2.09-8-3.52-11.17-6.07-9.25-7.45-14.49-17.86-18.89-28.52-2.52-6.1-4.45-12.45-6.36-18.8-.67-2.23-1.34-4.46-2-6.68a48.79,48.79,0,0,1-1.81-8.29c-1.08-8.45-1.55-17-3.07-25.36A84,84,0,0,1,177.5,96a24.94,24.94,0,0,0-4-.89c-9.56-.6-19.12-1.36-28.7-1.6s-19.47.35-29.19.07c-7.59-.22-15.25.22-22.73-1.84-2.33-.64-4.92-.33-7.85-.48a124.44,124.44,0,0,1-4.29,56.69c2.5-3.33,5-6.65,7.5-10,5.06-6.93,11-12.84,19.16-16a15.29,15.29,0,0,1,4.27-1.16c8.73-.66,17.38-3.4,26.24-1.15a1.66,1.66,0,0,0,.45,0c4.53-.06,8.83.6,12.83,3.05,5.06,3.11,10.34,5.87,15.46,8.89a21.28,21.28,0,0,1,3,2.65c4.44,3.92,7.47,8.92,10.63,13.84A42.53,42.53,0,0,1,185,158.14a45.19,45.19,0,0,1,1.53,6.5,42.65,42.65,0,0,1-4.4,26.56c-2.56,5-5.13,10-9.44,14-4,3.75-8.67,6.27-12.31,8.72-1.83,5.79-3.62,10.81-5,16-.88,3.35-2.3,6.35-5.18,8.08-3.56,2.13-7.32,4.36-11.28,5.3-11.73,2.77-22.34-.39-31.2-8.28-6.84-6.09-10.71-13.92-10.23-23.44a31.42,31.42,0,0,0-.18-3.64c-19.18-14-24.64-32.25-18.39-54.57a83.81,83.81,0,0,0-5.67,10.27c-3.64,8.19-7.41,16.26-13.25,23.2-2.88,3.41-5.41,7.12-8.13,10.66-4.66,6.06-9.35,12.08-16.85,15a11.72,11.72,0,0,0-2.64,2C35.07,220.26,38.89,224.42,43.27,228.44ZM226,189.09a26.25,26.25,0,0,0,4.15,2c2.57-20.13-.83-38.84-7.12-57.21-7.71-13-14.15-26.87-26-36.81l-1.31.44c-.09,4.88-.5,9.77-.22,14.63a180,180,0,0,0,7.53,43.13c2.07,6.65,5.23,13,8.21,19.32a22.82,22.82,0,0,0,4.91,6.81A101.55,101.55,0,0,0,226,189.09Zm61.19-21.48c0,.45-.06.9-.07,1.35-.15,6.81-.41,7.07-7,7.12-1.2,0-2.41.18-3.59.08a5.87,5.87,0,0,0-6.2,3.38c-1.44,2.68-4.08,3.89-6.87,4.68a42.59,42.59,0,0,1-18.63.65c-3.18-.51-6.41-.69-9.86-1l-1.29,9.27c5.74,3.27,6.28,8.41,4.28,14.13-1.56,4.45-5.66,4.83-9.73,5.42L226,217.46c-2.46,5.59-6.48,10-10.68,14.3q-5.45,5.58-10.94,11.11a14.6,14.6,0,0,1-2,1.85c-8.5,5.85-17,11.69-27.38,13.9-7.3,1.55-14.53,3.48-21.88,4.79-4.09.73-8.36.59-12.54.74-3.88.14-3.88.31-3.85,4,.11,12.4-.36,24.77-3.58,36.86-1.73,6.49-3.38,13-5,19.51-.41,1.64-.7,3.32-2.68,3.69-1.41.26-4.55-2-5.39-3.47-2.28-4.15-3-8.78-3.68-13.3a175,175,0,0,1-2.11-33.57c.13-3.7.82-7.39,1.32-11.62-.77-1.46-2.55-1.86-4.63-1.81a45.9,45.9,0,0,1-18-3.53,13.28,13.28,0,0,0-2.13-.73c-16.77-3.48-30.65-12.45-43.73-23-1.84-1.48-4.08-2.47-5.93-3.94a54.12,54.12,0,0,1-4.39-4.36c-3.71-3.69-7.33-7.4-9.14-12.54-.44-1.25-1.89-2.16-2.92-3.18a57.36,57.36,0,0,1-5.08-5c-3.34-4.28-3.25-8.81-.48-13.42,1-1.59,1.71-3.3,2.61-5.05-3.82-1.21-7.13-2-10.23-3.31a40.8,40.8,0,0,1-7.34-4.1c-4.32-3-5.44-7.18-4.37-12.19.9-4.22,4.22-6.53,7.39-8.45a52.82,52.82,0,0,1,11.87-4.92c2.64-.81,3.65-1.82,4.27-4.72,3.2-14.81,7.26-29.48,16.41-41.86,6-8.14,12.32-16.3,20.92-22.08,2.85-1.92,3.36-3.61,2.75-7.29-2.22-13.38-2.23-26.84,1.89-40,1.07-3.42,2.12-6.86,3.1-10.31.83-2.92,2.54-4.6,5.42-6,7.67-3.65,15.66-4.62,24-4.63,6.13,0,12.25-.59,18.41-.92.31-1.09.57-2.08.88-3,.85-2.56,2.43-4,5.33-3.73,6,.5,11.94.75,17.88,1.38,4,.43,5.16,1.4,7,4.6,6,0,11.95,0,17.92,0a21.56,21.56,0,0,1,9.93,2.23c4,2,8.4,3.09,12.58,4.7a13,13,0,0,1,8.51,13.66c-1.41,13.31-.39,26.64-.61,40a66.67,66.67,0,0,1-1.23,8.88,4.88,4.88,0,0,0,1.89,5.12c2.25,1.72,4.33,3.64,6.51,5.45,6,5,9.86,11.61,14.21,17.81,6,8.5,9.62,18.21,12.57,28.09,1.78,6,2.51,12.24,3.73,18.37.29,1.46.65,2.91,1,4.58A14,14,0,0,0,246,164.75a20.66,20.66,0,0,1,13.79-4.36c2.5.14,4.76.49,6.63,2.18a9.45,9.45,0,0,0,8.34,2.2,82,82,0,0,1,8.48-.82C285.9,163.8,287,164.9,287.15,167.61ZM142.67,17.73a3.39,3.39,0,0,0,.06-.68c-7.44-1.37-14.89-2.64-22.49-.4,0,.42,0,1.08-.07,1.08Z"/><path class="cls-5" d="M116.37,19c.31-1.09.57-2.08.88-3,.85-2.56,2.43-4,5.33-3.73,6,.5,11.94.75,17.88,1.38,4,.43,5.16,1.4,7,4.6,6,0,11.95,0,17.92,0a21.56,21.56,0,0,1,9.93,2.23c4,2,8.4,3.09,12.58,4.7a13,13,0,0,1,8.51,13.66c-1.41,13.31-.39,26.64-.61,40a66.67,66.67,0,0,1-1.23,8.88,4.88,4.88,0,0,0,1.89,5.12c2.25,1.72,4.33,3.64,6.51,5.45,6,5,9.86,11.61,14.21,17.81,6,8.5,9.62,18.21,12.57,28.09,1.78,6,2.51,12.24,3.73,18.37.29,1.46.65,2.91,1,4.58A14,14,0,0,0,246,164.75a20.66,20.66,0,0,1,13.79-4.36c2.5.14,4.76.49,6.63,2.18a9.45,9.45,0,0,0,8.34,2.2,82,82,0,0,1,8.48-.82c2.68-.15,3.77,1,3.93,3.67,0,.45-.06.9-.07,1.35-.15,6.81-.41,7.07-7,7.12-1.2,0-2.41.18-3.59.08a5.87,5.87,0,0,0-6.2,3.38c-1.44,2.68-4.08,3.89-6.87,4.68a42.59,42.59,0,0,1-18.63.65c-3.18-.51-6.41-.69-9.86-1l-1.29,9.27c5.74,3.27,6.28,8.41,4.28,14.13-1.56,4.45-5.66,4.83-9.73,5.42L226,217.46c-2.46,5.59-6.48,10-10.68,14.3q-5.45,5.58-10.94,11.11a14.6,14.6,0,0,1-2,1.85c-8.5,5.85-17,11.69-27.38,13.9-7.3,1.55-14.53,3.48-21.88,4.79-4.09.73-8.36.59-12.54.74-3.88.14-3.88.31-3.85,4,.11,12.4-.36,24.77-3.58,36.86-1.73,6.49-3.38,13-5,19.51-.41,1.64-.7,3.32-2.68,3.69-1.41.26-4.55-2-5.39-3.47-2.28-4.15-3-8.78-3.68-13.3a175,175,0,0,1-2.11-33.57c.13-3.7.82-7.39,1.32-11.62-.77-1.46-2.55-1.86-4.63-1.81a45.9,45.9,0,0,1-18-3.53,13.28,13.28,0,0,0-2.13-.73c-16.77-3.48-30.65-12.45-43.73-23-1.84-1.48-4.08-2.47-5.93-3.94a54.12,54.12,0,0,1-4.39-4.36c-3.71-3.69-7.33-7.4-9.14-12.54-.44-1.25-1.89-2.16-2.92-3.18a57.36,57.36,0,0,1-5.08-5c-3.34-4.28-3.25-8.81-.48-13.42,1-1.59,1.71-3.3,2.61-5.05-3.82-1.21-7.13-2-10.23-3.31a40.8,40.8,0,0,1-7.34-4.1c-4.32-3-5.44-7.18-4.37-12.19.9-4.22,4.22-6.53,7.39-8.45a52.82,52.82,0,0,1,11.87-4.92c2.64-.81,3.65-1.82,4.27-4.72,3.2-14.81,7.26-29.48,16.41-41.86,6-8.14,12.32-16.3,20.92-22.08,2.85-1.92,3.36-3.61,2.75-7.29-2.22-13.38-2.23-26.84,1.89-40,1.07-3.42,2.12-6.86,3.1-10.31.83-2.92,2.54-4.6,5.42-6,7.67-3.65,15.66-4.62,24-4.63C104.09,19.93,110.21,19.35,116.37,19Z"/><path class="cls-5" d="M186,157.86c-.67-2.23-1.34-4.46-2-6.68a48.79,48.79,0,0,1-1.81-8.29c-1.08-8.45-1.55-17-3.07-25.36A84,84,0,0,1,177.5,96a24.94,24.94,0,0,0-4-.89c-9.56-.6-19.12-1.36-28.7-1.6s-19.47.35-29.19.07c-7.59-.22-15.25.22-22.73-1.84-2.33-.64-4.92-.33-7.85-.48a124.44,124.44,0,0,1-4.29,56.69c2.5-3.33,5-6.65,7.5-10,5.06-6.93,11-12.84,19.16-16a15.29,15.29,0,0,1,4.27-1.16c8.73-.66,17.38-3.4,26.24-1.15a1.66,1.66,0,0,0,.45,0c4.53-.06,8.83.6,12.83,3.05,5.06,3.11,10.34,5.87,15.46,8.89a21.28,21.28,0,0,1,3,2.65c4.44,3.92,7.47,8.92,10.63,13.84A42.53,42.53,0,0,1,185,158.14a45.19,45.19,0,0,1,1.53,6.5,42.65,42.65,0,0,1-4.4,26.56c-2.56,5-5.13,10-9.44,14-4,3.75-8.67,6.27-12.31,8.72-1.83,5.79-3.62,10.81-5,16-.88,3.35-2.3,6.35-5.18,8.08-3.56,2.13-7.32,4.36-11.28,5.3-11.73,2.77-22.34-.39-31.2-8.28-6.84-6.09-10.71-13.92-10.23-23.44a31.42,31.42,0,0,0-.18-3.64c-19.18-14-24.64-32.25-18.39-54.57a83.81,83.81,0,0,0-5.67,10.27c-3.64,8.19-7.41,16.26-13.25,23.2-2.88,3.41-5.41,7.12-8.13,10.66-4.66,6.06-9.35,12.08-16.85,15a11.72,11.72,0,0,0-2.64,2c2.61,5.77,6.43,9.94,10.81,14,6.58,6,13,12.17,20.9,16.48C71.73,249,79,253.75,87.54,255.87c5.92,1.46,11.55,4.14,17.81,4.18a80.54,80.54,0,0,1,9.8.27,7.55,7.55,0,0,0,6.4-2.18c5.54-4.86,11.86-3.77,15.76,3,7.65-.87,15.61-1.2,23.31-2.79,10.62-2.2,21.2-4.87,30.61-10.72,3.51-2.18,7.65-3.65,10.57-6.42a124.32,124.32,0,0,0,13.34-15.18,40.59,40.59,0,0,0,7.25-14.81c-3.93-2.09-8-3.52-11.17-6.07-9.25-7.45-14.49-17.86-18.89-28.52C189.82,170.56,187.89,164.21,186,157.86Z"/><path class="cls-5" d="M66.14,68.18c0,3.42-.24,6.85,0,10.28.47,5.68,2.32,7.57,8.08,7.81,6.73.27,13.37.52,20.08,1.12,6.11.54,12.11,1.68,18.22,2.32a132.61,132.61,0,0,0,13.82.85c8.09,0,16.17-.46,24.26-.42,8.54,0,17.07.6,25.61.65,3.91,0,8,.52,11.42-2.42.48-.42,1.55-.29,2.52-.45.29-4.25,1-8.2,1-12.11v0c0-.37-.11-.75-.11-1.13-.09-11.24-.48-22.48-.73-33.72,0-2.1-.1-4.2-.19-6.3s-.93-4-2.79-4.84c-4.89-2.21-9.38-5.45-14.91-6.08-3-.33-5.94-.7-8.93-.92-5.06-.36-10.17-1.16-15.18-.77a96.9,96.9,0,0,1-13.29.18c-5.64-.33-11.32-.4-17-.19-6.87.25-13.72.87-20.58,1.4-4.91.38-9.9.47-14.71,1.41C76.41,26.06,71.5,29.4,70,36.33c-.83,3.79-1.68,7.49-2.42,11.3C66.25,54.39,66.14,61.2,66.14,68Z"/><path class="cls-5" d="M80,170.74c-1,5.54,1.42,10.09,3.54,14.7.29.63,1.12,1.24,1,1.77C84.21,190,86,191.83,87.3,194c4.17,7.15,11,11,18.19,13.94,7,2.83,14.53,4.52,21.84,6.69a7.91,7.91,0,0,0,2.22.32c6.41-.07,12.9.41,19.21-.45a40.1,40.1,0,0,0,13.37-4.72c6.15-3.35,10.32-8.85,13.68-15a74.43,74.43,0,0,0,7.07-18.69c.74-3.14,1.38-6.66.73-9.72-2.69-12.75-8.17-24-19.51-31.45-3.74-2.46-7.28-5.55-11.38-7.08-10.11-3.77-20.37-5.69-31.5-3.59a58.14,58.14,0,0,0-24.7,10.72,33.4,33.4,0,0,0-6.83,6.36C83.15,150,79.58,159.85,80,170.74Z"/><path class="cls-5" d="M24.29,189.2c7.67-5.14,13.85-10,18.47-16.58,1.71-2.45,3.74-4.66,5.67-6.95,4-4.73,7.3-9.78,8.42-16a13.11,13.11,0,0,1,1.09-3.41c4.27-8.81,5-18.43,6.28-27.89,1.09-7.89-.32-15.64-1.77-23.37a24.36,24.36,0,0,0-1.28-3.39c-3,3.82-5.74,7-8.17,10.3-2.82,3.86-5.21,8-8.14,11.81a74.28,74.28,0,0,0-13.11,25.84c-1.32,4.72-2.91,9.37-4.18,14.11a66.6,66.6,0,0,0-2.09,10c-.61,5.64-.86,11.33-1.16,17C24.18,183.19,24.29,185.69,24.29,189.2Z"/><path class="cls-5" d="M196.94,97.05l-1.31.44c-.09,4.88-.5,9.77-.22,14.63a180,180,0,0,0,7.53,43.13c2.07,6.65,5.23,13,8.21,19.32a22.82,22.82,0,0,0,4.91,6.81,101.55,101.55,0,0,0,9.88,7.71,26.25,26.25,0,0,0,4.15,2c2.57-20.13-.83-38.84-7.12-57.21C215.28,120.89,208.84,107,196.94,97.05Z"/><path class="cls-5" d="M67.38,89.29c.41,5,.37,9.82,1.29,14.46a66.51,66.51,0,0,1-.37,28.42c-.54,2.32-1,4.67-1.69,6.95-2.08,7.13-3.9,14.37-8.42,20.49a50.79,50.79,0,0,0-3.76,5c-3.7,6.55-9,11.74-14.28,16.93-4.53,4.5-9.62,8.43-14.48,12.59-4.56,3.91-5,6-2.15,11.24,2.41,4.47,6.57,5.75,10.33,2.33,6.3-5.72,12.82-11.44,17.9-18.18A133.89,133.89,0,0,0,67.8,161.44c2.35-5.51,4.56-11.13,7.52-16.32A36.91,36.91,0,0,0,80,129.78c.92-11,1.11-22,1.42-33.07.05-2-.8-4-1.26-6.13Z"/><path class="cls-5" d="M181.15,95.57c0,4.16-.43,7.93.08,11.57,1.59,11.35,3.53,22.65,5.37,34,.71,4.39,1.2,8.84,2.33,13.13a150.3,150.3,0,0,0,6,19.17c4,9.58,7.45,19.54,16.36,26.21,5.22,3.91,10.09,8.09,17.16,8.06,3,0,4.82-.67,5.8-3.12,1.19-3,.59-5.41-1.94-7.09a14.22,14.22,0,0,0-3.64-1.69A21.84,21.84,0,0,1,218,188.62c-4.25-5.16-8.29-10.5-12.34-15.82a11.86,11.86,0,0,1-1.77-3.59c-1.92-6.12-4-12.2-5.54-18.41-1.46-5.76-2.51-11.63-3.55-17.49-2.18-12.36-4.43-24.73-3.9-37.38a16.61,16.61,0,0,0-.27-2.51c-.49-.14-.81-.35-1-.28C186.9,93.88,184.2,94.68,181.15,95.57Z"/><path class="cls-5" d="M100.8,209.88c-.7,3.81-.74,6.86.23,9.9,6.09,19.1,27.38,25.27,41.26,19.43,4.43-1.86,8.91-4.26,10.26-9.74,1-3.91,2.2-7.74,3.25-11.63a3.88,3.88,0,0,0-.12-1.48C136.77,220.24,118.62,219.23,100.8,209.88Z"/><path class="cls-5" d="M123.64,323.26a66.43,66.43,0,0,0,2.25-6.31c1-4.19,1.49-8.52,2.76-12.62a109.12,109.12,0,0,0,4.66-26.76,43,43,0,0,0-3.71-19.22c-7.18,3.52-10.3,9.53-11.63,16.68-1.47,7.89-.11,15.82-.08,23.73s2.67,15,4.36,22.4C122.35,321.64,122.82,322.05,123.64,323.26Z"/><path class="cls-5" d="M21.56,160.32c-5.81,0-10.31,2.69-14.5,5.78-4.37,3.22-5.34,9.15-2.1,12.55,1.47,1.54,3.68,2.48,5.7,3.37a72.71,72.71,0,0,0,7.91,2.82,4.42,4.42,0,0,0,2-.17C20.89,176.28,21.23,168.3,21.56,160.32Z"/><path class="cls-5" d="M235.19,179c5,1.14,9.59,2.3,14.24,3.18a19.4,19.4,0,0,0,5.38-.08c2.2-.21,4.36-.75,6.57-.91,2.46-.18,4.62-.66,6.1-3.42-5.73-.87-11.37,1.3-17-1.36a31.63,31.63,0,0,1-.3-5c.31-3.71.76-4,4.54-4.54,2.14-.32,4.24-.93,7.11-1.59-4.3-1.79-4.38-2-6.73-.92-3.1,1.39-6,3.15-9.08,4.7-2,1-4,2-6,2.89-1.36.57-2.81.91-4.3,1.36C235.49,175.33,235.35,177.06,235.19,179Z"/><path class="cls-5" d="M162.47,314.63a7.08,7.08,0,0,1,.07-.9H140a7.86,7.86,0,0,0-.06.89C147.42,316,154.87,316.87,162.47,314.63Z"/><path class="cls-5" d="M111.16,243.81c-1.6.7-2.6,1.56-3.21,1.34-4.46-1.63-8.88-3.41-13.22-5.32a1.48,1.48,0,0,1,.33-2.76,4.94,4.94,0,0,1,3,.1q5,1.87,9.89,4.08C108.88,241.69,109.64,242.59,111.16,243.81Z"/><path class="cls-5" d="M144.4,248c-.71-.55-1.76-1-1.89-1.55s.56-1.49,1-2.14a2.14,2.14,0,0,1,1.2-.54c3.48-.82,6.94-1.74,10.46-2.36.93-.16,2,.64,3,1-.66.85-1.17,2.19-2,2.46C152.41,246.08,148.48,247,144.4,248Z"/><path class="cls-5" d="M107.45,250.85c0,2.44-1.54,4.26-2.93,3.84a3.85,3.85,0,0,1-2.33-2.08c-.4-1.33,1.63-3.33,3-3.08A6.43,6.43,0,0,1,107.45,250.85Z"/><path class="cls-5" d="M151.65,254.29c-.83.95-1.51,2.25-2.58,2.77a3.34,3.34,0,0,1-3-.61c-1-.94-.56-2.12.66-2.93C148.44,252.38,150,252.39,151.65,254.29Z"/><path class="cls-5" d="M143.62,178.94c-.22,7.33-3.91,13.4-8.39,14.1-9.65,1.52-14-1.18-17.23-10.59a33.6,33.6,0,0,1-3.5,0c-6.69-.71-9.13-4-9.81-9.72-1.37-11.4,7.79-17,16.3-16.54,3.35.17,6.68,2,9.72,5.2a16.48,16.48,0,0,1,14.16-3.53,30.87,30.87,0,0,1,8.37,2.83c2.15,1.14,2.53,3.72,1.82,6-1.62,5.1-4.06,9.63-9.72,11.35A9.9,9.9,0,0,0,143.62,178.94Z"/><path class="cls-5" d="M116,178.81c5.45,0,11.83-6.12,12.11-12.38a4.17,4.17,0,0,0-1.67-3.8c-2.62-2.2-5.69-2.71-8.76-2.82-7.73-.31-12.22,7.12-9.41,14.35C109.33,176.94,111.7,179,116,178.81Z"/><path class="cls-5" d="M131.58,190.17c3.88-.27,7.13-1.53,8.89-5.4,1.09-2.38.78-4.67-1.53-5.73-3.52-1.62-7.08-4.27-11.18-1.23a3,3,0,0,1-1.2.37c-4.05.72-5.77,5-3.14,8.13A9.65,9.65,0,0,0,131.58,190.17Z"/><path class="cls-5" d="M150.37,164.71c-2.11-.78-4-1.48-6-2.23a9.92,9.92,0,0,0-12.4,3.87,3.19,3.19,0,0,0,.29,4.39c2.26,2.67,5.46,3.46,8.53,4.45a3,3,0,0,0,2.5-.48C146.24,172.06,149.72,169.76,150.37,164.71Z"/></svg>