<svg id="圖層_1" data-name="圖層 1" xmlns="http://www.w3.org/2000/svg" viewBox="0 0 287.81 324.7"><defs><style>.cls-1{fill:#fff;}.cls-2{fill:#3761a4;}.cls-3{fill:#314462;}.cls-4{fill:#3760a5;}.cls-5{fill:#c96b78;}.cls-6{fill:#ebbf29;}.cls-7{fill:#cf543f;}.cls-8{fill:#b02a24;}.cls-9{fill:#4e9136;}.cls-10{fill:#cd461e;}.cls-11{fill:#2c748c;}</style></defs><title>chks</title><g id="_群組_" data-name="&lt;群組&gt;"><path d="M269,191.18c.79,6.54,1.29,13.24-.43,19.75a60.57,60.57,0,0,1-3.59,9.75c-1.05,2.3-5.13,3.37-7.74,2.39a24.11,24.11,0,0,1-2.44-1.29c-.76,1.54-1.55,3-2.23,4.56-2.29,5.19-4.09,10.65-6.92,15.52-3.35,5.78-6.68,11.67-11.87,16.21-2.52,2.2-4.51,5-6.85,7.43-5.75,6-12.65,10.47-19.53,15-5.93,3.91-12.72,5.44-19.3,7.61a.79.79,0,0,1-.34.08c-4.67-.52-6.33,2.66-8.13,6.14-2.27,4.41-5.07,8.55-7.57,12.85-1.2,2.06-3.18,2.22-5.14,2.19-1.44,0-2.47-2.07-2-4.23.54-2.49,1.37-4.91,2.14-7.34.38-1.21.91-2.37,1.54-4-3.19.58-5.77,1.35-8.38,1.44-6.23.22-12.57.81-18.68,0-9-1.24-18.26-2-27-5.16a22.68,22.68,0,0,0-3.4-.63,58,58,0,0,0,2.45,6.33c2.09,3.93.73,7.59-.31,11.92-4.31-1.78-8.35-2.92-10.72-7a79.51,79.51,0,0,1-7.06-15.49A3.86,3.86,0,0,0,93,282.61c-10.48-3.92-19.92-9.86-29.51-15.44A50.24,50.24,0,0,1,49,253.81c-.55-.74-1.17-1.43-1.78-2.13-.07-.08-.21-.09-.53-.22A11.84,11.84,0,0,1,35.5,251c-4-2.22-7.32-5.26-8.93-9.72A64.74,64.74,0,0,1,22.86,224c-.23-3.11,0-6.24,0-9.31-.34-.14-.55-.33-.74-.3-5.45.89-8.67-1.82-8.71-7.34a63.25,63.25,0,0,1,2.92-18.52c1.32-4.44,3.09-8.75,4.72-13.1a39.76,39.76,0,0,1,7-11.18,12.8,12.8,0,0,1,3.43-2.9A6.49,6.49,0,0,0,35,155.74a11.86,11.86,0,0,1,.33-2.06c1-4.25,2.73-5.76,7.12-6.22.57-.06,1.14-.15,1.59-.21a3.52,3.52,0,0,0,.5-.65c1.63-4.21,3-8.51,4.91-12.61,6.35-13.94,15.73-25.63,27-35.91,4.33-4,8.77-7.62,14.25-9.84A3.56,3.56,0,0,0,93,84.79a28.7,28.7,0,0,1,6.28-15.25A20.9,20.9,0,0,1,116.06,61a12.31,12.31,0,0,1,3,.75l5.7,1.36c-.14-1.47-.21-2.34-.31-3.21-.61-5.41-1.44-10.81-1.8-16.24-.47-7.19-.68-14.39-.78-21.59-.06-4.31.43-8.57,2.86-12.37,1.92-3,4.58-5,8.09-4.33s6.69,1.81,8.24,5.6a17,17,0,0,1,1.42,6.74,39.77,39.77,0,0,0,.4,4.23c3.34.13,6.37.35,8.85,2.81a13.2,13.2,0,0,1,3.64,7.91c1.61,0,3,0,4.47,0,3.84,0,8.85,4.85,7.68,9.65-1.4,5.74-2.1,11.62-4.15,17.25-1.29,3.54-1.64,7.43-2.42,11.21a28.37,28.37,0,0,0,8.6,3.34c3.37.84,6.72,1.74,10.09,2.61a32.44,32.44,0,0,1,5.7,1.5c6.72,3.16,13.37,6.46,20,9.83,3.51,1.78,7,3.65,10.31,5.74A67.86,67.86,0,0,1,233.67,111c3.46,4.63,6.68,9.45,9.83,14.29a31,31,0,0,1,2.13,5.11c1,2.33,1.47,4.89,3.36,6.78a5.39,5.39,0,0,1,1.14,2.13c1.29,4,2.51,8,3.77,11.94a6.11,6.11,0,0,0,.62,1.62,16.61,16.61,0,0,1,2.84,11.64c4.55,1.79,7,5.29,8,9.64A141.71,141.71,0,0,1,269,191.18Zm-6,26.32c2-4.48,3.61-9,3.52-14A104.18,104.18,0,0,0,263,178.1c-.89-3.26-1.93-6.71-5.9-8.78,1.21,12,.9,23.67.45,35.32-.15,3.89-.7,7.76-.22,11.68.22,1.78.89,2.83,2.58,3.15S262.42,219,263.07,217.5Zm-8.81-23.24a120.53,120.53,0,0,0,.25-20.84,23.72,23.72,0,0,0-.65-3.05c-4.13,1.23-8,2.55-11.88,3.49-4.49,1.09-9,2-13.62,2.69-4.81.71-9.69,1-14.52,1.53-7,.84-14,1.92-21.05,2.65-4.72.49-9.5.4-14.23.84-6.59.6-13.14,1.57-19.77.55a2.66,2.66,0,0,0-3.09,1.63,23.11,23.11,0,0,1-3,4.69c-6.47,7.73-12.55,15.84-21,22.05,1,1.19,1.85,2.3,2.82,3.26,3.29,3.24,3.28,4.11-.32,7a17.85,17.85,0,0,1-2.33,1.53,2.4,2.4,0,0,1-3.13-.38c-1.92-1.66-4.05-3.08-6.18-4.66l-3.2,1.76,6.31,7.53c-1,.71-1.68,1.19-2.36,1.6-4.11,2.51-6.17,3.1-10.77-1.22-1.26-1.19-2.5-2.41-3.89-3.76-2.08.81-3.82,1.44-5.52,2.17-1.41.6-2.63.77-3.73-.59s-2.49-2.7-3.6-4.15c-1.8-2.35-1.63-3,1-4.49,1.47-.86,3-1.7,4.7-2.7-1-1.46-1.83-2.57-2.57-3.72a24,24,0,0,1-2.3-3.86c-.68-1.69-.07-2.68,1.7-3.07s3.42-.64,5.15-.9a3.17,3.17,0,0,1,3.34,1.31c1.3,1.77,2.78,3.41,4.15,5.13,1,1.31,2,1.41,3.15-.1-1-4.12-5-6.89-5.7-11.31,1.06-.84,2-1.63,3-2.41l3.25-2.53,8.46,11.15c3.71-3.5,7.12-6.77,10.57-10a52.61,52.61,0,0,0,9.61-11.42c-2.41-.19-4.11-.38-5.8-.44a51.25,51.25,0,0,1-5.91-.06q-15.49-2.36-30.94-5c-8.47-1.43-16.92-3-25.37-4.52-3.88-.69-7.86-1.07-11.62-2.2-4.76-1.43-9.33-3.47-14.21-5.34,0,3.51-.1,6.94,0,10.37s-1.13,6.85-.2,10.6c1.44-.13,2.68-.2,3.92-.35,2.65-.33,4.57.94,5,3.57a22.45,22.45,0,0,1,0,3.81c0,2.77-.13,5.54-.1,8.31,0,2.54.46,5.11.23,7.63-.77,8.67-1.63,17.33-2.7,26a34,34,0,0,1-3.58,12.32c-1.85,3.39-1.82,3.77,1.09,6.44,2.14,2,4.38,3.81,6.46,5.83,4.58,4.45,9.61,8,16.17,8.78a12.57,12.57,0,0,1,2.39.47c13,4.2,26.53,5.81,40,6.92,11,.9,22,.59,33.07.67,7.88.06,15.76-.58,23.66.06q2.18.18,4.37.28a88.58,88.58,0,0,0,15.11-.52c1.32-.16,2.17-.51,2.66-1.75,2.87-7.21,2.16-12.65-5.22-17.4a7.85,7.85,0,0,0-8.32-.33,11.59,11.59,0,0,0-5.72,6.76,11.86,11.86,0,0,0-.29,5.1c.53,3.07,2.44,4,5.36,3.11a4.19,4.19,0,0,0,3-5.44c-.28-1.17-.73-2.3-1.33-4.16,1.37.64,2.11.76,2.48,1.2,2.2,2.6,1.4,8.43-1.36,10.46a9.86,9.86,0,0,1-6.35,2.09,9.64,9.64,0,0,1-6.07-2.74,22.09,22.09,0,0,1-3-3.38,9,9,0,0,1-.91-9.26c.44-1,.94-2,1.57-3.41a13.5,13.5,0,0,0-2,.32c-5.68,1.94-11,.7-16.15-1.88a9.4,9.4,0,0,1-4.9-6.05,14.57,14.57,0,0,1,7.59-16.73,10.46,10.46,0,0,1,12.39,2.6,6.09,6.09,0,0,1,1.29,4.1c-.43,3.32-5,6.59-8.73,6.57a18,18,0,0,0,.79-3.36,14.45,14.45,0,0,0-.34-4.43c-.5-1.86-1.54-2.38-3.46-2a6.14,6.14,0,0,0-2.84,1.2,9.54,9.54,0,0,0-3.06,9.48c.83,3.45,3.17,5.91,6.71,6.25a37.75,37.75,0,0,0,10.36-.43c2.15-.4,4.08-2,6.05-3.22a1.9,1.9,0,0,0,.73-2.72c-2.46-5-1.2-10.09.39-14.92,3.85-11.68,17.48-19.74,29.64-17.85.8.13,1.61.25,2.41.39,1.65.29,2.72-.27,3-2,.12-.68.29-1.36.38-2.05,1.23-8.61,6.38-14.43,14.71-16.56a9.61,9.61,0,0,1,6.82.27c4.64,2.25,7.11,7.45,6.54,13.9-.43,4.91-3.45,8.24-8.71,9.61-2.79.73-4.47.28-6.06-2.08-1.28-1.91-2.23-4-3.37-6.14l3.63-2.65c.39,1.51.6,2.75,1,3.92.9,2.46,3.1,3.63,5.18,2.9s2.79-3.13,1.62-5.62a9.69,9.69,0,0,0-2.26-3,11.4,11.4,0,0,0-7.62-3c-4.31-.05-7.34,2-8.52,5.79-1.58,5.1-.92,7.27,3.56,9.91a33.76,33.76,0,0,1,12.32,12.53c1.33,2.31,2.69,4.62,4.11,6.88a14,14,0,0,1,2,9.68,23.8,23.8,0,0,0,0,3.24l.73.22c1.84-3.18,3.88-6.25,5.47-9.55,2.61-5.42,6.4-10.26,8-16.19,1.07-4,3.34-7.71,2.87-12.08C252.69,205.64,253.74,200,254.26,194.26Zm-3.07-28.1c1.87-.52,2.75-1.61,2.24-3.6-.22-.86-.4-1.73-.64-2.76-.89.21-1.56.32-2.2.51-4.11,1.21-8.19,2.58-12.35,3.61-4.94,1.22-9.93,2.24-14.93,3.19-7.4,1.4-14.79,3-22.26,3.9-14.11,1.71-28.29,1.41-42.46.69-2.88-.15-5.77.1-8.65,0-4-.2-8.07-.69-12.12-.9a261.89,261.89,0,0,1-27.3-3A161.15,161.15,0,0,0,94.28,166a100.32,100.32,0,0,1-21.53-3.88c-3.1-.87-5.93-2.65-9-3.64-4.73-1.52-9.56-2.71-14.92-4.2.18,1.61.38,3,.49,4.31a2.78,2.78,0,0,0,2.07,2.52c3.59,1.31,7.11,3,10.81,3.82,5.75,1.35,11.61,2.25,17.45,3.2,11.68,1.91,23.38,3.72,35.07,5.6,2.29.37,4.55.89,6.82,1.38,7.44,1.61,15,1.42,22.54,1.77,8.92.42,17.89,1.36,26.76.79,14.81-.94,29.71-1.29,44.38-4.06,5.45-1,11.12-1,16.54-2.14C238.32,170.12,244.72,168,251.19,166.16Zm-1-9.75c.47-.7,1.2-1.64,1-2.28-.62-2.44-1.57-4.8-2.39-7.19-2.68.32-4.85.71-7,.82-6.15.33-12.32.33-18.45.85-8.32.71-16.61,1.88-24.93,2.66A95.65,95.65,0,0,0,177,155.68c-5.77,1.91-8.85,5.9-11,11.51.61.08,1,.15,1.46.18,13.39.85,26.72-.19,40-1.74,7.14-.83,14.18-2.45,21.33-3.2s13.35-3.93,20.14-5.44A2.14,2.14,0,0,0,250.17,156.41Zm-2.59-12.34-2.11-4.36c-12,1.22-23.91,2.17-35.74,3.74-9.07,1.2-18.07,3-27,4.88a97,97,0,0,0-14,4.13c-7,2.6-11.61,7.74-14.25,14.66,4.43,1.42,6.94.62,9.24-3,.62-1,1.24-2,1.83-3a14,14,0,0,1,7-6.05,76.08,76.08,0,0,1,10.85-3.62c4.86-1.09,9.87-1.46,14.75-2.42a186.6,186.6,0,0,1,33.58-3A76.16,76.16,0,0,0,247.58,144.06ZM241,136.63a20.79,20.79,0,0,0,3.6-1.33c-1.83-3.7-3.37-7-5.11-10.29-5.6-10.45-12.47-19.88-22.41-26.66a97.42,97.42,0,0,0-13.07-8c-7.75-3.65-15.87-6.51-23.66-10.07s-15.85-5-24.22-5.56c-4.63-.29-9.27-.51-13.9-.75-.67,0-1.34,0-2.17,0a9.77,9.77,0,0,0-.23,2.16,17.1,17.1,0,0,1-1.29,9.21c-1.12,2.53-2.56,4.91-3.89,7.34-4,7.43-12.6,12.08-21,11-7.06-.92-13.47-3.43-18.12-9.24-.49-.61-1.05-1.17-1.57-1.74-5.21,1.5-9.23,4.75-13.4,7.64a39.13,39.13,0,0,0-8.18,6.94c-5.35,6.56-10.26,13.47-15.31,20.28a6.83,6.83,0,0,0-.64,1.92c.75.28,1.28.5,1.83.66,8.79,2.57,17.58,5.16,26.39,7.66a94.1,94.1,0,0,0,10.8,2.68c9.3,1.48,18.58,3,27.53,6a52.72,52.72,0,0,1,6.71,2.82c3.42,1.71,6.76,3.57,10.13,5.39,3.56,1.93,7.34,3.55,9.08,7.7.39.91,1.49,1.52,2.49,2.5a18.46,18.46,0,0,1,6.62-8.89c6.29-4.64,13.31-7.49,20.73-9.59,13.48-3.82,27.42-4.86,41.21-6.79C227,138.66,234,137.68,241,136.63Zm-5,67.52c.15-3.69-1.24-6.66-4.47-8.38-2.51-1.33-4.85-.29-7.31,1.32C228.73,198.92,233.37,199.83,236.07,204.15ZM233,252.3a39.8,39.8,0,0,0-5.79-21.9,41.58,41.58,0,0,0-3.13-4.09l-.66.43c1.28,3.08,2.75,6.1,3.78,9.26a76.05,76.05,0,0,1,2.51,10.1c.58,3.21.74,6.5,1.09,9.9C232.77,255.09,232.93,253.75,233,252.3Zm-10.37,12c3.22-2,4.21-5.07,4.07-8.67a65,65,0,0,0-.32-7.3c-1.41-9.27-5.48-17.49-10.65-25.13-4.48-6.61-15.17-8.86-21.52-4.67a53.6,53.6,0,0,0-8.24,6.93,12,12,0,0,0-3.87,9.75c.69,7.33,3.48,8.6,9.45,8a13.72,13.72,0,0,0,1.71-.32,18,18,0,0,0,10.36-7.22c1.39-1.86.6-3.6-1.67-3.56a17,17,0,0,0-5.69,1.21c-1.29.5-1.76,1.74-.73,3.15a18.77,18.77,0,0,1,1.36,2.68c-2.84.56-4.25-.46-4.6-2.91a6.51,6.51,0,0,1,4.07-7,11,11,0,0,1,10.31,1.18c1.22.78,2.17,1.9,1.78,3.49-1.27,5.11-2.92,10.06-6.91,13.82-.91.86-1.87,1.68-3.07,2.75l2.53,2.53c.91-1.93,1.37-3.7,2.43-5,2.78-3.43,9.94-4.59,14.21-2.15,4.89,2.79,6.42,6,4.9,11.67a16.2,16.2,0,0,1-5.42,8.73,6.09,6.09,0,0,1-9.27-1.86c-1-1.84-.51-3.63,1.4-5,.13-.1.41,0,.73,0l1.11,2.25c3.37-.59,4.09-2,2.51-4.7-2.41-4-5.88-4.44-9.71-1.17.41,3.25,1.48,6.54,1,9.6s-2.45,5.88-4.21,9.77c4-1.18,7.32-2.2,10.64-3.09a20.39,20.39,0,0,0,9.54-6.12A10,10,0,0,1,222.61,264.31Zm-1.89-7.67a6.16,6.16,0,0,0-2.15-7.21,10.49,10.49,0,0,0-10.21-1.66,13.31,13.31,0,0,0-2.42,1.61c9.22,2,11.18,3.93,12.11,12.32A34.61,34.61,0,0,0,220.71,256.64Zm-18.1-14.38a7.61,7.61,0,0,0-1.54.53c-3.76,3-8.12,3.67-12.75,3.58-5.45-.1-8.27-2.53-9-7.94-.17-1.19-.37-2.38-.66-4.17-3.6,6.92.11,13.08,5.9,13.91,4,.58,8.3.07,12.37-.51C199.46,247.3,200.95,245,202.61,242.26Zm-2.23,19.8.78-.61c-.75-1.65-1.41-3.35-2.28-4.93-1.79-3.22-4.38-4.88-8.28-4.48a9.37,9.37,0,0,1-1.74,0c-1.36-.12-2.75-.43-4.12-.46a7.52,7.52,0,0,0-3.63.56,31.93,31.93,0,0,0-5.39,3.8,11.92,11.92,0,0,0-3.95,7.93c-.22,1.84.18,3.4,2.33,4,.86-8.4,4.43-13.68,10.49-14.92a15.54,15.54,0,0,1,4.22-.31C194.17,253,197.84,256.59,200.38,262.06Zm.2,16.49-.12-.82c-1.37.09-2.75.15-4.12.29-6.34.65-12.68,1.6-19.08.59a13.14,13.14,0,0,0-2.43-.06q-9.73.29-19.46.6c-2.89.09-5.78.3-8.67.34-5.67.07-11.35.25-17,0-5.44-.22-10.85-1-16.29-1.37a132.14,132.14,0,0,1-27.95-5,23.55,23.55,0,0,0-3.19-.47l-.23.76c1.31.62,2.58,1.35,3.94,1.86,5.33,2,10.7,3.82,16,5.8a49,49,0,0,0,16.66,3.24q13.89.16,27.79.23c3.48,0,7,0,10.46-.11,7.88-.13,15.79-.67,23.65-.29C188,284.54,194.26,281.62,200.58,278.55Zm-24.23,16.06a30.47,30.47,0,0,0,1.31-3.14c-3.53.09-4.34.21-5.1,1.78-1.87,3.9-3.53,7.9-5.54,12.46,2.63,0,3.63-1.07,4.4-2.39C173.08,300.42,174.74,297.53,176.35,294.61Zm-8.52-5.19c0-.3.07-.6.1-.9a5.57,5.57,0,0,0-1.2-.28q-23-.32-45.92-.59a8,8,0,0,0-1.18.15c0,.25,0,.5,0,.75C135.63,292.63,151.7,292.2,167.83,289.42Zm-3.9-245.56c.39-1.73-.42-3.84-1-5.66C162.54,37,161.24,36.69,160,37a2.82,2.82,0,0,0-2.06,2.53c-1.24,5.65-2.68,11.27-3.68,17-.74,4.19-.93,8.48-1.38,12.92,4.07.72,4.28.78,5.14-2.3C160.13,59.38,162.18,51.66,163.93,43.87ZM149.4,69.29c1.1-6.56,2.48-12.88,2.28-19.38-.16-5.1-.53-10.19-1-15.26a13.2,13.2,0,0,0-1.71-5.16c-1.73-3-5-3.07-6.64-.12a16.42,16.42,0,0,0-2,6.51c-.64,7.27-1.05,14.56-1.35,21.85-.15,3.78-.3,7.62.87,11.57Zm2.79,113.06c-1.52-.57-2.58-.88-3.63.43-1.58,2-3.31,3.87-5,5.81-5.21,6.09-11.19,11.36-17.2,16.67,1.48,2.78,2.3,3.33,3.87,2.12a51.83,51.83,0,0,0,6-5.28c2.39-2.52,4.6-5.21,6.77-7.93C146,190.4,149.89,187.27,152.19,182.35Zm-4.67-14.18.45-1c-1.32-1.87-2.8-3.66-3.93-5.63a13.92,13.92,0,0,0-6.74-5.78c-2.44-1.09-4.76-2.45-7.23-3.44-6.33-2.57-12.42-5.83-19.21-7.15-10.26-2-20.55-3.82-30.78-6-6.46-1.35-12.82-3.15-19.22-4.78-2.21-.56-4.41-1.19-6.78-1.83l-2.65,4.83c3.55.95,6.65,1.86,9.79,2.6,9,2.13,18.07,4.29,27.14,6.24,9.52,2,19.13,3.74,28.65,5.82,7.86,1.71,15.12,4.56,19.66,11.93a7.31,7.31,0,0,0,3.42,3.2C142.44,167.94,145,167.89,147.52,168.17Zm-9-138.76c2.11-6-.08-11.46-2.13-16.82-1.12-2.93-4.48-3.07-6.49-.62a19.08,19.08,0,0,0-4,8.76c-1.22,6.47-.38,13-.52,19.46a78.67,78.67,0,0,0,3.06,22.34,5.1,5.1,0,0,0,1.47,2.6c1.69,1.35,3.6,2.43,5.72,3.82,0-3.67,0-7,0-10.3C135.46,48.79,135.12,38.91,138.49,29.41Zm-3.27,49.06c.16-2.12-1-3.7-2.69-5a19.12,19.12,0,0,1-3.1-2.64c-3.4-3.95-8-5.29-11.51-6C106.15,64.08,93.35,76.05,99,88.63c2.3,5.14,10.86,12.8,17.4,10.4,1.62-.59,3.37-.81,5-1.32C131.95,94.44,134.46,88.47,135.23,78.47Zm-.91,88.34.28-.77c-1.77-2-3.62-3.88-5.3-5.92a13.6,13.6,0,0,0-6.87-4.51c-3.34-1-6.72-1.87-10.13-2.56-8.75-1.78-17.52-3.43-26.28-5.14-5.81-1.13-11.62-2.24-17.41-3.45-3.63-.75-7.22-1.66-10.83-2.51l-7.65-1.83A58.92,58.92,0,0,0,47.62,146c-1.43,4.76.21,5.78,3.7,6.46a78.58,78.58,0,0,1,8.79,2.12c12,3.8,24,7.26,36.6,7.91a266.71,266.71,0,0,1,28.65,3.38C128.32,166.34,131.33,166.51,134.31,166.81Zm-3.1,51.14c.94-1.18-.19-2.11-.95-3a7.67,7.67,0,0,0-1-.92c-2.07-1.62-4.39-3-6.15-4.88a103,103,0,0,1-6.34-8.17c-.73-1-1.42-2-2.06-2.85-1.79.65-1.22,1.63-.86,2.41a25.74,25.74,0,0,0,2,3.63c3.44,5.06,6.71,10.29,12.42,13.24C129.21,217.92,130.15,219.28,131.21,217.95Zm-14.13,8a10.75,10.75,0,0,0,2.25-.38c-2-2.76-3.45-5.1-5.18-7.26-3-3.79-6.19-7.49-9.32-11.2a3.26,3.26,0,0,0-3.91-.95c3.43,7.79,8.88,13.7,15,19.1A2.36,2.36,0,0,0,117.08,226Zm.07-11.38c.26-2.62.26-2.62-1.7-2.6Zm-7.87,85c-.95-3.42-2-6.35-2.53-9.38s-2.5-3.73-5.41-3.82C102.55,292.35,105.5,297.4,109.28,299.63Zm-4.42-79.88c.16-.06.23-.35.47-.75l-1.64-1.93a21.44,21.44,0,0,0-2.58,1.42c-.38.28-.84,1.14-.73,1.27.39.45,1.05,1,1.55.94A12.47,12.47,0,0,0,104.86,219.75ZM98.68,93.24l-1.36-1.66-.4.35,1.43,1.61ZM54.19,198a24.79,24.79,0,0,0,.18-6.2c-.2-2.07-1-2.33-3.09-2.31a89.24,89.24,0,0,1-9.32-.35c-3.12-.31-6.38-.31-9.09-2.35-.31-.24-.87-.15-1.66-.27A39.07,39.07,0,0,0,28,197.3a2.32,2.32,0,0,0,1.55,2.76,12.13,12.13,0,0,0,3.34.82,57.45,57.45,0,0,0,8.67.56,79.73,79.73,0,0,0,10.64-1.51A3.08,3.08,0,0,0,54.19,198Zm-1.11,15c.24-3.21.52-6.41.83-10.21C44.4,204.95,35.66,205,26.61,202c-.07,2.58-.21,5.07-.21,7.56,0,5.42,1.86,7.7,7.2,8.86a20,20,0,0,0,4.48.47,32.87,32.87,0,0,0,13-3.33A2.92,2.92,0,0,0,53.09,212.94Zm-.53,9.37a17.18,17.18,0,0,0,0-2.41c-8.91,2.2-17.53,4.09-25.82-.84-.16.16-.3.23-.3.3.05,2.54.07,5.08.2,7.62.21,4.18,2.06,6,6.35,6,3.13.06,6.27.1,9.4-.07,2.19-.12,4.35-.62,6.53-.94,1.64-.24,2.3-1.22,2.49-2.83C51.7,226.87,52.21,224.6,52.56,222.31Zm-4.8,23.59A30.73,30.73,0,0,0,50,236.72c-3.81.3-7.37.85-10.91.78s-7-.77-11-1.26a45.06,45.06,0,0,1,2,4.16c2.17,5.92,7,7.62,12.62,8C44.85,248.54,46.88,248,47.76,245.91Zm-1.89-77.15c0-3.35,0-6.71-.14-10.06a16.42,16.42,0,0,0-2.06-7.88c-4-.09-4.59.38-4.58,3.86,0,8,0,16-1.44,23.92-.29,1.57-.31,3.19-.46,4.89,2.72,1,5.25,2.08,8.22,1.27a20.13,20.13,0,0,0,.26-2.09C45.76,178,45.85,173.39,45.87,168.75Zm-12,3.45c.06-2.5,0-5,0-7.94a9.88,9.88,0,0,0-1.48,1,18.13,18.13,0,0,0-2,2.41c-4.74,7.45-9.09,15.14-11.53,23.67a49.74,49.74,0,0,0-2.23,16.45c.07,1.21.21,2.67,1.61,2.62.9,0,1.78-1.17,2.62-1.88.23-.19.25-.64.34-1,1.22-4.34,2.41-8.69,3.67-13,2.11-7.2,3.56-14.67,8.37-20.8A2.87,2.87,0,0,0,33.92,172.2Z"/><path class="cls-1" d="M266.59,203.48c.09,5-1.56,9.53-3.52,14-.65,1.49-1.57,2.29-3.19,2s-2.36-1.37-2.58-3.15c-.49-3.92.07-7.79.22-11.68.45-11.65.76-23.29-.45-35.32,4,2.06,5,5.51,5.9,8.78A104.18,104.18,0,0,1,266.59,203.48Z"/><path class="cls-2" d="M254.51,173.42a120.53,120.53,0,0,1-.25,20.84c-.52,5.7-1.57,11.38-.95,17.15.47,4.37-1.8,8.08-2.87,12.08-1.59,5.93-5.38,10.77-8,16.19-1.59,3.3-3.63,6.38-5.47,9.55l-.73-.22a23.8,23.8,0,0,1,0-3.24,14,14,0,0,0-2-9.68c-1.42-2.26-2.77-4.57-4.11-6.88a33.76,33.76,0,0,0-12.32-12.53c-4.48-2.64-5.14-4.81-3.56-9.91,1.18-3.81,4.2-5.84,8.52-5.79a11.4,11.4,0,0,1,7.62,3,9.69,9.69,0,0,1,2.26,3c1.17,2.49.38,4.92-1.62,5.62s-4.28-.44-5.18-2.9c-.43-1.17-.64-2.41-1-3.92l-3.63,2.65c1.14,2.1,2.09,4.23,3.37,6.14,1.59,2.36,3.27,2.81,6.06,2.08,5.26-1.36,8.28-4.7,8.71-9.61.57-6.45-1.9-11.65-6.54-13.9a9.61,9.61,0,0,0-6.82-.27c-8.33,2.13-13.48,8-14.71,16.56-.1.69-.27,1.37-.38,2.05-.29,1.74-1.37,2.3-3,2-.8-.14-1.61-.26-2.41-.39-12.16-1.89-25.79,6.17-29.64,17.85-1.59,4.83-2.85,9.88-.39,14.92a1.9,1.9,0,0,1-.73,2.72c-2,1.17-3.91,2.82-6.05,3.22a37.75,37.75,0,0,1-10.36.43c-3.55-.34-5.89-2.79-6.71-6.25a9.54,9.54,0,0,1,3.06-9.48,6.14,6.14,0,0,1,2.84-1.2c1.92-.42,3,.09,3.46,2a14.45,14.45,0,0,1,.34,4.43,18,18,0,0,1-.79,3.36c3.75,0,8.3-3.26,8.73-6.57a6.09,6.09,0,0,0-1.29-4.1,10.46,10.46,0,0,0-12.39-2.6A14.57,14.57,0,0,0,148,248.55a9.4,9.4,0,0,0,4.9,6.05c5.16,2.58,10.46,3.82,16.15,1.88a13.5,13.5,0,0,1,2-.32c-.64,1.37-1.14,2.38-1.57,3.41a9,9,0,0,0,.91,9.26,22.09,22.09,0,0,0,3,3.38,9.64,9.64,0,0,0,6.07,2.74l0,.88q-2.19-.1-4.37-.28c-7.9-.64-15.78,0-23.66-.06-11-.08-22.1.23-33.07-.67-13.51-1.11-27-2.72-40-6.92a12.57,12.57,0,0,0-2.39-.47c-6.56-.79-11.59-4.32-16.17-8.78-2.08-2-4.32-3.87-6.46-5.83-2.91-2.67-2.94-3.05-1.09-6.44a34,34,0,0,0,3.58-12.32c1.07-8.63,1.93-17.3,2.7-26,.22-2.52-.21-5.08-.23-7.63,0-2.77.06-5.54.1-8.31a22.45,22.45,0,0,0,0-3.81c-.43-2.63-2.36-3.91-5-3.57-1.24.15-2.48.22-3.92.35-.93-3.75.33-7.17.2-10.6s0-6.86,0-10.37c4.88,1.87,9.45,3.91,14.21,5.34,3.76,1.12,7.73,1.5,11.62,2.2,8.46,1.52,16.9,3.09,25.37,4.52q15.45,2.6,30.94,5a51.25,51.25,0,0,0,5.91.06c1.7.06,3.39.25,5.8.44a52.61,52.61,0,0,1-9.61,11.42c-3.45,3.22-6.86,6.48-10.57,10l-8.46-11.15-3.25,2.53c-1,.77-2,1.56-3,2.41.69,4.43,4.67,7.19,5.7,11.31-1.11,1.51-2.1,1.41-3.15.1-1.37-1.72-2.85-3.36-4.15-5.13a3.17,3.17,0,0,0-3.34-1.31c-1.72.26-3.45.52-5.15.9s-2.39,1.38-1.7,3.07a24,24,0,0,0,2.3,3.86c.74,1.15,1.55,2.25,2.57,3.72-1.74,1-3.23,1.84-4.7,2.7-2.64,1.54-2.81,2.15-1,4.49,1.12,1.45,2.45,2.72,3.6,4.15s2.33,1.2,3.73.59c1.7-.73,3.44-1.36,5.52-2.17,1.4,1.35,2.63,2.58,3.89,3.76,4.6,4.32,6.66,3.73,10.77,1.22.67-.41,1.31-.89,2.36-1.6L119.39,219l3.2-1.76c2.13,1.58,4.26,3,6.18,4.66a2.4,2.4,0,0,0,3.13.38,17.85,17.85,0,0,0,2.33-1.53c3.6-2.9,3.6-3.78.32-7-1-1-1.79-2.07-2.82-3.26,8.47-6.21,14.55-14.32,21-22.05a23.11,23.11,0,0,0,3-4.69,2.66,2.66,0,0,1,3.09-1.63c6.63,1,13.18,0,19.77-.55,4.73-.43,9.51-.35,14.23-.84,7-.73,14-1.81,21.05-2.65,4.83-.58,9.71-.82,14.52-1.53,4.57-.67,9.12-1.61,13.62-2.69,3.92-.95,7.75-2.26,11.88-3.49A23.72,23.72,0,0,1,254.51,173.42Z"/><path class="cls-3" d="M253.42,162.56c.51,2-.37,3.07-2.24,3.6-6.47,1.81-12.86,4-19.42,5.36-5.42,1.16-11.08,1.12-16.54,2.14-14.67,2.76-29.56,3.11-44.38,4.06-8.87.57-17.84-.38-26.76-.79-7.53-.35-15.11-.16-22.54-1.77-2.27-.49-4.53-1-6.82-1.38-11.68-1.89-23.38-3.69-35.07-5.6-5.84-1-11.7-1.85-17.45-3.2-3.7-.87-7.21-2.52-10.81-3.82a2.78,2.78,0,0,1-2.07-2.52c-.11-1.36-.3-2.7-.49-4.31,5.36,1.49,10.19,2.68,14.92,4.2,3.07,1,5.91,2.76,9,3.64A100.32,100.32,0,0,0,94.28,166a161.15,161.15,0,0,1,16.23,1.7,261.89,261.89,0,0,0,27.3,3c4,.22,8.07.7,12.12.9,2.88.15,5.77-.1,8.65,0,14.17.72,28.35,1,42.46-.69,7.47-.9,14.86-2.5,22.26-3.9,5-.94,10-2,14.93-3.19,4.16-1,8.24-2.4,12.35-3.61.64-.19,1.31-.31,2.2-.51C253,160.83,253.2,161.7,253.42,162.56Z"/><path class="cls-4" d="M251.2,154.13c.17.64-.56,1.58-1,2.28a2.14,2.14,0,0,1-1.24.57c-6.79,1.5-13.09,4.7-20.14,5.44s-14.19,2.37-21.33,3.2c-13.28,1.55-26.61,2.6-40,1.74-.42,0-.84-.1-1.46-.18,2.1-5.6,5.18-9.59,11-11.51a95.65,95.65,0,0,1,21.43-4.41c8.32-.77,16.61-1.95,24.93-2.66,6.13-.52,12.3-.52,18.45-.85,2.18-.12,4.36-.5,7-.82C249.64,149.34,250.58,151.69,251.2,154.13Z"/><path class="cls-3" d="M245.47,139.7l2.11,4.36A76.16,76.16,0,0,1,231.69,146a186.6,186.6,0,0,0-33.58,3c-4.89,1-9.9,1.34-14.75,2.42a76.08,76.08,0,0,0-10.85,3.62,14,14,0,0,0-7,6.05c-.6,1-1.21,2-1.83,3-2.3,3.64-4.81,4.45-9.24,3,2.65-6.91,7.28-12.05,14.25-14.66a97,97,0,0,1,14-4.13c9-1.87,18-3.68,27-4.88C221.56,141.87,233.47,140.93,245.47,139.7Z"/><path class="cls-1" d="M244.63,135.29a20.79,20.79,0,0,1-3.6,1.33c-7,1.06-14,2-21,3-13.8,1.93-27.73,3-41.21,6.79-7.42,2.1-14.44,5-20.73,9.59a18.46,18.46,0,0,0-6.62,8.89c-1-1-2.1-1.59-2.49-2.5-1.74-4.15-5.52-5.78-9.08-7.7-3.36-1.82-6.71-3.69-10.13-5.39A52.72,52.72,0,0,0,123,146.5c-8.95-3-18.23-4.51-27.53-6a94.1,94.1,0,0,1-10.8-2.68c-8.81-2.5-17.6-5.1-26.39-7.66-.55-.16-1.08-.38-1.83-.66a6.83,6.83,0,0,1,.64-1.92c5-6.8,10-13.72,15.31-20.28a39.13,39.13,0,0,1,8.18-6.94c4.17-2.89,8.19-6.14,13.4-7.64.51.57,1.07,1.13,1.57,1.74,4.65,5.82,11.06,8.33,18.12,9.24,8.38,1.09,16.93-3.57,21-11,1.33-2.43,2.77-4.81,3.89-7.34a17.1,17.1,0,0,0,1.29-9.21,9.77,9.77,0,0,1,.23-2.16c.83,0,1.5,0,2.17,0,4.63.24,9.27.46,13.9.75,8.38.52,16.49,2,24.22,5.56S196.29,86.75,204,90.39a97.42,97.42,0,0,1,13.07,8c9.94,6.77,16.81,16.21,22.41,26.66C241.26,128.25,242.8,131.59,244.63,135.29Zm-44.23-6.5a4.94,4.94,0,0,0-.79-.92c-5.64-3.67-11.49-2.65-17.28-.52-.8.3-1.51,1.77-1.63,2.77-.14,1.29,1.05,1.86,2.25,2.24,4.68,1.49,9.39.69,14.08.21C198.94,132.37,200,130.89,200.4,128.79Zm-36.56-22.33a2.6,2.6,0,0,0-2.35-2.53,2.19,2.19,0,0,0-2.1,2.32,2.09,2.09,0,0,0,1.86,2.47A2.54,2.54,0,0,0,163.84,106.46ZM158,124.18c.54-4.78-2.54-7.7-5.41-10.73a1.7,1.7,0,0,0-1.26-.4,25.62,25.62,0,0,0-4.78.83c-2.31.75-6.62,7.67-6.34,10.19.43,3.79.9,7.58,1.68,11.31,1.11,5.3,2.56,10.54,3.78,15.82.37,1.59,1,2.81,3,3.2a8.43,8.43,0,0,0,.71-1.06c2.33-5.41,4.54-10.87,7-16.22A20.41,20.41,0,0,0,158,128,30.17,30.17,0,0,1,158,124.18Zm-21.17-18.11c.06-1.85-1-3.16-2.41-3.14-1.24,0-2.72,1.18-2.74,2.15a3.8,3.8,0,0,0,2.93,3.36C136,108.56,136.79,107.76,136.83,106.07Zm-15.94,20.06a15.48,15.48,0,0,0,0-1.92c-6.53-3.82-13.89-4.8-20.14-2.83-1.56.49-2.82,1.34-3,3s1.06,2.71,2.57,3.29a8.86,8.86,0,0,0,2,.61c2.63.34,5.26.72,7.9.86a64.59,64.59,0,0,0,7.62-.08C120.26,128.88,120.61,128.44,120.89,126.13Z"/><path class="cls-3" d="M231.6,195.77c3.24,1.72,4.62,4.69,4.47,8.38-2.7-4.32-7.34-5.23-11.78-7.06C226.75,195.48,229.09,194.44,231.6,195.77Z"/><path class="cls-3" d="M227.19,230.4A39.8,39.8,0,0,1,233,252.3c0,1.45-.21,2.8-2.2,3.7-.36-3.4-.52-6.69-1.09-9.9a76.05,76.05,0,0,0-2.51-10.1c-1-3.16-2.5-6.18-3.78-9.26l.66-.43A41.58,41.58,0,0,1,227.19,230.4Z"/><path class="cls-2" d="M226.68,255.64c.14,3.59-.85,6.63-4.07,8.67a10,10,0,0,0-1.74,1.68,20.39,20.39,0,0,1-9.54,6.12c-3.32.89-6.61,1.92-10.64,3.09,1.76-3.89,3.76-6.71,4.21-9.77s-.61-6.35-1-9.6c3.83-3.27,7.3-2.87,9.71,1.17,1.58,2.65.86,4.11-2.51,4.7L210,259.45c-.31,0-.59-.12-.73,0-1.91,1.39-2.4,3.18-1.4,5a6.09,6.09,0,0,0,9.27,1.86,16.2,16.2,0,0,0,5.42-8.73c1.51-5.71,0-8.88-4.9-11.67-4.28-2.44-11.43-1.28-14.21,2.15-1.05,1.3-1.52,3.07-2.43,5l-2.53-2.53c1.2-1.07,2.16-1.88,3.07-2.75,4-3.76,5.64-8.7,6.91-13.82.39-1.58-.55-2.71-1.78-3.49a11,11,0,0,0-10.31-1.18,6.51,6.51,0,0,0-4.07,7c.35,2.45,1.76,3.47,4.6,2.91a18.77,18.77,0,0,0-1.36-2.68c-1-1.41-.56-2.65.73-3.15a17,17,0,0,1,5.69-1.21c2.27,0,3.06,1.7,1.67,3.56a18,18,0,0,1-10.36,7.22,13.72,13.72,0,0,1-1.71.32c-6,.6-8.76-.67-9.45-8a12,12,0,0,1,3.87-9.75,53.6,53.6,0,0,1,8.24-6.93c6.34-4.19,17-1.94,21.52,4.67,5.17,7.64,9.24,15.86,10.65,25.13A65,65,0,0,1,226.68,255.64Z"/><path class="cls-3" d="M218.57,249.43a6.16,6.16,0,0,1,2.15,7.21A34.61,34.61,0,0,1,218,261.7c-.93-8.39-2.89-10.31-12.11-12.32a13.31,13.31,0,0,1,2.42-1.61A10.49,10.49,0,0,1,218.57,249.43Z"/><path class="cls-3" d="M201.08,242.79a7.61,7.61,0,0,1,1.54-.53c-1.66,2.74-3.15,5-5.71,5.41-4.08.58-8.35,1.09-12.37.51-5.79-.83-9.5-7-5.9-13.91.28,1.79.49,3,.66,4.17.77,5.41,3.59,7.84,9,7.94C193,246.47,197.32,245.76,201.08,242.79Z"/><path class="cls-3" d="M201.16,261.46l-.78.61c-2.54-5.48-6.22-9.06-11.56-9.44l0-.58a9.37,9.37,0,0,0,1.74,0c3.9-.4,6.49,1.26,8.28,4.48C199.76,258.1,200.41,259.81,201.16,261.46Z"/><path class="cls-3" d="M200.46,277.73l.12.82c-6.32,3.07-12.55,6-20,5.63-7.86-.38-15.77.17-23.65.29-3.49.06-7,.13-10.46.11q-13.89-.08-27.79-.23A49,49,0,0,1,102,281.11c-5.32-2-10.69-3.84-16-5.8-1.36-.5-2.63-1.23-3.94-1.86l.23-.76a23.55,23.55,0,0,1,3.19.47,132.14,132.14,0,0,0,27.95,5c5.44.35,10.85,1.15,16.29,1.37,5.66.24,11.34.06,17,0,2.89,0,5.78-.24,8.67-.34q9.73-.32,19.46-.6a13.14,13.14,0,0,1,2.43.06c6.4,1,12.74.06,19.08-.59C197.71,277.88,199.09,277.82,200.46,277.73Z"/><path d="M199.62,127.87a4.94,4.94,0,0,1,.79.92c-.43,2.1-1.47,3.58-3.36,3.78-4.69.48-9.4,1.28-14.08-.21-1.19-.38-2.39-.95-2.25-2.24.12-1,.83-2.47,1.63-2.77C188.12,125.23,194,124.21,199.62,127.87Zm-2,2.23c-3.36-2.75-9.76-2.7-14.24.24C188.57,131.44,192.92,131.7,197.64,130.11Z"/><path class="cls-2" d="M191.91,256.17c7.39,4.75,8.09,10.19,5.22,17.4-.49,1.24-1.34,1.58-2.66,1.75a88.58,88.58,0,0,1-15.11.52l0-.88a9.86,9.86,0,0,0,6.35-2.09c2.76-2,3.56-7.86,1.36-10.46-.37-.44-1.11-.56-2.48-1.2.6,1.86,1.05,3,1.33,4.16a4.19,4.19,0,0,1-3,5.44c-2.92.93-4.83,0-5.36-3.11a11.86,11.86,0,0,1,.29-5.1,11.59,11.59,0,0,1,5.72-6.76A7.85,7.85,0,0,1,191.91,256.17Z"/><path class="cls-5" d="M183.4,130.35c4.48-2.94,10.88-3,14.24-.24C192.92,131.7,188.57,131.44,183.4,130.35Z"/><path class="cls-3" d="M188.86,252l0,.58a15.54,15.54,0,0,0-4.22.31c-6.07,1.24-9.63,6.52-10.49,14.92-2.15-.59-2.56-2.14-2.33-4a11.92,11.92,0,0,1,3.95-7.93,31.93,31.93,0,0,1,5.39-3.8,7.52,7.52,0,0,1,3.63-.56C186.11,251.61,187.49,251.92,188.86,252Z"/><path class="cls-6" d="M177.65,291.47a30.47,30.47,0,0,1-1.31,3.14c-1.6,2.92-3.27,5.81-4.94,8.7-.77,1.33-1.77,2.35-4.4,2.39,2-4.55,3.67-8.56,5.54-12.46C173.31,291.67,174.12,291.56,177.65,291.47Z"/><path class="cls-1" d="M167.93,288.52c0,.3-.07.6-.1.9-16.13,2.78-32.2,3.21-48.18-.87,0-.25,0-.5,0-.75a8,8,0,0,1,1.18-.15q23,.28,45.92.59A5.57,5.57,0,0,1,167.93,288.52Z"/><path class="cls-7" d="M162.93,38.21c.58,1.83,1.39,3.93,1,5.66-1.75,7.79-3.8,15.52-5.93,23.22-.86,3.08-1.07,3-5.14,2.3.45-4.43.64-8.72,1.38-12.92,1-5.69,2.44-11.31,3.68-17A2.82,2.82,0,0,1,160,37C161.24,36.69,162.54,37,162.93,38.21Z"/><path d="M161.49,103.93a2.6,2.6,0,0,1,2.35,2.53,2.54,2.54,0,0,1-2.58,2.27,2.09,2.09,0,0,1-1.86-2.47A2.19,2.19,0,0,1,161.49,103.93Z"/><path d="M152.59,113.45c2.87,3,6,6,5.41,10.73a30.17,30.17,0,0,0,0,3.81,20.41,20.41,0,0,1-1.64,9.13c-2.46,5.35-4.67,10.81-7,16.22a8.43,8.43,0,0,1-.71,1.06c-2-.39-2.59-1.61-3-3.2-1.22-5.28-2.67-10.52-3.78-15.82-.78-3.72-1.25-7.52-1.68-11.31-.29-2.52,4-9.44,6.34-10.19a25.62,25.62,0,0,1,4.78-.83A1.7,1.7,0,0,1,152.59,113.45ZM154.87,126c.75-3.48-.23-6.64-3.65-8.65-2-1.21-2.44-1.25-4.19.4-2.46,2.33-3.15,5.45-3.25,8.54a37.07,37.07,0,0,0,1,8.19c.83,4.28,1.84,8.53,2.78,12.79l.77-.12c.79-2,1.71-4,2.34-6.14C152.2,136,153.77,131.06,154.87,126Z"/><path class="cls-6" d="M151.22,117.34c3.41,2,4.4,5.18,3.65,8.65-1.09,5.07-2.67,10-4.16,15-.62,2.09-1.55,4.09-2.34,6.14l-.77.12c-.94-4.26-1.95-8.51-2.78-12.79a37.07,37.07,0,0,1-1-8.19c.1-3.09.79-6.21,3.25-8.54C148.78,116.09,149.17,116.13,151.22,117.34Z"/><path class="cls-7" d="M151.68,49.91c.21,6.5-1.18,12.82-2.28,19.38h-9.65c-1.17-3.95-1-7.78-.87-11.57.3-7.29.71-14.58,1.35-21.85a16.42,16.42,0,0,1,2-6.51c1.69-3,4.91-2.85,6.64.12a13.2,13.2,0,0,1,1.71,5.16C151.15,39.72,151.52,44.82,151.68,49.91Z"/><path class="cls-3" d="M148.56,182.78c1-1.31,2.11-1,3.63-.43-2.3,4.92-6.15,8.05-9.17,11.82-2.17,2.71-4.38,5.41-6.77,7.93a51.83,51.83,0,0,1-6,5.28c-1.57,1.21-2.39.66-3.87-2.12,6-5.31,12-10.58,17.2-16.67C145.26,186.65,147,184.77,148.56,182.78Z"/><path class="cls-3" d="M148,167.18l-.45,1c-2.49-.28-5.08-.23-7.43-1a7.31,7.31,0,0,1-3.42-3.2c-4.53-7.37-11.8-10.21-19.66-11.93-9.52-2.07-19.12-3.77-28.65-5.82-9.07-2-18.11-4.11-27.14-6.24-3.14-.74-6.24-1.65-9.79-2.6l2.65-4.83c2.37.64,4.56,1.27,6.78,1.83,6.4,1.62,12.76,3.42,19.22,4.78,10.23,2.15,20.52,4,30.78,6,6.79,1.33,12.88,4.59,19.21,7.15,2.47,1,4.79,2.35,7.23,3.44a13.92,13.92,0,0,1,6.74,5.78C145.18,163.52,146.65,165.31,148,167.18Z"/><path class="cls-7" d="M136.36,12.59c2,5.36,4.25,10.86,2.13,16.82-3.37,9.5-3,19.38-2.89,29.23,0,3.31,0,6.63,0,10.3-2.13-1.39-4-2.47-5.72-3.82a5.1,5.1,0,0,1-1.47-2.6,78.67,78.67,0,0,1-3.06-22.34c.15-6.48-.69-13,.52-19.46a19.08,19.08,0,0,1,4-8.76C131.88,9.52,135.24,9.66,136.36,12.59Z"/><path d="M134.42,102.92c1.46,0,2.47,1.3,2.41,3.14,0,1.7-.8,2.49-2.23,2.37a3.8,3.8,0,0,1-2.93-3.36C131.7,104.1,133.18,102.94,134.42,102.92Z"/><path class="cls-8" d="M132.53,73.52c1.67,1.26,2.86,2.83,2.69,5-.77,10-3.28,16-13.81,19.24-1.65.51-3.4.73-5,1.32-6.54,2.39-15.1-5.26-17.4-10.4-5.64-12.58,7.16-24.55,18.93-23.76,3.54.72,8.12,2.06,11.51,6A19.12,19.12,0,0,0,132.53,73.52ZM123.18,82c0-4-3.41-6.9-8.06-6.76-3,.09-6.64,3.86-6.54,7,.15,4.57,2.95,7.88,7.84,7.8C120.32,90.06,123.14,86.72,123.18,82Z"/><path class="cls-4" d="M134.59,166l-.28.77c-3-.31-6-.47-8.95-.95a266.71,266.71,0,0,0-28.65-3.38c-12.61-.65-24.65-4.11-36.6-7.91a78.58,78.58,0,0,0-8.79-2.12c-3.49-.68-5.13-1.7-3.7-6.46a58.92,58.92,0,0,1,2.51-5.87L57.78,142c3.6.85,7.2,1.75,10.83,2.51,5.79,1.21,11.6,2.31,17.41,3.45,8.76,1.71,17.53,3.36,26.28,5.14,3.41.69,6.78,1.59,10.13,2.56a13.6,13.6,0,0,1,6.87,4.51C131,162.16,132.82,164.07,134.59,166Z"/><path class="cls-3" d="M130.27,215c.75.85,1.88,1.79.95,3-1.06,1.33-2,0-3-.52-5.71-2.95-9-8.17-12.42-13.24a25.74,25.74,0,0,1-2-3.63c-.37-.78-.93-1.76.86-2.41.64.88,1.32,1.89,2.06,2.85a103,103,0,0,0,6.34,8.17c1.76,1.89,4.08,3.27,6.15,4.88A7.67,7.67,0,0,1,130.27,215Z"/><path d="M115.12,75.26c4.65-.13,8.11,2.76,8.06,6.76,0,4.69-2.86,8-6.77,8-4.9.08-7.69-3.23-7.84-7.8C108.47,79.12,112.09,75.35,115.12,75.26Zm2,11.08a3.07,3.07,0,0,0,2.42-3.73A2.78,2.78,0,0,0,116.81,80c-1.54-.17-2.75.25-3.33,1.77s.35,2.34,1.49,3.06C115.74,85.36,116.48,85.89,117.15,86.34Z"/><path d="M120.9,124.21a15.48,15.48,0,0,1,0,1.92c-.28,2.31-.63,2.75-3,2.91a64.59,64.59,0,0,1-7.62.08c-2.64-.14-5.28-.52-7.9-.86a8.86,8.86,0,0,1-2-.61c-1.51-.58-2.73-1.57-2.57-3.29s1.42-2.5,3-3C107,119.4,114.37,120.39,120.9,124.21Zm-15,2.46c6.84.83,10.32.64,12.85-.85a19.31,19.31,0,0,0-18.32-1.35C101.9,126.68,104,126.44,105.87,126.67Z"/><path class="cls-8" d="M119.57,82.61a3.07,3.07,0,0,1-2.42,3.73c-.67-.46-1.41-1-2.17-1.46-1.14-.72-2.06-1.57-1.49-3.06s1.79-1.94,3.33-1.77A2.78,2.78,0,0,1,119.57,82.61Z"/><path class="cls-3" d="M119.33,225.59a10.75,10.75,0,0,1-2.25.38,2.36,2.36,0,0,1-1.18-.69c-6.1-5.4-11.55-11.31-15-19.1a3.26,3.26,0,0,1,3.91.95c3.13,3.72,6.29,7.41,9.32,11.2C115.87,220.49,117.38,222.83,119.33,225.59Z"/><path class="cls-3" d="M115.45,212c2,0,2,0,1.7,2.6Z"/><path class="cls-5" d="M118.72,125.82c-2.53,1.48-6,1.68-12.85.85-1.87-.23-4,0-5.47-2.2A19.31,19.31,0,0,1,118.72,125.82Z"/><path class="cls-6" d="M106.76,290.25c.52,3,1.58,6,2.53,9.38-3.79-2.23-6.73-7.28-7.93-13.2C104.26,286.52,106.22,287.11,106.76,290.25Z"/><path class="cls-3" d="M105.33,219c-.24.4-.31.69-.47.75a12.47,12.47,0,0,1-2.93.95c-.5.06-1.16-.49-1.55-.94-.12-.13.35-1,.73-1.27a21.44,21.44,0,0,1,2.58-1.42Z"/><path class="cls-1" d="M97.32,91.59l1.36,1.66-.33.3-1.43-1.61Z"/><path class="cls-9" d="M54.37,191.76a24.79,24.79,0,0,1-.18,6.2,3.08,3.08,0,0,1-2,2,79.73,79.73,0,0,1-10.64,1.51,57.45,57.45,0,0,1-8.67-.56,12.13,12.13,0,0,1-3.34-.82A2.32,2.32,0,0,1,28,197.3a39.07,39.07,0,0,1,3.23-10.82c.79.12,1.35,0,1.66.27,2.72,2,6,2,9.09,2.35a89.24,89.24,0,0,0,9.32.35C53.38,189.43,54.17,189.69,54.37,191.76Z"/><path class="cls-10" d="M53.92,202.73c-.31,3.8-.59,7-.83,10.21a2.92,2.92,0,0,1-2,2.6,32.87,32.87,0,0,1-13,3.33,20,20,0,0,1-4.48-.47c-5.34-1.16-7.19-3.45-7.2-8.86,0-2.49.14-5,.21-7.56C35.66,205,44.4,204.95,53.92,202.73Z"/><path class="cls-11" d="M52.58,219.9a17.18,17.18,0,0,1,0,2.41c-.35,2.29-.86,4.56-1.13,6.85-.19,1.61-.84,2.59-2.49,2.83-2.18.31-4.34.82-6.53.94-3.13.17-6.27.14-9.4.07-4.3-.08-6.15-1.86-6.35-6-.13-2.54-.14-5.08-.2-7.62,0-.07.14-.14.3-.3C35,224,43.66,222.09,52.58,219.9Z"/><path class="cls-9" d="M50,236.72a30.73,30.73,0,0,1-2.27,9.19c-.88,2.06-2.92,2.63-5,2.5-5.62-.38-10.46-2.08-12.62-8a45.06,45.06,0,0,0-2-4.16c4,.49,7.46,1.19,11,1.26S46.22,237,50,236.72Z"/><path class="cls-10" d="M45.73,158.69c.14,3.35.16,6.71.14,10.06,0,4.64-.12,9.27-.2,13.91a20.13,20.13,0,0,1-.26,2.09c-3,.81-5.5-.23-8.22-1.27.15-1.7.17-3.32.46-4.89,1.45-7.92,1.47-15.91,1.44-23.92,0-3.48.57-4,4.58-3.86A16.42,16.42,0,0,1,45.73,158.69Z"/><path class="cls-1" d="M33.95,164.27c0,2.94,0,5.44,0,7.94a2.87,2.87,0,0,1-.59,1.58c-4.81,6.12-6.25,13.6-8.37,20.8-1.27,4.32-2.45,8.68-3.67,13-.09.34-.12.78-.34,1-.83.71-1.72,1.85-2.62,1.88-1.4,0-1.54-1.41-1.61-2.62a49.74,49.74,0,0,1,2.23-16.45c2.44-8.53,6.79-16.21,11.53-23.67a18.13,18.13,0,0,1,2-2.41A9.88,9.88,0,0,1,33.95,164.27Z"/></g></svg>