<svg id="圖層_1" data-name="圖層 1" xmlns="http://www.w3.org/2000/svg" viewBox="0 0 287.81 324.7"><defs><style>.cls-1{fill:#fff;}.cls-2{fill:#4f7434;}.cls-3{fill:#6a4e22;}.cls-4{fill:#cf543f;}.cls-5{fill:#eabf29;}</style></defs><title>chks</title><path d="M268.85,176.13c2.07,3.71,1.64,6.45-1.55,9.25-3.74,3.28-7.89,5.61-13,5.82-3.33.14-6.66.51-10.13.79a22.21,22.21,0,0,0-.75,2.64c-1.49,9.52-4.3,18.7-7.42,27.77a30.62,30.62,0,0,1-4.77,8.79c-4.77,6.1-9.86,11.94-14.93,17.8-3.83,4.43-9.09,7.09-13.66,10.59-8.72,6.68-19.13,9.08-29.34,11.92-4.81,1.34-9.8,1-14.76.63-8.19-.54-16.41-.78-24.6-1.22a23.65,23.65,0,0,1-5.47-.8c-11.74-3.51-23.53-6.9-34.56-12.37-10.7-5.31-20.4-11.91-26.9-22.3a84.93,84.93,0,0,1-11.15-29.7c-.75-4-1.4-8-1.9-12a11.58,11.58,0,0,0-5.84-9.25c-4-2.38-7.93-4.65-12.64-5.44a60.29,60.29,0,0,1-8.33-2.36c-8-2.58-7.71-9.24-5.58-15.29.46-1.31,1.66-1.55,2.88-1.35,1.71.28,3.41.61,5.1,1,2.23.53,4.31.6,6.23-1s4.12-1,6.3-.57c3,.67,6,1.26,9.38,2,.53-3.45,1.07-6.37,1.42-9.33,1.08-9,4.29-17.49,7.45-25.92,1.82-4.87,4.16-9.53,6.29-14.28a48.13,48.13,0,0,1,8.56-13c2.12-2.3,4.19-4.63,6.32-6.92a42.2,42.2,0,0,1,14.06-10c6.56-2.89,13.11-5.81,19.6-8.85a65.94,65.94,0,0,1,20.21-5.74c2.23-9.9,2.32-20.19,5.4-29.85,4.24-1.23,6.47,0,6.69,4.24.4,8,.49,15.94.48,23.92,0,3.78,0,4.11,3.81,4.6,2.29.3,4.6.52,6.89.76a31,31,0,0,1,10,2.58c6.71,3.13,13.62,5.85,20.21,9.2q12.36,6.28,24.31,13.35c7.47,4.42,19,18.71,21.75,26.91,3.2,9.41,6.13,18.91,9,28.44,1.81,6.06,1.84,12.32,1.11,18.58-.13,1.12-.18,2.25-.31,3.91,1.84-.21,3.41-.28,4.94-.58,3.74-.74,7.46-1.56,11.18-2.38a5.78,5.78,0,0,1,6.77,2.92C268,174.76,268.45,175.42,268.85,176.13Zm-3.21,6.55a3.31,3.31,0,0,0,.74-4.4c-.51-.91-1-1.8-1.6-2.67a2.94,2.94,0,0,0-3.55-1.38c-3.48.85-7,1.64-10.51,2.2a66.14,66.14,0,0,1-7.88.6,35.06,35.06,0,0,1-4.23-.38,35.7,35.7,0,0,1-2.74-10c-.72-4.45-1.37-8.91-2.38-13.3-2.76-12-6.94-23.49-13.66-33.94a45.47,45.47,0,0,0-16.68-15.83c-4.57-2.48-9-5.29-13.5-7.85a28,28,0,0,0-4.13-1.64c-2.25-.83-4.55-1.56-6.78-2.48-1.79-.75-3.42-1.92-5.25-2.54a96.85,96.85,0,0,0-40.29-5A73.42,73.42,0,0,0,103,93.42c-2.21,1.26-4.38,2.63-6.69,3.68-10.61,4.83-17.53,13.07-21.7,23.7-3.25,8.28-6.11,16.72-9.22,25.06a34.47,34.47,0,0,0-2.05,11.55c-.08,4.16-.31,8.33-.53,12.49-.18,3.39-.93,3.95-4.36,3.53A21.22,21.22,0,0,1,46,167a40.94,40.94,0,0,0-3.5-3.37c-2.31-1.77-4.13-1.19-5.1,1.52a8,8,0,0,0,.82,7.63,21,21,0,0,0,4,4.28c4.47,3.52,9.25,6.58,14.77,8.23a7.27,7.27,0,0,1,5.37,5.35c1.45,5.35,3.26,10.64,4.31,16.06,1.58,8.14,5.17,15.13,9.92,21.88,5.29,7.52,11.4,13.95,19.2,18.77a118.11,118.11,0,0,0,27.66,12.7,46.86,46.86,0,0,0,9.78,2.22c13.16,1,26.29,1.16,39.27-2,19.13-4.63,34.34-15.14,46.26-30.57,3.94-5.11,7.74-10.39,9.71-16.69,1.16-3.73,2.34-7.45,3.46-11.18.63-2.09,1.16-4.2,1.75-6.3.67-2.42,1.44-4.82,2-7.27.26-1.14.11-2.48,1.58-2.72,1.68-.27,1.6,1.27,2,2.28.08.18.32.3.94.86l15.78-1C260,187.51,262.89,185.2,265.64,182.68Zm-23.47-11.55c.16-3,.7-6,.41-8.89C241.86,155,240.7,147.79,238,141c-2.1-5.38-4.5-10.64-6.53-16C227.21,113.59,219.86,104.83,210,98c-10.2-7-21.62-11.44-33.06-15.83A104.14,104.14,0,0,0,152.42,76c-1.35-.17-2.72-.17-4.36-.27l-.58,3.7c.5.3.68.49.89.52a15.78,15.78,0,0,0,2.06.24A51.67,51.67,0,0,1,169,84.16a23.33,23.33,0,0,0,3.95,1.3,56.84,56.84,0,0,1,14.45,5.75c6.41,3.46,12.7,7.13,19.18,10.45,7.85,4,13.34,10.2,17.25,17.92,2.66,5.26,5.35,10.51,7.68,15.92a82.59,82.59,0,0,1,4.12,12.11c1.81,7,3.27,14.18,4.9,21.28a20.52,20.52,0,0,0,.83,2.33Zm-1.54,21.25-.89-.66c-.49.46-1.23.83-1.43,1.4a64,64,0,0,0-1.92,6.29c-2.64,10.73-6.29,21-12.73,30.14-3.62,5.15-8,9.54-12.07,14.28-7,8.17-16,13-25.83,16.69-1.17.44-2.46.6-3.67.94-9.11,2.58-18.21,5.17-27.84,4.81-5.89-.22-11.8-.14-17.69-.37a42.89,42.89,0,0,1-8.89-1c-5.7-1.46-11.26-3.46-17-5A48.18,48.18,0,0,1,88.6,247.53,124.71,124.71,0,0,1,73.91,230c-4.74-6.79-8.8-13.83-10-22.22a81.43,81.43,0,0,0-2-8.08Q61,196,60,192.34c-.44-1.64-1.39-2.59-3.63-2.26.49,3.23.93,6.4,1.45,9.56,1.2,7.3,2.51,14.58,5.47,21.44,3.09,7.15,6.46,14.14,12.51,19.35,4,3.47,8,7,12.36,10.1a95.92,95.92,0,0,0,12.54,7.3A85.43,85.43,0,0,0,111.32,262c7.44,2.54,15,5.07,22.85,5.57,9.18.58,18.42.36,27.6,1s17.65-1.71,26.09-4.57A37.48,37.48,0,0,0,198,259.06c4.27-3.06,8.85-5.65,12.75-9.29,4.48-4.18,9.36-7.93,12.88-13,2.48-3.62,5-7.25,7.27-11a28.62,28.62,0,0,0,3.14-6.54c1.7-5.63,3.17-11.34,4.59-17.06C239.47,198.92,240,195.63,240.63,192.38ZM144.91,49.86c0-2.79.3-5.79-2.18-8.54-.47,1.84-1.08,3.65-1.39,5.52-1,6.14-1.94,12.3-2.9,18.45-.55,3.53-1.11,7.06-1.64,10.59-.59,3.91-.16,4.4,3.91,4.34,1.21,0,2.42-.17,3.47-.25a5.37,5.37,0,0,0,.34-1C144.68,69.23,144.94,59.54,144.91,49.86ZM132.49,79.44a4.26,4.26,0,0,0,1.81-4.83c-.62-1.79-2.14-1.48-3.49-1.43a14.52,14.52,0,0,0-2.73.39A123.73,123.73,0,0,0,90.32,89.7a42.64,42.64,0,0,0-11.39,10.57A115.22,115.22,0,0,0,61.5,132.83c-.7,2.08-1.07,4.28-1.87,6.31-3.73,9.48-4.11,19.34-3.75,29.49,3.21.83,3.7.56,3.89-2.08.09-1.26-.07-2.54-.1-3.81a56.23,56.23,0,0,1,3.66-21c1.8-4.74,3.75-9.43,5.6-14.15,1.17-3,2.18-6.09,3.41-9.08a44.8,44.8,0,0,1,15.8-20.25c7.78-5.38,15.9-10.4,25-13.3,5.39-1.71,10.9-3,16.35-4.54A14.53,14.53,0,0,0,132.49,79.44Zm-96.79,96c-1-3-1.76-5.63-2.76-8.15a3.15,3.15,0,0,0-1.9-1.7,29.9,29.9,0,0,0-5.15-.52c-1.26-.07-1.85.75-2,1.92-.31,2.31,1.45,5.85,3.65,6.56C30.11,174.39,32.82,174.8,35.69,175.45Z"/><path class="cls-1" d="M266.38,178.28a3.31,3.31,0,0,1-.74,4.4c-2.75,2.52-5.65,4.83-9.61,5.09l-15.78,1c-.63-.56-.86-.67-.94-.86-.41-1-.33-2.55-2-2.28-1.47.24-1.32,1.58-1.58,2.72-.56,2.45-1.33,4.85-2,7.27-.58,2.1-1.12,4.21-1.75,6.3-1.13,3.74-2.3,7.46-3.46,11.18-2,6.3-5.76,11.58-9.71,16.69-11.92,15.43-27.14,25.94-46.26,30.57-13,3.14-26.11,3-39.27,2a46.86,46.86,0,0,1-9.78-2.22,118.11,118.11,0,0,1-27.66-12.7c-7.8-4.82-13.91-11.25-19.2-18.77-4.75-6.75-8.34-13.74-9.92-21.88-1.06-5.43-2.86-10.71-4.31-16.06A7.27,7.27,0,0,0,57,185.35c-5.52-1.65-10.3-4.71-14.77-8.23a21,21,0,0,1-4-4.28,8,8,0,0,1-.82-7.63c1-2.72,2.78-3.3,5.1-1.52A40.94,40.94,0,0,1,46,167a21.22,21.22,0,0,0,12.43,6.37c3.44.42,4.18-.14,4.36-3.53.22-4.16.45-8.33.53-12.49a34.47,34.47,0,0,1,2.05-11.55c3.11-8.34,6-16.78,9.22-25.06,4.18-10.63,11.09-18.87,21.7-23.7,2.31-1,4.48-2.42,6.69-3.68a73.42,73.42,0,0,1,30.17-9.33,96.85,96.85,0,0,1,40.29,5c1.83.61,3.46,1.79,5.25,2.54,2.22.92,4.52,1.65,6.78,2.48a28,28,0,0,1,4.13,1.64c4.53,2.56,8.93,5.37,13.5,7.85a45.47,45.47,0,0,1,16.68,15.83c6.72,10.45,10.89,21.92,13.66,33.94,1,4.38,1.66,8.85,2.38,13.3a35.7,35.7,0,0,0,2.74,10,35.06,35.06,0,0,0,4.23.38,66.14,66.14,0,0,0,7.88-.6c3.53-.57,7-1.35,10.51-2.2a2.94,2.94,0,0,1,3.55,1.38C265.34,176.47,265.87,177.37,266.38,178.28ZM188.9,102.75c.43-1.56.23-2.69-1.37-2.6-1.91.1-3.85.44-5.3,2.56C184.79,104.66,186.81,102.61,188.9,102.75Zm1.36,3.6c-2-2.41-2.26-2.43-5.53-.33C186.85,108.11,187.18,108.12,190.26,106.35ZM174,127.48a4.07,4.07,0,0,0,.07-3.25c-1.23-2.69-2.79-5.24-4.34-8.08-4.36,3-8,5.86-12,8.2-2.79,1.67-3.87,3.76-3.4,6.84.17,1.14.27,2.3.54,3.41.74,3.05,1.75,3.73,4.95,3.37C166.61,137.21,170.83,133,174,127.48Zm-3.7-29.25c2.53-2.08,2.82-4.51-.35-6.06a19.94,19.94,0,0,0-15.81-.48c-.61.22-1,1-1.6,1.3a5.71,5.71,0,0,1-2.17.9c-3,.28-6,.46-9,.61a2.56,2.56,0,0,1-1.65-.34c-2.7-2.28-5.86-1.72-9-1.66-2.08.11-4.16.18-6.23.36a2.77,2.77,0,0,0-2.6,2.4c-.31,1.46-.1,2.85,1.26,3.67a11.38,11.38,0,0,0,3.18,1.3,13.23,13.23,0,0,0,7.83-.69,40.2,40.2,0,0,1,13.59-2.39,11,11,0,0,1,6.54,1.74C159.12,102,166.23,101.59,170.32,98.22Zm-8.15,14.94a1.56,1.56,0,0,0,.81-2.49,20.1,20.1,0,0,0-2.54-2.91c-.47,1.52-.7,2.15-.85,2.79a2.32,2.32,0,0,0,0,1A2.12,2.12,0,0,0,162.18,113.16Zm-7,77.48c7.67-4,9.9-9.95,3.74-17.1a10.46,10.46,0,0,0-1-1c-2.13-1.9-4.48-2.76-7.34-1.8a12,12,0,0,1-2.53.32c-2.33-9.38-7.61-13.56-17.33-5.28-.64-1-1.32-1.85-1.88-2.82a18.56,18.56,0,0,0-6.63-6.48c-1.36-.84-2.89-1.22-4.23-.17a12.6,12.6,0,0,0-4.79,6.58c-1.16,4.33.62,7.75,3.74,10.5a34.51,34.51,0,0,1,8.39,10.92A16.54,16.54,0,0,0,128,188a8,8,0,0,0,11.47.59,19.89,19.89,0,0,0,2-2.45c1.13,1,1.84,1.76,2.67,2.36C147.48,190.86,151.49,192.57,155.17,190.65ZM129.73,113.5c1.92-2,2.27-3.66,1.21-4.6s-2.09-.4-3.9,1.91Zm-7.15,24.78c4.39,2,8.42-.75,8.3-6.46a19.39,19.39,0,0,0-2-3.47c-2.3-2.73-4.72-5.36-7.24-7.9a26.7,26.7,0,0,0-4.12-3.1,2.42,2.42,0,0,0-3.62.65c-1,1.28-2,2.56-3,3.83-2.32,2.94-2.35,3.93-.06,7A30.14,30.14,0,0,0,122.58,138.28Zm-7.17-26.84c.37-.4.61-1.58.4-1.75a2.59,2.59,0,0,0-2-.56,3.43,3.43,0,0,0-2.3,3.57C113.23,113.45,114.42,112.52,115.42,111.44Zm1.33-6.67c-2.77-2.51-4.49-2.17-6.06,1.39A5.43,5.43,0,0,0,116.75,104.77Z"/><path class="cls-2" d="M242.58,162.24c.29,2.92-.25,5.93-.41,8.89l-.83.1a20.52,20.52,0,0,1-.83-2.33c-1.63-7.09-3.08-14.23-4.9-21.28a82.59,82.59,0,0,0-4.12-12.11c-2.33-5.4-5-10.66-7.68-15.92-3.91-7.72-9.4-13.91-17.25-17.92-6.48-3.32-12.78-7-19.18-10.45a56.84,56.84,0,0,0-14.45-5.75,23.33,23.33,0,0,1-3.95-1.3,51.67,51.67,0,0,0-18.55-3.94,15.78,15.78,0,0,1-2.06-.24c-.21,0-.39-.22-.89-.52l.58-3.7c1.64.1,3,.1,4.36.27a104.14,104.14,0,0,1,24.48,6.15C188.34,86.57,199.76,91,210,98c9.9,6.82,17.26,15.58,21.53,26.91,2,5.4,4.43,10.66,6.53,16C240.7,147.79,241.86,155,242.58,162.24Z"/><path class="cls-2" d="M239.74,191.72l.89.66c-.65,3.26-1.17,6.54-2,9.76-1.42,5.71-2.89,11.42-4.59,17.06a28.62,28.62,0,0,1-3.14,6.54c-2.3,3.73-4.79,7.36-7.27,11-3.51,5.11-8.4,8.87-12.88,13-3.9,3.64-8.48,6.22-12.75,9.29A37.48,37.48,0,0,1,187.86,264c-8.45,2.86-16.94,5.22-26.09,4.57s-18.41-.44-27.6-1c-7.9-.5-15.4-3-22.85-5.57a85.43,85.43,0,0,1-10.65-4.15,95.92,95.92,0,0,1-12.54-7.3c-4.34-3.06-8.32-6.63-12.36-10.1-6-5.21-9.42-12.2-12.51-19.35-3-6.86-4.27-14.13-5.47-21.44-.52-3.16-1-6.33-1.45-9.56,2.24-.33,3.19.62,3.63,2.26q1,3.68,1.93,7.38a81.43,81.43,0,0,1,2,8.08c1.24,8.39,5.3,15.43,10,22.22A124.71,124.71,0,0,0,88.6,247.53a48.18,48.18,0,0,0,22.12,12.36c5.69,1.51,11.25,3.52,17,5a42.89,42.89,0,0,0,8.89,1c5.89.23,11.8.15,17.69.37,9.63.36,18.73-2.23,27.84-4.81,1.22-.34,2.5-.5,3.67-.94,9.82-3.69,18.85-8.52,25.83-16.69,4-4.74,8.45-9.12,12.07-14.28,6.44-9.18,10.09-19.41,12.73-30.14a64,64,0,0,1,1.92-6.29C238.52,192.55,239.25,192.18,239.74,191.72Z"/><path d="M187.53,100.15c1.59-.09,1.8,1,1.37,2.6-2.09-.14-4.11,1.91-6.67,0C183.68,100.59,185.63,100.25,187.53,100.15Z"/><path d="M184.74,106c3.26-2.1,3.49-2.08,5.53.33C187.18,108.12,186.85,108.11,184.74,106Z"/><path d="M174.09,124.23a4.07,4.07,0,0,1-.07,3.25c-3.19,5.5-7.41,9.73-14.15,10.49-3.2.36-4.21-.32-4.95-3.37-.27-1.12-.37-2.27-.54-3.41-.47-3.08.61-5.17,3.4-6.84,3.95-2.35,7.61-5.18,12-8.2C171.3,119,172.85,121.54,174.09,124.23Zm-5.22,5c2.63-3.23,2.47-4.87-.95-8.2-3.14,2.26-6.17,4.37-9.11,6.59a4.66,4.66,0,0,0-1.44,5.56c.61,1.32,2.12,1.71,4.63,1.07C164.93,133.5,167,131.5,168.87,129.24Z"/><path d="M170,92.17c3.17,1.55,2.88,4,.35,6.06-4.09,3.37-11.2,3.79-16,.66a11,11,0,0,0-6.54-1.74,40.2,40.2,0,0,0-13.59,2.39,13.23,13.23,0,0,1-7.83.69,11.38,11.38,0,0,1-3.18-1.3c-1.35-.82-1.56-2.21-1.26-3.67a2.77,2.77,0,0,1,2.6-2.4c2.07-.18,4.15-.25,6.23-.36,3.1-.06,6.26-.61,9,1.66a2.56,2.56,0,0,0,1.65.34c3-.16,6-.33,9-.61a5.71,5.71,0,0,0,2.17-.9c.59-.35,1-1.08,1.6-1.3A19.94,19.94,0,0,1,170,92.17Zm-1.75,3c-3.62-1.81-7.28-1.46-11-.56a.48.48,0,0,0-.29.17c-.27.48-.74,1-.69,1.44a1.63,1.63,0,0,0,1,1.17C161.18,98.12,164.93,98,168.23,95.17Zm-40.54.68c3.38,1.92,4.54,1.73,6.67-.9Z"/><path class="cls-3" d="M167.92,121c3.42,3.33,3.57,5,.95,8.2-1.84,2.27-3.93,4.26-6.87,5-2.51.65-4,.25-4.63-1.07a4.66,4.66,0,0,1,1.44-5.56C161.75,125.41,164.78,123.3,167.92,121Z"/><path d="M163,110.67a1.56,1.56,0,0,1-.81,2.49,2.12,2.12,0,0,1-2.56-1.6,2.32,2.32,0,0,1,0-1c.15-.64.38-1.27.85-2.79A20.1,20.1,0,0,1,163,110.67Z"/><path class="cls-1" d="M157.28,94.61c3.67-.9,7.33-1.25,11,.56-3.3,2.8-7.05,3-10.93,2.22a1.63,1.63,0,0,1-1-1.17c0-.45.42-1,.69-1.44A.48.48,0,0,1,157.28,94.61Z"/><path d="M158.91,173.54c6.16,7.16,3.93,13.08-3.74,17.1-3.68,1.93-7.69.22-11-2.19-.83-.59-1.55-1.35-2.67-2.36a19.89,19.89,0,0,1-2,2.45A8,8,0,0,1,128,188a16.54,16.54,0,0,1-2.69-3.6,34.51,34.51,0,0,0-8.39-10.92c-3.12-2.75-4.9-6.17-3.74-10.5a12.6,12.6,0,0,1,4.79-6.58c1.33-1,2.87-.66,4.23.17a18.56,18.56,0,0,1,6.63,6.48c.56,1,1.24,1.86,1.88,2.82,9.71-8.28,15-4.1,17.33,5.28a12,12,0,0,0,2.53-.32c2.86-1,5.21-.1,7.34,1.8A10.46,10.46,0,0,1,158.91,173.54Zm-.34,8.67c.81-2.33-.35-5.25-2.86-7.23-2.34-1.85-4-1.8-7.21.29a17.36,17.36,0,0,0-2.21,1.65q-3.89,3.48-.59,7.55a6.73,6.73,0,0,0,5.21,2.74A8.14,8.14,0,0,0,158.57,182.21ZM144,171.39c.13-3.07-2.41-6.38-5-6.54-2.8-.17-6.27,3.24-6.34,6.23s3.07,6.1,6,6.08C141.36,177.15,143.87,174.46,144,171.39Zm-8.08,15.19c1.15-1,2.64-2.1,1.41-4.51-3.31-.15-6.1-1.32-7.36-4.67a13,13,0,0,1-1.09-4.32c0-4.22-2-7.51-4.55-10.56-3.27-3.87-5.54-3.51-7.51,1.11a3,3,0,0,0,.14,3.25c1.27,1.75,2.54,3.5,3.86,5.2.7.9,1.62,1.65,2.28,2.57,2.19,3.09,4.26,6.26,6.48,9.33a10.66,10.66,0,0,0,2.53,2.32C133.27,187.13,134.69,187.69,135.92,186.58Z"/><path class="cls-4" d="M155.71,175c2.51,2,3.67,4.9,2.86,7.23a8.14,8.14,0,0,1-7.66,5,6.73,6.73,0,0,1-5.21-2.74q-3.31-4.07.59-7.55a17.36,17.36,0,0,1,2.21-1.65C151.7,173.18,153.36,173.13,155.71,175Z"/><path class="cls-5" d="M142.72,41.32c2.48,2.75,2.17,5.75,2.18,8.54,0,9.69-.23,19.38-.39,29.06a5.37,5.37,0,0,1-.34,1c-1,.08-2.26.23-3.47.25-4.07.06-4.5-.42-3.91-4.34.53-3.53,1.09-7.06,1.64-10.59,1-6.15,1.88-12.31,2.9-18.45C141.64,45,142.25,43.16,142.72,41.32Z"/><path class="cls-4" d="M139,164.86c2.6.16,5.14,3.47,5,6.54s-2.64,5.76-5.37,5.77c-2.91,0-6.05-3.17-6-6.08S136.19,164.69,139,164.86Z"/><path class="cls-4" d="M137.33,182.07c1.23,2.41-.26,3.49-1.41,4.51s-2.65.55-3.82-.27a10.66,10.66,0,0,1-2.53-2.32c-2.22-3.07-4.29-6.24-6.48-9.33-.66-.93-1.57-1.67-2.28-2.57-1.32-1.71-2.59-3.46-3.86-5.2a3,3,0,0,1-.14-3.25c2-4.62,4.24-5,7.51-1.11,2.58,3.05,4.54,6.34,4.55,10.56A13,13,0,0,0,130,177.4C131.23,180.75,134,181.93,137.33,182.07Z"/><path class="cls-2" d="M134.29,74.6a4.26,4.26,0,0,1-1.81,4.83,14.53,14.53,0,0,1-3,.94c-5.45,1.51-11,2.82-16.35,4.54-9.13,2.9-17.25,7.92-25,13.3a44.8,44.8,0,0,0-15.8,20.25c-1.23,3-2.23,6.07-3.41,9.08-1.84,4.73-3.8,9.41-5.6,14.15a56.23,56.23,0,0,0-3.66,21c0,1.27.18,2.55.1,3.81-.19,2.65-.68,2.91-3.89,2.08-.36-10.15,0-20,3.75-29.49.8-2,1.17-4.23,1.87-6.31a115.22,115.22,0,0,1,17.43-32.56A42.64,42.64,0,0,1,90.32,89.7a123.73,123.73,0,0,1,37.75-16.13,14.52,14.52,0,0,1,2.73-.39C132.15,73.13,133.67,72.82,134.29,74.6Z"/><path class="cls-1" d="M134.36,95c-2.14,2.63-3.29,2.82-6.67.9Z"/><path d="M130.94,108.9c1.06.94.71,2.6-1.21,4.6L127,110.81C128.84,108.5,129.94,108,130.94,108.9Z"/><path d="M130.88,131.82c.13,5.71-3.91,8.49-8.3,6.46a30.14,30.14,0,0,1-11.73-9.43c-2.3-3.08-2.27-4.07.06-7,1-1.27,2-2.55,3-3.83a2.42,2.42,0,0,1,3.62-.65,26.7,26.7,0,0,1,4.12,3.1c2.51,2.53,4.94,5.17,7.24,7.9A19.39,19.39,0,0,1,130.88,131.82Zm-4.09,2.51a4.14,4.14,0,0,0-1-5.2c-2.21-2.19-4.43-4.38-6.74-6.46s-3.16-2-5,.49a12.82,12.82,0,0,0-1,2A23.16,23.16,0,0,0,126.79,134.33Z"/><path class="cls-3" d="M125.79,129.13a4.14,4.14,0,0,1,1,5.2,23.16,23.16,0,0,1-13.73-9.22,12.82,12.82,0,0,1,1-2c1.82-2.47,2.66-2.58,5-.49S123.59,126.94,125.79,129.13Z"/><path d="M115.82,109.69c.21.16,0,1.34-.4,1.75-1,1.08-2.18,2-3.94,1.26a3.43,3.43,0,0,1,2.3-3.57A2.59,2.59,0,0,1,115.82,109.69Z"/><path d="M110.69,106.17c1.56-3.56,3.29-3.9,6.06-1.39A5.43,5.43,0,0,1,110.69,106.17Z"/><path class="cls-3" d="M32.93,167.3c1,2.52,1.76,5.13,2.76,8.15-2.88-.65-5.59-1.06-8.17-1.89-2.2-.71-4-4.26-3.65-6.56.16-1.17.75-2,2-1.92a29.9,29.9,0,0,1,5.15.52A3.15,3.15,0,0,1,32.93,167.3Z"/></svg>