<svg id="圖層_1" data-name="圖層 1" xmlns="http://www.w3.org/2000/svg" viewBox="0 0 287.81 324.7"><defs><style>.cls-1{fill:#6a4e22;}.cls-2{fill:#fff;}.cls-3{fill:#4f7434;}.cls-4{fill:#eabf29;}.cls-5{fill:#cf543f;}</style></defs><title>chks</title><path d="M285.07,202.73c.24,3.82-.46,4.85-4,6.3l-1,.36c-6.33,2.23-8.08,1.54-10.73-4.55a20,20,0,0,0-6.43-8c-4.71-3.55-10.39-2.28-12.56,3.24a29.4,29.4,0,0,0-2.11,10.43c0,9.48.48,19,.83,28.43.33,8.9.75,17.81,1.13,26.7.24,5.78.51,11.56.7,17.34.15,4.5-.54,5.27-4.89,5.8-1.49.18-3,.4-4.48.45a10.25,10.25,0,0,1-10.72-8.43c-.87-4.54-1.4-9.15-2-13.73a263.63,263.63,0,0,1-1.4-39.17c.28-11,1.42-21.94,5-32.45a18.92,18.92,0,0,0,.92-3c.94-5.67,3.51-10.25,9.05-13.26-3.88-9.16-7.15-18.2-15.69-24.85-.24,3.4-.13,6.21-.09,9,.1,6.47.29,12.94.17,19.41-.16,8.09-.55,16.19-.93,24.28a50.94,50.94,0,0,1-.82,6.88,17.4,17.4,0,0,1-6.67,11c-1.65,1.26-3.39,2.42-5.12,3.56a44.72,44.72,0,0,0-10.25,8.76,35.79,35.79,0,0,1-5.55,5.22,176.61,176.61,0,0,1-22.36,14.42c-.65,2.84-1.16,5.53-1.89,8.15-1.12,4-2.17,8.06-3.66,11.93a60.56,60.56,0,0,1-4.77,9.57c-1.83,3-5,3.47-8.26,3.16-1.92-.18-3-1.57-3.54-3.38-1.06-3.28-.33-6.41.68-9.52,1.39-4.27,2.86-8.51,4.48-13.35a213.81,213.81,0,0,1-61.55-1.4,14.94,14.94,0,0,0,0,2.63c1.15,5.66,2.29,11.32,3.56,17,.44,1.95,1.31,3.93-.57,5.45a5.46,5.46,0,0,1-6.24.36c-3.57-2-6.8-4.58-8.09-8.69-2-6.48-5.32-12.59-5.91-19.53-.17-2.07-1.83-3.24-3.62-3.85-9.11-3.06-16.26-9.19-23.43-15.19-3.43-2.87-6.25-6.48-9.32-9.78-1.24-1.34-2.16-3-4.27-3.29-.48-.06-.92-.65-1.34-1-1.27-1.17-2.46-2.46-3.81-3.55a19.93,19.93,0,0,1-7.57-16.08c0-4.14-1.33-8.23-.31-12.42.25-1-.37-2.22-.74-4.09a24.4,24.4,0,0,0-1.1,2.66c-.71,2.8-1.34,5.62-2.06,8.41a18.44,18.44,0,0,1-1.22,3.61A8.15,8.15,0,0,1,8.16,207.7c-2.15-1.56-2.58-4.07-3-6.43A45.78,45.78,0,0,1,6,181.67a26,26,0,0,0,1-6.49,23.41,23.41,0,0,1,2.9-11.65A102.14,102.14,0,0,1,18,150.64c9.09-11.8,16-24.83,22.52-38.16a49.75,49.75,0,0,1,6-9.28c3.48-4.31,7.35-8.33,11.06-12.46a7.3,7.3,0,0,1,1.53-1.4C68.92,83.45,78.45,77,90.38,76c4.58-.41,9.07-1.77,13.63-2.54,1.95-.33,2.5-1.42,2.39-3.14-.31-4.49-.67-9-1-13.5-.34-5.19-.95-10.4-.83-15.59a46.93,46.93,0,0,1,1.89-10.85,6.38,6.38,0,0,1,6.17-5.18A7.36,7.36,0,0,1,120.28,30c.79,2.14,1.22,4.42,1.84,6.77.89.09,1.66.22,2.45.26,4.16.22,6.36,1.75,7.67,5.78.89,2.74,1.41,5.6,2.12,8.4.19.77.46,1.53.75,2.48,2-.56,3.8-1.18,5.67-1.6,7.45-1.65,16.5,3.06,19.52,10a12.94,12.94,0,0,1,.2,9.49c-.32,1-.72,1.94-1.23,3.33,1.25.4,2.41.73,3.54,1.14,2.71,1,5.65,1.59,8.07,3.05,9.81,5.92,19.59,12,28,19.85,8,7.55,15.23,15.87,19.89,26.06a17.67,17.67,0,0,0,6,6.66q6.7,5,13.43,9.85c6.13,4.49,10.95,10.29,15.78,16.05,2.16,2.59,2.61,5.87,3.24,9.05.32,1.58.56,3.18.88,5.08l5.2,1.39c2.57.69,5.17,1.27,7.69,2.09a13.89,13.89,0,0,1,8.87,7.79C282.46,189.34,284.64,195.82,285.07,202.73Zm-9.46,3.1c2.58.6,5.71-2.18,5.3-4.73a77,77,0,0,0-2.28-10.84,20.29,20.29,0,0,0-18.11-14c-1.79-.11-3.14.21-3.74,2.21a18.16,18.16,0,0,1-1.88,4.08c-1.64,2.68-4.06,3.27-6.85,1.81-.79-.42-1.55-.9-2.31-1.33-5.35,3.12-7.48,8.08-9.11,13.91,2.51.46,4.74,1,7,1.26,1.54.22,2.54-.64,3.33-2,2.28-3.8,8.37-6.42,12.54-5.28,6.93,1.9,12.51,5.39,14.4,13A2.9,2.9,0,0,0,275.61,205.83Zm-22.75-30.48a56.42,56.42,0,0,0,.34-8.62c-.37-4.71-3.12-8.38-6.05-11.86A84.62,84.62,0,0,0,225,136.14a26.33,26.33,0,0,1-11.25-12.34,42.46,42.46,0,0,0-4.36-7.48c-6.06-8.39-12.93-16-21.44-22.06-4.15-2.95-8.34-5.85-12.47-8.81-5.11-3.65-11-5.35-17-6.61a16.26,16.26,0,0,0-3.44,0,29,29,0,0,1-3.65,0c-1.37-.16-2.71-.71-4.07-.81-9.22-.66-18.44-1.36-27.68-1.82-8.85-.44-17.46,1.54-26.16,2.76C83,80.47,73.86,85,65.24,90.72a33.94,33.94,0,0,0-5.45,4.79C51,104.58,44.19,115.07,38.12,126a219,219,0,0,1-19.44,29.93,35.24,35.24,0,0,0-2.34,3.44A31.49,31.49,0,0,0,12.15,171c-.85,5.12-1.91,10.2-3.13,15.24a28,28,0,0,0,.56,15.37c.52,1.66,2.79,2.94,4.75,2.91,2.3,0,3.21-.69,3.87-3.17.84-3.13,1.64-6.27,2.26-9.44.87-4.41,1.69-8.84,2.28-13.31.38-2.86.08-5.8.51-8.65a19.5,19.5,0,0,1,2.07-6.12c1.56-3,3.49-5.72,5.28-8.56,2.83-4.49,4.26-5.09,9.49-3.87,7.87,1.84,15.68,4,23.61,5.51,14.65,2.82,29.39,5.14,44.32,5.86,1.95.1,3.9,0,6.13,0a31.41,31.41,0,0,0,.37-4.17,12.45,12.45,0,0,0-4-8.56c-3.55-3.54-2.46-7.77,2.23-9.18a4,4,0,0,0,2.87-2.63c.83-2.15,1.78-4.27,2.75-6.36s2.46-4.08,5.1-4.14,3.95,1.67,5.06,3.67c1.24,2.22,2.52,4.43,3.66,6.7a6.55,6.55,0,0,0,4.11,3.85c2.34.68,3.23,2.52,3,4.87a12.79,12.79,0,0,1-.85,4c-1.3,2.69-2.87,5.24-4.34,7.85-.69,1.24-1.4,2.47-2.31,4.07,26.26,1.12,49.93-5.57,72.42-17.18l-.71-2.63c4.13-1.41,7.87,0,11.63.09a16.12,16.12,0,0,1,10.64,4.47c8.18,7.51,15.1,16,19.36,26.36a19.22,19.22,0,0,0,1.13,2.53,3.55,3.55,0,0,0,3.89,1.65A2.9,2.9,0,0,0,252.86,175.34Zm-9.51,108.46c2.58-.15,2.91-.52,2.81-3.21,0-.46-.08-.92-.14-1.38a274.17,274.17,0,0,1-2.7-38,18.34,18.34,0,0,0-.59-3.64l-9.88-1.13c0,.84,0,2,0,3.12-.26,12.16.44,24.27,1.34,36.39.5,6.69,1.69,8,8.48,7.88C242.89,283.81,243.12,283.82,243.35,283.81Zm.42-75.43c.28-2.13.25-4.29.36-6.49l-8.91-1.46c-.56,2.16-1,3.94-1.48,5.7s.25,3.08,1.7,4.14a6.88,6.88,0,0,0,4.89,1.29C242.44,211.34,243.5,210.51,243.77,208.37ZM242.37,221c1.63-.73,1.08-2.57,1-4s-1.11-1.84-2.35-2c-2.36-.31-4.7-.66-7.39-1-.27,2.15-.61,4.05-.71,6-.11,2.17.63,3.26,2.68,3.05A22.09,22.09,0,0,0,242.37,221Zm.78,7.93c0-.8-.07-1.59-.14-3.1l-10.09,1.06a23.6,23.6,0,0,0,.74,3.66c1,2.62,3.59,3.8,6.55,3.14C242.37,233.23,243.1,232.08,243.15,228.94Zm-20-63.59A76.69,76.69,0,0,0,221.83,153a4.83,4.83,0,0,0-4.51-4.42c-.21.3-.46.49-.45.65,1.4,22.33,3.77,44.65,1.61,67.15a5.79,5.79,0,0,0,2.66-4.69c.35-3.09.72-6.2.83-9.31C222.44,190,223,177.7,223.15,165.35Zm-8.76,49.34c.39-6.22,1.2-12.46,1.1-18.68-.16-10-.85-20.09-1.42-30.13-.27-4.61-.71-9.22-1.25-13.8a20.4,20.4,0,0,0-1.57-4.29l-6.53,2.53c.79,25.54,1.57,50.68,2.34,75.82,5.52-.27,7.15-1.9,7.2-7.29C214.26,217.46,214.3,216.07,214.39,214.69ZM202.85,226c.15-9.36.63-18.73.3-28.07-.48-13.73-1.54-27.44-2.37-41.16a14.76,14.76,0,0,0-.25-2.06,1.73,1.73,0,0,0-2.54-1.49c-1.4.51-2.74,1.17-4.18,1.8.17,2.59.38,4.76.46,6.93.2,5.19.32,10.39.53,15.59.42,10.5,1,21,1.28,31.5.18,6.7,0,13.4-.06,20.11,0,.84.16,1.7.27,2.77,1.28-.47,2.23-.84,3.2-1.17A4.7,4.7,0,0,0,202.85,226Zm-7.41,11.13-2,.64c-8,2.67-16,5.39-24,8a29.1,29.1,0,0,1-6.11,1.06c-7.25.69-14.5,1.31-21.76,1.91-5.63.47-11.23,1.17-16.94.5-4.22-.5-8.54-.1-12.8-.31a91.57,91.57,0,0,1-12.74-1.1c-14.39-2.74-28.67-6-41.85-12.74a46.45,46.45,0,0,0-5.77-2.1c2.78,3.71,15,13.43,18.52,15.34.81.44,1.64.85,2.47,1.25a116.12,116.12,0,0,0,46.2,11c9.13.29,18.27.19,27.41.24a12.8,12.8,0,0,0,2.41-.24c15.9-2.77,30.14-9.41,43.27-18.61A9,9,0,0,0,195.44,237.16Zm-3-15.42c.56-17.34-.82-34.64-1.52-52-.11-2.76-.17-5.54-.35-8.31-.24-3.79-1-4.29-4.47-3.1-1.85.64-3.68,1.33-6.11,2.22-.09,25.65-.19,51.1-.28,77,3.14-.88,5.76-1.76,8.44-2.33s3.71-2.07,3.82-4.58C192.1,227.73,192.33,224.74,192.43,221.74Zm-18.16,16.82c2.1-25.65.9-50.86,1.41-76.22-1.66.35-3,.6-4.36.94s-2.83.8-4.47,1.27c1.07,25,1.67,49.9,2.89,75ZM170,263.44a31.13,31.13,0,0,0,.58-4.95,23.39,23.39,0,0,1-3.79,1.3c-4,.58-5.45,3.22-6.08,6.87-.9,5.21-2.09,10.37-3.13,15.56-.19,1-.3,2-.44,3l.75.76a15.33,15.33,0,0,0,3.13-1.54,14.7,14.7,0,0,0,4.64-7.14C167.18,272.68,168.69,268.09,170,263.44Zm-5.91-38.39c.24-8.32.8-16.64.72-25-.1-10.18-.72-20.35-1.15-30.52-.05-1.22-.31-2.43-.5-3.91l-8.2.62A692.37,692.37,0,0,1,152.84,241c3,1.51,5.34.67,7.67.08,3.15-.8,3.32-1,3.41-4.21C164,232.93,164,229,164.14,225.06ZM155.45,71.84a6.46,6.46,0,0,0,2.07-6.59c-1.16-5.39-5.06-8.08-9.93-9.56-7.09-2.16-12.71,2.84-11.55,10.58,1.57-.53,2.86-1,4.16-1.4,4.16-1.23,6.84-.22,9.14,3.42.61,1,1.08,2,1.75,3C152.34,73.07,153.81,73.27,155.45,71.84Zm-4,137.51q.07-16.82-.51-33.63c-.09-2.69-1.16-5.37-2-8a2.62,2.62,0,0,0-2-1.38,59.34,59.34,0,0,0-6.16.6,36.71,36.71,0,0,0-.67,3.71c-.3,4.27-.71,8.54-.74,12.81-.1,12.6,0,25.2-.08,37.8,0,5.65-.35,11.31-.53,17,0,1.22,0,2.45,0,3.59,3.52,1.49,6.51.16,10-.17.3-2.55.6-4.84.82-7.11.28-3,.52-6,.74-9C150.73,220.16,151.41,214.75,151.44,209.34ZM147.3,73.94l.46-.91a21.38,21.38,0,0,0-1.43-2.62c-1.87-2.55-3.38-2.76-6-1.06-.75.48-1.68.7-2.4,1.21a11.2,11.2,0,0,0-1.6,1.71l.34.77ZM136.82,176.24c.28-2.72,0-5.5,0-8.51l-4.55-1.42a13,13,0,0,0-.8,1.35c-2.38,5.48-3.63,11.43-7,16.54a4.79,4.79,0,0,0-.43,2.69c.44,9.11.87,18.23,1.45,27.34.53,8.31,1.27,16.59.49,24.92a38.33,38.33,0,0,0,.07,4.23l8.36-.86a17.92,17.92,0,0,0,.38-2.21c.38-9.35,1-18.7,1-28C135.79,200.23,135.58,188.23,136.82,176.24Zm-3-25.73c.42-1.35,1.4-2.73-.1-4.39C133.57,147.84,132.69,149.21,133.85,150.52ZM129.21,72.3c2.4-.09,2.83-.51,2.8-2.93a103.57,103.57,0,0,0-.5-11c-.55-4.57-1.43-9.11-2.33-13.63-.58-2.87-2.18-4-4.82-3.94-2.45.09-3.56,1.11-4.1,4.23a36.56,36.56,0,0,0-.53,6.19c0,6.23.12,12.46.22,18.69,0,.67.14,1.33.27,2.46C123.46,72.32,126.34,72.4,129.21,72.3Zm-3.89,101.83c3.59-10.36,3.88-21.08,3.25-31.85a14.85,14.85,0,0,0-4.48-10.45,5.14,5.14,0,0,0-3.07,3.81c-1.65,5.56-3,11.18-2.78,17,.13,3.57.67,7.13.65,10.7a18.16,18.16,0,0,0,3.46,10.33,14.76,14.76,0,0,0,2.24,2.15C125,175,125.18,174.55,125.32,174.13Zm-3.23,69.78c0-2,0-3.66,0-5.36A51.83,51.83,0,0,1,122,233c.75-8.11,0-16.17-.57-24.25-.49-7.6-2-15.16-.8-22.81a11.87,11.87,0,0,0-1.41-7.31,37.42,37.42,0,0,1-2.88-8.1c-1-4.52-1.83-5.23-6.66-4.68-.32,6.63-.73,13-.9,19.31-.18,6.94-.09,13.88-.21,20.81-.19,11.33-.47,22.66-.67,34,0,1.67.19,3.34.31,5.24Zm-3.66-204c1.1-3,.11-5.76-1.55-8.21a4.23,4.23,0,0,0-7.07-.07A9.91,9.91,0,0,0,107.93,36a79.86,79.86,0,0,0-.37,10.71c.13,3.92.56,7.83,1,11.74.5,4.68,1.12,9.34,1.69,14.06H117c-.17-2.56-.34-4.73-.45-6.9C116.07,57,115.28,48.31,118.43,39.91ZM114,147.79c.07-1,.11-1.82.16-2.61C112.42,146.45,112.42,146.45,114,147.79Zm-8.92,27.57a49.44,49.44,0,0,0-.66-7.59c-.32-2.19-1-2.76-3.19-2.88-1.83-.09-3.67,0-6,0a48.51,48.51,0,0,0-.6,5.15c0,4.28,0,8.57.11,12.85.31,16.08,1,32.16,0,48.25-.2,3.41.57,6.9,1.09,10.31a3.44,3.44,0,0,0,1.63,2.42c1.88.72,3.9,1.55,6.23.45a30.7,30.7,0,0,0,.47-3.66Q104.69,208,105.08,175.35Zm-8.84,108.7a40.93,40.93,0,0,0-.42-4.57c-1-5-2.16-9.91-3.28-14.86-1-4.21-3.65-6-8.35-5.68C82.93,265.33,90.58,281.55,96.24,284.05Zm-5.2-42V164.13L81.87,163c-.73,5.59-1.83,10.88-1.76,16.29.14,9.71.09,19.43.77,29.1.72,10.11,2.16,20.18,3.42,30.25a3.67,3.67,0,0,0,1.93,2.51A21.67,21.67,0,0,0,91,242.05ZM79.56,239.4c-.16-2.46-.24-4.53-.44-6.57-.31-3.1-.8-6.19-1-9.29-.7-8.53-1.46-17.05-1.92-25.6-.52-9.47-1.08-19,0-28.42.85-7.51.12-8.34-7.88-8.69-.2,0-.41.19-.93.44-.16,2.59-.5,5.34-.46,8.1.13,7.86.59,15.72.6,23.59a377.9,377.9,0,0,0,2.29,37.72c.68,6.67.69,5.89,6.46,7.84C77.08,238.81,78,239,79.56,239.4Zm-13.8-4.53a26.29,26.29,0,0,0,.25-3.4q-1.1-13.64-2.28-27.27c-.5-5.76-1.35-11.49-1.51-17.25-.21-7.38.1-14.78.23-22.17.08-4.86-1-6.19-5.78-6.79a31.6,31.6,0,0,0-3.55,0,44.3,44.3,0,0,0-.79,5.77c0,7.74-.19,15.49.18,23.22.44,9.22,1.29,18.43,2.12,27.63.38,4.24,1.16,8.45,1.71,12.69a5.29,5.29,0,0,0,3.08,4.3C61.35,232.57,63.27,233.58,65.76,234.87Zm-13.48-6.38c0-1.15.08-2.18,0-3.19-1-10.71-2-21.41-3-32.12-1-11-1.77-21.89,0-32.86.65-4,.07-4.49-4-5.27-3.19-.61-3.9-.25-4.12,2.79-.38,5.29-.85,10.61-.7,15.9.22,7.62.91,15.22,1.52,22.82.27,3.33.78,6.65,1.28,10,.84,5.6,1.79,11.17,2.65,16.77C46.48,226.66,48.32,228.45,52.28,228.49Zm-11-5.73c-.22-1.27-.33-2.25-.55-3.22-2.95-13-4.92-26.09-4.33-39.48.28-6.47.57-12.93.83-19.39.06-1.55,0-3.11,0-5.26-5.59,4.86-8.74,10.2-8.61,17,.19,10.39.58,20.77.89,31.15,0,.23,0,.46,0,.69.53,4.89,1.82,9.53,4.84,13.52A12,12,0,0,0,41.31,222.76Z"/><path class="cls-1" d="M280.92,201.09c.41,2.55-2.72,5.34-5.3,4.73a2.9,2.9,0,0,1-1.69-1.87c-1.9-7.59-7.47-11.07-14.4-13-4.17-1.15-10.26,1.48-12.54,5.28-.8,1.33-1.79,2.19-3.33,2-2.26-.31-4.49-.8-7-1.26,1.63-5.83,3.76-10.79,9.11-13.91.75.43,1.51.91,2.31,1.33,2.79,1.46,5.21.87,6.85-1.81a18.16,18.16,0,0,0,1.88-4.08c.6-2,2-2.32,3.74-2.21a20.29,20.29,0,0,1,18.11,14A77,77,0,0,1,280.92,201.09Z"/><path class="cls-2" d="M253.2,166.72a56.42,56.42,0,0,1-.34,8.62,2.9,2.9,0,0,1-2.69,2.75,3.55,3.55,0,0,1-3.89-1.65,19.22,19.22,0,0,1-1.13-2.53c-4.27-10.39-11.18-18.84-19.36-26.36a16.12,16.12,0,0,0-10.64-4.47c-3.76-.13-7.5-1.49-11.63-.09l.71,2.63c-22.49,11.61-46.16,18.3-72.42,17.18.91-1.6,1.61-2.83,2.31-4.07,1.47-2.61,3-5.16,4.34-7.85a12.79,12.79,0,0,0,.85-4c.27-2.34-.61-4.18-3-4.87a6.55,6.55,0,0,1-4.11-3.85c-1.14-2.27-2.42-4.47-3.66-6.7-1.12-2-2.56-3.73-5.06-3.67s-4.08,1.94-5.1,4.14-1.92,4.2-2.75,6.36a4,4,0,0,1-2.87,2.63c-4.69,1.41-5.78,5.64-2.23,9.18a12.45,12.45,0,0,1,4,8.56,31.41,31.41,0,0,1-.37,4.17c-2.23,0-4.18.09-6.13,0-14.93-.73-29.67-3-44.32-5.86-7.93-1.53-15.74-3.67-23.61-5.51-5.23-1.23-6.66-.63-9.49,3.87-1.79,2.84-3.72,5.6-5.28,8.56A19.5,19.5,0,0,0,23.26,170c-.43,2.84-.13,5.79-.51,8.65-.59,4.46-1.41,8.9-2.28,13.31-.63,3.17-1.42,6.31-2.26,9.44-.67,2.48-1.57,3.13-3.87,3.17-2,0-4.22-1.24-4.75-2.91A28,28,0,0,1,9,186.25c1.22-5,2.29-10.12,3.13-15.24a31.49,31.49,0,0,1,4.19-11.66,35.24,35.24,0,0,1,2.34-3.44A219,219,0,0,0,38.12,126c6.08-10.91,12.93-21.4,21.67-30.47a33.94,33.94,0,0,1,5.45-4.79C73.86,85,83,80.47,93.46,79c8.7-1.22,17.31-3.2,26.16-2.76,9.24.46,18.46,1.16,27.68,1.82,1.37.1,2.7.65,4.07.81a29,29,0,0,0,3.65,0,16.26,16.26,0,0,1,3.44,0c6,1.25,11.89,3,17,6.61,4.14,3,8.32,5.86,12.47,8.81,8.51,6,15.37,13.67,21.44,22.06a42.46,42.46,0,0,1,4.36,7.48A26.33,26.33,0,0,0,225,136.14a84.62,84.62,0,0,1,22.17,18.73C250.09,158.34,252.84,162,253.2,166.72Zm-81.63-43.92h-8.37c1.52,3.1,2.18,3.49,4.84,3.17C170.5,125.67,171.13,125.11,171.58,122.81Zm-2.07-5.63c.16-.23,0-.66,0-1.31-3.22-.56-5.88.75-8.62,1.43-.42.1-.91,1-.86,1.57a2.07,2.07,0,0,0,1.09,1.48C162.61,120.94,168.56,118.62,169.51,117.18Zm-7.78-14.39c1.44-2.21,1.38-3.21-.76-4.67-4.11-2.79-8.35-5.37-12.56-8a2.33,2.33,0,0,0-3.38.55c-1.58,2-3.13,4-4.73,6a2.19,2.19,0,0,0,0,2.86c3.33,5.12,8.58,7,13.5,8.55C158,107.82,160,105.46,161.73,102.79ZM146,126.88a6.72,6.72,0,0,0-5.08-10.53,10.36,10.36,0,0,0-7.77,2.34,9.34,9.34,0,0,1-7.13,2c-1.38-.12-2.78-.1-4.16-.26-5.59-.62-11.33-.36-16.4-3.61a5,5,0,0,0-4.25-.05,21.53,21.53,0,0,0-5.74,4.28c-1.85,2-1.6,3.79.13,5.91a7.94,7.94,0,0,0,12.64-.28c2.09-2.82,4.28-4.5,7.08-3.62,4.49.42,8.17.78,11.86,1.11a5.65,5.65,0,0,1,4.82,2.91C134.93,132.33,142.65,131.85,146,126.88Zm-9.85-16.37a2.4,2.4,0,0,0,2.49-2.28,3.29,3.29,0,0,0-2.94-2.83c-1.51,0-3.39,1.26-3.37,2.32C132.35,109,134.46,110.59,136.14,110.51ZM112.9,94.7c-.93-1.72-1.7-3.13-2.47-4.54a18.67,18.67,0,0,0-1.07-1.78,5,5,0,0,0-6-2.2c-3.36,1.2-6.7,2.49-10,4-2.86,1.3-3.48,2.78-2.91,5.86a17.13,17.13,0,0,0,.87,3c1.32,3.4,2.77,4.19,6.41,3.67C103.65,101.84,108.09,98.34,112.9,94.7Zm-1.73,11.86c.4-.94-1.44-2.58-3.24-2.61a7.56,7.56,0,0,0-1.42,2.29c-.24,1,1.34,2.38,2.6,2.1A3.41,3.41,0,0,0,111.17,106.56ZM84.86,118.87c1-.18,1.86-.92,3.34-1.71-3.11-1.84-5.67-1.39-8.15-1.4a1.66,1.66,0,0,0-1.83,1.95,2.51,2.51,0,0,0,1.88,1.39A17.4,17.4,0,0,0,84.86,118.87Zm-5-8.19C84.41,114,86,114.2,89,111.75l-7.83-3.62Z"/><path class="cls-1" d="M246.16,280.6c.1,2.69-.23,3.06-2.81,3.21-.23,0-.46,0-.69,0-6.78.13-8-1.19-8.48-7.88-.9-12.12-1.59-24.23-1.34-36.39,0-1.14,0-2.29,0-3.12l9.88,1.13a18.34,18.34,0,0,1,.59,3.64,274.17,274.17,0,0,0,2.7,38C246.08,279.67,246.14,280.13,246.16,280.6Z"/><path class="cls-2" d="M244.13,201.89c-.11,2.2-.08,4.36-.36,6.49s-1.33,3-3.44,3.18a6.88,6.88,0,0,1-4.89-1.29c-1.45-1.05-2.2-2.31-1.7-4.14s.92-3.54,1.48-5.7Z"/><path class="cls-2" d="M243.34,217c.11,1.47.67,3.31-1,4a22.09,22.09,0,0,1-6.81,1.93c-2,.2-2.79-.88-2.68-3.05.1-1.91.44-3.81.71-6,2.69.38,5,.74,7.39,1C242.23,215.12,243.22,215.51,243.34,217Z"/><path class="cls-2" d="M243,225.84c.07,1.5.15,2.3.14,3.1-.06,3.14-.78,4.29-2.94,4.77-3,.65-5.54-.52-6.55-3.14a23.6,23.6,0,0,1-.74-3.66Z"/><path class="cls-3" d="M221.83,153a76.69,76.69,0,0,1,1.32,12.35c-.18,12.35-.71,24.69-1.18,37-.12,3.11-.48,6.21-.83,9.31a5.79,5.79,0,0,1-2.66,4.69c2.16-22.51-.21-44.82-1.61-67.15,0-.17.24-.35.45-.65A4.83,4.83,0,0,1,221.83,153Z"/><path class="cls-3" d="M215.49,196c.1,6.22-.72,12.45-1.1,18.68-.09,1.38-.13,2.77-.14,4.16,0,5.39-1.67,7-7.2,7.29-.78-25.14-1.56-50.28-2.34-75.82l6.53-2.53a20.4,20.4,0,0,1,1.57,4.29c.55,4.59,1,9.2,1.25,13.8C214.64,175.93,215.33,186,215.49,196Z"/><path class="cls-3" d="M203.15,198c.33,9.34-.15,18.71-.3,28.07a4.7,4.7,0,0,1-3.35,4.75c-1,.34-1.92.7-3.2,1.17-.11-1.07-.27-1.92-.27-2.77,0-6.71.25-13.41.06-20.11-.29-10.51-.86-21-1.28-31.5-.21-5.2-.33-10.4-.53-15.59-.09-2.17-.29-4.35-.46-6.93,1.43-.63,2.78-1.29,4.18-1.8a1.73,1.73,0,0,1,2.54,1.49,14.76,14.76,0,0,1,.25,2.06C201.61,170.51,202.67,184.22,203.15,198Z"/><path class="cls-2" d="M193.45,237.8l2-.64a9,9,0,0,1-3.69,4.85c-13.13,9.2-27.37,15.84-43.27,18.61a12.8,12.8,0,0,1-2.41.24c-9.14,0-18.28.05-27.41-.24a116.12,116.12,0,0,1-46.2-11c-.83-.39-1.66-.8-2.47-1.25C66.5,246.41,54.24,236.69,51.46,233a46.45,46.45,0,0,1,5.77,2.1c13.19,6.78,27.46,10,41.85,12.74a91.57,91.57,0,0,0,12.74,1.1c4.27.22,8.58-.19,12.8.31,5.71.67,11.31,0,16.94-.5,7.26-.6,14.51-1.22,21.76-1.91a29.1,29.1,0,0,0,6.11-1.06C177.47,243.2,185.45,240.47,193.45,237.8Z"/><path class="cls-3" d="M190.91,169.79c.7,17.31,2.08,34.61,1.52,52-.1,3-.33,6-.47,9-.12,2.51-1.23,4-3.82,4.58s-5.3,1.44-8.44,2.33c.1-25.94.19-51.38.28-77,2.43-.89,4.26-1.58,6.11-2.22,3.49-1.19,4.23-.69,4.47,3.1C190.74,164.25,190.8,167,190.91,169.79Z"/><path class="cls-3" d="M175.68,162.34c-.51,25.36.69,50.57-1.41,76.22l-4.54,1c-1.21-25.14-1.82-50-2.89-75,1.64-.48,3-.91,4.47-1.27S174,162.69,175.68,162.34Z"/><path d="M163.21,122.81h8.37c-.44,2.3-1.08,2.87-3.53,3.17C165.39,126.3,164.73,125.91,163.21,122.81Z"/><path class="cls-4" d="M170.62,258.49a31.13,31.13,0,0,1-.58,4.95c-1.35,4.64-2.86,9.23-4.33,13.84a14.7,14.7,0,0,1-4.64,7.14,15.33,15.33,0,0,1-3.13,1.54l-.75-.76c.14-1,.24-2,.44-3,1-5.19,2.23-10.35,3.13-15.56.63-3.65,2-6.29,6.08-6.87A23.39,23.39,0,0,0,170.62,258.49Z"/><path d="M169.53,115.87c0,.65.14,1.08,0,1.31-1,1.44-6.89,3.76-8.37,3.17a2.07,2.07,0,0,1-1.09-1.48c0-.52.45-1.47.86-1.57C163.65,116.62,166.31,115.31,169.53,115.87Z"/><path class="cls-3" d="M164.85,200.1c.08,8.32-.48,16.64-.72,25-.11,3.94-.11,7.87-.22,11.8-.08,3.19-.26,3.41-3.41,4.21-2.33.59-4.69,1.43-7.67-.08A692.37,692.37,0,0,0,155,166.3l8.2-.62c.2,1.48.45,2.69.5,3.91C164.13,179.75,164.75,189.92,164.85,200.1Z"/><path d="M161,98.13c2.14,1.46,2.21,2.46.76,4.67-1.74,2.66-3.75,5-7.93,5.26-4.92-1.51-10.17-3.44-13.5-8.55a2.19,2.19,0,0,1,0-2.86c1.6-2,3.15-4,4.73-6a2.33,2.33,0,0,1,3.38-.55C152.62,92.75,156.86,95.33,161,98.13Zm-2.21,2.32a31.06,31.06,0,0,0-10.19-6.81,2.73,2.73,0,0,0-3.44.81c-.78.93-1.41,2-2.1,3a18.74,18.74,0,0,0,7.22,5.83C154.56,105.12,155.87,104.73,158.76,100.44Z"/><path class="cls-5" d="M157.51,65.24a6.46,6.46,0,0,1-2.07,6.59c-1.64,1.43-3.11,1.23-4.37-.56-.66-.93-1.13-2-1.75-3-2.3-3.64-5-4.65-9.14-3.42-1.31.39-2.59.87-4.16,1.4-1.16-7.74,4.46-12.74,11.55-10.58C152.45,57.17,156.36,59.85,157.51,65.24Z"/><path class="cls-1" d="M148.56,93.63a31.06,31.06,0,0,1,10.19,6.81c-2.89,4.29-4.2,4.68-8.51,2.79A18.74,18.74,0,0,1,143,97.41c.68-1,1.32-2,2.1-3A2.73,2.73,0,0,1,148.56,93.63Z"/><path class="cls-3" d="M150.93,175.71q.55,16.8.51,33.63c0,5.41-.71,10.81-1.12,16.22-.22,3-.46,6-.74,9-.22,2.28-.52,4.56-.82,7.11-3.53.33-6.52,1.66-10,.17,0-1.14,0-2.37,0-3.59.17-5.66.49-11.31.53-17,.09-12.6,0-25.2.08-37.8,0-4.27.44-8.54.74-12.81a36.71,36.71,0,0,1,.67-3.71,59.34,59.34,0,0,1,6.16-.6,2.62,2.62,0,0,1,2,1.38C149.78,170.34,150.85,173,150.93,175.71Z"/><path d="M140.92,116.35A6.72,6.72,0,0,1,146,126.88c-3.35,5-11.07,5.46-14,.24a5.65,5.65,0,0,0-4.82-2.91c-3.69-.33-7.37-.69-11.86-1.11-2.8-.88-5,.8-7.08,3.62A7.94,7.94,0,0,1,95.6,127c-1.73-2.12-2-4-.13-5.91a21.53,21.53,0,0,1,5.74-4.28,5,5,0,0,1,4.25.05c5.07,3.25,10.82,3,16.4,3.61,1.38.16,2.78.14,4.16.26a9.34,9.34,0,0,0,7.13-2A10.36,10.36,0,0,1,140.92,116.35Zm2.64,7.11a3.44,3.44,0,0,0-3.6-3.71c-2.44,0-4.89,2-4.91,3.95a3.69,3.69,0,0,0,3.91,3.5C141.43,127.2,143.46,125.55,143.56,123.45Zm-39.26,1.48c1-.69,2.35-1.38,1.84-2.91s-1.76-2-3.36-2c-.48.1-1,.19-1.59.36-2,.64-2.9,2.31-2.27,3.95.49,1.26,2.08,1.82,3.82,1.3A5.47,5.47,0,0,0,104.3,124.94Z"/><path class="cls-2" d="M140,119.75a3.44,3.44,0,0,1,3.6,3.71c-.09,2.09-2.13,3.74-4.6,3.74a3.69,3.69,0,0,1-3.91-3.5C135.07,121.72,137.52,119.74,140,119.75Z"/><path d="M138.63,108.23a2.4,2.4,0,0,1-2.49,2.28c-1.68.08-3.79-1.46-3.82-2.79,0-1.06,1.85-2.36,3.37-2.32A3.29,3.29,0,0,1,138.63,108.23Z"/><path class="cls-3" d="M136.86,167.73c0,3,.24,5.79,0,8.51-1.24,12-1,24-1,36,.05,9.35-.62,18.7-1,28a17.92,17.92,0,0,1-.38,2.21l-8.36.86a38.33,38.33,0,0,1-.07-4.23c.79-8.33,0-16.61-.49-24.92-.58-9.11-1-18.23-1.45-27.34a4.79,4.79,0,0,1,.43-2.69c3.33-5.1,4.59-11.05,7-16.54a13,13,0,0,1,.8-1.35Z"/><path class="cls-1" d="M133.75,146.12c1.51,1.67.53,3,.1,4.39C132.69,149.21,133.57,147.84,133.75,146.12Z"/><path class="cls-5" d="M132,69.37c0,2.42-.4,2.84-2.8,2.93-2.87.1-5.75,0-9,0-.13-1.13-.26-1.79-.27-2.46-.09-6.23-.22-12.46-.22-18.69a36.56,36.56,0,0,1,.53-6.19c.54-3.13,1.64-4.15,4.1-4.23,2.64-.09,4.24,1.07,4.82,3.94.91,4.52,1.79,9.06,2.33,13.63A103.57,103.57,0,0,1,132,69.37Z"/><path class="cls-4" d="M128.57,142.28c.63,10.77.34,21.49-3.25,31.85-.15.42-.35.82-.73,1.71a14.76,14.76,0,0,1-2.24-2.15,18.16,18.16,0,0,1-3.46-10.33c0-3.56-.52-7.13-.65-10.7-.21-5.85,1.12-11.47,2.78-17a5.14,5.14,0,0,1,3.07-3.81A14.85,14.85,0,0,1,128.57,142.28Z"/><path class="cls-3" d="M122.09,238.55c0,1.7,0,3.4,0,5.36l-13.89,1.32c-.12-1.9-.34-3.57-.31-5.24.2-11.33.48-22.66.67-34,.12-6.94,0-13.88.21-20.81.17-6.34.58-12.67.9-19.31,4.82-.55,5.62.16,6.66,4.68a37.42,37.42,0,0,0,2.88,8.1A11.87,11.87,0,0,1,120.6,186c-1.16,7.65.31,15.21.8,22.81.52,8.08,1.32,16.14.57,24.25A51.83,51.83,0,0,0,122.09,238.55Z"/><path class="cls-5" d="M116.88,31.7c1.66,2.45,2.65,5.26,1.55,8.21-3.15,8.4-2.36,17.06-1.93,25.71.11,2.17.28,4.34.45,6.9h-6.71c-.57-4.72-1.19-9.39-1.69-14.06-.42-3.91-.85-7.82-1-11.74A79.86,79.86,0,0,1,107.93,36a9.91,9.91,0,0,1,1.89-4.39A4.23,4.23,0,0,1,116.88,31.7Z"/><path class="cls-1" d="M114.16,145.18c0,.78-.1,1.56-.16,2.61C112.42,146.45,112.42,146.45,114.16,145.18Z"/><path d="M110.43,90.16c.78,1.41,1.54,2.82,2.47,4.54-4.82,3.65-9.25,7.14-15.12,8-3.64.52-5.09-.27-6.41-3.67a17.13,17.13,0,0,1-.87-3c-.58-3.08,0-4.56,2.91-5.86,3.25-1.48,6.59-2.78,10-4a5,5,0,0,1,6,2.2A18.67,18.67,0,0,1,110.43,90.16Zm-3.76,5c.77-.42,1.73-1.56,1.64-2.24a5,5,0,0,0-1.84-2.7c-.52-.45-1.5-.36-1.8-.42a17,17,0,0,0-9.13,3.16c-1.76,1.14-2,3.17-.82,5.21,1,1.75,2.46,1.48,3.88.85C101.33,97.79,104.05,96.56,106.67,95.14Z"/><path d="M107.93,104c1.81,0,3.64,1.67,3.24,2.61a3.41,3.41,0,0,1-2.07,1.79c-1.26.27-2.84-1.08-2.6-2.1A7.56,7.56,0,0,1,107.93,104Z"/><path class="cls-1" d="M108.32,92.9c.09.68-.87,1.82-1.64,2.24-2.62,1.41-5.34,2.65-8.06,3.85-1.43.63-2.9.91-3.88-.85-1.14-2-.94-4.06.82-5.21a17,17,0,0,1,9.13-3.16c.29.06,1.27,0,1.8.42A5,5,0,0,1,108.32,92.9Z"/><path class="cls-2" d="M106.14,122c.51,1.54-.82,2.22-1.84,2.91a5.47,5.47,0,0,1-1.56.7c-1.74.53-3.33,0-3.82-1.3-.63-1.64.31-3.31,2.27-3.95.54-.17,1.11-.26,1.59-.36C104.38,120,105.65,120.57,106.14,122Z"/><path class="cls-3" d="M104.42,167.76a49.44,49.44,0,0,1,.66,7.59q-.36,32.64-.88,65.28a30.7,30.7,0,0,1-.47,3.66c-2.33,1.1-4.35.27-6.23-.45a3.44,3.44,0,0,1-1.63-2.42c-.52-3.41-1.29-6.9-1.09-10.31,1-16.09.3-32.16,0-48.25-.08-4.28-.15-8.57-.11-12.85a48.51,48.51,0,0,1,.6-5.15c2.29,0,4.13-.08,6,0C103.39,165,104.1,165.57,104.42,167.76Z"/><path class="cls-4" d="M95.82,279.48a40.93,40.93,0,0,1,.42,4.57c-5.67-2.5-13.31-18.73-12.06-25.11,4.7-.35,7.4,1.47,8.35,5.68C93.66,269.57,94.78,274.51,95.82,279.48Z"/><path class="cls-3" d="M91,164.13v77.93a21.67,21.67,0,0,1-4.8-.84,3.67,3.67,0,0,1-1.93-2.51c-1.26-10.07-2.71-20.14-3.42-30.25-.68-9.67-.64-19.4-.77-29.1-.08-5.41,1-10.71,1.76-16.29Z"/><path d="M88.2,117.16c-1.48.79-2.36,1.53-3.34,1.71a17.4,17.4,0,0,1-4.77.23,2.51,2.51,0,0,1-1.88-1.39A1.66,1.66,0,0,1,80,115.76C82.53,115.77,85.09,115.32,88.2,117.16Z"/><path d="M89,111.75c-3.06,2.45-4.61,2.29-9.15-1.08l1.32-2.54Z"/><path class="cls-3" d="M79.13,232.83c.2,2,.28,4.11.44,6.57-1.58-.42-2.48-.59-3.35-.89-5.77-2-5.77-1.17-6.46-7.84A377.9,377.9,0,0,1,67.48,193c0-7.87-.48-15.73-.6-23.59,0-2.76.3-5.51.46-8.1.52-.25.73-.45.93-.44,8,.35,8.73,1.19,7.88,8.69-1.07,9.45-.5,19,0,28.42.47,8.54,1.22,17.07,1.92,25.6C78.33,226.64,78.82,229.73,79.13,232.83Z"/><path class="cls-3" d="M66,231.47a26.29,26.29,0,0,1-.25,3.4c-2.49-1.29-4.41-2.3-6.35-3.28a5.29,5.29,0,0,1-3.08-4.3c-.55-4.24-1.33-8.45-1.71-12.69-.83-9.2-1.68-18.41-2.12-27.63-.37-7.73-.22-15.47-.18-23.22a44.3,44.3,0,0,1,.79-5.77,31.6,31.6,0,0,1,3.55,0c4.79.59,5.86,1.92,5.78,6.79-.13,7.39-.44,14.79-.23,22.17.16,5.76,1,11.49,1.51,17.25Q64.91,217.83,66,231.47Z"/><path class="cls-3" d="M52.27,225.29c.09,1,0,2,0,3.19-4,0-5.8-1.82-6.31-5.18-.86-5.6-1.8-11.17-2.65-16.77-.5-3.31-1-6.63-1.28-10-.61-7.6-1.3-15.21-1.52-22.82-.15-5.29.32-10.61.7-15.9.22-3,.93-3.4,4.12-2.79,4.05.78,4.63,1.3,4,5.27-1.8,11-1,21.9,0,32.86C50.28,203.89,51.29,214.59,52.27,225.29Z"/><path class="cls-3" d="M40.76,219.54c.22,1,.33,1.95.55,3.22a12,12,0,0,1-6.88-5c-3-4-4.31-8.63-4.84-13.52,0-.23,0-.47,0-.69-.31-10.38-.7-20.76-.89-31.15-.13-6.82,3-12.16,8.61-17,0,2.15.06,3.71,0,5.26-.26,6.47-.55,12.93-.83,19.39C35.84,193.45,37.81,206.55,40.76,219.54Z"/></svg>