<svg id="圖層_1" data-name="圖層 1" xmlns="http://www.w3.org/2000/svg" viewBox="0 0 287.81 324.7"><defs><style>.cls-1{fill:#fff;}.cls-2{fill:#2c748c;}.cls-3{fill:#cd461e;}.cls-4{fill:#4e9136;}.cls-5{fill:#3760a5;}.cls-6{fill:#314462;}.cls-7{fill:#3761a4;}.cls-8{fill:#ebbf29;}.cls-9{fill:#cf543f;}</style></defs><title>chks</title><g id="_群組_" data-name="&lt;群組&gt;"><path d="M260,175.55a37.62,37.62,0,0,1-1.59,15.14c-.71,2.47-2.2,4.39-5.58,4.18,0,1.54,0,2.89,0,4.24,0,7.09.12,14.18-.11,21.27a46.67,46.67,0,0,1-3.32,17A6.9,6.9,0,0,1,247.3,240a12.61,12.61,0,0,1-14.69.79c-1.67-1-3.17-2.31-5-3.69-.58.9-1.27,1.92-1.92,3a58.23,58.23,0,0,1-17.45,18.13,180.44,180.44,0,0,1-22,12.58c-2.71,1.3-3.85,3.91-5.17,6.33-2.38,4.38-4.69,8.81-7,13.2a7.89,7.89,0,0,1-1.18,1.72c-2.23,2.35-5.11,1.69-6.21-1.32-.93-2.55.12-4.81.94-7.08.75-2.07,1.71-4.07,2.55-6.1a4.17,4.17,0,0,0,0-1.07,16.85,16.85,0,0,0-2.59,0c-10,1.58-20.15,1.54-30.25,1.23-3.47-.1-6.91-.82-10.38-1.06-2.52-.18-5.06,0-7.81,0,.94,2.76,1.89,5.33,2.67,8a12.54,12.54,0,0,1,.5,3.78c0,2.06-1.1,3.15-3.07,2.84a8,8,0,0,1-4.31-1.87A84.11,84.11,0,0,0,100.19,277c-.32-.21-.46-.67-1.05-1.57l3.57,1.46c.22-2.22-1.17-2.7-2.49-3.38-2.15-1.1-4.23-2.36-6.34-3.55-.3-.17-.74-.32-.85-.58-1.3-3.19-4.47-3.74-7.07-5.14a45.48,45.48,0,0,1-4-2.69c-3.15-2.16-6.24-4.4-9.45-6.47-3.37-2.18-7-3.93-9.52-7.31-1.22-1.63-3.28-2.61-4.64-4.17-2.37-2.7-4.51-5.6-6.72-8.43C44.28,225.78,40.39,215,38.26,203.4c-1-5.35-2.38-10.62-3.61-15.93a7.33,7.33,0,0,0-.89-1.42c-1.2,5.33-2.3,10.15-3.36,15-.2.9-.17,1.86-.43,2.74-1.45,5-6,6.26-10,2.82a11,11,0,0,1-3.94-7.88,49.36,49.36,0,0,1,4.05-22.8c2.52-5.67,5.37-11.25,9.92-15.84a13.84,13.84,0,0,0,4-9.65c.28-8.31.64-16.66,3.46-24.71a61.57,61.57,0,0,1,7.93-15.39c2.81-4,5.74-7.87,8.86-11.6,2.14-2.57,4.75-4.74,7-7.19,7.79-8.31,17.5-14,26.9-20.21a14.36,14.36,0,0,1,1.85-1c5.58-2.59,11.12-5.26,16.76-7.69,2.22-1,4.69-1.3,7-2,3.08-.95,6.14-2,9.64-3.13-.6-2.53-1-4.78-1.67-7-1.62-5.45-3.41-10.86-5-16.33a13.26,13.26,0,0,1-.24-7.53c.75-2.61,2.41-3.56,4.73-3.86a36.47,36.47,0,0,1,4.3,0c-.37-1.94-.61-3.61-1-5.25a12.15,12.15,0,0,1,.08-7.2c1.32-3.73,4.71-5,8-2.86,2.21,1.48,4.4,3.12,4.54,6.22a10.86,10.86,0,0,0,.92,2.48c1.39-2,2.52-3.51,3.59-5.1,1.83-2.7,3.12-3.41,5.36-2.88,2.7.64,4.24,2.38,4.17,5.6-.08,3.45-.67,6.9-1,10.35-.51,5.19-1,10.38-1.47,15.56-.4,4.26-.31,8.61-2.2,12.62a28,28,0,0,0-.91,2.67c3.68.73,7.14,1.83,10.66,2,9.11.57,17.48,3.47,25.6,7.31A127.14,127.14,0,0,1,195,71c4.89,3,9.57,6.38,13.24,11.1,3.25,4.17,7.4,7.65,11.12,11.46a16.64,16.64,0,0,1,2.22,2.67c4.74,7.53,9.43,15.09,14.36,23,3.59.8,4.23,1.48,4.88,5.82.48,3.21,1,6.42,1.35,9.65a3.29,3.29,0,0,0,2.13,2.91c4.18,1.76,6.44,5.13,7.77,9.28a25,25,0,0,0,1.29,3.6C257.31,158.35,258.95,166.9,260,175.55Zm-5.61,14.11c1-2.84,2.27-5.56,1.9-8.74a31.94,31.94,0,0,1-.1-7c.52-5-.57-9.67-2.07-14.3A107.62,107.62,0,0,0,249.79,148a30.47,30.47,0,0,0-4.41-6.2,2.51,2.51,0,0,0-2.15-.5c-.4.1-.77,1.1-.82,1.72-.66,7.52-.61,15,3,21.88,3.56.6,4.82,1.86,5,5,.32,4.74.58,9.49,1,14.22.2,2.14.77,4.25,1.18,6.38l1.34.52C254.1,190.56,254.27,190.12,254.43,189.67Zm-4.76,25.09c.34-3.85.12-7.74.12-12.09-4.08,2.47-7.67,4.7-12,5.35-4.52.66-8.19-2-13-3,0,2.51.09,4.46,0,6.41a7.91,7.91,0,0,0,2.17,5.92c5.7,6.68,14.28,7.63,20.18,1C248.1,217.25,249.55,216,249.66,214.76Zm-.06-18.62a24.32,24.32,0,0,0-1-9.64c-3.65,1.95-6.91,4.35-11,3.62-3.83-.69-7.59-1.76-12.07-2.82-.18,4.29-.44,8.42-.44,12.55a3.28,3.28,0,0,0,1.52,2.51c3.27,1.4,6.52,3,10.32,2.28,4.79-.92,8.2-4.09,11.77-7A2.47,2.47,0,0,0,249.61,196.14ZM247,235.39c2.27-4,2.48-8.34,2.92-13.18-10.31,5.6-13.08,5.33-23.12.27A31.72,31.72,0,0,0,229,232.83c1.33,3.66,4,5.51,7.45,6.7A8.7,8.7,0,0,0,247,235.39Zm-1.89-52c1.53-1.28,3.45-2.66,3.31-5-.18-3.07-.63-6.12-1-9.6-6.92,4.6-14,6.33-21.7,3.91-1.17,2.73-1.57,5.58-.4,7.64a12,12,0,0,0,8.76,6.26A13.86,13.86,0,0,0,245.12,183.34Zm-6.63-32.73c.39-7.52,1.18-15,0-22.55a6.92,6.92,0,0,0-.88-2.95,4.1,4.1,0,0,0-2.46-1.48c-1.24-.2-1.78.82-1.94,2a17.33,17.33,0,0,0-.34,1.71c-.36,8-.86,16-1,24-.08,5.08.39,10.18.64,15.27.06,1.12.24,2.23.36,3.25,5.08,1,5.49.45,5.36-4.24C238.15,160.58,238.24,155.59,238.49,150.61ZM230.22,126c.07-.77,0-1.56,0-2.68-1,.48-1.74.82-2.45,1.14-6.68,2.95-13.2,6.37-20.08,8.72-9.53,3.26-19.21,6.22-29.24,7.71-6,.89-11.79,2.47-17.92,2.39-5.67-.08-11.35.74-17,.81-8.24.1-16.5.24-24.71-.28-7.51-.47-15-1.81-22.46-2.74-2.42-.3-4.84-.65-7.28-.77-9.26-.46-18.07-3-26.73-6-6.55-2.29-12.93-5.07-19.82-7.8a76.25,76.25,0,0,0-3.18,7.2c-.61,1.86-.88,4.07,1.06,5.43,2.36,1.65,4.74,3.61,7.42,4.43,11.64,3.54,23,8,35.19,9.74,10.56,1.47,21,3.73,31.57,5.3,6.19.92,12.48,1.28,18.74,1.67a94.16,94.16,0,0,0,12.86.11c9-.69,18-1.89,27-2.59,10.8-.83,20.84-4.31,30.84-8.08,5-1.88,10-3.67,15-5.53,2.28-.85,4.51-1.84,6.81-2.62s3.08-2.52,3.26-4.8C229.42,133.11,229.87,129.54,230.22,126Zm-1.75-5.51c2.18-1.54,2.38-1.86,1.56-4.28a20.12,20.12,0,0,0-1.25-2.48c-2.29,1.19-4.34,2.27-6.4,3.32-6.84,3.45-13.56,7-21.23,8.6-7.48,1.51-14.57,4.68-22.29,5.36-4.84.43-9.64,1.37-14.48,1.87-5.77.6-11.55,1.1-17.34,1.43-4.5.26-9,.35-13.53.23-6.26-.16-12.51-.6-18.76-.89s-12.32-.2-18.42-.89c-6.79-.77-13.48-2.53-20.27-3.3C66,128.27,57,124,47.79,120.26c-.92-.38-1.76-1-3-1.61L43.61,123c4.89,2.08,9.26,4.26,13.85,5.81,7.13,2.41,14.29,5.08,21.66,6.38,11.18,2,22.43,3.7,33.81,4.6a319.54,319.54,0,0,0,32.69,1.1,200,200,0,0,0,33.57-3.18,211.43,211.43,0,0,0,30.52-8.37c1.74-.62,3.35-1.65,5.12-2.16A45.33,45.33,0,0,0,228.47,120.45Zm.68,48.11c-.17-4.81-.34-9.46-.52-14.37-3.41,1.47-6.4,2.69-9.33,4-9.44,4.31-19.46,6.92-29.32,10-8.46,2.63-17.31,3.27-26.09,4.26-7.64.86-15.25,1.62-22.95,1.23-3-.15-6-.41-9-.48-4.52-.1-9,.05-13.56-.11a133.51,133.51,0,0,1-29.53-4.51c-4.47-1.19-9.1-1.79-13.59-2.95-4-1-8-2.39-11.94-3.73s-7.62-2.78-11.45-4.11a8.72,8.72,0,0,0-2.14-.23c-.7,4.49-1,8.81-2.11,12.93C46.06,176.34,43.87,182,38.94,186a3.54,3.54,0,0,0-1,2.69c.22,2.29.79,4.55,1.23,6.82,1.44,7.41,2.85,14.85,5.71,21.87,1.61,4,3.7,7.72,5.62,11.55.2.4.75.64,1.47,1.22a10.48,10.48,0,0,0,.18-2.52c-1.24-5.42.85-9.88,3.52-14.44,4.12-7,8.73-13.42,16.16-17.36a5.66,5.66,0,0,0,2.54-3.09c1.34-4.6-1.63-10.11-5.82-11.3-5.11-1.44-11.62,1.52-13.11,6a6.64,6.64,0,0,0-.35,2.05A3.15,3.15,0,0,0,59,192.83a4,4,0,0,0,3.43-3.06c.35-1.18.59-2.4,1-3.92L67,188.58c-1.15,2.13-2.17,4.2-3.35,6.16A4.38,4.38,0,0,1,59.25,197c-3.89-.43-7.16-2-9.14-5.56-2.92-5.3-1.43-13.07,3.23-16.87a8,8,0,0,1,6.09-2.13c6.84.81,16.39,5.95,17.44,16.35a20.38,20.38,0,0,0,.26,2.07c.58,2.74,1,3.1,3.76,2.62,11.44-2,20.65,1.87,27.62,10.91,4.91,6.37,7.13,13.51,4.25,21.51a2.2,2.2,0,0,0,.64,2.79c2.38,1.93,4.91,3.6,8.08,3.74,2.55.11,5.12.12,7.67,0a7.77,7.77,0,0,0,7-4.95c1.4-3,.62-5.89-.75-8.7-1.09-2.23-3-3.14-5.29-3.45A2.18,2.18,0,0,0,127.4,217a22.73,22.73,0,0,0-.47,5.06,19.47,19.47,0,0,0,.8,3.67c-4.23-.93-6.95-3-8.58-6.45-.93-1.95,0-3.63,1.34-5a10.44,10.44,0,0,1,13.09-1.76,14.33,14.33,0,0,1,6.31,7.65c2.55,7.08-.16,13-7.14,15.77a19.85,19.85,0,0,1-13.63.69c-.58-.18-1.19-.28-2.16-.5.64,1.24,1.08,2,1.48,2.88,2.17,4.52,1.41,8.26-2.48,12.34-3.75,3.93-6.78,4.62-11.58,2.64a7.91,7.91,0,0,1-3.87-10.51,2.4,2.4,0,0,1,2.82-1.59,35.62,35.62,0,0,0-1.18,4.52c-.32,2.49,1.34,4.39,4,4.82,2.49.4,4-.49,4.47-3.18a9.09,9.09,0,0,0-.24-5.06,21.84,21.84,0,0,0-4.18-5.85c-2.17-2.26-6.68-2.61-9.43-1.11-6.64,3.64-8.82,10-5.91,16.88A3.11,3.11,0,0,0,93.27,255c3,.53,5.92,1.31,8.91,1.55,10.18.81,20.37,1.46,30.55,2.13,5.67.37,11.35,1,17,.87,6.26-.11,12.51-.8,18.75-1.41a56.14,56.14,0,0,0,10.64-1.67c7.26-2.18,14.7-3.36,22.13-4.58,7.88-1.29,15-4.08,20.36-10.29,1.94-2.24,3.8-4.66,3.79-7.63a31.52,31.52,0,0,0-1.5-8.15,95.18,95.18,0,0,1-3-19.57c-.78-11.64,1.47-23.13,1.76-34.72a3.7,3.7,0,0,1,4.28-3.56A12.28,12.28,0,0,1,229.15,168.56Zm-.83-19.49a52.86,52.86,0,0,0,.08-6.29c-1.64.82-2.72,1.43-3.86,1.92-6.71,2.88-13.32,6-20.17,8.5-6.32,2.28-12.87,3.94-19.38,5.65a59.74,59.74,0,0,1-9.24,1.54c-10,1-20.09,2-30.14,2.79a80.82,80.82,0,0,1-13.17.41c-9.14-.76-18.21-2.24-27.34-3-13.29-1.12-26.12-4.31-38.73-8.32-8.82-2.81-17.81-5.33-26.07-9.71a7.89,7.89,0,0,0-1.57-.4v6.35c4.22,2.06,8.25,4,12.3,6a11.72,11.72,0,0,0,1.66.47c2.54.79,5.17,1.39,7.61,2.43,8.71,3.69,17.64,6.49,27.11,7.3a14.91,14.91,0,0,1,2.37.55,111.25,111.25,0,0,0,22.66,3.49c4.06.16,8.11.62,12.17.75,6.26.21,12.52.4,18.79.31,4.75-.07,9.5-.6,14.25-.92,6.25-.42,12.54-.54,18.74-1.35,5.51-.71,10.91-2.24,16.37-3.31A97.52,97.52,0,0,0,226.6,151C227.32,150.57,228.22,149.79,228.31,149.07Zm-.66-37.52c-2-5.68-6.16-9.36-8.9-14a11.71,11.71,0,0,0-1.93-2c-4-4-7.87-8.19-12-12.05a82.42,82.42,0,0,0-11.26-9.25c-4.17-2.67-8.91-4.46-13.39-6.65a55.4,55.4,0,0,0-20.3-5.82c-3.22-.24-6.39-1.18-9.6-1.64s-6.2-.79-9.31-.95c-4.67-.24-9.13.8-13.7,1.82-7.28,1.64-14.46,3.44-21.24,6.55-7,3.23-14.72,4.91-21.26,9.43C77,82.4,69.14,87.57,62.94,94.81c-2.94,3.44-6,6.75-8.95,10.2a44.52,44.52,0,0,0-6.82,10.48c1.44,1,2.62,2.2,4.05,2.69,7.23,2.48,14.41,5.28,21.83,7,7.09,1.63,14.44,2.13,21.7,3,5.06.62,10.14,1.23,15.24,1.51,7.06.39,14.14.63,21.22.64,6.61,0,13.23-.13,19.82-.6,6-.43,12-1.57,18-2.06,6.84-.56,13.61-1.13,20.32-2.83,8.77-2.23,17.67-3.93,26-7.66C219.42,115.36,223.49,113.46,227.65,111.55ZM209.18,252.86c.12-.1.09-.39.19-.87-.64.17-1.17.29-1.69.44-7.78,2.29-15.51,4.8-23.36,6.81-4,1-8.24,1.19-12.38,1.66s-8.29,1.09-12.44,1.23q-11,.39-21.93.25c-11.24-.15-22.51-.06-33.6-2.45-3.17-.68-6.35-1.24-9.54-1.83s-6.15-1-9.2-1.66c-2.13-.45-4.2-1.15-6.3-1.74,3.06,3.77,6.71,6.58,11.29,7.63a130.49,130.49,0,0,0,14.41,2.43c9.33,1.07,18.63,2.69,28.08,2.25,10.43-.49,20.87-.81,31.3-1.36a152.33,152.33,0,0,0,30.24-4.23C200,259.93,204.62,256.45,209.18,252.86Zm-33.82,18.69A53,53,0,0,0,188,265.82c-5.25.58-10.36,1.57-15.52,2.26-5.86.77-11.74,1.61-17.62,1.81-7.16.24-14.35-.29-21.53-.25a133.55,133.55,0,0,1-20.14-1.14c-5.26-.76-10.57-1.18-15.87-1.75a19.35,19.35,0,0,0,9.36,4c2.07.32,4.11.74,6.18,1,5,.7,10.09,1.35,15.13,2,1.73.22,3.46.42,5.19.6a50.36,50.36,0,0,0,6.91.64c6.72-.24,13.43-.81,20.14-1.06A64.15,64.15,0,0,0,175.35,271.56Zm4.49,2.88c-2.33-.79-4.14.2-5.93.82a3.23,3.23,0,0,0-1.54,1.72c-1.27,3-2.48,6-3.58,9.07a14.23,14.23,0,0,0-.41,3.18c1.89.69,2.83-.12,3.7-1.13C175.51,284.08,177.34,279.19,179.84,274.43ZM147.6,17.79c.11-1.35.21-3-1.51-3.49s-2.89.52-3.9,1.72a5.09,5.09,0,0,0-.83,1.52c-1.66,4.55-3.73,9-4.84,13.69-1.77,7.46-1.69,15.15-1.67,22.8,0,.31.26.61.46,1h5.41c1.5-5.38,3.18-10.42,4.28-15.59.91-4.28,1.14-8.7,1.65-13.07C147,23.54,147.38,20.67,147.6,17.79Zm-11.82,4.14a11.72,11.72,0,0,0-4.11-10.87c-1-.87-2-1.57-3.43-1a2.86,2.86,0,0,0-1.74,3.11c.23,4.6,0,9.32,3.65,13a10.06,10.06,0,0,1,1.3,2.43c.52,1,1.06,1.9,2,3.55C134.36,28.17,135.43,25.09,135.78,21.93Zm-3.43,25.17a30,30,0,0,0-4.21-17A6.16,6.16,0,0,0,121.72,27c-2,.38-2.84,1.32-2.83,3.31a13.55,13.55,0,0,0,.47,3.43c.8,3,1.68,6,2.6,8.92.37,1.18,1.06,2.26,1.39,3.44.72,2.56,1.14,5.21,2,7.73.76,2.31,1.74,2.84,3.5,2.57,2-.3,3-1.29,3.18-3.46C132.2,51,132.24,49.06,132.35,47.09Zm-14,238.52c.89-7.06-2.5-10.3-10.93-10.17C109.22,281.48,113.68,285.55,118.35,285.61ZM114,248.21c2.24-1.06,2.71-2.61,2.41-4.64-.76-5.22-4.2-8.3-8.38-10.91a7.4,7.4,0,0,0-5.33-.88c-1.2.17-2.41.27-3.62.36-.73.05-1.45.11-2.18.18-1.37.13-3-.14-4,.55a11.86,11.86,0,0,0-5.31,9.31c2.57-5.54,6.43-9,11.57-9.41a14.9,14.9,0,0,1,5,.53C111.06,235.16,113.91,240.87,114,248.21Zm-12.24-19.48c6.82-.38,11.85-6.87,7.79-14.3-.3,1.93-.5,3.36-.75,4.8-.81,4.7-3.47,7-8.28,7.17-5.19.17-10.18-.36-14.42-4,1.16,2.86,3,5.13,6,5.64A44,44,0,0,0,101.75,228.73Zm3.43-9.09a12,12,0,0,0-1.92-12.77c-2.06-2.47-4.73-4.43-7-6.71-6.06-6-20.23-3.92-24.64,4.38-1.8,3.38-3.76,6.68-5.41,10.13a43.86,43.86,0,0,0-4.21,26c.5,3.34,1.85,5,4.57,6.05,6.08,2.27,12.2,4.4,18.33,6.54a5,5,0,0,0,1.73-.15,26.94,26.94,0,0,0-1.47-2.72c-2.43-3.42-2.6-7.09-1.33-11,.18-.55.34-1.11.51-1.66A2.42,2.42,0,0,0,83,234.68,6,6,0,0,0,74,239a9.91,9.91,0,0,0,.11,2.15l3,.72,1.49-3.07c.87,1.06,1.81,1.72,2,2.55a5.15,5.15,0,0,1-.4,3.31,6,6,0,0,1-9.76,1.21,17.31,17.31,0,0,1-5-9.74,9.37,9.37,0,0,1,6.24-10.68,12.88,12.88,0,0,1,8.22-.2c3.34,1,5.88,2.72,6.65,6.37a12.89,12.89,0,0,0,.75,1.8l2.48-3.09C84,226.52,81.45,221,80,214.89c-.52-2.21-.19-3.2,1.71-4.41a10.71,10.71,0,0,1,10.63-.89,6.51,6.51,0,0,1,3.48,7.28c-.55,2.13-1.55,2.82-4.29,2.65a7.94,7.94,0,0,1,.39-1.91c.55-1.06,2.12-2,.92-3.29a8.23,8.23,0,0,0-3.24-1.83,5.65,5.65,0,0,0-2.75-.25c-.94.15-2.29.46-2.61,1.12a3.25,3.25,0,0,0,.6,2.79c3.86,4.74,8.62,7.65,15,7.24A5.47,5.47,0,0,0,105.19,219.64Zm-23,9.83c-4.1-2.87-10-2.52-13,.39a7,7,0,0,0,1.28,10.85C70,232.73,75.68,230.91,82.2,229.47Zm-22.76-8c1.21-5,3.37-9.82,5.25-15.09-7.69,6.71-12,24.21-7.55,31.32C57.91,231.95,58.21,226.59,59.44,221.46Zm-2-41.61a53.42,53.42,0,0,1,6.49-2.71c-6.77-3.55-11.79-.44-11.81,6.74A49,49,0,0,1,57.43,179.85ZM46.33,158.78a2.91,2.91,0,0,0-1.48-3.26c-2.15-1.05-4.4-1.92-6.86-3-.13,1.7-.23,3-.3,3.86-4.45,4.36-8.3,8.74-10,14.63a31.22,31.22,0,0,1-1.49,3.52c-2.76,6.38-5.73,12.7-6.35,19.77-.29,3.29-.34,6.57,2,9.25.77.89,2.1,2,3,1.87s1.58-1.71,2.3-2.69a3,3,0,0,0,.25-1c1.32-5,1.84-10.2,3.28-15.24,1.27-4.42,2-9,3.53-13.4.78-2.26,2.11-3.37,4.44-4.32a54.41,54.41,0,0,0-.72,6.72c0,2.19-1.35,4.43.1,7,1-1,2.18-1.57,2.63-2.51a54.36,54.36,0,0,0,4-9.59C45.58,166.66,45.81,162.68,46.33,158.78Z"/><path class="cls-1" d="M256.33,180.93c.37,3.18-.93,5.9-1.9,8.74-.15.45-.32.89-.48,1.34l-1.34-.52c-.4-2.12-1-4.23-1.18-6.38-.44-4.73-.69-9.48-1-14.22-.22-3.17-1.47-4.43-5-5-3.58-6.92-3.63-14.36-3-21.88.05-.62.42-1.62.82-1.72a2.51,2.51,0,0,1,2.15.5,30.47,30.47,0,0,1,4.41,6.2,107.62,107.62,0,0,1,4.37,11.71c1.5,4.62,2.59,9.33,2.07,14.3A31.94,31.94,0,0,0,256.33,180.93Z"/><path class="cls-2" d="M249.78,202.66c0,4.35.22,8.25-.12,12.09-.11,1.27-1.56,2.49-2.55,3.6-5.9,6.64-14.48,5.69-20.18-1a7.91,7.91,0,0,1-2.17-5.92c.12-1.94,0-3.9,0-6.41,4.77.92,8.44,3.63,13,3C242.11,207.37,245.7,205.14,249.78,202.66Z"/><path class="cls-3" d="M248.63,186.5a24.32,24.32,0,0,1,1,9.64,2.47,2.47,0,0,1-.84,1.48c-3.57,2.92-7,6.1-11.77,7-3.79.73-7-.87-10.32-2.28a3.28,3.28,0,0,1-1.52-2.51c0-4.13.26-8.26.44-12.55,4.48,1.06,8.24,2.13,12.07,2.82C241.72,190.85,245,188.44,248.63,186.5Z"/><path class="cls-4" d="M249.93,222.2c-.44,4.85-.65,9.2-2.92,13.18a8.7,8.7,0,0,1-10.59,4.14c-3.42-1.18-6.12-3-7.45-6.7a31.72,31.72,0,0,1-2.15-10.35C236.85,227.54,239.63,227.8,249.93,222.2Z"/><path class="cls-4" d="M248.43,178.31c.14,2.38-1.78,3.76-3.31,5a13.86,13.86,0,0,1-11.05,3.18,12,12,0,0,1-8.76-6.26c-1.17-2.06-.76-4.91.4-7.64,7.74,2.41,14.78.69,21.7-3.91C247.8,172.19,248.25,175.24,248.43,178.31Z"/><path class="cls-3" d="M238.53,128.06c1.15,7.52.36,15,0,22.55-.26,5-.34,10-.21,14.95.13,4.7-.28,5.2-5.36,4.24-.12-1-.3-2.13-.36-3.25-.25-5.09-.72-10.18-.64-15.27.13-8,.62-16,1-24a17.33,17.33,0,0,1,.34-1.71c.17-1.16.71-2.17,1.94-2a4.1,4.1,0,0,1,2.46,1.48A6.92,6.92,0,0,1,238.53,128.06Z"/><path class="cls-5" d="M230.23,123.27c0,1.12.06,1.91,0,2.68-.35,3.58-.79,7.16-1.08,10.75-.18,2.27-.91,4-3.26,4.8s-4.53,1.77-6.81,2.62c-5,1.86-10,3.65-15,5.53-10,3.78-20,7.25-30.84,8.08-9,.7-18,1.9-27,2.59a94.16,94.16,0,0,1-12.86-.11c-6.26-.38-12.55-.75-18.74-1.67-10.55-1.57-21-3.83-31.57-5.3-12.19-1.7-23.55-6.2-35.19-9.74-2.68-.82-5.06-2.77-7.42-4.43-1.94-1.36-1.67-3.57-1.06-5.43a76.25,76.25,0,0,1,3.18-7.2c6.88,2.73,13.26,5.52,19.82,7.8,8.65,3,17.46,5.56,26.73,6,2.43.12,4.86.46,7.28.77,7.49.93,14.94,2.27,22.46,2.74,8.21.52,16.48.39,24.71.28,5.68-.07,11.36-.89,17-.81,6.14.08,12-1.5,17.92-2.39,10-1.49,19.71-4.45,29.24-7.71,6.88-2.35,13.4-5.78,20.08-8.72C228.49,124.1,229.19,123.76,230.23,123.27Z"/><path class="cls-6" d="M230,116.17c.83,2.41.62,2.74-1.56,4.28a45.33,45.33,0,0,1-13.65,6.76c-1.77.51-3.38,1.55-5.12,2.16a211.43,211.43,0,0,1-30.52,8.37,200,200,0,0,1-33.57,3.18,319.54,319.54,0,0,1-32.69-1.1c-11.38-.9-22.63-2.63-33.81-4.6-7.37-1.3-14.52-4-21.66-6.38-4.59-1.55-9-3.73-13.85-5.81l1.22-4.39c1.2.66,2,1.23,3,1.61,9.19,3.78,18.19,8,28.27,9.16,6.79.78,13.48,2.54,20.27,3.3,6.1.69,12.28.6,18.42.89s12.5.73,18.76.89c4.51.12,9,0,13.53-.23,5.79-.33,11.57-.83,17.34-1.43,4.84-.51,9.64-1.45,14.48-1.87,7.72-.68,14.81-3.85,22.29-5.36,7.66-1.55,14.39-5.15,21.23-8.6,2.07-1,4.11-2.13,6.4-3.32A20.12,20.12,0,0,1,230,116.17Z"/><path class="cls-7" d="M228.63,154.18c.18,4.91.35,9.56.52,14.37a12.28,12.28,0,0,0-2.24-.61,3.7,3.7,0,0,0-4.28,3.56c-.28,11.59-2.53,23.09-1.76,34.72a95.18,95.18,0,0,0,3,19.57,31.52,31.52,0,0,1,1.5,8.15c0,3-1.84,5.39-3.79,7.63-5.39,6.21-12.48,9-20.36,10.29-7.44,1.22-14.87,2.4-22.13,4.58a56.14,56.14,0,0,1-10.64,1.67c-6.24.61-12.49,1.31-18.75,1.41-5.67.1-11.35-.5-17-.87-10.19-.66-20.38-1.31-30.55-2.13-3-.24-5.94-1-8.91-1.55a3.11,3.11,0,0,1-2.46-2.14c-2.91-6.92-.74-13.24,5.91-16.88,2.75-1.51,7.26-1.16,9.43,1.11a21.84,21.84,0,0,1,4.18,5.85,9.09,9.09,0,0,1,.24,5.06c-.48,2.69-2,3.58-4.47,3.18-2.64-.43-4.3-2.33-4-4.82a35.62,35.62,0,0,1,1.18-4.52,2.4,2.4,0,0,0-2.82,1.59,7.91,7.91,0,0,0,3.87,10.51c4.8,2,7.83,1.29,11.58-2.64,3.9-4.08,4.66-7.82,2.48-12.34-.4-.83-.84-1.64-1.48-2.88,1,.22,1.58.32,2.16.5a19.85,19.85,0,0,0,13.63-.69c7-2.76,9.69-8.69,7.14-15.77a14.33,14.33,0,0,0-6.31-7.65,10.44,10.44,0,0,0-13.09,1.76c-1.36,1.41-2.26,3.09-1.34,5,1.64,3.43,4.36,5.52,8.58,6.45a19.47,19.47,0,0,1-.8-3.67,22.73,22.73,0,0,1,.47-5.06,2.18,2.18,0,0,1,2.71-1.61c2.32.31,4.21,1.22,5.29,3.45,1.37,2.82,2.15,5.67.75,8.7a7.77,7.77,0,0,1-7,4.95c-2.55.12-5.12.1-7.67,0-3.17-.14-5.7-1.8-8.08-3.74a2.2,2.2,0,0,1-.64-2.79c2.88-8,.66-15.15-4.25-21.51-7-9-16.18-12.91-27.62-10.91-2.71.48-3.18.12-3.76-2.62a20.38,20.38,0,0,1-.26-2.07c-1.05-10.4-10.6-15.54-17.44-16.35a8,8,0,0,0-6.09,2.13c-4.66,3.81-6.15,11.57-3.23,16.87,2,3.58,5.25,5.13,9.14,5.56a4.38,4.38,0,0,0,4.39-2.29c1.19-2,2.21-4,3.35-6.16l-3.66-2.73c-.37,1.52-.6,2.74-1,3.92A4,4,0,0,1,59,192.83a3.15,3.15,0,0,1-3.89-3.32,6.64,6.64,0,0,1,.35-2.05c1.49-4.48,8-7.44,13.11-6,4.19,1.19,7.16,6.7,5.82,11.3a5.66,5.66,0,0,1-2.54,3.09c-7.43,3.94-12,10.32-16.16,17.36-2.68,4.57-4.76,9-3.52,14.44a10.48,10.48,0,0,1-.18,2.52c-.72-.58-1.27-.82-1.47-1.22-1.92-3.83-4-7.59-5.62-11.55-2.85-7-4.26-14.46-5.71-21.87-.44-2.27-1-4.53-1.23-6.82a3.54,3.54,0,0,1,1-2.69c4.94-4.05,7.12-9.68,8.67-15.51,1.09-4.12,1.41-8.44,2.11-12.93a8.72,8.72,0,0,1,2.14.23c3.83,1.33,7.61,2.81,11.45,4.11s7.9,2.69,11.94,3.73c4.48,1.16,9.11,1.76,13.59,2.95a133.51,133.51,0,0,0,29.53,4.51c4.52.16,9,0,13.56.11,3,.07,6,.32,9,.48,7.69.39,15.31-.37,22.95-1.23,8.78-1,17.63-1.63,26.09-4.26,9.86-3.06,19.88-5.67,29.32-10C222.23,156.88,225.22,155.65,228.63,154.18Z"/><path class="cls-6" d="M228.4,142.78a52.86,52.86,0,0,1-.08,6.29c-.09.72-1,1.5-1.71,2a97.52,97.52,0,0,1-33.85,13.18c-5.47,1.07-10.86,2.6-16.37,3.31-6.2.81-12.49.92-18.74,1.35-4.75.32-9.49.86-14.25.92-6.26.09-12.53-.1-18.79-.31-4.06-.13-8.11-.6-12.17-.75a111.25,111.25,0,0,1-22.66-3.49,14.91,14.91,0,0,0-2.37-.55c-9.47-.82-18.41-3.61-27.11-7.3-2.44-1-5.07-1.64-7.61-2.43a11.72,11.72,0,0,1-1.66-.47c-4.05-1.95-8.08-3.93-12.3-6v-6.35a7.89,7.89,0,0,1,1.57.4c8.26,4.38,17.25,6.9,26.07,9.71,12.61,4,25.44,7.2,38.73,8.32,9.13.77,18.2,2.25,27.34,3a80.82,80.82,0,0,0,13.17-.41c10.05-.82,20.1-1.78,30.14-2.79a59.74,59.74,0,0,0,9.24-1.54c6.51-1.71,13.06-3.37,19.38-5.65,6.85-2.48,13.47-5.62,20.17-8.5C225.67,144.21,226.76,143.6,228.4,142.78Z"/><path class="cls-1" d="M218.76,97.58c2.74,4.61,6.9,8.28,8.9,14-4.17,1.91-8.24,3.8-12.34,5.64-8.32,3.72-17.23,5.42-26,7.66-6.71,1.71-13.48,2.28-20.32,2.83-6,.5-12,1.64-18,2.06-6.59.47-13.21.62-19.82.6-7.08,0-14.16-.25-21.22-.64-5.09-.28-10.17-.9-15.24-1.51-7.26-.88-14.61-1.37-21.7-3-7.42-1.71-14.59-4.51-21.83-7-1.43-.49-2.61-1.71-4.05-2.69A44.52,44.52,0,0,1,54,105c2.91-3.46,6-6.77,8.95-10.2C69.14,87.57,77,82.4,84.72,77c6.54-4.53,14.21-6.2,21.26-9.43,6.78-3.11,14-4.91,21.24-6.55,4.56-1,9-2.06,13.7-1.82,3.12.16,6.23.51,9.31.95s6.38,1.4,9.6,1.64a55.4,55.4,0,0,1,20.3,5.82c4.48,2.2,9.22,4,13.39,6.65a82.42,82.42,0,0,1,11.26,9.25c4.16,3.86,8,8,12,12.05A11.71,11.71,0,0,1,218.76,97.58Z"/><path class="cls-6" d="M209.37,252c-.09.47-.07.77-.19.87-4.56,3.59-9.15,7.07-14.94,8.57A152.33,152.33,0,0,1,164,265.66c-10.42.55-20.87.88-31.3,1.36-9.46.44-18.75-1.18-28.08-2.25a130.49,130.49,0,0,1-14.41-2.43c-4.57-1.05-8.23-3.86-11.29-7.63,2.1.59,4.17,1.29,6.3,1.74,3.05.65,6.14,1.1,9.2,1.66s6.38,1.15,9.54,1.83c11.09,2.39,22.36,2.3,33.6,2.45q11,.15,21.93-.25c4.16-.15,8.3-.76,12.44-1.23s8.37-.64,12.38-1.66c7.86-2,15.59-4.51,23.36-6.81C208.2,252.29,208.73,252.16,209.37,252Z"/><path class="cls-1" d="M188,265.82a53,53,0,0,1-12.68,5.74,64.15,64.15,0,0,1-15.09,2.4c-6.72.25-13.43.82-20.14,1.06a50.36,50.36,0,0,1-6.91-.64c-1.73-.18-3.47-.37-5.19-.6-5-.65-10.09-1.3-15.13-2-2.07-.29-4.11-.71-6.18-1a19.35,19.35,0,0,1-9.36-4c5.29.57,10.61,1,15.87,1.75a133.55,133.55,0,0,0,20.14,1.14c7.18,0,14.36.49,21.53.25,5.89-.2,11.77-1,17.62-1.81C177.67,267.39,182.78,266.4,188,265.82Z"/><path class="cls-8" d="M173.91,275.26c1.79-.62,3.6-1.61,5.93-.82-2.5,4.76-4.33,9.65-7.76,13.67-.87,1-1.8,1.83-3.7,1.13a14.23,14.23,0,0,1,.41-3.18c1.09-3.06,2.31-6.08,3.58-9.07A3.23,3.23,0,0,1,173.91,275.26Z"/><path class="cls-9" d="M146.09,14.3c1.72.49,1.62,2.14,1.51,3.49-.22,2.88-.61,5.75-.95,8.62-.52,4.36-.75,8.79-1.65,13.07-1.1,5.16-2.77,10.21-4.28,15.59h-5.41c-.2-.43-.46-.74-.46-1,0-7.65-.1-15.34,1.67-22.8,1.11-4.68,3.18-9.14,4.84-13.69a5.09,5.09,0,0,1,.83-1.52C143.2,14.81,144.46,13.84,146.09,14.3Z"/><path class="cls-9" d="M131.67,11.05a11.72,11.72,0,0,1,4.11,10.87c-.35,3.16-1.42,6.25-2.36,10.18-.91-1.65-1.45-2.6-2-3.55a10.06,10.06,0,0,0-1.3-2.43c-3.64-3.68-3.42-8.41-3.65-13A2.86,2.86,0,0,1,128.24,10C129.63,9.48,130.63,10.19,131.67,11.05Z"/><path class="cls-9" d="M128.14,30.13a30,30,0,0,1,4.21,17c-.11,2-.15,3.94-.34,5.89-.22,2.17-1.2,3.16-3.18,3.46-1.77.27-2.74-.26-3.5-2.57-.83-2.52-1.26-5.17-2-7.73-.33-1.19-1-2.26-1.39-3.44-.92-3-1.8-5.93-2.6-8.92a13.55,13.55,0,0,1-.47-3.43c0-2,.87-2.93,2.83-3.31A6.16,6.16,0,0,1,128.14,30.13Z"/><path class="cls-8" d="M107.43,275.45c8.42-.14,11.82,3.11,10.93,10.17C113.68,285.55,109.22,281.48,107.43,275.45Z"/><path class="cls-6" d="M116.4,243.56c.3,2-.16,3.59-2.41,4.64-.09-7.33-2.94-13-9.91-14.91a14.9,14.9,0,0,0-5-.53l0-.64c1.21-.09,2.42-.18,3.62-.36a7.4,7.4,0,0,1,5.33.88C112.2,235.26,115.64,238.34,116.4,243.56Z"/><path class="cls-6" d="M109.54,214.42c4.07,7.43-1,13.92-7.79,14.3a44,44,0,0,1-9.7-.68c-3-.51-4.81-2.77-6-5.64,4.24,3.62,9.24,4.15,14.42,4,4.81-.16,7.48-2.47,8.28-7.17C109,217.79,109.24,216.35,109.54,214.42Z"/><path class="cls-7" d="M103.26,206.87a12,12,0,0,1,1.92,12.77,5.47,5.47,0,0,1-5.29,3.74c-6.43.4-11.18-2.51-15-7.24a3.25,3.25,0,0,1-.6-2.79c.32-.66,1.67-1,2.61-1.12a5.65,5.65,0,0,1,2.75.25,8.23,8.23,0,0,1,3.24,1.83c1.2,1.31-.37,2.23-.92,3.29a7.94,7.94,0,0,0-.39,1.91c2.74.17,3.74-.51,4.29-2.65a6.51,6.51,0,0,0-3.48-7.28,10.71,10.71,0,0,0-10.63.89c-1.9,1.2-2.23,2.2-1.71,4.41,1.44,6.15,4,11.63,9.72,15.48l-2.48,3.09a12.89,12.89,0,0,1-.75-1.8c-.77-3.65-3.3-5.38-6.65-6.37a12.88,12.88,0,0,0-8.22.2,9.37,9.37,0,0,0-6.24,10.68,17.31,17.31,0,0,0,5,9.74,6,6,0,0,0,9.76-1.21,5.15,5.15,0,0,0,.4-3.31c-.17-.82-1.12-1.49-2-2.55l-1.49,3.07-3-.72A9.91,9.91,0,0,1,74,239a6,6,0,0,1,9-4.37,2.42,2.42,0,0,1,1.35,3.15c-.17.55-.33,1.11-.51,1.66-1.27,3.86-1.1,7.53,1.33,11a26.94,26.94,0,0,1,1.47,2.72,5,5,0,0,1-1.73.15c-6.12-2.14-12.25-4.28-18.33-6.54-2.72-1-4.07-2.72-4.57-6.05a43.86,43.86,0,0,1,4.21-26c1.65-3.45,3.61-6.76,5.41-10.13,4.41-8.3,18.58-10.42,24.64-4.38C98.53,202.44,101.2,204.4,103.26,206.87Z"/><path class="cls-6" d="M99.08,232.13l0,.64c-5.14.38-9,3.87-11.57,9.41a11.86,11.86,0,0,1,5.31-9.31c1-.69,2.67-.42,4-.55C97.62,232.24,98.35,232.19,99.08,232.13Z"/><path class="cls-6" d="M69.19,229.86c3-2.91,8.91-3.26,13-.39-6.52,1.44-12.21,3.26-11.72,11.24A7,7,0,0,1,69.19,229.86Z"/><path class="cls-6" d="M64.69,206.38c-1.88,5.27-4,10.06-5.25,15.09s-1.53,10.49-2.3,16.23C52.69,230.59,57,213.09,64.69,206.38Z"/><path class="cls-6" d="M63.92,177.14a53.42,53.42,0,0,0-6.49,2.71,49,49,0,0,0-5.31,4C52.13,176.7,57.15,173.59,63.92,177.14Z"/><path class="cls-1" d="M44.85,155.52a2.91,2.91,0,0,1,1.48,3.26c-.53,3.9-.76,7.88-1.74,11.67a54.36,54.36,0,0,1-4,9.59c-.45.94-1.59,1.55-2.63,2.51-1.46-2.61-.07-4.85-.1-7a54.41,54.41,0,0,1,.72-6.72c-2.32.95-3.65,2.06-4.44,4.32-1.52,4.4-2.26,9-3.53,13.4-1.45,5-2,10.21-3.28,15.24a3,3,0,0,1-.25,1c-.72,1-1.41,2.56-2.3,2.69s-2.24-1-3-1.87c-2.3-2.68-2.25-6-2-9.25.62-7.07,3.59-13.39,6.35-19.77A31.22,31.22,0,0,0,27.65,171c1.74-5.88,5.59-10.27,10-14.63.07-.91.17-2.16.3-3.86C40.45,153.6,42.7,154.47,44.85,155.52Z"/></g></svg>