<svg id="圖層_1" data-name="圖層 1" xmlns="http://www.w3.org/2000/svg" viewBox="0 0 287.81 324.7"><defs><style>.cls-1,.cls-2{fill:#fff;}.cls-1{fill-rule:evenodd;}.cls-3{fill:#f3e7b8;}.cls-4{fill:#bf5145;}.cls-5{fill:#ddae1d;}</style></defs><title>chks</title><path class="cls-1" d="M177.72,221.84l4.51,10c-5.08,2.24-9.81,4.47-15.53,5l-2-12Z"/><path class="cls-1" d="M120,241.53l-.55-9.88,14.8-1.12,1.4,11C130.38,241.82,125.47,241.65,120,241.53Z"/><path class="cls-1" d="M201.31,223.95,195,214.5,206.2,208c3,2.28,5.68,4.47,5.94,8.87Z"/><path class="cls-1" d="M115.34,232.25l.57,9a35.05,35.05,0,0,1-12.38.07,2.48,2.48,0,0,1-2.32-3.21c.38-2,.86-4.07,1.33-6.23C106.85,231.57,110.81,229.93,115.34,232.25Z"/><path class="cls-1" d="M191.65,215.65l6.24,10.11-11.83,5.07c-1.33-2.59-2.64-5.07-3.88-7.58-.79-1.58.11-2.71,1.34-3.41C186,218.43,188.59,217.21,191.65,215.65Z"/><path class="cls-1" d="M153.16,239.38l-2.61-10.9c3.31-2.25,6.55-2.55,10.51-2.48l1.79,11.56Z"/><path class="cls-1" d="M73.51,224.67l-5,7.23-12.14-5.11c.08-.58,0-.77.13-.87,6.43-8.44,5.28-7.42,13.28-3.36C70.88,223.11,71.9,223.75,73.51,224.67Z"/><path class="cls-1" d="M210.14,205.59l9-7.8,5.94,7.06-8.95,8.31Z"/><path class="cls-1" d="M49.56,206.56l-7.16,6c-3.84-1.61-5.23-4.53-5.51-8-.34-4.12,3.58-4.65,6.14-6.91Z"/><path class="cls-1" d="M149.32,239.35l-9.76,1.26L138,230l7.25-1.6C148,231.59,148.75,235,149.32,239.35Z"/><path class="cls-1" d="M45,215.93l5.64-6.1,7.66,8.56L52,224.46Z"/><path class="cls-1" d="M97.46,240.51l-11.5-3,3.35-7.9,8.68,1.1Z"/><path class="cls-1" d="M77.28,226.35l7.86,1.76-3,8.93-9.89-3.82Z"/><path class="cls-1" d="M142.4,247.45l8.54-1.39c.17,5,.21,9.64-.06,14.52C148.25,258.73,144.91,253.54,142.4,247.45Z"/><path d="M285.43,142.81A20.84,20.84,0,0,1,279,158.87a14.15,14.15,0,0,1-8.64,3.77c-2.92.35-4.53-1.09-4.92-4-.23-1.66-.55-3.31-.63-5-.13-2.62-1.5-3.84-4.59-4-.43,1.38-.9,2.92-1.39,4.45-4.52,14.3-9.92,28.24-19,40.3a126.37,126.37,0,0,1-14.57,16.33A163.5,163.5,0,0,1,195,232.82a97.65,97.65,0,0,1-38.43,12.72c-.35,4-.63,8.09-1.06,12.13-.37,3.47-.89,6.94-1.41,10.4a5,5,0,0,1-.87,2.56,6.59,6.59,0,0,1-3.19,2.08c-1.62.29-2.18-1.21-2.66-2.58-1.61-4.58-3.17-9.17-5-13.68a27.62,27.62,0,0,0-3.08-5.06A11.64,11.64,0,0,0,128.36,246c-5.63.3-11.28.24-16.92.46A68.87,68.87,0,0,1,85,242.16c-8.31-3-16.65-5.91-25.06-8.61a27.14,27.14,0,0,1-12-7.28c-4.14-4.47-8.17-9.06-12-13.8a34.29,34.29,0,0,1-6.45-14,31.52,31.52,0,0,0-2.94-8.1,43.91,43.91,0,0,1-5.38-21.95c0-3.49,0-7,0-10.51a5.29,5.29,0,0,0-6.75,1.44c-.91,1-1.66,2.19-2.58,3.2a16.57,16.57,0,0,1-3,2.81,7.29,7.29,0,0,1-7,.88c-2.45-1.07-2.51-3.72-2.6-6a12.24,12.24,0,0,1,3-8.41C7.22,146,12.62,141,21,140.38c.27-3.05.73-5.76.69-8.47a42.19,42.19,0,0,1,3.32-17.4c4.31-9.91,8.92-19.7,13.73-29.38,1.53-3.08,4-5.72,6.24-8.42,2-2.47,4.47-4.61,6.44-7.12,5.08-6.48,11.94-10.83,18.31-15.77a14,14,0,0,1,2.37-1.37c9.54-4.76,19.13-9.41,28.6-14.31A39.52,39.52,0,0,1,116,33.85a73.2,73.2,0,0,0,8.18-.9c13.38-2.62,26.73-.66,40.09.17a13.48,13.48,0,0,1,3.1.69c6,1.84,11.94,3.58,17.83,5.6,8.63,3,17.42,5.62,25.73,9.34A64.9,64.9,0,0,1,241,75.3a41.93,41.93,0,0,0,2.8,4.17c7.19,9.42,10.65,20.46,13.65,31.65,1,3.78,1,7.84,1.45,11.77.27,2.26.63,4.5,1,7.35,5.23.57,10.05,1.2,14.9,1.6C282.12,132.45,285.2,135.47,285.43,142.81Zm-9.75,14.57c4.9-3.38,7.37-12.66,5.2-18.18a5,5,0,0,0-4.38-3.47c-5.09-.59-10.18-1.14-15.87-1.78v11.28c8.31,2.74,8.31,2.74,9.72,13.59C272.36,158.32,274.33,158.31,275.68,157.39ZM253.53,147a20.93,20.93,0,0,0,1.57-11.58h-6.8c-.15,3.53-.3,6.8-.45,10.36Zm1.74-15.76c-.4-3.17-.68-5.35-1-7.85L247,124.69l1.33,5.37Zm-1.08-11.63-2.59-13.75-8.74,3.35L246.23,120Zm-3.39,41.79,2.74-10.48-7.8-1.33-2.61,8.11Zm0-59.79c-1.15-2.59-2.35-5.28-3.75-8.43l-7.89,5.71,2.85,5.46C246.43,104.12,247.77,103.72,250.84,101.57Zm-6.11,74L249.4,165l-8.28-2.71L237.24,172Zm-3.24-24.28a38.78,38.78,0,0,0,2-23.75c-1.32-5.79-3-11.51-4.16-17.32a30.17,30.17,0,0,0-7.28-14c-4.24-4.8-8.86-9.29-12.75-14.35a46.27,46.27,0,0,0-19.55-14.58c-9.15-3.77-18.28-7.63-27.58-11A52.59,52.59,0,0,0,158.47,53a249.43,249.43,0,0,0-25.58-.73C112.4,52.81,94.12,60,78,72.37a106,106,0,0,0-35.23,46.38c-5.28,13.56-8.41,27.36-8.09,41.87A37.68,37.68,0,0,0,36.28,171c2.23,7.08,4.76,14.08,7.49,21A45.82,45.82,0,0,0,62.1,214.09a79.29,79.29,0,0,0,32.8,12c3,.37,6,.72,9.57,1.15l-1-4.87c-1.47,0-2.53-.08-3.58,0a46.63,46.63,0,0,1-18.07-1.95c-4.19-1.29-8.54-2.66-12.19-5A63.34,63.34,0,0,1,55.52,204c-6.08-7-11.92-13.89-12.82-23.62a18.51,18.51,0,0,0-1.18-3.44c-3.39-11.12-4.89-22.36-1.66-33.76a170.15,170.15,0,0,1,14.67-35.89,77,77,0,0,1,18.8-22.81c1.65-1.35,3.34-2.67,4.9-4.12A44.78,44.78,0,0,1,97.79,69.93c9-2.35,18-4.76,26.84-7.49,20.72-6.38,40.7-3.66,60.09,4.92,11.19,4.95,21.22,11.9,31,19.24,15.68,11.73,21.68,27.69,21.14,46.62-.09,3.31-1.14,6.59-1.81,9.87-3,14.78-7.84,28.81-17.18,41a120.76,120.76,0,0,1-18.63,19.46c-1.6,1.32-3,2.89-4.48,4.34l.67,1.08c3.09-.12,5.62-1.63,8-3.61,1.27-1.08,2.43-2.49,3.9-3.09,3.85-1.57,6.52-4.43,9.08-7.46,3.35-4,6.71-7.91,10-11.91a50.61,50.61,0,0,0,9-15.79C237.25,161.71,239.37,156.48,241.5,151.26Zm-4.15-56,9-5.4-8-11.33-8.1,8.79ZM239.78,186c3.66-6,3.26-7.06-4.13-10l-6.27,9.43c1.39.93,2.48,1.72,3.63,2.41s2.57,1.42,4,2.21C238.09,188.47,239,187.26,239.78,186Zm-3-110.16L230.38,67l-6.24,5.38c-4.12,3.57-4.24,5.37-.43,9.23a30.34,30.34,0,0,0,3.57,2.7Zm-10.26,82.62c5.2-9,6.81-19,6.58-29.05-.26-11.13-4-21.5-10.15-30.88a17,17,0,0,0-3.39-3.67c-9-7.51-18.37-14.57-28.66-20.27-7.44-4.13-14.73-8.71-23.4-10a69.19,69.19,0,0,0-9-1c-7.9-.1-16-1-23.67.33-11.65,2.07-23,5.71-34.49,8.82C81.76,77.84,68.23,89.3,59.22,106c-4.62,8.58-8.48,17.56-12.75,26.33C40.56,144.49,41,157.16,43.2,170c.3,1.76.69,3.85,2.73,4.81,2.05-2.11.92-4.16.26-6.12-3.11-9.28-3.41-18.63.12-27.78,3.13-8.08,6.74-16,10.32-23.89A44.1,44.1,0,0,1,61,109.51C73.37,92.36,88.65,79.09,109.37,73c2.34-.68,4.59-1.65,6.93-2.32,20.59-5.93,41.24-8.27,61.87-.3a58.64,58.64,0,0,1,10.44,5.5c6.51,4.2,12.8,8.76,19.25,13,9.79,6.5,16.78,14.92,18.94,26.8a93.93,93.93,0,0,0,2.45,11.13,17.66,17.66,0,0,1,0,10.35,160.22,160.22,0,0,1-6.78,19.83c-2.88,6.53-6.63,12.68-10.18,18.9-3.84,6.74-8.28,13-14.28,18.09a32.15,32.15,0,0,0-3.69,4c-.24.29-.17.83-.27,1.42L197,201c5.78-3.9,9.58-9.08,13.38-14.23,4.61-6.22,9.83-12.05,12.64-19.45C224.2,164.37,225,161.17,226.54,158.44Zm1.88,42.47,6.19-7.17-8.37-4.87-4.31,6ZM222.55,69.49c1.72-1.41,3.29-3,5.25-4.82l-11.34-8.58L211.1,68.47C216.39,73.43,217.61,73.53,222.55,69.49Zm2.12,57.42c0-2.57-.63-5.14-.68-7.72-.17-9.19-4.27-16.44-11.21-22-6-4.88-12.43-9.31-18.68-13.92a69.88,69.88,0,0,0-42.73-13.78c-14.81,0-28.94,3.51-43,7.93A75.64,75.64,0,0,0,80.33,93.13c-8.94,8-16.77,16.89-22,27.75-2.84,5.89-5.34,11.95-7.86,18a39.71,39.71,0,0,0-3,21c.42,3.05,1.21,6,3.32,8.37,2.31,2.59,3.5,2.9,6.72,1.28,7.75-3.9,15.49-7.84,23.16-11.9,5.52-2.93,10.89-6.13,16.39-9.09,3.2-1.72,6-1.29,8.4,1s1.94,4.93.87,7.62a12,12,0,0,1-6,6.63q-3.08,1.51-6.2,2.93c-10.53,4.8-21.09,9.57-31.59,14.42-2.69,1.24-5.25,2.79-7.93,4.23,3.17,6.74,7.78,11.71,12.55,16.29,3.21,3.08,7.69,4.85,11.64,7.15a20.4,20.4,0,0,0,9.52,2.78c6.05.29,12.08,1,18.64,1.61,0,2.3-.12,4.25,0,6.19a31,31,0,0,0,.91,5.37,3,3,0,0,0,3.32,2.51c6.25-.21,12.6.33,18.72-.64,15.79-2.5,31.49-5.56,47.19-8.58a33.94,33.94,0,0,0,14.37-7c-1.19-1.41-2.14-2.59-3.14-3.72-4.5-5-4.37-5,.34-9.79,3.28-3.33,5.89-7.34,9.22-10.62a50,50,0,0,0,8.95-11.49c3.54-6.4,7.37-12.66,10.46-19.27a110.14,110.14,0,0,0,6.38-17.55C224.74,134.92,224.6,130.83,224.67,126.9Zm.46,77.94-5.95-7.06-9,7.8,6,7.57Zm-13,12.07c-.26-4.4-2.91-6.59-5.94-8.87L195,214.49l6.27,9.45Zm0-161.09c-3-2.42-5.61-5.75-10.44-6.14-1.15,3.8-2.27,7.49-3.33,11C205.05,66.38,210.69,65.34,212.16,55.82Zm-18.61,5.11,5.87-13.32-14.28-4.26c-.73,4.86-1.37,9.14-2,13.6Zm4.34,164.83-6.24-10.11c-3.06,1.56-5.65,2.78-8.13,4.2-1.23.7-2.13,1.82-1.34,3.41,1.25,2.51,2.55,5,3.89,7.58Zm-18.68-172a13.15,13.15,0,0,0,1.58-8.6,4.09,4.09,0,0,0-1.85-2.78c-2.75-1.11-5.68-1.8-8.62-2.68C169,49.84,170,51.47,178.12,54,178.36,54.07,178.68,53.88,179.21,53.77Zm3,178.08-4.51-10-13,3,2,12C172.42,236.32,177.15,234.09,182.23,231.85ZM166.77,48.55c-.28-1.74-.48-3.23-.77-4.7-1.27-6.48-2.42-7.38-9-7a41.09,41.09,0,0,0-4.19.68,42.77,42.77,0,0,0,.08,6.11c.16,1.06.92,2.55,1.78,2.89C158.39,48,162.26,49.29,166.77,48.55Zm-3.91,189L161.06,226c-4-.07-7.2.23-10.51,2.48l2.61,10.9Zm-12,23c.27-4.88.23-9.55.06-14.52l-8.54,1.39C144.91,253.54,148.25,258.72,150.88,260.57Zm-1.56-21.23c-.57-4.3-1.3-7.76-4.1-10.94L138,230c.57,3.81,1.06,7.05,1.59,10.6ZM137,47.29h10.4c-.28-3.92.54-7.57-.91-11.12-3.78-.45-7.37-1.12-11.47.72C135.76,40.63,136.4,44,137,47.29Zm-1.37,194.19c-.5-3.9-.92-7.17-1.4-11l-14.8,1.12c.19,3.36.35,6.33.55,9.88C125.48,241.64,130.38,241.82,135.65,241.48ZM129.89,48.76c2.62-.64,3.28-1.46,2.71-4.19-.53-2.51-1.41-5-2.11-7.35a21.71,21.71,0,0,0-6.34-.6A2.79,2.79,0,0,1,124,36a1.06,1.06,0,0,0-.32-.7h0c-.31-1.35-2.39-.78-2.07.57.07.3.15.59.24.88a33.45,33.45,0,0,0-6.2,1.24c.09.57.17,1.17.27,1.75,1.54,8.62,3.05,10.88,9.45,9.93a14.35,14.35,0,0,0,.86,2c.65,1.22,2.51.14,1.85-1.08l-.13-.24a1,1,0,0,0,0-.64l-.13-.48C128.51,49.09,129.18,48.93,129.89,48.76Zm-14,192.45c-.2-3.23-.38-6.05-.57-9-4.53-2.33-8.49-.69-12.8-.42-.47,2.16-.95,4.19-1.33,6.23a2.47,2.47,0,0,0,2.31,3.21A35.1,35.1,0,0,0,115.91,241.21Zm-1.3-190.63-3.5-11.35c-4.05.47-7.5,1.22-11,3.68l6,10.18ZM101.5,156.92c.7-1,.77-2.36,1.14-3.6-4.95-1.51-8.69.26-12.31,2.25-2.4,1.32-4.59,3-6.9,4.48a181.23,181.23,0,0,1-30.54,15.46c-2.24.9-4.69,1.59-5.19,4.86,3.09,1.33,5.74.29,8.31-.48,14.39-4.29,27.3-12,40.91-18.08C98.81,161,100.18,158.73,101.5,156.92Zm.77,60c-2.21-.36-3.8-.65-5.4-.86-4.07-.54-8.13-1.32-12.22-1.49-6.52-.28-11.4-3.89-16.3-7.45-6.87-5-12.53-11.06-16.09-18.92-.51-1.12-.8-2.73-2.65-2.61-1.42,5,4.85,14.13,15,22.21C77.06,217.66,94.2,221.25,102.27,216.9Zm-.42-162.06L96.41,43.94l-5.8,4.66,4.66,9ZM97.46,240.51c.2-3.68.36-6.63.54-9.77l-8.68-1.09L86,237.54ZM91.38,59.18,86.48,50,75.31,56.05l6.52,9ZM82.13,237l3-8.93-7.86-1.76-5,6.87ZM72.74,71.71l6.89-4.94c-2.65-2.48-4.83-4.36-6.81-6.43-1.44-1.49-2.93-1.4-4.5-.58-1.9,1-3.7,2.13-3.8,5Zm.77,153c-1.6-.92-2.63-1.56-3.7-2.11-8-4.06-6.85-5.08-13.28,3.36-.08.11,0,.3-.12.87l12.14,5.11ZM69.9,74.05,59.79,66,51,75.42l9.37,8.42ZM52,224.45l6.3-6.07-7.66-8.55L45,215.93Zm5.71-138L48,78.23c-2,3-3.72,5.56-5.39,8.09-1.21,1.84-1,3.45.87,4.73,2.1,1.47,4.22,2.91,6.62,4.57Zm-8.16,120.1L43,197.64c-2.55,2.26-6.47,2.78-6.13,6.91.28,3.45,1.68,6.37,5.51,8ZM44.95,104.4l3.13-5.15L39.65,93c-3.42,5.18-3.36,5.65,1,8.66C42,102.55,43.39,103.4,44.95,104.4Zm-4.53,10.87,3.16-7.79L34.3,102.2l-2.82,7.45ZM40,195.55c-.63-1.93-1.14-3.66-1.74-5.36s-1.27-3.32-2-5.2L30.5,188.3,35.58,199Zm-3.75-70.3L39,118.53c-1.19-.88-2.14-1.62-3.14-2.3a12.05,12.05,0,0,0-2-1.1c-3.65-1.58-4.75-1.08-5.88,2.69-.46,1.55-.82,3.13-1.3,5Zm-8.35,59.11,8.13-2.43L33.12,174l-7.83,1.19Zm5.29-49.25,2.58-6.45-9.28-1.57L25.47,134Zm-2,9.68c2-1.82.72-4.1.28-6.31H25.66v6C27.61,145.58,29.64,146.24,31.26,144.79Zm.37,25.63-1.17-8.76L25,163.16c0,1.67,0,3.16,0,4.64,0,1,.2,2.05.35,3.51Zm-7-11.75c6.95.43,7.88-3.07,5.92-9.59l-4.75.3C25.36,152.76,25,155.7,24.62,158.68Zm-3.1-5.73a52.35,52.35,0,0,0-.41-6.2c-.41-2.18-1.71-2.88-3.65-1.81C12.26,147.8,7.41,151.18,4,156.24c-1.45,2.19-1.73,4.47.81,7C10.45,159.65,14.16,153.55,21.52,152.95Z"/><path class="cls-2" d="M280.87,139.21c2.18,5.52-.3,14.8-5.2,18.18-1.34.93-3.32.93-5.33,1.45-1.42-10.85-1.42-10.85-9.72-13.59V134c5.69.63,10.79,1.19,15.87,1.78A5,5,0,0,1,280.87,139.21Z"/><path class="cls-3" d="M255.1,135.38A20.93,20.93,0,0,1,253.53,147l-5.68-1.22c.15-3.56.3-6.83.45-10.36Z"/><path class="cls-4" d="M254.28,123.35c.31,2.5.59,4.68,1,7.85l-7-1.15L247,124.69Z"/><path class="cls-3" d="M251.61,105.82l2.59,13.75-8,.39-3.36-10.79Z"/><path class="cls-4" d="M253.55,150.88l-2.74,10.48-7.67-3.69,2.61-8.11Z"/><path class="cls-4" d="M247.1,93.14c1.39,3.15,2.6,5.84,3.75,8.43-3.08,2.15-4.41,2.55-8.79,2.74l-2.85-5.46Z"/><path class="cls-3" d="M249.4,165l-4.67,10.58-7.5-3.54,3.89-9.76Z"/><path class="cls-3" d="M243.52,127.51a38.78,38.78,0,0,1-2,23.75c-2.12,5.22-4.24,10.45-6.08,15.77a50.61,50.61,0,0,1-9,15.79c-3.29,4-6.66,7.95-10,11.91-2.57,3-5.23,5.89-9.08,7.46-1.48.6-2.63,2-3.9,3.09-2.35,2-4.87,3.49-8,3.61l-.67-1.08c1.49-1.45,2.88-3,4.48-4.34A120.76,120.76,0,0,0,217.9,184c9.34-12.14,14.15-26.18,17.18-41,.67-3.28,1.72-6.56,1.81-9.87.54-18.93-5.47-34.89-21.14-46.62-9.8-7.33-19.83-14.29-31-19.24-19.39-8.58-39.37-11.3-60.09-4.92-8.88,2.73-17.85,5.14-26.84,7.49A44.78,44.78,0,0,0,78.22,80.32c-1.57,1.45-3.25,2.77-4.9,4.12a77,77,0,0,0-18.8,22.81,170.15,170.15,0,0,0-14.67,35.89c-3.23,11.4-1.73,22.65,1.66,33.76a18.51,18.51,0,0,1,1.18,3.44c.9,9.73,6.74,16.67,12.82,23.62a63.34,63.34,0,0,0,14.09,11.48c3.65,2.32,8,3.69,12.19,5a46.63,46.63,0,0,0,18.07,1.95c1-.09,2.11,0,3.58,0l1,4.87c-3.61-.43-6.59-.78-9.57-1.15a79.29,79.29,0,0,1-32.8-12,45.82,45.82,0,0,1-18.33-22.15C41,185,38.51,178,36.28,171a37.68,37.68,0,0,1-1.61-10.33c-.32-14.52,2.81-28.32,8.09-41.87A106,106,0,0,1,78,72.37C94.12,60,112.4,52.81,132.89,52.31a249.43,249.43,0,0,1,25.58.73,52.59,52.59,0,0,1,13.73,3.17c9.29,3.4,18.42,7.25,27.58,11a46.27,46.27,0,0,1,19.55,14.58c3.9,5.06,8.52,9.55,12.75,14.35a30.17,30.17,0,0,1,7.28,14C240.57,116,242.21,121.72,243.52,127.51Z"/><path class="cls-3" d="M246.37,89.9l-9,5.4-7.07-7.94,8.1-8.79Z"/><path class="cls-4" d="M235.65,176c7.39,2.95,7.78,4,4.13,10-.78,1.28-1.69,2.48-2.75,4-1.45-.79-2.76-1.45-4-2.21s-2.24-1.48-3.63-2.41Z"/><path class="cls-4" d="M230.38,67l6.42,8.81-9.52,8.5a30.34,30.34,0,0,1-3.57-2.7c-3.81-3.86-3.69-5.65.43-9.23Z"/><path class="cls-4" d="M233.12,129.39c.23,10.06-1.38,20-6.58,29.05-1.57,2.73-2.34,5.93-3.48,8.91-2.81,7.4-8,13.22-12.64,19.45-3.81,5.15-7.6,10.33-13.38,14.23l-2.94-1.49c.1-.6,0-1.14.27-1.42a32.15,32.15,0,0,1,3.69-4c6-5.07,10.44-11.35,14.28-18.09,3.54-6.22,7.3-12.37,10.18-18.9a160.22,160.22,0,0,0,6.78-19.83,17.66,17.66,0,0,0,0-10.35,93.93,93.93,0,0,1-2.45-11.13c-2.17-11.89-9.15-20.3-18.94-26.8-6.46-4.29-12.74-8.84-19.25-13a58.64,58.64,0,0,0-10.44-5.5c-20.63-8-41.28-5.64-61.87.3-2.34.67-4.59,1.64-6.93,2.32-20.72,6.06-36,19.33-48.32,36.47A44.1,44.1,0,0,0,56.63,117c-3.57,7.9-7.19,15.8-10.32,23.89-3.53,9.15-3.23,18.5-.12,27.78.66,2,1.79,4-.26,6.12-2-1-2.43-3.05-2.73-4.81-2.2-12.79-2.64-25.46,3.26-37.58,4.27-8.77,8.13-17.75,12.75-26.33,9-16.74,22.54-28.21,41.09-33.26C111.77,69.66,123.15,66,134.8,64c7.67-1.36,15.77-.43,23.67-.33a69.19,69.19,0,0,1,9,1c8.67,1.27,16,5.85,23.4,10,10.29,5.7,19.64,12.76,28.66,20.27A17,17,0,0,1,223,98.51C229.1,107.89,232.86,118.26,233.12,129.39Z"/><path class="cls-3" d="M234.61,193.74l-6.19,7.17-6.49-6,4.31-6Z"/><path class="cls-3" d="M227.8,64.67c-2,1.81-3.53,3.41-5.25,4.82-4.93,4-6.15,3.94-11.45-1l5.36-12.39Z"/><path class="cls-2" d="M224,119.19c.05,2.58.73,5.15.68,7.72-.07,3.93.07,8-.95,11.74a110.14,110.14,0,0,1-6.38,17.55c-3.09,6.61-6.92,12.87-10.46,19.27A50,50,0,0,1,197.93,187c-3.33,3.28-5.94,7.28-9.22,10.62-4.71,4.78-4.85,4.75-.34,9.79,1,1.13,2,2.31,3.14,3.72a33.94,33.94,0,0,1-14.37,7c-15.7,3-31.4,6.08-47.19,8.58-6.12,1-12.48.43-18.72.64a3,3,0,0,1-3.32-2.51,31,31,0,0,1-.91-5.37c-.15-1.93,0-3.89,0-6.19-6.55-.59-12.58-1.32-18.64-1.61a20.4,20.4,0,0,1-9.52-2.78c-3.95-2.3-8.43-4.07-11.64-7.15-4.77-4.58-9.38-9.55-12.55-16.29,2.68-1.44,5.24-3,7.93-4.23,10.51-4.86,21.06-9.62,31.59-14.42q3.12-1.42,6.2-2.93a12,12,0,0,0,6-6.63c1.07-2.69,1.47-5.34-.87-7.62s-5.2-2.74-8.4-1c-5.5,3-10.87,6.16-16.39,9.09-7.67,4.06-15.41,8-23.16,11.9-3.22,1.62-4.41,1.31-6.72-1.28-2.12-2.38-2.91-5.32-3.32-8.37a39.71,39.71,0,0,1,3-21c2.52-6,5-12.09,7.86-18,5.26-10.87,13.1-19.76,22-27.75a75.64,75.64,0,0,1,28.08-15.76c14-4.42,28.15-7.92,43-7.93A69.88,69.88,0,0,1,194.1,83.22c6.25,4.61,12.64,9,18.68,13.92C219.72,102.75,223.82,110,224,119.19Zm-50.13,34.37c4.26.13,8.12-3,8.06-6.46-.07-3.66-3.14-7-6.41-7.08a7.74,7.74,0,0,0-8,7.17A6.24,6.24,0,0,0,173.86,153.56Z"/><path class="cls-4" d="M219.18,197.79l5.95,7.06-8.95,8.31-6-7.57Z"/><path class="cls-3" d="M206.2,208c3,2.27,5.68,4.47,5.94,8.87l-10.82,7L195,214.49Z"/><path class="cls-4" d="M201.71,49.68c4.83.39,7.4,3.72,10.44,6.14-1.47,9.52-7.1,10.56-13.78,4.88C199.45,57.17,200.57,53.48,201.71,49.68Z"/><path class="cls-3" d="M199.42,47.6l-5.87,13.32-10.46-4c.67-4.46,1.32-8.73,2-13.6Z"/><path class="cls-4" d="M191.65,215.64l6.24,10.11-11.83,5.07c-1.33-2.59-2.64-5.07-3.89-7.58-.79-1.58.12-2.71,1.34-3.41C186,218.43,188.59,217.2,191.65,215.64Z"/><path d="M181.92,147.1c.06,3.5-3.8,6.59-8.06,6.46a6.24,6.24,0,0,1-6.37-6.37,7.74,7.74,0,0,1,8-7.17C178.78,140.06,181.85,143.45,181.92,147.1ZM177,148.32c-.32-1.75-.63-3.63-2.92-3.76-.64,0-1.89.91-1.91,1.45a4.52,4.52,0,0,0,1,3.15C174.5,150.5,175.86,149.74,177,148.32Z"/><path class="cls-4" d="M180.79,45.18a13.15,13.15,0,0,1-1.58,8.6c-.53.11-.85.29-1.09.21-8.15-2.52-9.09-4.14-7.8-14.27,2.95.88,5.87,1.57,8.62,2.68A4.09,4.09,0,0,1,180.79,45.18Z"/><path class="cls-3" d="M177.72,221.84l4.51,10c-5.08,2.24-9.81,4.47-15.53,5l-2-12Z"/><path class="cls-5" d="M174.08,144.55c2.28.13,2.6,2,2.92,3.76-1.14,1.43-2.5,2.18-3.84.84a4.52,4.52,0,0,1-1-3.15C172.19,145.47,173.44,144.52,174.08,144.55Z"/><path class="cls-3" d="M166,43.85c.29,1.47.48,3,.77,4.7-4.5.74-8.37-.56-12.13-2-.87-.34-1.63-1.83-1.78-2.89a42.77,42.77,0,0,1-.08-6.11,41.09,41.09,0,0,1,4.19-.68C163.58,36.46,164.73,37.37,166,43.85Z"/><path class="cls-4" d="M161.06,226l1.79,11.56-9.7,1.81-2.61-10.9C153.86,226.24,157.1,225.93,161.06,226Z"/><path class="cls-5" d="M150.95,246.05c.17,5,.21,9.64-.06,14.52-2.63-1.85-6-7-8.48-13.13Z"/><path class="cls-3" d="M145.23,228.41c2.8,3.17,3.52,6.64,4.1,10.94l-9.76,1.26c-.53-3.54-1-6.78-1.59-10.6Z"/><path class="cls-4" d="M147.42,47.29H137c-.62-3.27-1.26-6.66-2-10.4,4.11-1.84,7.7-1.17,11.47-.72C148,39.72,147.14,43.37,147.42,47.29Z"/><path class="cls-4" d="M134.25,230.52c.48,3.79.91,7.06,1.4,11-5.27.34-10.17.17-15.65,0-.2-3.55-.36-6.52-.55-9.88Z"/><path class="cls-3" d="M132.6,44.57c.57,2.73-.09,3.55-2.71,4.19-.71.18-1.38.33-2,.47-.6-2.25-1-4.55-1.59-6.82A24.12,24.12,0,0,0,125,38.85c-.15-.79-.61-1.47-.83-2.24a21.71,21.71,0,0,1,6.34.6C131.19,39.62,132.07,42.05,132.6,44.57Z"/><path d="M128.11,50.59c.66,1.22-1.2,2.3-1.85,1.08a14.35,14.35,0,0,1-.86-2l.17,0c.15.29.31.58.48.86a1.09,1.09,0,0,0,1.93-.18Z"/><path d="M128,49.71a1,1,0,0,1,0,.64c-.17-.33-.32-.69-.46-1l.35-.07Z"/><path d="M127.87,49.23l-.35.07c-.63-1.61-1-3.43-1.49-5-.71-2.34-1.33-4.7-1.89-7.08a1,1,0,0,0-.33-.56l.33,0c.22.77.68,1.45.83,2.24a24.12,24.12,0,0,1,1.31,3.56C126.86,44.68,127.28,47,127.87,49.23Z"/><path d="M127.52,49.3c.14.36.29.71.46,1a1.09,1.09,0,0,1-1.93.18c-.17-.28-.33-.57-.48-.86C126.17,49.58,126.82,49.45,127.52,49.3Z"/><path d="M126,44.28c.48,1.6.86,3.41,1.49,5-.7.15-1.35.27-2,.37-.22-.42-.42-.85-.6-1.27-.36-1.19-.66-2.41-1-3.55q-.25-.84-.49-1.69l0-.17c-.15-.94-.18-2-.38-3-.36-.87-.72-1.75-1-2.64a1,1,0,0,1,.33-.6c.48,0,1-.07,1.42-.09a1,1,0,0,1,.33.56C124.7,39.57,125.33,41.94,126,44.28Z"/><path d="M125.57,49.67l-.17,0c-.16-.42-.3-.86-.43-1.3C125.15,48.83,125.35,49.25,125.57,49.67Z"/><path class="cls-4" d="M125,48.4c.13.44.27.88.43,1.3-6.4.95-7.91-1.3-9.45-9.93-.11-.59-.19-1.18-.27-1.75a33.45,33.45,0,0,1,6.2-1.24c.06.18.11.37.17.55a1.07,1.07,0,0,0,0,.43q.64,2.72,1.4,5.4A23.54,23.54,0,0,0,125,48.4Z"/><path d="M124,44.85c.34,1.14.64,2.36,1,3.55a23.54,23.54,0,0,1-1.49-5.24Q123.72,44,124,44.85Z"/><path d="M124,36a2.79,2.79,0,0,0,.1.57l-.33,0a1.14,1.14,0,0,0-1.42.09l-.5.05c-.09-.29-.17-.58-.24-.88-.32-1.35,1.75-1.92,2.07-.57h0A1.06,1.06,0,0,1,124,36Z"/><path d="M123.45,43l0,.17q-.76-2.68-1.4-5.4a1.07,1.07,0,0,1,0-.43c.3.9.65,1.77,1,2.64C123.27,41,123.29,42.05,123.45,43Z"/><path d="M122.38,36.73a1.14,1.14,0,0,1,1.42-.09C123.34,36.66,122.86,36.69,122.38,36.73Z"/><path d="M121.88,36.78l.5-.05a1,1,0,0,0-.33.6C122,37.15,121.94,37,121.88,36.78Z"/><path class="cls-3" d="M115.34,232.25c.18,2.91.36,5.73.57,9a35.1,35.1,0,0,1-12.38.06,2.47,2.47,0,0,1-2.31-3.21c.38-2,.86-4.07,1.33-6.23C106.85,231.56,110.81,229.92,115.34,232.25Z"/><path class="cls-3" d="M111.11,39.24l3.5,11.35-8.47,2.52-6-10.18C103.61,40.46,107.06,39.71,111.11,39.24Z"/><path class="cls-5" d="M102.64,153.32c-.37,1.24-.44,2.65-1.14,3.6-1.32,1.81-2.69,4-4.58,4.89C83.31,167.9,70.4,175.6,56,179.89c-2.57.77-5.22,1.81-8.31.48.5-3.27,3-4,5.19-4.86A181.23,181.23,0,0,0,83.43,160c2.31-1.48,4.5-3.16,6.9-4.48C93.95,153.58,97.69,151.81,102.64,153.32Z"/><path class="cls-2" d="M96.87,216c1.6.21,3.18.5,5.4.86-8.07,4.35-25.2.76-37.64-9.12-10.17-8.08-16.44-17.23-15-22.21,1.85-.12,2.14,1.49,2.65,2.61,3.56,7.85,9.22,13.93,16.09,18.92,4.9,3.56,9.79,7.17,16.3,7.45C88.74,214.72,92.8,215.5,96.87,216Z"/><path class="cls-4" d="M96.41,43.94l5.43,10.89-6.56,2.74-4.66-9Z"/><path class="cls-4" d="M98,230.74c-.17,3.14-.33,6.09-.54,9.77l-11.5-3,3.35-7.9Z"/><path class="cls-3" d="M86.48,50l4.91,9.2-9.56,5.92-6.52-9Z"/><path class="cls-3" d="M85.14,228.11l-3,8.93-9.89-3.82,5-6.87Z"/><path class="cls-4" d="M79.63,66.77l-6.89,4.94-8.23-7c.1-2.84,1.9-4,3.8-5,1.58-.82,3.07-.91,4.5.58C74.8,62.41,77,64.29,79.63,66.77Z"/><path class="cls-4" d="M69.81,222.56c1.07.54,2.09,1.19,3.7,2.11l-5,7.24-12.14-5.11c.08-.57,0-.76.12-.87C63,217.48,61.81,218.5,69.81,222.56Z"/><path class="cls-3" d="M59.79,66,69.9,74.05l-9.57,9.79L51,75.42Z"/><path class="cls-3" d="M58.31,218.38,52,224.45l-7-8.53,5.64-6.1Z"/><path class="cls-4" d="M48,78.23l9.68,8.22-7.59,9.18c-2.4-1.66-4.52-3.11-6.62-4.57-1.85-1.28-2.08-2.89-.87-4.73C44.32,83.79,46,81.27,48,78.23Z"/><path class="cls-4" d="M43,197.64l6.53,8.91-7.16,6c-3.84-1.61-5.23-4.53-5.51-8C36.55,200.42,40.47,199.9,43,197.64Z"/><path class="cls-3" d="M48.08,99.25l-3.13,5.15c-1.56-1-3-1.84-4.29-2.76-4.36-3-4.42-3.48-1-8.66Z"/><path class="cls-4" d="M43.58,107.47l-3.16,7.79-8.94-5.62,2.82-7.45Z"/><path class="cls-3" d="M38.3,190.19c.6,1.7,1.12,3.43,1.74,5.36L35.58,199,30.5,188.3,36.3,185C37,186.87,37.71,188.51,38.3,190.19Z"/><path class="cls-3" d="M39,118.53l-2.69,6.72-9.6-2.42c.48-1.89.84-3.47,1.3-5,1.13-3.77,2.23-4.27,5.88-2.69a12.05,12.05,0,0,1,2,1.1C36.85,116.9,37.8,117.65,39,118.53Z"/><path class="cls-4" d="M36.07,181.93l-8.13,2.43-2.66-9.15L33.12,174Z"/><path class="cls-4" d="M35.82,128.66l-2.58,6.45L25.47,134l1.07-6.91Z"/><path class="cls-3" d="M31.54,138.48c.43,2.22,1.75,4.5-.28,6.31-1.62,1.45-3.65.79-5.6-.31v-6Z"/><path class="cls-3" d="M30.47,161.66l1.17,8.76-6.28.89c-.15-1.46-.32-2.48-.35-3.51-.05-1.48,0-3,0-4.64Z"/><path class="cls-4" d="M30.53,149.08c2,6.53,1,10-5.92,9.59.37-3,.74-5.92,1.16-9.3Z"/><path class="cls-2" d="M21.11,146.74a52.35,52.35,0,0,1,.41,6.2c-7.36.61-11.07,6.71-16.66,10.28-2.54-2.52-2.26-4.8-.81-7,3.36-5.06,8.22-8.44,13.41-11.31C19.39,143.86,20.7,144.57,21.11,146.74Z"/></svg>