<svg id="圖層_1" data-name="圖層 1" xmlns="http://www.w3.org/2000/svg" viewBox="0 0 287.81 324.7"><defs><style>.cls-1{fill:#fff;}.cls-2{fill:#5d5e5e;}.cls-3{fill:#cd461e;}.cls-4{fill:#3761a4;}.cls-5{fill:#314462;}.cls-6{fill:#b02a24;}.cls-7{fill:#c96b78;}.cls-8{fill:#cf543f;}.cls-9{fill:#ebbf29;}.cls-10{fill:none;stroke:#000;stroke-miterlimit:10;stroke-width:2px;}</style></defs><title>chks</title><g id="_群組_" data-name="&lt;群組&gt;"><path d="M279.61,176c2.7,8.47.89,13.63-6.54,17.07-1.36.63-2.77,1.12-4,1.62.09,5.14.38,10.13.2,15.09a99.47,99.47,0,0,1-1.38,12.1,15.82,15.82,0,0,1-1.87,4.85c-1.89,3.47-5.32,4.39-8.52,2a18.07,18.07,0,0,1-4.21-4.94,27.89,27.89,0,0,1-2-5l-14.51,22.5a7.22,7.22,0,0,1-1.22,1.69c-4.89,4.11-8.64,9.39-13.91,13.14-4.16,3-7.92,6.46-12.05,9.45a45.52,45.52,0,0,1-17.75,7.74c-9.67,2-19.27,4.26-29,6.14a45.88,45.88,0,0,1-10.06.57c-8.46-.27-16.9-.76-25.35-1.21a25,25,0,0,1-3.78-.62c-14.06-3-27.6-7.52-39.92-14.93-6.2-3.73-12.17-8-16.83-13.87-4.52-5.72-9.94-10.72-14.69-16.27-3.83-4.47-7.92-8.81-10.39-14.31-2.75-6.14-5.65-12.2-8.32-18.37a44.41,44.41,0,0,1-1.69-6.26c-1.23-.57-2.61-1.13-3.93-1.82a11.6,11.6,0,0,1-6.48-10,6.24,6.24,0,0,1,3-5.9,8.4,8.4,0,0,1,2.45-1.32c3.81-1.05,4.57-4,5.17-7.39a82.64,82.64,0,0,1,2.87-11.8c1.91-5.71,4.06-11.34,6.45-16.86a102.18,102.18,0,0,1,6-11.4A21.68,21.68,0,0,1,53,121.22a65.22,65.22,0,0,0,9.69-9.47c4.84-5.61,10.71-9.92,16.76-14,3.73-2.53,7.69-4.74,11.59-7a27.47,27.47,0,0,1,4.71-2.24c5.14-1.79,10.27-3.64,15.51-5.12,6.19-1.75,12.49-2.6,18.93-1.05a39.64,39.64,0,0,0,5.87.48c.13-1.54.38-3.1.38-4.67,0-3.95-.23-7.9-.15-11.84a28.36,28.36,0,0,1,3.47-12.18c2.29-.61,3,1,3.74,2.62A75.85,75.85,0,0,1,150.7,82c.06.56.23,1.11.37,1.79,1,.16,1.86.37,2.77.46,11,1.12,21.78,3.11,32,7.72,4.31,1.94,9,3.05,13.4,4.8a68.41,68.41,0,0,1,23.73,15.39,165.39,165.39,0,0,1,13.66,15.73,111.22,111.22,0,0,1,12.17,19.84,19.71,19.71,0,0,0,3.1,4.89c0-.92,0-1.84,0-2.76,0-2.78-.3-5.57-.08-8.32a5.14,5.14,0,0,1,1.89-3.09,18.9,18.9,0,0,1,4.51-2.58c2.16-.93,3.08-.47,4.7,1.45,3.63,4.32,4.78,9.54,5,14.91s-.22,10.92-.35,16.37c-.1,4.1.83,4.83,4.65,3.72C275.73,171.26,278.43,172.31,279.61,176Zm-12.07,14.39c8.26.2,12.86-6.66,9.5-13.73-.67-1.42-1.58-2.19-3.26-1.8s-3.65.58-5.4,1.14a2.66,2.66,0,0,0-1.56,1.85C266.64,182,266.21,186.13,267.54,190.38Zm-3.79,34.15c.93-2,2.25-10.33,1.91-12.65-6.05,3.15-7.16,3-10-1.36-2,3.47-1.46,10.78,1.1,13.15a12.87,12.87,0,0,0,4.52,2.24C262.4,226.29,263.23,225.65,263.75,224.53Zm.45-64.94c.54-7.72.89-15-4-21.41-5.83,1.94-6.59,3.08-6.24,8.54.23,3.55.32,7.12.47,10.67,0,.61,0,1.22,0,1.92C260.71,157.57,260.71,157.57,264.2,159.59Zm-1.71,49.71a19.52,19.52,0,0,0,1.56-9.17c-.21-7.19-.34-14.39-.53-21.58-.12-4.4-.15-8.81-.52-13.19a6.35,6.35,0,0,0-2-3.48,2.85,2.85,0,0,0-4.9,1.34,12.27,12.27,0,0,0-.42,4.14c.39,5.09,1,10.16,1.43,15.24.5,5.43,1,10.86,1.46,16.29l-.27,0c0,.58-.08,1.16-.08,1.74,0,2.55,0,5.11.11,7.65.08,1.26.49,2.64,2,2.9C261.68,211.43,262,210.24,262.48,209.3Zm-9.13-17a157.52,157.52,0,0,0-.92-22.21,60.55,60.55,0,0,0-3.33-15.25c-2.85-7.49-7.33-14.22-11.68-21-4-6.17-8.94-11.55-13.75-17.07a67.53,67.53,0,0,0-23.1-17c-4.73-2.17-9.76-3.67-14.59-5.66a96.32,96.32,0,0,0-24.37-6.65c-3-.39-6.18-.06-9.56-.06.14,1.29.27,2.5.37,3.44,7.86,1.47,15.24,3.07,22.69,4.17A40.83,40.83,0,0,1,189,99.46c8,4.4,16.1,8.8,23.92,13.59a58,58,0,0,1,11.22,8.75c6.54,6.7,11.15,14.8,15.24,23.19,4,8.23,6,17,7.26,26a72.82,72.82,0,0,1-.44,22.2c-.67,4-1,8.09-1.89,12a38.79,38.79,0,0,1-6.87,14.72c-4,5.26-7.42,11-11.72,15.95s-9.53,9.46-14.38,14.12a11,11,0,0,1-2,1.31c-2.36,1.41-4.85,2.65-7.08,4.25a70.05,70.05,0,0,1-18.34,9.77c-3,1-5.88,2.13-8.89,3a83.36,83.36,0,0,1-21.58,3.58c-5.91.08-11.82.32-17.73.22A41.35,41.35,0,0,1,125.31,271,168.14,168.14,0,0,1,107.9,265c-6.54-2.62-13.5-4.26-19.48-8.19-1.81-1.19-3.49-2.61-5.21-4-4.57-3.56-9.39-6.86-13.63-10.78-5.1-4.72-10.22-9.54-13.84-15.58-2.33-3.87-4-8.11-6.39-12-6.57-10.66-8.45-22.52-9-34.66-.16-3.87,1-7.79,1.41-11.69,1-9.17,4.69-17.52,8.57-25.66a73,73,0,0,1,10.23-15.31c7.1-8.42,14.69-16.43,24.57-21.8,4.78-2.6,9.49-5.35,14.23-8a46.09,46.09,0,0,1,18-5.23c6.07-.64,11.77-3.91,18.36-2,.11-1.73.18-2.94.27-4.35a18.12,18.12,0,0,0-2.16-.61c-7.94-1-15.76.08-23.57,1.35a16.72,16.72,0,0,0-4.38,1.07c-6,2.78-12.37,4.53-18.06,8.06-5.44,3.37-11,6.49-15.64,11-3.42,3.29-7,6.43-10.69,9.4-6.2,5-9.85,12-14.58,18.12a4,4,0,0,0-.47.93c-1.39,3.3-2.83,6.59-4.16,9.92A149.61,149.61,0,0,0,34.78,169a37.11,37.11,0,0,0-1.1,9.3c.26,5.79,1.06,11.55,1.65,17.32a10.77,10.77,0,0,0,.5,3.08c2.35,5.43,4.56,10.93,7.3,16.16a87.06,87.06,0,0,0,8,12.62c3.81,5,8.13,9.54,12.26,14.26,6.12,7,12.41,13.84,20.37,18.87,1.57,1,3,2.33,4.61,3.08,4.73,2.14,9.56,4.07,14.35,6.09a37.78,37.78,0,0,0,5.79,2.38c7.09,1.67,14.21,3.33,21.38,4.6a111,111,0,0,0,30.84.75c7.91-.82,15.73-2.87,23.48-4.79,4.71-1.17,9.23-3.11,13.82-4.75,6.39-2.28,12.49-5.22,17.53-9.81,6.08-5.54,12.46-10.76,17.72-17.19a146.73,146.73,0,0,0,13.74-20C252.09,212.1,253,202.16,253.35,192.32Zm-9-.1c1.65-6.78,1.09-13.56,0-20.31a97,97,0,0,0-7.9-26.91c-6-12.63-13.76-23.63-26-30.91-6.88-4.09-13.79-8.15-20.82-12a47.75,47.75,0,0,0-17.4-5.69c-5.27-.62-10.51-1.56-15.77-2.28a32.56,32.56,0,0,0-4.15,0c.3,2.63,1.9,2.54,3.36,2.77,5.72.9,11.56,1.37,17.11,2.9,6.67,1.84,13.41,3.76,19.17,8a30.09,30.09,0,0,0,5.57,2.88,84.19,84.19,0,0,1,14.92,8.12c5.56,4,10.12,8.86,14.53,14a10.48,10.48,0,0,1,1.92,2.9c3.38,8.58,9.19,16.17,10.71,25.51.71,4.33,1.83,8.73,1.6,13-.58,10.88-1.37,21.79-4.33,32.4-1.7,6.12-3.77,12-8.76,16.27a9,9,0,0,0-1,1.37c-1.92,2.47-3.68,5.07-5.8,7.35a71.36,71.36,0,0,1-6.94,6.28c-4.38,3.61-8.57,7.58-13.37,10.56-7.73,4.8-15.83,9.05-23.92,13.25a36.19,36.19,0,0,1-9.5,3.23,56.64,56.64,0,0,1-10.38.83c-5.79.07-11.59-.14-17.39-.17-10.49-.06-20.4-2.76-30.1-6.46-3.89-1.48-7.69-3.23-11.55-4.81-2.67-1.1-5.47-1.93-8-3.24a40,40,0,0,1-9.38-7.09c-3.41-3.26-7.67-5.61-11.26-8.71a62.5,62.5,0,0,1-21-36.76c-.4-2.16-.47-4.38-.67-6.58-.51-5.62-2.38-11.12-1.2-16.89.71-3.5.76-7.14,1.55-10.61,2.06-9.12,6.12-17.48,10.46-25.69A28,28,0,0,1,63,132.4c4.88-5.11,9.71-10.36,15.1-14.9a78.76,78.76,0,0,1,20.47-12.36c3.42-1.43,6.89-2.78,10.24-4.36a48.94,48.94,0,0,1,21.05-5c1.95,0,3.89-.23,5.73-.35.49-1.59,0-2.49-1.32-2.49a63.78,63.78,0,0,0-8.25.39c-3,.39-5.91,1.15-8.86,1.75-1.82.37-3.64.72-5.46,1.1-9,1.88-16.51,7.16-24.45,11.42a59.91,59.91,0,0,0-14.94,11.24c-2.74,2.84-5.8,5.42-8.22,8.51C57.87,135.28,51.9,143.41,48.33,153c-1.4,3.75-3.59,7.3-2.87,11.59a3.38,3.38,0,0,1-.1,1.38,55.43,55.43,0,0,0-1.72,21,78.19,78.19,0,0,0,3.82,17.26c2.11,5.75,5,11.2,7.82,16.68a45.6,45.6,0,0,0,5.22,8.6,134.9,134.9,0,0,0,20.56,19.72,43.24,43.24,0,0,0,5.54,3.57c10.86,6.13,22.53,10.34,34.35,14.14a49.18,49.18,0,0,0,19.9,2.58,94.37,94.37,0,0,1,10.08-.4,86.76,86.76,0,0,0,29.31-5.16c4.75-1.62,9.41-3.31,13.77-6.26,7.26-4.9,15.17-8.76,21.6-14.94,4.86-4.69,9.84-9.21,13.35-15.08a31.78,31.78,0,0,1,2.13-2.75c5.88-7.75,10.81-15.94,12.18-25.81A68.64,68.64,0,0,1,244.31,192.22Zm-6.8.95c.54-8.65,2.84-17.2,1.2-26-.64-3.4-.81-7-2.09-10.15a134.68,134.68,0,0,0-8.93-18.83c-5.1-8.46-12.5-14.95-20.77-20.22-4.26-2.72-9.14-4.46-13.68-6.75-2.89-1.46-5.56-3.42-8.54-4.66A82.8,82.8,0,0,0,160,100c3,2.56,5.21,5.05,7.94,6.62a51.79,51.79,0,0,0,15.34,5.55,23.38,23.38,0,0,1,5.81,2.22c2.88,1.48,5.63,3.22,8.45,4.83,4.26,2.44,8.76,4.29,12.49,7.87,2.64,2.54,5.3,5.12,8,7.61A36.84,36.84,0,0,1,227,147.46a63.69,63.69,0,0,1,3.74,13,123.74,123.74,0,0,1,2.21,16.51c.27,4.61-.38,9.26-.57,13.9-.38,9.41-3.64,17.93-8.52,25.77-2.69,4.31-6.18,8.13-9.43,12.07a39.85,39.85,0,0,1-4.66,4.62,50.57,50.57,0,0,1-5,3.77c-3.07,2.06-6.14,4.17-9.36,6-2.72,1.52-5.85,2.34-8.48,4-7.89,4.92-16.81,6.59-25.69,8.28a128.18,128.18,0,0,1-14.87,1.65c-11.45.83-22.74.33-33.5-4.41-3.59-1.58-7.51-2.49-11-4.25-5.29-2.65-10.37-5.71-15.47-8.72A20.82,20.82,0,0,1,81.68,236c-5.15-5.52-10.55-10.87-15.07-16.88a46.76,46.76,0,0,1-6.82-13.6c-1.66-5.13-2.24-10.63-3-16-2-13.66-1.37-27.1,4.77-39.74,2.06-4.24,4.2-8.56,7.61-12,4.73-4.78,9.32-9.72,14.23-14.3a70.17,70.17,0,0,1,15.83-11.25,64,64,0,0,1,16.64-6,66.45,66.45,0,0,0,8.35-2.43c2.48-.85,3.64-2.85,4.23-5.53a19.39,19.39,0,0,0-2.33,0,52.71,52.71,0,0,0-16,4.61c-3.34,1.6-6.79,2.95-10.13,4.56a146.14,146.14,0,0,0-13.59,6.93A84.26,84.26,0,0,0,67.33,131a86.18,86.18,0,0,0-7.26,9.31c-3.8,5.84-6.32,12.35-8.81,18.82a26.81,26.81,0,0,0-2.12,8c-.4,8-.58,16,1.1,23.89.65,3,.63,6.25,1.42,9.24,1,3.68,2.54,7.2,3.77,10.82,3.76,11.13,11.21,19.31,20.55,26a68.37,68.37,0,0,1,6.12,5.12c3.87,3.54,7.82,6.9,12.91,8.62a47.59,47.59,0,0,1,7.45,2.86c4.73,2.55,9.44,5,14.92,5.37a9.53,9.53,0,0,1,1.31.44c3.83.9,7.62,2.17,11.5,2.6a164.93,164.93,0,0,0,28.52.77c6.62-.42,13.13-1.24,19.12-4.6,5.47-3.06,11.2-5.63,16.72-8.6a89.12,89.12,0,0,0,9.37-5.83c2.92-2.08,5.46-4.7,8.41-6.73,8.7-6,14.71-14.23,19.09-23.54C234.45,207.25,237,200.57,237.51,193.16Zm-6.79-11.09c1-9.31-.87-18.38-3.28-27.14-3.34-12.13-11-21.57-21.76-28.26-5.23-3.24-10.54-6.36-15.82-9.52a12.1,12.1,0,0,0-2.51-1.2c-2.88-.9-5.79-1.71-8.69-2.58-6.57-2-13-4-18.07-9.2a27.36,27.36,0,0,0-7.71-5.47c-1.2,1.18-.86,1.91,0,2.62a64.32,64.32,0,0,1,5.47,4.86c3.86,4.23,9,6.08,14.15,7.85,4.83,1.64,9.65,3.34,14.49,4.92s8.46,4.8,12.64,7.27a30.28,30.28,0,0,1,8.69,8.34,74.33,74.33,0,0,0,6.2,7.49,33.83,33.83,0,0,1,7.35,10.46c2.32,5.46,4.59,10.92,4.76,17a118.37,118.37,0,0,1-1.93,24.28c-.8,4.41-1.35,8.94-3.56,13-4.28,7.94-9.39,15.17-16.38,21-1.87,1.55-3.58,3.33-5.58,4.69-3,2-6.15,3.65-9.16,5.58-7.58,4.83-15.91,7.86-24.55,10.09A84.57,84.57,0,0,1,142,250.93a50.45,50.45,0,0,1-5.87-.62c-4.58-.66-9.15-1.47-13.74-2.06-5.21-.67-10.38-1.51-15-4.22-5.87-3.48-11.95-6.63-17.32-10.93-4.6-3.69-9.89-6.57-12.92-12-.79-1.4-2-2.57-2.8-4-2.67-4.59-5.48-9.13-7.78-13.91-1.18-2.44-1-5.51-2.11-8-3.11-7.25-3.07-14.92-2.16-22.32,1.25-10.08,3.24-20.1,9.17-28.94a76.12,76.12,0,0,1,14.22-15.59c6.8-5.77,14.87-9.35,23.2-12.31a77.58,77.58,0,0,1,9.66-2.69c7-1.5,12.58-4.63,15.1-11.81a20.1,20.1,0,0,1,1.57-2.91c-3.09-1.24-4.69.44-5.72,2.92a7.69,7.69,0,0,1-4.55,4.54,49.82,49.82,0,0,1-8.31,2.49c-9,1.51-16.87,5.6-24.28,10.74-7,4.86-12.81,11-18.89,16.92a55.9,55.9,0,0,0-10.85,15.53c-3,6-3.48,12.48-4.64,18.86a19,19,0,0,0-.46,5.87c1.16,8.27,2.49,16.51,3.88,24.74a28.87,28.87,0,0,0,1.65,5.29,54.75,54.75,0,0,0,10.61,17c8.27,9.36,17.45,17.34,29.36,21.71a7.32,7.32,0,0,1,1.25.6,47,47,0,0,0,13.46,5.31c4.06.94,8.19,1.55,12.31,2.25,14.52,2.46,28.75.53,42.73-3.33,5.2-1.43,10.15-3.88,15.11-6.09A68.33,68.33,0,0,0,199,238.32c7.06-4.86,13.69-10.27,19.06-17.12,5.91-7.54,10.46-15.6,11.52-25.27C230.13,191.33,230.2,186.68,230.72,182.07Zm-6.55-4.15c1-9.16-1.1-17.68-5.13-25.86-1.94-3.94-4.93-7-7.8-10.18-4.48-5-8.28-10.38-14.15-14.21-6.72-4.39-13.94-7.3-21.38-9.83-8.3-2.82-16.41-5.82-22.61-12.41a20.14,20.14,0,0,0-2.65-1.92c-.35,2.1-.55,3.66-.89,5.2a43.1,43.1,0,0,1-1.68,6.7c-1,2.63-3.14,3.13-5.25,1.31a11.94,11.94,0,0,1-2.88-3.84c-1.23-2.62-2.15-5.38-3.36-8.51-1,1.42-1.77,2.59-2.64,3.65-2.7,3.31-5.9,5.76-10.32,6.42a82.77,82.77,0,0,0-21.5,6.75,67.92,67.92,0,0,0-19.54,13.13c-6.31,6.12-11.48,13.13-14.21,21.57a96.64,96.64,0,0,0-3.64,17.64c-1.21,9.62.89,18.69,3.84,27.59a60.39,60.39,0,0,0,8.93,16.42c3,4.09,5.82,8.45,10.7,10.71a9.69,9.69,0,0,1,1.38,1.05c3,2.13,6,4.34,9.12,6.34,2.43,1.56,5.17,2.65,7.53,4.3,5.55,3.87,11.85,5.09,18.38,5.7,2,.18,3.92.4,5.85.78,5.7,1.11,11.39,2.38,17.25,1.68,4.25-.51,8.48-1.2,12.72-1.84a82.47,82.47,0,0,0,28-10c3.54-2,6.93-4.22,10.39-6.35a17.2,17.2,0,0,0,2-1.43,77.36,77.36,0,0,0,17.14-19.94,28.47,28.47,0,0,0,4-10.61C222.74,191.29,223.41,184.6,224.16,177.92ZM148,102.17A31.15,31.15,0,0,0,148.73,85c-1.28-5.76-3-11.44-4.63-17.11-.81-2.78-2-5.47-3-8.2a2.93,2.93,0,0,0-.81,1.93q-.77,17.21-1.52,34.42c-.3,6.72,2.44,12.52,5.66,19,.76-2.48,1.38-4.31,1.87-6.17C147,106.67,147.25,104.35,148,102.17ZM31.09,190.27c.43-4.74-.93-9.13-.64-13.89-3.26.86-5.4,2.2-5.89,5.23S26.46,188,31.09,190.27Z"/><path class="cls-1" d="M277,176.65c3.36,7.07-1.24,13.93-9.5,13.73-1.33-4.25-.9-8.41-.72-12.54a2.66,2.66,0,0,1,1.56-1.85c1.74-.56,3.6-.73,5.4-1.14S276.36,175.23,277,176.65Z"/><path class="cls-2" d="M265.65,211.88c.34,2.32-1,10.62-1.91,12.65-.51,1.12-1.35,1.76-2.44,1.38a12.87,12.87,0,0,1-4.52-2.24c-2.55-2.37-3.06-9.68-1.1-13.15C258.49,214.89,259.6,215,265.65,211.88Z"/><path class="cls-2" d="M260.19,138.18c4.9,6.39,4.54,13.69,4,21.41-3.49-2-3.49-2-9.77-.28,0-.7,0-1.31,0-1.92-.15-3.56-.24-7.12-.47-10.67C253.6,141.27,254.36,140.12,260.19,138.18Z"/><path class="cls-3" d="M264,200.12a19.52,19.52,0,0,1-1.56,9.17c-.45.95-.81,2.13-2.13,1.91-1.53-.25-1.94-1.63-2-2.9-.15-2.54-.09-5.1-.11-7.65,0-.58.05-1.16.08-1.74l.27,0c-.49-5.43-1-10.86-1.46-16.29-.47-5.08-1-10.16-1.43-15.24a12.27,12.27,0,0,1,.42-4.14,2.85,2.85,0,0,1,4.9-1.34,6.35,6.35,0,0,1,2,3.48c.37,4.38.4,8.79.52,13.19C263.7,185.74,263.83,192.93,264,200.12Z"/><path class="cls-4" d="M252.42,170.11a157.52,157.52,0,0,1,.92,22.21c-.39,9.84-1.26,19.78-6.32,28.62a146.73,146.73,0,0,1-13.74,20c-5.26,6.43-11.64,11.66-17.72,17.19-5,4.59-11.14,7.53-17.53,9.81-4.59,1.64-9.11,3.58-13.82,4.75-7.75,1.92-15.56,4-23.48,4.79a111,111,0,0,1-30.84-.75c-7.18-1.27-14.29-2.93-21.38-4.6a37.78,37.78,0,0,1-5.79-2.38c-4.79-2-9.62-3.94-14.35-6.09-1.66-.75-3-2.09-4.61-3.08-8-5-14.25-11.86-20.37-18.87-4.12-4.73-8.45-9.3-12.26-14.26a87.06,87.06,0,0,1-8-12.62c-2.74-5.23-4.95-10.74-7.3-16.16a10.77,10.77,0,0,1-.5-3.08c-.59-5.77-1.4-11.53-1.65-17.32a37.11,37.11,0,0,1,1.1-9.3,149.61,149.61,0,0,1,7.48-23.88c1.33-3.33,2.77-6.62,4.16-9.92a4,4,0,0,1,.47-.93c4.73-6.14,8.38-13.13,14.58-18.12,3.69-3,7.27-6.11,10.69-9.4,4.66-4.49,10.21-7.6,15.64-11,5.69-3.53,12.09-5.28,18.06-8.06a16.72,16.72,0,0,1,4.38-1.07c7.81-1.27,15.63-2.36,23.57-1.35a18.12,18.12,0,0,1,2.16.61c-.09,1.41-.16,2.62-.27,4.35-6.59-2-12.29,1.32-18.36,2a46.09,46.09,0,0,0-18,5.23c-4.75,2.67-9.45,5.42-14.23,8-9.88,5.37-17.47,13.38-24.57,21.8a73,73,0,0,0-10.23,15.31c-3.88,8.13-7.56,16.49-8.57,25.66-.43,3.91-1.58,7.82-1.41,11.69.52,12.14,2.39,24,9,34.66,2.37,3.84,4.07,8.09,6.39,12,3.63,6,8.75,10.86,13.84,15.58,4.24,3.92,9.06,7.22,13.63,10.78,1.72,1.34,3.39,2.76,5.21,4,6,3.92,12.95,5.57,19.48,8.19A168.14,168.14,0,0,0,125.31,271a41.35,41.35,0,0,0,10.31,1.11c5.91.1,11.82-.14,17.73-.22a83.36,83.36,0,0,0,21.58-3.58c3-.85,5.92-2,8.89-3a70.05,70.05,0,0,0,18.34-9.77c2.23-1.59,4.71-2.84,7.08-4.25a11,11,0,0,0,2-1.31c4.85-4.66,10-9.06,14.38-14.12s7.73-10.69,11.72-15.95a38.79,38.79,0,0,0,6.87-14.72c.93-3.94,1.21-8,1.89-12a72.82,72.82,0,0,0,.44-22.2c-1.25-9-3.25-17.78-7.26-26-4.09-8.38-8.7-16.49-15.24-23.19a58,58,0,0,0-11.22-8.75c-7.82-4.78-15.88-9.19-23.92-13.59a40.83,40.83,0,0,0-13.85-4.39c-7.45-1.1-14.84-2.7-22.69-4.17-.1-.95-.23-2.15-.37-3.44,3.39,0,6.52-.33,9.56.06A96.32,96.32,0,0,1,186,94.17c4.83,2,9.86,3.49,14.59,5.66a67.53,67.53,0,0,1,23.1,17c4.81,5.52,9.76,10.9,13.75,17.07,4.36,6.74,8.83,13.47,11.68,21A60.55,60.55,0,0,1,252.42,170.11Z"/><path class="cls-5" d="M244.35,171.91c1.06,6.75,1.62,13.52,0,20.31a68.64,68.64,0,0,0-1,6.89c-1.37,9.88-6.31,18.07-12.18,25.81a31.78,31.78,0,0,0-2.13,2.75c-3.51,5.87-8.48,10.39-13.35,15.08-6.43,6.19-14.34,10-21.6,14.94-4.36,2.95-9,4.63-13.77,6.26a86.76,86.76,0,0,1-29.31,5.16,94.37,94.37,0,0,0-10.08.4,49.18,49.18,0,0,1-19.9-2.58c-11.82-3.8-23.48-8-34.35-14.14a43.24,43.24,0,0,1-5.54-3.57A134.9,134.9,0,0,1,60.5,229.51a45.6,45.6,0,0,1-5.22-8.6c-2.77-5.48-5.71-10.94-7.82-16.68A78.19,78.19,0,0,1,43.64,187a55.43,55.43,0,0,1,1.72-21,3.38,3.38,0,0,0,.1-1.38c-.72-4.29,1.47-7.84,2.87-11.59,3.57-9.58,9.55-17.7,15.74-25.65,2.41-3.09,5.48-5.67,8.22-8.51a59.91,59.91,0,0,1,14.94-11.24c7.93-4.26,15.4-9.54,24.45-11.42,1.82-.38,3.64-.73,5.46-1.1,3-.6,5.88-1.36,8.86-1.75a63.78,63.78,0,0,1,8.25-.39c1.27,0,1.8.9,1.32,2.49-1.84.12-3.79.35-5.73.35a48.94,48.94,0,0,0-21.05,5c-3.35,1.58-6.82,2.93-10.24,4.36A78.76,78.76,0,0,0,78.05,117.5C72.66,122,67.84,127.29,63,132.4a28,28,0,0,0-4.31,6.29c-4.34,8.21-8.4,16.57-10.46,25.69-.79,3.48-.84,7.12-1.55,10.61-1.18,5.78.69,11.27,1.2,16.89.2,2.2.27,4.42.67,6.58a62.5,62.5,0,0,0,21,36.76c3.58,3.1,7.85,5.45,11.26,8.71A40,40,0,0,0,90.1,251c2.57,1.3,5.36,2.14,8,3.24,3.86,1.58,7.65,3.33,11.55,4.81,9.69,3.7,19.61,6.4,30.1,6.46,5.8,0,11.59.24,17.39.17a56.64,56.64,0,0,0,10.38-.83,36.19,36.19,0,0,0,9.5-3.23c8.09-4.19,16.18-8.45,23.92-13.25,4.8-3,9-6.95,13.37-10.56a71.36,71.36,0,0,0,6.94-6.28c2.12-2.27,3.89-4.88,5.8-7.35a9,9,0,0,1,1-1.37c5-4.32,7.05-10.15,8.76-16.27,3-10.61,3.75-21.51,4.33-32.4.23-4.31-.89-8.71-1.6-13-1.53-9.34-7.33-16.93-10.71-25.51a10.48,10.48,0,0,0-1.92-2.9c-4.41-5.1-9-10-14.53-14a84.19,84.19,0,0,0-14.92-8.12,30.09,30.09,0,0,1-5.57-2.88c-5.76-4.22-12.51-6.14-19.17-8-5.55-1.53-11.39-2-17.11-2.9-1.46-.23-3.06-.14-3.36-2.77a32.56,32.56,0,0,1,4.15,0c5.26.72,10.5,1.65,15.77,2.28a47.75,47.75,0,0,1,17.4,5.69c7,3.83,13.94,7.89,20.82,12,12.24,7.27,20,18.28,26,30.91A97,97,0,0,1,244.35,171.91Z"/><path class="cls-4" d="M238.71,167.21c1.64,8.75-.66,17.3-1.2,26-.47,7.41-3.06,14.09-6.08,20.52-4.37,9.31-10.39,17.55-19.09,23.54-2.95,2-5.49,4.65-8.41,6.73a89.12,89.12,0,0,1-9.37,5.83c-5.51,3-11.25,5.54-16.72,8.6-6,3.35-12.5,4.18-19.12,4.6a164.93,164.93,0,0,1-28.52-.77c-3.88-.43-7.67-1.7-11.5-2.6a9.53,9.53,0,0,0-1.31-.44c-5.48-.41-10.2-2.82-14.92-5.37A47.59,47.59,0,0,0,95,250.93c-5.08-1.72-9-5.09-12.91-8.62A68.37,68.37,0,0,0,76,237.18c-9.35-6.72-16.79-14.91-20.55-26-1.22-3.62-2.78-7.14-3.77-10.82-.8-3-.77-6.19-1.42-9.24-1.69-7.91-1.5-15.91-1.1-23.89a26.81,26.81,0,0,1,2.12-8c2.49-6.47,5-13,8.81-18.82A86.18,86.18,0,0,1,67.33,131,84.26,84.26,0,0,1,86.42,114.4,146.14,146.14,0,0,1,100,107.47c3.33-1.61,6.79-3,10.13-4.56a52.71,52.71,0,0,1,16-4.61,19.39,19.39,0,0,1,2.33,0c-.59,2.68-1.74,4.68-4.23,5.53a66.45,66.45,0,0,1-8.35,2.43,64,64,0,0,0-16.64,6,70.17,70.17,0,0,0-15.83,11.25c-4.92,4.58-9.5,9.52-14.23,14.3-3.41,3.44-5.56,7.76-7.61,12-6.15,12.64-6.77,26.08-4.77,39.74.79,5.38,1.37,10.88,3,16a46.76,46.76,0,0,0,6.82,13.6c4.52,6,9.92,11.36,15.07,16.88a20.82,20.82,0,0,0,4.69,3.57c5.1,3,10.19,6.07,15.47,8.72,3.5,1.76,7.41,2.66,11,4.25,10.76,4.74,22,5.25,33.5,4.41a128.18,128.18,0,0,0,14.87-1.65c8.87-1.7,17.79-3.36,25.69-8.28,2.63-1.64,5.76-2.46,8.48-4,3.22-1.8,6.29-3.91,9.36-6a50.57,50.57,0,0,0,5-3.77,39.85,39.85,0,0,0,4.66-4.62c3.25-3.94,6.74-7.76,9.43-12.07,4.89-7.84,8.15-16.36,8.52-25.77.19-4.64.84-9.29.57-13.9a123.74,123.74,0,0,0-2.21-16.51,63.69,63.69,0,0,0-3.74-13,36.84,36.84,0,0,0-8.86-12.79c-2.72-2.49-5.38-5.07-8-7.61-3.73-3.59-8.23-5.43-12.49-7.87-2.82-1.61-5.57-3.35-8.45-4.83a23.38,23.38,0,0,0-5.81-2.22A51.79,51.79,0,0,1,168,106.58c-2.73-1.57-4.93-4.06-7.94-6.62a82.8,82.8,0,0,1,24.65,6.63c3,1.24,5.65,3.2,8.54,4.66,4.54,2.29,9.42,4,13.68,6.75,8.27,5.28,15.68,11.76,20.77,20.22a134.68,134.68,0,0,1,8.93,18.83C237.9,160.2,238.07,163.81,238.71,167.21Z"/><path class="cls-5" d="M227.44,154.94c2.41,8.75,4.32,17.82,3.28,27.14-.51,4.6-.59,9.26-1.09,13.86-1.06,9.67-5.61,17.73-11.52,25.27-5.37,6.86-12,12.26-19.06,17.12A68.33,68.33,0,0,1,187.92,244c-5,2.21-9.91,4.66-15.11,6.09-14,3.86-28.22,5.79-42.73,3.33-4.11-.7-8.25-1.31-12.31-2.25a47,47,0,0,1-13.46-5.31,7.32,7.32,0,0,0-1.25-.6C91.15,240.91,82,232.93,73.7,223.57a54.75,54.75,0,0,1-10.61-17,28.87,28.87,0,0,1-1.65-5.29c-1.39-8.23-2.73-16.47-3.88-24.74a19,19,0,0,1,.46-5.87c1.16-6.38,1.66-12.9,4.64-18.86a55.9,55.9,0,0,1,10.85-15.53c6.08-5.87,11.89-12.06,18.89-16.92,7.41-5.14,15.24-9.23,24.28-10.74a49.82,49.82,0,0,0,8.31-2.49,7.69,7.69,0,0,0,4.55-4.54c1-2.48,2.63-4.16,5.72-2.92a20.1,20.1,0,0,0-1.57,2.91c-2.52,7.18-8.11,10.32-15.1,11.81a77.58,77.58,0,0,0-9.66,2.69c-8.33,3-16.4,6.54-23.2,12.31A76.12,76.12,0,0,0,71.52,144c-5.93,8.84-7.92,18.86-9.17,28.94-.91,7.39-1,15.07,2.16,22.32,1.08,2.51.93,5.58,2.11,8,2.3,4.78,5.11,9.31,7.78,13.91.81,1.39,2,2.56,2.8,4,3,5.39,8.32,8.27,12.92,12,5.37,4.3,11.45,7.45,17.32,10.93,4.58,2.71,9.75,3.55,15,4.22,4.59.59,9.16,1.4,13.74,2.06a50.45,50.45,0,0,0,5.87.62,84.57,84.57,0,0,0,23.44-2.75c8.63-2.24,17-5.26,24.55-10.09,3-1.92,6.2-3.57,9.16-5.58,2-1.36,3.71-3.14,5.58-4.69,7-5.8,12.11-13,16.38-21,2.21-4.1,2.76-8.63,3.56-13a118.37,118.37,0,0,0,1.93-24.28c-.16-6.07-2.43-11.53-4.76-17a33.83,33.83,0,0,0-7.35-10.46,74.33,74.33,0,0,1-6.2-7.49,30.28,30.28,0,0,0-8.69-8.34c-4.18-2.48-7.9-5.72-12.64-7.27s-9.66-3.28-14.49-4.92c-5.19-1.77-10.28-3.63-14.15-7.85a64.32,64.32,0,0,0-5.47-4.86c-.82-.71-1.16-1.44,0-2.62a27.36,27.36,0,0,1,7.71,5.47c5,5.16,11.5,7.22,18.07,9.2,2.89.87,5.8,1.68,8.69,2.58a12.1,12.1,0,0,1,2.51,1.2c5.28,3.15,10.59,6.27,15.82,9.52C216.46,133.37,224.1,142.81,227.44,154.94Z"/><path class="cls-1" d="M219,152.07c4,8.18,6.17,16.7,5.13,25.86-.76,6.68-1.43,13.37-2.36,20a28.47,28.47,0,0,1-4,10.61,77.36,77.36,0,0,1-17.14,19.94,17.2,17.2,0,0,1-2,1.43c-3.45,2.14-6.84,4.38-10.39,6.35a82.47,82.47,0,0,1-28,10c-4.24.63-8.47,1.33-12.72,1.84-5.86.7-11.55-.57-17.25-1.68-1.93-.37-3.89-.59-5.85-.78-6.53-.61-12.83-1.83-18.38-5.7-2.36-1.65-5.1-2.74-7.53-4.3-3.11-2-6.09-4.22-9.12-6.34A9.69,9.69,0,0,0,88,228.27c-4.89-2.26-7.71-6.62-10.7-10.71a60.39,60.39,0,0,1-8.93-16.42c-3-8.9-5.06-18-3.84-27.59a96.64,96.64,0,0,1,3.64-17.64c2.73-8.45,7.89-15.46,14.21-21.57a67.92,67.92,0,0,1,19.54-13.13,82.77,82.77,0,0,1,21.5-6.75c4.41-.66,7.62-3.11,10.32-6.42.87-1.07,1.62-2.24,2.64-3.65,1.21,3.13,2.13,5.89,3.36,8.51a11.94,11.94,0,0,0,2.88,3.84c2.11,1.82,4.21,1.33,5.25-1.31a43.1,43.1,0,0,0,1.68-6.7c.34-1.53.54-3.1.89-5.2a20.14,20.14,0,0,1,2.65,1.92c6.2,6.59,14.3,9.59,22.61,12.41,7.44,2.53,14.65,5.44,21.38,9.83,5.87,3.83,9.67,9.26,14.15,14.21C214.11,145.07,217.09,148.13,219,152.07ZM190.9,166.17c1.65-7.78-4.23-12.14-10.31-11.83a31.85,31.85,0,0,0-16.42,5.12c-4.13,2.81-7.42,6.72-6.5,12.5a13.51,13.51,0,0,1,0,2.16l-6.58-.82c.64-1.32,1.24-2.43,1.71-3.59.58-1.43,1-2.93,0-4.34-4.44-6.37-10.72-9.29-18-3.33a5.87,5.87,0,0,0-2.39,4.81c.07,2,.35,4.08.56,6.29a6.14,6.14,0,0,1-1.5.46c-4.26.25-6.8,2.65-8.1,6.53-1.36,4.08-1.31,8,1.66,11.46s6.66,4.16,10.73,2.92a74.47,74.47,0,0,0,8-3.49c2,.73,4.29,1.8,6.74,2.47A9,9,0,0,0,162,186.38c.3-1.54.6-3.08.92-4.74a7.41,7.41,0,0,1,1,.57,14.61,14.61,0,0,0,18.75.34c1.28-1,2.47-2.1,3.71-3.17a12.75,12.75,0,0,0,4.46-10.47A12.38,12.38,0,0,1,190.9,166.17Zm-6.29-33.71a4.86,4.86,0,0,0-3.66-4.89,39.36,39.36,0,0,0-4.77-.63c-1.33.26-2.92.5-4.47.91S169,129.07,169,131s.88,3.52,2.4,3.91a39.19,39.19,0,0,0,9.18,1.23A4.2,4.2,0,0,0,184.61,132.46Zm-27.44,2.92c1.2-.14,1.95-1.31,1.81-2.84a3.37,3.37,0,0,0-3.26-2.91,2.72,2.72,0,0,0-2.17,2.66C153.65,133.58,155.93,135.53,157.16,135.39Zm-20.35-3.15c.55-.54.5-1.69.89-3.27-1.68,0-3-.25-4.05.09-.67.21-1.59,1.46-1.46,2a3.22,3.22,0,0,0,1.94,2A3.35,3.35,0,0,0,136.81,132.23Zm-18.9-.91c2.47-.45,3.35-2.13,1.94-5.08a5.2,5.2,0,0,0-2.3-2c-2.8-1.44-9.24-.46-11.57,1.64a3.13,3.13,0,0,0,1.21,5.58c1.61.22,3.22.32,5.39.53C114,131.8,116,131.68,117.91,131.33Z"/><path d="M180.59,154.35c6.08-.32,12,4.05,10.31,11.83a12.38,12.38,0,0,0-.12,2.74,12.75,12.75,0,0,1-4.46,10.47c-1.23,1.06-2.43,2.17-3.71,3.17a14.61,14.61,0,0,1-18.75-.34,7.41,7.41,0,0,0-1-.57c-.32,1.66-.62,3.2-.92,4.74a9,9,0,0,1-11.39,7.13c-2.45-.68-4.78-1.74-6.74-2.47a74.47,74.47,0,0,1-8,3.49c-4.07,1.24-7.81.49-10.73-2.92s-3-7.38-1.66-11.46c1.3-3.87,3.83-6.27,8.1-6.53a6.14,6.14,0,0,0,1.5-.46c-.21-2.21-.49-4.25-.56-6.29a5.87,5.87,0,0,1,2.39-4.81c7.24-6,13.52-3,18,3.33,1,1.4.6,2.91,0,4.34-.47,1.17-1.07,2.28-1.71,3.59l6.58.82a13.51,13.51,0,0,0,0-2.16c-.92-5.78,2.37-9.69,6.5-12.5A31.85,31.85,0,0,1,180.59,154.35Zm7.18,18.09-.45-.55c-3.15,2.1-6.24,4.31-9.47,6.28-3.51,2.14-7.58.73-11.53,1.22a4.07,4.07,0,0,0,3.88,2.83,31.11,31.11,0,0,0,5.53-.14C181.64,181.19,184.8,176.9,187.77,172.44Zm-.61-4.86c2.55-2.62,1.72-7.09-1.35-9.1a7.83,7.83,0,0,0-3.15-1.38c-6.5-.74-17,1.44-21.36,10.1-2,3.95-.46,7.25,3.53,8.43a44.43,44.43,0,0,0,5.47.92,12,12,0,0,0,8.37-1.87A60.71,60.71,0,0,0,187.16,167.57Zm-26.88,16.15c0-3-3.28-7.06-6.11-7.07-5.66,0-8.94,2.11-9.68,9.15a11.27,11.27,0,0,0,1.46,2.41c2.32,2.46,5.35,2.48,8.42,2.16A6.79,6.79,0,0,0,160.28,183.73ZM150.73,169a3.1,3.1,0,0,0,.14-2c-.88-2.57-5.11-5.3-7.77-5.28-3.11-.08-5.35,1.45-7.2,3.34-2.05,2.08-1.26,7.44,1,8.78C141.46,176.49,148.8,173.92,150.73,169Zm-9.54,16.46c.17-3.92-4.68-9.18-8.49-9.22-4.2,0-7.68,3.84-7.75,8.65-.43,3.88,3.33,7.65,6.51,7.6C136.75,192.37,141,189.37,141.19,185.42Z"/><path class="cls-6" d="M187.32,171.89l.45.55c-3,4.46-6.12,8.75-12,9.65a31.11,31.11,0,0,1-5.53.14,4.07,4.07,0,0,1-3.88-2.83c4-.49,8,.92,11.53-1.22C181.08,176.2,184.17,174,187.32,171.89Z"/><path class="cls-6" d="M185.81,158.47c3.07,2,3.9,6.47,1.35,9.1a60.71,60.71,0,0,1-8.49,7.11,12,12,0,0,1-8.37,1.87,44.43,44.43,0,0,1-5.47-.92c-4-1.18-5.52-4.48-3.53-8.43,4.37-8.66,14.87-10.85,21.36-10.1A7.83,7.83,0,0,1,185.81,158.47Zm-13.21,13.25a5.34,5.34,0,0,0,5.33-5.31c-.06-2.54-1.46-4.15-3.63-4.18-3.14,0-5.42,1.88-5.44,4.63C168.85,169.89,170.26,171.72,172.61,171.73Z"/><path d="M180.95,127.58a4.86,4.86,0,0,1,3.66,4.89,4.2,4.2,0,0,1-4,3.64,39.19,39.19,0,0,1-9.18-1.23c-1.53-.39-2.37-2.08-2.4-3.91s1.17-2.7,2.71-3.11,3.14-.65,4.47-.91A39.36,39.36,0,0,1,180.95,127.58Zm.62,4.19c.12-.29-.4-1-.81-1.31-2.1-1.44-6.7-.86-9.28,1.46a37,37,0,0,0,4.66,1.23,14.72,14.72,0,0,0,4.08-.16A2.15,2.15,0,0,0,181.56,131.76Z"/><path class="cls-7" d="M180.76,130.46c.41.28.92,1,.81,1.31a2.15,2.15,0,0,1-1.34,1.22,14.72,14.72,0,0,1-4.08.16,37,37,0,0,1-4.66-1.23C174.06,129.6,178.66,129,180.76,130.46Z"/><path d="M177.94,166.42a5.34,5.34,0,0,1-5.33,5.31c-2.34,0-3.76-1.84-3.73-4.86,0-2.75,2.29-4.68,5.44-4.63C176.48,162.27,177.88,163.88,177.94,166.42Zm-3.55,1.7a3.84,3.84,0,0,0,.37-2.2c0-.21-1.11-.62-1.46-.44a4,4,0,0,0-1.94,1.68c-.23.54.37,1.43.8,2.8C173.26,169.09,174,168.73,174.39,168.12Z"/><path class="cls-6" d="M174.77,165.92a3.84,3.84,0,0,1-.37,2.2c-.36.61-1.13,1-2.23,1.84-.43-1.37-1-2.26-.8-2.8a4,4,0,0,1,1.94-1.68C173.66,165.3,174.74,165.71,174.77,165.92Z"/><path class="cls-8" d="M154.17,176.65c2.83,0,6.15,4.11,6.11,7.07a6.79,6.79,0,0,1-5.91,6.64c-3.07.32-6.1.3-8.42-2.16a11.27,11.27,0,0,1-1.46-2.41C145.23,178.76,148.51,176.62,154.17,176.65Z"/><path d="M159,132.55c.14,1.53-.61,2.7-1.81,2.84s-3.51-1.81-3.62-3.09a2.72,2.72,0,0,1,2.17-2.66A3.37,3.37,0,0,1,159,132.55Z"/><path class="cls-8" d="M150.87,167a3.1,3.1,0,0,1-.14,2c-1.93,5-9.27,7.53-13.8,4.88-2.28-1.34-3.08-6.69-1-8.78,1.85-1.88,4.09-3.42,7.2-3.34C145.76,161.71,150,164.43,150.87,167Z"/><path class="cls-9" d="M148.73,85a31.15,31.15,0,0,1-.73,17.14c-.75,2.18-1.05,4.51-1.64,6.74-.49,1.86-1.11,3.68-1.87,6.17-3.22-6.49-6-12.29-5.66-19q.77-17.21,1.52-34.42a2.93,2.93,0,0,1,.81-1.93c1,2.73,2.14,5.42,3,8.2C145.76,73.59,147.45,79.27,148.73,85Z"/><path class="cls-8" d="M132.69,176.2c3.82,0,8.67,5.31,8.49,9.22s-4.44,7-9.73,7c-3.18,0-6.94-3.72-6.51-7.6C125,180,128.49,176.15,132.69,176.2Z"/><path d="M137.71,129c-.39,1.58-.35,2.73-.89,3.27a3.35,3.35,0,0,1-2.67.86,3.22,3.22,0,0,1-1.94-2c-.14-.54.79-1.79,1.46-2C134.75,128.72,136,129,137.71,129Z"/><path d="M119.85,126.25c1.41,2.95.53,4.63-1.94,5.08-1.93.36-3.9.48-5.33.65-2.17-.21-3.79-.31-5.39-.53a3.13,3.13,0,0,1-1.21-5.58c2.33-2.1,8.77-3.09,11.57-1.64A5.2,5.2,0,0,1,119.85,126.25Zm-12.12,2.35c3.21.59,6.3,1.18,9.73-.7C113.49,125.47,109.47,125.83,107.74,128.6Z"/><path class="cls-7" d="M117.47,127.89c-3.43,1.89-6.52,1.29-9.73.7C109.47,125.83,113.49,125.47,117.47,127.89Z"/><path class="cls-1" d="M30.45,176.38c-.29,4.76,1.07,9.15.64,13.89-4.63-2.28-7-5.54-6.53-8.66S27.19,177.24,30.45,176.38Z"/><path class="cls-10" d="M279.61,176c2.7,8.47.89,13.63-6.54,17.07-1.36.63-2.77,1.12-4,1.62.09,5.14.38,10.13.2,15.09a99.47,99.47,0,0,1-1.38,12.1,15.82,15.82,0,0,1-1.87,4.85c-1.89,3.47-5.32,4.39-8.52,2a18.07,18.07,0,0,1-4.21-4.94,27.89,27.89,0,0,1-2-5l-14.51,22.5a7.22,7.22,0,0,1-1.22,1.69c-4.89,4.11-8.64,9.39-13.91,13.14-4.16,3-7.92,6.46-12.05,9.45a45.52,45.52,0,0,1-17.75,7.74c-9.67,2-19.27,4.26-29,6.14a45.88,45.88,0,0,1-10.06.57c-8.46-.27-16.9-.76-25.35-1.21a25,25,0,0,1-3.78-.62c-14.06-3-27.6-7.52-39.92-14.93-6.2-3.73-12.17-8-16.83-13.87-4.52-5.72-9.94-10.72-14.69-16.27-3.83-4.47-7.92-8.81-10.39-14.31-2.75-6.14-5.65-12.2-8.32-18.37a44.41,44.41,0,0,1-1.69-6.26c-1.23-.57-2.61-1.13-3.93-1.82a11.6,11.6,0,0,1-6.48-10,6.24,6.24,0,0,1,3-5.9,8.4,8.4,0,0,1,2.45-1.32c3.81-1.05,4.57-4,5.17-7.39a82.64,82.64,0,0,1,2.87-11.8c1.91-5.71,4.06-11.34,6.45-16.86a102.18,102.18,0,0,1,6-11.4A21.68,21.68,0,0,1,53,121.22a65.22,65.22,0,0,0,9.69-9.47c4.84-5.61,10.71-9.92,16.76-14,3.73-2.53,7.69-4.74,11.59-7a27.47,27.47,0,0,1,4.71-2.24c5.14-1.79,10.27-3.64,15.51-5.12,6.19-1.75,12.49-2.6,18.93-1.05a39.64,39.64,0,0,0,5.87.48c.13-1.54.38-3.1.38-4.67,0-3.95-.23-7.9-.15-11.84a28.36,28.36,0,0,1,3.47-12.18c2.29-.61,3,1,3.74,2.62A75.85,75.85,0,0,1,150.7,82c.06.56.23,1.11.37,1.79,1,.16,1.86.37,2.77.46,11,1.12,21.78,3.11,32,7.72,4.31,1.94,9,3.05,13.4,4.8a68.41,68.41,0,0,1,23.73,15.39,165.39,165.39,0,0,1,13.66,15.73,111.22,111.22,0,0,1,12.17,19.84,19.71,19.71,0,0,0,3.1,4.89c0-.92,0-1.84,0-2.76,0-2.78-.3-5.57-.08-8.32a5.14,5.14,0,0,1,1.89-3.09,18.9,18.9,0,0,1,4.51-2.58c2.16-.93,3.08-.47,4.7,1.45,3.63,4.32,4.78,9.54,5,14.91s-.22,10.92-.35,16.37c-.1,4.1.83,4.83,4.65,3.72C275.73,171.26,278.43,172.31,279.61,176Z"/><path class="cls-10" d="M224.16,177.92c1-9.16-1.1-17.68-5.13-25.86-1.94-3.94-4.93-7-7.8-10.18-4.48-5-8.28-10.38-14.15-14.21-6.72-4.39-13.94-7.3-21.38-9.83-8.3-2.82-16.41-5.82-22.61-12.41a20.14,20.14,0,0,0-2.65-1.92c-.35,2.1-.55,3.66-.89,5.2a43.1,43.1,0,0,1-1.68,6.7c-1,2.63-3.14,3.13-5.25,1.31a11.94,11.94,0,0,1-2.88-3.84c-1.23-2.62-2.15-5.38-3.36-8.51-1,1.42-1.77,2.59-2.64,3.65-2.7,3.31-5.9,5.76-10.32,6.42a82.77,82.77,0,0,0-21.5,6.75,67.92,67.92,0,0,0-19.54,13.13c-6.31,6.12-11.48,13.13-14.21,21.57a96.64,96.64,0,0,0-3.64,17.64c-1.21,9.62.89,18.69,3.84,27.59a60.39,60.39,0,0,0,8.93,16.42c3,4.09,5.82,8.45,10.7,10.71a9.69,9.69,0,0,1,1.38,1.05c3,2.13,6,4.34,9.12,6.34,2.43,1.56,5.17,2.65,7.53,4.3,5.55,3.87,11.85,5.09,18.38,5.7,2,.18,3.92.4,5.85.78,5.7,1.11,11.39,2.38,17.25,1.68,4.25-.51,8.48-1.2,12.72-1.84a82.47,82.47,0,0,0,28-10c3.54-2,6.93-4.22,10.39-6.35a17.2,17.2,0,0,0,2-1.43,77.36,77.36,0,0,0,17.14-19.94,28.47,28.47,0,0,0,4-10.61C222.74,191.29,223.41,184.6,224.16,177.92Z"/><path class="cls-10" d="M253.35,192.32a157.52,157.52,0,0,0-.92-22.21,60.55,60.55,0,0,0-3.33-15.25c-2.85-7.49-7.33-14.22-11.68-21-4-6.17-8.94-11.55-13.75-17.07a67.53,67.53,0,0,0-23.1-17c-4.73-2.17-9.76-3.67-14.59-5.66a96.32,96.32,0,0,0-24.37-6.65c-3-.39-6.18-.06-9.56-.06.14,1.29.27,2.5.37,3.44,7.86,1.47,15.24,3.07,22.69,4.17A40.83,40.83,0,0,1,189,99.46c8,4.4,16.1,8.8,23.92,13.59a58,58,0,0,1,11.22,8.75c6.54,6.7,11.15,14.8,15.24,23.19,4,8.23,6,17,7.26,26a72.82,72.82,0,0,1-.44,22.2c-.67,4-1,8.09-1.89,12a38.79,38.79,0,0,1-6.87,14.72c-4,5.26-7.42,11-11.72,15.95s-9.53,9.46-14.38,14.12a11,11,0,0,1-2,1.31c-2.36,1.41-4.85,2.65-7.08,4.25a70.05,70.05,0,0,1-18.34,9.77c-3,1-5.88,2.13-8.89,3a83.36,83.36,0,0,1-21.58,3.58c-5.91.08-11.82.32-17.73.22A41.35,41.35,0,0,1,125.31,271,168.14,168.14,0,0,1,107.9,265c-6.54-2.62-13.5-4.26-19.48-8.19-1.81-1.19-3.49-2.61-5.21-4-4.57-3.56-9.39-6.86-13.63-10.78-5.1-4.72-10.22-9.54-13.84-15.58-2.33-3.87-4-8.11-6.39-12-6.57-10.66-8.45-22.52-9-34.66-.16-3.87,1-7.79,1.41-11.69,1-9.17,4.69-17.52,8.57-25.66a73,73,0,0,1,10.23-15.31c7.1-8.42,14.69-16.43,24.57-21.8,4.78-2.6,9.49-5.35,14.23-8a46.09,46.09,0,0,1,18-5.23c6.07-.64,11.77-3.91,18.36-2,.11-1.73.18-2.94.27-4.35a18.12,18.12,0,0,0-2.16-.61c-7.94-1-15.76.08-23.57,1.35a16.72,16.72,0,0,0-4.38,1.07c-6,2.78-12.37,4.53-18.06,8.06-5.44,3.37-11,6.49-15.64,11-3.42,3.29-7,6.43-10.69,9.4-6.2,5-9.85,12-14.58,18.12a4,4,0,0,0-.47.93c-1.39,3.3-2.83,6.59-4.16,9.92A149.61,149.61,0,0,0,34.78,169a37.11,37.11,0,0,0-1.1,9.3c.26,5.79,1.06,11.55,1.65,17.32a10.77,10.77,0,0,0,.5,3.08c2.35,5.43,4.56,10.93,7.3,16.16a87.06,87.06,0,0,0,8,12.62c3.81,5,8.13,9.54,12.26,14.26,6.12,7,12.41,13.84,20.37,18.87,1.57,1,3,2.33,4.61,3.08,4.73,2.14,9.56,4.07,14.35,6.09a37.78,37.78,0,0,0,5.79,2.38c7.09,1.67,14.21,3.33,21.38,4.6a111,111,0,0,0,30.84.75c7.91-.82,15.73-2.87,23.48-4.79,4.71-1.17,9.23-3.11,13.82-4.75,6.39-2.28,12.49-5.22,17.53-9.81,6.08-5.54,12.46-10.76,17.72-17.19a146.73,146.73,0,0,0,13.74-20C252.09,212.1,253,202.16,253.35,192.32Z"/><path class="cls-10" d="M237.51,193.16c.54-8.65,2.84-17.2,1.2-26-.64-3.4-.81-7-2.09-10.15a134.68,134.68,0,0,0-8.93-18.83c-5.1-8.46-12.5-14.95-20.77-20.22-4.26-2.72-9.14-4.46-13.68-6.75-2.89-1.46-5.56-3.42-8.54-4.66A82.8,82.8,0,0,0,160,100c3,2.56,5.21,5.05,7.94,6.62a51.79,51.79,0,0,0,15.34,5.55,23.38,23.38,0,0,1,5.81,2.22c2.88,1.48,5.63,3.22,8.45,4.83,4.26,2.44,8.76,4.29,12.49,7.87,2.64,2.54,5.3,5.12,8,7.61A36.84,36.84,0,0,1,227,147.46a63.69,63.69,0,0,1,3.74,13,123.74,123.74,0,0,1,2.21,16.51c.27,4.61-.38,9.26-.57,13.9-.38,9.41-3.64,17.93-8.52,25.77-2.69,4.31-6.18,8.13-9.43,12.07a39.85,39.85,0,0,1-4.66,4.62,50.57,50.57,0,0,1-5,3.77c-3.07,2.06-6.14,4.17-9.36,6-2.72,1.52-5.85,2.34-8.48,4-7.89,4.92-16.81,6.59-25.69,8.28a128.18,128.18,0,0,1-14.87,1.65c-11.45.83-22.74.33-33.5-4.41-3.59-1.58-7.51-2.49-11-4.25-5.29-2.65-10.37-5.71-15.47-8.72A20.82,20.82,0,0,1,81.68,236c-5.15-5.52-10.55-10.87-15.07-16.88a46.76,46.76,0,0,1-6.82-13.6c-1.66-5.13-2.24-10.63-3-16-2-13.66-1.37-27.1,4.77-39.74,2.06-4.24,4.2-8.56,7.61-12,4.73-4.78,9.32-9.72,14.23-14.3a70.17,70.17,0,0,1,15.83-11.25,64,64,0,0,1,16.64-6,66.45,66.45,0,0,0,8.35-2.43c2.48-.85,3.64-2.85,4.23-5.53a19.39,19.39,0,0,0-2.33,0,52.71,52.71,0,0,0-16,4.61c-3.34,1.6-6.79,2.95-10.13,4.56a146.14,146.14,0,0,0-13.59,6.93A84.26,84.26,0,0,0,67.33,131a86.18,86.18,0,0,0-7.26,9.31c-3.8,5.84-6.32,12.35-8.81,18.82a26.81,26.81,0,0,0-2.12,8c-.4,8-.58,16,1.1,23.89.65,3,.63,6.25,1.42,9.24,1,3.68,2.54,7.2,3.77,10.82,3.76,11.13,11.21,19.31,20.55,26a68.37,68.37,0,0,1,6.12,5.12c3.87,3.54,7.82,6.9,12.91,8.62a47.59,47.59,0,0,1,7.45,2.86c4.73,2.55,9.44,5,14.92,5.37a9.53,9.53,0,0,1,1.31.44c3.83.9,7.62,2.17,11.5,2.6a164.93,164.93,0,0,0,28.52.77c6.62-.42,13.13-1.24,19.12-4.6,5.47-3.06,11.2-5.63,16.72-8.6a89.12,89.12,0,0,0,9.37-5.83c2.92-2.08,5.46-4.7,8.41-6.73,8.7-6,14.71-14.23,19.09-23.54C234.45,207.25,237,200.57,237.51,193.16Z"/><path class="cls-10" d="M230.72,182.07c1-9.31-.87-18.38-3.28-27.14-3.34-12.13-11-21.57-21.76-28.26-5.23-3.24-10.54-6.36-15.82-9.52a12.1,12.1,0,0,0-2.51-1.2c-2.88-.9-5.79-1.71-8.69-2.58-6.57-2-13-4-18.07-9.2a27.36,27.36,0,0,0-7.71-5.47c-1.2,1.18-.86,1.91,0,2.62a64.32,64.32,0,0,1,5.47,4.86c3.86,4.23,9,6.08,14.15,7.85,4.83,1.64,9.65,3.34,14.49,4.92s8.46,4.8,12.64,7.27a30.28,30.28,0,0,1,8.69,8.34,74.33,74.33,0,0,0,6.2,7.49,33.83,33.83,0,0,1,7.35,10.46c2.32,5.46,4.59,10.92,4.76,17a118.37,118.37,0,0,1-1.93,24.28c-.8,4.41-1.35,8.94-3.56,13-4.28,7.94-9.39,15.17-16.38,21-1.87,1.55-3.58,3.33-5.58,4.69-3,2-6.15,3.65-9.16,5.58-7.58,4.83-15.91,7.86-24.55,10.09A84.57,84.57,0,0,1,142,250.93a50.45,50.45,0,0,1-5.87-.62c-4.58-.66-9.15-1.47-13.74-2.06-5.21-.67-10.38-1.51-15-4.22-5.87-3.48-11.95-6.63-17.32-10.93-4.6-3.69-9.89-6.57-12.92-12-.79-1.4-2-2.57-2.8-4-2.67-4.59-5.48-9.13-7.78-13.91-1.18-2.44-1-5.51-2.11-8-3.11-7.25-3.07-14.92-2.16-22.32,1.25-10.08,3.24-20.1,9.17-28.94a76.12,76.12,0,0,1,14.22-15.59c6.8-5.77,14.87-9.35,23.2-12.31a77.58,77.58,0,0,1,9.66-2.69c7-1.5,12.58-4.63,15.1-11.81a20.1,20.1,0,0,1,1.57-2.91c-3.09-1.24-4.69.44-5.72,2.92a7.69,7.69,0,0,1-4.55,4.54,49.82,49.82,0,0,1-8.31,2.49c-9,1.51-16.87,5.6-24.28,10.74-7,4.86-12.81,11-18.89,16.92a55.9,55.9,0,0,0-10.85,15.53c-3,6-3.48,12.48-4.64,18.86a19,19,0,0,0-.46,5.87c1.16,8.27,2.49,16.51,3.88,24.74a28.87,28.87,0,0,0,1.65,5.29,54.75,54.75,0,0,0,10.61,17c8.27,9.36,17.45,17.34,29.36,21.71a7.32,7.32,0,0,1,1.25.6,47,47,0,0,0,13.46,5.31c4.06.94,8.19,1.55,12.31,2.25,14.52,2.46,28.75.53,42.73-3.33,5.2-1.43,10.15-3.88,15.11-6.09A68.33,68.33,0,0,0,199,238.32c7.06-4.86,13.69-10.27,19.06-17.12,5.91-7.54,10.46-15.6,11.52-25.27C230.13,191.33,230.2,186.68,230.72,182.07Z"/><path class="cls-10" d="M135.55,95.42c.49-1.59,0-2.49-1.32-2.49a63.78,63.78,0,0,0-8.25.39c-3,.39-5.91,1.15-8.86,1.75-1.82.37-3.64.72-5.46,1.1-9,1.88-16.51,7.16-24.45,11.42a59.91,59.91,0,0,0-14.94,11.24c-2.74,2.84-5.8,5.42-8.22,8.51C57.87,135.28,51.9,143.41,48.33,153c-1.4,3.75-3.59,7.3-2.87,11.59a3.38,3.38,0,0,1-.1,1.38,55.43,55.43,0,0,0-1.72,21,78.19,78.19,0,0,0,3.82,17.26c2.11,5.75,5,11.2,7.82,16.68a45.6,45.6,0,0,0,5.22,8.6,134.9,134.9,0,0,0,20.56,19.72,43.24,43.24,0,0,0,5.54,3.57c10.86,6.13,22.53,10.34,34.35,14.14a49.18,49.18,0,0,0,19.9,2.58,94.37,94.37,0,0,1,10.08-.4,86.76,86.76,0,0,0,29.31-5.16c4.75-1.62,9.41-3.31,13.77-6.26,7.26-4.9,15.17-8.76,21.6-14.94,4.86-4.69,9.84-9.21,13.35-15.08a31.78,31.78,0,0,1,2.13-2.75c5.88-7.75,10.81-15.94,12.18-25.81a68.64,68.64,0,0,1,1-6.89c1.65-6.78,1.09-13.56,0-20.31a97,97,0,0,0-7.9-26.91c-6-12.63-13.76-23.63-26-30.91-6.88-4.09-13.79-8.15-20.82-12a47.75,47.75,0,0,0-17.4-5.69c-5.27-.62-10.51-1.56-15.77-2.28a32.56,32.56,0,0,0-4.15,0c.3,2.63,1.9,2.54,3.36,2.77,5.72.9,11.56,1.37,17.11,2.9,6.67,1.84,13.41,3.76,19.17,8a30.09,30.09,0,0,0,5.57,2.88,84.19,84.19,0,0,1,14.92,8.12c5.56,4,10.12,8.86,14.53,14a10.48,10.48,0,0,1,1.92,2.9c3.38,8.58,9.19,16.17,10.71,25.51.71,4.33,1.83,8.73,1.6,13-.58,10.88-1.37,21.79-4.33,32.4-1.7,6.12-3.77,12-8.76,16.27a9,9,0,0,0-1,1.37c-1.92,2.47-3.68,5.07-5.8,7.35a71.36,71.36,0,0,1-6.94,6.28c-4.38,3.61-8.57,7.58-13.37,10.56-7.73,4.8-15.83,9.05-23.92,13.25a36.19,36.19,0,0,1-9.5,3.23,56.64,56.64,0,0,1-10.38.83c-5.79.07-11.59-.14-17.39-.17-10.49-.06-20.4-2.76-30.1-6.46-3.89-1.48-7.69-3.23-11.55-4.81-2.67-1.1-5.47-1.93-8-3.24a40,40,0,0,1-9.38-7.09c-3.41-3.26-7.67-5.61-11.26-8.71a62.5,62.5,0,0,1-21-36.76c-.4-2.16-.47-4.38-.67-6.58-.51-5.62-2.38-11.12-1.2-16.89.71-3.5.76-7.14,1.55-10.61,2.06-9.12,6.12-17.48,10.46-25.69A28,28,0,0,1,63,132.4c4.88-5.11,9.71-10.36,15.1-14.9a78.76,78.76,0,0,1,20.47-12.36c3.42-1.43,6.89-2.78,10.24-4.36a48.94,48.94,0,0,1,21.05-5C131.76,95.77,133.71,95.54,135.55,95.42Z"/><path class="cls-10" d="M144.48,115.08c.76-2.48,1.38-4.31,1.87-6.17.59-2.24.89-4.56,1.64-6.74A31.15,31.15,0,0,0,148.73,85c-1.28-5.76-3-11.44-4.63-17.11-.81-2.78-2-5.47-3-8.2a2.93,2.93,0,0,0-.81,1.93q-.77,17.21-1.52,34.42C138.52,102.79,141.26,108.59,144.48,115.08Z"/><path class="cls-10" d="M258.58,198.89l-.27,0c0,.58-.08,1.16-.08,1.74,0,2.55,0,5.11.11,7.65.08,1.26.49,2.64,2,2.9,1.32.22,1.68-1,2.13-1.91a19.52,19.52,0,0,0,1.56-9.17c-.21-7.19-.34-14.39-.53-21.58-.12-4.4-.15-8.81-.52-13.19a6.35,6.35,0,0,0-2-3.48,2.85,2.85,0,0,0-4.9,1.34,12.27,12.27,0,0,0-.42,4.14c.39,5.09,1,10.16,1.43,15.24C257.62,188,258.09,193.46,258.58,198.89Z"/><path class="cls-10" d="M264.2,159.59c.54-7.72.89-15-4-21.41-5.83,1.94-6.59,3.08-6.24,8.54.23,3.55.32,7.12.47,10.67,0,.61,0,1.22,0,1.92C260.71,157.57,260.71,157.57,264.2,159.59Z"/><path class="cls-10" d="M267.54,190.38c8.26.2,12.86-6.66,9.5-13.73-.67-1.42-1.58-2.19-3.26-1.8s-3.65.58-5.4,1.14a2.66,2.66,0,0,0-1.56,1.85C266.64,182,266.21,186.13,267.54,190.38Z"/><path class="cls-10" d="M263.75,224.53c.93-2,2.25-10.33,1.91-12.65-6.05,3.15-7.16,3-10-1.36-2,3.47-1.46,10.78,1.1,13.15a12.87,12.87,0,0,0,4.52,2.24C262.4,226.29,263.23,225.65,263.75,224.53Z"/><path class="cls-10" d="M31.09,190.27c.43-4.74-.93-9.13-.64-13.89-3.26.86-5.4,2.2-5.89,5.23S26.46,188,31.09,190.27Z"/></g></svg>