<svg id="圖層_1" data-name="圖層 1" xmlns="http://www.w3.org/2000/svg" viewBox="0 0 287.81 324.7"><defs><style>.cls-1{fill:#fff;}.cls-2{fill:#bf5145;}.cls-3{fill:#f3e7b8;}.cls-4{fill:#cf543f;}.cls-5{fill:#ddae1d;}</style></defs><title>chks</title><path d="M285.54,168.9c.61,3.11-3.57,7.11-7.63,7.26-4.76.18-9.44-.33-13.14-4a12.43,12.43,0,0,0-2.07-1.27,9.65,9.65,0,0,0-1.2,2.73c-.69,10.28-4.67,19.53-8.84,28.73a103.72,103.72,0,0,1-36.52,43.38,126.47,126.47,0,0,0-9.91,8.13c-12.26,10.39-26.75,15.66-42.35,18.24a147.81,147.81,0,0,1-19.13,2.28,143.74,143.74,0,0,1-20.51-.95c-8.92-1-17.78-2.58-26.67-3.93a8.46,8.46,0,0,1-1.64-.46A129.34,129.34,0,0,1,54.53,244.6a27.37,27.37,0,0,1-5-5.31c-5.88-9.11-11.75-18.23-17.28-27.55-4.69-7.9-5.59-17-7.09-25.82-.59-3.47-1.38-6.91-2.11-10.48-4.47,0-7.13,1.93-9.44,4.68C9.82,184.69,5,185.26.11,181.78a9.6,9.6,0,0,1-2.92-13.2c2.1-3.56,4.44-7,6.88-10.33,2.15-2.94,5.35-4.15,8.92-4.44,2.39-.2,4.79-.43,7-.63.22-.47.35-.61.33-.73-1.36-11.05,3.25-20.54,8.79-29.32A175.67,175.67,0,0,1,47.36,99.4c4.33-4.8,9.87-8.66,15.34-12.24C73.74,79.93,86,75.07,98.42,70.79c5.53-1.9,11-4.05,16.57-5.79,4.19-1.3,8.53-2.12,13.36-3.29,1-4.62,2.11-9.55,3.31-14.94,6.95,3.13,8.84,8.76,9.94,15.4l13.67,2.5c13.34,2.44,26.63,5.08,39.46,9.7,16.5,5.94,29.26,17,40.95,29.54,5,5.31,9.43,11.08,14.06,16.7,5.26,6.37,7.46,14.07,9,21.95,1.06,5.23,1.1,5.29,6.35,6.46a43,43,0,0,1,8.93,2.82C281.2,155.19,284.12,161.66,285.54,168.9Zm-5.11-2.41c.11-5-4.17-11.13-9.26-12.07-6.13-1.13-12.28-2.81-18.65-1.66-2.62.47-5.29.73-7.82,1.06l-1.82-3.49c-4.19,3-5.28,5.74-4.45,11.78.42,3,1.34,6,4.73,7.43l1.4-5c3.9-.12,7.61,0,11.28-.39,5.21-.56,9.22,1.6,12.57,5.15a8.28,8.28,0,0,0,6.9,2.66C278.93,171.76,280.35,170.21,280.44,166.49Zm-23.12,5.85a27,27,0,0,0-.24-2.77c-9.09-1.53-9.55-1.25-10.69,7.1L257,175.8C257.14,174.27,257.31,173.3,257.32,172.33Zm-2.4,14,1.81-7.66-11.19,1.11-1.41,6.55Zm.85-38.44c-.37-2.18-.72-4.22-1.12-6.57-6.49,2.28-7.61,3.5-6.86,7.29C250.33,148.71,252.94,149.23,255.76,147.88ZM254,138.14c-1.44-4.45-2.33-8.61-5.41-12.27l-6.5,5.21,3.72,9.85Zm-4,60.34,3.51-8.49-10.43-.52-2.05,6.64Zm-2,4.16-8-3.87-4.4,8.21,8,4.09Zm-1.13-79-7.25-9.34-5.21,4.78,6.25,9.24Zm-6,19.4,1.25-.6a41.06,41.06,0,0,0-.78-4.43c-2-7-5.85-13-10.41-18.55-9.79-12-21.89-21.29-34.68-29.76-2.39-1.58-5.17-2.57-7.82-3.86-1.32,3.35.26,4.5,2.54,5.29a48.83,48.83,0,0,1,21.25,14.68c2.43,2.81,5.11,5.4,7.77,8,6.61,6.43,12.46,13.38,16,22a27,27,0,0,0,2.48,4.5A25.58,25.58,0,0,0,240.94,143Zm1.12,38.17c.35-1.34.77-2.73-.78-4.16-1.08,3.1-2,5.92-3,8.72-4,10.94-9.28,21.21-16.92,30.09-4.92,5.72-10,11.28-15.29,16.7a37.59,37.59,0,0,1-7.7,6.1c-5.14,3.06-10.42,6-15.84,8.49s-11.07,4.61-16.66,6.76a18.93,18.93,0,0,1-5,1.06,209.7,209.7,0,0,1-48.31-.82,54.54,54.54,0,0,1-22.33-8.05c-15.53-9.94-29-21.75-37.88-38.25-.27-.5-.65-.94-.93-1.44-3.66-6.49-7.1-13-7.87-20.64a47.82,47.82,0,0,0-1.12-5.25l-1.45,0a12,12,0,0,0-.36,3.49c.74,3.77,1.18,7.73,2.72,11.17,2.43,5.44,5.66,10.53,8.55,15.76a105.47,105.47,0,0,0,23.23,28.93A54.23,54.23,0,0,0,93,250.56c3.64,1.25,7.3,2.45,10.91,3.78a72.66,72.66,0,0,0,25.56,4.8c10.71-.06,21.42-.55,32.13-1a36.47,36.47,0,0,0,7.18-1.12c14.35-3.51,26.71-10.71,37.39-20.78,4.88-4.6,9.47-9.52,14-14.46a63.57,63.57,0,0,0,5.94-7.82c2.27-3.42,4-7.26,6.5-10.48C237.77,196.87,240,189.12,242.05,181.21Zm-.19,32.93-7.85-4.6-7.57,10.67L232,227Zm-4.08-37c.89-2.66,1-4.79-.69-7.19-2.78-4-4.07-8.56-2.89-13.43a32.63,32.63,0,0,1,2.69-6.73,6.62,6.62,0,0,0,.29-6.17c-4.07-8.18-7.91-16.55-14.22-23.34-5.54-6-11.18-11.87-17-17.52C201,98,195.46,94.34,188,94.34c-1.6,4.6-1.38,6.12,1,8.39,3.75,3.5,7.37,7.13,11.23,10.5,8.59,7.5,15.38,16.47,21.69,25.88,3.12,4.65,5.15,9.46,4.92,15.18a77.34,77.34,0,0,0,.5,8.13c.51,7.82-.41,15.44-3.69,22.61-4.85,10.59-11.72,19.93-18.75,29.12a23.11,23.11,0,0,1-4,3.85c-6.8,5.44-13.54,11-20.56,16.16a35.13,35.13,0,0,1-9.8,5.08c-7.32,2.39-14.77,4.43-22.27,6.21a40.88,40.88,0,0,1-11,1c-6.27-.25-12.52-1-18.77-1.63-18.19-1.7-33.74-9.16-46.92-21.68-9.53-9-15.57-20-17.28-33.11-.4-3.08-.09-6.25-.27-9.37-.75-12.36.73-24.45,3.37-36.56,2.8-12.85,10.55-22.29,19.37-31.18,1.66-1.68,4-2.68,6-4,1.37-.9,2.72-1.83,4.34-2.91l-4.83-6.33c-.81.22-1.23.3-1.61.45-7.73,3-13.17,9.09-18.61,14.86-8.53,9.06-13.44,20.46-18.43,31.69-.61,1.36-.68,3.71.1,4.83,4,5.71,3.95,11.88,2.29,18.1A27.54,27.54,0,0,0,45.77,183c1.51,7,3.3,13.69,6.68,20.14,9.61,18.35,24,31.83,41.57,42.14a31.82,31.82,0,0,0,8.7,3.5c5.41,1.26,10.93,2.14,16.43,2.94,11.81,1.72,23.69.92,35.54.65a29.74,29.74,0,0,0,10-2c8.1-3.18,16.08-6.66,24-10.33,5.56-2.58,11-5.44,15.37-9.94,2.47-2.56,4.83-5.23,7.25-7.83A122.44,122.44,0,0,0,237.78,177.14Zm.22-65.07-5.32-6.69-5.92,5,5.7,6.42Zm-7.32-8.75-7.22-6.13-4.62,5.92,6,5.41ZM230,229l-6.26-5.66-6.44,7.28,3.84,6.34Zm-15.3-34.71a41.43,41.43,0,0,0,9.12-27c0-3.72-.41-7.43-.29-11.14a25.77,25.77,0,0,0-4.63-15.29C209,125.52,196.26,113,182,101.52c1.27-5.7,4.12-11.43,2.06-17.64-5.4-1.6-10.61-3.09-15.78-4.7A89.62,89.62,0,0,0,146.3,75.7a7,7,0,0,0-6.62,3c-3.2,4.28-4.64,4.39-8.56.79A5.64,5.64,0,0,0,125.34,78c-8.46,2-17,3.71-25.5,5.64-6.13,1.4-12.17,3.1-17.59,7.16a24.16,24.16,0,0,0,7,12.32c2.59,2.57,2.33,4.57-.61,6.72-1.49,1.09-3.2,1.87-4.78,2.85-1.82,1.12-3.89,2-5.35,3.51-8.8,9-16.47,18.54-18.61,31.54-1.64,10-4.19,19.74-3.35,30.09.83,10.19,2.23,20.13,6.25,29.57a27.14,27.14,0,0,0,3.37,6.4,66.22,66.22,0,0,0,22.66,18.64c11,5.35,22.4,9.32,34.71,10.15,9.27.62,18.6,1.42,27.66-1.36,7.9-2.42,16.31-4.09,23.38-8.07,14.14-8,26.6-18.28,35.47-32.29A76.35,76.35,0,0,1,214.73,194.27ZM216.28,101c2-2,4-3.53,4.44-6.47l-5.5-4.76-6,5.64Zm2.14,138-4.2-5.44-9.61,10.16,2.47,4.37ZM207.25,93.91l5.46-6.08-8.5-5.29-4,5.86ZM204.59,250l-2.42-4.66-6.23,4.94,2.64,4.42ZM197.49,86.7l4.35-5.41-9.28-3.81-3.08,5.07Zm-2,170.25-2-5.19-9.62,4.55c.51,2,1,3.75,1.52,6ZM176,77.12c6.86,3,10.62,2.9,13.39-.78L177.06,73Zm6.48,186-1.13-5.85L174,260.49l1.42,5.18ZM173,76.65l1.28-4.21-8.37-2-1.33,4.14ZM172.28,266l-1.09-4.66-11.9,1.07c.25,2.43.44,4.33.69,6.74C164.34,268,168.44,268,172.28,266Zm-10.62-192,1.27-4.2-9.47-2.14c-.22,2-.39,3.41-.57,5Zm-5,195.56v-7l-9,.57v7.57ZM149.84,72.45c.23-2,.39-3.37.64-5.53l-8.07-.79v5.53Zm-5.41,191.42H135c-.14,2.25-.27,4.28-.41,6.55H144C144.17,268.1,144.29,266.14,144.44,263.86ZM138.81,74.51a33.05,33.05,0,0,0-2.56-19.2c-.36-.84-1.16-1.5-2.45-3.1C132,59,130.44,64.79,130.4,70.74c0,2.17,1.6,4.52,2.91,6.48s3.27,1.6,4.53-.35A6.68,6.68,0,0,0,138.81,74.51Zm-7.56,196.26c.25-2.48.46-4.51.72-6.95l-12.52-1.21-1.17,6.88ZM126.65,74.24V65.61l-10.17,2.82,1.34,7.79ZM115,269.13l2-7.16-11.57-2.76-2.1,7.34Zm-.74-192.5c-.2-2.43-.36-4.37-.59-7l-6.18,2.29,1.21,6.21Zm-8.74,2c-.31-2-.56-3.75-.88-5.89L97.54,75.3l.77,4.83Zm-5.93,186.8,3-7.11-11.45-4.24-4.42,6.54C90.56,263.12,94.46,265,99.55,265.44ZM94.92,80.64c-.24-1.46-.41-2.54-.68-4.24l-10.38,4,1.42,3.85ZM83.56,258.81c1.73-2.12,3.08-4,3.63-6.37L77.26,247l-3.84,5.63Zm-1.9-172.4-1.35-4.95L69.2,87.26l2.62,6ZM78.31,97.33c2-1,2.58-2.49.85-4.79-1.88,1.19-3.89,2.06-5.39,3.47-5.91,5.58-12.23,10.86-17.3,17.13S47.19,126.84,43.11,134a19.3,19.3,0,0,0-2.72,11.39c1.07-2,1.75-3.19,2.38-4.42,2.59-5.09,5-10.28,7.78-15.25a64.14,64.14,0,0,1,6.92-10.27C63.5,108.43,69.66,101.45,78.31,97.33ZM70.36,250.54l4.44-5.71-6.52-5.77-5.92,5.19Zm-1-155.8L66.73,89l-8.95,6.16,4,6.29ZM59.59,241.89l6.13-5.55c-1.66-2-3.17-3.89-4.65-5.76s-2.89-3.74-4.38-5.67l-8.78,4.85Zm.24-138.31-4.68-7.19-9,9.62c3.61,3.69,3.93,3.87,8,4.79ZM54.78,222,48,210.42l-7.83,5.17a21.2,21.2,0,0,0,6.1,10.91Zm-7-102.37c1.12-1.79,2.31-3.53,3.68-5.61l-7.3-5.56-6.49,8.08c2.15,1.52,3.92,2.87,5.78,4.06A2.78,2.78,0,0,0,47.77,119.65Zm-1,88.16L41.61,198,33,200.42l5.15,12Zm-6.49-75.94,3.69-7.45L35.85,119,31,126.44C34.05,128.92,36.36,131.51,40.26,131.87ZM39,174.25c6.86-6.78,5.67-17.23-.95-20.88-1.67,3.81-2.24,4.11-5.78,3.6a26.59,26.59,0,0,0-4.67-.24c-4.13.16-8.27.26-12.36.71-1.92.21-4.3.65-5.52,1.9A94.63,94.63,0,0,0,.2,170.82c-1.6,2.27-.68,4.76,1.56,6.84s4,2.57,6.53,1S13,175,15.4,173.23c1.36-1,2.71-2.4,4.25-2.72,3.6-.76,7.32-1,11-1.42,3.86-.48,6.7.64,7.66,4.8C38.33,174.05,38.74,174.13,39,174.25Zm1.16,19.89-2.65-8.78-8.13,2.4,2.56,9.61ZM37.2,141.82c.61-2.24,1.16-4.27,1.78-6.57l-9.58-6c-2.35,4.26-4.22,8.26-4.73,13.25Zm-.95,3.62H23.84c.36,2.5.69,4.68,1,6.9H35Zm.5,36.6-2.29-8.47c-1.4,0-2.4-.07-3.38,0-2.66.24-3.15.73-3,3.52.15,2.51.59,5,.94,7.81Z"/><path class="cls-1" d="M271.18,154.42c5.1.94,9.37,7.12,9.26,12.07-.09,3.72-1.51,5.27-5.13,5.45a8.28,8.28,0,0,1-6.9-2.66c-3.35-3.55-7.37-5.71-12.57-5.15-3.66.39-7.38.27-11.28.39l-1.4,5c-3.39-1.43-4.32-4.38-4.73-7.43-.83-6,.26-8.78,4.45-11.78l1.82,3.49c2.54-.34,5.2-.59,7.82-1.06C258.9,151.61,265.05,153.28,271.18,154.42Z"/><path class="cls-2" d="M257.07,169.56a27,27,0,0,1,.24,2.77c0,1-.17,1.94-.32,3.47l-10.62.87C247.52,168.32,248,168,257.07,169.56Z"/><path class="cls-3" d="M256.73,178.66l-1.81,7.66H244.13l1.41-6.55Z"/><path class="cls-2" d="M254.64,141.31c.4,2.35.75,4.39,1.12,6.57-2.83,1.35-5.44.83-8,.72C247,144.8,248.15,143.58,254.64,141.31Z"/><path class="cls-3" d="M248.58,125.87c3.08,3.65,4,7.82,5.41,12.27l-8.19,2.8-3.72-9.85Z"/><path class="cls-2" d="M253.55,190,250,198.48l-9-2.38,2.05-6.64Z"/><path class="cls-3" d="M240.08,198.77l8,3.87-4.36,8.43-8-4.09Z"/><path class="cls-2" d="M239.66,114.3l7.25,9.34-6.22,4.69-6.25-9.24Z"/><path class="cls-2" d="M242.19,142.44l-1.25.6a25.58,25.58,0,0,1-2.39-2.73,27,27,0,0,1-2.48-4.5c-3.54-8.65-9.4-15.6-16-22-2.66-2.59-5.35-5.18-7.77-8A48.83,48.83,0,0,0,191,91.12c-2.27-.79-3.85-1.94-2.54-5.29,2.65,1.29,5.43,2.28,7.82,3.86,12.79,8.47,24.88,17.79,34.68,29.76C235.55,125,239.38,131,241.4,138A41.06,41.06,0,0,1,242.19,142.44Z"/><path class="cls-2" d="M241.27,177c1.55,1.43,1.13,2.82.78,4.16-2,7.91-4.28,15.66-9.47,22.3-2.52,3.21-4.23,7.05-6.5,10.48a63.57,63.57,0,0,1-5.94,7.82c-4.54,4.94-9.13,9.86-14,14.46-10.68,10.07-23,17.27-37.39,20.78a36.47,36.47,0,0,1-7.18,1.12c-10.71.43-21.42.91-32.13,1a72.66,72.66,0,0,1-25.56-4.8c-3.61-1.33-7.28-2.53-10.91-3.78a54.23,54.23,0,0,1-17.91-10.72A105.47,105.47,0,0,1,51.82,210.9c-2.9-5.23-6.12-10.31-8.55-15.76-1.54-3.44-2-7.4-2.72-11.17a12,12,0,0,1,.36-3.49l1.45,0a47.82,47.82,0,0,1,1.12,5.25c.77,7.6,4.2,14.16,7.87,20.64.28.49.66.94.93,1.44,8.85,16.5,22.36,28.31,37.88,38.25a54.54,54.54,0,0,0,22.33,8.05,209.7,209.7,0,0,0,48.31.82,18.93,18.93,0,0,0,5-1.06c5.59-2.14,11.24-4.22,16.66-6.76s10.69-5.43,15.84-8.49a37.59,37.59,0,0,0,7.7-6.1c5.25-5.42,10.36-11,15.29-16.7,7.64-8.87,12.9-19.15,16.92-30.09C239.26,183,240.19,180.15,241.27,177Z"/><path class="cls-2" d="M234,209.53l7.85,4.6L232,227l-5.54-6.79Z"/><path class="cls-3" d="M237.08,170c1.66,2.4,1.59,4.53.69,7.19a122.44,122.44,0,0,1-26.47,45.12c-2.42,2.6-4.78,5.27-7.25,7.83-4.34,4.5-9.82,7.37-15.37,9.94-7.89,3.66-15.88,7.15-24,10.33a29.74,29.74,0,0,1-10,2c-11.85.27-23.73,1.06-35.54-.65-5.51-.8-11-1.68-16.43-2.94a31.82,31.82,0,0,1-8.7-3.5c-17.61-10.31-32-23.79-41.57-42.14C49.07,196.68,47.27,190,45.77,183A27.54,27.54,0,0,1,46,169.6c1.66-6.22,1.69-12.39-2.29-18.1-.78-1.12-.71-3.46-.1-4.83,5-11.23,9.9-22.63,18.43-31.69,5.43-5.77,10.88-11.82,18.61-14.86.39-.15.8-.23,1.61-.45L87.12,106c-1.61,1.09-3,2-4.34,2.91-2,1.33-4.37,2.33-6,4-8.82,8.89-16.57,18.33-19.37,31.18-2.64,12.11-4.12,24.19-3.37,36.56.18,3.12-.13,6.29.27,9.37C56,203.14,62,214.08,71.56,223.13c13.18,12.51,28.73,20,46.92,21.68,6.25.58,12.5,1.38,18.77,1.63a40.88,40.88,0,0,0,11-1c7.49-1.78,14.95-3.82,22.27-6.21a35.13,35.13,0,0,0,9.8-5.08c7-5.17,13.75-10.71,20.56-16.16a23.11,23.11,0,0,0,4-3.85c7-9.2,13.9-18.53,18.75-29.12,3.28-7.17,4.2-14.79,3.69-22.61a77.34,77.34,0,0,1-.5-8.13c.23-5.72-1.8-10.53-4.92-15.18-6.31-9.41-13.1-18.38-21.69-25.88-3.86-3.37-7.49-7-11.23-10.5-2.42-2.27-2.65-3.78-1-8.39,7.5,0,13.07,3.71,18,8.43,5.86,5.65,11.5,11.55,17,17.52,6.31,6.79,10.15,15.16,14.22,23.34a6.62,6.62,0,0,1-.29,6.17,32.63,32.63,0,0,0-2.69,6.73C233,161.39,234.31,165.94,237.08,170Z"/><path class="cls-3" d="M232.68,105.38l5.32,6.69-5.53,4.77-5.7-6.42Z"/><path class="cls-2" d="M223.46,97.2l7.22,6.13-5.89,5.21-6-5.41Z"/><path class="cls-3" d="M223.77,223.32,230,229l-8.87,8-3.84-6.34Z"/><path class="cls-1" d="M223.86,167.23a41.43,41.43,0,0,1-9.12,27,76.35,76.35,0,0,0-4.69,6.65c-8.87,14-21.33,24.32-35.47,32.29-7.07,4-15.48,5.66-23.38,8.07-9.06,2.77-18.39,2-27.66,1.36-12.31-.83-23.72-4.8-34.71-10.15a66.22,66.22,0,0,1-22.66-18.64,27.14,27.14,0,0,1-3.37-6.4c-4-9.44-5.42-19.38-6.25-29.57-.84-10.35,1.71-20.11,3.35-30.09,2.14-13,9.82-22.59,18.61-31.54,1.46-1.49,3.53-2.39,5.35-3.51,1.58-1,3.29-1.76,4.78-2.85,2.94-2.14,3.2-4.15.61-6.72a24.16,24.16,0,0,1-7-12.32c5.42-4.07,11.46-5.77,17.59-7.16,8.49-1.93,17-3.61,25.5-5.64a5.64,5.64,0,0,1,5.79,1.47c3.93,3.6,5.36,3.49,8.56-.79a7,7,0,0,1,6.62-3,89.62,89.62,0,0,1,21.94,3.47c5.17,1.61,10.38,3.1,15.78,4.7,2.06,6.21-.79,11.94-2.06,17.64,14.29,11.46,27.07,24,37,39.28a25.77,25.77,0,0,1,4.63,15.29C223.45,159.8,223.82,163.51,223.86,167.23Zm-33.84,19a29.58,29.58,0,0,0,.39-18.95,73.52,73.52,0,0,0-3.94-9.93,14,14,0,0,0-3.72-4.54c-4.32-3.51-8.88-6.74-13.24-10.21-6.78-5.4-14.25-8.37-23.06-7.09-1.14.07-2.28.16-3.42.21-10.29.45-19.5,4-28,9.64a24.22,24.22,0,0,0-9.08,10.07c-2.77,6.1-5.62,12.2-7.8,18.52-1.51,4.4-3,9.25-2.68,13.75,1.19,15,8.55,26.45,22,33.56A113.46,113.46,0,0,0,130.83,227c6.91,2.59,14.14,3.06,21,.43,16.84-6.43,30.14-16.77,35.89-34.77C188.43,190.53,189.28,188.41,190,186.25Zm-24.5-79c1-1.71,1-3-.63-3.86a49.39,49.39,0,0,0-7-3.19c-1.29-.44-2.85-.08-4.29-.08l-.35,1.23A89.92,89.92,0,0,0,165.52,107.22ZM160.89,97c1.3.57,3.52-1.34,3.08-2.61a3.66,3.66,0,0,0-2.3-1.95c-1.22-.31-2.61,0-2.9,2.35C159.28,95.36,159.92,96.56,160.89,97Zm-40.35-5.1c.64-1.59-.41-2.6-2.12-3.23l-4.47,2.75c1.23,1.9,2.28,3.38,4.26,2.68A4.33,4.33,0,0,0,120.54,91.9Zm1.4,7.84c-3.91-2.86-7.83-1.85-12.36,3.09.67.42,1.43,1.27,1.92,1.14C115.1,103,118.86,102.33,121.94,99.74Z"/><path class="cls-3" d="M220.72,94.54c-.42,2.93-2.48,4.46-4.44,6.47l-7.08-5.58,6-5.64Z"/><path class="cls-2" d="M214.23,233.6l4.2,5.44-11.34,9.09-2.47-4.37Z"/><path class="cls-2" d="M212.7,87.83l-5.46,6.08-7.09-5.51,4-5.86Z"/><path class="cls-3" d="M202.16,245.38l2.42,4.66-6,4.7-2.64-4.42Z"/><path class="cls-3" d="M201.84,81.29l-4.35,5.41-8-4.15,3.08-5.07Z"/><path class="cls-2" d="M193.54,251.76l2,5.19-10.1,5.34c-.57-2.23-1-4-1.52-6Z"/><path d="M190.41,167.3a29.58,29.58,0,0,1-.39,18.95c-.74,2.16-1.59,4.29-2.29,6.46-5.76,18-19.06,28.34-35.89,34.77-6.87,2.63-14.1,2.15-21-.43a113.46,113.46,0,0,1-13.37-5.75c-13.44-7.11-20.8-18.58-22-33.56-.36-4.5,1.16-9.36,2.68-13.75,2.18-6.32,5-12.42,7.8-18.52A24.22,24.22,0,0,1,115,145.38c8.5-5.63,17.71-9.19,28-9.64,1.14,0,2.28-.14,3.42-.21,8.81-1.28,16.28,1.69,23.06,7.09,4.36,3.47,8.92,6.7,13.24,10.21a14,14,0,0,1,3.72,4.54A73.52,73.52,0,0,1,190.41,167.3Zm-2.57,16.57-1.15-1.07-4.15,2.83c.63,1.65.4,3.35,2.9,3.6Zm-4.65-4.31c2.09-1.16,3.7-2.12,3.49-4s-1.51-3.12-3.9-3.28C182.92,174.61,183,176.68,183.19,179.55Zm5-10-1.81-7.46C182.17,167.48,182.75,169.31,188.18,169.57Zm-9.52-6.25c2.5-1.63,3.71-3.94,3-5.45-.84-1.74-4.32-2.36-7.64-1.28Zm-2.38,28.58c7-12.36,4.22-26.56-6.69-34.53-1.49-1.09-2.74-2.56-4.31-3.51a70.63,70.63,0,0,0-9.7-5.25c-7-2.84-14-1.44-21.05.15a27.42,27.42,0,0,0-17.77,12.42A49,49,0,0,0,109,193.84a15.28,15.28,0,0,0,2,5.56,20.62,20.62,0,0,0,15.58,10.85c2.81.41,4.83,1.57,5.72,4.37,5.59.9,10.44-.36,15.32-1.42A42.22,42.22,0,0,0,176.29,191.9Zm-3.72,17.25c2.92-1.06,4.53-3,6.06-5.3a4.06,4.06,0,0,0-5.22-.36C171.56,204.81,172,206.83,172.57,209.14Zm2.29-57.6a7.35,7.35,0,0,0-5.8-3.65C168.47,152.33,169.82,153.2,174.86,151.54ZM168.52,214v-4.92c-3.23.1-5.35,1.1-6.68,4.53Zm-4.35-65.25c.76-4.23.55-5-1.53-6-2.56-1.22-5.11-.54-7.24,2Zm-4.76,68.44c-5.34-1.39-6-1-7.34,3.81C155,221.75,157.34,220.59,159.41,217.18Zm-8.09-77.68-4.88.55C149.5,142.1,149.5,142.1,151.33,139.5Zm-6.51,85.07,3.15-5c-3.45-1.61-3.5-1.61-10.23,1ZM144.61,144l.37-1c-1-.74-2-2-3-2.09-1.79-.11-2.91,1.22-3.26,3.43ZM133,142.56l-3.69.53C131.22,144.81,132.16,144.6,133,142.56Zm-7.84,6.11,3.07-1.79c-1.9-1.1-2.94-1.36-3.4.43C124.76,147.62,125,148,125.17,148.67Zm5.37,72.44c-2.91-4.46-4.73-4.69-7.46-1.24Zm-10.43-7.84c0-.34.07-.68.11-1l-4.35-2.48c-1.48,2-1.7,3.53.28,5.15Zm-.71-61.43c.16-1.51.27-2.64.49-4.72l-4.77,3.66Zm-12.78,10.24c4.86.49,5.19-.06,3.09-4.85Zm2.1,48,1-5.35-5.93,1Zm-1.32-37.52,2-5.13C105.2,168.3,105.2,168.3,107.39,172.6Zm-.89,27.89-1-3.29-1.1.27c.2,1.14.4,2.27.6,3.41Zm-.55-23.28L103,173.3c-2,2.37-2.66,4.45-1.7,7.4Z"/><path class="cls-2" d="M186.68,182.79l1.15,1.07-2.41,5.36c-2.5-.26-2.27-2-2.9-3.6Z"/><path class="cls-3" d="M186.68,175.56c.21,1.87-1.4,2.84-3.49,4-.16-2.87-.27-4.94-.41-7.28C185.16,172.44,186.47,173.72,186.68,175.56Z"/><path class="cls-2" d="M186.37,162.11l1.81,7.46C182.75,169.31,182.17,167.48,186.37,162.11Z"/><path class="cls-2" d="M189.42,76.34c-2.77,3.68-6.54,3.75-13.39.78l1-4.08Z"/><path class="cls-3" d="M181.38,257.32l1.13,5.85-7.1,2.5L174,260.49Z"/><path class="cls-3" d="M181.64,157.87c.73,1.51-.48,3.81-3,5.45L174,156.59C177.32,155.51,180.8,156.14,181.64,157.87Z"/><path class="cls-1" d="M169.59,157.37c10.91,8,13.67,22.17,6.69,34.53a42.22,42.22,0,0,1-28.68,21.3c-4.89,1.06-9.73,2.31-15.32,1.42-.88-2.79-2.9-4-5.72-4.37A20.62,20.62,0,0,1,111,199.4a15.28,15.28,0,0,1-2-5.56,49,49,0,0,1,7.73-32.66,27.42,27.42,0,0,1,17.77-12.42c7-1.59,14.08-3,21.05-.15a70.63,70.63,0,0,1,9.7,5.25C166.85,154.81,168.1,156.28,169.59,157.37ZM171,189.18c3.57-4.78,2.67-9.18-2.42-12.24a18.69,18.69,0,0,0-5-2.35,8.31,8.31,0,0,1-6.68-6.83,11.86,11.86,0,0,0-.42-1.21c-2.55-7.43-13.55-10.22-19.49-4.14a20.36,20.36,0,0,0-5.8,10.25c-.23,1.09-.51,2.17-.77,3.27-2.16.43-4.15.68-6.06,1.22-4,1.15-6.11,4.24-6.71,8.09a7.69,7.69,0,0,0,3.32,7.84,14.62,14.62,0,0,0,18.82-1.42,30.11,30.11,0,0,0,3.05-4.08l1,.71c.28.92.59,1.83.83,2.75,1,4.09,2.09,5.06,6.32,5.72a29,29,0,0,0,3,.36A19.11,19.11,0,0,0,171,189.18Z"/><path class="cls-2" d="M178.63,203.84c-1.53,2.33-3.14,4.24-6.06,5.3-.54-2.32-1-4.33.85-5.66A4.06,4.06,0,0,1,178.63,203.84Z"/><path class="cls-3" d="M174.26,72.44,173,76.65l-8.41-2,1.33-4.14Z"/><path class="cls-2" d="M169.05,147.89a7.35,7.35,0,0,1,5.8,3.65C169.82,153.2,168.47,152.33,169.05,147.89Z"/><path class="cls-2" d="M171.19,261.36l1.09,4.66c-3.84,1.94-7.95,1.94-12.3,3.15-.24-2.41-.44-4.31-.69-6.74Z"/><path d="M168.56,176.94c5.09,3.06,6,7.46,2.42,12.24a19.11,19.11,0,0,1-17.07,8,29,29,0,0,1-3-.36c-4.23-.66-5.29-1.63-6.32-5.72-.24-.93-.55-1.84-.83-2.75l-1-.71a30.11,30.11,0,0,1-3.05,4.08A14.62,14.62,0,0,1,121,193.09a7.69,7.69,0,0,1-3.32-7.84c.6-3.85,2.69-6.93,6.71-8.09,1.9-.54,3.9-.79,6.06-1.22.26-1.1.54-2.18.77-3.27a20.36,20.36,0,0,1,5.8-10.25c5.95-6.08,16.95-3.29,19.49,4.14a11.86,11.86,0,0,1,.42,1.21,8.31,8.31,0,0,0,6.68,6.83A18.69,18.69,0,0,1,168.56,176.94Zm-.4,9.5a4.17,4.17,0,0,0-1.16-6.09,36.53,36.53,0,0,0-6.1-3.11c-5.68.33-9.21,2.2-11.69,5.9-2.78,4.16-1.89,7.61,2.6,9.82a10,10,0,0,0,3.7.91C161.37,194.26,165.1,190.75,168.16,186.44Zm-17-11a6.44,6.44,0,0,0,2.3-7.5,7.54,7.54,0,0,0-6.55-4.68c-3.53-.09-7.65,2.44-10.13,6.22-2.16,3.29-1.77,5.77,1.34,8.1,2.45,1.83,5.18,2.44,8,1A31.85,31.85,0,0,0,151.16,175.44Zm-18.58,15.88c3.14-1.19,5.22-4.07,4.87-6.77-.3-2.39-2.5-4.09-6-4.61l-1.55-.24a43.79,43.79,0,0,0-6.1,2.34c-2.6,1.41-2.93,3.57-1.39,6.15A8.19,8.19,0,0,0,132.58,191.32Z"/><path class="cls-3" d="M168.52,209.07V214l-6.68-.39C163.18,210.17,165.29,209.17,168.52,209.07Z"/><path class="cls-4" d="M167,180.35a4.17,4.17,0,0,1,1.16,6.09c-3.06,4.31-6.79,7.82-12.65,7.43a10,10,0,0,1-3.7-.91c-4.5-2.21-5.38-5.67-2.6-9.82,2.48-3.71,6-5.57,11.69-5.9A36.53,36.53,0,0,1,167,180.35Z"/><path d="M164.89,103.36c1.58.82,1.63,2.15.63,3.86a89.92,89.92,0,0,1-12.22-5.9l.35-1.23c1.44,0,3-.36,4.29.08A49.39,49.39,0,0,1,164.89,103.36Z"/><path class="cls-3" d="M162.65,142.78c2.08,1,2.28,1.73,1.53,6l-8.76-4C157.54,142.24,160.09,141.56,162.65,142.78Z"/><path d="M164,94.39c.44,1.27-1.78,3.18-3.08,2.61-1-.43-1.61-1.63-2.13-2.21.29-2.38,1.68-2.66,2.9-2.35A3.66,3.66,0,0,1,164,94.39Z"/><path class="cls-2" d="M162.93,69.85l-1.27,4.2-8.77-1.3c.18-1.62.35-3.05.57-5Z"/><path class="cls-3" d="M156.62,262.58v7l-9,1.1v-7.57Z"/><path class="cls-2" d="M152.08,221c1.38-4.86,2-5.2,7.34-3.81C157.34,220.59,155,221.75,152.08,221Z"/><path class="cls-4" d="M153.46,167.94a6.44,6.44,0,0,1-2.3,7.5,31.85,31.85,0,0,1-5,3.18c-2.83,1.39-5.56.79-8-1-3.11-2.32-3.5-4.81-1.34-8.1,2.48-3.78,6.61-6.32,10.13-6.22A7.54,7.54,0,0,1,153.46,167.94Z"/><path class="cls-3" d="M150.48,66.92c-.25,2.15-.41,3.54-.64,5.53l-7.43-.79V66.13Z"/><path class="cls-2" d="M146.45,140l4.88-.55C149.5,142.1,149.5,142.1,146.45,140Z"/><path class="cls-3" d="M148,219.6l-3.15,5-7.08-4C144.47,218,144.52,218,148,219.6Z"/><path class="cls-3" d="M145,143l-.37,1-5.86.38c.34-2.21,1.46-3.54,3.26-3.43C143,141,144,142.28,145,143Z"/><path class="cls-2" d="M135,263.86h9.47c-.15,2.28-.27,4.24-.42,6.55h-9.47C134.7,268.14,134.82,266.11,135,263.86Z"/><path class="cls-5" d="M136.24,55.31a33.05,33.05,0,0,1,2.56,19.2,6.68,6.68,0,0,1-1,2.36c-1.26,1.95-3.26,2.24-4.53.35s-2.93-4.31-2.91-6.48c0-6,1.57-11.75,3.4-18.53C135.09,53.82,135.88,54.47,136.24,55.31Z"/><path class="cls-4" d="M137.45,184.55c.34,2.7-1.73,5.58-4.87,6.77a8.19,8.19,0,0,1-10.12-3.12c-1.54-2.58-1.21-4.74,1.39-6.15a43.79,43.79,0,0,1,6.1-2.34l1.55.24C134.95,180.46,137.15,182.17,137.45,184.55Z"/><path class="cls-2" d="M129.32,143.09l3.69-.53C132.16,144.6,131.22,144.81,129.32,143.09Z"/><path class="cls-3" d="M132,263.83c-.25,2.44-.46,4.47-.72,6.95l-13-1.28,1.17-6.88Z"/><path class="cls-3" d="M128.24,146.87l-3.07,1.79c-.17-.64-.41-1-.33-1.36C125.29,145.51,126.34,145.77,128.24,146.87Z"/><path class="cls-3" d="M126.65,65.61v8.63l-8.83,2-1.34-7.79Z"/><path class="cls-2" d="M123.07,219.86c2.73-3.45,4.55-3.22,7.46,1.24Z"/><path d="M118.42,88.67c1.72.63,2.76,1.64,2.12,3.23a4.33,4.33,0,0,1-2.33,2.19c-2,.7-3-.78-4.26-2.68Z"/><path class="cls-3" d="M120.21,212.25c0,.34-.08.68-.11,1l-4,1.66c-2-1.62-1.76-3.12-.28-5.15Z"/><path class="cls-2" d="M119.89,147.11c-.22,2.08-.33,3.22-.49,4.72l-4.28-1.06Z"/><path d="M109.59,102.82c4.53-4.94,8.45-5.95,12.36-3.09-3.08,2.6-6.84,3.27-10.43,4.23C111,104.1,110.26,103.24,109.59,102.82Z"/><path class="cls-2" d="M117,262l-2,7.16-11.67-2.57,2.1-7.34Z"/><path class="cls-2" d="M113.64,69.59c.22,2.68.39,4.62.59,7l-5.56,1.45-1.21-6.21Z"/><path class="cls-2" d="M109.7,157.23c2.1,4.8,1.76,5.34-3.09,4.85Z"/><path class="cls-2" d="M109.75,204.77l-1,5.35-4.89-4.31Z"/><path class="cls-3" d="M109.36,167.47l-2,5.13C105.2,168.3,105.2,168.3,109.36,167.47Z"/><path class="cls-3" d="M105.54,197.2l1,3.29-1.46.39c-.2-1.14-.4-2.28-.6-3.41Z"/><path class="cls-3" d="M104.6,72.75c.32,2.14.57,3.84.88,5.89l-7.16,1.5-.77-4.83Z"/><path class="cls-2" d="M103,173.3l2.91,3.91-4.61,3.49C100.37,177.74,101,175.67,103,173.3Z"/><path class="cls-3" d="M102.52,258.32l-3,7.11c-5.08-.45-9-2.32-12.9-4.81l4.42-6.54Z"/><path class="cls-2" d="M94.24,76.4c.27,1.7.45,2.78.68,4.24l-9.65,3.56-1.42-3.85Z"/><path class="cls-2" d="M87.19,252.45c-.55,2.37-1.9,4.24-3.63,6.37l-10.14-6.23L77.26,247Z"/><path class="cls-3" d="M80.31,81.46l1.35,4.95-9.84,6.83-2.62-6Z"/><path class="cls-2" d="M79.15,92.54c1.74,2.3,1.18,3.83-.85,4.79-8.64,4.12-14.81,11.1-20.84,18.15a64.14,64.14,0,0,0-6.92,10.27c-2.8,5-5.2,10.16-7.78,15.25-.63,1.23-1.31,2.43-2.38,4.42A19.3,19.3,0,0,1,43.11,134c4.08-7.18,8.19-14.48,13.35-20.88S67.86,101.59,73.77,96C75.26,94.6,77.27,93.73,79.15,92.54Z"/><path class="cls-3" d="M74.8,244.83l-4.44,5.71-8-6.29,5.92-5.19Z"/><path class="cls-2" d="M66.73,89l2.61,5.75-7.51,6.7-4-6.29Z"/><path class="cls-2" d="M65.72,236.34l-6.13,5.55L47.91,229.76l8.78-4.85c1.49,1.93,2.92,3.82,4.38,5.67S64.06,234.29,65.72,236.34Z"/><path class="cls-3" d="M55.15,96.39l4.68,7.19-5.68,7.22c-4.07-.91-4.39-1.1-8-4.79Z"/><path class="cls-3" d="M48,210.42,54.78,222l-8.52,4.47a21.2,21.2,0,0,1-6.1-10.91Z"/><path class="cls-2" d="M51.45,114c-1.36,2.07-2.56,3.82-3.68,5.61a2.78,2.78,0,0,1-4.33,1c-1.86-1.19-3.63-2.54-5.78-4.06l6.49-8.08Z"/><path class="cls-2" d="M41.61,198l5.14,9.83-8.59,4.56-5.15-12Z"/><path class="cls-3" d="M43.95,124.42l-3.69,7.45c-3.9-.36-6.21-2.95-9.21-5.43l4.8-7.48Z"/><path class="cls-1" d="M38,153.36c6.62,3.66,7.81,14.11.95,20.88-.24-.12-.64-.2-.67-.36-1-4.17-3.8-5.28-7.66-4.8-3.67.45-7.39.66-11,1.42-1.54.32-2.9,1.7-4.25,2.72C13,175,10.82,177.1,8.3,178.67s-4.27,1.09-6.53-1-3.16-4.57-1.56-6.84a94.63,94.63,0,0,1,9.49-11.48c1.22-1.26,3.6-1.69,5.52-1.9,4.1-.45,8.24-.55,12.36-.71a26.59,26.59,0,0,1,4.67.24C35.78,157.47,36.36,157.17,38,153.36Z"/><path class="cls-3" d="M37.48,185.35l2.65,8.78-8.22,3.22-2.56-9.61Z"/><path class="cls-2" d="M39,135.25c-.62,2.3-1.17,4.32-1.78,6.57l-12.53.65c.51-5,2.39-9,4.73-13.25Z"/><path class="cls-3" d="M23.84,145.44H36.25L35,152.33H24.85C24.52,150.12,24.2,147.93,23.84,145.44Z"/><path class="cls-2" d="M34.46,173.57,36.75,182l-7.7,2.87c-.35-2.8-.79-5.3-.94-7.81-.18-2.8.31-3.28,3-3.52C32.07,173.49,33.06,173.57,34.46,173.57Z"/></svg>