<svg id="圖層_1" data-name="圖層 1" xmlns="http://www.w3.org/2000/svg" viewBox="0 0 287.81 324.7"><defs><style>.cls-1{fill:#231815;}.cls-2{fill:#abbfc4;}.cls-3{fill:#231916;}.cls-4{fill:#fff;}.cls-5{fill:#525958;}.cls-6{fill:#256d82;}.cls-7{fill:#e6aa2b;}.cls-8{fill:#231915;}.cls-9{fill:#b9392b;}.cls-10{fill:#717e93;}.cls-11{fill:#cf543f;}.cls-12{fill:#fefefe;}</style></defs><title>chks</title><path class="cls-1" d="M146,168.09a12.06,12.06,0,0,0-.45,2.13l-.3.21c-.71-1.9,1-3.36,1-5.13a4.21,4.21,0,0,1,.4-1.25C147.05,165.49,146.32,166.78,146,168.09Z"/><path class="cls-1" d="M162.59,180.57c.28,2,1.09,4.4-.86,5.91s-4.18.18-6.09-.71a103.36,103.36,0,0,1-12.28-6.38c.23-1.37.93-2.58,1.25-3.91.52.21,1.06.41,1.56.66,3.14,1.55,6.27,3.13,9.42,4.68.69.34,1.73,1,1.56-.6-.51-5-1.1-10.06-1.71-15.09-.15-1.23-.61-1.66-1.86-.7-2.62,2-5.37,3.86-8.07,5.77a12.06,12.06,0,0,1,.45-2.13c.35-1.31,1.09-2.6.61-4,2.41-1.75,4.77-3.6,7.27-5.23,3.32-2.16,5.1-1.34,5.73,2.51C160.61,167.74,161.69,174.14,162.59,180.57Z"/><path d="M274.38,71.64c6.72,4.67,10.36,11,9.45,19.35-.83,7.56-4.87,12.85-12.2,15.46-4.28,1.52-4.7,2.35-4.13,6.83a11.78,11.78,0,0,0,1.09,3.87c2.47,5,2.17,9.94.09,15-4.41,10.72-10.61,20.14-20,27.2-3.37,2.54-4.69,5.65-4.55,9.86.3,9.07.26,18.14-1.69,27.1-2.36,10.88-4.29,21.87-8,32.43-7.7,22.16-22.26,38.93-41.27,52.12a17.12,17.12,0,0,0-6.18,7.47c-2.78,6.36-5.77,12.64-8.61,19A51.75,51.75,0,0,1,171.09,319c-1.39,1.69-3.08,2.6-5.32,2-3-.74-4.06-2.74-3.4-6.49a114.38,114.38,0,0,1,3.4-14.86c.4-1.26.68-2.56,1.07-4.09-5.6.85-11,1.27-16.48,1.6-8.61.51-17.22,1.13-25.84,1.48-4.81.19-9.53-1-14.28-1.59-2.2-.28-2.77.22-1.83,2.2,3,6.31,2.21,13.07,2.41,19.69.09,3.13-2.39,4.27-5.62,2.88-3.66-1.58-5.9-4.47-7.33-8.09-2.29-5.76-4.62-11.5-6.89-17.28a12.72,12.72,0,0,0-6.88-7.26c-8.68-4-16.23-9.86-23.94-15.41-3.64-2.62-7.66-4.68-11-7.72-6.2-5.6-10.84-12.37-15-19.55-2.2-3.82-4.16-7.77-6.5-11.52S24.91,226.9,25,222.5c0-1.94.68-4.64-.31-5.62s-3.53.52-5.41.85c-1.1.19-2.23.33-3.3.64a5.58,5.58,0,0,1-6-1.95c-2.15-2.41-4.26-4.85-6.41-7.25C-.15,205.09,0,200.22.86,195.35c2.92-16.5,11.35-30.08,22.71-42,1.09-1.14,2.16-2.31,3.32-3.36a28.5,28.5,0,0,0,7.54-12c6-16.8,15-31.75,28.07-44.09,3.28-3.1,7.24-5.31,11.06-7.68A2.87,2.87,0,0,0,75,83.89c.77-5.18,1-10.43,2.5-15.5a31.19,31.19,0,0,1,9.87-15.74c5.15-4.3,6.87-9.68,5-16.1-1.94-6.81-2.43-13.85-3.54-20.8-.7-4.34,1-7.72,4.45-10.38a2.13,2.13,0,0,1,3.16.07,24.75,24.75,0,0,1,4.32,5.15c.86,1.31,1.66,2.66,2.64,4.24.91-1.31,1.62-2.46,2.47-3.5,2.23-2.7,4.77-2.72,7,0A15.93,15.93,0,0,1,115,14.76c.69,1.54,1.21,1.33,2,.1a41.19,41.19,0,0,1,2.61-3.66c1.57-1.95,3.13-2.08,5-.41a10.65,10.65,0,0,1,3.57,5.82c1.21,5.63,2.63,11.23,3.08,17,.1,1.27.91,1.39,1.72,1.67,6.41,2.27,12.78,4.64,19.24,6.73a21.36,21.36,0,0,1,10.06,6.82,110.78,110.78,0,0,1,14.36,22.72c.66,1.35,1.36,1.9,2.91,1.68,5.69-.76,10.75-3.17,15.56-6.05a35.86,35.86,0,0,1,12.78-4.58c2.9-.48,4.27.9,3.5,3.71-2.16,7.77-5.58,14.7-13.06,18.82-2.28,1.25-4.46,2.69-7,4.24,1.58,1,2.93,1.86,4.31,2.69,6.54,4,12.59,8.28,17.87,14.1,4.64,5.11,7.66,11.15,11.91,16.39,4.49,5.54,7.13,12,9.49,18.68.87,2.46,1.34,2.51,3.46,1.1a59,59,0,0,0,16-15.93c1.62-2.34,3.17-4.73,4.81-7.06a19.64,19.64,0,0,0,3.39-8.21c.35-2.12-.29-3.28-2.16-4a23.49,23.49,0,0,1-3.2-1.6,14.26,14.26,0,0,1-6.94-15.14c.38-2.22.78-4.43,1.24-6.63C252.92,76.67,261.2,70,268.41,70A10.16,10.16,0,0,1,274.38,71.64Zm-1.22,27.75c4.85-3.47,6.47-10.25,4.17-16.3-2-5.27-6.25-7.11-11.69-6-5.71,1.12-10.18,7.41-10.12,13.65,0,5.44,2.3,9.49,6.18,10.65A12.72,12.72,0,0,0,273.16,99.39Zm-8.32,26.24c.27-1.49.22-3.08-1.32-3.68s-2.19.94-2.73,2c-5.37,10.74-14.1,18.46-23.22,25.83a6.21,6.21,0,0,1-4.54,1.54,4.07,4.07,0,0,0-3.92,1.76c-3,5-5.86,10-6.67,15.59a24.16,24.16,0,0,0,.59,5.21c1.54,5.34,5,9.26,9.11,12.74a5,5,0,0,0,4.42,1c1-.2,1.34-.59,1.37-1.59.18-6,1.07-11.94.88-17.94a11.07,11.07,0,0,1,4.81-9.79,56.09,56.09,0,0,0,13-13.6A49.63,49.63,0,0,0,264.85,125.63ZM236,197.8c1.09-4.7,1.09-4.7-3.23-6.78l-1.6-.8c-11.27-5.35-13.06-15.08-11.9-24.92.81-6.85,4.16-12.67,8.6-17.9,1-1.17,2.07-2.4,2-4.31a6.44,6.44,0,0,0-2.53-4.64c-1-.66-2.14.91-3.13,1.65-.54.4-1.09.78-1.59,1.23-7.33,6.5-9.79,15.1-10.33,24.44-.23,4.11-.08,8.25,0,12.37a24.08,24.08,0,0,0,3.59,12.3c3.26,5.42,8.52,8.17,14.2,10.35C234.88,202.66,234.86,202.7,236,197.8Zm-1.81,10.74c.1-.87.92-2.14-.81-2.51-5.55-1.17-10.45-3.83-15.25-6.72a19.68,19.68,0,0,1-8.11-9.56c-2.1-5-2.76-10.23-3-15.53-.5-12.23,2-23.63,10-33.32,2.14-2.6,4.59-4.95,6.85-7.45,1.08-1.2,1.74-2.5.1-3.84a2.31,2.31,0,0,1-.51-1c-2.54-6.52-5.81-12.49-11.15-17.3-5-4.51-9.64-9.41-15.54-12.84a19.56,19.56,0,0,1-2.55-1.83,24.46,24.46,0,0,0-18.44-5.41,27,27,0,0,1-20.24-6.06,17.44,17.44,0,0,0-13.14-4c-2.6.27-5.19.63-7.78,1-6.67.84-13.34,1.72-20,2.54S101,86.32,94.14,87.13C90,87.61,86,88,81.89,88.61c-4.36.66-7.41,3.73-10.66,6.33-12.07,9.66-21.51,21.34-27.3,35.81-.68,1.69-.59,2.79,1,3.91,5.38,3.8,9.07,9.07,12.34,14.67,4,6.9,6.52,14.29,6.18,22.33-.56,13.17-6.7,23.77-15.88,32.83-3.85,3.8-8.74,5.92-13.55,8.13a4.82,4.82,0,0,0-3.08,5,77.71,77.71,0,0,0,1.43,13.13c2.45,11.43,10.25,19.53,17.16,28.2a8.16,8.16,0,0,0,1.75,1.41c5.49,3.89,10.94,7.85,16.5,11.63,8,5.49,15.65,11.59,25.28,14.54,11,3.36,21.79,7.27,32.44,6.89a111.08,111.08,0,0,0,21.17-1.86c7.82-1.41,15.81-2.16,23.26-5.27a6.76,6.76,0,0,1,2.16-.53,15.9,15.9,0,0,0,8.61-3.4,114.88,114.88,0,0,1,10-7.21c10-5.85,18.07-13.81,24.77-23.16,3.93-5.49,8.5-10.63,10.62-17.27,1.28-4,2.79-8,4.07-12C231.68,218,233.61,213.46,234.18,208.54ZM191.72,84c7.67-2.8,11.82-8.75,14.83-16.49a119.85,119.85,0,0,1-14.61,6.39c-10.27,3.9-20.55,7.81-31.89,4.74-1.4-.38-2.79.22-4,1.56,7.5,3.79,14.6,8,23.45,6.1C183.52,85.38,187.76,85.42,191.72,84ZM179.89,290.6c.17-.35.24-.7-.14-1a.82.82,0,0,0-1-.1c-2.06,1.44-4.46,2.46-5.54,5-2.39,5.71-4.26,11.6-6.25,17.44a3.92,3.92,0,0,0-.15,1.11c0,2.14.15,2.64.83,2.76,1.09.19,1.33-.8,1.8-1.41C174.87,307.36,176.15,298.44,179.89,290.6ZM171.38,75.47c1.95-.07,2.4-.5,1.49-2.29-2.68-5.26-5.54-10.42-8.72-15.39A26.71,26.71,0,0,0,157.65,51c-9.2-7-19.81-9.67-31.08-10.35-4.26-.23-8.33.82-12.46,1.41-10.54,1.48-18.41,7.21-25,15.18-5.27,6.37-6.77,14.15-8.31,21.89-.69,3.5.12,4.21,3.81,4.39h.23a44,44,0,0,0,10.45-.86c8.22-1.33,16.51-2.3,24.7-3.8A323.82,323.82,0,0,1,153.07,75a35.13,35.13,0,0,1,8.7-.12A47.5,47.5,0,0,0,171.38,75.47Zm-47-38.85c1.68-.35,3.72-.48,3.21-3.19a12.12,12.12,0,0,1,0-2.42c.14-5.14-.63-9.81-3.25-14-1.55-2.48-2.22-2.45-3.6.09-3.07,5.68-2.48,11.71-1.41,17.7C119.7,36.75,121.42,37.25,124.42,36.62Zm-12,1.4a2.82,2.82,0,0,0,2.6-3.29c-.09-1.26-.26-2.51-.44-3.76-.59-4.26-.82-8.57-1.81-12.77a5.69,5.69,0,0,0-2.34-3.67c-1-.64-1.51-.87-1.77.62-.41,2.34-1.15,4.63-.86,6.67-.18,5,1.26,9.33,2,13.79C110,37,110.58,38.3,112.39,38Zm-6.76,278.47c1.38-.27.58-1.78.91-3a87.59,87.59,0,0,0-3.77-16.2c-.85-2.4-3.06-3.47-5.79-3.34-1.24.06-1.75.38-1.18,1.76,1.22,3,2.29,6,3.45,9,1.23,3.19,2.39,6.42,3.8,9.54C103.5,315.21,104.16,316.79,105.63,316.49Zm-2-276.38c2.63-1.34,3-2.19,2.12-5-1.37-4.33-2.65-8.7-4.13-13-1.13-3.29-1.64-6.85-3.8-9.74-.57-.77-1.15-2.24-1.91-1.95-1.09.42-1.73,1.77-2,3.05-.06.28,0,.6,0,.9a26.42,26.42,0,0,0,0,6.69,67.06,67.06,0,0,0,2.92,16.22c2.06,6.34,1.4,5.16,6.66,2.91Zm-59,159.64c8.8-8,13.93-17.57,13.7-29.67a45.92,45.92,0,0,0-.42-6.94c-2-10.49-7-18.91-16.12-24.8-1.49-1-2.08-.59-2.87.83-1.55,2.78-1.23,5.12.76,7.58,6.47,8,9.88,17,8.74,27.54S42.74,192.7,32.78,197a4.24,4.24,0,0,0-2.59,3.11,18.07,18.07,0,0,0-.32,4.9c.05,2.33.73,2.77,3,2A34.57,34.57,0,0,0,44.59,199.74Zm-1-26.75c.64-7.62-.13-14.92-4.92-21.31-1.78-2.37-3.44-2.63-5.56-.5-7,7-13.8,14.13-19,22.64-4.22,6.9-8.19,13.91-8.69,22.2-.41,6.78,2,12.44,7.63,16.49a6.28,6.28,0,0,0,6.55.68c1.07-.46,1.51-1,.77-2.16-1.06-1.71-1.89-3.55-2.93-5.28a15.38,15.38,0,0,1-1.56-13.31c1.93-5.81,5.5-10.71,8.9-15.69a4.13,4.13,0,0,1,1.38-1.12c2.23-1.26,4.07-.28,4.15,2.26.07,2.09,0,4.19,0,7.19-.07,1.27-.22,3.44-.32,5.61C30,192,30,193,31.81,191.91a50,50,0,0,1,5.31-2.86,8.26,8.26,0,0,0,4.46-5.56A53.6,53.6,0,0,0,43.62,173Zm-20.8,33V189.41C19.82,195.45,19.82,202.27,22.82,206Z"/><path class="cls-2" d="M277.33,83.09c2.31,6.06.68,12.84-4.17,16.3a12.72,12.72,0,0,1-11.46,2c-3.88-1.16-6.13-5.22-6.18-10.65-.05-6.24,4.41-12.53,10.12-13.65C271.08,76,275.32,77.81,277.33,83.09Zm-2.77,11.6a5.42,5.42,0,0,0,.86-4.27c-.41-1.63-1.55-2.11-3-1.23a4.61,4.61,0,0,0-1.39,1.73c-1.62,2.74-3.74,4.63-7.19,4.51a2.24,2.24,0,0,0-2.46,2.13c-.12,1.3.9,2,2,2.41a7.48,7.48,0,0,0,1.82.25A10.59,10.59,0,0,0,274.56,94.68Z"/><path class="cls-3" d="M275.42,90.42a5.42,5.42,0,0,1-.86,4.27,10.59,10.59,0,0,1-9.34,5.54,7.48,7.48,0,0,1-1.82-.25c-1.09-.4-2.11-1.11-2-2.41a2.24,2.24,0,0,1,2.46-2.13c3.45.12,5.57-1.77,7.19-4.51a4.61,4.61,0,0,1,1.39-1.73C273.86,88.31,275,88.79,275.42,90.42Z"/><path class="cls-4" d="M263.53,121.94c1.54.61,1.59,2.2,1.32,3.68a49.63,49.63,0,0,1-8.26,19.12,56.09,56.09,0,0,1-13,13.6,11.07,11.07,0,0,0-4.81,9.79c.19,6-.69,12-.88,17.94,0,1-.34,1.39-1.37,1.59a5,5,0,0,1-4.42-1c-4.09-3.48-7.57-7.4-9.11-12.74a24.16,24.16,0,0,1-.59-5.21c.81-5.57,3.68-10.62,6.67-15.59a4.07,4.07,0,0,1,3.92-1.76,6.21,6.21,0,0,0,4.54-1.54c9.12-7.37,17.85-15.09,23.22-25.83C261.34,122.88,261.94,121.32,263.53,121.94Z"/><path class="cls-5" d="M232.76,191c4.32,2.08,4.32,2.08,3.23,6.78-1.13,4.9-1.12,4.86-5.95,3-5.68-2.18-10.94-4.93-14.2-10.35a24.08,24.08,0,0,1-3.59-12.3c0-4.13-.19-8.26,0-12.37.54-9.34,3-17.94,10.33-24.44.5-.44,1.05-.83,1.59-1.23,1-.74,2.17-2.31,3.13-1.65a6.44,6.44,0,0,1,2.53,4.64c0,1.9-1,3.13-2,4.31-4.44,5.23-7.8,11.05-8.6,17.9-1.16,9.84.63,19.57,11.9,24.92Z"/><path class="cls-4" d="M233.37,206c1.73.37.91,1.64.81,2.51-.57,4.92-2.5,9.46-4,14.13-1.27,4-2.78,8-4.07,12-2.12,6.64-6.69,11.78-10.62,17.27-6.7,9.35-14.73,17.31-24.77,23.16a114.88,114.88,0,0,0-10,7.21,15.9,15.9,0,0,1-8.61,3.4,6.76,6.76,0,0,0-2.16.53c-7.45,3.11-15.44,3.86-23.26,5.27a111.08,111.08,0,0,1-21.17,1.86c-10.65.38-21.45-3.53-32.44-6.89-9.63-3-17.23-9.05-25.28-14.54-5.56-3.79-11-7.74-16.5-11.63a8.16,8.16,0,0,1-1.75-1.41c-6.91-8.67-14.72-16.77-17.16-28.2a77.71,77.71,0,0,1-1.43-13.13,4.82,4.82,0,0,1,3.08-5c4.81-2.2,9.7-4.32,13.55-8.13,9.18-9.06,15.32-19.66,15.88-32.83.34-8-2.16-15.43-6.18-22.33-3.27-5.6-7-10.87-12.34-14.67-1.6-1.13-1.68-2.22-1-3.91,5.8-14.47,15.23-26.15,27.3-35.81,3.24-2.6,6.29-5.68,10.66-6.33C86,88,90,87.61,94.14,87.13c6.83-.81,13.66-1.59,20.49-2.42s13.34-1.69,20-2.54c2.59-.33,5.18-.68,7.78-1a17.44,17.44,0,0,1,13.14,4,27,27,0,0,0,20.24,6.06,24.46,24.46,0,0,1,18.44,5.41,19.56,19.56,0,0,0,2.55,1.83c5.89,3.42,10.53,8.33,15.54,12.84,5.34,4.81,8.61,10.77,11.15,17.3a2.31,2.31,0,0,0,.51,1c1.64,1.35,1,2.64-.1,3.84-2.26,2.5-4.72,4.85-6.85,7.45-8,9.69-10.48,21.09-10,33.32.22,5.31.87,10.56,3,15.53a19.68,19.68,0,0,0,8.11,9.56C222.92,202.2,227.82,204.86,233.37,206Zm-23.45,12.44c.56-4.31.9-8.62-.28-12.93-.35-1.27-.69-1.66-2.06-1.58-6.81.38-13.61.81-20.44.74-5.85-.06-11.69,0-17.54.11-4.57.08-5.57,1-6.5,5.42a75,75,0,0,0-1.35,10.45c-.16,2.49.57,3.36,3,3.84a62.47,62.47,0,0,0,14.62,1.37c8.3.1,16.17-1.14,24.1-1.56C207.69,224.14,209.41,222.37,209.92,218.47ZM178,110a2,2,0,0,0,1.84-2.17,2,2,0,0,0-2-2,20.88,20.88,0,0,0-3.34.2c-3.11.41-6.22.82-9.31,1.32a2.28,2.28,0,0,0-2,2.55c0,1.48,1.17,1.06,1.91,1.29a9.14,9.14,0,0,0,1.77.22C170.55,111,174.26,110.56,178,110Zm-8.82,12c1.81-.07,3.57-1.65,3.5-3.14s-2-3-3.9-3-2.69,1.08-2.68,3.11A2.77,2.77,0,0,0,169.14,122Zm-7.4,64.48c1.94-1.51,1.13-3.92.86-5.91-.9-6.43-2-12.84-3-19.25-.63-3.85-2.41-4.67-5.73-2.51-2.5,1.63-4.85,3.48-7.27,5.23-.39-.73.33-1.23.38-1.88.44-6,.86-11.92,1.38-17.88a64.37,64.37,0,0,0-.08-12.84c0-.29-.23-.75-.14-.82,3-2.25.28-4.76-.46-6.23-2-3.95-9.41-4.43-13-1.51a21.47,21.47,0,0,0-6.17,9.23,19.5,19.5,0,0,0-1.73,5.88,122.67,122.67,0,0,0-.18,14.26c.26,3.8.05,7.62.86,11.38-.91.2-1.55-.41-2.27-.78a66,66,0,0,0-11.13-4.68c-1.63-.51-1.75,0-1.93,1.38a31.45,31.45,0,0,0,.13,7.62c.69,6.11,1.23,12.23,1.87,18.34.62,5.93,3.51,7.33,8.4,4,2.53-1.73,4.88-3.73,7.31-5.61.15.15.44.31.42.45-.25,2.8,2.23,4.48,2.84,7,.27,1.11,2.15.58,2.88,1.38,1.33,1.46,2,.37,3-.36s0-2.08.71-2.64c1.39-1.13,1.5-3,1.59-4.19.2-2.3,1.27-4.09,2-6.08a103.36,103.36,0,0,0,12.28,6.38C157.56,186.66,159.7,188.07,161.73,186.48ZM111,107.61a2.34,2.34,0,0,0-1.53-2.48c-.41-.17-.83-.32-1.26-.45l-14.93-4.59c-.72-.22-1.53-1-2.1.15a2.59,2.59,0,0,0,0,3,3.47,3.47,0,0,0,1.63,1.11c4.38,1.68,8.81,3.18,13.32,4.45.5.14,1,.21,1.45.29a13.72,13.72,0,0,0,1.41-.27C109.71,108.56,110.9,109,111,107.61ZM104.63,118a3.82,3.82,0,0,0-3.83-3.85,3.36,3.36,0,0,0-3.56,3.25c0,2.11,1.59,3.55,4,3.56C103.51,121,104.62,120,104.63,118Z"/><path class="cls-1" d="M209.64,205.54c1.18,4.31.84,8.62.28,12.93-.51,3.9-2.23,5.66-6.4,5.88-7.93.41-15.8,1.66-24.1,1.56a62.47,62.47,0,0,1-14.62-1.37c-2.48-.48-3.21-1.35-3-3.84a75,75,0,0,1,1.35-10.45c.93-4.45,1.93-5.35,6.5-5.42,5.85-.1,11.69-.17,17.54-.11,6.83.07,13.63-.37,20.44-.74C208.95,203.88,209.29,204.27,209.64,205.54Zm-3.17,5c.15-1.84-.41-2.36-2.12-2.34-5.25.05-10.54,0-15.54,0h0c-5,0-10.85,0-16.17,0-4,0-6.1,1.18-6.84,3.88s-.13,5.46.45,8.15c.21,1,.88,1,1.68,1.05,6.59.7,13.13,1.65,19.83,1,5.34-.55,10.61-1.3,15.87-2.29,2.13-.4,2.86-1.59,2.81-3.59A56.24,56.24,0,0,1,206.47,210.59Z"/><path class="cls-6" d="M204.36,208.25c1.7,0,2.37.5,2.22,2.34a56.24,56.24,0,0,0-.08,5.84c.05,2-.71,3.2-2.84,3.59-5.27,1-10.55,1.73-15.89,2.29-6.7.69-13.25-.26-19.85-1-.8-.09-1.5-.1-1.71-1.05-.58-2.69-1.25-5.4-.5-8.15s2.91-3.84,6.94-3.88c5.32-.05,11.17,0,16.17,0h0C193.82,208.27,199.11,208.3,204.36,208.25Z"/><path class="cls-7" d="M206.55,67.49c-3,7.74-7.16,13.69-14.83,16.49-4,1.44-8.2,1.4-12.25,2.3-8.85,1.95-15.95-2.32-23.45-6.1,1.23-1.34,2.62-1.94,4-1.56,11.34,3.07,21.62-.84,31.89-4.74A119.85,119.85,0,0,0,206.55,67.49Z"/><path class="cls-7" d="M179.76,289.61c.38.29.3.64.14,1-3.74,7.84-5,16.76-10.48,23.84-.47.61-.7,1.61-1.8,1.41-.68-.12-.84-.62-.83-2.76a3.92,3.92,0,0,1,.15-1.11c2-5.84,3.86-11.73,6.25-17.44,1.07-2.57,3.47-3.59,5.54-5A.82.82,0,0,1,179.76,289.61Z"/><path class="cls-8" d="M179.8,107.85A2,2,0,0,1,178,110c-3.7.53-7.41.94-11.13,1.4a9.14,9.14,0,0,1-1.77-.22c-.74-.23-1.93.18-1.91-1.29a2.28,2.28,0,0,1,2-2.55c3.09-.49,6.21-.91,9.31-1.32a20.88,20.88,0,0,1,3.34-.2A2,2,0,0,1,179.8,107.85Z"/><path class="cls-7" d="M172.86,73.18c.91,1.79.46,2.22-1.49,2.29a47.5,47.5,0,0,1-9.61-.56,35.13,35.13,0,0,0-8.7.12A323.82,323.82,0,0,0,120,78.86c-8.19,1.5-16.48,2.46-24.7,3.8a44,44,0,0,1-10.45.86h-.23c-3.69-.18-4.51-.89-3.81-4.39,1.53-7.74,3-15.52,8.31-21.89,6.59-8,14.47-13.7,25-15.18,4.13-.58,8.2-1.64,12.46-1.41,11.27.68,21.88,3.38,31.08,10.35a26.71,26.71,0,0,1,6.49,6.79C167.32,62.77,170.19,67.92,172.86,73.18Z"/><path d="M172.64,118.87c.07,1.49-1.69,3.07-3.5,3.14a2.77,2.77,0,0,1-3.08-3c0-2,.9-3.09,2.68-3.11S172.56,117.33,172.64,118.87Z"/><path class="cls-9" d="M157.15,180.24c.17,1.65-.87.94-1.56.6-3.15-1.55-6.27-3.13-9.42-4.68-.5-.25-1-.45-1.56-.66a2,2,0,0,0,.06-.28c.81-.29,1.48.29,2.15.61,2.68,1.31,5.36,2.66,8,4,1.08.54,1.59.53,1.52-1a119.62,119.62,0,0,0-1.4-12.69c-.2-1.34-.75-1.49-1.76-.72-1.84,1.41-3.78,2.68-5.63,4.09-.63.47-1.23,1.1-2.11,1a1.93,1.93,0,0,1,0-.28c2.7-1.91,5.45-3.76,8.07-5.77,1.25-1,1.71-.53,1.86.7C156.05,170.17,156.64,175.2,157.15,180.24Z"/><path class="cls-9" d="M156.38,178.86c.07,1.49-.45,1.5-1.52,1-2.68-1.34-5.35-2.68-8-4-.67-.32-1.34-.91-2.15-.61a.83.83,0,0,0,0-.1,17.93,17.93,0,0,1,.79-4.44c0-.06,0-.12,0-.18.88.14,1.49-.49,2.11-1,1.85-1.4,3.79-2.68,5.63-4.09,1-.77,1.55-.62,1.76.72A119.62,119.62,0,0,1,156.38,178.86Z"/><path d="M148.26,131.45a64.37,64.37,0,0,1,.08,12.84c-.52,6-.94,11.92-1.38,17.88,0,.65-.77,1.15-.38,1.88a4.21,4.21,0,0,0-.4,1.25c0,1.77-1.68,3.23-1,5.13a6.13,6.13,0,0,0-.87,5c-.84.83-.6,2.2-1.59,3-.4.33.48.59.61,1-.75,2-1.82,3.77-2,6.08-.1,1.18-.21,3.07-1.59,4.19-.68.55.48,1.82-.71,2.64s-1.71,1.83-3,.36c-.73-.8-2.62-.27-2.88-1.38-.61-2.49-3.09-4.17-2.84-7,0-.14-.27-.3-.42-.45-.13-1.67-.09-3.37-.93-4.91l-1.31-10.79a4.24,4.24,0,0,0,.37-.7c-1.21-.93-1-1.91-.18-3,.3-.39,0-.68-.33-.88-.81-3.76-.6-7.58-.86-11.38a122.67,122.67,0,0,1,.18-14.26,19.5,19.5,0,0,1,1.73-5.88,21.47,21.47,0,0,1,6.17-9.23c3.56-2.92,11-2.43,13,1.51.75,1.47,3.49,4,.46,6.23C148,130.7,148.23,131.16,148.26,131.45Zm-2.73,10.48a2.11,2.11,0,0,0,.06-.89,65,65,0,0,0-1-8.67,32.18,32.18,0,0,0-2.75-8c-.26-.47-.79-1.09-1.19-.58-1.18,1.54-3.15,2-4.39,3.53-1.95,2.4-4,4.72-4.94,7.72a33.1,33.1,0,0,0-1.56,5.37,72,72,0,0,0-.33,14.81c.24,4.09,0,8.2.36,12.28.37,4.68,2,9.16,2.78,13.78a4.71,4.71,0,0,0,.81,2.79c.27,1.1.5,2.22.81,3.31.16.57.74.75,1.23.86s.55-.5.77-.84c1.74-2.71,2.34-5.87,3-8.88.93-4.42,1.15-8.95,2.77-13.29,1.51-4,1.56-8.47,2.51-12.64C145.24,149,144.33,145.37,145.52,141.93Z"/><path class="cls-7" d="M145.58,141a2.11,2.11,0,0,1-.06.89c-1.19,3.44-.28,7.06-1.09,10.62-.95,4.17-1,8.61-2.51,12.64-1.62,4.34-1.84,8.86-2.77,13.29-.63,3-1.22,6.17-3,8.88-.22.35-.13,1-.77.84s-1.07-.28-1.23-.86c-.31-1.09-.55-2.21-.81-3.31.8-.81.29-1.84.31-2.71s-.72-.07-1.12-.08c-.82-4.62-2.41-9.1-2.78-13.78-.32-4.08-.12-8.19-.36-12.28a72,72,0,0,1,.33-14.81,33.1,33.1,0,0,1,1.56-5.37c1-3,3-5.32,4.94-7.72,1.24-1.53,3.2-2,4.39-3.53.4-.52.93.11,1.19.58a32.18,32.18,0,0,1,2.75,8A65,65,0,0,1,145.58,141Z"/><path class="cls-9" d="M145.21,170.43l.3-.21a1.93,1.93,0,0,0,0,.28Z"/><path class="cls-9" d="M145.49,170.5c0,.06,0,.12,0,.18a17.93,17.93,0,0,0-.79,4.44.83.83,0,0,1,0,.1,1.7,1.7,0,0,0-.34.17,6.13,6.13,0,0,1,.87-5Z"/><path class="cls-9" d="M144.68,175.21a2,2,0,0,1-.06.28l-.27-.11A1.7,1.7,0,0,1,144.68,175.21Z"/><path class="cls-1" d="M144.34,175.39l.27.11c-.31,1.33-1,2.54-1.25,3.91-.14-.4-1-.66-.61-1C143.74,177.58,143.5,176.21,144.34,175.39Z"/><path class="cls-10" d="M133.68,181.32c0,.87.49,1.91-.31,2.71-.17-1,.1-2-.81-2.79C133,181.25,133.7,180.35,133.68,181.32Z"/><path class="cls-10" d="M132.56,181.24c.91.74.64,1.83.81,2.79A4.71,4.71,0,0,1,132.56,181.24Z"/><path class="cls-1" d="M128.92,179c.84,1.54.8,3.24.93,4.91-1.05-1.36-.73-3.13-1.3-4.64Z"/><path class="cls-1" d="M128.55,179.23c.57,1.51.24,3.28,1.3,4.64-2.43,1.88-4.78,3.88-7.31,5.61-4.89,3.36-7.79,2-8.4-4-.64-6.11-1.18-12.23-1.87-18.34a31.45,31.45,0,0,1-.13-7.62c.18-1.4.3-1.89,1.93-1.38a66,66,0,0,1,11.13,4.68c.71.37,1.35,1,2.27.78-1,1.36-.61,2.79-.38,4.22a40.48,40.48,0,0,0-7.53-3.53c-1.58-.56-2.49-.37-2.62,1.54a49.37,49.37,0,0,0,2,18.8c.33,1,.61,1.13,1.48.48C123.08,183.13,125.83,181.2,128.55,179.23Z"/><path class="cls-9" d="M127.61,168.17,128.92,179a2,2,0,0,0-.49,0v0c-.24-3.5-1.34-6.89-1.25-10.43,0-.08,0-.16,0-.24A1.43,1.43,0,0,0,127.61,168.17Z"/><path class="cls-9" d="M128.92,179l-.37.27c0-.09-.08-.19-.12-.28A2,2,0,0,1,128.92,179Z"/><path class="cls-9" d="M128.43,178.95c0,.09.09.19.12.28-2.73,2-5.47,3.9-8.17,5.91-.87.65-1.15.56-1.48-.48a49.37,49.37,0,0,1-2-18.8c.14-1.91,1-2.09,2.62-1.54a40.48,40.48,0,0,1,7.53,3.53h0c0,.14,0,.27.05.4-.68,0-1.21-.51-1.8-.8a41.23,41.23,0,0,0-5.79-2.47c-1.37-.43-2,0-2.08,1.4A51.25,51.25,0,0,0,119,183.11c.42,1.54,1.09,1.47,2.22.67,1.65-1.18,3.22-2.46,4.91-3.58A5.23,5.23,0,0,1,128.43,178.95Z"/><path class="cls-9" d="M128.42,178.93v0a5.23,5.23,0,0,0-2.3,1.25c-1.69,1.11-3.26,2.4-4.91,3.58-1.13.8-1.79.87-2.22-.67a51.25,51.25,0,0,1-1.53-16.71c.08-1.37.71-1.82,2.08-1.4a41.23,41.23,0,0,1,5.79,2.47c.59.28,1.11.8,1.8.8,0,.08,0,.16,0,.24C127.08,172,128.18,175.43,128.42,178.93Z"/><path class="cls-1" d="M128,167.47a4.24,4.24,0,0,1-.37.7l-.52-.32h0c-.23-1.43-.58-2.87.38-4.22.36.2.63.5.33.88C127,165.57,126.77,166.54,128,167.47Z"/><path class="cls-11" d="M127.63,33.43c.51,2.72-1.53,2.84-3.21,3.19-3,.63-4.73.13-5.08-1.83-1.07-6-1.66-12,1.41-17.7,1.38-2.55,2-2.58,3.6-.09,2.63,4.19,3.39,8.86,3.25,14A12.12,12.12,0,0,0,127.63,33.43Z"/><path class="cls-9" d="M127.09,167.86l.52.32a1.43,1.43,0,0,1-.47.09C127.13,168.12,127.11,168,127.09,167.86Z"/><path class="cls-11" d="M115,34.73a2.82,2.82,0,0,1-2.6,3.29c-1.81.28-2.36-1-2.59-2.42-.76-4.45-2.19-8.81-2-13.79-.29-2,.45-4.32.86-6.67.26-1.49.82-1.25,1.77-.62a5.69,5.69,0,0,1,2.34,3.67c1,4.2,1.21,8.52,1.81,12.77C114.73,32.22,114.91,33.47,115,34.73Z"/><path d="M109.44,105.13a2.34,2.34,0,0,1,1.53,2.48c-.06,1.41-1.26,1-2,1.18a13.72,13.72,0,0,1-1.41.27c-.43-.09-1-.15-1.45-.29-4.51-1.27-8.95-2.77-13.32-4.45a3.47,3.47,0,0,1-1.63-1.11,2.59,2.59,0,0,1,0-3c.57-1.13,1.39-.37,2.1-.15l14.93,4.59C108.61,104.81,109,105,109.44,105.13Z"/><path class="cls-7" d="M106.54,313.48c-.33,1.23.46,2.73-.91,3s-2.13-1.28-2.59-2.29c-1.4-3.12-2.56-6.35-3.8-9.54-1.15-3-2.22-6-3.45-9-.57-1.37-.05-1.7,1.18-1.76,2.72-.13,4.94.94,5.79,3.34A87.59,87.59,0,0,1,106.54,313.48Z"/><path class="cls-11" d="M105.71,35.13c.87,2.78.51,3.64-2.12,5l-.2.11c-5.27,2.25-4.6,3.43-6.66-2.91a67.06,67.06,0,0,1-2.92-16.22,26.42,26.42,0,0,1,0-6.69c.06-.29,0-.61,0-.9.3-1.28.95-2.63,2-3.05.76-.29,1.34,1.18,1.91,1.95,2.16,2.9,2.67,6.45,3.8,9.74C103.06,26.43,104.34,30.8,105.71,35.13Z"/><path d="M100.8,114.14a3.82,3.82,0,0,1,3.83,3.85c0,2-1.12,3-3.38,3-2.42,0-4-1.45-4-3.56A3.36,3.36,0,0,1,100.8,114.14Z"/><path class="cls-5" d="M58.29,170.07c.23,12.1-4.9,21.71-13.7,29.67A34.57,34.57,0,0,1,32.85,207c-2.25.79-2.92.36-3-2a18.07,18.07,0,0,1,.32-4.9A4.24,4.24,0,0,1,32.78,197c10-4.31,14.47-12.19,15.6-22.71s-2.27-19.52-8.74-27.54c-2-2.46-2.32-4.8-.76-7.58.79-1.42,1.38-1.8,2.87-.83,9.07,5.89,14.13,14.3,16.12,24.8A45.92,45.92,0,0,1,58.29,170.07Z"/><path class="cls-4" d="M38.7,151.69c4.8,6.38,5.56,13.69,4.92,21.31a53.6,53.6,0,0,1-2,10.5,8.26,8.26,0,0,1-4.46,5.56,50,50,0,0,0-5.31,2.86C30,193,30,192,30,190.7c.1-2.17.25-4.34.32-5.61,0-3,.05-5.1,0-7.19-.08-2.54-1.91-3.52-4.15-2.26a4.13,4.13,0,0,0-1.38,1.12c-3.41,5-7,9.88-8.9,15.69a15.38,15.38,0,0,0,1.56,13.31c1,1.73,1.86,3.57,2.93,5.28.74,1.19.3,1.7-.77,2.16a6.28,6.28,0,0,1-6.55-.68c-5.64-4.06-8-9.71-7.63-16.49.5-8.3,4.47-15.3,8.69-22.2,5.21-8.51,12-15.64,19-22.64C35.26,149.06,36.91,149.31,38.7,151.69Z"/><path class="cls-12" d="M22.82,189.41V206C19.82,202.27,19.82,195.45,22.82,189.41Z"/></svg>