<svg id="圖層_1" data-name="圖層 1" xmlns="http://www.w3.org/2000/svg" viewBox="0 0 287.81 324.7"><defs><style>.cls-1{fill:#3761a4;}.cls-2{fill:#314462;}.cls-3{fill:#fff;}.cls-4{fill:#cf543f;}.cls-5{fill:#ebbf29;}.cls-6{fill:#c96b78;}</style></defs><title>chks</title><g id="_群組_" data-name="&lt;群組&gt;"><path d="M256.8,145.2c1.36,7.74,3,15.48,2.17,23.49-.75,7.15-.78,14.39-1.68,21.51-1.17,9.26-4.77,17.92-7.54,26.77a23.42,23.42,0,0,1-3.49,6c-3.11,4.46-6.41,8.8-9.53,13.27-4.49,6.43-10.09,11.88-15.82,17.1a71.26,71.26,0,0,1-12.33,8.45c-5.81,3.38-11.78,6.49-17.83,9.41a50.56,50.56,0,0,1-9.82,3.42c-5.74,1.42-11.55,2.58-17.36,3.66a3.3,3.3,0,0,0-2.88,2.46q-3.08,8.13-6.5,16.14c-.45,1.06-1.37,2.42-2.32,2.67-1.61.42-2.77-.94-3.5-2.33a13.63,13.63,0,0,1-1.21-3.21c-.92-4-1.67-7.95-2.62-11.89-.73-3-1.32-3.47-4.33-3.24-9.21.68-17.69-1.94-26-5.58-4.35-1.92-8.75-3.74-13-5.77-4.82-2.27-9.62-4.55-13.74-8.08-9.6-8.22-19.17-16.46-27.35-26.15-5.4-6.4-9.25-13.55-10.47-22-.43-3-.62-6.15-1.8-8.84-2.36-5.37-2-11.1-2.86-16.64-.59-3.72-.06-7.63.07-11.45.24-7,.46-13.93.91-20.88A56.18,56.18,0,0,1,47.45,145c.89-4,1.8-7.94,3-11.83.8-2.63,2.11-5.1,3.17-7.65.16-.39.25-.81.53-1.77-2.92,1.48-5.34,2.76-7.81,4a75.72,75.72,0,0,1-9.16,4.21,25.89,25.89,0,0,1-18.08-.25,11.76,11.76,0,0,1-2.7-1.57,1.73,1.73,0,0,1-.19-2.95,15.35,15.35,0,0,1,5.66-3.92c7.57-2.61,15-5.49,22.63-8,10-3.36,18-9.42,24.74-17.34a57.72,57.72,0,0,1,12-10.58q10.29-6.85,20.41-13.94a84,84,0,0,1,28.08-12.7c3.36-.85,6.77-1.51,10.55-2.36-1.16-2.75-2.37-5.44-3.44-8.18-1.5-3.89-2.91-7.81-4.32-11.74A10,10,0,0,1,132,36c-.59-5.94,3.25-9.77,9.22-9.21.57.05,1.13.15,1.9.25.72-2.62,1.31-5.2,2.15-7.69a10.74,10.74,0,0,1,2.12-3.9c1.85-2,4.08-3.83,7-2.88,3.25,1,6.46,2.6,6.89,6.55a47.84,47.84,0,0,1,0,8.31,38.89,38.89,0,0,1-1,5.83c-.38,1.7.18,2.55,1.9,3,3.75,1,4.11,1.28,3.8,5-.36,4.37-1.22,8.7-1.94,13A31.19,31.19,0,0,1,162.9,58a16.75,16.75,0,0,0,3.08.43c5.44-.28,10.6,1.1,15.74,2.61a83.14,83.14,0,0,1,20.49,9.42c2.54,1.58,5.48,2.5,8.08,4,11.87,6.74,22.48,15,29.65,26.83,5.29,8.7,10.24,17.67,12.62,27.77C253.84,134.48,255.83,139.74,256.8,145.2Zm-2.44,44.06a184.31,184.31,0,0,0,1.25-28.55c-2.12.45-3.68.68-5.19,1.11-6.36,1.8-12.64,3.89-19.06,5.43-12.26,2.95-24.81,3.49-37.36,3.76-5,.1-9.95,0-15,0a7.48,7.48,0,0,0-.45,1.74c.63,4.81-1.06,9.22-2.59,13.56-1.45,4.1-3.81,7.88-8.24,9.33-2.3.75-3,1.91-3.23,4.16-.6,4.91-.83,9.91-4.21,14.12-2.35,2.93-5,4.47-8.62,3.83s-6.19-3.24-6-6.19c.22-4.29.6-8.56,1-12.84.22-2.28-.09-2.73-2.44-3.26a17.23,17.23,0,0,1-4.88-1.58c-4-2.32-7.66-5.11-8.35-10.09a20,20,0,0,1,1-10.64c.43-1,.75-2.07,1.18-3.26-6.26-.7-12.28-1.18-18.24-2.08-11.35-1.72-22.67-3.69-34-5.53C73,161,65,160.11,57.31,157.78l-6.54-2c-4.5,13.93-1.4,51.35,5,62.47,2.58-1.89,5.07-4,7.8-5.64,3-1.84,6.45-1.16,9.89-.54.14-1.69.3-3.07.37-4.45.41-7.34,4.32-12.64,10.09-16.65,3.8-2.64,6.86-1.9,9,2.12a20.9,20.9,0,0,1,1,17.87,8.07,8.07,0,0,1-4.25,4.44c-2.09,1-3.6.59-4.68-1.47a31.14,31.14,0,0,1-1.84-4.88c-.84-2.63-.8-2.65,1.76-4.49a45.06,45.06,0,0,0,1.77,5.2c.32.69,1.58,1.61,2,1.44a3.65,3.65,0,0,0,1.88-2.13c.88-2.83-.83-6.93-3.5-8.92-3.35-2.5-6.83-1.63-8.6,2.17a17.57,17.57,0,0,0-1.17,9.23c.21,2.3,2.26,3.41,3.64,4.93.86.95,1.83,1.8,2.62,2.8,3.48,4.37,7.11,8.77,8.16,14.4,1.16,6.15,1.75,12.4,2.54,18.62a32.13,32.13,0,0,1,0,3.7c4.83.66,9.28,1.44,13.76,1.85a85.47,85.47,0,0,0,24.6-1.33,23.24,23.24,0,0,0,7.81-2.63,59.13,59.13,0,0,0,8.49-7.18c3.08-2.91,4.09-3.05,7,.06,2.23,2.37,4.34,4.85,6.33,7.41a4.44,4.44,0,0,0,4.17,1.92c9.72-.74,19.53.32,29.22-1.34,2.25-.38,4.56-.42,6.81-.61l1.64-5.56c-1,.35-1.47.54-2,.72a10.1,10.1,0,0,1-12-4.55A21.87,21.87,0,0,1,188,229.59a10.44,10.44,0,0,1,4.88-7,8.16,8.16,0,0,1,5.23-.9c2.95.54,5.18,4.33,5,7.55-.2,3.51-2.74,6.81-5.93,7.53.17-3.59,1.74-7.34-1-10.6-2.83.92-2.9,1-3.76,2.84a13.35,13.35,0,0,0-.25,10.5c1.89,5.21,2.34,5.41,7.88,5.15a12.15,12.15,0,0,0,1.25-.22c1.26-2.34,2.53-4.82,3.9-7.23a4.73,4.73,0,0,0,.43-4,16.49,16.49,0,0,1,.12-10.64,54.07,54.07,0,0,1,8.8-15.36c3.28-3.9,7.43-5.88,12.67-4.93.54.1,1.1.1,1.91.17a20.66,20.66,0,0,0,0-2.57,12,12,0,0,1,2.36-9.18c1.46-2,2.62-4.17,4.3-5.91a28.67,28.67,0,0,1,5.74-4.36c1.86-1.13,3.61-.37,5,1.18A10,10,0,0,1,248,184a22.35,22.35,0,0,1,1,17,8.51,8.51,0,0,1-3.85,4.79c-2.41,1.42-3.88,1.08-5-1.5A57.37,57.37,0,0,1,238,198a4.23,4.23,0,0,1,0-1.13l2.19-1.91a31.52,31.52,0,0,0,1.21,5,3.39,3.39,0,0,0,2.18,1.86c1.38.18,1.85-1.16,2.11-2.33.79-3.53-1.84-8.45-5.2-9.78a4.32,4.32,0,0,0-5.33,1.29c-3.22,3.65-3.13,11.67.29,15.07a30.29,30.29,0,0,1,7.16,10.61,24.25,24.25,0,0,0,1.16,2.17C248.49,209.12,253,199.64,254.35,189.26Zm.59-31.51c-.07-1.09-.13-2.17-.22-3.63-1.09.19-1.53.25-2,.35-6.59,1.33-13.14,3-19.79,3.93-9.18,1.3-18.43,2.16-27.66,3-8,.74-16,1.46-24,1.74a210,210,0,0,1-30.24-1.21c-6.46-.7-13-1.19-19.42-1.86-7.51-.77-15-1.71-22.51-2.42-4.85-.46-9.8-.2-14.58-1-11.43-2-22.77-4.44-34.17-6.62a29.6,29.6,0,0,0-9.56-.6c-.33,2.33,1.27,2.42,2.58,2.71,8,1.78,16.09,3.56,24.15,5.25,3.17.67,6.38,1.21,9.59,1.65,7.82,1.05,15.66,2,23.49,3,3.9.5,7.8,1,11.7,1.5,6.89.85,13.77,1.83,20.68,2.46,5.88.54,11.81.58,17.71,1,17.06,1.14,34.12,1.77,51.19.22,5.08-.46,10.25-.7,15.2-1.83,8.82-2,17.51-4.6,26.25-7A13.3,13.3,0,0,0,254.94,157.75Zm-2.51-6.08c1.79-.61,2.48-1.62,2.14-3.36a90,90,0,0,0-5.07-17.72c-1.06.36-2,.58-2.78.94-6.71,2.85-13.85,3.88-21,4.57-6.81.67-13.68.91-20.53,1-7.64.08-15.3-.13-22.94-.43-4.52-.18-9-.81-13.52-1.17q-16-1.28-32-2.48c-7.18-.54-14.35-1.2-21.54-1.45-6.94-.25-13.9-.25-20.84,0-5.78.23-11.68.32-17.05,2.89a100.23,100.23,0,0,0-11,6c-2,1.26-3.46,3.27-5.17,4.95l.39.89c1.22.32,2.43.68,3.66.95,2.49.55,5,1,7.49,1.58a210.68,210.68,0,0,0,31.52,5.47c3.82.32,7.64.63,11.46,1,13.41,1.31,26.79,3,40.23,3.86,11.12.74,22.29.64,33.44.78a86.93,86.93,0,0,0,10.08-.56c10-1,20.07-2.19,30.1-3.33C237.3,155.18,245,154.19,252.43,151.67Zm-3.93-25-2.14-3.28c-1.86.61-3.5,1.18-5.15,1.69a35.44,35.44,0,0,1-6,1.73c-6.91.85-13.84,1.88-20.79,2.08-9.26.25-18.5.64-27.81-.31-11-1.11-22.05-.82-33.07-1.41-8.46-.46-16.9-1.28-25.33-2.09-6.47-.62-12.9-1.77-19.43-.64a25.61,25.61,0,0,1-3.48.13c-6.72.24-13.44.46-20.16.72a13.52,13.52,0,0,0-2.4.42c-9.06,2-16.72,6.75-23.66,12.71-2,1.7-4.06,3.44-5.07,6.4,2.82.9,3.82-1,5.09-2.19,3.81-3.57,7.59-7.12,12.26-9.66a44.45,44.45,0,0,1,19.08-4.88,249,249,0,0,1,27.14.44c11.23.64,22.45,1.6,33.65,2.73A275.41,275.41,0,0,0,184.59,133a138.24,138.24,0,0,1,13.88.89c6.38.52,12.76,0,19.13.08,7.59.11,14.74-1.56,21.8-4C242.33,129,245.22,127.89,248.51,126.71Zm-.34,65a44.14,44.14,0,0,0-1.91-5.84c-1.62-3.32-3-3.45-6-.94Zm-1.75-71.29c-.49-1.09-.78-1.84-1.16-2.54-1.91-3.58-4-7.08-5.72-10.75A47.14,47.14,0,0,0,227.7,91.45c-6.15-5.33-12.46-10.45-20.24-13.33a13.26,13.26,0,0,1-2.62-1.69c-2.2-1.5-4.33-3.1-6.58-4.52-6.15-3.87-13.08-6-19.9-8.18-4.94-1.61-10.05-2.93-15.38-2.31-1.36.16-2.85.89-4.05.55-3.92-1.09-7.85-.41-11.77-.46-1.45,0-2.9.38-4.36.45-2.18.1-4.42-.22-6.54.16a73.93,73.93,0,0,0-30.2,12.76c-8.56,6.18-17.77,11.39-26,18.1a69.49,69.49,0,0,0-13.3,14.55c-2.49,3.6-4.24,7.73-6.2,11.68-.87,1.76-1.45,3.66-2.18,5.49a21,21,0,0,1-1.18,2.74,13.6,13.6,0,0,0-2,7.8c1.8-1.11,3.23-2.05,4.71-2.89,3.23-1.83,6.62-3.42,9.71-5.45a37.85,37.85,0,0,1,17.84-6.4c6.7-.53,13.47-.39,20.21-.34a90.16,90.16,0,0,1,12.17.73,331.77,331.77,0,0,0,35.37,3.32c9.52.34,19,.78,28.54,1.23,4.29.2,8.57.63,12.86.75,4.76.14,9.53.06,14.3,0,2.21,0,4.42,0,6.61-.26,5-.5,9.92-1.09,14.87-1.68A39.19,39.19,0,0,0,246.42,120.4Zm-5.59,102c.83-2.2.83-2.2-1.36-4.95Zm-2.15,3.81c-1.27-3.71-2.4-7.62-4-11.35a19.78,19.78,0,0,0-4.06-6.35c-3.67-3.6-8.64-3.14-11.89.73-1.19,1.42-2.24,3-3.37,4.44-4.51,5.9-3.21,12.29-1.42,18.64.61,2.17,2.07,2.75,4,2.35,3.32-.68,8.14-6.14,8.38-9.48.12-1.74-.81-2.63-2.52-2.42-2.46.3-3.5,1.8-3,4.43.22,1.28,1,2.6-.35,3.93a6.56,6.56,0,0,1-3-5.24c-.31-2.8,3-6.6,5.79-6.9a5.54,5.54,0,0,1,6,6.66c-1,5.61-2.08,11.21-5.83,15.82-.67.82-.83,1.63,0,2.07C230.55,239.68,235.91,234.33,238.68,226.24Zm-18.26,20.09.47-.45a2.63,2.63,0,0,0-.47-.81c-.2-.17-.55-.16-1.46-.38ZM218,239.26c3.38,1.5,5.25.16,6.61-4.78Zm-1.62,10.54c.44-.32.37-1.35.53-2.05-.71-.16-1.57-.67-2.1-.43a7.84,7.84,0,0,0-4.48,5.18A11.48,11.48,0,0,0,216.41,249.8Zm-2.83-5.92c-2.8-.6-3.74,1.48-4.9,2.83-1.71,2-3.42,4.18-2.67,7.24,1.12-1.62,1.67-3.56,2.77-5.11A45.49,45.49,0,0,1,213.58,243.88Zm-1.15-5a42.69,42.69,0,0,1-2.2-5.26,51.18,51.18,0,0,1-1-6C207.87,233.7,209.6,238.62,212.43,238.84Zm-11,20.77a6.09,6.09,0,0,0,4.35-2.52,30.93,30.93,0,0,0-3.45-.14c-4.85.39-9.68,1-14.54,1.24-7.42.38-14.84.5-22.27.79a4.82,4.82,0,0,1-4.49-2c-1.88-2.5-4-4.86-6.05-7.19-1.63-1.81-2.51-1.89-4.44-.39-2.74,2.14-5.89,4-7.95,6.7-2.67,3.49-6.21,4.44-10,4.85-11.59,1.28-23.14,1.31-34.52-1.82a12,12,0,0,0-3.08,0l-.3.63c.95.59,1.87,1.23,2.85,1.76,6,3.28,12.48,4.09,19.23,3.36a22.79,22.79,0,0,1,5.2-.15c5.83.73,11.58,0,17.35-.59a6.4,6.4,0,0,0,5.26-3.27,40.9,40.9,0,0,1,5.63-6.6c1.42-1.44,2.24-1.24,3.37.35s2.37,3.39,3.48,5.13a3.38,3.38,0,0,0,3,2c6.49-.06,13,0,19.48-.12,2.08,0,4.16-.33,6.24-.52C191.06,260.55,196.26,260.06,201.46,259.61ZM181.4,270.13c4.66-1.49,9.11-3.66,13.65-5.54a108.69,108.69,0,0,0-14.52-.38c-6.83.32-13.63,1.2-20.49.58a7.35,7.35,0,0,1-5.91-3.1c-.7-1-1.58-1.91-2.73-3.27-1.21,1.6-2.42,2.73-3,4.11-1.48,3.28-4.23,3.93-7.35,4.09l-.69,0-26.06,2c2.56,1,4.8,1.87,7.09,2.63,3.51,1.17,7,2.68,10.6,3.21s7.43,1.63,11.37,1a95,95,0,0,1,12.4-.92,114.48,114.48,0,0,0,15.89-1.45C175.06,272.63,178.15,271.17,181.4,270.13Zm-15.91-77.38c7.64-3.74,11.4-13.53,8-21.09-3.95-.11-7.77-.17-11.59-.34-6.84-.32-13.68-.64-20.52-1.1a5.78,5.78,0,0,0-5.77,3c-1.55,2.36-1.28,4.89-1.3,7.41,0,5.14,4.3,10.78,9.23,12.15,3,.82,4.54-.16,4.7-3.25.14-2.89,0-5.8-.09-8.71,0-.69-.22-1.38-.25-2.07-.05-1.31.41-2.4,1.85-2.47s2.09.82,2.06,2.22c0,.93,0,1.86,0,2.79q-.26,4.51-.57,9c-.17,2.54-.28,5.09-.6,7.61-.46,3.67-1.2,7.3-1.62,11-.3,2.64.18,3.24,2.29,4,2.32.89,3.18.66,4.85-1.28a25,25,0,0,0,6.11-16.28c.05-2.77-.44-5.55-.46-8.32,0-3,.22-6,.34-9,0-1.06-.73-2.59,1-2.77,1.47-.16,1.75,1.27,2,2.39a6.39,6.39,0,0,1,.15,1.71c-.08,3.6-.22,7.19-.27,10.79A15.67,15.67,0,0,0,165.49,192.75ZM162.07,50.84c.68-2.72.42-5.72.24-8.58a3.25,3.25,0,0,0-1.94-2.42,8.23,8.23,0,0,0-4.53.63,6.41,6.41,0,0,0-2.86,2.9,43.18,43.18,0,0,0-4,13.47c1.66.22,3,.37,4.32.59C160.61,58.63,159.86,59.63,162.07,50.84Zm-3.2,227.8H147.31c.26,5.77,1.06,10.89,5.19,15.71C155.57,289,156.84,283.9,158.86,278.64Zm-.44-255.88c.14-3-1.72-5-4.54-5.77s-4.27,0-5.19,2.59a35.45,35.45,0,0,0-1.51,6.4,5,5,0,0,0,.59,2.95c1.64,3,3.44,5.9,5.31,9.06,1.33-.69,3.64-.93,4-3.18A106.54,106.54,0,0,0,158.42,22.76Zm-8.57,18.66c-.13-.44-.33-1-.46-1.54-1-4.11-4-6.69-7.08-9.19-1.56-1.27-3.3-.94-4.89,0a4.79,4.79,0,0,0-1.83,5.81c1.09,3.31,2.24,6.59,3.39,9.87,1.22,3.51,2.39,7,3.76,10.48a2.93,2.93,0,0,0,2,1.43c1.2.18,1.31-.91,1.53-1.87.65-2.94,1.41-5.86,2.11-8.79C148.89,45.63,149.35,43.6,149.85,41.42ZM93.08,201.09A36,36,0,0,0,91.67,196c-1.7-3.91-3.32-4.23-6.77-1.74ZM89,255.53c2-1,1.61-2.44,1.58-3.56-.18-8.77-1.83-17.19-6.16-25A111.29,111.29,0,0,1,89,255.53Zm-2.9-2c0-.92,0-1.58,0-2.22-.84-10.17-3.81-19.78-7.89-29.06a12.75,12.75,0,0,0-3.12-4.11,8.7,8.7,0,0,0-12.87.83c-1.43,1.65-2.66,3.47-4.14,5.42l4.62,7.12a9.14,9.14,0,0,1,1.13-1.57c2.36-1.84,4.38-2,6.74-.65s3.15,3,2.65,6.14c-.26,1.6-.7,3.19-.81,4.8a3.36,3.36,0,0,0,.74,2.43,16.88,16.88,0,0,0,4.49,3.2,9,9,0,0,1,4.75,4.35A6.54,6.54,0,0,0,86.11,253.49Zm-17.47-15.4c1.36-2,2.16-3.51,1-5.82l-5.27.89ZM51.36,121.8c5.08-2.4,6.83-4.31,7.79-8.82-1.13.54-2.21,1-3.19,1.56-5.92,3.56-12.06,6.35-19,7.3-2.69.37-5.27,1.72-7.85,2.77a16.8,16.8,0,0,0-6.57,4.12c.95,1.86,2.43,1.8,3.78,1.76A37.55,37.55,0,0,0,41,126.82C44.51,125.22,47.9,123.44,51.36,121.8Z"/><path class="cls-1" d="M255.6,160.71a184.31,184.31,0,0,1-1.25,28.55c-1.34,10.39-5.86,19.86-10.57,29.63a24.25,24.25,0,0,1-1.16-2.17,30.29,30.29,0,0,0-7.16-10.61c-3.42-3.4-3.51-11.42-.29-15.07a4.32,4.32,0,0,1,5.33-1.29c3.36,1.33,6,6.25,5.2,9.78-.27,1.17-.73,2.51-2.11,2.33a3.39,3.39,0,0,1-2.18-1.86,31.52,31.52,0,0,1-1.21-5L238,196.86a4.23,4.23,0,0,0,0,1.13,57.37,57.37,0,0,0,2.1,6.26c1.16,2.58,2.62,2.92,5,1.5A8.51,8.51,0,0,0,249,201a22.35,22.35,0,0,0-1-17,10,10,0,0,0-1.58-2.29c-1.36-1.55-3.11-2.31-5-1.18a28.67,28.67,0,0,0-5.74,4.36c-1.68,1.73-2.84,4-4.3,5.91a12,12,0,0,0-2.36,9.18,20.66,20.66,0,0,1,0,2.57c-.82-.07-1.37-.08-1.91-.17-5.24-1-9.39,1-12.67,4.93a54.07,54.07,0,0,0-8.8,15.36,16.49,16.49,0,0,0-.12,10.64,4.73,4.73,0,0,1-.43,4c-1.37,2.41-2.65,4.89-3.9,7.23a12.15,12.15,0,0,1-1.25.22c-5.54.25-6,.06-7.88-5.15a13.35,13.35,0,0,1,.25-10.5c.86-1.85.93-1.92,3.76-2.84,2.73,3.26,1.15,7,1,10.6,3.19-.73,5.73-4,5.93-7.53.18-3.22-2-7-5-7.55a8.16,8.16,0,0,0-5.23.9,10.44,10.44,0,0,0-4.88,7,21.87,21.87,0,0,0,2.17,15.21,10.1,10.1,0,0,0,12,4.55c.52-.18,1-.37,2-.72l-1.64,5.56c-2.25.19-4.56.23-6.81.61-9.69,1.66-19.49.6-29.22,1.34a4.44,4.44,0,0,1-4.17-1.92c-2-2.57-4.1-5-6.33-7.41-2.92-3.11-3.93-3-7-.06a59.13,59.13,0,0,1-8.49,7.18,23.24,23.24,0,0,1-7.81,2.63,85.47,85.47,0,0,1-24.6,1.33c-4.49-.4-8.94-1.19-13.76-1.85a32.13,32.13,0,0,0,0-3.7c-.79-6.22-1.39-12.47-2.54-18.62-1.06-5.63-4.68-10-8.16-14.4-.8-1-1.76-1.85-2.62-2.8-1.38-1.52-3.43-2.63-3.64-4.93a17.57,17.57,0,0,1,1.17-9.23c1.77-3.8,5.25-4.67,8.6-2.17,2.67,2,4.39,6.09,3.5,8.92a3.65,3.65,0,0,1-1.88,2.13c-.46.17-1.71-.74-2-1.44a45.06,45.06,0,0,1-1.77-5.2c-2.56,1.84-2.6,1.86-1.76,4.49A31.14,31.14,0,0,0,85,214c1.07,2.06,2.59,2.46,4.68,1.47A8.07,8.07,0,0,0,93.87,211a20.9,20.9,0,0,0-1-17.87c-2.13-4-5.2-4.76-9-2.12-5.77,4-9.68,9.31-10.09,16.65-.08,1.38-.23,2.75-.37,4.45-3.44-.62-6.87-1.3-9.89.54-2.74,1.67-5.22,3.75-7.8,5.64-6.39-11.12-9.49-48.53-5-62.47l6.54,2C65,160.11,73,161,80.91,162.29c11.33,1.85,22.65,3.81,34,5.53,6,.9,12,1.38,18.24,2.08-.43,1.19-.76,2.25-1.18,3.26a20,20,0,0,0-1,10.64c.69,5,4.37,7.78,8.35,10.09a17.23,17.23,0,0,0,4.88,1.58c2.35.53,2.67,1,2.44,3.26-.43,4.27-.8,8.55-1,12.84-.16,3,2.52,5.57,6,6.19s6.27-.9,8.62-3.83c3.38-4.21,3.61-9.22,4.21-14.12.28-2.25.93-3.41,3.23-4.16,4.43-1.45,6.79-5.23,8.24-9.33,1.53-4.34,3.22-8.76,2.59-13.56A7.48,7.48,0,0,1,179,171c5,0,10,.09,15,0,12.55-.26,25.1-.81,37.36-3.76,6.42-1.54,12.71-3.63,19.06-5.43C251.92,161.39,253.48,161.15,255.6,160.71Z"/><path class="cls-2" d="M254.73,154.12c.09,1.46.15,2.55.22,3.63a13.3,13.3,0,0,1-1.53.66c-8.74,2.36-17.43,5-26.25,7-5,1.12-10.12,1.36-15.2,1.83-17.07,1.55-34.13.91-51.19-.22-5.9-.39-11.83-.44-17.71-1-6.91-.63-13.79-1.61-20.68-2.46-3.9-.48-7.8-1-11.7-1.5-7.83-1-15.67-2-23.49-3-3.21-.44-6.42-1-9.59-1.65-8.06-1.69-16.11-3.47-24.15-5.25-1.3-.29-2.91-.38-2.58-2.71a29.6,29.6,0,0,1,9.56.6c11.39,2.19,22.74,4.65,34.17,6.62,4.77.82,9.73.56,14.58,1,7.51.7,15,1.65,22.51,2.42,6.47.67,13,1.16,19.42,1.86a210,210,0,0,0,30.24,1.21c8-.28,16-1,24-1.74,9.23-.86,18.48-1.72,27.66-3,6.65-.94,13.2-2.6,19.79-3.93C253.2,154.37,253.64,154.31,254.73,154.12Z"/><path class="cls-1" d="M254.58,148.32c.34,1.74-.35,2.75-2.14,3.36-7.43,2.52-15.14,3.5-22.87,4.38-10,1.14-20.06,2.28-30.1,3.33a86.93,86.93,0,0,1-10.08.56c-11.15-.14-22.32,0-33.44-.78-13.44-.89-26.82-2.55-40.23-3.86-3.81-.37-7.64-.68-11.46-1a210.68,210.68,0,0,1-31.52-5.47c-2.48-.59-5-1-7.49-1.58-1.23-.27-2.44-.63-3.66-.95l-.39-.89c1.71-1.68,3.2-3.68,5.17-4.95a100.23,100.23,0,0,1,11-6c5.37-2.58,11.28-2.67,17.05-2.89,6.94-.27,13.91-.27,20.84,0,7.19.25,14.36.91,21.54,1.45q16,1.2,32,2.48c4.51.36,9,1,13.52,1.17,7.64.3,15.3.51,22.94.43,6.85-.08,13.71-.32,20.53-1,7.15-.69,14.29-1.72,21-4.57.83-.36,1.72-.58,2.78-.94A90,90,0,0,1,254.58,148.32Z"/><path class="cls-2" d="M246.37,123.43l2.14,3.28c-3.28,1.18-6.18,2.26-9.1,3.26-7.06,2.42-14.21,4.09-21.8,4-6.37-.09-12.75.44-19.13-.08a138.24,138.24,0,0,0-13.88-.89,275.41,275.41,0,0,1-33.37-1.68c-11.2-1.13-22.42-2.09-33.65-2.73a249,249,0,0,0-27.14-.44A44.45,44.45,0,0,0,71.35,133c-4.68,2.54-8.45,6.09-12.26,9.66-1.27,1.19-2.27,3.1-5.09,2.19,1-3,3.1-4.71,5.07-6.4,6.94-6,14.6-10.67,23.66-12.71a13.52,13.52,0,0,1,2.4-.42c6.72-.26,13.44-.49,20.16-.72a25.61,25.61,0,0,0,3.48-.13c6.53-1.13,13,0,19.43.64,8.43.81,16.87,1.63,25.33,2.09,11,.6,22.11.3,33.07,1.41,9.31.95,18.56.56,27.81.31,6.94-.19,13.87-1.23,20.79-2.08a35.44,35.44,0,0,0,6-1.73C242.88,124.61,244.51,124,246.37,123.43Z"/><path class="cls-2" d="M246.27,185.85a44.14,44.14,0,0,1,1.91,5.84l-7.88-6.77C243.26,182.4,244.65,182.53,246.27,185.85Z"/><path class="cls-3" d="M245.27,117.86c.37.7.66,1.45,1.16,2.54a39.19,39.19,0,0,1-14,3.85c-5,.59-9.91,1.19-14.87,1.68-2.19.22-4.41.24-6.61.26-4.77,0-9.53.11-14.3,0-4.29-.12-8.57-.55-12.86-.75-9.51-.45-19-.89-28.54-1.23a331.77,331.77,0,0,1-35.37-3.32,90.16,90.16,0,0,0-12.17-.73c-6.74,0-13.5-.19-20.21.34a37.85,37.85,0,0,0-17.84,6.4c-3.1,2-6.48,3.63-9.71,5.45-1.48.84-2.91,1.78-4.71,2.89a13.6,13.6,0,0,1,2-7.8,21,21,0,0,0,1.18-2.74c.73-1.83,1.31-3.73,2.18-5.49,2-4,3.71-8.08,6.2-11.68A69.49,69.49,0,0,1,80.06,93c8.23-6.71,17.44-11.92,26-18.1a73.93,73.93,0,0,1,30.2-12.76c2.11-.39,4.36-.06,6.54-.16,1.46-.07,2.91-.47,4.36-.45,3.92,0,7.85-.64,11.77.46,1.2.34,2.69-.39,4.05-.55,5.33-.62,10.44.7,15.38,2.31,6.82,2.22,13.75,4.31,19.9,8.18,2.25,1.42,4.39,3,6.58,4.52a13.26,13.26,0,0,0,2.62,1.69c7.78,2.89,14.1,8,20.24,13.33a47.14,47.14,0,0,1,11.84,15.67C241.27,110.78,243.36,114.27,245.27,117.86Zm-140-4.93c3.4-1.5,4.76-7,1-9.34a14.44,14.44,0,0,0-7.63-1.91c-2.17.26-4.37.41-6.52.81a4.61,4.61,0,0,0-3.74,3.25,4.07,4.07,0,0,0,1.23,4.4C93,113.39,101,114.8,105.27,112.93Zm-2-22.15a3.25,3.25,0,0,0-3-2.76c-1.3.1-2.52.57-2.82,2.07-.23,1.14,1.49,2.59,3.05,2.67S103.18,91.9,103.22,90.78Z"/><path class="cls-2" d="M239.47,217.48c2.19,2.75,2.19,2.75,1.36,4.95Z"/><path class="cls-1" d="M234.7,214.9c1.58,3.72,2.71,7.64,4,11.35-2.77,8.09-8.13,13.44-15.37,17.31-.78-.44-.62-1.25,0-2.07,3.75-4.61,4.85-10.2,5.83-15.82a5.54,5.54,0,0,0-6-6.66c-2.8.3-6.11,4.1-5.79,6.9a6.56,6.56,0,0,0,3,5.24c1.38-1.32.57-2.64.35-3.93-.45-2.63.59-4.13,3-4.43,1.72-.21,2.64.68,2.52,2.42-.24,3.35-5.06,8.8-8.38,9.48-2,.4-3.41-.18-4-2.35-1.79-6.34-3.09-12.73,1.42-18.64,1.13-1.47,2.17-3,3.37-4.44,3.26-3.87,8.22-4.33,11.89-.73A19.78,19.78,0,0,1,234.7,214.9Z"/><path class="cls-2" d="M220.89,245.88l-.47.45L219,244.69c.91.22,1.25.21,1.46.38A2.63,2.63,0,0,1,220.89,245.88Z"/><path class="cls-2" d="M224.64,234.49c-1.36,4.93-3.23,6.28-6.61,4.78Z"/><path class="cls-1" d="M216.95,247.75c-.16.7-.09,1.73-.53,2.05a11.48,11.48,0,0,1-6,2.7,7.84,7.84,0,0,1,4.48-5.18C215.38,247.08,216.23,247.59,216.95,247.75Z"/><path class="cls-2" d="M208.68,246.71c1.16-1.36,2.1-3.44,4.9-2.83a45.49,45.49,0,0,0-4.81,5c-1.1,1.55-1.64,3.49-2.77,5.11C205.27,250.9,207,248.73,208.68,246.71Z"/><path class="cls-2" d="M210.24,233.58a42.69,42.69,0,0,0,2.2,5.26c-2.83-.22-4.56-5.14-3.18-11.27A51.18,51.18,0,0,0,210.24,233.58Z"/><path class="cls-2" d="M205.81,257.09a6.09,6.09,0,0,1-4.35,2.52c-5.2.45-10.4.94-15.6,1.41-2.08.19-4.16.49-6.24.52-6.49.09-13,.06-19.48.12a3.38,3.38,0,0,1-3-2c-1.11-1.74-2.28-3.44-3.48-5.13s-1.95-1.78-3.37-.35a40.9,40.9,0,0,0-5.63,6.6,6.4,6.4,0,0,1-5.26,3.27c-5.78.57-11.52,1.32-17.35.59a22.79,22.79,0,0,0-5.2.15c-6.74.73-13.2-.08-19.23-3.36-1-.53-1.9-1.17-2.85-1.76l.3-.63a12,12,0,0,1,3.08,0c11.38,3.13,22.94,3.1,34.52,1.82,3.76-.42,7.3-1.36,10-4.85,2.05-2.69,5.21-4.55,7.95-6.7,1.92-1.5,2.81-1.42,4.44.39,2.09,2.33,4.17,4.69,6.05,7.19a4.82,4.82,0,0,0,4.49,2c7.42-.29,14.85-.41,22.27-.79,4.85-.25,9.69-.84,14.54-1.24A30.93,30.93,0,0,1,205.81,257.09Z"/><path class="cls-3" d="M195,264.59c-4.54,1.88-9,4-13.65,5.54-3.25,1-6.34,2.5-9.81,3.06a114.48,114.48,0,0,1-15.89,1.45,95,95,0,0,0-12.4.92c-3.93.6-7.64-.47-11.37-1s-7.09-2-10.6-3.21c-2.29-.76-4.53-1.67-7.09-2.63l26.06-2,.69,0c3.12-.16,5.87-.81,7.35-4.09.62-1.39,1.83-2.51,3-4.11,1.14,1.36,2,2.26,2.73,3.27a7.35,7.35,0,0,0,5.91,3.1c6.86.62,13.67-.25,20.49-.58A108.69,108.69,0,0,1,195,264.59Z"/><path class="cls-3" d="M173.53,171.66c3.37,7.57-.4,17.35-8,21.09a15.67,15.67,0,0,1-.4-2.62c0-3.6.18-7.19.27-10.79a6.39,6.39,0,0,0-.15-1.71c-.28-1.12-.55-2.55-2-2.39-1.77.18-1,1.71-1,2.77-.12,3-.36,6-.34,9,0,2.77.51,5.55.46,8.32a25,25,0,0,1-6.11,16.28c-1.68,1.95-2.53,2.17-4.85,1.28-2.11-.81-2.59-1.4-2.29-4,.42-3.67,1.15-7.31,1.62-11,.32-2.52.43-5.07.6-7.61q.31-4.51.57-9c.05-.93,0-1.86,0-2.79,0-1.41-.67-2.29-2.06-2.22s-1.9,1.16-1.85,2.47c0,.69.24,1.38.25,2.07.07,2.9.24,5.81.09,8.71-.16,3.09-1.74,4.07-4.7,3.25-4.93-1.37-9.27-7-9.23-12.15,0-2.52-.25-5,1.3-7.41a5.78,5.78,0,0,1,5.77-3c6.83.46,13.68.78,20.52,1.1C165.76,171.49,169.58,171.54,173.53,171.66Z"/><path class="cls-4" d="M162.3,42.26c.18,2.85.44,5.86-.24,8.58-2.2,8.79-1.46,7.79-8.79,6.59-1.32-.22-2.66-.36-4.32-.59a43.18,43.18,0,0,1,4-13.47,6.41,6.41,0,0,1,2.86-2.9,8.23,8.23,0,0,1,4.53-.63A3.25,3.25,0,0,1,162.3,42.26Z"/><path class="cls-5" d="M147.31,278.64h11.55c-2,5.26-3.29,10.36-6.36,15.71C148.37,289.53,147.57,284.41,147.31,278.64Z"/><path class="cls-4" d="M153.88,17c2.82.74,4.68,2.78,4.54,5.77a106.54,106.54,0,0,1-1.32,12c-.37,2.25-2.68,2.49-4,3.18-1.87-3.16-3.67-6.06-5.31-9.06a5,5,0,0,1-.59-2.95,35.45,35.45,0,0,1,1.51-6.4C149.61,17,151.2,16.29,153.88,17Z"/><path class="cls-4" d="M149.39,39.89c.14.56.33,1.1.46,1.54-.51,2.17-1,4.21-1.46,6.24-.7,2.93-1.47,5.85-2.11,8.79-.21,1-.32,2.05-1.53,1.87a2.93,2.93,0,0,1-2-1.43c-1.37-3.45-2.54-7-3.76-10.48-1.15-3.28-2.31-6.56-3.39-9.87a4.79,4.79,0,0,1,1.83-5.81c1.59-1,3.33-1.3,4.89,0C145.37,33.2,148.4,35.77,149.39,39.89Z"/><path d="M106.26,103.59c3.77,2.3,2.4,7.84-1,9.34-4.24,1.87-12.3.46-15.67-2.79a4.07,4.07,0,0,1-1.23-4.4,4.61,4.61,0,0,1,3.74-3.25c2.15-.4,4.35-.55,6.52-.81A14.44,14.44,0,0,1,106.26,103.59Zm-.87,4.46c0-.63-.87-1.61-1.58-1.93a12.93,12.93,0,0,0-4.29-1.19c-3-.21-5.93-.1-8.43,1.89,2.08,3.59,9.67,5.81,12.85,3.76A3.7,3.7,0,0,0,105.38,108Z"/><path class="cls-6" d="M103.8,106.12c.71.32,1.62,1.3,1.58,1.93a3.7,3.7,0,0,1-1.46,2.54c-3.18,2.06-10.77-.17-12.85-3.76,2.51-2,5.48-2.1,8.43-1.89A12.93,12.93,0,0,1,103.8,106.12Z"/><path d="M100.18,88a3.25,3.25,0,0,1,3,2.76c0,1.12-1.35,2-2.81,2s-3.28-1.53-3.05-2.67C97.66,88.58,98.88,88.12,100.18,88Z"/><path class="cls-2" d="M91.67,196a36,36,0,0,1,1.42,5.11l-8.18-6.86C88.35,191.75,90,192.07,91.67,196Z"/><path class="cls-2" d="M90.59,252c0,1.12.46,2.52-1.58,3.56A111.29,111.29,0,0,0,84.43,227C88.77,234.78,90.41,243.2,90.59,252Z"/><path class="cls-1" d="M86.1,251.26c.06.65,0,1.3,0,2.22a6.54,6.54,0,0,1-3.73-3.35,9,9,0,0,0-4.75-4.35,16.88,16.88,0,0,1-4.49-3.2,3.36,3.36,0,0,1-.74-2.43c.11-1.61.55-3.19.81-4.8.51-3.13-.19-4.72-2.65-6.14s-4.37-1.19-6.74.65a9.14,9.14,0,0,0-1.13,1.57l-4.62-7.12c1.48-1.94,2.71-3.76,4.14-5.42a8.7,8.7,0,0,1,12.87-.83,12.75,12.75,0,0,1,3.12,4.11C82.3,231.48,85.26,241.09,86.1,251.26Z"/><path class="cls-2" d="M69.59,232.26c1.21,2.31.4,3.86-1,5.82l-4.32-4.93Z"/><path class="cls-5" d="M59.15,113c-1,4.51-2.72,6.41-7.79,8.82-3.46,1.63-6.85,3.42-10.33,5A37.55,37.55,0,0,1,26.3,130.5c-1.35,0-2.83.1-3.78-1.76a16.8,16.8,0,0,1,6.57-4.12c2.58-1,5.16-2.4,7.85-2.77,7-.95,13.11-3.74,19-7.3C56.95,114,58,113.53,59.15,113Z"/></g></svg>