<svg id="圖層_1" data-name="圖層 1" xmlns="http://www.w3.org/2000/svg" viewBox="0 0 287.81 324.7"><defs><style>.cls-1{fill:#fff;}.cls-2{fill:#9e3224;}.cls-3{fill:#eabf29;}</style></defs><title>chks</title><path d="M136.88,53.26c.58-3.47,6-6.94,9.39-6.65a5.15,5.15,0,0,1,2.87,1.61,9.8,9.8,0,0,1,2.58,8.31c7.61,1.93,14.89,4,22.29,5.58,12.15,2.55,22.23,8.83,31.17,17,5.16,4.73,10.38,9.68,14.3,15.4,6.51,9.48,11.71,19.7,12.35,31.71.52,9.93,2.05,19.81,2.53,29.74.31,6.56-.36,13.18-.82,19.76-.1,1.45-1.13,2.84-1.87,4.58-.27-.66-.41-1-.49-1.2-3.41,7.13-6.57,14.5-10.39,21.5-4.05,7.43-8,15.16-13.3,21.6a77.59,77.59,0,0,1-45.24,27.11c-4.62.94-9.34,1.45-14,2-1.79.19-2.38.75-2.21,2.56.82,8.94,1.52,17.88,2.34,26.82.3,3.34,0,6.39-3,8.48s-5.46,1.16-6.19-2.51c-2.24-11.18-4.55-22.34-6.75-33.52a4.81,4.81,0,0,0-3-3.75c-7-3.19-13.86-6.52-20.81-9.73a79.07,79.07,0,0,1-33.78-28.89c-7.62-11.66-15.71-23.09-20-36.56-1.6-5-2.95-10.17-4.23-15.3-1.5-6,.08-11.86,1.12-17.68,2.37-13.31,4.77-26.62,9.47-39.37.36-1,.25-2.12.57-3.11.69-2.12,1.1-4.49,2.36-6.23,9.69-13.41,22.59-22.39,38.33-27.38,4.11-1.3,8-3.19,12.2-4.3,4.38-1.17,8.92-1.75,13.39-2.54a17.21,17.21,0,0,1,2.93-.24C134.14,58,136.25,57.1,136.88,53.26Zm10.46,3.86c.15-4-1.18-5.55-3.4-5.51s-3.52,1.51-3.29,5.51Zm-5.91,4.21c-6.85-.08-13.79,1.1-20.57,2.36-15.6,2.91-30.26,8-41.68,19.83a9.54,9.54,0,0,1-2.31,1.8c-4.88,2.6-7.66,7-9.88,11.76a58.43,58.43,0,0,0-3.76,9.26c-2.17,8.09-3.92,16.29-6,24.41-1.55,6.11-2.91,12.21-2.55,17.89a62.73,62.73,0,0,0,6.76,30.15c4.65,9.41,10.11,18.43,15.45,27.49a64.82,64.82,0,0,0,25.66,24.92c5.83,3.1,11.64,6.23,17.52,9.23a47.61,47.61,0,0,0,32.14,4.14,279,279,0,0,0,29.12-8.17c8.7-2.87,16.32-7.9,21.27-15.74,9-14.3,19.2-28,24.62-44.32,1.57-4.74,3.41-9.43,2.93-14.49-.95-9.9-2.1-19.78-3.21-29.66-.36-3.23-1.35-6.46-1.2-9.66a27.08,27.08,0,0,0-3.05-14.4c-5.76-10.75-13.13-20.25-22.81-27.8C182.72,66.91,162.82,61.57,141.44,61.33Zm2.13,195.86c-.46-5.78-.6-5.76-6.41-5.34-.07,0-.14.08-.42.25l6.75,33.07h.78a15.9,15.9,0,0,0,.73-3.41c0-2.11-.34-4.22-.46-6.33C144.23,269.36,144.06,263.26,143.57,257.18Z"/><path class="cls-1" d="M143.95,51.61c2.23,0,3.55,1.51,3.4,5.51h-6.69C140.42,53.12,141.84,51.65,143.95,51.61Z"/><path class="cls-1" d="M120.88,63.68c6.77-1.26,13.71-2.44,20.57-2.36,21.38.25,41.28,5.59,58.46,19,9.69,7.55,17,17,22.81,27.8a27.08,27.08,0,0,1,3.05,14.4c-.15,3.2.84,6.43,1.2,9.66,1.11,9.88,2.26,19.76,3.21,29.66.49,5.07-1.35,9.75-2.93,14.49-5.42,16.34-15.59,30-24.62,44.32-5,7.84-12.57,12.88-21.27,15.74a279,279,0,0,1-29.12,8.17,47.61,47.61,0,0,1-32.14-4.14c-5.88-3-11.69-6.13-17.52-9.23a64.82,64.82,0,0,1-25.66-24.92c-5.34-9.06-10.8-18.08-15.45-27.49a62.73,62.73,0,0,1-6.76-30.15c-.36-5.68,1-11.79,2.55-17.89,2.06-8.12,3.81-16.32,6-24.41A58.43,58.43,0,0,1,67,97.07c2.22-4.79,5-9.16,9.88-11.76a9.54,9.54,0,0,0,2.31-1.8C90.61,71.7,105.27,66.59,120.88,63.68Zm14.74,73.92c-4.54-4.25-9-8.61-15.9-5.73-4.4,1.83-6.89,7.25-6.5,13.45.45,7,1.92,8.54,11.19,11.26,0,2-.1,4,0,6a9.6,9.6,0,0,0,5.29,8.25c4.7,2.56,9.67,1.81,14.06-2.48,5.6-5.48,6.45-8.36,3.74-13.44-.1-.18,0-.45,0-.82,5.08-1.87,9.89-4.22,9.19-10.83-.53-5.09-2.38-9.8-7.86-11.32C143.19,130.41,138.57,132.42,135.62,137.61Zm-19.76,81.78c-1.82,0-3.52.3-3.67,2.62-.11,1.79,2.54,4.13,4.64,3.69a3.59,3.59,0,0,0,2.09-2.61C119.2,220.57,118,219.41,115.86,219.39Zm51.59,5.7c.46-1.87-1.34-3.38-3.24-3.32s-2.89.87-3,2.5c.07,2,2,4.47,3.17,3.94A5.77,5.77,0,0,0,167.45,225.09Z"/><path d="M119.72,131.87c6.92-2.87,11.35,1.49,15.9,5.73,3-5.19,7.57-7.2,13.22-5.64,5.47,1.51,7.32,6.22,7.86,11.32.69,6.61-4.11,9-9.19,10.83,0,.37-.08.64,0,.82,2.71,5.08,1.86,8-3.74,13.44-4.39,4.3-9.36,5-14.06,2.48a9.6,9.6,0,0,1-5.29-8.25c-.12-2,0-4.05,0-6-9.27-2.72-10.74-4.21-11.19-11.26C112.83,139.12,115.33,133.7,119.72,131.87Zm8.6,4.68c-2.48-1.34-5.36-3-8.06-1.33s-3.07,4.8-3.19,7c0,4.71,2,8.54,4.48,9.49,3.08,1.18,6.8-.64,9.32-4.54S132.55,138.84,128.32,136.55Zm16.79-1.3c-3.62,0-8.28,4.39-8.38,8-.07,2.54,5.16,8,7.64,7.6,4.32-.66,8.22-2.2,8-7.36C152.37,138.86,149.19,135.29,145.11,135.25Zm-.33,24.51c0-3.49-5.25-7.42-10-7.37-4.11,0-7,2.74-7,6.56.64,4.68,2.16,9.51,5.9,9.44C138.79,168.3,144.74,163.85,144.78,159.76Z"/><path class="cls-2" d="M120.26,135.23c2.7-1.63,5.58,0,8.06,1.33,4.23,2.28,5.16,6.55,2.56,10.59s-6.24,5.73-9.32,4.54c-2.48-1-4.46-4.78-4.48-9.49C117.19,140,117.59,136.84,120.26,135.23Z"/><path class="cls-2" d="M136.74,143.2c.1-3.57,4.75-8,8.38-8,4.08,0,7.25,3.61,7.29,8.2.2,5.16-3.71,6.7-8,7.36C141.89,151.18,136.67,145.74,136.74,143.2Z"/><path class="cls-2" d="M134.83,152.4c4.7,0,10,3.88,10,7.37,0,4.09-6,8.54-11,8.64-3.73.07-5.26-4.76-5.9-9.44C127.85,155.13,130.72,152.43,134.83,152.4Z"/><path d="M112.2,222c.15-2.32,1.84-2.58,3.67-2.62,2.17,0,3.34,1.18,3.06,3.7a3.59,3.59,0,0,1-2.09,2.61C114.73,226.14,112.08,223.8,112.2,222Z"/><path d="M164.2,221.77c1.9-.05,3.71,1.45,3.24,3.32a5.77,5.77,0,0,1-3.07,3.11c-1.14.53-3.09-1.94-3.17-3.94C161.31,222.64,162.42,221.82,164.2,221.77Z"/><path class="cls-3" d="M137.17,251.84c5.8-.43,5.95-.44,6.41,5.34.49,6.07.65,12.18,1,18.26.12,2.11.45,4.22.46,6.33a15.9,15.9,0,0,1-.73,3.41h-.78l-6.75-33.07C137,251.93,137.09,251.85,137.17,251.84Z"/></svg>