<svg id="圖層_1" data-name="圖層 1" xmlns="http://www.w3.org/2000/svg" viewBox="0 0 287.81 324.7"><defs><style>.cls-1{fill:#ddae1d;}.cls-2{fill:#bf5145;}.cls-3{fill:#f3e7b8;}.cls-4{fill:#fff;}.cls-5{fill:#cf543f;}</style></defs><title>chks</title><path class="cls-1" d="M253.26,137.43c1.09.24,2.15.57,3.58,1-1.42,3.34-3.62,4.17-6.45,3.81a60.37,60.37,0,0,1-25-9.27c-2.55-1.63-1.54-4.27-3.11-6.68,1,.48,1.51.55,1.74.85,3.29,4.25,8.15,5.56,13,6.75C242.4,135.17,247.85,136.24,253.26,137.43Z"/><path d="M252.46,134.16c2.6.58,5.17,1.29,7.62,1.91-.18,6.53-3.91,10.49-9.64,9.86-4.63-.51-9.17-2-13.73-3.11a38.94,38.94,0,0,1-3.92-1.41,93.68,93.68,0,0,1,2.39,10.24c.45,3.64-1.42,6.57-4.39,8.78.77,5.2,1.43,10.29,2.33,15.34a4.72,4.72,0,0,0,2,2.48,14.86,14.86,0,0,1,5.9,8.67c.86,3.24.17,4.88-3,6.1a7.08,7.08,0,0,0-4.69,6.07c-.6,3.81-.91,7.67-1.78,11.41a78.78,78.78,0,0,1-8.68,22.27,59.18,59.18,0,0,1-8.27,10.84c-5.65,5.85-11.46,11.59-17.66,16.85-8.56,7.28-18.74,11.27-29.76,13.35-8.55,1.62-17,3.59-26,5.49-.32,9.49.27,19.08-3.35,28.05-4.29-.64-5.74-1.72-6.38-5.29-.51-2.8-.45-5.7-.94-8.5-.77-4.48-1.79-8.92-2.71-13.38-.47-2.28-2-3.24-4.19-3.57-4.65-.71-9.29-1.55-13.93-2.38a17.89,17.89,0,0,1-4.15-1c-13.11-5.82-27.31-9.51-38.37-19.43-1.89-1.69-4.32-2.77-6.47-4.19-2.89-1.93-5.41-4.16-6.63-7.61a8.91,8.91,0,0,0-2-2.72c-3.08-3.38-6.38-6.58-9.23-10.14a20.22,20.22,0,0,1-3.72-7.06c-1.76-6.47-3-13.08-4.63-19.58-.48-1.85-1.78-3.51-2.78-5.21s-2.39-3.24-3.15-5c-1.82-4.3-.26-7.53,4.16-9.13,1.2-.43,2.44-.71,4-1.15a89.13,89.13,0,0,0-.06-9.34,41.39,41.39,0,0,1,1.75-18.19c4.51-13,9.65-25.67,17.25-37.22.79-1.19,1.57-2.39,2.41-3.54,2.4-3.31,5.42-5.09,9.59-3.61,1.74.62,2.92,0,4.2-1.17,5-4.53,9.94-9,15-13.4A72.33,72.33,0,0,1,94,90.17c2.93-2,4.68-4.44,4.72-8.1,0-4,1.05-5.22,5.09-6s8.17-1.34,12.25-2c2.8-.47,5.59-1,9.11-1.6a43.29,43.29,0,0,0-1.31-4.19c-5.2-11.7-8.12-24-10.2-36.6-.58-3.51-1.17-7-1.79-10.53-.46-2.65.13-4.79,2.68-6.14s4.42-1.15,7.05,1A33.45,33.45,0,0,1,130,27.24c1.38,2.79,2.81,5.56,4.2,8.31,5.9-2.59,6.59-2.45,10.57,2.64a23.62,23.62,0,0,1,3.1,5.09C151,50.48,154,57.74,157,65c.69,1.69,1.1,3.51,1.72,5.5,2.73,1.17,5.75.44,8.67.53,4.88.14,4.76-.26,6.3,4.52.13.41.39.78.48,1.19,1,4.28,2.92,7.13,7.78,8.23,5.05,1.15,9.14,4.68,12.73,8.41,5.55,5.75,11,11.58,16.28,17.61,3.3,3.81,7.31,6.76,10.91,10.15C230.57,129.37,241.46,131.72,252.46,134.16Zm4.39,4.22c-1.43-.39-2.5-.71-3.58-1-5.41-1.2-10.86-2.26-16.24-3.59-4.83-1.2-9.69-2.51-13-6.75-.23-.29-.73-.37-1.74-.85,1.56,2.41.55,5.05,3.11,6.68a60.37,60.37,0,0,0,25,9.27C253.22,142.56,255.43,141.72,256.84,138.39Zm-19.26,50.42c-1.33-6.06-4.79-7.66-10.53-5.14l3,10.57Zm-7.79-32.24c2.47-4,2.45-7.87.4-11.42-.7-1.21-1.47-2.42-3.61-1.58ZM224.17,181c4.55-1.34,5.3-2.28,4.95-7-.24-3.23-.75-6.45-1.28-9.64-.59-3.5-1.33-7-2-10.47-.63-3.14-1.31-6.28-2.06-9.85l-7.48,3.23c1.15,4,2.72,7.55,3.16,11.27.88,7.4,1.13,14.88,1.68,22.87A23.67,23.67,0,0,0,224.17,181Zm-8.4,55.36c7.34-7.79,14.85-30.71,12.48-37.76L221,202.08c.47,2.46,1.47,4.51,1.11,6.29-1.72,8.51-3.81,16.95-5.77,25.41C216.17,234.44,216,235.12,215.77,236.32Zm9.48-99.61c.49,2.92.49,2.92,3.41,2.17Zm-6.88,62.91c8-2.65,9.36-5.76,5.5-13.31a6.71,6.71,0,0,0-1.06-1.15l-6.06,2.55C217.32,191.9,217.85,195.77,218.37,199.63Zm3.92-59.21c-1.25-3.3-2.1-6-3.3-8.58a161.55,161.55,0,0,0-7.81-15.64c-2.27-3.74-5.38-7-8.35-10.29-5.68-6.26-11.8-12-19.33-16.09A18.57,18.57,0,0,0,169,88a11,11,0,0,1-2.5.49c-13.55.6-27.11,1-40.65,1.8-7.1.41-14.17,1.42-21.26,2.15-1,.1-2.14.54-2.93.18-2.73-1.21-4.79,0-6.63,1.64-6.76,5.92-13.49,11.88-20.11,18-3,2.79-2.76,3.65.21,6.53C87,130.19,102,132.32,117.5,133.29c2.06.13,3.15-.88,3.72-2.77.89-3,1.82-6,2.85-9a20,20,0,0,1,2.09-4.66c2.18-3.24,7-4.29,10.78-2.56,2.76,1.25,3.56,3.63,2.68,8.1-.5,2.51-1.06,5-1.57,7.51-.36,1.78-.68,3.56-1.11,5.82,4,.62,7.58,1.51,11.19,1.67,8.84.39,17.71.27,26.55.67,9.28.42,18.25-.46,26.66-4.72a10.92,10.92,0,0,1,1.61-.58c4.41-1.36,6.7-.4,8.64,3.78.94,2,1.75,4.15,2.78,6.64Zm-7.85,70.76c4.16-1.66,4.31-2,3.29-6.53-6.39,1.45-12.75,3-19.17,4.34-8.39,1.7-16.78,3.35-25.42,3.5-9.42.17-18.84.78-28.25,1.21-3.56.16-7.14.66-10.69.54-9.84-.33-19.67-1.25-29.51-1.29a125.15,125.15,0,0,1-28.38-3.7c-5.83-1.38-11.77-2.28-17.65-3.47-6.27-1.27-12.52-2.63-18.79-3.91a4.1,4.1,0,0,0-1.3.21c-.39,4.89,2,7,6.16,8.11,8.29,2.13,16.42,5,24.79,6.65,9.37,1.86,19,2.45,28.39,4.09,19.78,3.46,39.62,2.14,59.39.69,11.79-.86,23.46-3.28,35.2-4.86A92.06,92.06,0,0,0,214.43,211.17Zm2.81-35.27c-.24-4.6.69-9.48-1.62-14.53-2.09.84-3.79,1.54-5.52,2.2-10,3.78-20,7.59-30.06,11.3a40.1,40.1,0,0,1-15.9,2.92,5,5,0,0,0-3,1c-5.05,4-10.3,7.53-16.93,8a78.13,78.13,0,0,1-11.55.25,23.31,23.31,0,0,1-19.06-11.42,5.34,5.34,0,0,0-4.38-2.85c-1.27-.12-2.54-.34-3.81-.56A240.26,240.26,0,0,1,46,153.57a16.72,16.72,0,0,0-2.75-.74A45.69,45.69,0,0,0,40.08,169c-.06,3.15,1.17,5.32,4.42,6.49,7.25,2.61,14.4,5.47,22.05,6.8,6.61,1.15,13.18,2.5,19.75,3.82a197.3,197.3,0,0,0,46.81,3.81c15.41-.61,30.81-1.36,46.21-2.12a26.87,26.87,0,0,0,6.74-1.11c10.19-3.25,20.33-6.65,30.48-10C216.76,176.61,216.9,176.29,217.25,175.9Zm.09,4.73a5.9,5.9,0,0,0-1.47,0l-29.27,9.67a16.28,16.28,0,0,1-3.69,1.06C175,192,167,192.6,159,193.06c-4.42.25-8.85.27-13.28.3-10.85.06-21.69.26-32.54,0-4.36-.1-8.71-1.19-13.05-1.87-11.69-1.83-23.45-3.31-35-5.66-7.77-1.57-15.3-4.39-23.19-6.74-1.53,5.12-1.23,5.83,3.39,7.79a16.08,16.08,0,0,0,3.21,1.18c6.59,1.21,13.15,2.69,19.79,3.43,15.31,1.71,30.64,3.43,46,4.42a334,334,0,0,0,34.18.26c5.54-.21,11.06-.63,16.62-.42a75.62,75.62,0,0,0,26.22-3.3c7.19-2.33,14.35-4.79,21.48-7.31C214.85,184.43,217,183.54,217.34,180.63ZM215,218.23c1.81-.61,2-1.81,1.09-3.44-2.63.69-5.2,1.6-7.85,2-20.85,3.37-41.4,8.75-62.65,9.29-10.14.26-20.32.79-30.41.16-11.94-.73-23.82-2.55-35.72-3.94A132,132,0,0,1,45,214c-1-.4-2.05-.64-3.28-1-.45,3.07,1.49,3.78,3.42,4.23,11.54,2.68,23,5.85,34.67,7.73,13.08,2.12,26.34,3.13,39.53,4.47a182.36,182.36,0,0,0,40.21-.41,367.33,367.33,0,0,0,52.55-9.94C213.1,218.79,214.07,218.55,215,218.23Zm-3.78-58.85c4.11-1.58,4.08-1.8,3.06-6.71-16.67,7.58-33.41,14.79-52,17.16-.08,1.5-.15,2.69-.23,4.2,5.68,0,10.93-.36,15.9-2.17C189.13,167.83,200.2,163.64,211.24,159.39Zm-3.37,71.56c5.55-.91,7-2.81,7.34-9.19-6.48,1.54-12.57,3-18.68,4.44-15.33,3.54-30.79,6.34-46.52,7.25a285.34,285.34,0,0,1-46.61-1.39,359,359,0,0,1-55.1-10.16c-1.33-.36-2.68-.66-4.12-1,.28,3.18.24,3.3,2.81,4.2a132.31,132.31,0,0,0,12.61,4.12c22.35,5.46,44.86,10,68,10.39,6.13.12,12.3.49,18.4.08,7.82-.54,15.62-1.58,23.38-2.72C182.22,235.1,195.05,233,207.87,230.95Zm5.22-28.64c1.72-4.49,1.73-8.62-.57-12.93l-7.87,3.11c-.28,3.75-.53,7.12-.84,11.31Zm.69-53.23c-1.31-3.18-2.37-6-3.61-8.69-2.36-5.18-4.43-5.95-9.35-3.2a34.08,34.08,0,0,1-17.65,4.4c-11.84-.28-23.66-.88-35.5-1.27-3.66-.12-7.32,0-11.3,0-.19,3.11-.36,5.71-.51,8.32,16,.43,19.07,2.78,27.14,17.07C181.24,163.76,197.45,156.62,213.78,149.07Zm-1.87,92.06a10,10,0,0,0,1.15-1.71,102.47,102.47,0,0,1-47.84,12.69q-29.57.57-59.16,0c-6.07-.1-12.19-1.5-18.15-2.9-6.79-1.6-13.41-3.94-20.14-5.8-2.81-.78-5.73-1.17-8.6-1.73L58.8,243c7.35,4.92,14.31,10.6,22.13,14.61,14.12,7.23,28.79,13.26,44.82,15.12,7.39.85,14.76,2.11,22.17.85,6.61-1.12,13.16-2.59,19.73-4a65,65,0,0,0,29.43-14.14C202.27,250.93,207,245.93,211.91,241.14Zm-.25-7.29c-.53-.13-.82-.3-1.07-.26-10.54,1.84-21.19,3.23-31.6,5.65-25.57,5.93-51.27,6-77,2.26-12.13-1.75-24.13-4.42-36.16-6.8-5-1-9.91-2.28-15.26-3.53a14.79,14.79,0,0,0,.8,1.92c1.71,2.78,4.52,3.91,7.46,4.6,11.39,2.67,22.8,5.21,34.2,7.83,2.49.57,4.91,1.63,7.42,1.85,5.53.48,11.1.69,16.65.76,8,.1,16,0,24-.06,12.27-.12,24.55,1.11,36.8-.74,10.36-1.57,20.55-3.54,29.66-9.12C209.27,237.12,211.15,236.19,211.65,233.85ZM199.53,205c.39-3.63,2-7,.74-10.91L189.89,197c.38,3.34.72,6.38,1.15,10.19Zm-13,2.6c.12-3.52.82-6.69-1.1-9.79l-11.6,1.83v9.21ZM171.73,82.72c.49-1.39.73-3-1.34-4.2l-3.11,5.68C169.62,84.73,171.11,84.46,171.73,82.72Zm-2.46,125.72v-8.32h-10.9v8.32ZM163.69,82.7c1.87-2.24,3.44-4.3,3-7.51h-9.78C158.17,78.74,161.25,80.3,163.69,82.7Zm-9.6,96c4.25-3.15,6-9.14,4.07-13.74a19.19,19.19,0,0,0-21.33-10.84,28.58,28.58,0,0,1,4.53,2.76,3.16,3.16,0,0,1,.79,2.87,2.91,2.91,0,0,1-2.75.88c-3.86-2.2-7.8-4.51-7.78-9.82,0-8.13.5-16.21,2.74-24.1a24.32,24.32,0,0,0,1.05-6.25c0-2.08-1.09-2.67-3.15-2.24-2.71.57-4.11,2.47-4.84,4.92-1,3.28-1.85,6.58-2.69,9.89a86.39,86.39,0,0,0-2.49,23.32c.13,5.19,2.29,9.39,8,10.79a44.06,44.06,0,0,1,6,2.14c1.16.47,2.43,1,1.78,3.29-2.6-.31-5.26-.54-7.88-1-5.18-.82-8.56-4.8-12.65-7.64a12.74,12.74,0,0,0,4.9,14.39c6.5,4.61,13.74,5.2,21.31,4.19A21.79,21.79,0,0,0,154.09,178.68Zm6.26-93.78c-3.08-3.66-5.62-6.83-9.47-9.18l-5.67,9.75C150.67,86.08,155.26,86.4,160.35,84.9Zm-6-14.33a10.44,10.44,0,0,0-.31-1.93c-3.23-8.22-6.39-16.47-9.78-24.63a9.54,9.54,0,0,0-4.82-5.28,4,4,0,0,0-1.57,4.93c2.85,8.93,5.65,17.88,8.58,27.21C148.78,71.13,151.52,71.5,154.36,70.57Zm-.69,137.92v-8.3c-4.82.08-9.31-.5-14.15.56.32,2.73.6,5.08.91,7.73ZM141.34,83.94c2.9-3.47,4.19-5.89,4.88-9.26l-11,1.17Zm1-13.14c.09-3.42-1.14-6.47-2.1-9.55a198.41,198.41,0,0,0-15-35.41c-1.6-3-3.56-5.76-7.11-6.87-2.72,3.15-1.83,6.4-1.32,9.86,2.05,13.78,6.41,26.86,11.58,39.72.49,1.21,1.45,3.05,2.34,3.14C134.5,72.09,138.39,72.71,142.31,70.8Zm-5.56,226c.32-5.77.63-11.55,1-17.61l-4.67-1.14,3.19,18.57Zm-.41-88.24c-.29-2.82-.51-5-.77-7.55H124.86v7.56A86.85,86.85,0,0,0,136.34,208.58Zm1.72-122.19-5.42-7.56-4.89,8.23Zm-12.93-1.22,4.52-9.09c-3.35.3-5.86.5-8.36.77a26.84,26.84,0,0,0-2.84.66C119.72,81.27,121,84.26,125.14,85.17Zm-4.86,123.2v-8H107.73v8ZM112.15,87.51h7.52l-4.9-6.73ZM117.72,144c.16-1.94.47-3.86.73-5.91a24.75,24.75,0,0,0-2.44-.68c-5.77-.9-11.54-1.91-17.34-2.62-13-1.58-22.84-8.27-30.84-18.23a31,31,0,0,0-3.45-3.16c-7.7,6.78-11.94,15.25-15.28,24.31-.65,1.77.33,2.78,1.54,3.56,4,2.53,7.85,5.21,12,7.37,11.35,5.88,23.7,9,35.92,12.44,4.21,1.18,8.68,1.44,12.86,2.1a36.09,36.09,0,0,1,3.6-4.14,5.89,5.89,0,0,0,2.11-5.23A88.52,88.52,0,0,1,117.72,144Zm-6.6,25.12c0-.76-.08-1.45-.09-1.74-11.25-2.9-22.36-5.45-33.29-8.65-11.1-3.25-21.34-8.6-31.27-15.13l-1.77,4.84c4.1,2.1,7.75,4.38,11.69,5.9,8.13,3.12,16.35,6,24.65,8.66,9.4,3,18.93,5.5,28.79,6.43A4.46,4.46,0,0,0,111.12,169.15Zm-2.85-84,3-6.16-7.29,1.21Zm-5.69.55c.5,2.42.5,2.42,2.91,2.25Zm.6,122.34v-8.36l-10.67-.94v8.57ZM87.8,206.4v-8.17l-11.58-1.1v7.63ZM71.9,203.9v-6.95a26.32,26.32,0,0,0-10.63-1.07l1.24,5.75Zm-14-4.17c-.3-1.65-.6-3.29-1-5.32l-8.07-1.6c.19,2.24.33,3.88.45,5.39C54.12,200.08,54.44,200.13,57.86,199.73Zm-13.31-2.18c.72-7,0-7-4.81-8l.82,7.28c1,.29,1.71.54,2.39.66A9.44,9.44,0,0,0,44.55,197.55Zm-8.33-2.38c-.3-2.85-.57-5.32-.87-8.12-2.73.56-3.13,2.18-2.94,3.92A4.43,4.43,0,0,0,36.22,195.18Z"/><path class="cls-2" d="M227.05,183.67c5.74-2.52,9.21-.92,10.53,5.14l-7.52,5.42Z"/><path class="cls-3" d="M230.2,145.15c2.05,3.55,2.07,7.4-.4,11.42l-3.21-13C228.73,142.73,229.5,143.94,230.2,145.15Z"/><path class="cls-4" d="M229.11,174c.35,4.72-.4,5.66-4.95,7a23.67,23.67,0,0,1-3.06.42c-.55-8-.8-15.46-1.68-22.87-.44-3.73-2-7.32-3.16-11.27l7.48-3.23c.75,3.57,1.42,6.71,2.06,9.85.7,3.48,1.44,7,2,10.47C228.37,167.52,228.87,170.74,229.11,174Z"/><path class="cls-4" d="M228.25,198.56c2.36,7.06-5.14,30-12.48,37.76.26-1.21.4-1.88.56-2.55,2-8.46,4-16.9,5.77-25.41.36-1.78-.64-3.83-1.11-6.29Z"/><path class="cls-4" d="M228.65,138.89c-2.91.75-2.91.75-3.41-2.17Z"/><path class="cls-3" d="M223.87,186.31c3.86,7.55,2.55,10.66-5.5,13.31-.52-3.86-1-7.72-1.62-11.91l6.06-2.55A6.71,6.71,0,0,1,223.87,186.31Z"/><path class="cls-4" d="M219,131.84c1.2,2.56,2,5.28,3.3,8.58l-7.91,2.81c-1-2.49-1.84-4.59-2.78-6.64-1.93-4.17-4.22-5.14-8.64-3.78a10.92,10.92,0,0,0-1.61.58c-8.41,4.26-17.38,5.14-26.66,4.72-8.84-.4-17.71-.29-26.55-.67-3.61-.16-7.19-1.05-11.19-1.67.43-2.26.75-4,1.11-5.82.51-2.51,1.07-5,1.57-7.51.88-4.47.08-6.85-2.68-8.1-3.81-1.72-8.6-.68-10.78,2.56a20,20,0,0,0-2.09,4.66c-1,3-2,6-2.85,9-.56,1.9-1.66,2.9-3.72,2.77-15.45-1-30.48-3.1-42.33-14.58-3-2.88-3.24-3.74-.21-6.53,6.62-6.08,13.35-12,20.11-18,1.84-1.62,3.9-2.85,6.63-1.64.79.35,1.95-.08,2.93-.18,7.09-.73,14.15-1.75,21.26-2.15,13.54-.78,27.1-1.2,40.65-1.8A11,11,0,0,0,169,88a18.57,18.57,0,0,1,14.46,1.87c7.54,4.05,13.65,9.83,19.33,16.09,3,3.27,6.08,6.55,8.35,10.29A161.55,161.55,0,0,1,219,131.84Zm-23-12.32c1.66,1.36,2.45.09,3.54-1.33-1.19-1.19-2-2.54-3.61-1.13A1.42,1.42,0,0,0,196,119.52Zm-1.49-9.34c1.12.12,2.31-.45,4.2-.88a17.73,17.73,0,0,0-8.87-3.57,3.08,3.08,0,0,0-1.65.32c-1.18.54-1.43,2.35-.31,2.72A32.64,32.64,0,0,0,194.51,110.19Z"/><path class="cls-3" d="M217.72,204.64c1,4.51.87,4.87-3.29,6.53a92.06,92.06,0,0,1-21.94,5.6c-11.74,1.58-23.41,4-35.2,4.86-19.78,1.45-39.61,2.77-59.39-.69-9.41-1.64-19-2.23-28.39-4.09-8.37-1.66-16.5-4.53-24.79-6.65-4.15-1.07-6.55-3.21-6.16-8.11a4.1,4.1,0,0,1,1.3-.21c6.27,1.28,12.52,2.64,18.79,3.91,5.88,1.19,11.82,2.09,17.65,3.47a125.15,125.15,0,0,0,28.38,3.7c9.84,0,19.67,1,29.51,1.29,3.55.12,7.13-.38,10.69-.54,9.42-.44,18.83-1,28.25-1.21,8.64-.16,17-1.81,25.42-3.5C205,207.68,211.33,206.09,217.72,204.64Z"/><path class="cls-3" d="M215.63,161.37c2.31,5.06,1.39,9.94,1.62,14.53-.34.39-.49.71-.71.79-10.15,3.37-20.29,6.77-30.48,10a26.87,26.87,0,0,1-6.74,1.11c-15.4.77-30.8,1.51-46.21,2.12a197.3,197.3,0,0,1-46.81-3.81c-6.57-1.32-13.14-2.68-19.75-3.82-7.65-1.33-14.8-4.19-22.05-6.8-3.25-1.17-4.48-3.34-4.42-6.49a45.69,45.69,0,0,1,3.13-16.19,16.72,16.72,0,0,1,2.75.74,240.26,240.26,0,0,0,59.44,18.67c1.27.22,2.53.44,3.81.56a5.34,5.34,0,0,1,4.38,2.85,23.31,23.31,0,0,0,19.06,11.42,78.13,78.13,0,0,0,11.55-.25c6.63-.51,11.88-4.08,16.93-8a5,5,0,0,1,3-1,40.1,40.1,0,0,0,15.9-2.92c10-3.71,20-7.52,30.06-11.3C211.83,162.91,213.54,162.2,215.63,161.37Z"/><path class="cls-2" d="M215.87,180.65a5.9,5.9,0,0,1,1.47,0c-.32,2.91-2.49,3.79-4.55,4.52-7.13,2.51-14.28,5-21.48,7.31a75.62,75.62,0,0,1-26.22,3.3c-5.55-.2-11.08.21-16.62.42a334,334,0,0,1-34.18-.26c-15.37-1-30.69-2.71-46-4.42-6.64-.74-13.2-2.22-19.79-3.43a16.08,16.08,0,0,1-3.21-1.18c-4.62-2-4.92-2.67-3.39-7.79,7.89,2.34,15.42,5.16,23.19,6.74,11.59,2.35,23.35,3.83,35,5.66,4.35.68,8.69,1.77,13.05,1.87,10.84.24,21.69.05,32.54,0,4.43,0,8.86,0,13.28-.3,8-.45,15.95-1.05,23.91-1.68a16.28,16.28,0,0,0,3.69-1.06Z"/><path class="cls-2" d="M216.11,214.79c.89,1.63.72,2.83-1.09,3.44-.94.32-1.91.56-2.88.82A367.33,367.33,0,0,1,159.59,229a182.36,182.36,0,0,1-40.21.41c-13.19-1.33-26.45-2.35-39.53-4.47-11.67-1.89-23.14-5.06-34.67-7.73-1.93-.45-3.88-1.16-3.42-4.23,1.23.37,2.29.6,3.28,1a132,132,0,0,0,34.44,8.36c11.9,1.39,23.78,3.21,35.72,3.94,10.09.62,20.27.09,30.41-.16,21.25-.54,41.81-5.92,62.65-9.29C210.91,216.4,213.48,215.48,216.11,214.79Z"/><path class="cls-2" d="M214.3,152.68c1,4.9,1.05,5.12-3.06,6.71-11,4.26-22.11,8.44-33.23,12.48-5,1.81-10.22,2.14-15.9,2.17.09-1.51.15-2.7.23-4.2C180.89,167.47,197.64,160.26,214.3,152.68Z"/><path class="cls-3" d="M215.21,221.75c-.31,6.38-1.8,8.29-7.34,9.19-12.82,2.09-25.65,4.15-38.5,6-7.76,1.13-15.56,2.18-23.38,2.72-6.1.42-12.26,0-18.4-.08-23.13-.42-45.64-4.93-68-10.39A132.31,132.31,0,0,1,47,225.1c-2.56-.91-2.52-1-2.81-4.2,1.44.35,2.78.65,4.12,1a359,359,0,0,0,55.1,10.16A285.34,285.34,0,0,0,150,233.45c15.73-.91,31.19-3.72,46.52-7.25C202.64,224.78,208.74,223.29,215.21,221.75Z"/><path class="cls-2" d="M212.51,189.38c2.31,4.3,2.29,8.43.57,12.93l-9.28,1.5c.31-4.2.56-7.57.84-11.31Z"/><path class="cls-3" d="M210.17,140.38c1.24,2.72,2.3,5.51,3.61,8.69-16.33,7.55-32.54,14.68-50.78,16.6-8.07-14.28-11.18-16.64-27.14-17.07.16-2.61.32-5.21.51-8.32,4,0,7.65-.1,11.3,0,11.84.39,23.66,1,35.5,1.27a34.08,34.08,0,0,0,17.65-4.4C205.75,134.43,207.81,135.2,210.17,140.38Z"/><path class="cls-4" d="M213.06,239.42a10,10,0,0,1-1.15,1.71c-4.91,4.79-9.64,9.79-14.83,14.26a65,65,0,0,1-29.43,14.14c-6.56,1.39-13.11,2.86-19.73,4-7.42,1.26-14.79,0-22.17-.85-16-1.86-30.7-7.89-44.82-15.12-7.82-4-14.78-9.68-22.13-14.61l.37-1.23c2.87.57,5.79,1,8.6,1.73,6.74,1.87,13.35,4.2,20.14,5.8,6,1.4,12.08,2.8,18.15,2.9q29.58.5,59.16,0A102.47,102.47,0,0,0,213.06,239.42Z"/><path class="cls-2" d="M210.58,233.59c.25,0,.54.12,1.07.26-.5,2.34-2.38,3.28-4.15,4.37-9.11,5.59-19.3,7.56-29.66,9.12-12.25,1.85-24.53.62-36.8.74-8,.08-16,.16-24,.06-5.56-.07-11.12-.29-16.65-.76-2.51-.21-4.93-1.27-7.42-1.85-11.39-2.62-22.81-5.16-34.2-7.83-2.94-.69-5.75-1.82-7.46-4.6a14.79,14.79,0,0,1-.8-1.92c5.35,1.25,10.27,2.54,15.26,3.53,12,2.38,24,5,36.16,6.8,25.77,3.72,51.46,3.67,77-2.26C189.39,236.82,200,235.43,210.58,233.59Z"/><path class="cls-3" d="M200.27,194.11c1.25,3.9-.36,7.28-.74,10.91L191,207.19c-.43-3.81-.78-6.85-1.15-10.19Z"/><path d="M199.55,118.2c-1.09,1.42-1.88,2.68-3.54,1.33a1.42,1.42,0,0,1-.07-2.46C197.52,115.66,198.35,117,199.55,118.2Z"/><path d="M198.72,109.31c-1.89.42-3.08,1-4.2.88a32.64,32.64,0,0,1-6.63-1.42c-1.12-.37-.86-2.18.31-2.72a3.08,3.08,0,0,1,1.65-.32A17.73,17.73,0,0,1,198.72,109.31Z"/><path class="cls-2" d="M185.4,197.84c1.92,3.11,1.23,6.27,1.1,9.79l-12.7,1.24v-9.21Z"/><path class="cls-2" d="M170.39,78.51c2.07,1.19,1.83,2.81,1.34,4.2-.62,1.74-2.11,2-4.45,1.48Z"/><path class="cls-3" d="M169.26,200.11v8.32h-10.9v-8.32Z"/><path class="cls-3" d="M166.73,75.19c.4,3.21-1.17,5.27-3,7.51-2.45-2.4-5.52-4-6.74-7.51Z"/><path class="cls-4" d="M158.16,164.95c1.95,4.59.18,10.58-4.07,13.74a21.79,21.79,0,0,1-10.33,3.87c-7.57,1-14.8.42-21.31-4.19a12.74,12.74,0,0,1-4.9-14.39c4.09,2.84,7.47,6.81,12.65,7.64,2.62.42,5.28.65,7.88,1,.65-2.24-.62-2.81-1.78-3.29a44.06,44.06,0,0,0-6-2.14c-5.71-1.4-7.87-5.6-8-10.79A86.39,86.39,0,0,1,124.73,133c.84-3.31,1.72-6.61,2.69-9.89.73-2.46,2.13-4.35,4.84-4.92,2.06-.43,3.18.17,3.15,2.24a24.32,24.32,0,0,1-1.05,6.25c-2.24,7.89-2.72,16-2.74,24.1,0,5.31,3.92,7.61,7.78,9.82a2.91,2.91,0,0,0,2.75-.88,3.16,3.16,0,0,0-.79-2.87,28.58,28.58,0,0,0-4.53-2.76A19.19,19.19,0,0,1,158.16,164.95Z"/><path class="cls-2" d="M150.88,75.72c3.85,2.35,6.39,5.53,9.47,9.18-5.09,1.5-9.69,1.18-15.14.57Z"/><path class="cls-5" d="M154,68.64a10.44,10.44,0,0,1,.31,1.93c-2.84.94-5.58.56-7.9.3-2.93-9.33-5.73-18.28-8.58-27.21a4,4,0,0,1,1.57-4.93A9.54,9.54,0,0,1,144.27,44C147.66,52.17,150.82,60.42,154,68.64Z"/><path class="cls-2" d="M153.67,200.2v8.3H140.43c-.31-2.66-.59-5-.91-7.73C144.36,199.69,148.86,200.27,153.67,200.2Z"/><path class="cls-3" d="M146.22,74.68c-.69,3.37-2,5.79-4.88,9.26l-6.13-8.1Z"/><path class="cls-5" d="M140.21,61.25c1,3.08,2.18,6.13,2.1,9.55-3.92,1.91-7.81,1.29-11.56.89-.89-.09-1.85-1.93-2.34-3.14-5.17-12.86-9.53-25.94-11.58-39.72-.51-3.45-1.4-6.71,1.32-9.86,3.55,1.12,5.51,3.9,7.11,6.87A198.41,198.41,0,0,1,140.21,61.25Z"/><path class="cls-1" d="M137.72,279.21c-.33,6.06-.65,11.84-1,17.61l-.51-.18-3.19-18.57Z"/><path class="cls-3" d="M135.57,201c.25,2.5.48,4.73.77,7.55a86.85,86.85,0,0,1-11.48,0V201Z"/><path class="cls-2" d="M132.64,78.83l5.42,7.56-10.32.66Z"/><path class="cls-3" d="M129.65,76.07l-4.52,9.09c-4.11-.91-5.41-3.9-6.69-7.67a26.84,26.84,0,0,1,2.84-.66C123.79,76.57,126.3,76.37,129.65,76.07Z"/><path class="cls-2" d="M120.28,200.41v8H107.73v-8Z"/><path class="cls-2" d="M119.67,87.51h-7.52l2.62-6.73Z"/><path class="cls-3" d="M118.44,138.13c-.26,2-.56,4-.73,5.91a88.52,88.52,0,0,0-.59,9.81,5.89,5.89,0,0,1-2.11,5.23,36.09,36.09,0,0,0-3.6,4.14c-4.18-.66-8.65-.92-12.86-2.1C86.35,157.7,74,154.55,62.65,148.68c-4.16-2.15-8.05-4.83-12-7.37-1.21-.78-2.19-1.79-1.54-3.56,3.34-9.06,7.58-17.53,15.28-24.31a31,31,0,0,1,3.45,3.16c8,10,17.87,16.65,30.84,18.23,5.8.71,11.56,1.72,17.34,2.62A24.75,24.75,0,0,1,118.44,138.13Z"/><path class="cls-2" d="M111,167.42c0,.28.06,1,.09,1.74a4.46,4.46,0,0,1-1.28.32C100,168.54,90.44,166,81,163c-8.3-2.63-16.52-5.54-24.65-8.66-3.94-1.52-7.59-3.8-11.69-5.9l1.77-4.84c9.92,6.53,20.16,11.87,31.27,15.13C88.66,162,99.78,164.52,111,167.42Z"/><path class="cls-3" d="M111.24,79l-3,6.16-4.32-5Z"/><path class="cls-2" d="M105.49,87.92c-2.41.17-2.41.17-2.91-2.25Z"/><path class="cls-3" d="M103.18,199.65V208l-10.67-.73v-8.57Z"/><path class="cls-2" d="M87.8,198.23v8.17l-11.58-1.64v-7.63Z"/><path class="cls-3" d="M71.9,196.95v6.95l-9.4-2.27-1.24-5.75A26.32,26.32,0,0,1,71.9,196.95Z"/><path class="cls-2" d="M56.88,194.42c.37,2,.67,3.66,1,5.32-3.42.4-3.74.34-8.58-1.52-.13-1.51-.27-3.16-.45-5.39Z"/><path class="cls-3" d="M39.74,189.6c4.85.93,5.53.91,4.81,8a9.44,9.44,0,0,1-1.6,0c-.68-.12-1.35-.36-2.39-.66Z"/><path class="cls-2" d="M35.36,187.06c.3,2.8.56,5.27.87,8.12a4.43,4.43,0,0,1-3.81-4.2C32.22,189.24,32.63,187.62,35.36,187.06Z"/></svg>