<svg id="圖層_1" data-name="圖層 1" xmlns="http://www.w3.org/2000/svg" viewBox="0 0 287.81 324.7"><defs><style>.cls-1{fill:#fff;}.cls-2{fill:#b8b7b7;}.cls-3{fill:#4f5654;}.cls-4{fill:#1d7052;}.cls-5{fill:#ddae1d;}</style></defs><title>chks</title><path d="M261.05,170.27c3.3,2.59,4,6.47,3.63,10.11-.6,5.38-2.16,10.65-7.74,13.37a1.3,1.3,0,0,0-.66.94c.1,3.62.4,7.24.39,10.86,0,4.37-.28,8.75-.37,13.12,0,2.13.16,4.28,0,6.4-.25,4-.55,8-1.12,11.94-.12.79-1.46,1.82-2.37,2-2.64.51-5.37.55-8,1-2,.31-3.48-.18-4.36-2.32L240,238a41,41,0,0,1,0,4.73c-.19,1.71-.81,3.37-1,5.08a12.52,12.52,0,0,0,.05,4.23c1.25,5.29,1.44,10.69,1.88,16.05.39,4.69.82,9.4.84,14.1,0,4.22-.65,8.38-3.71,11.73a5.64,5.64,0,0,1-4.46,2,26.74,26.74,0,0,1-3.93-.28A5.26,5.26,0,0,1,225,291c-.72-5-1.33-9.93-.77-15a28.33,28.33,0,0,0-.49-7.69,46.11,46.11,0,0,1,0-17.06c.19-.92-.47-2-.72-3-3.21,2.68-6.2,5-9,7.56-3.42,3.08-7.67,4.26-11.88,5.53s-8.55,2.51-12.88,3.5c-5.51,1.26-11.08,2.27-16.63,3.38-2.68.54-5.36,1.14-8.06,1.59-3.21.53-6.42,1-9.65,1.35-5,.53-10.06,1.07-15.11,1.32a87.41,87.41,0,0,1-10.67-.21c-6.62-.47-13.26-.91-19.84-1.76-7-.9-13.91-2-20.75-3.5-4-.88-7.82-2.63-11.64-4.19-2.94-1.2-5.72-2.79-8.64-4-.76-.33-1.87.15-2.67-.14a14.68,14.68,0,0,1-3.94-2c-1.59-1.23-3.59-2.08-4.33-4.24a7.82,7.82,0,0,0-1.14-1.72l-.63.45c-.31,5.81-.77,11.59.06,17.44.43,3.06,0,6.24-.12,9.37s-.16,6.39-.44,9.57c-.25,2.88-1.18,5.59-3.55,7.44a5.38,5.38,0,0,1-3.18,1.26c-4.77-.2-8.06-2.57-8.5-7.69-.26-3.12-.82-6.22-1.07-9.34-.22-2.79-.22-5.6-.28-8.41-.06-3-.19-6-.11-9a71,71,0,0,1,.74-10.89c.57-3.06-.08-5.87-.55-8.74-.25-1.54-1-3,.05-4.49.15-.22-.1-.7-.09-.68-3.27,0-6.4.14-9.51-.06-1.49-.09-3-2.93-2.83-4.87.22-2.93.63-5.84.7-8.77.05-2.06-.46-4.13-.47-6.2,0-5,.15-10,.15-15.08q0-5.56-.3-11.13a2.31,2.31,0,0,0-1.32-1.69c-3.46-.88-5.42-3.54-7.38-6.11-2.61-3.43-.92-6.9.54-10.13,1.36-3,3-5.91,6.22-7.54a3,3,0,0,0,1.22-2.25c.25-5.14.33-10.3.49-15.44q.43-13.45.91-26.9a45.51,45.51,0,0,1,.41-5.07,2.63,2.63,0,0,1,1-1.82,24.15,24.15,0,0,1,10.49-2.56,1.7,1.7,0,0,0,1.34-.78c2.61-6.51,5.07-13.08,7.72-19.58a38.62,38.62,0,0,0,3-16c-.16-5,.34-10,.62-15.07.47-8.44,5.11-13.43,13-15.9a103.26,103.26,0,0,1,20.8-4c7.51-.74,15.07-.93,22.61-1.26,10.23-.43,20.46-.73,30.68-1.16,3.14-.13,6.27-.66,9.41-.72,6.54-.12,13.1.34,19.61-.14a89.44,89.44,0,0,1,21.72,1.51c5.51.95,10.06,4.25,13.58,8.67,2.22,2.78,4.75,5.41,5.64,9,.06.24.24.45.29.69.93,4.34,2,8.66,2.76,13,1.4,7.63,4.36,14.69,7.62,21.66,1.15,2.45,2.16,5,3.39,7.37.95,1.86,2.16,3.6,3.23,5.4,2.15,3.61,4.32,7.21,6.39,10.86a23.21,23.21,0,0,1,1.23,3.33c.25.67.54,1.33.83,2,1.21-1.32,2.26-2.51,3.36-3.66a1.24,1.24,0,0,1,.81-.33c2.87,0,5.75-.13,8.61,0,2.2.08,4.45.62,5.23,3a17.74,17.74,0,0,1,.69,5.37c0,3.19-.43,6.4-.23,9.58.36,5.88,1,11.74,1.58,17.6.47,4.71,1,9.43,1.51,14.14.05.49.17,1,.6,1.07C258,168.1,259.58,169.11,261.05,170.27Zm-4.76,19.85c3.37-2.29,6.34-9.24,5.54-12.42-.7-2.79-3.71-6.26-5.54-6.4Zm-2.59.9a63.84,63.84,0,0,0-.74-10.58c-.8-5.88-.5-11.9-1-17.84-.67-8.62-1.67-17.21-2.37-25.82a100.65,100.65,0,0,1-.16-10.58c.1-3.93-.7-5.06-4.57-5.75-.62-.11-1.24-.24-1.86-.29-2.75-.23-3.32.21-3.68,2.94a14.28,14.28,0,0,0-.17,2.63c.46,9.08.25,18.14,1.07,27.26,1.06,11.78,2,23.64,1.65,35.58-.34,10.53.88,21.11,1.42,31.66h-.46c0,4.53,0,9.07,0,13.6,0,2.38,1.24,3.33,3.53,2.78a8.94,8.94,0,0,1,2.37-.54c2,.1,2.65-1.13,2.85-2.76s.28-3.26.37-4.89c.37-6.06.81-12.12,1.08-18.19C253.37,203.83,253.52,197.42,253.7,191Zm-16.29,96.56a71,71,0,0,0,.18-9.36c-.54-9.06-1.26-18.11-1.89-26.86l-7.85,1.9c0,8.55-.06,17.35,0,26.16,0,2.89.45,5.77.73,8.65.13,1.4,3.07,3.89,4.37,3.77A5.11,5.11,0,0,0,237.41,287.57Zm-1-43.12-.38,0a7.36,7.36,0,0,1-.72-2.36c.31-6,.94-12,1.06-18,.15-7.09,0-14.2-.22-21.29-.31-10.1-.79-20.19-1.21-30.29-.25-6.22-.43-12.44-.83-18.64-.2-3.12-.95-6.21-1.24-9.34-.65-7-1.18-14-1.77-21a2.83,2.83,0,0,0-.31-1.43c-1.45-1.85-3-3.63-4.47-5.46a6.2,6.2,0,0,1-1-1.61,63.51,63.51,0,0,0-7.06-13.92,12.06,12.06,0,0,1-1.13-2.38c-1.72-4.11-3.53-8.2-5.12-12.36-1.68-4.39-3.37-8.79-4.63-13.3-1.13-4-1.65-8.22-2.5-12.33-.89-4.32-2.37-8.34-6.21-11a1.73,1.73,0,0,1-.37-.42A17.79,17.79,0,0,0,185,42c-6.31-.49-12.66-.55-19-.52-10.3.06-20.61.28-30.91.56-6.75.18-13.48-.88-20.27.05-5,.7-10.22.43-15.32.76-4.37.28-8.72.84-13.09,1.2a95,95,0,0,0-18.33,3c-6.56,1.87-11,5.46-12.2,12.34a72.76,72.76,0,0,0-1.13,9.52c-.26,6.71-.56,13.37-3.19,19.72-2.38,5.74-4.58,11.55-6.72,17.38a21.51,21.51,0,0,0-1.64,9.32c.42,5.29.17,10.63.12,16,0,4.53-.25,9.06-.26,13.59,0,1.82.56,3.65.47,5.46-.15,3-.88,6-.89,8.95,0,10.33.24,20.66.29,31,0,4-.27,8-.32,12-.06,5,0,9.94,0,14.91-.06,7.73-.13,15.46-.26,23.2-.06,3.31,1.27,6.09,2.89,8.83a2.3,2.3,0,0,0,3.05,1,6.14,6.14,0,0,0,4-5.58c-.11-4.52-.16-9-.3-13.57q-.53-16.59-1.12-33.19c-.07-1.95-.3-3.9-.25-5.84.25-9.55.63-19.11.83-28.66q.24-11.37.18-22.75c-.06-9.54-.31-19.09-.39-28.63a25.56,25.56,0,0,1,.51-7.27,54.82,54.82,0,0,1,3.76-8.37c1.16-2.37,2.54-4.63,3.64-7,3.24-7,4-14.41,3.24-22a13.29,13.29,0,0,1,1.67-8c1.16-2.07,2.7-3.94,5.29-4.46,3-.61,6-1.29,9-1.91,2.56-.53,5.12-1.18,7.71-1.49,4.19-.51,8.4-1,12.61-1.12,5.63-.17,11.27,0,16.9,0,10.22.11,20.43.27,30.65.36,1.44,0,2.88-.32,4.32-.35,7.29-.13,14.59-.09,21.88-.34,7.08-.25,13.82.6,19.7,4.93a8.47,8.47,0,0,1,2.75,3,44.33,44.33,0,0,1,2.74,7.82c.78,3.23.83,6.64,1.78,9.8,1.18,3.89,2.95,7.6,4.49,11.37,1.33,3.24,2.63,6.49,4.08,9.67,1.35,3,2.93,5.83,4.3,8.78,1.07,2.33,1.83,4.8,3,7.07,1.8,3.47,3.85,6.81,5.74,10.25a7.61,7.61,0,0,1,.45,2c.54,2.45,1.09,4.89,1.64,7.34a24.48,24.48,0,0,1,.92,4c.4,7.71.74,15.42,1,23.14.15,4.72,0,9.45.09,14.17.14,13.51.36,27,.42,40.55,0,3.83-.64,7.66-.56,11.48.14,6,.59,11.92,1,17.87.12,1.64.27,3.6,1.21,4.79,1.95,2.48,6.89,1.68,8.46-1.13A13.7,13.7,0,0,0,236.39,244.46Zm-17.93,2a18.58,18.58,0,0,0,2-10.21c-.21-3.58-.88-7.18-.68-10.73a235.15,235.15,0,0,0,0-27.75c-.46-7.65-.57-15.33-.71-23,0-1.85.53-3.71.59-5.57.1-3.27,0-6.55,0-9.83h-.32c0-4.21.2-8.44-.06-12.63-.24-3.81-.92-7.6-1.53-11.38-.65-4-1-8.16-2.3-12a51.07,51.07,0,0,0-5.32-11.93,2.13,2.13,0,0,0-1.52-.67c-6.65-.24-13.29-.47-19.94-.62-2.51-.06-5,.2-7.53.12-12.89-.36-25.78-.79-38.67-1.15-2-.06-4,.23-6,.19-8.8-.19-17.6-.53-26.39-.63-9.46-.11-18.92,0-28.38,0a46,46,0,0,0-15.36,2.63c-3.47,1.26-6.8,2.89-10.16,4.43-.5.23-1.15.86-1.16,1.33-.1,3.74-.09,7.48-.06,11.23,0,1.37.29,2.74.22,4.1-.26,5.08-.83,10.15-.89,15.23Q54,171.73,54,195.81c0,7,.42,13.91.64,20.87.14,4.52.28,9,.38,13.57.05,2.43-.09,4.89.07,7.31.2,3,.6,6,1,8.92a6.88,6.88,0,0,0,.83,2.25c1.67,3.08,5,3.94,7.79,5.18,4.4,1.93,9,3.29,13.18,5.83A49.2,49.2,0,0,0,87.49,264a78.74,78.74,0,0,0,17.27,3.67c7.05.77,14.09,1.57,21.2,1,4.62-.39,9.23-.94,13.84-1.4,4.85-.49,9.73-.84,14.56-1.47,4.35-.57,8.67-1.44,13-2.15,6.8-1.12,13.63-2.07,20.38-3.39a91.58,91.58,0,0,0,10-3c6.24-2,12.47-4,17.86-7.86A9.49,9.49,0,0,0,218.46,246.43ZM207.21,107c-.87-2.07-1.58-3.92-2.42-5.72-1.4-3-2.88-6-4.33-8.95-1-2.08-2-4.19-3.11-6.2a2.73,2.73,0,0,0-1.72-1.4c-2.74-.14-5.5,0-8.25,0-5.75,0-11.51,0-17.26,0-2.43,0-4.87-.43-7.3-.42-3.25,0-6.49.37-9.74.4-5.64.05-11.29-.09-16.93,0-5.18,0-10.37.29-15.55.34-5.79.05-11.59,0-17.38,0-1.67,0-3.35-.11-5,0-3.13.29-6.23.87-9.36,1.07q-10.83.7-21.67,1.13c-1.94.07-3.14.58-3.62,2.61A19.07,19.07,0,0,1,62,93.35C60,97.71,57.79,102,55.9,106.44c-.82,1.92-1.82,4-1,6.12,2.38-1.13,4.54-2.54,6.91-3.19,5.93-1.62,11.94-2.95,18-4.25a5.52,5.52,0,0,0,3.62-2.37c2.37-3.32,4.71-6.69,7.35-9.8s5.7-5,9.92-4.16a3,3,0,0,1,1.75,1.33c1,1.82-.67,6.24-2.46,8A70.3,70.3,0,0,0,95,104.25l.42.65h70.39c-.64-.83-1.07-1.44-1.55-2a31.33,31.33,0,0,1-5.64-9.28c-.67-1.76-.14-2.95,1.35-3.19a18.68,18.68,0,0,1,10.48,1.35c3.09,1.3,5,3.85,7,6.39a38.72,38.72,0,0,1,4.45,6.52,2.65,2.65,0,0,0,2.72,1.88c2.57.08,5.14.41,7.71.45C197.22,107.08,202.16,107,207.21,107ZM195.52,81.45c-.33-2.22-.61-4-.9-6-2.16-.11-4.17-.31-6.17-.29-6.71.06-13.43.29-20.14.27-6.47,0-12.94-.34-19.41-.37-13.08-.07-26.16-.21-39.23,0-11.64.19-23.27.78-34.9,1.24-2.92.11-5.84.43-8.61.64-.36,2.81-.67,5.22-1,7.8.83-.06,1.63-.12,2.42-.19,3.62-.33,7.23-.69,10.86-1,6.06-.51,12.13-1,18.2-1.46,3.88-.29,7.77-.55,11.67-.69,4.23-.15,8.47-.11,12.71-.22,5.79-.15,11.58-.47,17.38-.51,5.08,0,10.16.23,15.23.33,7.9.15,15.8.31,23.71.39C183.32,81.5,189.31,81.45,195.52,81.45Zm-1-9.8c0-2.06.06-3.49,0-4.92-.25-4.38-2.84-7.53-6.14-9.83a17.86,17.86,0,0,0-10.15-3c-9.81-.09-19.62-.4-29.43-.41-8.34,0-16.69.41-25,.38-4.88,0-9.75-.78-14.62-.74-6.64,0-13.27.53-19.91.85a55.74,55.74,0,0,0-20.09,5c-1.83.82-3.42,2.19-3.51,4.53-.1,2.67-.16,5.34-.27,8-.06,1.32.31,2,1.82,1.83,4.68-.36,9.37-.75,14.06-.87,11.75-.28,23.51-.4,35.26-.6,3.11-.05,6.23-.22,9.34-.2,2.2,0,4.4.39,6.59.37,11.46-.08,22.92-.28,34.37-.36C176,71.6,185.15,71.65,194.51,71.65Zm-15.8,34.1a10.07,10.07,0,0,0-.57-.85c-2.63-3-5.09-6.17-8-8.92-1.94-1.86-4.37-3.37-7.75-2.6a7.82,7.82,0,0,0,.79,2.48c2.41,3,4.92,6,7.43,8.89a2.14,2.14,0,0,0,1.32.66C174.12,105.56,176.28,105.63,178.72,105.75ZM99.23,92.06l-.85-.68C93,94.3,89.64,99.24,85.92,104.3c1.23-.08,2.09-.18,2.95-.18a4.29,4.29,0,0,0,4-2.19c1.15-1.87,2.69-3.49,3.9-5.32C97.75,95.19,98.44,93.59,99.23,92.06ZM53.48,277.92c0-3.36.17-6.73,0-10.08-.13-3.55-.53-7.09-.76-10.64-.08-1.21,0-2.44,0-4.08-4.59,2.55-8,.61-11.26-2.86-.18,1.44-.4,2.49-.42,3.54C41,259,41,264.29,41,269.54c0,3-.5,6.07.11,8.93.78,3.68-.31,7.67,2.06,11.11.63.92.28,2.49,1.94,2.79a19.76,19.76,0,0,0,3.65.67,3.31,3.31,0,0,0,2.36-1.13,13.17,13.17,0,0,0,2.41-8.33C53.41,281.69,53.46,279.8,53.48,277.92ZM39,135.53c.12-7,.7-13.93,1.11-21.53-2.32.2-4.46.32-6.58.57-2.59.31-3.23,1-3.47,3.57-.4,4.17-1,8.31-.21,12.56.47,2.62,0,5.4,0,8.1-.08,7-.26,14.09-.2,21.13,0,3.57.77,7.13.72,10.69-.19,14-.64,28-.82,42-.08,6.48.23,13,.33,19.43a1.94,1.94,0,0,0,2,2.2,3.52,3.52,0,0,0,4.05-3c.21-1.62.35-3.25.44-4.89.29-5.08.58-10.16.8-15.24.33-7.66.91-15.33.79-23a179.28,179.28,0,0,1,.68-20.51c.36-3.69.64-7.4.64-11.09C39.29,149.59,38.88,142.55,39,135.53Zm-13.4,51.41V167.57c-3.85,2.12-6.8,6.85-6.37,10.47C19.71,182.1,21.33,185.53,25.61,186.94Z"/><path class="cls-1" d="M261.83,177.7c.8,3.18-2.17,10.13-5.54,12.42V171.3C258.12,171.44,261.13,174.91,261.83,177.7Z"/><path class="cls-2" d="M253,180.43A63.84,63.84,0,0,1,253.7,191c-.18,6.4-.33,12.81-.62,19.22-.27,6.07-.7,12.13-1.08,18.19-.1,1.63-.17,3.27-.37,4.89s-.84,2.85-2.85,2.76a8.94,8.94,0,0,0-2.37.54c-2.3.55-3.52-.4-3.53-2.78,0-4.53,0-9.07,0-13.6h.46c-.53-10.56-1.76-21.14-1.42-31.66.39-11.94-.59-23.8-1.65-35.58-.82-9.12-.61-18.18-1.07-27.26a14.28,14.28,0,0,1,.17-2.63c.36-2.73.93-3.17,3.68-2.94.62.05,1.24.18,1.86.29,3.87.69,4.67,1.82,4.57,5.75a100.65,100.65,0,0,0,.16,10.58c.7,8.61,1.71,17.2,2.37,25.82C252.46,168.53,252.16,174.55,253,180.43Z"/><path class="cls-3" d="M237.59,278.21a71,71,0,0,1-.18,9.36,5.11,5.11,0,0,1-4.44,4.25c-1.3.12-4.23-2.37-4.37-3.77-.28-2.88-.7-5.77-.73-8.65-.09-8.8,0-17.61,0-26.16l7.85-1.9C236.32,260.1,237,269.15,237.59,278.21Z"/><path class="cls-3" d="M236,244.47l.38,0a13.7,13.7,0,0,1-.84,2.61c-1.57,2.81-6.51,3.61-8.46,1.13-.93-1.19-1.08-3.15-1.21-4.79-.45-6-.9-11.91-1-17.87-.09-3.82.57-7.65.56-11.48-.06-13.52-.28-27-.42-40.55,0-4.73.06-9.45-.09-14.17-.24-7.71-.59-15.43-1-23.14a24.48,24.48,0,0,0-.92-4c-.56-2.44-1.1-4.89-1.64-7.34a7.61,7.61,0,0,0-.45-2c-1.88-3.43-3.94-6.77-5.74-10.25-1.18-2.27-1.94-4.75-3-7.07-1.37-3-3-5.82-4.3-8.78-1.44-3.18-2.75-6.44-4.08-9.67-1.55-3.77-3.31-7.48-4.49-11.37-1-3.16-1-6.58-1.78-9.8a44.33,44.33,0,0,0-2.74-7.82A8.47,8.47,0,0,0,192,55c-5.87-4.34-12.61-5.18-19.7-4.93-7.29.26-14.59.22-21.88.34-1.44,0-2.88.36-4.32.35-10.22-.09-20.44-.25-30.65-.36-5.63-.06-11.27-.22-16.9,0-4.21.13-8.42.61-12.61,1.12-2.59.32-5.14,1-7.71,1.49-3,.62-6,1.3-9,1.91-2.59.53-4.13,2.39-5.29,4.46a13.29,13.29,0,0,0-1.67,8c.73,7.57,0,15-3.24,22-1.11,2.39-2.49,4.65-3.64,7a54.82,54.82,0,0,0-3.76,8.37,25.56,25.56,0,0,0-.51,7.27c.08,9.54.33,19.09.39,28.63q.07,11.38-.18,22.75c-.2,9.55-.59,19.11-.83,28.66,0,1.94.19,3.89.25,5.84q.57,16.59,1.12,33.19c.14,4.52.19,9,.3,13.57a6.14,6.14,0,0,1-4,5.58,2.3,2.3,0,0,1-3.05-1c-1.63-2.74-2.95-5.52-2.89-8.83.14-7.73.2-15.46.26-23.2,0-5,0-9.94,0-14.91,0-4,.34-8,.32-12-.05-10.33-.3-20.65-.29-31,0-3,.74-6,.89-8.95.09-1.81-.48-3.64-.47-5.46,0-4.53.22-9.06.26-13.59,0-5.32.3-10.66-.12-16A21.51,21.51,0,0,1,44.81,106c2.14-5.83,4.34-11.65,6.72-17.38,2.64-6.35,2.93-13,3.19-19.72a72.76,72.76,0,0,1,1.13-9.52c1.2-6.89,5.64-10.47,12.2-12.34a95,95,0,0,1,18.33-3c4.37-.36,8.72-.91,13.09-1.2,5.1-.33,10.28-.06,15.32-.76,6.79-.94,13.51.13,20.27-.05,10.3-.28,20.6-.5,30.91-.56,6.33,0,12.69,0,19,.52a17.79,17.79,0,0,1,13.37,7.23,1.73,1.73,0,0,0,.37.42c3.85,2.67,5.32,6.69,6.21,11,.85,4.11,1.38,8.3,2.5,12.33,1.26,4.51,3,8.92,4.63,13.3,1.59,4.16,3.4,8.25,5.12,12.36a12.06,12.06,0,0,0,1.13,2.38A63.51,63.51,0,0,1,225.35,115a6.2,6.2,0,0,0,1,1.61c1.47,1.83,3,3.61,4.47,5.46a2.83,2.83,0,0,1,.31,1.43c.59,7,1.11,14,1.77,21,.29,3.12,1,6.21,1.24,9.34.4,6.21.58,12.43.83,18.64.42,10.09.9,20.19,1.21,30.29.22,7.09.36,14.2.22,21.29-.12,6-.75,12-1.06,18A7.36,7.36,0,0,0,236,244.47Z"/><path class="cls-4" d="M220.42,236.22a18.58,18.58,0,0,1-2,10.21,9.49,9.49,0,0,1-2.8,2.93c-5.4,3.86-11.62,5.88-17.86,7.86a91.58,91.58,0,0,1-10,3c-6.76,1.32-13.59,2.27-20.38,3.39-4.34.71-8.65,1.58-13,2.15-4.84.63-9.71,1-14.56,1.47-4.61.46-9.22,1-13.84,1.4-7.1.6-14.14-.2-21.2-1A78.74,78.74,0,0,1,87.49,264a49.2,49.2,0,0,1-9.61-4.23c-4.18-2.55-8.79-3.91-13.18-5.83-2.83-1.24-6.12-2.1-7.79-5.18a6.88,6.88,0,0,1-.83-2.25c-.4-3-.8-5.94-1-8.92-.17-2.43,0-4.88-.07-7.31-.1-4.53-.24-9-.38-13.57-.22-7-.62-13.92-.64-20.87q0-24.08.28-48.16c.06-5.08.63-10.15.89-15.23.07-1.36-.21-2.73-.22-4.1,0-3.74,0-7.49.06-11.23,0-.47.66-1.1,1.16-1.33,3.36-1.54,6.7-3.18,10.16-4.43a46,46,0,0,1,15.36-2.63c9.46-.07,18.92-.13,28.38,0,8.8.1,17.6.45,26.39.63,2,0,4-.25,6-.19,12.89.36,25.78.8,38.67,1.15,2.51.07,5-.18,7.53-.12,6.65.15,13.29.38,19.94.62a2.13,2.13,0,0,1,1.52.67,51.07,51.07,0,0,1,5.32,11.93c1.3,3.8,1.65,7.94,2.3,12,.61,3.78,1.29,7.57,1.53,11.38.26,4.19.06,8.42.06,12.63h.32c0,3.27.08,6.55,0,9.83-.06,1.86-.62,3.72-.59,5.57.14,7.67.25,15.35.71,23a235.15,235.15,0,0,1,0,27.75C219.53,229,220.21,232.64,220.42,236.22Zm-25,10,.1-.71c-2-.33-4-.79-6-1-7.2-.6-14.4-1.27-21.61-1.6-6.76-.31-13.54-.45-20.29-.27-7.34.2-14.66,1-22,1.29-7.63.26-15.28.09-22.91.2-4.33.06-8.65.32-13,.48-5.14.19-10.29.35-15.43.62-.68,0-1.34.65-2,1,.47.44.71.45.95.43,5.51-.25,11-.53,16.52-.73,3.34-.12,6.7-.08,10-.18,3.74-.12,7.5-.68,11.2-.42a177.52,177.52,0,0,0,25.33-.19c5.19-.38,10.39-1,15.57-.93,7.2.11,14.39.85,21.59,1.19S188,246,195.37,246.21Z"/><path d="M195.47,245.5l-.1.71c-7.32-.25-14.64-.43-22-.78s-14.39-1.08-21.59-1.19c-5.18-.08-10.39.55-15.57.93a177.52,177.52,0,0,1-25.33.19c-3.71-.25-7.46.31-11.2.42-3.35.11-6.7.06-10,.18-5.51.2-11,.48-16.52.73-.24,0-.48,0-.95-.43.67-.35,1.32-1,2-1,5.14-.27,10.29-.42,15.43-.62,4.33-.16,8.65-.42,13-.48,7.63-.11,15.28.05,22.91-.2,7.34-.25,14.66-1.09,22-1.29,6.76-.19,13.54,0,20.29.27,7.21.33,14.41,1,21.61,1.6C191.45,244.71,193.45,245.17,195.47,245.5Z"/><path class="cls-3" d="M194.62,75.5c.29,1.91.57,3.74.9,6-6.21,0-12.2,0-18.19,0-7.9-.08-15.8-.24-23.71-.39-5.08-.1-10.16-.37-15.23-.33-5.79,0-11.58.36-17.38.51-4.24.11-8.48.07-12.71.22-3.89.14-7.79.4-11.67.69-6.07.45-12.14.95-18.2,1.46-3.62.3-7.24.66-10.86,1-.79.08-1.59.13-2.42.19.34-2.59.65-5,1-7.8,2.77-.21,5.68-.53,8.61-.64,11.63-.46,23.26-1.05,34.9-1.24,13.07-.21,26.15-.07,39.23,0,6.47,0,12.93.36,19.41.37,6.71,0,13.43-.22,20.14-.27C190.45,75.18,192.46,75.39,194.62,75.5Z"/><path class="cls-4" d="M194.5,66.74c.08,1.43,0,2.86,0,4.92-9.37,0-18.55-.05-27.74,0-11.46.08-22.91.28-34.37.36-2.19,0-4.39-.36-6.59-.37-3.11,0-6.22.14-9.34.2-11.75.2-23.51.33-35.26.6-4.69.11-9.38.5-14.06.87-1.5.12-1.88-.52-1.82-1.83.12-2.67.17-5.34.27-8,.09-2.33,1.68-3.71,3.51-4.53a55.74,55.74,0,0,1,20.09-5c6.64-.33,13.27-.8,19.91-.85,4.87,0,9.75.73,14.62.74,8.34,0,16.68-.39,25-.38,9.81,0,19.62.32,29.43.41a17.86,17.86,0,0,1,10.15,3C191.66,59.2,194.25,62.35,194.5,66.74Z"/><path class="cls-5" d="M178.14,104.9a10.07,10.07,0,0,1,.57.85c-2.43-.12-4.59-.19-6.74-.36a2.14,2.14,0,0,1-1.32-.66c-2.52-2.93-5-5.87-7.43-8.89a7.82,7.82,0,0,1-.79-2.48c3.38-.77,5.81.74,7.75,2.6C173,98.73,175.51,101.9,178.14,104.9Z"/><path class="cls-5" d="M98.38,91.39l.85.68c-.79,1.52-1.48,3.12-2.42,4.55-1.21,1.84-2.76,3.46-3.9,5.32a4.29,4.29,0,0,1-4,2.19c-.86,0-1.72.1-2.95.18C89.64,99.24,93,94.3,98.38,91.39Z"/><path class="cls-3" d="M53.52,267.84c.12,3.35,0,6.72,0,10.08,0,1.88-.07,3.77,0,5.65a13.17,13.17,0,0,1-2.41,8.33A3.31,3.31,0,0,1,48.72,293a19.76,19.76,0,0,1-3.65-.67c-1.65-.29-1.3-1.87-1.94-2.79-2.37-3.44-1.29-7.44-2.06-11.11-.6-2.85-.12-5.94-.11-8.93,0-5.25,0-10.5.11-15.75,0-1.05.24-2.1.42-3.54,3.28,3.47,6.67,5.41,11.26,2.86,0,1.64-.06,2.87,0,4.08C53,260.74,53.39,264.28,53.52,267.84Z"/><path class="cls-2" d="M40.12,114c-.41,7.6-1,14.56-1.11,21.53s.28,14.06.27,21.09c0,3.7-.28,7.41-.64,11.09A179.28,179.28,0,0,0,38,188.22c.12,7.66-.47,15.32-.79,23-.22,5.08-.51,10.16-.8,15.24-.09,1.63-.23,3.26-.44,4.89a3.52,3.52,0,0,1-4.05,3,1.94,1.94,0,0,1-2-2.2c-.1-6.48-.41-13-.33-19.43.19-14,.64-28,.82-42,0-3.56-.69-7.13-.72-10.69-.06-7,.12-14.08.2-21.13,0-2.71.47-5.49,0-8.1-.76-4.25-.19-8.39.21-12.56.25-2.59.88-3.26,3.47-3.57C35.66,114.32,37.8,114.2,40.12,114Z"/><path class="cls-1" d="M25.61,167.57v19.37c-4.28-1.41-5.9-4.84-6.37-8.9C18.81,174.41,21.76,169.69,25.61,167.57Z"/></svg>