<svg id="圖層_1" data-name="圖層 1" xmlns="http://www.w3.org/2000/svg" viewBox="0 0 287.81 324.7"><defs><style>.cls-1{fill:#4f7434;}.cls-2{fill:#eabf29;}.cls-3{fill:#6a4e22;}.cls-4{fill:#fff;}.cls-5{fill:#cf543f;}</style></defs><title>chks</title><path d="M48.32,217.88A19.59,19.59,0,0,0,57.87,227c-1.19-2.85-2.25-4.9-2.91-7.08-3.74-12.25-7.74-24.45-9.4-37.22-1.47-11.23-2.78-22.49,0-33.75a20.67,20.67,0,0,0,.27-4.48c0-1.37-.46-2.75-1.82-3a4.49,4.49,0,0,0-3.45.72,9.64,9.64,0,0,0-2.94,4.47,42.56,42.56,0,0,0-1.34,11c.38,8.17,1.27,16.33,2,24.49C39.42,194.65,42.41,206.65,48.32,217.88Zm14.52,10.73c1.4,3.39,4.09,5,8,5.68l-1-2.2c-1.85-4.1-4.06-8.08-5.48-12.32-6.17-18.41-7-37.41-5.84-56.59.15-2.42.47-4.83.6-7.26,0-.77.06-1.88-.4-2.3a52.7,52.7,0,0,0-9.63-7c-.61,6.57-1.53,12.42-1.63,18.28-.22,12.37,2.44,24.38,5.79,36.18,2.1,7.43,5,14.62,7.59,21.93C61.56,224.89,62.09,226.8,62.84,228.61Zm8.09-3.26c1.74,3.66,3.86,7.07,7.58,9.32-.24-.75-.5-1.49-.71-2.25-1.21-4.32-2.56-8.61-3.55-13-.79-3.48-1.14-7.06-1.63-10.6-1.28-9.28-2.21-18.57-1.31-28,.5-5.29.71-10.6,1-15.91.08-1.48.33-3.15-1.19-4.1-2.29-1.44-4.67-2.73-7.47-4.35,0,4.72,0,8.72,0,12.72,0,2.77.14,5.54.12,8.31,0,3.57-.36,7.15-.22,10.7.18,4.38.7,8.74,1.08,13.11A69.56,69.56,0,0,0,70.93,225.35Zm11.2,7.45c.86,4.39,2.26,5.5,7.11,4.69,0-.52,0-1.07,0-1.62-.28-3.69-.61-7.37-.87-11.06C87.75,216.4,87,208,86.63,199.56c-.28-6.91-.24-13.85,0-20.77.17-4.34,1-8.66,1.58-13.31L77,163.35c-.84,9.82-1.8,19.1-2.39,28.4-.56,8.64,1.3,17,3.78,25.23C80,222.16,81.08,227.49,82.12,232.8Zm13.32,6.64c2.55.47,5.13.8,8.41,1.29-1.72-25-1.38-49.45-.72-74.05H93c-.7,3.34-1.62,6.45-1.95,9.62-.49,4.69-.26,9.47-.89,14.14A79.83,79.83,0,0,0,89.94,206c.23,3.8.66,7.59,1.08,11.38.69,6.31,1.44,12.62,2.19,18.93C93.38,237.74,93.78,239.14,95.44,239.45Zm23.47,2.79c0-1.77,0-3,0-4.27-.14-13.86-.34-27.72-.37-41.58,0-4.55-.42-9-2.35-13.12-2.13-4.56-1.71-9.44-1.85-14.23-.07-2.32,0-2.62-2.23-2.75-1-.07-2.06,0-3.27,0a90,90,0,0,0-1.87,9.18c-.51,5.28-.89,10.59-.94,15.89q-.12,13.16.28,26.31c.22,6.92.85,13.82,1.28,20.74.08,1.35.25,2.7,1.84,2.91C112.47,241.7,115.52,241.91,118.91,242.24Zm5.26.39c2.67.41,5.37,1.19,7.83.57-.2-10.26-.4-20.3-.59-30.32,0-1.26.12-2.55,0-3.81a3.62,3.62,0,0,0-.77-2.12c-2.82-2.86-5.74-5.62-8.76-8.55-.11.18-.21.27-.21.36.31,14,.6,27.92,1,41.87A2.61,2.61,0,0,0,124.17,242.63Zm5.48-180.39c.18,1.68.44,3.37.71,5.33l6.26-.57c.24-1.8.39-3.5.7-5.18,1.59-8.7,1.39-17.47.77-26.24a12.28,12.28,0,0,0-.77-3.71c-.88-2.18-2.73-2.77-4.81-1.66a7.06,7.06,0,0,0-3.65,5.22,35.89,35.89,0,0,0-1,8.22C128.22,49.86,129,56,129.65,62.24ZM139.37,265c.7,6-.76,12.12,2.62,18.11,3.56-6,2.93-12,2.47-18.11Zm2.36-198.14c2.26,0,4.27,1.24,5-1.1a43.62,43.62,0,0,0,1.37-7.37c.2-1.33.07-2.72.33-4a18,18,0,0,0-2.08-12.67c-.67-1.21-1.55-2.29-3.66-1.37A71.69,71.69,0,0,1,141.73,66.89Zm.51,194.1a105.63,105.63,0,0,0,45.29-6.59c7.33-2.71,14.18-6.27,19.75-11.91.94-.94,1.76-2,2.63-3l-.37-.53c-1.09.26-2.18.55-3.28.77-11,2.14-21.92,5-33,6.22-14.34,1.56-28.77,2.7-43.27,1.21-7.12-.72-14.34-.49-21.49-1.07-4.7-.39-9.58-.81-14-2.37-8.46-3-17.41-2.62-26-4.73A24.75,24.75,0,0,0,77.87,246c2.9,1.16,5.8,2.29,8.72,3.42,11.89,4.58,24,8.56,36.65,10.23C129.51,260.53,135.91,260.49,142.25,261Zm8.39-55a4,4,0,0,1-1.24,3,8.53,8.53,0,0,1-9.12,2.69c-1.29-.36-2.56-.75-3.94-1.17-2.28,11.1-.85,21.88.07,32.77a27,27,0,0,0,12.81-.06c.31-1.55.69-2.89.83-4.25,1.14-11,2.13-22,1.37-33a94.51,94.51,0,0,0-1.16-9.74c-1-5.76-.66-11.75-.77-17.64-.06-3.13.06-6.24-1.3-9.45h-5.94c-.22,5.78-.48,11.2-.59,16.61a7.7,7.7,0,0,0,.81,3.32c1.59,3.33,3.32,6.59,5,9.88q1.41,2.79,2.77,5.59A4,4,0,0,1,150.64,206ZM162.7,53.08c.85.19,2,.79,2.49.46A4.09,4.09,0,0,0,166.51,51a3.89,3.89,0,0,0-.57-2.31,11.8,11.8,0,0,0-10.38-6.47c-2.47-.12-3.38.87-3.38,3.3,0,1.25.19,2.5.37,4.64,4.33-1.83,7.34-.22,9.88,2.72A.55.55,0,0,0,162.7,53.08Zm7.11,187.45a2.73,2.73,0,0,0,1.59,1.87c4.06,1,7.38-1.42,7.67-5.56.35-5,.39-9.93.73-14.88.93-13.87.32-27.74-.09-41.6-.15-5.05-.69-10.09-1.08-15.63-3.46.48-6.42.5-9.18,1.85.09,1.63.13,3,.24,4.39,1,12.31,2.34,24.58,1.28,37-.8,9.31-.81,18.7-1.16,28.05A23.47,23.47,0,0,0,169.81,240.53ZM210,161.87a61.22,61.22,0,0,1,.48,6.57c.1,8.44.25,16.89.14,25.33q-.18,13.52-.82,27c-.18,3.68-1,7.32-1.46,11a34.36,34.36,0,0,0,0,3.8c2.76-1.33,5-2.47,7.27-3.51a4.69,4.69,0,0,0,2.88-4c.75-5.84,1.8-11.65,2.32-17.5.83-9.44,1.54-18.9,1.9-28.37.28-7.15,0-14.33-.13-21.5a6.48,6.48,0,0,0-2.88-5.54c-2.36.87-4.81,1.83-7.32,2.68C210.33,158.53,209.71,159.86,210,161.87Zm9-52.14c1.23-3.79,0-6.41-4.08-8.56-3.89,2.07-4.21,2.56-4.19,6.59,0,.8,0,1.61,0,2.4.19,2.1.94,2.83,3,3.05A4.77,4.77,0,0,0,219,109.73Zm9,36.77c-.7-1.33-1.34-2.43-1.86-3.57a44.49,44.49,0,0,1-2.7-6.36c-1.05-3.79-.46-4.74,3.07-6.34.19-.08.3-.33.57-.64-1.8-5-2.7-10.42-6.73-14.74-1.63.62-2.9,1.16-4.21,1.59-4.68,1.55-8.74-1.14-8.87-6.12a24.44,24.44,0,0,1,.81-7.53,4.35,4.35,0,0,0-1.3-4.89A54.88,54.88,0,0,0,195.63,89c-14.54-8.75-30-14.92-47-16.91A131.09,131.09,0,0,0,131.07,71c-9.69.17-18.87,3.17-28,6a63.77,63.77,0,0,0-17.52,9c-8,5.59-14.38,12.6-20.48,20.09-7.75,9.52-11.19,20.88-14.85,32.21a3.1,3.1,0,0,0,1.43,3.86c7.68,5.16,15.3,10.42,23,15.54a20.06,20.06,0,0,0,5,2.38A68.51,68.51,0,0,0,99,163.4c4.67.09,9.29-.79,14-.59,2.78.12,4.93-1.38,5.78-4.47a93.14,93.14,0,0,1,3.31-9.48c1.24-3.15,2.42-3.28,4.88-.68a3.57,3.57,0,0,1-.29,1,43.23,43.23,0,0,0-6.44,16.29c-.74,4.2-1.6,8.34-.93,12.68a52.16,52.16,0,0,0,4.79,15.15,41.47,41.47,0,0,0,4.06,6c2.53,3.44,6.67,4.79,9.85,7.4a9.06,9.06,0,0,0,4.22,1.38,3.9,3.9,0,0,0,4.44-2.27c-1.41-2.5-2.94-5-4.22-7.52-2.32-4.62-5.17-9.09-4.83-14.6.25-4.15.36-8.32.77-12.45a14.64,14.64,0,0,1,1.51-5.64c2.32-4.12,5-8.06,7.56-12a12.42,12.42,0,0,1,2.15-1.93,4.63,4.63,0,0,1,0,4.41c-.87,1.89-1.91,3.69-2.77,5.59-.49,1.07-1.41,2.13-.57,3.91,9-1.24,18.09-2.26,27.07-3.77,11.73-2,23.41-4.29,35.09-6.57A52,52,0,0,0,227.93,146.5Zm2.82-4.15c.4-3.11.74-5.73,1.13-8.76a16,16,0,0,0-3.57.07c-.59.15-1.51,1.1-1.42,1.51C227.44,137.68,227.94,140.28,230.75,142.35Zm3.14,72.13.9.07c.26-.84.59-1.65.77-2.51.59-2.83,1.12-5.67,1.68-8.51a183.54,183.54,0,0,0,3.9-42.73,38.53,38.53,0,0,0-.8-7.21c-.64-2.79-2.57-3.89-5.47-3.42A431.29,431.29,0,0,1,233.89,214.48Zm-1.6-88.08c7.16,2.62,14.35,5.14,21.59,7.51a16.66,16.66,0,0,0,5.48.49,5,5,0,0,0,4.73-3.27c-1.64-.53-3.14-1.07-4.67-1.49-10.44-2.88-21.3-4.28-31.52-9.48C227.88,123.91,229.83,125.5,232.29,126.4Zm32.57,1.92c4.37,1.5,4.55,3.19,1.25,6.33a11,11,0,0,1-11.5,2.78c-6.19-1.86-12.43-3.58-19-5.45a18,18,0,0,0-.6,2.53c-.26,2.76-.4,5.54-.68,8.3-.15,1.49.23,2.49,1.82,2.8a8.66,8.66,0,0,1,1,.35c5.6,1.83,5.25,1.21,7.06,7.61,1.49,5.27,1.23,10.49.87,15.77-.65,9.58-1.24,19.17-2,28.74a87.73,87.73,0,0,1-1.63,10.62c-2.65,12.75-10.33,21.45-22.06,26.69a14.28,14.28,0,0,0-5.41,4.18c-9.64,11.84-22.31,18.41-37.09,21.35-2.61.51-5.21,1.08-7.76,1.8a41.62,41.62,0,0,1-14.73,1.81c-1-.09-2.05,0-3.15,0a8.82,8.82,0,0,0-.79,1.7c-1.08,5.32-2.06,10.65-3.19,16a25,25,0,0,1-1.68,4.91,4,4,0,0,1-4.15,2.56,3.89,3.89,0,0,1-3.63-3.25c-.85-3.71-1.51-7.47-2.22-11.22-.55-3-1-5.93-1.58-8.88a13.38,13.38,0,0,0-.53-1.73c-.31-.23-.41-.36-.5-.36-7.61.19-14.85-2.09-22.16-3.62-12.46-2.61-24.73-6-36-12.21a33.82,33.82,0,0,1-11.89-10.42,11.13,11.13,0,0,0-4.77-3.81,20.94,20.94,0,0,1-11.73-11c-3.94-8.14-8.25-16.05-9.92-25.05-2.75-14.93-4.8-29.91-4-45.17a29.16,29.16,0,0,1,2.74-10.65c1.48-3.26,3.86-4.92,7.24-5,2.75,0,4.26-1.08,4.88-3.79a54.48,54.48,0,0,1,1.89-5.21C56.79,106.41,70.89,90,90.8,78.56A44.65,44.65,0,0,1,99,74.85c8.11-2.69,16.17-5.62,24.75-6.59a19.92,19.92,0,0,0,2.66-.71c-3.41-10.39-2.31-20.67-1.26-30.92a13.52,13.52,0,0,1,3.54-7.41,7.78,7.78,0,0,1,5.76-2.82c2.39-.09,4.31.72,5.35,3a7.87,7.87,0,0,1,.56,1.27c.86,3.49,2.51,6.14,6.55,6.4a1.88,1.88,0,0,1,1.19.64c1.51,1.76,3.45,1.66,5.44,1.36,6.74-1,11.64,1.93,15.5,7.13a7.26,7.26,0,0,1,1.51,5.53c-.69,4.85-4.82,7-9.22,4.86-1-.51-1.93-1.29-3-1.77-3.23-1.48-5.83-.27-6.61,3.16a50.42,50.42,0,0,0-.79,5.85c-.15,1.36-.17,2.75-.28,4.48,3.12.7,6.13,1.33,9.12,2.06,16.34,4,31.7,10.09,45.08,20.53a30.83,30.83,0,0,1,4.59,4.69,3.89,3.89,0,0,0,3.47,1.73c4.14-.14,8.58,3.68,9.32,7.81a12.19,12.19,0,0,1,.22,3.11c-.31,3.73,1.54,6,4.64,7.78a77.76,77.76,0,0,0,24.38,8.68A100.21,100.21,0,0,1,264.86,128.32Zm-32.77,62c1.06-10.63,0-21.24-.08-31.86,0-2.15-.35-4.34-2.1-6l-4.81,1.22c.22,8.54.68,16.62.55,24.68-.16,9.81-.69,19.62-1.31,29.41-.31,4.82-1.16,9.61-1.77,14.42-.26,2-.61,4,0,6.05,3.73-.45,5.46-1.84,6.05-5.27,1.06-6.14,2.1-12.29,2.78-18.47C231.91,199.78,231.63,195,232.1,190.3Zm-24.35-19.86a24.85,24.85,0,0,0-2.61-10.85L198,160.86v76.43c5.1-.22,6.37-1.13,6.88-5.24.75-6.08,1.72-12.16,1.95-18.26C207.32,199.35,207.47,184.89,207.75,170.44Zm-12.8.24a15.42,15.42,0,0,0-2.68-8.94l-8.08,1.92c0,3.2,0,6.08,0,9,0,7.86.14,15.73-.1,23.58-.4,13.29-1.07,26.57-1.6,39.85-.06,1.57,0,3.16,0,5,2.67-.48,4.82-.84,7-1.26,3.16-.62,3.69-1.08,4-4.24.4-3.67.78-7.37.84-11.06Q194.74,197.56,195,170.67Zm-28,52.61c.71-16.56-.49-33-1.86-49.49-.18-2.17-.59-4.31-1-7l-11.38,1.58c0,1.59,0,2.74,0,3.88.27,5.65.54,11.31.86,17,.46,8.07,1.36,16.14,1.35,24.21,0,8.65-.87,17.29-1.34,25.94-.06,1.21,0,2.43,0,3.94l11-.69c.27-1,.49-1.75.68-2.53C166.71,234.58,166.75,229,167,223.28Z"/><path class="cls-1" d="M150.26,196.22a94.51,94.51,0,0,1,1.16,9.74l-.79.06a4,4,0,0,0-.41-1.49q-1.35-2.81-2.77-5.59c-1.67-3.29-3.4-6.55-5-9.88a7.7,7.7,0,0,1-.81-3.32c.11-5.42.38-10.83.59-16.61h5.94c1.36,3.21,1.24,6.33,1.3,9.45C149.6,184.46,149.26,190.46,150.26,196.22Z"/><path class="cls-2" d="M264.09,131.13a5,5,0,0,1-4.73,3.27,16.66,16.66,0,0,1-5.48-.49c-7.24-2.37-14.43-4.89-21.59-7.51-2.46-.9-4.41-2.49-4.39-6.24,10.21,5.2,21.08,6.6,31.52,9.48C260.95,130.06,262.45,130.6,264.09,131.13Z"/><path class="cls-1" d="M241.14,160.8a183.54,183.54,0,0,1-3.9,42.73c-.57,2.84-1.09,5.68-1.68,8.51-.18.85-.51,1.67-.77,2.51l-.9-.07a431.29,431.29,0,0,0,1-64.32c2.89-.47,4.83.63,5.47,3.42A38.53,38.53,0,0,1,241.14,160.8Z"/><path class="cls-1" d="M232,158.44c.11,10.62,1.14,21.23.08,31.86-.47,4.7-.19,9.48-.71,14.17-.68,6.18-1.72,12.33-2.78,18.47-.59,3.42-2.32,4.81-6.05,5.27-.58-2-.23-4,0-6.05.61-4.81,1.46-9.6,1.77-14.42.61-9.79,1.15-19.6,1.31-29.41.13-8.06-.34-16.14-.55-24.68l4.81-1.22C231.67,154.1,232,156.29,232,158.44Z"/><path class="cls-3" d="M231.88,133.59c-.39,3-.73,5.65-1.13,8.76-2.81-2.06-3.31-4.67-3.86-7.17-.09-.41.83-1.37,1.42-1.51A16,16,0,0,1,231.88,133.59Z"/><path class="cls-4" d="M227,129.58c-.27.31-.38.56-.57.64-3.53,1.6-4.12,2.56-3.07,6.34a44.49,44.49,0,0,0,2.7,6.36c.52,1.15,1.16,2.24,1.86,3.57a52,52,0,0,1-19.5,8.66c-11.68,2.28-23.36,4.59-35.09,6.57-9,1.51-18,2.53-27.07,3.77-.84-1.79.08-2.84.57-3.91.86-1.89,1.9-3.7,2.77-5.59a4.63,4.63,0,0,0,0-4.41,12.42,12.42,0,0,0-2.15,1.93c-2.59,4-5.24,7.9-7.56,12a14.64,14.64,0,0,0-1.51,5.64c-.41,4.13-.52,8.3-.77,12.45-.33,5.51,2.51,10,4.83,14.6,1.29,2.57,2.81,5,4.22,7.52a3.9,3.9,0,0,1-4.44,2.27,9.06,9.06,0,0,1-4.22-1.38c-3.18-2.61-7.32-4-9.85-7.4a41.47,41.47,0,0,1-4.06-6,52.16,52.16,0,0,1-4.79-15.15c-.67-4.34.19-8.48.93-12.68a43.23,43.23,0,0,1,6.44-16.29,3.57,3.57,0,0,0,.29-1c-2.46-2.6-3.64-2.48-4.88.68a93.14,93.14,0,0,0-3.31,9.48c-.85,3.09-3,4.59-5.78,4.47-4.7-.2-9.32.68-14,.59a68.51,68.51,0,0,1-19.42-3.27,20.06,20.06,0,0,1-5-2.38c-7.7-5.13-15.32-10.38-23-15.54a3.1,3.1,0,0,1-1.43-3.86c3.65-11.33,7.1-22.7,14.85-32.21,6.1-7.5,12.53-14.5,20.48-20.09a63.77,63.77,0,0,1,17.52-9c9.16-2.87,18.34-5.87,28-6a131.09,131.09,0,0,1,17.61,1.06c16.94,2,32.42,8.16,47,16.91a54.88,54.88,0,0,1,11.06,8.89,4.35,4.35,0,0,1,1.3,4.89,24.44,24.44,0,0,0-.81,7.53c.13,5,4.19,7.67,8.87,6.12,1.31-.43,2.58-1,4.21-1.59C224.31,119.15,225.21,124.6,227,129.58Zm-24.74-.91a1.8,1.8,0,0,0,.29-2.76,1.83,1.83,0,0,0-3,.2c-1.17,1.42-2.23,2.94-3.32,4.39a1.73,1.73,0,0,0,2.72.69A25.83,25.83,0,0,0,202.27,128.67Zm-2.37-5.4a10.74,10.74,0,0,0-1.63-.65,7.71,7.71,0,0,0-6.61,2.25c-.48.43-.27,1.61-.39,2.45.64.06,1.36.34,1.89.13C195.47,126.5,198,125.77,199.9,123.27Zm-1.83-15.1c1.46.46,2.25-.45,2.93-3.51-2.65-.79-3.85-.55-4.32.75A2.21,2.21,0,0,0,198.07,108.17ZM197.19,95a14.92,14.92,0,0,0,1.46-1.74c-1.54-2.56-4.15-2.92-6.17-4.15a4.54,4.54,0,0,0-5.24.15,80.82,80.82,0,0,0-6.94,5.17c-5,4.29-5.28,4.92-.18,10.48a2.6,2.6,0,0,0,3.41.7,19.1,19.1,0,0,0,3.29-1.9C190.32,100.84,193.75,97.91,197.19,95Z"/><path class="cls-1" d="M222.51,160.71c.1,7.17.41,14.35.13,21.5-.37,9.47-1.07,18.93-1.9,28.37-.52,5.85-1.57,11.67-2.32,17.5a4.69,4.69,0,0,1-2.88,4c-2.28,1-4.51,2.17-7.27,3.51a34.36,34.36,0,0,1,0-3.8c.46-3.67,1.29-7.31,1.46-11q.66-13.51.82-27c.11-8.44,0-16.89-.14-25.33a61.22,61.22,0,0,0-.48-6.57c-.24-2,.37-3.34,2.37-4,2.5-.85,5-1.81,7.32-2.68A6.48,6.48,0,0,1,222.51,160.71Z"/><path class="cls-4" d="M214.88,101.17c4.06,2.15,5.31,4.76,4.08,8.56a4.77,4.77,0,0,1-5.25,3.49c-2.06-.22-2.8-.95-3-3.05-.07-.8,0-1.6,0-2.4C210.67,103.73,211,103.24,214.88,101.17Z"/><path class="cls-4" d="M209.55,238.94l.37.53c-.88,1-1.7,2.07-2.63,3-5.58,5.64-12.42,9.2-19.75,11.91A105.63,105.63,0,0,1,142.25,261c-6.34-.49-12.73-.45-19-1.29C110.56,258,98.47,254,86.58,249.46c-2.91-1.13-5.82-2.26-8.72-3.42A24.75,24.75,0,0,1,68.53,239c8.59,2.12,17.54,1.72,26,4.73,4.38,1.56,9.26,2,14,2.37,7.15.58,14.36.35,21.49,1.07,14.5,1.49,28.94.35,43.27-1.21,11.1-1.21,22-4.08,33-6.22C207.37,239.49,208.46,239.2,209.55,238.94Z"/><path class="cls-1" d="M205.14,159.59a24.85,24.85,0,0,1,2.61,10.85c-.28,14.46-.43,28.91-1,43.36-.22,6.1-1.19,12.18-1.95,18.26-.51,4.11-1.78,5-6.88,5.24V160.86Z"/><path d="M202.56,125.91a1.8,1.8,0,0,1-.29,2.76,25.83,25.83,0,0,1-3.3,2.52,1.73,1.73,0,0,1-2.72-.69c1.09-1.45,2.14-3,3.32-4.39A1.83,1.83,0,0,1,202.56,125.91Z"/><path d="M198.27,122.61a10.74,10.74,0,0,1,1.63.65c-1.95,2.5-4.43,3.23-6.74,4.18-.52.22-1.25-.07-1.89-.13.11-.84-.09-2,.39-2.45A7.71,7.71,0,0,1,198.27,122.61Z"/><path d="M201,104.66c-.68,3.06-1.48,4-2.93,3.51a2.21,2.21,0,0,1-1.39-2.76C197.16,104.11,198.35,103.87,201,104.66Z"/><path d="M198.65,93.23A14.92,14.92,0,0,1,197.19,95c-3.43,2.93-6.86,5.86-10.37,8.7a19.1,19.1,0,0,1-3.29,1.9,2.6,2.6,0,0,1-3.41-.7c-5.11-5.56-4.81-6.19.18-10.48a80.82,80.82,0,0,1,6.94-5.17,4.54,4.54,0,0,1,5.24-.15C194.5,90.32,197.11,90.67,198.65,93.23Zm-13.15,7.92c2.76-2.39,5.48-4.82,8.55-7.53-3.84-2.29-4.36-2.59-5.65-1.6a75.15,75.15,0,0,0-7.25,6.33,2.81,2.81,0,0,0-.1,2.71,3.92,3.92,0,0,0,2.65,1A3,3,0,0,0,185.49,101.16Z"/><path class="cls-1" d="M192.27,161.73a15.42,15.42,0,0,1,2.68,8.94q-.24,26.9-.62,53.78c-.06,3.69-.44,7.38-.84,11.06-.34,3.15-.88,3.62-4,4.24-2.14.42-4.3.78-7,1.26,0-1.82-.06-3.4,0-5,.53-13.28,1.2-26.57,1.6-39.85.24-7.85.08-15.72.1-23.58,0-2.88,0-5.76,0-9Z"/><path class="cls-3" d="M194,93.62c-3.07,2.72-5.79,5.15-8.55,7.53a3,3,0,0,1-1.8.91,3.92,3.92,0,0,1-2.65-1,2.81,2.81,0,0,1,.1-2.71A75.15,75.15,0,0,1,188.39,92C189.68,91,190.2,91.34,194,93.62Z"/><path class="cls-1" d="M179.7,180.36c.41,13.86,1,27.73.09,41.6-.34,5-.38,9.93-.73,14.88-.29,4.14-3.61,6.53-7.67,5.56a2.73,2.73,0,0,1-1.59-1.87,23.47,23.47,0,0,1,0-4.5c.35-9.35.36-18.74,1.16-28.05,1.06-12.42-.32-24.7-1.28-37-.11-1.38-.15-2.76-.24-4.39,2.76-1.35,5.72-1.38,9.18-1.85C179,170.26,179.55,175.3,179.7,180.36Z"/><path class="cls-1" d="M165.14,173.79c1.37,16.47,2.57,32.94,1.86,49.49-.24,5.67-.29,11.3-1.63,16.84-.19.77-.41,1.54-.68,2.53l-11,.69c0-1.51-.06-2.73,0-3.94.47-8.65,1.33-17.29,1.34-25.94,0-8.07-.89-16.14-1.35-24.21-.32-5.65-.59-11.31-.86-17-.06-1.14,0-2.29,0-3.88l11.38-1.58C164.55,169.47,165,171.62,165.14,173.79Z"/><path class="cls-5" d="M165.95,48.69a3.89,3.89,0,0,1,.57,2.31,4.09,4.09,0,0,1-1.33,2.54c-.5.33-1.64-.26-2.49-.46a.55.55,0,0,1-.27-.2c-2.54-2.94-5.54-4.55-9.88-2.72-.18-2.14-.37-3.39-.37-4.64,0-2.43.92-3.42,3.38-3.3A11.8,11.8,0,0,1,165.95,48.69Z"/><path class="cls-1" d="M151.42,206c.76,11-.23,22-1.37,33-.14,1.36-.52,2.7-.83,4.25a27,27,0,0,1-12.81.06c-.92-10.89-2.35-21.67-.07-32.77,1.39.42,2.66.81,3.94,1.17A8.53,8.53,0,0,0,149.4,209a4,4,0,0,0,1.24-3Z"/><path class="cls-5" d="M146.39,41.72a18,18,0,0,1,2.08,12.67c-.26,1.31-.13,2.7-.33,4a43.62,43.62,0,0,1-1.37,7.37c-.78,2.34-2.78,1.14-5,1.1a71.69,71.69,0,0,0,1-26.54C144.84,39.43,145.72,40.51,146.39,41.72Z"/><path class="cls-2" d="M144.46,265c.46,6.1,1.09,12.11-2.47,18.11-3.39-6-1.92-12.08-2.62-18.11Z"/><path class="cls-5" d="M138.08,35.58c.62,8.77.82,17.53-.77,26.24-.31,1.68-.46,3.38-.7,5.18l-6.26.57c-.26-2-.53-3.65-.71-5.33-.64-6.19-1.43-12.38-1.78-18.58a35.89,35.89,0,0,1,1-8.22,7.06,7.06,0,0,1,3.65-5.22c2.08-1.12,3.93-.53,4.81,1.66A12.28,12.28,0,0,1,138.08,35.58Z"/><path class="cls-1" d="M131.41,212.88c.19,10,.39,20.06.59,30.32-2.46.62-5.16-.17-7.83-.57a2.61,2.61,0,0,1-1.48-2c-.4-13.95-.7-27.91-1-41.87,0-.09.1-.18.21-.36,3,2.92,5.94,5.69,8.76,8.55a3.62,3.62,0,0,1,.77,2.12C131.54,210.33,131.39,211.61,131.41,212.88Z"/><path class="cls-1" d="M118.91,238c0,1.24,0,2.5,0,4.27-3.38-.33-6.44-.54-9.47-.94-1.59-.21-1.76-1.56-1.84-2.91-.42-6.92-1.06-13.82-1.28-20.74q-.42-13.15-.28-26.31c0-5.3.42-10.61.94-15.89a90,90,0,0,1,1.87-9.18c1.21,0,2.24-.06,3.27,0,2.2.14,2.16.43,2.23,2.75.15,4.79-.28,9.67,1.85,14.23,1.93,4.15,2.34,8.58,2.35,13.12C118.57,210.25,118.77,224.11,118.91,238Z"/><path class="cls-1" d="M93,166.68h10.1c-.66,24.6-1,49,.72,74.05-3.28-.49-5.86-.82-8.41-1.29-1.66-.31-2.06-1.71-2.23-3.14-.74-6.31-1.49-12.62-2.19-18.93-.42-3.79-.85-7.57-1.08-11.38a79.83,79.83,0,0,1,.25-15.56c.63-4.67.4-9.44.89-14.14C91.41,173.13,92.33,170,93,166.68Z"/><path class="cls-1" d="M89.23,235.88c0,.55,0,1.1,0,1.62-4.85.81-6.25-.31-7.11-4.69-1-5.31-2.15-10.64-3.71-15.82-2.48-8.26-4.33-16.59-3.78-25.23.59-9.3,1.55-18.58,2.39-28.4l11.21,2.13c-.58,4.65-1.42,9-1.58,13.31-.26,6.92-.31,13.86,0,20.77.34,8.43,1.11,16.84,1.72,25.26C88.62,228.51,88.94,232.19,89.23,235.88Z"/><path class="cls-1" d="M77.8,232.42c.21.76.47,1.5.71,2.25-3.72-2.25-5.84-5.65-7.58-9.32a69.56,69.56,0,0,1-6.29-24c-.38-4.37-.9-8.73-1.08-13.11-.14-3.55.18-7.13.22-10.7,0-2.76-.1-5.54-.12-8.31,0-4,0-8,0-12.72,2.8,1.62,5.18,2.91,7.47,4.35,1.52,1,1.27,2.62,1.19,4.1-.29,5.3-.5,10.62-1,15.91-.9,9.4,0,18.68,1.31,28,.49,3.54.84,7.12,1.63,10.6C75.24,223.8,76.59,228.1,77.8,232.42Z"/><path class="cls-1" d="M69.9,232.08l1,2.2c-3.95-.64-6.64-2.29-8-5.68-.75-1.81-1.28-3.72-1.93-5.57-2.56-7.3-5.49-14.5-7.59-21.93-3.35-11.8-6-23.81-5.79-36.18.1-5.86,1-11.71,1.63-18.28a52.7,52.7,0,0,1,9.63,7c.46.42.44,1.53.4,2.3-.14,2.43-.46,4.84-.6,7.26-1.19,19.18-.33,38.18,5.84,56.59C65.84,224,68.05,228,69.9,232.08Z"/><path class="cls-1" d="M55,219.95c.66,2.17,1.73,4.23,2.91,7.08a19.59,19.59,0,0,1-9.54-9.15c-5.91-11.23-8.9-23.23-10.06-35.76-.75-8.16-1.65-16.32-2-24.49a42.56,42.56,0,0,1,1.34-11,9.64,9.64,0,0,1,2.94-4.47,4.49,4.49,0,0,1,3.45-.72c1.36.26,1.85,1.65,1.82,3a20.67,20.67,0,0,1-.27,4.48c-2.74,11.26-1.43,22.52,0,33.75C47.22,195.5,51.21,207.69,55,219.95Z"/></svg>