<svg id="圖層_1" data-name="圖層 1" xmlns="http://www.w3.org/2000/svg" viewBox="0 0 287.81 324.7"><defs><style>.cls-1{fill:#fff;}.cls-2{fill:#eabf29;}.cls-3{fill:#9e3224;}</style></defs><title>chks</title><path d="M52.18,136.53c4.87-9.7,9.66-19.78,14.92-29.59S78.81,88.07,88.42,81.81a2.52,2.52,0,0,0,1.08-1.7c.11-5.51,3.23-9.25,7.21-12.47,2.6-2.11,5.36-4,7.89-6.21,4.73-4.1,10.21-3.43,15.6-2.42a10.84,10.84,0,0,0,7.45-.78c2.79-1.4,5.93-2.11,9.16-3.21-.34-4.07-.71-8.44-1.07-12.81-.25-3-.55-6-.69-9a7,7,0,0,1,3.6-6.75c2.9-1.7,5.06-.66,5.68,2.69,1.48,8,3,16,4.39,24A3.59,3.59,0,0,0,152,56.59c6.32,1.33,12.14,3.8,16.77,8.54a5.44,5.44,0,0,0,1.87,1.05c8.9,3.52,17.18,8,23.1,15.83,2.46,3.25,4.86,6.56,5.51,10.77.11.71.86,1.33,1.36,2,12.22,15.19,23.07,31.2,29.1,50,1.25,3.88,2.15,7.87,3.42,11.74a32.73,32.73,0,0,1,.84,16c-2,11.65-3.71,23.38-7.71,34.57-1.23,3.45-2.88,6.75-4.22,10.16-.68,1.73-1,3.61-1.67,5.32a13,13,0,0,1-2.47,4.09c-3.49,3.52-7.12,6.92-10.79,10.25-7.46,6.77-16.62,10.48-25.89,13.92-4.12,1.52-8.2,3.25-12.43,4.39s-8.76,1.72-13.16,2.5a17,17,0,0,1-2.69.19c-3.38,0-5.72.88-6.39,4.95-.55,3.37-5.82,6.81-9.23,6.47a5.39,5.39,0,0,1-3.61-2.48c-1.2-2.19-1.76-4.73-2.78-7.64-5.89-1.49-12.37-3.44-19-4.74-17.7-3.47-31-13.79-42.76-26.71a67.73,67.73,0,0,1-16.07-29.25c-1.58-6.26-1.67-12.91-2.34-19.4-.6-5.84-1.37-11.69-1.5-17.55-.16-6.83.2-13.67.57-20.5.09-1.7,1.1-3.35,1.84-5.45Zm84,123.16c-.24,3,1.08,5.52,3.32,5.52s3.51-2.52,3.37-5.52Zm5.94-4.94c8,.26,15.73-1.41,23.46-3,11.91-2.51,23.17-6.66,33-14.07q5.35-4,10.67-8.06a5.11,5.11,0,0,0,1.23-1.17c3-4.58,6.15-9,8.73-13.82,4.83-8.93,6.26-19,8.87-28.66a59,59,0,0,0,.08-30.23c-2.08-8.32-4.41-16.51-8.87-24s-8.29-15-12.89-22.2c-3.09-4.85-7-9.19-10.61-13.7a5,5,0,0,0-2.39-1.59c-5.36-1.49-10-4.31-14.5-7.46-2.87-2-5.78-4-8.68-5.93l-.54.45a15.23,15.23,0,0,1,1.48,2.05c.45.88,1.18,2,.91,2.75s-1.58,1.24-2.51,1.39c-2.49.39-5.12.18-7.51.84a45.24,45.24,0,0,1-26.76-.89c-5.88-2-11-5.32-13.5-11.52-.71-1.76-2.07-1.89-3.64-1.4-5.67,1.76-11.44,3.28-17,5.36-8.27,3.09-15.6,7.89-20.34,15.43-9,14.25-19.13,27.85-24.52,44.12-1.6,4.82-3.49,9.57-3,14.72.95,9.9,2.11,19.78,3.22,29.66.36,3.23,1.33,6.47,1.19,9.67a27.06,27.06,0,0,0,3.09,14.39c5.77,10.75,13.15,20.24,22.84,27.79C100.81,249,120.74,254,142.1,254.75Zm46.28-167c1.25.74,2.68,1.13,3.35-.37a3.59,3.59,0,0,0-.61-3.12C185.46,77.69,178,73.66,170.4,69.8c-2-1-3.87,0-3.9,2.43.43,2.54,2.66,4.08,4.83,5.43C176.95,81.13,182.7,84.38,188.38,87.73Zm-48.91-4.17a56.64,56.64,0,0,0,16.63,1.24c2.09-.16,4.17-.48,6.26-.72l4.12-.5c-.81-3.33-1.45-6.38-2.32-9.36-.74-2.52-1.17-4.93,1.26-7.79-3.7-1.81-6.86-3.65-10.23-5-8.94-3.44-17.92-3.53-26.72.56a5.26,5.26,0,0,0-2.4,2.25,25.42,25.42,0,0,0-1.75,5.31,4.07,4.07,0,0,0,.18,2.83c1.45,2.19,2.84,4.64,4.87,6.18A25.56,25.56,0,0,0,139.47,83.56Zm-46.11-6,.52,1.06a10.13,10.13,0,0,0,2.63-.42c3.53-1.57,6.95-3.43,10.53-4.87,3.36-1.35,6.91-2.25,10.32-3.49a8.66,8.66,0,0,0,3.25-2c1.52-1.61,1.21-5-.51-5.24-3.52-.57-7.25-1.49-10.58.74a51.91,51.91,0,0,0-5.94,4.6C100.1,71.11,96.76,74.39,93.36,77.61Zm46.56-21.92H145c-1.7-8-3.35-16.52-5.1-25.15C138.45,32.59,138.69,51.69,139.93,55.69Z"/><path class="cls-1" d="M139.48,265.21c-2.23,0-3.55-2.52-3.32-5.52h6.69C143,262.69,141.59,265.2,139.48,265.21Z"/><path class="cls-1" d="M165.56,251.7c-7.72,1.64-15.45,3.31-23.46,3-21.36-.72-41.29-5.72-58.48-19.11-9.69-7.55-17.06-17-22.84-27.79a27.06,27.06,0,0,1-3.09-14.39c.15-3.2-.82-6.44-1.19-9.67-1.11-9.88-2.27-19.76-3.22-29.66-.49-5.16,1.4-9.9,3-14.72,5.39-16.27,15.56-29.86,24.52-44.12,4.74-7.55,12.07-12.35,20.34-15.43,5.56-2.07,11.32-3.6,17-5.36,1.57-.48,2.93-.36,3.64,1.4,2.49,6.2,7.62,9.55,13.5,11.52a45.24,45.24,0,0,0,26.76.89c2.4-.66,5-.45,7.51-.84.93-.15,2.24-.69,2.51-1.39s-.46-1.86-.91-2.75a15.23,15.23,0,0,0-1.48-2.05l.54-.45c2.89,2,5.81,3.92,8.68,5.93,4.49,3.15,9.15,6,14.5,7.46a5,5,0,0,1,2.39,1.59c3.62,4.51,7.52,8.85,10.61,13.7,4.6,7.21,8.5,14.86,12.89,22.2s6.78,15.66,8.87,24a59,59,0,0,1-.08,30.23c-2.61,9.67-4,19.73-8.87,28.66-2.59,4.78-5.78,9.24-8.73,13.82a5.11,5.11,0,0,1-1.23,1.17q-5.32,4-10.67,8.06C188.73,245,177.47,249.19,165.56,251.7Zm-56.47-78.53c2.34.94,5,1,7-.66s1.1-4.22.65-6.44a7.44,7.44,0,0,0-.63-1.84c-1.68-3.37-3.58-4.41-6.56-3.64a4.75,4.75,0,0,0-3.75,3.69,9.1,9.1,0,0,0-.25,2.23c0,.25,0,.49,0,.74C105.58,169.91,106.55,172.16,109.09,173.17Zm59.19-1.29c3.06,0,5-1.14,5.63-3.3a5.69,5.69,0,0,0-2.55-6.46,7.09,7.09,0,0,1-1.33-1.38,4.22,4.22,0,0,0-5.86-.95c-2.39,1.46-3.14,3.8-2.26,7.06A6.4,6.4,0,0,0,168.28,171.88Z"/><path d="M116.07,172.51c-2,1.71-4.64,1.6-7,.66-2.54-1-3.51-3.26-3.55-5.92,0-.25,0-.49,0-.74a9.35,9.35,0,0,1,.24-2.23,4.75,4.75,0,0,1,3.75-3.69c3-.77,4.89.27,6.56,3.64a7.44,7.44,0,0,1,.63,1.84C117.16,168.29,118.14,170.75,116.07,172.51ZM111,169.68a2.54,2.54,0,0,0,2-.1,9.56,9.56,0,0,0-.06-2.72,1.44,1.44,0,0,0-.4-.86c-.62-.58-1.3-1.1-2-1.65l-1.17,1.78c.07.86,0,1.14.12,1.33A7.17,7.17,0,0,0,111,169.68Z"/><path d="M173.91,168.58c-.6,2.17-2.57,3.32-5.63,3.3a6.4,6.4,0,0,1-6.38-5c-.87-3.26-.12-5.6,2.26-7.06a4.22,4.22,0,0,1,5.86.95,7.09,7.09,0,0,0,1.33,1.38A5.69,5.69,0,0,1,173.91,168.58Zm-7.81-1.9c.73.76,2.19.82,3.33,1.19.09-.7.5-1.72.2-2a26,26,0,0,0-3.49-2.64A2.3,2.3,0,0,0,166.1,166.68Z"/><path class="cls-2" d="M112.92,169.58a2.54,2.54,0,0,1-2,.1,7.17,7.17,0,0,1-1.53-2.22c-.11-.19,0-.47-.12-1.33l1.17-1.78c.66.54,1.35,1.06,2,1.65a1.44,1.44,0,0,1,.4.86A9.56,9.56,0,0,1,112.92,169.58Z"/><path class="cls-2" d="M169.43,167.87c-1.14-.37-2.6-.42-3.33-1.19a2.3,2.3,0,0,1,0-3.5,26,26,0,0,1,3.49,2.64C169.93,166.15,169.52,167.17,169.43,167.87Z"/><path d="M105.53,167.25c0-.25,0-.49,0-.74a9.1,9.1,0,0,1,.25-2.23,9.35,9.35,0,0,0-.24,2.23C105.53,166.76,105.53,167,105.53,167.25Z"/><path class="cls-1" d="M191.73,87.36c-.68,1.5-2.1,1.11-3.35.37-5.69-3.35-11.44-6.6-17-10.07-2.17-1.34-4.4-2.89-4.83-5.43,0-2.4,1.86-3.47,3.9-2.43,7.56,3.86,15.05,7.89,20.72,14.44A3.59,3.59,0,0,1,191.73,87.36Z"/><path class="cls-3" d="M156.1,84.79a56.64,56.64,0,0,1-16.63-1.24,25.56,25.56,0,0,1-10.11-5c-2-1.54-3.42-4-4.87-6.18a4.07,4.07,0,0,1-.18-2.83,25.42,25.42,0,0,1,1.75-5.31,5.26,5.26,0,0,1,2.4-2.25c8.8-4.09,17.78-4,26.72-.56,3.37,1.3,6.53,3.14,10.23,5-2.43,2.87-2,5.27-1.26,7.79.87,3,1.51,6,2.32,9.36l-4.12.5C160.27,84.32,158.19,84.63,156.1,84.79Z"/><path class="cls-1" d="M93.88,78.67l-.52-1.06c3.4-3.22,6.74-6.5,10.22-9.64a51.91,51.91,0,0,1,5.94-4.6c3.33-2.23,7.05-1.3,10.58-.74,1.72.28,2,3.63.51,5.24a8.66,8.66,0,0,1-3.25,2c-3.41,1.24-7,2.14-10.32,3.49-3.59,1.45-7,3.3-10.53,4.87A10.13,10.13,0,0,1,93.88,78.67Z"/><path class="cls-2" d="M175,85.69h-5.08c-1.24-4-1.48-23.1,0-25.15C171.66,69.17,173.31,77.69,175,85.69Z"/></svg>