<svg id="圖層_1" data-name="圖層 1" xmlns="http://www.w3.org/2000/svg" viewBox="0 0 287.81 324.7"><defs><style>.cls-1{fill:#fff;}.cls-2{fill:#eabf29;}.cls-3{fill:#9e3224;}</style></defs><title>chks</title><path d="M224.51,170.51c2.4,10,1.5,20.08-.87,30-1.52,6.41-2.5,13-4.35,19.27a136.55,136.55,0,0,1-6.84,18.46,28.76,28.76,0,0,1-6.74,9.2c-6.47,5.82-13.29,11.25-20.19,16.57a16.81,16.81,0,0,1-7.46,3.38c-3.83.55-4.88,3-5.8,6-2,6.37-3.92,12.77-6,19.13a16,16,0,0,1-1.94,4.19c-1.72,2.5-4.84,2.22-5.63-.69-.65-2.44-.45-5.14-.41-7.71,0-1.62.72-3.24.62-4.84a57.08,57.08,0,0,0-1.24-9.12c-.15-.64-1.94-1.31-3-1.28-7,.23-14,.44-21,1-8.63.73-16.84-1.13-25.06-3.24-.23-.06-.48-.06-1.58-.19.76,4.91,1.44,9.44,2.17,14,.51,3.14,1.25,6.24,1.59,9.4.15,1.34-.47,2.76-.9,5-2-1.31-3.85-2-4.76-3.24a44,44,0,0,1-4.55-8.26c-2.71-6.45-5.1-13-7.76-19.51a5.42,5.42,0,0,0-2.42-2.63c-8.85-4.22-15.17-11.45-21.95-18.15-4.41-4.35-7-9.54-9.21-15.31a191.06,191.06,0,0,1-8.58-30.45,87.66,87.66,0,0,1,2.39-44.36c3.87-12.17,7.73-24.28,13.23-35.84C73.2,106.79,84.2,96.37,97.48,88c8.58-5.45,17.84-9.32,27.4-12.58.51-.18,1-.39,1.81-.69-1.47-2.07-2.84-3.95-4.14-5.88-3.11-4.6-5.34-9.51-5.27-15.23.09-7.4,2.33-10,9.59-11,.13-1.57.26-3.19.39-4.81.52-6.64,3.94-9.05,10.59-7.27.67-1.59,1.4-3.2,2-4.85,1.84-4.79,4.25-6.85,8.15-6.86,4.11,0,8.87,3,10,6.95a27,27,0,0,1,.88,8.66c-.54,11.52-3,22.76-5.38,34a54.51,54.51,0,0,0-.59,5.93c3.35,1,7.19,2,10.93,3.33a95.23,95.23,0,0,1,24.06,11.68,60.37,60.37,0,0,1,23.9,33.6Q218.73,146.56,224.51,170.51Zm-5,27.51c1-8.56,2.24-17,.77-25.52-3.28-18.92-7.68-37.6-14.83-55.49a49.69,49.69,0,0,0-10.67-16.53c-10-10.2-22.28-16.19-36-19.44-9.46-2.23-18.56-4.46-28.73-1.71-14,3.79-26.84,9.28-38.22,18.2C84.5,103.2,78,109.58,73.35,117.6c-.59,1-.06,2.65-.6,3.73s-2.1,1.56-2.62,2.61a175.14,175.14,0,0,0-13.31,36.29c-2,8.08-4,16.26-3.32,24.6.62,7.68,2.28,15.28,3.38,22.92s4.63,14.17,7,21.24c5.42,16.27,17.36,26.5,32.19,33.21,12.41,5.61,26,6.93,39.62,7.06,8.49.48,16.65-1.72,25-2.76,14.21-1.78,26.44-7.24,36.72-17.08,5.07-4.85,10.19-10,12.32-16.79C213.24,221.21,218.1,210.2,219.46,198ZM162.31,291.2c2.29-6.9,5.18-13.6,6.95-21.25l-6.21.92C165.7,277.94,162.55,284.47,162.31,291.2Zm-7.7-258.77A8.19,8.19,0,0,0,151.9,25c-3.74-3.41-6.39-3-8.05,1.72-1.19,3.4-1.56,7.11-2.15,10.7-1.88,11.69-1.34,23.37.48,35.46,2-.31,3.81-.56,5.62-.94a1.47,1.47,0,0,0,.9-1c1.21-5.89,2.58-11.76,3.47-17.69C153.21,46.35,153.8,39.38,154.62,32.44ZM137.88,52V38.41c0-2.88-1.46-4.35-3.5-4.39-1.74,0-3.21,1.56-3.48,4.17,0,.32-.11.65-.14,1-.62,5.34,3.26,8.92,5.78,12.93A11.72,11.72,0,0,1,137.88,52Zm-3.4,20.31c.84-.23,2-1.49,2-2.25-.28-7-1.41-13.84-6.89-19-1.42-1.33-2.63-3.6-5-2.71s-2.14,3.56-2.44,5.58c.18,7.38,5,12.46,8.6,18.1C131.14,72.72,133.3,72.65,134.49,72.33ZM105.8,289.25l.95-.26c-1.28-5.75-2.47-11.54-3.93-17.25-.29-1.16-1.6-2.05-2.44-3.07l-.48.43Z"/><path class="cls-1" d="M220.23,172.5c1.48,8.48.19,17-.77,25.52-1.36,12.18-6.21,23.19-9.79,34.62-2.13,6.8-7.25,11.94-12.32,16.79-10.27,9.83-22.51,15.29-36.72,17.08-8.3,1-16.46,3.24-25,2.76-13.6-.13-27.22-1.46-39.62-7.06C81.23,255.5,69.28,245.26,63.87,229c-2.35-7.07-5.91-13.73-7-21.24s-2.76-15.24-3.38-22.92c-.66-8.34,1.34-16.52,3.32-24.6a175.14,175.14,0,0,1,13.31-36.29c.52-1,2.1-1.57,2.62-2.61s0-2.72.6-3.73c4.66-8,11.15-14.41,18.4-20.08C103.13,88.6,116,83.11,130,79.32c10.17-2.75,19.27-.52,28.73,1.71,13.75,3.25,26,9.25,36,19.44A49.69,49.69,0,0,1,205.4,117C212.55,134.9,216.94,153.58,220.23,172.5Zm-72.34,53.29c.49-7.09-3-12-8.46-15.86-2.41-1.7-3.25-1.33-4.24,1.39a13.46,13.46,0,0,1-1,2,35.3,35.3,0,0,0-4.52,22.83c.62,4.57,1.78,9,5.76,12,1.91,1.46,3.58,1.25,4.83-.85a13.17,13.17,0,0,1,.9-1.45C145.84,239.92,147.41,233,147.89,225.79Z"/><path class="cls-2" d="M169.26,270c-1.76,7.65-4.65,14.36-6.95,21.25.24-6.73,3.39-13.26.74-20.34Z"/><path class="cls-3" d="M151.9,25a8.19,8.19,0,0,1,2.72,7.47c-.82,6.95-1.41,13.91-2.45,20.83-.89,5.94-2.26,11.8-3.47,17.69a1.47,1.47,0,0,1-.9,1c-1.81.37-3.65.62-5.62.94-1.82-12.1-2.36-23.77-.48-35.46.58-3.6,1-7.3,2.15-10.7C145.51,21.92,148.16,21.56,151.9,25Z"/><path d="M139.43,209.93c5.44,3.84,9,8.77,8.46,15.86s-2,14.14-6.7,20a13.17,13.17,0,0,0-.9,1.45c-1.25,2.09-2.93,2.3-4.83.85-4-3-5.14-7.42-5.76-12a35.3,35.3,0,0,1,4.52-22.83,13.46,13.46,0,0,0,1-2C136.18,208.6,137,208.23,139.43,209.93Zm-.26,32.19a31,31,0,0,0,4.79-18.4c-.19-4-2.07-7.1-5.67-9.56a27.24,27.24,0,0,0-5,15.75,44.62,44.62,0,0,0,2,11.93C136,244.47,137.69,244.47,139.17,242.13Z"/><path class="cls-1" d="M144,223.73a31,31,0,0,1-4.79,18.4c-1.48,2.34-3.12,2.34-3.87-.27a44.62,44.62,0,0,1-2-11.93,27.24,27.24,0,0,1,5-15.75C141.89,216.63,143.77,219.69,144,223.73Z"/><path class="cls-3" d="M112.88,38.41V52a13.22,13.22,0,0,0-1.39.08c-2.52-4-6.25-7.58-5.63-12.93,0-.32-.09-.65-.06-1,.27-2.61,1.89-4.21,3.63-4.17C111.48,34.07,112.88,35.54,112.88,38.41Z"/><path class="cls-3" d="M136.48,70.07c0,.76-1.15,2-2,2.25-1.19.33-3.34.39-3.76-.26-3.57-5.64-8.43-10.72-8.6-18.1.3-2-.11-4.63,2.44-5.58s3.62,1.37,5,2.71C135.07,56.23,136.2,63,136.48,70.07Z"/><path class="cls-2" d="M106.75,289l-.95.26-5.89-20.16.48-.43c.84,1,2.15,1.92,2.44,3.07C104.28,277.45,105.47,283.23,106.75,289Z"/></svg>