<svg id="圖層_1" data-name="圖層 1" xmlns="http://www.w3.org/2000/svg" viewBox="0 0 287.81 324.7"><defs><style>.cls-1{fill:#fff;}.cls-2{fill:#9e3224;}.cls-3{fill:#eabf29;}.cls-4{fill:#d05351;}</style></defs><title>chks</title><path d="M89.36,216.59A5,5,0,0,0,87.3,218c1.47-.49,2,2.94,3.43,1C91.21,218,90.31,217.1,89.36,216.59Zm182.54,5c2.81,1,3.38,2.73,2.22,5.48a21.17,21.17,0,0,1-8.64,10,43.14,43.14,0,0,1-23.61,6.11,5,5,0,0,0-4.5,2.13C225.85,260,211,269.42,192.57,272.78a136.31,136.31,0,0,1-13.85,1.53c-2.21.17-2.67,1.18-2.6,3.15.17,5.14.15,10.29.26,15.43a13.69,13.69,0,0,1-1.87,8c-1.94,3.07-4.3,3.46-6.72.74a9.54,9.54,0,0,1-1.8-3.9c-1.88-7.24-3.58-14.52-5.52-21.74a3.44,3.44,0,0,0-2.33-1.91c-14.73-2.47-28.52-7.32-40.91-15.81-1.62-1.11-3.33-2.08-4.89-3.25-1.41-1.05-2.57-2.44-4-3.43a43.06,43.06,0,0,0-5.84-3.38c-7-3.32-14-6.49-21-9.82a7.38,7.38,0,0,1-2.26-2.18c-3.92-4.92-7.68-10-11.71-14.78-3.28-3.91-4.06-8.69-5-13.35-1.74-8.92-.41-17.75,2.05-26.35,1.77-6.18,6.16-10.53,11.82-13.41a6.35,6.35,0,0,0,3.81-5.65c.7-6.39,1.81-12.73,2.82-19.54l-2.45,1.27c-9,4.54-18,9.2-27.11,13.51-2.07,1-4.73,1-7.11.93s-4.39-1.46-4.63-3.65c-.19-1.66.79-3.74,1.87-5.17,1-1.27,2.72-2,4.23-2.8,6.68-3.4,13.65-6.31,20-10.18C75.22,132.6,82,127.38,89,122.43a8.41,8.41,0,0,0,1.77-2.29c2.64-3.91,4.88-8.15,7.93-11.7C113.22,91.56,129.84,77.5,151,69.59c3.23-1.21,3-1.36,2.49-5.47-.92-7.19-1.81-14.4-2.2-21.63-.16-2.82.89-5.75,1.72-8.54a7.55,7.55,0,0,1,4.95-5c.75-.28,1.35-1.82,1.47-2.85a16.55,16.55,0,0,1,5-10.34c4.09-4,8.85-3,10.88,2.48a40.93,40.93,0,0,1,2.26,8.22c1.76,11.92,3.38,23.86,5,35.81.29,2.19.77,3.55,3.46,3.63,2,.06,4,1.12,6.1,1.62,5,1.22,9.95,2.36,14.92,3.54a16.37,16.37,0,0,1,4.21,1.15c8.55,4.81,17,10,23.59,17.27,5.58,6.15,10.39,13,15.53,19.55,8,10.14,11.13,22.17,13.49,34.48a135.88,135.88,0,0,1,1,45.31c-1.43,9.91-5.14,19.16-8.5,28.51-.94,2.59-2.1,5.11-3.1,7.52,4.16-1.34,8.24-2.94,12.48-3.91A11.57,11.57,0,0,1,271.9,221.54Zm-3.63,7.86a20,20,0,0,0,1.93-4.24c-1.64-.13-3.47-.81-4.87-.3-4.71,1.72-9.27,3.85-13.88,5.85-3.88,1.69-6.48,4.76-9.24,8.88,3.18-.36,5.77-.48,8.28-1C257.29,237.27,263.78,235.17,268.27,229.4Zm-6.39-49.74c.36-4.79,1.16-9.62.83-14.38-.51-7.55-1.7-15.06-2.77-22.56-1.44-10.11-4.18-19.77-10.25-28.21-2.67-3.71-5.38-7.38-8-11.1A77.12,77.12,0,0,0,225,86c-5.87-4.38-11.76-8.73-19.19-10.36-6.44-1.41-12.78-3.24-19.19-4.8-9.89-2.41-19.82-2.47-29.4,1-5.71,2.08-11.08,5.1-16.53,7.83-13.65,6.83-25.73,15.66-35.56,27.49-5,6-10.44,11.79-13,19.36a183.3,183.3,0,0,0-5.69,18.91c-1.42,6.23-2,12.65-3,19.37,2-.11,3.38-.07,4.72-.29,10.25-1.67,19.11,1.15,26.38,8.48,5.73,5.78,9.28,12.42,6.7,20.95a25.54,25.54,0,0,0-.49,2.94,34.51,34.51,0,0,0,5.82-1.08c7.06-2.66,13.7-6.09,19.34-11.23,2.9-2.64,5.78-5.3,8.8-7.8a22.08,22.08,0,0,1,3.92-2.11l.94.78c-.52,1.33-.7,3-1.64,3.93-4,3.87-7.89,7.91-12.36,11.15a60.27,60.27,0,0,1-21.24,10.12c-4.74,1.14-9.58,1.91-14.35,3a4.68,4.68,0,0,0-3.8,5c.19,1.86,2.16,3.44,4.52,3.75a35.35,35.35,0,0,0,17.57-2c7.52-2.88,15.1-5.69,22.42-9,4.43-2,8.41-5,12.61-7.59,0-.1.11.11.14.33a6.25,6.25,0,0,1-3.61,6.88c-5.88,3-12,5.52-17.82,8.5a54.83,54.83,0,0,1-22.42,6.3c-4.79.21-8.09,1.41-9.78,6a7.75,7.75,0,0,1-1.57,2.18,18.85,18.85,0,0,0-4.21,10c-.31,2.12-.86,5,.19,6.39,3.13,4.21,6.43,8.71,10.69,11.58,14,9.43,29.2,16.13,46.32,17.51,10.44.84,20.91,1.51,31.21-.84,11.19-2.55,22.2-5.9,30.55-14.4,7.08-7.21,13.75-14.83,20.58-22.29a49.49,49.49,0,0,0,10.52-18C257.65,202.72,261,191.46,261.88,179.66ZM175.67,65.17c3,.18,3.62-.35,3.09-3.27-1-5.43-2.13-10.83-3.37-16.21-.66-2.86-1.73-3.1-4-1.22-3.94,3.22-4.55,7.67-4.44,12.35,0,1.06-.06,2.12,0,3.17.27,4,.85,4.5,4.86,4.83C173.08,64.92,174.37,65.1,175.67,65.17ZM169.61,39c5.3.22,5.3.22,5.1-5.59a3.3,3.3,0,0,0,0-.49c-.94-4.27-1.63-8.62-2.91-12.79-1-3.15-3.5-3.55-5.44-.85a28.08,28.08,0,0,0-3.25,7.21,4.15,4.15,0,0,0,.49,3C165.4,32.61,167.42,35.58,169.61,39Zm1.73,256.65V274.48l-6.49-.58c2,7.59,3.85,14.71,5.69,21.83C170.8,295.7,170.34,295.67,171.34,295.64Zm-6.62-252.4c.26-3.63-.6-6.64-4.09-8.71-1.79-1.06-2.84-.84-3.44.78-1,2.62-1.56,5.37-2.3,8.06l.68.17c.22,4.07.23,8.17.72,12.21a83.75,83.75,0,0,0,2,9c.38,1.61,1.54,1.62,2.86,1.43s1.86-.76,2-2.21C163.58,57.06,164.22,50.15,164.72,43.24Zm-47.4,148.11c.7-2.81,1.25-5.72-.38-8.32-4.63-7.4-10.85-12.8-19.76-14.19a41.28,41.28,0,0,0-8.31-.16A23.24,23.24,0,0,0,68.31,184c-2.31,6.57-2.64,13.42-2.14,20.29a34.47,34.47,0,0,0,1.25,7.2c2,6.75,8.78,9.19,14.5,5.12a94.55,94.55,0,0,0,8.37-7.14c2.85-2.57,5.5-2.41,7.28,1a10.41,10.41,0,0,1,1,5.84c-.5,3.71-3.16,6-6.56,7.23-3,1.14-5.12-.41-7-2.66a2.15,2.15,0,0,0-1.84-.41c-2.94.8-5.84,1.74-9,2.7,3.71,3.84,5.29,9.6,10.41,12.64,4.78,2.83,9.43,5.9,14.91,7.37-1.28-10.79,1.59-19.75,10-26.79a11.82,11.82,0,0,0-1.26-.59c-4.26-1.38-5.93-3.16-6.16-6.59-.3-4.53,1.19-7.16,5.2-9a17.08,17.08,0,0,1,3.65-1.38c3.51-.71,5.61-2.64,6-6.28A9.61,9.61,0,0,1,117.32,191.35Zm-22.64,25q-.27-1.76-.53-3.53l-2.39,1.53,2,2.16Zm-13.11-77.1c3.94-2.7,4.68-6.47,5.68-11-2.19,1.62-3.92,2.93-5.69,4.2a189.39,189.39,0,0,1-32.26,18.72,25.69,25.69,0,0,0-3.85,2.77c2.58,2.2,4.76,1.68,6.74.69C62.07,149.62,72.37,145.53,81.57,139.22Z"/><path class="cls-1" d="M270.2,225.16a20,20,0,0,1-1.93,4.24c-4.48,5.77-11,7.87-17.78,9.22-2.51.5-5.1.61-8.28,1,2.76-4.12,5.36-7.2,9.24-8.88,4.61-2,9.17-4.13,13.88-5.85C266.73,224.35,268.56,225,270.2,225.16Z"/><path class="cls-1" d="M262.71,165.29c.32,4.75-.48,9.59-.83,14.38-.89,11.8-4.23,23.06-7.91,34.2a49.49,49.49,0,0,1-10.52,18c-6.83,7.46-13.5,15.08-20.58,22.29-8.34,8.49-19.36,11.84-30.55,14.4-10.3,2.35-20.77,1.68-31.21.84-17.12-1.38-32.33-8.08-46.32-17.51-4.25-2.87-7.55-7.38-10.69-11.58-1-1.42-.5-4.27-.19-6.39a18.85,18.85,0,0,1,4.21-10,7.75,7.75,0,0,0,1.57-2.18c1.7-4.63,5-5.83,9.78-6a54.83,54.83,0,0,0,22.42-6.3c5.86-3,11.94-5.54,17.82-8.5a6.25,6.25,0,0,0,3.61-6.88c0-.22-.18-.43-.14-.33-4.2,2.57-8.18,5.56-12.61,7.59-7.32,3.35-14.9,6.15-22.42,9a35.35,35.35,0,0,1-17.57,2c-2.36-.31-4.34-1.89-4.52-3.75a4.68,4.68,0,0,1,3.8-5c4.77-1,9.61-1.81,14.35-3a60.27,60.27,0,0,0,21.24-10.12c4.47-3.24,8.38-7.27,12.36-11.15.94-.91,1.11-2.6,1.64-3.93l-.94-.78a22.08,22.08,0,0,0-3.92,2.11c-3,2.5-5.91,5.16-8.8,7.8-5.64,5.15-12.28,8.58-19.34,11.23a34.51,34.51,0,0,1-5.82,1.08,25.54,25.54,0,0,1,.49-2.94c2.58-8.53-1-15.17-6.7-20.95-7.28-7.34-16.13-10.16-26.38-8.48-1.34.22-2.72.18-4.72.29,1-6.72,1.61-13.14,3-19.37A183.3,183.3,0,0,1,92,126.5c2.61-7.57,8-13.32,13-19.36,9.83-11.83,21.92-20.65,35.56-27.49,5.46-2.73,10.83-5.74,16.53-7.83,9.59-3.5,19.51-3.45,29.4-1,6.41,1.56,12.75,3.39,19.19,4.8,7.43,1.63,13.32,6,19.19,10.36a77.12,77.12,0,0,1,16.69,17.46c2.64,3.72,5.36,7.4,8,11.1,6.07,8.44,8.81,18.1,10.25,28.21C261,150.23,262.2,157.74,262.71,165.29Zm-147-48.92c3.14,0,5-1.29,4.46-3a4.4,4.4,0,0,0-3.15-2.3c-2.23-.25-2.33,1.87-2.4,3.41C114.55,115.2,115.42,116,115.68,116.36Z"/><path class="cls-2" d="M178.76,61.9c.53,2.92-.1,3.45-3.09,3.27-1.3-.07-2.59-.25-3.89-.35-4-.33-4.58-.88-4.86-4.83-.07-1,0-2.11,0-3.17-.12-4.68.5-9.13,4.44-12.35,2.31-1.89,3.39-1.64,4,1.22C176.63,51.07,177.77,56.47,178.76,61.9Z"/><path class="cls-2" d="M174.71,33.41c.21,5.81.21,5.81-5.1,5.59-2.2-3.41-4.21-6.38-6-9.47a4.15,4.15,0,0,1-.49-3,28.08,28.08,0,0,1,3.25-7.21c1.94-2.7,4.47-2.3,5.44.85,1.28,4.17,2,8.51,2.91,12.79A3.3,3.3,0,0,1,174.71,33.41Z"/><path class="cls-3" d="M171.34,274.48v21.16c-1,0-.59.05-.84.08-1.84-7.12-3.64-14.24-5.6-21.83Z"/><path class="cls-2" d="M160.63,34.54c3.49,2.07,4.36,5.08,4.09,8.71-.5,6.91-1.14,13.82-1.59,20.73-.1,1.45-.65,2-2,2.21s-2.49.18-2.86-1.43a83.75,83.75,0,0,1-2-9c-.49-4-.5-8.14-.72-12.21l-.68-.17c.74-2.69,1.34-5.44,2.3-8.06C157.79,33.7,158.84,33.47,160.63,34.54Z"/><path d="M120.14,113.38c.58,1.69-1.32,3-4.46,3-.25-.41-1.12-1.17-1.09-1.88.07-1.53.18-3.66,2.4-3.41A4.4,4.4,0,0,1,120.14,113.38Z"/><path class="cls-2" d="M116.95,183c1.63,2.6,1.07,5.51.38,8.32a9.61,9.61,0,0,0-.37,1.16c-.4,3.64-2.5,5.57-6,6.28a17.08,17.08,0,0,0-3.65,1.38c-4,1.86-5.49,4.49-5.2,9,.23,3.43,1.9,5.22,6.16,6.59a11.82,11.82,0,0,1,1.26.59c-8.4,7-11.27,16-10,26.79-5.48-1.47-10.13-4.53-14.91-7.37-5.12-3-6.7-8.8-10.41-12.64,3.16-1,6.06-1.9,9-2.7a2.15,2.15,0,0,1,1.84.41c1.85,2.24,3.92,3.8,7,2.66,3.4-1.27,6.06-3.52,6.56-7.23a10.41,10.41,0,0,0-1-5.84c-1.78-3.44-4.43-3.6-7.28-1a94.55,94.55,0,0,1-8.37,7.14c-5.71,4.07-12.49,1.64-14.5-5.12a34.47,34.47,0,0,1-1.25-7.2c-.5-6.88-.18-13.72,2.14-20.29a23.24,23.24,0,0,1,20.57-15.29,41.28,41.28,0,0,1,8.31.16C106.1,170.23,112.31,175.62,116.95,183ZM81.1,194.38c2.82-2.66,3.11-3.57,1.54-5.19-2.06-2.11-3.15-1.92-6,1.23Z"/><path class="cls-4" d="M94.15,212.8q.26,1.76.53,3.53l-1,.16-2-2.16Z"/><path class="cls-4" d="M89.36,216.59c.95.5,1.85,1.45,1.37,2.4-1.47,2-2-1.47-3.43-1A5,5,0,0,1,89.36,216.59Z"/><path class="cls-3" d="M87.25,128.22c-1,4.53-1.75,8.3-5.68,11-9.2,6.31-19.5,10.4-29.37,15.37-2,1-4.16,1.51-6.74-.69a25.69,25.69,0,0,1,3.85-2.77,189.39,189.39,0,0,0,32.26-18.72C83.33,131.14,85.07,129.83,87.25,128.22Z"/><path d="M103.65,189.19c-2.06-2.11-3.15-1.92-6,1.23l.61.54a2.44,2.44,0,0,0,.9,2.36,2.15,2.15,0,0,0,.73.39,2.51,2.51,0,0,0,1.7.19l.55.49C104.92,191.71,105.21,190.8,103.65,189.19Z"/><path d="M82.65,189.19c-2.06-2.11-3.15-1.92-6,1.23l.61.54a2.44,2.44,0,0,0,.9,2.36,2.15,2.15,0,0,0,.73.39,2.51,2.51,0,0,0,1.7.19l.55.49C83.92,191.71,84.21,190.8,82.65,189.19Z"/></svg>