<svg id="圖層_1" data-name="圖層 1" xmlns="http://www.w3.org/2000/svg" viewBox="0 0 77.11 22.63"><defs><style>.cls-1{fill:#004187;}.cls-2{fill:#e60012;fill-rule:evenodd;}</style></defs><title>banklogo</title><path class="cls-1" d="M27.48,7.48a1,1,0,1,1,1-1A1,1,0,0,1,27.48,7.48Zm0-1.82a.83.83,0,1,0,.83.83A.81.81,0,0,0,27.48,5.66Zm.22.91.22.44h-.22l-.21-.42h-.21V7h-.18V5.93h.47a.32.32,0,0,1,.36.33A.31.31,0,0,1,27.7,6.58Zm-.13-.46h-.28v.31h.28c.1,0,.17,0,.17-.15S27.67,6.11,27.57,6.11Z"/><path class="cls-2" d="M25.52,6.9a9.17,9.17,0,0,0-15,0L10.43,7H12.6l0,0A7.4,7.4,0,0,1,23.41,7l0,0h2.17l-.08-.13Z"/><path class="cls-1" d="M9.57,15l0,0a3.12,3.12,0,0,1-2.23,1,2.82,2.82,0,0,1-2.86-3,2.82,2.82,0,0,1,2.86-3,3.12,3.12,0,0,1,2.23,1l0,0L10.64,10l0,0A4.06,4.06,0,0,0,7.35,8.38,5,5,0,0,0,4,9.62a4.63,4.63,0,0,0-1.44,3.52A4.61,4.61,0,0,0,4,16.67a4.9,4.9,0,0,0,3.38,1.24,4.05,4.05,0,0,0,3.26-1.56l0,0Z"/><rect class="cls-1" x="11.72" y="8.53" width="1.88" height="9.2"/><path class="cls-1" d="M21,15.73a2.72,2.72,0,0,1-1.39.46c-.61,0-.88-.32-.88-1V10.26h1.92V8.53H18.71V5.67l-1.85,1V8.53H15.27v1.73h1.59v5.2A2.18,2.18,0,0,0,19,17.88a3,3,0,0,0,1.67-.43h0l.46-1.78Z"/><rect class="cls-1" x="22.55" y="8.53" width="1.88" height="9.2"/><path class="cls-1" d="M35.06,8.8h0c0,.53,0,.87,0,1h1c.17,0,.25.12.25.36s-.09.39-.26.39h-1a4.18,4.18,0,0,0,0,.51.45.45,0,0,1,.09.24,2.51,2.51,0,0,1-.28.75,6.74,6.74,0,0,1-.68,1.13v4.25c0,.23-.12.34-.36.34a.31.31,0,0,1-.35-.35V14.2c-.7.82-1.17,1.23-1.4,1.23a.31.31,0,0,1-.25-.12.41.41,0,0,1-.1-.27.27.27,0,0,1,.08-.21,9.6,9.6,0,0,0,2.57-3.49c-.06,0-.09-.12-.09-.26v-.52H32c-.2,0-.3-.13-.3-.39s.12-.38.35-.38H34.3v-1c0-.2.12-.3.37-.3S35.06,8.6,35.06,8.8Zm1.84,6V16a.91.91,0,0,0,.24.75,2.45,2.45,0,0,0,1.22.19,9.14,9.14,0,0,0,.92,0,.67.67,0,0,0,.55-.3,1.38,1.38,0,0,0,.16-.75L40,15c0-.22.13-.32.38-.32a.3.3,0,0,1,.3.17A4.73,4.73,0,0,1,40.71,16a2,2,0,0,1-.23,1,1.19,1.19,0,0,1-.61.52,3.82,3.82,0,0,1-1.28.15,4.11,4.11,0,0,1-1.87-.3,1.09,1.09,0,0,1-.53-1V11.22c0-.2.11-.31.34-.31s.37.11.37.32v2.71A17.87,17.87,0,0,0,39,12.44l.65-.52a.72.72,0,0,1,.35-.2.29.29,0,0,1,.24.12.42.42,0,0,1,.1.27.28.28,0,0,1-.07.21c0,.06-.46.39-1.23,1A17.26,17.26,0,0,1,36.9,14.81Zm1.48-6v1h2.25c.25,0,.37.14.37.4s-.11.37-.32.37h-2.3c0,.18,0,.33,0,.46s0,.39,0,.53a.28.28,0,0,1-.14.25.46.46,0,0,1-.24.06c-.23,0-.35-.1-.35-.29v-1h-.84c-.22,0-.33-.13-.33-.39s.11-.38.32-.38h.85v-1c0-.21.12-.3.34-.3S38.37,8.61,38.37,8.82Z"/><path class="cls-1" d="M44.67,10.52l0,1.2a9.51,9.51,0,0,1,1,0,.57.57,0,0,1,.44.26,5.31,5.31,0,0,1,.14,1.65c0,.53,0,1-.05,1.54a.39.39,0,0,1,.34-.16h.6v-3.5l-.56,0c-.14,0-.21-.11-.21-.29s.11-.31.34-.31h.46c0-.06,0-.2,0-.41a.29.29,0,0,1,.32-.33.41.41,0,0,1,.25.09.28.28,0,0,1,.11.23v.42h2.29v-.4a.29.29,0,0,1,.33-.32.41.41,0,0,1,.26.1.3.3,0,0,1,.11.24v.39h.73c.18,0,.26.1.26.29s-.09.31-.27.31h-.73V15h1.05c.18,0,.28.1.28.29a.27.27,0,0,1-.31.3H46.55a.31.31,0,0,1-.36-.17A3.19,3.19,0,0,1,45.79,17a1.29,1.29,0,0,1-1.17.52c-.56,0-.84-.14-.84-.42a.42.42,0,0,1,.1-.26.33.33,0,0,1,.25-.11.84.84,0,0,1,.25.07.91.91,0,0,0,.39.08.57.57,0,0,0,.34-.12,1.88,1.88,0,0,0,.3-.94A10.76,10.76,0,0,0,45.56,14a9.85,9.85,0,0,0-.06-1.55.3.3,0,0,0-.33-.2l-.5,0A16,16,0,0,1,44.58,14a10.45,10.45,0,0,1-.3,1.6,7.72,7.72,0,0,1-.5,1.36,2.15,2.15,0,0,1-.38.62.33.33,0,0,1-.17,0c-.24,0-.36-.11-.36-.33a.56.56,0,0,1,.08-.27,7.9,7.9,0,0,0,.79-2.2A16.4,16.4,0,0,0,44,11.73c0-.35,0-.75,0-1.2H43c-.17,0-.25-.1-.25-.3a.32.32,0,0,1,.09-.23.35.35,0,0,1,.28-.09h1.28V8.8c0-.18.12-.27.35-.27s.36.1.36.29V9.91h1q.13,0,.23.17A3.38,3.38,0,0,0,47,8.71a.28.28,0,0,1,.3-.19.48.48,0,0,1,.26.07.26.26,0,0,1,.11.2,1.37,1.37,0,0,1-.15.52h4.34a.27.27,0,0,1,.31.3.26.26,0,0,1-.3.3H47.32a4.72,4.72,0,0,1-.72.89c-.28.27-.49.4-.64.4a.34.34,0,0,1-.24-.1.3.3,0,0,1-.1-.22.28.28,0,0,1,.15-.23l.21-.14Zm3.53,5.6c0,.18-.29.48-.88.92a2.68,2.68,0,0,1-1.26.64c-.16,0-.25-.1-.25-.29a.33.33,0,0,1,.17-.32,3.45,3.45,0,0,0,1.15-.71c.36-.33.56-.5.59-.52a.27.27,0,0,1,.14,0,.33.33,0,0,1,.23.09A.29.29,0,0,1,48.19,16.12Zm1.94-4.59H47.87v.74h2.27Zm0,1.33H47.87v.78h2.27Zm0,1.41H47.87V15h2.27Zm1.46,3.52a.28.28,0,0,1-.19-.09,8.62,8.62,0,0,0-.78-.58c-.46-.31-.78-.52-.94-.6s-.26-.2-.26-.33a.36.36,0,0,1,.36-.34.41.41,0,0,1,.22.07l.54.32a8.81,8.81,0,0,1,.87.6,3.81,3.81,0,0,1,.49.41.33.33,0,0,1,0,.16.44.44,0,0,1-.1.27A.3.3,0,0,1,51.6,17.79Z"/><path class="cls-1" d="M58.53,16.6a.32.32,0,0,1-.21.23,10.43,10.43,0,0,1-1.08.21c-.62.1-1.25.19-1.91.24l-1,.09a.24.24,0,0,1-.19-.1A.35.35,0,0,1,54,17c0-.16.08-.24.25-.26L56,16.63v-3h-1.4c-.19,0-.28-.1-.28-.31s.12-.32.38-.31H56V11.74H55c-.18,0-.27-.09-.27-.28a.23.23,0,0,1,0-.14.42.42,0,0,1-.22.06.38.38,0,0,1-.26-.1.3.3,0,0,1,0-.47,7.29,7.29,0,0,0,1.81-2.07.58.58,0,0,1,.54-.28.7.7,0,0,1,.61.36c.16.24.59.77,1.29,1.61v-1A.58.58,0,0,1,58.69,9a.64.64,0,0,1,.46-.18H62a.73.73,0,0,1,.58.24.85.85,0,0,1,.21.56l0,3.39a.76.76,0,0,1-.2.53.69.69,0,0,1-.53.22H60.58a7.56,7.56,0,0,0,.82,1.53,11.34,11.34,0,0,0,1-1.1.26.26,0,0,1,.23-.11.37.37,0,0,1,.26.11.31.31,0,0,1,.12.24.26.26,0,0,1,0,.12,5.76,5.76,0,0,1-.41.49,5.41,5.41,0,0,1-.78.75,8.87,8.87,0,0,0,1.48,1.4.28.28,0,0,1,.12.23.33.33,0,0,1-.34.33c-.22,0-.7-.38-1.46-1.16a7.67,7.67,0,0,1-1.72-2.86h-.64v3.11a4.82,4.82,0,0,0,1.12-.34,2.11,2.11,0,0,1,.52-.2.34.34,0,0,1,.24.1.33.33,0,0,1,.1.23c0,.13-.1.26-.29.38a6.71,6.71,0,0,1-1.53.45,9.76,9.76,0,0,1-1.71.27c-.16,0-.25-.09-.25-.28a.29.29,0,0,1,.28-.33l.82-.1Zm-3.36-.52h0c-.42-1.18-.62-1.79-.62-1.81a.29.29,0,0,1,.12-.22.43.43,0,0,1,.26-.09.32.32,0,0,1,.25.1,4.17,4.17,0,0,1,.36.87,4.23,4.23,0,0,1,.26,1,.29.29,0,0,1-.13.23.48.48,0,0,1-.27.09C55.24,16.22,55.17,16.17,55.17,16.08ZM55,11.15l2.73,0c.19,0,.29.11.29.32s-.1.28-.3.28h-1V13h1.38c.18,0,.28.1.28.31a.27.27,0,0,1-.29.31H56.69v2.87c.43-.06.79-.12,1.08-.18l.45-.09a.3.3,0,0,1,.3.23V11a.31.31,0,0,1-.2.06.31.31,0,0,1-.28-.12L56.62,9.17A7.15,7.15,0,0,1,55,11.15Zm3.24,3.13a4.08,4.08,0,0,1-.33.93,6.76,6.76,0,0,1-.41.85.29.29,0,0,1-.23.09c-.24,0-.37-.1-.37-.31a2.53,2.53,0,0,1,.26-.63,8.69,8.69,0,0,0,.44-1,.28.28,0,0,1,.29-.22.38.38,0,0,1,.25.09A.31.31,0,0,1,58.2,14.28Zm3.68-4.85H59.47c-.16,0-.24,0-.24.2V11h2.92V9.67C62.14,9.52,62.05,9.43,61.88,9.43Zm-2.66,2.15v1.55h2.69a.24.24,0,0,0,.23-.26v-1.3Z"/><path class="cls-1" d="M65,14.09h0a8,8,0,0,0,2-3,.21.21,0,0,1,.22-.14.46.46,0,0,1,.29.11.34.34,0,0,1,.14.28A5.34,5.34,0,0,1,66.92,13v4.54a.3.3,0,0,1-.13.22.5.5,0,0,1-.28.09c-.21,0-.31-.12-.31-.35V13.92c-.43.49-.72.73-.87.73a.35.35,0,0,1-.26-.11.36.36,0,0,1-.12-.27A.23.23,0,0,1,65,14.09Zm2.68-5.32a4.81,4.81,0,0,1-.45,1.14,6,6,0,0,1-1,1.54c-.37.39-.63.59-.78.59a.28.28,0,0,1-.23-.13.4.4,0,0,1-.1-.25c0-.15.11-.3.33-.46A5.34,5.34,0,0,0,67,8.59a.33.33,0,0,1,.3-.15.43.43,0,0,1,.28.09A.3.3,0,0,1,67.71,8.76ZM72,12.15H68c-.17,0-.25-.09-.25-.33s.09-.39.29-.39h5.85a.31.31,0,0,1,.23.32c0,.26-.11.39-.34.39H72.72v4.6a1,1,0,0,1-.35.73,1.39,1.39,0,0,1-1,.33A4.31,4.31,0,0,1,70,17.5a6.46,6.46,0,0,1-.91-.35.24.24,0,0,1-.09-.2.5.5,0,0,1,.13-.29.37.37,0,0,1,.29-.16,4.8,4.8,0,0,1,.73.28,3.08,3.08,0,0,0,1.16.28c.3,0,.48-.07.55-.22a.9.9,0,0,0,.1-.36ZM68.65,9.87v0c-.18,0-.27-.1-.27-.33s.09-.38.27-.38h4.91a.27.27,0,0,1,.21.14.47.47,0,0,1,.1.29c0,.2-.11.3-.34.3Z"/></svg>