<svg xmlns="http://www.w3.org/2000/svg" xmlns:xlink="http://www.w3.org/1999/xlink" viewBox="0 0 276.45 72"><defs><style>.cls-1{isolation:isolate;}.cls-2{fill:#004ea2;}.cls-3{fill:#17277a;}.cls-4{fill:url(#GradientFill_117);}.cls-5{mix-blend-mode:lighten;fill:url(#radial-gradient);}.cls-6{fill:#ed6c00;}</style><radialGradient id="GradientFill_117" cx="119.92" cy="26.89" r="7.91" gradientUnits="userSpaceOnUse"><stop offset="0" stop-color="#9fd9f6"/><stop offset="0.4" stop-color="#008cd6"/><stop offset="0.65" stop-color="#191e6b"/><stop offset="1" stop-color="#008cd6"/></radialGradient><radialGradient id="radial-gradient" cx="120.1" cy="29.83" r="4.59" gradientUnits="userSpaceOnUse"><stop offset="0" stop-color="#17277a"/><stop offset="0.34" stop-color="#19297b"/><stop offset="0.5" stop-color="#20307f"/><stop offset="0.61" stop-color="#2d3c86"/><stop offset="0.71" stop-color="#3f4d90"/><stop offset="0.8" stop-color="#57649e"/><stop offset="0.88" stop-color="#7480ae"/><stop offset="0.95" stop-color="#95a0c0"/><stop offset="1" stop-color="#b5bed2"/></radialGradient></defs><title>logo</title><g class="cls-1"><g id="圖層_1" data-name="圖層 1"><path class="cls-2" d="M263.62,28.48v-.07H225.56L225,31.08h36.42C263.08,30.7,263.56,28.78,263.62,28.48ZM186.26,45.27l.62-3.12-4.19.58,1.37-6.95h2.42c1.57-.37,2.07-2.19,2.16-2.58l0-.08H184.6l1.23-6.23H180l-1.23,6.23h-5.65l-.53,2.67h5.65l-1.53,7.79-5.82.81-.62,3.11,5.81-.81-1.48,7.48H171.1l-1.85,2.67H174c3.62,0,6.13-1.18,6.58-3.55.36-1.78,1.47-7.43,1.47-7.43Zm19.46-18.38h-5.87l-.44,2.22h-9l-.53,2.67h9l-.49,2.44h-7.24l-.52,2.67h7.23l-.45,2.26h-9l-.53,2.66h9l-.47,2.34H189.2l-.54,2.69h7.23l-1.15,5.84-2.68-1.31.42-2.2h-5.87s-.32,1.62-.44,2.2c-.41,2.11-5.4,5.51-5.4,5.51h4.79a19,19,0,0,0,4.52-3c5.18,2.25,6,2.94,11,2.94h10.21c1.77-.41,2.18-2.66,2.18-2.66H200.31l.47-2.34H210c1.69-.39,2.14-2.47,2.18-2.65H201.31l.46-2.34H211c1.66-.39,2.12-2.39,2.18-2.64l.47-2.39h1.28c1.72-.4,2.16-2.55,2.18-2.66h-2.93l1-4.93H204.27l.48-2.44h10.34c1.6-.37,2.09-2.25,2.17-2.61V29.1h-12Zm1.56,17.25h-5l.46-2.34h5Zm1.44-7.26-.45,2.26h-5l.45-2.26Zm8.36,2.26h0Zm33.55,13.69c-.33,0-1.78,0-1.63-1.08l2.26-11.69h12c1.76-.41,2.18-2.64,2.18-2.66v0H222l-.54,2.68H232.7c-.25,1.22-.56,2.81-.82,4.1C231,48.34,221.8,56.87,221.8,56.87h4.62s10.51-8.53,11.8-15l.36-1.78h6.81C244.6,44,243,51.79,242.76,53.12c-.4,2,.75,3.15,3.43,3.48a36.53,36.53,0,0,0,5.79.22h5.93c.5,0,3.86-.18,4.33-.65,2-2.78,4.35-6.36,4.35-6.36C263.47,51.28,253.86,52.91,250.63,52.83Z"/><circle class="cls-3" cx="119.97" cy="29.63" r="4.82"/><circle class="cls-4" cx="119.97" cy="29.63" r="4.46"/><path class="cls-5" d="M124.22,28.75c0,1.95-1.85.86-4.13.86S116,30.7,116,28.75s1.85-3.51,4.13-3.51S124.22,26.81,124.22,28.75Z"/><path class="cls-6" d="M57.27,35.78a13.5,13.5,0,0,0-12.4,7.5l0,.08a13.6,13.6,0,0,0-1.51,6.37s0,.47,0,.49c.35,4.15,3.55,6.47,9.25,6.61a21,21,0,0,0,7.36-.74l3.52-5.33a29.15,29.15,0,0,1-9,1.63c-3.44,0-5.07-1.51-4.63-4.06H64.08l.77-1.66C67.67,39.52,63.86,35.78,57.27,35.78Zm2.46,8.51H50.36c1.09-2.77,3.1-4.16,5.27-4.33C58.73,39.73,61.46,40.86,59.73,44.3Z"/><path class="cls-6" d="M26.22,34.33A12.66,12.66,0,0,1,34,31.53H45.39l3.94-5.66H36c-2.22,0-7.83.32-11.91,3.31a24.06,24.06,0,0,0-5.43,5.16A23.26,23.26,0,0,0,15.48,41a16,16,0,0,0-.54,5.82,11.15,11.15,0,0,0,1.64,4.9,10.54,10.54,0,0,0,4.18,3.88,16.65,16.65,0,0,0,5.52,1.31c9.9,0,14.57-5.94,16.76-11,0,0,.94-2.47.84-2.24a23.12,23.12,0,0,0,1-4.8H29.7l-1.36,5.55h8.18a9.31,9.31,0,0,1-8.89,6.39,5.92,5.92,0,0,1-5.16-2.62c-1.32-1.86-1.5-4.31-.77-7A12.89,12.89,0,0,1,26.22,34.33Z"/><path class="cls-6" d="M106.2,36.33l-2.37,8.55C102.68,49,100.68,51,98.08,51c-2.34,0-3-1.51-2.17-4.65L98.7,36.33H91.82L88.63,47.81c-1.61,5.82.25,8.82,5.16,8.82a11.28,11.28,0,0,0,8.53-4.1l-1,3.76h6.26l5.54-20Zm-23.75-.54A11.24,11.24,0,0,0,74,39.9l1-3.58H68.7l-1.94,7v0l-1.39,5-2.21,8H70l2.67-9.6c.94-3.38,3.17-5.31,5.46-5.31s3,1.52,2.14,4.66L77.47,56.29h6.88L87.6,44.6C89.2,38.82,87.37,35.78,82.45,35.78Zm32.82.56-5.53,20h6.88l5.53-20Zm22.84-.55a11.22,11.22,0,0,0-8.48,4.12l1-3.57h-6.26l-5.54,20h6.89l2.65-9.59c.94-3.38,3.18-5.31,5.47-5.31s3,1.51,2.14,4.65L133.13,56.3H140l3.53-12.87h0C144.58,38.41,142.68,35.79,138.11,35.79Z"/><path class="cls-6" d="M157.27,35.6a13.46,13.46,0,0,0-12.37,7.49l-.05.08a13.58,13.58,0,0,0-1.51,6.36s0,.47,0,.49c.34,4.14,3.54,6.45,9.23,6.6a21,21,0,0,0,7.34-.74l3.51-5.32a29,29,0,0,1-9,1.63c-3.43,0-5.05-1.51-4.62-4h14.2l.77-1.66C167.65,39.33,163.85,35.6,157.27,35.6Zm2.46,8.5h-9.35c1.08-2.76,3.09-4.15,5.25-4.32C158.73,39.53,161.46,40.66,159.73,44.1Z"/></g></g></svg>