<svg id="圖層_1" data-name="圖層 1" xmlns="http://www.w3.org/2000/svg" viewBox="0 0 156.5 72"><defs><style>.cls-1{fill:#e6003c;}.cls-2{fill:#231815;}</style></defs><title>logo</title><path class="cls-1" d="M117.28,5l4.82,1.87c-2.66,4-3.53,5.69-3.74,10C117.21,14.78,114.83,11.68,117.28,5Z"/><path class="cls-1" d="M118,18.66c4.25,1.15,6.62,1.3,10.44.07l1.08,4c-2.88-.07-5.11,0-7.85-.94,6,6.84,3.31,14.18,3,16l-6.55,4.32C120.37,35.37,122,25.29,118,18.66Z"/><path class="cls-1" d="M104.17,10.1c3.74,4.68,7.85,6.34,13.1,8.35-9.36,2.3-12.1,7-9.5,13l-5.26-2.74c-.79-4.1,0-9.86,9.65-10.66-4.1-.36-6.77-1-8.79-3Z"/><path class="cls-1" d="M25.19,15.06H18.28c-2.52,0-2.59,3.53.22,3.38h6.26a13.71,13.71,0,0,1-3.46,6.19,18.73,18.73,0,0,1-2.23,1.94c-.43.29-.86.5-1.22.79a2.93,2.93,0,0,1-.65.36,1,1,0,0,0-.29.22c-2.45,1.66.07,4.32,2.23,2.81a1,1,0,0,0,.29-.22,21.06,21.06,0,0,0,7.63-8.06,24.07,24.07,0,0,0,3.6,4.82,14.36,14.36,0,0,0,2.16,2l1.08.86c.22.14.36.29.58.43,2.3,1.87,4.54-1.08,2.38-2.52-3.53-2.38-6.62-5.26-7.7-9.58h6.48c1.94.07,2.45-3.38-.07-3.46H28.79V13.48l.07-.79c.14-3.1-3.67-2.88-3.67-.43v2.81Z"/><path class="cls-1" d="M53.13,30.69h9.72c2,0,2-3.31,0-3.31H58.53c.94-3.6,3-9.72,1.94-10.8h2.09c2.09-.36,1.8-3.24.22-3.31h-.36a5.12,5.12,0,0,0-1.08-.07H58.67c-1.8.07-3.46.07-3.46.07V12.11a1.63,1.63,0,0,0-2.09-1.58v6h4.32a64.66,64.66,0,0,1-2.23,10.87H53.13Zm-1.3-17.5H44.49c-2.09-.22-2.23,3.31-.22,3.31h1.94c-.43.14-.65.58-.58,1.3a16.82,16.82,0,0,0,.86,2.81A40.35,40.35,0,0,1,48,27.38H44.34a1.66,1.66,0,0,0,.07,3.31h8.71V27.38h-2A49,49,0,0,0,48.73,16.5h4.39v-6a1.62,1.62,0,0,0-1.3,1.58v1.08Z"/><path class="cls-2" d="M46.72,51.14h5.4v4.39l-.07,5v.36a2.06,2.06,0,0,0,4.1-.22V44.3c0-5.33-4.75-8.21-9.43-8.21v4c2.66.07,5.33,1.58,5.33,4.61v2.74H46.72Zm-5.26,0h5.26V47.46H41.39V44.73c0-3.1,2.66-4.61,5.33-4.61v-4C42.11,36,37.5,38.61,37.5,44.3V60.78a1.91,1.91,0,1,0,3.82-.07l.07-.29Z"/><path class="cls-2" d="M64,55.24V38.18a2,2,0,1,0-4,0V55.24c0,3.31,2.38,6.77,5.9,7.2a1.58,1.58,0,0,0,.58.07h9.22a1.79,1.79,0,1,0,0-3.53H67.81a3.54,3.54,0,0,1-2.74-1.15,3.93,3.93,0,0,1-.94-1.8A3.05,3.05,0,0,1,64,55.24Z"/><path class="cls-2" d="M81.06,47.32a9.26,9.26,0,0,1,5.83-6.48,3.49,3.49,0,0,0,.79-.29,14.67,14.67,0,0,1,4-.22h1.51l.79.07a1.91,1.91,0,0,0,.29-3.82,12.71,12.71,0,0,0-1.73-.07c-.58,0-1.15-.07-1.73-.07a13.89,13.89,0,0,1-1.73.07,12.23,12.23,0,0,0-12.31,12c-.22,5.69,1.73,9.43,4.82,11.59s7.05,2.81,10.73,2.81a10.25,10.25,0,0,0,2.09-.22,2,2,0,0,0-.14-3.89h-.43c-.22,0-.58.07-.87.07a16.49,16.49,0,0,1-4.61-.22c-.22-.07-.43-.14-.72-.22-3.38-.94-6.48-3.38-6.62-7.2H93a2,2,0,1,0,.07-3.89h-12Z"/><path class="cls-2" d="M101.87,47.25a9,9,0,0,1,5.83-6.41,5.37,5.37,0,0,1,.79-.29,12.23,12.23,0,0,1,4-.22h2.3a1.91,1.91,0,0,0,.29-3.82,12.79,12.79,0,0,0-1.73-.07h-3.46c-7.63.29-12.1,5.9-12.31,12-.21,5.76,1.73,9.43,4.82,11.59s7.06,2.88,10.8,2.81a9.62,9.62,0,0,0,2-.22,1.91,1.91,0,0,0-.07-3.82,1.22,1.22,0,0,0-.5-.07c-.21,0-.58.07-.86.07a16,16,0,0,1-4.54-.22c-.29-.07-.5-.07-.79-.14-3.38-1-6.48-3.46-6.62-7.27h12.1a2,2,0,1,0,0-3.89h-12Z"/><path class="cls-2" d="M140.25,36.52h-8.5a6.87,6.87,0,0,0-4.39,12.24,14.64,14.64,0,0,0,4.82,2.09,29.5,29.5,0,0,1,4.9,1.73,3.46,3.46,0,0,1,2.09,2.88,3.11,3.11,0,0,1-.58,1.73,2.25,2.25,0,0,1-.65.79c-.14.14-.29.22-.43.36-.65.43-3,.58-5.47.58-1.22,0-2.45-.07-3.53-.07-.5,0-1-.07-1.44-.07h-.58c-2.88,0-2.88,4.1.36,3.89h9.29a7.38,7.38,0,0,0,6.62-10.37,6.79,6.79,0,0,0-3.67-3.53,17,17,0,0,0-3.53-1.3,16.69,16.69,0,0,1-5.33-1.94c-2.52-1.94-1.08-5.18,1.94-5.18h8.35C143.27,40.19,142.91,36.52,140.25,36.52Z"/><path class="cls-2" d="M24.18,40.34V60.78c.07,2.23,3.82,2.66,4,0V40.34h6.26a2,2,0,1,0-.07-3.89H18.06A2,2,0,1,0,18,40.34h6.19Z"/></svg>