<svg id="圖層_1" data-name="圖層 1" xmlns="http://www.w3.org/2000/svg" viewBox="0 0 214.18 72"><defs><style>.cls-1{fill:#231815;}</style></defs><title>logo</title><path class="cls-1" d="M202.67,32.13V30.5a3.61,3.61,0,0,0-3.61-3.61H188.73a3.6,3.6,0,0,0-3.61,3.61V34a3.6,3.6,0,0,0,3.61,3.61h10.11v3.07H188.9V39.2h-3.78v1.63a3.6,3.6,0,0,0,3.61,3.61h10.33a3.61,3.61,0,0,0,3.61-3.61V37.37a3.61,3.61,0,0,0-3.61-3.61H188.9V30.69h9.94v1.44Z"/><path class="cls-1" d="M179,26.92H165.12V44.44h3.78V38.81a.12.12,0,0,0,.07,0q0-.15-.07-.15l5,0,4.85,5.77h3.9V43.14c-1.22-1.46-2.56-3-3.8-4.48H179a3.63,3.63,0,0,0,3.63-3.61V30.52A3.63,3.63,0,0,0,179,26.92Zm-.19,7.94H168.9V30.69h9.94Z"/><path class="cls-1" d="M133.72,34l-5.94-7.09h-3.9V44.44h3.78V32.69l6.07,7.19c1.95-2.29,4.07-4.87,6-7.21V44.44h3.8V26.89h-3.92Z"/><polygon class="cls-1" points="146.53 44.44 162.74 44.44 162.74 40.63 150.36 40.63 150.36 37.56 160.32 37.56 160.32 33.76 150.36 33.76 150.36 30.69 162.74 30.69 162.74 26.89 146.53 26.89 146.53 44.44"/><path class="cls-1" d="M117.47,26.89H107.16a3.6,3.6,0,0,0-3.61,3.61V44.44h3.78V38.78h9.94v5.65h3.83V30.5A3.62,3.62,0,0,0,117.47,26.89ZM117.27,35h-9.94V30.69h9.94Z"/><path class="cls-1" d="M97.2,26.89H86.89a3.6,3.6,0,0,0-3.61,3.61V40.83a3.6,3.6,0,0,0,3.61,3.61H97.2a3.62,3.62,0,0,0,3.63-3.61V34.2H93.2V38H97v2.63H87.06V30.69H97v1.46h3.83V30.5A3.62,3.62,0,0,0,97.2,26.89Z"/><path class="cls-1" d="M78.51,26.89H75.17L64.28,36.74v3.34h10.5v4.36h3.73V40.07h2.34V36.32H78.51Zm-3.73,9.43H70.35l4.43-3.61Z"/><path class="cls-1" d="M39.14,10.34S36.4,14.27,18.9,14.66V44.12C18.9,55.75,39.14,65,39.14,65s20.24-9.23,20.24-20.87V14.66C41.82,14.27,39.14,10.34,39.14,10.34ZM56.3,42.85c0,9.4-17.16,16.85-17.16,16.85S22,52.24,22,42.85V18c14.84-.32,17.16-3.49,17.16-3.49S41.41,17.69,56.3,18Z"/><path class="cls-1" d="M36.11,29c-2,3.11-1.53,8.42-.57,11a23,23,0,0,0,2.24,4.44,4.39,4.39,0,0,1-2.28-1.5,7.39,7.39,0,0,1-1.75-4.38A7.84,7.84,0,0,0,33.33,44a10.51,10.51,0,0,0,2.3,3.8c1.7,1.94,3.89,3.87,3.62,6.6l.13-.19a21.42,21.42,0,0,0,4-5.19,11,11,0,0,0,.72-7.13c-.61-2.49-2.21-4.66-2.76-7a13.86,13.86,0,0,1,.05-7.61c1-2.32,1.62-4.12,3.85-6.24A21.1,21.1,0,0,0,36.11,29Z"/></svg>