<svg id="圖層_1" data-name="圖層 1" xmlns="http://www.w3.org/2000/svg" viewBox="0 0 327 72"><defs><style>.cls-1{fill:#00a0e9;}.cls-2{fill:#231815;}</style></defs><title>logo</title><path class="cls-1" d="M215.89,21.25h24.72v2.26H229.55V25h13v6.89h-2.81v-4.7H229.55v5.84h-2.8V27.23h-10v4.7h-2.84V25h12.79V23.51H215.89Zm10.69,15a5.47,5.47,0,0,0-1,.13c-1.6.26-3.39.52-5.36.77v1.31h6.89v1.95H220.2V42h16V40.38h-6.76V38.43h6.76V36.68h-7V34.48H239v9.69h-6.89v2.31c0,.78.28,1.18.87,1.18h5.49a2.13,2.13,0,0,0,1.46-.45,5,5,0,0,0,.82-2.48l2.69.73Q243,48.29,242,49.12a3.91,3.91,0,0,1-2.74,1h-6.85q-2.94,0-2.94-2.2V44.17h-2.49a6.43,6.43,0,0,1-1.34,2.53,6.12,6.12,0,0,1-2.49,1.89c-1.15.66-3.63,1.19-7.46,1.62l-1.53-2.32a31.54,31.54,0,0,0,6.25-.94,6.33,6.33,0,0,0,3-1.65,3.52,3.52,0,0,0,.77-1.12H217.4V34.36l1.56.8c1-.1,2-.23,2.87-.36a35.53,35.53,0,0,0,3.73-.92l1.66,1.73a.73.73,0,0,1,.25.56.23.23,0,0,1-.25.26Zm-8.26-7.83h7v1.88h-7Zm0,3h7v1.91h-7Zm12.62-3h7.23v1.88h-7.23Zm0,3h7.23v1.91h-7.23Z"/><path class="cls-1" d="M250.44,29.79a24.16,24.16,0,0,1,4.59,3.7l-1.95,2a33.71,33.71,0,0,0-4.72-3.7Zm4.21,8.9,1.79,2.16A83.8,83.8,0,0,1,251.56,49c0,.7-.21,1.05-.61,1.05L248.49,48A55.89,55.89,0,0,0,254.65,38.69ZM251.84,21a25.56,25.56,0,0,1,4.69,3.35l-1.88,2A32.71,32.71,0,0,0,249.77,23Zm8.78,9.57h14.95v5.24H278v2.55h-2.43v5.16H268.9v2.91c0,1.7-.43,2.77-1.3,3.19-.66.36-2.48.54-5.45.54l-.9-2.69a32.37,32.37,0,0,0,4.08-.12c.46-.09.66-.4.66-.93V43.47h-5.37V40.86H266V38.31h-9.33V35.76H266V33.08h-5.37Zm15.29-7.77a11.2,11.2,0,0,0-1.4.09q-7.1.83-14.92,1.21l-1.88-2.56c3.49-.08,6.46-.23,8.93-.44,2.24-.16,5-.43,8.29-.83l2,1.91a.75.75,0,0,1,.16.51c0,.17-.11.25-.34.25Zm-16.19,1.92a20,20,0,0,1,3.21,3.73L260.39,30a19.08,19.08,0,0,0-2.68-3.69Zm6.88-.49A20.48,20.48,0,0,1,269.82,28l-2.42,1.65a19.9,19.9,0,0,0-2.71-4Zm2.29,8.89v2.69h3.74V33.08Zm0,5.24v2.54h3.74V38.31Zm6-14.67,2.13,1c.34.12.52.25.52.38s-.18.47-.52.66a17.23,17.23,0,0,1-2.8,3.83L271.84,28A18.83,18.83,0,0,0,274.93,23.64Z"/><path class="cls-1" d="M286.54,38.56l2.36,1.12c.38.13.57.26.57.4s-.17.48-.55.68a40.39,40.39,0,0,1-3.27,7.78l-2.71-1.69A40.33,40.33,0,0,0,286.54,38.56Zm-.42-17.19h24V36.43h-24Zm3,6.09h7.49V24.18H289.1Zm7.49,6.15V30.28H289.1v3.34Zm-5.83,4.21,3.39.38c.44,0,.67.21.67.48s-.23.6-.67.92a1.34,1.34,0,0,0-.46,1.15V44a4.58,4.58,0,0,0,.38,2.11,2.15,2.15,0,0,0,1.75.56h6.77a3.6,3.6,0,0,0,1.93-.39c.47-.26.86-1.06,1.15-2.39l2.81,1.27c-.51,1.83-1.08,3-1.8,3.51a3.33,3.33,0,0,1-2.16.7H294.7a3.79,3.79,0,0,1-3-1.24,5.24,5.24,0,0,1-.89-3.31Zm7.9-.42a31.7,31.7,0,0,1,4.68,5.11l-2.42,1.65A25.33,25.33,0,0,0,296.71,39Zm.86-13.22v3.28h7.68V24.18Zm7.68,9.43V30.28h-7.68v3.34Zm.87,5.49a35.07,35.07,0,0,1,4.75,6.09l-2.6,1.66A30.55,30.55,0,0,0,306,40.77Z"/><path class="cls-2" d="M30.6,50.22l-10-16.84a17.75,17.75,0,0,1-1.28-2.25,4.77,4.77,0,0,0-.32-1h-.17a6.14,6.14,0,0,0,.17,1.12V50.22H13.11v-30h6.26l9.3,15.39a19.26,19.26,0,0,1,1,1.93l.49,1h.15a2.32,2.32,0,0,1-.15-1V20.23H36v30Z"/><path class="cls-2" d="M152.61,50.22V33.7a2.81,2.81,0,0,0-.16-1.12,1.45,1.45,0,0,0-.49-1.12,2.58,2.58,0,0,0-1.12-.64,3.92,3.92,0,0,0-1.6-.32,5.62,5.62,0,0,0-1.76.15,3.07,3.07,0,0,0-1.13.32V50.22h-6.89V27.92a30.19,30.19,0,0,1,9.94-1.61,19.71,19.71,0,0,1,4.65.49,12.42,12.42,0,0,1,3.21,1.61,5,5,0,0,1,1.6,2.4,5.49,5.49,0,0,1,.64,2.88V50.22Z"/><path class="cls-2" d="M179.19,48.94a5.14,5.14,0,0,1-2.09,1.28,22.94,22.94,0,0,1-3.68.32,9.06,9.06,0,0,1-6.9-3,14.91,14.91,0,0,1-2.08-3.86,18.26,18.26,0,0,1-.65-5.3,16.49,16.49,0,0,1,.81-5.13,9,9,0,0,1,2.09-3.85,8.36,8.36,0,0,1,3-2.24,7.3,7.3,0,0,1,3.7-.81,10.94,10.94,0,0,1,3.52.49,9.86,9.86,0,0,1,2.25,1.12l-1.44,3.85a2.47,2.47,0,0,0-1.13-.63,2.63,2.63,0,0,0-1.61-.32,3.73,3.73,0,0,0-3.35,1.92,13,13,0,0,0-1,5.61,10.7,10.7,0,0,0,1.12,5.46,3.28,3.28,0,0,0,3,1.91,6.39,6.39,0,0,0,1.77-.15,4.8,4.8,0,0,0,1.13-.8l1.44,4.17Z"/><path class="cls-2" d="M58.46,29.53c-1.61-2.24-4.17-3.22-7.54-3.22a10.83,10.83,0,0,0-4.65.81,8,8,0,0,0-3.21,2.41A11,11,0,0,0,41,33.38a16.29,16.29,0,0,0-.64,5A17.41,17.41,0,0,0,41,43.48a11.71,11.71,0,0,0,2.24,3.85,7.87,7.87,0,0,0,3.53,2.41,11.83,11.83,0,0,0,4.82.8,20.44,20.44,0,0,0,5-.49,14.9,14.9,0,0,0,3.54-1.12l-1.6-4.17a20.48,20.48,0,0,1-2.41.8,13.13,13.13,0,0,1-3.69.32,6,6,0,0,1-4-1.13,7.13,7.13,0,0,1-1.61-4l14-1.92C60.87,34.82,60.22,31.77,58.46,29.53Zm-12.2,8c-.17-2.42.16-4.34,1-5.46a3.62,3.62,0,0,1,3.36-1.76,3.25,3.25,0,0,1,2.9,1.43,8.15,8.15,0,0,1,1,4.49Z"/><path class="cls-2" d="M85.05,33.54A11.41,11.41,0,0,0,83,29.69a8.55,8.55,0,0,0-3.21-2.56,12.8,12.8,0,0,0-9,0,8.51,8.51,0,0,0-3.21,2.56,8.84,8.84,0,0,0-1.93,3.86A15.83,15.83,0,0,0,65,38.35a16.85,16.85,0,0,0,.63,5,8.84,8.84,0,0,0,1.93,3.86,8.56,8.56,0,0,0,3.21,2.56,9.87,9.87,0,0,0,4.49.8,9.89,9.89,0,0,0,4.5-.8A8.6,8.6,0,0,0,83,47.18a11.41,11.41,0,0,0,2.09-3.86,25.61,25.61,0,0,0,.64-5A24.1,24.1,0,0,0,85.05,33.54Zm-6.26,7.7a12.17,12.17,0,0,1-.65,2.57,5.19,5.19,0,0,1-1,1.61,3.5,3.5,0,0,1-1.92.63,3,3,0,0,1-1.76-.63,6,6,0,0,1-1.13-1.61,6.88,6.88,0,0,1-.48-2.57,16.59,16.59,0,0,1-.16-2.89,18.46,18.46,0,0,1,.16-3,5.52,5.52,0,0,1,.48-2.42,4.72,4.72,0,0,1,1.13-1.76,2.15,2.15,0,0,1,1.76-.65,2.5,2.5,0,0,1,1.92.65,4.31,4.31,0,0,1,1,1.76,8.7,8.7,0,0,1,.65,2.42c0,1,.16,1.92.16,3S78.79,40.44,78.79,41.24Z"/><path class="cls-2" d="M107,26.8a22.72,22.72,0,0,0-5-.49,14,14,0,0,0-5.29.81A10.36,10.36,0,0,0,93,29.69a9.1,9.1,0,0,0-2.24,4A14,14,0,0,0,90,39a14.87,14.87,0,0,0,.64,4.81,9.74,9.74,0,0,0,2.08,3.52,8.38,8.38,0,0,0,3,2.24,9.74,9.74,0,0,0,3.85.8c1,0,1.77-.16,2.57-.16a4.83,4.83,0,0,0,1.6-.65v1.29a4.56,4.56,0,0,1-1.12,3.21,5,5,0,0,1-3.85,1.27,11,11,0,0,1-3.21-.48,7.26,7.26,0,0,1-2.57-1L91.26,58.4a16.76,16.76,0,0,0,3.69,1.13,26.17,26.17,0,0,0,5.13.47,18,18,0,0,0,4.17-.47,12.7,12.7,0,0,0,3.21-1.77,7.88,7.88,0,0,0,2.09-3.05,12.2,12.2,0,0,0,.81-4.33V27.92A12.27,12.27,0,0,0,107,26.8Zm-3.22,19.1a3.67,3.67,0,0,1-2.24.64,3.77,3.77,0,0,1-3.69-1.93c-.8-1.29-1.13-3.37-1.13-5.93,0-2.88.32-5,1.13-6.42a3.94,3.94,0,0,1,3.69-2.09,4.8,4.8,0,0,1,2.24.48Z"/><path class="cls-2" d="M132.92,29.53c-1.77-2.24-4.17-3.22-7.7-3.22a10.12,10.12,0,0,0-4.49.81,9.89,9.89,0,0,0-3.37,2.41,10.73,10.73,0,0,0-1.92,3.85,16.19,16.19,0,0,0-.81,5,17.29,17.29,0,0,0,.81,5.13,11.2,11.2,0,0,0,2.25,3.85,7.65,7.65,0,0,0,3.52,2.41,11.79,11.79,0,0,0,4.81.8,21.46,21.46,0,0,0,5-.49,16,16,0,0,0,3.37-1.12l-1.44-4.17a16.58,16.58,0,0,1-2.57.8,12,12,0,0,1-3.53.32,6,6,0,0,1-4-1.13,7.21,7.21,0,0,1-1.76-4l14.12-1.92C135.33,34.82,134.52,31.77,132.92,29.53Zm-12.19,8c-.16-2.42.16-4.34,1-5.46a3.63,3.63,0,0,1,3.37-1.76,3.14,3.14,0,0,1,2.72,1.43c.81,1,1.13,2.41,1.13,4.49Z"/><path class="cls-2" d="M201.76,29.53c-1.77-2.24-4.34-3.22-7.71-3.22a9.64,9.64,0,0,0-4.48.81,10,10,0,0,0-3.38,2.41,11.24,11.24,0,0,0-2.08,3.85,16.51,16.51,0,0,0-.63,5,13.41,13.41,0,0,0,.8,5.13,11.29,11.29,0,0,0,2.09,3.85,8.7,8.7,0,0,0,3.53,2.41,12.09,12.09,0,0,0,5,.8,22.5,22.5,0,0,0,5-.49,16.23,16.23,0,0,0,3.37-1.12l-1.61-4.17a19.21,19.21,0,0,1-2.4.8,12.67,12.67,0,0,1-3.7.32,5.5,5.5,0,0,1-3.84-1.13,7.18,7.18,0,0,1-1.77-4L204,38.84C204.16,34.82,203.36,31.77,201.76,29.53Zm-12.36,8c0-2.42.31-4.34,1.12-5.46a3.54,3.54,0,0,1,3.21-1.76,3.25,3.25,0,0,1,2.89,1.43,8.19,8.19,0,0,1,1,4.49Z"/></svg>