<svg id="圖層_1" data-name="圖層 1" xmlns="http://www.w3.org/2000/svg" viewBox="0 0 313 72"><defs><style>.cls-1{fill:#231815;}.cls-2{fill:#009ce2;}.cls-3{fill:#00a7ea;}.cls-4{fill:#00afec;}.cls-5{fill:#00b9ef;}.cls-6{fill:#f39800;}.cls-7{fill:#f08300;}.cls-8{fill:#ed6c00;}.cls-9{fill:#ea5504;}.cls-10{fill:#00a73c;}.cls-11{fill:#45b035;}.cls-12{fill:#6fba2c;}.cls-13{fill:#8fc31f;}</style></defs><title>logo</title><path class="cls-1" d="M197.53,38.77V42h28.9a1,1,0,0,0,1.06-1.05V38.77Z"/><path class="cls-1" d="M277,37.48a1.71,1.71,0,0,0,.32-.41c.24-.33.91-1.3.91-1.3a29.78,29.78,0,0,0-5.38-3.23L271.43,35a27.42,27.42,0,0,1,4,2.31c.18.11.39.23.49.27a1.08,1.08,0,0,0,.55.08A.85.85,0,0,0,277,37.48Z"/><path class="cls-1" d="M277.93,30.62a3.57,3.57,0,0,0,.32-.41c.2-.28.79-1.13.79-1.13a30.2,30.2,0,0,0-5.46-3.39l-1.5,2.45a29.26,29.26,0,0,1,3.86,2.26c.17.12.36.25.55.36a1.34,1.34,0,0,0,.83.2A.9.9,0,0,0,277.93,30.62Z"/><path d="M286.48,53h0a11,11,0,0,1-4-.56,6.56,6.56,0,0,1-2.7-1.79,8.12,8.12,0,0,1-1.14-2.11V41.82a1.7,1.7,0,0,0-1.69-1.68h-4.79V43h3.59v4.6c0,.45,0,.93-.06,1.65a3.48,3.48,0,0,1-.81,2,10.16,10.16,0,0,1-3.7,2.25S272,55,272.3,55.38a.79.79,0,0,0,.64.38,1.4,1.4,0,0,0,.76-.25,13.09,13.09,0,0,0,1.91-1.36,7.64,7.64,0,0,0,1.93-2.41c1.45,2.39,4.24,3.71,8.31,3.94l8.55,0h5.31c.57,0,1-.29,1.15-1s.25-1.57.25-1.57Z"/><path d="M300,46.44V34.66a1.5,1.5,0,0,0-1.51-1.51h-7.17V33a23.08,23.08,0,0,0,5.41-2.45,17.3,17.3,0,0,0,2-1.42,1.74,1.74,0,0,0,.47-.73,1.64,1.64,0,0,0-.09-1.16,1.58,1.58,0,0,0-.75-.63,2.62,2.62,0,0,0-1-.17H281.88v2.29H295v.09a18.09,18.09,0,0,1-5.77,2.38A29.46,29.46,0,0,0,285,29.38l-.6,1.19c-.16.32-.24.53-.16.74s.46.35.62.41.84.31,1.24.49,1.71.69,2.13.95h-5.59a1.49,1.49,0,0,0-1.5,1.51V49.49a1,1,0,0,0,1,1h1.54V45.76H289v4.29a1,1,0,0,0,1,1.05h1.55V45.76H295a1.07,1.07,0,0,0,1.05-1.05V43.47h-4.51v-2.9H295a1,1,0,0,0,1.05-1.05V38.3h-4.51V35.43h5.65V47.75a1.12,1.12,0,0,1-.7,1.2,4.9,4.9,0,0,1-2.85-.3s.08,1.14.11,1.51c0,.17,0,.46.07.65a.59.59,0,0,0,.19.37.9.9,0,0,0,.42.22l.69.1a5.82,5.82,0,0,0,3.53-.54A2.93,2.93,0,0,0,300,48.64C300,47.84,300,47.15,300,46.44Zm-11-3h-5.31v-2.9H289Zm0-5.17h-5.31V35.43H289Z"/><path class="cls-1" d="M249.92,37.91v-6h12.49a1,1,0,0,0,1-1V29.45H249.92v-3h-3.19V37.91H234.95v2.45h11.79V54.61a1,1,0,0,0,1.05,1.05h2.13V40.35h14a1.05,1.05,0,0,0,1-1.05V37.91Z"/><path class="cls-1" d="M255.42,43.05h-3.84c1.32,1.71,3.89,4.7,4.68,5.58a35.38,35.38,0,0,0,2.63,2.71,2.86,2.86,0,0,0,1.26.7,2.05,2.05,0,0,0,1.26-.12c.3-.14.54-.25.75-.37l1-.58A68.46,68.46,0,0,1,255.42,43.05Z"/><path class="cls-1" d="M169.42,55a3.3,3.3,0,0,0,.62.21,35.09,35.09,0,0,0,6.84.58c4.21,0,6.92-1.07,8.6-2.63a8,8,0,0,0,1.15-9.75A12,12,0,0,0,182,39.61l-5.1-2.7A12,12,0,0,1,174.08,35a2.62,2.62,0,0,1-.79-1.93h0v0a2.73,2.73,0,0,1,1.17-2.34,6.51,6.51,0,0,1,3.58-.79c2.41,0,4.86.11,7.32.3a3.56,3.56,0,0,0,.61,0,1,1,0,0,0,.65-.22.89.89,0,0,0,.31-.64c0-.24,0-.42,0-.42V26.48c-.4-.07-1.56-.27-2.19-.34a55,55,0,0,0-6.46-.45c-3.91,0-6.51.79-8.1,2.11A6.4,6.4,0,0,0,168,33.06c0,2.77,1,4.95,4.87,7.15l5.61,3.18a13.33,13.33,0,0,1,2.93,2,3,3,0,0,1,.83,2.15v0A3.53,3.53,0,0,1,181,50.53a6.47,6.47,0,0,1-4.07,1,59.17,59.17,0,0,1-8.13-.59v2.66a2.94,2.94,0,0,0,.13.88A1.43,1.43,0,0,0,169.42,55Z"/><path class="cls-1" d="M147.09,55a3.23,3.23,0,0,0,.61.21,35.12,35.12,0,0,0,6.86.58c4.2,0,6.91-1.07,8.59-2.63a7.29,7.29,0,0,0,2.3-5.53,7.24,7.24,0,0,0-1.15-4.23,12,12,0,0,0-4.61-3.77l-5.09-2.7A12,12,0,0,1,151.73,35a2.63,2.63,0,0,1-.79-1.92v0a2.67,2.67,0,0,1,1.18-2.34,6.4,6.4,0,0,1,3.58-.79c2.39,0,4.86.11,7.31.3a3.62,3.62,0,0,0,.61,0,1,1,0,0,0,.63-.22.83.83,0,0,0,.32-.64c0-.24,0-.42,0-.42V26.48c-.4-.07-1.53-.27-2.17-.34a55.23,55.23,0,0,0-6.46-.45c-3.92,0-6.5.79-8.11,2.11a6.4,6.4,0,0,0-2.24,5.27c0,2.77,1,4.95,4.87,7.15l5.62,3.18a12.93,12.93,0,0,1,2.92,2,3.05,3.05,0,0,1,.82,2.15v0a3.51,3.51,0,0,1-1.15,2.91,6.42,6.42,0,0,1-4.06,1,59.08,59.08,0,0,1-8.13-.59v2.66a3.13,3.13,0,0,0,.14.88A1.39,1.39,0,0,0,147.09,55Z"/><path class="cls-1" d="M137.92,54.16a4.34,4.34,0,0,0,.18.53,2.19,2.19,0,0,0,.33.47.73.73,0,0,0,.46.21,2.28,2.28,0,0,0,.69.08h4.17l-7.09-25.85a4.87,4.87,0,0,0-2.52-3.29,8.3,8.3,0,0,0-6.27,0,4.89,4.89,0,0,0-2.51,3.29l-7.12,25.85h4.18a2.5,2.5,0,0,0,.72-.08.69.69,0,0,0,.44-.21,2.31,2.31,0,0,0,.34-.47c.05-.14.13-.35.18-.53s.14-.54.31-1.27l1.48-5.81h6a1.19,1.19,0,0,0,1.19-1.18V43h-6.19l3.15-12.35a1.31,1.31,0,0,1,.31-.63.88.88,0,0,1,.63-.21h0a.91.91,0,0,1,.64.21,1.45,1.45,0,0,1,.29.63v0h0C132.09,31.29,137.88,54,137.92,54.16Z"/><path class="cls-1" d="M86.36,55.45h4.14V35.2H85.17v19A1.2,1.2,0,0,0,86.36,55.45Z"/><path class="cls-1" d="M86.36,31.51h4.14V26H85.17v4.31A1.19,1.19,0,0,0,86.36,31.51Z"/><path class="cls-1" d="M115.15,27.62c-2-1.3-4.81-1.94-8.4-1.94h0a50.79,50.79,0,0,0-9.38.78h0v29h4.16a1.2,1.2,0,0,0,1.2-1.2V29.95c1.67-.15,3.11-.18,4.06-.18a8.48,8.48,0,0,1,4.93,1.12,4.33,4.33,0,0,1,1.73,3.83v.39a4.57,4.57,0,0,1-1.56,3.84,8.28,8.28,0,0,1-5.09,1.27l-1.58,0s.41,2,.55,2.55a2.24,2.24,0,0,0,.5,1.1,1.88,1.88,0,0,0,1.09.39h1a14,14,0,0,0,6.87-1.95c2.38-1.56,3.52-3.92,3.53-7.17v-.36C118.67,31.48,117.53,29.15,115.15,27.62Z"/><path class="cls-2" d="M30.33,32.22a13.37,13.37,0,0,1,1,2.25A7.11,7.11,0,0,1,34,37.37a19,19,0,0,1,2,7.1c.36-5.54-.15-11.37-2.15-14.88-1.67-2.94-3.82-4.07-7.05-3.12A21.27,21.27,0,0,0,19.26,31a17.35,17.35,0,0,1,4-1.85C26.51,28.15,28.66,29.28,30.33,32.22Z"/><path class="cls-3" d="M11,42.14a22.68,22.68,0,0,1,8.62-5.41,6.58,6.58,0,0,1,2.84-.27A17.62,17.62,0,0,1,27,34.25a5.59,5.59,0,0,1,4.33.22,13.37,13.37,0,0,0-1-2.25c-1.68-2.93-3.82-4.07-7-3.12a17.35,17.35,0,0,0-4,1.85C15.47,34.23,12.26,38.57,11,42.14Z"/><path class="cls-3" d="M31.33,34.47c2.26,6.7,1.2,17.8-.82,23.44a4.48,4.48,0,0,1-.33.75,5.19,5.19,0,0,0,3.91-3.38,42.28,42.28,0,0,0,2-10.81,19,19,0,0,0-2-7.1A7.11,7.11,0,0,0,31.33,34.47Z"/><path class="cls-4" d="M31.33,34.47A5.59,5.59,0,0,0,27,34.25a17.62,17.62,0,0,0-4.58,2.2c1.74.26,3.08,1.41,4.21,3.39,2.51,4.38,2.67,12.41,1.74,18.94a6.07,6.07,0,0,0,1.81-.13,4.48,4.48,0,0,0,.33-.75C32.52,52.28,33.59,41.17,31.33,34.47Z"/><path class="cls-4" d="M22.41,36.46a6.58,6.58,0,0,0-2.84.27A22.68,22.68,0,0,0,11,42.14a8.5,8.5,0,0,0-.62,3.46,4.05,4.05,0,0,0,1.42,2.78A32.51,32.51,0,0,1,22.41,36.46Z"/><path class="cls-5" d="M14.73,49.35c2-.12,4.08-2.79,6.44-2.25,1.39.32,2,3,2.14,6.72a5.18,5.18,0,0,0,5.06,5c.94-6.53.77-14.55-1.74-18.94-1.13-2-2.48-3.14-4.21-3.39A32.51,32.51,0,0,0,11.75,48.38,4.15,4.15,0,0,0,14.73,49.35Z"/><path class="cls-6" d="M43.75,51.4c-2.47-3.12-2.52-6.62,0-9.52a30.52,30.52,0,0,1,3-2.9,7.31,7.31,0,0,1,1.78-3.48,43.5,43.5,0,0,1,11-8.49c-7.77,3-15.07,7.84-18.88,12.19-2.54,2.91-2.49,6.4,0,9.52a29.89,29.89,0,0,0,4.88,4.63A21.67,21.67,0,0,1,43.75,51.4Z"/><path class="cls-7" d="M73.61,60.46C65,57.85,52.92,50.59,48.49,45a7.41,7.41,0,0,1-1.76-6,30.52,30.52,0,0,0-3,2.9c-2.54,2.91-2.49,6.4,0,9.52a21.67,21.67,0,0,0,1.79,2A69.6,69.6,0,0,0,65.78,64.17,6.58,6.58,0,0,0,73.61,60.46Z"/><path class="cls-7" d="M48.51,35.5A7.31,7.31,0,0,0,46.73,39,57.31,57.31,0,0,1,64,29.21a58.12,58.12,0,0,1,7.43-4.58,5.06,5.06,0,0,0-2.3-.2A45.27,45.27,0,0,0,59.56,27,43.5,43.5,0,0,0,48.51,35.5Z"/><path class="cls-8" d="M58.39,43.67c-2.47-3.12-2.52-6.62,0-9.52A35,35,0,0,1,64,29.21,57.31,57.31,0,0,0,46.73,39a7.41,7.41,0,0,0,1.76,6C52.92,50.59,65,57.85,73.61,60.46a6.08,6.08,0,0,0-.9-6C66.76,51.2,61.12,47.11,58.39,43.67Z"/><path class="cls-8" d="M74.66,27.36a6,6,0,0,0-3.27-2.74A58.12,58.12,0,0,0,64,29.21a43.45,43.45,0,0,1,8.22-2.1A5.15,5.15,0,0,1,74.66,27.36Z"/><path class="cls-9" d="M63.44,42.73c0-3.4,6.51-6.46,9-7.8a5.24,5.24,0,0,0,2.2-7.56,5.15,5.15,0,0,0-2.48-.26A43.45,43.45,0,0,0,64,29.21a35,35,0,0,0-5.55,4.95c-2.55,2.91-2.5,6.41,0,9.52,2.73,3.44,8.37,7.52,14.32,10.76l-.27-.38C70.68,51.82,63.44,45.79,63.44,42.73Z"/><path class="cls-10" d="M51.73,27.25A15.36,15.36,0,0,0,56,23.13c-4.61,2.87-9.86,3.65-13.2,1.66a3.17,3.17,0,0,1-.33-.23,9.82,9.82,0,0,1-6.67-.9,4.2,4.2,0,0,1-.69-.52c.08.55.19,1.08.31,1.57.49,2,1.31,3.56,2.75,4.41C41.62,31.15,47,30.29,51.73,27.25Z"/><path class="cls-11" d="M50.82,20.71a17.23,17.23,0,0,1-1.46,1.07,18.36,18.36,0,0,1-6.86,2.77,3.17,3.17,0,0,0,.33.23c3.34,2,8.59,1.21,13.2-1.66a9.74,9.74,0,0,0,1.75-4.56A17,17,0,0,1,50.82,20.71Z"/><path class="cls-11" d="M42.5,24.56a7,7,0,0,1-2.41-4.17c-.79-3.21-.94-8.08.75-11.67a7.63,7.63,0,0,0-3.28,2.2c-2.68,3.08-3,8.34-2.42,12.23a4.2,4.2,0,0,0,.69.52A9.82,9.82,0,0,0,42.5,24.56Z"/><path class="cls-12" d="M50.82,20.71a9.07,9.07,0,0,1-5.2-1.08,6.63,6.63,0,0,1-2.75-4.4,21.24,21.24,0,0,1-.47-6.88,8,8,0,0,0-1.56.37c-1.68,3.59-1.54,8.46-.75,11.67a7,7,0,0,0,2.41,4.17,18.36,18.36,0,0,0,6.86-2.77A17.23,17.23,0,0,0,50.82,20.71Z"/><path class="cls-12" d="M50.82,20.71a17,17,0,0,0,7-2.14c0-.22,0-.44,0-.66a3.69,3.69,0,0,0-2.63-3.52A12.5,12.5,0,0,1,50.82,20.71Z"/><path class="cls-13" d="M49.27,11.76C48.19,9.2,45.28,8,42.4,8.34a21.24,21.24,0,0,0,.47,6.88,6.63,6.63,0,0,0,2.75,4.4,9.07,9.07,0,0,0,5.2,1.08,12.5,12.5,0,0,0,4.36-6.33,3.7,3.7,0,0,0-1.07-.17C52.1,14.16,50.06,13.63,49.27,11.76Z"/></svg>