<svg id="圖層_1" data-name="圖層 1" xmlns="http://www.w3.org/2000/svg" viewBox="0 0 255.33 72"><defs><style>.cls-1{fill:#231815;}</style></defs><title>logo</title><polygon class="cls-1" points="161.97 36.21 161.94 34.27 155.36 34.27 155.41 36.21 161.97 36.21"/><polygon class="cls-1" points="162.07 39.01 162.01 37.06 155.43 37.06 155.49 39.01 162.07 39.01"/><path class="cls-1" d="M140.47,35.81,141.9,38l.13-.14c.24-.24.45-.52.67-.79l.65-.95.19,6.37H151l0,1.22h-9.88l.06,2h7.41a20.18,20.18,0,0,1-7.69,3l1.2,2a30.17,30.17,0,0,0,5.24-2.11,15.07,15.07,0,0,0,3.74-2.93l.19,5.84h2.27l-.17-5.84q3,3.37,9.11,5l1-2.21a21.54,21.54,0,0,1-7.69-2.83h7.28l-.06-2h-9.7l0-1.22h9.09l0-1.89H145.73l-.23-7.37h16.2l-.05-1.83h-7.9l-.55-1.18L152.48,29l-2.21.42c.14.22.35.59.63,1.13l.41.84h-4.88a1.91,1.91,0,0,0,.1-.17,9.37,9.37,0,0,0,.82-1.84L145,29A20.16,20.16,0,0,1,140.47,35.81Z"/><path class="cls-1" d="M206,36.08v2.19h8.83l.08,9.2a1.81,1.81,0,0,1-.14,1c-.11.12-.41.19-1,.19h-.4L210,48.46l.57,2.4,3.52,0a4.2,4.2,0,0,0,2.68-.56,2.8,2.8,0,0,0,.54-2v-.31l-.09-9.67h3.69l0-2.19Z"/><path class="cls-1" d="M205.25,29.71l-2-1.27a20.2,20.2,0,0,1-5.24,4.7l1.5,2.09a31.52,31.52,0,0,0,4.83-4.55C204.6,30.45,204.88,30.11,205.25,29.71Z"/><path class="cls-1" d="M198,40.9l1.26,2.29L200.43,42a10,10,0,0,0,1-1.15L201.48,51h2.3l-.12-12.46,1-1.72.87-1.36-1.84-1.29A34.15,34.15,0,0,1,198,40.9Z"/><polygon class="cls-1" points="207.16 29.68 207.19 31.86 219.55 31.86 219.52 29.68 207.16 29.68"/><polygon class="cls-1" points="226.92 40.15 234.09 40.15 234.14 38.32 230.77 38.32 232.75 36.38 234.05 35.12 230.96 32 234.27 32 234.31 30.14 227.14 30.14 227.09 32 228.44 32 231.5 35.12 228.22 38.32 226.97 38.32 226.92 40.15"/><polygon class="cls-1" points="242.65 30.14 242.62 32 245.97 32 244 33.93 242.71 35.19 245.77 38.32 242.47 38.32 242.44 40.15 249.61 40.15 249.65 38.32 248.31 38.32 245.23 35.19 248.52 32 249.79 32 249.82 30.14 242.65 30.14"/><path class="cls-1" d="M241.43,44.84h7.74l0-1.94h-10l0-1.75h2.37L241.81,31h-2.56l.08-.14c.12-.25.22-.5.34-.74l.41-1.08L238,28.8,237.57,30c-.06.15-.17.39-.34.74,0,.07-.07.16-.14.27h-1.9L235,41.14h2.1L237,42.9H226.87l0,1.94h7.79a20.67,20.67,0,0,1-8,3.48l1,2A24.33,24.33,0,0,0,233.39,48a17.62,17.62,0,0,0,3.61-3l-.14,6.34H239l.13-6.37a17.59,17.59,0,0,0,3.64,3.14,21.29,21.29,0,0,0,5.47,2.27l1-2.16A18.48,18.48,0,0,1,241.43,44.84ZM237,32.72h2.87l-.06,2.6H237Zm-.14,6.67.06-2.23h2.85l0,2.23Z"/><polygon class="cls-1" points="184.22 40.18 184.17 38.24 177.55 38.24 177.58 40.18 184.22 40.18"/><path class="cls-1" d="M191.39,48.88a23.68,23.68,0,0,1-4.7-1.14,23.27,23.27,0,0,0,4.79-3.31l-1.79-1.36a17.92,17.92,0,0,1-5.35,3.55,9.09,9.09,0,0,1-2.65-2.74h7.09l-.18-8.57,2.22.93,1.12-2.12a44.75,44.75,0,0,1-5.88-2.39,26,26,0,0,1-4.43-3.14h-2.26a24.36,24.36,0,0,1-10.2,5.83l1,2.26,2.5-1.12L173,48.38a8.18,8.18,0,0,1-1.61.19h-1.51l.39,2.44,1.91-.25a55.71,55.71,0,0,0,8.37-1.51l0-2.26c-1,.28-1.89.49-2.58.62l-2.62.48-.08-4.22h4a11.63,11.63,0,0,0,3.12,3.91,14.3,14.3,0,0,0,4.84,2.4,17,17,0,0,0,4.37.93l.69-2.12Zm-10.73-18.3a30.18,30.18,0,0,0,6.45,4h-4.92l-.45-1.08a6.32,6.32,0,0,0-.59-1.15l-2.21.27.23.36c.16.29.28.54.39.76l.32.83h-5.4A35.54,35.54,0,0,0,180.65,30.58Zm-5.46,11.34-.11-5.3h11.19l.12,5.3Z"/><path class="cls-1" d="M33.7,42.37C33,44.23,32.07,46.78,31,50c-1-2.88-1.85-5.42-2.66-7.58L19.43,18.9H11.66V61.14h6V40.69c0-3.39-.06-7.08-.21-11,.83,2.36,1.66,4.62,2.47,6.73l9.54,24.74h3.08L42.1,36.4c.79-2,1.62-4.27,2.47-6.73-.14,4-.21,7.65-.21,11V61.14h6V18.9H42.62Z"/><path class="cls-1" d="M74.85,18.9H69.92L54.21,61.14h6.49l4.43-12.22H79.6L84,61.14h6.54L75,19.42ZM77.4,42.81H67.33l1-2.69c1.3-3.56,2.67-7.51,4.09-11.78,1.35,4.19,2.7,8.15,4,11.79Z"/><rect class="cls-1" x="115.64" y="18.9" width="6.03" height="42.24"/><path class="cls-1" d="M101.84,18.9V50.15a4.49,4.49,0,0,1-4.28,4.68H94.38v6.31h2.91a13,13,0,0,0,4.29-.67,8.88,8.88,0,0,0,5.54-5.52,13.74,13.74,0,0,0,.75-4.7V18.9Z"/><path class="cls-1" d="M134.36,23c-.6,0-1.26,0-1.95,0,.58-.42,1.13-.83,1.65-1.24a19.54,19.54,0,0,0,2.23-2,9.3,9.3,0,0,0,1.52-2.15,5.47,5.47,0,0,0,.58-2.48,5.26,5.26,0,0,0-.45-2.21,4.47,4.47,0,0,0-1.27-1.62,5.54,5.54,0,0,0-1.9-1,8.15,8.15,0,0,0-2.38-.34,10.75,10.75,0,0,0-5.26,1.34l-.21.12v2.94l.6-.28a19,19,0,0,1,2.3-.88,8,8,0,0,1,2.25-.34,3.47,3.47,0,0,1,2.24.62,2.12,2.12,0,0,1,.72,1.76,3.31,3.31,0,0,1-.56,1.78,10.12,10.12,0,0,1-1.66,2,27.88,27.88,0,0,1-2.57,2.17l-3.3,2.48-.17.12v2.23h12.88V23Z"/></svg>