<svg id="圖層_1" data-name="圖層 1" xmlns="http://www.w3.org/2000/svg" viewBox="0 0 118.5 72"><defs><style>.cls-1{fill:#3e3a39;}.cls-2{fill:#e6002d;}</style></defs><title>logo</title><path class="cls-1" d="M17.51,60a11.66,11.66,0,0,1-5.75,3.23c-.13-.28-.36-.54-.51-.82a9.89,9.89,0,0,0,4.29-1.85l.63-.51H11.8v-.89h5.71c0-.3,0-.57,0-.92h.94v.92h5.63V60H19.74a8.76,8.76,0,0,0,1.42,1,14,14,0,0,0,3.55,1.37c-.15.27-.34.54-.48.82A11.66,11.66,0,0,1,23,62.89,11.38,11.38,0,0,1,18.46,60v4.05h-.94Zm-6-5.63A8.92,8.92,0,0,0,14,50.85a6.32,6.32,0,0,1,.77.4,10.46,10.46,0,0,1-1.86,2.92c.43,0,.88-.09,1.33-.13.18-.3.33-.58.48-.89h.09c.24.12.46.25.72.37A11.5,11.5,0,0,1,13,57.12a16.7,16.7,0,0,0,1.71-.19,3.31,3.31,0,0,0-.36-.63l.74-.21a3.6,3.6,0,0,1,.54.89A5.25,5.25,0,0,1,16,58.24a7.1,7.1,0,0,1-.85.19c0-.22-.07-.48-.13-.7-1,.15-1.94.24-2.88.43a6.41,6.41,0,0,0-.51-.79,11.07,11.07,0,0,0,2-2.41c-.55,0-1.1.13-1.64.22Zm4.57-2.43h1.37a5.8,5.8,0,0,0,.78-1.55l.82.28c-.16.3-.48,1-.67,1.27H20v5.86H16.06Zm.85.88v1.52h2.19v-1.5Zm2.19,4.11,0-1.71H16.94v1.74Zm1.25.48a10.07,10.07,0,0,0,1.83-2.25,13.6,13.6,0,0,0-1.53.22c-.1-.31-.28-.58-.39-.89a10.56,10.56,0,0,0,2.06-3.28c0-.12.07-.21.09-.31a5.54,5.54,0,0,1,.77.43,9.38,9.38,0,0,1-1.79,3c.43,0,.91-.06,1.36-.13a13.42,13.42,0,0,0,.67-1.3,5,5,0,0,1,.8.39,12.66,12.66,0,0,1-2.5,3.8,11,11,0,0,0,1.4-.16,2.43,2.43,0,0,0-.33-.65,3.07,3.07,0,0,1,.75-.24,5.85,5.85,0,0,1,.86,2.25c-.27.07-.54.13-.8.22a4.42,4.42,0,0,0-.13-.75h-.19c-.8.15-1.65.21-2.43.39Z"/><path class="cls-1" d="M46.07,56.7H41.36a3.19,3.19,0,0,1-1.15,2.19c-.24-.15-.43-.33-.64-.48a3.43,3.43,0,0,0,.92-1.53,13.62,13.62,0,0,0,.13-2.61h5.44Zm3,7.4,0-1.43-6.57.21L40.14,63l-.33-.82c1,0,1.89,0,2.84-.06V58.51H41.42l0-.8H51.88v.8H50v3.35l2.76-.07v.78L50,62.65v1.46Zm-9-12v-.79h2.82v-.75h.89l0,.75h2.84v.79H43.74v.66H46l0,.79H40.64v-.79h2.22V52.1Zm2.92,3H41.45v.84H43Zm.65,3.43v.67H49v-.65ZM49,60.62v-.68H43.61v.68Zm0,1.28,0-.54H43.63v.7Zm-3.78-6.82H43.76v.85h1.5Zm.89-1.4a1.6,1.6,0,0,0,1.3-1,1.49,1.49,0,0,0,.09-.54v-.85h3.55v1.5c.22.54.88.21,1.42.25v.72c-.8,0-1.7.24-2.1-.52A2.8,2.8,0,0,1,50.3,52h-2a1.94,1.94,0,0,1-1,2l4,0A3.22,3.22,0,0,1,50,56.09a7.51,7.51,0,0,0,2.79.67l-.39.73a10.31,10.31,0,0,1-3.14-.91,8.21,8.21,0,0,1-2.55.8l-.36-.73a7,7,0,0,0,2.23-.57,6.23,6.23,0,0,1-1.13-1.28h-.31V54.1a2.84,2.84,0,0,1-.52.24Zm2.16,1.15a4.21,4.21,0,0,0,1,.85,3.25,3.25,0,0,0,.94-.86Z"/><path class="cls-1" d="M71.28,61.72a6.8,6.8,0,0,1-3,1.64l-.58-.74a6.56,6.56,0,0,0,3.08-1.56Zm-3.16-4.51v-.86l3.84,0c-.09-.36-.34-.54-.57-.85H69V51.34h6.57v4.17h-3a4.94,4.94,0,0,1,.4.85l3.59,0v.85Zm2.25,6a7,7,0,0,0,1.12,0c.31,0,.46-.21.46-.57V60.65H69.27V58h6.18v2.62H72.89v2.28c0,.58-.28,1.21-1,1.21h-1ZM69.92,53h4.71v-.82H69.92Zm0,.77v.89h4.71v-.88Zm4.6,6v-.88H70.21v.89Zm1.19,3.05a6.88,6.88,0,0,0-2.31-1.16L74,61a6,6,0,0,1,2.26,1.21Zm5.63-3.55A14.36,14.36,0,0,1,76.58,64l-.39.22-.76-.78a12.48,12.48,0,0,0,5.29-4.69Zm-.57-8a11.67,11.67,0,0,1-2.76,3c-.37.22-.72.48-1.12.69l-.74-.7a9.08,9.08,0,0,0,2.91-2.19c.45-.46.78-1,1.12-1.42Zm-4.57,7.3a8.57,8.57,0,0,0,2.06-1.37,12,12,0,0,0,2.06-2.37l.61.63A12.62,12.62,0,0,1,77,59.24Z"/><path class="cls-1" d="M95.92,60.38c.69-.24,1.34-.51,2-.79V55.51H96.32v-.88h1.62V51.38h.91l0,3.25h1.33l0,.88H98.86v3.64l1.58-.63v1L96.7,61.11ZM109,53.5v.88H106c0,.92.13,1.85.22,2.73a19.56,19.56,0,0,0,.34,2.34,11.3,11.3,0,0,0,1.36-4l.78.33a13.55,13.55,0,0,1-1.18,3.84c-.13.3-.46.74-.65,1.12A5.11,5.11,0,0,0,108,62.89a.23.23,0,0,0,.28-.13,10.89,10.89,0,0,0,.33-2l.89.34a9.31,9.31,0,0,1-.63,2.38.73.73,0,0,1-.7.43,1.58,1.58,0,0,1-1.16-.76,5.63,5.63,0,0,1-.83-1.59,14.37,14.37,0,0,1-2.52,2.16l-.74-.63a11.54,11.54,0,0,0,3-2.62,36.5,36.5,0,0,1-.82-6.14h-3.2v2h2.82a29.48,29.48,0,0,1-.37,4.2,1.13,1.13,0,0,1-.67.89,2.84,2.84,0,0,1-1.46-.21l-.18-1a3.06,3.06,0,0,0,1.22.37c.28-.13.25-.48.31-.73a26.33,26.33,0,0,0,.22-2.64h-1.89a11.29,11.29,0,0,1-1.21,5.65c-.27.43-.54.81-.85,1.22L99,63.5a6.89,6.89,0,0,0,1.83-4.08l.12-1.77V53.5l4.08,0c0-.86,0-2.17-.06-2.93h.86c0,.83,0,1.64.06,2.93Zm-.87-.42a3.88,3.88,0,0,0-1.89-1.48l.63-.58a3.66,3.66,0,0,1,1.33.74,6.15,6.15,0,0,1,.61.64Z"/><polygon class="cls-2" points="91.72 16.77 99.57 7.79 109.55 7.79 101.71 16.77 91.72 16.77"/><polygon class="cls-1" points="99.54 34.6 76.4 7.79 86.3 7.79 109.44 34.6 99.54 34.6"/><polygon class="cls-1" points="11.25 34.6 11.25 7.79 20.3 7.79 20.3 27.98 33.72 27.98 33.72 34.6 11.25 34.6"/><polygon class="cls-2" points="76.36 34.6 87.97 21.16 97.84 21.16 86.33 34.6 76.36 34.6"/><path class="cls-1" d="M71.62,7.79V26.37a7.25,7.25,0,0,1-3,5.8,11.16,11.16,0,0,1-7.24,2.43H48.61a11.07,11.07,0,0,1-7.19-2.43,7.27,7.27,0,0,1-3-5.81V7.79h9.05V25.94a1.77,1.77,0,0,0,.83,1.41A2.78,2.78,0,0,0,50,28H60a3,3,0,0,0,1.82-.54,1.74,1.74,0,0,0,.75-1.49V7.79Z"/><rect class="cls-1" x="29.39" y="42.1" width="2.69" height="4.11"/><polygon class="cls-1" points="69.01 39.07 69.01 40.28 59.75 40.28 59.75 41.87 69.01 41.87 69.01 43.09 59.75 43.09 59.75 44.91 69.01 44.91 69.01 46.22 57.05 46.22 57.05 39.07 69.01 39.07"/><path class="cls-1" d="M89.31,39.07v7.15H86.84V41.79a3.26,3.26,0,0,1,.09-.75,3.49,3.49,0,0,1-.67.74L81.9,45.35h-.53L77,41.77a3.35,3.35,0,0,1-.7-.73l.07.75v4.42h-2.2V39.07h2.2l5.45,4.32,5.34-4.32Z"/><path class="cls-1" d="M102.91,39.07l6.64,7.15h-3l-1.37-1.56H97.79l-1.33,1.56H93.75l6.55-7.15Zm1.1,4.29-2.52-2.91-2.6,2.91Z"/><path class="cls-1" d="M21.21,44.61v.29H13.94V40.37h7.27v1.15h2.7v-.76a1.43,1.43,0,0,0-.63-1.35A4.84,4.84,0,0,0,21,39.07H14.12a4.85,4.85,0,0,0-2.25.34,1.43,1.43,0,0,0-.63,1.35v3.77a1.43,1.43,0,0,0,.63,1.34,4.88,4.88,0,0,0,2.25.35H21a4.87,4.87,0,0,0,2.24-.35,1.37,1.37,0,0,0,.63-1.25h0v-.86h-2.7Z"/><path class="cls-1" d="M48.93,39.07h0V44c-1-.65-8.77-4.9-8.77-4.9H37.73v7.15h2.42V41.29c.39.27,8.77,4.92,8.77,4.92h2.42V39.07Z"/><rect class="cls-2" x="29.39" y="39.07" width="2.69" height="2.45"/></svg>