<svg id="圖層_1" data-name="圖層 1" xmlns="http://www.w3.org/2000/svg" viewBox="0 0 91 72"><defs><style>.cls-1{fill:#620066;}</style></defs><title>logo</title><path class="cls-1" d="M27.85,35.08c0-.73,0-1.35-.07-1.93h-3c-.58,0-.73.17-.77.64l-.08,1.53h-.6c0-1,0-2.1-.14-3.11,1.39,0,2.78.06,4.17.06h2.8c1.39,0,2.78-.06,4.17-.06-.1,1-.13,2.07-.13,3.11h-.6l-.08-1.53c0-.46-.19-.64-.77-.64h-3c-.06.58-.08,1.2-.08,1.93v8.17a3.41,3.41,0,0,0,.17,1.45c.12.19.35.27.81.29l.93.06v.58c-1,0-1.91-.06-2.8-.06s-1.85,0-2.86.06V45l.93-.06c.46,0,.7-.1.81-.29a3.47,3.47,0,0,0,.17-1.45V35.08"/><path class="cls-1" d="M36,45.08c1.39,0,1.74,0,1.74-1.18V37.84c0-1-.15-1.14-1.74-1.14v-.54c.83,0,1.62.06,2.55.06s2.12-.06,3.15-.06c1.72,0,3,.48,3,2.08,0,1.8-1.66,2.26-2.59,2.61l3,3.61c.39.46.54.62,1.14.62v.48H43.83L40,40.89l.08-.31c.21,0,.42,0,.7,0a2,2,0,0,0,2-2c0-1.25-.66-1.82-2-1.82A3.29,3.29,0,0,0,39.5,37v7.15c0,.91.23.95,1.7.95v.54c-.46,0-1.14-.06-2.55-.06-.87,0-1.74,0-2.63.06v-.54"/><path class="cls-1" d="M50.78,42.14c0,1.66.62,2.68,2.61,2.68,1.68,0,2.62-.75,2.62-2.72V37.93c0-1.06-.14-1.24-1.64-1.24v-.54c.7,0,1.39.06,2.07.06.85,0,1.49,0,2-.06v.54c-1.39,0-1.64.14-1.64,1.16V42c0,2-.56,3.82-3.8,3.82S49,44.52,49,42.18V37.66c0-.87-.5-1-1.62-1v-.54c.83,0,1.66.06,2.47.06.62,0,1.24,0,2.36-.06v.5c-1.23,0-1.47.25-1.47.81v4.67"/><path class="cls-1" d="M61.81,38c0-1.27-.35-1.35-1.8-1.35v-.52c.6,0,1.14.06,1.82.06s1.41,0,2.1-.08,1.41-.08,2.11-.08a17.11,17.11,0,0,1,2.34.16,17.41,17.41,0,0,0-.23,2.32H67.6A8,8,0,0,0,67.4,37a15.68,15.68,0,0,0-2.61-.19,7.45,7.45,0,0,0-1.22.12c-.06,1,0,2.26,0,3.38.45,0,1,0,1.86,0s1.08-.21,1.08-1.29h.58c0,.52,0,1.12,0,1.64s0,1.25,0,1.8h-.58c0-1.22-.15-1.45-1.84-1.45-.48,0-.79,0-1.1,0,0,1.54,0,2.82.08,3.73.52,0,1,.07,1.7.07a9,9,0,0,0,2.16-.23,8.8,8.8,0,0,0,.43-1.74h.5c0,1-.08,1.87-.15,2.63-.77.07-1.72.09-2.63.09-1.12,0-2.06-.06-3-.06s-1.54,0-2.49.06v-.54c1.54,0,1.66-.23,1.66-1.6V38"/><path class="cls-1" d="M43.45,17.71a38.35,38.35,0,0,0-7.76-8.44A10.11,10.11,0,0,0,32,16.8c0,5.66,5.4,10.38,12.62,11.54C44.89,26.86,45.66,21.37,43.45,17.71Z"/><path class="cls-1" d="M55.36,6.31a20,20,0,0,0-4.27-1.1,1.85,1.85,0,0,1,.23.88c0,1.34-1.48,2.42-3.29,2.42s-3.29-1.08-3.29-2.42A1.86,1.86,0,0,1,45,5.21a19.73,19.73,0,0,0-4.32,1.12L48,14.72Z"/><path class="cls-1" d="M64,16.8a10.13,10.13,0,0,0-3.72-7.56,38.51,38.51,0,0,0-7.8,8.47c-2.22,3.67-1.43,9.17-1.17,10.64C58.61,27.22,64,22.48,64,16.8Z"/><path class="cls-1" d="M12.88,55.78l0,0a1.29,1.29,0,0,0,.67-.11c.09-.09.12-.16.12-2.17-1.67-2.87-2-3-2.39-3h-.09l0,0V50.2l0,0c.18,0,.92-.12,1.1-.15.47.07,1.1,1.21,2,2.88A26,26,0,0,0,16,50l.43,0,.41,0,0,0v.08a15.35,15.35,0,0,0-2.25,3.44c0,1.91,0,2,.12,2.07a1.27,1.27,0,0,0,.66.11l0,0V56l0,0c-.43,0-.85,0-1.24,0s-.8,0-1.23,0l0,0Z"/><path class="cls-1" d="M20.38,49.91a2.83,2.83,0,0,1,3.13,3,3.25,3.25,0,0,1-3.35,3.28A2.9,2.9,0,0,1,17.08,53,3,3,0,0,1,20.38,49.91Zm-.15.41a2.15,2.15,0,0,0-2.13,2.36c0,1.87,1,3.08,2.31,3.08s2.09-1.18,2.09-2.57C22.49,51,21.17,50.32,20.23,50.32Z"/><path class="cls-1" d="M28.41,53.61l0,0c.13,0,.7,0,1.13,0s.9,0,1,0l0,0v.18l0,0a1.13,1.13,0,0,0-.32.2s-.06.18-.06.77a8.27,8.27,0,0,0,0,.86l0,.05a8.84,8.84,0,0,1-2.57.46c-2.18,0-3.39-1.29-3.39-3.13a3.16,3.16,0,0,1,3.46-3.13,7.12,7.12,0,0,1,2.45.39l0,.06a5.87,5.87,0,0,0-.2,1.21l0,0h-.23l0,0a2.3,2.3,0,0,0-.11-.71,3.21,3.21,0,0,0-1.8-.53,2.34,2.34,0,0,0-2.5,2.57,2.57,2.57,0,0,0,2.55,2.83,4.07,4.07,0,0,0,1.36-.24c0-.33,0-.66,0-.82,0-.54,0-.62-.07-.65a2.84,2.84,0,0,0-.76-.12l0,0Z"/><path class="cls-1" d="M35,55.78l0,0c.63,0,.65-.05.65-.14a7.72,7.72,0,0,0-.58-1.55H32.79c-.53,1.2-.54,1.33-.54,1.44s.22.22.7.25l0,0V56l0,0c-.31,0-.66,0-1,0s-.68,0-1,0l0,0v-.25l0,0c.53,0,.56-.06.79-.58.77-1.64,1.66-3.69,2.26-5.16h.36c1.9,4.49,2.16,5.11,2.39,5.51.09.16.17.22.56.23l0,0V56l0,0c-.37,0-.77,0-1.17,0s-.79,0-1.17,0l0,0Zm-1-4.43-1,2.3H34.9Z"/><path class="cls-1" d="M41.81,51.55A1.49,1.49,0,1,1,40.32,53,1.49,1.49,0,0,1,41.81,51.55Z"/><path class="cls-1" d="M46.36,50l0,0c.43,0,.85,0,1.26,0,1.39,0,2.48,0,3,0l.05,0c0,.45-.08.91-.1,1.33l0,0h-.25l0,0a2.42,2.42,0,0,0-.08-.79A4.54,4.54,0,0,0,49,50.47c-.35,0-.66,0-.84,0,0,.76,0,1.5,0,2.25l.91,0c.37,0,.66,0,.71-.12a1.66,1.66,0,0,0,.11-.6l0,0h.22l0,0c0,.34,0,.68,0,1s0,.58,0,.88l0,0h-.22l0,0a2.49,2.49,0,0,0-.12-.62c0-.11-.33-.15-.85-.15h-.76c0,2.28,0,2.36.12,2.45a1.3,1.3,0,0,0,.67.11l0,0V56l0,0c-.43,0-.85,0-1.26,0s-.83,0-1.26,0l0,0v-.25l0,0a1.28,1.28,0,0,0,.67-.11c.1-.09.12-.16.12-2.17V52.6c0-2,0-2.08-.12-2.17a1.3,1.3,0,0,0-.67-.11l0,0Z"/><path class="cls-1" d="M51.16,50l0,0c.44,0,.85,0,1.26,0s.83,0,1.26,0l0,0v.25l0,0a1.29,1.29,0,0,0-.66.11c-.1.09-.12.16-.12,2.17v.87c0,2,0,2.08.12,2.17a1.27,1.27,0,0,0,.66.11l0,0V56l0,0c-.43,0-.85,0-1.26,0s-.83,0-1.26,0l0,0v-.25l0,0a1.28,1.28,0,0,0,.66-.11c.1-.09.12-.16.12-2.17V52.6c0-2,0-2.08-.12-2.17a1.3,1.3,0,0,0-.66-.11l0,0Z"/><path class="cls-1" d="M55.4,55.78l0,0a1.31,1.31,0,0,0,.67-.11c.09-.09.12-.16.12-2.17,0-.62,0-1.57-.05-3h-.89c-.45,0-.61,0-.67.1s-.07.14-.13.8l0,0h-.27l0,0a9.76,9.76,0,0,0,0-1.36l0,0c.81,0,1.81,0,2.57,0s1.76,0,2.58,0l0,0a9.16,9.16,0,0,0-.05,1.36l0,0h-.27l0,0c-.06-.66-.07-.72-.13-.8s-.22-.1-.67-.1h-.89c0,1.39-.05,2.35-.05,3,0,2,0,2.08.12,2.17a1.29,1.29,0,0,0,.67.11l0,0V56l0,0c-.43,0-.84,0-1.26,0s-.83,0-1.26,0l0,0Z"/><path class="cls-1" d="M64.33,50l0,0c.39,0,.77,0,1.16,0s.59,0,.88,0l0,0v.25l0,0c-.33,0-.54,0-.65.17a25.8,25.8,0,0,0-.14,3.41c0,1,0,1.78.05,2.26l-.05,0a3.56,3.56,0,0,0-.77-.14c-.65-.7-2.7-3.24-4-4.85h0v2.26c0,2,0,2.08.12,2.17a1.3,1.3,0,0,0,.67.11l0,0V56l0,0c-.34,0-.68,0-1,0s-.68,0-1,0l0,0v-.25l0,0a1.28,1.28,0,0,0,.66-.11c.09-.09.12-.16.12-2.17V52.6c0-2,0-2.08-.12-2.17a1.29,1.29,0,0,0-.66-.11l0,0V50l0,0c.32,0,.63,0,1,0a4.78,4.78,0,0,0,.65,0c.31.53,3.29,4.18,3.94,5h0c0-.28,0-1.19,0-2.38,0-2,0-2.08-.12-2.17a1.29,1.29,0,0,0-.66-.11l0,0Z"/><path class="cls-1" d="M66.84,50l0,0c.43,0,.85,0,1.26,0,1.6,0,2.69,0,3.26,0l.05,0c0,.45-.08.91-.1,1.33l0,0h-.25l0,0a2.37,2.37,0,0,0-.08-.79,5.26,5.26,0,0,0-1.47-.14c-.35,0-.66,0-.84,0,0,.76,0,1.5,0,2.25l1,0c.47,0,.77,0,.82-.12a1.66,1.66,0,0,0,.11-.6l0,0h.22l0,0c0,.34,0,.68,0,1s0,.58,0,.88l0,0h-.22l0,0a2.53,2.53,0,0,0-.12-.62c0-.11-.33-.15-1.06-.15H68.6c0,.81,0,1.62,0,2.41A16.11,16.11,0,0,0,71,55.5a2.46,2.46,0,0,0,.23-.89l0,0h.28l0,0c0,.36-.08.93-.1,1.41l-.07,0C70.28,56,69,56,68,56a6.49,6.49,0,0,0-.74,0l0,0v-.17l0,0c.29-.13.34-.17.36-.22a19.1,19.1,0,0,0,.06-3c0-2,0-2.08-.12-2.17a1.31,1.31,0,0,0-.67-.11l0,0Z"/><path class="cls-1" d="M72.87,54.49l0,0a3.3,3.3,0,0,0,0,.58c0,.13.42.62,1.39.62s1.55-.51,1.55-1.32c0-1.74-3.4-.21-3.4-2.57,0-1.18.86-1.92,2.31-1.92a3.9,3.9,0,0,1,1.63.35l0,.06a5.76,5.76,0,0,0-.15,1.16l0,0-.28,0,0,0c0-.52,0-.61-.05-.67a1.71,1.71,0,0,0-1.22-.43c-.93,0-1.36.53-1.36,1.14,0,.78.41.92,1.83,1.13,1,.14,1.56.51,1.56,1.41s-.73,2.13-2.63,2.13a3.72,3.72,0,0,1-1.61-.36l0-.05a8.25,8.25,0,0,0,.1-1.23l0,0Z"/><path class="cls-1" d="M78,54.49l0,0a3.17,3.17,0,0,0,0,.58c0,.13.42.62,1.39.62S81,55.22,81,54.4c0-1.74-3.39-.21-3.39-2.57,0-1.18.85-1.92,2.31-1.92a3.9,3.9,0,0,1,1.63.35l0,.06a6,6,0,0,0-.15,1.16l0,0-.28,0,0,0c0-.52,0-.61,0-.67a1.72,1.72,0,0,0-1.22-.43c-.93,0-1.36.53-1.36,1.14,0,.78.42.92,1.83,1.13,1,.14,1.56.51,1.56,1.41s-.73,2.13-2.62,2.13a3.72,3.72,0,0,1-1.61-.36l0-.05a9.1,9.1,0,0,0,.1-1.23l0,0Z"/><path class="cls-1" d="M38.6,64.53a20.57,20.57,0,0,1-1.82,1l-.16-.36c.24-.1.53-.24.87-.42v-2h-.7v-.36h.7V60.72H36.7v-.36h1.89v.36h-.75v1.65h.64v.36h-.64v1.82a8,8,0,0,0,.7-.43Zm4.45-3-.22.34a6.56,6.56,0,0,1-2.2-1.48,7.2,7.2,0,0,1-2,1.47l-.25-.32a5.92,5.92,0,0,0,2.26-1.74L41,60a.52.52,0,0,1-.11.12A5.93,5.93,0,0,0,43,61.58Zm-2.4,4.11a.48.48,0,0,1-.19.45,1.18,1.18,0,0,1-.64.07l-.14-.38h.48c.08,0,.12,0,.12-.14v-.87H39.16a4.82,4.82,0,0,1-.41,1.42L38.42,66a4.82,4.82,0,0,0,.42-2.26V62.31h1.81Zm-.36-1.2v-.76H39.21c0,.36,0,.62,0,.76Zm0-1.13v-.69H39.21v.69Zm1.42-1.51H39.6v-.35h2.11Zm.94,3.83a.59.59,0,0,1-.12.36.44.44,0,0,1-.3.19,7.13,7.13,0,0,1-.84,0l-.16-.38.38,0a1.78,1.78,0,0,0,.57,0,.17.17,0,0,0,.08-.16V62.14h.38Zm-1-.54h-.38V62.53h.38Z"/><path class="cls-1" d="M52.29,64.51a18.43,18.43,0,0,1-2,1.07l-.15-.35a8.63,8.63,0,0,0,.91-.46v-2h-.77V62.4H51V60.72h-.88v-.36H52.2v.36h-.82V62.4h.79v.36h-.79v1.83c.27-.14.54-.29.81-.46Zm1.93-3.35q0,1.62,0,3.05a8.91,8.91,0,0,1-.12,1.63.57.57,0,0,1-.25.3,2,2,0,0,1-.8.1l-.12-.38h.54a.33.33,0,0,0,.19-.06.27.27,0,0,0,.11-.13,7.49,7.49,0,0,0,.06-.89q0-.81.06-1.78t0-1.48H53.2a13.16,13.16,0,0,1-.27,2.8,7,7,0,0,1-.84,1.94l-.35-.22a5.83,5.83,0,0,0,.76-1.62,9.21,9.21,0,0,0,.31-2.9h-.65v-.37h.66V59.93h.36v1.23Zm2,5.06H55.9v-.66h-.82v.66h-.37V60.73h1.54Zm-.35-1V61.09h-.82v4.12Z"/><path class="cls-1" d="M16.32,62.1l-.21.34a7.8,7.8,0,0,1-3-2,6.48,6.48,0,0,1-3,2L10,62.08a6.14,6.14,0,0,0,2.71-1.66H12V60h1.38A6.39,6.39,0,0,0,16.32,62.1Zm-.17,4h-6v-.36H13V64.34H11V64h2V62.63H11v-.35h4.34v.35h-2V64h2v.37h-2v1.39h2.8Z"/><path class="cls-1" d="M29.65,64.94H23.32V64.6h1V61.24h1.54c0-.09.11-.25.2-.49H23.42v-.34h2.76a4.73,4.73,0,0,0,.19-.52l.39.07-.16.45h3v.34h-3.1l-.22.49h2.45V64.6h1Zm-3.76.54a12.51,12.51,0,0,1-2.26.86L23.38,66a12.36,12.36,0,0,0,2.2-.81Zm2.42-3.4v-.51H24.67v.51Zm0,.84v-.51H24.67v.51Zm0,.84v-.51H24.67v.51Zm0,.84v-.5H24.67v.5ZM29.66,66l-.27.35a12.19,12.19,0,0,0-2.29-.85l.27-.34A15.34,15.34,0,0,1,29.66,66Z"/><path class="cls-1" d="M64.93,59.92q-.07.27-.25.78l-.17.49v5.06h-.37V62a10.49,10.49,0,0,1-.57,1.07l-.24-.32a13.49,13.49,0,0,0,1.25-2.92Zm4.78,5.89-.1.35A11.5,11.5,0,0,1,67,66a2.25,2.25,0,0,1-1.22-.72,4.91,4.91,0,0,1-.78,1L64.74,66a4.67,4.67,0,0,0,.8-1,6.61,6.61,0,0,1-.62-1.3l.3-.15a6.4,6.4,0,0,0,.48,1.05A6.5,6.5,0,0,0,66,62.88h-.93v-.35a15.87,15.87,0,0,0,.84-1.66h-.84v-.34H66.3v.34q-.49,1-.83,1.65h.88A7.52,7.52,0,0,1,65.95,65a2,2,0,0,0,1.13.73A13.25,13.25,0,0,0,69.71,65.82Zm0-1H68.1v.75h-.36v-.75H66.42v-.35h1.32v-.66H66.62v-.34h1.12v-.58h-.86v-.34h.86v-.66H66.47V61.5h1.27v-.63h-.9v-.36h.9v-.6h.36v.6h1.1v1h.43v.35H69.2v1H68.1v.58h1.45v.34H68.1v.66h1.56Zm-.82-3.27v-.63H68.1v.63Zm0,1v-.66H68.1v.66Z"/><path class="cls-1" d="M83.07,62.76q-.49.44-1.05.89v2a.57.57,0,0,1-.14.42.74.74,0,0,1-.49.16l-.73,0h-.44l-.1-.38.86,0a1.72,1.72,0,0,0,.57,0,.21.21,0,0,0,.09-.2V63.93a13.49,13.49,0,0,1-4.8,2.22l-.17-.36a13.9,13.9,0,0,0,4.41-1.91q-2.18.31-4.22.44l-.09-.38c.25,0,.5,0,.76,0V60.55h.92a3.66,3.66,0,0,0,.6-.71l.44.09a6.57,6.57,0,0,1-.51.62h3v2.61a7.54,7.54,0,0,0,.81-.69Zm-1.43-1.23v-.61H77.91v.61Zm0,1v-.65H77.91v.65Zm0,.89v-.5H77.91v.91Q79.39,63.78,81.64,63.45Z"/></svg>