<svg id="圖層_1" data-name="圖層 1" xmlns="http://www.w3.org/2000/svg" xmlns:xlink="http://www.w3.org/1999/xlink" viewBox="0 0 130 72"><defs><style>.cls-1{fill:url(#linear-gradient);}.cls-2{fill:url(#linear-gradient-2);}.cls-3{fill:url(#linear-gradient-3);}.cls-4{fill:url(#linear-gradient-4);}.cls-5{fill:url(#linear-gradient-5);}.cls-6{fill:url(#linear-gradient-6);}.cls-7{fill:#231815;}</style><linearGradient id="linear-gradient" x1="54.32" y1="10.69" x2="54.32" y2="35.29" gradientUnits="userSpaceOnUse"><stop offset="0" stop-color="#fff"/><stop offset="0.03" stop-color="#fdfef6"/><stop offset="0.09" stop-color="#f9fade"/><stop offset="0.16" stop-color="#f1f5b6"/><stop offset="0.24" stop-color="#e7ed7f"/><stop offset="0.33" stop-color="#dae339"/><stop offset="0.4" stop-color="#cfdb00"/><stop offset="1" stop-color="#00a73c"/></linearGradient><linearGradient id="linear-gradient-2" x1="64.79" y1="21.78" x2="64.79" y2="35.32" gradientUnits="userSpaceOnUse"><stop offset="0" stop-color="#4cace2"/><stop offset="1" stop-color="#004098"/></linearGradient><linearGradient id="linear-gradient-3" x1="58.98" y1="9.87" x2="58.98" y2="28.76" gradientUnits="userSpaceOnUse"><stop offset="0" stop-color="#fff"/><stop offset="0.1" stop-color="#cce7f7"/><stop offset="0.22" stop-color="#95ceee"/><stop offset="0.32" stop-color="#6dbbe7"/><stop offset="0.4" stop-color="#55b0e3"/><stop offset="0.45" stop-color="#4cace2"/><stop offset="1" stop-color="#004098"/></linearGradient><linearGradient id="linear-gradient-4" x1="75.26" y1="10.69" x2="75.26" y2="35.29" gradientUnits="userSpaceOnUse"><stop offset="0" stop-color="#fff"/><stop offset="0.06" stop-color="#fdf6f9"/><stop offset="0.15" stop-color="#f8deea"/><stop offset="0.27" stop-color="#f0b6d2"/><stop offset="0.4" stop-color="#e684b3"/><stop offset="1" stop-color="#b60081"/></linearGradient><linearGradient id="linear-gradient-5" x1="70.61" y1="9.87" x2="70.61" y2="28.76" xlink:href="#linear-gradient-3"/><linearGradient id="linear-gradient-6" x1="64.79" y1="9.22" x2="64.79" y2="21.5" gradientUnits="userSpaceOnUse"><stop offset="0" stop-color="#fff"/><stop offset="0.3" stop-color="#fff200"/><stop offset="1" stop-color="#f08300"/></linearGradient></defs><title>logo</title><path class="cls-1" d="M47.06,10.69l10.62,24c.37.85,1,.85,1.36,0L61.58,29,53.49,10.69Z"/><path class="cls-2" d="M61.58,29l2.53,5.73c.37.85,1,.85,1.36,0L68,29,64.79,21.7Z"/><polygon class="cls-3" points="59.57 9.95 53.16 9.95 61.58 28.97 64.79 21.7 59.57 9.95"/><path class="cls-4" d="M76.09,10.69,68,29l2.53,5.73c.37.85,1,.85,1.36,0l10.62-24Z"/><polygon class="cls-5" points="70.02 9.95 64.79 21.7 68.01 28.97 76.42 9.95 70.02 9.95"/><polygon class="cls-6" points="70.35 9.2 59.24 9.2 64.79 21.7 70.35 9.2"/><path class="cls-7" d="M13.14,54.93,6,41.86H8.35l5.77,10.89,5.52-10.89H21.8L15,54.93Z"/><path class="cls-7" d="M25.12,54.93V41.86h2.18V54.93Z"/><path class="cls-7" d="M31.31,54.93V41.86H43.89v1.74H33.49v3.66h8.65V49H33.49v4.15H44v1.79Z"/><path class="cls-7" d="M58.32,44.15H49.06V47h8.69a3.9,3.9,0,0,1,2.57.63A3.29,3.29,0,0,1,61,50v1.8a3.28,3.28,0,0,1-.7,2.45,3.9,3.9,0,0,1-2.57.63H49.67a3.9,3.9,0,0,1-2.57-.63,3.3,3.3,0,0,1-.69-2.46v-.93l2.68,0v1.54h9.24v-3H49.64a3.84,3.84,0,0,1-2.56-.63,3.35,3.35,0,0,1-.68-2.46V45a3.36,3.36,0,0,1,.68-2.46,3.85,3.85,0,0,1,2.56-.63h8.13a4,4,0,0,1,2.52.61A2.85,2.85,0,0,1,61,44.73v.91H58.32Z"/><path class="cls-7" d="M64.78,54.93V41.86h3v5.06H77.3V41.86h3.06V54.93H77.3V49.31H67.82v5.62Z"/><path class="cls-7" d="M84,45a3.33,3.33,0,0,1,.68-2.46,3.84,3.84,0,0,1,2.56-.63h9.62a3.86,3.86,0,0,1,2.56.63,3.34,3.34,0,0,1,.68,2.46v6.89a3.34,3.34,0,0,1-.68,2.46,3.86,3.86,0,0,1-2.56.63H87.25a3.84,3.84,0,0,1-2.56-.63A3.32,3.32,0,0,1,84,51.84Zm3,7.52h10V44.19h-10Z"/><path class="cls-7" d="M107.15,54.93l-5-13.06h3.14l3.32,8.76L112,41.86h2.13l3.54,8.76,3.16-8.76h2.71l-5,13.06h-2.05l-3.59-9-3.64,9Z"/><path class="cls-7" d="M46.73,64.87h.64v.2c0,.7-.13,1.13-.4,1.3a4.5,4.5,0,0,1-2,.26q-1.43,0-1.82-.46A3.82,3.82,0,0,1,42.78,64a9.35,9.35,0,0,1,.09-1.68,1.08,1.08,0,0,1,.5-.61,4.43,4.43,0,0,1,2.09-.32,2.49,2.49,0,0,1,1.47.3,1.45,1.45,0,0,1,.38,1.17V63h-.64v-.15a1,1,0,0,0-.22-.79,1.87,1.87,0,0,0-1-.18,3.94,3.94,0,0,0-1.68.21c-.2.14-.3.52-.3,1.15a8.24,8.24,0,0,0,.2,2.53c.14.25.6.37,1.4.37A3.65,3.65,0,0,0,46.46,66q.28-.16.28-.81Z"/><path class="cls-7" d="M50.44,61.46v5.12H49.8V61.46Z"/><path class="cls-7" d="M58.11,61.46v5.12H57.06l-2.39-3.49-.39-.57-.19-.28L53.9,62h0v4.63h-.64V61.46H54.3l2.08,3.05.54.8.27.4.27.4h0V61.46Z"/><path class="cls-7" d="M61.31,62v1.74H64.2v.49H61.31v1.91h3v.49H60.67V61.46h3.66V62Z"/><path class="cls-7" d="M73.11,61.46v5.12h-.64V61.87h0l0,.12-.05.11-.11.24-1.94,4.24h-.64l-1.95-4.19-.11-.24L67.56,62l-.05-.12h0v4.66h-.64V61.46H68l1.52,3.31.24.54.12.27.12.27h0l.12-.27.12-.27.25-.53L72,61.46Z"/><path class="cls-7" d="M79.39,65.5H76.51l-.44,1.09H75.4l2.09-5.12h.9l2.12,5.12h-.67Zm-.19-.44-1.26-3.13L76.7,65.06Z"/><path class="cls-7" d="M86.7,62.85h-.64q0-.62-.23-.79a2.17,2.17,0,0,0-1.08-.17,3.34,3.34,0,0,0-1.31.16c-.19.11-.29.34-.29.71s.08.66.23.75a4.26,4.26,0,0,0,1.37.19,3.82,3.82,0,0,1,1.69.3c.24.17.36.54.36,1.13s-.13,1-.42,1.22a3.79,3.79,0,0,1-1.83.28,3.2,3.2,0,0,1-1.64-.28,1.29,1.29,0,0,1-.41-1.13V65h.64v.13c0,.46.08.74.23.85a2.56,2.56,0,0,0,1.2.17A3.22,3.22,0,0,0,85.94,66c.17-.11.25-.41.25-.89a.83.83,0,0,0-.17-.62,1.27,1.27,0,0,0-.72-.19l-.67,0-.63,0q-1.45-.09-1.45-1.35A1.34,1.34,0,0,1,83,61.7a5.11,5.11,0,0,1,3.35,0C86.57,61.86,86.7,62.25,86.7,62.85Z"/></svg>