<svg id="圖層_1" data-name="圖層 1" xmlns="http://www.w3.org/2000/svg" viewBox="0 0 89 72"><defs><style>.cls-1{fill:#fff;}.cls-2{fill:#fff100;}.cls-3{fill:#e60012;}.cls-4{fill:#231815;}</style></defs><title>logo</title><path class="cls-1" d="M13.27,4.92V67.4H75.75V4.92Z"/><path class="cls-2" d="M13.27,4.92V67.4H75.75V4.92Zm58.33,26a25,25,0,0,1-1.27,6c-2.2,6.53-4.74,10.58-10.64,10.58-1.73,0-4.82-.46-6-3.55l-.27-.73-.48.61a9.61,9.61,0,0,1-7.52,3.7,6.42,6.42,0,0,1-5.23-2.18l-.32-.39-.34.38a8,8,0,0,1-6,2.17,6.47,6.47,0,0,1-4.86-1.91l-.31-.33-.32.32a7.64,7.64,0,0,1-5.75,1.86c-3-.07-4.88-1.77-4.94-4.53-.09-4.26,4-13.23,5.74-16a5.14,5.14,0,0,1,4.66-2.71,3.83,3.83,0,0,1,2.89.89,2.7,2.7,0,0,1,.66,2.09l.06,1.42.75-1.2C34,24.47,37,24.06,40,24.06c2.07,0,3.87.76,4.6,1.94l.27.44.39-.33a9.35,9.35,0,0,1,6.09-2c2.61,0,4.51.65,5.65,1.93a3.63,3.63,0,0,1,.67,1l.29.61.44-.52a8.39,8.39,0,0,1,6.73-3,6.63,6.63,0,0,1,5,1.76A6.69,6.69,0,0,1,71.59,30.89Z"/><path class="cls-3" d="M13.27,4.92V67.4H75.75V4.92ZM73.35,33.29a35.72,35.72,0,0,1-2.64,8.17c-2.19,4.52-5.12,8-10.76,8-3,0-5.49-1-6.94-2.81a11.34,11.34,0,0,1-7.58,2.83,8.85,8.85,0,0,1-5.57-1.79,10.83,10.83,0,0,1-6.23,1.78,8.92,8.92,0,0,1-5.27-1.58,10.39,10.39,0,0,1-6.07,1.51c-4-.09-6.82-2.65-6.9-6.37-.11-4.94,4.05-14,6-17.11a7.28,7.28,0,0,1,6.45-3.71c3,0,4.06.85,4.59,1.93,2.3-2,5.34-2.06,7.51-2.06a7.69,7.69,0,0,1,5.17,1.65,11.74,11.74,0,0,1,6.2-1.61c3.08,0,5.37.72,7,2.3a10.34,10.34,0,0,1,6.8-2.26c3.45,0,5.72,1.24,7.06,3.1C74,27.87,73.7,30.5,73.35,33.29Z"/><path class="cls-4" d="M12.84,4.5V67.83H76.16V4.5Zm62.46.87V67H13.71V5.37Z"/><path class="cls-4" d="M73,23.5v-.43h.29c.21,0,.32.08.32.21s-.07.22-.29.22Zm1,.9-.18-.32c-.16-.28-.2-.32-.34-.37h0a.44.44,0,0,0,.43-.44c0-.25-.16-.44-.5-.44h-.78V24.4H73v-.64h.06c.14,0,.19,0,.26.08a1.47,1.47,0,0,1,.21.31l.13.26Zm-.77-2a1.22,1.22,0,1,1-1.22,1.22A1.22,1.22,0,0,1,73.32,22.39Zm0-.3a1.52,1.52,0,1,0,1.52,1.52A1.51,1.51,0,0,0,73.32,22.09Z"/><path class="cls-4" d="M65.06,23.71A8.82,8.82,0,0,0,58,26.82a4,4,0,0,0-.73-1.09c-1.25-1.42-3.27-2.08-6-2.08a9.74,9.74,0,0,0-6.37,2.13c-.79-1.29-2.69-2.15-5-2.15-3,0-6.23.42-8.16,3.53A3.13,3.13,0,0,0,31,24.78a4.33,4.33,0,0,0-3.21-1,5.55,5.55,0,0,0-5,2.91c-1.72,2.76-5.9,11.82-5.81,16.2.06,2.83,2,4.88,5.37,5a8.06,8.06,0,0,0,6.07-2,6.89,6.89,0,0,0,5.18,2.05,8.52,8.52,0,0,0,6.3-2.32,6.85,6.85,0,0,0,5.57,2.34,10,10,0,0,0,7.86-3.86c1,2.75,3.57,3.84,6.36,3.84,6.13,0,8.82-4.21,11.06-10.87A25.4,25.4,0,0,0,72,30.92C72.21,27.41,70.73,23.71,65.06,23.71ZM24.31,40.46c3.17-.55,4,.59,3.87,1.66-.3,3.18-3.21,3.89-5.74,3.83-1.84,0-3.49-.88-3.53-3-.08-3.73,3.72-12.35,5.51-15.21a3.69,3.69,0,0,1,3.44-2c1.52,0,1.9.78,1.88,1.72C29.66,29.9,25.63,37.49,24.31,40.46Zm10.32-2.93c-.21.57-.61,1.75-.93,3a10.25,10.25,0,0,1,3.16-.41c1.52,0,2.49.66,2.49,1.93C39.35,45.12,36,46,33.64,46c-2.57,0-4.83-1.46-4.83-4.27,0-3.3,1.79-8.29,3.46-11.62,2.06-4.09,4.16-4.63,7.78-4.63,1.59,0,3.43.68,3.43,2.18,0,2.08-1.77,2.88-3.51,3a25.6,25.6,0,0,1-2.59,0,14.59,14.59,0,0,0-1.2,2.47c3.24-.46,4.61.28,4.07,2.15C39.51,37.84,37.31,38,34.63,37.53Zm15.94-7.88a2.31,2.31,0,0,0-1.88,1.15,33.27,33.27,0,0,0-3.29,8.78c-.22,1.49.43,1.79,1.13,1.79,1.13,0,2.39-1.19,2.82-3.16,0,0-2.15-.05-1.55-2s1.66-2.24,3.47-2.32c3.56-.15,3.21,2.48,2.92,3.88C53.26,42.37,50,46,45.44,46c-3.13,0-5.08-1.73-5.08-4.93a24.71,24.71,0,0,1,2-7.95c1.91-4.45,3.91-7.57,9-7.57,3.06,0,5.47,1.1,5.11,4-.26,2.1-1.31,3.34-3.22,3.48-.54,0-2.72,0-2-2.08C51.53,30.22,51.64,29.65,50.56,29.65ZM69.8,33.41a30.7,30.7,0,0,1-3.07,8.22C64.59,45.48,62,46,59.71,46s-4.84-.86-4.86-4.38a26.3,26.3,0,0,1,2-8.41C58.46,29,60.1,25.54,65.3,25.6,71.36,25.67,70.27,31.06,69.8,33.41Zm-4.32-2.64c-.06,1.62-2.44,8.09-3.28,9.52-.37.62-.78,1.13-1.52,1.13a.92.92,0,0,1-1-1c0-1.46,2.63-8.78,3.55-10a1.42,1.42,0,0,1,1.38-.72C65.42,29.75,65.5,30.3,65.48,30.77Z"/></svg>