<svg id="圖層_1" data-name="圖層 1" xmlns="http://www.w3.org/2000/svg" viewBox="0 0 252 72"><defs><style>.cls-1{fill:#e5006e;}.cls-2{fill:#231815;}</style></defs><title>logo</title><path class="cls-1" d="M15.32,25.69s13,15.4,13.63,16.68a2.32,2.32,0,0,1,.18,1.57c-.38,2.37-.27,2.27-2.68,13.46,0,0-8.28-5.87-2.37-12.07C24.09,45.32,6.54,43.32,15.32,25.69Z"/><path class="cls-1" d="M26,35.41c-2.75-5.32-2.67-12.91,7-21.71,10,27.29,10.26,28.08,10.31,29a4.36,4.36,0,0,1-.21,1.51c-1.3,3.08-10.25,17.28-10.25,17.28s-8.29-10.82,2.45-17.17C35.32,44.32,29,41.19,26,35.41Z"/><path class="cls-1" d="M43.44,47.3l1.09-1.53a9.59,9.59,0,0,0,1.16,1.91,2.28,2.28,0,0,0,2.31,1,2.17,2.17,0,0,0,1.63-2.29,6.69,6.69,0,0,0-1.16-2.78c-.9-1.5-2.19-2.62-3.16-4.88a7.43,7.43,0,0,1-.67-2.57,5.32,5.32,0,0,1,.5-3A6.73,6.73,0,0,1,48,29.92a6.44,6.44,0,0,1,3.7-.68,6.62,6.62,0,0,1,5.47,4.17,5.49,5.49,0,0,1,.22,3.37,4.66,4.66,0,0,1-.87,1.63,4,4,0,0,1-2.56,1.41,5.43,5.43,0,0,1-3.29-.63,4.09,4.09,0,0,1-2.15-2.88,3.67,3.67,0,0,1,.43-2.94,3.24,3.24,0,0,1,.9-.93A3.74,3.74,0,0,1,51,32a4.08,4.08,0,0,1,1.3.06,3,3,0,0,1,2.37,1.93,2.55,2.55,0,0,1,.07,1.69c-.24.5-.5,1-1.17,1a1.4,1.4,0,0,1-1.68-.93s1.59.68,1.93-.5a2,2,0,0,0-.38-1.78,2.53,2.53,0,0,0-1.91-.84A1.87,1.87,0,0,0,49.84,34a3.75,3.75,0,0,0,.31,2.38,3.84,3.84,0,0,0,3.75,1.85,2.55,2.55,0,0,0,2.26-2.07A4.74,4.74,0,0,0,56,33.46,5.84,5.84,0,0,0,54.07,31a4.74,4.74,0,0,0-3.48-1,4,4,0,0,0-4,3.35,6.21,6.21,0,0,0,1.05,4.5c1.16,1.79,2.56,3.71,3.17,4.79a4.93,4.93,0,0,1,.71,2.48A5.15,5.15,0,0,1,49,49.44a4,4,0,0,1-2.89.23A4.67,4.67,0,0,1,43.44,47.3Z"/><polygon points="72.46 23.06 78.27 23.06 80.72 29.92 74.91 29.92 72.46 23.06"/><polygon points="73.27 32.88 79.2 32.88 81.87 39.9 75.8 39.9 73.27 32.88"/><polygon points="76.02 42.59 81.42 42.59 78 54.87 72.46 54.87 76.02 42.59"/><path d="M103.09,48.11a1.72,1.72,0,0,0,1.84-1.78H95.52c.19-.78.25-1.17.37-1.92h6.43a2,2,0,0,0,2.08-1.84H96.23V40.49s4.49.07,6.2,0a2.68,2.68,0,0,0,2.36-2.41V32.81H96.23v-2H100c1.93,0,3.28-1.46,3.28-2.2s0-2.18,0-2.18h2.54V24.79h-2.53V22.86h-5v1.93H88.73V22.86h-4.9v1.93H81.44v1.69h2.21s.09,1.28.13,2.18c.07,1.48,1.8,2.2,3.1,2.2h4v2H82.42v4.94c0,1.48,2.2,2.73,2.77,2.73l5.64,0-.17,2.09-7.81,0V44.4h7.42a7,7,0,0,1-.57,1.92H82.28l0,1.78h6.41c-.82,2.38-6.89,6.76-6.89,6.76h6.48a15.17,15.17,0,0,0,6.43-6.76Zm-12.27-9.5h-3.6V34.73h3.6ZM100,34.73v3.87H96.19V34.73ZM88.73,28.85V26.48h9.63v2.36Z"/><polygon points="93.98 49.97 98.96 54.88 105.77 54.88 100.94 49.97 93.98 49.97"/><path d="M119.73,23h5v3.29h3.78a25.94,25.94,0,0,1-4,9.32V55.1h-5V39H116s6.16-6.75,7.06-11.18h-6.88V26.24h3.58Z"/><polygon points="124.36 35.73 128.17 35.73 129.86 49.5 126.19 49.5 124.36 35.73"/><path d="M148.75,46.41V26.26h-6.63V23h-4.55v3.27h-6.85V46.07c0,1.83.72,3.45,2.55,3.45h4.3V55.1h4.55V49.52H146c2.68,0,2.7-1.32,2.7-2.68v-.07A2.2,2.2,0,0,0,148.75,46.41Zm-11.18,1.38h-2.71V39.07h2.71Zm0-19.51v8.86h-2.71v-9h2.71Zm7,19.51h-2.48V39.07h2.48Zm0-19.51v8.86h-2.48v-9h2.48Z"/><path class="cls-2" d="M167.5,26v7.86H190V41.9a2.78,2.78,0,0,1-2.54,2.85h-20v8h24.76c-.14,1-.95,2.39-1.85,2.29H159V52.78h3.28V26h-3V23.73h32.59c0,1.07-.93,2.26-1.52,2.26Zm17.64,17V35.67H167.5V43Z"/><path class="cls-2" d="M203.54,23h31.55c1.51.19-.9,4.87-1.09,5.25H229.3c.59-1.3.93-2.22,1.35-3.35h-8.48v4.69h11c-.07.8-.55,1.58-1.16,1.61h-9.89v4.21h14.44c-.17,1-.83,1.86-1.71,1.86H218.44a14.56,14.56,0,0,1-9.69-3.13,15.78,15.78,0,0,1-3.46,4.06h-3.51c2.14-2.56,3.89-7.26,4.86-11h5.19a26.06,26.06,0,0,1-2.08,5.07c1.37,1.75,5,2.65,7.68,2.94V24.88H203.6V23.17Z"/><path d="M237,55l-4.74-4.56h-6.54l2.19,2.09h-5.74V49h9.27a2.09,2.09,0,0,0,2-2V40.54H222.17V38.67h-4.74v1.87H206.16v6.2a2.25,2.25,0,0,0,2.28,2.3h9v3.43H203.11v2.11h25.6a1.5,1.5,0,0,0,.88-.47l.91.87ZM222.17,42.35h6.74v5h-6.74Zm-4.74,5h-6.79v-5h6.79Z"/></svg>