<svg id="圖層_1" data-name="圖層 1" xmlns="http://www.w3.org/2000/svg" xmlns:xlink="http://www.w3.org/1999/xlink" viewBox="0 0 138 72"><defs><style>.cls-1,.cls-3{fill:#040000;}.cls-2{fill:none;stroke-miterlimit:10;stroke-width:1.15px;}.cls-2,.cls-3{stroke:#040000;}.cls-3{stroke-width:0.25px;}.cls-4{fill:#922082;}.cls-5{fill:#fff;}.cls-6{fill:url(#彩虹狀);}.cls-7{fill:url(#彩虹狀-2);}.cls-8{fill:url(#彩虹狀-3);}.cls-9{fill:url(#彩虹狀-4);}.cls-10{fill:url(#彩虹狀-5);}.cls-11{fill:url(#彩虹狀-6);}</style><linearGradient id="彩虹狀" x1="116.06" y1="17.28" x2="113.82" y2="56.43" gradientUnits="userSpaceOnUse"><stop offset="0" stop-color="#d62821"/><stop offset="0.2" stop-color="#f3e428"/><stop offset="0.4" stop-color="#109149"/><stop offset="0.6" stop-color="#1b94ce"/><stop offset="0.8" stop-color="#1e2876"/><stop offset="1" stop-color="#d21576"/></linearGradient><linearGradient id="彩虹狀-2" x1="115.22" y1="17.24" x2="112.98" y2="56.38" xlink:href="#彩虹狀"/><linearGradient id="彩虹狀-3" x1="88.7" y1="15.72" x2="86.46" y2="54.87" xlink:href="#彩虹狀"/><linearGradient id="彩虹狀-4" x1="83.38" y1="15.42" x2="81.14" y2="54.56" xlink:href="#彩虹狀"/><linearGradient id="彩虹狀-5" x1="108.04" y1="16.82" x2="105.8" y2="55.98" xlink:href="#彩虹狀"/><linearGradient id="彩虹狀-6" x1="107.21" y1="16.78" x2="104.97" y2="55.92" xlink:href="#彩虹狀"/></defs><title>logo</title><path class="cls-1" d="M38.25,66.25A1.63,1.63,0,0,0,39,66c.12-.1.18-.36.18-.78V60.32a1.15,1.15,0,0,0-.18-.77,1.32,1.32,0,0,0-.8-.23v-.2h5.89l0,1.59H43.9a1.57,1.57,0,0,0-.42-.95,2.34,2.34,0,0,0-1.26-.22H40.71c-.16,0-.26,0-.3.08a.55.55,0,0,0-.06.3v2.47h1.71a1.31,1.31,0,0,0,.9-.21,1.82,1.82,0,0,0,.31-.85h.26v2.56h-.26A1.84,1.84,0,0,0,43,63a1.3,1.3,0,0,0-.9-.21H40.35v2.75c0,.22.07.35.21.39a7.3,7.3,0,0,0,1.25.06,4.25,4.25,0,0,0,1.67-.25,2.26,2.26,0,0,0,1-1.2h.31l-.51,1.87h-6Z"/><line class="cls-2" x1="44.78" y1="63.95" x2="47.52" y2="63.95"/><path class="cls-1" d="M47.66,66.25a1.63,1.63,0,0,0,.79-.22c.12-.1.18-.36.18-.78V60.32a1.15,1.15,0,0,0-.18-.78,1.37,1.37,0,0,0-.8-.22v-.2h3a5.9,5.9,0,0,1,2.56.5,3.23,3.23,0,0,1,1.88,3.19,3.8,3.8,0,0,1-.34,1.58,3.24,3.24,0,0,1-1,1.26,3.32,3.32,0,0,1-.9.49,6,6,0,0,1-2.09.32H47.66ZM49.9,66a1.17,1.17,0,0,0,.55.09,4,4,0,0,0,2.14-.52,2.92,2.92,0,0,0,1.29-2.71,3.12,3.12,0,0,0-1.06-2.57,3.71,3.71,0,0,0-2.41-.73,1.07,1.07,0,0,0-.51.08c-.09.06-.13.17-.13.36V65.6a.4.4,0,0,0,.13.36"/><path class="cls-1" d="M55.11,66.45v-.2a.9.9,0,0,0,.64-.32,8.92,8.92,0,0,0,.73-1.5L58.79,59H59l2.76,6.29a2.63,2.63,0,0,0,.44.77,1.05,1.05,0,0,0,.56.2v.2H60v-.2a2.72,2.72,0,0,0,.63-.1c.09,0,.14-.15.14-.31a1.4,1.4,0,0,0-.05-.29,3.09,3.09,0,0,0-.15-.43l-.44-1.07H57.15c-.29.73-.46,1.17-.52,1.33a1.23,1.23,0,0,0-.08.38.39.39,0,0,0,.23.39,1.83,1.83,0,0,0,.53.1v.2Zm4.78-2.85-1.27-3.06L57.33,63.6Z"/><path class="cls-3" d="M74.54,59.23v.19a.89.89,0,0,0-.44.1,1,1,0,0,0-.32.37,6,6,0,0,0-.32.86l-1.9,5.61h-.22l-1.6-4.48-1.58,4.48H68l-2-5.79c-.15-.43-.25-.68-.29-.76a.66.66,0,0,0-.28-.29,1,1,0,0,0-.48-.1v-.19h2.56v.19h-.12a.63.63,0,0,0-.42.12.37.37,0,0,0-.14.29,3.43,3.43,0,0,0,.23.81l1.36,3.9,1.16-3.32-.2-.56-.16-.47a2.42,2.42,0,0,0-.24-.45.57.57,0,0,0-.16-.16.89.89,0,0,0-.26-.13,1.11,1.11,0,0,0-.31,0v-.19h2.7v.19h-.18a.6.6,0,0,0-.42.12.43.43,0,0,0-.13.33,3.27,3.27,0,0,0,.23.91l1.35,3.79L73,60.75a3.19,3.19,0,0,0,.23-.88.37.37,0,0,0-.07-.22A.38.38,0,0,0,73,59.5a1.54,1.54,0,0,0-.51-.07v-.19Z"/><path class="cls-3" d="M78.52,59.08a3.15,3.15,0,0,1,2.35,1,3.56,3.56,0,0,1,1,2.57,3.65,3.65,0,0,1-1,2.63,3.34,3.34,0,0,1-4.83,0,3.67,3.67,0,0,1-1-2.65A3.52,3.52,0,0,1,76.17,60,3.33,3.33,0,0,1,78.52,59.08Zm-.1.37a1.83,1.83,0,0,0-1.49.69,3.92,3.92,0,0,0-.7,2.53A4.13,4.13,0,0,0,77,65.29a1.79,1.79,0,0,0,1.47.7A2,2,0,0,0,80,65.22a3.74,3.74,0,0,0,.64-2.41,4.21,4.21,0,0,0-.7-2.66A1.89,1.89,0,0,0,78.42,59.45Z"/><path class="cls-3" d="M89.37,66.2H87.5l-2.37-3.26h-.72v2a1.42,1.42,0,0,0,.14.81.73.73,0,0,0,.59.23h.27v.2h-3V66h.26a.7.7,0,0,0,.63-.29,1.61,1.61,0,0,0,.11-.75v-4.5a1.42,1.42,0,0,0-.14-.82.76.76,0,0,0-.6-.23h-.26v-.19H85a6.09,6.09,0,0,1,1.64.16,1.89,1.89,0,0,1,.9.59,1.56,1.56,0,0,1,.37,1,1.62,1.62,0,0,1-.42,1.12,2.39,2.39,0,0,1-1.31.67l1.44,2a3.6,3.6,0,0,0,.85.91,2.18,2.18,0,0,0,.93.29Zm-5-3.57h.29a2.25,2.25,0,0,0,1.5-.43,1.4,1.4,0,0,0,.51-1.11,1.41,1.41,0,0,0-1.49-1.49,3.31,3.31,0,0,0-.81.14Z"/><path class="cls-3" d="M95.3,64.26l.18,0-.59,1.91h-5.4V66h.26a.7.7,0,0,0,.63-.29,1.65,1.65,0,0,0,.11-.75v-4.5a1.44,1.44,0,0,0-.14-.82.76.76,0,0,0-.6-.23h-.26v-.19h3.14v.19a2,2,0,0,0-.77.1.64.64,0,0,0-.3.27,2.19,2.19,0,0,0-.08.77V65a1.45,1.45,0,0,0,.08.59.37.37,0,0,0,.19.16,3.43,3.43,0,0,0,.8.05h.51a3.7,3.7,0,0,0,1.12-.12,1.47,1.47,0,0,0,.59-.42A3.45,3.45,0,0,0,95.3,64.26Z"/><path class="cls-3" d="M95.88,66.2V66h.26a.7.7,0,0,0,.63-.28,1.62,1.62,0,0,0,.11-.76v-4.5a1.44,1.44,0,0,0-.14-.82.76.76,0,0,0-.6-.23h-.26v-.19h2.84a6.25,6.25,0,0,1,2.38.35,2.84,2.84,0,0,1,1.31,1.18,3.64,3.64,0,0,1,.5,1.91,3.49,3.49,0,0,1-.89,2.43,3.9,3.9,0,0,1-3,1.09Zm2-.51a5.3,5.3,0,0,0,1.1.14,2.61,2.61,0,0,0,2-.84,3.68,3.68,0,0,0,0-4.55,2.67,2.67,0,0,0-2-.83,4.41,4.41,0,0,0-1.06.15Z"/><path class="cls-4" d="M126.34,43.18a6.87,6.87,0,0,1-4.3-3.43,11.64,11.64,0,0,1-6.63,4.72c.46-1.91,1.22-5.06,1.63-6.75.57.19,1.07.41,1.69.58l1,.27,1.89-1.33a3.85,3.85,0,0,1,.07-1.59c.23-.7,2-1.61,2-1.61l.06-3.63-1.77,0c.37-1.52,1.89-7.81,2.18-9l5-3.37-9.77-2.09-.77.57-.81.6H109.1l.14-.58h-8.15l-1.62,6.7h-2c.49-2,1.66-6.9,1.66-6.9H91.84v0H83.67s-.19.77-.29,1.22H76.17S75,22.1,74.67,23.34H72.93l-1.86,0H64.18a29.58,29.58,0,0,0,.72-3.38l.32-2.38H55.91l-.23,1.85a33.54,33.54,0,0,1-.73,3.92H48.1l1-4.28h-.7L50,12.57s-1.52,0-2.25,0a43.21,43.21,0,0,0,3.62-2.44L39.27,8.3a19.64,19.64,0,0,1-3.66,4.28H34.08C34,11.51,33.34,9.76,30,9.36l-5.26-.56L24,9.59l-1.94,2.13,1.39.86h-4L18,19h-.61l-1.35,5.43h1.07S16.76,26,16.76,26h-.61l-.75,3.16c-.73,0-1.44.08-2.14.15a19.76,19.76,0,0,0-4.1,1.1,8.27,8.27,0,0,0-4.49,4.53,5,5,0,0,0,.2,3.91A7.25,7.25,0,0,0,9.42,42.4a17.09,17.09,0,0,0,12.15-1.51,13.58,13.58,0,0,0,3.15-2.49A56.26,56.26,0,0,1,29.95,42a65.06,65.06,0,0,1-7.41,4.4L25.39,49c9.3-2.28,13.3-5.23,16.61-8.6a18.58,18.58,0,0,0,1.89.17A46.64,46.64,0,0,1,39,44.86l2,1.88c7.05-2.42,7.85-1.91,14.56-8.2a8.43,8.43,0,0,0,5,4A20.67,20.67,0,0,0,65,43.4a4.8,4.8,0,0,0-.25,1.37,4.53,4.53,0,0,0,.67,2.33c1.42,2.29,4.82,3.7,10.13,4.18a36.31,36.31,0,0,0,18.6-3.23c1.58.85,3.3,1.77,5.29,2.69,4.33,2,19.39,7.58,31.53-4l3.12-3.27S128.38,43.77,126.34,43.18ZM71.28,38.34l-2.23,1A13.5,13.5,0,0,1,64.37,37c-3.09-2.28-2-6-1.93-6.06l.37-1.68,9.15.15.23-1.08h1.74C73.79,29,71.42,37.78,71.28,38.34Z"/><path class="cls-5" d="M113.22,54.36a34.6,34.6,0,0,1-14-3.15c-1.91-.89-3.57-1.76-5.1-2.59a36.69,36.69,0,0,1-18.62,3.17c-5.47-.5-9-2-10.52-4.42a5.06,5.06,0,0,1-.75-2.59,5.13,5.13,0,0,1,.11-.95H64.2A17.47,17.47,0,0,1,60.46,43l-.2-.08a8.76,8.76,0,0,1-4.74-3.58c-5.37,5-6.95,5.49-11.4,6.93-.84.27-1.79.58-2.89,1l-.29.1L38.2,44.77l.58-.35A47.6,47.6,0,0,0,42.73,41l-.55-.06c-3.54,3.55-7.78,6.37-16.67,8.55l-.26.06-3.61-3.22.67-.34a71.9,71.9,0,0,0,6.78-4c-1.5-1.14-2.94-2.14-4.3-3a13.88,13.88,0,0,1-3,2.28,18.21,18.21,0,0,1-8.52,2.1,13.87,13.87,0,0,1-4-.55,7.75,7.75,0,0,1-4.85-3.81,5.48,5.48,0,0,1-.23-4.31,8.76,8.76,0,0,1,4.75-4.82,20.11,20.11,0,0,1,4.27-1.15c.54-.05,1.15-.11,1.78-.14l.76-3.18h.61l.13-.52H15.42L17,18.5h.61l1.49-6.44h2.56l-.38-.24,3.2-3.57L30,8.85c3.3.39,4.26,2,4.5,3.22h.92a20,20,0,0,0,3.4-4L39,7.74l13.6,2.12-1,.73c-.06,0-1,.77-2.1,1.49H50l.67,0L49.06,18.5h.7l-1,4.28h5.81a33.8,33.8,0,0,0,.62-3.47L55.46,17H65.8l-.4,3a27.56,27.56,0,0,1-.57,2.8l9.44,0c.41-1.61,1.4-5.48,1.4-5.48l.1-.38H83l.2-.83.1-.39h9.27v0h7.2l-.15.63s-1,4-1.51,6.27h1l1.62-6.7h9.21l-.14.57h8l1.62-1.21,11.18,2.4-1,.67-4.87,3.26c-.34,1.42-1.49,6.18-2,8.23l1.13,0h.51l-.07,4.45-.28.14a4.93,4.93,0,0,0-1.78,1.32,3.29,3.29,0,0,0-.06,1.34l.05.32-2.35,1.65-1.22-.34c-.41-.11-.77-.24-1.14-.38l-.05,0c-.28,1.13-.64,2.65-1,4.05l-.31,1.29a11.44,11.44,0,0,0,5.5-4.27l.51-.81.39.87a6.31,6.31,0,0,0,4,3.14,18.14,18.14,0,0,0,4.23.33c1.75,0,3.31-.09,3.32-.09l1.29-.07-4,4.21a25.39,25.39,0,0,1-18.09,7.29ZM94.14,47.48l.22.12c1.58.85,3.29,1.76,5.27,2.68a34.08,34.08,0,0,0,13.59,3.06,24.39,24.39,0,0,0,17.37-7L132.82,44c-.59,0-1.33,0-2.11,0a18.66,18.66,0,0,1-4.52-.37,7.6,7.6,0,0,1-4.21-3A11.89,11.89,0,0,1,115.51,45l-.81.18.71-2.95c.4-1.64.83-3.46,1.12-4.61l.13-.54.52.18.61.22c.34.12.67.25,1.05.35l.76.21,1.44-1a3.85,3.85,0,0,1,.13-1.51c.24-.71,1.39-1.42,2-1.76l0-2.82-1.25,0h-.65l.15-.63c.37-1.51,1.89-7.8,2.19-9l0-.2.17-.11,4-2.7-8.36-1.79L118,17.57h-9.59l.13-.58h-7.11l-1.62,6.7H96.77l.15-.63,1.51-6.27-14.36,0-.2.83-.09.39H76.57c-.29,1.13-1.15,4.45-1.4,5.48l-.1.39-11.56,0,.17-.64a28.82,28.82,0,0,0,.71-3.31L64.63,18H56.36l-.18,1.4a33.81,33.81,0,0,1-.74,4l-.1.39h-7.9l1-4.28h-.7l1.55-6.42-1.59,0h-2l1.72-1c.77-.43,1.81-1.14,2.57-1.68L39.52,8.85A18.62,18.62,0,0,1,35.91,13l-.13.1H33.61l0-.47c-.08-1.07-.78-2.41-3.66-2.75l-5-.53-.51.59L22.89,11.6l2.4,1.48H19.94l-1.5,6.44h-.62l-1.1,4.41h.94v.52a13.78,13.78,0,0,1-.4,1.66l-.1.39h-.6l-.75,3.15h-.39c-.73,0-1.47.09-2.1.15a19.43,19.43,0,0,0-4,1.07A7.72,7.72,0,0,0,5.16,35.1a4.46,4.46,0,0,0,.17,3.51,6.76,6.76,0,0,0,4.24,3.29,13,13,0,0,0,3.72.5,17.13,17.13,0,0,0,8-2,13.07,13.07,0,0,0,3-2.39l.28-.29L25,38a56.87,56.87,0,0,1,5.29,3.67l.53.41-.53.4a59.17,59.17,0,0,1-6.82,4.1l2.1,1.87c8.63-2.15,12.68-4.91,16.1-8.4l.18-.18.26,0c.79.11,1.43.15,1.83.17l1.14,0-.79.82a48.79,48.79,0,0,1-4.41,4l1.35,1.26c1-.34,1.84-.61,2.61-.86,4.53-1.46,5.9-1.9,11.47-7.13l.47-.44.32.56A7.76,7.76,0,0,0,60.62,42l.19.07a16.57,16.57,0,0,0,3.52.76l.72.1.59.09-.19.57a4.28,4.28,0,0,0-.22,1.22,4,4,0,0,0,.6,2c1.33,2.14,4.61,3.47,9.75,3.94A35.66,35.66,0,0,0,93.9,47.59l.23-.11Zm-25-7.56-.19-.06A14,14,0,0,1,64,37.43a6.15,6.15,0,0,1-2.09-6.56h0l.46-2.08,9.15.14.23-1.07h2.81l-.15.63c-.07.3-.72,2.74-1.36,5.14s-1.22,4.56-1.28,4.84l-.06.24-2.63,1.21ZM62.9,31.19a5.16,5.16,0,0,0,1.77,5.44A13.08,13.08,0,0,0,69,38.82L70.85,38c.18-.7.7-2.64,1.23-4.62l1.19-4.48H72.6L72.37,30l-9.15-.14-.31,1.37Z"/><path class="cls-5" d="M47.81,32.06l1.09-2.63h3.86a24.47,24.47,0,0,1-5.52,8.13s-2-.93-2.1-1A31.76,31.76,0,0,0,47.81,32.06Z"/><path class="cls-5" d="M41.76,38.26A28.44,28.44,0,0,1,27,46.91a31.91,31.91,0,0,0,6.87-4.73,58.52,58.52,0,0,0-9-6.35,12.57,12.57,0,0,1-3.73,3.36C16.91,41.53,9.26,42,7.29,38c-.87-1.72.32-4.2,3.45-5.61h0c3-1.34,7.38-1.36,12.08-.21.29-.71.53-1.43.75-2.13H17.91l.44-1.86h5.76c.18-.74.31-1.38.39-1.86l-1.68,0H21.35l-2-.08V26q4.14-.79,6.28-1.31c1.43-.35,3.11-.87,5.05-1.56H19.18l.44-1.86H30.86L31.16,20H21.3l.44-1.87h9.87l.34-1.44H21.3l.45-1.86h6.9a2.26,2.26,0,0,1-.42-.38,8.61,8.61,0,0,1-.49-1.14A4.19,4.19,0,0,0,25.9,11.4l.23-.24q1.79.15,4.13.43c1.55.19,2.32.68,2.27,1.46a2.38,2.38,0,0,1-.77,1.79H37a22.31,22.31,0,0,0,1.87-1.7,27.83,27.83,0,0,0,1.91-2.45l6.21.8c-1.49.83-2.78,1.47-3.88,1.94a41,41,0,0,1-3.91,1.41h8.68l-.45,1.86H36.64l-.35,1.44h9.77L45.62,20H35.86l-.3,1.26H47l-.44,1.86H31.68l1.81,2.46c-1,.18-3.32.52-4.28.6h0c-.11.45-.3,1.16-.59,2.05h4.75A14.74,14.74,0,0,1,34,23.91h4a15.22,15.22,0,0,0-.61,4.33h8L45,30.11H37.58a9.75,9.75,0,0,0,2.21,5.07,27.77,27.77,0,0,0,1.94-3.77h4.67a25.74,25.74,0,0,1-3.86,6,13.41,13.41,0,0,0,3.13,1.24A15.42,15.42,0,0,1,41.76,38.26Z"/><path class="cls-5" d="M42.87,25.18a1.78,1.78,0,0,1-.77,1.44,2.52,2.52,0,0,1-1.56.44,1.46,1.46,0,0,1-1.16-.43,4.22,4.22,0,0,1-.53-1.26,2.39,2.39,0,0,0-.68-1.24l-.67-.56.18-.25c.64,0,1.22,0,1.72.07a11.62,11.62,0,0,1,2.15.45C42.48,24.09,42.92,24.55,42.87,25.18Z"/><path class="cls-4" d="M11.69,34.9a2.49,2.49,0,0,0-1.41,2.52c.29,1.63,3.78,3,7.57,1.19a6.67,6.67,0,0,0,2.68-2.88C17,34.22,13.89,33.81,11.69,34.9Z"/><path class="cls-5" d="M17.17,36.69a4.57,4.57,0,0,1-4.7.22l.07-.06C13.09,36.2,15.36,35.61,17.17,36.69Z"/><path class="cls-4" d="M33.53,32.95a9.87,9.87,0,0,1-.6-2.24H27.4a29.18,29.18,0,0,1-1.5,3.21A38.12,38.12,0,0,1,36.36,39.7c.54-.62,1.07-1.28,1.58-2A9,9,0,0,1,33.53,32.95Z"/><path class="cls-5" d="M28.85,32.82h2.4c.1.3.2.61.32.92s.17.35.26.53C30.85,33.74,29.86,33.25,28.85,32.82Z"/><polygon class="cls-6" points="118.24 20.89 113.97 20.89 113.3 23.73 117.56 23.73 118.24 20.89"/><polygon class="cls-7" points="112.21 28.21 116.48 28.21 117.14 25.45 112.87 25.45 112.21 28.21"/><polygon class="cls-8" points="90.37 27.2 87.04 27.2 85.31 34.38 88.63 34.38 90.37 27.2"/><path class="cls-9" d="M91.64,44.33a26.34,26.34,0,0,0-9.07-3.06c-4.71-.61-10.17,0-10.65,1.72-.38,1.39,1.54,2.73,7.35,3.4A21.54,21.54,0,0,0,91.64,44.33Z"/><path class="cls-5" d="M82.3,43a40.91,40.91,0,0,1,4.47,1.23,29.43,29.43,0,0,1-7.33.35,17.26,17.26,0,0,1-4.19-1.14C76.54,43,78.26,42.43,82.3,43Z"/><polygon class="cls-10" points="110.14 20.89 106 20.89 105.32 23.73 109.45 23.73 110.14 20.89"/><path class="cls-5" d="M104.18,44.3l-2.53-1a27.52,27.52,0,0,0,7.11-8.54l.5-1,.49-.25L107,45.12A17.78,17.78,0,0,1,104.18,44.3Z"/><polygon class="cls-11" points="104.24 28.21 108.37 28.21 109.04 25.45 104.9 25.45 104.24 28.21"/><path class="cls-5" d="M122,42.9a17.18,17.18,0,0,1-18.61,3.63c-2.25-.87-4.25-1.63-6.1-2.29a27.3,27.3,0,0,0,9.56-10.14l-3.44,0c1.09-.33,2.11-.68,3.07-1.08a31.59,31.59,0,0,0,4-2.05,8.5,8.5,0,0,0,1.12,1.74,8.84,8.84,0,0,0,1.85,1.46h-1.62l-2.42,10h4l2.16-9a27.38,27.38,0,0,0,3.75,1.28l.32-.23,0-.47a1.4,1.4,0,0,1,.16-.7,4.23,4.23,0,0,1,.57-1,3,3,0,0,1,.67-.69,8.17,8.17,0,0,1,.72-.42v-.3a30.9,30.9,0,0,1-5.46-.48,8.58,8.58,0,0,1-2.89-1c-.52-.35-1.05-.73-1.6-1.15H116l-.23,1h3.88l2.61-10.83,1.58-1.05-4-.85-1.36,1H106.35l.13-.57h-3.82l-3,12.26h3.82l.23-.94H106a30.85,30.85,0,0,1-3.67,2.44A28.66,28.66,0,0,1,96,35.2l0,.33a49.16,49.16,0,0,0,5.44-.85l.41-.12a26,26,0,0,1-7.82,8.55A58.49,58.49,0,0,0,81.8,40.23a31.42,31.42,0,0,0-5-.17l3-12.6h3.3l-2.65,11h3.84l.47-2h3.33l-.48,2h3.91l2.66-11H98l.46-1.91H94.67l1.67-6.9H92.42l-1.67,6.9H87.44l1.66-6.93H85.26l-1.67,6.93H80.28l1.38-5.71h-3.9l-1.38,5.71H73.91l-.46,1.91h2.48L72.77,40.55a14,14,0,0,0-3.23,1.06c-5.66-1.28-9.05-4.39-9.47-7.15a14,14,0,0,1,1-6.92h9.45l.45-1.92H61.31a31.85,31.85,0,0,0,1.52-5.77h-5a34.12,34.12,0,0,1-1.2,5.77H47.1l-.46,1.92h9.3A33.16,33.16,0,0,1,42,44.63a26,26,0,0,0,14-9.18c0,.06,0,.13.06.19,2,5.46,8.88,6.36,12.72,6.42a7.53,7.53,0,0,0-1.24,1,2,2,0,0,0-.56,1c-1,2.57,1.93,4.78,8.7,5.4A34.09,34.09,0,0,0,94.18,46c1.81,1,3.76,2.05,6,3.1,8.43,3.87,20.23,4.94,29.19-3.63C129.42,45.46,123.83,46.29,122,42.9Z"/><path class="cls-5" d="M97.75,36.85a29.31,29.31,0,0,1-4,3.67,3.42,3.42,0,0,1-.51-.21s.32-1.29.73-3Z"/><path class="cls-5" d="M97.26,32.3c-.59.2-1.14.43-1.8.62L95,33c.38-1.57.72-3,.9-3.74h2Z"/><polygon class="cls-4" points="117.86 20.85 113.59 20.85 112.91 23.68 117.17 23.68 117.86 20.85"/><polygon class="cls-4" points="111.83 28.16 116.09 28.16 116.76 25.4 112.49 25.4 111.83 28.16"/><polygon class="cls-4" points="89.99 27.15 86.66 27.15 84.93 34.33 88.25 34.33 89.99 27.15"/><path class="cls-4" d="M91.26,44.28a26.39,26.39,0,0,0-9.07-3.06c-4.71-.61-10.17,0-10.65,1.72-.38,1.39,1.54,2.73,7.35,3.4A21.55,21.55,0,0,0,91.26,44.28Z"/><path class="cls-5" d="M81.92,43a41.37,41.37,0,0,1,4.47,1.23,29.21,29.21,0,0,1-7.33.34,17.07,17.07,0,0,1-4.19-1.14C76.16,42.95,77.88,42.38,81.92,43Z"/><polygon class="cls-4" points="109.76 20.85 105.62 20.85 104.94 23.68 109.07 23.68 109.76 20.85"/><polygon class="cls-4" points="103.86 28.16 107.99 28.16 108.66 25.4 104.52 25.4 103.86 28.16"/><polygon class="cls-4" points="74.65 27.47 71.83 27.47 71.83 27.55 61.44 27.55 61.44 29.43 71.88 29.43 71.97 29.18 74.65 29.18 74.65 27.47"/><polygon class="cls-4" points="75.61 28.77 74.05 28.3 71.33 39.37 72.95 39.8 75.61 28.77"/></svg>