<svg id="圖層_1" data-name="圖層 1" xmlns="http://www.w3.org/2000/svg" viewBox="0 0 499.75 463.29"><defs><style>.cls-1{fill:#d05351;}.cls-2{fill:#a53226;}.cls-3{fill:#fff;}.cls-4{fill:#f4f4d2;}.cls-5{fill:#ce4c45;}.cls-6{fill:#c9a63e;}.cls-7{fill:#aa4c39;}.cls-8{fill:#fefefe;}.cls-9{fill:#100808;}.cls-10{fill:none;stroke:#000;stroke-miterlimit:10;stroke-width:5px;}.cls-11{fill-rule:evenodd;}</style></defs><title>chicken</title><path d="M493.37,363.44c.33.68,1,1.4.93,2-.31,2.47.81,5.5-3,6.92q.73-4.32,1.46-8.65Z"/><path d="M487.88,365.9c.27.78.85,1.58.77,2.32-.26,2.76-1.89,4.81-4,5.14.88-2.47,1.73-4.85,2.58-7.23Z"/><path d="M467.81,238.37c2,5.46-3,8.85-12.88,8.45.18,3.82-.24,7.75.65,11.36,2,8.12-5,11.84-11.24,11.36-3.15-.24-6.27-1.63-9.25-2.88a5.06,5.06,0,0,1-1.83-8c4-4.09,7.33-7,14-4.37,2.53,1,3.14-.28,2.91-2.58-.35-3.6-.55-7.22-.94-10.82-.27-2.6.77-3,2.88-2a8.83,8.83,0,0,1,1.75.91c4.16,3.32,8.1,2.46,12-.49A10.72,10.72,0,0,1,467.81,238.37Z"/><path d="M437,417.23c-2.6-5.21-2.06-9.75.44-13.75a63,63,0,0,1,8.05-10c2.46-2.57,5.61-4.48,8.17-7,5-4.81,9-10.15,8.7-17.66-.2-4.63-.75-9.23-3.26-13.14A16.34,16.34,0,0,0,442.9,348a16.15,16.15,0,0,0-10.4,5.35c-1.73,1.93-1.28,4.2-2,6.22-.3.8-1.28,1.36-1.95,2a24.51,24.51,0,0,1-1.78-2c-.2-.28,0-.82-.17-1.17-1.12-2.63-1.75-5.72-3.56-7.76-4.71-5.32-10.5-8.33-18-5.89-4.59,1.51-8.63,3.9-10.55,8.41A71.73,71.73,0,0,0,389.1,371a19.42,19.42,0,0,0,2.27,13.19c3.47,5.8,6.82,11.8,12.24,16.14,4.91,3.93,9.5,8.32,15.74,10.31,2.6.84,4.9,2.63,7.48,3.58C429.91,415.42,433.16,416.14,437,417.23Zm4.43,2.81a3.06,3.06,0,0,1-2.33.59,100.46,100.46,0,0,1-15-3.91c-6.56-2.19-12.08-6.14-18.21-9a9.1,9.1,0,0,1-2.1-1.59c-1.49-1.34-2.77-1.24-3.05.65-.7,4.75-1.19,9.59,1.8,13.91.41.59,1.09,1.1,1.23,1.74a6,6,0,0,1-.36,2.16,5,5,0,0,1-1.64-.52,10.21,10.21,0,0,1-4.07-7.57c-.18-2.4-.8-4.79-.7-7.16a10.54,10.54,0,0,1,1.65-4.83c1-1.65,1-2.66-.47-4-6.82-6.2-10.46-14.29-12.64-23-.71-2.83-.19-6.05.17-9,.28-2.24-.23-3.48-2.32-4.46-6.49-3-9.6-8.35-9.87-15.43,0-.24-.11-.54,0-.71.71-1.14,1.46-2.26,2.19-3.38a12.29,12.29,0,0,1,.81,3.21,14.46,14.46,0,0,0,4.79,11.12c1.39,1.33,3.5,1.9,5.08,2.72,1.61-3.32,2.94-6.12,4.32-8.88,4.3-8.63,11.87-12.37,20.93-12.44,6,0,10.91,3.34,14.18,8.62.7,1.14,1.42,2.27,2.39,3.81,2.95-4.56,7.44-6.06,11.93-7.37,5.25-1.53,10.45-1.62,15.11,1.92,2,1.54,4.12,3,6,4.74a15.62,15.62,0,0,1,5.14,13.18,2.91,2.91,0,0,0,0,.72q.48,2.12,1,4.23c1.94-.5,4.33-.47,5.71-1.63,1.87-1.58,3-4.08,4.43-6.18.65-.94,1.33-1.87,2-2.81h.78c.26.75.94,1.67.72,2.23-2.19,5.49-4.54,11-11.55,11.64a3.51,3.51,0,0,0-3.53,3.1c-1.15,5.12-4.36,8.8-8.52,11.78-1.09.78-2.08,1.69-3,2.46.4.61.49.85.56.85,4.24-.26,6.68,2.6,9.18,5.3,1,1.11,2,2.29,2.93,3.48.27.34.56,1,.4,1.24-.28.38-1,.85-1.33.72a20.82,20.82,0,0,1-4.83-2.57c-2.68-2.21-5.19-4.44-9-4.46a8.9,8.9,0,0,0-6.8,3c-3.18,3.44-5.85,7.27-6.33,12.1a14.58,14.58,0,0,0,.68,4.86c.25,1,1.06,1.8,1.42,2.76C441.51,418.58,441.75,419.71,441.41,420Z"/><path d="M445.91,364.42c1.43,0,2.63,1.78,2.46,3.53a2.21,2.21,0,0,1-2.62,2.14c-1.62-.07-2.49-1.17-2.37-3.08A2.32,2.32,0,0,1,445.91,364.42Z"/><path d="M416.87,382.14c3.45,1.65,6.62.85,9.94-.12s6-2.46,7.71-5.53a10.67,10.67,0,0,0,.68-1.27c1.58-4,2.32-4.2,5.53-1.33,5,4.53,5.59,10.07,1.51,15.36-2.66,3.46-9.47,3.46-12.26-.21-1.35-1.79-2.62-2.54-4.93-2.29a19.79,19.79,0,0,1-13.93-3.32,5,5,0,0,1-1.31-7.34C411.19,379.3,413.92,380.73,416.87,382.14Zm19.93,6.46c-1.06-4.36-2.66-5.09-5.81-2.8Zm3.11-3.46c2.42-2.08,2-4.6-1.12-6.95l-2.46,3.38c.73.61,1.36,1.09,1.91,1.64S439.28,384.39,439.9,385.13Z"/><path class="cls-1" d="M438.79,378.19c3.08,2.35,3.53,4.86,1.12,6.95-.63-.74-1.1-1.37-1.66-1.93s-1.19-1-1.91-1.64Z"/><path class="cls-1" d="M431,385.79c3.15-2.29,4.75-1.56,5.81,2.8Z"/><path class="cls-2" d="M411,364c0-2.16-.68-3-2.47-3a3.43,3.43,0,0,0-3.77,3.66c0,2.17,1.1,3.35,3.14,3.32S411,366.67,411,364Zm-6-19.26c7.45-2.45,13.24.57,18,5.89,1.81,2,2.44,5.13,3.56,7.76.15.35,0,.89.17,1.17a24.51,24.51,0,0,0,1.78,2c.67-.66,1.65-1.22,1.95-2,.77-2,.32-4.3,2-6.22A16.15,16.15,0,0,1,442.9,348a16.34,16.34,0,0,1,16.19,7.68c2.51,3.9,3.06,8.51,3.26,13.14.31,7.52-3.74,12.85-8.7,17.66-2.56,2.48-5.71,4.39-8.17,7a63,63,0,0,0-8.05,10c-2.51,4-3,8.55-.44,13.75-3.82-1.09-7.07-1.81-10.16-3-2.58-1-4.88-2.75-7.48-3.58-6.24-2-10.82-6.38-15.74-10.31-5.41-4.34-8.76-10.33-12.24-16.14A19.42,19.42,0,0,1,389.1,371a71.73,71.73,0,0,1,5.39-17.85C396.42,348.68,400.45,346.29,405,344.78Zm35.68,29.1c-3.21-2.87-3.94-2.69-5.53,1.33a10.67,10.67,0,0,1-.68,1.27c-1.69,3.06-4.47,4.57-7.71,5.53s-6.49,1.78-9.94.12c-2.94-1.41-5.68-2.84-7.07-6.06a5,5,0,0,0,1.31,7.34A19.79,19.79,0,0,0,425,386.74c2.32-.26,3.58.5,4.93,2.29,2.79,3.68,9.6,3.67,12.26.21C446.31,383.95,445.77,378.41,440.72,373.88Zm7.64-5.93c.18-1.74-1-3.51-2.46-3.53a2.32,2.32,0,0,0-2.53,2.58c-.12,1.92.75,3,2.37,3.08A2.21,2.21,0,0,0,448.36,367.95Z"/><path d="M411,364c0,2.63-1,3.92-3.1,4s-3.16-1.15-3.14-3.32a3.43,3.43,0,0,1,3.77-3.66C410.34,361,411,361.88,411,364Z"/><path d="M381.77,391.32c-3.79,1.23-6.17-2.57-7-5.68a19.35,19.35,0,0,1-.45-5c0-.54.82-1.06,1.26-1.6.43.45,1.14.85,1.23,1.36.24,1.31,0,2.71.33,4,.52,2.29,1.42,4.4,3.79,5.5C381.33,390.08,381.46,390.76,381.77,391.32Z"/><path class="cls-3" d="M364.46,218.67c-2.14,1.83-3.22,1.38-3.7-1.38-.79-4.49-1.51-9-2.33-14,.28-.33.63-1.15,1.15-1.27,8.59-2.1,12.26-8.28,13.93-16.32a62.81,62.81,0,0,1,2.75-8.75c1.56-4.25,5.08-4.91,9.16-4.07,2.78.57,4.27,4.1,3.61,7.89-2.09,12-8.2,21.89-16.54,30.51C370,213.9,367.22,216.31,364.46,218.67Z"/><path d="M377.07,393.52c-2.12,1.18-3.66.06-5.14-.6-2.49-1.1-3.14-3.63-4-5.91-.13-.34.4-1.3.64-1.31.5,0,1.34.3,1.49.68C371.31,389.7,373.85,391.76,377.07,393.52Z"/><path class="cls-4" d="M285.07,312.2c9.7.72,17-4.11,24.73-8.1,8-4.15,16.45-7.5,24.37-11.8,9.93-5.39,19.54-11.39,29.28-17.13,1.15-.68,2.3-1.38,3.68-2.2.58,3.27,1.09,6.27,1.66,9.27a50.49,50.49,0,0,0,1.22,5.62,6.92,6.92,0,0,1-2.24,7.93c-4.72,3.77-9.55,7.48-14.61,10.77-16,10.35-33.4,17.65-51.11,24.38-1.58.6-3.22,1.09-4.84,1.59a2.69,2.69,0,0,1-3.47-1.36C290.85,325,288.07,318.81,285.07,312.2Z"/><path class="cls-5" d="M286,307.18c-2,.66-2.94.09-3-2.55a8.54,8.54,0,0,1,2.26-1.68c3.74-1.36,7.56-2.47,11.31-3.77,14-4.86,26.86-11.91,39.54-19.45,8.31-4.95,16.89-9.44,25.38-14.07a2.9,2.9,0,0,1,2.27-.06c.31.14.46,1.42.2,1.93a7.45,7.45,0,0,1-2.15,2.73,254.15,254.15,0,0,1-35.58,19.79C313,296.23,299.81,302.52,286,307.18Z"/><path class="cls-5" d="M359.87,234a3.72,3.72,0,0,1,4.06,2c1.43,3.08.36,7.47-2.85,10.65-1.17-3.05-2.33-5.86-3.32-8.74A3.27,3.27,0,0,1,359.87,234Z"/><path class="cls-5" d="M349.73,226.13c1.44-.83,2.83-1.27,4.38-.35A2.91,2.91,0,0,1,353,229.3c-4.54,3.45-9,7-13.55,10.45-8,6.16-17.09,10.39-26.44,14.13-13.84,5.54-27.59,11.26-41.53,17l-2-7.42c3.45-1.12,6.81-2.17,10.13-3.31,8.78-3,17.74-5.62,26.26-9.27,6.63-2.83,12.7-7,19-10.54Q337.32,233.25,349.73,226.13Z"/><path class="cls-4" d="M355.88,253.55c-2.11,1.52-4.41,2.78-7,4.38-.88-3.86-1.73-7.26-2.42-10.69-.8-4-.74-4,2.74-6.26l5-3.12c1.86,3.53,3.75,6.76,4,10.67A5.5,5.5,0,0,1,355.88,253.55Z"/><path class="cls-4" d="M348.33,194.44c1.3,4.18,2.62,8.29,3.87,12.41.63,2.11,1.11,4.26,1.71,6.37a5.2,5.2,0,0,1-1.64,5.63,43.86,43.86,0,0,1-7,5.6c-15.72,8.91-31.35,18.09-48.19,24.8-9.42,3.75-19.1,6.81-29,10.29-2.26-6.52-4.35-12.46-6.32-18.46-.12-.39.69-1.42,1.27-1.67,6.64-2.88,13.35-5.62,20-8.5,22.65-9.82,44.54-21,64.31-35.95A7.89,7.89,0,0,1,348.33,194.44Z"/><path class="cls-4" d="M281.35,300.16a2.47,2.47,0,0,1-1.24.23c-.41-.08-1-.36-1.09-.67s.3-.89.63-1.08a26.41,26.41,0,0,1,4-2c20.1-7.05,38.28-17.81,56.27-29,6.47-4,13.1-7.76,19.73-11.68,2.54,3.23,2.33,4.56-.79,6.21-19.25,10.18-38.42,20.53-57.83,30.4C294.8,295.79,287.93,297.69,281.35,300.16Z"/><path class="cls-5" d="M304.57,342.29c-2.83.57-4.73-1.06-6.29-5.08,26.4-8.88,50.79-21.34,72.44-38.92a8.53,8.53,0,0,1-1.35,9.9c-7.85,8.58-17.74,14.3-27.67,19.91a175.26,175.26,0,0,1-21,10.38C315.64,340.5,310,341.19,304.57,342.29Z"/><path class="cls-4" d="M338.9,164.6c1.66,4.07,3.43,7.93,4.73,11.94.32,1-.54,2.9-1.47,3.63-15.53,12.23-31.49,23.77-49.69,31.87-10.25,4.56-20.38,9.41-30.57,14.11-1.09.5-2.24.86-3.7,1.42-.4-3.82-.87-7.35-1.12-10.9-.22-3,.94-4.67,3.72-5.75,17.6-6.86,33.65-16.63,49.69-26.43,9.27-5.65,18.42-11.42,26.62-18.57C337.6,165.51,338.14,165.16,338.9,164.6Z"/><path class="cls-5" d="M342.88,244.67c.91,4,1.84,7.64,2.5,11.32a3.67,3.67,0,0,1-1,2.86,27.75,27.75,0,0,1-5.42,3.94c-1.6.86-3,0-3.35-1.76a73.37,73.37,0,0,1-1.27-8.83,4.09,4.09,0,0,1,1.44-3C337.86,247.57,340.24,246.3,342.88,244.67Z"/><path d="M333,348.59c-.91,1.08-1.84,2.15-2.78,3.21a32.36,32.36,0,0,0-5-1.25c1.2-1.15,2.4-2.3,3.53-3.56C330.12,347.49,331.55,348,333,348.59Z"/><path class="cls-4" d="M330.77,252.28c.68,3.69,1.51,7.35,2,11.06.39,3.05-1.24,4.65-5.37,5.63-.79-3.34-1.69-6.67-2.34-10C324.11,254.06,324.4,253.81,330.77,252.28Z"/><path class="cls-3" d="M332.51,341.44a24.33,24.33,0,0,1-3.84,5.56l-1.33-.44a17.42,17.42,0,0,0-4.59-.86c1.95-.83,3.88-1.73,5.82-2.6C329.77,342.55,331,342.07,332.51,341.44Z"/><path class="cls-6" d="M362.52,376.62c.17.24.08.65.15,1.59-2-.66-3.94-.87-5.36-1.84-3.63-2.49-7.06-5.29-10.54-8A33.7,33.7,0,0,0,327.28,361c-1.58-.09-3.16-.17-4.74-.24l.82-1c2.19-2.73,4.53-5.35,6.84-8,2.26.75,4.47,1.67,6.7,2.6a55.43,55.43,0,0,1,18.58,12.35C358.25,369.62,360.21,373.29,362.52,376.62Z"/><path d="M322.76,345.7a46.24,46.24,0,0,1-9.62,3.12A14.43,14.43,0,0,1,322.76,345.7Z"/><path d="M343.57,371.86c-4-3.78-14-5.45-19.59-5.26a46.69,46.69,0,0,1-6.42-.76,50.45,50.45,0,0,0,5-5.06c1.58.07,3.16.15,4.74.24a33.7,33.7,0,0,1,19.49,7.31c3.47,2.73,6.9,5.53,10.54,8,1.42,1,3.36,1.18,5.36,1.84-.07-.94,0-1.35-.15-1.59-2.3-3.32-4.26-7-7.05-9.85a55.43,55.43,0,0,0-18.58-12.35c-2.22-.93-4.44-1.86-6.7-2.6.93-1.06,1.86-2.13,2.78-3.21,1.26.51,2.5,1.06,3.71,1.66,4.7,2.31,9.23,4.95,13.85,7.42A29.52,29.52,0,0,1,363,370.57c1,2,2.41,3.86,3.63,5.78,1.83,2.87,1.17,5.5-1.64,6.37a3.06,3.06,0,0,1-1.46.09c-5.52-1.11-10.73-2.91-15-6.83C346.91,374.55,345.13,373.33,343.57,371.86Z"/><path class="cls-3" d="M316,352.63a8.16,8.16,0,0,1,6.63-2.34,23.41,23.41,0,0,1,2.53.27c-.66.62-1.31,1.24-2,1.87-2.46,2.41-5,4.76-7.53,7a4.21,4.21,0,0,1-1.22-1.63C313.58,355.87,314.56,354.11,316,352.63Z"/><path d="M319.36,360.66a6.07,6.07,0,0,1-3.7-1.19c2.56-2.28,5.07-4.63,7.53-7,.65-.63,1.3-1.25,2-1.87a32.36,32.36,0,0,1,5,1.25c-2.31,2.64-4.65,5.26-6.84,8l-.82,1Z"/><path class="cls-5" d="M321.21,273.71c-2,1.24-4.2,2.32-6.49,3.56-1.24-5.26-2.48-10.28-3.6-15.33a2.08,2.08,0,0,1,.65-1.81c3.05-1.48,6.18-2.81,9.56-4.31.77,4.44,1.63,8.66,2.17,12.91A4.9,4.9,0,0,1,321.21,273.71Z"/><path class="cls-3" d="M315.66,359.47q-2.18,1.94-4.41,3.81c-2.62-2.27-3.57-9-1.23-11.57a21.94,21.94,0,0,1,3.11-2.9,46.24,46.24,0,0,0,9.62-3.12,17.42,17.42,0,0,1,4.59.86l1.33.44c-1.13,1.26-2.33,2.41-3.53,3.56a23.41,23.41,0,0,0-2.53-.27,8.16,8.16,0,0,0-6.63,2.34c-1.43,1.48-2.41,3.24-1.55,5.21A4.21,4.21,0,0,0,315.66,359.47Z"/><path d="M311.78,363.66a3.61,3.61,0,0,1-.52-.38q2.23-1.87,4.41-3.81a6.07,6.07,0,0,0,3.7,1.19l3.17.13a50.45,50.45,0,0,1-5,5.06A19,19,0,0,1,311.78,363.66Z"/><path class="cls-4" d="M307.92,261.57c1,5,2,9.73,2.87,14.54a4.43,4.43,0,0,1-1.93,4.67C307,282,305,283,302.81,284.26c-1.2-4.57-2.47-9-3.48-13.46-1.06-4.66-2.13-4.61,3.51-7Z"/><path class="cls-5" d="M296.09,287.22c-1.6.48-3.22.88-5,1.36-1.15-5.28-2.32-10.3-3.32-15.36-.56-2.88.51-4.33,3.3-4.9a12.62,12.62,0,0,1,3-.37,1.69,1.69,0,0,1,1.26.93c1.24,4.65,2.46,9.3,3.53,14C299.42,285.51,298.74,286.43,296.09,287.22Z"/><path d="M196.24,171.41c1.07,0,2.13,0,3.19-.1q2.1-.13,4.17-.42l1-.15c.69-.11,1.36-.23,2-.36s1.35-.28,2-.43a91.3,91.3,0,0,0,19.43-7.3c16.25-8,32.47-16,48.91-23.6,5-2.32,10.74-3.2,16.19-4.59,1.74-.45,2.69.65,2.81,2.84.54,9.58-2.9,17.35-10.8,22.91a100,100,0,0,1-33.36,15c-8.76,2.21-17.73,3.62-26.6,5.41-2.44.5-4.84,1.3-7.31,1.58-5.24.6-10.5.94-15.76,1.43a7.08,7.08,0,0,0-1.78.69c.56.43,1.06,1.11,1.69,1.26,2.3.54,4.74.48,6.68,2.3s2,3.92,1.64,6.12c-.31,2-1.94,2.75-3.76,3.35a18.19,18.19,0,0,1-14.53-.89,9.72,9.72,0,0,1-3.19-2.44c-2.27-2.88-4.15-6-3.72-9.91.32-2.9.49-5.84,1.06-8.69s1.62-3.61,4.6-3.8c.93-.06,1.86-.08,2.78-.11ZM291,142a9.36,9.36,0,0,0-8.42.36c-1.33.66-2.8,1.05-4.12,1.73-14.12,7.23-28.15,14.65-42.37,21.69-6.8,3.36-13.72,6.83-21,8.79-7.5,2-15.47,2.26-23.26,3.23-1.38.18-2.34.54-2.2,2.2a7.44,7.44,0,0,1-.16,1.92c-1.45,7.94,8.78,14.71,15.6,11.47.5-.24,1.27-.86,1.21-1.15a2.28,2.28,0,0,0-1.17-1.54,16.05,16.05,0,0,0-4.18-.79c-4.77-.18-6.24-1.47-6.75-6.13-.27-2.47.87-3.68,3.34-4,4.87-.55,9.76-1.06,14.57-1.93,6.32-1.14,12.53-3,18.88-3.84,11.91-1.57,23.55-4.11,34.6-8.81a119.85,119.85,0,0,0,18-9.21C288.36,152.93,291.51,148.22,291,142Z"/><path class="cls-6" d="M205.11,193.38c-6.82,3.25-17-3.53-15.6-11.47a7.44,7.44,0,0,0,.16-1.92c-.14-1.66.82-2,2.2-2.2,7.78-1,15.76-1.22,23.26-3.23,7.26-2,14.18-5.42,21-8.79,14.22-7,28.25-14.46,42.37-21.69,1.32-.68,2.79-1.07,4.12-1.73A9.36,9.36,0,0,1,291,142c.48,6.24-2.66,10.94-7.44,14a119.85,119.85,0,0,1-18,9.21c-11.05,4.7-22.69,7.24-34.6,8.81-6.35.84-12.56,2.71-18.88,3.84-4.81.87-9.7,1.37-14.57,1.93-2.47.28-3.6,1.49-3.34,4,.51,4.67,2,6,6.75,6.13a16.05,16.05,0,0,1,4.18.79,2.28,2.28,0,0,1,1.17,1.54C206.38,192.52,205.61,193.14,205.11,193.38Z"/><path class="cls-4" d="M286.25,290.92a27.23,27.23,0,0,1-6.58,1.86c-.54.07-1.65-1.63-1.93-2.67-1.15-4.24-2.06-8.54-3.13-13.1l9.66-4.52c1,5.62,1.89,10.87,2.69,16.13C287.08,289.37,286.73,290.73,286.25,290.92Z"/><path class="cls-5" d="M271.69,278.44c1.1,5.46,2.17,10.85,3.32,16.58-2,.45-3.61.9-5.28,1.16a2.44,2.44,0,0,1-3-2.08q-1-5.68-1.61-11.42a3.09,3.09,0,0,1,2.71-3.52C269,278.9,270.18,278.72,271.69,278.44Z"/><path class="cls-5" d="M264.17,233.89c-1.21.44-2.68.16-4,.21l-.36-1a15.82,15.82,0,0,1,3-2.39c12.15-5.73,24.42-11.22,36.51-17.09,15.37-7.46,29.91-16.28,42.73-27.71.89-.79,1.9-1.45,2.85-2.16,2.66,3.07,2.57,5-.34,7.58-7.18,6.43-15.44,11.21-24,15.47-15.35,7.62-30.69,15.27-46.08,22.83A104.93,104.93,0,0,1,264.17,233.89Z"/><path class="cls-4" d="M261.6,296.07a35.83,35.83,0,0,1-3.48,2.21,7.19,7.19,0,0,1-2.72-6c0-1.85-.14-3.7-.21-5.55-.12-3.05.48-3.9,3.44-4.67.95-.25,1.95-.36,3.46-.62.36,4.18.81,8.31,1,12.46C263.16,294.64,262.27,295.52,261.6,296.07Z"/><path class="cls-5" d="M248.88,285c2-.28,3.16.65,3.35,2.69.35,3.62.54,7.25.84,10.87.12,1.42-.42,2-1.9,2.18-5.53.5-6.47-.24-6.79-5.82-.16-2.71-.22-5.42-.32-8.13a5,5,0,0,1,.12-.8C245.71,285.64,247.28,285.2,248.88,285Z"/><path class="cls-5" d="M247.51,83.86a21.15,21.15,0,0,1,6.94,12.57,21.53,21.53,0,0,1,.57,5.51,4.66,4.66,0,0,1-1.78,3.26c-5.11,3-10.35,5.72-15.57,8.48a1.85,1.85,0,0,1-1.65,0,1.74,1.74,0,0,1-.37-1.6C239.52,102.75,243.46,93.46,247.51,83.86Z"/><path class="cls-4" d="M240.7,286.42c.4,4.13.94,8.12,1.11,12.13.07,1.75-1.35,3-3.05,3.43-1.9.5-3.86.77-6.1,1.21-.69-5.27-1.33-10.18-2-15.25Z"/><path class="cls-3" d="M183.19,247.29a80.87,80.87,0,0,0,28-2.43c.36,5.77,1.09,11.18.85,16.54-.1,2.27-2.22,4.47-3.46,6.68-.27.49-1,.82-1.07,1.3-.25,1.22-.64,2.63-.24,3.68.24.6,2,.93,3,.83a13.88,13.88,0,0,0,10.7-6.28,50.78,50.78,0,0,0,8.24-23.08,6.52,6.52,0,0,1,3.67-5.63c6.75-3.34,13.48-6.73,20.49-10.23,4.58,15.09,9.08,29.94,13.82,45.57-6.08.94-11.71,2.19-17.4,2.62-10.66.81-20.81,3.78-31.1,6.29-7.1,1.73-14.37,2.81-21.57,4.12-2.78.5-5.59.82-8.56,1.25C188.37,274.53,188.61,260.74,183.19,247.29Z"/><path class="cls-4" d="M241.7,84.59a14,14,0,0,1-.5,3q-4,9.41-8.18,18.76c-1.1,2.47-2.35,2.84-4.25,1.18-5.46-4.8-10.83-9.7-16.62-14.91Z"/><path class="cls-5" d="M228.13,287.9c.19,5,.43,9.36.49,13.75a3.2,3.2,0,0,1-3.23,3.51c-1.75.15-3.48.45-5.44.72-.46-4.39-1.05-8.47-1.2-12.57a4.31,4.31,0,0,1,2-3.35C222.9,289,225.39,288.61,228.13,287.9Z"/><path class="cls-4" d="M223.22,254.94a16.65,16.65,0,0,1-7.21,8.2c2.24-6.36.85-12.07-1.26-17.74a17.76,17.76,0,0,1-1.13-5.15,5.56,5.56,0,0,1,4-5.63c2.09-.6,4.14.37,5.59,2.93C226.54,243.33,225.68,249.17,223.22,254.94Z"/><path d="M213.33,135.91c.65,0,1.81.72,1.86,1.21a3.72,3.72,0,0,1-.74,2.86c-3.9,3.29-8,6.38-12.25,9.75-1.09-4-.21-6.8,2.83-9,1.72-1.24,3.22-2.82,5-4A6.36,6.36,0,0,1,213.33,135.91Z"/><path class="cls-4" d="M206.35,294c2-1.21,4.15-2.24,6.62-1.48s2.79,2.81,3.09,4.89a14.1,14.1,0,0,1,.07,1.7h.13c-.1,1.13-.17,2.27-.3,3.39-.47,3.93-3,5.65-6.81,5a2.72,2.72,0,0,1-2.5-2.47c-.39-3.17-.63-6.35-.86-9.54A1.86,1.86,0,0,1,206.35,294Z"/><path d="M207.07,152.72a3.61,3.61,0,0,1,3.94-3.54c1.09.13,2.43,1.56,2.89,2.71.57,1.44-1.89,3.85-3.59,3.94A3,3,0,0,1,207.07,152.72Z"/><path class="cls-5" d="M207.66,98.29a59.63,59.63,0,0,1,19.49,17.51l-28.19,9.38Z"/><path class="cls-5" d="M198.13,295c3.92-2.26,4.23-1.91,4.29,2.32,0,2.64.22,5.28.28,7.92.07,3.56-.64,4.28-4.14,4.36-.91,0-1.83.06-3.08.11-.15-3.63-.21-7-.41-10.3C194.92,297,196.38,296,198.13,295Z"/><path class="cls-3" d="M270.47,301.21c2.33-.58,3.66.48,4.46,2.54q4.42,11.31,8.84,22.63c1.27,3.24,2.64,6.44,3.88,9.7a28.93,28.93,0,0,0,6.73,9.79c2.73,2.82,6.31,2.49,9.71,3.08a25.28,25.28,0,0,0,9.05-.12,21.94,21.94,0,0,0-3.11,2.9c-2.34,2.6-1.39,9.29,1.23,11.57a121.36,121.36,0,0,1-24.33,16.08,148,148,0,0,1-34.24,12.2c-7.56,1.61-15.09,3.42-22.64,5.11a16.62,16.62,0,0,1-3.19.37c-11.79.25-23.57.67-35.36.65h0c-.35-2.86-.79-5.72-1.34-8.57-.61-3.19-1.5-6-4.2-8.07-5.92-4.56-11.67-1.84-13.24,2.78-1.37,4-2,8.33-1,12.45a181.51,181.51,0,0,1-20-4c-6.67-1.69-13.48-2.81-20.21-4.25a35.61,35.61,0,0,1-4-1.37l0-1c1.94-.39,3.87-.79,5.81-1.16,11.65-2.25,23.32-4.44,35-6.75,3.9-.77,7.72-1.9,11.61-2.72,5.11-1.07,7.91-4.32,8.86-9.23a121.29,121.29,0,0,0,2-30.41c-.26-4.27-.73-8.53-1-12.81-.19-2.66.72-3.81,3.35-4.29,7.07-1.3,14.14-2.55,21.21-3.82,14.26-2.55,28.53-5,42.29-9.84C261,303.14,265.8,302.38,270.47,301.21Z"/><path d="M192.11,404.09q-.25-3.2-.64-6.4h0c11.79,0,23.57-.4,35.36-.65a16.62,16.62,0,0,0,3.19-.37c7.55-1.69,15.08-3.5,22.64-5.11a148,148,0,0,0,34.24-12.2,121.36,121.36,0,0,0,24.33-16.08,3.61,3.61,0,0,0,.52.38,19,19,0,0,0,5.78,2.19,124,124,0,0,1-14.1,10.3A152.88,152.88,0,0,1,276,390.91a159.8,159.8,0,0,1-47.65,11.52c-11.67.88-23.39,1.51-35.1,1.65Z"/><path class="cls-4" d="M191.2,296.56c.14,3.84.26,7.39.42,10.94a2.6,2.6,0,0,1-1.85,2.78c-1.25.47-2.5,1-4.25,1.63-.32-4.29-.73-8.36-.88-12.43-.06-1.62,1.21-2.54,2.76-2.76C188.58,296.56,189.79,296.61,191.2,296.56Z"/><path d="M187.11,404q2.49.13,5,.13a211.79,211.79,0,0,1,.06,28.44c-.16,2.9-1.83,4.14-4.72,4.82-.32.12-1,.42-1.66.61-2.77.79-5-.11-5.73-2.91-1.24-4.74-2.12-9.59-3-14.41-1.13-6-1.77-12.1-3.35-18,1.51.22,3,.42,4.52.6,1.44,7.76,2.78,15.54,4,23.34a6.88,6.88,0,0,0,3.88,5.43,17.69,17.69,0,0,0,1.3-3.59A86.68,86.68,0,0,0,187.11,404Z"/><path d="M187.11,404q-.5-3.22-1.27-6.4,2.81.12,5.62.13.39,3.19.64,6.4Q189.6,404.09,187.11,404Z"/><path class="cls-4" d="M206,93.93c-3.52,10.48-6.87,20.48-10.38,30.93l-18.38-21.09Z"/><path class="cls-6" d="M178.22,403.21c3,.35,5.92.61,8.9.75a86.68,86.68,0,0,1,.25,24.43,17.69,17.69,0,0,1-1.3,3.59,6.88,6.88,0,0,1-3.88-5.43C181,418.74,179.66,411,178.22,403.21Z"/><path d="M176.95,396.91q4.43.46,8.9.65.77,3.19,1.27,6.4c-3-.14-5.94-.4-8.9-.75q-.34-1.85-.69-3.7C177.36,398.63,177.15,397.77,176.95,396.91Z"/><path class="cls-3" d="M185.85,397.56q-4.47-.19-8.9-.65c-.57-2.47-1.09-4.92-.42-7.49a11.09,11.09,0,0,1,1.44-3.53c1.39-2,3.5-1.63,4.39.62A82.3,82.3,0,0,1,185.85,397.56Z"/><path class="cls-5" d="M140.7,294.15c-19.06.23-38.12.59-57.18.79a53.9,53.9,0,0,1-7.27-.88v-.73c1.85-.25,3.69-.59,5.55-.73,9.4-.71,18.79-1.42,28.2-2,12.61-.82,25.26-1.22,37.83-2.42,8.4-.8,16.71-2.64,25.05-4.06,3.14-.54,6.25-1.21,9.38-1.81,1.18,5.23-.34,7.43-5.64,8.32A233.58,233.58,0,0,1,140.7,294.15Z"/><path d="M177.52,399.5q.35,1.85.69,3.7c-1.51-.18-3-.38-4.52-.6a48.21,48.21,0,0,0-1.49-4.71,15.15,15.15,0,0,1-.51-1.63q2.62.36,5.25.63C177.15,397.77,177.36,398.63,177.52,399.5Z"/><path class="cls-5" d="M180.15,312.36c-1.65.93-3.41,1.64-5.28,2.5-1.18-5.62-2.3-11-3.52-16.8,2.79.23,5.31.34,7.79.71a2.3,2.3,0,0,1,1.36,1.64c.4,3.37.7,6.77.86,10.16A2.54,2.54,0,0,1,180.15,312.36Z"/><path class="cls-3" d="M176.53,389.42c-.66,2.57-.15,5,.42,7.49q-2.63-.27-5.25-.63c-1.06-4.12-.39-8.44,1-12.45,1.57-4.62,7.33-7.34,13.24-2.78,2.7,2.08,3.58,4.87,4.2,8.07.55,2.85,1,5.71,1.34,8.57q-2.82,0-5.62-.13a82.3,82.3,0,0,0-3.49-11c-.89-2.24-3-2.6-4.39-.62A11.09,11.09,0,0,0,176.53,389.42Z"/><path class="cls-4" d="M96.74,267.69a83.62,83.62,0,0,0,16.87.34c8.29-.77,16.54-2,24.75-3.35,9.6-1.61,19.13-3.6,28.68-5.47,4-.79,8.06-1.67,12.29-2.56.39,2.45.82,4.82,1.12,7.2.35,2.83.63,5.67.83,8.52s-.48,3.92-3.28,4.92c-3.07,1.1-6.19,2.06-9.36,2.87a137.7,137.7,0,0,1-26.85,3.61Q120.41,284.88,99,286c.68-2.71,1.22-5.39.36-8.3C98.42,274.41,97.56,271.05,96.74,267.69Z"/><path class="cls-5" d="M170.27,110.59c.4-1.54,1.18-1.55,2.3-1.27a7,7,0,0,1,1.78.71c7.15,4.11,11.87,10.42,16.13,17.54l-18.37,6.12c-2,.67-4,1.35-6.07,2-1.86.58-2.51,0-2-1.87C166.1,126.06,168.28,118.35,170.27,110.59Z"/><path class="cls-4" d="M163,298.45c3.61-.67,4.88-.26,5.49,2.22.8,3.3,1.36,6.67,1.84,9,.32,3.87-.28,4.81-2.59,5.27-3.46.68-5,0-5.62-2.75-.79-3.31-1.44-6.65-2-10C159.78,300.15,160.94,298.82,163,298.45Z"/><path class="cls-7" d="M158.89,30.13a7.31,7.31,0,0,1,3.71,2.36c3.5,4.26,4.14,9.58,5,14.77,1.83,11.77,3.4,23.57,3.56,35.52.1,7.34-.07,7.73-7,10-2.34.77-4.7,1.49-6.94,2.2-4.16-9.12-3.63-18.37-3.09-27.64.33-5.62.38-11.26.81-16.87.44-5.79-.25-11.73,1.9-17.31C157.23,32,158.44,30,158.89,30.13Z"/><path class="cls-5" d="M157.81,310.69c.19,2.09-2.3,4.82-4.32,4.65a2.69,2.69,0,0,1-1.9-1.63c-.89-4-1.6-8.07-2.31-12.13-.33-1.9.79-2.81,2.48-3,1.47-.19,3-.14,4.69-.2C156.93,302.64,157.44,306.66,157.81,310.69Z"/><path d="M154.2,171c.13,2-1.33,3.38-3.81,3.5a4.2,4.2,0,0,1-4.24-3.78c-.06-1.58,1.34-2.89,3.24-3S154.1,169.39,154.2,171Z"/><path d="M146.67,153.18c.17-.15.91.22,1.33.46,2.39,1.43,4.72,3,7.14,4.32,1.8,1,2.57,2.37,2,5.06a21.79,21.79,0,0,1-4.47-.54,37.37,37.37,0,0,1-6.85-3c-1-.59-2.4-2.27-2.16-2.95C144.08,155.23,145.54,154.22,146.67,153.18Z"/><path class="cls-4" d="M166.89,108.57c-2.38,8.77-4.68,17.27-7.1,26.15l-19-16.52C149,113.29,157.56,110.54,166.89,108.57Z"/><path class="cls-4" d="M142.8,300.08c2,0,2.54,1.34,2.79,3.07.51,3.52,1.15,7,1.85,11.18-.31.41-.72,1.4-1.43,1.75a2.24,2.24,0,0,1-3.25-1.15,93.51,93.51,0,0,1-2.88-11.28A3.15,3.15,0,0,1,142.8,300.08Z"/><path class="cls-3" d="M135.68,112.76C150.9,104,166,95.08,184.43,95.27Z"/><path class="cls-5" d="M136.63,123.6c7.21,4.65,14.23,8.74,19.65,15.37l-27.09,9.32Z"/><path class="cls-7" d="M147.49,99.51c-3.74,2.21-7.49,4.38-11.57,6.77-1.23-4.81-2.41-9.25-3.48-13.72A153.34,153.34,0,0,1,128.17,58a153.87,153.87,0,0,1,1.19-16.59c.29-2.84,1.44-3.93,3.5-4.16,2.64-.3,4.37.47,5.3,3.27,2.28,6.86,4.65,13.73,6.27,20.77,2.16,9.42,3.64,19,5.4,28.49.22,1.19.43,2.38.61,3.58C151,97.28,151,97.44,147.49,99.51Z"/><path class="cls-4" d="M131.14,122.37a1.86,1.86,0,0,1,1.48.06c.21.12.24.88.11,1.27-2.45,7.78-5,15.54-7.57,23.72l-14.91-14.67C117.38,129.2,124.24,125.76,131.14,122.37Z"/><path class="cls-5" d="M128.06,300.52a14.91,14.91,0,0,1,3.63,0,4.72,4.72,0,0,1,4,4l2.65,11.89c-2.63.34-4.93.68-7.25.92a2.69,2.69,0,0,1-3-2.19c-1-3.78-1.92-7.58-2.61-11.41C125,301.46,125.82,300.7,128.06,300.52Z"/><path class="cls-5" d="M184.73,363.66a19.53,19.53,0,0,1-12.55,8.2c-9.08,2-18.21,3.83-27.39,5.35a84.07,84.07,0,0,1-16.52,1.45c-6.72-.24-13.38-1.52-20.07-2.36a19.13,19.13,0,0,1-3.35-.58c-1.43-.45-2.79-1.12-4.18-1.7.07-.28.15-.56.22-.85C129.19,374.3,157.08,371.85,184.73,363.66Z"/><path class="cls-4" d="M142.86,329.55a108.69,108.69,0,0,1-28.37,1.3c-9.22-.71-18.47-1.11-27.72-1.61-1.86-.1-3.45-.68-4.16-2.46-1-2.56-1.81-5.2-2.85-8.2,3.69.3,7,.53,10.31.85,10.9,1.06,21.78,2.59,32.7,3.05,6.78.29,13.63-1.07,20.45-1.61q16.31-1.27,32.64-2.42a41.09,41.09,0,0,1,5.14,0,33.6,33.6,0,0,1,3.66.6l.13.94c-2.44.77-4.83,1.74-7.31,2.28C165.95,324.77,154.44,327.39,142.86,329.55Z"/><path class="cls-4" d="M114.83,301.49a34.86,34.86,0,0,1,5.52-.06c.31,0,.82.59.88,1,.8,5.1,1.54,10.21,2.32,15.55a53.47,53.47,0,0,1-6.2.18,3.77,3.77,0,0,1-3.48-3.29c-.58-3.42-.95-6.89-1.36-10.34A2.48,2.48,0,0,1,114.83,301.49Z"/><path class="cls-5" d="M114.13,340.72c-8.28-.07-16.56.29-24.85.45-3.44.06-4.94-2-3.73-5.36a291.73,291.73,0,0,0,50.59.11,245.1,245.1,0,0,0,49.47-9.48c.55,3.2-.39,5.05-3.41,6-3.78,1.21-7.64,2.19-11.52,3C152,339.47,133.17,340.87,114.13,340.72Z"/><path class="cls-4" d="M183.87,339.63c2-.33,2.54.56,2.52,2,0,3.92-.19,7.84-.46,11.75-.15,2.22-1.82,3.35-3.78,3.87-5.89,1.58-11.75,3.29-17.72,4.55a218.18,218.18,0,0,1-39.67,4.5c-8.56.21-17.13.16-25.7.13-4.12,0-5.55-1.14-6.78-5.13-1.5-4.88-2.87-9.79-4.42-15.08l7.25.74a148.35,148.35,0,0,0,32.24.08c10.89-1.27,21.78-2.54,32.66-3.95Q172,341.6,183.87,339.63Z"/><path class="cls-7" d="M108.44,55.24c.07-1.35,1.76-1.75,2.71-.63a20.34,20.34,0,0,1,3.33,4.66c4.89,11.1,9.64,22.25,12.62,34.08a116.92,116.92,0,0,0,4.12,12c1.07,2.9.92,3.74-1.6,5.61l-4.45,3.32a3.9,3.9,0,0,1-.83.09c-2.47-5.41-5.55-10.82-7.47-16.62-3.3-9.94-6.21-20-8.61-30.24C107.35,63.68,108.22,59.35,108.44,55.24Z"/><path class="cls-5" d="M107.06,138.42l13.6,13.2c-.69.34-1.21.64-1.76.85q-9.52,3.71-19.06,7.36a8.41,8.41,0,0,1-2,.26,6.36,6.36,0,0,1,.22-1.94C101,151.68,103.95,145.23,107.06,138.42Z"/><path class="cls-4" d="M94,157.18a1.31,1.31,0,0,1-1.09.57,1.43,1.43,0,0,1-1-.9c-.64-3.42-1.19-6.86-1.91-11.13.56-.79,1.21-2.4,2.4-3.21,2.87-2,6-3.55,9-5.24a3.93,3.93,0,0,1,1.32-.21c.07.51.36,1.12.18,1.5Q98.59,147.9,94,157.18Z"/><path class="cls-5" d="M110,316.7a31.06,31.06,0,0,1-4.28.13,4.22,4.22,0,0,1-3.92-3.68c-.49-3.08-.68-6.21-.93-9.33a1.89,1.89,0,0,1,2.18-2.25,37.59,37.59,0,0,1,4.45.34,1.54,1.54,0,0,1,1,1C109.09,307.45,109.54,312,110,316.7Z"/><path d="M97.38,286.12,99,286c-.09.39-.19.77-.29,1.16A9.49,9.49,0,0,0,97.38,286.12Z"/><path class="cls-4" d="M98,314.7c-4.68,1.3-8.38-1.35-8.9-6.13a12,12,0,0,1-.1-2.77c.16-1.32-.93-3.22,1.29-3.72,3.6-.8,4.83-.24,5.6,2.72C96.72,308.07,97.3,311.41,98,314.7Z"/><path class="cls-5" d="M100.68,255.71c7.49.26,15,.41,22.48.15,6.7-.23,13.38-1,20-1.69,6-.66,12-1.62,18-2.42a41.18,41.18,0,0,0,13.42-4c2.67-1.36,4.56-.15,4.53,2.77,0,1.87-1.33,2.39-2.77,2.7-3.55.76-7.11,1.44-10.66,2.14-7.11,1.41-14.18,3.09-21.35,4.15-9.37,1.39-18.82,2.28-28.23,3.39-7,.09-13.88-.11-20.75-.69l-.3-1.2A17.82,17.82,0,0,0,93,256.1l-.45-.73Q96.61,255.56,100.68,255.71Z"/><path d="M92.75,289.46c-1.42-1-2.84-1.9-4.26-2.87l8.89-.47a9.49,9.49,0,0,1,1.36,1.07C97,290.07,94.92,290.92,92.75,289.46Z"/><path class="cls-5" d="M81.58,300.46a3,3,0,0,1,3.28,2.21,43.85,43.85,0,0,1,1,4.35c.49,2.55.93,5.11,1.42,7.81-4.77.26-7.77-2.45-7.88-7.95a31.85,31.85,0,0,1,.39-4C79.91,301.71,80,300.51,81.58,300.46Z"/><path class="cls-3" d="M211,149.18a3.61,3.61,0,0,0-3.94,3.54,3,3,0,0,0,3.24,3.11c1.69-.09,4.16-2.5,3.59-3.94C213.44,150.74,212.1,149.31,211,149.18Zm-60.61,25.29c2.48-.12,3.94-1.45,3.81-3.5-.1-1.57-2.83-3.44-4.8-3.31s-3.3,1.44-3.24,3A4.2,4.2,0,0,0,150.39,174.46Zm64.8-37.35c-.05-.49-1.21-1.21-1.86-1.21a6.36,6.36,0,0,0-3.32.84c-1.77,1.16-3.26,2.74-5,4-3,2.2-3.92,5-2.83,9,4.28-3.37,8.35-6.47,12.25-9.75A3.72,3.72,0,0,0,215.19,137.12Zm-23.07,59.33a18.19,18.19,0,0,0,14.53.89c1.82-.6,3.45-1.35,3.76-3.35.34-2.2.24-4.36-1.64-6.12s-4.37-1.75-6.68-2.3c-.63-.15-1.13-.82-1.69-1.26a7.08,7.08,0,0,1,1.78-.69c5.26-.49,10.52-.83,15.76-1.43,2.47-.28,4.87-1.08,7.31-1.58,8.87-1.79,17.83-3.2,26.6-5.41a100,100,0,0,0,33.36-15c7.89-5.56,11.33-13.33,10.8-22.91-.12-2.2-1.07-3.29-2.81-2.84-5.45,1.38-11.15,2.27-16.19,4.59-16.44,7.57-32.66,15.63-48.91,23.6a91.3,91.3,0,0,1-19.43,7.3c-.67.15-1.35.3-2,.43s-1.36.25-2,.36l-1,.15q-2.06.29-4.17.42c-1.06.06-2.11.1-3.19.1l-2.57.1c-.93,0-1.86.05-2.78.11-3,.18-4,.86-4.6,3.8s-.74,5.79-1.06,8.69c-.43,3.92,1.45,7,3.72,9.91A9.72,9.72,0,0,0,192.12,196.45Zm-35-33.42c.59-2.69-.19-4.05-2-5.06-2.42-1.36-4.75-2.89-7.14-4.32-.41-.24-1.15-.61-1.33-.46-1.13,1-2.58,2.05-3,3.38-.24.68,1.15,2.36,2.16,2.95a37.37,37.37,0,0,0,6.85,3A21.79,21.79,0,0,0,157.12,163Zm-72.68,59c-4.56.54-4.64.55-5.16-4-1.9-16.53,1.27-31.89,10.74-45.76a18.45,18.45,0,0,1,9.29-7.18q26.83-9.72,53.59-19.67c16.07-6,32.72-9.94,49.17-14.63,13.18-3.76,26.27-7.85,38.79-13.49,4.67-2.1,9.07-4.78,13.56-7.26a5.43,5.43,0,0,1,5-.37c5.5,2.16,11,4.17,16.62,6.1a66.43,66.43,0,0,1,24.21,14.92A113.25,113.25,0,0,0,321.21,147c5.51,3.19,9.43,8.18,12.85,14-3.39,2.65-6.63,5.32-10,7.78-11.22,8.14-23.56,14.43-35.66,21.09-10.23,5.63-20.54,11.09-30.82,16.65-2.68,1.45-5.25,3.12-5.68,6.48a14.65,14.65,0,0,0,.14,4.64c.79,4,0,5.85-3.46,7.78q-6.63,3.67-13.25,7.38c-.68.38-1.35.79-2.06,1.12-3.66,1.69-3.77,1.71-6.23-1.55a10.72,10.72,0,0,0-7.37-4.65c-4.63-.55-8.25,2.22-9.27,7-.18.83-.25,1.69-.42,2.52-.6,2.88-2.38,4.68-5.27,4.72-6.64.09-13.28,0-19.92-.12a3.46,3.46,0,0,1-3.52-3.13,33.88,33.88,0,0,0-1.3-5.37c-2.83-7.67-8.8-11.58-16.5-12.87-4.75-.8-9.64-.86-14.46-1.24-4.32-.34-8.65-.87-13-1a165.41,165.41,0,0,0-17.75.21c-11.08,1-22.11,2.38-33.17,3.61Z"/><path class="cls-4" d="M75.11,244.58a4.13,4.13,0,0,0,3.34-.21c2-1.18,2.2-2.64.56-4.34a.43.43,0,0,1-.07-.58,13.88,13.88,0,0,1,4,3.24A51.31,51.31,0,0,1,89,250c-5.55-.14-11.09-.6-16.63-.89-2-.11-3-1.1-2.9-3.14.05-1.35,0-2.7.06-4A26,26,0,0,0,75.11,244.58Z"/><path class="cls-5" d="M95.1,261l.3,1.2a167.33,167.33,0,0,1-20.51-3,7.66,7.66,0,0,1-3.35-1.2c-.7-.6-.79-1.93-1.16-2.93a7.13,7.13,0,0,1,2.34-.78c6.62.3,13.22.7,19.83,1l.45.73A17.82,17.82,0,0,1,95.1,261Z"/><path d="M156.28,139c-5.42-6.62-12.44-10.71-19.65-15.37l-7.43,24.69Zm88.1,155.93c.33,5.57,1.27,6.32,6.79,5.82,1.48-.14,2-.76,1.9-2.18-.3-3.63-.49-7.25-.84-10.87-.2-2-1.39-3-3.35-2.69-1.6.22-3.16.66-4.69,1a5,5,0,0,0-.12.8C244.17,289.48,244.22,292.19,244.38,294.9ZM213,292.57c-2.46-.77-4.59.27-6.62,1.48a1.86,1.86,0,0,0-.57,1.47c.23,3.19.47,6.37.86,9.54a2.72,2.72,0,0,0,2.5,2.47c3.85.69,6.34-1,6.81-5,.13-1.13.21-2.26.3-3.39h-.13a14.1,14.1,0,0,0-.07-1.7C215.76,295.37,215.35,293.31,213,292.57Zm15.65,9.08c-.06-4.4-.3-8.79-.49-13.75-2.74.72-5.22,1.06-7.4,2.07a4.31,4.31,0,0,0-2,3.35c.15,4.1.74,8.18,1.2,12.57,2-.27,3.69-.56,5.44-.72A3.2,3.2,0,0,0,228.61,301.65Zm130.24-39.42c3.12-1.65,3.33-3,.79-6.21-6.62,3.91-13.26,7.67-19.73,11.68-18,11.15-36.17,21.91-56.27,29a26.41,26.41,0,0,0-4,2c-.33.19-.71.81-.63,1.08s.68.6,1.09.67a2.47,2.47,0,0,0,1.24-.23c6.58-2.46,13.45-4.36,19.67-7.53C320.43,282.76,339.6,272.41,358.85,262.23Zm-48.06,13.88c-.85-4.8-1.88-9.58-2.87-14.54l-5.08,2.19c-5.65,2.42-4.58,2.37-3.51,7,1,4.47,2.28,8.89,3.48,13.46C305,283,307,282,308.86,280.78A4.43,4.43,0,0,0,310.79,276.11Zm12.71-7.38c-.54-4.26-1.4-8.47-2.17-12.91-3.38,1.5-6.51,2.82-9.56,4.31a2.08,2.08,0,0,0-.65,1.81c1.12,5,2.35,10.07,3.6,15.33,2.29-1.24,4.44-2.32,6.49-3.56A4.9,4.9,0,0,0,323.5,268.73Zm-43.83,24a27.23,27.23,0,0,0,6.58-1.86c.48-.19.83-1.55.71-2.3-.8-5.26-1.73-10.51-2.69-16.13L274.62,277c1.07,4.56,2,8.86,3.13,13.1C278,291.15,279.13,292.85,279.67,292.78Zm-173.93,24a31.06,31.06,0,0,0,4.28-.13c-.48-4.73-.93-9.26-1.45-13.78a1.54,1.54,0,0,0-1-1,37.59,37.59,0,0,0-4.45-.34,1.89,1.89,0,0,0-2.18,2.25c.25,3.11.44,6.25.93,9.33A4.22,4.22,0,0,0,105.74,316.83ZM363.68,265.6a2.9,2.9,0,0,0-2.27.06c-8.49,4.63-17.07,9.12-25.38,14.07-12.68,7.54-25.56,14.59-39.54,19.45-3.75,1.3-7.57,2.42-11.31,3.77a8.54,8.54,0,0,0-2.26,1.68c.11,2.65,1.09,3.21,3,2.55,13.84-4.65,27-10.95,40.17-17.13a254.15,254.15,0,0,0,35.58-19.79,7.45,7.45,0,0,0,2.15-2.73C364.14,267,364,265.73,363.68,265.6Zm-2.6-19c3.2-3.18,4.28-7.57,2.85-10.65a3.72,3.72,0,0,0-4.06-2,3.27,3.27,0,0,0-2.11,3.94C358.75,240.78,359.91,243.59,361.08,246.64Zm-17.45-70.1c-1.3-4-3.07-7.87-4.73-11.94-.76.57-1.3.91-1.78,1.33-8.2,7.15-17.36,12.92-26.62,18.57-16,9.8-32.09,19.57-49.69,26.43-2.78,1.09-3.94,2.76-3.72,5.75.26,3.55.72,7.08,1.12,10.9,1.47-.56,2.62-.93,3.7-1.42,10.19-4.7,20.31-9.55,30.57-14.11,18.2-8.1,34.16-19.64,49.69-31.87C343.09,179.44,344,177.51,343.63,176.54ZM275,295c-1.15-5.73-2.22-11.12-3.32-16.58-1.51.28-2.71.46-3.88.73a3.09,3.09,0,0,0-2.71,3.52q.62,5.73,1.61,11.42a2.44,2.44,0,0,0,3,2.08C271.4,295.92,273,295.47,275,295Zm16.08-6.44c1.78-.48,3.4-.88,5-1.36,2.65-.79,3.34-1.72,2.73-4.35-1.07-4.69-2.29-9.34-3.53-14a1.69,1.69,0,0,0-1.26-.93,12.62,12.62,0,0,0-3,.37c-2.79.57-3.86,2-3.3,4.9C288.77,278.28,289.94,283.3,291.09,288.58Zm-145.5,14.56c-.25-1.73-.79-3.1-2.79-3.07a3.15,3.15,0,0,0-2.92,3.56,93.51,93.51,0,0,0,2.88,11.28,2.24,2.24,0,0,0,3.25,1.15c.72-.35,1.12-1.34,1.43-1.75C146.74,310.16,146.1,306.66,145.59,303.15Zm-2.37,17.72c-6.83.54-13.67,1.9-20.45,1.61-10.92-.46-21.8-2-32.7-3.05-3.3-.32-6.62-.54-10.31-.85,1,3,1.84,5.65,2.85,8.2.71,1.78,2.3,2.36,4.16,2.46,9.24.5,18.49.9,27.72,1.61a108.69,108.69,0,0,0,28.37-1.3c11.59-2.16,23.09-4.78,34.61-7.31,2.49-.54,4.88-1.51,7.31-2.28l-.13-.94a33.6,33.6,0,0,0-3.66-.6,41.09,41.09,0,0,0-5.14,0Q159.53,319.62,143.22,320.87Zm41.21-225.6C166,95.08,150.9,104,135.68,112.76Zm-9.56,219.59c1.87-.86,3.63-1.57,5.28-2.5a2.54,2.54,0,0,0,1.21-1.79c-.16-3.39-.45-6.79-.86-10.16a2.3,2.3,0,0,0-1.36-1.64c-2.48-.36-5-.48-7.79-.71C172.56,303.85,173.69,309.24,174.86,314.86ZM164,133.79c-.49,1.85.16,2.45,2,1.87,2-.63,4-1.3,6.07-2l18.37-6.12c-4.25-7.13-9-13.43-16.13-17.54a7,7,0,0,0-1.78-.71c-1.11-.27-1.9-.27-2.3,1.27C168.28,118.35,166.1,126.06,164,133.79ZM369.37,308.18a8.53,8.53,0,0,0,1.35-9.9c-21.65,17.58-46,30-72.44,38.92,1.56,4,3.46,5.65,6.29,5.08,5.43-1.09,11.06-1.79,16.14-3.82a175.26,175.26,0,0,0,21-10.38C351.63,322.48,361.52,316.76,369.37,308.18ZM97.88,160.09a8.41,8.41,0,0,0,2-.26q9.54-3.64,19.06-7.36c.55-.21,1.06-.51,1.76-.85l-13.6-13.2c-3.11,6.82-6.06,13.26-9,19.73A6.36,6.36,0,0,0,97.88,160.09ZM73.59,301.53a2.75,2.75,0,0,0-2.48-.79c-1,.28-2.54,1-2.76,1.87-1.48,5.6,1.48,9.7,7.66,10.69-.36-2.51-.63-5-1.08-7.37A14.81,14.81,0,0,0,73.59,301.53Zm22.28,3.27c-.77-3-2-3.53-5.6-2.72-2.21.49-1.12,2.4-1.29,3.72a12,12,0,0,0,.1,2.77c.52,4.78,4.23,7.43,8.9,6.13C97.3,311.41,96.72,308.07,95.87,304.8Zm72.57-4.13c-.61-2.48-1.88-2.9-5.49-2.22-2,.37-3.17,1.7-2.85,3.73.53,3.35,1.18,6.7,2,10,.67,2.79,2.16,3.43,5.62,2.75,2.31-.45,2.91-1.4,2.59-5.27C169.81,307.34,169.24,304,168.44,300.67ZM92.94,157.76a1.31,1.31,0,0,0,1.09-.57q4.54-9.29,9-18.63c.18-.38-.12-1-.18-1.5a3.93,3.93,0,0,0-1.32.21c-3,1.69-6.16,3.29-9,5.24-1.19.82-1.84,2.43-2.4,3.21.72,4.27,1.27,7.71,1.91,11.13A1.43,1.43,0,0,0,92.94,157.76Zm135.83-50.22c1.9,1.67,3.14,1.3,4.25-1.18q4.17-9.34,8.18-18.76a14,14,0,0,0,.5-3l-29.54,8C217.94,97.83,223.32,102.74,228.78,107.54Zm13,191c-.17-4-.71-8-1.11-12.13l-10,1.51c.66,5.08,1.31,10,2,15.25,2.24-.43,4.21-.7,6.1-1.21C240.46,301.53,241.88,300.3,241.81,298.54Zm-82-163.82c2.41-8.88,4.72-17.38,7.1-26.15-9.32,2-17.9,4.71-26.08,9.63Zm189.12,123.2c2.57-1.59,4.86-2.86,7-4.38a5.5,5.5,0,0,0,2.27-5c-.21-3.91-2.11-7.14-4-10.67l-5,3.12c-3.48,2.22-3.54,2.24-2.74,6.26C347.17,250.66,348,254.06,348.91,257.92ZM162.6,32.49a7.31,7.31,0,0,0-3.71-2.36c-.45-.11-1.66,1.87-2.11,3-2.15,5.59-1.46,11.52-1.9,17.31-.43,5.61-.48,11.25-.81,16.87-.54,9.27-1.06,18.52,3.09,27.64,2.24-.71,4.59-1.43,6.94-2.2,6.93-2.28,7.1-2.67,7-10C171,70.84,169.39,59,167.55,47.27,166.75,42.07,166.11,36.75,162.6,32.49ZM352.2,206.85c-1.25-4.12-2.56-8.23-3.87-12.41a7.89,7.89,0,0,0-1,.52c-19.77,15-41.66,26.13-64.31,35.95-6.64,2.88-13.35,5.62-20,8.5-.58.25-1.39,1.27-1.27,1.67,2,6,4.06,11.94,6.32,18.46,9.86-3.47,19.55-6.53,29-10.29,16.84-6.71,32.46-15.88,48.19-24.8a43.86,43.86,0,0,0,7-5.6,5.2,5.2,0,0,0,1.64-5.63C353.31,211.11,352.83,209,352.2,206.85ZM83.52,294.94c19.06-.2,38.12-.56,57.18-.79a233.58,233.58,0,0,0,35.93-3.54c5.3-.89,6.82-3.09,5.64-8.32-3.13.61-6.25,1.28-9.38,1.81-8.35,1.42-16.65,3.26-25.05,4.06-12.57,1.19-25.22,1.6-37.83,2.42-9.4.61-18.8,1.32-28.2,2-1.86.14-3.7.48-5.55.73v.73A53.9,53.9,0,0,0,83.52,294.94ZM216,263.14a16.65,16.65,0,0,0,7.21-8.2c2.46-5.77,3.32-11.62,0-17.4-1.45-2.56-3.5-3.53-5.59-2.93a5.56,5.56,0,0,0-4,5.63,17.76,17.76,0,0,0,1.13,5.15C216.86,251.07,218.24,256.78,216,263.14ZM111.15,54.61c-.95-1.12-2.63-.72-2.71.63-.22,4.11-1.09,8.43-.19,12.32,2.41,10.19,5.31,20.3,8.61,30.24,1.93,5.8,5,11.22,7.47,16.62a3.9,3.9,0,0,0,.83-.09l4.45-3.32c2.52-1.87,2.67-2.71,1.6-5.61a116.92,116.92,0,0,1-4.12-12c-3-11.83-7.73-23-12.62-34.08A20.34,20.34,0,0,0,111.15,54.61ZM254.44,96.43a21.15,21.15,0,0,0-6.94-12.57c-4,9.6-8,18.88-11.87,28.2a1.74,1.74,0,0,0,.37,1.6,1.85,1.85,0,0,0,1.65,0c5.23-2.76,10.47-5.5,15.57-8.48a4.66,4.66,0,0,0,1.78-3.26A21.53,21.53,0,0,0,254.44,96.43Zm78.32,166.91c-.48-3.71-1.31-7.37-2-11.06-6.37,1.53-6.66,1.78-5.72,6.65.65,3.37,1.55,6.7,2.34,10C331.52,268,333.16,266.39,332.76,263.34Zm-179.27,52c2,.17,4.5-2.56,4.32-4.65-.37-4-.88-8.06-1.36-12.35-1.72.06-3.22,0-4.69.2-1.68.22-2.81,1.14-2.48,3,.71,4.05,1.42,8.11,2.31,12.13A2.69,2.69,0,0,0,153.5,315.34Zm48.92-18c-.06-4.23-.37-4.58-4.29-2.32-1.75,1-3.21,2.05-3.05,4.41.21,3.32.27,6.66.41,10.3,1.25,0,2.17-.09,3.08-.11,3.5-.08,4.2-.8,4.14-4.36C202.64,302.57,202.46,299.93,202.42,297.29Zm-69.8-174.86a1.86,1.86,0,0,0-1.48-.06c-6.89,3.39-13.76,6.83-20.89,10.39l14.91,14.67c2.62-8.19,5.12-15.95,7.57-23.72C132.85,123.31,132.82,122.55,132.62,122.43ZM309.8,304.1c-7.7,4-15,8.82-24.73,8.1,3,6.61,5.78,12.81,8.67,19a2.69,2.69,0,0,0,3.47,1.36c1.63-.49,3.26-1,4.84-1.59,17.7-6.72,35.15-14,51.11-24.38,5.07-3.29,9.89-7,14.61-10.77a6.92,6.92,0,0,0,2.24-7.93,50.49,50.49,0,0,1-1.22-5.62c-.57-3-1.07-6-1.66-9.27-1.38.82-2.52,1.52-3.68,2.2-9.75,5.74-19.36,11.74-29.28,17.13C326.25,296.6,317.8,299.95,309.8,304.1Zm-189.44-2.68a34.86,34.86,0,0,0-5.52.06,2.48,2.48,0,0,0-2.33,3c.41,3.45.78,6.92,1.36,10.34a3.77,3.77,0,0,0,3.48,3.29,53.47,53.47,0,0,0,6.2-.18c-.79-5.34-1.52-10.45-2.32-15.55C121.18,302,120.67,301.43,120.36,301.42Zm7.68,13.7a2.69,2.69,0,0,0,3,2.19c2.32-.24,4.62-.58,7.25-.92l-2.65-11.89a4.72,4.72,0,0,0-4-4,14.91,14.91,0,0,0-3.63,0c-2.24.18-3,.94-2.63,3.19C126.12,307.54,127.07,311.34,128,315.12Zm63.58-7.62c-.16-3.55-.28-7.1-.42-10.94-1.41.05-2.63,0-3.8.17-1.55.23-2.82,1.14-2.76,2.76.15,4.08.56,8.15.88,12.43,1.75-.67,3-1.16,4.25-1.63A2.6,2.6,0,0,0,191.62,307.5Zm-6.89,56.16c-27.65,8.19-55.55,10.64-83.84,9.51-.07.28-.15.56-.22.85,1.39.57,2.75,1.24,4.18,1.7a19.13,19.13,0,0,0,3.35.58c6.69.84,13.35,2.12,20.07,2.36a84.07,84.07,0,0,0,16.52-1.45c9.18-1.52,18.31-3.37,27.39-5.35A19.53,19.53,0,0,0,184.73,363.66ZM95.11,347l-7.25-.74c1.55,5.29,2.92,10.2,4.42,15.08,1.23,4,2.66,5.11,6.78,5.13,8.57,0,17.14.08,25.7-.13a218.18,218.18,0,0,0,39.67-4.5c6-1.26,11.83-3,17.72-4.55,2-.52,3.63-1.65,3.78-3.87.27-3.91.42-7.83.46-11.75,0-1.49-.53-2.37-2.52-2q-11.89,2-23.86,3.51c-10.88,1.41-21.77,2.68-32.66,3.95A148.35,148.35,0,0,1,95.11,347ZM84.86,302.67a3,3,0,0,0-3.28-2.21c-1.57,0-1.66,1.25-1.78,2.4a31.85,31.85,0,0,0-.39,4c.11,5.5,3.11,8.2,7.88,7.95-.48-2.7-.92-5.26-1.42-7.81A43.85,43.85,0,0,0,84.86,302.67Zm173.27-4.38a35.83,35.83,0,0,0,3.48-2.21c.67-.54,1.56-1.43,1.52-2.13-.21-4.14-.65-8.28-1-12.46-1.51.26-2.51.36-3.46.62-3,.78-3.56,1.62-3.44,4.67.06,1.85.25,3.7.21,5.55A7.19,7.19,0,0,0,258.12,298.28ZM345.37,256c-.65-3.69-1.59-7.32-2.5-11.32-2.63,1.62-5,2.9-7.16,4.51a4.09,4.09,0,0,0-1.44,3,73.37,73.37,0,0,0,1.27,8.83c.35,1.8,1.75,2.62,3.35,1.76a27.75,27.75,0,0,0,5.42-3.94A3.67,3.67,0,0,0,345.37,256ZM89.28,341.16c8.28-.15,16.57-.51,24.85-.45,19,.15,37.91-1.24,56.55-5.24,3.88-.83,7.74-1.82,11.52-3,3-1,4-2.81,3.41-6a245.1,245.1,0,0,1-49.47,9.48,291.73,291.73,0,0,1-50.59-.11C84.34,339.12,85.84,341.23,89.28,341.16Zm106.37-216.3c3.51-10.45,6.86-20.45,10.38-30.93l-28.76,9.84ZM138.16,40.54c-.93-2.8-2.66-3.57-5.3-3.27-2.07.24-3.22,1.33-3.5,4.16A153.87,153.87,0,0,0,128.17,58a153.34,153.34,0,0,0,4.27,34.52c1.08,4.47,2.26,8.91,3.48,13.72,4.08-2.38,7.83-4.55,11.57-6.77,3.48-2.06,3.54-2.23,3-6.12-.18-1.2-.39-2.39-.61-3.58-1.76-9.51-3.24-19.08-5.4-28.49C142.81,54.28,140.44,47.4,138.16,40.54Zm-15,215.32c-7.48.25-15,.1-22.48-.15q-4.07-.14-8.14-.34c-1.12-1.83-2.27-3.64-3.5-5.39l1.53,0c12.92.19,25.83.16,38.75.22,0,.12,0,.24,0,.36,6.89-.62,13.83-.91,20.66-1.94,8.2-1.24,16.33-3,24.46-4.74,2.75-.57,3.21-1.67,2.31-4.36-.65-2-1.39-3.87-2.09-5.81-1.29-3.55-3.67-5.67-7.58-5.87a28.18,28.18,0,0,1-3.15-.48c-10.69-1.77-21.43-3.2-32.29-2.42-14.09,1-28.17,2.2-42.25,3.37q-5.55.46-11.05,1.21a9.84,9.84,0,0,0-8.07,6.12c-1.91-.86-3.84-1.67-5.8-2.38,0-.26.06-.52.09-.79.35-3.51,1.54-6.41,4.86-8.29.81-.45,1.17-2.21,1.24-3.38a121.4,121.4,0,0,1,5-30.11,78.56,78.56,0,0,1,10.72-22.29,8.5,8.5,0,0,0,1.27-7.07Q86.21,154,85,146.62c-1.21-7.55,3-11.4,7.6-13.66,4.41-2.19,8.94-4.11,13.36-6.28,5-2.44,9.86-5,14.71-7.51-2.8-6-5.54-11.42-7.88-17-4.16-9.94-7.74-20.1-9.3-30.83a109.36,109.36,0,0,1-1.18-13.23c-.12-5.11,3-8.63,6.77-11.58,1.62-1.29,2.77,0,3.56,1.4q4.16,7.59,8.29,15.21c.36.67.75,1.32,1.12,2l.65,0c.12-.81.28-1.62.34-2.43.57-7.54.84-15.12,1.82-22.61.39-3,2.09-5.88,3.69-8.52s4.3-2.73,6.86-.76a18.48,18.48,0,0,1,6.28,8.52C144,45.61,145.86,52,147.9,58.41a18.47,18.47,0,0,0,.94,2l.68-.15c.09-2.37.09-4.74.29-7.1.46-5.53.65-11.13,1.65-16.57.84-4.55,2.81-8.84,6.71-11.84l1.72-.06c6.45,3.31,9.76,9,10.82,15.8,1.38,8.81,2.24,17.7,3.21,26.58.71,6.47,1.19,13,1.86,19.42.28,2.63,1,3.23,3.63,3.07,9.34-.57,18.72-.92,28-2,4.69-.52,9.21-2.39,13.84-3.59,8.08-2.09,16.17-4.12,24.24-6.2a5.51,5.51,0,0,1,5,1.06c6.66,5.26,10,12.08,9.6,20.63-.18,3.43.25,4.28,3.46,5.36,2.57.87,5.13,1.78,7.74,2.47,11.35,3,20.78,9.61,30.35,16,4.09,2.72,8.25,5.34,12.32,8.08a21.1,21.1,0,0,1,3.6,3q7,7.46,13.9,15a61.34,61.34,0,0,1,4.59,5.38c1.31,1.81,2.63,2.15,4.41.8a11.91,11.91,0,0,1,1.5-.82l15.06,40.33c2.94.1,6.84-2.73,8-6.16s1.93-6.72,3.3-9.9a46.84,46.84,0,0,1,5.14-9.49c4.4-5.92,14.44-7.24,18.61,2.37a36.51,36.51,0,0,1,3,11.72c.63,7.89-4,13.6-7.63,19.79-4.47,7.76-11.62,12.87-18.27,18.46-1.75,1.46-3.55,2.86-5.35,4.3.17.29.24.54.39.62,7.84,3.84,8,14.39,4.25,21.1q-.68,1.21-1.48,2.36a6.27,6.27,0,0,0-.7,6.1c2,5.33,4.14,10.62,5.92,16A53.06,53.06,0,0,1,375,283.61c.66,6.67.89,13.39.92,20.09,0,4.31-2.29,7.7-5.65,10.36-4.71,3.72-9.28,7.62-14.1,11.19a112.74,112.74,0,0,0-21,20.66c-.72.9-1.45,1.79-2.2,2.67-1.41-.58-2.84-1.11-4.29-1.59a24.33,24.33,0,0,0,3.84-5.56c-1.51.63-2.74,1.11-3.94,1.65-1.94.88-3.87,1.77-5.82,2.6a14.43,14.43,0,0,0-9.62,3.12,25.28,25.28,0,0,1-9.05.12c-3.4-.58-7-.25-9.71-3.08a28.93,28.93,0,0,1-6.73-9.79c-1.24-3.25-2.6-6.46-3.88-9.7q-4.43-11.31-8.84-22.63c-.8-2.05-2.13-3.12-4.46-2.54-4.68,1.17-9.49,1.93-14,3.51-13.76,4.81-28,7.28-42.29,9.84-7.07,1.27-14.14,2.52-21.21,3.82-2.64.48-3.54,1.63-3.35,4.29.3,4.27.77,8.53,1,12.81a121.29,121.29,0,0,1-2,30.41c-.95,4.9-3.75,8.16-8.86,9.23-3.89.82-7.71,1.95-11.61,2.72-11.64,2.31-23.3,4.5-35,6.75-1.94.37-3.87.77-5.81,1.16l0,1a35.61,35.61,0,0,0,4,1.37c6.72,1.45,13.54,2.56,20.21,4.25a181.51,181.51,0,0,0,20,4,15.15,15.15,0,0,0,.51,1.63,48.21,48.21,0,0,1,1.49,4.71c-5.94-.86-11.84-2-17.74-3.17-7.33-1.45-14.8-2.24-22.07-3.92a38.73,38.73,0,0,1-11.59-4.79,59,59,0,0,0-18-7.58c-5.21-1.21-9.1-4-11.41-8.84-2.47-5.21-5-10.39-7.32-15.68-2.07-4.77-3.9-9.64-5.72-14.51A50.45,50.45,0,0,1,78,338.2c-.81-3.23-1.18-6.62-2.33-9.71a17.56,17.56,0,0,0-7.15-8.28c-6.8-4.52-9.4-8.88-8-16.14a45.09,45.09,0,0,1,2.26-8.4,16.54,16.54,0,0,1,3.77-5.53,8.43,8.43,0,0,0,2.76-8.43c-.79-4.26-1.4-8.55-2-12.84q2.88,2.62,5.71,5.28l1.84,13.11c1.27,0,2.19-.07,3.11-.12l10.47-.55c1.41,1,2.84,1.91,4.26,2.87,2.17,1.46,4.24.61,6-2.27.1-.39.2-.77.29-1.16q21.38-1.14,42.75-2.26a137.7,137.7,0,0,0,26.85-3.61c3.16-.8,6.29-1.77,9.36-2.87,2.81-1,3.49-2.13,3.28-4.92s-.48-5.68-.83-8.52c-.3-2.38-.73-4.75-1.12-7.2-4.23.88-8.25,1.77-12.29,2.56-9.55,1.86-19.08,3.86-28.68,5.47-8.21,1.38-16.46,2.59-24.75,3.35a83.62,83.62,0,0,1-16.87-.34c-.45-1.82-.89-3.65-1.34-5.47,6.88.58,13.79.78,20.75.69,9.42-1.11,18.86-2,28.23-3.39,7.17-1.06,14.24-2.75,21.35-4.15,3.56-.71,7.12-1.39,10.66-2.14,1.44-.3,2.74-.82,2.77-2.7,0-2.92-1.86-4.14-4.53-2.77a41.18,41.18,0,0,1-13.42,4c-6,.8-12,1.76-18,2.42C136.54,254.91,129.86,255.64,123.16,255.86Zm237.6-38.57c.48,2.76,1.56,3.21,3.7,1.38,2.76-2.36,5.5-4.77,8-7.38,8.34-8.62,14.45-18.49,16.54-30.51.66-3.79-.83-7.32-3.61-7.89-4.08-.84-7.6-.18-9.16,4.07a62.81,62.81,0,0,0-2.75,8.75c-1.68,8-5.34,14.22-13.93,16.32-.52.12-.87.94-1.15,1.27C359.25,208.29,360,212.8,360.76,217.29Zm-242.51,1.1a165.41,165.41,0,0,1,17.75-.21c4.33.1,8.66.62,13,1,4.83.38,9.71.44,14.46,1.24,7.7,1.29,13.66,5.2,16.5,12.87a33.88,33.88,0,0,1,1.3,5.37,3.46,3.46,0,0,0,3.52,3.13c6.64.14,13.28.21,19.92.12,2.9,0,4.67-1.84,5.27-4.72.17-.84.24-1.69.42-2.52,1-4.73,4.63-7.51,9.27-7a10.72,10.72,0,0,1,7.37,4.65c2.46,3.26,2.57,3.24,6.23,1.55.71-.33,1.38-.74,2.06-1.12q6.62-3.69,13.25-7.38c3.48-1.93,4.26-3.83,3.46-7.78a14.65,14.65,0,0,1-.14-4.64c.43-3.36,3-5,5.68-6.48,10.27-5.56,20.58-11,30.82-16.65,12.1-6.67,24.44-13,35.66-21.09,3.4-2.46,6.63-5.14,10-7.78-3.41-5.77-7.34-10.76-12.85-14a113.25,113.25,0,0,1-20.92-16.25,66.43,66.43,0,0,0-24.21-14.92c-5.58-1.93-11.12-3.94-16.62-6.1a5.43,5.43,0,0,0-5,.37c-4.49,2.48-8.89,5.16-13.56,7.26-12.52,5.64-25.6,9.73-38.79,13.49-16.45,4.68-33.11,8.67-49.17,14.63q-26.78,9.92-53.59,19.67A18.45,18.45,0,0,0,90,172.3c-9.47,13.87-12.65,29.23-10.74,45.76.52,4.54.6,4.53,5.16,4l.64-.05C96.13,220.77,107.17,219.35,118.25,218.39ZM260.13,234.1c1.36-.05,2.83.23,4-.21a104.93,104.93,0,0,0,10.22-4.28c15.39-7.56,30.73-15.21,46.08-22.83,8.58-4.26,16.84-9,24-15.47,2.91-2.6,3-4.5.34-7.58-.95.71-2,1.37-2.85,2.16-12.83,11.43-27.36,20.25-42.73,27.71-12.08,5.86-24.35,11.36-36.51,17.09a15.82,15.82,0,0,0-3,2.39Zm11.3,36.74c13.93-5.7,27.69-11.42,41.53-17,9.35-3.75,18.4-8,26.44-14.13,4.53-3.47,9-7,13.55-10.45a2.91,2.91,0,0,0,1.17-3.52c-1.56-.92-2.94-.48-4.38.35q-12.41,7.13-24.86,14.18c-6.3,3.58-12.38,7.7-19,10.54-8.52,3.64-17.48,6.25-26.26,9.27-3.32,1.14-6.68,2.19-10.13,3.31ZM198.95,125.18l28.19-9.38a59.63,59.63,0,0,0-19.49-17.51Zm11.3,148.72c-1,.1-2.74-.24-3-.83-.41-1,0-2.46.24-3.68.1-.48.8-.82,1.07-1.3,1.24-2.21,3.36-4.4,3.46-6.68.24-5.36-.49-10.77-.85-16.54a80.87,80.87,0,0,1-28,2.43c5.43,13.45,5.18,27.24,5.34,41.24,3-.43,5.78-.75,8.56-1.25,7.21-1.3,14.47-2.39,21.57-4.12,10.29-2.51,20.44-5.48,31.1-6.29,5.69-.43,11.32-1.68,17.4-2.62-4.74-15.64-9.24-30.48-13.82-45.57-7,3.5-13.75,6.89-20.49,10.23a6.52,6.52,0,0,0-3.67,5.63,50.78,50.78,0,0,1-8.24,23.08A13.88,13.88,0,0,1,210.25,273.89Z"/><path class="cls-4" d="M73.08,274.15l2.62,2.48a97.5,97.5,0,0,0,12.8,10L78,287.14c-.92,0-1.84.07-3.11.12Z"/><path class="cls-4" d="M71.74,264.62c3.88,3.76,8.14,7.11,11.88,11,1.7,1.78,3.79,3.16,5.49,4.89a19.28,19.28,0,0,0,5.61,4.15,21.79,21.79,0,0,1,2.67,1.43l-8.89.47a97.5,97.5,0,0,1-12.8-10l-2.62-2.48C72.63,271,72.19,267.85,71.74,264.62Z"/><path class="cls-4" d="M71.74,264.62c0-.19-.06-.39-.08-.58,2.3.32,4.42.6,6.54.93,6.17.95,12.34,2.05,18.54,2.72.83,3.36,1.69,6.71,2.66,10,.86,2.91.31,5.59-.36,8.3l-1.65.09a21.79,21.79,0,0,0-2.67-1.43,19.28,19.28,0,0,1-5.61-4.15c-1.69-1.73-3.78-3.11-5.49-4.89C79.88,271.74,75.62,268.38,71.74,264.62Z"/><path class="cls-4" d="M129.33,250.23c-12.92-.06-25.83,0-38.75-.22L89,250A51.31,51.31,0,0,0,83,242.69a13.88,13.88,0,0,0-4-3.24c-1.12-.95-2.61-1-3.88-1.59-1.58-.73-3.17-1.48-4.76-2.19a9.84,9.84,0,0,1,8.07-6.12q5.5-.76,11.05-1.21c14.08-1.17,28.16-2.36,42.25-3.37,10.86-.78,21.6.65,32.29,2.42a28.18,28.18,0,0,0,3.15.48c3.92.2,6.29,2.32,7.58,5.87.7,1.93,1.44,3.86,2.09,5.81.9,2.69.44,3.79-2.31,4.36-8.13,1.7-16.25,3.51-24.46,4.74-6.83,1-13.77,1.32-20.66,1.94C129.35,250.47,129.34,250.35,129.33,250.23Z"/><path class="cls-4" d="M69.58,241.89c0-1.22,0-2.44.14-3.66a9.23,9.23,0,0,1,.58-2.57c1.59.71,3.17,1.45,4.76,2.19,1.27.59,2.76.64,3.88,1.59A.43.43,0,0,0,79,240c1.64,1.7,1.45,3.16-.56,4.34a4.13,4.13,0,0,1-3.34.21A26,26,0,0,1,69.58,241.89Z"/><path class="cls-4" d="M74.93,305.93c.45,2.42.72,4.87,1.08,7.37-6.18-1-9.15-5.1-7.66-10.69.22-.84,1.72-1.58,2.76-1.87a2.75,2.75,0,0,1,2.48.79A14.81,14.81,0,0,1,74.93,305.93Z"/><path d="M67.36,268.88c-.38-2.69-.75-5.38-1.14-8.06-.12-.79-.24-1.59-.36-2.38q1.31,1.31,2.54,2.71c1.06,1.21,2.19,2.36,3.35,3.48.45,3.23.9,6.39,1.34,9.53Q70.24,271.5,67.36,268.88Z"/><path d="M63.75,238.95c1.6.86,3.23,1.67,4.88,2.46l.94.48c0,1.35,0,2.7-.06,4-.07,2,.92,3,2.9,3.14,5.54.29,11.09.75,16.63.89,1.23,1.75,2.38,3.56,3.5,5.39-6.61-.32-13.22-.73-19.83-1a7.13,7.13,0,0,0-2.34.78c.36,1,.45,2.33,1.16,2.93a7.66,7.66,0,0,0,3.35,1.2,167.33,167.33,0,0,0,20.51,3c.45,1.82.89,3.64,1.34,5.47-6.2-.67-12.36-1.78-18.54-2.72-2.12-.33-4.25-.6-6.54-.93,0,.19.06.39.08.58-1.16-1.12-2.28-2.27-3.35-3.48q-1.23-1.4-2.54-2.71c-.82-5.19-1.77-10.36-2.19-15.58A21.29,21.29,0,0,1,63.75,238.95Z"/><path d="M63.75,238.95c.18-1.87.52-3.77.74-5.65,2,.7,3.9,1.51,5.8,2.38a9.23,9.23,0,0,0-.58,2.57c-.1,1.21-.13,2.43-.14,3.66l-.94-.48C67,240.62,65.35,239.81,63.75,238.95Z"/><path class="cls-8" d="M28.25,205.29c1.93-1.84,3.81-1.66,5.51.43a142.85,142.85,0,0,1,8.35,12.05c2.7,4.12,6.61,7.21,9.47,11.18,3.24,4.48,7.52,7.48,12.17,10a21.29,21.29,0,0,0-.09,3.91c.42,5.22,1.37,10.39,2.19,15.58-4.58-4.62-9.78-8.57-14.64-12.87-5.77-5.11-11.87-9.9-17.24-15.42-4-4.13-7.95-8.59-8.62-14.82C25,211.56,25.36,208,28.25,205.29Z"/><path class="cls-9" d="M66.22,260.82c.39,2.68.76,5.37,1.14,8.06-9.52-8.68-19.23-17.15-28.22-26.4a118.82,118.82,0,0,1-14.67-17.55c-4.49-6.87-5.37-14.16-1.26-21.65A7.94,7.94,0,0,1,34,200.18c3,1.67,4.62,4.5,6.39,7.18a79.87,79.87,0,0,0,6.51,9.29c4.19,4.72,8.28,9.55,12.4,14.33A3.45,3.45,0,0,0,61,232.2c1.18.32,2.33.69,3.47,1.1-.22,1.88-.56,3.78-.74,5.65-4.64-2.52-8.93-5.52-12.17-10-2.86-4-6.77-7.05-9.47-11.18a142.85,142.85,0,0,0-8.35-12.05c-1.7-2.08-3.58-2.27-5.51-.43-2.89,2.76-3.29,6.27-2.89,10C26,221.55,30,226,34,230.14c5.37,5.52,11.47,10.31,17.24,15.42,4.86,4.31,10.06,8.25,14.64,12.87C66,259.23,66.1,260,66.22,260.82Z"/><path class="cls-10" d="M386.38,361.49c1.61-3.32,2.94-6.12,4.32-8.88,4.3-8.63,11.87-12.37,20.93-12.44,6,0,10.91,3.34,14.18,8.62.7,1.14,1.42,2.27,2.39,3.81,2.95-4.56,7.44-6.06,11.93-7.37,5.25-1.53,10.45-1.62,15.11,1.92,2,1.54,4.12,3,6,4.74a15.62,15.62,0,0,1,5.14,13.18,2.91,2.91,0,0,0,0,.72q.48,2.12,1,4.23c1.94-.5,4.33-.47,5.71-1.63,1.87-1.58,3-4.08,4.43-6.18.65-.94,1.33-1.87,2-2.81h.78c.26.75.94,1.67.72,2.23-2.19,5.49-4.54,11-11.55,11.64a3.51,3.51,0,0,0-3.53,3.1c-1.15,5.12-4.36,8.8-8.52,11.78-1.09.78-2.08,1.69-3,2.46.4.61.49.85.56.85,4.24-.26,6.68,2.6,9.18,5.3,1,1.11,2,2.29,2.93,3.48.27.34.56,1,.4,1.24-.28.38-1,.85-1.33.72a20.82,20.82,0,0,1-4.83-2.57c-2.68-2.21-5.19-4.44-9-4.46a8.9,8.9,0,0,0-6.8,3c-3.18,3.44-5.85,7.27-6.33,12.1a14.58,14.58,0,0,0,.68,4.86c.25,1,1.06,1.8,1.42,2.76.25.67.48,1.81.15,2.12a3.06,3.06,0,0,1-2.33.59,100.46,100.46,0,0,1-15-3.91c-6.56-2.19-12.08-6.14-18.21-9a9.1,9.1,0,0,1-2.1-1.59c-1.49-1.34-2.77-1.24-3.05.65-.7,4.75-1.19,9.59,1.8,13.91.41.59,1.09,1.1,1.23,1.74a6,6,0,0,1-.36,2.16,5,5,0,0,1-1.64-.52,10.21,10.21,0,0,1-4.07-7.57c-.18-2.4-.8-4.79-.7-7.16a10.54,10.54,0,0,1,1.65-4.83c1-1.65,1-2.66-.47-4-6.82-6.2-10.46-14.29-12.64-23-.71-2.83-.19-6.05.17-9,.28-2.24-.23-3.48-2.32-4.46-6.49-3-9.6-8.35-9.87-15.43,0-.24-.11-.54,0-.71.71-1.14,1.46-2.26,2.19-3.38a12.29,12.29,0,0,1,.81,3.21,14.46,14.46,0,0,0,4.79,11.12C382.7,360.1,384.81,360.68,386.38,361.49Z"/><path class="cls-11" d="M53.48,152.84a7.65,7.65,0,0,0-3.71-.72c-3,.62-5.8,1.94-9.1,3.11a23.79,23.79,0,0,1-.42-4c.42-4.58-.76-6.22-5.71-4.34-3.94,1.5-8.35,1.7-12.5,2.71-2.19.53-4.32,1.35-7,2.29a4.35,4.35,0,0,0-.1,2.3L20,159c-3.74.74-6.74.69-9,2a9.36,9.36,0,0,0-2.67,2.53,2.74,2.74,0,0,1-.18.77l-.08.19c.16.86.29,1.73.52,2.59a2.7,2.7,0,0,0,.9,1.6c.3.15.59.29.88.41a6.11,6.11,0,0,0,.61.13,2.2,2.2,0,0,1,.64.21,2.27,2.27,0,0,0,.89-.06C16.87,168,21,166,25.68,163.88A21.22,21.22,0,0,1,26.9,162c0-.46-.09-.93-.12-1.39l-5.45-6.69L36,151.27c0,3.15-.37,5.26.12,7.15a9.4,9.4,0,0,0,1.77,3.17c.89.15,1.78.24,2.68.33A85.19,85.19,0,0,0,53.09,158c.86-.35,1-2.47,1.34-4.11Z"/></svg>