<svg id="圖層_1" data-name="圖層 1" xmlns="http://www.w3.org/2000/svg" viewBox="0 0 499.33 463.29"><defs><style>.cls-1{fill:#69522a;}.cls-2{fill:#c9a63e;}.cls-3{fill:#fff;}.cls-4{fill:#537534;}.cls-5{fill:#aa4c39;}.cls-6{fill:#efeaf2;}.cls-7{fill:#020202;}.cls-8{fill:#d05351;}.cls-9{fill:#a53226;}</style></defs><title>chicken</title><path class="cls-1" d="M443,314c-2.53,4.32-4.65,5.15-9.54,3.13-.86-.36-1.69-.77-2.54-1.15a48.67,48.67,0,0,1,6.06-17.5c2.68-4.54,12.06-4.15,14.48-.21,1.8,2.93,8.63,3.73,11.53,1.74a3.87,3.87,0,0,1,2.54-.66c3.61.55,8.34,4.66,8.89,9a117.56,117.56,0,0,1,.35,23.08,13.76,13.76,0,0,1-4.68,10,8,8,0,0,1-9.1.78c0-8.54.16-16.51-.08-24.47-.05-1.66-1.43-3.35-2.43-4.88a7.25,7.25,0,0,0-2.39-1.92C450,307.23,446.59,307.83,443,314Z"/><path class="cls-2" d="M433.6,215.25a19,19,0,0,1,6.91.92c1,.3,2.48,1.88,2.36,2.68a6.86,6.86,0,0,1-2.35,3.84c-4.28,3.61-9.52,5-14.93,5.8-4.65.71-9.28,1.54-14,2a96.33,96.33,0,0,1-9.83.33c-4.81,0-9.62-.12-14.43,0-7.39.1-14.78.34-22.17.49-2.93.06-5.86,0-8.79,0V230c5.63-1.3,11.24-2.64,16.89-3.87,6.59-1.44,13.21-2.79,19.83-4.17,7-1.46,14.05-3.08,21.14-4.28C420.67,216.6,427.14,215.84,433.6,215.25Z"/><path class="cls-3" d="M437.31,353c-2.54.7-5.28,2-8-.3.09-.5.16-.87.21-1.24.7-4.18,3.72-6.36,7.76-5.35a3.05,3.05,0,0,1,1.59,2.3C439,350.1,439.57,352.38,437.31,353Z"/><path class="cls-3" d="M430.08,336.46c-.11-2.72.62-3.38,3.35-2.83a10.18,10.18,0,0,1,3.5,1,4.15,4.15,0,0,1,1.71,2.65c.1.86-.56,2.47-1.17,2.63a63.29,63.29,0,0,1-7.38,1.09C430.09,338.89,430.13,337.68,430.08,336.46Z"/><path class="cls-1" d="M432.61,374.58c1.95-.2,3.87-.65,5.85-1,0,6.79.2,13.4,0,20-.29,7.46-1.07,14.89-1.44,22.35-.17,3.35.17,6.72.18,10.09,0,2.08-1.12,3.11-3.22,3.05A21.13,21.13,0,0,1,430,429c-3.9-.86-5.14-3-5-7.18s-.47-8.25-.31-12.36c.21-5.29.82-10.56,1.3-15.84.4-4.56.77-9.13,1.29-13.69C427.72,375.73,428.62,375,432.61,374.58Z"/><path class="cls-3" d="M438.29,328c-2.1.37-4.56.59-6.41-.23-1.14-.5-1.39-3-2.27-5.09l9.56,1.5C438.89,325.5,438.8,327.91,438.29,328Z"/><path class="cls-3" d="M436.11,368.74a33.58,33.58,0,0,1-7.22-.37c-.12,0-.17-.83-.21-1.28-.09-1.25-.52-2.61-.16-3.72.46-1.45,1.28-3.5,2.43-3.89,2.5-.87,5.3-.85,8.13-1.21a56.54,56.54,0,0,1-.62,7.5C438.22,366.92,437,368.63,436.11,368.74Z"/><path class="cls-3" d="M447.15,283.6c-4.76-2.52-9.5-5.07-15.24-4.93-4.17.09-4.58-.84-3.79-6.59,1.93.37,3.7.57,5.4,1.06,4.32,1.23,8.61,2.59,12.91,3.9,3.63,1.1,7.34,2,10.86,3.41,1.3.52,2.36,2,3.23,3.24,1.87,2.62,1.44,7.9-.45,10.45-1.11,1.49-2,1.56-3.11.18-1.86-2.3-3.62-4.68-5.57-6.89A16.39,16.39,0,0,0,447.15,283.6Z"/><path class="cls-4" d="M396.37,358.15c.89-6.42,1.54-12,2.46-17.55,1.44-8.78,3-17.47,2.91-26.48-.15-10.12.71-20.26,1-30.39.1-3.29-.12-6.58-.31-9.86a6.06,6.06,0,0,1,4.24-6.54c2.85-.91,5.65-2.06,8.55-2.75,1.86-.43,4.07-.73,5.73-.09,1,.4,1.89,2.71,1.82,4.12a105.86,105.86,0,0,1-1.41,13.26c-1.47,8.49-3.06,17-4.91,25.38-1.48,6.68-3.25,13.29-5.17,19.85s-3.87,12.84-6.31,19.07c-1.29,3.29-3.59,6.22-5.56,9.22C398.83,356.27,397.81,356.87,396.37,358.15Z"/><path class="cls-4" d="M375.81,371.87c.21-3,.31-5.59.59-8.11.68-6.16,1.49-12.3,2.18-18.45.63-5.62,1.35-11.25,1.68-16.89.28-4.77-.09-9.57.11-14.34.28-6.69.94-13.37,1.26-20.06.2-4,.09-8.09.08-12.13,0-6.73.47-7.36,7.07-8.74,2.84-.6,5.7-1.13,9.25-1.84-.36,11.28-.47,22.08-1.11,32.84-.61,10.22-1.61,20.42-2.73,30.6-.82,7.44-2.06,14.84-3.23,22.24a15,15,0,0,1-8.55,11.66C380.46,369.61,378.5,370.55,375.81,371.87Z"/><path d="M374.12,183.33a8.6,8.6,0,0,1,2.68.08c-.06.95.25,2.2-.24,2.8a11.44,11.44,0,0,1-8,4.56c-.84.07-1.69,0-2.67,0-.78-2.78.27-4.66,2.54-5.37C370.34,184.79,372.18,183.9,374.12,183.33Z"/><path d="M376.23,200.28a71.52,71.52,0,0,1-7.38-.68c-1.71-.32-2.18-2.19-.79-2.89a12,12,0,0,1,6.35-1c1,.11,1.74,2.17,2.6,3.34Z"/><path class="cls-4" d="M364.41,374.82c-7,.48-7.48,0-7.25-7,.12-3.6-.22-7.22-.06-10.81.15-3.06.83-6.09,1.1-9.15.35-4,.5-7.92.78-11.88.52-7.55,1-15.1,1.63-22.64q.77-8.92,1.94-17.81c.7-5.39,1.46-10.79,2.6-16.1.58-2.75,3.58-1.9,5.52-2.33s3.83-.09,5.91-.09c0,2.45.1,5.24,0,8-.37,8.35-.6,16.72-1.32,25-.81,9.28-2.13,18.52-3.14,27.79a28.11,28.11,0,0,0,0,5.67c.76,7.85-.54,15.48-2.13,23.1a23.27,23.27,0,0,0-.21,3.11c-.23,3.68-1.06,4.56-4.73,5Z"/><path class="cls-4" d="M346.11,279.74h11.34c-.78,6.1-1.67,11.75-2.17,17.43-.32,3.64.1,7.33-.09,11-.53,10.42-1.08,20.83-1.87,31.23-.6,7.87-1.59,15.71-2.41,23.56-.22,2.13-.14,4.35-.79,6.34a4.46,4.46,0,0,1-3,2.53c-3.33.5-6.74.48-10.41.68C340.77,341.36,345.55,310.93,346.11,279.74Z"/><path class="cls-1" d="M350.51,166.33c-.66.6-3.43-.18-4.52-1.15-3.46-3.1-7.54-4.84-11.75-6.52-4.49-1.79-5.57-8.58-2-12a7.78,7.78,0,0,1,2.2-1c2.35.89,4.68,2,7.11,2.67,5.81,1.68,8.88,6.68,13,10.45a1.37,1.37,0,0,1,.31,1.27C353.47,162.28,352.33,164.69,350.51,166.33Z"/><path d="M346,165.18c1.09,1,3.86,1.76,4.52,1.15,1.82-1.64,3-4.05,4.27-6.21a1.37,1.37,0,0,0-.31-1.27c-4.08-3.78-7.15-8.77-13-10.45-2.43-.71-4.76-1.78-7.11-2.67a7.78,7.78,0,0,0-2.2,1c-3.53,3.39-2.45,10.17,2,12C338.45,160.34,342.53,162.08,346,165.18Zm-17.57-19.87c2.23-4.81,4.56-5.52,9.43-3.93,6.8,2.22,12.66,6.19,18.91,9.44,1.44.75,4.89,7.08,4.25,8.21a71.19,71.19,0,0,1-6.09,9.33c-1.36,1.69-3.51,2.76-5.41,4.17-3-1.2-5.46-2-7.75-3.17-4.13-2.12-8.07-4.59-12.21-6.71s-5.86-5.55-4.32-10C326.1,150.12,327.31,147.72,328.42,145.31Z"/><path class="cls-3" d="M341.62,217.76a6.68,6.68,0,0,1-7.23-6.35c-.14-2.82,3.09-6.13,6.23-6.38,4.53-.37,8.32,2.11,8.57,5.62C349.46,214.4,346.22,217.45,341.62,217.76Z"/><path d="M343.34,187.87c-1.9,0-4.45-2.26-4.48-4-.06-2.51,2.19-5,4.45-5,2,0,4.78,2.45,4.83,4.2C348.21,185.12,345.51,187.85,343.34,187.87Z"/><path class="cls-2" d="M329.5,431.58l-1.38-.51c.51-2.69.91-5.41,1.57-8.06a23,23,0,0,1,1.73-3.78c1.92-4.18,3.87-8.34,5.74-12.54a38.62,38.62,0,0,0,2.33-6.08,4.19,4.19,0,0,1,4.43-3.52c1.68-.05,3.35,0,5.79,0C343.68,409.39,336.2,420.26,329.5,431.58Z"/><path class="cls-4" d="M330.09,372.43c-3.32-.26-6.71-.43-10.06-.86-.51-.06-1.26-1.36-1.22-2.05.47-7.64,1.05-15.26,1.66-22.89.58-7.25,1.37-14.49,1.78-21.75.27-4.8-.16-9.64.08-14.45.33-6.5,1.09-13,1.47-19.47.21-3.76,0-7.54,0-11.86,4.71,0,8.47,0,12.23,0,1.69,0,2.41,1,2.21,2.57-.35,2.81-1,5.61-1.14,8.43-.4,6.6-.71,13.21-.87,19.83-.18,7.65.12,15.32-.3,23-.45,8.15-1.25,16.29-2.36,24.38C332.91,362.25,331.34,367.14,330.09,372.43Z"/><path class="cls-1" d="M332.69,247.87c0-.57,2.07-1.07,3.19-1.6l.73,1q-1.2,6.84-2.38,13.68l-.85-.11C331.43,256.67,332.56,252.21,332.69,247.87Z"/><path class="cls-1" d="M323.94,246l1.11-.77c.73.42,2,.75,2.1,1.27.51,3.36.77,6.77,1.11,10.16l-1.46.26Q325.37,251.5,323.94,246Z"/><path d="M325.05,245.27l-1.11.77q1.44,5.46,2.86,10.92l1.46-.26c-.34-3.39-.6-6.8-1.11-10.16C327.08,246,325.78,245.69,325.05,245.27Zm-6.85-.61c-.76.85-1.89,1.59-2.19,2.58a11.76,11.76,0,0,0,0,3.94,10.42,10.42,0,0,0,9.07,9.76c-.35-.83-.61-1.59-1-2.3-2-3.66-4-7.26-4.2-11.58C319.84,246.23,318.79,245.46,318.2,244.66Zm17.68,1.61c-1.12.53-3.17,1-3.19,1.6-.13,4.34-1.26,8.81.69,13l.85.11q1.18-6.84,2.38-13.68Zm-22.33-5.49a24.89,24.89,0,0,1,2.41-2c5.91.95,10.82,1.76,15.73,2.51,2.33.36,4.68.71,7,.85a2.91,2.91,0,0,1,2.88,3.73c-1.06,5.64-2.43,11.23-3.9,16.77-1,3.61-3.15,5.22-6.68,4.55-5.79-1.1-11.59-2.22-16.11-6.72-2.9-2.87-3.45-6.4-3.62-10C311.13,247.14,310.9,243.53,313.55,240.77Z"/><path class="cls-1" d="M316,247.24c.3-1,1.43-1.73,2.19-2.58.59.8,1.63,1.57,1.68,2.41.23,4.32,2.24,7.92,4.2,11.58.38.7.64,1.47,1,2.3a10.42,10.42,0,0,1-9.07-9.76A11.76,11.76,0,0,1,316,247.24Z"/><path class="cls-3" d="M190,357.1c-4.38-3.14-7.28-7.39-9.42-13.26,4.08,1.58,7.6,2.85,11,4.29,6.43,2.7,12.77,5.6,19.23,8.21,2.6,1,5.56,1.24,8.13,2.36,7.32,3.19,15.15,4.28,22.83,6q11.89,2.67,23.75,5.51c2.26.54,4.41,1.52,6.68,2,1.89.36,3.93,0,5.8.39,4.19,1,8.25,2.6,12.46,3.33,9,1.58,18,3,27.07,4,7.26.85,14.67,2,21.87,1.36,8.27-.73,16.38.51,24.57.16a31.62,31.62,0,0,0,5.27-1.12l2.26-.46c.17.36.34.72.51,1.08-1.88,1.2-3.63,2.77-5.68,3.53-11.9,4.4-24,7.84-36.92,7.46a5.81,5.81,0,0,0-1.69.11,28.14,28.14,0,0,1-11.49.49c-13.78-1.85-27.61-3.39-41.42-5-7.41-.88-14.91-1.28-22.23-2.63-10.54-2-21-4.3-31.39-7-4-1.05-7.52-3.71-11.33-5.49-5.42-2.54-9.64-6.5-13.68-10.82C194.55,359.72,192.11,358.6,190,357.1Z"/><path class="cls-5" d="M330.23,108a13.36,13.36,0,0,1-10.2-4.15,28.91,28.91,0,0,0-3.57-3.24c-2.45-1.71-5-1.51-6.73.91a91.75,91.75,0,0,0-7.25,11.78c-1,2-2,1.37-3.35,1.12-1.7-.31-2.36-1.34-1.8-2.82a41.53,41.53,0,0,1,2.74-5.61c2.75-4.89,5.92-9.65,10.76-12.48,3.46-2,7.7-2.72,11.6-4,.07.23.14.46.21.69,6.21,0,13.11,7.8,12,13.87C334.24,106,333.09,108,330.23,108Z"/><path class="cls-4" d="M303.29,282.19c.14-1.55.41-3.1.66-5,3.5.54,6.36,1.22,9.25,1.37,4.17.22,4.35,1.49,4.5,5,.3,6.6.54,13.22.48,19.82-.06,6.05-.54,12.09-.85,18.14-.32,6.3-.4,12.62-1,18.89-.88,9.2-2.12,18.37-3.21,27.55-.26,2.11-1.48,3-3.53,2.63-3.69-.69-7.4-1.35-11-2.3a3.26,3.26,0,0,1-1.72-2.51c0-4.09.16-8.19.39-12.27.46-8.38.86-16.77,1.54-25.13.55-6.85,1.55-13.66,2.22-20.5C301.83,299.32,302.52,290.75,303.29,282.19Z"/><path class="cls-5" d="M301.75,49.38c2.46-.55,3.61.74,3.7,2.63A41.66,41.66,0,0,1,302,71.22a34.54,34.54,0,0,0-1.62,6.23c-.73,3.07-1.39,6.16-2.19,9.22-.24.94-1,1.73-1.29,2.67-1,3.76-1.8,7.61-2.94,11.33a76.12,76.12,0,0,1-3.73,9.69,4.21,4.21,0,0,1-2.88,1.87,51.7,51.7,0,0,1-6.91.09c1.53-6.07,3-11.71,4.36-17.38.65-2.77.86-5.64,1.54-8.4,1.49-6,3-12.08,4.79-18.05a100.33,100.33,0,0,1,4.52-12.62C296.84,53.15,298.16,50.19,301.75,49.38Z"/><path class="cls-3" d="M290.76,205.07c4.89-.09,7.61,2.51,7.67,7.37,0,3.41-3.17,6.08-7.29,6.34a7.35,7.35,0,0,1-7.78-6.61C283.1,208,286.17,205.16,290.76,205.07Z"/><path class="cls-4" d="M281.29,275.46a2.69,2.69,0,0,1,2.14-1.56c2.74.45,5.38,1.4,8.12,1.91,2.12.39,3.14,1,3.14,3.57,0,10.45.76,20.92.4,31.36-.42,12.06-1.73,24.1-2.63,36.15-.15,2-.07,4-.32,5.91-.61,4.77-1.35,9.53-2.12,14.82l-7.78-1.23c-2-.3-2.75-1.8-2.2-3.29,2.15-5.83,1-11.84,1.15-17.73.31-14.6,0-29.22-.12-43.84,0-4.54-.5-9.07-.48-13.61C280.59,283.76,280.88,279.59,281.29,275.46Z"/><path d="M334.39,211.41a6.68,6.68,0,0,0,7.23,6.35c4.6-.32,7.84-3.36,7.57-7.12-.25-3.5-4-6-8.57-5.62C337.48,205.28,334.25,208.59,334.39,211.41Zm-36,1c-.07-4.86-2.78-7.46-7.67-7.37-4.59.09-7.65,2.9-7.4,7.1a7.35,7.35,0,0,0,7.78,6.61C295.26,218.52,298.48,215.85,298.43,212.44Zm6.06-2.46c6.9.37,13.8.67,20.71.82,2.69.06,4.53-.74,5.3-4.11,1.08-4.68,5.1-6.79,9.64-7.73s7.89,1.14,10.56,4.23c5.85,6.75,1.94,15.36-4.55,19.23-1,.62-2.58.38-3.65.51-4.82-.25-8.67-1.63-11.3-5.74a5,5,0,0,0-3.33-2c-3.48-.34-7-.32-10.51-.37-4.14-.06-8.3-.18-12.43,0a4.2,4.2,0,0,0-2.9,1.93c-5.19,9.42-16,8.9-21.56,1.74-4.2-5.47-.2-15.63,6.54-17.39,7.28-1.9,12.33.55,15.49,7.38A2.89,2.89,0,0,0,304.49,210Z"/><path class="cls-5" d="M274.77,108.18a4.3,4.3,0,0,1-5.68,3.12,2.14,2.14,0,0,1-.94-1.7c.06-2.89-.12-5.86.53-8.64,1.29-5.47.11-10.83-.4-16.16A71.73,71.73,0,0,1,269.64,64c.36-1.79.39-3.65.81-5.41,1.21-5.08,2.36-10.18,3.91-15.15a56.54,56.54,0,0,1,3.92-8.58,27.13,27.13,0,0,1,2.57-3.52c3.82,4.46,5.53,9,5,14.8-.33,3.38-.3,6.86-.48,10.3-.42,7.88-1,15.71-3.62,23.24-.77,2.18-1,4.56-1.77,6.72C277.33,93.46,276.58,100.94,274.77,108.18Z"/><path d="M274.47,190.75a5,5,0,0,1-4.27-4.25,5.72,5.72,0,0,1,5.38-5.26c2.11,0,4.19,2.75,4.14,5.51C279.66,188.9,277.16,190.81,274.47,190.75Z"/><path class="cls-4" d="M260.22,269c-.12-1.19-.46-2.36-.81-4,3.4,1.12,6.44,2,9.36,3.13,2.13.84,5.29.32,5.46,4.1.1,2.34,1,4.63,1.18,7,.31,4.93.4,9.88.45,14.83,0,3.63-.21,7.27-.18,10.91,0,5.44.34,10.88.31,16.31-.06,9.24-.18,18.48-.48,27.71-.14,4.2-.73,8.39-1.24,12.57a11.22,11.22,0,0,1-1.16,2.78c-3.49-.73-6.6-1.27-9.64-2.1-.58-.16-1.22-1.4-1.23-2.14-.23-13.59-.27-27.18-.55-40.76-.17-7.86-.83-15.72-1-23.58-.12-5.8.31-11.62.28-17.43A92.32,92.32,0,0,0,260.22,269Z"/><path class="cls-1" d="M254.17,169.9a3.42,3.42,0,0,1-2.45.46c-.77-1.51-2.12-3.53-1.64-4.72a34.72,34.72,0,0,1,4.86-7.82c2.59-3.43,5.43-6.68,8.19-10a15,15,0,0,1,1.89-1.92c5.9-4.88,9.15-2.29,10.4,3.75.13.63.31,1.24.61,2.42C268.87,157.93,261.55,164,254.17,169.9Z"/><path d="M270,138.1c7.22,0,12.41,7,11.39,14.22a5.16,5.16,0,0,1-1.77,2.82c-6.13,5.31-12.26,10.62-18.56,15.73a61.47,61.47,0,0,1-7.85,4.94c-1.42.82-2.78,1-3.87-.77a9.23,9.23,0,0,0-2.46-2.33c-2.32-1.75-2.33-4.07-2-6.65.8-5.84,4.83-9.63,8.41-13.73,3.09-3.54,6.55-6.83,9.2-10.66C264.5,138.75,267.09,138.44,270,138.1Zm-18.25,32.26a3.42,3.42,0,0,0,2.45-.46c7.39-5.94,14.7-12,21.85-17.82-.3-1.18-.48-1.8-.61-2.42-1.25-6-4.5-8.62-10.4-3.75a15,15,0,0,0-1.89,1.92c-2.75,3.31-5.59,6.56-8.19,10a34.72,34.72,0,0,0-4.86,7.82C249.6,166.83,250.95,168.84,251.72,170.36Z"/><path class="cls-4" d="M242.56,265.89c-1.27-4.7.8-5.74,5.32-4.4.72.21,1.51.15,2.24.31,2.85.63,4.65,1.85,4.56,5.34-.1,3.66.58,7.35,1.08,12.69,0,4.11-.09,9.88,0,15.65.17,9.37.54,18.73.67,28.1.08,5.74-.12,11.49-.21,17.23-.1,6.13-.31,12.26-.23,18.38,0,1.69-.59,2.25-1.87,1.89-2.89-.83-6-1.5-8.42-3.1-1.18-.77-1.44-3.47-1.51-5.32C244,346.78,244,340.87,244,335c-.1-10.58,0-21.17-.38-31.75-.18-5.8-1.36-11.58-1.55-17.39-.21-6.17.21-12.37.38-18.55C242.43,266.82,242.67,266.31,242.56,265.89Z"/><path class="cls-2" d="M247.63,421.77c-8-10.75-15.71-21.66-18.37-35.83,2.44.31,4.74.53,7,.92a11.9,11.9,0,0,1,4,1.2,5.1,5.1,0,0,1,2.35,2.78c1.21,5.51,2.17,11.07,3.2,16.62.86,4.65,1.71,9.31,2.57,14Z"/><path d="M238.49,190.74a5.79,5.79,0,0,1-2.11-.34,23.46,23.46,0,0,1-2.57-2.25,9.64,9.64,0,0,1,2.63-1.82,25.66,25.66,0,0,1,6.68-1.11c1.13,0,2.24,1.25,3.37,1.94-.76.93-1.36,2.34-2.33,2.67A29.74,29.74,0,0,1,238.49,190.74Z"/><path d="M242,200.66a59.31,59.31,0,0,1-6-2.31c-1.18-.61-.79-2.85.48-3.56,1.62-.9,5.52-.27,6.16,1.39C243,197.26,242.29,198.78,242,200.66Z"/><path class="cls-3" d="M243.13,185.22a25.66,25.66,0,0,0-6.68,1.11,9.64,9.64,0,0,0-2.63,1.82,23.46,23.46,0,0,0,2.57,2.25,5.79,5.79,0,0,0,2.11.34,29.74,29.74,0,0,0,5.68-.91c1-.33,1.57-1.75,2.33-2.67C245.37,186.48,244.26,185.23,243.13,185.22ZM236,198.35a59.31,59.31,0,0,0,6,2.31c.32-1.87,1.08-3.4.67-4.48-.63-1.66-4.54-2.29-6.16-1.39C235.21,195.5,234.82,197.73,236,198.35Zm95,68.81c3.52.67,5.72-.94,6.68-4.55,1.47-5.55,2.84-11.14,3.9-16.77a2.91,2.91,0,0,0-2.88-3.73c-2.35-.13-4.69-.49-7-.85-4.91-.75-9.82-1.57-15.73-2.51a24.89,24.89,0,0,0-2.41,2c-2.65,2.75-2.42,6.36-2.26,9.69.17,3.57.71,7.1,3.62,10C319.43,264.94,325.23,266.06,331,267.16ZM376.8,183.4a8.6,8.6,0,0,0-2.68-.08c-1.95.57-3.79,1.47-5.72,2.08-2.27.71-3.32,2.6-2.54,5.37,1,0,1.83.06,2.67,0a11.44,11.44,0,0,0,8-4.56C377.06,185.6,376.75,184.35,376.8,183.4Zm-2.4,12.26a12,12,0,0,0-6.35,1c-1.39.69-.92,2.57.79,2.89a71.52,71.52,0,0,0,7.38.68L377,199C376.14,197.83,375.38,195.77,374.4,195.67ZM270.2,186.5a5,5,0,0,0,4.27,4.25c2.69.06,5.19-1.84,5.24-4,.06-2.76-2-5.52-4.14-5.51A5.72,5.72,0,0,0,270.2,186.5Zm10.26,32c5.51,7.16,16.37,7.68,21.56-1.74a4.2,4.2,0,0,1,2.9-1.93c4.14-.2,8.29-.08,12.43,0,3.51.05,7,0,10.51.37a5,5,0,0,1,3.33,2c2.63,4.11,6.48,5.48,11.3,5.74,1.07-.13,2.61.11,3.65-.51,6.49-3.87,10.4-12.48,4.55-19.23-2.67-3.08-6.11-5.16-10.56-4.23s-8.56,3.05-9.64,7.73c-.77,3.37-2.61,4.17-5.3,4.11-6.91-.14-13.81-.45-20.71-.82a2.89,2.89,0,0,1-2-1.47c-3.17-6.83-8.22-9.28-15.49-7.38C280.26,202.88,276.26,213,280.46,218.51Zm61.31-49.15c2.29,1.18,4.77,2,7.75,3.17,1.89-1.42,4-2.48,5.41-4.17A71.19,71.19,0,0,0,361,159c.64-1.12-2.81-7.46-4.25-8.21-6.25-3.25-12.11-7.22-18.91-9.44-4.87-1.59-7.2-.88-9.43,3.93-1.11,2.42-2.32,4.81-3.18,7.32-1.54,4.47.15,7.89,4.32,10S337.64,167.24,341.77,169.36Zm1.54,9.46c-2.26,0-4.5,2.54-4.45,5,0,1.76,2.58,4,4.48,4,2.17,0,4.86-2.75,4.8-4.86C348.09,181.27,345.27,178.83,343.31,178.82Zm-94-3.78c1.09,1.81,2.46,1.6,3.87.77a61.47,61.47,0,0,0,7.85-4.94c6.3-5.11,12.43-10.42,18.56-15.73a5.16,5.16,0,0,0,1.77-2.82c1-7.2-4.16-14.23-11.39-14.22-2.88.34-5.47.64-7.49,3.57-2.65,3.84-6.11,7.12-9.2,10.66-3.58,4.1-7.61,7.89-8.41,13.73-.35,2.58-.34,4.89,2,6.65A9.23,9.23,0,0,1,249.3,175Zm100.39,50.24c-8.69,2.57-17.55.11-26.29.95a32.69,32.69,0,0,0-5.61.54c-1,.27-1.62,1.58-2.42,2.42.72.65,1.34,1.63,2.19,1.89a21.94,21.94,0,0,0,5.52,1,12,12,0,0,1,5.24,1.08c4.16,2.09,8.86,2,13.34,2.77,9.82,1.73,19.76,1.76,29.69,1.79,5.59,0,11.19.33,16.77.19,5.76-.15,11.51-.68,17.26-1.08,2-.14,4-.4,6.3-.63,1.12,2.55,2.8,5.15,3.4,8,1,4.6,2,9.43-.48,13.91a6.35,6.35,0,0,1-3.14,2.19c-4.34,1.75-8.72,3.38-13.11,5a43.08,43.08,0,0,1-5.59,1.6c-4.88,1-9.78,2-14.67,2.93-3.9.75-7.78,1.54-11.7,2.12-4.75.7-9.52,1.46-14.31,1.72a147.67,147.67,0,0,1-15.22-.1c-7.92-.4-15.81-1.1-23.72-1.57-3-.18-6-.07-9.07-.11a10.36,10.36,0,0,1-1.7-.17c-5.93-1.05-11.88-2-17.78-3.24-1.87-.39-3.56-1.55-5.36-2.29a294.51,294.51,0,0,0-31.53-10.68c-9.37-2.65-18.27-6.9-27.5-10.07-11.94-4.1-22.13-11.35-32.93-17.52-4.13-2.36-8.2-4.83-12.23-7.35-2.13-1.34-4.1-2.93-6.18-4.35a6,6,0,0,0-2.49-1.28c-2.81-.23-3.7-1.3-2.78-4.16,2.5-7.76,4.38-15.73,7.27-23.33,2.77-7.27,7.81-13.21,13.44-18.58.27-.26.54-.53.79-.82,5.26-6.09,10.08-12.65,15.91-18.14,5.49-5.16,11.88-9.42,18.16-13.65a78.19,78.19,0,0,1,13.46-7.24c5.07-2.11,10.47-3.42,15.71-5.13,2.42-.79,4.74-1.93,7.21-2.53,8.61-2.07,17.25-3.76,26.21-2,4.37.87,8.88,1,13.27,1.8,8.28,1.54,16.62,3,24.74,5.15,4.28,1.15,8.16,3.8,12.23,5.74,1.18.56,2.47.92,3.57,1.59,6.67,4,13.42,7.89,19.91,12.17,7.14,4.71,14.33,9.49,19.73,16.27,4.23,5.33,8.06,11,12,16.53,2.26,3.14,4.66,6.2,6.64,9.51,2.61,4.41,4.88,9,7.28,13.55,1.18,2.24,2.33,4.5,3.5,6.74.94,1.81,1.9,3.6,3,5.67-8.61,1.88-16.76,3.68-24.92,5.44-7.11,1.54-14.23,3.14-21.38,4.53-3.38.65-6.85.87-10.27,1.26A9.2,9.2,0,0,0,349.69,225.27Z"/><path class="cls-4" d="M222.44,261.94c-.13-2.87,0-5.74,0-9.24,3.44,1.24,6.3,2.19,9.1,3.28,5.42,2.11,5.35,2.13,5.15,8.06-.27,8.43-.68,16.86-.59,25.29.08,7,.74,13.91,1.25,20.85.38,5.14,1.17,10.26,1.36,15.41.16,4.32-.38,8.65-.44,13-.09,5.86,0,11.72,0,18.16-3.19-.6-6.19-1.09-9.16-1.79-.45-.1-.88-1.16-1-1.83-1.37-11.54-2.91-23.07-3.9-34.65-.57-6.67-.21-13.42-.32-20.13-.09-5.29-.14-10.57-.37-15.85C223.24,275.64,222.75,268.79,222.44,261.94Z"/><path class="cls-4" d="M221.38,349.28c.32,2.43-.12,2.9-2.52,2.2-2.88-.85-5.77-1.63-8.61-2.57a2.4,2.4,0,0,1-1.2-1.4,11.89,11.89,0,0,1-.44-2.79c-.63-9.58-1.28-19.17-1.83-28.76-.34-6-.55-12-.75-17.95-.16-5-.24-9.94-.33-14.9-.14-8-.21-16-.42-23.93-.12-4.82-.46-9.64-.73-14.82l8.28,3.76c.25.12.43.38.67.52,1.13.65,3,1.07,3.27,2,.54,1.79.16,3.84.21,5.79.17,5.85.39,11.69.57,17.53.12,4,.12,8.07.27,12.09q.47,13.44,1.05,26.88c.36,8.11.74,16.22,1.25,24.33C220.38,341.26,220.86,345.28,221.38,349.28Z"/><path class="cls-4" d="M186.13,239.06c.06-1.42.09-2.84.13-4.26,1.47.53,3,1,4.38,1.61.66.3,1.12,1.13,1.78,1.34,6.79,2.14,5.94,7.73,6.06,13,.23,10.82.55,21.64.87,32.46.19,6.12.32,12.24.69,18.34.44,7.4,1.19,14.77,1.63,22.17.39,6.56.54,13.13.78,19.7,0,.45-.06.91-.2,2.48-3.92-2-7.51-3.28-10.43-5.47-1.23-.92-1.15-3.69-1.51-5.65-.28-1.51-.35-3.07-.5-4.6-.41-4-1-7.93-1.19-11.9-.33-7-.28-14.11-.66-21.16-.46-8.49-1.3-16.95-1.79-25.44q-.57-9.85-.64-19.71C185.5,247.66,185.93,243.36,186.13,239.06Z"/><path class="cls-4" d="M168,227.15a18,18,0,0,1,.89-3.56c2.33,1.59,4.26,2.94,6.23,4.24a33,33,0,0,0,3.62,2.2c2,1,1.29,2.78,1.2,4.24-.21,3.55-.94,7.08-.95,10.63,0,6.13.18,12.28.57,18.4.5,7.6,1.42,15.17,1.92,22.77.61,9.18.9,18.38,1.45,27.57.33,5.38.94,10.75,1.3,16.13.15,2.21,0,4.45,0,7-2.39-.9-4.56-1.73-6.74-2.54-2.4-.89-3.71-2.2-3.9-5.16-.74-11.42-2-22.8-2.82-34.22-.58-8-.66-16-1.13-24.06-.45-7.63-1.32-15.24-1.63-22.87C167.73,241,167.92,234.07,168,227.15Z"/><path class="cls-4" d="M165.91,328.17a39.71,39.71,0,0,1-4.11-4.59c-1.39-2.19-2.44-4.6-3.61-6.93-2.35-4.7-4.68-9.4-5-14.82-.45-7.85-1-15.68-1.5-23.52a24,24,0,0,0,8.23-12.49c.6-2,1.05-4.14,1.46-6.24.54,4,1.23,8,1.72,12,.36,3,0,6,0,9,0,.45.06.91.1,1.37.49,6.84,1.06,13.67,1.46,20.51C165.12,310.68,165.46,318.93,165.91,328.17Z"/><path d="M161.39,259.58a74.71,74.71,0,0,1-.84-13.27c.64,2.21,1.21,4.44,1.81,6.66a3.34,3.34,0,0,1,0,1.54C162,256.2,161.71,257.9,161.39,259.58Z"/><path class="cls-4" d="M149.84,249.36a30.65,30.65,0,0,0,6.4-10.27c2.2.68,2.85,2.64,3.45,4.47q.45,1.37.85,2.75a74.71,74.71,0,0,0,.84,13.27c-.41,2.1-.85,4.2-1.46,6.24a24,24,0,0,1-8.23,12.49l-.24-3.75C150.92,266.16,150.32,257.76,149.84,249.36Z"/><path class="cls-4" d="M156.12,239.08a30.79,30.79,0,0,1-6.28,10.15q-.23-4-.41-8.08c0-.52,0-1,0-1.56l.32-.38C152.48,235.91,153.13,235.88,156.12,239.08Z"/><path class="cls-4" d="M149.84,249.23a30.79,30.79,0,0,0,6.28-10.15c-3-3.2-3.64-3.17-6.37.12l-.32.38a46.87,46.87,0,0,1,1.28-7.41,67.38,67.38,0,0,1,2.57-8.8,9.45,9.45,0,0,1,2.53-3.66c1.45-1.3,3.93-.29,4.49,1.64a8.21,8.21,0,0,1,.32,2.24c0,7.5.27,15-.07,22.51,0,.07,0,.14,0,.21q-.4-1.38-.85-2.75c-.6-1.84-1.25-3.8-3.45-4.47a30.65,30.65,0,0,1-6.4,10.27S149.84,249.27,149.84,249.23Z"/><path d="M150.12,278.11a3.34,3.34,0,0,1,.15,1.15c-1.58,2.29-3.25,4.53-4.86,6.8l-.07-.17c0-.2-.06-.4-.09-.6a3.16,3.16,0,0,0-.26-.83c-.08-1.94-.2-3.89-.21-5.83a3.28,3.28,0,0,0-.11-.77,2.51,2.51,0,0,0,0-1.9,7.85,7.85,0,0,1,2.45-.54h.24l.3,0C149.25,275.55,149.53,277,150.12,278.11Z"/><path d="M149.84,249.36a30.25,30.25,0,0,1-3.77,3.38,21.21,21.21,0,0,0-2.21,1.94v-.13a21.06,21.06,0,0,1,2.08-1.81,30.71,30.71,0,0,0,3.89-3.51S149.84,249.32,149.84,249.36Z"/><path d="M143.93,246.06c1.83-2.17,3.7-4.3,5.5-6.48,0,.52,0,1,0,1.56q.18,4,.41,8.08a30.71,30.71,0,0,1-3.89,3.51,21.06,21.06,0,0,0-2.08,1.81c0-.71,0-1.43-.08-2.14a15.82,15.82,0,0,0-.87-3.87c0-.43,0-.87,0-1.3Z"/><path d="M305.45,52c-.09-1.89-1.24-3.18-3.7-2.63-3.6.81-4.91,3.77-6.13,6.49a100.33,100.33,0,0,0-4.52,12.62c-1.76,6-3.3,12-4.79,18.05-.68,2.76-.88,5.63-1.54,8.4-1.33,5.68-2.83,11.32-4.36,17.38a51.7,51.7,0,0,0,6.91-.09,4.21,4.21,0,0,0,2.88-1.87,76.12,76.12,0,0,0,3.73-9.69c1.15-3.72,1.92-7.57,2.94-11.33.26-.94,1-1.73,1.29-2.67.8-3.06,1.45-6.15,2.19-9.22A34.54,34.54,0,0,1,302,71.22,41.66,41.66,0,0,0,305.45,52Zm128,281.63c-2.73-.55-3.46.11-3.35,2.83.05,1.21,0,2.43,0,4.53a63.29,63.29,0,0,0,7.38-1.09c.61-.15,1.27-1.77,1.17-2.63a4.15,4.15,0,0,0-1.71-2.65A10.18,10.18,0,0,0,433.43,333.63ZM356.42,230v1.3c2.93,0,5.86.05,8.79,0,7.39-.15,14.78-.39,22.17-.49,4.81-.07,9.62.08,14.43,0a96.33,96.33,0,0,0,9.83-.33c4.67-.5,9.3-1.33,14-2,5.41-.83,10.65-2.19,14.93-5.8a6.86,6.86,0,0,0,2.35-3.84c.12-.8-1.34-2.38-2.36-2.68a19,19,0,0,0-6.91-.92c-6.47.59-12.93,1.34-19.33,2.43-7.09,1.2-14.11,2.82-21.14,4.28-6.62,1.37-13.23,2.72-19.83,4.17C367.66,227.36,362.05,228.71,356.42,230Zm72.9,122.7c2.72,2.33,5.46,1,8,.3,2.26-.63,1.73-2.91,1.58-4.59a3.05,3.05,0,0,0-1.59-2.3c-4-1-7.06,1.17-7.76,5.35C429.47,351.83,429.41,352.2,429.31,352.7Zm-206.89-100c0,3.5-.11,6.38,0,9.24.31,6.85.8,13.69,1.09,20.55.23,5.28.29,10.56.37,15.85.1,6.71-.26,13.46.32,20.13,1,11.57,2.54,23.11,3.9,34.65.08.66.51,1.72,1,1.83,3,.7,6,1.19,9.16,1.79,0-6.45-.07-12.31,0-18.16.06-4.33.6-8.66.44-13-.19-5.14-1-10.27-1.36-15.41-.51-6.95-1.17-13.9-1.25-20.85-.09-8.43.31-16.86.59-25.29.19-5.92.27-6-5.15-8.06C228.72,254.89,225.86,253.93,222.42,252.7Zm6.84,133.24c2.66,14.17,10.36,25.08,18.37,35.83l.79-.34c-.86-4.65-1.7-9.31-2.57-14-1-5.55-2-11.11-3.2-16.62a5.1,5.1,0,0,0-2.35-2.78,11.9,11.9,0,0,0-4-1.2C234,386.47,231.7,386.25,229.26,385.94Zm34.2-23.78c3,.82,6.15,1.37,9.64,2.1a11.22,11.22,0,0,0,1.16-2.78c.51-4.18,1.1-8.37,1.24-12.57.3-9.23.42-18.47.48-27.71,0-5.44-.27-10.88-.31-16.31,0-3.63.22-7.27.18-10.91-.05-4.95-.15-9.89-.45-14.83-.14-2.35-1.08-4.64-1.18-7-.17-3.78-3.33-3.26-5.46-4.1-2.92-1.15-6-2-9.36-3.13.35,1.67.69,2.84.81,4a92.32,92.32,0,0,1,.75,9.27c0,5.81-.4,11.62-.28,17.43.16,7.86.83,15.71,1,23.58.28,13.58.32,27.17.55,40.76C262.25,360.77,262.88,362,263.46,362.16Zm20-88.27a2.69,2.69,0,0,0-2.14,1.56c-.41,4.14-.69,8.3-.7,12.45,0,4.54.44,9.07.48,13.61.13,14.61.43,29.23.12,43.84-.12,5.89,1,11.9-1.15,17.73-.55,1.49.25,3,2.2,3.29l7.78,1.23c.77-5.29,1.51-10,2.12-14.82.25-1.95.18-3.94.32-5.91.9-12.05,2.21-24.08,2.63-36.15.36-10.44-.42-20.91-.4-31.36,0-2.6-1-3.17-3.14-3.57C288.82,275.3,286.17,274.35,283.43,273.9ZM168.87,223.59a18,18,0,0,0-.89,3.56c-.06,6.91-.25,13.84,0,20.74.31,7.63,1.19,15.24,1.63,22.87.47,8,.55,16.06,1.13,24.06.82,11.42,2.08,22.8,2.82,34.22.19,3,1.5,4.26,3.9,5.16,2.18.81,4.35,1.64,6.74,2.54,0-2.51.12-4.74,0-7-.37-5.38-1-10.75-1.3-16.13-.55-9.19-.84-18.39-1.45-27.57-.5-7.6-1.42-15.17-1.92-22.77-.39-6.12-.6-12.27-.57-18.4,0-3.54.73-7.07.95-10.63.09-1.46.85-3.24-1.2-4.24a33,33,0,0,1-3.62-2.2C173.14,226.53,171.2,225.18,168.87,223.59Zm50,127.89c2.4.71,2.84.23,2.52-2.2-.53-4-1-8-1.26-12-.51-8.1-.89-16.22-1.25-24.33q-.6-13.44-1.05-26.88c-.14-4-.15-8.07-.27-12.09-.17-5.84-.39-11.68-.57-17.53-.06-1.94.32-4-.21-5.79-.27-.9-2.14-1.32-3.27-2-.24-.14-.42-.41-.67-.52l-8.28-3.76c.26,5.18.6,10,.73,14.82.21,8,.28,16,.42,23.93.09,5,.17,9.93.33,14.9.2,6,.41,12,.75,17.95.55,9.59,1.21,19.18,1.83,28.76a11.89,11.89,0,0,0,.44,2.79,2.4,2.4,0,0,0,1.2,1.4C213.1,349.84,216,350.63,218.86,351.48Zm138.58-71.74H346.11c-.55,31.2-5.34,61.63-9.39,92.76,3.67-.2,7.07-.18,10.41-.68a4.46,4.46,0,0,0,3-2.53c.65-2,.56-4.21.79-6.34.82-7.85,1.81-15.69,2.41-23.56.8-10.4,1.34-20.82,1.87-31.23.19-3.66-.23-7.35.09-11C355.78,291.49,356.66,285.84,357.44,279.74ZM430,429a21.13,21.13,0,0,0,3.94.08c2.1.06,3.23-1,3.22-3.05,0-3.37-.35-6.74-.18-10.09.37-7.45,1.15-14.89,1.44-22.35.24-6.59,0-13.2,0-20-2,.35-3.9.8-5.85,1-4,.42-4.89,1.16-5.36,5.33-.52,4.56-.89,9.12-1.29,13.69-.48,5.28-1.09,10.55-1.3,15.84-.16,4.11.43,8.25.31,12.36S426.1,428.12,430,429ZM303.95,277.17c-.25,1.92-.52,3.47-.66,5-.77,8.57-1.46,17.14-2.29,25.7-.67,6.84-1.67,13.65-2.22,20.5-.68,8.37-1.08,16.75-1.54,25.13-.23,4.08-.42,8.18-.39,12.27a3.26,3.26,0,0,0,1.72,2.51c3.63,1,7.33,1.6,11,2.3,2.06.39,3.28-.51,3.53-2.63,1.09-9.18,2.33-18.34,3.21-27.55.6-6.27.68-12.6,1-18.89.3-6,.79-12.09.85-18.14.06-6.61-.17-13.22-.48-19.82-.16-3.54-.34-4.81-4.5-5C310.31,278.39,307.44,277.71,303.95,277.17Zm161.57,22.15A3.87,3.87,0,0,0,463,300c-2.9,2-9.73,1.19-11.53-1.74-2.42-3.95-11.8-4.33-14.48.21a48.67,48.67,0,0,0-6.06,17.5c.84.39,1.68.8,2.54,1.15,4.88,2,7,1.18,9.54-3.13,3.6-6.14,7-6.74,13.08-3.09a7.25,7.25,0,0,1,2.39,1.92c1,1.52,2.38,3.22,2.43,4.88.24,8,.09,15.92.08,24.47a8,8,0,0,0,9.1-.78,13.76,13.76,0,0,0,4.68-10,117.56,117.56,0,0,0-.35-23.08C473.85,304,469.12,299.87,465.51,299.32Zm-184.67-268a27.13,27.13,0,0,0-2.57,3.52,56.54,56.54,0,0,0-3.92,8.58c-1.55,5-2.7,10.08-3.91,15.15-.42,1.77-.45,3.63-.81,5.41a71.73,71.73,0,0,0-1.37,20.82c.51,5.32,1.69,10.69.4,16.16-.65,2.77-.47,5.75-.53,8.64a2.14,2.14,0,0,0,.94,1.7,4.3,4.3,0,0,0,5.68-3.12c1.81-7.24,2.57-14.73,5.17-21.78.81-2.16,1-4.54,1.77-6.72,2.66-7.53,3.2-15.36,3.62-23.24.18-3.44.15-6.93.48-10.3C286.37,40.36,284.66,35.79,280.84,31.33Zm-33,230.17c-4.51-1.34-6.58-.3-5.32,4.4.12.42-.12.93-.13,1.4-.16,6.18-.58,12.38-.38,18.55.19,5.81,1.37,11.58,1.55,17.39.35,10.57.28,21.16.38,31.75.06,5.9,0,11.8.23,17.69.07,1.85.33,4.55,1.51,5.32,2.44,1.6,5.53,2.27,8.42,3.1,1.28.36,1.89-.2,1.87-1.89-.08-6.13.13-12.26.23-18.38.08-5.74.29-11.49.21-17.23-.13-9.37-.5-18.73-.67-28.1-.11-5.77,0-11.54,0-15.65-.5-5.34-1.18-9-1.08-12.69.09-3.49-1.71-4.71-4.56-5.34C249.38,261.65,248.59,261.71,247.87,261.5Zm184,66.28c1.85.82,4.32.6,6.41.23.51-.09.6-2.51.88-3.82l-9.56-1.5C430.49,324.8,430.74,327.27,431.88,327.78Zm-10.93-63.29c-1.66-.64-3.87-.35-5.73.09-2.9.68-5.69,1.84-8.55,2.75a6.06,6.06,0,0,0-4.24,6.54c.2,3.28.41,6.58.31,9.86-.3,10.13-1.15,20.27-1,30.39.12,9-1.47,17.7-2.91,26.48-.92,5.54-1.57,11.12-2.46,17.55,1.44-1.28,2.46-1.87,3-2.76,2-3,4.27-5.92,5.56-9.22,2.45-6.22,4.42-12.65,6.31-19.07s3.7-13.18,5.17-19.85c1.85-8.41,3.44-16.89,4.91-25.38a105.86,105.86,0,0,0,1.41-13.26C422.84,267.2,422,264.89,420.95,264.49ZM309.73,101.54c1.72-2.42,4.28-2.62,6.73-.91a28.91,28.91,0,0,1,3.57,3.24,13.36,13.36,0,0,0,10.2,4.15c2.86-.06,4-2,4.37-4,1.16-6.07-5.75-13.84-12-13.87-.07-.23-.15-.46-.21-.69-3.89,1.29-8.13,2-11.6,4-4.84,2.84-8,7.6-10.76,12.48a41.53,41.53,0,0,0-2.74,5.61c-.56,1.48.1,2.51,1.8,2.82,1.36.25,2.33.92,3.35-1.12A91.75,91.75,0,0,1,309.73,101.54Zm18.39,329.53,1.38.51c6.7-11.33,14.18-22.2,20.22-34.5-2.44,0-4.11,0-5.79,0a4.19,4.19,0,0,0-4.43,3.52,38.62,38.62,0,0,1-2.33,6.08c-1.87,4.2-3.82,8.37-5.74,12.54A23,23,0,0,0,329.7,423C329,425.67,328.63,428.38,328.12,431.07Zm-136.3-90.66c2.93,2.19,6.52,3.5,10.43,5.47.13-1.57.21-2,.2-2.48-.24-6.56-.39-13.14-.78-19.7-.43-7.4-1.19-14.77-1.63-22.17-.36-6.11-.5-12.23-.69-18.34-.32-10.82-.64-21.63-.87-32.46-.12-5.25.73-10.84-6.06-13-.67-.21-1.12-1-1.78-1.34-1.42-.63-2.92-1.09-4.38-1.61,0,1.42-.07,2.84-.13,4.26-.21,4.29-.63,8.59-.6,12.89q.06,9.86.64,19.71c.49,8.49,1.33,16.95,1.79,25.44.38,7,.32,14.11.66,21.16.19,4,.79,7.94,1.19,11.9.15,1.53.22,3.09.5,4.6C190.68,336.72,190.59,339.49,191.82,340.41Zm237.07,28a33.58,33.58,0,0,0,7.22.37c.92-.12,2.11-1.82,2.35-3a56.54,56.54,0,0,0,.62-7.5c-2.83.36-5.63.34-8.13,1.21-1.15.39-2,2.44-2.43,3.89-.36,1.11.07,2.48.16,3.72C428.72,367.54,428.78,368.36,428.89,368.37Zm-92-94.86a147.67,147.67,0,0,0,15.22.1c4.79-.26,9.56-1,14.31-1.72,3.92-.58,7.8-1.38,11.7-2.12,4.89-.94,9.79-1.89,14.67-2.93a43.08,43.08,0,0,0,5.59-1.6c4.4-1.59,8.78-3.23,13.11-5a6.35,6.35,0,0,0,3.14-2.19c2.49-4.49,1.47-9.31.48-13.91-.6-2.82-2.28-5.42-3.4-8-2.27.23-4.27.48-6.3.63-5.75.4-11.5.93-17.26,1.08-5.59.14-11.18-.18-16.77-.19-9.93,0-19.87-.06-29.69-1.79-4.48-.79-9.18-.67-13.34-2.77a12,12,0,0,0-5.24-1.08,21.94,21.94,0,0,1-5.52-1c-.85-.26-1.48-1.24-2.19-1.89.8-.84,1.46-2.15,2.42-2.42a32.69,32.69,0,0,1,5.61-.54c8.74-.84,17.61,1.62,26.29-.95a9.2,9.2,0,0,1,1.42,0c3.43-.39,6.89-.61,10.27-1.26,7.15-1.39,14.26-3,21.38-4.53,8.16-1.76,16.3-3.56,24.92-5.44-1.1-2.07-2.06-3.86-3-5.67-1.18-2.24-2.32-4.5-3.5-6.74-2.4-4.53-4.67-9.15-7.28-13.55-2-3.31-4.38-6.37-6.64-9.51-4-5.54-7.79-11.2-12-16.53-5.39-6.79-12.59-11.57-19.73-16.27-6.49-4.28-13.25-8.17-19.91-12.17-1.1-.66-2.39-1-3.57-1.59-4.07-1.95-7.95-4.59-12.23-5.74-8.13-2.18-16.46-3.61-24.74-5.15-4.39-.81-8.9-.93-13.27-1.8-9-1.78-17.6-.09-26.21,2-2.47.59-4.8,1.74-7.21,2.53-5.24,1.71-10.64,3-15.71,5.13a78.19,78.19,0,0,0-13.46,7.24c-6.28,4.23-12.68,8.49-18.16,13.65-5.83,5.49-10.64,12.05-15.91,18.14-.25.29-.52.56-.79.82-5.62,5.37-10.66,11.32-13.44,18.58-2.89,7.6-4.77,15.57-7.27,23.33-.92,2.86,0,3.93,2.78,4.16a6,6,0,0,1,2.49,1.28c2.08,1.42,4.05,3,6.18,4.35,4,2.52,8.1,5,12.23,7.35,10.8,6.16,21,13.42,32.93,17.52,9.23,3.17,18.13,7.43,27.5,10.07a294.51,294.51,0,0,1,31.53,10.68c1.79.74,3.49,1.9,5.36,2.29,5.89,1.23,11.84,2.19,17.78,3.24a10.36,10.36,0,0,0,1.7.17c3,0,6.05-.07,9.07.11C321,272.4,328.94,273.11,336.85,273.51ZM457,294.3c1.1,1.38,2,1.31,3.11-.18,1.89-2.54,2.32-7.82.45-10.45-.88-1.24-1.93-2.72-3.23-3.24-3.52-1.38-7.23-2.3-10.86-3.41-4.3-1.31-8.59-2.66-12.91-3.9-1.69-.48-3.47-.69-5.4-1.06-.79,5.75-.39,6.68,3.79,6.59,5.74-.14,10.48,2.41,15.24,4.93a16.39,16.39,0,0,1,4.24,3.81C453.35,289.62,455.11,292,457,294.3ZM376.58,277c-2.08,0-4.08-.32-5.91.09s-4.93-.42-5.52,2.33c-1.14,5.31-1.9,10.71-2.6,16.1q-1.17,8.88-1.94,17.81C360,320.89,359.5,328.45,359,336c-.27,4-.43,7.93-.78,11.88-.27,3.06-1,6.09-1.1,9.15-.17,3.6.18,7.21.06,10.81-.23,6.94.24,7.46,7.25,7l.57,0c3.66-.45,4.5-1.34,4.73-5a23.27,23.27,0,0,1,.21-3.11c1.59-7.62,2.89-15.26,2.13-23.1a28.11,28.11,0,0,1,0-5.67c1-9.27,2.33-18.51,3.14-27.79.73-8.32,1-16.69,1.32-25C376.68,282.27,376.58,279.48,376.58,277ZM398,271.31c-3.55.7-6.4,1.24-9.25,1.84-6.6,1.38-7.09,2-7.07,8.74,0,4,.12,8.09-.08,12.13-.32,6.69-1,13.37-1.26,20.06-.21,4.77.17,9.58-.11,14.34-.33,5.65-1.06,11.27-1.68,16.89-.69,6.15-1.5,12.3-2.18,18.45-.28,2.53-.38,5.08-.59,8.11,2.7-1.32,4.65-2.26,6.59-3.23A15,15,0,0,0,391,357c1.17-7.4,2.42-14.8,3.23-22.24,1.12-10.18,2.12-20.38,2.73-30.6C397.56,293.38,397.67,282.58,398,271.31ZM320,371.57c3.35.43,6.74.6,10.06.86,1.26-5.3,2.82-10.18,3.51-15.19,1.11-8.08,1.92-16.23,2.36-24.38.42-7.63.12-15.3.3-23,.16-6.62.46-13.23.87-19.83.17-2.82.79-5.61,1.14-8.43.21-1.6-.52-2.56-2.21-2.57-3.76,0-7.52,0-12.23,0,0,4.32.18,8.1,0,11.86-.38,6.5-1.14,13-1.47,19.47-.24,4.81.19,9.65-.08,14.45-.41,7.26-1.21,14.5-1.78,21.75-.6,7.62-1.19,15.25-1.66,22.89C318.77,370.21,319.52,371.51,320,371.57Zm44,9.9c-8.19.35-16.3-.88-24.57-.16-7.2.63-14.61-.51-21.87-1.36-9.06-1.06-18.09-2.46-27.07-4-4.22-.74-8.28-2.36-12.46-3.33-1.86-.43-3.91,0-5.8-.39-2.27-.44-4.43-1.42-6.68-2q-11.85-2.83-23.75-5.51c-7.68-1.72-15.5-2.81-22.83-6-2.57-1.12-5.52-1.32-8.13-2.36-6.46-2.61-12.81-5.51-19.23-8.21-3.45-1.45-7-2.72-11-4.29,2.14,5.87,5,10.12,9.42,13.26,2.07,1.49,4.51,2.62,6.21,4.44,4,4.32,8.26,8.28,13.68,10.82,3.81,1.78,7.35,4.44,11.33,5.49,10.36,2.74,20.85,5.09,31.39,7,7.32,1.35,14.82,1.76,22.23,2.63,13.82,1.63,27.64,3.17,41.42,5a28.14,28.14,0,0,0,11.49-.49,5.81,5.81,0,0,1,1.69-.11c12.89.37,25-3.07,36.92-7.46,2-.76,3.8-2.33,5.68-3.53-.17-.36-.35-.72-.51-1.08l-2.26.46A31.62,31.62,0,0,1,364.05,381.47ZM147.36,275.41l.42,0c1.6.12,1.88,1.58,2.47,2.68a3.34,3.34,0,0,1,.16,1.15c.45-.3.88-.62,1.29-.95.52,7.84,1.06,15.68,1.5,23.52.31,5.42,2.63,10.12,5,14.82,1.17,2.33,2.22,4.74,3.61,6.93a39.71,39.71,0,0,0,4.11,4.59c-.45-9.24-.79-17.49-1.28-25.74-.4-6.84-1-13.68-1.46-20.51,0-.46-.1-.92-.1-1.37,0-3,.4-6,0-9-.5-4-1.18-8-1.72-12,.33-1.69.63-3.38,1-5.07a3.34,3.34,0,0,0,0-1.54c-.6-2.22-1.17-4.45-1.81-6.66,0-.07,0-.14,0-.21.34-7.49.09-15,.07-22.51a8.21,8.21,0,0,0-.32-2.24c-.56-1.93-3-2.93-4.49-1.64a9.45,9.45,0,0,0-2.53,3.66,67.38,67.38,0,0,0-2.57,8.8,46.87,46.87,0,0,0-1.28,7.41c-1.8,2.18-3.67,4.31-5.5,6.48l-1,1.17a18,18,0,0,0-.46-3.83c.13-1,.24-2,.39-3,.79-4.88,1.46-9.77,2.24-14.65a43.47,43.47,0,0,1,1.39-6.84,10.67,10.67,0,0,1,8-7.31c2.11-.51,2.85-1.8,3.21-3.76a90.49,90.49,0,0,1,5.72-19.74C168,177.51,174.33,168,181.44,159c4.36-5.52,8.6-11.3,13.79-16a132.07,132.07,0,0,1,19.29-14,100,100,0,0,1,29.58-12.48c4.65-1.09,9.36-1.9,14-2.93.68-.15,1.72-.82,1.78-1.34,1-8.75,2.07-17.5,2.84-26.28.34-3.9-.3-7.9.2-11.76a206.71,206.71,0,0,1,3.93-23.09,103.1,103.1,0,0,1,6.77-18.64,16.55,16.55,0,0,1,6.82-7.19C286.62,22.07,291,27,292,33.09c.71,4.44.86,9,1.29,13.86a17.88,17.88,0,0,0,3.11-2.13c4.82-5.12,12-1.12,13.27,4.56a43.88,43.88,0,0,1-.55,20.67c-1.88,7.15-3.7,14.31-5.32,20.61,3-1.35,6.49-3,10-4.53,1.95-.85,4-1.55,5.94-2.36,4.85-2,12.21,2.31,14.88,6.43,1.78,2.74,4,5.23,6,7.83.79,1,1.56,1.87.72,3.48-.62,1.19-.39,2.87-.4,4.32-.07,5.81-3.22,9.4-8.87,8.41a78,78,0,0,1-12.13-3.41c-1.59-.55-2.79-2.14-4.31-3a3.16,3.16,0,0,0-2.62-.19,10.45,10.45,0,0,0-5.38,7.82c3.34.74,6.64,1.33,9.86,2.24a30.71,30.71,0,0,1,5.59,2.48c4.21,2.18,8.13,4.89,13.09,5.46,1.57.18,3,1.78,4.49,2.66,2.1,1.22,4.33,2.24,6.37,3.56,7.28,4.72,14.81,9.15,21.67,14.44,6,4.61,12.12,9.21,16.84,15.31,4.2,5.43,8.79,10.57,12.78,16.14,2.64,3.7,4.53,7.94,6.74,11.93a74.66,74.66,0,0,1,4.44,8.17c1.86,4.65,3.3,9.48,4.82,13.94,7.16-.47,14.27-1.23,21.39-1.26,3.4,0,7,.44,10.13,2.49,2.35,1.54,3.52,4.69,2.31,7.08a32,32,0,0,0-1.54,3.24c-1.78,4.87-6.21,6.49-10.35,8.44a38.33,38.33,0,0,1-15.62,3.28c-2.67.07-3,1.52-1.92,3.32,3.14,5.28,1.8,11.15,2.55,16.74a7.26,7.26,0,0,0,1.6,3.21c1.12,1.45,2.67,2.58,3.66,4.1,1.95,3,5,4.47,7.95,6,5.18,2.66,11.07,2.95,16.64,4.31,4.72,1.15,9.81,1.47,13.65,5.45,4.35,4.51,4.43,9.51,3.15,15.55,6.88,1.83,10.21,7.34,13,13.3.56,1.2.33,2.8.33,4.21,0,2.52-.14,5-.18,7.55-.16,8.6,0,17.31-3.55,25.35-1,2.13-3.44,4.53-5.59,5a36.26,36.26,0,0,1-12.14,0c-4.12-.6-5.92-3.64-4.82-8.14a53.85,53.85,0,0,0,1.52-16.26c-.24-3.78-.2-7.89-4.46-10a10.9,10.9,0,0,0-4.21,7.36c-.82,5.95-3,11.72-3.55,17.67-.54,5.6.3,11.32.39,17,.06,3.74-.17,7.49-.25,11.24q-.21,10.84-.39,21.68c-.21,11.44-.38,22.87-.65,34.31-.05,2-.07,4.15-.89,5.86s-2.39,3.56-4,4a24.07,24.07,0,0,1-17.75-2.58,3.08,3.08,0,0,1-1.35-2.3c.12-8.06.32-16.11.64-24.16.26-6.61.67-13.22,1.12-19.82.4-6.18,1-12.36,1.4-18.55.28-4.11.4-8.22.62-12.33s.36-8.51.73-12.75c.73-8.19,1.65-16.36,2.38-24.54a47.05,47.05,0,0,1,8.58-23.34c1.39-2,4.6-2.61,7-3.84a4.47,4.47,0,0,0,2-1.46l-16.18-5.56c-1.14,6-2,11.8-3.36,17.47-2.07,8.52-4.55,16.95-6.77,25.44-1.41,5.39-1.91,11.18-4.23,16.13-3.05,6.5-4.44,14-9.82,19.24-3.68,3.61-7.71,6.85-11.4,10.44-2.9,2.83-5.53,5.94-8.25,9a36.19,36.19,0,0,1-18.43,11c-2.45.63-5.64.52-7,3.47-.95,2-1.72,4.17-2.47,6.29a57.44,57.44,0,0,1-10.18,18.27c-4.72,5.56-9.11,11.4-13.67,17.1-1.66,2.09-3.82,3.38-6.42,2.19a5.57,5.57,0,0,1-2.66-3.2c-2-7.13,1.26-13.43,3.69-19.77,2.18-5.68,4.69-11.24,7.2-17.2-4.64,0-8.46,0-12.29,0-5.68-.08-11.4.11-17-.44C298,397.31,291.67,396,285.3,395c-6.18-1-12.34-2.05-18.55-2.84-5.83-.74-11.71-1.15-17.9-1.73.89,4.29,1.64,8.91,2.85,13.4,2.18,8.09,4.67,16.11,4.2,24.6a5.11,5.11,0,0,1-2.68,3.4,5.3,5.3,0,0,1-4.17-.25c-6.61-3.55-11.18-9.32-14.65-15.67s-6.07-13.3-8.76-20.09c-1.22-3.08-1.55-6.51-2.74-9.6a7.45,7.45,0,0,0-3.37-3.51c-5.8-3-11.8-5.68-17.58-8.74-2.3-1.21-4.24-3.11-6.29-4.76-5.91-4.72-11.49-9.68-15.62-16.19a176.88,176.88,0,0,0-10.6-14.32,7.93,7.93,0,0,0-3.88-2.63c-6.11-1.63-9.64-6.19-12.94-11-1.61-2.35-3-4.85-4.4-7.34l-1-1.66a5.25,5.25,0,0,0-.58-.82c.51-5.39,0-10.79-.18-16.24a3.14,3.14,0,0,0-.07-.58v-11.6c-.14.12-.27.24-.4.36s-.3.3-.45.45c0,0,0-.06,0-.08a2.44,2.44,0,0,0-.14-1.48c1.61-2.27,3.28-4.51,4.86-6.8a3.34,3.34,0,0,0-.15-1.15c-.59-1.1-.88-2.56-2.46-2.68Z"/><path d="M147.12,275.41h0Z"/><path d="M146.08,252.74a30.25,30.25,0,0,0,3.77-3.38c.48,8.4,1.08,16.8,1.61,25.2l.24,3.75c-.42.33-.85.64-1.29.95a3.34,3.34,0,0,0-.16-1.15c-.58-1.1-.87-2.56-2.47-2.68l-.42,0h-.24a7.56,7.56,0,0,0-2.47.5,1.76,1.76,0,0,0-.12-.22,12.28,12.28,0,0,0,0-3.27c-.29-3.18-.84-6.34-1.28-9.52l0,0c.25-2.74.63-5.46.64-8.2A21.21,21.21,0,0,1,146.08,252.74Z"/><path d="M144.65,275.91a7.56,7.56,0,0,1,2.47-.5,7.85,7.85,0,0,0-2.45.54Z"/><path d="M135.13,332c-1.2-2.41-5.15-2.39-6,.11a5.12,5.12,0,0,1-.7-.32,33.14,33.14,0,0,1-8.82-6.4,31.75,31.75,0,0,1-7.42-14.74,31.12,31.12,0,0,1,.37-15c1.16-4.56,3.46-8.73,5-13.17,2.35-6.75,6.56-12.4,10.82-17.94,4.59-6,9.63-11.63,14.51-17.39,0,.43,0,.87,0,1.3a15.82,15.82,0,0,1,.87,3.87c.06.72.08,1.43.08,2.14-2.52,2.48-4.43,5.44-6.56,8.24-2.35,3.08-4.82,6.09-7.1,9.22a33.77,33.77,0,0,0-3.08,5.28c-1.37,2.83-3,5.55-4.5,8.29-2.71,4.83-4,10.15-5.18,15.47-.35,1.51-.69,3-.92,4.58-.39,2.59,1.06,4.83,1.63,7.23a22.41,22.41,0,0,0,2.6,5.44,11.44,11.44,0,0,0,3.35,3.49c1.44,1.06,2.41,2.67,4,3.66a8.76,8.76,0,0,0,4.41,1.33h.2a9.23,9.23,0,0,0,3.53-.7c1.51-.6.76-2,.37-3.21-1.11-3.22-3.28-5.79-5-8.64a6.32,6.32,0,0,1-1-4.93c.2-.87-.63-2.08-.62-3.33,0-2.71,0-5.57,1-7.94s.76-5.47,4-6.48c.6-.18,1.26-1.49,1.27-2.51,0-1.28.9-2.05,1.41-3.06,1-2,2.07-3.93,3.07-5.9a14.73,14.73,0,0,1,2.93-3.59,2.93,2.93,0,0,1,.94-.55,2.51,2.51,0,0,1,0,1.9,3.28,3.28,0,0,1,.11.77c0,1.95.12,3.89.21,5.83a3.16,3.16,0,0,1,.26.83c0,.2.05.4.09.6l.07.17c-1,1.37-1.92,2.75-2.82,4.15-3.92,6.1-6.17,12.88-5.17,20.36a12.88,12.88,0,0,0,3.51,6.92c2.55,2.84,3.56,6,1.85,9.7a4.21,4.21,0,0,1-2,2.29A43.08,43.08,0,0,1,135.13,332Z"/><path d="M143.6,276.51a3.17,3.17,0,0,1,1-.6l0,0a2.93,2.93,0,0,0-.94.55,14.73,14.73,0,0,0-2.93,3.59c-1,2-2.06,3.93-3.07,5.9-.51,1-1.4,1.78-1.41,3.06,0,1-.67,2.32-1.27,2.51-3.28,1-3.12,4.24-4,6.48s-1,5.23-1,7.94c0,1.25.82,2.46.62,3.33a6.32,6.32,0,0,0,1,4.93c1.73,2.84,3.9,5.42,5,8.64.39,1.18,1.14,2.6-.37,3.21a9.23,9.23,0,0,1-3.53.7,9.24,9.24,0,0,0,3.39-.7c1.51-.6.77-2,.37-3.21-1.1-3.22-3.27-5.79-5-8.64a6.3,6.3,0,0,1-1-4.93c.2-.87-.63-2.08-.63-3.33,0-2.71,0-5.57,1-7.94s.76-5.47,4-6.48c.6-.18,1.26-1.49,1.26-2.51,0-1.28.9-2.05,1.41-3.06,1-2,2.06-3.93,3.07-5.9A14.62,14.62,0,0,1,143.6,276.51Z"/><path class="cls-6" d="M132.57,326.77a8.84,8.84,0,0,1-4.28-1.33c-1.63-1-2.6-2.6-4-3.66a11.44,11.44,0,0,1-3.35-3.49,22.25,22.25,0,0,1-2.6-5.44c-.58-2.39-2-4.64-1.64-7.23.23-1.54.57-3.06.92-4.58,1.21-5.33,2.48-10.64,5.18-15.47,1.53-2.75,3.13-5.47,4.5-8.29a33.79,33.79,0,0,1,3.08-5.28c2.28-3.13,4.74-6.14,7.1-9.22a77.82,77.82,0,0,1,6.43-8.11c0,2.74-.39,5.47-.64,8.2l0,0c.44,3.17,1,6.34,1.28,9.52a12.28,12.28,0,0,1,0,3.27,1.76,1.76,0,0,1,.12.22,3.17,3.17,0,0,0-1,.6,14.62,14.62,0,0,0-2.93,3.59c-1,2-2.07,3.93-3.07,5.9-.51,1-1.4,1.78-1.41,3.06,0,1-.66,2.32-1.26,2.51-3.29,1-3.13,4.24-4,6.48s-1,5.23-1,7.94c0,1.25.82,2.46.63,3.33a6.3,6.3,0,0,0,1,4.93c1.73,2.84,3.9,5.42,5,8.64.4,1.18,1.14,2.6-.37,3.21a9.24,9.24,0,0,1-3.39.7Z"/><path class="cls-7" d="M129.17,332.15c.81-2.5,4.76-2.52,6-.11a10.57,10.57,0,0,1-3.35.5A7.6,7.6,0,0,1,129.17,332.15Z"/><path class="cls-7" d="M131.79,332.54a10.57,10.57,0,0,0,3.35-.5,3.29,3.29,0,0,1,.34,1.31c.78,12.18-3.51,23.17-9,33.8a3.26,3.26,0,0,1-.8,1c-.08-1.1-.28-2.2-.44-3.3a58.25,58.25,0,0,0-2-5.68c3.81-8.17,6.41-16.56,5.82-25.84a3.32,3.32,0,0,1,.13-1.2A7.6,7.6,0,0,0,131.79,332.54Z"/><path class="cls-7" d="M120.9,363.9c.81-1.57,1.59-3.14,2.33-4.71a58.25,58.25,0,0,1,2,5.68c.15,1.1.36,2.2.44,3.3C123.35,370.07,119.22,367.15,120.9,363.9Z"/><path d="M101.82,372.58c-1.29.58-3.76-.81-4.68-2.37-.75-1.27-.51-2.66.79-3.92.92-.9,2-1.68,3-2.5a1.22,1.22,0,0,1,.55-.18c2.19-.34,5,2.43,5.06,4.87a10,10,0,0,1-1.41,1.84A15.13,15.13,0,0,1,101.82,372.58Z"/><path class="cls-8" d="M93,386.7c-1.85-2.5-1.94-3.4-.42-4.26C93.08,383.79,94.16,385,93,386.7Z"/><path class="cls-8" d="M89.18,390.17c-.1.14-.7,0-1-.11-1.35-.7-1.48-2.15-1.94-3.38-.06-.16.36-.5.61-.83a10.38,10.38,0,0,1,1.5,1.33,7.07,7.07,0,0,1,1,1.87A1.43,1.43,0,0,1,89.18,390.17Z"/><path d="M91.85,375.77c1.33-.4,2.15.42,2.83,1.51a24.89,24.89,0,0,0,1.7,2.08,4.39,4.39,0,0,1,.63,1.1c.42,1.06.81,2.12,1.21,3.19.1.27.34.57.29.81-.69,3.25-.79,6.68-3.06,9.44a7.12,7.12,0,0,1-8.79,1.84c-1.14-.58-2.59-.62-3.21-2-.46-1-.88-2.06-1.33-3.08-.17-.4-.39-.78-.72-1.39-2.75.93-5.41,2-8.16,2.66a15.4,15.4,0,0,1-4.74.08,19.1,19.1,0,0,1-9-3.26c-.65-.42-1.21-2.81-.73-3.54.61-.9,1.3-1.88,2.69-1.39A24.93,24.93,0,0,1,65,385.09a12,12,0,0,0,7.93,1.31,19.88,19.88,0,0,0,9.4-3.58c2.21-1.68,4.06-3.81,6.21-5.56A9.69,9.69,0,0,1,91.85,375.77ZM88.2,390.06c.29.15.89.25,1,.11a1.43,1.43,0,0,0,.2-1.12,7.07,7.07,0,0,0-1-1.87,10.38,10.38,0,0,0-1.5-1.33c-.25.33-.66.67-.61.83C86.72,387.91,86.84,389.36,88.2,390.06Zm4.43-7.62c-1.52.86-1.42,1.76.42,4.26C94.16,385,93.08,383.79,92.62,382.44Z"/><path d="M64.15,366.73c.18.38.34.77.5,1.15C64.49,367.5,64.33,367.11,64.15,366.73Z"/><path d="M61.19,373.89c-1.59.88-2.8-.41-3.93-1.19l-.21-.16a4.83,4.83,0,0,1-.37-.35,4.56,4.56,0,0,1-.91-4.09q0-.16.08-.32l.05-.18.11-.31a5.23,5.23,0,0,1,2.58-2.81l.15-.06.17-.06.17,0c.34-.08.69-.11.95-.16l.42.1.83.17.59.13a4.29,4.29,0,0,1,.71.24,2,2,0,0,1,.44.28,4.69,4.69,0,0,1,1.15,1.65c.18.38.34.77.5,1.15s-.11.92-.23,1.38c-.06.23-.35.45-.3.62a2.54,2.54,0,0,1-.9,2.83,4.61,4.61,0,0,1-.47.33c-.29.18-.6.35-.9.51l-.26.14Z"/><path d="M120.9,363.9c-1.68,3.25,2.45,6.17,4.76,4.26,0,.09,0,.18,0,.27.1,2,.05,4.09,0,6.13,0,.33-.24.67-.2,1,.25,2-.79,3.56-1.47,5.24-.92,2.27-2,4.46-3.07,6.69a2.9,2.9,0,0,1-.52.86,37.75,37.75,0,0,0-4.92,6.86,20.26,20.26,0,0,1-3.6,3.5c-1.1,1-2.25,2-3.35,3-.22.2-.53.54-.49.78.57,3.48-.91,6.71-1.23,10.09-.37,3.88-1.34,7.7-2,11.55s-1.25,7.74-1.9,11.6a3.51,3.51,0,0,1-2.86,2.39,2.48,2.48,0,0,1-2.62-1.86c-.88-2.33,0-4.58.3-6.81.31-2.47,1.13-4.86,1.65-7.31a50.27,50.27,0,0,0,.85-5c.31-2.76.49-5.53.76-8.3.09-.9.3-1.78.51-3a14.51,14.51,0,0,0-7.72,7c-.41.82-.71,1.69-1.16,2.48a19,19,0,0,0-2.15,9.78,4.05,4.05,0,0,1-.25,1.42c-.82,2.18-1.23,2.25-3.44,1.54-2.42-.77-4.13-2.41-6-4-2-1.73-4.31-3.09-6.47-4.63a37.83,37.83,0,0,0-3.15-2.39c-2.1-1.18-4.29-2.18-6.75-3.41,0,1.64,0,3.09.14,4.54.12,2,.21,4.08.49,6.09.35,2.52.84,5,1.36,7.52.13.62.91,1.17.89,1.73a17.29,17.29,0,0,1-.65,4.3c-.32,1-2.26.88-3.23.41-2.69-1.3-2.06-4-2.87-6.11-.48-1.25-.31-2.75-.48-4.15a5.28,5.28,0,0,0-.36-1,4.92,4.92,0,0,1-.48-1.63,12.86,12.86,0,0,0-1.41-6.67,1.39,1.39,0,0,1,0-.85c.9-4.17-.23-6.28-4-8.66a54.45,54.45,0,0,1-7.08-5.53c-1.68-1.5-3.31-3.07-4.9-4.67l1.76-2a3.29,3.29,0,0,0,.27-4.55c-1.06-1.2-3.35-1.57-4.53-.27-.58.64-1.15,1.28-1.72,1.93-.31-.5-.62-1-1-1.54a58.4,58.4,0,0,0-3.86-6c-.18-.44-.38-.87-.59-1.3l.05-.12a4.74,4.74,0,0,0,.12-3.06,22.41,22.41,0,0,1-.39-5.66c0-2,.45-3.93.47-5.89.07-4,1.52-7.58,3-11.2a28.57,28.57,0,0,1,1.55-4,19.87,19.87,0,0,1,3.3-4.3c2.41-2.29,4.77-4.81,7.61-6.44a24.1,24.1,0,0,1,16.75-3.16c1.59.3,3.22.42,4.83.63a1.44,1.44,0,0,1,.67.26,20.74,20.74,0,0,1,3.67,3c1.65,2.06,3,4.36,4.44,6.58a9.72,9.72,0,0,1,.64,1.34c2.09-2.3,4.15-4.62,6.28-6.88a4.93,4.93,0,0,1,1.69-1.1c1.86-.76,3.75-1.49,5.65-2.13a10.73,10.73,0,0,1,2.27-.34c2.83-.34,5.66-.71,8.49-1,2.61-.26,4.77,1.12,6.92,2.25,1.39.73,2.44,2.23,3.86,2.75,3.21,1.17,4.37,4,6,6.5a8.21,8.21,0,0,0,1.33,1.46,2.27,2.27,0,0,0,.21.55l0,.09a2.31,2.31,0,0,0,.18.57c.49,1.06,1,2.12,1.39,3.2C122.49,360.77,121.71,362.34,120.9,363.9Zm-41.22,51.6c1.63,1.14,3.19,2.36,4.69,3.48,1.83-3.35,2.95-6.83,5.22-9.79A46.83,46.83,0,0,1,100,399.77c3.4-2.42,7-4.64,10.2-7.25a19.12,19.12,0,0,0,4.64-5.44c1.65-3,2.67-6.31,4.1-9.43,1.76-3.87,1.52-7.74.23-11.63-.93-2.8-2-5.54-3-8.31a4,4,0,0,0-.81-1.68c-1.54-1.3-3.19-2.47-4.78-3.72-.84-.64-1.58-1.43-2.47-2-1.11-.72-2.31-1.79-3.47-1.79-2.19,0-4.38-1-6.63,0a17.35,17.35,0,0,1-3.72.89,7.48,7.48,0,0,0-2.33.6c-1.75,1.11-3.42,2.33-5,3.61-1,.8-2.27,1.54-1.94,3.23,0,.21-.27.61-.52.75A2.57,2.57,0,0,0,83,360.23a10.87,10.87,0,0,1-.56,3.71,4.78,4.78,0,0,1-3.66,2.94,2.92,2.92,0,0,1-3.39-2.45c-.5-2.53-.9-5.1-1.42-7.63a4.41,4.41,0,0,0-.84-1.58c-.37-.52-.89-.94-1.26-1.47-1.07-1.5-1.78-3.6-3.22-4.42a12.61,12.61,0,0,0-8.77-1.57,10.07,10.07,0,0,0-1.7.32c-1.74.68-3.47,1.4-5.16,2.18-.69.31-1.27.88-2,1.22a14.11,14.11,0,0,0-7.27,7.25c-1.08,2.6-2.14,5.2-3.35,7.74a13.89,13.89,0,0,0-1.62,7,76.67,76.67,0,0,0,1.48,10.17,13.26,13.26,0,0,0,2.31,5.15,66,66,0,0,0,6.19,6.72c2.24,2.21,4.53,4.35,7,6.34a56.54,56.54,0,0,0,7.36,5.26c1.92,1.11,4.24,1.49,6.28,2.42a59.65,59.65,0,0,1,5.26,2.94c.82.48,1.57,1,2.39,1.52S78.86,414.94,79.68,415.51Z"/><path d="M60.44,364.26l.83.17Z"/><path d="M59.07,364.32c.34-.09.69-.11.95-.16l.42.11-.42-.1C59.76,364.21,59.41,364.24,59.07,364.32Z"/><path class="cls-9" d="M97.14,370.21c.91,1.56,3.39,3,4.68,2.37a15.13,15.13,0,0,0,3.28-2.25,10,10,0,0,0,1.41-1.84c0-2.44-2.87-5.21-5.06-4.87a1.22,1.22,0,0,0-.55.18c-1,.82-2,1.6-3,2.5C96.63,367.55,96.39,368.95,97.14,370.21Zm-21.76-5.78a2.92,2.92,0,0,0,3.39,2.45,4.78,4.78,0,0,0,3.66-2.94,10.87,10.87,0,0,0,.56-3.71,2.57,2.57,0,0,1,1.39-2.58c.24-.14.56-.54.52-.75-.33-1.69.92-2.43,1.94-3.23,1.63-1.27,3.3-2.5,5-3.61a7.48,7.48,0,0,1,2.33-.6,17.35,17.35,0,0,0,3.72-.89c2.24-1.08,4.44,0,6.63,0,1.16,0,2.36,1.07,3.47,1.79.89.57,1.63,1.36,2.47,2,1.59,1.25,3.24,2.42,4.78,3.72a4,4,0,0,1,.81,1.68c1,2.76,2.11,5.51,3,8.31,1.29,3.89,1.53,7.76-.23,11.63-1.42,3.12-2.45,6.45-4.1,9.43a19.12,19.12,0,0,1-4.64,5.44c-3.25,2.61-6.8,4.83-10.2,7.25a46.83,46.83,0,0,0-10.37,9.42c-2.27,3-3.38,6.44-5.22,9.79-1.5-1.12-3.06-2.35-4.69-3.48-.82-.57-1.77-1-2.63-1.47s-1.57-1-2.39-1.52a59.65,59.65,0,0,0-5.26-2.94c-2-.93-4.36-1.31-6.28-2.42a56.54,56.54,0,0,1-7.36-5.26c-2.42-2-4.72-4.13-7-6.34a66,66,0,0,1-6.19-6.72,13.26,13.26,0,0,1-2.31-5.15,76.67,76.67,0,0,1-1.48-10.17,13.89,13.89,0,0,1,1.62-7c1.2-2.54,2.27-5.14,3.35-7.74a14.11,14.11,0,0,1,7.27-7.25c.69-.34,1.27-.91,2-1.22,1.69-.78,3.42-1.5,5.16-2.18a10.07,10.07,0,0,1,1.7-.32,12.61,12.61,0,0,1,8.77,1.57c1.44.82,2.14,2.92,3.22,4.42.37.52.89.94,1.26,1.47A4.41,4.41,0,0,1,74,356.8C74.48,359.33,74.88,361.9,75.38,364.43ZM60,364.15c-.26.05-.6.08-.95.16l-.17,0-.17.06-.15.06A4.73,4.73,0,0,0,56,367.29c0,.1-.08.21-.11.31l-.05.18q0,.16-.08.32a4.56,4.56,0,0,0,.91,4.09,4.83,4.83,0,0,0,.37.35l.21.16c1.13.79,2.34,2.07,3.93,1.19l.39-.21.26-.14c.3-.16.61-.33.9-.51a4.61,4.61,0,0,0,.47-.33,2.54,2.54,0,0,0,.9-2.83c0-.17.25-.39.3-.62.12-.45.39-1,.23-1.38s-.32-.77-.5-1.15A4.69,4.69,0,0,0,63,365.08a2,2,0,0,0-.44-.28,3.61,3.61,0,0,0-.71-.24l-.59-.13-.83-.17Zm26.63,31.58a7.12,7.12,0,0,0,8.79-1.84c2.27-2.75,2.37-6.19,3.06-9.44.05-.24-.19-.54-.29-.81-.4-1.07-.79-2.14-1.21-3.19a4.39,4.39,0,0,0-.63-1.1,24.89,24.89,0,0,1-1.7-2.08c-.68-1.09-1.49-1.91-2.83-1.51a9.69,9.69,0,0,0-3.35,1.49c-2.15,1.75-4,3.88-6.21,5.56a19.88,19.88,0,0,1-9.4,3.58A12,12,0,0,1,65,385.09a24.93,24.93,0,0,0-3.53-1.27c-1.39-.49-2.08.49-2.69,1.39-.49.73.07,3.13.73,3.54a19.1,19.1,0,0,0,9,3.26,15.4,15.4,0,0,0,4.74-.08c2.75-.68,5.41-1.74,8.16-2.66.32.61.54,1,.72,1.39.45,1,.87,2.06,1.33,3.08C84.06,395.12,85.51,395.15,86.65,395.74Z"/><path d="M58.73,364.43l-.15.06.15-.06.17-.06Z"/><path d="M58.59,364.49A5.23,5.23,0,0,0,56,367.29,4.73,4.73,0,0,1,58.59,364.49Z"/><path d="M56,367.29l-.11.31C55.93,367.5,56,367.39,56,367.29Z"/><path class="cls-7" d="M41.87,399c-.92-.93-1.82-1.87-2.72-2.82a12.22,12.22,0,0,1-1.51-2c.57-.65,1.15-1.29,1.72-1.93,1.18-1.3,3.47-.93,4.53.27a3.29,3.29,0,0,1-.27,4.55Z"/><path class="cls-7" d="M41.87,399c-4.8,5.42-9.69,11.83-9,19.36a3.29,3.29,0,0,1-2.48,3.81c-1.57.33-3.66-.73-3.81-2.48-.91-10.28,4.67-18.24,11.09-25.55a12.22,12.22,0,0,0,1.51,2C40,397.15,41,398.09,41.87,399Z"/></svg>