<svg id="圖層_1" data-name="圖層 1" xmlns="http://www.w3.org/2000/svg" viewBox="0 0 415.75 463.29"><defs><style>.cls-1{fill:#fff;}.cls-2{fill:#c9a63e;}.cls-3{fill:#a53226;}.cls-4{fill:#d05351;}</style></defs><title>chicken</title><path d="M364,269a14.46,14.46,0,0,1-.19,5.25,33,33,0,0,0-.54,5.57c-.19,1.92-.47,3.83-.62,5.74-.26,3.29-.2,6.64-.73,9.88-.84,5.05-2,10.06-3.14,15.06-1,4.31-2,8.61-3.25,12.85-.94,3.26-1.49,6.7-3.53,9.58-.19.27-.16.68-.28,1-.7,1.94-1.32,3.92-2.15,5.8-1.4,3.19-3.66,6-4.45,9.47-.24,1.07-1.09,2-1.55,3-1,2.15-1.77,4.38-2.8,6.5a23.47,23.47,0,0,1-2.18,3.13c-1.9,2.66-3.68,5.41-5.74,7.94-1.47,1.81-3.33,3.31-5,5-1.28,1.33-2.44,2.78-3.74,4.09-2.42,2.41-4.67,5-8.08,6.16-1.15.4-2.06,1.66-3,2.65a15.17,15.17,0,0,1-4.43,3.05c-3.65,1.92-7.44,3.72-9.47,7.64a16.6,16.6,0,0,0-1,2.63c-.7,2.2-1.33,4.42-2,6.62-.91,2.79-1.87,5.57-2.81,8.36-.18.52-.42,1-.58,1.55-.34,1.11-.63,2.23-.94,3.35a2.94,2.94,0,0,1-.32,1c-1.24,1.56-1.26,3.51-1.81,5.29a23.4,23.4,0,0,1-1.64,3.23c-.24.49-.33,1.05-.6,1.53a13.23,13.23,0,0,1-1.19,1.8c-.29.36-.82.57-1,1-1.41,2.54-3.89,4-6,5.83s-5.48,1.45-7.56-.62c-2.33-2.31-2.49-5.22-2.37-8.13a48.64,48.64,0,0,1,1-7.46,47.36,47.36,0,0,1,1.63-4.93c.36-1.18.61-2.39.91-3.58a4.57,4.57,0,0,1,.43-1.47c1.07-1.45,1.05-3.18,1.33-4.83.08-.45,0-1.2-.22-1.37a2,2,0,0,0-1.55-.08,25.38,25.38,0,0,1-2.4,1.23c-2.91.71-5.83,1.36-8.77,1.87-3.52.61-7.08,1-10.62,1.57-3.13.51-6.24,1.15-9.36,1.69a16.13,16.13,0,0,1-2.23.12c-1.69.06-3.38.12-5.07.15s-3.29-.05-4.92.06c-3.37.22-6.72.74-10.08.74-2.94,0-5.88-.6-8.83-.85s-5.72-.37-8.58-.62c-2.12-.18-4.21-.54-6.33-.71a11.45,11.45,0,0,0-4,0,6.31,6.31,0,0,1-4.18-.29c-.54-.19-1.55-.15-1.8.18a2.4,2.4,0,0,0-.12,2c.63,1.71,1.42,3.36,2.21,5,.39.81,1,1.52,1.34,2.33.91,2,1.84,4,2.57,6,.94,2.68,1.78,5.41,2.47,8.16a5.35,5.35,0,0,1-1.6,5.71,1.67,1.67,0,0,1-.94.44c-3.17,0-6.4.67-9.47-.68a6.94,6.94,0,0,1-1.71-1c-2.14-1.81-4.23-3.66-6.34-5.51-.41-.36-1-.73-1.12-1.19-.61-2.18-2.64-3.26-3.75-5-1.28-2.05-2.71-4-3.93-6.1a51.77,51.77,0,0,1-3-5.83c-.75-1.76-1.21-3.66-1.82-5.48s-1.27-3.8-2-5.65c-.51-1.29-1.94-1.32-3-1.85-2.72-1.39-5.53-2.64-8.16-4.2-3.14-1.85-6.11-4-9.14-6a2,2,0,0,1-.54-.44c-1.64-2.35-4-3.81-6.37-5.3a2.53,2.53,0,0,1-.66-.49c-1.21-1.49-2.42-3-3.59-4.52-2.05-2.7-3.88-5.53-6.45-7.88a105.72,105.72,0,0,1-9.51-9.95,36,36,0,0,1-4.91-7c-1.41-2.81-3.43-5.31-5-8-.87-1.48-1.36-3.18-2.12-4.73-1-2.1-2.08-4.2-3.24-6.23a51.9,51.9,0,0,1-4.29-10.88c-1.55-5.09-3-10.22-4.25-15.38-.73-3-1-6-1.56-9.07-.6-3.22-1.39-6.4-1.91-9.63-.7-4.36-1.43-8.73-1.77-13.12-.25-3.28.13-6.6.2-9.9,0-.94-.13-1.89-.11-2.83,0-1.09.18-2.18.3-3.26a16.48,16.48,0,0,0,.24-2c0-1.73-.15-3.47-.14-5.2,0-2.83,0-5.67.2-8.49.17-2.17.69-4.32,1-6.48.09-.58.08-1.18.19-1.75.24-1.3.54-2.58.81-3.87a27.46,27.46,0,0,0,.56-2.74c.3-2.74.42-5.5.84-8.22a51,51,0,0,1,1.38-5c.37-1.45.62-2.92.94-4.38.46-2.07,1-4.14,1.42-6.22.52-2.48.89-5,1.5-7.45.46-1.85,1.24-3.62,1.8-5.45.36-1.16.56-2.36.86-3.54a29.81,29.81,0,0,1,3.84-8.82c1-1.56,1.78-3.28,2.75-4.86a30.89,30.89,0,0,0,2.14-2.91c.88-1.88,2.81-2.84,3.78-4.44a26.84,26.84,0,0,1,4-4.92,2.22,2.22,0,0,0,.79-1.86c0-.94.75-1.94,1.23-2.88.56-1.09,1.2-2.13,1.76-3.22.36-.68.75-1.15,1.64-1a1.39,1.39,0,0,0,1-.5c1.23-1.42,2.41-2.88,3.61-4.32a6.84,6.84,0,0,0,.69-.81c2-3.18,5.08-5.17,7.75-7.63,2.83-2.6,6.1-4.51,9.15-6.78a30.45,30.45,0,0,1,5.39-3.08c1.48-.69,2.78-1.8,4.24-2.53,3.68-1.8,7.38-3.53,11.11-5.21,1.5-.68,3.08-1.18,4.63-1.79a2.94,2.94,0,0,0,1.39-3.2c-1.74-3.67-2-7.63-2.46-11.57q-.7-5.67-1.75-11.28a108.26,108.26,0,0,1-1.47-13.55c0-.27-.09-.63,0-.82.8-1.07.25-2.13.12-3.23-.27-2.34-.51-4.69-.59-7-.15-5.23-.07-10.46-.32-15.68-.11-2.29-.95-4.53-1.12-6.83-.26-3.36-1.34-6.58-1-10.05.35-4,.09-8,.18-12a7.6,7.6,0,0,1,.66-2.38c.51-1.35,1.06-2.7,1.66-4a3.64,3.64,0,0,1,1-1.24,22.59,22.59,0,0,1,3.31-2.46,20,20,0,0,1,4.13-1.61c1-.28,1.73.43,2.21,1.24s1,2,1.47,2.95a21.3,21.3,0,0,0,1.71,3.06c1.12,1.5,1.21,3.31,1.79,5,.86,2.43,1.72,4.86,2.63,7.28.1.27.59.65.73.59a2.09,2.09,0,0,0,.9-.82c.74-1.23,1.39-2.52,2.17-3.72a2.16,2.16,0,0,1,1.3-.94c1.92-.21,3.27-1.47,4.79-2.42a2.49,2.49,0,0,1,3.8.77A24,24,0,0,1,192.56,37a65.26,65.26,0,0,1,2.51,6.7c.63,2.2.88,4.51,1.39,6.76a13.31,13.31,0,0,0,1,2.23l.46,0a15.84,15.84,0,0,0,.89-2.48c.25-1.38.3-2.81.52-4.2a15,15,0,0,1,.66-2.15c.07-.22.25-.42.27-.65.45-4.14,2.16-7.89,3.71-11.67A28.27,28.27,0,0,1,207,25.81,15.75,15.75,0,0,1,213.25,21c1.63-.79,3.16-1.16,4.77,0a2.47,2.47,0,0,0,1.36.37,3.64,3.64,0,0,1,3.21,2.1,13,13,0,0,1,1.58,4.16c.52,3.56.88,7.15,1.09,10.74.1,1.8-.38,3.63-.45,5.45-.09,2.4,0,4.8-.06,7.2s-.42,5-.58,7.51c-.07,1.05,0,2.11,0,3.17,0,3.78,0,7.55,0,11.33,0,2.62,0,5.23-.11,7.85,0,.88-.34,1.75-.45,2.64a88.6,88.6,0,0,1-3.16,14.63c-.93,3.08-1.45,6.28-2.21,9.41-.27,1.1-.67,2.18-1,3.26-.62,1.87-.15,2.45,1.81,2.29q6.46-.54,12.9-1c2.23-.17,4.45-.31,6.68-.45a2.45,2.45,0,0,1,.59,0c3.33.54,6.67,1,10,1.68,1.33.27,2.54,1.1,3.87,1.38s3,0,4.4.42c2.59.74,5.08,1.81,7.63,2.69a20.58,20.58,0,0,0,3,.86,31,31,0,0,1,8.16,3c2.41,1.21,5,2,7.51,3.06a6.58,6.58,0,0,1,1.46.74c1.27,1,2.32,2.21,4,2.49.49.08.84.82,1.34,1.1a3.7,3.7,0,0,0,2,.73c1.95-.25,3.84-.9,5.78-1.06a7.07,7.07,0,0,1,3.76.66,34,34,0,0,1,6.95,5c1.74,1.61,1.61,3.37,1.72,5.32.14,2.49-1.21,4.62-1.52,7a2.05,2.05,0,0,0,1,2.43,19.44,19.44,0,0,1,3.08,2.81,41.44,41.44,0,0,1,3.38,3.45c1.78,2.2,3.37,4.54,5.12,6.77A24.23,24.23,0,0,0,324,164.2c.78.76,1.53,1.55,2.28,2.33.3.31.53.76.89.92a5.31,5.31,0,0,1,2.8,3.35,12.42,12.42,0,0,0,3.83,4.86,16.88,16.88,0,0,1,3.26,4.28c.6,1,1.41,1.89,2,2.91a26.54,26.54,0,0,1,1.52,3.26c.53,1.28.86,2.66,1.49,3.87,1,1.84,2.08,3.6,3.18,5.36.49.8,1.19,1.48,1.62,2.32.93,1.86,1.8,3.76,2.61,5.68,1.21,2.88,2.44,5.76,3.51,8.69.64,1.76,1,3.62,1.46,5.44,0,.15,0,.34,0,.47.8,1.48,1.66,3,2.44,4.45a13.11,13.11,0,0,1,1.25,2.85c.76,3.11,1.38,6.24,2.07,9.36.34,1.52.68,3,1.08,4.55a27,27,0,0,1,.95,3c.23,1.61.23,3.26.32,4.9a1.48,1.48,0,0,0,.07.58c1.48,2.5.75,5.23.85,7.86,0,.55.09,1.09.13,1.64.16,2.4.72,4.76.29,7.22A19.26,19.26,0,0,0,364,269Zm-6.68,11a49.22,49.22,0,0,0,1-11.37c-.06-1.53-.41-3.05-.36-4.57.12-3.11.84-6.14,0-9.35-.7-2.77-.59-5.75-.84-8.64l.42-.08c-.39-1.74-.8-3.47-1.15-5.21-.66-3.26-1.23-6.56-2.89-9.52a4.9,4.9,0,0,1-.3-1c-.68-2.18-1.06-4.53-2.11-6.5a31.89,31.89,0,0,1-2.78-8.7,6.32,6.32,0,0,0-.56-1.66c-1.68-3.11-3.48-6.15-5.06-9.3a13.93,13.93,0,0,0-3.38-4.61,3,3,0,0,1-.64-1c-.69-1.43-1.28-2.93-2.07-4.3-1.81-3.14-2.68-6.67-4.71-9.75-2.15-3.27-3.77-6.89-7.08-9.24a1,1,0,0,1-.41-.56c-.4-1.77-1.86-2.73-3.1-3.72a27,27,0,0,1-5.24-5.66c-1.74-2.44-3.85-4.62-5.8-6.9a.26.26,0,0,0-.1-.06,8,8,0,0,1-3.82-4.32c-.55-1.23-1.6-1.3-2.53-.31a16.6,16.6,0,0,1-1.79,1.48c-.64.51-1.32,1-1.91,1.54a39.83,39.83,0,0,1-4.11,3.85,87.7,87.7,0,0,1-8.14,4.88c-3.5,1.88-7.06,3.68-10.69,5.3A38.65,38.65,0,0,1,271,172.7c-1.86.48-3.75.82-5.64,1.14-2.63.44-5.26.91-7.92,1.15-3.25.3-6.53.34-9.79.58-2.41.18-4.79.54-7.19.76-4.12.38-8.23.85-12.35,1-3.53.15-7.09,0-10.62-.12-2.85-.12-5.69-.51-8.55-.69a9.05,9.05,0,0,1-4.3-1,4.27,4.27,0,0,0-1.35-.45c-4.32-.88-8.35-2.29-11.61-5.45-.65-.63-1.26-1.06-.81-2,.67-1.45,1.56-2.11,2.7-1.73a13.89,13.89,0,0,0,6.77.57c1.7-.28,3.44-.37,5.14-.62,3-.45,6.06-.91,9.07-1.45a26.63,26.63,0,0,0,4.13-1c3.19-1.11,6.35-2.31,9.51-3.51,2.71-1,5.55-1.78,8-3.47a15.92,15.92,0,0,1,2.63-1.57c2-.86,4-1.57,6-2.42,1.36-.59,2.64-1.39,4-2,2.9-1.27,5.87-2.4,8.74-3.75,3.23-1.52,6.4-3.2,9.59-4.84,1.87-1,3.74-2,5.6-2.95.41-.22.76-.57,1.18-.78,2.88-1.47,5.8-2.9,8.67-4.41a1.49,1.49,0,0,0,.7-1.16,2.53,2.53,0,0,0-.79-1.3c-.23-.24-.66-.24-1-.42a34.08,34.08,0,0,0-8.11-3.64c-2.5-.71-5-1.31-7.52-2.05-3.49-1-7-2.17-10.44-3.26a12.08,12.08,0,0,0-2.81-.84,17.1,17.1,0,0,1-4.55-1.11,37.89,37.89,0,0,0-6.7-1,13.19,13.19,0,0,1-2-.13,17.54,17.54,0,0,0-7-.63c-.88.09-1.74.36-2.61.39-3.18.15-6.4-.06-9.52.39-6.19.89-12.32,2.11-18.47,3.23-.77.14-1.5.48-2.26.67s-1.81.4-2.72.59c-2.18.45-4.41.76-6.53,1.39-1.75.51-3.35,1.54-5.08,2.11-3.11,1-6.24,2-9.41,2.75a54,54,0,0,0-9.45,3.59,46,46,0,0,1-8.48,3.13,4.22,4.22,0,0,0-1,.55,14.23,14.23,0,0,1-1.54.85c-1.94.77-3.94,1.4-5.83,2.27a40.32,40.32,0,0,0-3.94,2.34c-1.14.69-2.28,1.35-3.41,2.06a24.76,24.76,0,0,1-2.61,1.7,31.82,31.82,0,0,0-8.85,6.41,94.24,94.24,0,0,0-6.4,7.24c-1.63,2-3.16,4-4.6,6.1-1.32,1.91-2.31,4.06-3.72,5.9a21.17,21.17,0,0,0-3.39,5.6c-.24.69-1,1.18-1.47,1.81-.68.94-1.3,1.93-1.92,2.91a12.45,12.45,0,0,1-1.16,2,17.83,17.83,0,0,0-3.31,6.15,47.43,47.43,0,0,1-2.87,6.92,64.83,64.83,0,0,0-3.67,8.36,59.9,59.9,0,0,0-2.3,6.7c-.82,3.11-1.39,6.29-2.13,9.43s-1.67,6.37-2.39,9.58c-.48,2.14-.82,4.32-1.11,6.5-.25,1.9-.37,3.81-.53,5.72-.17,2.28-.38,4.55-.45,6.83,0,1.16.25,2.33.27,3.5,0,2-.11,4-.09,6,0,3,.09,6.06.16,9.09,0,1.57.15,3.14.19,4.71,0,1.33-.12,2.66,0,4,.17,1.83.6,3.64.75,5.47.18,2.23.18,4.47.27,6.71a23.07,23.07,0,0,0,.13,3.14c.64,3.55,1.41,7.07,2.05,10.61.28,1.58.25,3.22.57,4.79.79,3.87,1.69,7.71,2.57,11.56.13.57.39,1.1.56,1.66a20.26,20.26,0,0,0,1.24,4.14,55.4,55.4,0,0,1,3.79,9.62c.65,2,1.36,3.92,2.09,5.86.34.91.83,1.75,1.2,2.64.73,1.74,1.32,3.54,2.14,5.23a52.07,52.07,0,0,0,2.73,4.68,47.73,47.73,0,0,0,3.86,5.91c1.78,2.1,3.94,3.87,5.9,5.82,1.39,1.39,2.71,2.84,4.08,4.26,2.71,2.81,6.55,4.14,9.09,7.28,2,2.44,4.68,4.29,7,6.5a24.53,24.53,0,0,0,9.44,5.77,13.33,13.33,0,0,1,2.86,1.33,52.76,52.76,0,0,0,9.72,4.71c3.27,1.22,6.66,2.14,10,3.08,3.07.85,6.17,1.58,9.27,2.28,2.3.52,4.62.92,6.94,1.33,2.93.52,5.86,1.15,8.81,1.48,4.53.5,9.12.49,13.45,2.14a3,3,0,0,0,1,.16,54.61,54.61,0,0,1,10.92.72,106.06,106.06,0,0,0,12.53,1.63c3.28.27,6.59.07,9.88.19a24.32,24.32,0,0,0,7.72-1.39,19.37,19.37,0,0,1,2.73-.7c2.79-.38,5.62-.54,8.38-1.06a52.37,52.37,0,0,0,6.77-1.95c2.64-.88,5.44-1.55,7.79-3,2.79-1.66,5.86-2.37,8.79-3.56,2.26-.92,4.54-1.81,6.69-3,2.57-1.35,5-3,7.5-4.42,2-1.07,4-1.92,5.54-3.69a7.39,7.39,0,0,1,1.19-.95c1.78-1.36,3.63-2.63,5.3-4.1,1-.92,1.77-2.2,2.74-3.21,1.81-1.86,3.75-3.58,5.52-5.46a56,56,0,0,0,4.28-5c1.49-2,2.88-4.12,4.17-6.27a16.88,16.88,0,0,1,2.88-4,16.85,16.85,0,0,0,2.82-3.42c.48-.76.73-1.57,1.62-2.06a3,3,0,0,0,1-1.39c.82-1.74,1.59-3.5,2.36-5.26a34.92,34.92,0,0,0,1.72-4c1.21-3.94,2.29-7.92,3.43-11.88.51-1.8.75-3.67,1.89-5.28s1.56-3.81,2-5.83c.38-1.6.9-3.18,1.37-4.77s1-3,1.34-4.5c.52-2.45.85-4.94,1.32-7.4s1.12-5.11,1.58-7.68C355.91,288.82,356.51,284.41,357.36,280.06ZM303.3,142.14c.8-1.41-1.23-5.08-3-5.37a12.15,12.15,0,0,0-6.29.33c-2,.74-4,1.47-6,2.11-3.37,1.06-6.86,1.81-10.13,3.12-3.56,1.42-6.93,3.29-10.36,5-1.55.78-3,1.69-4.54,2.49-1.22.64-2.48,1.19-3.71,1.83-3.11,1.63-6.2,3.34-9.35,4.93-2.05,1-4.18,1.95-6.29,2.89-.86.39-1.77.65-2.61,1.07-1.3.64-2.5,1.52-3.84,2-5.35,2.08-10.75,4.05-16.11,6.13-.58.22-1.48.85-1.45,1.23.08,1.06,1.13.8,1.88.88a3.25,3.25,0,0,0,.36,0c2.17,0,4.33-.05,6.49-.14,3.23-.12,6.45-.2,9.65-.48,2.45-.22,4.88-.71,7.31-1.12s4.72-.84,7.07-1.28c2.11-.4,4.2-.83,6.31-1.25,0,.08,0,.16,0,.24a5.57,5.57,0,0,0,.82-.1c2.16-.62,4.43-.55,6.54-1.66,1.88-1,4.16-1.24,6.21-1.95,2.24-.78,4.49-1.63,6.66-2.6s4.54-2.26,6.79-3.42a19.12,19.12,0,0,1,2.46-1.34c2.11-.7,3.63-2.26,5.32-3.54s3-2.78,5.2-3c.23,0,.49-.32.63-.55.63-1,1.21-2.11,1.83-3.14S302.65,143.29,303.3,142.14ZM292.95,401.75c.09-1.06-.9-1.52-1.8-1s-1.64,1.08-2.51,1.54c-1.93,1-3.93,1.93-5.81,3a4.12,4.12,0,0,0-1.82,2c-.9,2.83-1.54,5.74-2.36,8.6-.54,1.92-1.29,3.78-1.82,5.7-.58,2.07-1,4.18-1.52,6.27l.15,0a9.76,9.76,0,0,0,.19,2.23c.21.65.6,1.51,1.13,1.71a2.27,2.27,0,0,0,2-.48c1.68-1.73,3.21-3.61,4.77-5.46a4.06,4.06,0,0,0,.49-1.06c.51-1.22,1-2.45,1.53-3.66.75-1.64,1.66-3.22,2.34-4.89q2.21-5.43,4.23-10.94A14.2,14.2,0,0,0,292.95,401.75ZM219.48,56.2c.27-4,.43-7.94.64-11.9a21.35,21.35,0,0,0-3.42-11.06c-1.58-2.34-4.3-2.45-6-.18a20.4,20.4,0,0,0-2.11,4,42.27,42.27,0,0,0-3.29,12,91.8,91.8,0,0,1-2.17,12.17,11.16,11.16,0,0,0-.28,2.57c-.06,2.86.14,5.73-.15,8.56s-1.18,5.79-.47,8.77a3.52,3.52,0,0,1-.07.94,34.8,34.8,0,0,0-.09,4.12c.32,3.47.8,6.94,1.16,10.41.09.81-.12,1.65,0,2.46.19,2.19.46,4.37.68,6.55s.36,4.63.64,6.94a1.92,1.92,0,0,0,1.81,1.85c1.06.09,2,0,2.42-1.19,1.05-3.2,1.88-6.5,3.13-9.62a23.26,23.26,0,0,0,1.59-6.68c.22-2.42,1-4.78,1.43-7.19.61-3.14,1.23-6.28,1.73-9.44.37-2.25.59-4.52.8-6.79.1-1.12-.07-2.28.08-3.39.35-2.61.84-5.2,1.23-7.8C219,60.23,219.34,58.22,219.48,56.2Zm-23.27,60c1.93-.51,2.22-1,2-3.05-.3-3-.6-5.93-.75-8.91-.21-4-.26-7.95-.41-11.93-.15-4.2-.34-8.4-.51-12.6l.13,0c-.26-1.9-.46-3.82-.78-5.71-.58-3.45-1.2-6.89-1.89-10.32-.48-2.41-.64-4.93-2.07-7.08a3,3,0,0,1-.36-1c-.86-3.83-1.69-7.67-2.59-11.48a2.16,2.16,0,0,0-2.84-1.56,7.27,7.27,0,0,0-4.06,6.74c.18,2.47.46,4.93.56,7.4s-.2,5.2.79,7.7a2.2,2.2,0,0,1,.09.7c.09,2,.09,4,.27,6s.6,4.19.88,6.29c.16,1.17.18,2.36.38,3.51.14.76.55,1.47.74,2.23.61,2.47,1.19,5,1.76,7.43a18.54,18.54,0,0,1,.42,2.26c.11,1,.08,2.07.18,3.1.43,4.33.84,8.67,1.34,13,.25,2.19.56,4.38,1,6.54.36,1.69,1.51,2.21,3.14,1.67C194.5,116.78,195.34,116.44,196.21,116.2Zm-10.35,320c.24-.13.33-.85.24-1.23-.19-.79-.66-1.52-.83-2.32a24.69,24.69,0,0,0-2.42-7.25,4.26,4.26,0,0,1-.31-.9,28.39,28.39,0,0,0-1.3-4c-1.21-2.48-1.72-5.34-3.84-7.35-.12-.12-.13-.36-.22-.54-1-1.91-2.27-3.31-4.72-2.87a4,4,0,0,1-1.59-.26c-1.4-.36-2.8-.76-4.2-1.14-.84.11-1.16.81-.76,1.77.73,1.78,1.43,3.57,2.24,5.32.89,1.91,1.78,3.83,2.84,5.64.66,1.14,1.82,2,2.43,3.17a35.24,35.24,0,0,0,8.15,9.87,17.75,17.75,0,0,0,2.9,2A1.66,1.66,0,0,0,185.86,436.25Zm-7.4-315.08a2,2,0,0,0,1.35-2.14c-.13-1.91-.28-3.83-.43-5.74-.17-2.31-.32-4.62-.5-6.92a9.88,9.88,0,0,0-.23-1.16c-.34-1.64-.82-3.26-1-4.92-.3-2.66-.32-5.35-.6-8-.45-4.21-.36-8.47-1.5-12.62a69.28,69.28,0,0,1-1.48-7.93c-.45-2.9-.88-5.8-1.14-8.72-.18-2,0-4-.08-6.06a7.43,7.43,0,0,0-.33-1.49,20.63,20.63,0,0,1-.6-2.85c-.11-1.41,0-2.82,0-4.63-.3-1.9-.66-4.18-1-6.47-.14-.93-.15-1.9-.38-2.81-.38-1.47-.9-2.91-1.34-4.37a3.62,3.62,0,0,0-2.76-2.47c-1.37,0-1.77,1.06-2.12,2-.69,1.93-1.26,3.91-1.89,5.87a6.27,6.27,0,0,0-.49,1.52c-.09,2.48-.19,5-.1,7.43.08,2.16.48,4.31.6,6.47.18,2.94.21,5.89.34,8.83a19.41,19.41,0,0,0,.37,2.2c.28,1.74.51,3.5.82,5.23.39,2.08.94,4.12,1.24,6.21.79,5.43,1.43,10.88,2.21,16.31.44,3,1.09,6,1.54,8.95.39,2.6.76,5.23.91,7.85a27.61,27.61,0,0,1-.19,6.13c-.27,1.69-.63,3.25,0,5,.5,1.39,1.73,2.27,3.08,1.74C174.64,122.84,176.54,122,178.46,121.17Z"/><path class="cls-1" d="M358.36,268.7a49.22,49.22,0,0,1-1,11.37c-.85,4.35-1.44,8.76-2.22,13.13-.46,2.57-1.09,5.11-1.58,7.68s-.8,5-1.32,7.4c-.32,1.53-.89,3-1.34,4.5s-1,3.16-1.37,4.77c-.48,2-.83,4.11-2,5.83s-1.38,3.48-1.89,5.28c-1.14,4-2.22,7.94-3.43,11.88a34.92,34.92,0,0,1-1.72,4c-.77,1.76-1.54,3.52-2.36,5.26a3,3,0,0,1-1,1.39c-.89.48-1.14,1.3-1.62,2.06a16.85,16.85,0,0,1-2.82,3.42,16.88,16.88,0,0,0-2.88,4c-1.29,2.15-2.68,4.26-4.17,6.27a56,56,0,0,1-4.28,5c-1.77,1.88-3.72,3.6-5.52,5.46-1,1-1.7,2.29-2.74,3.21-1.67,1.47-3.53,2.75-5.3,4.1a7.39,7.39,0,0,0-1.19.95c-1.5,1.76-3.57,2.61-5.54,3.69-2.54,1.39-4.94,3.07-7.5,4.42-2.15,1.14-4.43,2-6.69,3-2.93,1.19-6,1.9-8.79,3.56-2.35,1.4-5.16,2.07-7.79,3a52.37,52.37,0,0,1-6.77,1.95c-2.76.52-5.59.68-8.38,1.06a19.37,19.37,0,0,0-2.73.7,24.32,24.32,0,0,1-7.72,1.39c-3.29-.12-6.6.08-9.88-.19a106.06,106.06,0,0,1-12.53-1.63,54.61,54.61,0,0,0-10.92-.72,3,3,0,0,1-1-.16c-4.34-1.66-8.93-1.65-13.45-2.14-3-.33-5.88-1-8.81-1.48-2.32-.41-4.64-.82-6.94-1.33-3.11-.7-6.21-1.43-9.27-2.28-3.38-.94-6.77-1.86-10-3.08a52.76,52.76,0,0,1-9.72-4.71,13.33,13.33,0,0,0-2.86-1.33,24.53,24.53,0,0,1-9.44-5.77c-2.29-2.21-5-4.06-7-6.5-2.55-3.14-6.39-4.47-9.09-7.28-1.37-1.42-2.69-2.87-4.08-4.26-2-2-4.12-3.72-5.9-5.82a47.73,47.73,0,0,1-3.86-5.91,52.07,52.07,0,0,1-2.73-4.68c-.82-1.69-1.42-3.49-2.14-5.23-.36-.89-.86-1.74-1.2-2.64-.73-1.94-1.44-3.9-2.09-5.86a55.4,55.4,0,0,0-3.79-9.62,20.26,20.26,0,0,1-1.24-4.14c-.17-.56-.42-1.09-.56-1.66-.88-3.85-1.78-7.69-2.57-11.56-.32-1.57-.29-3.21-.57-4.79-.64-3.55-1.41-7.07-2.05-10.61a23.07,23.07,0,0,1-.13-3.14c-.08-2.24-.08-4.48-.27-6.71-.15-1.83-.58-3.64-.75-5.47-.12-1.31,0-2.65,0-4,0-1.57-.15-3.14-.19-4.71-.08-3-.15-6.06-.16-9.09,0-2,.11-4,.09-6,0-1.17-.31-2.34-.27-3.5.07-2.28.28-4.56.45-6.83.15-1.91.27-3.82.53-5.72.29-2.18.63-4.36,1.11-6.5.72-3.21,1.63-6.37,2.39-9.58s1.31-6.31,2.13-9.43a59.9,59.9,0,0,1,2.3-6.7,64.83,64.83,0,0,1,3.67-8.36,47.43,47.43,0,0,0,2.87-6.92,17.83,17.83,0,0,1,3.31-6.15,12.45,12.45,0,0,0,1.16-2c.62-1,1.24-2,1.92-2.91.45-.63,1.22-1.12,1.47-1.81a21.17,21.17,0,0,1,3.39-5.6c1.41-1.84,2.4-4,3.72-5.9,1.45-2.1,3-4.14,4.6-6.1a94.24,94.24,0,0,1,6.4-7.24,31.82,31.82,0,0,1,8.85-6.41,24.76,24.76,0,0,0,2.61-1.7c1.13-.71,2.27-1.37,3.41-2.06a40.32,40.32,0,0,1,3.94-2.34c1.9-.87,3.9-1.5,5.83-2.27a14.23,14.23,0,0,0,1.54-.85,4.22,4.22,0,0,1,1-.55,46,46,0,0,0,8.48-3.13,54,54,0,0,1,9.45-3.59c3.17-.77,6.3-1.73,9.41-2.75,1.74-.57,3.33-1.6,5.08-2.11,2.12-.63,4.35-.94,6.53-1.39.9-.19,1.82-.36,2.72-.59s1.49-.53,2.26-.67c6.15-1.12,12.28-2.35,18.47-3.23,3.13-.45,6.34-.25,9.52-.39.88,0,1.74-.3,2.61-.39a17.54,17.54,0,0,1,7,.63,13.19,13.19,0,0,0,2,.13,37.89,37.89,0,0,1,6.7,1,17.1,17.1,0,0,0,4.55,1.11,12.08,12.08,0,0,1,2.81.84c3.48,1.09,6.95,2.21,10.44,3.26,2.49.74,5,1.34,7.52,2.05a34.08,34.08,0,0,1,8.11,3.64c.3.18.74.18,1,.42a2.53,2.53,0,0,1,.79,1.3,1.49,1.49,0,0,1-.7,1.16c-2.87,1.51-5.79,2.93-8.67,4.41-.42.21-.77.56-1.18.78-1.86,1-3.73,2-5.6,2.95-3.19,1.63-6.35,3.32-9.59,4.84-2.87,1.35-5.84,2.47-8.74,3.75-1.36.6-2.63,1.4-4,2-2,.85-4,1.56-6,2.42a15.92,15.92,0,0,0-2.63,1.57c-2.43,1.7-5.27,2.44-8,3.47-3.16,1.2-6.32,2.4-9.51,3.51a26.63,26.63,0,0,1-4.13,1c-3,.53-6,1-9.07,1.45-1.7.25-3.44.34-5.14.62a13.89,13.89,0,0,1-6.77-.57c-1.14-.38-2,.28-2.7,1.73-.45,1,.16,1.4.81,2,3.26,3.17,7.29,4.57,11.61,5.45a4.27,4.27,0,0,1,1.35.45,9.05,9.05,0,0,0,4.3,1c2.85.18,5.69.57,8.55.69,3.53.15,7.09.27,10.62.12,4.12-.18,8.23-.64,12.35-1,2.4-.22,4.78-.58,7.19-.76,3.26-.24,6.54-.28,9.79-.58,2.66-.24,5.29-.71,7.92-1.15,1.9-.31,3.78-.66,5.64-1.14a38.65,38.65,0,0,0,6.19-1.91c3.63-1.62,7.19-3.42,10.69-5.3a87.7,87.7,0,0,0,8.14-4.88,39.83,39.83,0,0,0,4.11-3.85c.6-.55,1.27-1,1.91-1.54a16.6,16.6,0,0,0,1.79-1.48c.93-1,2-.92,2.53.31a8,8,0,0,0,3.82,4.32.26.26,0,0,1,.1.06c2,2.29,4.06,4.47,5.8,6.9a27,27,0,0,0,5.24,5.66c1.24,1,2.69,1.95,3.1,3.72a1,1,0,0,0,.41.56c3.32,2.36,4.93,6,7.08,9.24,2,3.08,2.9,6.62,4.71,9.75.79,1.38,1.38,2.87,2.07,4.3a3,3,0,0,0,.64,1,13.93,13.93,0,0,1,3.38,4.61c1.57,3.16,3.38,6.2,5.06,9.3a6.32,6.32,0,0,1,.56,1.66,31.89,31.89,0,0,0,2.78,8.7c1.06,2,1.43,4.32,2.11,6.5a4.9,4.9,0,0,0,.3,1c1.66,3,2.23,6.25,2.89,9.52.35,1.74.76,3.47,1.15,5.21l-.42.08c.25,2.89.14,5.86.84,8.64.81,3.2.08,6.24,0,9.35C358,265.64,358.3,267.17,358.36,268.7ZM326,258.85a2.25,2.25,0,0,0-.85-1.69c-.7-.52-1.25.1-1.57.73a19.81,19.81,0,0,0-.84,1.93,9.85,9.85,0,0,1-1,2.37c-1.63,2.08-2.65,4.71-5.18,6-.3.15-.5.5-.73.77-.89,1-1.72,2.15-2.68,3.11-3.14,3.11-6.11,6.42-9.82,8.92-1.3.88-2.36,2.14-3.72,2.89a8.73,8.73,0,0,1-11-2.31c-1.5-1.88-1.62-3.77-.16-5.59.91-1.15,1.88-2.26,2.87-3.35,3.46-3.84,7.45-7.17,10.57-11.33,1.39-1.86,3.17-3.47,4.33-5.44,2.14-3.66,4.38-7.3,5.63-11.41.63-2.07,1.33-4.12,1.86-6.21.59-2.36,1.1-4.74,1.52-7.13a43,43,0,0,0,.5-5c0-.36-.41-.82-.75-1.09-.12-.1-.73.13-.86.36a33.18,33.18,0,0,0-2.76,5.06c-1.09,2.93-1.9,6-2.76,9-1.61,5.64-4.67,10.55-7.67,15.5-.21.34-.72.51-1.17.81-.29-.92-.47-1.48-.63-2-.52-1.85-1.08-3.69-1.56-5.56-.82-3.25-2.1-6.22-4.81-8.37a69.28,69.28,0,0,0-5.57-4.36c-3-2-6.19-3.71-9.34-5.48a30.18,30.18,0,0,0-8.18-2.82c-1.94-.45-3.9-.85-5.83-1.35a20.74,20.74,0,0,0-10.17-.26c-2.68.66-5.16,2.06-7.75,3.09-1.63.65-3.34,1.16-5,1.85a26.36,26.36,0,0,0-7.55,5.18,33.18,33.18,0,0,0-3,3.45c-.56.69-.95,1.52-1.5,2.22-1.46,1.87-3.41,3.39-4.15,5.8a1.09,1.09,0,0,1-.86.62,2,2,0,0,1-1.2-.76c-.7-1.14-1.27-2.35-1.89-3.54-.21-.41-.59-.83-.59-1.24a2.81,2.81,0,0,0-1.51-2.5,3.85,3.85,0,0,1-1.14-1A17.12,17.12,0,0,0,212.9,234c-2.8-2-5.52-4.15-8.31-6.2-2.1-1.54-4.65-1.83-7.1-2.36-1.65-.35-3.32-.58-5-.91a41.16,41.16,0,0,0-4.93-1c-4.17-.28-7.93,1.31-11.66,2.9-2.35,1-4.7,2-6.93,3.23s-4.33,2.26-5.89,4.26c-.69.89-1.6,1.63-2.3,2.51a33.67,33.67,0,0,0-3.9,5.27,93.07,93.07,0,0,0-3.63,8.93c-.33.87-.41,1.83-.68,2.73-.91,3-1.89,6-2.77,9a22.29,22.29,0,0,0-.45,2.8c-.26,1.62-.63,3.22-.79,4.85-.27,2.85.53,5.54,1.38,8.22a1.46,1.46,0,0,1-1,2,3.25,3.25,0,0,1-1.52,0,32.73,32.73,0,0,1-8.76-3.39c-2-1.15-4.14-2-5.87-3.46a70.25,70.25,0,0,1-5.41-5.7,6.81,6.81,0,0,1-1.88-3.85c-.07-.51-.26-1-.34-1.5a52.57,52.57,0,0,1-.79-5.2,50,50,0,0,1,0-6.37,17.4,17.4,0,0,1,.82-4.35c.49-1.48,0-2.49-1.61-2.54-1.38,0-2.94,1.56-3.17,3.29-.27,2.05-.54,4.11-.76,6.16-.15,1.33,0,2.7-.3,4a10.1,10.1,0,0,0,.81,5.65c.45,1.25.77,2.54,1.18,3.8a20.82,20.82,0,0,0,1.72,4.73,19.43,19.43,0,0,0,3.73,4.06c2.21,1.94,4.24,4.15,7.25,5a3.22,3.22,0,0,1,.84.59c2.57,1.82,5.11,3.68,8.44,3.93,1.16.08,2.3.53,3.46.67a39.68,39.68,0,0,0,5.28.41c2.23,0,4.45-.42,6.68-.45,2,0,4-.15,5.82,1.07.77.52,1.45,1.12,1.21,2.1a10.28,10.28,0,0,1-1.05,2.87c-1.31,2.19-2.78,4.16-5.5,5-3.05.92-6.09,1.65-9.25,1.19a47.43,47.43,0,0,1-8.56-1.61c-3.77-1.27-7.67-2.11-11-4.36-2.75-1.85-5.45-3.8-8.1-5.81a1.63,1.63,0,0,0-1.91-.26,6.33,6.33,0,0,0-1.36.69,1.92,1.92,0,0,0-.73,1.07,3.36,3.36,0,0,0,1,3.21c1.17,1.08,1.91,2.67,3.18,3.58a44.94,44.94,0,0,0,6.47,3.73,45.82,45.82,0,0,0,6.91,2.9c3.5,1.05,7.09,1.78,10.63,2.63a5.46,5.46,0,0,0,1.3.09c3.15,0,6.3-.12,9.46-.11a2.16,2.16,0,0,1,2.19,1.6,32.77,32.77,0,0,0,2.3,4.87,43.05,43.05,0,0,0,3,4.38q2.6,3.47,5.33,6.83c.64.79,1.69,1.28,2.2,2.12,1.19,2,3.24,2.93,4.93,4.28,2.45,2,5.56,2.78,7.92,5,1.77,1.69,4.24,2.65,6.42,3.91.5.29,1.07.46,1.59.73,1.36.7,2.66,1.5,4.05,2.14,2.18,1,4.4,1.9,6.61,2.83a40.53,40.53,0,0,0,4.59,1.84c4.49,1.27,9,2.44,13.52,3.56a49.13,49.13,0,0,0,5.42,1c.81.11,1.66-.18,2.47-.08,2.84.33,5.74.28,8.47,1.39a2.55,2.55,0,0,0,3-.7c1.64-2.18,2.5-4.5.79-7.27a7.7,7.7,0,0,1-.59-7.85c.34-.66.65-1.35,1.05-2a9.37,9.37,0,0,1,1.45-1.91,7.31,7.31,0,0,1,1.84-1c2-.91,3.88-1.89,5.89-2.66,3-1.14,6.13-1.84,9-3.22,3.56-1.73,7.36-2.68,11-4,2.89-1,5.86-1.83,8.68-3A28.59,28.59,0,0,0,289,311c1.36-1.28,3.21-2,4.1-3.84A7.13,7.13,0,0,1,294.7,305a12,12,0,0,0,2.45-3.93A25.9,25.9,0,0,0,300,291a4.17,4.17,0,0,1,3.29-4,3.36,3.36,0,0,0,1.38-.87c1.21-1.17,2.32-2.44,3.54-3.6,2.05-1.95,4.3-3.72,6.2-5.8,1.75-1.91,4.36-3.17,4.93-6.05,0-.21.27-.38.44-.54.9-.92,1.87-1.78,2.71-2.75A14.63,14.63,0,0,0,326,258.85ZM225.39,147.66c1.65-.73,1.79-2.23,1.7-3.79-.05-1-.05-2-.18-2.94a2.08,2.08,0,0,0-.54-1.22,10.83,10.83,0,0,0-2.25-1.68,2.26,2.26,0,0,0-1.68-.12,12.59,12.59,0,0,0-2.91,1.53,4.5,4.5,0,0,0,.71,7.52,11.72,11.72,0,0,0,3,1A4,4,0,0,0,225.39,147.66Zm-56.88,9c.6-2.62-1.5-6.34-4.08-7.11a3.74,3.74,0,0,0-4,1.79c-.37.91-1,1.7-1.44,2.57a1.61,1.61,0,0,0-.27,1.06,26.48,26.48,0,0,0,1.47,3.33c.57,1,1.59,1.36,3.24,1.36a13.16,13.16,0,0,0,2.66-.79C167.07,158.39,168.21,158,168.52,156.65Z"/><path d="M325.19,257.16a2.25,2.25,0,0,1,.85,1.69,14.63,14.63,0,0,1-3.54,8.54c-.84,1-1.81,1.83-2.71,2.75-.17.17-.4.34-.44.54-.57,2.88-3.18,4.14-4.93,6.05-1.9,2.08-4.15,3.85-6.2,5.8-1.22,1.16-2.33,2.43-3.54,3.6a3.36,3.36,0,0,1-1.38.87,4.17,4.17,0,0,0-3.29,4,25.9,25.9,0,0,1-2.86,10A12,12,0,0,1,294.7,305a7.13,7.13,0,0,0-1.56,2.19c-.89,1.81-2.74,2.56-4.1,3.84a28.59,28.59,0,0,1-8.65,5.44c-2.82,1.18-5.79,2-8.68,3-3.68,1.32-7.47,2.26-11,4-2.83,1.38-6,2.08-9,3.22-2,.77-3.93,1.75-5.89,2.66a7.31,7.31,0,0,0-1.84,1,9.37,9.37,0,0,0-1.45,1.91c-.4.63-.71,1.31-1.05,2a7.7,7.7,0,0,0,.59,7.85c1.71,2.77.86,5.09-.79,7.27a2.55,2.55,0,0,1-3,.7c-2.73-1.11-5.63-1.06-8.47-1.39-.81-.09-1.66.19-2.47.08a49.13,49.13,0,0,1-5.42-1c-4.52-1.12-9-2.3-13.52-3.56a40.53,40.53,0,0,1-4.59-1.84c-2.21-.93-4.43-1.83-6.61-2.83-1.39-.64-2.7-1.44-4.05-2.14-.52-.27-1.09-.44-1.59-.73-2.18-1.26-4.65-2.22-6.42-3.91-2.36-2.25-5.47-3.08-7.92-5-1.69-1.35-3.75-2.28-4.93-4.28-.5-.85-1.55-1.34-2.2-2.12q-2.73-3.36-5.33-6.83a43.05,43.05,0,0,1-3-4.38,32.77,32.77,0,0,1-2.3-4.87,2.16,2.16,0,0,0-2.19-1.6c-3.16,0-6.31.07-9.46.11a5.46,5.46,0,0,1-1.3-.09c-3.55-.85-7.14-1.57-10.63-2.63a45.82,45.82,0,0,1-6.91-2.9,44.94,44.94,0,0,1-6.47-3.73c-1.27-.91-2-2.51-3.18-3.58a3.36,3.36,0,0,1-1-3.21,1.92,1.92,0,0,1,.73-1.07,6.33,6.33,0,0,1,1.36-.69,1.63,1.63,0,0,1,1.91.26c2.65,2,5.35,4,8.1,5.81,3.35,2.24,7.26,3.09,11,4.36a47.43,47.43,0,0,0,8.56,1.61c3.17.46,6.2-.27,9.25-1.19,2.72-.82,4.18-2.78,5.5-5a10.28,10.28,0,0,0,1.05-2.87c.24-1-.44-1.58-1.21-2.1-1.79-1.22-3.84-1.1-5.82-1.07-2.23,0-4.46.42-6.68.45a39.68,39.68,0,0,1-5.28-.41c-1.16-.14-2.3-.59-3.46-.67-3.33-.24-5.87-2.11-8.44-3.93a3.22,3.22,0,0,0-.84-.59c-3-.81-5-3-7.25-5a19.43,19.43,0,0,1-3.73-4.06,20.82,20.82,0,0,1-1.72-4.73c-.42-1.26-.74-2.55-1.18-3.8a10.1,10.1,0,0,1-.81-5.65c.27-1.3.16-2.67.3-4,.21-2.06.49-4.11.76-6.16.23-1.74,1.79-3.34,3.17-3.29,1.59.06,2.1,1.06,1.61,2.54a17.4,17.4,0,0,0-.82,4.35,50,50,0,0,0,0,6.37,52.57,52.57,0,0,0,.79,5.2c.08.51.27,1,.34,1.5a6.81,6.81,0,0,0,1.88,3.85,70.25,70.25,0,0,0,5.41,5.7c1.73,1.43,3.91,2.31,5.87,3.46a32.73,32.73,0,0,0,8.76,3.39,3.25,3.25,0,0,0,1.52,0,1.46,1.46,0,0,0,1-2c-.85-2.67-1.66-5.37-1.38-8.22.15-1.63.52-3.23.79-4.85a22.29,22.29,0,0,1,.45-2.8c.88-3,1.86-6,2.77-9,.27-.9.35-1.86.68-2.73a93.07,93.07,0,0,1,3.63-8.93,33.67,33.67,0,0,1,3.9-5.27c.71-.89,1.61-1.62,2.3-2.51,1.56-2,3.75-3.11,5.89-4.26s4.58-2.23,6.93-3.23c3.73-1.59,7.49-3.18,11.66-2.9a41.16,41.16,0,0,1,4.93,1c1.65.33,3.32.56,5,.91,2.45.52,5,.81,7.1,2.36,2.79,2,5.5,4.18,8.31,6.2a17.12,17.12,0,0,1,4.72,4.67,3.85,3.85,0,0,0,1.14,1,2.81,2.81,0,0,1,1.51,2.5c0,.41.37.83.59,1.24.62,1.19,1.19,2.4,1.89,3.54a2,2,0,0,0,1.2.76,1.09,1.09,0,0,0,.86-.62c.73-2.42,2.69-3.93,4.15-5.8.55-.7.94-1.53,1.5-2.22a33.18,33.18,0,0,1,3-3.45,26.36,26.36,0,0,1,7.55-5.18c1.62-.69,3.32-1.2,5-1.85,2.59-1,5.08-2.43,7.75-3.09a20.74,20.74,0,0,1,10.17.26c1.93.5,3.89.9,5.83,1.35a30.18,30.18,0,0,1,8.18,2.82c3.14,1.77,6.31,3.53,9.34,5.48a69.28,69.28,0,0,1,5.57,4.36c2.71,2.16,4,5.13,4.81,8.37.48,1.86,1,3.71,1.56,5.56.16.56.34,1.12.63,2,.45-.3,1-.46,1.17-.81,3-4.94,6.06-9.85,7.67-15.5.86-3,1.68-6.06,2.76-9a33.18,33.18,0,0,1,2.76-5.06c.13-.23.73-.45.86-.36.34.27.77.73.75,1.09a43,43,0,0,1-.5,5c-.42,2.39-.93,4.77-1.52,7.13-.53,2.09-1.23,4.14-1.86,6.21-1.25,4.11-3.48,7.76-5.63,11.41-1.17,2-2.94,3.59-4.33,5.44-3.12,4.16-7.11,7.5-10.57,11.33-1,1.09-2,2.2-2.87,3.35-1.46,1.83-1.34,3.71.16,5.59a8.73,8.73,0,0,0,11,2.31c1.36-.76,2.42-2,3.72-2.89,3.71-2.51,6.68-5.81,9.82-8.92,1-1,1.79-2.08,2.68-3.11.23-.27.43-.62.73-.77,2.53-1.32,3.54-3.95,5.18-6a9.85,9.85,0,0,0,1-2.37,19.81,19.81,0,0,1,.84-1.93C323.94,257.27,324.49,256.65,325.19,257.16Zm-30,35a1.64,1.64,0,0,0-.58-1.27,12.73,12.73,0,0,0-2.93-.84c-2.25-.39-4.67-.43-5.62-3.15a1.59,1.59,0,0,0-.36-.46c-2-2.24-3.27-4.64-2.84-7.88a12.46,12.46,0,0,1,3.4-6.68q.62-.7,1.18-1.44a16.68,16.68,0,0,1,1.47-2c1.27-1.22,2.64-2.33,4-3.49a1.85,1.85,0,0,0,.41-2.44c-.52-1.2-1.25-2.54-1.15-3.75a24.9,24.9,0,0,0-.81-7.83c-.83-3.69-3-6.53-5.62-9.1s-5.65-3.82-8.85-5.06c-1.09-.42-2.07-1.13-3.17-1.54-2.34-.89-4.71-1.73-7.1-2.48s-4.6-1.32-6.92-1.9a7.43,7.43,0,0,0-2-.09,21.33,21.33,0,0,0-2.22.16,21,21,0,0,0-4.75.73,56.32,56.32,0,0,0-8.51,3.94,78.25,78.25,0,0,0-7.29,5.37,3.09,3.09,0,0,0-.88,1.1c-1.6,3.24-3.72,6.23-4.67,9.8-.34,1.29-1.29,2.43-1.6,3.72a16.59,16.59,0,0,0-.32,4.4c.05,1.45-1,3.43-2.38,3.69a33.42,33.42,0,0,1-4.41.26c-1.61.07-2.36-.6-2.51-2.24-.12-1.33-.22-2.67-.36-4s-.32-2.4-.48-3.6c.61-5.37-1.82-9.38-5.75-12.66-1.81-1.51-3.66-3-5.56-4.37-2.27-1.66-4.41-3.59-7.29-4.2-2.06-.44-4.12-.92-6.19-1.33-1.47-.3-2.94-.58-4.43-.74a25.8,25.8,0,0,0-12,1.86q-3.84,1.44-7.6,3.08a8.28,8.28,0,0,0-4,3c-2.07,3.33-4.18,6.64-6.16,10a11.33,11.33,0,0,0-1.44,3.72c-.72,4.32-1.31,8.65-1.87,13a36.28,36.28,0,0,0-.51,6.41,33,33,0,0,0,1.19,5.75,2.93,2.93,0,0,0,2.59,2.36,37.18,37.18,0,0,1,3.84.42c1,.14,1.93.45,2.9.53a6.54,6.54,0,0,1,5.35,5,13.12,13.12,0,0,1-1.39,7.74,53.79,53.79,0,0,1-3.92,6.12,2.71,2.71,0,0,0,0,3.66c1.11,1.42,2.43,2.68,2.79,4.58.08.4.6.71.91,1.07,1.47,1.72,3,3.37,4.38,5.17,1.56,2.07,2.9,4.29,5.26,5.63.95.54,1.73,1.37,2.64,2,2.72,1.92,5.41,3.91,8.23,5.69,2,1.28,4.22,2.28,6.35,3.39,2.3,1.2,4.56,2.47,6.91,3.55,1.63.75,3.4,1.21,5.1,1.84,2.05.77,4.06,1.71,6.16,2.36,4.17,1.29,8.39,2.44,12.58,3.64a10.52,10.52,0,0,0,5.71.36c.91-.24,1.51-.62,1.27-1.72a19.68,19.68,0,0,1-.46-2.67,13.71,13.71,0,0,1,0-2.69c.19-1.59,1.3-2.67,2.35-3.73a44.85,44.85,0,0,0,3.9-3.75,11.46,11.46,0,0,1,5.09-3.82c4.37-1.75,8.6-3.87,12.95-5.68,3-1.27,6.19-2.27,9.27-3.44,2.82-1.06,5.66-2.1,8.41-3.32,2.26-1,4.37-2.32,6.62-3.33a37.37,37.37,0,0,0,9.25-6.27A13.16,13.16,0,0,0,295.19,292.17Z"/><path class="cls-2" d="M300.28,136.77c1.8.29,3.83,4,3,5.37-.65,1.15-1.42,2.23-2.11,3.36s-1.2,2.11-1.83,3.14c-.14.23-.4.53-.63.55-2.21.19-3.58,1.74-5.2,3s-3.2,2.84-5.32,3.54a19.12,19.12,0,0,0-2.46,1.34c-2.25,1.16-4.49,2.38-6.79,3.42s-4.41,1.82-6.66,2.6c-2.05.71-4.33,1-6.21,1.95-2.11,1.11-4.38,1-6.54,1.66a5.57,5.57,0,0,1-.82.1c0-.08,0-.16,0-.24-2.11.42-4.21.85-6.31,1.25-2.36.45-4.71.88-7.07,1.28s-4.86.91-7.31,1.12c-3.2.29-6.43.36-9.65.48-2.16.09-4.32.09-6.49.14a3.25,3.25,0,0,1-.36,0c-.75-.08-1.81.18-1.88-.88,0-.38.87-1,1.45-1.23,5.36-2.07,10.76-4,16.11-6.13,1.34-.52,2.54-1.4,3.84-2,.84-.42,1.75-.68,2.61-1.07,2.11-.94,4.24-1.84,6.29-2.89,3.14-1.59,6.23-3.3,9.35-4.93,1.23-.63,2.49-1.18,3.71-1.83,1.53-.81,3-1.72,4.54-2.49,3.43-1.72,6.8-3.6,10.36-5,3.27-1.3,6.76-2.05,10.13-3.12,2-.63,4-1.37,6-2.11A12.15,12.15,0,0,1,300.28,136.77Z"/><path class="cls-3" d="M294.61,290.89a1.64,1.64,0,0,1,.58,1.27,13.16,13.16,0,0,1-4.34,10.2,37.37,37.37,0,0,1-9.25,6.27c-2.25,1-4.36,2.34-6.62,3.33-2.75,1.21-5.59,2.25-8.41,3.32-3.08,1.17-6.24,2.17-9.27,3.44-4.35,1.81-8.58,3.93-12.95,5.68a11.46,11.46,0,0,0-5.09,3.82,44.85,44.85,0,0,1-3.9,3.75c-1.05,1.06-2.16,2.14-2.35,3.73a13.71,13.71,0,0,0,0,2.69,19.68,19.68,0,0,0,.46,2.67c.25,1.1-.36,1.48-1.27,1.72a10.52,10.52,0,0,1-5.71-.36c-4.2-1.2-8.41-2.35-12.58-3.64-2.09-.65-4.1-1.59-6.16-2.36-1.7-.63-3.47-1.09-5.1-1.84-2.36-1.08-4.61-2.35-6.91-3.55-2.13-1.11-4.33-2.11-6.35-3.39-2.81-1.78-5.5-3.77-8.23-5.69-.91-.63-1.69-1.46-2.64-2-2.36-1.34-3.7-3.56-5.26-5.63-1.36-1.8-2.91-3.45-4.38-5.17-.31-.36-.83-.67-.91-1.07-.36-1.9-1.68-3.17-2.79-4.58a2.71,2.71,0,0,1,0-3.66,53.79,53.79,0,0,0,3.92-6.12,13.12,13.12,0,0,0,1.39-7.74,6.54,6.54,0,0,0-5.35-5c-1-.09-1.93-.39-2.9-.53a37.18,37.18,0,0,0-3.84-.42,2.93,2.93,0,0,1-2.59-2.36,33,33,0,0,1-1.19-5.75,36.28,36.28,0,0,1,.51-6.41c.56-4.34,1.15-8.67,1.87-13a11.33,11.33,0,0,1,1.44-3.72c2-3.38,4.09-6.69,6.16-10a8.28,8.28,0,0,1,4-3q3.76-1.64,7.6-3.08a25.8,25.8,0,0,1,12-1.86c1.49.16,3,.45,4.43.74,2.07.41,4.13.89,6.19,1.33,2.88.61,5,2.54,7.29,4.2,1.9,1.39,3.75,2.86,5.56,4.37,3.93,3.28,6.36,7.3,5.75,12.66.15,1.2.34,2.39.48,3.6s.24,2.66.36,4c.15,1.64.9,2.31,2.51,2.24a33.42,33.42,0,0,0,4.41-.26c1.42-.26,2.43-2.24,2.38-3.69a16.59,16.59,0,0,1,.32-4.4c.3-1.3,1.25-2.43,1.6-3.72,1-3.57,3.07-6.56,4.67-9.8a3.09,3.09,0,0,1,.88-1.1,78.25,78.25,0,0,1,7.29-5.37,56.32,56.32,0,0,1,8.51-3.94,21,21,0,0,1,4.75-.73,21.33,21.33,0,0,1,2.22-.16,7.43,7.43,0,0,1,2,.09c2.32.58,4.64,1.19,6.92,1.9s4.76,1.59,7.1,2.48c1.09.41,2.07,1.12,3.17,1.54,3.2,1.24,6.37,2.6,8.85,5.06s4.79,5.41,5.62,9.1a24.9,24.9,0,0,1,.81,7.83c-.11,1.21.62,2.55,1.15,3.75a1.85,1.85,0,0,1-.41,2.44c-1.33,1.16-2.7,2.27-4,3.49a16.68,16.68,0,0,0-1.47,2q-.56.74-1.18,1.44a12.46,12.46,0,0,0-3.4,6.68c-.43,3.24.81,5.65,2.84,7.88a1.59,1.59,0,0,1,.36.46c.95,2.72,3.36,2.76,5.62,3.15A12.73,12.73,0,0,1,294.61,290.89Zm-33-29.43a5.32,5.32,0,0,0,.21-2.58c-.34-1.83-1.93-2.66-3.31-3.64a2.19,2.19,0,0,0-2.66,0c-2.19,1.49-3.91,3.32-3.87,5.83-.08,2.33,1.72,4.56,3.38,4.37C258.09,265.08,260.66,264.41,261.66,261.46Zm-7.88,38.66c0-.61.07-1,.06-1.33-.12-2.31-.39-4.79-2-6.37-2-2-4.6-3.38-7-5a1,1,0,0,0-.79-.18c-1.45.54-3.13.49-4.27,1.78-1.4,1.59-2.88,3.12-4.29,4.71-1.84,2.05-3.68,4.08-6.5,4.8a1.4,1.4,0,0,0-.31.17,16.28,16.28,0,0,1-7.89,2.49c-3,.06-6,.18-9,0a46.69,46.69,0,0,1-6.83-1.23,12.23,12.23,0,0,1-4.34-1.38A34,34,0,0,1,196,294.1a1.77,1.77,0,0,0-2.11-.48c-.78.3-1.36.83-1.19,1.69a7,7,0,0,0,2.14,4.06c1.82,1.63,4.11,2.28,6.16,3.41a14.12,14.12,0,0,0,3.46,1.39c1.7.4,3.47.55,5.2.82a19.83,19.83,0,0,0,4,.57,42.83,42.83,0,0,0,6-.9c2.81-.57,5.62-1.19,8.38-1.93a1.27,1.27,0,0,1,1.62.48c.88,1.28,1.76,2.58,2.56,3.91,1.16,1.93,2.56,3.51,4.9,3.93a11.42,11.42,0,0,0,5.5-.16c1.87-.58,3.78-1.06,5.65-1.6a3.19,3.19,0,0,0,.84-.42C252.41,306.78,254.11,303.84,253.79,300.12ZM191.4,259a5.07,5.07,0,0,0-1.09-3.38,4.48,4.48,0,0,0-4.8-1.18,7.45,7.45,0,0,0-4.45,5.4,4.75,4.75,0,0,0,.2,2.3c.71,2.47,2.71,3.05,5.28,3.27A4.34,4.34,0,0,0,188,265,7,7,0,0,0,191.4,259Z"/><path class="cls-2" d="M291.15,400.77c.9-.54,1.89-.08,1.8,1a14.2,14.2,0,0,1-.81,3.65q-2,5.5-4.23,10.94c-.68,1.67-1.59,3.25-2.34,4.89-.55,1.2-1,2.44-1.53,3.66a4.06,4.06,0,0,1-.49,1.06c-1.56,1.85-3.09,3.72-4.77,5.46a2.27,2.27,0,0,1-2,.48c-.53-.2-.92-1.06-1.13-1.71a9.76,9.76,0,0,1-.19-2.23l-.15,0c.5-2.09.94-4.2,1.52-6.27.54-1.92,1.28-3.78,1.82-5.7.82-2.86,1.46-5.77,2.36-8.6a4.12,4.12,0,0,1,1.82-2c1.88-1.11,3.88-2,5.81-3C289.51,401.85,290.31,401.27,291.15,400.77Z"/><path d="M261.87,258.88a5.32,5.32,0,0,1-.21,2.58c-1,3-3.57,3.63-6.25,3.94-1.66.2-3.46-2-3.38-4.37,0-2.51,1.68-4.33,3.87-5.83a2.19,2.19,0,0,1,2.66,0C259.93,256.22,261.53,257,261.87,258.88Z"/><path d="M253.84,298.79c0,.36,0,.71-.06,1.33.32,3.72-1.38,6.66-4.7,8.74a3.19,3.19,0,0,1-.84.42c-1.88.54-3.78,1-5.65,1.6a11.42,11.42,0,0,1-5.5.16c-2.34-.42-3.75-2-4.9-3.93-.8-1.33-1.68-2.63-2.56-3.91a1.27,1.27,0,0,0-1.62-.48c-2.76.75-5.57,1.36-8.38,1.93a42.83,42.83,0,0,1-6,.9,19.83,19.83,0,0,1-4-.57c-1.74-.27-3.5-.42-5.2-.82a14.12,14.12,0,0,1-3.46-1.39c-2.05-1.13-4.34-1.78-6.16-3.41a7,7,0,0,1-2.14-4.06c-.17-.85.42-1.39,1.19-1.69a1.77,1.77,0,0,1,2.11.48,34,34,0,0,0,4.65,4.46,12.23,12.23,0,0,0,4.34,1.38,46.69,46.69,0,0,0,6.83,1.23c3,.21,6,.08,9,0a16.28,16.28,0,0,0,7.89-2.49,1.4,1.4,0,0,1,.31-.17c2.81-.72,4.65-2.75,6.5-4.8,1.41-1.59,2.89-3.12,4.29-4.71,1.15-1.3,2.83-1.24,4.27-1.78a1,1,0,0,1,.79.18c2.36,1.63,4.92,3,7,5C253.45,294,253.72,296.48,253.84,298.79Zm-4.29,3.6a11.31,11.31,0,0,0,.48-4.5c-.35-2.68-4-5.74-6.73-6l-.15,0c-.08,0-.23,0-.3.06-1.16.93-2.32,1.85-3.44,2.82-.11.09,0,.55.09.73,1,1.29,2,2.58,3.12,3.81s2.38,2.28,3.35,3.58C247.23,304.51,249.08,304,249.55,302.39Zm-7.17,3.42a1,1,0,0,0,.66-1.73c-1.3-1.24-2.68-2.39-4-3.59-.63-.57-1.23-1.18-1.9-1.69a2,2,0,0,0-1.29-.52,2.79,2.79,0,0,0-1.92,2.69c.06,1.56,2,4.26,3.47,4.65a25.27,25.27,0,0,0,3.13.43C241.13,306,241.76,305.92,242.37,305.82Z"/><path class="cls-4" d="M250,297.9a11.31,11.31,0,0,1-.48,4.5c-.46,1.57-2.32,2.11-3.58.45-1-1.3-2.27-2.36-3.35-3.58s-2.1-2.52-3.12-3.81c-.13-.17-.19-.63-.09-.73,1.12-1,2.27-1.9,3.44-2.82.07-.06.23,0,.3-.06l.15,0C246,292.15,249.68,295.22,250,297.9Z"/><path class="cls-4" d="M243,304.08a1,1,0,0,1-.66,1.73c-.62.1-1.24.16-1.87.24a25.27,25.27,0,0,1-3.13-.43c-1.48-.39-3.41-3.09-3.47-4.65a2.79,2.79,0,0,1,1.92-2.69,2,2,0,0,1,1.29.52c.67.51,1.27,1.12,1.9,1.69C240.36,301.69,241.74,302.84,243,304.08Z"/><path d="M227.1,143.87c.09,1.56-.05,3.06-1.7,3.79a4,4,0,0,1-2.14.32,11.72,11.72,0,0,1-3-1,4.5,4.5,0,0,1-.71-7.52,12.59,12.59,0,0,1,2.91-1.53,2.26,2.26,0,0,1,1.68.12,10.83,10.83,0,0,1,2.25,1.68,2.08,2.08,0,0,1,.54,1.22C227,141.9,227,142.89,227.1,143.87Z"/><path class="cls-3" d="M220.12,44.29c-.21,4-.37,7.94-.64,11.9-.14,2-.44,4-.73,6-.39,2.6-.88,5.19-1.23,7.8-.15,1.12,0,2.27-.08,3.39-.21,2.27-.43,4.54-.8,6.79-.5,3.16-1.12,6.3-1.73,9.44-.46,2.4-1.21,4.77-1.43,7.19a23.26,23.26,0,0,1-1.59,6.68c-1.25,3.12-2.08,6.41-3.13,9.62-.38,1.16-1.36,1.28-2.42,1.19a1.92,1.92,0,0,1-1.81-1.85c-.29-2.3-.42-4.62-.64-6.94s-.49-4.36-.68-6.55c-.07-.81.13-1.65,0-2.46-.36-3.47-.84-6.93-1.16-10.41a34.8,34.8,0,0,1,.09-4.12,3.52,3.52,0,0,0,.07-.94c-.7-3,.18-5.85.47-8.77s.1-5.71.15-8.56a11.16,11.16,0,0,1,.28-2.57A91.8,91.8,0,0,0,205.33,49a42.27,42.27,0,0,1,3.29-12,20.4,20.4,0,0,1,2.11-4c1.66-2.28,4.38-2.17,6,.18A21.35,21.35,0,0,1,220.12,44.29Z"/><path class="cls-3" d="M198.22,113.15c.21,2-.09,2.54-2,3.05-.87.24-1.71.57-2.56.86-1.63.54-2.78,0-3.14-1.67-.45-2.15-.76-4.35-1-6.54-.5-4.32-.91-8.66-1.34-13-.1-1-.07-2.07-.18-3.1a18.54,18.54,0,0,0-.42-2.26c-.57-2.48-1.15-5-1.76-7.43-.19-.76-.6-1.47-.74-2.23-.2-1.15-.22-2.34-.38-3.51-.27-2.1-.67-4.18-.88-6.29s-.19-4-.27-6a2.2,2.2,0,0,0-.09-.7c-1-2.5-.68-5.11-.79-7.7s-.38-4.94-.56-7.4a7.27,7.27,0,0,1,4.06-6.74A2.16,2.16,0,0,1,189,44.11c.9,3.82,1.72,7.66,2.59,11.48a3,3,0,0,0,.36,1c1.43,2.14,1.58,4.67,2.07,7.08.69,3.43,1.3,6.87,1.89,10.32.32,1.89.52,3.81.78,5.71l-.13,0c.17,4.2.36,8.4.51,12.6.15,4,.2,8,.41,11.93C197.63,107.22,197.92,110.19,198.22,113.15Z"/><path d="M190.31,255.67A5.07,5.07,0,0,1,191.4,259a7,7,0,0,1-3.39,6,4.34,4.34,0,0,1-1.48.43c-2.57-.21-4.57-.8-5.28-3.27a4.75,4.75,0,0,1-.2-2.3,7.45,7.45,0,0,1,4.45-5.4A4.48,4.48,0,0,1,190.31,255.67Z"/><path class="cls-2" d="M186.1,435c.09.39,0,1.1-.24,1.23a1.66,1.66,0,0,1-1.4,0,17.75,17.75,0,0,1-2.9-2,35.24,35.24,0,0,1-8.15-9.87c-.61-1.16-1.77-2-2.43-3.17-1.06-1.81-2-3.73-2.84-5.64-.81-1.74-1.51-3.53-2.24-5.32-.39-1-.07-1.66.76-1.77,1.4.38,2.8.77,4.2,1.14a4,4,0,0,0,1.59.26c2.45-.44,3.73,1,4.72,2.87.09.17.09.42.22.54,2.12,2,2.64,4.87,3.84,7.35a28.39,28.39,0,0,1,1.3,4,4.26,4.26,0,0,0,.31.9,24.69,24.69,0,0,1,2.42,7.25C185.44,433.49,185.91,434.22,186.1,435Z"/><path class="cls-3" d="M179.81,119a2,2,0,0,1-1.35,2.14c-1.92.82-3.82,1.67-5.76,2.43-1.35.53-2.58-.36-3.08-1.74-.61-1.7-.26-3.26,0-5a27.61,27.61,0,0,0,.19-6.13c-.16-2.63-.52-5.25-.91-7.85-.45-3-1.1-6-1.54-8.95-.78-5.43-1.42-10.88-2.21-16.31-.3-2.09-.85-4.14-1.24-6.21-.31-1.74-.54-3.49-.82-5.23a19.41,19.41,0,0,1-.37-2.2c-.13-2.94-.16-5.89-.34-8.83-.12-2.16-.52-4.31-.6-6.47-.09-2.47,0-5,.1-7.43a6.27,6.27,0,0,1,.49-1.52c.63-2,1.2-3.93,1.89-5.87.36-1,.75-2.09,2.12-2a3.62,3.62,0,0,1,2.76,2.47c.45,1.46,1,2.9,1.34,4.37.23.91.24,1.87.38,2.81.35,2.29.72,4.57,1,6.47,0,1.81-.08,3.23,0,4.63a20.63,20.63,0,0,0,.6,2.85,7.43,7.43,0,0,1,.33,1.49c0,2-.1,4.05.08,6.06.26,2.92.69,5.83,1.14,8.72a69.28,69.28,0,0,0,1.48,7.93c1.14,4.15,1.05,8.41,1.5,12.62.28,2.66.3,5.36.6,8,.18,1.66.66,3.28,1,4.92a9.88,9.88,0,0,1,.23,1.16c.18,2.31.33,4.62.5,6.92C179.53,115.2,179.68,117.12,179.81,119Z"/><path d="M164.44,149.55c2.58.76,4.68,4.49,4.08,7.11-.3,1.34-1.45,1.74-2.42,2.22a13.16,13.16,0,0,1-2.66.79c-1.66,0-2.68-.33-3.24-1.36a26.48,26.48,0,0,1-1.47-3.33,1.61,1.61,0,0,1,.27-1.06c.46-.87,1.07-1.67,1.44-2.57A3.74,3.74,0,0,1,164.44,149.55Z"/></svg>