<svg id="圖層_1" data-name="圖層 1" xmlns="http://www.w3.org/2000/svg" viewBox="0 0 478.58 463.29"><defs><style>.cls-1{fill:#b98830;}.cls-2{fill:#0a0707;}.cls-3{fill:#d05351;}.cls-4{fill:#a53226;}.cls-5{fill:#fdfefe;}.cls-6{fill:#295384;}.cls-7{fill:#1d3d4e;}.cls-8{fill:#c9a63e;}.cls-9{fill:#aa4c39;}.cls-10{fill:#cd392a;}.cls-11{fill:#cc6c6b;}.cls-12{fill:#508a38;}.cls-13{fill:#545857;}.cls-14{fill:#2d738c;}.cls-15{fill:#b54b27;}</style></defs><title>chicken</title><path class="cls-1" d="M451.14,436.08a10.08,10.08,0,0,1-9.29-8.78c1.54.21,3,.38,4.54.63a25.49,25.49,0,0,0,11.3-.6c2-.57,2.14.28,1.9,1.86A7.65,7.65,0,0,1,451.14,436.08Z"/><path class="cls-2" d="M431.65,395c-1.43.16-2-1.14-2-2.63.17-1.21.49-2.63,2.12-2.61a2.45,2.45,0,0,1,2.65,2.32A3.09,3.09,0,0,1,431.65,395Z"/><path class="cls-3" d="M427.64,408.37c-1.18-.37-1.48-1.28-2.05-1.9-.37-.41-1.2-1-.57-1.52a1.59,1.59,0,0,1,2.16.29C428.25,406.21,427.63,407.24,427.64,408.37Z"/><path class="cls-3" d="M425.28,411c-1.7.39-3.14.55-4.12-.75-.65-.85.26-1.54.73-2.46Z"/><path class="cls-4" d="M399.92,387.91c.11-1.75-.84-2.29-2.47-2.26a2.21,2.21,0,0,0-2.59,2.38,2.39,2.39,0,0,0,2.4,2.71C399,390.75,399.81,389.62,399.92,387.91Zm-18-5.9c2-7.34,8.28-11.43,16.35-10.74,7,.59,15,5,15.3,14.67.05,1.67.18,3.43,1.39,4.82.41.46.61,1.21,1.48.94a1.29,1.29,0,0,0,1-1.46c-.09-2.76,1.39-4.77,3.33-6.48,4.08-3.61,8.39-6.59,14.26-6.28a15.45,15.45,0,0,1,13.89,11.09c.46,1.74-.17,3.38-.36,5-.88,7.57-2.36,14.93-8.39,20.41a33.36,33.36,0,0,1-8,5.43c-5.85,2.8-10.59,6.59-12.36,13.18-.26,1-.56,1.12-1.5.67-14.77-6.87-27.74-15.77-35.53-30.75-1.91-3.68-1.48-7.56-2-11A36.57,36.57,0,0,1,381.89,382Zm37.67,23.41a11.59,11.59,0,0,1-19.28-.79,5.06,5.06,0,0,0-3.13-2.48c-1.29,2.08-.36,3.66.89,5.15a18,18,0,0,0,6.43,5.07c1.78.79,3.66,1.55,5.61,1,4.1-1.26,7.78-1.18,11.66,1.25,3.5,2.19,9.11-.84,10.1-4.87a9.06,9.06,0,0,0-5-10c-1.35-.55-2.67-.55-3.66.86C422,402.18,420.76,403.79,419.56,405.42Zm12.2-15.64c-1.63,0-1.95,1.4-2.12,2.61,0,1.48.58,2.78,2,2.63a3.09,3.09,0,0,0,2.75-2.92A2.45,2.45,0,0,0,431.76,389.78Z"/><path class="cls-2" d="M421.88,407.76c-.46.92-1.37,1.61-.73,2.46,1,1.3,2.42,1.14,4.12.75Zm3.71-1.3c.57.63.88,1.53,2.05,1.9,0-1.13.61-2.16-.46-3.13a1.59,1.59,0,0,0-2.16-.29C424.39,405.49,425.22,406.05,425.59,406.46Zm-27.55.83c-1.25-1.48-2.18-3.07-.89-5.15a5.06,5.06,0,0,1,3.13,2.48,11.59,11.59,0,0,0,19.28.79c1.21-1.63,2.44-3.23,3.6-4.89,1-1.42,2.31-1.42,3.66-.86a9.06,9.06,0,0,1,5,10c-1,4-6.6,7.06-10.1,4.87-3.88-2.43-7.56-2.51-11.66-1.25-1.95.6-3.82-.17-5.61-1A18,18,0,0,1,398,407.29Z"/><path class="cls-2" d="M397.45,385.66c1.63,0,2.58.51,2.47,2.26s-.94,2.84-2.66,2.84a2.39,2.39,0,0,1-2.4-2.71A2.21,2.21,0,0,1,397.45,385.66Z"/><path class="cls-2" d="M444.37,414.84c-.09.46.32.7.77.69.62,0,1.1-.24,1.19-.89-.07-.49-.3-.85-.77-.83A1.25,1.25,0,0,0,444.37,414.84Zm15.22,14.34c.24-1.57.12-2.42-1.9-1.86a25.49,25.49,0,0,1-11.3.6c-1.5-.26-3-.42-4.54-.63a10.08,10.08,0,0,0,9.29,8.78A7.65,7.65,0,0,0,459.59,429.18Zm-61.35-57.91c-8.08-.69-14.39,3.4-16.35,10.74a36.57,36.57,0,0,0-1.13,9.51c.48,3.46.05,7.34,2,11,7.78,15,20.75,23.88,35.53,30.75.94.44,1.24.29,1.5-.67,1.77-6.59,6.51-10.38,12.36-13.18a33.36,33.36,0,0,0,8-5.43c6-5.48,7.52-12.84,8.39-20.41.19-1.66.82-3.3.36-5A15.45,15.45,0,0,0,435,377.47c-5.88-.3-10.19,2.67-14.26,6.28-1.94,1.72-3.42,3.72-3.33,6.48a1.29,1.29,0,0,1-1,1.46c-.88.27-1.08-.47-1.48-.94-1.21-1.39-1.34-3.15-1.39-4.82C413.22,376.26,405.19,371.86,398.24,371.27Zm49.6,48.37a1.19,1.19,0,0,0-2-.28c-1.19,1.12-.57,2.6-.45,3.92a1.93,1.93,0,0,0,1.81,2c2.66.07,5.35.13,8,0,1.2-.05,1.49-.78.57-1.78-1.3-1.42-2.55-2.9-3.92-4.47-.33.31-.48.4-.55.54C449.68,422.37,449.58,422.38,447.84,419.64Zm-63.69-84.21a7.88,7.88,0,0,0,5.6,1.61,7.39,7.39,0,0,1-.45,1.45,19.59,19.59,0,0,0-1.21,7.15,94.79,94.79,0,0,0,.94,19.18c.45,2.65.65,2.84,3.31,2.19,8.25-2,18.49,1.78,22.53,8.35,1.06,1.72,1.5,3.69,2.34,5.77,1.2-1.13,2.2-2.15,3.27-3.1,7.88-7,25.77-7,31.24,5.26,2.35,5.3,2,10.55.52,15.89-.84,2.95-1.85,5.85-2.75,8.78a5.66,5.66,0,0,0,3.08,7,10.89,10.89,0,0,1,6.36,6c.48,1.1,1,1.69,2.34,1.46,2-.34,2.79.78,2.93,2.62.46,5.89-3.15,11.88-8.17,13.52-6.2,2-13.25-.33-16.52-5.5-1.68-2.66-1.68-5.51-1.08-8.43.08-.44.39-1.09.73-1.19,2.8-.84,2.52-3.16,2.72-5.71a64.43,64.43,0,0,1-9.29,6.07c-.93.49-.62,1.19-.45,1.88.83,3.53,1.69,7.06,2.52,10.59.16.7.24,1.43.36,2.15a2.37,2.37,0,0,1-1.55,2.92,2.76,2.76,0,0,1-3.25-1,10.89,10.89,0,0,1-1.66-4.75c-.48-2.41-.93-4.83-1.43-7.51-2.16,1.75-2.16,3.78-1.89,5.8.23,1.77.3,3.49-1.25,4.65s-3.26.36-4.79-.38c-6.83-3.29-14.06-5.82-20.29-11.18a22,22,0,0,0,1.67,11c.88,2.18.15,3.86-1.81,4.44s-3.27-.27-3.72-2.7c-.93-5-2.91-9.8-2.17-15,.17-1.22-.62-2.11-1.39-3a89.7,89.7,0,0,1-12.55-17.55c-3-5.55-3-11.28-2.84-17.22a19.7,19.7,0,0,1,7.5-15.42c1.23-1,1.06-2.09.79-3.46-2.09-10.55-3.2-21.15-.76-31.81.08-.33.15-.66.25-1Z"/><path class="cls-2" d="M382.63,281.32c1.31-4.89,2.75-9.68,3.3-14.73,1.15,6.46,2.16,13,3.83,19.27,2.31,8.75,2.58,17.78,4.56,26.57a55.72,55.72,0,0,1,1.23,17.84c-.27,2.65-.91,5.07-3.55,6.18a7.86,7.86,0,0,1-2.25.59,19.67,19.67,0,0,0,.27-3.79,2.33,2.33,0,0,0-1.94-2.37,3.61,3.61,0,0,0,1.68-.3c.94-.42.37-2,.32-3-.31-6.87-1.75-13.58-3-20.33-1.53-8.38-3.46-16.7-4.39-25.2C382.68,281.83,382.65,281.57,382.63,281.32Z"/><path class="cls-5" d="M376.5,303.75c2.39-6.93,3.95-14.14,5.81-21.24.1-.39.21-.79.32-1.18,0,.25.05.51.08.76.93,8.49,2.86,16.81,4.39,25.2,1.23,6.75,2.67,13.46,3,20.33,0,1,.62,2.54-.32,3a3.61,3.61,0,0,1-1.68.3l-.07,0a2.58,2.58,0,0,0-.84-.11,5.36,5.36,0,0,1-1.58-.69,6.79,6.79,0,0,1-2.49-2.28,111.48,111.48,0,0,1-8.47-18.22C375.22,307.61,375.84,305.67,376.5,303.75Z"/><path class="cls-2" d="M388.07,330.87a4.19,4.19,0,0,1-.91-.13,2.58,2.58,0,0,1,.84.11Z"/><path class="cls-2" d="M389.75,337a7.88,7.88,0,0,1-5.6-1.61l-.26-.2A11.1,11.1,0,0,1,385.3,332a2.32,2.32,0,0,1,1.86-1.21,4.19,4.19,0,0,0,.91.13,2.33,2.33,0,0,1,1.94,2.37A19.67,19.67,0,0,1,389.75,337Z"/><path class="cls-2" d="M387.16,330.74A2.32,2.32,0,0,0,385.3,332a11.1,11.1,0,0,0-1.42,3.28,21.73,21.73,0,0,1-7.28-9.18,63.32,63.32,0,0,0-4.46-8.37c.84-2.7,1.64-5.42,2.47-8.13a111.48,111.48,0,0,0,8.47,18.22,6.79,6.79,0,0,0,2.49,2.28A5.36,5.36,0,0,0,387.16,330.74Z"/><path class="cls-2" d="M381.23,260.66c2.25-1.42,3.43-.9,4,1.88.26,1.34.51,2.69.75,4-.55,5-2,9.85-3.3,14.73-.62-6.17-.63-12.4-1.69-18.53A7.29,7.29,0,0,1,381.23,260.66Z"/><path class="cls-2" d="M376.9,279.14A125.38,125.38,0,0,0,380,260.32c.41.11.82.21,1.21.34a7.29,7.29,0,0,0-.29,2.12c1.06,6.13,1.07,12.36,1.69,18.53-.11.39-.21.79-.32,1.18-1.87,7.1-3.42,14.32-5.81,21.24-.66,1.92-1.28,3.86-1.88,5.8-.35-1.06-.68-2.11-1-3.19-.73-2.67-1.45-5.34-2.2-8Q374.52,288.88,376.9,279.14Z"/><path class="cls-6" d="M270.13,247.41a19.55,19.55,0,0,1,6.81-10.16c8.58-7.27,18.7-11.4,29.33-14.59,8.66-2.6,17.63-3.29,26.46-4.85,12.8-2.27,25.63-4.5,37.89-9.06,1.74-.65,2.25-.18,2.4,1.39.28,2.82,1.11,5.56,1.11,8.42a4.17,4.17,0,0,1-2,3.84,117.57,117.57,0,0,1-46.5,17.87c-14.4,2.28-28.83,4.3-43.29,6.18C278.39,247,274.41,247.08,270.13,247.41Z"/><path class="cls-2" d="M372.15,317.68l-.49-.82a43.81,43.81,0,0,1-3.76-8.25q1.87-5.09,3.55-10.25c.75,2.67,1.47,5.34,2.2,8,.3,1.08.62,2.14,1,3.19C373.79,312.26,373,315,372.15,317.68Z"/><path class="cls-6" d="M366.76,290.73c2.31-.32,2.9,1.43,3.36,3s.89,3.06,1.32,4.59q-1.67,5.17-3.55,10.25a58.2,58.2,0,0,1-2.71-13.46A5.29,5.29,0,0,1,366.76,290.73Z"/><path class="cls-6" d="M370.13,293.76c-.47-1.6-1.06-3.35-3.36-3-.59-6.22-1.63-12.4-1.36-18.67.16-4,.3-7.87,4-10.66,3-2.21,5.79-3.1,9.24-1.53a9.35,9.35,0,0,0,1.33.46,125.38,125.38,0,0,1-3.11,18.82q-2.37,9.74-5.46,19.21C371,296.82,370.58,295.29,370.13,293.76Z"/><path class="cls-7" d="M321.17,289.54c4-1.46,7.51-4,11.47-1.39,4.33,2.9,5.85,7.22,5.41,12.43C335,293.24,327.78,292.31,321.17,289.54Z"/><path class="cls-7" d="M330.8,369.93c-1-7.57-.8-15.11-2.56-22.39s-5.22-13.82-7.93-21C330.55,332.28,338.64,363,330.8,369.93Z"/><path class="cls-7" d="M297.94,358.12c3.29-3.7,7.34-3.9,11.56-3,8.84,1.93,11.55,9.34,6.19,16.69-.7,1-1.5,1.85-2.51,3.08C315.48,363.51,308.36,359.34,297.94,358.12Z"/><path class="cls-7" d="M295.16,346.56c-3,8.93-11,12.33-16.91,8.09a27.65,27.65,0,0,0,9-2.59A36.64,36.64,0,0,0,295.16,346.56Z"/><path class="cls-7" d="M281.9,361.33a5.27,5.27,0,0,1,4.23,1.3,21.12,21.12,0,0,1,6.7,14.74c-1.33-1.56-1.81-3.37-2.68-5-2.06-3.78-4.64-7-8.6-9-.48-.24-1.2-.3-1.07-1.08S281.16,361.37,281.9,361.33Z"/><path class="cls-8" d="M286.58,178.24c-6.88-.16-13.78-.11-20.58-1.44-.46-.09-1.09,0-1.14-.65-.07-.86.67-.72,1.2-.81,24.79-3.9,47.79-13.41,70.87-22.66,3.73-1.49,7.33-3.38,11.37-4,1.51-.24,3.14-.7,4.15,1a3.87,3.87,0,0,1-.25,4.76,44.1,44.1,0,0,1-5.15,5.5c-9.37,7.79-19.86,13.24-32,15.35C305.63,176.9,296.21,178.56,286.58,178.24Z"/><path class="cls-6" d="M296,339.87C290.4,347.22,283.43,351,274.4,350c-3.73-.44-5.91-3.39-6.74-8.4-1.16-7,1.81-12.32,6.57-16.89,2.4-2.3,5.15-4.21,7.66-6.4,7.09-6.16,24.06-3.83,29.88,5.62s11.1,19.38,13.21,30.54a45.88,45.88,0,0,1-.25,18.85,5.14,5.14,0,0,1-2.45,3.43,283.42,283.42,0,0,1-29.48,15.84c-.55.25-1.11.88-1.75.28s0-1.19.28-1.69a60.94,60.94,0,0,1,3.69-6.82A13.85,13.85,0,0,0,296.76,372a13,13,0,0,1-.47-1.63c-.27-1.77-2-3.65.14-5.29,3.26-2.52,5.94-2.8,8.7-1a9.62,9.62,0,0,1,4.63,10.4,2.47,2.47,0,0,1-1.85,2.05,2.29,2.29,0,0,1-2.6-.85,5,5,0,0,1-1-2.68c-.08-.8.51-2.35-.87-2.2a2.71,2.71,0,0,0-2.61,2.43c-.37,3.38.66,5.55,4.18,7.43a6.82,6.82,0,0,0,7.94-.93,20.05,20.05,0,0,0,6.93-11.15c1.73-7.49.68-10.72-5.48-14.83-5-3.33-14-2.21-18.25,1.68a8.61,8.61,0,0,0-2.56,4.3c-.32,1.15-.59,2.31-.88,3.49-.33-.12-.51-.13-.61-.23-3.78-3.49-3.77-3.48,0-6.84,5.71-5,8-11.85,9.62-18.94.32-1.36-.52-2.46-1.56-3.35-3.9-3.34-10.85-4-15.29-1.45a8,8,0,0,0-2.16,11.76c1,1.2,2.4,1.45,3.18.82s.63-2.17-.3-3.23c-2.29-2.63-1.84-4.46,1.45-5.77a15.13,15.13,0,0,1,6.43-1C296.38,335.13,297.75,337.55,296,339.87Z"/><path class="cls-8" d="M278.23,434.8a2.43,2.43,0,0,1-3,1c-1.21-.43-.94-1.54-1-2-.07-2.6.84-4.48,1.5-6.34,2.11-5.89,2.22-12.07,3.15-18.13.2-1.28.3-2.57.54-3.85a3,3,0,0,1,1.91-2.63,48.38,48.38,0,0,1,6.62-1.43c1.07-.15,1.73.43,1.24,1.84-3.48,10.06-6.88,20.15-10.31,30.21A4.8,4.8,0,0,1,278.23,434.8Z"/><path class="cls-7" d="M264.45,362.19c2.05-1.25,4-2.5,6.54-1.8.7.2,1.88-.08,1.9,1,0,.89-1.06.78-1.72,1-9,3.07-13.08,9.19-13.32,20.39-3.41-1.77-4.25-3.49-3.69-6.91C255.19,369.48,259.18,365.41,264.45,362.19Z"/><path class="cls-7" d="M261.52,341c.36-1.27.44-2.7,1.48-3.83,1.27,2.62,1.22,5.4,1.6,8.07.61,4.25,2.34,7.53,6.61,9.09-1.78,1.49-3.46,1.48-5.32,0C261.4,350.93,260,346.41,261.52,341Z"/><path class="cls-2" d="M262.8,152.06a3.62,3.62,0,0,1,4-3.58c2.55.11,4.11,1.58,4.08,3.85,0,2.09-2.1,3.61-4.69,3.45A3.79,3.79,0,0,1,262.8,152.06Z"/><path class="cls-7" d="M363.79,194.57c3.38-1.5,4.72-1.06,6.53,2.18,2,3.57,1.64,4.55-1.77,6.92-4.8,3.35-10.48,3.64-15.89,4.81-19.12,4.11-38.42,7.48-57.25,12.81a51.08,51.08,0,0,0-22.54,12.86c-3.2,3.2-5.21,7.21-6.86,11.39a2.06,2.06,0,0,1-2.42,1.63c-3.71-.19-7.44-.06-11.43-.06,2.46-12.14,8.72-20.49,19.26-25.71a126.83,126.83,0,0,1,40.47-12c7-.91,13.93-3,21-3.93,10.3-1.36,19.55-5.43,28.73-9.88C362.33,195.26,363,194.9,363.79,194.57Z"/><path class="cls-9" d="M248.77,95.72c-2.11-.11-4.21-.2-6.31-.33-2.64-.16-3.5-1-3.57-3.56-.07-2.76,0-5.52,0-8.28.12-7.37-.12-14.79,2.48-21.88.23-.6.42-1.22.68-1.81,1.62-3.81,4.44-4.15,7-.81,2.16,2.87,3,6.24,3.52,9.71,1.15,7.48.91,15,1,22.54C253.5,95,252.41,95.91,248.77,95.72Z"/><path class="cls-7" d="M213.89,271.95a3.88,3.88,0,0,1,2.56.7c8.9,5.44,17.73,11,27.6,14.58.54.19,1.37.36,1,1.32-.45,1.29-.82,2.65-2.34,3.19a3.1,3.1,0,0,1-2.13,0c-8.31-2.83-16.82-5.2-24.17-10.32a42.46,42.46,0,0,0-5.29-3c-2.88-1.44-3.1-3.25-.57-5.25A5,5,0,0,1,213.89,271.95Z"/><path class="cls-7" d="M238.25,246c-1.28,0-2.87-.33-3.18-2.08-.92-5-4.07-8.65-7.28-12.36-8.55-9.85-19.69-14.34-32.07-17.31-18.21-4.37-36.45-8.64-54.46-13.85-5.95-1.72-10.41-5.43-14.87-9.3-.35-.31-.9-.55-.58-1.15.4-.76,1.13-.54,1.74-.4,3,.69,6,1.38,8.95,2.15,12,3.14,23.89,7.16,36.1,9.27,18.4,3.19,35.45,9.74,52.05,17.81,10.19,5,14.86,13.54,15.53,24.94C240,244.53,239.74,246,238.25,246Z"/><path class="cls-2" d="M229.12,146c2.61,0,4.41,1.3,4.43,3.14,0,2.31-2.59,4.32-5.55,4.29-2.18,0-3.53-1.24-3.47-3.11C224.62,147.24,226,146,229.12,146Z"/><path class="cls-7" d="M232.17,277.49c-1.45-.12-3.77-4-3.29-5.38a10.16,10.16,0,0,1,13.76-5.62c-3.21,3.51-6.37,7-9.55,10.43C232.85,277.18,232.46,277.52,232.17,277.49Z"/><path class="cls-9" d="M228.23,95.42c-3.47.42-4.39-.17-4.88-3.54-1.49-10.49-3.08-21-4.31-31.5-.81-6.91.66-13.75,1.86-20.52.51-2.9,3.08-3.5,5.29-1.49,5,4.56,7,10.5,7.79,17,.62,5.42.43,10.86.48,18.12.16,5-.32,11.8-.48,18.61,0,2.06-.93,3.19-3.09,3.15A19.75,19.75,0,0,0,228.23,95.42Z"/><path class="cls-6" d="M142.72,207.08c-.05-.11,0-.29.13-.77,4.43,1.23,8.88,2.33,13.24,3.68,13.54,4.16,27.4,7,41.25,9.82,7.48,1.54,14.9,3.66,20.7,9C223.4,233.69,228.4,239,231.58,246c-7.48,0-14.74.46-22-.61-10.26-1.51-20.54-2.86-30.82-4.2a185.94,185.94,0,0,1-27.56-5.53c-2.07-.6-3.5-1.77-3.59-4C147.29,223.2,146.44,214.86,142.72,207.08Z"/><path class="cls-7" d="M194.14,287.76c2.08-2.7,2.05-2.72,4.89-.91,4.37,2.79,8.25,6.27,12.43,9.33,4.36,3.19,9,5.6,14.66,6.22-1.94,3.74-4.35,4.68-7.92,3.28a5,5,0,0,1-1.33-.57c-5.28-4.27-11.9-6.57-16.79-11.45a16.35,16.35,0,0,0-5.56-3.84C193.05,289.23,193.43,288.67,194.14,287.76Z"/><path class="cls-9" d="M206.94,98c-1.89.32-2.75-1-3.18-2.63a93.47,93.47,0,0,1-3.43-24.65A50.09,50.09,0,0,1,201.79,58a12.12,12.12,0,0,1,1.27-3.12c1.55-2.69,4-3,6.13-.69,4.34,4.8,6.31,10.66,7.16,16.93,1,7.21,1.62,14.47,2.9,21.64.57,3.23-.58,4.44-3.87,4.65A83.33,83.33,0,0,0,206.94,98Z"/><path class="cls-7" d="M221.58,288.76c-3.39,4.54-6.74,4.88-10.32,1.06C214.86,286.41,217.76,286.11,221.58,288.76Z"/><path class="cls-7" d="M195.34,304.21c-2.81,1-2.5-1.69-3.17-3.15-.78-1.71.75-1.89,1.81-2.42,4-2,5.09-1.84,8,1.06.81.8.66,1.24.09,2C200.78,303.3,199.06,304,195.34,304.21Z"/><path class="cls-6" d="M216,267.55a5.1,5.1,0,0,0-6.33,1.56q-2.79,3.38-5.55,6.79c-1.27,1.56-1.11,2.73.88,3.56,2.46,1,4.86,2.15,7.31,3.25-2.66,4.08-5.66,4.51-9.22,1.43l-.18-.16c-5.44-5.35-6.54-4.46-12.36,1-2.93,2.76-1.89,6.32,1.81,7.82.65.26,1.61.25,1.56,1.23s-1.09.84-1.72,1.06A14.32,14.32,0,0,0,187,297.8c-2.5,2.27-2.43,3.86.21,5.92a7.49,7.49,0,0,1,2,1.75c2.14,3.59,5.18,4,8.73,2.61a62.51,62.51,0,0,0,6.73-2.72c2.49-1.3,4.62-1.18,6.63.76,3.17,3,7.18,3.88,11.33,4.44,2.62.35,4.36-.79,5.74-2.8a15.19,15.19,0,0,0,1.73-4c1.06-3.35,1-3.65-2.36-4.91a45.14,45.14,0,0,0-5.08-1.58c-1.64-.41-1.61-1-.69-2.26,2.39-3.18,5.13-4.11,8.94-2.82,2.75.93,5.39,2.18,8.22,2.9,4.34,1.11,5.8.65,8.25-3,.81-1.21,1.53-2.49,2.24-3.76,1.32-2.35.85-3.65-1.81-4.46-3.17-1-6.36-1.85-9.6-2.53-1.81-.38-2.27-.66-.92-2.3a86.12,86.12,0,0,0,7-9.38c2.27-3.72,5.48-4.78,9.54-5,10.62-.55,21.22-1.37,31.83-2a341.52,341.52,0,0,0,50.92-7.32,215,215,0,0,0,38.34-12,13.59,13.59,0,0,1,5.35-1.28,125,125,0,0,1-.26,18.2,9.35,9.35,0,0,1-1.33-.46c-3.44-1.57-6.28-.67-9.24,1.53-3.75,2.8-3.88,6.69-4,10.66-.27,6.27.77,12.45,1.36,18.67a5.29,5.29,0,0,0-1.57,4.42,58.2,58.2,0,0,0,2.71,13.46,313.43,313.43,0,0,1-16.75,37.54A88.39,88.39,0,0,1,340,362.07c-.82,1-.83,1-2.5,1.54.14-3.85-.3-7.63.28-11.42a15.66,15.66,0,0,0-2.05-10.53c-1.9-3.29-4-6.5-5.83-9.83A40.08,40.08,0,0,0,313.12,315c-4.73-2.43-5.26-6-4.43-10.57.81-4.38,2.85-7.76,7.21-9.3,5.56-1.95,13.14.56,16.48,5.43a11.43,11.43,0,0,1,1.57,3.26c.82,2.87-.18,5.3-2.38,6.18a5.37,5.37,0,0,1-7-2.75c-.42-.85-.57-1.85-.91-2.75s-.85-1.72-1.87-1.68-.92,1-1.14,1.67c-1.24,3.75,1,6.38,3.07,9,1.72,2.15,4.09,2.3,6.65,1.62,6.92-1.82,10.85-6.05,11.46-12.5.76-8-2.64-15-8.63-17.92-3.26-1.59-6.59-1-9.7.08-10.06,3.58-17,10-17.84,21.32a17.36,17.36,0,0,1-.37,1.9c-.66,3.46-1.39,4-4.75,3.27-10.54-2.15-20.21-.12-28.6,6.65-6.61,5.35-12,11.65-13.35,20.5a38.25,38.25,0,0,0,.58,12.27c1,5.92-.76,8.64-6.62,10.12a41.91,41.91,0,0,1-15.8.94A11,11,0,0,1,227.91,348c1.5-5.8,3.81-8,8.68-8.81,2.06-.34,3,.56,3.74,2.17,1.44,3.08,1.08,6.13,0,9.2-.21.58-.82,1.28-.35,1.79s1.32,0,2-.18a15.79,15.79,0,0,0,7.67-5.74c2.25-3,1.85-6.11-1-8.65-7.5-6.76-18-4.49-23.31,5a19,19,0,0,0-1.91,13,11.77,11.77,0,0,0,6.45,8.65c8,4.14,16.06,5.18,24.91.72-1,1.81-1.75,3.1-2.47,4.4-3,5.26-2.6,9.94,1.15,14.63a29,29,0,0,0,2.78,3.06c5.1,4.77,9.06,4.91,16.09.94,3.5-2,4.47-9.82,2-13.09-.6-.81-1.55-1.69-2.39-1.31-1.09.51,0,1.55.12,2.34s.52,1.36.71,2.06c1.43,5.13-2.67,9.34-7.86,8.08-2-.49-3.38-2.67-3.58-5.79-.78-12,5.43-15.62,14.41-17.41.87-.17,1.21.26,1.65.68,1.84,1.74,3.93,3.15,5.86,4.76,5.24,4.37,7.65,9.75,5.43,16.6-.22.69-.35,1.41-.55,2.11-1.64,5.72-4.66,9.67-11,11.16-14.18,3.32-28.35,5-42.89,2.7-9.13-1.43-18.42-1.66-27.58-3.06A87.11,87.11,0,0,1,186,392.62c-5.53-2.31-11.39-4-16.44-7.24-8.59-5.47-17.8-10.14-24.89-18.22,6.2-2.11,12.19-4.31,18.28-6.16a17.89,17.89,0,0,0,10.51-8.1,71.11,71.11,0,0,0,7.33-17.62,9.22,9.22,0,0,0,.08-4.08c-1.21-7.46.07-14.89.31-22.33.3-9.26.87-18.51.57-27.78-.18-5.77-1.52-11.23-5.17-15.9-.38-.48-1-.94-.58-1.69s1.21-.7,1.94-.67l49.24,2.42a10.26,10.26,0,0,1-2.38,4.42,2.33,2.33,0,0,1-3.09.46C219.8,269.23,217.9,268.34,216,267.55Z"/><path class="cls-10" d="M184.53,108.62c1.52-1.29,3.17-1.9,5.1-1a10.72,10.72,0,0,1,1.27.7c1.29.86,2.69,1.72,2.5,3.54-.14,1.31-3.22,3.38-5.11,3.37-1.9-.45-3.11-2.09-4.08-4A1.94,1.94,0,0,1,184.53,108.62Z"/><path class="cls-11" d="M191.09,173.57c-4.56,2.95-11,1.47-14.58-1.78-.79-.71-.17-1.08.28-1.48a10.51,10.51,0,0,1,6.47-2.33c3.07.23,5.88,1,8,3.48C191.86,172.22,192.22,172.84,191.09,173.57Z"/><path class="cls-10" d="M196.56,112.53c-.06-5.8-3.85-10.17-8.88-10.24-3.31,0-7.9,4.26-7.89,7.39,0,5,5.09,9.71,10.31,9.66C194.22,119.31,196.6,116.79,196.56,112.53Zm-7,14h-.14c-.59,0-1.17-.09-1.74-.16h0l-.66-.09-.66-.12-.65-.13a20.58,20.58,0,0,1-9.74-5.06l-.49-.47-.24-.24-.49-.51c-.39-.42-.77-.86-1.15-1.32s-.59-.76-.88-1.15c-3.48-4.81-3.35-8.88.31-13.51,2.66-3.35,5.56-6.41,10-7.29,3.35-.66,6.56.62,9.84,1a30.79,30.79,0,0,1,5.89,1.38,10.85,10.85,0,0,1,7.91,11,33.61,33.61,0,0,1-.36,7.27c-1.32,6.09-5.38,9.48-11.64,9.48h-2.2Q190.93,126.57,189.51,126.5Z"/><path class="cls-2" d="M184.21,111.24c1,1.93,2.18,3.57,4.08,4,1.89,0,5-2.05,5.11-3.37.19-1.81-1.21-2.68-2.5-3.54a10.72,10.72,0,0,0-1.27-.7c-1.93-.94-3.58-.33-5.1,1A1.94,1.94,0,0,0,184.21,111.24Zm5.89,8.1c-5.22.05-10.29-4.7-10.31-9.66,0-3.14,4.58-7.43,7.89-7.39,5,.06,8.83,4.44,8.88,10.24C196.6,116.79,194.22,119.31,190.1,119.35Z"/><path class="cls-5" d="M192.36,166c-5.41-2.38-10.81-1.81-16.28-.27-2.15.6-3.66,1.69-4,3.93a5.38,5.38,0,0,0,2.5,5.84c3.42,2.3,7.26,3,11.28,3.29a21.13,21.13,0,0,0,6.81-1.39c2.57-1.14,3.87-3,3.78-5.62A6.34,6.34,0,0,0,192.36,166Zm74.43-17.5a3.62,3.62,0,0,0-4,3.58,3.79,3.79,0,0,0,3.38,3.72c2.6.16,4.67-1.36,4.69-3.45C270.9,150.06,269.34,148.59,266.79,148.47Zm-23.11,27.88c8.6,3.86,17.69,5,27,5.39,5.92.27,11.8,1.06,17.71,1.36,10,.52,19.62-2.05,29.36-3.69a59.75,59.75,0,0,0,24.74-10,46.8,46.8,0,0,0,5.35-4.22c1.07-1,1.58-.85,2.39.21,2.75,3.6,4.32,7.76,5.79,12,1.38,4,2.66,8,5,11.54.89,1.37-.07,1.65-.93,2.11a82.07,82.07,0,0,1-21.93,8.17c-10.44,2.32-21,3.8-31.6,5.3-14.51,2.06-27.79,7.4-40.39,14.45-9.37,5.25-15.68,13.21-17.59,24.13a3.71,3.71,0,0,1-.39,1.15c-.44.78-.36,2.16-1.72,2-1.21-.18-.88-1.47-1-2.2-.79-4.88-1.93-9.67-3.13-14.46a13.91,13.91,0,0,0-6-8.47A175.92,175.92,0,0,0,171,193.79q-18.07-3.64-36.16-7.24c-4.53-.91-8.73-2.87-13-4.57-3.52-1.39-6.95-3.11-10.79-3.51-1.16-.12-1.57-.38-1.16-1.8a23,23,0,0,1,3.11-7.31C119.07,161,124.25,151.88,131,144c7.66-8.91,17.33-15.36,27.29-21.41,2-1.22,3.92-2.6,5.81-4,1.54-1.12,2.74-.94,4,.42,2.46,2.59,4.9,5.23,7.58,7.58,7.34,6.46,21,7,28.79,1.13,6.42-4.82,7.4-11.41,5.85-18.76-.08-.39-.2-.79-.28-1.18-.87-4.37-.9-4.54,3.5-5.09,17.8-2.2,35.55-2.7,53.17,1.65,8.7,2.14,17.54,3.71,25.9,7.13a98.23,98.23,0,0,1,31.87,21c3.88,3.81,8.1,7.27,12.16,10.9,1.39,1.25,1.5,2-.59,2.83-11.72,4.65-22.76,10.83-34.62,15.17a230.78,230.78,0,0,1-34.66,9.94c-6.13,1.21-12.3.3-18.44-.07-3.06-.19-6.16-.84-8.78,1.37C240.21,174.66,241.81,175.51,243.68,176.35Zm-19.15-26c-.06,1.88,1.29,3.09,3.47,3.11,3,0,5.57-2,5.55-4.29,0-1.85-1.82-3.13-4.43-3.14C226,146,224.62,147.24,224.53,150.31Z"/><path class="cls-8" d="M177.52,421.55c-2.5-8.16-5.28-16.25-6.92-25a31.12,31.12,0,0,0,6.86,2.54c1.92.36,2.75,1.86,3.29,3.54,1.09,3.41,1.19,7,1.72,10.51.71,4.71,2,9.36,1.84,14.18,0,.65.39,1.48-.61,1.87s-1.45-.31-2-.88A15.71,15.71,0,0,1,177.52,421.55Z"/><path class="cls-2" d="M176.07,165.7c5.48-1.53,10.87-2.1,16.28.27a6.34,6.34,0,0,1,4,5.78c.1,2.58-1.21,4.48-3.78,5.62a21.13,21.13,0,0,1-6.81,1.39c-4-.31-7.86-1-11.28-3.29a5.38,5.38,0,0,1-2.5-5.84C172.42,167.39,173.92,166.3,176.07,165.7Zm7.18,2.29a10.51,10.51,0,0,0-6.47,2.33c-.45.4-1.06.77-.28,1.48,3.6,3.24,10,4.72,14.58,1.78,1.13-.73.77-1.35.14-2.1C189.14,169,186.33,168.22,183.26,168Z"/><path class="cls-10" d="M174.69,119.71l.49.51C175,120,174.86,119.88,174.69,119.71Z"/><path class="cls-12" d="M173.22,337.27c.69-.1,1.41-.3,1.16.77-1.72,7.38-4,14.46-11.39,18.29-5.67,2.95-12,3.55-18.11,5a3.21,3.21,0,0,1-3.53-3c-.77-4.87-1.32-9.79-2-14.67-.22-1.48.25-1.9,1.69-2.08,7.95-1,15.88-2.14,23.81-3.22C167.6,338,170.42,337.66,173.22,337.27Z"/><path class="cls-10" d="M172.67,117.23c.29.4.58.79.88,1.15C173.25,118,173,117.63,172.67,117.23Z"/><path class="cls-13" d="M159,261.67c-3.4-.06-6.81-.21-10.2-.49a2.73,2.73,0,0,1-2.78-3.26c.07-.81.13-1.62.15-1.86.07-4.6.07-4.57,4.08-4.59a15.89,15.89,0,0,1,10,3c.33.25.64.5.95.76,1.48,1.3,2.56,3.25,2.07,4.85C162.9,261.32,160.61,261.69,159,261.67Z"/><path class="cls-7" d="M235.63,258.62a35.35,35.35,0,0,0-4.36-.29c-13.66.45-27.27-.51-40.9-1-1.21,0-2.43,0-3.66,0v-.08c-3.09,0-6.18,0-9.27,0a9.76,9.76,0,0,1-7.22-2.9c-1.56-1.54-3.28-2.91-5-4.29-4.56-3.72-10.07-4.09-15.6-4.44-.91-.06-2.42.49-2.63-.52a8.59,8.59,0,0,1,.63-4c.21-.68,1-.27,1.48-.09,10.53,3.56,21.6,4,32.47,5.65,8.25,1.23,16.49,2.55,24.77,3.54a209.17,209.17,0,0,0,27.47,1.28c13.16-.15,26.31.16,39.47.28,9.06.08,18.13-.13,27.1-2.1,10.9-2.39,22-3.6,32.91-6.19,13.18-3.14,25.58-8.46,37.8-14.17,1.32-.61,2.65-1.19,4-1.8a2.09,2.09,0,0,1,3.11,1.34,25.37,25.37,0,0,1,1.2,4.44c.4,2.2-.5,3.56-2.64,4.53-16.48,7.47-34,11.31-51.61,14.67a282.07,282.07,0,0,1-39.09,4.47c-10.44.51-20.84,1.75-31.26,2.71C248.36,260.24,242,259.22,235.63,258.62Z"/><path class="cls-14" d="M139.91,314c3.26,0,6.5,0,10.24,0A53,53,0,0,0,171,311.27c3.14-1,4-.31,4,3q0,8.05,0,16.09c0,1,.16,1.91-1.29,2.11-8.1,1.15-16.18,2.39-24.27,3.52a18.08,18.08,0,0,1-3.88,0c-4.31-.34-6-1.77-6.41-6-.45-4.84-.48-9.72-.77-14.57C138.23,314,138.89,314,139.91,314Z"/><path class="cls-15" d="M141.27,292.06c.16-2.58.82-3.39,3.26-3,10.09,1.74,20.29,2.06,30.48,2.43.88,0,1.45.22,1.24,1.25-.57,2.78-.22,5.65-.78,8.46a4.4,4.4,0,0,1-4.27,3.9c-8.16.63-16.32,1.08-22,1.45-9,.12-9,.12-8.46-6.28C140.93,297.55,141.09,294.8,141.27,292.06Z"/><path class="cls-12" d="M152.52,284.66c-2.35.23-5.39-.45-8.47-.5-1.27,0-1.44-.48-1.08-1.66q2-6.34,3.78-12.75a3.37,3.37,0,0,1,3.35-2.61c6.31-.35,12.62-.61,18.93-.91a3,3,0,0,1,3.42,2.36c1,3.3,2.27,6.55,3.3,9.85.69,2.24-.4,3.86-2.69,4.26A119.55,119.55,0,0,1,152.52,284.66Z"/><path class="cls-15" d="M130.58,269.14c.73-3.2,1.49-5.28,5.59-3.13a3.92,3.92,0,0,0,1.37.45c1.9.19,2,1.3,1.72,2.86-1.43,7.79-2.81,15.6-4.2,23.4-.93,5.24-2,10.47-2.75,15.74-.32,2.29.08,4.67.07,7,0,9.34-.75,18.67-.38,28,.19,4.94.69,9.87,1.08,14.8.1,1.32.29,2.67-1.13,3.44a4.19,4.19,0,0,1-4.2-.15c-1.76-1-2.5-2.7-3.05-4.5-2.31-7.45-2.75-15.11-2.63-22.84,0-.16,0-.32,0-.48,0-.33,0-.65,0-1,0-.85,0-1.7.05-2.55a129.76,129.76,0,0,1,1-17.84C125.44,297.93,127.38,283.43,130.58,269.14Z"/><path class="cls-13" d="M117.8,253.66a93.88,93.88,0,0,1-14.86-9,111,111,0,0,0,10.94,3c5.28,1,10.61,1.18,15.92,1.81,1.15.14,1.79.13,1.36,1.64a29.35,29.35,0,0,0-1,5.72c-.14,1.72-.72,1.64-2.1,1.13C124.56,256.71,121.15,255.27,117.8,253.66Z"/><path class="cls-7" d="M94.35,233.27c.14-1.94,0-3.9,0-6.27,10.76,5.13,22.18,6.89,33.23,9.89,1.63.44,3.31.88,3.55,3.09.33,3-.14,3.66-3.16,3.66a52,52,0,0,1-23.7-5.37,48.26,48.26,0,0,0-8.44-3C94.83,235,94.26,234.51,94.35,233.27Z"/><path class="cls-6" d="M104,203.45a15.07,15.07,0,0,1,11.67,5.11c3.08,3.35,6.11,6.74,9.17,10.11s3.48,7.75,4.18,12c.19,1.18-.54,1.71-1.84,1.33-9-2.57-18.17-4.62-26.9-8.09-3.38-1.35-4.15-2.51-3.84-6.1.33-3.79.88-7.56,1.45-11.33a3.3,3.3,0,0,1,3-2.8C101.85,203.49,102.92,203.52,104,203.45Z"/><path class="cls-5" d="M122.07,332.76c0-.85,0-1.7.06-2.55,0,.85,0,1.7-.05,2.55,0,.33,0,.65,0,1C122.08,333.42,122.08,333.09,122.07,332.76Z"/><path class="cls-12" d="M93.71,246.39a2.92,2.92,0,0,1,.35-.7c10,6,20.39,11.28,30.55,17a3.4,3.4,0,0,1,2,4c-.54,2.78-.92,5.59-1.48,8.35a3.4,3.4,0,0,1-3.68,2.86c-10.19.06-19.59-3-28.61-7.39-2.2-1.07-2.69-3.16-2.32-5.41C91.54,258.81,92.63,252.6,93.71,246.39Z"/><path class="cls-14" d="M117.71,328.63c-.2,2.66-1.51,3.57-4.53,3.34-8.46-.65-16.41-3.4-24.44-5.9-5.94-1.85-11-5.32-16.57-8A1.86,1.86,0,0,1,71,316q.56-7.89,1-15.79c.09-1.57,1-1.06,1.86-.88,7.65,1.69,15.3,3.41,23,5.08,5.85,1.27,11.71,2.45,17.56,3.7,3.61.77,4.36,1.75,4.35,5.73C118.38,318.59,118.1,323.62,117.71,328.63Z"/><path class="cls-15" d="M119.32,301.61c-.16,1.08-.46,1.35-1.51,1.18-13.67-2.23-27.54-3.47-40.83-8.07.45-.54.94-.41,1.37-.4,4.75.15,6.46-1,7.69-5.57a46.44,46.44,0,0,0,1.5-12.27c0-1.95.54-2.1,2.21-1.48,6.67,2.44,13.29,5,20.29,6.49a45.77,45.77,0,0,0,10.89.82c1.29,0,1.63.12,1.36,1.57C121.19,289.77,120.23,295.69,119.32,301.61Z"/><path class="cls-12" d="M120.14,359.24c0,2.19-1.27,3.17-3.45,2.93a100.84,100.84,0,0,1-30.36-7.92c-11.12-5-8.45-1.72-12-13.7-1.2-4.11-2.3-8.24-3.41-12.38-.15-.55-.79-1.14,0-1.75a2.18,2.18,0,0,1,2.3-.12c3.5,1.25,6.95,2.66,10.48,3.77a240.79,240.79,0,0,0,29.6,7.42c2.42.44,3.84,1.47,4.15,4.2A173.34,173.34,0,0,0,120.14,359.24Z"/><path class="cls-5" d="M78.29,289.17c-1.19.06-1.57-.88-2.1-1.72-3.48-5.51-3.45-11.66-3.38-17.85a65,65,0,0,1,3.74-20.15c1.58-4.74,2.66-9.63,4.71-14.24a26.14,26.14,0,0,1,7.37-9.57,58.29,58.29,0,0,0,.73,6.35c.63,3.32.11,6.61-.52,9.9-1.54,8-3,16.08-4.72,24.08-.91,4.17-.39,8.57-1.48,12.75q-1.08,4.21-2.23,8.41C80.12,288.21,79.56,289.11,78.29,289.17Z"/><path class="cls-15" d="M63.56,242.66A101.19,101.19,0,0,0,65.29,232a42.4,42.4,0,0,1,7.87,3.85c1.93,1.24,1.37,3.12.77,4.81-2.65,7.48-4.18,15.25-6.07,22.93-1.33,5.44-.68,10.82-.24,16.22a73.08,73.08,0,0,1,.16,13.95c-1,9.64-.93,19.41-.85,29.14a103.37,103.37,0,0,0,2.34,19.27c.27,1.32.82,3.08-.29,3.87s-2.63-.19-3.84-.83A8.42,8.42,0,0,1,61,338.92c-1.61-8.45-3.13-16.94-2.54-25.59.34-5,1.36-10,1.15-15-.42-10,.2-20,.74-29.92a66.86,66.86,0,0,1,2-13.67C63.32,250.81,62.48,246.66,63.56,242.66Z"/><path class="cls-15" d="M99.64,197.18c-6.24-1-11.66-.45-16.71,3.47a42.44,42.44,0,0,1-6.28,3.66c-5.7,3-8.27,8-9.11,14.09-.25,1.76-.41,3.55-.5,5.32-.06,1.2-.29,1.61-1.59,1.06-2.06-.88-3.35-2.28-2.71-4.51,3.31-11.54,7.52-22.58,16.83-30.9,7.25-6.48,22.16-9.11,31.85-3.63a89.19,89.19,0,0,1,25.16,21.11c5.25,6.34,6.7,13.88,6.11,21.92-.07,1.05,0,2.11,0,3.17,0,5.58.43,11.18-1.66,16.58-.69,1.76,0,3.71-.12,5.57a13.16,13.16,0,0,1-.46,3.36,4,4,0,0,1-6.32,1.37c-.37-.39-.23-.74-.14-1.1,1.88-7.09,3.09-14.27,1.9-21.58-1.88-11.62-5.45-22.17-15.12-30.26C114.37,200.56,107.45,198.49,99.64,197.18Z"/><path class="cls-12" d="M56.33,245c-.39,1.72-1,2.37-2.54,1.06a77.33,77.33,0,0,0-10.31-7.22c-2.06-1.3-3.61-3-3.54-5.76.57-3.16,1-6.35,1.77-9.48.48-2.08,1.77-2.49,3.76-1.49,3.61,1.81,7.42,3.22,10.91,5.32s3.76,2.45,2.79,6.33S57.2,241.23,56.33,245Z"/><path class="cls-15" d="M54,278c-.06,2.76-1.65,3.68-4,2.33-4.45-2.51-8.63-5.45-12.8-8.38a3.4,3.4,0,0,1-1.31-3.45q.84-8,1.71-16c.27-2.5.57-5,.79-7.49.1-1.15.41-1.46,1.46-.72q6.75,4.78,13.55,9.49a3,3,0,0,1,1.16,2.77v8.77H54C54,269.62,54.06,273.83,54,278Z"/><path class="cls-12" d="M55.09,339.33c-9.23-3.23-20-17-17.62-28.44,4.15,2.23,8.41,4.1,12.53,6.22,2.91,1.5,3.72,4.72,3.76,7.74C53.84,329.64,54.56,334.34,55.09,339.33Z"/><path class="cls-14" d="M52.9,312.09a132.07,132.07,0,0,1-14.61-6.61c-3.38-1.81-3.89-5.38-4.29-8.79a47.34,47.34,0,0,1-.14-5.35c0-4.91,0-9.83,0-15.29,5.63,4.63,11.64,7.69,17.71,10.69a2.18,2.18,0,0,1,1.35,2.09C52.88,296.52,52.9,304.2,52.9,312.09Z"/><path class="cls-2" d="M297.94,358.12c10.42,1.22,17.53,5.4,15.25,16.8,1-1.22,1.81-2.11,2.51-3.08,5.36-7.35,2.65-14.76-6.19-16.69C305.28,354.22,301.23,354.42,297.94,358.12ZM115.64,208.56A15.07,15.07,0,0,0,104,203.45c-1,.06-2.11,0-3.15.21a3.3,3.3,0,0,0-3,2.8c-.57,3.76-1.12,7.54-1.45,11.33-.31,3.59.46,4.75,3.84,6.1,8.73,3.47,17.9,5.52,26.9,8.09,1.3.37,2-.15,1.84-1.33-.7-4.21-1.11-8.56-4.18-12S118.71,211.92,115.64,208.56ZM33.86,276.05c0,5.46,0,10.38,0,15.29a47.34,47.34,0,0,0,.14,5.35c.4,3.41.91,7,4.29,8.79a132.07,132.07,0,0,0,14.61,6.61c0-7.89,0-15.57,0-23.26a2.18,2.18,0,0,0-1.35-2.09C45.5,283.74,39.49,280.68,33.86,276.05ZM199,286.84c-2.84-1.81-2.82-1.79-4.89.91-.71.91-1.09,1.48.39,2.05a16.35,16.35,0,0,1,5.56,3.84c4.88,4.89,11.51,7.19,16.79,11.45a5,5,0,0,0,1.33.57c3.56,1.39,6,.46,7.92-3.28-5.61-.62-10.3-3-14.66-6.22C207.28,293.11,203.41,289.64,199,286.84ZM45.46,222.11c-2-1-3.27-.6-3.76,1.49-.73,3.13-1.19,6.31-1.77,9.48-.07,2.73,1.48,4.46,3.54,5.76a77.33,77.33,0,0,1,10.31,7.22c1.49,1.32,2.14.66,2.54-1.06.87-3.77,1.89-7.5,2.83-11.25s.77-4.19-2.79-6.33S49.07,223.92,45.46,222.11Zm146.71,78.95c.66,1.45.36,4.17,3.17,3.15,3.72-.21,5.44-.91,6.74-2.54.57-.73.72-1.18-.09-2-2.91-2.89-4-3.07-8-1.06C192.92,299.17,191.39,299.35,192.17,301.06ZM266,176.8c6.8,1.33,13.71,1.28,20.58,1.44,9.63.32,19.05-1.33,28.48-3,12.13-2.1,22.62-7.56,32-15.35a44.1,44.1,0,0,0,5.15-5.5,3.87,3.87,0,0,0,.25-4.76c-1-1.71-2.63-1.24-4.15-1-4,.63-7.64,2.52-11.37,4-23.08,9.25-46.08,18.77-70.87,22.66-.53.09-1.27-.06-1.2.81C264.91,176.78,265.53,176.71,266,176.8Zm-44.42,112c-3.82-2.65-6.71-2.35-10.32,1.06C214.84,293.64,218.19,293.3,221.58,288.76Zm1.77-196.88c.48,3.37,1.41,4,4.88,3.54a19.75,19.75,0,0,1,2.67-.14c2.17,0,3.05-1.09,3.09-3.15.16-6.81.64-13.62.48-18.61-.06-7.26.14-12.7-.48-18.12-.75-6.53-2.76-12.48-7.79-17-2.22-2-4.78-1.4-5.29,1.49-1.2,6.77-2.67,13.61-1.86,20.52C220.27,70.9,221.86,81.39,223.35,91.88ZM271,360.39c-2.52-.69-4.48.55-6.54,1.8-5.26,3.21-9.26,7.28-10.3,13.67-.56,3.42.28,5.14,3.69,6.91.24-11.2,4.27-17.31,13.32-20.39.66-.22,1.74-.11,1.72-1C272.86,360.31,271.69,360.59,271,360.39ZM235.07,243.91c.31,1.74,1.9,2,3.18,2.08,1.48,0,1.7-1.45,1.91-2.27-.67-11.4-5.34-20-15.53-24.94C208,210.7,191,204.15,172.59,201c-12.21-2.11-24.07-6.13-36.1-9.27-3-.78-6-1.47-8.95-2.15-.61-.14-1.34-.36-1.74.4-.31.6.24.84.58,1.15,4.47,3.88,8.93,7.58,14.87,9.3,18,5.21,36.25,9.48,54.46,13.85,12.38,3,23.52,7.46,32.07,17.31C231,235.26,234.15,238.89,235.07,243.91Zm-74.8,10.54a15.89,15.89,0,0,0-10-3c-4,0-4,0-4.08,4.59,0,.24-.08,1.05-.15,1.86a2.73,2.73,0,0,0,2.78,3.26c3.39.28,6.8.43,10.2.49,1.63,0,3.92-.35,4.31-1.6.48-1.6-.59-3.55-2.07-4.85C160.91,254.95,160.6,254.7,160.27,254.45Zm82.37,12a10.16,10.16,0,0,0-13.76,5.62c-.48,1.41,1.84,5.27,3.29,5.38.3,0,.68-.31.93-.57C236.27,273.47,239.42,270,242.64,266.49ZM150.15,314c-3.74,0-7,0-10.24,0-1,0-1.68,0-1.61,1.38.29,4.86.33,9.73.77,14.57.39,4.21,2.11,5.64,6.41,6a18.08,18.08,0,0,0,3.88,0c8.1-1.14,16.18-2.38,24.27-3.52,1.45-.21,1.29-1.13,1.29-2.11q0-8,0-16.09c0-3.26-.82-4-4-3A53,53,0,0,1,150.15,314Zm-8.81,44.35a3.21,3.21,0,0,0,3.53,3c6.08-1.49,12.45-2.1,18.11-5,7.35-3.83,9.67-10.91,11.39-18.29.25-1.08-.47-.87-1.16-.77-2.8.39-5.62.73-8.42,1.11-7.94,1.08-15.86,2.21-23.81,3.22-1.43.18-1.91.6-1.69,2.08C140,348.56,140.57,353.47,141.34,358.34ZM37.47,310.89c-2.4,11.43,8.4,25.21,17.62,28.44-.54-5-1.26-9.69-1.33-14.48,0-3-.85-6.24-3.76-7.74C45.88,315,41.62,313.12,37.47,310.89Zm205-215.5c2.1.13,4.2.22,6.31.33,3.64.19,4.73-.75,4.7-4.43-.05-7.52.18-15.06-1-22.54C252,65.28,251.15,61.91,249,59c-2.51-3.34-5.34-3-7,.81-.25.6-.45,1.21-.68,1.81-2.6,7.09-2.36,14.5-2.48,21.88,0,2.76-.06,5.52,0,8.28C239,94.42,239.82,95.22,242.46,95.39Zm85.78,252.15c1.75,7.29,1.57,14.82,2.56,22.39,7.84-7-.24-37.64-10.49-43.35C323,333.71,326.49,340.3,328.24,347.53ZM142.84,206.31c-.09.48-.18.66-.13.77,3.72,7.78,4.57,16.12,4.9,24.58.09,2.26,1.52,3.43,3.59,4a185.94,185.94,0,0,0,27.56,5.53c10.28,1.35,20.56,2.69,30.82,4.2,7.25,1.07,14.51.63,22,.61-3.17-7-8.18-12.35-13.54-17.25-5.8-5.31-13.22-7.43-20.7-9-13.85-2.86-27.71-5.66-41.25-9.82C151.72,208.65,147.28,207.54,142.84,206.31ZM209.19,54.16c-2.08-2.31-4.58-2-6.13.69A12.12,12.12,0,0,0,201.79,58a50.09,50.09,0,0,0-1.47,12.76,93.47,93.47,0,0,0,3.43,24.65c.42,1.64,1.29,2.95,3.18,2.63a83.33,83.33,0,0,1,8.44-.63c3.28-.21,4.44-1.42,3.87-4.65-1.27-7.18-1.9-14.43-2.9-21.64C215.5,64.83,213.53,59,209.19,54.16Zm-144.05,291c1.21.64,2.75,1.62,3.84.83s.55-2.55.29-3.87a103.37,103.37,0,0,1-2.34-19.27c-.07-9.73-.16-19.49.85-29.14a73.08,73.08,0,0,0-.16-13.95c-.45-5.41-1.09-10.78.24-16.22,1.89-7.68,3.42-15.45,6.07-22.93.6-1.69,1.17-3.57-.77-4.81A42.4,42.4,0,0,0,65.29,232a101.19,101.19,0,0,1-1.73,10.69c-1.09,4-.24,8.15-1.28,12.05a66.86,66.86,0,0,0-2,13.67c-.54,10-1.16,19.93-.74,29.92.21,5-.82,10-1.15,15-.6,8.65.92,17.14,2.54,25.59A8.42,8.42,0,0,0,65.14,345.19Zm11.05-57.73c.54.84.91,1.78,2.1,1.72s1.82-1,2.11-2q1.15-4.2,2.23-8.41c1.09-4.19.57-8.58,1.48-12.75,1.72-8,3.18-16,4.72-24.08.63-3.29,1.15-6.58.52-9.9a58.29,58.29,0,0,1-.73-6.35,26.14,26.14,0,0,0-7.37,9.57c-2.05,4.61-3.14,9.5-4.71,14.24a65,65,0,0,0-3.74,20.15C72.74,275.79,72.71,281.94,76.19,287.45Zm-3,38.84a2.18,2.18,0,0,0-2.3.12c-.76.61-.11,1.2,0,1.75,1.12,4.14,2.21,8.27,3.41,12.38,3.52,12,.84,8.68,12,13.7a100.84,100.84,0,0,0,30.36,7.92c2.19.25,3.44-.74,3.45-2.93a173.34,173.34,0,0,1-2.7-17.55c-.3-2.73-1.73-3.77-4.15-4.2a240.79,240.79,0,0,1-29.6-7.42C80.17,329,76.72,327.54,73.22,326.29ZM263,337.2c-1,1.12-1.12,2.56-1.48,3.83-1.49,5.39-.12,9.91,4.36,13.37,1.86,1.44,3.53,1.45,5.32,0-4.27-1.56-6-4.84-6.61-9.09C264.21,342.6,264.26,339.81,263,337.2Zm-88-45.68c-10.19-.37-20.38-.69-30.48-2.43-2.43-.42-3.09.39-3.26,3-.18,2.75-.34,5.5-.58,8.24-.55,6.4-.57,6.4,8.46,6.28,5.72-.36,13.89-.82,22-1.45a4.4,4.4,0,0,0,4.27-3.9c.56-2.81.21-5.67.78-8.46C176.45,291.74,175.88,291.55,175,291.52Zm96.43-70.15c-10.54,5.22-16.8,13.57-19.26,25.71,4,0,7.72-.12,11.43.06a2.06,2.06,0,0,0,2.42-1.63c1.64-4.17,3.66-8.19,6.86-11.39a51.08,51.08,0,0,1,22.54-12.86c18.83-5.33,38.13-8.7,57.25-12.81,5.41-1.17,11.09-1.46,15.89-4.81,3.41-2.37,3.78-3.35,1.77-6.92-1.81-3.23-3.14-3.68-6.53-2.18-.74.33-1.46.69-2.2,1-9.17,4.46-18.43,8.52-28.73,9.88-7,.93-13.93,3-21,3.93A126.83,126.83,0,0,0,271.43,221.37ZM136.18,266c-4.1-2.14-4.87-.07-5.59,3.13-3.2,14.28-5.15,28.78-7.42,43.23a129.76,129.76,0,0,0-1,17.84c0,.85,0,1.7-.06,2.55,0,.33,0,.65,0,1,0,.16,0,.32,0,.48-.12,7.73.31,15.39,2.63,22.84.55,1.8,1.3,3.53,3.05,4.5a4.19,4.19,0,0,0,4.2.15c1.42-.77,1.23-2.12,1.13-3.44-.39-4.93-.89-9.86-1.08-14.8-.37-9.34.35-18.67.38-28,0-2.34-.39-4.72-.07-7,.74-5.27,1.82-10.5,2.75-15.74,1.4-7.8,2.77-15.61,4.2-23.4.29-1.57.18-2.67-1.72-2.86A3.92,3.92,0,0,1,136.18,266Zm-15.25,16.3a45.77,45.77,0,0,1-10.89-.82c-7-1.45-13.62-4-20.29-6.49-1.67-.61-2.22-.46-2.21,1.48A46.44,46.44,0,0,1,86,288.76c-1.23,4.55-2.94,5.72-7.69,5.57-.44,0-.93-.15-1.37.4,13.29,4.6,27.16,5.83,40.83,8.07,1.06.17,1.35-.09,1.51-1.18.91-5.92,1.87-11.84,3-17.73C122.56,282.43,122.21,282.27,120.93,282.31Zm83.62-154.59c-7.79,5.84-21.45,5.33-28.79-1.13-2.68-2.36-5.12-5-7.58-7.58-1.3-1.36-2.5-1.55-4-.42-1.89,1.39-3.81,2.78-5.81,4-10,6-19.63,12.5-27.29,21.41-6.78,7.89-12,17-18.07,25.36a23,23,0,0,0-3.11,7.31c-.42,1.42,0,1.68,1.16,1.8,3.84.41,7.27,2.12,10.79,3.51,4.27,1.7,8.47,3.66,13,4.57q18.08,3.63,36.16,7.24a175.92,175.92,0,0,1,65.35,27.28,13.91,13.91,0,0,1,6,8.47c1.2,4.79,2.34,9.58,3.13,14.46.12.73-.22,2,1,2.2,1.36.21,1.29-1.18,1.72-2a3.71,3.71,0,0,0,.39-1.15c1.92-10.92,8.22-18.88,17.59-24.13,12.6-7.05,25.88-12.39,40.39-14.45,10.57-1.5,21.16-3,31.6-5.3A82.07,82.07,0,0,0,360,191c.85-.47,1.82-.75.93-2.11-2.31-3.55-3.6-7.57-5-11.54-1.47-4.21-3-8.37-5.79-12-.81-1.06-1.32-1.21-2.39-.21a46.8,46.8,0,0,1-5.35,4.22,59.75,59.75,0,0,1-24.74,10c-9.74,1.63-19.37,4.21-29.36,3.69-5.92-.3-11.8-1.09-17.71-1.36-9.28-.42-18.38-1.53-27-5.39-1.86-.84-3.47-1.69-4.06-3.8,2.62-2.21,5.72-1.56,8.78-1.37,6.14.37,12.31,1.28,18.44.07a230.78,230.78,0,0,0,34.66-9.94c11.86-4.34,22.91-10.52,34.62-15.17,2.08-.82,2-1.58.59-2.83-4.05-3.63-8.28-7.1-12.16-10.9a98.23,98.23,0,0,0-31.87-21c-8.37-3.42-17.2-5-25.9-7.13-17.63-4.35-35.37-3.85-53.17-1.65-4.4.54-4.37.72-3.5,5.09.09.39.21.79.28,1.18C211.95,116.31,211,122.9,204.54,127.72ZM290.15,372.4c.87,1.6,1.36,3.41,2.68,5a21.12,21.12,0,0,0-6.7-14.74,5.27,5.27,0,0,0-4.23-1.3c-.74,0-1.3.24-1.42,1s.59.84,1.07,1.08C285.52,365.36,288.09,368.62,290.15,372.4ZM144,284.16c3.08.06,6.13.73,8.47.5a119.55,119.55,0,0,0,20.53-2c2.29-.39,3.38-2,2.69-4.26-1-3.31-2.27-6.55-3.3-9.85a3,3,0,0,0-3.42-2.36c-6.31.3-12.62.56-18.93.91a3.37,3.37,0,0,0-3.35,2.61q-1.8,6.4-3.78,12.75C142.6,283.68,142.77,284.14,144,284.16ZM82.93,200.65c5.06-3.92,10.47-4.52,16.71-3.47,7.81,1.31,14.73,3.38,21.11,8.71,9.67,8.08,13.24,18.64,15.12,30.26,1.2,7.31,0,14.5-1.9,21.58-.09.36-.23.71.14,1.1a4,4,0,0,0,6.32-1.37,13.16,13.16,0,0,0,.46-3.36c.14-1.86-.57-3.81.12-5.57,2.09-5.4,1.67-11,1.66-16.58,0-1.06-.06-2.12,0-3.17.58-8-.87-15.58-6.11-21.92a89.19,89.19,0,0,0-25.16-21.11c-9.69-5.48-24.59-2.85-31.85,3.63-9.31,8.32-13.52,19.36-16.83,30.9-.64,2.23.65,3.63,2.71,4.51,1.3.55,1.53.13,1.59-1.06.09-1.78.25-3.56.5-5.32.84-6.1,3.41-11.09,9.11-14.09A42.44,42.44,0,0,0,82.93,200.65ZM113.17,332c3,.23,4.34-.69,4.53-3.34.39-5,.67-10,1-14.79,0-4-.74-5-4.35-5.73-5.85-1.25-11.71-2.43-17.56-3.7-7.67-1.66-15.32-3.38-23-5.08-.83-.18-1.77-.69-1.86.88q-.43,7.9-1,15.79a1.86,1.86,0,0,0,1.2,2.09c5.53,2.65,10.63,6.12,16.57,8C96.76,328.57,104.71,331.32,113.17,332Zm-73.4-87.6c-1.05-.74-1.36-.42-1.46.72-.22,2.5-.52,5-.79,7.49q-.86,8-1.71,16A3.4,3.4,0,0,0,37.13,272c4.17,2.93,8.35,5.88,12.8,8.38,2.39,1.35,4,.43,4-2.33.09-4.22,0-8.43,0-12.65h.5v-8.77a3,3,0,0,0-1.16-2.77Q46.53,249.15,39.78,244.37Zm37.66-14c1.56.48,1.95-1.6,2.81-2.57s1.51-2.11,2.33-3.11c2.51-3.09,3.57-7.13,6.36-10,2.32-2.36,3.23-5.12,3.56-8.54.64-1.39-.2-1.67-1.63-1.47-1.2.17-2.4.28-3.6.43-5.1.63-9.5,2.42-12.35,7.05-2.61,4.25-3,9.09-3.91,13.81a1.7,1.7,0,0,0,.34,1.12C72.86,229.11,75.27,229.66,77.44,230.32Zm139,42.33a3.88,3.88,0,0,0-2.56-.7,5,5,0,0,0-3.3,1.24c-2.53,2-2.31,3.81.57,5.25a42.46,42.46,0,0,1,5.29,3c7.35,5.12,15.86,7.49,24.17,10.32a3.1,3.1,0,0,0,2.13,0c1.53-.54,1.89-1.9,2.34-3.19.33-1-.49-1.12-1-1.32C234.18,283.64,225.35,278.09,216.45,272.65Zm60.49-35.41a19.55,19.55,0,0,0-6.81,10.16c4.29-.32,8.26-.45,12.17-1,14.46-1.87,28.88-3.9,43.29-6.18a117.57,117.57,0,0,0,46.5-17.87,4.17,4.17,0,0,0,2-3.84c0-2.86-.83-5.6-1.11-8.42-.15-1.58-.66-2-2.4-1.39-12.26,4.56-25.09,6.79-37.89,9.06-8.83,1.57-17.8,2.25-26.46,4.85C295.64,225.85,285.52,230,276.94,237.25Zm55.69,50.91c-4-2.64-7.42-.07-11.47,1.39,6.62,2.77,13.83,3.71,16.87,11C338.48,295.37,337,291,332.63,288.15ZM102.94,244.68a93.88,93.88,0,0,0,14.86,9c3.35,1.61,6.76,3,10.25,4.32,1.39.51,2,.58,2.1-1.13a29.35,29.35,0,0,1,1-5.72c.43-1.51-.21-1.51-1.36-1.64-5.31-.62-10.64-.85-15.92-1.81A111,111,0,0,1,102.94,244.68Zm1.36-6.42a52,52,0,0,0,23.7,5.37c3,0,3.49-.63,3.16-3.66-.24-2.21-1.92-2.65-3.55-3.09-11-3-22.46-4.76-33.23-9.89,0,2.38.1,4.33,0,6.27-.09,1.25.48,1.72,1.51,2A48.26,48.26,0,0,1,104.3,238.26ZM278.25,354.65c5.88,4.23,13.88.84,16.91-8.09a36.64,36.64,0,0,1-7.91,5.5A27.65,27.65,0,0,1,278.25,354.65Zm7.64-9.64c-.78.63-2.22.38-3.18-.82a8,8,0,0,1,2.16-11.76c4.44-2.55,11.39-1.89,15.29,1.45,1,.89,1.87,2,1.56,3.35-1.65,7.09-3.91,13.9-9.62,18.94-3.79,3.35-3.8,3.35,0,6.84.09.09.27.11.61.23.29-1.18.56-2.34.88-3.49a8.61,8.61,0,0,1,2.56-4.3c4.29-3.89,13.26-5,18.25-1.68,6.16,4.11,7.22,7.34,5.48,14.83a20.05,20.05,0,0,1-6.93,11.15,6.82,6.82,0,0,1-7.94.93c-3.52-1.87-4.56-4-4.18-7.43a2.71,2.71,0,0,1,2.61-2.43c1.38-.15.79,1.4.87,2.2a5,5,0,0,0,1,2.68,2.29,2.29,0,0,0,2.6.85,2.47,2.47,0,0,0,1.85-2.05,9.62,9.62,0,0,0-4.63-10.4c-2.75-1.77-5.44-1.5-8.7,1-2.14,1.65-.42,3.52-.14,5.29a13,13,0,0,0,.47,1.63A13.85,13.85,0,0,1,295,384.34a60.94,60.94,0,0,0-3.69,6.82c-.26.5-1,1-.28,1.69s1.2,0,1.75-.28a283.42,283.42,0,0,0,29.48-15.84,5.14,5.14,0,0,0,2.45-3.43,45.88,45.88,0,0,0,.25-18.85c-2.11-11.16-7.33-21-13.21-30.54S289,312.13,281.9,318.29c-2.51,2.18-5.26,4.1-7.66,6.4-4.77,4.57-7.73,9.92-6.57,16.89.83,5,3,8,6.74,8.4,9,1.07,16-2.75,21.59-10.1,1.76-2.33.39-4.74-2.51-4.89a15.13,15.13,0,0,0-6.43,1c-3.29,1.31-3.74,3.14-1.45,5.77C286.52,342.84,286.73,344.33,285.89,345ZM170.6,396.5c1.64,8.79,4.42,16.88,6.92,25a15.71,15.71,0,0,0,4.16,6.73c.57.57,1,1.27,2,.88s.59-1.22.61-1.87c.14-4.82-1.13-9.47-1.84-14.18-.53-3.51-.63-7.1-1.72-10.51-.55-1.68-1.37-3.17-3.29-3.54A31.12,31.12,0,0,1,170.6,396.5Zm18.91-270a28.27,28.27,0,0,0,2.9,0h2.2c6.26,0,10.33-3.39,11.64-9.48a33.61,33.61,0,0,0,.36-7.27,10.85,10.85,0,0,0-7.91-11,30.79,30.79,0,0,0-5.89-1.38c-3.27-.37-6.49-1.66-9.84-1-4.43.88-7.33,3.94-10,7.29-3.67,4.64-3.79,8.7-.31,13.51.29.4.58.78.88,1.15s.76.9,1.15,1.32c.16.17.32.34.49.51l.24.24.49.47a20.58,20.58,0,0,0,9.74,5.06l.65.13.66.12.66.09h0c.57.08,1.15.13,1.74.16ZM94.05,245.69a2.92,2.92,0,0,0-.35.7c-1.08,6.21-2.17,12.42-3.19,18.64-.37,2.25.12,4.33,2.32,5.41,9,4.4,18.43,7.44,28.61,7.39a3.4,3.4,0,0,0,3.68-2.86c.57-2.77.95-5.58,1.48-8.35a3.4,3.4,0,0,0-2-4C114.44,257,104.07,251.69,94.05,245.69Zm141.58,12.93c6.38.6,12.73,1.62,19.18,1,10.42-1,20.82-2.2,31.26-2.71a282.07,282.07,0,0,0,39.09-4.47c17.64-3.36,35.13-7.2,51.61-14.67,2.14-1,3-2.33,2.64-4.53a25.37,25.37,0,0,0-1.2-4.44,2.09,2.09,0,0,0-3.11-1.34c-1.32.6-2.65,1.18-4,1.8-12.23,5.71-24.62,11-37.8,14.17-10.87,2.59-22,3.81-32.91,6.19-9,2-18,2.18-27.1,2.1-13.16-.12-26.31-.43-39.47-.28a209.17,209.17,0,0,1-27.47-1.28c-8.29-1-16.52-2.32-24.77-3.54-10.87-1.62-21.93-2.09-32.47-5.65-.51-.17-1.28-.59-1.48.09a8.59,8.59,0,0,0-.63,4c.21,1,1.71.46,2.63.52,5.53.34,11,.72,15.6,4.44,1.7,1.39,3.42,2.76,5,4.29a9.76,9.76,0,0,0,7.22,2.9c3.09,0,6.18,0,9.27,0v.08c1.22,0,2.44,0,3.66,0,13.63.51,27.25,1.48,40.9,1A35.35,35.35,0,0,1,235.63,258.62Zm39.63,177.21a2.43,2.43,0,0,0,3-1,4.8,4.8,0,0,0,.67-1.28c3.44-10.07,6.83-20.15,10.31-30.21.48-1.4-.17-2-1.24-1.84a48.38,48.38,0,0,0-6.62,1.43,3,3,0,0,0-1.91,2.63c-.24,1.27-.34,2.57-.54,3.85-.93,6.06-1,12.25-3.15,18.13-.66,1.86-1.57,3.75-1.5,6.34C274.31,434.28,274,435.4,275.26,435.83ZM227.18,265.24l-49.24-2.42c-.73,0-1.51-.11-1.94.67s.2,1.21.58,1.69c3.65,4.67,5,10.12,5.17,15.9.3,9.27-.27,18.52-.57,27.78-.24,7.44-1.52,14.87-.31,22.33a9.22,9.22,0,0,1-.08,4.08,71.11,71.11,0,0,1-7.33,17.62,17.89,17.89,0,0,1-10.51,8.1c-6.1,1.85-12.08,4.06-18.28,6.16,7.1,8.08,16.31,12.76,24.89,18.22,5,3.21,10.91,4.93,16.44,7.24a87.11,87.11,0,0,0,20.66,5.33c9.16,1.4,18.46,1.63,27.58,3.06,14.54,2.29,28.7.63,42.89-2.7,6.35-1.49,9.38-5.44,11-11.16.2-.7.33-1.42.55-2.11,2.22-6.85-.19-12.23-5.43-16.6-1.93-1.61-4-3-5.86-4.76-.43-.42-.78-.85-1.65-.68-9,1.79-15.2,5.4-14.41,17.41.2,3.11,1.54,5.29,3.58,5.79,5.19,1.26,9.29-3,7.86-8.08-.19-.7-.57-1.36-.71-2.06s-1.21-1.83-.12-2.34c.84-.38,1.78.5,2.39,1.31,2.44,3.27,1.48,11.11-2,13.09-7,4-11,3.83-16.09-.94a29,29,0,0,1-2.78-3.06c-3.75-4.69-4.1-9.37-1.15-14.63.72-1.3,1.45-2.58,2.47-4.4-8.85,4.46-16.93,3.42-24.91-.72a11.77,11.77,0,0,1-6.45-8.65,19,19,0,0,1,1.91-13c5.29-9.47,15.8-11.73,23.31-5,2.83,2.54,3.23,5.63,1,8.65a15.79,15.79,0,0,1-7.67,5.74c-.68.23-1.44.78-2,.18s.14-1.21.35-1.79c1.12-3.07,1.48-6.13,0-9.2-.75-1.6-1.68-2.51-3.74-2.17-4.87.8-7.18,3-8.68,8.81a11,11,0,0,0,8.88,13.77,41.91,41.91,0,0,0,15.8-.94c5.86-1.48,7.65-4.2,6.62-10.12a38.25,38.25,0,0,1-.58-12.27c1.31-8.85,6.74-15.16,13.35-20.5,8.39-6.77,18.05-8.8,28.6-6.65,3.36.69,4.1.18,4.75-3.27a17.36,17.36,0,0,0,.37-1.9c.86-11.36,7.77-17.74,17.84-21.32,3.11-1.11,6.43-1.67,9.7-.08,6,2.91,9.4,9.93,8.63,17.92-.61,6.44-4.54,10.68-11.46,12.5-2.56.67-4.92.53-6.65-1.62-2.06-2.58-4.32-5.21-3.07-9,.22-.66.24-1.64,1.14-1.67s1.54.82,1.87,1.68.49,1.89.91,2.75a5.37,5.37,0,0,0,7,2.75c2.2-.88,3.2-3.31,2.38-6.18a11.43,11.43,0,0,0-1.57-3.26c-3.34-4.86-10.92-7.37-16.48-5.43-4.35,1.53-6.4,4.92-7.21,9.3-.83,4.53-.3,8.15,4.43,10.57a40.08,40.08,0,0,1,16.79,16.8c1.85,3.33,3.92,6.53,5.83,9.83a15.66,15.66,0,0,1,2.05,10.53c-.59,3.79-.14,7.57-.28,11.42,1.66-.59,1.68-.58,2.5-1.54a88.39,88.39,0,0,0,11.15-15.92,313.43,313.43,0,0,0,16.75-37.54,43.81,43.81,0,0,0,3.76,8.25l.49.82a98.5,98.5,0,0,1-6,15.53c-7.31,14.41-14.77,28.79-26.91,40-6.2,5.73-13.51,9.84-20.54,14.35a82.51,82.51,0,0,1-20.54,9.9c-3,.9-4.43,3-5.14,5.88-2,8.34-3.83,16.77-7.33,24.66q-2.52,5.67-5.36,11.19c-1.87,3.64-4,4.57-7.27,3.41s-4.22-3.14-3.53-7c1.7-9.33,3.47-18.65,5.23-28,.59-3.11.61-3.32-2.46-2.84-4.31.67-8.56,1.76-12.87,2.57a75.75,75.75,0,0,1-27.86.17c-6.18-1.14-12.45-1.14-18.67-1.67-7.46-.63-14.77-2.11-22.12-3.39-3.25-.57-3.3-.52-3,2.7.61,7.19.89,14.41,2.2,21.55a6.15,6.15,0,0,1-4.53,7.34c-3.58,1.06-6.7-.39-8.58-3.62-5.51-9.44-7.6-20-9.62-30.46a16.17,16.17,0,0,0-5.68-9.72c-7.37-6.38-14.48-13.08-21.5-19.84-2.9-2.79-5.65-4.14-9.93-3.39-10.45,1.83-20.69-.09-30.76-3A254.27,254.27,0,0,1,70.23,353.3c-6.2-2.63-12-6-18.44-8.17a7.69,7.69,0,0,1-2.52-1.43c-3.77-3.22-7.58-6.41-11.17-9.81-1.71-1.62-2.5-3.94-3.29-6.16-5.74-16.32-6.8-33.08-5.11-50.19.82-8.24,1.27-16.52,2.2-24.75C33.11,242,35,231.43,37.15,220.86c.55-2.7,2.39-4.59,4.08-6.53,1-1.1,2.43-.61,3.66-.17,3.66,1.31,7.35,2.54,10.94,4,1.89.79,2.4.22,2.92-1.54a80.63,80.63,0,0,1,12.14-24.77c7.33-10.16,17.7-13.72,29.69-13.7,1.64,0,2.34-.35,2.9-2,2.33-7,6.83-12.65,11.06-18.51,6.19-8.58,12.46-17,20.5-24a214.69,214.69,0,0,1,26.57-19.72,6.94,6.94,0,0,0,3.3-4.77c2.88-12.85,14.05-19.56,27.44-16.61,2.52.55,5,1.18,8,1.87-1.3-5-3.28-9.43-3.69-14.25a143.78,143.78,0,0,1,.1-23.38c.37-4.65,3.63-7.48,7.82-9.1a5,5,0,0,1,6,1.44c1.17,1.33,2.36,2.65,3.75,4.2a20.89,20.89,0,0,0,1-7.05c0-5.13,1.09-9.8,5.13-13.41,3-2.71,5.08-2.71,8,.09,5.38,5.17,7.93,11.75,9.45,18.85.12.55.27,1.1.43,1.64a3,3,0,0,0,.29.56c.79-.09,1.16-.66,1.66-1.07,4.1-3.41,7.31-3.13,10.94.91,4.11,4.56,5.63,10.1,6.24,16,.74,7.22.45,14.46.46,21.69,0,3.63.34,4.14,3.82,5.14,12.14,3.49,24.22,7.17,36.14,11.36a78.29,78.29,0,0,1,28.27,17.67c4.59,4.38,9.13,8.8,13.56,13.34a9.34,9.34,0,0,0,7.52,3.16A9.39,9.39,0,0,1,357,149c.89,2.94,1,5.86-1.51,8.32a4,4,0,0,0-.57,5.36c3.81,6,5.9,12.77,8.07,19.49,1,2.95,2.78,5.07,6.13,5.54,1.87.27,2.7,1.75,3.51,3.36,5.36,10.74,7.44,22.4,9.72,34,2.25,11.43,2.78,23,3.69,34.59a36,36,0,0,1-.13,6.89c-.24-1.35-.48-2.7-.75-4-.54-2.78-1.72-3.31-4-1.88-.4-.12-.81-.23-1.21-.34a125,125,0,0,0,.26-18.2,13.59,13.59,0,0,0-5.35,1.28,215,215,0,0,1-38.34,12,341.52,341.52,0,0,1-50.92,7.32c-10.61.65-21.21,1.46-31.83,2-4.06.21-7.27,1.27-9.54,5a86.12,86.12,0,0,1-7,9.38c-1.34,1.64-.89,1.92.92,2.3,3.23.68,6.43,1.57,9.6,2.53,2.66.81,3.13,2.11,1.81,4.46-.72,1.27-1.43,2.55-2.24,3.76-2.45,3.63-3.91,4.09-8.25,3-2.83-.72-5.47-2-8.22-2.9-3.81-1.29-6.55-.36-8.94,2.82-.91,1.21-.95,1.85.69,2.26a45.14,45.14,0,0,1,5.08,1.58c3.33,1.26,3.42,1.56,2.36,4.91a15.19,15.19,0,0,1-1.73,4c-1.38,2-3.12,3.15-5.74,2.8-4.16-.55-8.16-1.39-11.33-4.44-2-1.93-4.14-2.05-6.63-.76a62.51,62.51,0,0,1-6.73,2.72c-3.56,1.34-6.59,1-8.73-2.61a7.49,7.49,0,0,0-2-1.75c-2.65-2.06-2.72-3.65-.21-5.92a14.32,14.32,0,0,1,5.11-2.67c.62-.21,1.66-.06,1.72-1.06s-.91-1-1.56-1.23c-3.7-1.51-4.73-5.07-1.81-7.82,5.82-5.5,6.92-6.39,12.36-1l.18.16c3.56,3.08,6.56,2.65,9.22-1.43-2.45-1.09-4.85-2.23-7.31-3.25-2-.83-2.15-2-.88-3.56q2.76-3.41,5.55-6.79a5.1,5.1,0,0,1,6.33-1.56c1.95.79,3.84,1.68,5.75,2.57a2.33,2.33,0,0,0,3.09-.46A10.26,10.26,0,0,0,227.18,265.24Z"/></svg>