<svg id="圖層_1" data-name="圖層 1" xmlns="http://www.w3.org/2000/svg" viewBox="0 0 448.18 463.29"><defs><style>.cls-1{fill:#d05351;}.cls-2{fill:#b2c5cc;}.cls-3{fill:#a53226;}.cls-4{fill:#c9a63e;}.cls-5{fill:#545857;}.cls-6{fill:#fff;}.cls-7{fill:#2d738c;}.cls-8{fill:#b98830;}.cls-9{fill:#cd392a;}.cls-10{fill:#aa4c39;}</style></defs><title>chicken</title><path d="M397.28,380.22c0-2.35,1.25-3.62,3.78-3.71,1.78-.06,3.85,1.75,3.84,3.35,0,1.19-2.25,3.42-3.47,3.45C399,383.38,397.32,382.14,397.28,380.22Z"/><path class="cls-1" d="M390.79,393.32c-.24-.6.77-1.69,1.35-2.85,3.52,4.59,3.9,7.12,1.63,8.28A41.64,41.64,0,0,1,390.79,393.32Z"/><path class="cls-1" d="M390.37,399.65c-2.88.58-4.68-.16-6.16-2.82,1.24-.49,2.86-1.6,3.32-1.23C388.7,396.52,389.36,398.1,390.37,399.65Z"/><path d="M385.78,378.41c-1.56,2.16-4.11,2-5.41-.22a44.35,44.35,0,0,1-2-4c-1.81-4-4.13-7.71-8-10.06-4-2.49-8.26-3.61-13.08-1.66-2.58,1-4.06,3.14-5.72,4.91a30.77,30.77,0,0,0-4.81,7.8,24.35,24.35,0,0,0-2.25,7.07c-.94,6.74,2.75,12.14,6.29,17.16,3,4.25,7.13,7.67,10.87,11.37a13.57,13.57,0,0,0,3.84,2.7c7,3.21,14.13,6.28,21.55,9.56-.19-4.2.25-8,3.28-10.69A105.12,105.12,0,0,1,399,405.9c3.52-2.52,7.43-4.61,10.52-7.57,3.53-3.39,6.33-7.54,9.46-11.35,3-3.66,3.92-8,3.82-12.54a6.59,6.59,0,0,0-.75-3c-3.21-5.62-9.5-10.29-17.37-9.08-6.43,1-10.89,4.53-14.5,9.53C388.62,374,387.31,376.28,385.78,378.41Zm-42-15.09c.86,1,1.59,1,2.45.1s1.78-1.93,2.75-2.82c4.13-3.81,8.67-6.95,14.62-6.24a24.23,24.23,0,0,1,15.78,8.17c1.63,1.86,2.36,4.49,3.56,6.74a9,9,0,0,0,1.2,1.44,13.41,13.41,0,0,0,1.25-1.37c4.68-6.81,10.31-12.21,19.05-13.24A20,20,0,0,1,415,357.86a33.56,33.56,0,0,1,8.21,4.87c3.38,2.88,3.5,3.38,6.33-.07,2.27-2.77,3.64-6.27,5.38-9.47a12.16,12.16,0,0,0,.42-1.52c.34-.93.36-2.24,1.9-2a2.87,2.87,0,0,1,2.82,2.54c.46,3-1.05,5.41-2.27,7.83-1.9,3.81-4,7.51-7.68,10a4,4,0,0,0-1.67,4.44,14.94,14.94,0,0,1-.44,7c-1.43,4.15-3.34,8.15-6.73,11.23a33.27,33.27,0,0,0-2.92,3.72c-2.21,2.66-4.49,5.27-6.69,8a1.86,1.86,0,0,0-.37,1.52c1.15,3,2.43,6,3.61,8.94a38.92,38.92,0,0,1,2,5.65c.6,2.59-.24,4.55-1.72,5s-2.74-.76-3.74-3.32a38.72,38.72,0,0,0-2.32-5.85,73.46,73.46,0,0,0-4.77-6.43c-3.49,2.05-6.42,3.76-9.34,5.5-2,1.19-3.93,5.87-3.55,8.37.2,1.36.37,2.74.5,4.11s-.52,2.09-1.87,1.69a11.94,11.94,0,0,1-4.08-1.69c-2.55-2.07-5.74-2.06-8.59-3.08-5.39-1.93-10.82-3.78-15.52-7.2a20.62,20.62,0,0,1-1.57-1.48c-1,2.54-2.76,4.45-2,7.34.73,2.66,1.15,5.4,1.66,8.11a2.52,2.52,0,0,1-1.66,3c-1.37.57-2.3-.12-3.18-1.22-4-5-4.16-10.66-2.77-16.57.39-1.63.8-3.27,1.12-4.92a1.61,1.61,0,0,0-.25-1.24c-2.14-2.35-4.52-4.51-6.47-7a54.85,54.85,0,0,1-5.25-8c-4.06-7.57-3.35-15.2.15-22.78a1.7,1.7,0,0,0,0-1.37q-2-3.2-4.14-6.31c-2.66-3.83-2.38-7.92-1.31-12.17a8.4,8.4,0,0,1,2.49-4.28c1.33-1.22,3.37-1.57,4.25-.68s.68,3.27-.41,4.48c-.34.38-.82.83-.85,1.27C341.6,357.1,341.36,360.48,343.77,363.32Z"/><path class="cls-2" d="M382,150.47c-3.32.76-6.76.9-9.67-1.3s-6.84-4.16-5.88-9a31.56,31.56,0,0,1-.34-4.4,20.69,20.69,0,0,1,7.18-14.42c3-2.64,6.92-3.39,10.93-2.94a12.94,12.94,0,0,1,4.14,1,7.82,7.82,0,0,1,3.44,2.66c1.75,3.11,3.58,6.19,3.73,10,.26,6.61-1.64,12.17-7.19,16A18.74,18.74,0,0,1,382,150.47Zm8.43-16a2.22,2.22,0,0,0-1.91.45,17.67,17.67,0,0,0-1.66,2.62c-2,3-3.68,6.26-8.32,5.68-.52,0-1.24.09-2,.12-1.36.07-2.61.47-2.6,2.06a2.48,2.48,0,0,0,2.4,2.46A13.11,13.11,0,0,0,391,139.08a9,9,0,0,0,.38-3.11A2,2,0,0,0,390.43,134.43Z"/><path d="M391,139.08a13.11,13.11,0,0,1-14.59,8.75,2.48,2.48,0,0,1-2.4-2.46c0-1.59,1.24-2,2.6-2.06.73,0,1.45-.09,2-.12,4.64.58,6.36-2.73,8.32-5.68a17.67,17.67,0,0,1,1.66-2.62,2.22,2.22,0,0,1,1.91-.45,2,2,0,0,1,.9,1.54A9,9,0,0,1,391,139.08Z"/><path d="M384.2,396.82c1.48,2.66,3.29,3.4,6.16,2.82-1-1.54-1.66-3.13-2.84-4.05C387.06,395.23,385.44,396.33,384.2,396.82Zm-8.08,1.64a25.32,25.32,0,0,1-17.16-3,12.08,12.08,0,0,1-3.75-3.73,2.79,2.79,0,0,1,.22-2.71,2.09,2.09,0,0,1,3.27.08c3.51,3.78,8,5.08,13.07,5.43a20.32,20.32,0,0,0,12.6-2.88c1.61-1,2.76-2.75,4.23-4a14.32,14.32,0,0,1,3.84-2.63,2.9,2.9,0,0,1,2.61,1c2,3.17,3.61,6.43,3.94,10.36a8,8,0,0,1-8.83,8.73c-2.68,0-5.44-.14-7.7-2a8.29,8.29,0,0,1-2.41-2.66C379.21,398.47,378,398.1,376.12,398.46Zm14.67-5.14a41.64,41.64,0,0,0,3,5.43c2.26-1.16,1.88-3.69-1.63-8.28C391.56,391.63,390.56,392.72,390.79,393.32Z"/><path d="M360.59,374.79c.12-1,2.54-3,3.61-2.89a3.85,3.85,0,0,1,3.53,4.31c-.14,1.46-1.61,2.39-3.58,2.24C362.53,378.33,360.43,376.17,360.59,374.79Z"/><path class="cls-3" d="M404.65,362.33c7.86-1.21,14.15,3.46,17.37,9.08a6.59,6.59,0,0,1,.75,3c.1,4.58-.8,8.88-3.82,12.54-3.13,3.81-5.93,8-9.46,11.35-3.08,3-7,5-10.52,7.57a105.12,105.12,0,0,0-8.62,6.43c-3,2.69-3.47,6.49-3.28,10.69-7.42-3.27-14.52-6.35-21.55-9.56a13.57,13.57,0,0,1-3.84-2.7c-3.74-3.69-7.89-7.12-10.87-11.37-3.53-5-7.22-10.42-6.29-17.16a24.35,24.35,0,0,1,2.25-7.07,30.77,30.77,0,0,1,4.81-7.8c1.66-1.77,3.14-3.86,5.72-4.91,4.82-2,9-.83,13.08,1.66,3.84,2.36,6.16,6,8,10.06a44.35,44.35,0,0,0,2,4c1.3,2.26,3.85,2.39,5.41.22s2.84-4.42,4.37-6.55C393.76,366.86,398.22,363.32,404.65,362.33ZM359,395.42a25.32,25.32,0,0,0,17.16,3c1.91-.36,3.08,0,3.92,1.9a8.29,8.29,0,0,0,2.41,2.66c2.27,1.88,5,2,7.7,2A8,8,0,0,0,399,396.3c-.33-3.93-2-7.19-3.94-10.36a2.9,2.9,0,0,0-2.61-1,14.32,14.32,0,0,0-3.84,2.63c-1.47,1.28-2.62,3-4.23,4a20.32,20.32,0,0,1-12.6,2.88c-5.09-.35-9.55-1.65-13.07-5.43a2.09,2.09,0,0,0-3.27-.08,2.79,2.79,0,0,0-.22,2.71A12.08,12.08,0,0,0,359,395.42Zm38.32-15.2c0,1.93,1.7,3.16,4.15,3.1,1.22,0,3.47-2.27,3.47-3.45,0-1.6-2.06-3.41-3.84-3.35C398.54,376.6,397.24,377.87,397.28,380.22Zm-36.69-5.42c-.16,1.38,1.94,3.53,3.56,3.66,2,.15,3.44-.78,3.58-2.24a3.85,3.85,0,0,0-3.53-4.31C363.13,371.82,360.72,373.76,360.59,374.79Z"/><path class="cls-4" d="M344,103.39l3.21-4,3,3.8-2.68,4.41Z"/><path d="M344.66,87.75c.61-1.34,1.84-2.19,3.18-1.66a5.64,5.64,0,0,1,2.35,2.52c.34.59.07,1.54.07,2.33,0,4.71,2.36,7.61,6.83,8.8a5,5,0,0,1,2.65,1.56,4,4,0,0,1,.8,3.16,3.69,3.69,0,0,1-2.69,2.09c-3.75-.17-5.06,2.06-5.93,5.08-.51,1.77-1.16,3.5-1.81,5.22-.58,1.52-1.56,2.72-3.37,2.45s-2.42-1.79-2.31-3.39a8,8,0,0,0-2.73-6.7,9,9,0,0,0-4.05-2c-1.53-.33-2.9-.57-3.26-2.29a3.08,3.08,0,0,1,2.16-3.74c5.06-2,7.35-5.86,7.58-11.15A6.36,6.36,0,0,1,344.66,87.75ZM344,103.39l3.57,4.2,2.68-4.41-3-3.8Z"/><path class="cls-5" d="M339.73,280.76c-.18,1.23-1.75,1.8-3.21,1.16-4-1.74-8.1-3.26-11.87-5.39-2.66-1.5-4.86-3.84-7.25-5.81-4.72-3.9-5.13-10-7.6-15a3.54,3.54,0,0,1-.25-1.55c.14-8.35.11-16.71.57-25,.17-2.87,1.79-5.63,2.45-8.51a31.12,31.12,0,0,1,8.73-15.87,70,70,0,0,1,6.8-5.68c1.07-.8,2.19-.3,2.66,1,.64,1.79,1.21,3.6,1.77,5.42a3,3,0,0,1-1.11,3.49,27.78,27.78,0,0,0-8.61,12.16c-1.36,3.61-2.79,7.21-3.83,10.91-1.76,6.32-2,12.6.85,18.84,2.08,4.52,4.06,9.09,8,12.25a46,46,0,0,0,7.92,4.61,52.81,52.81,0,0,0,5.41,2.09C340.69,273.43,340.25,277.1,339.73,280.76Z"/><path class="cls-6" d="M342.22,263.63a10,10,0,0,1-8.2-2.93c-3-2.89-6-6-7.85-9.67-2.07-4.08-3.92-8.58-3-13.52a42.94,42.94,0,0,1,5.57-14.56c1.26-2.05,2.17-4.29,3.77-6.07l.38-.4a9.15,9.15,0,0,1,.71-.64l.13-.12h0a7.13,7.13,0,0,0,6.51-.39c3.29-1.68,5.84-4.13,8.44-6.66,3.29-3.19,7.21-5.78,10.24-9.18,5.15-5.77,10.34-11.6,13.77-18.69.32-.64.48-1.36.75-2a2.6,2.6,0,0,1,2.93-1.8c1.5.18,1.93,1.26,2,2.54a20.78,20.78,0,0,1-2.16,9.91c-2.49,5.08-4.59,10.34-7.18,15.37a32.92,32.92,0,0,1-4.78,6.43c-2.74,3.1-5.58,6.11-8.55,9-2.58,2.5-5.36,4.8-8.12,7.1-1.78,1.48-3.47,3-3.53,5.49,0,1.21.05,2.42.11,3.62,0,.84.15,1.68.18,2.52.07,2,.19,4,.14,5.93,0,1.14-.41,2.26-.54,3.4C343.37,253.34,342.8,258.43,342.22,263.63Z"/><path d="M333.64,215.83l.13-.12Z"/><path d="M332.93,216.47l-.38.4C332.68,216.74,332.8,216.6,332.93,216.47Z"/><path class="cls-4" d="M293.17,194.77c-.63.13-1.4-.17-1.94.08-6.29,3-13.33,3-19.91,4.83a4.16,4.16,0,0,1-.94-.06c-2.73.09-5.46.35-8.17.23a76.53,76.53,0,0,1-7.62-1c-1.49-.22-3-.51-4.46-.77l-6.84-1.18c.46-.5.55-.68.62-.67,2.54.4,4.68-1.08,7-1.54s4.64-1.09,6.94-1.72,4.37-1.18,6.48-2c4.72-1.78,9.43-3.58,14.06-5.57,3-1.28,5.83-2.91,8.75-4.38l9.18-4.6q.88-.44,1.72-.95c2.59-1.55,5.2-3.09,7.74-4.69,1.8-1.13,3.55-2.35,5.3-3.55s3.67-2.58,5.51-3.86c1.41-1,2.94-1.79,4.25-2.87,3.72-3.06,7.36-6.2,11.85-8.17,1.94-.85,3.68-2.18,5.57-3.19a19.09,19.09,0,0,1,2.92-1,12.51,12.51,0,0,1,0,2.05,31,31,0,0,1-3.52,10.18,97.49,97.49,0,0,1-7.64,10.32c-3.39,4.25-7.9,7.2-12.35,10.2-2.4,1.61-5.17,3-7,5.09-1.29,1.51-2.84,1.63-4.22,2.45a2.83,2.83,0,0,0-.64.45,13,13,0,0,1-7.18,3.5c-1,.2-1.76,1-2.71,1.45A14.35,14.35,0,0,1,293.17,194.77Z"/><path class="cls-7" d="M297.74,290.37c1.29.06,2.85,0,3.77.65.59.44.26,2.15.29,3.29.06,2.65.21,5.31.08,8a3.17,3.17,0,0,1-2.81,3.13q-6.25,1.08-12.54,2.08c-1.09.18-2.21.25-3.31.39a106.74,106.74,0,0,1-27.73-.14c-2-.27-4-.64-6-1a51.89,51.89,0,0,1-.46-5.41c0-2.3.35-4.6.53-6.89.06-.71-.19-1.63.17-2.08A3.81,3.81,0,0,1,252,290.9c4.18-.33,8.38-.63,12.57-.6,2.87,0,5.73.92,8.58.88,6-.09,12.06-.58,18.09-.84C293.42,290.25,295.59,290.28,297.74,290.37Z"/><path d="M282.35,312.66c-11.5,1.09-23,1.13-34.36-1.06a13.57,13.57,0,0,1-2.48-.65,2.79,2.79,0,0,1-1.93-2.89c.07-2.94-.06-5.89.09-8.83a19.64,19.64,0,0,1,1-4,43.57,43.57,0,0,1,1.61-5.53c1.28-3,3.79-4.12,7-4,6.22.14,12.44.25,18.66.23,4.62,0,9.27-.54,13.87-.31a87.74,87.74,0,0,0,17.43-1.16c1.75-.26,2.57,1,2.93,2.33.53,2.08.79,4.22,1.16,6.34l-.25,0c-.16,3.31-.29,6.62-.48,9.94-.3,5.18-3.09,7.89-8.32,8.14-3.58.17-7.16.26-10.72.54C285.81,311.88,284.1,312.49,282.35,312.66ZM301.51,291c-.92-.68-2.48-.6-3.77-.65-2.15-.09-4.32-.13-6.47,0-6,.26-12.05.75-18.09.84-2.85,0-5.72-.85-8.58-.88-4.2,0-8.39.26-12.57.6a3.81,3.81,0,0,0-2.27,1.49c-.36.46-.11,1.37-.17,2.08-.18,2.3-.5,4.59-.53,6.89a51.89,51.89,0,0,0,.46,5.41c2,.32,4,.69,6,1a106.74,106.74,0,0,0,27.73.14c1.11-.14,2.22-.21,3.31-.39q6.27-1,12.54-2.08a3.17,3.17,0,0,0,2.81-3.13c.12-2.64,0-5.3-.08-8C301.77,293.18,302.1,291.46,301.51,291Z"/><path d="M259.33,419a9.54,9.54,0,0,1,.39-.95.72.72,0,0,1,.15-.21,2,2,0,0,0,.28.71,23,23,0,0,0,1.95,2.14c-1.33-.49-2.51-1.34-3.08-1a1,1,0,0,0-.2.14,1.3,1.3,0,0,1,.22-.21A1.43,1.43,0,0,0,259.33,419Z"/><path class="cls-4" d="M259.71,418a9.54,9.54,0,0,0-.39.95,1.43,1.43,0,0,1-.3.6,1.3,1.3,0,0,0-.22.21l0,0-.1.1a.64.64,0,0,0-.1.12l-.08.12a4,4,0,0,0-.25.45l-.14.33c-.08.2-.16.4-.24.6l-.08.19-.09.23-.15.32c-1.22,2.37-2.3,4.84-3.74,7.07-.67,1-2.05,1.59-3.11,2.36a11,11,0,0,1-.58-3.29,36.27,36.27,0,0,1,1.46-7c1.55-4.6,3.33-9.12,5.06-13.65.86-2.26,1.79-4.49,2.75-6.71a2.33,2.33,0,0,1,1-.85q3.49-2.11,7-4.17c.19-.11.47,0,.77-.06-1,2.2-2,4.24-2.82,6.35-1.18,3-2.24,6-3.35,9.06-.71,1.92-1.45,3.82-2.09,5.77a1,1,0,0,0,0,.33h0c0,.05,0,.11,0,.16s0,.12,0,.18A.72.72,0,0,0,259.71,418Z"/><path d="M258.25,420.58l-.14.33Z"/><path d="M257.55,422.24l.15-.32C257.66,422,257.61,422.14,257.55,422.24Z"/><path d="M249.3,173.29c-.05-2.6,1.19-4.12,3.39-4.12,2.42,0,5.12,2.08,5.2,4a4.58,4.58,0,0,1-4.44,4.35C250.58,177.55,249.36,176.31,249.3,173.29Z"/><path d="M249.57,163.5h-1c-1.45,0-3,0-3.49-1.78-.33-1.27,1.41-3.27,3.08-3.6,3.47-.69,6.95-1.42,10.45-1.9a31.74,31.74,0,0,1,6.06,0,2.64,2.64,0,0,1,2.62,3.07c-.1,1.71-1.21,2.28-2.93,2.45-4.94.5-9.87,1.25-14.8,1.9A.79.79,0,0,1,249.57,163.5Z"/><path class="cls-8" d="M244.23,121.54a7.82,7.82,0,0,0,3.84.62c3.86-.09,7.83.15,11.56-.67,4.64-1,9.54-1.06,13.89-3.55,2.06-1.18,4.63-1.48,7-2.23,2.66-.86,5.63-1.29,7.88-2.78,3.45-2.28,7.55-3,10.94-5.23,1-.66,2-1.37,3.49-2.43-.14,1.24,0,2-.31,2.49-1.84,2.94-4,5.69-5.61,8.76-2.2,4.26-6.74,5.94-9.67,9.38-.72.85-2.35.94-3.58,1.31-1.74.52-3.5,1-5.24,1.47a6,6,0,0,1-.76.18c-5.42.8-10.84,2-16.28,2.24-4.2.15-8.61.6-12.55-2.47-2.63-2-6.18-2.88-9.3-4.3-1.25-.57-2.46-1.25-3.68-1.87.09-.25.18-.5.28-.75C238.77,121.13,241.36,119.95,244.23,121.54Z"/><path class="cls-9" d="M222.86,244.88l17.47-12.75.81.41q1.37,11.54,2.74,23.08l-.47.3c-6.31-4.33-12.87-8.17-20.34-10.19Z"/><path class="cls-9" d="M191.15,233.89c.06-2.22,1.14-2.82,3.07-1.79,4.76,2.54,9.58,5,14.23,7.68a79.06,79.06,0,0,1,6.79,4.86c0,.29.08.58.13.87-3.51,2.45-7,4.88-10.5,7.38-1.86,1.34-3.63,2.78-5.44,4.19-1.19.92-2.36,1.87-3.54,2.79s-2.06.48-2.5-.85a13.11,13.11,0,0,1-.45-2.12c-1-6.52-2.7-13-1.59-19.69C191.54,236.15,191.12,235,191.15,233.89Z"/><path class="cls-10" d="M191.33,38.2c.62-1.24,1.68-1.29,2.82-.06,2.21,2.38,2.61,5.43,3.47,8.31a29.63,29.63,0,0,1,1,10,17.2,17.2,0,0,0,1,5.34c.59,2-.24,3.34-2.39,3.5-1.84.14-3.68.34-5.51.62a2.86,2.86,0,0,1-3.38-2.74c-.25-2.87-.42-5.75-.63-8.62H188c0-2.8-.43-5.68.11-8.38A33.12,33.12,0,0,1,191.33,38.2Z"/><path d="M223.08,245.73c7.47,2,14,5.86,20.34,10.19l.47-.3q-1.38-11.54-2.74-23.08l-.81-.41-17.47,12.75Zm.36,5.74c-2.17-2.25-4.27-1.05-6.3.21-2.6,1.62-5.6,2.91-7.59,5.1-3.47,3.82-7.76,6.46-11.78,9.46-1.47,1.09-3.56,1.49-5.44,1.87-1.46.28-4.22-2.91-4.51-5.06-.6-4.41-1.11-8.83-1.66-13.26l.23,0c-.38-4.91-.73-9.82-1.14-14.73a11.89,11.89,0,0,0-.57-3c-.88-2.4,0-4.62.6-6.86.09-.37,1.17-.83,1.65-.71a40.75,40.75,0,0,1,4.19,1.52,86.07,86.07,0,0,1,17.25,8.79,81.8,81.8,0,0,0,10.18,5.13,2.18,2.18,0,0,0,1.78-.32c1.79-1.21,3.5-2.54,5.24-3.84,4.51-3.36,9-6.78,13.56-10.05,1.65-1.18,3.53-2.25,5.7-1.41a2.39,2.39,0,0,1,1.29,1.43c1,4.11,1.88,8.23,2.65,12.38.31,1.71.07,3.51.29,5.25.61,4.82,1.32,9.62,2,14.43.48,3.45-2.06,5.77-5.35,4.68A50.57,50.57,0,0,1,239,259.6c-5-2.54-10-5.22-15-7.85A2,2,0,0,1,223.44,251.47ZM194.22,232.1c-1.93-1-3-.43-3.07,1.79,0,1.11.39,2.26.21,3.32-1.11,6.71.58,13.17,1.59,19.69a13.11,13.11,0,0,0,.45,2.12c.44,1.33,1.24,1.84,2.5.85s2.35-1.87,3.54-2.79c1.8-1.41,3.58-2.85,5.44-4.19,3.47-2.5,7-4.92,10.5-7.38-.05-.29-.09-.58-.13-.87a79.06,79.06,0,0,0-6.79-4.86C203.8,237.08,199,234.63,194.22,232.1Z"/><path class="cls-10" d="M174.38,37.47c.21-1.89,1.47-1.87,2.42-.85a11.25,11.25,0,0,1,2.52,4.11A63.8,63.8,0,0,1,181.92,51a98.29,98.29,0,0,1,.47,10.68c0,.45-.06.92,0,1.37.18,3.35.18,3.35-3,4.47a2.15,2.15,0,0,1-2.86-1.78c-.82-4.34-1.75-8.66-2.57-13-.23-1.22-.25-2.48-.37-3.71l-.31,0C173.59,45.14,174,41.3,174.38,37.47Z"/><path d="M172.6,160.59c-2.57-.65-5.19-1.14-7.7-2-3.79-1.27-7.53-2.67-11.2-4.23a4,4,0,0,1-2.81-4.08c.13-2.13,1-2.71,2.93-1.93,4.63,1.84,9.21,3.82,13.93,5.43,2.13.73,4.51.73,6.78,1a3.35,3.35,0,0,1,3.23,3.32c0,1.28-.44,2-1.77,2.08l-3.33.16C172.63,160.44,172.63,160.52,172.6,160.59Z"/><path class="cls-8" d="M243.65,115.4c-2.53-.9-4.89.08-7.33.27-3.06.23-6.13.4-9.2.6-3.69.24-7.37.45-11.06.76s-7.56.76-11.34,1.13a4.47,4.47,0,0,0-.59,0l-9,2.3a6.21,6.21,0,0,1-2.1.48c-4.07-.52-7.81,1.24-11.75,1.64-3.72.37-7.37,1.29-11.09,1.77-3.25.42-6.54.48-9.79.83-2.51.27-5,.74-7.49,1.12s-4.87.75-7.31,1.1a2.77,2.77,0,0,1-1.54,0,7.45,7.45,0,0,0-5.56-1c-.24.06-.8-1.23-1.14-1.77.77-3.29,1.37-6.23,2.18-9.11.49-1.79,2.18-3.81,1.73-5.19-.74-2.21.76-3.39,1.12-5,1.39-6.51,5.81-11.27,10-16.13a34.44,34.44,0,0,1,5.22-5.49c3.46-2.56,7.24-4.68,10.86-7a9.92,9.92,0,0,1,7.86-1.41,1.78,1.78,0,0,0,1.53-.55c1.63-2.6,4.42-1.81,6.72-2.34a33.23,33.23,0,0,1,4.55-.39l10.35-.89a1.85,1.85,0,0,1,.78,0c3.41,1.4,7.16,0,10.63,1.33s7.1,2.25,10.6,3.53,7.16,2.73,10.63,4.35a30.53,30.53,0,0,1,10.16,8.19c3,3.47,6,6.89,8,11.08,2.32,4.63,5.21,9,7.84,13.43a2.39,2.39,0,0,1,.3.73c.15.86.6,2.31.32,2.48a5.48,5.48,0,0,1-2.92.56c-2.59-.12-5.18-.35-7.76-.62A19.08,19.08,0,0,1,243.65,115.4Z"/><path class="cls-4" d="M158.44,406.21c-.53-1.31-1-2.63-1.77-4.57,2.12.4,3.75.6,5.34,1,3.93,1,5.35,3.93,5.9,7.67a30.09,30.09,0,0,0,1.7,5.11,2.24,2.24,0,0,1,.25,1.12c-.63,2.33.59,4.26,1.06,6.38.66,3,.55,6.07.77,9.2a4.33,4.33,0,0,1-4.28-2.68c-1.59-3.81-3-7.7-4.41-11.57-.72-1.91-1.38-3.85-2.13-5.75S159.24,408.2,158.44,406.21Z"/><path class="cls-10" d="M155.44,33.76c.1-1,1.23-1.8,2.07-3a20.49,20.49,0,0,1,5.56,8.82c1.48,4.1,3.16,8.14,4.5,12.28.81,2.44,1.1,5,1.7,7.55.46,1.9,1,3.79,1.59,5.65s.59,3.24-1.42,4.16c-2.35,1.07-4.62,2.33-7,3.37-1.52.68-2.38-.18-2.67-1.63-1.34-6.62-2.83-13.22-3.91-19.88A65.17,65.17,0,0,1,155.44,33.76Z"/><path d="M164.37,167.19c3.09,0,5,2,4.94,5.33,0,2.5-1.32,3.48-4.61,3.47-3.5,0-5.18-1.66-5.14-5C159.59,168.6,161.41,167.17,164.37,167.19Z"/><path class="cls-6" d="M248,311.59c11.4,2.19,22.87,2.15,34.36,1.06,1.75-.17,3.46-.78,5.2-.91,3.57-.27,7.15-.37,10.72-.54,5.23-.25,8-3,8.32-8.14.19-3.31.33-6.62.48-9.94l.25,0c-.37-2.11-.63-4.26-1.16-6.34-.36-1.36-1.18-2.59-2.93-2.33a87.74,87.74,0,0,1-17.43,1.16c-4.61-.23-9.25.3-13.87.31-6.22,0-12.44-.09-18.66-.23-3.21-.07-5.72,1-7,4a43.57,43.57,0,0,0-1.61,5.53,19.64,19.64,0,0,0-1,4c-.16,2.93,0,5.89-.09,8.83a2.79,2.79,0,0,0,1.93,2.89A13.57,13.57,0,0,0,248,311.59Zm-83.08-153c2.51.84,5.13,1.33,7.7,2,0-.07,0-.15.05-.22l3.33-.16c1.33-.06,1.82-.8,1.77-2.08a3.35,3.35,0,0,0-3.23-3.32c-2.27-.29-4.65-.29-6.78-1-4.71-1.61-9.29-3.59-13.93-5.43-2-.78-2.79-.2-2.93,1.93a4,4,0,0,0,2.81,4.08C157.38,155.94,161.12,157.35,164.91,158.62Zm83.68,4.88h1a.79.79,0,0,0,0,.1c4.93-.65,9.86-1.39,14.8-1.9,1.73-.18,2.84-.74,2.93-2.45a2.64,2.64,0,0,0-2.62-3.07,31.74,31.74,0,0,0-6.06,0c-3.5.48-7,1.21-10.45,1.9-1.67.33-3.41,2.33-3.08,3.6C245.55,163.52,247.13,163.47,248.58,163.5Zm-31.45,88.18c2-1.26,4.13-2.46,6.3-.21a2,2,0,0,0,.52.28c5,2.63,10,5.3,15,7.85a50.57,50.57,0,0,0,6.71,2.83c3.28,1.09,5.83-1.23,5.35-4.68-.68-4.81-1.39-9.61-2-14.43-.22-1.74,0-3.54-.29-5.25-.77-4.15-1.69-8.27-2.65-12.38a2.39,2.39,0,0,0-1.29-1.43c-2.17-.84-4.05.24-5.7,1.41-4.58,3.27-9,6.69-13.56,10.05-1.74,1.29-3.45,2.63-5.24,3.84a2.18,2.18,0,0,1-1.78.32,81.8,81.8,0,0,1-10.18-5.13A86.07,86.07,0,0,0,191.12,226a40.75,40.75,0,0,0-4.19-1.52c-.48-.12-1.56.34-1.65.71-.56,2.24-1.49,4.45-.6,6.86a11.89,11.89,0,0,1,.57,3c.41,4.91.76,9.82,1.14,14.73l-.23,0c.54,4.42,1.05,8.85,1.66,13.26.29,2.15,3,5.34,4.51,5.06,1.87-.37,4-.77,5.44-1.87,4-3,8.32-5.65,11.78-9.46C211.54,254.58,214.54,253.29,217.14,251.67Zm65-74.21c-.26,0-.54.33-.83.48-3.73,2-7.37,4.21-11.24,5.9a96.3,96.3,0,0,1-12.31,4.35,98,98,0,0,1-13.72,3.06,72.12,72.12,0,0,1-12.56.31c-2.88-.12-4.77,1.54-6.77,3-1.12.8-.06,3,1.58,3.44,4.37,1.09,8.73,2.17,13.13,3.18,4.62,1.06,9.24,2.13,13.9,3a67.6,67.6,0,0,0,7.23.72,64.48,64.48,0,0,0,6.8.38,73,73,0,0,0,8.37-.76c2.9-.43,5.77-1.08,8.63-1.71,2.35-.51,4.66-1.18,7-1.7,3.1-.69,6.35-1,9.32-2a70.42,70.42,0,0,0,10.48-5c4.38-2.46,8.56-5.23,12.81-7.85a16.15,16.15,0,0,1,2,1.91c.88,1.18,1,2.19-.4,3.36a63.41,63.41,0,0,0-5.87,5.94c-2.45,2.72-4.88,5.45-7.1,8.35a33.66,33.66,0,0,0-3.45,5.94,75,75,0,0,0-6.25,21.26,59.22,59.22,0,0,0,.06,17.5c.34,2.26.36,4.57.75,6.82a27.34,27.34,0,0,0,1.54,5.65c1.35,3.23,2.49,6.71,4.56,9.45a27.93,27.93,0,0,0,7.68,6.64,128.5,128.5,0,0,0,13.39,6.91,23.68,23.68,0,0,0,6.14,1.51c1.17.19,1.66.47,1.35,1.72-.9,3.71-1.17,7.7-2.74,11.09-2.13,4.58-2.34,9.53-3.93,14.15-.82,2.36-2,4.59-2.92,6.93-1.05,2.69-2,5.43-3,8.15a4.72,4.72,0,0,1-.41,1.17c-1,1.4-2.18,2.7-3.16,4.13a148.06,148.06,0,0,0-8.19,12.34c-2,3.75-5,6.65-7.62,9.87a59,59,0,0,1-5.4,5.31c-2.27,2.14-4.47,4.39-6.89,6.34-2.57,2.07-5.39,3.86-8.11,5.76-1,.71-2.06,1.36-3.08,2.08-2.51,1.76-5,3.52-7.49,5.32-2.95,2.14-5.79,4.43-8.82,6.43s-6.24,3.59-10.13,2.87a3.7,3.7,0,0,0-2.53.9c-3.71,2.91-8.38,2.73-12.59,4-.56.17-1.29-.26-1.93-.24a2.42,2.42,0,0,0-1.52.48,4,4,0,0,1-4.6,1.05,3.27,3.27,0,0,0-1.64.17c-2.73.61-5.43,1.5-8.2,1.84-7.51.92-15,1.81-22.6,2.33-3.68.25-7.41-.34-11.12-.6-2.22-.16-4.46-.29-6.65-.64-3.36-.54-6.69-1.19-10-1.92-1.75-.39-3.45-1.09-5.19-1.6-4.25-1.27-8.52-2.4-12.72-3.8a50.87,50.87,0,0,1-5.68-2.71,4.07,4.07,0,0,0-1.62-.63c-2.77,0-4.75-1.33-6.8-3-1.88-1.57-4.26-2.54-6.39-3.82s-4.43-2.33-6.22-4c-2.71-2.47-5.92-4-9-5.78-1.83-1.06-3.35-2.65-5.11-3.87-3.26-2.26-6.66-4.3-9.84-6.65-2.62-1.93-5-4.25-7.49-6.3-3.79-3.07-5.38-7.76-8.49-11.33-2.41-2.76-4.67-5.66-6.92-8.56a11.48,11.48,0,0,1-1.61-2.87c-1.58-4.17-3.33-8.31-4.5-12.6a39.58,39.58,0,0,0-1.12-4.65c-1.67-4.22-1-8.74-1-13.16,0-.26.16-.56.08-.78-1.38-3.6,1.21-5,3.64-6.25,2.83-1.51,5.81-2.75,8.67-4.23a20.5,20.5,0,0,0,4.1-2.67c4.07-3.58,8.19-7.12,12-11,1.74-1.78,2.75-4.28,4-6.48,1.75-3,3.8-5.83,5.08-9a59.46,59.46,0,0,0,3.61-12.09c.92-5.26,1.81-10.64.64-16-.79-3.62-1.82-7.19-2.75-10.78a50.22,50.22,0,0,0-4.3-10.18c-2.78-5.42-7.09-9.6-10.5-14.48-2.08-3-5.17-4.29-7.81-6.31-1.6-1.21-1.34-2.23-.63-3.44,1.57-2.63,3.32-5.13,4.88-7.76a24.44,24.44,0,0,0,2.19-4.62,39.53,39.53,0,0,1,8-13.67c2.38-2.7,4.59-5.54,6.94-8.27a25.64,25.64,0,0,1,2.32-2.14c2-1.83,3.93-3.69,6-5.47,2.51-2.2,5.09-4.34,7.67-6.47,2.25-1.86,4.46-3.8,6.86-5.44a11.72,11.72,0,0,1,4.49-1.76c4.59-.8,9.21-1.51,13.86-2,4.45-.47,8.94-.58,13.41-.91,2.58-.18,5.16-.45,7.73-.73,4.45-.48,8.91-.94,13.34-1.55,3.7-.51,7.35-1.3,11-1.81,5.71-.81,11.43-1.51,17.16-2.22,3.65-.45,7.3-.93,11-1.24a3.77,3.77,0,0,1,2.25.93c2.61,2,5,4.26,7.74,6a39.78,39.78,0,0,0,6.78,3.1c2.72,1.1,5.45,2.21,8.24,3.09a28.58,28.58,0,0,0,10.94.91c5.74-.43,11.58-.45,16.88,2.39,2.38,1.27,4.5,3,6.8,4.45s5,2.78,7.28,4.44a63.81,63.81,0,0,1,12.13,10.74c1.64,2,1.69,2.63-.34,4.16-2.81,2.12-5.74,4.09-8.62,6.1-2.41,1.69-4.65,3.91-7.33,4.84C286.53,175.39,284.89,177.72,282.16,177.46ZM164.37,167.19c-3,0-4.78,1.41-4.81,3.78,0,3.35,1.64,5,5.14,5,3.29,0,4.59-1,4.61-3.47C169.33,169.23,167.46,167.21,164.37,167.19Zm84.93,6.1c.06,3,1.28,4.26,4.14,4.23a4.58,4.58,0,0,0,4.44-4.35c-.08-1.92-2.78-4-5.2-4C250.49,169.17,249.25,170.68,249.3,173.29Z"/><path class="cls-5" d="M74.09,289.47a1.75,1.75,0,0,1-2.17-1.76,90.51,90.51,0,0,1,.25-9.59c.06-.7,1.39-1.53,2.29-1.86a37.76,37.76,0,0,0,13.43-9c3.87-3.84,5.71-8.56,6.85-13.82,1-4.71,2-9.37,1.77-14.2a78.61,78.61,0,0,0-.93-10,22.11,22.11,0,0,0-2.48-5.75c-1.81-3.51-3.6-7.05-5.68-10.4a32.08,32.08,0,0,0-4.39-5c-1-1-1.6-2-1.06-3.47.87-2.39,1.6-4.83,2.55-7.73,3.87,2.75,7.51,4.42,9.89,7.86,1.83,2.63,4.06,5,6.11,7.44a32,32,0,0,1,6.23,13.13c.9,3.64,1.58,7.32,2.27,11a8.87,8.87,0,0,1-.14,2.72c-.54,4.44-.81,8.94-1.78,13.29-1.17,5.23-2.65,10.45-6,14.87-2.16,2.88-3.92,6.16-6.47,8.61a109.8,109.8,0,0,1-11.11,8.7,61.35,61.35,0,0,1-6.32,4A9.22,9.22,0,0,1,74.09,289.47Z"/><path class="cls-5" d="M64.5,185.58c5.59-.19,10.34,2.33,15.63,4.44l-3.61,11.22a5.62,5.62,0,0,1-.37.91c-.9,1.61-.24,4.25-2.69,4.78a30.93,30.93,0,0,1-5.8.33c-4.17.1-8.33.15-12.5.22l-14.67.26c-.71,0-1.41,0-2.39,0a26.9,26.9,0,0,1,.36-4.07c1.2-5,2.6-9.92,6.64-13.48a10.72,10.72,0,0,1,3.39-1.76c1.19-.43,2.51-.47,3.7-.9A39.68,39.68,0,0,1,64.5,185.58Z"/><path class="cls-6" d="M72.27,269.49l-.58-.63c.28-2.8.66-5.58.81-8.38a81.18,81.18,0,0,0,.21-10.8c-.27-3.38-2-3.9-4.69-2.91s-4,3-5.24,5.17c-1.07,1.9-2.17,3.78-3.2,5.69a13.77,13.77,0,0,0-.69,2c-.45,1.26-.75,2.48-2.27,3.14-.79.33-1.28,1.57-1.75,2.47A22.43,22.43,0,0,0,52.59,277c.17,3.09.14,6.31,2,9,.62.92,1.46,1.7,2,2.66,1,1.84,2,3.74,2.88,5.67.66,1.48-.06,2.37-1.54,2.89-3.66,1.29-6.72-.12-9.21-2.37a30,30,0,0,1-8.79-13.6c-1.6-5,.35-9.12,1.12-13.56a44.09,44.09,0,0,1,5.31-13.63c2-3.68,3.91-7.46,6.24-11,2.46-3.68,5.65-6.89,8-10.62,3.35-5.26,8.2-9,12.5-13.31a14.87,14.87,0,0,0,2.09-2.6c2.06-3.35,5.38-3.65,7.81-.6a32.2,32.2,0,0,1,6,12.3c.54,2.14.26,4.49.33,6.74.09,3.05.32,6.12.19,9.16a42.11,42.11,0,0,1-1,6.71c-.59,2.79-1.3,5.56-2,8.31-.83,3.17-3.23,5-5.93,6.42S75,268.2,72.27,269.49Z"/><path class="cls-5" d="M51,180.4c0-.2-.08-.39-.12-.59C63.15,171,76.86,167,92,167.07l-9.22,18c-5.14-2-10-4.42-15.5-4.63S56.45,180.4,51,180.4Z"/><path class="cls-5" d="M57.4,303.64l8-3.9a15.32,15.32,0,0,1,.35,2.49c-.15,5.75-.68,11.49.54,17.22a31.62,31.62,0,0,1,.18,5.86,2.44,2.44,0,0,1-2.57,2.81c-1.43.09-3.14.72-4.21.15-.69-.37-.39-2.48-.64-3.79-1-5.31-.94-10.69-1.12-16C57.83,306.8,57.56,305.21,57.4,303.64Z"/><path class="cls-5" d="M67.91,212.6c.61-.05,1.23,0,2.25,0-1.78,2-3.26,3.75-4.81,5.43a1.76,1.76,0,0,1-1.19.49c-2.93,0-5.87-.17-8.81-.18-2.75,0-5.5.12-8.25.15-3.14,0-6.28,0-9.69,0a10.59,10.59,0,0,1,.07-2.87A2.16,2.16,0,0,1,39,214.4c5.84-.59,11.69-1.16,17.55-1.54,2.79-.18,5.62.07,8.43.06C66,212.91,66.94,212.67,67.91,212.6Z"/><path class="cls-5" d="M64.09,288.41a14.7,14.7,0,0,1-3.69-8.7c-.63-6.22,2.08-11.57,4.44-17v25.58Z"/><path class="cls-5" d="M51.86,234.06l-.71-.09c0-1.94-.05-3.87,0-5.8,0-.34.67-.87,1.08-.92,1.44-.2,2.9-.22,4.36-.32,0,.21.08.42.11.63Z"/><path class="cls-5" d="M37.11,227.66h7.31c.69,4.56,1.37,8.82,1.94,13.11a3.49,3.49,0,0,1-.61,2c-1.53,2.67-3.35,5.19-4.63,8-1.73,3.75-3.05,7.68-4.91,11.68-.15-1.52-.44-3-.44-4.56,0-2.39.11-4.77.3-7.15.07-1,.63-1.87.67-2.82.18-4.18.27-8.37.36-12.55C37.14,232.74,37.11,230.22,37.11,227.66Z"/><path class="cls-5" d="M45.33,330c-2.44,0-3.85-1.77-4.15-5.12-.48-5.51-1-11-1.45-16.53-.12-1.55.14-3.15-.06-4.69-.63-4.61-1.39-9.19-1.76-13.9.55.92,1.09,1.86,1.66,2.78a26.91,26.91,0,0,0,11.15,10,3.93,3.93,0,0,1,1.72,2.91c.15,6.21,0,12.43.1,18.64,0,1,.77,2.05,1.24,3,.3.62.71,1.18,1.15,1.91a7.41,7.41,0,0,1-2,.77C50.41,329.95,47.87,330,45.33,330Z"/><path d="M44.42,227.66H37.11c0,2.57,0,5.09,0,7.61-.08,4.18-.18,8.37-.36,12.55,0,.95-.6,1.87-.67,2.82-.18,2.38-.3,4.77-.3,7.15,0,1.52.29,3,.44,4.56,1.86-4,3.18-7.93,4.91-11.68,1.28-2.78,3.1-5.3,4.63-8a3.49,3.49,0,0,0,.61-2C45.79,236.48,45.11,232.21,44.42,227.66Zm40.12-30.78c-.95,2.9-1.68,5.33-2.55,7.73-.54,1.49.08,2.45,1.06,3.47a32.08,32.08,0,0,1,4.39,5c2.08,3.35,3.86,6.89,5.68,10.4a22.11,22.11,0,0,1,2.48,5.75,78.61,78.61,0,0,1,.93,10c.26,4.83-.75,9.49-1.77,14.2-1.14,5.26-3,10-6.85,13.82a37.76,37.76,0,0,1-13.43,9c-.9.33-2.23,1.16-2.29,1.86a90.51,90.51,0,0,0-.25,9.59,1.75,1.75,0,0,0,2.17,1.76,9.22,9.22,0,0,0,3.15-1,61.35,61.35,0,0,0,6.32-4,109.8,109.8,0,0,0,11.11-8.7c2.56-2.45,4.31-5.73,6.47-8.61,3.32-4.43,4.8-9.64,6-14.87,1-4.35,1.23-8.85,1.78-13.29a8.87,8.87,0,0,0,.14-2.72c-.68-3.69-1.37-7.37-2.27-11a32,32,0,0,0-6.23-13.13c-2.05-2.46-4.28-4.81-6.11-7.44C92,201.3,88.4,199.63,84.54,196.88Zm287.79-47.71c2.91,2.2,6.34,2.05,9.67,1.3a18.74,18.74,0,0,0,6.36-2.32c5.55-3.81,7.44-9.37,7.19-16-.15-3.83-2-6.91-3.73-10a7.82,7.82,0,0,0-3.44-2.66,12.94,12.94,0,0,0-4.14-1c-4-.45-8,.3-10.93,2.94a20.69,20.69,0,0,0-7.18,14.42,31.56,31.56,0,0,0,.34,4.4C365.49,145,369.31,146.89,372.33,149.17ZM159.78,71c.3,1.46,1.15,2.31,2.67,1.63,2.36-1,4.63-2.3,7-3.37,2-.92,2-2.37,1.42-4.16s-1.13-3.75-1.59-5.65c-.6-2.51-.89-5.11-1.7-7.55-1.35-4.14-3-8.18-4.5-12.28a20.49,20.49,0,0,0-5.56-8.82c-.84,1.15-2,2-2.07,3a65.17,65.17,0,0,0,.42,17.36C156.95,57.78,158.44,64.38,159.78,71ZM51.15,234l.71.09,4.89-6.5c0-.21-.07-.42-.11-.63-1.45.09-2.92.12-4.36.32-.41.06-1.06.58-1.08.92C51.1,230.1,51.15,232,51.15,234ZM176.45,65.72a2.15,2.15,0,0,0,2.86,1.78c3.22-1.12,3.21-1.12,3-4.47,0-.45.05-.92,0-1.37A98.29,98.29,0,0,0,181.92,51a63.8,63.8,0,0,0-2.6-10.25,11.25,11.25,0,0,0-2.52-4.11c-.95-1-2.21-1-2.42.85-.42,3.83-.79,7.67-1.18,11.51l.31,0c.12,1.24.14,2.49.37,3.71C174.71,57.06,175.63,61.38,176.45,65.72Zm-111.1,234-8,3.9c.16,1.57.43,3.17.48,4.77.18,5.36.12,10.74,1.12,16,.25,1.31,0,3.42.64,3.79,1.07.57,2.78-.06,4.21-.15a2.44,2.44,0,0,0,2.57-2.81,31.62,31.62,0,0,0-.18-5.86c-1.21-5.73-.68-11.47-.54-17.22A15.32,15.32,0,0,0,65.35,299.73ZM80.13,190c-5.29-2.11-10-4.63-15.63-4.44a39.68,39.68,0,0,0-12.3,2c-1.18.43-2.51.46-3.7.9a10.72,10.72,0,0,0-3.39,1.76c-4,3.56-5.44,8.5-6.64,13.48a26.9,26.9,0,0,0-.36,4.07c1,0,1.68,0,2.39,0l14.67-.26c4.17-.07,8.33-.12,12.5-.22a30.93,30.93,0,0,0,5.8-.33c2.45-.53,1.79-3.17,2.69-4.78a5.62,5.62,0,0,0,.37-.91ZM60.41,279.71a14.7,14.7,0,0,0,3.69,8.7l.75-.15V262.67C62.48,268.14,59.78,273.49,60.41,279.71Zm9.75-67.13c-1,0-1.64,0-2.25,0-1,.08-1.93.31-2.9.32-2.81,0-5.63-.24-8.43-.06-5.86.38-11.71,1-17.55,1.54a2.16,2.16,0,0,0-1.55,1.21,10.59,10.59,0,0,0-.07,2.87c3.4,0,6.55,0,9.69,0,2.75,0,5.5-.16,8.25-.15,2.93,0,5.87.15,8.81.18a1.76,1.76,0,0,0,1.19-.49C66.9,216.34,68.38,214.6,70.16,212.58Zm180,215.79a11,11,0,0,0,.58,3.29c1.06-.77,2.44-1.33,3.11-2.36,1.44-2.23,2.52-4.69,3.74-7.07.05-.1.1-.21.15-.32l.09-.23.08-.19c.08-.2.15-.41.24-.6l.14-.33a4,4,0,0,1,.25-.45l.08-.12.1-.12.1-.1,0,0a1,1,0,0,1,.2-.14c.57-.3,1.75.54,3.08,1a23,23,0,0,1-1.95-2.14,2,2,0,0,1-.28-.71h0l0-.17c0-.06,0-.11,0-.16h0a1.17,1.17,0,0,1,0-.33c.63-1.94,1.38-3.85,2.09-5.77,1.12-3,2.18-6.07,3.35-9.06.83-2.11,1.84-4.15,2.82-6.35-.3,0-.58,0-.77.06q-3.53,2.06-7,4.17a2.33,2.33,0,0,0-1,.85c-1,2.22-1.89,4.45-2.75,6.71-1.72,4.53-3.51,9.05-5.06,13.65A36.27,36.27,0,0,0,250.12,428.38Zm-56-390.23c-1.14-1.23-2.2-1.18-2.82.06a33.12,33.12,0,0,0-3.21,8c-.54,2.69-.11,5.58-.11,8.38h-.34c.2,2.87.37,5.75.63,8.62a2.86,2.86,0,0,0,3.38,2.74c1.83-.28,3.66-.48,5.51-.62,2.15-.16,3-1.45,2.39-3.5a17.2,17.2,0,0,1-1-5.34,29.63,29.63,0,0,0-1-10C196.76,43.57,196.36,40.52,194.15,38.14ZM50.91,179.81c0,.2.08.39.12.59,5.42,0,10.85-.17,16.27,0s10.36,2.6,15.5,4.63l9.22-18C76.86,167,63.15,171,50.91,179.81ZM336.51,281.92c1.46.63,3,.07,3.21-1.16.52-3.66,1-7.33,1.45-10.93a52.81,52.81,0,0,1-5.41-2.09,46,46,0,0,1-7.92-4.61c-4-3.16-5.94-7.73-8-12.25-2.87-6.24-2.61-12.51-.85-18.84,1-3.71,2.47-7.31,3.83-10.91A27.78,27.78,0,0,1,331.42,209a3,3,0,0,0,1.11-3.49c-.56-1.82-1.13-3.63-1.77-5.42-.47-1.31-1.59-1.81-2.66-1a70,70,0,0,0-6.8,5.68,31.12,31.12,0,0,0-8.73,15.87c-.66,2.88-2.28,5.64-2.45,8.51-.47,8.33-.43,16.68-.57,25a3.54,3.54,0,0,0,.25,1.55c2.47,5,2.88,11.14,7.6,15,2.39,2,4.59,4.31,7.25,5.81C328.41,278.65,332.53,280.18,336.51,281.92ZM176.29,75.28a9.92,9.92,0,0,0-7.86,1.41c-3.62,2.34-7.4,4.46-10.86,7a34.44,34.44,0,0,0-5.22,5.49c-4.15,4.86-8.56,9.61-10,16.13-.35,1.61-1.86,2.79-1.12,5,.45,1.38-1.24,3.39-1.73,5.19-.8,2.88-1.4,5.82-2.18,9.11.34.54.9,1.83,1.14,1.77a7.45,7.45,0,0,1,5.56,1,2.77,2.77,0,0,0,1.54,0c2.44-.35,4.88-.73,7.31-1.1s5-.85,7.49-1.12c3.26-.35,6.55-.42,9.79-.83,3.72-.48,7.37-1.39,11.09-1.77,3.94-.4,7.68-2.16,11.75-1.64a6.21,6.21,0,0,0,2.1-.48l9-2.3a4.47,4.47,0,0,1,.59,0c3.78-.38,7.55-.81,11.34-1.13s7.37-.51,11.06-.76c3.07-.2,6.14-.37,9.2-.6,2.44-.18,4.8-1.17,7.33-.27a19.08,19.08,0,0,0,4.41.75c2.58.27,5.17.51,7.76.62a5.48,5.48,0,0,0,2.92-.56c.28-.17-.18-1.62-.32-2.48a2.39,2.39,0,0,0-.3-.73c-2.63-4.47-5.53-8.8-7.84-13.43-2.08-4.19-5.07-7.61-8-11.08a30.53,30.53,0,0,0-10.16-8.19c-3.47-1.62-7-3-10.63-4.35s-7.14-2.16-10.6-3.53-7.22.07-10.63-1.33a1.85,1.85,0,0,0-.78,0L189.08,72a33.23,33.23,0,0,0-4.55.39c-2.3.52-5.08-.26-6.72,2.34A1.78,1.78,0,0,1,176.29,75.28ZM41.18,324.89c.3,3.35,1.71,5.14,4.15,5.12s5.08-.06,7.61-.2a7.41,7.41,0,0,0,2-.77c-.44-.73-.85-1.3-1.15-1.91-.47-1-1.23-2-1.24-3-.1-6.21,0-12.43-.1-18.64a3.93,3.93,0,0,0-1.72-2.91,26.91,26.91,0,0,1-11.15-10c-.57-.92-1.11-1.85-1.66-2.78.37,4.7,1.13,9.29,1.76,13.9.21,1.54-.06,3.14.06,4.69C40.18,313.87,40.7,319.38,41.18,324.89Zm7.53-30c2.49,2.25,5.55,3.66,9.21,2.37,1.47-.52,2.2-1.41,1.54-2.89-.86-1.93-1.84-3.83-2.88-5.67-.54-1-1.39-1.74-2-2.66-1.85-2.74-1.82-6-2-9a22.43,22.43,0,0,1,2.28-11.71c.47-.91,1-2.14,1.75-2.47,1.53-.65,1.83-1.87,2.27-3.14a13.77,13.77,0,0,1,.69-2c1-1.92,2.12-3.8,3.2-5.69,1.25-2.22,2.47-4.16,5.24-5.17s4.42-.47,4.69,2.91a81.18,81.18,0,0,1-.21,10.8c-.15,2.8-.52,5.59-.81,8.38l.58.63c2.74-1.28,5.53-2.47,8.21-3.87s5.11-3.25,5.93-6.42c.73-2.76,1.43-5.53,2-8.31a42.11,42.11,0,0,0,1-6.71c.13-3-.1-6.11-.19-9.16-.07-2.25.21-4.6-.33-6.74A32.2,32.2,0,0,0,83,216c-2.43-3-5.75-2.75-7.81.6a14.87,14.87,0,0,1-2.09,2.6c-4.29,4.31-9.15,8-12.5,13.31-2.37,3.73-5.56,6.94-8,10.62-2.33,3.49-4.22,7.27-6.24,11A44.09,44.09,0,0,0,41,267.69c-.77,4.44-2.72,8.55-1.12,13.56A30,30,0,0,0,48.71,294.85Zm108,106.8c.75,1.93,1.24,3.26,1.77,4.57.8,2,1.66,3.94,2.44,5.93s1.41,3.84,2.13,5.75c1.45,3.86,2.82,7.76,4.41,11.57a4.33,4.33,0,0,0,4.28,2.68c-.22-3.13-.12-6.25-.77-9.2-.47-2.12-1.69-4.06-1.06-6.38a2.24,2.24,0,0,0-.25-1.12,30.09,30.09,0,0,1-1.7-5.11c-.55-3.74-2-6.65-5.9-7.67C160.43,402.25,158.79,402,156.67,401.64Zm87.56-280.11c-2.87-1.59-5.46-.41-8.15.17-.1.25-.19.5-.28.75,1.22.63,2.43,1.3,3.68,1.87,3.12,1.42,6.68,2.26,9.3,4.3,3.94,3.07,8.35,2.62,12.55,2.47,5.44-.2,10.86-1.44,16.28-2.24a6,6,0,0,0,.76-.18c1.74-.48,3.5-.94,5.24-1.47,1.23-.37,2.87-.46,3.58-1.31,2.93-3.44,7.47-5.12,9.67-9.38,1.59-3.07,3.77-5.82,5.61-8.76.31-.49.18-1.25.31-2.49-1.51,1.06-2.48,1.77-3.49,2.43-3.39,2.24-7.49,3-10.94,5.23-2.25,1.49-5.22,1.92-7.88,2.78-2.33.75-4.89,1-7,2.23-4.35,2.49-9.25,2.53-13.89,3.55-3.73.82-7.7.58-11.56.67A7.82,7.82,0,0,1,244.23,121.54Zm47,73.31c.54-.25,1.31.05,1.94-.08a14.35,14.35,0,0,0,2.81-.87c.94-.41,1.75-1.26,2.71-1.45a13,13,0,0,0,7.18-3.5,2.83,2.83,0,0,1,.64-.45c1.38-.82,2.93-.93,4.22-2.45,1.81-2.14,4.58-3.47,7-5.09,4.45-3,9-6,12.35-10.2a97.49,97.49,0,0,0,7.64-10.32,31,31,0,0,0,3.52-10.18,12.51,12.51,0,0,0,0-2.05,19.09,19.09,0,0,0-2.92,1c-1.89,1-3.63,2.34-5.57,3.19-4.49,2-8.13,5.11-11.85,8.17-1.31,1.08-2.84,1.9-4.25,2.87-1.84,1.27-3.67,2.58-5.51,3.86s-3.5,2.42-5.3,3.55c-2.55,1.6-5.15,3.14-7.74,4.69q-.84.51-1.72.95l-9.18,4.6c-2.91,1.46-5.76,3.09-8.75,4.38-4.63,2-9.34,3.8-14.06,5.57-2.11.8-4.3,1.38-6.48,2s-4.61,1.25-6.94,1.72-4.49,1.94-7,1.54c-.06,0-.16.17-.62.67l6.84,1.18c1.49.26,3,.55,4.46.77a76.53,76.53,0,0,0,7.62,1c2.71.12,5.44-.14,8.17-.23a4.16,4.16,0,0,0,.94.06C277.9,197.83,284.94,197.88,291.24,194.85Zm-12.3-55c-5.29-2.84-11.13-2.82-16.88-2.39a28.58,28.58,0,0,1-10.94-.91c-2.79-.88-5.52-2-8.24-3.09a39.78,39.78,0,0,1-6.78-3.1c-2.73-1.78-5.13-4.06-7.74-6a3.77,3.77,0,0,0-2.25-.93c-3.66.31-7.31.78-11,1.24-5.72.72-11.45,1.42-17.16,2.22-3.69.52-7.34,1.31-11,1.81-4.43.61-8.89,1.07-13.34,1.55-2.57.28-5.15.54-7.73.73-4.47.33-9,.44-13.41.91-4.65.49-9.27,1.2-13.86,2a11.72,11.72,0,0,0-4.49,1.76c-2.4,1.64-4.61,3.58-6.86,5.44-2.58,2.13-5.15,4.27-7.67,6.47-2,1.77-4,3.64-6,5.47a25.64,25.64,0,0,0-2.32,2.14c-2.34,2.73-4.56,5.56-6.94,8.27a39.53,39.53,0,0,0-8,13.67,24.44,24.44,0,0,1-2.19,4.62c-1.56,2.63-3.32,5.14-4.88,7.76-.72,1.21-1,2.22.63,3.44,2.64,2,5.73,3.33,7.81,6.31,3.41,4.88,7.72,9.06,10.5,14.48a50.22,50.22,0,0,1,4.3,10.18c.93,3.59,2,7.16,2.75,10.78,1.18,5.37.28,10.75-.64,16A59.46,59.46,0,0,1,111,262.72c-1.28,3.17-3.33,6-5.08,9-1.3,2.2-2.3,4.7-4,6.48-3.78,3.87-7.9,7.41-12,11a20.5,20.5,0,0,1-4.1,2.67c-2.86,1.48-5.83,2.72-8.67,4.23-2.43,1.29-5,2.65-3.64,6.25.09.21-.08.51-.08.78,0,4.42-.64,8.94,1,13.16a39.58,39.58,0,0,1,1.12,4.65c1.17,4.29,2.91,8.43,4.5,12.6a11.48,11.48,0,0,0,1.61,2.87c2.25,2.9,4.51,5.8,6.92,8.56,3.11,3.58,4.7,8.26,8.49,11.33,2.54,2.05,4.88,4.36,7.49,6.3,3.18,2.35,6.59,4.39,9.84,6.65,1.75,1.21,3.28,2.8,5.11,3.87,3.09,1.8,6.3,3.31,9,5.78,1.79,1.63,4.11,2.69,6.22,4s4.5,2.25,6.39,3.82c2,1.71,4,3.08,6.8,3a4.07,4.07,0,0,1,1.62.63,50.87,50.87,0,0,0,5.68,2.71c4.2,1.4,8.48,2.54,12.72,3.8,1.74.51,3.43,1.21,5.19,1.6,3.32.73,6.65,1.39,10,1.92,2.19.35,4.43.48,6.65.64,3.71.26,7.44.85,11.12.6,7.55-.51,15.08-1.4,22.6-2.33,2.77-.34,5.47-1.22,8.2-1.84a3.27,3.27,0,0,1,1.64-.17,4,4,0,0,0,4.6-1.05,2.42,2.42,0,0,1,1.52-.48c.65,0,1.37.42,1.93.24,4.21-1.3,8.88-1.12,12.59-4a3.7,3.7,0,0,1,2.53-.9c3.89.73,7.1-.86,10.13-2.87s5.87-4.3,8.82-6.43c2.48-1.8,5-3.56,7.49-5.32,1-.71,2.07-1.37,3.08-2.08,2.72-1.9,5.53-3.69,8.11-5.76,2.42-2,4.62-4.2,6.89-6.34a59,59,0,0,0,5.4-5.31c2.61-3.22,5.57-6.12,7.62-9.87a148.06,148.06,0,0,1,8.19-12.34c1-1.43,2.14-2.73,3.16-4.13a4.72,4.72,0,0,0,.41-1.17c1-2.72,1.91-5.46,3-8.15.91-2.33,2.1-4.56,2.92-6.93,1.6-4.62,1.8-9.58,3.93-14.15,1.57-3.39,1.84-7.38,2.74-11.09.31-1.25-.18-1.53-1.35-1.72a23.68,23.68,0,0,1-6.14-1.51A128.5,128.5,0,0,1,317.51,279a27.93,27.93,0,0,1-7.68-6.64c-2.06-2.74-3.21-6.21-4.56-9.45a27.34,27.34,0,0,1-1.54-5.65c-.39-2.25-.41-4.56-.75-6.82a59.22,59.22,0,0,1-.06-17.5,75,75,0,0,1,6.25-21.26,33.66,33.66,0,0,1,3.45-5.94c2.21-2.9,4.65-5.64,7.1-8.35a63.41,63.41,0,0,1,5.87-5.94c1.36-1.17,1.28-2.18.4-3.36a16.15,16.15,0,0,0-2-1.91c-4.25,2.62-8.43,5.39-12.81,7.85a70.42,70.42,0,0,1-10.48,5c-3,1.08-6.22,1.34-9.32,2-2.34.52-4.66,1.19-7,1.7-2.86.63-5.73,1.28-8.63,1.71a73,73,0,0,1-8.37.76,64.48,64.48,0,0,1-6.8-.38,67.6,67.6,0,0,1-7.23-.72c-4.66-.88-9.29-2-13.9-3-4.39-1-8.76-2.08-13.13-3.18-1.64-.41-2.7-2.63-1.58-3.44,2-1.43,3.9-3.09,6.77-3a72.12,72.12,0,0,0,12.56-.31,98,98,0,0,0,13.72-3.06,96.3,96.3,0,0,0,12.31-4.35c3.87-1.69,7.51-3.91,11.24-5.9.29-.15.57-.5.83-.48,2.72.26,4.36-2.07,6.69-2.87,2.68-.93,4.92-3.15,7.33-4.84,2.88-2,5.8-4,8.62-6.1,2-1.53,2-2.19.34-4.16A63.81,63.81,0,0,0,293,148.75c-2.3-1.65-4.87-2.92-7.28-4.44S281.31,141.13,278.94,139.86Zm61.36,75.47a7.13,7.13,0,0,1-6.51.39h0l-.13.12a9.15,9.15,0,0,0-.71.64c-.13.13-.26.27-.38.4-1.6,1.79-2.51,4-3.77,6.07a42.94,42.94,0,0,0-5.57,14.56c-1,4.94.89,9.44,3,13.52,1.84,3.63,4.88,6.78,7.85,9.67a10,10,0,0,0,8.2,2.93c.58-5.2,1.15-10.28,1.74-15.36.13-1.14.51-2.27.54-3.4.05-2-.06-4-.14-5.93,0-.84-.14-1.68-.18-2.52-.06-1.21-.13-2.42-.11-3.62.06-2.53,1.75-4,3.53-5.49,2.76-2.3,5.54-4.6,8.12-7.1,3-2.87,5.81-5.89,8.55-9a32.92,32.92,0,0,0,4.78-6.43c2.58-5,4.69-10.29,7.18-15.37a20.78,20.78,0,0,0,2.16-9.91c0-1.28-.46-2.36-2-2.54a2.6,2.6,0,0,0-2.93,1.8c-.27.66-.43,1.38-.75,2-3.42,7.08-8.61,12.91-13.77,18.69-3,3.39-7,6-10.24,9.18C346.13,211.19,343.59,213.64,340.29,215.33Zm-151.76-183c.84-1.54,3.61-2.45,5-1.57a12.47,12.47,0,0,1,5.41,5.9,64.72,64.72,0,0,1,4.22,15.89A80.37,80.37,0,0,1,203.65,63c0,1.1.2,1.69,1.49,1.74a35.26,35.26,0,0,1,12.07,2.91c3.34,1.37,6.94,2.14,10.36,3.36,2.2.79,4.2,2.37,6.44,2.78,3,.54,4.81,2.69,6.89,4.28,2.36,1.81,4,4.59,5.94,6.94a46.16,46.16,0,0,1,3.49,4.21c2.3,3.57,4.17,7.46,6.7,10.84s3.69,7.22,5.71,10.71a28.24,28.24,0,0,1,1.46,3.58c3.22-.74,6.55-1.3,9.75-2.31a52.61,52.61,0,0,0,7.59-3.32c3.24-1.62,6.65-3.08,9.56-5.19,4.16-3,9.3-2.36,13.71-4.32,1.58-.71,3.35.79,3.67,2.61.47,2.71-.82,5-1.65,7.43-.23.66-.46,1.31-.76,1.94-.83,1.78-1.62,3.59-2.56,5.32a32.4,32.4,0,0,1-3.13,5A32.46,32.46,0,0,1,295.8,126a55.22,55.22,0,0,1-6.09,4.41,56.18,56.18,0,0,1-5.46,2.57c-.87.41-1.69.88-2.89,1.5,2.28,1.35,4.22,2.46,6.12,3.64,2.31,1.44,4.55,3,6.87,4.4a65.66,65.66,0,0,0,5.8,3.23c2.56,1.22,4.06,3.32,5.65,5.55a43.45,43.45,0,0,0,5.62,5.94c.28.27,1.34.12,1.78-.19,2.71-2,5.33-4.1,8-6.13,1.28-1,2.64-1.84,3.93-2.81a16.6,16.6,0,0,1,2.06-1.72c1.3-.66,2.72-1.11,4.09-1.65a17,17,0,0,1,1.82-.67,73.8,73.8,0,0,1,8.58-2c2.44-.31,5.12,4.12,4.38,7.08a122.16,122.16,0,0,1-3.85,13.78c-1.13,3-3.23,5.61-5.07,8.27-2.31,3.33-4.81,6.52-7.19,9.8a1.49,1.49,0,0,0-.27,1.21,22.65,22.65,0,0,0,2.27,4.53,23.74,23.74,0,0,1,4.7,10.47c.24,1.42,1.21,2.7,1.79,4.07a17.68,17.68,0,0,1,.91,2.66c.35,1.45,1.58,2.16,2.83,1.25,4.51-3.29,9.45-6.08,12.83-10.73a9.29,9.29,0,0,1,1.57-1.76c5-4.14,8.19-9.7,11.34-15.26a28.76,28.76,0,0,1,5.68-7.64c1.14-1,1.18-3.29,1.71-5a.51.51,0,0,0,0-.2c-.05-1.77.49-3.92-.33-5.2s-2.91-1.59-4.53-2c-6.15-1.69-9-6.48-10.46-12-.88-3.39-1.95-7-.65-10.79.85-2.48.94-5.23,1.24-7.86.34-3,2.4-4.92,3.93-7.22,3.38-5.08,8.61-7.53,14-9.67a10.44,10.44,0,0,1,5.26-.12c4.38.72,8.61,1.91,11.53,5.67,1.13,1.45,2.34,2.85,3.34,4.4,5.51,8.6,6,17.49,1.29,26.59a21.56,21.56,0,0,1-11,9.88c-1.89.83-4,1.27-5.9,2-.6.22-1.44.83-1.48,1.31-.15,2.14,0,4.29,0,6.43,0,2.78,1.44,5,2.54,7.46,1.43,3.2,1.07,6.74.81,10.25-.39,5.27-2.74,9.75-5.06,14.24a137.91,137.91,0,0,1-7.22,12.69,54.64,54.64,0,0,1-6.74,7.82c-1.81,1.85-4,3.29-5.94,5.09-2.68,2.54-5.22,5.22-7.79,7.87a2,2,0,0,0-.54,1.21c-.15,4.24-.82,8.58-.18,12.72.71,4.58-.55,8.84-.72,13.25-.08,2,0,3.93-.21,5.86-.41,3.61-.86,7.23-1.54,10.8-.39,2-1.39,3.88-1.89,5.88a6.39,6.39,0,0,0,.25,2.38c-.69,3.23-1.33,6.17-2,9.1a4.85,4.85,0,0,1-.11.77,57.79,57.79,0,0,0-2.42,5.84c-1,3.32-1.67,6.71-2.46,10.09S339,316,338,319.31c-.59,1.93-1.87,3.64-2.74,5.5-1.14,2.42-2.05,4.94-3.28,7.31-1.86,3.58-3.84,7.09-5.89,10.57a70.86,70.86,0,0,1-5.24,8.15c-3.8,4.8-7.15,10-12,13.9-2.81,2.27-5,5.27-7.7,7.72s-5.67,4.78-8.58,7.09c-1.9,1.51-3.88,2.94-5.87,4.36s-4.17,3-6.31,4.35c-.89.59-1.69,1.05-1.06,2.32a1.13,1.13,0,0,1-.21,1.06c-2.42,2.11-3.29,5.05-4.47,7.88-1.82,4.36-3.95,8.58-5.91,12.88-1.85,4-3.89,8-5.43,12.11-1.74,4.67-5.19,8.08-8.25,11.69-1.58,1.87-4.74,2.35-7.34,1.27a4.87,4.87,0,0,1-3.25-4.71,60.63,60.63,0,0,1,.87-9.51c.56-2.88,1.87-5.61,2.63-8.47,1-3.58,1.71-7.22,2.64-11.19a11.15,11.15,0,0,1-2.31.93c-4.88.73-9.76,1.57-14.67,2-3.63.33-7.42-.42-11,.27a112.75,112.75,0,0,1-17.2,1.61c-5.28.2-10.58.46-15.85.17-3.6-.2-7.16-1.32-10.74-1.94a32.3,32.3,0,0,0-4.68-.44c-1.11,0-1.25.58-.85,1.59,1.06,2.59,2,5.23,3,7.84a2.85,2.85,0,0,1,.21.76c.32,6,.59,11.94.94,17.91a4.87,4.87,0,0,1-2.26,4.89c-1.59.93-3.23.49-5-.12-3.86-1.32-5.62-4.8-8.21-7.35-1.25-1.23-1.29-3.63-2-5.44-1.62-3.92-3.38-7.77-5-11.68-1.34-3.26-2.71-6.53-3.79-9.88-1.19-3.72-3.12-6.29-7-7.94a119.94,119.94,0,0,1-15.75-8.42c-4.21-2.61-8-5.92-12-8.8-4.56-3.25-9.24-6.35-13.84-9.56A76.78,76.78,0,0,1,94,363.72c-2.21-2.05-3.86-4.73-5.68-7.19s-3.55-5-5.31-7.5c-.51-.74-1-1.51-1.5-2.27-2.21-3.31-4.47-6.59-6.62-9.93A40.63,40.63,0,0,1,72.91,333c-.38-.74-.78-1.47-1.11-2.07-5.38,2-10.45,4-16.12,4-4.83,0-9.65.5-14.48.73-4.31.21-4.5.12-5.86-4-1-3.12-1.64-6.4-2.86-9.43-1-2.59-.3-5-.27-7.55a36.5,36.5,0,0,0-.42-4.14c-.16-1.56-.42-3.12-.47-4.69-.19-6.32-.27-12.64-.51-19-.08-2.26-.61-4.5-.73-6.76-.07-1.27.39-2.57.36-3.84,0-2-.29-3.93-.48-5.89-.28-3-.8-5.94-.82-8.91,0-4.63.15-9.27.48-13.88.29-4.21,1.13-8.39,1.27-12.6.11-3.29.6-6.54.1-9.91-.53-3.59.24-7.35-.13-11-.4-4,1.64-7.74,1.17-11.73a2.67,2.67,0,0,1,.46-1.69c1.77-2.59,2.1-5.78,3.52-8.48,1.26-2.39,2.89-4.58,4.34-6.87.68-1.08,1.32-2.19,2-3.28,2.22-3.7,3.74-8,8-10,.12-.06.28-.12.31-.22,1.12-3.67,4.78-3.34,7.39-4.56A46.19,46.19,0,0,1,66,164.61c2.56-.66,5.22-.94,7.81-1.51.82-.18,1.52-1,2.32-1.12,3.36-.36,6.75-.52,10.13-.83a27.82,27.82,0,0,1,3.54-.55,10.66,10.66,0,0,1,4,.88c1.73.82,2.55-.14,3.41-1.25,2.88-3.73,5.67-7.56,8.67-11.19a75,75,0,0,1,6.74-7.08c2.19-2,4.61-3.81,7-5.65a37.29,37.29,0,0,1,4-2.66c.31-.19.93.13,1.57.24,1.25-2.43,2.43-3.22,5.49-3.7.36-3.95.61-7.9,1.13-11.81a96.26,96.26,0,0,1,1.91-10.24,31.34,31.34,0,0,1,2.36-5.82c1.15-2.4,2.36-4.78,3.72-7.07a36.79,36.79,0,0,1,3.93-5.62c2.27-2.56,4.81-4.89,7.22-7.33,1.45-1.46,2.9-2.92,4.26-4.44a1.77,1.77,0,0,0,.14-1.29c-.61-3.39-1.24-6.78-1.92-10.16-1.11-5.5-2.31-11-3.36-16.5a52.7,52.7,0,0,1-1.23-9.08c0-2.25.34-4.47-.55-6.64-.1-.22-.17-.62-.06-.73,2.16-2.08,1.89-5.82,5-7.25a4.38,4.38,0,0,0,1.47-1.3c1.23-1.57,2.33-1.81,3.64-.38,2.64,2.86,5.52,5.55,7.15,9.2A18.54,18.54,0,0,0,167,36.43c.22.33.72.79,1,.72a1.7,1.7,0,0,0,1.13-.91,9.59,9.59,0,0,1,5-6.19,3.81,3.81,0,0,1,3.1.23,10.6,10.6,0,0,1,5.34,7.34,8,8,0,0,0,.91,1.87,29.15,29.15,0,0,0,3.2-3.33A36.13,36.13,0,0,0,188.53,32.35Z"/></svg>