<svg id="圖層_1" data-name="圖層 1" xmlns="http://www.w3.org/2000/svg" viewBox="0 0 511.64 388.04"><defs><style>.cls-1{fill:none;stroke:#fff;stroke-miterlimit:10;stroke-width:5px;}.cls-2{fill:#0e0d0d;}.cls-12,.cls-13,.cls-2,.cls-3,.cls-4,.cls-5,.cls-6,.cls-7{fill-rule:evenodd;}.cls-3{fill:#fefefe;}.cls-4{fill:#c46e8f;}.cls-5{fill:#338bac;}.cls-6{fill:#53963d;}.cls-7{fill:#cfaf43;}.cls-8{fill:#c9a63e;}.cls-9{fill:#d05351;}.cls-10{fill:#a53226;}.cls-11{fill:#fff;}.cls-12{fill:#c03327;}.cls-13{fill:#c26f27;}</style></defs><title>graphic</title><polygon class="cls-1" points="161.61 38.97 288.53 268.59 26.22 263.7 161.61 38.97"/><path class="cls-2" d="M144.14,187.63A22.93,22.93,0,0,1,133,185.17a60.19,60.19,0,0,1-23.11-19.27c-10-14-4.83-34,10.53-42.85,7.64-4.41,15.76-7,24.74-6.18a13.46,13.46,0,0,0,3.34.06c10.29-1.67,17.7,3.32,24.58,10.12,4.74,4.68,6.26,10.52,7.21,16.65,3.4,22-8.43,38.85-30.29,43.56A31.56,31.56,0,0,1,144.14,187.63ZM147,122.4c-10.25-1.42-18.9.91-25.61,8.91a45.24,45.24,0,0,0-8.5,15.06c-3,9.07.84,15.06,10.12,16.39l.74.09a46.26,46.26,0,0,0,47.61-23.13c1.39-2.47,1.19-4.49-.62-6.75C164.57,125.21,157.18,120.32,147,122.4Zm27.64,20.38c-1.24.3-1.53,1.19-2,1.85a67.53,67.53,0,0,1-13.18,13.48c-11.32,8.61-24.2,10.54-37.93,8.78-.8-.1-1.77-.75-2.27.4s.59,1.49,1.22,2c3.65,2.75,7.22,5.63,11,8.17,5,3.38,10.69,5.32,16.79,4.7,14.63-1.48,25.41-11.88,27.23-26.4C176,151.48,176.91,146.95,174.65,142.77Z"/><path class="cls-3" d="M147,122.4c10.18-2.08,17.56,2.81,23.75,10.58,1.81,2.26,2,4.28.62,6.75a46.26,46.26,0,0,1-47.61,23.13l-.74-.09c-9.28-1.33-13.09-7.32-10.12-16.39a45.24,45.24,0,0,1,8.5-15.06C128.1,123.31,136.75,121,147,122.4Z"/><path class="cls-4" d="M174.65,142.77c2.26,4.17,1.38,8.7.85,13-1.82,14.52-12.6,24.92-27.23,26.4-6.09.61-11.75-1.33-16.79-4.7-3.79-2.54-7.37-5.41-11-8.17-.64-.48-1.72-.84-1.22-2s1.47-.5,2.27-.4c13.73,1.75,26.61-.17,37.93-8.78a67.53,67.53,0,0,0,13.18-13.48C173.12,144,173.4,143.07,174.65,142.77Z"/><path class="cls-2" d="M145.89,247c-2.28,3.73-4.13,7.09-6.29,10.23-9.83,14.27-25.6,19.53-44.32,14.72-14-3.59-24.8-11.36-28.17-25.91-2.62-11.3-3.82-23.21,2.77-33.91,7.73-12.55,19.51-18.66,34-19.14,18.32-.61,29.62,10.85,39.73,24.05.44.58.77,1.25,1.16,1.88,0,.08.17.11.51.3,2.76-11.33,10.88-18.55,19.37-25.52a13.62,13.62,0,0,1,7.25-3.4c12.4-1.36,24.66-.7,35.46,6.05,13.59,8.49,18.55,21.15,15.76,37-3.81,21.64-19.6,34.71-41.41,33.46-13-.75-24-6.25-32.65-16.12C148.1,249.55,147.14,248.43,145.89,247ZM104,198c-6.07.33-11.09,2.41-16.16,4.39a5.9,5.9,0,0,0-4.07,6,40.75,40.75,0,0,0,2.74,16.71c5.14,12.36,15.22,19.76,26.32,26.11a35.69,35.69,0,0,0,17.31,4.76c2.82.05,5.2-.93,6.51-3.46,3.33-6.42,5.51-13,5-20.54-1.22-18.1-16.37-27.87-31.95-33.47A13,13,0,0,0,104,198Zm66.64,45.08c8.47-1.11,17.57-3.3,25.9-7.89,9.59-5.28,15.24-13.41,17.05-24.26a5,5,0,0,0-1.92-5.15c-9.49-8.24-20.56-11.55-33-10.57-6.39.51-12.19,2.17-17,7.11-7.33,7.54-11.73,15.91-11.38,26.76.26,8.17,2.23,11.39,10.16,13.42A32.1,32.1,0,0,0,170.68,243.08Zm-40.46,17.3c-27.86-6.87-47.58-21.47-51.72-51.62-13.39,11.54-9.3,38.14,0,48.63C88.22,268.29,115.74,275.75,130.22,260.38Zm87.28-44.25c-1.57,2.65-2.67,4.56-3.82,6.44-6.85,11.22-16.32,19-29.12,22.67-8.59,2.44-17.31,2.59-26.11,2-.71,0-1.58-.67-2.07.08s.12,1.64.56,2.38a16.63,16.63,0,0,0,9.39,7.43c12.62,4.19,25.07,2.92,37.38-1.4a12.38,12.38,0,0,0,6.5-5.28c1.7-2.73,3.46-5.43,5.09-8.2C220.07,234.18,220.47,225.73,217.5,216.12Z"/><path class="cls-3" d="M104,198a13,13,0,0,1,5.72.45c15.58,5.59,30.73,15.37,31.95,33.47.51,7.53-1.68,14.12-5,20.54-1.31,2.53-3.69,3.51-6.51,3.46a35.69,35.69,0,0,1-17.31-4.76c-11.1-6.35-21.18-13.75-26.32-26.11a40.75,40.75,0,0,1-2.74-16.71,5.9,5.9,0,0,1,4.07-6C92.95,200.42,98,198.34,104,198Z"/><path class="cls-3" d="M170.68,243.08a32.1,32.1,0,0,1-10.12-.58c-7.94-2-9.9-5.25-10.16-13.42-.35-10.85,4-19.21,11.38-26.76,4.8-4.93,10.61-6.6,17-7.11,12.39-1,23.46,2.33,33,10.57a5,5,0,0,1,1.92,5.15c-1.82,10.85-7.47,19-17.05,24.26C188.25,239.78,179.14,242,170.68,243.08Z"/><path class="cls-5" d="M130.22,260.38c-14.48,15.38-42,7.91-51.7-3-9.32-10.48-13.41-37.08,0-48.63C82.64,238.91,102.35,253.51,130.22,260.38Z"/><path class="cls-6" d="M217.5,216.12c3,9.61,2.57,18.05-2.18,26.09-1.64,2.77-3.4,5.46-5.09,8.2a12.38,12.38,0,0,1-6.5,5.28c-12.3,4.32-24.75,5.6-37.38,1.4a16.63,16.63,0,0,1-9.39-7.43c-.44-.74-1.09-1.56-.56-2.38s1.36-.12,2.07-.08c8.8.61,17.52.47,26.11-2,12.8-3.64,22.26-11.45,29.12-22.67C214.82,220.69,215.92,218.78,217.5,216.12Z"/><polygon class="cls-1" points="486.29 140.56 358.02 359.87 232.23 139.14 486.29 140.56"/><path class="cls-2" d="M335.5,148.41c-.16,15.78-9.07,28.35-22.9,32.18a41.31,41.31,0,0,1-22.53.05c-9.67-2.71-16.75-12.39-18.71-23.07-2.57-14,11.63-32.79,26.62-33.22,6.15-.18,12.3-.85,18.47-1a13.37,13.37,0,0,1,9.27,3.52C333.08,133.14,335.6,138.68,335.5,148.41ZM310,127.16c-1,0-2.06-.07-3.09,0-6.1.39-7.28,1.31-9.28,7.09-4.85,14-1.47,26.47,7.32,37.83,3.52,4.54,7.34,5.14,12.46,2.4,7.33-3.92,11-10.58,13.47-18.05C336,141.1,326.07,127.23,310,127.16Zm-5.23,50.25c0-.34,0-.46,0-.53a4.17,4.17,0,0,0-.51-.75c-11.24-11.83-14.36-25.68-10.42-41.35.4-1.59,2-4,.58-4.75-1.67-.9-3.65,1.08-5.33,2.18a2.57,2.57,0,0,0-.45.42,91.48,91.48,0,0,0-10.86,13.44,15.14,15.14,0,0,0-2.15,11.51C278.73,172.4,289.19,178.56,304.79,177.41Z"/><path class="cls-3" d="M310,127.16c16.05.07,26,13.94,20.89,29.25-2.48,7.47-6.14,14.13-13.47,18.05-5.12,2.74-8.95,2.14-12.46-2.4-8.8-11.36-12.17-23.8-7.32-37.83,2-5.78,3.17-6.7,9.28-7.09C308,127.09,309,127.16,310,127.16Z"/><path class="cls-7" d="M304.79,177.41c-15.6,1.15-26.06-5-29.16-19.83a15.14,15.14,0,0,1,2.15-11.51,91.48,91.48,0,0,1,10.86-13.44,2.57,2.57,0,0,1,.45-.42c1.68-1.1,3.66-3.08,5.33-2.18,1.42.77-.18,3.16-.58,4.75-3.94,15.68-.82,29.52,10.42,41.35a4.17,4.17,0,0,1,.51.75C304.8,177,304.77,177.07,304.79,177.41Z"/><path class="cls-8" d="M381.14,277a1.09,1.09,0,0,1-1,.22c-.25-.1-.44-.51-.54-.82a4.68,4.68,0,0,1-.08-1.07l-.07,0c.25-1,.46-2,.74-3s.63-1.81.89-2.73c.4-1.37.71-2.76,1.15-4.12a2,2,0,0,1,.88-.94c.9-.53,1.86-1,2.79-1.44.42-.22.8-.49,1.21-.73s.91,0,.86.48a6.81,6.81,0,0,1-.4,1.75q-1,2.63-2.06,5.23c-.33.8-.77,1.55-1.13,2.34-.27.57-.49,1.17-.74,1.75a2,2,0,0,1-.24.51C382.69,275.28,382,276.17,381.14,277Z"/><path d="M373.4,195.48c-.49,1.41-1.72,1.73-3,1.87-.8.09-1.65-1-1.61-2.1a3.44,3.44,0,0,1,1.87-2.78,1,1,0,0,1,1.27,0c.66.47,1.42.87,1.58,1.75A2.55,2.55,0,0,1,373.4,195.48Z"/><path class="cls-9" d="M364.35,215.87a.5.5,0,0,1-.32.83c-.3,0-.6.07-.9.11a12.12,12.12,0,0,1-1.5-.22,3.1,3.1,0,0,1-1.65-2.24,1.34,1.34,0,0,1,.93-1.28,1,1,0,0,1,.62.25c.32.25.6.54.91.82C363.07,214.71,363.73,215.27,364.35,215.87Z"/><path class="cls-9" d="M362.68,211.72c-.06-.08-.09-.3,0-.35.54-.46,1.1-.9,1.66-1.34,0,0,.11,0,.15,0h.07a4.16,4.16,0,0,1,3.21,2.91,5.42,5.42,0,0,1-.24,2.15.92.92,0,0,1-1.72.2c-.47-.63-1.08-1.14-1.6-1.72S363.16,212.34,362.68,211.72Z"/><path class="cls-10" d="M370.65,192.47a3.44,3.44,0,0,0-1.87,2.78c0,1.12.81,2.19,1.61,2.1,1.28-.14,2.52-.46,3-1.87a2.55,2.55,0,0,0,.11-1.24c-.16-.88-.92-1.28-1.58-1.75A1,1,0,0,0,370.65,192.47ZM338.08,197a3.36,3.36,0,0,0,1.64-2.86,2.43,2.43,0,0,0-.52-1.62,2.15,2.15,0,0,0-2.3-.58,3.57,3.57,0,0,0-2.15,2.58,2.28,2.28,0,0,0,.09,1.1c.33,1.18,1.29,1.47,2.52,1.58A2.08,2.08,0,0,0,338.08,197Zm2.74,13.73c-.37.14-.65.4-.58.81a3.36,3.36,0,0,0,1,2,14.53,14.53,0,0,0,2.95,1.65,6.77,6.77,0,0,0,1.66.67c.82.2,1.66.27,2.49.41a9.51,9.51,0,0,0,1.89.29,20.53,20.53,0,0,0,2.88-.42c1.35-.27,2.7-.55,4-.9a.61.61,0,0,1,.77.23c.42.62.84,1.24,1.22,1.88a3.47,3.47,0,0,0,2.34,1.9,5.48,5.48,0,0,0,2.64-.06c.9-.27,1.81-.5,2.72-.75a1.53,1.53,0,0,0,.4-.2,4.3,4.3,0,0,0,2.28-4.18c0-.29,0-.46,0-.64a4.42,4.42,0,0,0-1-3.06,25.88,25.88,0,0,0-3.32-2.42.5.5,0,0,0-.38-.09c-.69.26-1.5.23-2.05.84s-1.39,1.49-2.07,2.25a6.45,6.45,0,0,1-3.13,2.28.67.67,0,0,0-.15.08,7.8,7.8,0,0,1-3.79,1.17c-1.43,0-2.87.07-4.3,0a22.39,22.39,0,0,1-3.27-.61,5.86,5.86,0,0,1-2.08-.67,16.31,16.31,0,0,1-2.22-2.15A.85.85,0,0,0,340.82,210.72Zm18.83,22.85c.12.53-.18.71-.61.82a5,5,0,0,1-2.74-.19c-2-.59-4-1.15-6-1.78-1-.32-2-.77-2.94-1.15-.81-.31-1.66-.53-2.44-.9-1.13-.52-2.2-1.14-3.3-1.72s-2.07-1-3-1.64c-1.34-.86-2.63-1.82-3.93-2.75-.43-.31-.81-.71-1.26-1a8.82,8.82,0,0,1-2.5-2.71c-.65-.87-1.39-1.66-2.09-2.49-.15-.17-.4-.32-.43-.51a5.25,5.25,0,0,0-1.32-2.2,1.3,1.3,0,0,1,0-1.76,25.79,25.79,0,0,0,1.89-2.92,6.29,6.29,0,0,0,.69-3.71,3.13,3.13,0,0,0-2.55-2.4c-.47,0-.92-.19-1.39-.26a17.82,17.82,0,0,0-1.84-.21,1.4,1.4,0,0,1-1.23-1.14,15.81,15.81,0,0,1-.56-2.76,17.39,17.39,0,0,1,.26-3.07c.28-2.08.57-4.16.93-6.22a5.43,5.43,0,0,1,.7-1.78c1-1.62,2-3.2,3-4.79a4,4,0,0,1,1.91-1.45q1.81-.78,3.65-1.46a12.37,12.37,0,0,1,5.74-.86c.71.08,1.42.22,2.12.37,1,.2,2,.44,3,.66a9.42,9.42,0,0,1,3.48,2c.91.67,1.79,1.38,2.65,2.11a6.64,6.64,0,0,1,2.72,6.09c.07.57.16,1.15.22,1.73s.11,1.28.16,1.92.43,1.11,1.2,1.08a16,16,0,0,0,2.11-.11,1.8,1.8,0,0,0,1.15-1.76,8,8,0,0,1,.17-2.11c.15-.62.61-1.16.78-1.78a26,26,0,0,1,2.26-4.69,1.48,1.48,0,0,1,.42-.52,37.51,37.51,0,0,1,3.51-2.55,27,27,0,0,1,4.09-1.87,10.08,10.08,0,0,1,2.28-.33,10.23,10.23,0,0,1,1.07-.07,3.56,3.56,0,0,1,.95,0c1.11.29,2.22.58,3.31.93s2.28.77,3.4,1.21c.52.2,1,.54,1.51.75a11.86,11.86,0,0,1,4.23,2.45,8.92,8.92,0,0,1,2.67,4.38,11.94,11.94,0,0,1,.37,3.76,4.1,4.1,0,0,0,.54,1.8.89.89,0,0,1-.2,1.17c-.64.55-1.3,1.08-1.91,1.66a8,8,0,0,0-.71.95q-.27.35-.57.69a6,6,0,0,0-1.65,3.19,4.46,4.46,0,0,0,1.34,3.79.76.76,0,0,1,.17.22c.45,1.31,1.6,1.33,2.68,1.53a6.1,6.1,0,0,1,1.4.41.78.78,0,0,1,.27.61,6.31,6.31,0,0,1-2.11,4.88,17.91,17.91,0,0,1-4.45,3c-1.08.48-2.1,1.11-3.18,1.58-1.32.57-2.69,1.06-4,1.57s-3,1-4.46,1.62c-2.09.86-4.12,1.86-6.22,2.69a5.49,5.49,0,0,0-2.45,1.82,21.5,21.5,0,0,1-1.88,1.79,3.17,3.17,0,0,0-1.14,1.78,6.57,6.57,0,0,0,0,1.29A9.43,9.43,0,0,0,359.64,233.57Z"/><path d="M365.76,215.28a.92.92,0,0,0,1.72-.2,5.42,5.42,0,0,0,.24-2.15,4.16,4.16,0,0,0-3.21-2.91h-.07s-.11,0-.15,0c-.56.44-1.12.88-1.66,1.34-.05,0,0,.27,0,.35.48.62,1,1.24,1.48,1.83S365.3,214.65,365.76,215.28Zm-8.13-2.11a6.45,6.45,0,0,0,3.13-2.28c.68-.76,1.39-1.49,2.07-2.25s1.36-.59,2.05-.84a.5.5,0,0,1,.38.09,25.88,25.88,0,0,1,3.32,2.42,4.42,4.42,0,0,1,1,3.06c0,.17,0,.34,0,.64a4.3,4.3,0,0,1-2.28,4.18,1.53,1.53,0,0,1-.4.2c-.9.26-1.81.48-2.72.75a5.48,5.48,0,0,1-2.64.06,3.47,3.47,0,0,1-2.34-1.9c-.38-.64-.8-1.27-1.22-1.88a.61.61,0,0,0-.77-.23c-1.33.35-2.67.64-4,.9a20.53,20.53,0,0,1-2.88.42,9.51,9.51,0,0,1-1.89-.29c-.83-.13-1.68-.21-2.49-.41a6.77,6.77,0,0,1-1.66-.67,14.53,14.53,0,0,1-2.95-1.65,3.36,3.36,0,0,1-1-2c-.08-.41.2-.66.58-.81a.85.85,0,0,1,1,.23A16.31,16.31,0,0,0,344,213.1a5.86,5.86,0,0,0,2.08.67,22.39,22.39,0,0,0,3.27.61c1.43.11,2.87.06,4.3,0a7.8,7.8,0,0,0,3.79-1.17A.67.67,0,0,1,357.63,213.17Zm6.4,3.53a.5.5,0,0,0,.32-.83c-.62-.6-1.28-1.15-1.92-1.73-.3-.27-.59-.57-.91-.82a1,1,0,0,0-.62-.25,1.34,1.34,0,0,0-.93,1.28,3.1,3.1,0,0,0,1.65,2.24,12.12,12.12,0,0,0,1.5.22C363.43,216.77,363.73,216.74,364,216.7Z"/><path d="M353.85,140.48a2.16,2.16,0,0,1-.32-3.61,6,6,0,0,1,1.4-.73,1.08,1.08,0,0,1,.8.06,5.19,5.19,0,0,1,1.07.81,1,1,0,0,1,.26.59c.06.47.05.94.08,1.41,0,.75,0,1.47-.83,1.81a1.89,1.89,0,0,1-1,.15A5.62,5.62,0,0,1,353.85,140.48Z"/><path class="cls-8" d="M353.48,151.49c0-.18.42-.48.7-.59,2.58-1,5.17-1.91,7.74-2.89.65-.25,1.22-.66,1.85-1,.4-.2.84-.32,1.26-.51,1-.44,2-.87,3-1.37,1.51-.75,3-1.56,4.49-2.34.59-.3,1.2-.56,1.78-.87s1.44-.81,2.18-1.18c1.65-.82,3.27-1.71,5-2.37s3.24-1,4.86-1.47c1-.3,1.92-.65,2.88-1a5.82,5.82,0,0,1,3-.14c.86.14,1.82,1.91,1.44,2.58s-.69,1.06-1,1.6-.58,1-.89,1.5c-.07.11-.19.25-.31.26a4.93,4.93,0,0,0-2.5,1.41,9.1,9.1,0,0,1-2.56,1.68,9.17,9.17,0,0,0-1.18.64c-1.08.55-2.16,1.13-3.26,1.62s-2.12.86-3.2,1.23a20.83,20.83,0,0,0-3,.92,14.88,14.88,0,0,1-3.14.78,2.67,2.67,0,0,1-.39,0l0-.12-3,.58c-1.13.21-2.26.41-3.39.6s-2.33.42-3.51.52c-1.54.13-3.08.16-4.63.21-1,0-2.07,0-3.11,0h-.17C354,151.88,353.51,152,353.48,151.49Z"/><path class="cls-10" d="M348.43,124.24c-.19.56-.66.61-1.16.56a.92.92,0,0,1-.86-.89c-.13-1.11-.19-2.22-.29-3.33s-.22-2.09-.31-3.14c0-.39.07-.79,0-1.18-.16-1.66-.38-3.33-.53-5a16.68,16.68,0,0,1,.05-2,1.69,1.69,0,0,0,0-.45c-.33-1.43.1-2.8.25-4.2s.06-2.74.1-4.1a5.35,5.35,0,0,1,.14-1.23A44,44,0,0,0,347,93.48a20.26,20.26,0,0,1,1.61-5.74,9.78,9.78,0,0,1,1-1.89,1.65,1.65,0,0,1,2.86.1,10.24,10.24,0,0,1,1.61,5.31c-.11,1.9-.2,3.81-.34,5.71-.07,1-.22,1.93-.37,2.89-.19,1.25-.43,2.49-.61,3.74-.07.53,0,1.09,0,1.63-.11,1.09-.22,2.18-.4,3.25-.25,1.51-.55,3-.86,4.52-.23,1.15-.59,2.28-.71,3.44a11.15,11.15,0,0,1-.78,3.2C349.35,121.13,348.95,122.7,348.43,124.24Z"/><path class="cls-10" d="M343.38,124.21c.09,1,0,1.22-1,1.46-.42.11-.82.27-1.23.41-.78.25-1.33,0-1.5-.81-.21-1-.35-2.09-.46-3.14-.23-2.07-.41-4.15-.61-6.23,0-.49,0-1-.08-1.49a8.89,8.89,0,0,0-.2-1.08c-.27-1.19-.54-2.38-.83-3.57-.09-.36-.29-.71-.35-1.07-.09-.55-.1-1.12-.17-1.68-.13-1-.31-2-.4-3s-.08-1.9-.12-2.86a1.06,1.06,0,0,0,0-.34,11,11,0,0,1-.36-3.69c0-1.19-.17-2.37-.25-3.55a3.49,3.49,0,0,1,2-3.22,1,1,0,0,1,1.36.76c.42,1.83.81,3.68,1.21,5.51a1.43,1.43,0,0,0,.17.48,9,9,0,0,1,1,3.4c.32,1.65.61,3.3.88,5,.15.91.24,1.83.36,2.74h-.06c.07,2,.15,4,.21,6s.07,3.82.16,5.72C343.11,121.37,343.25,122.79,343.38,124.21Z"/><path d="M339.72,194.14a3.36,3.36,0,0,1-1.64,2.86,2.08,2.08,0,0,1-.71.2c-1.23-.11-2.19-.4-2.52-1.58a2.28,2.28,0,0,1-.09-1.1,3.57,3.57,0,0,1,2.15-2.58,2.15,2.15,0,0,1,2.3.58A2.43,2.43,0,0,1,339.72,194.14Z"/><path class="cls-8" d="M327.09,266.52c-.19-.46,0-.79.37-.85l2,.56a1.9,1.9,0,0,0,.76.13c1.18-.21,1.78.47,2.26,1.39,0,.08,0,.2.1.26,1,1,1.25,2.34,1.82,3.53a13.61,13.61,0,0,1,.61,1.91,2,2,0,0,0,.15.43,11.84,11.84,0,0,1,1.14,3.48c.08.38.3.73.39,1.11,0,.19,0,.53-.12.59a.8.8,0,0,1-.67,0,8.51,8.51,0,0,1-1.38-1,16.9,16.9,0,0,1-3.88-4.75c-.29-.56-.84-1-1.16-1.53-.5-.87-.93-1.79-1.35-2.71S327.44,267.38,327.09,266.52Z"/><path class="cls-10" d="M334.54,127a1,1,0,0,1-.65,1c-.92.39-1.84.79-2.77,1.15a1.15,1.15,0,0,1-1.47-.84,4.51,4.51,0,0,1,0-2.37,13.24,13.24,0,0,0,.11-2.94c-.07-1.26-.24-2.52-.42-3.77-.21-1.43-.51-2.86-.71-4.29-.36-2.61-.65-5.22-1-7.83-.14-1-.4-2-.58-3-.15-.83-.25-1.68-.38-2.51a9.31,9.31,0,0,1-.17-1.05c-.06-1.41-.06-2.82-.14-4.24-.05-1-.24-2.07-.27-3.1s0-2.38.07-3.56a3,3,0,0,1,.24-.73c.31-.94.59-1.88.92-2.81.17-.47.37-1,1-1a1.73,1.73,0,0,1,1.32,1.19c.21.7.45,1.39.63,2.1.11.44.11.9.18,1.35.16,1.1.33,2.19.47,3.1s0,1.55,0,2.22a9.89,9.89,0,0,0,.28,1.37,3.56,3.56,0,0,1,.16.71c0,1-.06,1.94,0,2.9.12,1.4.31,2.79.52,4.18a33.21,33.21,0,0,0,.69,3.81,37.29,37.29,0,0,1,.69,6.05c.13,1.28.13,2.57.27,3.85.08.8.31,1.58.47,2.36a4.74,4.74,0,0,1,.11.56c.08,1.11.15,2.21.22,3.32C334.41,125.15,334.48,126.06,334.54,127Z"/><path d="M325.17,142.42a1.79,1.79,0,0,1,1.92-.85A3.24,3.24,0,0,1,329,145c-.15.64-.7.83-1.17,1.06a6.31,6.31,0,0,1-1.28.37c-.79,0-1.28-.17-1.55-.66a12.69,12.69,0,0,1-.69-1.6.77.77,0,0,1,.13-.51C324.69,143.23,325,142.85,325.17,142.42Z"/><path d="M359,234.39c.43-.11.73-.29.61-.82a9.43,9.43,0,0,1-.21-1.28,6.57,6.57,0,0,1,0-1.29,3.17,3.17,0,0,1,1.14-1.78,21.5,21.5,0,0,0,1.88-1.79,5.49,5.49,0,0,1,2.45-1.82c2.1-.83,4.13-1.83,6.22-2.69,1.46-.6,3-1.07,4.46-1.62s2.72-1,4-1.57c1.09-.47,2.1-1.1,3.18-1.58a17.91,17.91,0,0,0,4.45-3,6.31,6.31,0,0,0,2.11-4.88.78.78,0,0,0-.27-.61,6.1,6.1,0,0,0-1.4-.41c-1.08-.19-2.24-.22-2.68-1.53a.76.76,0,0,0-.17-.22,4.46,4.46,0,0,1-1.34-3.79,6,6,0,0,1,1.65-3.19q.3-.33.57-.69a8,8,0,0,1,.71-.95c.61-.58,1.27-1.11,1.91-1.66a.89.89,0,0,0,.2-1.17,4.1,4.1,0,0,1-.54-1.8,11.94,11.94,0,0,0-.37-3.76,8.92,8.92,0,0,0-2.67-4.38,11.86,11.86,0,0,0-4.23-2.45c-.52-.2-1-.55-1.51-.75-1.12-.43-2.25-.84-3.4-1.21s-2.2-.65-3.31-.93a3.56,3.56,0,0,0-.95,0,10.23,10.23,0,0,0-1.07.07,10.08,10.08,0,0,0-2.28.33,27,27,0,0,0-4.09,1.87,37.51,37.51,0,0,0-3.51,2.55,1.48,1.48,0,0,0-.42.52,26,26,0,0,0-2.26,4.69c-.17.62-.63,1.16-.78,1.78a8,8,0,0,0-.17,2.11,1.8,1.8,0,0,1-1.15,1.76,16,16,0,0,1-2.11.11c-.77,0-1.13-.3-1.2-1.08s-.1-1.28-.16-1.92-.15-1.15-.22-1.73a6.64,6.64,0,0,0-2.72-6.09c-.86-.73-1.75-1.44-2.65-2.11a9.42,9.42,0,0,0-3.48-2c-1-.22-2-.45-3-.66-.7-.15-1.41-.29-2.12-.37a12.37,12.37,0,0,0-5.74.86q-1.84.68-3.65,1.46a4,4,0,0,0-1.91,1.45c-1,1.59-2,3.17-3,4.79a5.43,5.43,0,0,0-.7,1.78c-.36,2.07-.65,4.14-.93,6.22a17.39,17.39,0,0,0-.26,3.07,15.81,15.81,0,0,0,.56,2.76,1.4,1.4,0,0,0,1.23,1.14,17.82,17.82,0,0,1,1.84.21c.46.07.92.22,1.39.26a3.13,3.13,0,0,1,2.55,2.4,6.29,6.29,0,0,1-.69,3.71,25.79,25.79,0,0,1-1.89,2.92,1.3,1.3,0,0,0,0,1.76,5.25,5.25,0,0,1,1.32,2.2c0,.19.28.34.43.51.7.83,1.44,1.62,2.09,2.49a8.82,8.82,0,0,0,2.5,2.71c.45.26.83.66,1.26,1,1.3.93,2.58,1.89,3.93,2.75,1,.62,2,1.1,3,1.64s2.18,1.2,3.3,1.72c.78.36,1.63.59,2.44.9,1,.37,1.94.83,2.94,1.15,2,.63,4,1.19,6,1.78A5,5,0,0,0,359,234.39Zm39.61-31.44c-.92,1-2,1.83-3,2.76-.59.55-1.12,1.16-1.71,1.72a1.61,1.61,0,0,1-.66.41,2,2,0,0,0-1.59,1.91,12.42,12.42,0,0,1-1.4,4.8,5.76,5.76,0,0,1-1.19,1.88,3.42,3.42,0,0,0-.75,1c-.43.87-1.32,1.22-2,1.83a13.71,13.71,0,0,1-4.16,2.58c-1.35.56-2.78.93-4.17,1.42a51.16,51.16,0,0,0-5.3,1.89c-1.36.65-2.88,1-4.31,1.52-1,.36-1.89.83-2.83,1.26a3.5,3.5,0,0,0-.88.49,4.49,4.49,0,0,0-.7.91c-.2.3-.34.63-.51.95a3.69,3.69,0,0,0,.26,3.77,2.82,2.82,0,0,1-.4,3.48,1.22,1.22,0,0,1-1.46.33,15.17,15.17,0,0,0-4.06-.69c-.39,0-.8.09-1.18,0a23.55,23.55,0,0,1-2.6-.48c-2.16-.55-4.33-1.13-6.47-1.75a19.43,19.43,0,0,1-2.2-.89c-1.06-.45-2.12-.89-3.16-1.38-.67-.31-1.29-.7-1.94-1-.25-.13-.52-.21-.76-.36a15.65,15.65,0,0,1-3.07-1.89c-1.13-1.09-2.62-1.49-3.78-2.44a8.37,8.37,0,0,1-2.35-2.07c-.24-.41-.74-.65-1-1q-1.3-1.62-2.54-3.29a20.64,20.64,0,0,1-1.42-2.11,15.71,15.71,0,0,1-1.09-2.34,1,1,0,0,0-1-.78c-1.51,0-3,0-4.54,0a2.62,2.62,0,0,1-.62,0c-1.7-.41-3.42-.77-5.09-1.29a22,22,0,0,1-3.31-1.41,21.55,21.55,0,0,1-3.09-1.81c-.6-.44-1-1.21-1.51-1.73a1.61,1.61,0,0,1-.47-1.54.92.92,0,0,1,.35-.51,3,3,0,0,1,.65-.33.78.78,0,0,1,.91.13c1.26,1,2.55,1.91,3.87,2.81a21.26,21.26,0,0,0,5.27,2.12,22.74,22.74,0,0,0,4.1.8,10.14,10.14,0,0,0,4.44-.54,4.66,4.66,0,0,0,2.65-2.37,4.93,4.93,0,0,0,.51-1.37c.12-.47-.21-.76-.57-1a4.54,4.54,0,0,0-2.79-.53c-1.07,0-2.14.19-3.21.2a19,19,0,0,1-2.53-.21c-.56-.07-1.1-.29-1.66-.33a8.08,8.08,0,0,1-4-1.9,1.54,1.54,0,0,0-.4-.28,9,9,0,0,1-3.46-2.4,9.32,9.32,0,0,1-1.78-2,10,10,0,0,1-.81-2.27c-.2-.61-.35-1.23-.56-1.83a4.84,4.84,0,0,1-.37-2.71c.13-.62.08-1.28.16-1.92.11-1,.25-2,.38-3a1.79,1.79,0,0,1,1.53-1.57c.76,0,1,.52.77,1.22a8.34,8.34,0,0,0-.4,2.08,24,24,0,0,0,0,3.05,25.2,25.2,0,0,0,.37,2.5c0,.24.13.48.16.72a3.26,3.26,0,0,0,.89,1.85,33.68,33.68,0,0,0,2.58,2.75,20.79,20.79,0,0,0,2.81,1.68,15.69,15.69,0,0,0,4.19,1.65,1.56,1.56,0,0,0,.73,0,.7.7,0,0,0,.49-1,9.85,9.85,0,0,1-.64-3.94c.08-.78.26-1.55.39-2.32a10.69,10.69,0,0,1,.22-1.34c.43-1.44.91-2.86,1.35-4.29.13-.43.17-.89.33-1.31a44.62,44.62,0,0,1,1.76-4.27,16.14,16.14,0,0,1,1.88-2.52c.34-.42.78-.77,1.11-1.2a8.34,8.34,0,0,1,2.83-2c1.07-.58,2.2-1.06,3.33-1.53a12.18,12.18,0,0,1,5.6-1.36,19.73,19.73,0,0,1,2.36.5c.79.16,1.59.28,2.38.45a8.38,8.38,0,0,1,3.4,1.15c1.33,1,2.63,2,4,3a8.21,8.21,0,0,1,2.25,2.25,1.84,1.84,0,0,0,.54.49,1.35,1.35,0,0,1,.72,1.2c0,.2.18.4.28.6.29.57.57,1.15.9,1.7a.94.94,0,0,0,.57.37.52.52,0,0,0,.42-.3,9.08,9.08,0,0,1,2-2.77c.27-.34.46-.73.73-1.06A15.91,15.91,0,0,1,360,183a12.64,12.64,0,0,1,3.63-2.46c.78-.33,1.6-.56,2.38-.87a29.76,29.76,0,0,1,3.72-1.46,9.94,9.94,0,0,1,4.87.15c.92.24,1.86.44,2.79.66a14.47,14.47,0,0,1,3.91,1.37c1.5.86,3,1.71,4.46,2.65a33.21,33.21,0,0,1,2.66,2.1,7,7,0,0,1,2.28,4c.22.89.49,1.78.73,2.67.07.27.16.54.3,1,.22-.14.46-.22.56-.38a30.77,30.77,0,0,0,3.72-7.41c.42-1.44.82-2.9,1.35-4.3a15.91,15.91,0,0,1,1.34-2.42c.06-.11.35-.22.41-.17s.37.35.36.52a20.6,20.6,0,0,1-.25,2.41c-.21,1.14-.46,2.28-.75,3.41s-.6,2-.91,3a25.93,25.93,0,0,1-2.73,5.46,31,31,0,0,1-2.09,2.6c-1.51,2-3.43,3.58-5.1,5.41-.48.52-.95,1-1.38,1.6a2,2,0,0,0,.06,2.68,4.19,4.19,0,0,0,5.27,1.14c.65-.36,1.16-1,1.79-1.38a34,34,0,0,0,4.73-4.25c.47-.46.86-1,1.29-1.49.11-.13.21-.3.35-.37,1.21-.62,1.71-1.88,2.5-2.87a4.72,4.72,0,0,0,.48-1.13,9.5,9.5,0,0,1,.41-.93c.16-.3.42-.6.76-.35a1.08,1.08,0,0,1,.4.81,7,7,0,0,1-1.72,4.08c-.41.46-.87.87-1.31,1.31-.08.08-.19.16-.21.26C400.75,201.44,399.49,202,398.65,202.95Z"/><path d="M347.27,124.8c.51,0,1,0,1.16-.56.51-1.53.92-3.11,1.53-4.6a11.15,11.15,0,0,0,.78-3.2c.11-1.16.48-2.29.71-3.44.3-1.5.61-3,.86-4.52.18-1.08.29-2.17.4-3.25.05-.54,0-1.09,0-1.63.18-1.25.42-2.49.61-3.74.15-1,.3-1.93.37-2.89.14-1.9.23-3.8.34-5.71a10.24,10.24,0,0,0-1.61-5.31,1.65,1.65,0,0,0-2.86-.1,9.78,9.78,0,0,0-1,1.89A20.26,20.26,0,0,0,347,93.48a44,44,0,0,1-1.07,5.83,5.35,5.35,0,0,0-.14,1.23c0,1.37.05,2.75-.1,4.1s-.58,2.77-.25,4.2a1.69,1.69,0,0,1,0,.45,16.68,16.68,0,0,0-.05,2c.14,1.67.36,3.33.53,5,0,.39-.06.79,0,1.18.08,1,.21,2.09.31,3.14s.16,2.22.29,3.33A.92.92,0,0,0,347.27,124.8ZM333.88,128a1,1,0,0,0,.65-1c-.06-.92-.13-1.84-.19-2.75-.07-1.11-.14-2.21-.22-3.32a4.74,4.74,0,0,0-.11-.56c-.16-.79-.38-1.57-.47-2.36-.13-1.28-.14-2.57-.27-3.85a37.29,37.29,0,0,0-.69-6.05,33.21,33.21,0,0,1-.69-3.81c-.21-1.39-.41-2.78-.52-4.18-.08-1,0-1.94,0-2.9a3.56,3.56,0,0,0-.16-.71,9.89,9.89,0,0,1-.28-1.37c0-.67,0-1.35,0-2.22s-.31-2-.47-3.1c-.07-.45-.07-.91-.18-1.35-.18-.71-.42-1.4-.63-2.1a1.73,1.73,0,0,0-1.32-1.19c-.66,0-.85.5-1,1-.33.93-.62,1.87-.92,2.81a3,3,0,0,0-.24.73c0,1.19-.11,2.38-.07,3.56s.22,2.07.27,3.1c.08,1.41.08,2.82.14,4.24a9.31,9.31,0,0,0,.17,1.05c.13.84.24,1.68.38,2.51.18,1,.44,2,.58,3,.36,2.61.66,5.22,1,7.83.2,1.44.5,2.86.71,4.29.18,1.25.35,2.51.42,3.77a13.24,13.24,0,0,1-.11,2.94,4.51,4.51,0,0,0,0,2.37,1.15,1.15,0,0,0,1.47.84C332,128.79,333,128.39,333.88,128Zm3.91-37.67a3.49,3.49,0,0,0-2,3.22c.08,1.18.21,2.36.25,3.55a11,11,0,0,0,.36,3.69,1.06,1.06,0,0,1,0,.34c0,1,0,1.91.12,2.86s.28,2,.4,3c.07.56.08,1.13.17,1.68.06.36.26.71.35,1.07.29,1.18.56,2.38.83,3.57a8.89,8.89,0,0,1,.2,1.08c0,.49,0,1,.08,1.49.19,2.08.38,4.16.61,6.23.11,1,.26,2.1.46,3.14.17.81.72,1.07,1.5.81.41-.14.81-.3,1.23-.41.92-.24,1.07-.48,1-1.46-.14-1.42-.27-2.84-.33-4.27-.09-1.9-.1-3.81-.16-5.72s-.14-4-.21-6h.06c-.12-.91-.21-1.83-.36-2.74-.27-1.66-.56-3.31-.88-5a9,9,0,0,0-1-3.4,1.43,1.43,0,0,1-.17-.48c-.4-1.84-.79-3.68-1.21-5.51A1,1,0,0,0,337.79,90.33Zm42.39,186.89a1.09,1.09,0,0,0,1-.22c.81-.83,1.55-1.72,2.3-2.6a2,2,0,0,0,.24-.51c.25-.58.47-1.17.74-1.75.36-.78.8-1.54,1.13-2.34q1.07-2.6,2.06-5.23a6.81,6.81,0,0,0,.4-1.75c0-.51-.43-.73-.86-.48s-.79.51-1.21.73c-.93.49-1.89.91-2.79,1.44a2,2,0,0,0-.88.94c-.44,1.35-.75,2.75-1.15,4.12-.26.92-.63,1.81-.89,2.73s-.5,2-.74,3l.07,0a4.68,4.68,0,0,0,.08,1.07C379.74,276.71,379.93,277.12,380.18,277.22Zm-52.72-11.54c-.4.05-.56.39-.37.85.35.86.68,1.72,1.06,2.55s.85,1.84,1.35,2.71c.31.55.87,1,1.16,1.53a16.9,16.9,0,0,0,3.88,4.75,8.51,8.51,0,0,0,1.38,1,.8.8,0,0,0,.67,0c.12-.06.16-.4.12-.59-.09-.38-.31-.73-.39-1.11a11.84,11.84,0,0,0-1.14-3.48,2,2,0,0,1-.15-.43,13.61,13.61,0,0,0-.61-1.91c-.57-1.19-.81-2.56-1.82-3.53-.06-.06-.06-.18-.1-.26-.47-.92-1.08-1.59-2.26-1.39a1.9,1.9,0,0,1-.76-.13Zm26.72-114.77c-.28.11-.71.4-.7.59,0,.51.54.39.9.43h.17c1,0,2.08,0,3.11,0,1.55-.05,3.09-.08,4.63-.21,1.17-.1,2.34-.33,3.51-.52s2.26-.39,3.39-.6l3-.58,0,.12a2.67,2.67,0,0,0,.39,0,14.88,14.88,0,0,0,3.14-.78,20.83,20.83,0,0,1,3-.92c1.08-.37,2.16-.77,3.2-1.23s2.18-1.07,3.26-1.62a9.17,9.17,0,0,1,1.18-.64,9.1,9.1,0,0,0,2.56-1.68,4.93,4.93,0,0,1,2.5-1.41c.11,0,.24-.15.31-.26.31-.49.58-1,.89-1.5s.71-1.06,1-1.6-.57-2.44-1.44-2.58a5.82,5.82,0,0,0-3,.14c-1,.35-1.91.69-2.88,1-1.62.5-3.29.85-4.86,1.47s-3.33,1.56-5,2.37c-.74.37-1.45.8-2.18,1.18s-1.19.57-1.78.87c-1.5.78-3,1.59-4.49,2.34-1,.49-2,.92-3,1.37-.41.18-.85.31-1.26.51-.62.3-1.2.72-1.85,1C359.35,149,356.75,149.93,354.18,150.91Zm41,103.77c.86-.65,1.75-1.25,2.55-2,.5-.44.85-1.05,1.32-1.53.87-.89,1.81-1.71,2.66-2.6a26.86,26.86,0,0,0,2.07-2.39c.72-1,1.39-2,2-3a8.09,8.09,0,0,1,1.39-1.89,8.08,8.08,0,0,0,1.36-1.63c.23-.36.36-.75.78-1a1.43,1.43,0,0,0,.46-.67c.4-.83.77-1.68,1.15-2.52a16.74,16.74,0,0,0,.83-1.91c.59-1.89,1.12-3.79,1.68-5.69a7.71,7.71,0,0,1,.92-2.53,7.77,7.77,0,0,0,1-2.79c.19-.77.44-1.52.67-2.28s.5-1.42.65-2.16c.26-1.17.42-2.37.65-3.55s.55-2.45.78-3.68c.39-2.09.68-4.2,1.1-6.29a23.6,23.6,0,0,0,.51-5.45c0-.73-.19-1.47-.16-2.19a15.22,15.22,0,0,0,0-4.48,26,26,0,0,1-.38-4.14l.2,0c-.18-.83-.37-1.66-.54-2.5a15.22,15.22,0,0,0-1.36-4.57,2.35,2.35,0,0,1-.14-.49,17.66,17.66,0,0,0-1-3.12,15.29,15.29,0,0,1-1.31-4.18,3,3,0,0,0-.26-.8c-.8-1.49-1.65-3-2.4-4.47a6.68,6.68,0,0,0-1.61-2.22,1.42,1.42,0,0,1-.31-.46c-.33-.69-.61-1.41-1-2.07-.86-1.51-1.27-3.21-2.23-4.69s-1.79-3.31-3.37-4.45a.49.49,0,0,1-.19-.27,3.37,3.37,0,0,0-1.47-1.79,13,13,0,0,1-2.5-2.73c-.83-1.17-1.83-2.22-2.76-3.32l0,0a3.83,3.83,0,0,1-1.82-2.08c-.26-.59-.77-.63-1.21-.15a8,8,0,0,1-.86.7c-.31.24-.63.47-.92.73a19.1,19.1,0,0,1-2,1.83,42,42,0,0,1-3.92,2.32c-1.69.89-3.4,1.74-5.14,2.51a18.53,18.53,0,0,1-3,.9c-.89.22-1.8.38-2.71.53-1.26.2-2.53.42-3.8.53-1.56.14-3.13.14-4.69.25-1.15.08-2.3.25-3.45.35-2,.17-3.95.38-5.92.46-1.69.06-3.4,0-5.09-.08-1.37-.07-2.73-.26-4.1-.35a4.34,4.34,0,0,1-2.06-.47,2,2,0,0,0-.64-.22,10.66,10.66,0,0,1-5.55-2.65c-.31-.3-.6-.51-.38-1,.33-.7.75-1,1.3-.82a6.66,6.66,0,0,0,3.24.29c.82-.13,1.65-.17,2.47-.28,1.45-.21,2.91-.42,4.35-.67a12.77,12.77,0,0,0,2-.47c1.53-.52,3.05-1.09,4.57-1.66a16.84,16.84,0,0,0,3.83-1.64,7.63,7.63,0,0,1,1.26-.75c1-.41,1.94-.74,2.89-1.14.66-.28,1.27-.66,1.92-.94,1.4-.6,2.82-1.13,4.2-1.77,1.55-.72,3.08-1.52,4.61-2.29.9-.46,1.8-.93,2.69-1.4.2-.1.36-.27.57-.37,1.39-.7,2.79-1.37,4.17-2.09a.71.71,0,0,0,.34-.55,1.21,1.21,0,0,0-.38-.63c-.11-.11-.32-.12-.46-.2a16.34,16.34,0,0,0-3.88-1.77c-1.2-.35-2.41-.64-3.6-1-1.67-.51-3.33-1.06-5-1.59a5.79,5.79,0,0,0-1.34-.41,8.2,8.2,0,0,1-2.18-.54,18.17,18.17,0,0,0-3.21-.52,6.32,6.32,0,0,1-1-.07,8.41,8.41,0,0,0-3.36-.32c-.42,0-.83.17-1.25.18-1.52.06-3.07,0-4.57.16-3,.41-5.91,1-8.86,1.5-.37.06-.72.22-1.08.31s-.87.19-1.3.28c-1,.21-2.12.35-3.14.65-.84.24-1.61.73-2.44,1-1.49.48-3,.93-4.52,1.29a25.87,25.87,0,0,0-4.54,1.7,22.07,22.07,0,0,1-4.07,1.48,2,2,0,0,0-.5.26,6.82,6.82,0,0,1-.74.4c-.93.36-1.89.66-2.8,1.07a19.33,19.33,0,0,0-1.89,1.11c-.55.33-1.1.64-1.64,1a11.87,11.87,0,0,1-1.26.81,15.26,15.26,0,0,0-4.26,3,45.18,45.18,0,0,0-3.09,3.45c-.78.94-1.52,1.91-2.22,2.91s-1.12,1.94-1.8,2.82a10.15,10.15,0,0,0-1.64,2.68c-.12.33-.49.56-.71.87s-.63.92-.93,1.39a6,6,0,0,1-.56,1,8.55,8.55,0,0,0-1.6,2.94,22.74,22.74,0,0,1-1.39,3.31,31.08,31.08,0,0,0-1.78,4,28.72,28.72,0,0,0-1.12,3.21c-.4,1.49-.68,3-1,4.51s-.82,3-1.17,4.58c-.24,1-.41,2.07-.55,3.11s-.19,1.83-.27,2.74c-.09,1.09-.2,2.18-.24,3.28,0,.56.12,1.12.12,1.68,0,1-.06,1.91-.06,2.86,0,1.45,0,2.9.05,4.36,0,.75.07,1.5.08,2.26s-.06,1.28,0,1.91c.08.88.28,1.75.35,2.62.08,1.07.08,2.15.11,3.22a11.06,11.06,0,0,0,.06,1.5c.3,1.7.66,3.39,1,5.09.13.76.11,1.54.26,2.3.37,1.86.79,3.7,1.2,5.55.06.27.18.53.26.8a9.71,9.71,0,0,0,.58,2,26.56,26.56,0,0,1,1.79,4.62c.31.95.64,1.88,1,2.82.16.43.39.84.57,1.27.34.84.62,1.7,1,2.51a25,25,0,0,0,1.3,2.25,22.88,22.88,0,0,0,1.84,2.84c.85,1,1.88,1.86,2.81,2.8.66.67,1.29,1.37,1.94,2.05,1.29,1.35,3.13,2,4.34,3.51a38.17,38.17,0,0,0,3.32,3.13,11.76,11.76,0,0,0,4.51,2.79,6.39,6.39,0,0,1,1.37.65,25.29,25.29,0,0,0,4.65,2.29c1.57.59,3.19,1,4.8,1.5s3,.77,4.44,1.12c1.1.26,2.21.45,3.32.66,1.41.26,2.81.57,4.22.73,2.17.25,4.37.26,6.44,1.06a1.42,1.42,0,0,0,.5.08,26.18,26.18,0,0,1,5.23.37,50.85,50.85,0,0,0,6,.82c1.57.14,3.16.05,4.74.12a11.66,11.66,0,0,0,3.71-.65,9.29,9.29,0,0,1,1.31-.33c1.34-.18,2.69-.24,4-.49a25.11,25.11,0,0,0,3.25-.92,19,19,0,0,0,3.74-1.39,29.34,29.34,0,0,1,4.22-1.68c1.08-.43,2.18-.86,3.21-1.4,1.23-.64,2.39-1.44,3.61-2.1a8.55,8.55,0,0,0,2.67-1.75A3.54,3.54,0,0,1,395.18,254.68ZM324.71,82.21a1.75,1.75,0,0,1,.5-.59,10.83,10.83,0,0,1,1.59-1.17,9.59,9.59,0,0,1,2-.76c.47-.13.83.21,1.05.6s.46.95.7,1.42a10.21,10.21,0,0,0,.81,1.47,7.91,7.91,0,0,1,.84,2.38c.4,1.17.81,2.33,1.24,3.5,0,.13.28.31.35.29a1,1,0,0,0,.43-.39c.36-.59.67-1.21,1.05-1.78a1,1,0,0,1,.63-.44,5.55,5.55,0,0,0,2.3-1.15A1.19,1.19,0,0,1,340,86a11.52,11.52,0,0,1,.86,1.7,31.29,31.29,0,0,1,1.18,3.22c.3,1.06.41,2.17.65,3.24a6.38,6.38,0,0,0,.45,1.07l.22,0a7.59,7.59,0,0,0,.43-1.18c.13-.66.15-1.34.26-2a7.19,7.19,0,0,1,.32-1c0-.11.12-.2.13-.31a20.83,20.83,0,0,1,1.81-5.58,13.55,13.55,0,0,1,1.49-2.74,7.55,7.55,0,0,1,3-2.31,2,2,0,0,1,2.28,0,1.18,1.18,0,0,0,.65.18,1.74,1.74,0,0,1,1.53,1,6.22,6.22,0,0,1,.75,2c.24,1.71.4,3.43.49,5.15,0,.86-.19,1.74-.23,2.61,0,1.15,0,2.3-.05,3.45s-.22,2.4-.3,3.6c0,.5,0,1,0,1.52,0,1.81,0,3.62,0,5.43,0,1.25,0,2.51-.07,3.76,0,.42-.17.84-.23,1.27a42.48,42.48,0,0,1-1.55,7c-.45,1.47-.71,3-1.09,4.51-.13.53-.33,1-.5,1.56-.3.9-.08,1.17.86,1.1l6.19-.46,3.21-.2a1.18,1.18,0,0,1,.28,0c1.59.27,3.2.51,4.78.83.64.13,1.21.53,1.85.67s1.44,0,2.11.22c1.24.36,2.43.88,3.65,1.31a9.87,9.87,0,0,0,1.45.42,14.87,14.87,0,0,1,3.9,1.44c1.15.59,2.39,1,3.59,1.49a3.15,3.15,0,0,1,.7.36,4.48,4.48,0,0,0,1.93,1.2c.23,0,.4.4.64.53a1.77,1.77,0,0,0,.94.36c.93-.11,1.84-.42,2.78-.49a3.39,3.39,0,0,1,1.8.32,16.31,16.31,0,0,1,3.32,2.41,3.17,3.17,0,0,1,.81,2.56c.06,1.2-.59,2.21-.75,3.35a1,1,0,0,0,.49,1.17,9.32,9.32,0,0,1,1.47,1.36,19.87,19.87,0,0,1,1.61,1.66c.85,1.06,1.6,2.19,2.44,3.26a11.61,11.61,0,0,0,1,1c.37.37.73.75,1.09,1.12.14.15.25.37.43.44a2.55,2.55,0,0,1,1.33,1.61,6,6,0,0,0,1.82,2.34,8.09,8.09,0,0,1,1.55,2.06c.29.48.67.91.95,1.4a12.72,12.72,0,0,1,.72,1.57c.25.61.4,1.28.71,1.86.45.88,1,1.73,1.51,2.58.23.39.57.71.77,1.11.44.89.85,1.81,1.24,2.73.57,1.38,1.15,2.77,1.66,4.18.3.84.47,1.74.69,2.61,0,.07,0,.16,0,.22.38.71.79,1.42,1.16,2.14a6.29,6.29,0,0,1,.59,1.37c.36,1.49.65,3,1,4.49.16.73.32,1.46.51,2.19a12.94,12.94,0,0,1,.45,1.45c.1.77.1,1.57.14,2.35a.71.71,0,0,0,0,.28c.7,1.2.34,2.51.39,3.77,0,.26,0,.52.06.79a14.1,14.1,0,0,1,.12,3.46,9.23,9.23,0,0,0,0,2.23,6.93,6.93,0,0,1-.1,2.52,15.83,15.83,0,0,0-.27,2.67c-.1.92-.23,1.83-.31,2.75-.13,1.58-.11,3.18-.38,4.73-.42,2.42-1,4.82-1.55,7.21-.49,2.06-1,4.12-1.59,6.15a14.39,14.39,0,0,1-1.72,4.58c-.09.13-.08.33-.14.48-.34.93-.64,1.87-1,2.78-.68,1.53-1.77,2.85-2.16,4.53a8.52,8.52,0,0,1-.75,1.45c-.46,1-.86,2.09-1.36,3.11a11.25,11.25,0,0,1-1.05,1.49c-.92,1.27-1.78,2.58-2.77,3.79-.71.86-1.6,1.58-2.39,2.38-.62.63-1.18,1.33-1.8,1.95a10.64,10.64,0,0,1-3.89,2.93,4.19,4.19,0,0,0-1.42,1.26,7.28,7.28,0,0,1-2.13,1.45c-1.75.91-3.58,1.76-4.56,3.64a8,8,0,0,0-.49,1.26c-.34,1.05-.65,2.12-1,3.17-.44,1.34-.91,2.67-1.37,4-.09.25-.2.49-.28.74-.17.53-.31,1.07-.46,1.6a1.41,1.41,0,0,1-.16.48,7,7,0,0,0-.88,2.53,11.22,11.22,0,0,1-.8,1.55c-.12.23-.16.5-.29.73a6.34,6.34,0,0,1-.58.86c-.14.17-.39.27-.5.45a11.73,11.73,0,0,1-2.87,2.78,2.65,2.65,0,0,1-3.62-.32,4.78,4.78,0,0,1-1.12-3.91,23.32,23.32,0,0,1,.49-3.58,22.7,22.7,0,0,1,.8-2.36c.18-.56.3-1.14.45-1.71a2.19,2.19,0,0,1,.21-.7,5,5,0,0,0,.65-2.31c0-.22,0-.57-.1-.66a.94.94,0,0,0-.74,0,12.17,12.17,0,0,1-1.15.58c-1.4.33-2.8.63-4.21.87-1.69.28-3.4.46-5.09.73-1.5.24-3,.53-4.49.79a7.73,7.73,0,0,1-1.07,0l-2.43.06c-.79,0-1.58,0-2.36,0-1.62.1-3.22.34-4.84.33-1.41,0-2.82-.3-4.23-.43s-2.74-.19-4.11-.32c-1-.09-2-.27-3-.36a5.49,5.49,0,0,0-1.94,0,3,3,0,0,1-2-.15c-.26-.09-.74-.08-.86.08a1.15,1.15,0,0,0-.06.94c.3.82.67,1.61,1,2.4.18.39.46.73.64,1.12.43,1,.87,1.92,1.21,2.91.44,1.29.84,2.6,1.16,3.92a2.57,2.57,0,0,1-.78,2.73.8.8,0,0,1-.45.21c-1.52,0-3.07.31-4.54-.35a3.33,3.33,0,0,1-.82-.48c-1-.87-2-1.77-3-2.66-.2-.18-.47-.35-.53-.57-.29-1-1.26-1.57-1.79-2.43s-1.29-1.93-1.87-2.93a24.82,24.82,0,0,1-1.41-2.8c-.36-.85-.57-1.76-.86-2.63s-.6-1.82-.95-2.72c-.24-.62-.93-.64-1.43-.89-1.3-.67-2.64-1.28-3.9-2-1.5-.9-2.92-1.92-4.37-2.89a1,1,0,0,1-.26-.21,10,10,0,0,0-3-2.56,1.21,1.21,0,0,1-.31-.24c-.58-.72-1.15-1.44-1.71-2.18a26.6,26.6,0,0,0-3.07-3.8,50.68,50.68,0,0,1-4.53-4.8,17.28,17.28,0,0,1-2.33-3.36c-.67-1.35-1.63-2.56-2.39-3.87-.41-.71-.64-1.53-1-2.27-.49-1-1-2-1.54-3a24.88,24.88,0,0,1-2-5.23c-.73-2.44-1.4-4.91-2-7.39-.34-1.43-.46-2.9-.72-4.35s-.65-3.07-.89-4.62c-.33-2.09-.66-4.19-.81-6.3-.11-1.57.08-3.16.12-4.75,0-.45-.06-.91,0-1.36s.09-1,.15-1.56a7.9,7.9,0,0,0,.12-.95c0-.83-.06-1.66-.05-2.49,0-1.36,0-2.72.12-4.07.09-1,.34-2.07.51-3.1,0-.28,0-.57.1-.84.12-.62.27-1.24.4-1.85a13.17,13.17,0,0,0,.27-1.31c.15-1.31.22-2.63.42-3.94a24.46,24.46,0,0,1,.68-2.39c.18-.69.3-1.4.46-2.1.23-1,.48-2,.7-3,.26-1.19.44-2.39.74-3.57.23-.89.6-1.73.88-2.61.17-.55.27-1.13.42-1.69a14.29,14.29,0,0,1,1.86-4.22c.49-.74.86-1.57,1.33-2.32a14.81,14.81,0,0,0,1-1.39c.42-.9,1.36-1.35,1.82-2.12a12.87,12.87,0,0,1,1.92-2.35,1.07,1.07,0,0,0,.38-.89,3.3,3.3,0,0,1,.6-1.38c.27-.52.58-1,.85-1.54.17-.33.36-.55.79-.49a.67.67,0,0,0,.46-.24c.59-.68,1.16-1.37,1.74-2.06a3.28,3.28,0,0,0,.34-.38c.95-1.52,2.45-2.46,3.73-3.64a52.26,52.26,0,0,1,4.4-3.22,14.6,14.6,0,0,1,2.59-1.46c.71-.33,1.34-.86,2-1.2,1.77-.85,3.55-1.67,5.34-2.47.72-.32,1.48-.56,2.22-.85a1.41,1.41,0,0,0,.68-1.53,17.52,17.52,0,0,1-1.15-5.55q-.32-2.72-.81-5.41a51.9,51.9,0,0,1-.67-6.5c0-.13,0-.3,0-.39.39-.51.13-1,.07-1.55-.12-1.12-.23-2.25-.26-3.38-.06-2.51,0-5-.11-7.52,0-1.1-.44-2.18-.52-3.28-.11-1.61-.63-3.16-.47-4.82.18-1.91.06-3.84.12-5.76a3.64,3.64,0,0,1,.32-1.14C324.15,83.48,324.41,82.84,324.71,82.21Z"/><path class="cls-11" d="M353.53,136.87a2.16,2.16,0,0,0,.32,3.61,5.62,5.62,0,0,0,1.44.5,1.89,1.89,0,0,0,1-.15c.79-.34.87-1.06.83-1.81,0-.47,0-.94-.08-1.41a1,1,0,0,0-.26-.59,5.19,5.19,0,0,0-1.07-.81,1.08,1.08,0,0,0-.8-.06A6,6,0,0,0,353.53,136.87Zm-26.44,4.7a1.79,1.79,0,0,0-1.92.85c-.18.43-.48.81-.7,1.23a.77.77,0,0,0-.13.51,12.69,12.69,0,0,0,.69,1.6c.27.5.76.66,1.55.66a6.31,6.31,0,0,0,1.28-.37c.47-.23,1-.41,1.17-1.06A3.24,3.24,0,0,0,327.09,141.57Zm70.64,111.16c-.81.7-1.7,1.31-2.55,2a3.54,3.54,0,0,0-.57.45,8.55,8.55,0,0,1-2.67,1.75c-1.22.66-2.38,1.46-3.61,2.1-1,.54-2.13,1-3.21,1.4a29.34,29.34,0,0,0-4.22,1.68,19,19,0,0,1-3.74,1.39,25.11,25.11,0,0,1-3.25.92c-1.33.24-2.68.31-4,.49a9.29,9.29,0,0,0-1.31.33,11.66,11.66,0,0,1-3.71.65c-1.58-.06-3.17,0-4.74-.12a50.85,50.85,0,0,1-6-.82,26.18,26.18,0,0,0-5.23-.37,1.42,1.42,0,0,1-.5-.08c-2.07-.81-4.28-.81-6.44-1.06-1.41-.16-2.82-.47-4.22-.73-1.11-.2-2.22-.4-3.32-.66-1.49-.34-3-.7-4.44-1.12s-3.24-.91-4.8-1.5a25.29,25.29,0,0,1-4.65-2.29,6.39,6.39,0,0,0-1.37-.65,11.76,11.76,0,0,1-4.51-2.79,38.17,38.17,0,0,1-3.32-3.13c-1.21-1.51-3.05-2.16-4.34-3.51-.65-.68-1.28-1.38-1.94-2.05-.93-.94-2-1.79-2.81-2.8a22.88,22.88,0,0,1-1.84-2.84,25,25,0,0,1-1.3-2.25c-.39-.81-.67-1.68-1-2.51-.17-.43-.41-.84-.57-1.27-.35-.93-.68-1.87-1-2.82a26.56,26.56,0,0,0-1.79-4.62,9.71,9.71,0,0,1-.58-2c-.08-.27-.2-.52-.26-.8-.41-1.85-.83-3.69-1.2-5.55-.15-.75-.13-1.54-.26-2.3-.3-1.7-.66-3.39-1-5.09a11.06,11.06,0,0,1-.06-1.5c0-1.07,0-2.15-.11-3.22-.06-.88-.27-1.75-.35-2.62-.05-.63,0-1.27,0-1.91s-.06-1.5-.08-2.26c0-1.45-.05-2.9-.05-4.36,0-1,.06-1.91.06-2.86,0-.56-.14-1.12-.12-1.68,0-1.09.15-2.18.24-3.28.08-.91.14-1.83.27-2.74s.31-2.09.55-3.11c.35-1.54.8-3.05,1.17-4.58s.64-3,1-4.51a28.72,28.72,0,0,1,1.12-3.21,31.08,31.08,0,0,1,1.78-4,22.74,22.74,0,0,0,1.39-3.31,8.55,8.55,0,0,1,1.6-2.94,6,6,0,0,0,.56-1c.3-.47.6-.94.93-1.39s.59-.54.71-.87a10.15,10.15,0,0,1,1.64-2.68c.68-.88,1.16-1.91,1.8-2.82s1.44-2,2.22-2.91a45.18,45.18,0,0,1,3.09-3.45,15.26,15.26,0,0,1,4.26-3,11.87,11.87,0,0,0,1.26-.81c.54-.34,1.09-.65,1.64-1A19.33,19.33,0,0,1,320,137c.91-.41,1.87-.71,2.8-1.07a6.82,6.82,0,0,0,.74-.4,2,2,0,0,1,.5-.26,22.07,22.07,0,0,0,4.07-1.48,25.87,25.87,0,0,1,4.54-1.7c1.52-.36,3-.81,4.52-1.29.83-.27,1.6-.76,2.44-1,1-.3,2.09-.44,3.14-.65.43-.09.87-.17,1.3-.28s.72-.25,1.08-.31c3-.52,5.89-1.09,8.86-1.5,1.5-.21,3-.1,4.57-.16.42,0,.83-.14,1.25-.18a8.41,8.41,0,0,1,3.36.32,6.32,6.32,0,0,0,1,.07,18.17,18.17,0,0,1,3.21.52,8.2,8.2,0,0,0,2.18.54,5.79,5.79,0,0,1,1.34.41c1.67.53,3.33,1.08,5,1.59,1.19.36,2.41.66,3.6,1a16.34,16.34,0,0,1,3.88,1.77c.14.09.35.09.46.2a1.21,1.21,0,0,1,.38.63.71.71,0,0,1-.34.55c-1.38.72-2.78,1.39-4.17,2.09-.2.1-.37.27-.57.37-.9.47-1.79.94-2.69,1.4-1.53.77-3.05,1.57-4.61,2.29-1.38.64-2.81,1.17-4.2,1.77-.65.28-1.26.66-1.92.94-1,.4-1.94.74-2.89,1.14a7.63,7.63,0,0,0-1.26.75,16.84,16.84,0,0,1-3.83,1.64c-1.52.57-3,1.13-4.57,1.66a12.77,12.77,0,0,1-2,.47c-1.45.25-2.9.46-4.35.67-.82.11-1.65.15-2.47.28a6.66,6.66,0,0,1-3.24-.29c-.55-.19-1,.13-1.3.82-.22.47.07.67.38,1a10.66,10.66,0,0,0,5.55,2.65,2,2,0,0,1,.64.22,4.34,4.34,0,0,0,2.06.47c1.37.09,2.73.29,4.1.35,1.69.08,3.4.15,5.09.08,2-.07,3.95-.29,5.92-.46,1.15-.1,2.29-.27,3.45-.35,1.56-.11,3.14-.12,4.69-.25,1.28-.11,2.54-.33,3.8-.53.91-.15,1.82-.31,2.71-.53a18.53,18.53,0,0,0,3-.9c1.75-.77,3.46-1.62,5.14-2.51a42,42,0,0,0,3.92-2.32,19.1,19.1,0,0,0,2-1.83c.29-.26.61-.49.92-.73a8,8,0,0,0,.86-.7c.45-.47,1-.44,1.21.15A3.83,3.83,0,0,0,397,146.2l0,0c.93,1.1,1.93,2.15,2.76,3.32a13,13,0,0,0,2.5,2.73,3.37,3.37,0,0,1,1.47,1.79.49.49,0,0,0,.19.27c1.58,1.14,2.35,2.88,3.37,4.45s1.37,3.18,2.23,4.69c.38.66.65,1.38,1,2.07a1.42,1.42,0,0,0,.31.46,6.68,6.68,0,0,1,1.61,2.22c.75,1.52,1.6,3,2.4,4.47a3,3,0,0,1,.26.8,15.29,15.29,0,0,0,1.31,4.18,17.66,17.66,0,0,1,1,3.12,2.35,2.35,0,0,0,.14.49,15.22,15.22,0,0,1,1.36,4.57c.16.84.35,1.67.54,2.5l-.2,0a26,26,0,0,0,.38,4.14,15.22,15.22,0,0,1,0,4.48c0,.73.14,1.46.16,2.19a23.6,23.6,0,0,1-.51,5.45c-.42,2.08-.71,4.19-1.1,6.29-.23,1.23-.53,2.45-.78,3.68s-.4,2.37-.65,3.55c-.16.73-.44,1.44-.65,2.16s-.48,1.51-.67,2.28a7.77,7.77,0,0,1-1,2.79,7.71,7.71,0,0,0-.92,2.53c-.56,1.9-1.08,3.8-1.68,5.69a16.74,16.74,0,0,1-.83,1.91c-.37.84-.75,1.68-1.15,2.52a1.43,1.43,0,0,1-.46.67c-.43.23-.55.62-.78,1a8.08,8.08,0,0,1-1.36,1.63,8.09,8.09,0,0,0-1.39,1.89c-.62,1-1.29,2-2,3a26.86,26.86,0,0,1-2.07,2.39c-.85.9-1.79,1.72-2.66,2.6C398.58,251.68,398.23,252.29,397.73,252.73Zm-2.07-47c1-.93,2.07-1.77,3-2.76s2.1-1.51,2.38-2.89c0-.1.13-.18.21-.26.43-.44.9-.85,1.31-1.31a7,7,0,0,0,1.72-4.08,1.08,1.08,0,0,0-.4-.81c-.33-.25-.6,0-.76.35a9.5,9.5,0,0,0-.41.93,4.72,4.72,0,0,1-.48,1.13c-.79,1-1.28,2.25-2.5,2.87-.14.07-.24.24-.35.37-.43.5-.83,1-1.29,1.49a34,34,0,0,1-4.73,4.25c-.63.42-1.14,1-1.79,1.38a4.19,4.19,0,0,1-5.27-1.14,2,2,0,0,1-.06-2.68c.44-.55.91-1.08,1.38-1.6,1.67-1.83,3.59-3.42,5.1-5.41a31,31,0,0,0,2.09-2.6,25.93,25.93,0,0,0,2.73-5.46c.31-1,.65-2,.91-3s.54-2.27.75-3.41a20.6,20.6,0,0,0,.25-2.41c0-.17-.2-.39-.36-.52s-.35.06-.41.17a15.91,15.91,0,0,0-1.34,2.42c-.53,1.4-.93,2.86-1.35,4.3a30.77,30.77,0,0,1-3.72,7.41c-.1.16-.34.24-.56.38-.14-.44-.22-.71-.3-1-.25-.89-.51-1.77-.73-2.67a7,7,0,0,0-2.28-4,33.21,33.21,0,0,0-2.66-2.1c-1.45-.95-3-1.8-4.46-2.65a14.47,14.47,0,0,0-3.91-1.37c-.93-.22-1.87-.42-2.79-.66a9.94,9.94,0,0,0-4.87-.15,29.76,29.76,0,0,0-3.72,1.46c-.79.31-1.6.55-2.38.87A12.64,12.64,0,0,0,360,183a15.91,15.91,0,0,0-1.46,1.65c-.27.33-.46.73-.73,1.06a9.08,9.08,0,0,0-2,2.77.52.52,0,0,1-.42.3.94.94,0,0,1-.57-.37c-.33-.55-.6-1.13-.9-1.7-.1-.2-.28-.4-.28-.6a1.35,1.35,0,0,0-.72-1.2,1.84,1.84,0,0,1-.54-.49,8.21,8.21,0,0,0-2.25-2.25c-1.34-1-2.63-2-4-3a8.38,8.38,0,0,0-3.4-1.15c-.79-.17-1.59-.29-2.38-.45a19.73,19.73,0,0,0-2.36-.5,12.18,12.18,0,0,0-5.6,1.36c-1.13.47-2.26,1-3.33,1.53a8.34,8.34,0,0,0-2.83,2c-.34.43-.77.78-1.11,1.2a16.14,16.14,0,0,0-1.88,2.52,44.62,44.62,0,0,0-1.76,4.27c-.16.41-.2.88-.33,1.31-.44,1.43-.92,2.86-1.35,4.29a10.69,10.69,0,0,0-.22,1.34c-.13.77-.31,1.54-.39,2.32a9.85,9.85,0,0,0,.64,3.94.7.7,0,0,1-.49,1,1.56,1.56,0,0,1-.73,0,15.69,15.69,0,0,1-4.19-1.65,20.79,20.79,0,0,1-2.81-1.68,33.68,33.68,0,0,1-2.58-2.75,3.26,3.26,0,0,1-.89-1.85c0-.24-.12-.48-.16-.72a25.2,25.2,0,0,1-.37-2.5,24,24,0,0,1,0-3.05,8.34,8.34,0,0,1,.4-2.08c.24-.71,0-1.19-.77-1.22a1.79,1.79,0,0,0-1.53,1.57c-.14,1-.27,2-.38,3-.07.64,0,1.3-.16,1.92a4.84,4.84,0,0,0,.37,2.71c.21.6.36,1.22.56,1.83a10,10,0,0,0,.81,2.27,9.32,9.32,0,0,0,1.78,2,9,9,0,0,0,3.46,2.4,1.54,1.54,0,0,1,.4.28,8.08,8.08,0,0,0,4,1.9c.56,0,1.1.26,1.66.33a19,19,0,0,0,2.53.21c1.07,0,2.14-.19,3.21-.2a4.54,4.54,0,0,1,2.79.53c.37.25.69.54.57,1a4.93,4.93,0,0,1-.51,1.37,4.66,4.66,0,0,1-2.65,2.37,10.14,10.14,0,0,1-4.44.54,22.74,22.74,0,0,1-4.1-.8,21.26,21.26,0,0,1-5.27-2.12c-1.32-.9-2.6-1.84-3.87-2.81a.78.78,0,0,0-.91-.13,3,3,0,0,0-.65.33.92.92,0,0,0-.35.51,1.61,1.61,0,0,0,.47,1.54c.56.52.91,1.29,1.51,1.73a21.55,21.55,0,0,0,3.09,1.81,22,22,0,0,0,3.31,1.41c1.67.51,3.39.87,5.09,1.29a2.62,2.62,0,0,0,.62,0c1.51,0,3,0,4.54,0a1,1,0,0,1,1,.78,15.71,15.71,0,0,0,1.09,2.34,20.64,20.64,0,0,0,1.42,2.11q1.24,1.67,2.54,3.29c.31.38.81.62,1,1a8.37,8.37,0,0,0,2.35,2.07c1.17.94,2.66,1.35,3.78,2.44a15.65,15.65,0,0,0,3.07,1.89c.24.14.51.23.76.36.65.34,1.27.73,1.94,1,1,.49,2.1.93,3.16,1.38a19.43,19.43,0,0,0,2.2.89c2.15.62,4.31,1.19,6.47,1.75a23.55,23.55,0,0,0,2.6.48c.39.05.79-.08,1.18,0a15.17,15.17,0,0,1,4.06.69,1.22,1.22,0,0,0,1.46-.33,2.82,2.82,0,0,0,.4-3.48,3.69,3.69,0,0,1-.26-3.77c.17-.32.31-.65.51-.95a4.49,4.49,0,0,1,.7-.91,3.5,3.5,0,0,1,.88-.49c.94-.43,1.87-.9,2.83-1.26,1.43-.54,2.94-.87,4.31-1.52a51.16,51.16,0,0,1,5.3-1.89c1.39-.49,2.81-.86,4.17-1.42a13.71,13.71,0,0,0,4.16-2.58c.66-.61,1.54-1,2-1.83a3.42,3.42,0,0,1,.75-1,5.76,5.76,0,0,0,1.19-1.88,12.42,12.42,0,0,0,1.4-4.8,2,2,0,0,1,1.59-1.91,1.61,1.61,0,0,0,.66-.41C394.53,206.87,395.07,206.26,395.66,205.71Z"/><path class="cls-2" d="M283.43,119.6c-.43,19-11.34,33.94-28,38.33a49.66,49.66,0,0,1-27.09-.29c-11.58-3.41-19.94-15.15-22.13-28-2.87-16.87,14.5-39.23,32.51-39.52,7.4-.12,14.8-.82,22.22-.92A16.08,16.08,0,0,1,272,93.56C280.76,101.21,283.7,107.91,283.43,119.6Zm-30.3-25.94c-1.24,0-2.48-.12-3.71-.06-7.34.38-8.77,1.47-11.26,8.38-6,16.78-2.19,31.79,8.21,45.58,4.16,5.51,8.74,6.29,14.94,3.08,8.87-4.6,13.36-12.55,16.47-21.49C284.14,110.83,272.43,94,253.13,93.67ZM246.06,154c0-.41,0-.55,0-.64a5,5,0,0,0-.6-.91c-13.33-14.39-16.86-31.09-11.88-49.87.5-1.91,2.47-4.76.77-5.7-2-1.11-4.4,1.24-6.44,2.54a3.09,3.09,0,0,0-.55.5c-4.78,5-9.5,10.12-13.26,16a18.2,18.2,0,0,0-2.76,13.8C214.81,147.56,227.29,155.12,246.06,154Z"/><path class="cls-3" d="M253.13,93.67c19.3.33,31,17.16,24.65,35.49-3.1,8.94-7.6,16.89-16.47,21.49-6.2,3.21-10.79,2.44-14.94-3.08-10.4-13.79-14.26-28.8-8.21-45.58,2.49-6.91,3.92-8,11.26-8.38C250.65,93.55,251.89,93.64,253.13,93.67Z"/><path class="cls-7" d="M246.06,154c-18.77,1.14-31.25-6.42-34.75-24.29a18.2,18.2,0,0,1,2.76-13.8c3.76-5.86,8.48-10.95,13.26-16a3.09,3.09,0,0,1,.55-.5c2-1.29,4.45-3.65,6.44-2.54,1.7.94-.27,3.79-.77,5.7-5,18.78-1.45,35.47,11.88,49.87a5,5,0,0,1,.6.91C246.08,153.43,246,153.57,246.06,154Z"/><path class="cls-2" d="M223.22,182.07c2,.75,2.7-.53,3.59-1.29,13.48-11.56,34-13.35,49.67-4.73,9.1,5,12.39,13,12.82,22.67a71.3,71.3,0,0,1-4.15,26.21,10.69,10.69,0,0,1-2.32,4.17c-11.71,11.88-25.24,18.41-42.39,14.43-7.9-1.83-13.42-6.55-17.27-13.47a64.91,64.91,0,0,1-7.56-21.92c-.6-3.93.67-7.59,1.59-11.29.53-2.13,1.21-4.22,2.07-7.2-5.71,4.11-10.83,7.52-16.88,9-13.14,3.21-26,2.73-37.19-5.55-11.67-8.61-17.88-28.28-13.44-40.23,2.82-7.59,8.29-13.18,14.44-18,7.06-5.56,14-11.61,23.6-12.35S208,124,215,130.86c4.8,4.67,9.45,9.4,12.23,15.71a30.86,30.86,0,0,1,1.16,22.76A77.36,77.36,0,0,1,223.22,182.07Zm61.62,20.48c.56-7.59-.48-14.81-7-19.71-17.47-13.15-42.55-10.34-54.92,10.37-2.06,3.45-3.19,7.22-1.23,10.93,4.09,7.74,9.53,14.11,18.54,16.45a110.23,110.23,0,0,0,18.27,2.85,32.41,32.41,0,0,0,20.13-5,11.63,11.63,0,0,0,6.07-9.61C284.83,206.77,284.8,204.66,284.83,202.56Zm-88.92-75.5c-15.45-.51-36.32,14.93-40.32,29.23a5.11,5.11,0,0,0,2.14,6.15c3.17,2.14,6.2,4.52,9.49,6.48,8.36,5,17.09,8.15,26.95,4.62.92-.33,1.92-.45,2.88-.69,8.91-2.29,17-5.9,22.89-13.41,3.26-4.18,3.59-8.26.93-12.72a78.48,78.48,0,0,0-9-12.25C207.39,129.42,201.63,127.45,195.91,127.06Zm-39.64,40c2.31,9,5.94,16.76,13.26,22.33a17.78,17.78,0,0,0,9.52,3.87c8.4.54,16.84.54,25-1.68,10-2.7,17.8-12.41,18.06-21.69.09-3.18-.66-3.62-3.49-2.05-7.34,4.07-14.69,8.12-22.85,10.5-12.55,3.66-23.67,1.77-33.17-7.63A16.1,16.1,0,0,0,156.27,167.08Zm65.42,46.24c-.7,2.59.27,4.39,1,6.16a52.34,52.34,0,0,0,9.28,14.66c2.64,3.08,6.12,4.47,10,5.11a37.75,37.75,0,0,0,11.8.23c9.66-1.43,17.26-6.13,23.6-14.78C256.46,230,237.47,229.5,221.69,213.33Z"/><path class="cls-3" d="M195.91,127.06c5.72.39,11.48,2.36,16,7.41a78.48,78.48,0,0,1,9,12.25c2.66,4.46,2.32,8.54-.93,12.72-5.84,7.51-14,11.12-22.89,13.41-1,.25-2,.36-2.88.69-9.86,3.53-18.59.35-26.95-4.62-3.28-2-6.31-4.33-9.49-6.48a5.11,5.11,0,0,1-2.14-6.15C159.59,142,180.46,126.56,195.91,127.06Z"/><path class="cls-12" d="M156.27,167.08a16.1,16.1,0,0,1,6.36,3.66c9.5,9.4,20.62,11.29,33.17,7.63,8.16-2.38,15.51-6.43,22.85-10.5,2.83-1.57,3.57-1.13,3.49,2.05-.25,9.28-8.1,19-18.06,21.69-8.2,2.22-16.64,2.22-25,1.68a17.78,17.78,0,0,1-9.52-3.87C162.21,183.85,158.57,176.07,156.27,167.08Z"/><path class="cls-3" d="M284.83,202.56c0,2.1,0,4.21-.13,6.31a11.63,11.63,0,0,1-6.07,9.61,32.41,32.41,0,0,1-20.13,5,110.23,110.23,0,0,1-18.27-2.85c-9-2.34-14.45-8.7-18.54-16.45-2-3.72-.83-7.48,1.23-10.93,12.37-20.72,37.45-23.52,54.92-10.37C284.36,187.75,285.39,195,284.83,202.56Z"/><path class="cls-13" d="M221.69,213.33c15.78,16.17,34.77,16.65,55.66,11.38-6.34,8.65-13.94,13.35-23.6,14.78a37.75,37.75,0,0,1-11.8-.23c-3.89-.64-7.36-2-10-5.11a52.34,52.34,0,0,1-9.28-14.66C222,217.71,221,215.92,221.69,213.33Z"/></svg>