<svg id="圖層_1" data-name="圖層 1" xmlns="http://www.w3.org/2000/svg" viewBox="0 0 456 448.6"><defs><style>.cls-1,.cls-2{fill:#5c1d13;}.cls-2{opacity:0.1;}</style></defs><title>graphic</title><path class="cls-1" d="M24.64,409.33c-1.78,0-1.89-1.08-2.12-3.24-.46-4.4-1.17-9.15-2.2-14.51a11.66,11.66,0,0,1,.78-6.9C25,375.53,29.85,369,36.25,364.15a35.31,35.31,0,0,1,21.45-7.44h1.08c1.33,0,2.66,0,4,0l3.32,0h0c.7,0,.85-.08.88-.12s.11-.2.08-.81c-.09-2.56-.11-5.16-.12-7.68,0-3.34,0-6.79-.23-10.17-.2-3.67-.28-7.39-.36-11l-.05-2.43a114.88,114.88,0,0,1,.85-14.28c.13-1.24.25-2.48.37-3.71.37-4,.82-8.12,1.25-12.07q.29-2.67.58-5.34c.67-6.33,1.66-12.51,2.79-19.36,1.28-7.75,2.58-16,3.29-24.17.82-9.44,3.54-18.4,6.09-25.93a280.12,280.12,0,0,1,11.91-29.53,233.25,233.25,0,0,1,12.75-22.79c3.92-6.35,8.82-11.79,14.35-17.73,4-4.33,8.81-7.81,13.44-11.17l3-2.18c9.47-7,19.87-11.81,27.88-15.21l5.43-2.32c7.08-3,14.41-6.19,21.81-8.84l.18-.07a5.5,5.5,0,0,1,1.92-.44,3.35,3.35,0,0,1,.48,0,3.08,3.08,0,0,0,.44,0,.86.86,0,0,0,.68-.21,1.44,1.44,0,0,0,.09-1.1c-.24-1.26-.46-2.53-.68-3.8-.57-3.23-1.15-6.57-2-9.77a76.15,76.15,0,0,1-2.73-23.76c.35-7.72,1.85-13.65,4.71-18.65a19,19,0,0,1,14.08-9.53,10.77,10.77,0,0,1,1.75-.15,10.28,10.28,0,0,1,7.68,3.64A19.92,19.92,0,0,1,222.37,53a13.27,13.27,0,0,0,.85,1.82l.09-.22c2.25-5.32,6.51-8.62,13.41-10.38a12.79,12.79,0,0,1,3.17-.4A21.52,21.52,0,0,1,248.33,46a2.2,2.2,0,0,1,1,1l.12.19c2.19,3.27,3.4,7.11,3.93,12.46.27,2.77.36,5.58.45,8.29,0,1.31.08,2.63.15,3.94a10.49,10.49,0,0,0,1-.76l1-.82a21.3,21.3,0,0,0,2.39-2.15,8,8,0,0,1,6.24-2.71,14.62,14.62,0,0,1,2.75.29,47.67,47.67,0,0,1,6.06,1.68,5.84,5.84,0,0,1,2.44,1.75,23.05,23.05,0,0,1,5.87,13.48c.08.73.18,1.46.28,2.19a33.65,33.65,0,0,1,.42,8.31c-.38,3.33-.89,6.7-1.53,10-.39,2-.26,2.2,1.76,2.61,8.74,1.79,17.78,3.64,26.26,7.21a219.34,219.34,0,0,1,44.29,25.24c2.16,1.57,4.18,3.34,6.14,5.05,1.18,1,2.39,2.09,3.62,3.1.87.71,1.83,1.35,2.76,2a25.08,25.08,0,0,1,4,3.07,210.2,210.2,0,0,1,21.12,24.12c5.76,7.85,11.79,16.27,16.74,25.31a185.84,185.84,0,0,1,11,25.26l.11.3c3.59,9.82,7.31,20,9.77,30.35,2.09,8.82,3.75,16.27,5.09,23.91a33.22,33.22,0,0,1,.35,5.35c0,3,.32,6,.6,8.92.15,1.51.29,3,.41,4.54.42,5.62.64,11.33.86,16.86l.09,2.19c.09,2.34.25,4.72.41,7,.3,4.41.6,9,.46,13.48-.18,6-.15,12-.12,17.89s.07,12.06-.12,18.09c-.24,7.59-.26,15.32-.27,22.79v1.78c0,2.46,0,5.08.08,8a1.81,1.81,0,0,1-.39,1.36,1.49,1.49,0,0,1-1.12.39l-.4,0c-.66,0-1.55-.08-1.67-1.57-.58-7.38-.56-14.87-.53-22.13l0-9c0-10.41.06-21.18.16-31.77,0-2.12.12-4.27.21-6.34.14-3.06.28-6.22.18-9.32l0-1c-.21-6.64-.43-13.51-1.25-20.23-.59-4.86-.82-9.69-1-14.62a103.08,103.08,0,0,0-1.58-12.78c-.24-1.45-.48-2.9-.7-4.35-.82-5.43-2-10.87-3.22-16.14-.51-2.27-1-4.53-1.5-6.8a23.13,23.13,0,0,0-.93-3c-.17-.49-.35-1-.51-1.47l-.35-1.08c-2.41-7.43-4.9-15.1-7.76-22.51-3.75-9.71-7.56-19.14-13-27.82a226.8,226.8,0,0,0-29.14-38,32.19,32.19,0,0,0-3-2.64c-1.31-1.06-2.65-2.1-4-3.14l-1-.79v0a9.16,9.16,0,0,1-3.47,6c-4,3.53-8.87,5.58-15,6.26a149.51,149.51,0,0,1-16.42.91h-1.46a229.28,229.28,0,0,1-29.94-2,49.66,49.66,0,0,0-6.86-.58q-.7,0-1.4,0l-1.14,0a47.62,47.62,0,0,1-8.62-1.05l-2.46-.44c-5.29-.89-11.28-1.9-17.08-3.29-6.22-1.49-11.38-5-15.72-8.09a1.71,1.71,0,0,1-.57-2.27l.05-.12a2.18,2.18,0,0,1,2-1.64l4.78-.14c1.84-.06,3.68-.12,5.52-.16a55,55,0,0,0,6.35-.63c.92-.13,1.84-.26,2.76-.36,3.42-.4,6.9-.52,10.27-.64l3.41-.13q6.91-.3,13.81-.65,7.88-.38,15.75-.73l2.84-.13c3.82-.17,7.77-.35,11.67-.35h2.63c4.16,0,8.4-.14,12.5-.28s8.35-.28,12.53-.28h.4a5.74,5.74,0,0,0-1-.92,139.51,139.51,0,0,0-20.13-13.4c-1.68-.88-3.45-1.65-5.17-2.39a57.27,57.27,0,0,1-7.25-3.56c-7.44-4.57-15.89-6.91-24.06-9.17l-2.14-.59A94.54,94.54,0,0,0,274,108.75c-.93-.08-1.95-.12-3.12-.12s-2.18,0-3.27.07-1.93.06-2.9.07l-4.85,0q-6.21,0-12.42.1l-4.75,0c-6.37,0-13,.09-19.42.56a109.64,109.64,0,0,0-26.8,5.32c-2.16.72-4.39,1.31-6.54,1.87a67,67,0,0,0-9.75,3.1c-2.71,1.18-5.5,2.32-8.2,3.41a157.82,157.82,0,0,0-18.7,8.58A198.26,198.26,0,0,0,129,148.12c-4.38,3.44-7.62,8-10.33,12q-1,1.41-1.89,2.83c-1.93,2.9-3.92,5.9-6.12,8.71a33.57,33.57,0,0,0-3.58,6.29c-.42.88-.84,1.77-1.29,2.63a117.3,117.3,0,0,1-7,11.8c-3.52,5.22-5.92,11-8.48,17.37-.54,1.35-1.1,2.7-1.66,4a108.3,108.3,0,0,0-4.42,12,147.57,147.57,0,0,0-4.09,17.51c-.33,2.14-.57,4.33-.8,6.45s-.47,4.26-.79,6.38c-.77,5.1-1.43,10.3-2.07,15.34-.84,6.61-1.71,13.45-2.84,20.15-.69,4.06-1,8.27-1.39,12.33-.11,1.32-.23,2.63-.35,3.95-.57,6.07-.9,11.65-1,17.06a52.56,52.56,0,0,0,.56,7.51c.22,1.78.45,3.62.54,5.46.19,3.84.15,7.73.11,11.5,0,1.41,0,2.83,0,4.24,0,.39,0,.78,0,1.16a17.25,17.25,0,0,1,0,2.25,2.8,2.8,0,0,0,1.6,2.81l.76.49a33.5,33.5,0,0,1,6.22,4.76l.24.25a5.4,5.4,0,0,1,.71.8,1.29,1.29,0,0,0,1.14.67,2.69,2.69,0,0,0,.75-.12c1.17-.34,2.33-.71,3.48-1.08,1.7-.54,3.46-1.1,5.23-1.57a40.43,40.43,0,0,1,10.31-1.38A39.58,39.58,0,0,1,120,366.86c4.27,2.08,7.65,5.31,10.64,10.16a30.63,30.63,0,0,1,4.49,11.23,17.44,17.44,0,0,1,.16,3v.72c0,2.79,0,5.58,0,8.37,0,2.53,0,5.05,0,7.58A1.51,1.51,0,0,1,135,409a1.2,1.2,0,0,1-.89.32h-.27c-.46,0-.92-.05-1.38-.07l-1.16,0v-1.7c0-.85,0-1.7,0-2.55s0-1.81-.06-2.71c-.1-4.95-.2-10.07-1.58-15-1-3.54-2-7.19-4.65-9.95-6.38-6.71-13.33-10-21.23-10a30.42,30.42,0,0,0-4.6.36c-4.83.74-11.12,2-17,5s-9.41,6.9-10.92,12.18c-1,3.36-1.72,6.66-.57,10.11a3.76,3.76,0,0,1,.14,1.13c0,.14,0,.29,0,.42l1.05,12.57-.52.08a10.84,10.84,0,0,1-1.76.13c-.62,0-1.25,0-1.87-.08l-.49,0-.08-.49q-.17-2.17-.33-4.33c-.25-3.35-.51-6.82-.83-10.23a26.46,26.46,0,0,1,.44-9.35c1.47-5.52,3.84-9.32,7.45-12A31.74,31.74,0,0,0,77,370.12l1-.94c-.61-.5-1.2-1-1.8-1.51a40.83,40.83,0,0,0-5.3-4,15.82,15.82,0,0,0-5.18-1.91,27.48,27.48,0,0,0-5.43-.52,45.69,45.69,0,0,0-10.58,1.42,27,27,0,0,0-15.18,9.85c-4.23,5.32-9,12.63-8.34,22,.39,5.5.6,10,.65,14.15v.52l-.51.05C25.62,409.27,25.08,409.33,24.64,409.33ZM327.8,161.25c2.06,0,4.17.08,6.25.23,1.19.09,2.39.13,3.57.13a48.05,48.05,0,0,0,15.21-2.5c5.26-1.75,5.85-6.41,5.73-9a2.57,2.57,0,0,0-2.06-2.48l-.56-.15a29.08,29.08,0,0,0-3.46-.76,86.11,86.11,0,0,0-11.44-.69c-3,0-6.21.11-10.22.36l-2.29.14c-4.62.29-9.4.58-14.12.67l-2.44,0c-6,.12-12.11.24-18.15.52-4.57.21-9.21.5-13.7.78-4.33.27-8.8.55-13.21.76-3.41.16-6.84.6-10.17,1-1.59.2-3.19.4-4.78.58l.7.33a42.39,42.39,0,0,0,8.88,3.39l1.72.38c2,.44,4.07.89,6.11,1.29l.81.16a134.52,134.52,0,0,0,15.67,2.41c1.61.12,3.22.2,4.83.28,2.89.14,5.88.29,8.82.67a169.28,169.28,0,0,0,21.13,1.62h0c1.27,0,2.53,0,3.75-.07S326.67,161.25,327.8,161.25Zm-118-112a9.08,9.08,0,0,0-2.09.24c-.7.16-1.41.31-2.11.45-1,.2-2,.41-3,.67-2.05.56-3.45,2-4.68,4.79-3.48,7.92-4.66,15.44-3.62,23,.49,3.57,1,7.41,1.78,11.28s1.66,8,2.54,11.86c.38,1.66.75,3.32,1.12,5,.4,1.81.69,1.9,1.16,1.9a5.55,5.55,0,0,0,1.43-.28c6.56-1.89,13.38-2.54,19.4-3.12.94-.09,1.44-.24,1.63-.49s.19-.77,0-1.7A60,60,0,0,1,222,89.64l0-1.18c0-1.1.07-2.23.06-3.34,0-2-.17-4.12-.31-6.12a74.72,74.72,0,0,1-.29-8.32c0-.61,0-1.23,0-1.86a30.46,30.46,0,0,0-.07-4,47.34,47.34,0,0,0-3.12-11.5,4.4,4.4,0,0,0-2.72-2.76A17.37,17.37,0,0,0,209.82,49.22Zm29.37-1.14a4.41,4.41,0,0,0-1.67.35l-.73.3c-.88.35-1.79.72-2.63,1.15-3.9,2-6.32,4.72-7.4,8.26a26,26,0,0,0-.88,10.68A233.62,233.62,0,0,1,227.46,93v3c0,2.56,0,5.13,0,7.69a1.16,1.16,0,0,0,.16.76.65.65,0,0,0,.45.12h.25l.48,0c.19,0,.38,0,.57-.05a65.6,65.6,0,0,1,10.74-.69h6.47c.54,0,.93,0,1.24,0l.53,0h.15a13,13,0,0,0-.25-1.9,24.74,24.74,0,0,1-.14-10,54.91,54.91,0,0,0,1.49-13.4,133.86,133.86,0,0,0-1.65-21c-.64-3.58-1.64-6.08-4.64-7.49a4.15,4.15,0,0,1-.92-.64c-.14-.12-.27-.23-.42-.33A4.78,4.78,0,0,0,239.18,48.08Zm36,56.42c1.29,0,1.63-.27,1.82-1.45s.39-2.51.57-3.77l0-.12c.67-4.67,1.35-9.43.57-14.12-.56-3.38-1.28-6.95-3.27-10.07a10.82,10.82,0,0,0-8.66-5.06,7.36,7.36,0,0,0-1.33.12,13.18,13.18,0,0,0-10.54,12.54,176.54,176.54,0,0,1-1.65,21.18,1.12,1.12,0,0,0,0,.28h12.05v.49Z"/><path class="cls-1" d="M71.29,408.61a15.8,15.8,0,0,1-3.54,0c-.38-4.86-.71-9.72-1.16-14.57a25.77,25.77,0,0,1,.42-9.15c1.24-4.63,3.23-8.72,7.24-11.64a61.39,61.39,0,0,0,4.63-4.14c-2.57-2.07-4.89-4.34-7.67-6a16.39,16.39,0,0,0-5.36-2c-5.5-1.1-10.91-.34-16.26.91a27.57,27.57,0,0,0-15.5,10c-5.19,6.53-9.09,13.64-8.47,22.41.33,4.7.59,9.4.65,14.11-2.89.31-2.91.31-3.21-2.6-.51-4.89-1.28-9.73-2.2-14.56a11.07,11.07,0,0,1,.74-6.57c3.41-7.93,8-15,15-20.3a34.62,34.62,0,0,1,21.11-7.33c2.79,0,5.59.06,8.38.07,1.33,0,1.58-.25,1.54-1.51-.2-6,0-11.91-.36-17.86-.25-4.47-.31-8.94-.42-13.41-.14-6,.66-12,1.21-17.92.54-5.81,1.22-11.6,1.83-17.4.69-6.48,1.73-12.9,2.78-19.33,1.32-8,2.59-16.08,3.3-24.21.77-8.88,3.22-17.4,6.07-25.8a278.08,278.08,0,0,1,11.89-29.47,231.72,231.72,0,0,1,12.72-22.73c4-6.53,9.11-12.09,14.28-17.64,4.84-5.2,10.7-9.1,16.34-13.28,8.55-6.33,18-11,27.76-15.14,9-3.83,18-7.84,27.2-11.15a4.65,4.65,0,0,1,2.31-.44c1.49.21,2.12-.44,1.84-1.94-.86-4.55-1.5-9.15-2.73-13.62a75.33,75.33,0,0,1-2.71-23.59c.29-6.39,1.37-12.68,4.64-18.4a18.33,18.33,0,0,1,13.68-9.25,9.54,9.54,0,0,1,8.92,3.32,19.34,19.34,0,0,1,3.65,6.67,14.63,14.63,0,0,0,1.32,2.65,2.12,2.12,0,0,0,.67-1c2.46-5.8,7.23-8.57,13-10.05,4-1,7.65.19,11.25,1.7.43.18.62.61.86,1,2.48,3.69,3.41,7.86,3.84,12.2.41,4.18.4,8.37.61,12.56a5,5,0,0,0,.09.52,7,7,0,0,0,1.8-1.23,35.13,35.13,0,0,0,3.42-3c2.36-2.61,5.27-2.86,8.46-2.25a47.48,47.48,0,0,1,6,1.66,5.31,5.31,0,0,1,2.2,1.6,22.64,22.64,0,0,1,5.72,13.17c.4,3.45,1.1,6.88.7,10.38q-.57,5-1.52,9.95c-.45,2.33-.11,2.81,2.2,3.28,8.87,1.82,17.74,3.64,26.15,7.17a220.43,220.43,0,0,1,44.18,25.17c3.44,2.5,6.46,5.46,9.73,8.13,2.17,1.77,4.73,3,6.72,5a213.34,213.34,0,0,1,21.07,24.05c6,8.15,11.84,16.38,16.7,25.25a183.42,183.42,0,0,1,11,25.19c3.69,10.07,7.39,20.13,9.86,30.59,1.88,7.92,3.68,15.86,5.08,23.88a32.31,32.31,0,0,1,.34,5.26c0,4.52.68,9,1,13.5.47,6.33.69,12.68.95,19,.27,6.82,1.08,13.63.87,20.46-.37,12,.13,24-.24,36-.26,8.2-.26,16.39-.27,24.58,0,2.68,0,5.36.08,8,0,.83-.18,1.23-1.13,1.17-.77-.05-1.23,0-1.32-1.06-.62-7.82-.55-15.66-.53-23.49,0-13.12.06-26.23.18-39.35,0-5.23.55-10.45.38-15.69-.23-7.1-.42-14.2-1.29-21.28-.59-4.83-.81-9.71-1-14.58-.23-5.81-1.42-11.47-2.29-17.2-1.17-7.75-3.11-15.33-4.72-23a45,45,0,0,0-1.46-4.55c-2.57-7.92-5.12-15.84-8.12-23.61-3.71-9.6-7.56-19.17-13-27.92a228.65,228.65,0,0,0-29.22-38,32.91,32.91,0,0,0-3.06-2.69c-1.86-1.5-3.76-3-5.64-4.42-.38.26-.25.62-.28.9a8.74,8.74,0,0,1-3.28,5.64,25.54,25.54,0,0,1-14.67,6.12,148.13,148.13,0,0,1-17.82.9,231,231,0,0,1-29.87-2,44.43,44.43,0,0,0-8.37-.55c-4.12.2-8.1-.78-12.11-1.46-5.7-1-11.41-1.93-17-3.28-5.85-1.4-10.75-4.55-15.52-8a1.16,1.16,0,0,1-.38-1.58c.31-.68.57-1.4,1.55-1.43,3.43-.08,6.87-.23,10.3-.3,3.09-.06,6.11-.64,9.17-1,4.53-.53,9.09-.57,13.64-.77,9.86-.44,19.71-1,29.56-1.38,5.19-.22,10.37-.52,15.57-.48,9,.08,18-.57,27.08-.55.26,0,.56.11.82-.19a5.36,5.36,0,0,0-1.54-1.74A140.13,140.13,0,0,0,330,127.32c-4.06-2.12-8.47-3.53-12.38-5.94-8.15-5-17.29-7.3-26.35-9.83A96.18,96.18,0,0,0,274,108.18c-3.09-.28-6.23,0-9.34,0-5.76,0-11.52.07-17.27.13-8.07.09-16.15,0-24.21.6a109.71,109.71,0,0,0-26.94,5.35c-5.41,1.81-11.11,2.71-16.34,5-9,3.93-18.39,7.14-26.95,12a198.06,198.06,0,0,0-24.3,16.41c-4.27,3.35-7.44,7.66-10.45,12.11-2.61,3.87-5.09,7.81-8,11.51-2.1,2.69-3.34,6-4.92,9A117.63,117.63,0,0,1,98.41,192c-3.66,5.42-6.14,11.44-8.54,17.48-2.12,5.33-4.54,10.54-6.1,16.09a147.65,147.65,0,0,0-4.11,17.58c-.65,4.25-.95,8.57-1.59,12.84-1.79,11.8-2.92,23.7-4.92,35.48-.91,5.38-1.24,10.87-1.75,16.32-.53,5.69-.9,11.38-1,17.1-.09,4.38.89,8.66,1.1,13,.25,5.24.09,10.47.08,15.71,0,1.12.12,2.25,0,3.36a3.37,3.37,0,0,0,1.86,3.34,37.33,37.33,0,0,1,6.88,5.17,7.87,7.87,0,0,1,.89,1,2,2,0,0,0,2.52.77c2.91-.85,5.76-1.87,8.7-2.64a38.18,38.18,0,0,1,27.36,2.77,25.21,25.21,0,0,1,10.4,10,30.42,30.42,0,0,1,4.41,11,22.79,22.79,0,0,1,.15,3.59c0,5.32,0,10.63,0,15.95,0,.71-.24.89-.89.83s-1.35-.06-2-.09c0-1.24,0-2.48,0-3.71-.17-6,0-12-1.66-17.82-1-3.68-2.1-7.36-4.78-10.18-7.16-7.52-15.74-11.4-26.33-9.77a55.85,55.85,0,0,0-17.14,5c-5.38,2.74-9.49,6.49-11.21,12.53-1,3.48-1.75,6.88-.56,10.44a6.24,6.24,0,0,1,.13,1.43ZM222.06,70.7a56,56,0,0,0,0-6,47.49,47.49,0,0,0-3.15-11.64A5,5,0,0,0,215.81,50c-2.67-1-5.34-1.75-8.22-1.07-1.71.4-3.45.67-5.14,1.13-2.64.72-4,2.79-5,5.1-3.26,7.44-4.79,15.13-3.67,23.3.52,3.79,1.08,7.57,1.79,11.31,1.07,5.64,2.43,11.24,3.66,16.85.52,2.36,1,2.72,3.3,2,6.31-1.82,12.8-2.48,19.3-3.1,2.15-.2,2.55-.74,2.13-2.86a59.34,59.34,0,0,1-1.35-13c0-1.51.12-3,.1-4.54C222.62,80.31,221.87,75.52,222.06,70.7Zm102.37,91.18A83.2,83.2,0,0,1,334,162a48.2,48.2,0,0,0,19-2.4c4.72-1.57,6.3-5.55,6.12-9.6a3.14,3.14,0,0,0-2.48-3,34.68,34.68,0,0,0-4.08-.92,112.69,112.69,0,0,0-21.77-.34c-5.46.33-10.92.71-16.39.81-6.87.14-13.74.25-20.61.57-9,.42-17.93,1.11-26.91,1.54-5,.24-10,1.05-15,1.6-.32,0-.79-.07-.93.35s.31.51.57.63a47.43,47.43,0,0,0,9.9,3.85c2.61.57,5.22,1.16,7.84,1.67a141.4,141.4,0,0,0,16.55,2.58c4.54.33,9.1.37,13.62.95A151.08,151.08,0,0,0,324.43,161.89ZM226.89,93c0,3.56,0,7.11,0,10.67,0,1.11.43,1.55,1.5,1.43.36,0,.72,0,1.07-.09,5.67-.94,11.4-.63,17.11-.66,2.68,0,2.79.72,2.23-2.58a24.31,24.31,0,0,1-.13-9.72,55.92,55.92,0,0,0,1.5-13.54,133.4,133.4,0,0,0-1.66-21.1c-.61-3.4-1.59-6.33-5-7.9a9.27,9.27,0,0,1-1.25-.93,5,5,0,0,0-5-.69c-1.14.47-2.31.9-3.4,1.47-3.64,1.89-6.44,4.55-7.68,8.6a26.49,26.49,0,0,0-.9,10.91A231.71,231.71,0,0,1,226.89,93Zm37.28,11.56v.49h11c1.56,0,2.14-.46,2.38-1.92.21-1.3.4-2.6.59-3.91.68-4.75,1.36-9.5.56-14.29-.6-3.59-1.36-7.15-3.35-10.28-2.38-3.74-6.83-5.89-10.57-5.2a13.74,13.74,0,0,0-11,13.07,178.49,178.49,0,0,1-1.64,21.12c-.13.82.2.93.89.93C256.74,104.57,260.45,104.58,264.16,104.58Z"/><path class="cls-1" d="M347.77,409.24l-1,0-1,0-.09-5.16c0-1.09,0-2.17,0-3.25,0-2.39,0-4.86-.13-7.28q-.07-1.69-.16-3.37c-.14-2.87-.28-5.85-.33-8.77A19.64,19.64,0,0,0,345,378l-.14-4.31-.08-4.16c-.12-4.54-.2-8.63.09-12.82a36.14,36.14,0,0,0-.5-7.94c-.22-1.45-.35-2.91-.48-4.33,0-.56-.1-1.13-.16-1.69-.19-1.93-.32-3.89-.44-5.79-.13-2.06-.27-4.18-.49-6.26-.12-1.15-.2-2.3-.29-3.45-.07-1-.14-2-.23-2.94a281,281,0,0,1-.75-29.33c.05-5.45.11-11.08,0-16.61a3.4,3.4,0,0,0-.06-.48l-.05-.34v-.06a25.77,25.77,0,0,0,0-4.16,24.2,24.2,0,0,1-.12-2.86,19.46,19.46,0,0,0-.19-3.28c-.15-.91-.23-1.83-.3-2.72-.06-.74-.12-1.5-.23-2.24,0-.24-.15-1-1.29-1h-1l-3.77,0-20.35-.33c-1.36-.05-2.71-.08-4-.08s-2.7,0-4,.08h-.07l-.07,0a5.34,5.34,0,0,0-1.14-.11,15.1,15.1,0,0,0-1.68.13c-.54.06-1.1.12-1.67.13h-1.65c-3.5,0-7.08-.18-10.92-.55h-.23c-.31,0-.48,0-.69.71a31.09,31.09,0,0,0-.94,6.2l0,.45c-.48,5.56-.45,11.09-.37,16.74a100.9,100.9,0,0,0,.65,10.58,30.06,30.06,0,0,1,.15,3.32c0,.65,0,1.29,0,1.94,0,1,.11,2,.17,3a77.24,77.24,0,0,1,.09,11.74c-.45,4.76-.44,9.62-.42,14.32,0,1.7,0,3.4,0,5.1a6.42,6.42,0,0,1-.15,1.15,2.7,2.7,0,0,0,0,1.65l.06.13v.14a30,30,0,0,0-.08,4.08,98.3,98.3,0,0,0,.24,12.28c.23,2.32,1,10,1,10l0,5.18.07,12.53c.12,5,.14,10.2,0,15.93,0,1.2,0,2.41,0,3.61a65.74,65.74,0,0,1-.21,7.54l-.05.51h-4.29l.05-.61c.08-.9.17-1.81.26-2.71.21-2,.42-4.08.43-6.11a23.52,23.52,0,0,0-1.11-8.61,5.74,5.74,0,0,1,0-3.2,44.48,44.48,0,0,0,.62-11.47c-.23-4.25-.45-8.77-.45-13.23a9.54,9.54,0,0,0-.43-2.37,11.5,11.5,0,0,1-.25-3.42,16.63,16.63,0,0,0,0-2c-.16-1.86-.22-3.76-.27-5.59s-.1-3.72-.27-5.56a52.23,52.23,0,0,1-.11-5.36c0-1.08,0-2.17,0-3.25l.09-5.39a84.58,84.58,0,0,0,0-9.64c-.26-3.71-.21-7.47-.16-11.1,0-1.36,0-2.72,0-4.08l.08-4,.14-4.29a14.5,14.5,0,0,0,0-3.4v-.14a12.38,12.38,0,0,0,0-3c0-.5-.08-1-.08-1.5,0-.84,0-1.68,0-2.51a51,51,0,0,0-.28-6.35c-.09-.72-.11-1.43-.14-2.12s0-1.35-.13-2v-8c0-.67,0-1.33,0-2,0-1.51.08-3.07,0-4.59-.06-1.21-.31-1.42-1.64-1.44s-2.71-.09-4-.17L275,260c-4.09-.22-8.51-.32-13.9-.32-3.36,0-6.71,0-10.07.08l-5,.05c-3.68,0-7.36.25-10.91.46-1.32.08-2.63.18-3.94.28-2.36.18-4.81.37-7.23.41a6.66,6.66,0,0,0-2.49.69,1.5,1.5,0,0,0-1,1.55c0,1.71.08,3.45.19,5.13,0,.78.1,1.56.14,2.35l.09,4,0,.09a4.53,4.53,0,0,0,0,2,10.64,10.64,0,0,1,.11,1.12l0,1.33a81.6,81.6,0,0,1-.07,8.52c-.21,2.73-.4,5.47-.58,8.2a23.43,23.43,0,0,0,.21,4l.1,4.1-.07.13a1.77,1.77,0,0,0,0,1.32,4.53,4.53,0,0,1,.17,1.09v.92A41.74,41.74,0,0,0,221,314l.11,4.27v.07a9.77,9.77,0,0,0,0,3c0,.52.09,1,.1,1.55.06,2.79.06,5.63.06,8.37,0,1.33,0,2.66,0,4a7.89,7.89,0,0,0,.06.83l0,.42a21.92,21.92,0,0,0,0,4c0,2.63.14,5.24.31,7.76.13,1.88.25,3.82.3,5.74s.26,3.95.46,5.87c.15,1.43.31,2.91.4,4.37.1,1.65.26,3.32.41,4.94s.31,3.33.41,5c.13,2.18.17,4.39.2,6.52a1.28,1.28,0,0,0,.1.41c0,.09.07.19.09.28l0,.1v.1A37.56,37.56,0,0,0,224,388v.09l0,.09a11.25,11.25,0,0,0,0,3.77,18.77,18.77,0,0,1,.15,2.6l.1,4.66,0,.08a6.47,6.47,0,0,0,0,2.7,9.58,9.58,0,0,1,.12,2.4,10.92,10.92,0,0,1-.47,2.44,3.37,3.37,0,0,1-1.09,1.44l-.37.33-.29-.08c-2.22-.57-2.22-2.62-2.22-3.84,0-2.57-.17-5.16-.35-7.57-.24-3.26-.18-6.56-.12-9.74,0-1.3.05-2.61.06-3.91,0-3.91-.12-8-.42-12.26-.1-1.46-.19-2.92-.28-4.37-.13-2.14-.26-4.35-.44-6.52-.13-1.59-.31-3.2-.49-4.77-.25-2.18-.51-4.43-.62-6.66-.22-4.32-.24-8.49-.07-12.39a88.37,88.37,0,0,0-.24-10.44c-.19-2.67-.38-5.51-.34-8.32,0-2.39,0-4.82-.09-7.17-.05-2-.11-4.07-.1-6.11,0-4.11.13-8.29.25-12.32.06-2.16.13-4.32.18-6.48a75.88,75.88,0,0,0-.54-9.17,37.26,37.26,0,0,1-.1-4.36c0-.53,0-1.06,0-1.58s0-1.28,0-1.92c0-1.86,0-3.78.09-5.67l0-.57a11,11,0,0,1,.69-3.89,3,3,0,0,1,2.16-1.79,46.07,46.07,0,0,1,10.29-1.26l1.53-.07c10.93-.56,21.8-.71,30-.77h.31c2.49,0,5,.22,7.46.43l2,.17,4.45.38,2.4.21c1,.08,2.05.12,3.38.12l2.22,0,2.23,0c1.48,0,2.67,0,3.76.15,1.38.13,2.76.15,3.93.15h2.63c.81,0,1.88,0,3,.07,2.49.15,5.13.22,8.3.22,2.5,0,5,0,7.49-.09s5-.09,7.51-.09h1.54a35.55,35.55,0,0,1,4.08.35,33.63,33.63,0,0,0,4.11.34l.87,0c.43,0,.86,0,1.3,0,1.15,0,2.31.08,3.44.15s2.25.15,3.37.15c.44,0,.87,0,1.31,0h.18a5.26,5.26,0,0,1,1.18.17,6.48,6.48,0,0,0,.71.13,1.83,1.83,0,0,1,1.36.85,3.08,3.08,0,0,1,.22,2.58,20.47,20.47,0,0,0-.86,7.37c.09,1.57.2,3.13.3,4.69.17,2.5.34,5.08.45,7.63,0,1,.12,2.08.21,3.13.1,1.26.2,2.56.23,3.85s.09,2.81.14,4.21c.11,2.89.23,5.88.15,8.82,0,1.37,0,2.77.11,4.12s.14,2.52.12,3.8a39.63,39.63,0,0,0,.37,5c.1.9.21,1.79.28,2.69s.12,1.74.16,2.61c.08,1.46.15,3,.36,4.43.26,1.84.38,3.71.5,5.52l.11,1.57.08,1a25.81,25.81,0,0,1,.07,5,43.55,43.55,0,0,0-.23,8.45c.11,1.32.17,2.66.23,4,.08,1.76.16,3.57.36,5.35.17,1.55.29,3.14.41,4.68.05.68.11,1.37.16,2,.14,1.75.38,3.52.6,5.23.1.73.19,1.46.28,2.19s.14,1.18.21,1.78c.17,1.44.34,2.93.58,4.37a17.79,17.79,0,0,1,.23,5.26c-.45,3.37-.69,6.83-.92,10.17l-.08,1.2c-.25,3.53-.22,7.13-.2,10.61,0,1.79,0,3.58,0,5.37s-.21,2.28-2.08,2.28Z"/><path class="cls-1" d="M345.3,369.48c-.12-4.26-.21-8.51.09-12.77a36.09,36.09,0,0,0-.5-8.07c-.31-2-.43-4-.63-6-.39-4-.51-8-.93-12.05-.22-2.12-.32-4.26-.52-6.38-1.46-15.28-.4-30.6-.77-45.9a7.33,7.33,0,0,0-.11-.82,26.52,26.52,0,0,0,0-4.25c-.25-2.05,0-4.13-.31-6.19-.28-1.63-.29-3.3-.53-4.94a1.69,1.69,0,0,0-1.85-1.48c-1.6,0-3.2,0-4.8,0l-20.35-.33q-4-.16-8.1,0c-1.55-.34-3.08.11-4.62.13a110.75,110.75,0,0,1-12.5-.54c-.91-.09-1.25.2-1.52,1.11a34.15,34.15,0,0,0-1,6.76c-.48,5.6-.45,11.2-.38,16.8a101.91,101.91,0,0,0,.66,10.64c.21,1.73.1,3.48.19,5.22.23,4.89.72,9.81.25,14.69-.61,6.49-.37,13-.43,19.47,0,1-.55,2-.09,3a30.63,30.63,0,0,0-.08,4.16,97.23,97.23,0,0,0,.24,12.3q.49,5,1,10c0,1.71,0,3.42,0,5.13q0,6.27.06,12.53c.13,5.31.13,10.61,0,15.92-.06,3.7.19,7.4-.2,11.1h-3.16c.25-3,.68-5.91.69-8.87A24.16,24.16,0,0,0,284,391a5.24,5.24,0,0,1,.06-2.88,44.43,44.43,0,0,0,.63-11.61c-.23-4.4-.45-8.79-.45-13.2a10.32,10.32,0,0,0-.46-2.58c-.46-1.73-.08-3.48-.24-5.21-.33-3.71-.2-7.45-.53-11.15-.26-2.87,0-5.72-.11-8.57q0-2.68.09-5.37a84.4,84.4,0,0,0,0-9.69c-.35-5.05-.13-10.1-.11-15.15q0-2,.08-4l.14-4.28a15,15,0,0,0,0-3.46,24.26,24.26,0,0,0-.06-4.61,84,84,0,0,0-.3-8.93c-.18-1.38-.09-2.76-.26-4.13q0-4,0-7.95c0-2.21.16-4.42,0-6.61-.08-1.55-.63-2-2.2-2-1.79,0-3.57-.15-5.36-.25-9.66-.51-19.32-.27-29-.19-3.64,0-7.3.24-10.94.45s-7.42.64-11.15.69a7.17,7.17,0,0,0-2.71.73,2.06,2.06,0,0,0-1.31,2.06c0,2.51.21,5,.32,7.51l.09,3.9c-.34,1.1,0,2.18.06,3.27a95.83,95.83,0,0,1,0,9.79c-.21,2.73-.4,5.48-.58,8.21a23.67,23.67,0,0,0,.21,4.11l.09,3.9c-.48.91.11,1.77.11,2.67a48.78,48.78,0,0,0,.28,7.59l.1,4.13c-.35,1.57,0,3.13.06,4.7.08,4.11,0,8.23.06,12.35,0,.43.07.87.11,1.3a21.55,21.55,0,0,0,0,4c-.06,4.5.5,9,.61,13.46.08,3.43.66,6.84.87,10.27s.61,6.62.82,9.94c.13,2.19.17,4.37.2,6.55a3.19,3.19,0,0,0,.22.79,38,38,0,0,0-.06,6.47c-.5,2.17.19,4.32.12,6.48l.1,4.6c-.5,1.74.3,3.45.11,5.2a10.54,10.54,0,0,1-.45,2.32,3.23,3.23,0,0,1-1.08,1.33c-1.77-.45-1.8-2-1.8-3.29,0-2.55-.16-5.09-.35-7.61-.34-4.55-.08-9.08-.06-13.61,0-4.11-.13-8.21-.42-12.3-.25-3.63-.42-7.27-.72-10.9-.31-3.81-.92-7.6-1.11-11.41-.21-4.11-.25-8.23-.07-12.34A90.68,90.68,0,0,0,217.5,326c-.2-2.76-.37-5.51-.34-8.27.06-4.43-.2-8.86-.2-13.29,0-6.27.29-12.53.43-18.8a75.83,75.83,0,0,0-.55-9.25c-.19-1.94-.08-3.91-.08-5.87,0-2.52-.08-5,.08-7.55a12.44,12.44,0,0,1,.68-4.27,2.45,2.45,0,0,1,1.79-1.46c3.83-1.06,7.77-1.12,11.69-1.32,10-.52,20-.69,30-.77,3.23,0,6.46.33,9.69.59,2.28.18,4.56.39,6.84.58,3.87.33,7.74-.14,11.58.23,3.19.31,6.37,0,9.55.22,8.3.5,16.59,0,24.88.05,3,0,6,.84,9.1.67s6.27.42,9.42.22a11.88,11.88,0,0,1,2,.3c1,.11,1.53,1.34,1.1,2.69a20.93,20.93,0,0,0-.88,7.57c.24,4.1.58,8.2.75,12.31.1,2.32.38,4.64.44,7,.1,4.34.41,8.67.3,13-.07,2.66.27,5.28.24,7.93s.44,5.16.65,7.74c.19,2.36.19,4.74.52,7.07s.43,4.7.6,7a31.43,31.43,0,0,1,.14,5.88,44.52,44.52,0,0,0-.24,8.56c.25,3.1.25,6.22.59,9.32.24,2.22.38,4.48.57,6.71.21,2.49.58,5,.89,7.45.25,2.06.45,4.13.79,6.17a17.08,17.08,0,0,1,.23,5.09c-.51,3.79-.74,7.6-1,11.41-.37,5.34-.13,10.68-.2,16,0,1.73,0,1.73-1.76,1.72-.48,0-1,0-1.44,0q0-2.31-.08-4.61c0-3.52,0-7-.15-10.55-.17-4-.41-8.09-.49-12.13a19.59,19.59,0,0,0-.09-3.43l-.14-4.27Z"/><path class="cls-1" d="M160.72,360.25a118.76,118.76,0,0,1-14.14-.88,19.81,19.81,0,0,0-2.38-.13,50.34,50.34,0,0,0-5.35.39c-.81.09-1.62.18-2.43.25-2.34.2-4.82.31-7.35.31-3.14,0-6.44-.15-10.09-.47-2.18-.19-4.42-.28-6.67-.28s-4.47.09-6.75.27c-.68.05-1.4.08-2.14.08a50,50,0,0,1-6.34-.49,2.22,2.22,0,0,1-2-2.22c0-.85-.09-1.69-.14-2.54-.11-1.92-.22-3.9-.28-5.85a9.44,9.44,0,0,1,.8-3.84,3.28,3.28,0,0,1,2-1.74c2-.79,2.24-1.15,2.17-3.22s0-4,0-6c0-2.4.1-4.88-.06-7.3-.31-4.79-.46-9.54-.44-14.14a93.94,93.94,0,0,1,1-12.37,8.39,8.39,0,0,1,1.07-2.79l.25-.47a2.17,2.17,0,0,1,1.81-1.06,128.1,128.1,0,0,1,21.93-1.68h1.45c8,.06,16.19.47,24.07.87l4.32.22.84,0a34.31,34.31,0,0,0,3.85-.28,7.49,7.49,0,0,1,.84-.05,2.37,2.37,0,0,1,1.84.63,3,3,0,0,1,.59,2.33,188.66,188.66,0,0,0,.43,19.83l.14,2.51v3.91c0,3,0,6,0,9.06,0,.79,0,1.58,0,2.37a68.34,68.34,0,0,1-.25,7.63c-.18,1.65-.12,2.53,1.16,3.48,1.6,1.19,1.52,3.24,1.47,4.88-.05,1.44-.11,3-.08,4.56a4.06,4.06,0,0,1-1.06,3,4.35,4.35,0,0,1-3.17,1.19Zm-59.18-12.34c-1.8,0-2.15.27-2.17,3.42,0,.19,0,.41,0,.63a12.15,12.15,0,0,0,.08,1.32c.21,1.58.58,1.91,2.2,2l5.71.13,3.27.07,4.2.08c3.34.05,6.79.11,10.19.3,1.47.08,3.41.18,5.38.18a45.38,45.38,0,0,0,5.72-.33,48.66,48.66,0,0,1,6.17-.41,36.78,36.78,0,0,1,7,.64,5.79,5.79,0,0,0,1.09.1,10,10,0,0,0,1.68-.16c.47-.08.52-.16.54-.54.06-.8.16-1.61.26-2.39.07-.55.14-1.11.2-1.67a5,5,0,0,0,0-1.25h0a6.13,6.13,0,0,0-.66,0h-.58l-1.94,0c-4.41,0-8.87-.29-13.19-.58l-2.87-.19c-7-.45-13.48-.73-19.7-.88l-3.08,0c-2.57,0-5.24-.07-7.85-.28C102.5,347.94,102,347.92,101.54,347.92Zm55.92,7.77.14,0c.24,0,.49.07.73.12a7.23,7.23,0,0,0,.77.12l.67,0h0c1.05,0,1.38-.09,1.43-2v-.35a3,3,0,0,0-3-3.38l-.06-.57v.57c-.54,0-.7.15-.71.7,0,.81,0,1.62,0,2.42s0,1.41,0,2.12a.5.5,0,0,0,0,.19Zm-20.31-10.39c4.75,0,9.51,0,14.26.08l6.28,0c1.09,0,1.3-.21,1.38-1.3,0-.6.08-1.2.11-1.8l.06-.95a146.88,146.88,0,0,0-.21-16.3l-.12-2.44v-4.1c0-3.24,0-6.47,0-9.71a78.82,78.82,0,0,0-.43-8.79,1,1,0,0,0-.13-.49h-.1a2.06,2.06,0,0,0-.37,0,16.73,16.73,0,0,1-3.12.25l-1.3,0-10.85-.36-4-.13h-.42c-1.34,0-1.54.12-1.66,1.88-.33,5-.68,11-.67,16.83,0,4-.21,7.89-.44,11.88a66.77,66.77,0,0,0,.37,14.46c0,.12,0,.24,0,.36,0,.54,0,.56.51.56Zm-6.1-46.44-.52,0c-4.39.47-8.87.58-13.19.68-2.16,0-4.4.1-6.59.2-.59,0-1.19,0-1.78,0a23,23,0,0,0-3.19.16,1.76,1.76,0,0,0-1.72,1.66v.11c-.06.46-.13.92-.15,1.39-.18,3.91-.21,8-.09,12.18l.08,2.66c.16,5.46.33,11.1.37,16.65a21.71,21.71,0,0,0,.18,2.34,12,12,0,0,1-.14,5,.41.41,0,0,0,.14.46,5.6,5.6,0,0,0,3.24,1.4c2.44,0,4.87.14,7.31.23,2.23.08,4.47.17,6.71.22,1.28,0,2.57,0,3.85,0h5.64a151,151,0,0,1-.58-20.45c.14-3.72.51-7.48.87-11.12.38-3.87.77-7.87.89-11.81a2.5,2.5,0,0,0-.34-1.71A1.31,1.31,0,0,0,131.05,298.86Z"/><path class="cls-1" d="M162.93,320.19c0,4.31,0,8.63,0,12.94a99.08,99.08,0,0,1-.24,9.94c-.19,1.74-.13,2.86,1.38,4s1.29,2.85,1.24,4.45-.11,3-.08,4.55c0,2.29-1.39,3.59-3.67,3.61a116.54,116.54,0,0,1-14.91-.87c-3.42-.41-6.86.2-10.28.5a100.88,100.88,0,0,1-17.35-.16,82.67,82.67,0,0,0-13.51,0,40.59,40.59,0,0,1-8.36-.41A1.66,1.66,0,0,1,95.6,357c-.14-2.79-.33-5.58-.41-8.38a9,9,0,0,1,.76-3.61,2.7,2.7,0,0,1,1.68-1.43c2.2-.87,2.6-1.42,2.52-3.76-.15-4.44.24-8.88,0-13.3q-.46-7.05-.43-14.11a93.57,93.57,0,0,1,.95-12.29,9.79,9.79,0,0,1,1.26-3.08c.29-.57.84-.67,1.4-.76a130.48,130.48,0,0,1,23.28-1.67c9.47.07,18.92.62,28.37,1.09a29.64,29.64,0,0,0,4.78-.26c2-.23,2.73.32,2.64,2.31A215.17,215.17,0,0,0,162.93,320.19ZM131.8,344.8a149.21,149.21,0,0,1-.64-21c.29-7.67,1.53-15.26,1.76-22.94.06-2-.51-2.75-2.45-2.54-6.57.71-13.17.58-19.75.87-1.68.07-3.36,0-5,.2a2.31,2.31,0,0,0-2.2,2.15c-.07.51-.14,1-.17,1.55-.19,4.07-.21,8.15-.09,12.22.19,6.43.4,12.86.45,19.29,0,2.38.79,4.76.07,7.15a1,1,0,0,0,.35,1.08,6.16,6.16,0,0,0,3.56,1.51c4.67.09,9.34.34,14,.45C125,344.86,128.38,344.8,131.8,344.8Zm27.69-22.19c0-4.59,0-9.19,0-13.78a79.51,79.51,0,0,0-.43-8.85c-.12-1-.5-1.09-1.27-.94a19.93,19.93,0,0,1-4.3.22c-4.95-.15-9.9-.33-14.84-.49-2.11-.07-2.52.29-2.66,2.4-.37,5.62-.68,11.24-.67,16.87,0,4-.21,7.9-.44,11.85a67.34,67.34,0,0,0,.38,14.58c.1.62-.07,1.39,1.11,1.39,7.11,0,14.22.08,21.33.13,1.39,0,1.85-.43,2-1.82.07-.92.11-1.83.17-2.75A172.24,172.24,0,0,0,159.49,322.61ZM98.81,351.33c0,.68,0,1.36.11,2,.25,1.86.84,2.39,2.74,2.44,3,.08,6,.13,9,.2,4.79.11,9.59.11,14.37.38a61.2,61.2,0,0,0,11.21-.15,41.13,41.13,0,0,1,13,.22,8.36,8.36,0,0,0,3-.06c.65-.11,1-.35,1-1.06.1-1.35.32-2.69.46-4,.19-1.9.17-1.93-1.79-1.89-6,.12-12-.37-17.94-.75-6.57-.42-13.14-.73-19.73-.88-3.63-.09-7.28,0-10.89-.33C99.4,347.12,98.83,347.47,98.81,351.33Zm63,2.31a3.61,3.61,0,0,0-3.54-4c-.94,0-1.33.41-1.34,1.26,0,1.51,0,3,0,4.54,0,.49.18.73.67.79s1,.2,1.52.24c2.17.16,2.65-.29,2.71-2.52C161.78,353.87,161.78,353.75,161.78,353.63Z"/><path class="cls-1" d="M112.2,276.43A18.57,18.57,0,0,1,104,274.5l-1.27-.6a55,55,0,0,1-7.86-4.26A11.27,11.27,0,0,1,90,261.13c-.1-.9-.18-1.81-.26-2.71l-.11-1.23a19.19,19.19,0,0,1,1.21-7.77,152.49,152.49,0,0,1,7.43-18.59c2.93-5.79,5.73-11.76,8.44-17.54l1.06-2.26c5-10.6,10.55-21.11,15.94-31.27l3.11-5.88a76,76,0,0,1,11-16.07,62.76,62.76,0,0,1,9.49-8l.13-.1a6.22,6.22,0,0,1,3-.95c.41-.05.82-.11,1.21-.2a32.13,32.13,0,0,1,7.15-1.09,13.76,13.76,0,0,1,3.53.44,16.32,16.32,0,0,1,3.91,1.54,27.65,27.65,0,0,1,6.86,5.07c3.95,4.33,5.29,8.67,4,12.89-.89,2.92-1.67,5.91-2.42,8.81-.72,2.75-1.46,5.59-2.29,8.36a11.65,11.65,0,0,1-.86,2.22c-1.18,2.17-2.24,4.47-3.25,6.69a71.63,71.63,0,0,1-5.46,10.36c-2.91,4.31-4.9,9.23-6.82,14q-.55,1.36-1.11,2.72c-3.07,7.45-7.3,14.27-11.73,21.19-3.16,4.93-6,10-8.69,14.83a110.27,110.27,0,0,1-8.63,13.6c-2.69,3.55-6.33,5.48-11.46,6.08A19.36,19.36,0,0,1,112.2,276.43Zm45.6-122.87a7.72,7.72,0,0,0-2.42.36l-.29.09c-3.57,1.16-7.26,2.36-10.24,4.75a55.15,55.15,0,0,0-11.5,12.86c-8.15,12.34-14.15,25.52-18.94,36.79a147.61,147.61,0,0,1-10,20.21,40.48,40.48,0,0,0-4.4,10.15q-2.55,8.79-5,17.59a8.93,8.93,0,0,0-.38,3.29c.21,2.66,1.42,4.78,3.92,6.88a26.82,26.82,0,0,0,6.15,3.52l1.68.79a11.89,11.89,0,0,0,5.25,1.26h.28c4.56-.08,7.8-1.8,9.91-5.25.7-1.15,1.47-2.27,2.21-3.35l1-1.46A315.09,315.09,0,0,0,145.27,228q2-4,3.92-7.93c5.67-11.48,11.53-23.35,18-34.65a15.12,15.12,0,0,0,1.91-4.56c.59-3,1.29-6.11,2-9.08.55-2.43,1.12-4.94,1.63-7.41a4.32,4.32,0,0,0-1-3.87,20.25,20.25,0,0,0-10.37-6.37A13.6,13.6,0,0,0,157.8,153.56Z"/><path class="cls-1" d="M90.19,257.13a18.69,18.69,0,0,1,1.18-7.53,151.33,151.33,0,0,1,7.4-18.52c3.31-6.54,6.4-13.19,9.51-19.82,5.92-12.6,12.55-24.83,19-37.12a75.94,75.94,0,0,1,11-16,63,63,0,0,1,9.54-8c1.14-.84,2.67-.74,4-1,3.43-.79,6.86-1.59,10.41-.66A15.8,15.8,0,0,1,166,150a26.73,26.73,0,0,1,6.72,5c3.09,3.4,5.34,7.58,3.88,12.34-1.73,5.69-3,11.49-4.71,17.18a11.06,11.06,0,0,1-.82,2.11c-3,5.59-5.09,11.66-8.69,17-3.49,5.17-5.61,11.06-8,16.81-3.08,7.47-7.34,14.32-11.68,21.1-3.1,4.84-5.93,9.84-8.71,14.86a111.61,111.61,0,0,1-8.59,13.53c-2.82,3.71-6.6,5.34-11.08,5.86A17.82,17.82,0,0,1,104.29,274a64.22,64.22,0,0,1-9-4.82,10.74,10.74,0,0,1-4.68-8.11C90.41,259.75,90.31,258.44,90.19,257.13Zm21.69,15.52c4.39-.08,8-1.61,10.38-5.52,1-1.63,2.12-3.2,3.18-4.79a311.08,311.08,0,0,0,20.34-34.13c7.11-14.29,14-28.7,21.94-42.55a15.62,15.62,0,0,0,2-4.73c1.07-5.52,2.46-11,3.59-16.48a4.87,4.87,0,0,0-1.15-4.36,21,21,0,0,0-10.65-6.54,11,11,0,0,0-6.27-.17c-3.75,1.22-7.56,2.42-10.7,4.94a56.13,56.13,0,0,0-11.62,13c-7.66,11.6-13.57,24.13-19,36.88a148.71,148.71,0,0,1-10,20.14,41.35,41.35,0,0,0-4.47,10.29q-2.55,8.79-5,17.6a9.53,9.53,0,0,0-.4,3.49A10.23,10.23,0,0,0,98.14,267c2.36,2,5.22,3.07,7.94,4.38A12.47,12.47,0,0,0,111.88,272.65Z"/><path class="cls-1" d="M297.11,244.54l-.85,0-.85,0-9-.24-5.89-.17c-4.63-.12-9.18-.27-13.53-.44a4.08,4.08,0,0,1-4.33-4.77c.2-3.63.16-7.33.12-10.91l0-1.51c0-1.23-.48-1.71-1.67-1.71H260c-1.68,0-3.38-.05-5-.1s-3.33-.1-5-.1c-1,0-1.93,0-2.9.06h-.47c-2.69,0-3.35-1.32-3.57-3.6a59.26,59.26,0,0,1,.31-11.15l.12-1.27c.07-.74.16-1.49.26-2.23a20.09,20.09,0,0,0,.2-5.74,2.31,2.31,0,0,1,2.08-2.77c.4-.08.8-.12,1.2-.16s.63-.06.95-.12a53.37,53.37,0,0,1,9.08-.58h3.39a2.77,2.77,0,0,0,1.46-.22,2.66,2.66,0,0,0,.21-1.41c0-4.39.14-8.68.48-12.74a3.71,3.71,0,0,1,4.05-3.78H278c2,.19,4.06.21,6.19.24a60.28,60.28,0,0,1,8.82.54,25.15,25.15,0,0,1,3.34.73,3.79,3.79,0,0,1,3,4.5c-.3,2.54-.57,4.49-.89,6.32a10.61,10.61,0,0,0,0,2.81,16.35,16.35,0,0,1,.1,2.14c0,.31.12.48,1,.76a27.77,27.77,0,0,0,8.33,1.23h1.93a31.29,31.29,0,0,1,8,.71c2.51.66,2.88,1.14,2.85,3.65-.06,5.38,0,10.62.12,15.56a14.18,14.18,0,0,1-.87,5.26c-.48,1.33-1.15,2.22-2.84,2.22l-.53,0-1.37-.11a60.65,60.65,0,0,1-12.23-1.8,4.13,4.13,0,0,0-1.11-.19c-.57,0-1.09.15-1.23,1.94-.46,6-.79,10.92-1,15.41C299.32,243.37,299.17,244.54,297.11,244.54Zm-16-4.93a9.66,9.66,0,0,1,1.33.08,56,56,0,0,0,7.56.41h4c1.49,0,1.61-.13,1.62-1.62,0-3.84-.25-7.74-.52-11.52-.14-2-.29-4-.39-6a2.62,2.62,0,0,1,.47-2,1.94,1.94,0,0,1,1.46-.5l.54,0c1.63.16,3.27.33,4.9.53,2.09.25,4.24.33,6.32.41a70.91,70.91,0,0,1,7.32.53l.27,0a.43.43,0,0,0,.27-.06s.11-.14.11-.57c0-1.84,0-3.68,0-5.51v-2.73h.31v-1.65c0-1.82,0-3.64,0-5.47a1.07,1.07,0,0,0-.93-1.25l-.42-.1a12.62,12.62,0,0,0-3-.49H298.49c-2.31,0-3.54-1.1-3.86-3.47a34.9,34.9,0,0,1,.45-11.87c.1-.48.21-1.15.05-1.37s-.81-.32-1.29-.38l-4.07-.49c-2.37-.29-4.74-.58-7.11-.84l-.66-.07a31.19,31.19,0,0,0-3.44-.26,11.23,11.23,0,0,0-2.4.24c-.94.21-1.07.61-1,1.19a14.35,14.35,0,0,1,.08,3l0,.64c-.07,2-.13,4-.19,6q-.07,2.29-.14,4.57c-.06,1.88-.76,2.57-2.67,2.63s-4.07.15-6.1.24l-2,.08c-2,.08-4,.16-6,.26s-2.71.89-2.89,2.72c-.44,4.46-.81,8.6-1.14,12.64a2.56,2.56,0,0,0,.3,1.77,2.14,2.14,0,0,0,1.58.6c2.57.21,5.2.29,7.75.38l1.44,0c1.22,0,2.44.06,3.66.08s2.51,0,3.77.09c2,.07,2.72.82,2.73,2.85v.44c0,.86,0,1.71,0,2.57,0,1.31,0,2.63,0,3.94,0,3.08,0,6.26-.3,9.4a.89.89,0,0,0,0,.09l.23,0a8.91,8.91,0,0,0,1,.06,22.94,22.94,0,0,0,2.35-.17A23.87,23.87,0,0,1,281.08,239.61Zm-11.89-15.38c-1.23,0-1.31.1-1.33,1.25s-.1,2.3-.18,3.41a31.94,31.94,0,0,0-.13,4.46v2.76c0,3,.21,3.06,2.42,3.06h.69c.46,0,.5-.05.54-.52q.08-1.19.17-2.37c.23-3.08.46-6.26.47-9.4,0-1.23-.14-1.89-.46-2.21s-.88-.43-1.94-.43Zm-20.48-21.91c-.41,0-.5.07-.51.08s-.1.12,0,.6a11.49,11.49,0,0,1-.36,3.46,40.38,40.38,0,0,0-.38,12.39,2,2,0,0,0,.69,1.27,1.4,1.4,0,0,0,1,.36,3.16,3.16,0,0,0,1-.18c.17-.06.23-.17.27-.78l0-.24c0-.43.08-.87.13-1.3,0-.28.06-.55.09-.83l.39-4c.27-2.8.54-5.61.83-8.41.12-1.17.07-1.79-.17-2.05s-.82-.37-1.94-.38h-1Zm21.12-4.76.71,0h.07c.22,0,.24,0,.27-.29l.07-.62a70.76,70.76,0,0,0,.69-12.3c0-.34-.06-.72-.23-.8a4.38,4.38,0,0,0-3.4-.27c-.68.22-.83.92-1,1.89a27,27,0,0,0-.19,4.16c0,.58,0,1.14,0,1.66v1.76c0,1.22,0,2.34,0,3.46s.3,1.27,1.29,1.33h1.69Z"/><path class="cls-1" d="M278,179.43c4.79.45,9.89,0,14.92.77a24.94,24.94,0,0,1,3.27.71,3.24,3.24,0,0,1,2.55,3.89c-.25,2.1-.52,4.2-.88,6.28-.29,1.69.17,3.34.11,5,0,.83.67,1.1,1.34,1.32a28.53,28.53,0,0,0,8.49,1.25c3.27.06,6.55-.14,9.77.71,2.22.59,2.46.8,2.43,3.09q-.09,7.79.12,15.59a13.58,13.58,0,0,1-.84,5c-.56,1.54-1.21,2-2.79,1.83-4.53-.37-9.08-.61-13.49-1.89-2.08-.6-2.89,0-3.06,2.25-.39,5.14-.75,10.27-1,15.42-.21,3.74-.51,3.28-3.48,3.21-4.95-.12-9.9-.28-14.84-.41q-6.77-.18-13.53-.44c-2.63-.1-3.93-1.54-3.79-4.17.23-4.15.14-8.31.1-12.46,0-1.56-.74-2.29-2.3-2.26-4.67.06-9.34-.34-14-.13-2.47.11-3.21-.62-3.45-3.08a66,66,0,0,1,.42-12.32c.24-2.69.88-5.36.45-8.1a1.76,1.76,0,0,1,1.63-2.12c.7-.14,1.43-.15,2.14-.27a73.27,73.27,0,0,1,12.37-.56c2,0,2.25-.28,2.24-2.2,0-4.24.12-8.47.48-12.69a3.16,3.16,0,0,1,3.49-3.26C270.45,179.41,274.09,179.43,278,179.43Zm38.87,32.22h.31c0-2.56,0-5.12,0-7.68a1.62,1.62,0,0,0-1.37-1.81,15.2,15.2,0,0,0-3.53-.61H298.49c-2.05,0-3-.92-3.3-3a34.12,34.12,0,0,1,.45-11.68c.38-1.83.07-2.22-1.73-2.43-3.73-.44-7.45-.93-11.18-1.33A20.58,20.58,0,0,0,276,183c-1,.22-1.59.76-1.41,1.84a17.69,17.69,0,0,1,0,3.58c-.13,3.51-.21,7-.33,10.54-.05,1.59-.54,2-2.12,2.09-2,.07-4.07.15-6.11.24-2.67.11-5.35.2-8,.35-2.15.11-3.22,1.1-3.43,3.23q-.62,6.32-1.14,12.65c-.16,2,.47,2.82,2.4,3,3.06.25,6.14.32,9.21.43,2.48.09,5,.08,7.43.17,1.72.06,2.18.58,2.19,2.28,0,1,0,2,0,3-.08,4.43.1,8.87-.33,13.3-.06.62.19.68.73.74,2.41.28,4.79-.52,7.17-.19a81.58,81.58,0,0,0,11.61.39c1.82,0,2.17-.4,2.19-2.18,0-5.88-.61-11.73-.91-17.59-.08-1.55.33-2,1.85-1.84s3.26.33,4.88.53c4.53.54,9.11.29,13.62.94,1,.14,1.3-.24,1.29-1.18C316.85,216.75,316.87,214.2,316.87,211.64Zm-67.2-9.9h-.84c-.89,0-1.35.18-1.24,1.3a10.94,10.94,0,0,1-.35,3.29,40.48,40.48,0,0,0-.39,12.56,2.56,2.56,0,0,0,.88,1.64,2.42,2.42,0,0,0,2.49.3c.67-.22.62-.92.67-1.51s.15-1.41.22-2.12c.41-4.14.8-8.27,1.22-12.41C252.6,202.27,252.17,201.76,249.66,201.75ZM266.27,191c0,2,0,3.61,0,5.25,0,1.29.55,1.81,1.83,1.88.8,0,1.6,0,2.4,0,.61,0,.87-.21.93-.79a74.51,74.51,0,0,0,.77-13c0-.49-.08-1-.53-1.28a5,5,0,0,0-3.84-.3c-1,.34-1.22,1.36-1.36,2.35A46.42,46.42,0,0,0,266.27,191Zm.72,42.41c0,1.12,0,1.92,0,2.72,0,3.38.35,3.69,3.69,3.62.79,0,1-.32,1.09-1,.27-3.93.64-7.86.64-11.81,0-2.66-.61-3.26-3.24-3.21-1.49,0-1.87.31-1.88,1.82C267.27,228.22,266.82,231,267,233.38Z"/><path class="cls-1" d="M206.85,158.68a3.6,3.6,0,0,1-1.07-.17l-.17,0-.11,0c-5.82-1-8-3.93-7.6-9.95.31-4.46.73-9,1.26-13.85.07-.64,0-.81,0-.86s-.25-.14-.94-.2l-.49-.06-.25,0c-1.22-.16-2.12-.32-2.59-1s-.37-1.54-.16-2.75a12.52,12.52,0,0,1,.38-1.58,2.83,2.83,0,0,1,2.82-2.39l.48,0c4.63.45,9.36.49,13.94.53,3.19,0,6.48.06,9.72.22.76,0,1.51.14,2.24.24l1.36.17a2.11,2.11,0,0,1,2,2,19.14,19.14,0,0,1,0,3.08c0,.84-.49,1.86-2.35,1.88h-11c-1.45,0-1.62.17-1.66,1.62l-.08,3c-.1,3.88-.2,7.76-.33,11.64a14.85,14.85,0,0,1-.59,4.17,6.71,6.71,0,0,1-2.2,3.31A4.1,4.1,0,0,1,206.85,158.68Zm-3.23-25c-.35,0-.59.06-.65.8,0,.48-.11,1-.18,1.45s-.13.93-.17,1.4c-.1,1.17-.28,2.35-.46,3.48-.44,2.85-.85,5.54-.14,8.31a7.61,7.61,0,0,1,.18,1.32l0,.2a4.18,4.18,0,0,0,4,3.8h0c.65,0,1.4-.23,1.49-2l0-1c.08-1.47.23-3,.38-4.39a51.39,51.39,0,0,0,.41-7.61c0-.45,0-.87,0-1.29,0-1,0-2,0-3,0-.78-.25-1.1-1.12-1.21-.59-.08-1.17-.12-1.76-.17s-1.21-.1-1.81-.18Z"/><path class="cls-1" d="M219.43,133.39h-5.15c-1.77,0-2.18.41-2.22,2.17-.13,4.87-.24,9.74-.41,14.61a14.19,14.19,0,0,1-.56,4,6.17,6.17,0,0,1-2,3,3.23,3.23,0,0,1-3.12.75,2.85,2.85,0,0,0-.35-.07c-5.6-1-7.54-3.62-7.13-9.35q.49-6.93,1.26-13.83c.15-1.33-.08-1.57-1.47-1.69-.24,0-.47-.07-.71-.1-2.46-.32-2.68-.61-2.27-3.05a11.58,11.58,0,0,1,.36-1.51c.47-1.52,1.18-2.11,2.71-2,7.88.76,15.8.36,23.69.76,1.19.06,2.38.28,3.57.4a1.54,1.54,0,0,1,1.48,1.47,18.45,18.45,0,0,1,0,3c-.06,1.1-.89,1.33-1.79,1.34-2,0-3.92,0-5.87,0Zm-10.3,6.12c0-1.4-.06-2.79,0-4.19.06-1.2-.6-1.67-1.61-1.81-1.18-.16-2.38-.19-3.57-.35-1-.14-1.48.29-1.56,1.29s-.27,1.9-.35,2.85c-.34,4-1.62,7.93-.58,12a8.66,8.66,0,0,1,.18,1.42,4.49,4.49,0,0,0,3.4,4.13c2.07.58,3.15-.19,3.25-2.33,0-.32,0-.64,0-1C208.56,147.54,209.31,143.56,209.13,139.52Z"/><path class="cls-1" d="M306.93,137.52a6,6,0,0,1-1.07-.11,112.69,112.69,0,0,0-16.7-1.36l-1.59-.05h-.85c-.91,0-1.83,0-2.75.08s-1.71.07-2.56.08h0a2.59,2.59,0,0,1-2.15-.75,2.68,2.68,0,0,1-.13-2.32,4.17,4.17,0,0,1,4.55-3.42h8.88c.79,0,1.65-.06,2.54-.06a72.73,72.73,0,0,1,12,1c1.79.31,2.38,1,2.42,2.74v.25a2.38,2.38,0,0,0,0,.39,3.21,3.21,0,0,1-.51,2.67A2.63,2.63,0,0,1,306.93,137.52Z"/><path class="cls-1" d="M292.56,130.23a70,70,0,0,1,14.45,1c1.51.26,1.92.69,2,2.19a5.37,5.37,0,0,0,0,.72c.35,2.21-.74,3.17-3,2.75-6.09-1.11-12.24-1.22-18.37-1.42-2-.07-4.12.13-6.18.15-1.75,0-2.21-.65-1.73-2.34.62-2.16,1.74-3,4-3Z"/><path class="cls-1" d="M346.18,409.26l-.52,0,0-5.19h1.13l.08,4.72,0,.1a.66.66,0,0,1-.62.43Z"/><path class="cls-1" d="M346.26,404q0,2.31.08,4.61a.09.09,0,0,1-.1.06Q346.25,406.36,346.26,404Z"/><path class="cls-1" d="M281.94,276.24a50,50,0,0,1,0-8l1.13,0v7.95Z"/><path class="cls-1" d="M282.5,268.24q0,4,0,7.95A50.48,50.48,0,0,1,282.5,268.24Z"/><path class="cls-1" d="M222.89,388.09a38.49,38.49,0,0,1,.06-6.56l1.13.05L224,388Z"/><path class="cls-1" d="M223.46,388a38,38,0,0,1,.06-6.47Q223.49,384.81,223.46,388Z"/><path class="cls-1" d="M282.32,335.8a45.11,45.11,0,0,1,.09-5.44l1.13.05-.09,5.37Z"/><path class="cls-1" d="M283,330.4q0,2.69-.09,5.37A44.19,44.19,0,0,1,283,330.4Z"/><path class="cls-1" d="M223.11,399.14l-.09-4.6,1.13-.06a30,30,0,0,1,.1,4.69Z"/><path class="cls-1" d="M223.68,399.13l-.1-4.6A29.65,29.65,0,0,1,223.68,399.13Z"/><path class="cls-1" d="M220,318.25l-.1-4.13L221,314a25.49,25.49,0,0,1,.1,4.22Z"/><path class="cls-1" d="M220.57,318.23l-.1-4.13A25,25,0,0,1,220.57,318.23Z"/><path class="cls-1" d="M220.24,340.63a22,22,0,0,1,0-4.1l1.13,0v4Z"/><path class="cls-1" d="M220.81,340.57a21.55,21.55,0,0,1,0-4Q220.8,338.58,220.81,340.57Z"/><path class="cls-1" d="M282.34,305.62a22,22,0,0,1,.08-4.06l1.13.06-.08,4Z"/><path class="cls-1" d="M283,301.61q0,2-.08,4A21.89,21.89,0,0,1,283,301.61Z"/><path class="cls-1" d="M219.51,303.86l-.09-3.9,1.13-.07a23.29,23.29,0,0,1,.09,4Z"/><path class="cls-1" d="M220.08,303.85l-.09-3.9A23,23,0,0,1,220.08,303.85Z"/><path class="cls-1" d="M219.75,274.58l-.09-3.9,1.13-.08a21.55,21.55,0,0,1,.09,4Z"/><path class="cls-1" d="M220.32,274.57l-.09-3.9A21.2,21.2,0,0,1,220.32,274.57Z"/><path class="cls-1" d="M282.55,297.32l0-3.46,1.13,0a15.6,15.6,0,0,1,0,3.59Z"/><path class="cls-1" d="M283.14,293.86a15,15,0,0,1,0,3.46Q283.13,295.59,283.14,293.86Z"/><path class="cls-1" d="M287.19,381.65l-.07-12.53c0-1.2,0-5.13,0-5.13l1.13,0c.19,2.79.16,5.61.14,8.33,0,1.49,0,3,0,4.46,0,1.13,0,2.27,0,3.4l0,1.51Z"/><path class="cls-1" d="M287.75,381.65q0-6.27-.06-12.53c0-1.71,0-3.42,0-5.13.29,4.25.07,8.51.13,12.76C287.82,378.39,287.77,380,287.75,381.65Z"/><path class="cls-1" d="M306,259.69c1.34-.06,2.71-.09,4.08-.09s2.71,0,4.07.08l0,1.13H306Z"/><path class="cls-1" d="M306,260.26q4.05-.17,8.1,0Z"/><path class="cls-1" d="M285.91,341.77a30.87,30.87,0,0,1,.08-4.24h1.13a27.32,27.32,0,0,1-.08,4.25Z"/><path class="cls-1" d="M286.47,341.73a30.63,30.63,0,0,1,.08-4.16A26.73,26.73,0,0,1,286.47,341.73Z"/><path class="cls-1" d="M344.82,373.69a24.39,24.39,0,0,1-.09-4.25l1.13,0,.08,4.15Z"/><path class="cls-1" d="M345.3,369.48l.09,4.15A23.86,23.86,0,0,1,345.3,369.48Z"/><path class="cls-1" d="M341.37,277.49v-4.25l1.13,0a26.78,26.78,0,0,1,0,4.34Z"/><path class="cls-1" d="M341.94,273.24a26.52,26.52,0,0,1,0,4.25Q341.94,275.36,341.94,273.24Z"/><path class="cls-1" d="M345.06,381.4a19.79,19.79,0,0,1-.09-3.53h1.13a20.37,20.37,0,0,1,.09,3.53Z"/><path class="cls-1" d="M345.53,377.91a19.59,19.59,0,0,1,.09,3.43A19.3,19.3,0,0,1,345.53,377.91Z"/><path class="cls-1" d="M112.49,384.71c-3.72-.06-6.41-2.36-6.41-5.46s3.3-6.48,6.3-6.49a6.3,6.3,0,0,1,4.44,1.85,5.58,5.58,0,0,1,1.67,4,5.84,5.84,0,0,1-5.89,6.13Zm-.14-7.32c-1.3,0-2.32.84-2.34,1.25a3.23,3.23,0,0,0,1.95,1.7h0a1.8,1.8,0,0,0,.88-.63,2.58,2.58,0,0,0,.79-1.51c0-.52-.29-.61-1-.75Z"/><path class="cls-1" d="M117.93,378.58a5.25,5.25,0,0,1-5.43,5.56c-3.38-.06-5.86-2.13-5.85-4.89s3-5.92,5.73-5.92A5.45,5.45,0,0,1,117.93,378.58Zm-5.51-1.76c-1.46,0-2.93.93-3,1.79s1.57,2.25,2.48,2.29,2.35-1.75,2.25-2.76C114.08,377,113.08,377,112.42,376.83Z"/><path class="cls-1" d="M102.6,397.56a6.43,6.43,0,0,1-2.21-.38,3.52,3.52,0,0,1-2.57-3.86c0-.13,0-.25,0-.38s0-.15,0-.23c.39-4.79,1.83-6.14,6.73-6.21a3,3,0,0,1,.67-.07,7.5,7.5,0,0,1,1.52.21c.29.06.57.12.86.16A2.81,2.81,0,0,1,110,389a5.8,5.8,0,0,1-.23,4.14A8,8,0,0,1,102.6,397.56Zm1-7a1.94,1.94,0,0,0-1.64.8,1.14,1.14,0,0,0-.1,1.12,1.6,1.6,0,0,0,1.29.77h0a.62.62,0,0,0,.19,0c1.2-.39,2-1.52,1.93-1.91a.92.92,0,0,0-.58-.66,1.88,1.88,0,0,0-.72-.09Z"/><path class="cls-1" d="M104.69,387.07a8.1,8.1,0,0,1,2.91.3,2.31,2.31,0,0,1,1.87,1.82,5.24,5.24,0,0,1-.21,3.74,7.39,7.39,0,0,1-8.68,3.73,3,3,0,0,1-2.19-3.3c0-.2.06-.4.07-.59C98.81,388.28,100,387.13,104.69,387.07Zm-1.09,3c-1.68,0-2.86,1.4-2.27,2.71a2.07,2.07,0,0,0,2.18,1.05c1.3-.43,2.51-1.76,2.3-2.59a1.48,1.48,0,0,0-.91-1A3.72,3.72,0,0,0,103.6,390Z"/><path class="cls-1" d="M80.52,394a6.06,6.06,0,0,1-5.58-5.37,3.17,3.17,0,0,1,1.2-2.67,13.9,13.9,0,0,1,4.51-2.61,4.47,4.47,0,0,1,1.47-.25,5.28,5.28,0,0,1,3.7,1.61,5,5,0,0,1,1.5,3.53c.24,3.72-3.3,5.42-6.4,5.74Zm.65-4.06,0-.57a1.82,1.82,0,0,0,1.58-.91c.25-.33.24-.45.23-.47s0-.14-.43-.35a1.1,1.1,0,0,0-.52-.15,2.11,2.11,0,0,0-1.13.59,3.11,3.11,0,0,1-.4.25l-.27.16c.16.32.49.88.9.88h0Z"/><path class="cls-1" d="M86.76,388.21c.22,3.44-3.07,4.89-5.89,5.18-2.51.26-5.2-2.28-5.36-4.82a2.6,2.6,0,0,1,1-2.2,13.37,13.37,0,0,1,4.33-2.5A4.66,4.66,0,0,1,86.76,388.21Zm-5.59,1.7a2.37,2.37,0,0,0,2.05-1.13c.55-.72.48-1.2-.38-1.67s-1.61,0-2.26.5c-.37.29-1.14.46-.85,1.07S80.5,389.92,81.17,389.91Z"/><path class="cls-1" d="M56.33,376.86a5.26,5.26,0,0,1-2.48-.66,11.65,11.65,0,0,1-3.73-2.93,3.48,3.48,0,0,1-.66-3.31,6.76,6.76,0,0,1,6.69-5,11.07,11.07,0,0,1,5.43,2.18A3.51,3.51,0,0,1,62.74,371a7.71,7.71,0,0,1-3.34,4.87A5.6,5.6,0,0,1,56.33,376.86Zm0-7.14a7.77,7.77,0,0,0-1.07.11l-.79.1a.55.55,0,0,0-.44.24.58.58,0,0,0,0,.53,3.36,3.36,0,0,0,2.86,1.52,1.85,1.85,0,0,0,.87-.19,1.91,1.91,0,0,0,.73-2.12c0-.11-.06-.16-.37-.16H56.77A3.17,3.17,0,0,0,56.33,369.72Z"/><path class="cls-1" d="M56.14,365.51a10.41,10.41,0,0,1,5.1,2.08,3,3,0,0,1,.95,3.27,7.14,7.14,0,0,1-3.1,4.53,4.6,4.6,0,0,1-5,.32,11.22,11.22,0,0,1-3.56-2.79,2.93,2.93,0,0,1-.55-2.8A6.17,6.17,0,0,1,56.14,365.51Zm.63,3.67a10.17,10.17,0,0,0-2.35.18,1.06,1.06,0,0,0-.91,1.55A3.82,3.82,0,0,0,58,372.53a2.48,2.48,0,0,0,1-2.83c-.29-.75-1.06-.46-1.64-.52C57.22,369.17,57.06,369.19,56.77,369.19Z"/><path class="cls-1" d="M50.41,397c-1.77,0-3.13-1-4.07-2.93a4.65,4.65,0,0,1,.77-5.38,8.75,8.75,0,0,1,6.55-3.16,6.86,6.86,0,0,1,2.47.45,4.23,4.23,0,0,1,2.25,6.54c-1.93,3.2-4,4.44-7.49,4.44A4,4,0,0,1,50.41,397Zm2.36-7.17a2.91,2.91,0,0,0-2,.84,1,1,0,0,0-.21,1.31c.24.57.52.68.92.68a6.08,6.08,0,0,0,1.88-.36A3,3,0,0,0,55,391.06a.25.25,0,0,0,0-.17c-.35-.78-1-1-2.21-1Z"/><path class="cls-1" d="M50.89,396.43c-1.93.22-3.21-.85-4-2.58a4.09,4.09,0,0,1,.69-4.77,7.72,7.72,0,0,1,8.39-2.55,3.67,3.67,0,0,1,2,5.72C56.07,395.27,54.16,396.43,50.89,396.43Zm2-7.14a3.44,3.44,0,0,0-2.49,1,1.55,1.55,0,0,0-.35,1.95,1.46,1.46,0,0,0,1.55,1,6.51,6.51,0,0,0,2-.4c1.32-.48,2.31-1.51,2-2.19C55.06,389.53,54,389.36,52.87,389.29Z"/><path class="cls-1" d="M39.38,387.82a5.44,5.44,0,0,1-4.19-2.25A5,5,0,0,1,34,381.05a5.35,5.35,0,0,1,3.48-3.49,8.76,8.76,0,0,1,3.11-.59,8.24,8.24,0,0,1,2.24.32c2.31.66,3.21,1.86,3.2,4.29,0,2.61-1.81,4.81-4.8,5.9A5.39,5.39,0,0,1,39.38,387.82Zm1.07-6.59a3.56,3.56,0,0,0-1.68.64c-.15.09-.12.15-.1.2.24.52.71.65,1.45.82l.38.09a1.1,1.1,0,0,0,1.08-.92c.05-.19.12-.42-.52-.71A1.49,1.49,0,0,0,40.44,381.23Z"/><path class="cls-1" d="M45.45,381.57c0,2.36-1.67,4.36-4.43,5.37-2,.73-3.81.16-5.39-1.74-2.24-2.69-1.29-5.86,2-7.11a7.78,7.78,0,0,1,5-.26C44.75,378.42,45.46,379.41,45.45,381.57Zm-5,2a1.67,1.67,0,0,0,1.64-1.32c.22-.77-.31-1.15-.84-1.38a3,3,0,0,0-2.81.54.69.69,0,0,0-.32.93c.44.93,1.36,1,2.2,1.22Z"/><path class="cls-1" d="M131.57,235.57h-.42a33,33,0,0,1-10.4-2.86c-1.89-.84-3.78-1.76-5.63-2.74-2.74-1.46-3.28-2.75-2.39-5.74a102.74,102.74,0,0,1,5.2-13.19c3-6.63,5.89-13.46,8.67-20.06l.15-.35c1.07-2.55,2.35-3.59,4.43-3.59h.32a2.66,2.66,0,0,1,1,.22,61,61,0,0,0,6.69,2.6,60,60,0,0,1,7,2.75c.63.31,1.26.59,1.9.87s1.28.56,1.91.87a3.64,3.64,0,0,1,2,5,125.57,125.57,0,0,1-7.87,17.76c-2.8,5.18-5.24,10-7.47,14.8C135.53,234.36,133.86,235.57,131.57,235.57Zm-1-42.53c-.28,0-.52.07-.93,1-.13.29-.23.59-.33.88l-.07.2a100.48,100.48,0,0,1-5.18,12.55,116.94,116.94,0,0,0-6.69,16.78c-.3.92-.16,1.29.6,1.61a16.55,16.55,0,0,1,1.94,1l.85.49a34.12,34.12,0,0,0,10.72,3.33,1.71,1.71,0,0,0,1.31-.65l.29-.43a20.94,20.94,0,0,0,1.15-1.84c1.91-3.59,3.66-7.35,5.36-11l.79-1.68q3.55-7.58,7-15.18c.36-.79.47-1.34.31-1.67s-.63-.59-1.46-.81-1.83-.42-2.73-.59l-1.1-.22c-.55-.11-1.11-.21-1.67-.3a16.25,16.25,0,0,1-5.41-1.59,23.39,23.39,0,0,0-4-1.72A2.84,2.84,0,0,0,130.59,193Z"/><path class="cls-1" d="M131.18,235A32.6,32.6,0,0,1,121,232.18q-2.84-1.26-5.59-2.72c-2.51-1.34-2.92-2.37-2.11-5.07a101.44,101.44,0,0,1,5.17-13.12c3.08-6.75,5.95-13.59,8.82-20.43,1-2.45,2.18-3.33,4.2-3.23a2.13,2.13,0,0,1,.81.16c4.43,2.14,9.28,3.17,13.7,5.34,1.25.62,2.56,1.12,3.81,1.73a3.08,3.08,0,0,1,1.72,4.26,126,126,0,0,1-7.84,17.68c-2.63,4.86-5.14,9.81-7.48,14.84C135.18,233.78,133.72,235.15,131.18,235Zm.32-3.53a2.35,2.35,0,0,0,1.79-.91c.51-.76,1-1.51,1.47-2.32,2.21-4.15,4.16-8.43,6.16-12.69q3.55-7.58,7-15.18c.86-1.88.47-2.74-1.52-3.27-1.27-.34-2.57-.55-3.86-.82-2.34-.48-4.78-.63-6.91-1.83a23.86,23.86,0,0,0-4-1.76c-1.36-.46-1.89-.23-2.48,1.12-.16.36-.28.74-.42,1.12a98.82,98.82,0,0,1-5.15,12.48,117.15,117.15,0,0,0-6.72,16.86c-.34,1-.25,1.82.92,2.31a30.58,30.58,0,0,1,2.73,1.48A34.38,34.38,0,0,0,131.5,231.46Z"/><path class="cls-1" d="M116.17,244.13a1.71,1.71,0,0,1-.5-.08c-1.29-.39-2.12-2.25-1.72-3.83a2.63,2.63,0,0,1,2.52-2.24,3,3,0,0,1,.69.08c1.28.3,1.88,1.18,1.83,2.69a5.06,5.06,0,0,1-2,3.08A1.27,1.27,0,0,1,116.17,244.13Z"/><path class="cls-1" d="M118.43,240.74a4.54,4.54,0,0,1-1.79,2.66.82.82,0,0,1-.8.11c-1-.3-1.66-1.88-1.34-3.14a2,2,0,0,1,2.53-1.74C118,238.84,118.47,239.43,118.43,240.74Z"/><path class="cls-1" d="M136,185.64a2.16,2.16,0,0,1-2.28-2.24,3.18,3.18,0,0,1,.8-2.33,2.67,2.67,0,0,1,1.95-.81h0a2.81,2.81,0,0,1,2.09.7,2.27,2.27,0,0,1,.62,1.67,3.19,3.19,0,0,1-3.15,3Z"/><path class="cls-1" d="M136.44,180.83c1.4,0,2.14.61,2.14,1.81a2.61,2.61,0,0,1-2.59,2.44,1.61,1.61,0,0,1-1.74-1.69A2.23,2.23,0,0,1,136.44,180.83Z"/><path class="cls-1" d="M152.22,193.5a2.79,2.79,0,0,1-2.05-.71,2.38,2.38,0,0,1-.65-1.76c0-2.33,1.8-2.6,3.14-2.61h0c1.55,0,2.54.36,2.57,2.09a2.92,2.92,0,0,1-.79,2.11,3,3,0,0,1-2.15.88Z"/><path class="cls-1" d="M152.67,189c1.53,0,2,.34,2,1.54a2.29,2.29,0,0,1-2.38,2.41c-1.43,0-2.2-.64-2.2-1.9C150.1,189.59,150.84,189,152.67,189Z"/><path class="cls-1" d="M149.21,180.76a3.33,3.33,0,0,1-3-3.28,2.38,2.38,0,0,1,.76-1.71,2.57,2.57,0,0,1,1.73-.75c1.41,0,2.78,1.82,2.8,3.68a1.94,1.94,0,0,1-.58,1.37,2.34,2.34,0,0,1-1.64.69Z"/><path class="cls-1" d="M150.88,178.7a1.63,1.63,0,0,1-1.66,1.49,2.76,2.76,0,0,1-2.49-2.72,2,2,0,0,1,1.93-1.88C149.74,175.57,150.87,177.15,150.88,178.7Z"/><path class="cls-1" d="M147.74,167.72c-1.19-.09-2.39-2-2.33-3.27a2.69,2.69,0,0,1,2.19-2.6h0a3.15,3.15,0,0,1,2.28.85,2.13,2.13,0,0,1,.62,1.55c0,1.53-1.3,3.48-2.65,3.48Z"/><path class="cls-1" d="M149.93,164.23c0,1.41-1.2,3-2.15,2.92s-1.85-1.61-1.8-2.68.87-2.05,1.63-2.06C149,162.4,150,163.19,149.93,164.23Z"/><path class="cls-1" d="M154.23,170a2.29,2.29,0,0,1-2.5-2.33,3.24,3.24,0,0,1,.88-2.31,2.51,2.51,0,0,1,1.79-.76,2.42,2.42,0,0,1,2.49,2.57,2.67,2.67,0,0,1-2.6,2.82Z"/><path class="cls-1" d="M156.33,167.22a2.09,2.09,0,0,1-2.08,2.26,1.74,1.74,0,0,1-1.95-1.77,2.26,2.26,0,0,1,2.15-2.49A1.85,1.85,0,0,1,156.33,167.22Z"/><path class="cls-1" d="M144.11,188.46c-1-.06-2.12-.57-2-2.71.11-2.66,1.56-2.94,2.17-2.94a2.63,2.63,0,0,1,1.7.9,3.41,3.41,0,0,1,1.05,2.22,2.87,2.87,0,0,1-2.76,2.54Z"/><path class="cls-1" d="M146.43,185.91a2.3,2.3,0,0,1-2.29,2c-1.08-.06-1.55-.73-1.49-2.12.07-1.56.63-2.4,1.61-2.4S146.47,184.91,146.43,185.91Z"/><path class="cls-1" d="M161.39,173.37a2.23,2.23,0,0,1-2.3-2.4,3.91,3.91,0,0,1,1.19-2.5,2.41,2.41,0,0,1,1.61-.83c.92,0,2.38,2.15,2.38,2.93a3.31,3.31,0,0,1-2.87,2.79Z"/><path class="cls-1" d="M159.66,171c0-1.14,1.32-2.77,2.25-2.76.46,0,1.8,1.77,1.8,2.37a2.79,2.79,0,0,1-2.31,2.22A1.67,1.67,0,0,1,159.66,171Z"/><path class="cls-1" d="M107.29,261.65a1.76,1.76,0,0,1-1.64-1.93c.15-2.34,1-3.49,2.53-3.49h.2A2.43,2.43,0,0,1,110.6,259c-.07,1.2-1.79,2.63-3.18,2.63Z"/><path class="cls-1" d="M106.22,259.69c.14-2.05.84-3,2.12-2.88A1.88,1.88,0,0,1,110,259a3,3,0,0,1-2.7,2.09C106.37,261,106.25,260.31,106.22,259.69Z"/><path class="cls-1" d="M115.63,264.45c-1,0-2.17-1.63-2.14-2.58a2.9,2.9,0,0,1,2.64-2.6,2.53,2.53,0,0,1,1.78.87,2.74,2.74,0,0,1,.77,1.95,2.86,2.86,0,0,1-2.93,2.36Z"/><path class="cls-1" d="M114.06,261.89a2.32,2.32,0,0,1,2.12-2,2.27,2.27,0,0,1,1.93,2.22,2.32,2.32,0,0,1-2.46,1.82C115,263.86,114,262.6,114.06,261.89Z"/><path class="cls-1" d="M103.78,250.29a2.49,2.49,0,0,1-2.5-2.43c0-1.47,1-2.85,2.21-2.88h0a3.31,3.31,0,0,1,2.78,2.6,2.7,2.7,0,0,1-.84,1.86,2.42,2.42,0,0,1-1.64.86Z"/><path class="cls-1" d="M101.85,247.85c0-1.14.81-2.28,1.66-2.31a2.8,2.8,0,0,1,2.19,2.06,2.46,2.46,0,0,1-1.92,2.12A1.92,1.92,0,0,1,101.85,247.85Z"/><path class="cls-1" d="M121.38,256.06a2.87,2.87,0,0,1-2.84-2.71,2.62,2.62,0,0,1,2.34-2.47,3.06,3.06,0,0,1,2.74,2.88,2.33,2.33,0,0,1-.6,1.71,2.15,2.15,0,0,1-1.57.59Z"/><path class="cls-1" d="M123,253.76a1.51,1.51,0,0,1-1.66,1.73,2.29,2.29,0,0,1-2.29-2.14,2,2,0,0,1,1.78-1.91A2.48,2.48,0,0,1,123,253.76Z"/><path class="cls-1" d="M125.89,247.71a2,2,0,0,1-2-2.18,3.85,3.85,0,0,1,1.07-2.59,1.84,1.84,0,0,1,1.29-.65,2.83,2.83,0,0,1,2.32,2.7,2.72,2.72,0,0,1-.77,2,2.54,2.54,0,0,1-1.82.75Z"/><path class="cls-1" d="M128,245a2,2,0,0,1-2.06,2.15c-1,0-1.45-.67-1.49-1.63,0-1.17,1-2.66,1.79-2.65S127.94,244,128,245Z"/><path class="cls-1" d="M99.77,257.81c-.8,0-1.88-1.81-1.87-2.56a2.77,2.77,0,0,1,2.78-2.59,2.2,2.2,0,0,1,1.58.74,2.34,2.34,0,0,1,.65,1.72c0,.67-2.53,2.7-3.1,2.7Z"/><path class="cls-1" d="M98.47,255.26a2.21,2.21,0,0,1,2.24-2,1.81,1.81,0,0,1,1.63,1.86,8.32,8.32,0,0,1-2.54,2.17C99.41,257.22,98.46,255.8,98.47,255.26Z"/><path class="cls-1" d="M157.06,182.91c-.23,0-.61-.08-1.27-.8-.12-.13-1.2-1.33-1.14-2.11a3,3,0,0,1,2.41-2.47,2.8,2.8,0,0,1,1.74.92,2.56,2.56,0,0,1,.8,1.64c0,.69-1.78,2.78-2.51,2.82Z"/><path class="cls-1" d="M159,180.06a5.59,5.59,0,0,1-2,2.28c-.49,0-1.9-1.72-1.85-2.3a2.5,2.5,0,0,1,1.86-2A2.57,2.57,0,0,1,159,180.06Z"/><path class="cls-1" d="M140.49,178.05a2.15,2.15,0,0,1-1.36-.52,2.43,2.43,0,0,1-.2-3.27c.28-.38.58-.74.92-1.13l.48-.56.47-.56.85,1.17c.27.38.52.72.78,1.06a2.12,2.12,0,0,1-.41,3.17A2.3,2.3,0,0,1,140.49,178.05Z"/><path class="cls-1" d="M140.77,172.93c.46.63.82,1.15,1.21,1.65a1.57,1.57,0,0,1-.34,2.39,1.52,1.52,0,0,1-2.15.11,1.85,1.85,0,0,1-.1-2.49C139.78,174.05,140.24,173.56,140.77,172.93Z"/><path class="cls-1" d="M108.61,239.52a1.82,1.82,0,0,1-1.15-.42,2.29,2.29,0,0,1-.9-2.32,2.09,2.09,0,0,1,1.19-1.43l1.25-.68,1.22-.65.23.6a10.53,10.53,0,0,1,.69,2.46,1.77,1.77,0,0,1-1.11,2l-.15.06A3.21,3.21,0,0,1,108.61,239.52Z"/><path class="cls-1" d="M109.92,234.82a9.83,9.83,0,0,1,.66,2.32,1.22,1.22,0,0,1-.77,1.44c-.66.28-1.29.63-2,.07a1.73,1.73,0,0,1-.69-1.78,1.53,1.53,0,0,1,.91-1C108.61,235.51,109.21,235.2,109.92,234.82Z"/><path class="cls-1" d="M112.62,252.76c-1.95,0-3.2-.86-3.18-2.11s1-2.16,2.61-2.17a1.75,1.75,0,0,1,1.29.5,3.2,3.2,0,0,1,.7,2.35,1.29,1.29,0,0,1-1.38,1.43Z"/><path class="cls-1" d="M112,249q1.43,0,1.42,2.28c0,.56-.22.88-.84.87-1.59,0-2.63-.62-2.62-1.54S110.77,249.05,112,249Z"/><path class="cls-2" d="M198.41,113.57c-1.11-3.06-2.48-6.29-4.18-9.88l-.25-.53.53-.24c5.77-2.57,11.47-4.94,16.93-7a8.57,8.57,0,0,1,3.09-.57,9.44,9.44,0,0,1,1.7.16,48.29,48.29,0,0,1,6-1.37A91.84,91.84,0,0,1,237,92.89c1.88,0,3.79.06,5.66.18A173.37,173.37,0,0,1,278,99.29a11,11,0,0,1,3.64,1.8l.29.21-.07.35c-.3,1.45-.61,3-1,4.54l-.15.64-.61-.24a37.31,37.31,0,0,0-13.78-2.45,55.67,55.67,0,0,0-7.39.52c-4,.53-8,1.24-11.93,1.93l-.12,0q-2.08.37-4.17.68l-.17,0c-1.24.06-2.59.17-4.13.37a10.05,10.05,0,0,0-3.69,1.17l-.1.06h-.11a126.45,126.45,0,0,0-13.22,2.22l-.17,0-.16-.07a5.94,5.94,0,0,0-.75-.25,26.73,26.73,0,0,0-6.38-.77A29.49,29.49,0,0,0,203.53,112c-1.35.51-2.77,1.11-4.34,1.85l-.56.26Z"/><path class="cls-2" d="M203.33,111.5a28.76,28.76,0,0,1,17.08-1.19,6.3,6.3,0,0,1,.82.27,127.75,127.75,0,0,1,13.28-2.23,10.56,10.56,0,0,1,3.9-1.24c1.37-.17,2.77-.31,4.18-.37h.11q2.08-.31,4.15-.67c4-.71,8-1.41,12.07-2,7.38-1,14.54-.73,21.45,2,.35-1.5.67-3,1-4.52a10.45,10.45,0,0,0-3.46-1.71,172.87,172.87,0,0,0-35.3-6.2,89.35,89.35,0,0,0-20.27,1,47.88,47.88,0,0,0-6.05,1.39,8.23,8.23,0,0,0-4.62.36q-8.54,3.3-16.91,7c1.55,3.26,3,6.56,4.21,9.93C200.38,112.7,201.84,112.06,203.33,111.5Z"/></svg>