<svg id="圖層_1" data-name="圖層 1" xmlns="http://www.w3.org/2000/svg" xmlns:xlink="http://www.w3.org/1999/xlink" viewBox="0 0 88.67 51.33"><defs><style>.cls-1{fill:none;}.cls-2,.cls-3{fill:#d3526d;}.cls-3{fill-rule:evenodd;}.cls-4{fill:#907327;}.cls-5{clip-path:url(#clip-path);}.cls-6{fill:#69acc7;}</style><clipPath id="clip-path"><rect class="cls-1" x="0.24" y="61.23" width="183.77" height="66.7"/></clipPath></defs><title>graphic</title><path class="cls-2" d="M33.7,7.72H38c.13,0,.13,0,.13.19q0,2.14,0,4.28c0,.18,0,.18-.12.18H35.44c-.07,0-.11,0-.1-.15s0-.31,0-.47,0-.15-.1-.15H33.75c-.08,0-.1,0-.1.16q0,3.81,0,7.61a1.78,1.78,0,0,0,.26,1,.89.89,0,0,0,.77.49H40a.74.74,0,0,0,.55-.35,2.68,2.68,0,0,0,.31-1.39.11.11,0,0,0-.07-.08h-.39c-.06,0-.08,0-.1-.13,0-.27-.08-.54-.12-.81L40,17c0-.13,0-.26-.06-.39h0l-.12.57-.36,1.73c0,.08,0,.11-.1.11h-4c-.06,0-.08,0-.08-.12q0-2.66,0-5.33c0-.1,0-.12.08-.12h2.65c.08,0,.11,0,.1.15s0,.29,0,.44,0,.18.12.18h1.46c.13,0,.13,0,.13-.19,0-2,0-4,0-6A3.26,3.26,0,0,1,40,7c.06-.19.1-.38.15-.58L40,6.38l-1.41-.43c-.07,0-.11,0-.13.11s-.08.3-.11.45-.06.14-.13.14H33.69c-.12,0-.12,0-.12.19v.7C33.57,7.72,33.57,7.72,33.7,7.72Z"/><path class="cls-2" d="M41,22.16h0c-.56,0-1.12.13-1.68.14-2.45,0-4.89,0-7.34,0a4.81,4.81,0,0,1-1.67-.3c-.09,0-.1-.09-.1-.21q0-2,0-4c0-.18,0-.18.12-.18h1.47a.57.57,0,0,0,.45-.12c.21-.21.4-.44.6-.66a.22.22,0,0,0,0-.13l-.46-.83c0-.08-.07-.07-.11,0l-.17.25a.76.76,0,0,1-.65.4H30.27c-.08,0-.1,0-.1-.15q0-1.28,0-2.57c0-.13,0-.17.11-.17h1.43a.77.77,0,0,0,.6-.27c.14-.15.26-.32.4-.47a.15.15,0,0,0,0-.19l-.43-.82c0-.08-.07-.08-.12,0l-.31.41a.63.63,0,0,1-.5.28H29.72c-.08,0-.11,0-.11-.16q0-1.48,0-3c0-.13,0-.16.11-.16h1.55a.63.63,0,0,0,.47-.15c.19-.18.36-.4.54-.6,0-.05,0-.1,0-.15l-.37-.7c-.13-.24-.13-.24-.27,0a1,1,0,0,1-.91.57c-.34,0-.68,0-1,0-.08,0-.1,0-.1-.16,0-.82,0-1.64,0-2.46,0-.12,0-.16-.1-.16H28c-.07,0-.09,0-.09.14,0,.5,0,1,0,1.49,0,.33,0,.67,0,1,0,.12,0,.16-.1.15H25.32c-.08,0-.11,0-.1.16s0,.48,0,.72,0,.18.11.18h2.5c.08,0,.1,0,.1.16q0,1.48,0,3c0,.14,0,.17-.11.17H24.88c-.09,0-.11,0-.11.17s0,.48,0,.72,0,.2.13.2h3.46c.09,0,.12,0,.12.18q0,3.4,0,6.81s0,.09,0,.15l-.05,0a8.35,8.35,0,0,1-1.24-1.57.25.25,0,0,1,0-.13c0-.45.11-.89.14-1.34s.07-1.12.1-1.68a.14.14,0,0,0-.05-.11l-.23-.06-1.27-.31c-.08,0-.09,0-.1.13,0,.6,0,1.21-.09,1.81s-.11,1.47-.19,2.2-.19,1.37-.3,2.06a26.59,26.59,0,0,1-.58,2.69,1.53,1.53,0,0,0,0,.16,1.61,1.61,0,0,0,.62-.35,4.39,4.39,0,0,0,1.1-1.66,11,11,0,0,0,.6-2c0-.08,0-.16.06-.24.18.38.34.76.53,1.11a5.5,5.5,0,0,0,1.48,1.82,4.4,4.4,0,0,0,1.36.73,5.2,5.2,0,0,0,1.44.26l1.54.07,2.62.12,1.12,0a15.34,15.34,0,0,0,2.14,0,2.09,2.09,0,0,0,2-2.22C41.14,22.15,41.14,22.15,41,22.16Z"/><path class="cls-3" d="M26.93,20.4c0,.08,0,.16-.06.24a11,11,0,0,1-.6,2,4.39,4.39,0,0,1-1.1,1.66,1.61,1.61,0,0,1-.62.35,1.53,1.53,0,0,1,0-.16,26.59,26.59,0,0,0,.58-2.69c.11-.68.22-1.37.3-2.06s.14-1.46.19-2.2.06-1.21.09-1.81c0-.11,0-.15.1-.13l1.27.31.23.06a.14.14,0,0,1,.05.11c0,.56-.06,1.12-.1,1.68s-.1.89-.14,1.34a.25.25,0,0,0,0,.13,8.35,8.35,0,0,0,1.24,1.57l.05,0c0-.06,0-.1,0-.15q0-3.41,0-6.81c0-.13,0-.18-.12-.18H24.9c-.13,0-.13,0-.13-.2s0-.48,0-.72,0-.17.11-.17h2.95c.08,0,.12,0,.11-.17q0-1.48,0-3c0-.13,0-.16-.1-.16h-2.5c-.11,0-.11,0-.11-.18s0-.48,0-.72,0-.16.1-.16h2.52c.07,0,.1,0,.1-.15,0-.33,0-.67,0-1,0-.5,0-1,0-1.49,0-.11,0-.14.09-.14h1.48c.08,0,.1,0,.1.16,0,.82,0,1.64,0,2.46,0,.12,0,.16.1.16.34,0,.68,0,1,0a1,1,0,0,0,.91-.57c.14-.22.14-.21.27,0l.37.7s.05.1,0,.15c-.18.2-.35.42-.54.6a.63.63,0,0,1-.47.15H29.72c-.08,0-.11,0-.11.16q0,1.48,0,3c0,.13,0,.16.11.16h1.63a.63.63,0,0,0,.5-.28l.31-.41c0-.06.08-.07.12,0l.43.82a.15.15,0,0,1,0,.19c-.13.16-.26.32-.4.47a.77.77,0,0,1-.6.27H30.28c-.08,0-.11,0-.11.17q0,1.28,0,2.57c0,.12,0,.15.1.15h1.14a.76.76,0,0,0,.65-.4l.17-.25c0-.07.07-.07.11,0l.46.83a.22.22,0,0,1,0,.13c-.2.23-.39.46-.6.66a.57.57,0,0,1-.45.12H30.29c-.11,0-.12,0-.12.18q0,2,0,4c0,.12,0,.17.1.21a4.81,4.81,0,0,0,1.67.3c2.45,0,4.89,0,7.34,0,.56,0,1.12-.09,1.68-.14h0c.13,0,.13,0,.12.19a2.09,2.09,0,0,1-2,2.22,15.34,15.34,0,0,1-2.14,0l-1.12,0-2.62-.12-1.54-.07A5.2,5.2,0,0,1,30.29,24a4.4,4.4,0,0,1-1.36-.73,5.5,5.5,0,0,1-1.48-1.82C27.27,21.15,27.11,20.78,26.93,20.4Z"/><path class="cls-3" d="M40,16.58c0,.13,0,.26.06.39l.16,1.09c0,.27.08.54.12.81,0,.09,0,.13.1.13h.39a.11.11,0,0,1,.07.08,2.68,2.68,0,0,1-.31,1.39.74.74,0,0,1-.55.35H34.68a.89.89,0,0,1-.77-.49,1.78,1.78,0,0,1-.26-1q0-3.81,0-7.61c0-.12,0-.16.1-.16h1.49c.08,0,.1,0,.1.15s0,.31,0,.47,0,.15.1.15H38c.12,0,.12,0,.12-.18q0-2.14,0-4.28c0-.19,0-.19-.13-.19H33.7c-.13,0-.13,0-.13-.2v-.7c0-.19,0-.19.12-.19H38.2c.07,0,.11,0,.13-.14s.08-.3.11-.45.06-.13.13-.11L40,6.38l.17.07c-.05.2-.09.4-.15.58a3.26,3.26,0,0,0-.14,1c0,2,0,4,0,6,0,.19,0,.19-.13.19H38.28c-.12,0-.12,0-.12-.18s0-.3,0-.44,0-.15-.1-.15H35.42c-.06,0-.08,0-.08.12q0,2.66,0,5.33c0,.1,0,.12.08.12h4c.06,0,.08,0,.1-.11l.36-1.73.12-.57Z"/><path class="cls-2" d="M58.18,18.17l-.09-.08-1.41-1a.09.09,0,0,0-.1,0c-.11.1-.22.21-.34.31s-.2.21-.33.21H49.08l-.1,0,.39-.74-.09-.07-.78-.42L47.83,16c-.06,0-.11,0-.15.06-.39.85-.82,1.65-1.26,2.43a23.19,23.19,0,0,1-1.57,2.39l-.14.2h.1a3.31,3.31,0,0,0,1.73-.63,6.38,6.38,0,0,0,1.25-1.14c0-.06.09-.07.14,0l.15.16a22.21,22.21,0,0,0,2.26,1.93l.08.08a31.56,31.56,0,0,1-7,2.53l.09,0a8,8,0,0,0,.81.08c.58,0,1.17,0,1.75,0s1-.1,1.47-.17.8-.16,1.2-.25.77-.18,1.15-.3.72-.22,1.07-.35l1-.39a.29.29,0,0,1,.28,0,12.72,12.72,0,0,0,2.12,1c.38.13.77.26,1.15.36a5.89,5.89,0,0,0,1.66.18,2.85,2.85,0,0,0,1.32-.33,1.84,1.84,0,0,0,.84-.95c.06-.15.1-.31.17-.5a18,18,0,0,1-5.36-.78A14,14,0,0,0,58.18,18.17Zm-6,2.29a2.57,2.57,0,0,1-.29.18.18.18,0,0,1-.16,0,15.63,15.63,0,0,1-2-1.16c-.32-.22-.63-.46-.94-.69l0,0v0h5.82v0L54.3,19Z"/><path class="cls-2" d="M44.82,13.33c.21.25.21.25.39-.06a6.89,6.89,0,0,0,.68-1.79c0-.13.08-.15.16-.15h11.2c.05,0,.07,0,.05.11L57.1,12.5c-.05.28-.05.28-.24.21l-.1,0a3.53,3.53,0,0,0-1.22-.22l-.17,0a5.93,5.93,0,0,0,.37.56l2.18,3c.05.07.08.07.13,0l.9-1.58a.13.13,0,0,0,0-.17,4.43,4.43,0,0,0-.93-.93l-.44-.3a4.55,4.55,0,0,0,1-1.13,7,7,0,0,0,.73-1.54l-.05,0-1.57-.78s-.06,0-.06.06-.07.3-.09.46-.06.17-.14.17h-2c.25-.19.48-.35.7-.54a4.14,4.14,0,0,0,.83-1c0-.08,0-.11,0-.15l-1.52-.79c-.09,0-.12,0-.16.1l-.78,2.24c0,.09-.06.12-.13.12h-2v0L53,9.42a2.9,2.9,0,0,0-1.76-1.35,2,2,0,0,0-1-.05v0l1.2,2.17H48.6v0l.75-.8a6.45,6.45,0,0,0-.45-.55A2.74,2.74,0,0,0,46.74,8l-.16,0,1.21,2.19,0,0h-1.6s-.06,0-.06-.11,0-.33,0-.49,0-.25,0-.4l-2.43,2.62.07.1Z"/><path class="cls-2" d="M49.57,12.31H48.08c-.08,0-.11,0-.11.16,0,.74,0,1.48,0,2.22a2.13,2.13,0,0,0,0,.42c.15.71.51,1.11,1,1.11h5.81a2.13,2.13,0,0,0,.4,0,.84.84,0,0,0,.59-.61A3.66,3.66,0,0,0,56,14.48c0-.1,0-.12-.08-.12h-.47s-.07,0-.08-.09c-.07-.42-.14-.85-.21-1.27l-.07-.39h0l-.32,1.59c0,.11,0,.16-.13.16H52.77l.06-.1.74-1.1c.06-.08.05-.13,0-.19s-.19-.18-.28-.26a3.78,3.78,0,0,0-2.42-.85,3.41,3.41,0,0,0-.4,0v0l1.82,2.41h-2.5c-.08,0-.1,0-.1-.15,0-.58,0-1.16,0-1.74C49.67,12.35,49.65,12.31,49.57,12.31Z"/><path class="cls-2" d="M45.09,7.29c.61.06,1.21.14,1.82.17,1,.05,2,.1,3,.11.82,0,1.64,0,2.46,0,.52,0,1,0,1.55-.09l1.5-.14.9-.13L57.41,7l.45-.12-.06-.12L56.68,5.12a.12.12,0,0,0-.11-.06l-.93.16-1.13.2-1.4.23L51,6l-1.77.29-1.45.25-1.45.24L45.13,7l-.71.13-.06,0a.1.1,0,0,0,.07,0C44.65,7.22,44.87,7.26,45.09,7.29Z"/><path class="cls-2" d="M46,13.45l-1.53,1.64c0,.05-.06.09,0,.15l1.25,1.34c.05.06.08,0,.13,0a5,5,0,0,0,.68-1.19,7.66,7.66,0,0,0,.58-2.48c0-.2,0-.41,0-.64l0,0Z"/><path class="cls-2" d="M50.15,40.08,50.06,40l-1.41-1a.09.09,0,0,0-.1,0c-.11.1-.22.21-.33.31s-.2.21-.33.21H41.05l-.1,0,.39-.74-.09-.07-.78-.42-.67-.36c-.06,0-.11,0-.15.06-.39.85-.82,1.66-1.26,2.43a23.16,23.16,0,0,1-1.57,2.39l-.14.2h.1a3.3,3.3,0,0,0,1.73-.63,6.38,6.38,0,0,0,1.24-1.14c0-.06.09-.07.14,0l.15.16a22.06,22.06,0,0,0,2.26,1.93l.08.09a31.53,31.53,0,0,1-7,2.53l.09,0a8,8,0,0,0,.81.08c.58,0,1.17,0,1.75,0s1-.1,1.47-.17.8-.16,1.2-.25.77-.18,1.15-.3.72-.23,1.07-.35l1-.39a.29.29,0,0,1,.28,0,12.69,12.69,0,0,0,2.12,1c.38.13.76.26,1.15.36a5.87,5.87,0,0,0,1.66.18,2.84,2.84,0,0,0,1.32-.33,1.84,1.84,0,0,0,.84-.95c.06-.15.1-.31.16-.5a18,18,0,0,1-5.36-.78A14,14,0,0,0,50.15,40.08Zm-6,2.29a2.43,2.43,0,0,1-.29.18.19.19,0,0,1-.16,0,15.79,15.79,0,0,1-2-1.16c-.32-.22-.63-.46-.94-.69l0,0v0H46.6v0l-.34.26Z"/><path class="cls-2" d="M36.79,35.23c.21.25.21.25.39-.06a6.86,6.86,0,0,0,.68-1.79c0-.13.08-.15.16-.15H49.22c.05,0,.07,0,.05.11-.06.35-.13.7-.19,1.05s-.05.28-.24.21l-.1,0a3.53,3.53,0,0,0-1.22-.22l-.18,0a6.48,6.48,0,0,0,.38.56l2.18,3c.05.07.08.07.13,0l.9-1.58a.13.13,0,0,0,0-.17,4.42,4.42,0,0,0-.93-.93l-.44-.3a4.52,4.52,0,0,0,1-1.13,6.92,6.92,0,0,0,.73-1.54l-.05,0-1.57-.78s-.06,0-.06.06a4.68,4.68,0,0,0-.09.46c0,.13-.06.17-.14.17H47.31c.25-.19.48-.35.7-.54a4.16,4.16,0,0,0,.83-1c0-.08,0-.11,0-.15l-1.52-.79c-.09,0-.12,0-.16.1L46.35,32c0,.09-.06.12-.13.12h-2v0l.74-.79A2.9,2.9,0,0,0,43.23,30a2,2,0,0,0-1-.05v0l1.2,2.17H40.57v0l.75-.8a6.86,6.86,0,0,0-.45-.55,2.75,2.75,0,0,0-2.15-.86l-.16,0,1.21,2.19,0,0H38.12s-.06,0-.06-.11,0-.33,0-.49,0-.25,0-.4l-2.43,2.62.07.1Z"/><path class="cls-2" d="M41.54,34.21H40.05c-.08,0-.11,0-.11.16,0,.74,0,1.48,0,2.22A2.17,2.17,0,0,0,40,37c.15.71.51,1.11,1,1.11h5.81a2.15,2.15,0,0,0,.4,0,.83.83,0,0,0,.59-.61A3.62,3.62,0,0,0,48,36.38c0-.1,0-.12-.08-.12H47.4s-.07,0-.08-.09c-.07-.42-.14-.85-.21-1.27,0-.13,0-.26-.07-.39h0c-.11.53-.22,1.06-.32,1.59,0,.11-.05.16-.13.16H44.75l.06-.1.74-1.1c.06-.08.05-.13,0-.19s-.19-.18-.28-.26a3.78,3.78,0,0,0-2.42-.85,3.64,3.64,0,0,0-.4,0v0l1.82,2.41h-2.5c-.08,0-.1,0-.1-.15,0-.58,0-1.16,0-1.74C41.64,34.25,41.63,34.21,41.54,34.21Z"/><path class="cls-2" d="M37.06,29.19c.61.06,1.21.14,1.82.17,1,.05,2,.1,3,.11.82,0,1.64,0,2.46,0,.52,0,1,0,1.55-.09l1.5-.14.9-.13,1.05-.2.45-.12-.06-.11L48.66,27a.13.13,0,0,0-.11-.06l-.94.16-1.13.2-1.4.23L43,27.9l-1.77.29-1.45.25-1.45.24-1.25.21L36.4,29l-.06,0a.1.1,0,0,0,.07,0C36.62,29.12,36.84,29.16,37.06,29.19Z"/><path class="cls-2" d="M38,35.35,36.48,37c0,.05-.06.09,0,.15l1.25,1.34c.05.06.08,0,.13,0a5,5,0,0,0,.68-1.19,7.72,7.72,0,0,0,.58-2.48c0-.21,0-.41,0-.64l-.05,0Z"/><path class="cls-2" d="M67.51,28a.89.89,0,0,1-.76.45H53.69c-.06,0-.08,0-.08.12,0,.26,0,.52,0,.78s0,.19.12.19h6.15v.06c-.22.59-.43,1.18-.66,1.76a31,31,0,0,1-1.77,3.69,29.22,29.22,0,0,1-2.05,3.14,33.43,33.43,0,0,1-2.5,3l-.07.08a.12.12,0,0,0,.1,0c.22-.07.45-.14.67-.23A8,8,0,0,0,55,40.32a11.59,11.59,0,0,0,2.35-2.1,19.12,19.12,0,0,0,2.44-3.58l.15-.28h0V46.14c0,.17,0,.17.11.17h1.42c.14,0,.14,0,.14-.21V33.32c0-.18,0-.18-.12-.18h-1a.22.22,0,0,1,0,0l0-.09a22.28,22.28,0,0,0,1.18-3.26c0-.15.09-.19.19-.19h5.2a1,1,0,0,0,.84-.44c.1-.14.21-.26.32-.4l-.54-1Z"/><path class="cls-2" d="M67.56,38.21a16.83,16.83,0,0,0-2.1-2.39,7.83,7.83,0,0,0-2.12-1.54l-.3-.11v0l.06.11,2.26,3.85,1.56,2.66c0,.08.08.07.12,0l.2-.29.89-1.28a.17.17,0,0,0,0-.23C67.93,38.77,67.76,38.48,67.56,38.21Z"/><path class="cls-3" d="M20.12,12.76l.43.8c.12.23.12.24,0,.42l-.24.28a.83.83,0,0,1-.65.33H5.4c-.13,0-.13,0-.13-.2s0-.48,0-.72,0-.14.08-.13H19.19a.79.79,0,0,0,.68-.41Z"/><rect class="cls-2" x="18.57" y="12.01" width="2.59" height="2.6"/><path class="cls-2" d="M85.22,27.9l-1.5-.51c-.06,0-.09,0-.11.09s-.1.34-.14.52-.07.17-.16.17h-10c-.13,0-.13,0-.13-.2s0-.32,0-.48,0-.12-.08-.12H71.55c-.07,0-.1,0-.09.13s0,.05,0,.08V45.52s0,.1,0,.15,0,.14.09.14h1.51c.08,0,.09,0,.09-.15s0-.44,0-.66q0-3.86,0-7.72t0-7.83c0-.21,0-.21.13-.21h9.94c.12,0,.12,0,.12.18q0,7.24,0,14.48c0,.13,0,.16-.11.16h-2a.41.41,0,0,0,0,.08c.16.51.32,1,.47,1.52,0,.11.08.15.15.15h1.85a2,2,0,0,0,.55-.08.93.93,0,0,0,.56-.56A2.9,2.9,0,0,0,85,44q0-7.36,0-14.72a1.73,1.73,0,0,1,.06-.41c.07-.26.14-.52.22-.78C85.31,28,85.29,27.92,85.22,27.9Z"/><path class="cls-2" d="M81.65,41.68c0-1.77,0-3.54,0-5.31a2.35,2.35,0,0,1,.13-.84c.07-.19.12-.39.18-.6l-.07,0-.61-.19-.94-.29s-.07,0-.09.08a3.2,3.2,0,0,1-.1.37s-.06.1-.09.1H76.37c-.06,0-.08,0-.08-.13s0-.2,0-.31,0-.19-.12-.19H74.74c-.13,0-.13,0-.13.19v5.54c0,.54,0,1.09,0,1.63,0,.1,0,.15.09.15h1.5c.07,0,.09,0,.08-.13s0-.2,0-.31,0-.19.12-.19h3.45s0,0,0,0,.06.06.06.09,0,.27,0,.4,0,.14.09.14h1.47C81.65,41.87,81.65,41.87,81.65,41.68ZM80,40c0,.12,0,.16-.1.16H76.42c-.13,0-.13,0-.13-.19V36.29c0-.19,0-.19.12-.19h3.45c.08,0,.11,0,.11.16Q80,38.11,80,40Z"/><path class="cls-2" d="M81.76,32.41a.8.8,0,0,0,.63-.31l.35-.42a.14.14,0,0,0,0-.19l-.38-.7c-.13-.23-.13-.24-.27,0a1,1,0,0,1-.89.56c-2.36,0-4.73,0-7.1,0H74c-.07,0-.1,0-.1.15s0,.5,0,.75,0,.19.13.19h7.7Z"/><path class="cls-2" d="M78.14,40.12h0Z"/><rect class="cls-2" x="70.54" y="43.22" width="2.59" height="2.59"/><path class="cls-4" d="M6.87,41a.18.18,0,0,1-.18-.2.19.19,0,0,1,.18-.21H9.42a.19.19,0,0,1,.18.21.19.19,0,0,1-.18.2H8.37v3c0,.13-.1.19-.22.19s-.22-.06-.22-.19V41Z"/><path class="cls-4" d="M13.2,42.36c0,1.14-.62,1.88-1.62,1.88S10,43.51,10,42.36s.63-1.88,1.63-1.88S13.2,41.21,13.2,42.36Zm-2.78,0c0,.9.46,1.48,1.17,1.48s1.16-.57,1.16-1.51-.45-1.45-1.16-1.45S10.41,41.46,10.41,42.36Z"/><path class="cls-4" d="M16.29,42.84c0-.08,0-.13-.12-.13h-.61a.17.17,0,0,1-.19-.2.18.18,0,0,1,.19-.2h.75c.27,0,.38.12.38.4V44a.18.18,0,0,1-.2.2c-.13,0-.2-.06-.2-.17v-.12a1.49,1.49,0,0,1,0-.19.75.75,0,0,1-.13.18,1.28,1.28,0,0,1-.85.32c-1,0-1.63-.76-1.63-1.88a1.66,1.66,0,0,1,1.62-1.88,1.34,1.34,0,0,1,1.31.78.2.2,0,0,1,0,.1.21.21,0,0,1-.14.19l-.12,0a.19.19,0,0,1-.19-.13.87.87,0,0,0-.87-.55c-.71,0-1.16.58-1.16,1.48s.48,1.47,1.18,1.47a.9.9,0,0,0,1-.89Z"/><path class="cls-4" d="M17.84,43.62c0,.11.07.15.17.15h1.66a.18.18,0,0,1,.19.2.19.19,0,0,1-.19.2h-1.8c-.33,0-.47-.14-.47-.5V41.05c0-.36.14-.5.47-.5h1.76a.18.18,0,0,1,.19.2.18.18,0,0,1-.19.2H18c-.11,0-.16.05-.16.16v1h1.58a.18.18,0,0,1,.18.2.18.18,0,0,1-.18.2H17.84Z"/><path class="cls-4" d="M20.3,41a.18.18,0,0,1-.18-.2.19.19,0,0,1,.18-.21h2.56a.19.19,0,0,1,.18.21.19.19,0,0,1-.18.2H21.81v3c0,.13-.1.19-.22.19s-.22-.06-.22-.19V41Z"/><path class="cls-4" d="M26,40.71c0-.13.1-.19.23-.19s.21.06.21.19V44a.19.19,0,0,1-.21.19c-.13,0-.23-.06-.23-.19V42.47H24V44c0,.13-.1.19-.22.19s-.22-.06-.22-.19V40.71c0-.13.09-.19.22-.19s.22.06.22.19v1.35h2Z"/><path class="cls-4" d="M27.67,43.62c0,.11.07.15.17.15H29.5a.18.18,0,0,1,.19.2.19.19,0,0,1-.19.2H27.7c-.33,0-.47-.14-.47-.5V41.05c0-.36.14-.5.47-.5h1.76a.18.18,0,0,1,.19.2.18.18,0,0,1-.19.2H27.83c-.11,0-.16.05-.16.16v1h1.58a.18.18,0,0,1,.18.2.18.18,0,0,1-.18.2H27.67Z"/><path class="cls-4" d="M33,43.92A.23.23,0,0,1,33,44a.19.19,0,0,1-.15.18h-.1a.18.18,0,0,1-.18-.12l-.12-.3c-.33-.91-.46-1.24-.93-1.24h-.85V44a.19.19,0,0,1-.21.2c-.13,0-.22-.06-.22-.2V41.05c0-.36.14-.5.47-.5H31.8c.67,0,1,.36,1,.93a.85.85,0,0,1-.73.91c.28.08.43.39.77,1.26Zm-1.25-1.76a.6.6,0,0,0,.66-.62.55.55,0,0,0-.63-.61h-.94c-.1,0-.15.05-.15.16v1.06Z"/><path class="cls-4" d="M7.09,31.52c0-.29.2-.41.46-.41s.46.12.46.4v5.88a.3.3,0,0,0,.34.33h3.37a.38.38,0,0,1,.39.42.4.4,0,0,1-.39.44H8.06c-.68,0-1-.29-1-1Z"/><path class="cls-4" d="M19.38,34.88c0,2.34-1.27,3.85-3.31,3.85s-3.33-1.5-3.33-3.86S14,31,16.07,31,19.38,32.53,19.38,34.88Zm-5.7,0c0,1.84.93,3,2.39,3s2.37-1.17,2.37-3.08-.92-3-2.37-3S13.68,33,13.68,34.88Z"/><path class="cls-4" d="M25.52,31.39a.4.4,0,0,1,.41-.28l.17,0a.43.43,0,0,1,.35.39.38.38,0,0,1,0,.14L24,38.21a.69.69,0,0,1-1.28,0l-2.44-6.52a.41.41,0,0,1,.32-.55l.17,0a.41.41,0,0,1,.41.28L23,36.6c.12.35.23.79.33,1.17.1-.39.22-.82.34-1.18Z"/><path class="cls-4" d="M28.51,37.44c0,.22.14.3.35.3h3.41a.37.37,0,0,1,.38.41.38.38,0,0,1-.38.42H28.59c-.68,0-1-.29-1-1V32.19c0-.73.29-1,1-1h3.6a.37.37,0,0,1,.38.41.38.38,0,0,1-.38.42H28.83c-.23,0-.32.1-.32.33v2h3.24a.37.37,0,0,1,.37.41.37.37,0,0,1-.37.4H28.51Z"/><g class="cls-5"><rect class="cls-6" x="-7" y="31" width="196" height="52"/></g></svg>