<svg id="圖層_1" data-name="圖層 1" xmlns="http://www.w3.org/2000/svg" viewBox="0 0 164.3 279.33"><defs><style>.cls-1{fill:#cfaf43;}.cls-1,.cls-10,.cls-11,.cls-2,.cls-3,.cls-4,.cls-5,.cls-6,.cls-7,.cls-8,.cls-9{fill-rule:evenodd;}.cls-2{fill:#0b0808;}.cls-3{fill:#c03226;}.cls-4{fill:#202222;}.cls-5{fill:#bf3327;}.cls-6{fill:#915843;}.cls-7{fill:#0e0d0d;}.cls-8{fill:#fdfefe;}.cls-9{fill:#f5f5f6;}.cls-10{fill:#3784a2;}.cls-11{fill:#b6cbde;}</style></defs><title>graphic</title><path class="cls-1" d="M115.3,271.12a50.65,50.65,0,0,0,4-11c2.74-10.52,2.78-21,1.92-31.45-.26-3.11-.22-3-4.14-1.91-2.52.69-2.82,1.93-2.87,3.57a306.31,306.31,0,0,0,.77,32.77C115.18,265.61,115.18,268.1,115.3,271.12Z"/><path class="cls-2" d="M68.48,9.66A14.34,14.34,0,0,1,71.8,5.8C74.34,3.42,77,4,78.28,7.3a26.15,26.15,0,0,1,1.07,5.06c.18,1,.29,2,.43,3.06.64-.06.57-.53.68-.9.57-1.89,2.85-3.85,4.69-3.87,2,0,3.12,1.35,3.92,3a9.2,9.2,0,0,1,.94,5.2,55.29,55.29,0,0,1-2.66,11.59c-.89,2.69-.84,2.77,1.94,2.59,3.91-.25,7.8-.71,11.71-.88a12.24,12.24,0,0,1,8.33,2.32,6.82,6.82,0,0,1,2.42,7.6,2.05,2.05,0,0,0,1.44,2.8,65.75,65.75,0,0,1,25.15,19c4.51,5.37,8.32,11.11,10,18,1.11,4.7,2,9.45,2.86,14.21,2.5,14.3.1,28-5.83,41.06-2.88,6.36-6.09,12.58-10.54,18.05-2.47,3-5,6-7.56,9a2.89,2.89,0,0,0-.77,2c.06,4.56.44,9.1.64,13.65.34,7.66,1.81,15.28,1.11,23-.64,7-1.12,14.14-3.91,20.79a21.11,21.11,0,0,0-1.22,6.77c-.42,5.74-1,11.48-1.3,17.23-.3,5.07-.85,10.1-1.5,15.13-.45,3.46-.46,7-2.24,10.23-.45.81-.89,1.54-1.94,1.39s-1.13-1-1.34-1.79a50,50,0,0,1-1.32-9.92c-.6-9.32-1.19-18.64-1.46-28a6.79,6.79,0,0,0-.16-1c-.72-3.91-.72-3.88-4.68-3.21a31.72,31.72,0,0,1-4.12.42c-6.75.25-13.51,1-20.25.37-7-.61-13.92-1-20.9-1a18.07,18.07,0,0,1-2.25,0c-1.65-.2-2,.59-1.76,2,.77,4.54,1.47,9.09,2.27,13.62a17.13,17.13,0,0,1,.18,2.93c0,4.1,0,8.21,0,12.31a51.21,51.21,0,0,0,.43,8.11,4.27,4.27,0,0,1-2.2,4.36,1.64,1.64,0,0,1-2.7-.78c-1.32-3.34-3.69-6.21-4.76-9.6-1.73-5.46-3.73-10.86-3.64-16.79a169.64,169.64,0,0,0-1.19-18.1,34,34,0,0,0-1.47-7.56c-2.13-6.25-2.16-12.67-2.82-19.06A128.94,128.94,0,0,1,41,183.66c.19-5.31.65-10.61,3.4-15.37.57-1-.09-1.35-.73-1.76-3.53-2.3-7-4.72-10.61-6.87-9.78-5.81-15.28-14.8-18.91-25.17-.95-2.72-2.3-5.33-2.71-8.19A73.82,73.82,0,0,1,11,111.64,130.6,130.6,0,0,1,14.4,90c1.92-8.42,6-15.94,9.89-23.55a38.25,38.25,0,0,1,7.88-11.09,39.72,39.72,0,0,1,4.73-3.78,2.53,2.53,0,0,0,1.11-3,15.26,15.26,0,0,1,.29-7A4.13,4.13,0,0,1,40.71,39c4.76-2.3,9.66-4.06,15-4.27,3.88-.16,3.89-.35,3.33-4.18s-.7-7.57-.87-11.37A22.8,22.8,0,0,1,58.63,12a13.2,13.2,0,0,1,3.5-5.89c1.57-1.57,2.44-1.53,3.85.14.44.53.84,1.1,1.25,1.66S68,9,68.48,9.66ZM62.77,223.38c-3.62.52-6.77-1.08-10-2.26-1.75-.64-3.49-1.3-5.38-2,.26,3.16.78,5.86,4.07,6.81,2.16.62,4.32,1.25,6.51,1.72,3.73.8,7.5-.29,11.34.48,6.18,1.23,12.55.27,18.84.69,9.87.66,19.54-1.24,29.2-2.93,4.22-.74,6.7-4.66,5.8-9.09-4.62,4.77-10.62,6.08-16.76,6.53-8,.58-16.12,1.3-24.18,0a2,2,0,0,0-1.48-.32q-8.23,0-16.47,0C63.75,223.06,63.2,223,62.77,223.38Zm62.09-30.49c.24-8-.65-16-1.24-24-.19-2.6-.18-2.53-2.78-2.3-6.89.6-13.78,1.14-20.68,1.7H85.32c-1.38-.13-2.76-.33-4.14-.37a251.33,251.33,0,0,0-31.46,1.28c-3.38.34-4.36,1.52-4.67,4.94a103.13,103.13,0,0,0-.07,15.4c.42,6.8.68,13.6,1.11,20.4.19,3,1.19,5.74,3.93,7.34,3.62,2.11,7.47,3.66,11.76,3.67,5.08,0,10.16,0,15.24,0,6.82,0,13.58,1.07,20.41.82,6.42-.23,12.81-.67,18.91-2.87,5.89-2.12,9-6.56,8.81-12.17,0-3.43,0-6.87,0-10.3C125.1,195.24,125.42,194,124.85,192.89ZM13.38,118.23c.08,1.2.08,3.12.36,5,1.21,8,4.7,15.22,8.76,22.14A24.24,24.24,0,0,0,29.46,153c4.31,3,8.33,6.39,12.52,9.55a19.61,19.61,0,0,0,14.33,3.83c5.51-.57,11-.76,16.58-.9,8.31-.21,16.61.33,24.91.56,7.27.2,14.5-.78,21.73-1.47a12.87,12.87,0,0,0,8.11-4.15,48.6,48.6,0,0,0,4.47-5.93c7.72-10.68,13.94-22.06,16.47-35.19a55.13,55.13,0,0,0,.73-19.05c-.92-5.84-2.5-11.57-3.69-17.37a31.92,31.92,0,0,0-8.74-16.75c-3.53-3.5-7.06-7-10.7-10.36a45.11,45.11,0,0,0-15-9.05c-1.32-.5-2.71-.87-4,0a5.93,5.93,0,0,1-3.23,1c-1.21,0-2.41.22-3.61.36-7.45.85-14.91,1.47-22.39,2L59.51,51.3c-5.75.39-11.5.82-17.26,1.09A7.78,7.78,0,0,0,38,53.88c-4.81,3.33-8.24,7.83-11.23,12.76C17.25,82.29,14.28,99.63,13.38,118.23ZM66.43,36a58.57,58.57,0,0,1-6.66.75c-5.9,0-11.22,2.29-16.67,4-2.26.72-3.37,3.49-2.86,6.25a4.59,4.59,0,0,0,4.11,3.64c4.1.22,8.14-.5,12.21-.79,4.34-.31,8.67-.89,13-1.27,3.55-.31,7.11-.44,10.66-.75,4.63-.4,9.25-.89,13.87-1.34,3.6-.35,7.2-.68,10.79-1.09A4.11,4.11,0,0,0,108,43.78a7.57,7.57,0,0,0,.15-7.08,2.37,2.37,0,0,0-2-1.23c-1.85,0-3.65-.43-5.5-.42-5.13,0-10.23.37-15.34.67C79,36.09,72.71,35.42,66.43,36ZM57.08,269c-.18-2.77-.38-5-.46-7.31q-.51-15-2.24-30c-.17-1.49-.48-2.59-2.26-2.93-2.76-.54-2.74-.65-2.66,2.21.29,9.63,1.2,19.18,4,28.46A53.86,53.86,0,0,0,57.08,269ZM61,19.34A45.37,45.37,0,0,0,61.84,31c1,3.87,0,3.68,4.41,3.15,2.24-.27,2.44-.57,2.49-2.86.12-5.23-.89-10.33-1.7-15.45-.33-2.1-.44-4.27-1.84-6-1.26-1.6-1.66-1.59-2.71.08a9.44,9.44,0,0,0-1.18,2.86C60.72,15.14,61.06,17.63,61,19.34Zm14.14-13c-2.34,1.43-4.57,2.8-4.69,5.85-.28,6.7.61,13.36.84,20,0,.92.46,1.22,1.41,1.24,3.87.09,3.87.13,3.95-3.76,0-.12,0-.23,0-.35.17-5.24.63-10.48,0-15.73A29.6,29.6,0,0,0,75.1,6.32Zm46,223.33c.06-2,.06-2-2-1.49a26.7,26.7,0,0,1-3.36.78c-1.55.18-1.71,1-1.54,2.34a147.55,147.55,0,0,1,1.65,20.65,59.83,59.83,0,0,0,1,12.37c.07.37-.06.94.49,1,.75,0,.48-.65.52-1,.28-2.92.53-5.85.8-8.77Q119.87,242.55,121.06,229.65ZM79.68,28.72c0,1.15,0,2.31,0,3.46,0,.33-.06.69.27.94,1.39,1.07,4.35,0,4.55-1.75C85,27.2,86,23.11,86.61,19A13.53,13.53,0,0,0,87.05,15c-.24-1.68-1.53-2.19-2.84-1.13a7.63,7.63,0,0,0-1.69,2.17C80.21,20,79.72,24.3,79.68,28.72Z"/><path class="cls-3" d="M125.14,206.72c.19,5.6-2.92,10-8.81,12.17-6.1,2.2-12.49,2.63-18.91,2.87-6.83.25-13.59-.85-20.41-.82-5.08,0-10.16,0-15.24,0-4.29,0-8.14-1.57-11.76-3.67-2.74-1.59-3.74-4.35-3.93-7.34-.43-6.8-.69-13.6-1.11-20.4a103.13,103.13,0,0,1,.07-15.4c.3-3.43,1.29-4.6,4.67-4.94a251.33,251.33,0,0,1,31.46-1.28c1.38,0,2.76.24,4.14.37a2.32,2.32,0,0,0,1.65.31c3.56,0,7.12,0,10.68,0,.83,0,1.73.25,2.51-.29,6.89-.56,13.79-1.1,20.68-1.7,2.6-.23,2.59-.3,2.78,2.3.59,8,1.48,16,1.24,24,0,2.92,0,5.84,0,8.75C124.93,203.33,124.56,205.05,125.14,206.72Zm-8-20.36c0-3.5.28-7-.27-10.48,0-.81,0-1.62,0-2.43-.05-2.14-.86-2.86-2.92-2.47-1.53.28-3,.68-4.55,1.07-4,1-4,1.06-4,5.12a101.3,101.3,0,0,0,.36,11.42c.26,2.19.81,2.83,3,3.08a20.9,20.9,0,0,0,6.67-.74,2.13,2.13,0,0,0,1.68-2C117.19,188.1,117.15,187.22,117.18,186.36ZM84.75,218.15a48.32,48.32,0,0,0,10.74-1.55,7.48,7.48,0,0,0,6.06-6.37c.79-4.31-.71-8.34-2.92-11.82-4.05-6.38-9.68-8.48-18.09-6-5.07,1.5-8.42,4.6-9.71,9.81a57.77,57.77,0,0,0-1.4,8.36,4.68,4.68,0,0,0,3,5.15C76.54,217.61,81,217.68,84.75,218.15ZM94.25,179c.27-2.15-.87-3.72-2.93-4.75q-1.54-.78-3.07-1.58c-.79-.41-1.75-.63-1.62-1.91a.78.78,0,0,0-1.11-.74c-1.58.55-3.78-.13-4.47,2.3-.2.71-1.12.95-1.8,1.26a10.89,10.89,0,0,0-3,2,5.68,5.68,0,0,0,1.17,9.22,14.72,14.72,0,0,0,2.05.91,4.72,4.72,0,0,1,2.64,2c1.09,1.77,2.66,1.92,4.43.8,1.22-.77,2.46-1.5,3.74-2.16C93.15,184.83,94.28,182.37,94.25,179Zm-44,35.09a5.11,5.11,0,0,0-.71-2.22,1,1,0,0,0-1.41-.58c-.73.38-.34,1-.06,1.48A2.17,2.17,0,0,0,50.25,214.08Zm1-6.49c-.48.45-1,.89-.92,1.56s.45,1.32,1.15,1.24a.94.94,0,0,0,.73-1.31C52,208.55,51.93,207.85,51.22,207.59Z"/><path class="cls-4" d="M66.43,36c6.28-.6,12.59.07,18.86-.3,5.11-.3,10.22-.65,15.34-.67,1.86,0,3.65.45,5.5.42a2.37,2.37,0,0,1,2,1.23,7.57,7.57,0,0,1-.15,7.08,4.11,4.11,0,0,1-3.09,1.66c-3.59.41-7.19.74-10.79,1.09-4.62.45-9.24.94-13.87,1.34-3.55.31-7.11.44-10.66.75-4.34.38-8.66,1-13,1.27-4.07.29-8.11,1-12.21.79A4.59,4.59,0,0,1,40.24,47c-.52-2.76.6-5.52,2.86-6.25,5.45-1.74,10.77-4,16.67-4A58.57,58.57,0,0,0,66.43,36Z"/><path class="cls-5" d="M82.2,223.37c8.06,1.26,16.14.53,24.18,0,6.15-.44,12.14-1.76,16.76-6.53.9,4.43-1.58,8.36-5.8,9.09-9.66,1.69-19.33,3.59-29.2,2.93-6.29-.42-12.66.54-18.84-.69-3.84-.77-7.61.32-11.34-.48-2.19-.47-4.36-1.1-6.51-1.72-3.29-.95-3.81-3.64-4.07-6.81,1.89.7,3.63,1.36,5.38,2,3.24,1.18,6.38,2.78,10,2.26Z"/><path class="cls-1" d="M57.08,269a53.86,53.86,0,0,1-3.66-9.54c-2.76-9.28-3.67-18.83-4-28.46-.09-2.86-.1-2.75,2.66-2.21,1.77.35,2.09,1.44,2.26,2.93q1.71,14.94,2.24,30C56.7,264,56.9,266.23,57.08,269Z"/><path class="cls-5" d="M61,19.34c.09-1.71-.25-4.21.34-6.66a9.44,9.44,0,0,1,1.18-2.86c1.05-1.67,1.44-1.68,2.71-.08,1.4,1.78,1.51,3.95,1.84,6,.81,5.12,1.81,10.23,1.7,15.45-.05,2.29-.25,2.59-2.49,2.86-4.41.53-3.45.72-4.41-3.15A45.37,45.37,0,0,1,61,19.34Z"/><path class="cls-5" d="M75.1,6.32a29.6,29.6,0,0,1,1.51,7.3c.64,5.25.17,10.49,0,15.73,0,.12,0,.23,0,.35-.08,3.89-.08,3.85-3.95,3.76-.95,0-1.38-.32-1.41-1.24-.23-6.68-1.11-13.34-.84-20C70.54,9.12,72.77,7.75,75.1,6.32Z"/><path class="cls-5" d="M79.68,28.72c0-4.42.54-8.74,2.84-12.65a7.63,7.63,0,0,1,1.69-2.17c1.31-1.06,2.6-.55,2.84,1.13A13.53,13.53,0,0,1,86.61,19C86,23.11,85,27.2,84.5,31.37c-.2,1.73-3.16,2.81-4.55,1.75-.33-.26-.27-.61-.27-.94C79.67,31,79.68,29.88,79.68,28.72Z"/><path class="cls-6" d="M82.2,223.37H62.77c.43-.41,1-.31,1.48-.31q8.23,0,16.47,0A2,2,0,0,1,82.2,223.37Z"/><path class="cls-6" d="M100.16,168.29c-.78.54-1.68.28-2.51.29-3.56.06-7.12,0-10.68,0a2.32,2.32,0,0,1-1.65-.31Z"/><path class="cls-7" d="M84.75,218.15c-3.73-.47-8.22-.54-12.35-2.43a4.68,4.68,0,0,1-3-5.15,57.77,57.77,0,0,1,1.4-8.36c1.28-5.21,4.64-8.31,9.71-9.81,8.41-2.49,14-.39,18.09,6,2.21,3.48,3.7,7.52,2.92,11.82a7.48,7.48,0,0,1-6.06,6.37A48.32,48.32,0,0,1,84.75,218.15Zm-1.24-2a46.51,46.51,0,0,0,12.9-2.07c1.92-.53,3.3-2.43,2.84-3.76a8,8,0,0,0-3.34-4.68A19.24,19.24,0,0,0,82.84,203c-3.76.61-7.24,1.88-9.83,4.9-2.27,2.65-1.82,4.81,1.44,6.19A23.76,23.76,0,0,0,83.51,216.13Zm-11-10.89C81,199.09,89.6,199.69,98.32,204A10.32,10.32,0,0,0,94,196.32c-4.68-3.31-13.11-3.19-17.67.27C73.56,198.67,72.44,201.49,72.48,205.24Z"/><path class="cls-7" d="M94.25,179c0,3.38-1.1,5.84-4,7.32-1.28.65-2.52,1.39-3.74,2.16-1.77,1.12-3.34,1-4.43-.8a4.72,4.72,0,0,0-2.64-2,14.72,14.72,0,0,1-2.05-.91,5.68,5.68,0,0,1-1.17-9.22,10.89,10.89,0,0,1,3-2c.68-.31,1.59-.55,1.8-1.26.69-2.43,2.89-1.75,4.47-2.3a.78.78,0,0,1,1.11.74c-.12,1.28.83,1.49,1.62,1.91q1.53.8,3.07,1.58C93.38,175.28,94.52,176.84,94.25,179Zm-12.32,3.74L81.2,176c-.05-.47-.07-.85-.78-.78a4.55,4.55,0,0,0-4.13,4.15,4.29,4.29,0,0,0,4.11,4.44C81.49,183.91,82.3,183.78,81.93,182.73Zm5.8-5h0c.13,2,.32,3.91.38,5.86,0,1.06.42,1.16,1.27.79a5,5,0,0,0,3.18-4.55,4.36,4.36,0,0,0-2.6-4.48c-.67-.32-1.48-.76-2.14-.37s0,1.24-.11,1.88A3.78,3.78,0,0,0,87.74,177.68Zm-1.42,4.53a27.94,27.94,0,0,0-1.8-9c-.1-.3-.16-.78-.59-.7a1.74,1.74,0,0,0-.8.59c-.45.48-.27,1.09-.24,1.65.11,2,.26,4,.41,6,.1,1.38.2,2.75.33,4.13.08.77.41,1.72,1.11,1.75s1.15-.77,1.26-1.62A14.39,14.39,0,0,0,86.32,182.21Z"/><path class="cls-2" d="M117.18,186.36c0,.86,0,1.74-.09,2.59a2.13,2.13,0,0,1-1.68,2,20.9,20.9,0,0,1-6.67.74c-2.19-.25-2.74-.89-3-3.08a101.3,101.3,0,0,1-.36-11.42c0-4.07,0-4.08,4-5.12,1.51-.39,3-.79,4.55-1.07,2.07-.39,2.87.33,2.92,2.47,0,.81,0,1.62,0,2.43C116.9,179.37,116.64,182.88,117.18,186.36Zm-9.63-4.16a29.26,29.26,0,0,0,.32,5.46c.18,1.72,1.11,2.7,2.54,2.74a4.14,4.14,0,0,0,4-3.77c.15-3.16.28-6.32.35-9.47.1-4.39.41-4.39-4.39-3.32a2.78,2.78,0,0,0-2.45,2.34A24.55,24.55,0,0,0,107.55,182.2Z"/><path class="cls-7" d="M50.25,214.08a2.17,2.17,0,0,1-2.17-1.33c-.28-.51-.67-1.1.06-1.48a1,1,0,0,1,1.41.58A5.11,5.11,0,0,1,50.25,214.08Z"/><path class="cls-2" d="M51.22,207.59c.71.25.74,1,1,1.49a.94.94,0,0,1-.73,1.31c-.7.08-1.07-.61-1.15-1.24S50.73,208,51.22,207.59Z"/><path class="cls-8" d="M83.51,216.13a23.76,23.76,0,0,1-9.07-2c-3.26-1.38-3.71-3.54-1.44-6.19,2.6-3,6.07-4.29,9.83-4.9a19.24,19.24,0,0,1,13.07,2.63,8,8,0,0,1,3.34,4.68c.46,1.33-.92,3.23-2.84,3.76A46.51,46.51,0,0,1,83.51,216.13Z"/><path class="cls-5" d="M72.48,205.24c0-3.75,1.08-6.57,3.81-8.64,4.55-3.47,13-3.58,17.67-.27A10.32,10.32,0,0,1,98.32,204C89.6,199.69,81,199.09,72.48,205.24Z"/><path class="cls-9" d="M81.93,182.73c.37,1.06-.45,1.18-1.54,1.11a4.29,4.29,0,0,1-4.11-4.44,4.55,4.55,0,0,1,4.13-4.15c.71-.07.73.31.78.78Z"/><path class="cls-9" d="M87.74,177.68a3.78,3.78,0,0,1,0-.86c.11-.64-.59-1.47.11-1.88s1.46.05,2.14.37a4.36,4.36,0,0,1,2.6,4.48,5,5,0,0,1-3.18,4.55c-.85.36-1.24.27-1.27-.79-.06-2-.24-3.91-.38-5.86Z"/><path class="cls-9" d="M86.32,182.21A14.39,14.39,0,0,1,86,185c-.11.85-.63,1.64-1.26,1.62s-1-1-1.11-1.75c-.13-1.37-.23-2.75-.33-4.13-.15-2-.3-4-.41-6,0-.55-.21-1.17.24-1.65a1.74,1.74,0,0,1,.8-.59c.43-.08.49.41.59.7A27.94,27.94,0,0,1,86.32,182.21Z"/><path class="cls-10" d="M107.55,182.2a24.55,24.55,0,0,1,.37-6,2.78,2.78,0,0,1,2.45-2.34c4.8-1.07,4.49-1.06,4.39,3.32-.07,3.16-.2,6.32-.35,9.47a4.14,4.14,0,0,1-4,3.77c-1.43,0-2.36-1-2.54-2.74A29.26,29.26,0,0,1,107.55,182.2Z"/><path class="cls-11" d="M13.79,118.23c.9-18.59,3.87-35.93,13.34-51.59,3-4.93,6.42-9.43,11.23-12.76a7.78,7.78,0,0,1,4.29-1.5c5.76-.26,11.51-.7,17.26-1.09L78.38,50c7.48-.51,14.94-1.14,22.39-2,1.2-.14,2.41-.33,3.61-.36a5.93,5.93,0,0,0,3.23-1c1.28-.84,2.67-.47,4,0a45.11,45.11,0,0,1,15,9.05c3.64,3.37,7.18,6.87,10.7,10.36A31.92,31.92,0,0,1,146,82.87c1.19,5.8,2.77,11.53,3.69,17.37A55.13,55.13,0,0,1,149,119.3c-2.53,13.13-8.75,24.51-16.47,35.19a48.6,48.6,0,0,1-4.47,5.93,12.87,12.87,0,0,1-8.11,4.15c-7.23.7-14.46,1.68-21.73,1.47-8.3-.23-16.6-.77-24.91-.56-5.53.14-11.06.33-16.58.9a19.61,19.61,0,0,1-14.33-3.83C38.19,159.4,34.17,156,29.86,153a24.24,24.24,0,0,1-6.95-7.64c-4.07-6.92-7.56-14.09-8.76-22.14C13.87,121.35,13.87,119.43,13.79,118.23Zm73.75,32.12,1.37,1.81a21.27,21.27,0,0,0,14.7,8.49c10.11,1.24,17.85-4.36,20.28-14.31,1.78-7.28-.15-13.32-6.21-17.68-4.82-3.47-10.5-4.14-16.31-3.89a6.35,6.35,0,0,0-3.47,1.36c-4.16,3-8.16,6.1-9.78,11.28-.15-.1-.21-.12-.23-.16-.16-.3-.29-.62-.48-.91-4.3-6.45-9.21-12.12-17.75-12.39-6.76-.21-12.43,2.27-16.4,7.88-3.39,4.78-3.19,10.35-2.32,15.69,1.13,6.87,5.92,10.81,12.32,12.9,8.56,2.8,16.06.83,21.06-5.51C85.4,153.52,86.36,152,87.54,150.34ZM67.95,95.63a36.06,36.06,0,0,0,2.3-6A14.38,14.38,0,0,0,69.51,79C68.17,76.13,66,74,63.68,71.83c-3.34-3.13-7.38-4.11-11.82-3.68s-7.65,3.31-10.89,6c-2.83,2.31-5.33,5-6.58,8.53-2,5.61,1.1,14.72,6.61,18.64,5.31,3.76,11.29,3.87,17.38,2.26,2.81-.74,5.17-2.38,7.79-4.34-.38,1.4-.68,2.38-.9,3.37-.4,1.73-1,3.45-.64,5.28A30.26,30.26,0,0,0,68.34,118a12,12,0,0,0,8.17,6.13c8,1.7,14.28-1.45,19.63-7.09a5,5,0,0,0,1-2,33.24,33.24,0,0,0,1.71-12.25c-.29-4.53-1.89-8.2-6.17-10.46A20.84,20.84,0,0,0,69.61,95C69.2,95.36,68.91,96,67.95,95.63ZM38,138.46a14.71,14.71,0,0,0,2.75-.23c10.15-2.38,15.51-10.36,13.74-20.56-.5-2.85-1.26-5.56-3.51-7.7-3.27-3.11-6.76-5.37-11.55-4.5a6.27,6.27,0,0,1-1.56,0,19.13,19.13,0,0,0-11.48,3.1c-7.08,4.26-9.3,13.63-4.54,20.06a28.06,28.06,0,0,0,10.94,8.78A10.69,10.69,0,0,0,38,138.46Zm99.15-33.25c0-5.45-1.4-8.55-5.56-12a7.49,7.49,0,0,0-5.2-1.94c-3.46.11-6.9.5-10.35.62-8.39.29-16.3,10.86-14.81,18.7,1.13,6,5.13,11.38,10.56,12.87a23.15,23.15,0,0,0,12.63-.1C132.13,121.13,137.08,114.05,137.12,105.21Z"/><polyline class="cls-11" points="41.58 61 19.3 106.35 18.32 124.59 27.58 142.8 50.37 161.66 119.94 164.57 139.61 121.88 141.3 81.45"/></svg>