<svg id="圖層_1" data-name="圖層 1" xmlns="http://www.w3.org/2000/svg" viewBox="0 0 218.96 243.7"><defs><style>.cls-1{fill:none;stroke:#fff;stroke-miterlimit:10;stroke-width:5px;}.cls-2{fill:#0b0808;}.cls-10,.cls-11,.cls-12,.cls-13,.cls-14,.cls-15,.cls-16,.cls-2,.cls-3,.cls-4,.cls-5,.cls-6,.cls-7,.cls-8,.cls-9{fill-rule:evenodd;}.cls-3{fill:#b7ccdf;}.cls-4{fill:#c13326;}.cls-5{fill:#202222;}.cls-6{fill:#c03327;}.cls-7{fill:#cfaf43;}.cls-8{fill:#925843;}.cls-9{fill:#0e0d0d;}.cls-10{fill:#fefefe;}.cls-11{fill:#338bac;}.cls-12{fill:#53963d;}.cls-13{fill:#c26f27;}.cls-14{fill:#c46e8f;}.cls-15{fill:#f6f6f7;}.cls-16{fill:#3885a3;}</style></defs><title>graphic</title><polygon class="cls-1" points="194.3 25.52 196.4 227.24 18.06 124.56 194.3 25.52"/><path class="cls-2" d="M131.43,38.45a9.37,9.37,0,0,1,2.41-2.29c1.81-1.37,3.5-.79,4.11,1.42a17.08,17.08,0,0,1,.36,3.36c.05.67.05,1.35.08,2,.42,0,.41-.31.5-.54a3.84,3.84,0,0,1,3.31-2.2,2.86,2.86,0,0,1,2.35,2.18,6,6,0,0,1,.26,3.44,36.11,36.11,0,0,1-2.5,7.35c-.76,1.69-.73,1.74,1.09,1.81,2.56.1,5.12.06,7.67.21a8,8,0,0,1,5.26,2.07,4.46,4.46,0,0,1,1.06,5.1,1.34,1.34,0,0,0,.75,1.92,43,43,0,0,1,15.06,14c2.57,3.79,4.66,7.77,5.26,12.37.41,3.13.68,6.28.9,9.43.66,9.46-1.81,18.18-6.55,26.28a53.11,53.11,0,0,1-8.06,11c-1.81,1.81-3.66,3.59-5.52,5.36a1.89,1.89,0,0,0-.64,1.27c-.26,3-.33,5.94-.5,8.91-.29,5,.15,10.05-.82,15-.89,4.53-1.68,9.11-3.94,13.24a13.79,13.79,0,0,0-1.25,4.31c-.66,3.7-1.4,7.39-2,11.11-.53,3.27-1.23,6.51-2,9.73-.53,2.22-.77,4.54-2.14,6.49-.35.5-.68.94-1.35.77s-.66-.73-.75-1.26a32.67,32.67,0,0,1-.19-6.53c.23-6.1.48-12.19.93-18.28a4.43,4.43,0,0,0,0-.68c-.21-2.59-.21-2.57-2.83-2.4a20.72,20.72,0,0,1-2.71,0c-4.4-.29-8.84-.28-13.18-1.12s-9-1.58-13.52-2a11.8,11.8,0,0,1-1.46-.14c-1.06-.24-1.34.25-1.28,1.2.19,3,.35,6,.56,9a11.19,11.19,0,0,1-.08,1.92c-.27,2.67-.53,5.33-.83,8a33.45,33.45,0,0,0-.27,5.3,2.79,2.79,0,0,1-1.72,2.69,1.07,1.07,0,0,1-1.7-.69c-.64-2.26-2-4.28-2.45-6.56-.75-3.66-1.69-7.3-1.24-11.15a110.8,110.8,0,0,0,.44-11.84,22.19,22.19,0,0,0-.45-5c-1-4.2-.55-8.38-.56-12.57a84.22,84.22,0,0,1,.61-11.84c.48-3.44,1.14-6.85,3.24-9.76.44-.61,0-.88-.35-1.19-2.14-1.73-4.22-3.54-6.43-5.18-6-4.43-8.93-10.64-10.6-17.63a29,29,0,0,1-1.21-5.51,48.22,48.22,0,0,1,.69-9.55A85.31,85.31,0,0,1,90.89,87c1.81-5.34,5-10,8-14.64a25,25,0,0,1,5.86-6.68,26,26,0,0,1,3.32-2.14,1.65,1.65,0,0,0,.92-1.86,10,10,0,0,1,.66-4.54,2.7,2.7,0,0,1,1.75-1.51,24.7,24.7,0,0,1,10-1.77c2.53.16,2.55,0,2.44-2.49s.05-5,.2-7.45a14.9,14.9,0,0,1,.77-4.64,8.62,8.62,0,0,1,2.67-3.59c1.13-.92,1.69-.83,2.49.35.25.37.48.77.7,1.16S131.18,38,131.43,38.45ZM113.37,176.92c-2.39.09-4.32-1.16-6.35-2.14l-3.36-1.66c0,2.07.11,3.86,2.19,4.7,1.36.55,2.72,1.1,4.12,1.56,2.37.77,4.89.32,7.33,1.07,3.93,1.22,8.13,1,12.19,1.71,6.37,1.09,12.78.51,19.17.06A4.79,4.79,0,0,0,153,176.7c-3.32,2.79-7.31,3.24-11.33,3.12-5.27-.16-10.56-.24-15.72-1.59a1.3,1.3,0,0,0-.94-.31l-10.7-1.1A1.25,1.25,0,0,0,113.37,176.92Zm42.38-15.64a151.76,151.76,0,0,0,.81-15.68c0-1.7.05-1.66-1.65-1.68-4.52-.07-9-.18-13.55-.28l-9.64-1c-.89-.17-1.77-.4-2.66-.52a164.16,164.16,0,0,0-20.53-1.28c-2.22,0-2.94.69-3.36,2.9a67.36,67.36,0,0,0-1.08,10c-.19,4.44-.47,8.88-.65,13.33a5.55,5.55,0,0,0,2.06,5,15.27,15.27,0,0,0,7.39,3.18c3.3.35,6.6.68,9.9,1,4.43.44,8.75,1.6,13.21,1.9,4.19.28,8.37.43,12.48-.59s6.29-3.66,6.54-7.31c.23-2.23.48-4.46.68-6.69A5,5,0,0,0,155.76,161.28Zm-67.42-56c0,.79-.16,2-.1,3.27.24,5.31,2,10.21,4.21,15a15.84,15.84,0,0,0,4,5.43c2.6,2.25,5,4.71,7.49,7a12.81,12.81,0,0,0,9.05,3.45c3.62,0,7.23.25,10.83.53,5.42.42,10.77,1.33,16.15,2a115.21,115.21,0,0,0,14.22.5,8.41,8.41,0,0,0,5.55-2.15,31.75,31.75,0,0,0,3.31-3.56c5.73-6.42,10.54-13.4,13.06-21.76a36,36,0,0,0,1.76-12.33c-.21-3.86-.85-7.69-1.23-11.53a20.85,20.85,0,0,0-4.55-11.47c-2.06-2.51-4.12-5-6.26-7.45a29.47,29.47,0,0,0-9.14-6.89,2.76,2.76,0,0,0-2.59-.29,3.88,3.88,0,0,1-2.16.43c-.79-.06-1.58,0-2.37,0-4.9,0-9.79,0-14.68-.21L122.8,64.9c-3.76-.13-7.53-.24-11.29-.45a5.08,5.08,0,0,0-2.89.68,26.22,26.22,0,0,0-8.15,7.54C93.27,82.2,90.17,93.27,88.34,105.29Zm40-49.85a38.26,38.26,0,0,1-4.38,0c-3.83-.39-7.44.74-11.1,1.5-1.51.32-2.42,2-2.28,3.87A3,3,0,0,0,113,63.49a63.84,63.84,0,0,0,8,.31c2.84.09,5.69,0,8.54,0,2.32,0,4.65.19,7,.23,3,.05,6.07,0,9.1.06,2.36,0,4.72,0,7.08,0a2.68,2.68,0,0,0,2.12-.87,4.94,4.94,0,0,0,.57-4.59,1.55,1.55,0,0,0-1.21-.93c-1.2-.1-2.34-.52-3.55-.64-3.33-.33-6.67-.45-10-.59C136.5,56.33,132.45,55.47,128.33,55.44ZM106.62,206.18c.07-1.81.09-3.3.19-4.78q.68-9.8.56-19.62c0-1-.14-1.71-1.27-2.06-1.76-.54-1.74-.61-1.87,1.26a72.45,72.45,0,0,0,.66,18.76A35.18,35.18,0,0,0,106.62,206.18ZM125.9,44.24a29.63,29.63,0,0,0-.22,7.6c.36,2.58-.25,2.39,2.65,2.34,1.47,0,1.63-.2,1.81-1.69a56.65,56.65,0,0,0-.07-10.16c-.07-1.39,0-2.8-.79-4.05s-1-1.15-1.76-.13a6.16,6.16,0,0,0-1,1.78A20.91,20.91,0,0,0,125.9,44.24ZM136,36.72c-1.61.77-3.15,1.51-3.44,3.48-.63,4.34-.5,8.72-.8,13.08,0,.6.22.82.83.9,2.51.32,2.5.34,2.82-2.18,0-.08,0-.15,0-.22a66.83,66.83,0,0,0,1.05-10.22A19.34,19.34,0,0,0,136,36.72Zm14.87,148.19c.17-1.3.17-1.29-1.18-1.1a17.44,17.44,0,0,1-2.23.28c-1,0-1.18.52-1.16,1.41a96.38,96.38,0,0,1-.31,13.53,39.08,39.08,0,0,0-.17,8.11c0,.25-.1.61.26.66s.36-.39.41-.64c.38-1.88.74-3.76,1.11-5.65ZM137.42,51.59c-.08.75-.16,1.5-.23,2.25,0,.22-.09.44.11.63.83.79,2.82.28,3.07-.83.6-2.68,1.52-5.27,2.2-7.92a8.84,8.84,0,0,0,.55-2.53c0-1.11-.85-1.53-1.77-.92a5,5,0,0,0-1.24,1.29A16.05,16.05,0,0,0,137.42,51.59Z"/><path class="cls-3" d="M88.34,105.29c1.83-12,4.93-23.09,12.13-32.62a26.22,26.22,0,0,1,8.15-7.54,5.08,5.08,0,0,1,2.89-.68c3.76.22,7.52.32,11.29.45l12.08.41c4.89.17,9.79.26,14.68.21.79,0,1.58,0,2.37,0a3.88,3.88,0,0,0,2.16-.43,2.76,2.76,0,0,1,2.59.29,29.47,29.47,0,0,1,9.14,6.89c2.14,2.44,4.2,4.94,6.26,7.45a20.85,20.85,0,0,1,4.55,11.47c.38,3.85,1,7.68,1.23,11.53a36,36,0,0,1-1.76,12.33c-2.52,8.36-7.33,15.34-13.06,21.76a31.75,31.75,0,0,1-3.31,3.56,8.41,8.41,0,0,1-5.55,2.15A115.21,115.21,0,0,1,140,142c-5.38-.71-10.73-1.61-16.15-2-3.6-.28-7.21-.53-10.83-.53a12.81,12.81,0,0,1-9.05-3.45c-2.51-2.33-4.9-4.8-7.49-7a15.84,15.84,0,0,1-4-5.43c-2.18-4.77-4-9.66-4.21-15C88.19,107.32,88.31,106.08,88.34,105.29Zm45.76,25.82.77,1.27a13.89,13.89,0,0,0,9,6.5c6.48,1.49,11.89-1.64,14.13-7.94,1.64-4.61.8-8.66-2.85-11.91-2.9-2.58-6.54-3.4-10.34-3.62a4.15,4.15,0,0,0-2.35.65c-2.9,1.66-5.71,3.41-7.11,6.68-.09-.08-.13-.09-.14-.12-.09-.21-.15-.43-.25-.62-2.36-4.48-5.17-8.5-10.7-9.24a12,12,0,0,0-11.19,4c-2.52,2.88-2.77,6.51-2.56,10,.27,4.54,3.12,7.42,7.14,9.21,5.37,2.4,10.38,1.62,14.05-2.16C132.5,133,133.22,132.11,134.1,131.11ZM125,94.24a23.55,23.55,0,0,0,1.9-3.73,9.4,9.4,0,0,0,.23-6.93,15.62,15.62,0,0,0-3.31-5.08,9.42,9.42,0,0,0-7.43-3.19c-2.93,0-5.19,1.64-7.48,3.14a12.81,12.81,0,0,0-4.84,5.1c-1.66,3.51-.28,9.64,3,12.55s7.07,3.27,11.14,2.64a15.08,15.08,0,0,0,5.35-2.3c-.34.88-.6,1.5-.81,2.13a8.68,8.68,0,0,0-.77,3.39,19.76,19.76,0,0,0,1.73,6.84,7.86,7.86,0,0,0,4.89,4.53c5.1,1.65,9.38,0,13.23-3.29a3.25,3.25,0,0,0,.81-1.2,21.71,21.71,0,0,0,1.93-7.85c.12-3-.68-5.45-3.31-7.21a13.61,13.61,0,0,0-15.19.16C125.88,94.15,125.64,94.52,125,94.24Zm-22.35,25.82a9.61,9.61,0,0,0,1.8,0c6.75-.87,10.78-5.69,10.31-12.44a8.47,8.47,0,0,0-1.76-5.24c-1.91-2.24-4-3.94-7.2-3.7a4.1,4.1,0,0,1-1-.1,12.5,12.5,0,0,0-7.66,1.24c-4.89,2.3-7,8.23-4.29,12.73A18.33,18.33,0,0,0,99.39,119,7,7,0,0,0,102.69,120.06Zm66.65-14.95a8.86,8.86,0,0,0-2.8-8.2,4.89,4.89,0,0,0-3.25-1.61c-2.25-.16-4.52-.14-6.76-.29-5.47-.37-11.32,6-10.88,11.16.33,4,2.57,7.74,6,9.07a15.12,15.12,0,0,0,8.21.78C165,115.12,168.73,110.85,169.35,105.11Z"/><path class="cls-4" d="M155,170.28c-.25,3.65-2.57,6.33-6.54,7.31s-8.29.87-12.48.59c-4.45-.3-8.78-1.46-13.21-1.9-3.3-.33-6.6-.65-9.9-1a15.27,15.27,0,0,1-7.39-3.18,5.55,5.55,0,0,1-2.06-5c.18-4.44.46-8.88.65-13.33a67.36,67.36,0,0,1,1.08-10c.43-2.21,1.15-2.9,3.36-2.9a164.16,164.16,0,0,1,20.53,1.28c.9.11,1.78.34,2.66.52a1.51,1.51,0,0,0,1.05.31c2.31.25,4.63.5,6.94.7.54,0,1.11.28,1.65,0,4.52.1,9,.21,13.55.28,1.7,0,1.7,0,1.65,1.68a151.76,151.76,0,0,1-.81,15.68c-.19,1.9-.42,3.79-.56,5.69A10.54,10.54,0,0,0,155,170.28Zm-3.81-13.76a42.5,42.5,0,0,0,.53-6.83c0-.53.09-1.05.14-1.58.11-1.39-.36-1.91-1.73-1.8-1,.08-2,.24-3,.39-2.68.41-2.69.42-2.95,3.06a66.17,66.17,0,0,0-.53,7.45c0,1.44.34,1.9,1.74,2.2a13.65,13.65,0,0,0,4.38,0A1.39,1.39,0,0,0,151,158.2C151.1,157.65,151.13,157.08,151.21,156.52ZM128,175a31.56,31.56,0,0,0,7.08-.29,4.88,4.88,0,0,0,4.37-3.73,10.77,10.77,0,0,0-1.1-7.88c-2.21-4.42-5.72-6.16-11.35-5.11a8.47,8.47,0,0,0-7,5.72,37.73,37.73,0,0,0-1.47,5.33,3.06,3.06,0,0,0,1.58,3.54C122.7,174.09,125.61,174.44,128,175Zm8.8-24.8a3,3,0,0,0-1.58-3.28l-1.89-1.23c-.48-.32-1.09-.53-.93-1.35.08-.41-.32-.64-.67-.56-1.07.25-2.45-.34-3.06,1.2-.18.45-.79.54-1.25.7a7.11,7.11,0,0,0-2.11,1.06,3.71,3.71,0,0,0,.14,6.07,9.61,9.61,0,0,0,1.27.73,3.08,3.08,0,0,1,1.58,1.48c.59,1.22,1.6,1.43,2.82.82.84-.42,1.7-.81,2.57-1.15C135.7,153.91,136.6,152.39,136.8,150.2ZM105.86,170a3.34,3.34,0,0,0-.31-1.49.63.63,0,0,0-.87-.47c-.5.2-.28.61-.14,1A1.42,1.42,0,0,0,105.86,170Zm1.06-4.15c-.34.26-.72.51-.71,1s.21.89.67.88a.61.61,0,0,0,.56-.8C107.34,166.56,107.37,166.1,106.93,165.89Z"/><path class="cls-5" d="M128.33,55.44c4.12,0,8.17.89,12.27,1.07,3.34.15,6.68.26,10,.59,1.21.12,2.34.54,3.55.64a1.55,1.55,0,0,1,1.21.93,4.94,4.94,0,0,1-.57,4.59,2.68,2.68,0,0,1-2.12.87c-2.36,0-4.72,0-7.08,0-3,0-6.07,0-9.1-.06-2.33,0-4.65-.19-7-.23-2.85,0-5.69,0-8.54,0a63.84,63.84,0,0,1-8-.31,3,3,0,0,1-2.43-2.64c-.15-1.83.76-3.55,2.28-3.87,3.66-.77,7.27-1.89,11.1-1.5A38.26,38.26,0,0,0,128.33,55.44Z"/><path class="cls-6" d="M126,178.22c5.15,1.36,10.45,1.43,15.72,1.59,4,.12,8-.33,11.33-3.12a4.79,4.79,0,0,1-4.38,5.52c-6.39.45-12.8,1-19.17-.06-4.06-.7-8.26-.5-12.19-1.71-2.44-.76-5-.3-7.33-1.07-1.39-.45-2.76-1-4.12-1.56-2.07-.84-2.23-2.62-2.19-4.7l3.36,1.66c2,1,4,2.24,6.35,2.14Z"/><path class="cls-7" d="M106.62,206.18a35.18,35.18,0,0,1-1.74-6.44,72.45,72.45,0,0,1-.66-18.76c.14-1.86.12-1.79,1.87-1.26,1.13.35,1.26,1.08,1.27,2.06q.11,9.82-.56,19.62C106.7,202.88,106.69,204.37,106.62,206.18Z"/><path class="cls-6" d="M125.9,44.24a20.91,20.91,0,0,1,.67-4.3,6.16,6.16,0,0,1,1-1.78c.8-1,1.05-1,1.76.13s.71,2.67.79,4.05a56.65,56.65,0,0,1,.07,10.16c-.19,1.49-.34,1.67-1.81,1.69-2.9,0-2.29.23-2.65-2.34A29.63,29.63,0,0,1,125.9,44.24Z"/><path class="cls-6" d="M136,36.72a19.34,19.34,0,0,1,.49,4.84,66.83,66.83,0,0,1-1.05,10.22c0,.07,0,.15,0,.22-.31,2.52-.31,2.5-2.82,2.18-.61-.08-.87-.3-.83-.9.3-4.36.17-8.74.8-13.08C132.8,38.23,134.34,37.49,136,36.72Z"/><path class="cls-6" d="M137.42,51.59a16.05,16.05,0,0,1,2.69-8,5,5,0,0,1,1.24-1.29c.92-.6,1.73-.18,1.77.92a8.84,8.84,0,0,1-.55,2.53c-.68,2.65-1.6,5.24-2.2,7.92-.25,1.11-2.24,1.62-3.07.83-.2-.19-.13-.41-.11-.63C137.26,53.08,137.34,52.33,137.42,51.59Z"/><path class="cls-8" d="M126,178.22l-12.62-1.3a1.25,1.25,0,0,1,1-.1l10.7,1.1A1.3,1.3,0,0,1,126,178.22Z"/><path class="cls-8" d="M141.36,143.64c-.54.3-1.11.07-1.65,0-2.32-.2-4.63-.46-6.94-.7a1.51,1.51,0,0,1-1.05-.31Z"/><path class="cls-9" d="M134.1,131.11c-.87,1-1.6,1.92-2.41,2.75-3.68,3.78-8.68,4.56-14.05,2.16-4-1.79-6.87-4.67-7.14-9.21-.21-3.53,0-7.16,2.56-10a12,12,0,0,1,11.19-4c5.53.75,8.34,4.77,10.7,9.24.1.2.17.42.25.62,0,0,0,0,.14.12,1.4-3.26,4.21-5,7.11-6.68a4.15,4.15,0,0,1,2.35-.65c3.79.22,7.44,1,10.34,3.62,3.65,3.24,4.49,7.29,2.85,11.91-2.24,6.3-7.65,9.42-14.13,7.94a13.89,13.89,0,0,1-9-6.5ZM124,114.27a15.5,15.5,0,0,0-5.07.49,1.8,1.8,0,0,0-1.53,1.58,12.41,12.41,0,0,0,0,5.16c.91,4,3.56,6.71,6.57,9.18a10.87,10.87,0,0,0,5,2.31,2,2,0,0,0,2.13-.71,11.6,11.6,0,0,0,2.55-5.91c.56-5.49-3.49-9.2-7.89-11.67A4,4,0,0,0,124,114.27Zm17.71,16.92a22.3,22.3,0,0,0,8.18-1,9.89,9.89,0,0,0,6.35-6.42,1.51,1.51,0,0,0-.31-1.64,13.13,13.13,0,0,0-9.36-4.85,7.59,7.59,0,0,0-5.46,1.27,10.73,10.73,0,0,0-4.78,7.45c-.34,2.47.09,3.53,2.37,4.55A9.77,9.77,0,0,0,141.74,131.19Zm-13,3.13c-8-3.48-13.19-8.87-12.9-18.13-4.61,2.78-4.73,11-2.47,14.6S123.58,138.21,128.71,134.33Zm28.45-8.84c-.61.72-1,1.23-1.48,1.74a14.9,14.9,0,0,1-9.89,5.32,22.91,22.91,0,0,1-7.94-.73c-.21-.05-.44-.28-.62-.08s0,.5,0,.74a5.06,5.06,0,0,0,2.44,2.71A17.15,17.15,0,0,0,151,136.66a3.77,3.77,0,0,0,2.22-1.25c.65-.73,1.31-1.45,1.95-2.2A9.32,9.32,0,0,0,157.17,125.48Z"/><path class="cls-9" d="M125,94.24c.6.28.83-.09,1.12-.3a13.61,13.61,0,0,1,15.19-.16c2.63,1.76,3.43,4.25,3.31,7.21a21.71,21.71,0,0,1-1.93,7.85,3.25,3.25,0,0,1-.81,1.2c-3.86,3.31-8.13,4.94-13.23,3.29a7.86,7.86,0,0,1-4.89-4.53,19.76,19.76,0,0,1-1.73-6.84,8.68,8.68,0,0,1,.77-3.39c.21-.63.47-1.25.81-2.13a15.08,15.08,0,0,1-5.35,2.3c-4.07.64-7.95.16-11.14-2.64s-4.7-9-3-12.55a12.81,12.81,0,0,1,4.84-5.1c2.28-1.51,4.55-3.16,7.48-3.14a9.42,9.42,0,0,1,7.43,3.19,15.62,15.62,0,0,1,3.31,5.08,9.4,9.4,0,0,1-.23,6.93A23.55,23.55,0,0,1,125,94.24Zm18.17,7.8c.36-2.29.23-4.5-1.62-6.16-5-4.44-12.65-4.23-16.93,1.74a3.28,3.28,0,0,0-.65,3.28c1,2.45,2.53,4.52,5.2,5.47a33.56,33.56,0,0,0,5.47,1.33,9.87,9.87,0,0,0,6.24-1,3.54,3.54,0,0,0,2.09-2.76C143.11,103.31,143.15,102.67,143.22,102Zm-25-25.19c-4.67-.55-11.4,3.6-13,7.84a1.55,1.55,0,0,0,.49,1.92c.91.73,1.77,1.53,2.71,2.21,2.41,1.72,5,2.91,8.06,2.09.29-.08.59-.09.89-.14a12.14,12.14,0,0,0,7.29-3.48,3.13,3.13,0,0,0,.61-3.84,23.89,23.89,0,0,0-2.4-3.95A6.93,6.93,0,0,0,118.17,76.85ZM105.12,88a11.66,11.66,0,0,0,3.45,7.12,5.41,5.41,0,0,0,2.79,1.42,23.24,23.24,0,0,0,7.64.13,7.59,7.59,0,0,0,6-6.12c.11-1-.11-1.12-1-.71a34.33,34.33,0,0,1-7.2,2.6c-3.9.79-7.23-.07-9.87-3.16A4.9,4.9,0,0,0,105.12,88Zm18.66,15.71a2.67,2.67,0,0,0,.14,1.89,15.94,15.94,0,0,0,2.44,4.69,4.84,4.84,0,0,0,2.9,1.81,11.5,11.5,0,0,0,3.57.37,10.43,10.43,0,0,0,7.54-3.88C133.9,109.63,128.15,109,123.78,103.68Z"/><path class="cls-9" d="M102.69,120.06a7,7,0,0,1-3.31-1,18.33,18.33,0,0,1-6.52-6.44c-2.66-4.5-.59-10.43,4.29-12.73a12.5,12.5,0,0,1,7.66-1.24,4.1,4.1,0,0,0,1,.1c3.17-.24,5.28,1.46,7.2,3.7a8.47,8.47,0,0,1,1.76,5.24c.47,6.75-3.55,11.57-10.31,12.44A9.61,9.61,0,0,1,102.69,120.06Zm2.54-19.72c-3.07-.69-5.76-.21-8,2a13.78,13.78,0,0,0-3,4.35c-1.13,2.67-.13,4.59,2.65,5.23l.22,0a14.09,14.09,0,0,0,15-5.8,1.64,1.64,0,0,0,0-2.06C110.49,101.64,108.38,100,105.24,100.34Zm7.86,6.89c-.38.06-.49.32-.66.51a20.56,20.56,0,0,1-4.35,3.75c-3.66,2.32-7.61,2.58-11.73,1.69-.24-.05-.52-.27-.7.06s.14.47.32.63c1,.93,2,1.89,3.13,2.76a7.71,7.71,0,0,0,5,1.86,9,9,0,0,0,8.94-7.31A6.28,6.28,0,0,0,113.1,107.23Z"/><path class="cls-9" d="M128,175c-2.4-.55-5.3-.9-7.86-2.41a3.06,3.06,0,0,1-1.58-3.54,37.73,37.73,0,0,1,1.47-5.33,8.47,8.47,0,0,1,7-5.72c5.63-1.05,9.14.69,11.35,5.11a10.77,10.77,0,0,1,1.1,7.88,4.88,4.88,0,0,1-4.37,3.73A31.56,31.56,0,0,1,128,175Zm-.67-1.39a30.38,30.38,0,0,0,8.52-.48c1.28-.21,2.31-1.35,2.1-2.25a5.24,5.24,0,0,0-1.86-3.26,12.57,12.57,0,0,0-8.32-2.58,10.14,10.14,0,0,0-6.72,2.53c-1.65,1.57-1.5,3,.52,4.12A15.52,15.52,0,0,0,127.34,173.61Zm-6.44-7.82c6-3.42,11.49-2.46,16.87.92a6.74,6.74,0,0,0-2.32-5.27c-2.82-2.46-8.31-3-11.5-1A6.43,6.43,0,0,0,120.9,165.79Z"/><path class="cls-9" d="M136.8,150.2c-.21,2.2-1.11,3.72-3.1,4.49-.88.34-1.73.73-2.57,1.15-1.23.61-2.24.4-2.82-.82a3.08,3.08,0,0,0-1.58-1.48,9.61,9.61,0,0,1-1.27-.73,3.71,3.71,0,0,1-.14-6.07,7.11,7.11,0,0,1,2.11-1.06c.46-.16,1.07-.25,1.25-.7.61-1.53,2-.95,3.06-1.2.35-.08.76.14.67.56-.17.82.44,1,.93,1.35l1.89,1.23A3,3,0,0,1,136.8,150.2Zm-8.25,1.6c0-1.63,0-3,0-4.4,0-.31,0-.56-.46-.56a3,3,0,0,0-3,2.42,2.81,2.81,0,0,0,2.37,3.16C128.18,152.53,128.72,152.51,128.55,151.8Zm4.11-2.57h0c0,1-.05,2.4-.15,3.68-.05.69.2.7.77.52a3.33,3.33,0,0,0,2.37-2.78,2.87,2.87,0,0,0-1.39-3.11c-.42-.25-.91-.61-1.36-.4s-.08,1-.2,1.37C132.64,148.68,132.67,148.22,132.66,149.22Zm-1.22,2.53a18.25,18.25,0,0,0-.56-6c0-.2,0-.52-.33-.5a1.13,1.13,0,0,0-.56.33c-.33.28-.25.69-.26,1.06-.06,1.31-.1,2.63-.14,3.94,0,.9-.05,1.8-.06,2.7,0,.51.15,1.14.61,1.21s.8-.42.93-1A9.4,9.4,0,0,0,131.44,151.75Z"/><path class="cls-2" d="M151.21,156.52c-.07.56-.11,1.13-.23,1.68a1.39,1.39,0,0,1-1.23,1.18,13.65,13.65,0,0,1-4.38,0c-1.4-.31-1.72-.76-1.74-2.2a66.17,66.17,0,0,1,.53-7.45c.26-2.64.27-2.65,2.95-3.06,1-.15,2-.31,3-.39,1.37-.11,1.84.41,1.73,1.8,0,.53-.09,1.05-.14,1.58A44.4,44.4,0,0,0,151.21,156.52Zm-6-3.35a19.11,19.11,0,0,0-.16,3.57,1.72,1.72,0,0,0,1.47,1.95,2.7,2.7,0,0,0,2.85-2.18c.31-2,.6-4.08.86-6.13.36-2.84.56-2.83-2.63-2.45a1.81,1.81,0,0,0-1.75,1.35A16,16,0,0,0,145.23,153.17Z"/><path class="cls-9" d="M105.86,170a1.42,1.42,0,0,1-1.32-1c-.15-.35-.36-.76.14-1a.63.63,0,0,1,.87.47A3.34,3.34,0,0,1,105.86,170Z"/><path class="cls-2" d="M106.93,165.89c.44.21.42.67.52,1a.61.61,0,0,1-.56.8c-.46,0-.65-.47-.67-.88S106.58,166.15,106.93,165.89Z"/><path class="cls-10" d="M124,114.27a4,4,0,0,1,1.69.43c4.39,2.47,8.44,6.18,7.89,11.67a11.6,11.6,0,0,1-2.55,5.91,2,2,0,0,1-2.13.71,10.87,10.87,0,0,1-5-2.31c-3-2.47-5.66-5.2-6.57-9.18a12.41,12.41,0,0,1,0-5.16,1.8,1.8,0,0,1,1.53-1.58A15.5,15.5,0,0,1,124,114.27Z"/><path class="cls-10" d="M141.74,131.19a9.77,9.77,0,0,1-3-.69c-2.28-1-2.7-2.08-2.37-4.55a10.73,10.73,0,0,1,4.78-7.45,7.59,7.59,0,0,1,5.46-1.27,13.13,13.13,0,0,1,9.36,4.85,1.51,1.51,0,0,1,.31,1.64,9.89,9.89,0,0,1-6.35,6.42A22.3,22.3,0,0,1,141.74,131.19Z"/><path class="cls-11" d="M128.71,134.33c-5.13,3.88-13,.24-15.37-3.53s-2.14-11.82,2.47-14.6C115.52,125.46,120.7,130.85,128.71,134.33Z"/><path class="cls-12" d="M157.17,125.48a9.32,9.32,0,0,1-2,7.72c-.63.75-1.3,1.47-1.95,2.2a3.77,3.77,0,0,1-2.22,1.25,17.15,17.15,0,0,1-11.29-1.48,5.06,5.06,0,0,1-2.44-2.71c-.09-.24-.25-.52,0-.74s.41,0,.62.08a22.91,22.91,0,0,0,7.94.73,14.9,14.9,0,0,0,9.89-5.32C156.13,126.72,156.56,126.2,157.17,125.48Z"/><path class="cls-10" d="M118.17,76.85a6.93,6.93,0,0,1,4.66,2.66,23.89,23.89,0,0,1,2.4,3.95,3.13,3.13,0,0,1-.61,3.84,12.14,12.14,0,0,1-7.29,3.48c-.3.05-.6.06-.89.14-3.08.82-5.65-.37-8.06-2.09-.95-.68-1.8-1.48-2.71-2.21a1.55,1.55,0,0,1-.49-1.92C106.77,80.45,113.5,76.3,118.17,76.85Z"/><path class="cls-6" d="M105.12,88A4.9,4.9,0,0,1,107,89.25c2.64,3.09,6,4,9.87,3.16a34.33,34.33,0,0,0,7.2-2.6c.9-.4,1.11-.25,1,.71a7.59,7.59,0,0,1-6,6.12,23.24,23.24,0,0,1-7.64-.13,5.41,5.41,0,0,1-2.79-1.42A11.66,11.66,0,0,1,105.12,88Z"/><path class="cls-10" d="M143.22,102c-.07.64-.11,1.28-.2,1.91a3.54,3.54,0,0,1-2.09,2.76,9.87,9.87,0,0,1-6.24,1,33.56,33.56,0,0,1-5.47-1.33c-2.67-.94-4.16-3-5.2-5.47a3.28,3.28,0,0,1,.65-3.28c4.28-6,12-6.18,16.93-1.74C143.45,97.53,143.58,99.75,143.22,102Z"/><path class="cls-13" d="M123.78,103.68c4.37,5.31,10.12,5.94,16.59,4.88a10.43,10.43,0,0,1-7.54,3.88,11.5,11.5,0,0,1-3.57-.37,4.84,4.84,0,0,1-2.9-1.81,15.94,15.94,0,0,1-2.44-4.69A2.67,2.67,0,0,1,123.78,103.68Z"/><path class="cls-10" d="M105.24,100.34c3.14-.37,5.26,1.3,6.93,3.82a1.64,1.64,0,0,1,0,2.06,14.09,14.09,0,0,1-15,5.8l-.22,0c-2.78-.64-3.78-2.56-2.65-5.23a13.78,13.78,0,0,1,3-4.35C99.48,100.13,102.16,99.65,105.24,100.34Z"/><path class="cls-14" d="M113.1,107.23a6.28,6.28,0,0,1-.07,4,9,9,0,0,1-8.94,7.31,7.71,7.71,0,0,1-5-1.86C98,115.77,97,114.8,96,113.88c-.18-.16-.5-.3-.32-.63s.46-.11.7-.06c4.12.88,8.08.63,11.73-1.69a20.56,20.56,0,0,0,4.35-3.75C112.61,107.55,112.71,107.29,113.1,107.23Z"/><path class="cls-9" d="M169.35,105.11c-.62,5.74-4.31,10-9.49,10.91a15.12,15.12,0,0,1-8.21-.78c-3.42-1.33-5.66-5.11-6-9.07-.44-5.19,5.4-11.53,10.88-11.16,2.25.15,4.51.13,6.76.29a4.89,4.89,0,0,1,3.25,1.61A8.86,8.86,0,0,1,169.35,105.11Zm-8.53-8.65c-.37,0-.75-.1-1.13-.11-2.24-.07-2.7.22-3.63,2.25-2.26,4.94-1.48,9.59,1.32,14,1.12,1.78,2.49,2.13,4.46,1.32,2.81-1.17,4.38-3.47,5.55-6.1C169.79,102.47,166.66,97.06,160.82,96.46Zm-3.69,18.12c0-.12,0-.17,0-.19a1.53,1.53,0,0,0-.16-.29c-3.67-4.71-4.32-9.86-2.32-15.43.2-.57.87-1.38.38-1.71s-1.37.26-2,.6a.94.94,0,0,0-.18.14,33.48,33.48,0,0,0-4.43,4.51,5.54,5.54,0,0,0-1.19,4.12C147.81,111.83,151.4,114.45,157.13,114.58Z"/><path class="cls-10" d="M160.82,96.46c5.85.6,9,6,6.57,11.4-1.17,2.63-2.74,4.93-5.55,6.1-2,.82-3.34.46-4.46-1.32-2.8-4.45-3.59-9.1-1.32-14,.93-2,1.39-2.33,3.63-2.25C160.07,96.36,160.44,96.42,160.82,96.46Z"/><path class="cls-7" d="M157.13,114.58c-5.72-.14-9.32-2.75-9.92-8.26a5.54,5.54,0,0,1,1.19-4.12,33.48,33.48,0,0,1,4.43-4.51.94.94,0,0,1,.18-.14c.65-.34,1.44-1,2-.6s-.18,1.14-.38,1.71c-2,5.57-1.35,10.73,2.32,15.43a1.53,1.53,0,0,1,.16.29S157.13,114.46,157.13,114.58Z"/><path class="cls-10" d="M127.34,173.61a15.52,15.52,0,0,1-5.76-1.93c-2-1.11-2.17-2.55-.52-4.12a10.14,10.14,0,0,1,6.72-2.53,12.57,12.57,0,0,1,8.32,2.58,5.24,5.24,0,0,1,1.86,3.26c.21.9-.81,2-2.1,2.25A30.38,30.38,0,0,1,127.34,173.61Z"/><path class="cls-6" d="M120.9,165.79a6.43,6.43,0,0,1,3.05-5.36c3.19-1.95,8.68-1.46,11.5,1a6.74,6.74,0,0,1,2.32,5.27C132.39,163.33,126.88,162.37,120.9,165.79Z"/><path class="cls-15" d="M128.55,151.8c.17.71-.37.73-1.07.62a2.81,2.81,0,0,1-2.37-3.16,3,3,0,0,1,3-2.42c.47,0,.45.25.46.56C128.53,148.78,128.54,150.17,128.55,151.8Z"/><path class="cls-15" d="M132.66,149.22c0-1,0-.54,0-.72.12-.41-.29-1.07.2-1.29s.95.09,1.36.35a2.82,2.82,0,0,1,1.39,3.07,3.27,3.27,0,0,1-2.37,2.73c-.58.18-.82.24-.77-.45.09-1.27.1-2.68.15-3.68Z"/><path class="cls-15" d="M131.44,151.75a9.4,9.4,0,0,1-.38,1.8c-.13.55-.52,1-.93,1s-.61-.7-.61-1.21c0-.9,0-1.8.06-2.7,0-1.31.08-2.63.14-3.94,0-.36-.06-.77.26-1.06a1.13,1.13,0,0,1,.56-.33c.28,0,.29.3.33.5A18.25,18.25,0,0,1,131.44,151.75Z"/><path class="cls-16" d="M145.23,153.17a16,16,0,0,1,.65-3.9,1.81,1.81,0,0,1,1.75-1.35c3.19-.37,3-.39,2.63,2.45-.26,2-.56,4.09-.86,6.13a2.7,2.7,0,0,1-2.85,2.18,1.72,1.72,0,0,1-1.47-1.95A19.11,19.11,0,0,1,145.23,153.17Z"/></svg>