<svg id="圖層_1" data-name="圖層 1" xmlns="http://www.w3.org/2000/svg" viewBox="0 0 85.9 45.97"><defs><style>.cls-1{fill:#0e0d0d;}.cls-1,.cls-2,.cls-3,.cls-4{fill-rule:evenodd;}.cls-2{fill:#fdfefe;}.cls-3{fill:#328bac;}.cls-4{fill:#54953c;}</style></defs><title>graphic</title><path class="cls-1" d="M45.36,30.61c-1.17,1.67-2.13,3.17-3.24,4.57-5,6.34-12.5,8.31-21.06,5.51-6.4-2.09-11.19-6-12.32-12.9-.87-5.34-1.07-10.91,2.32-15.69C15,6.48,20.7,4,27.46,4.21c8.54.27,13.45,5.94,17.75,12.39.19.28.32.61.48.91,0,0,.08.06.23.16,1.63-5.19,5.62-8.3,9.78-11.28A6.35,6.35,0,0,1,59.18,5c5.81-.26,11.49.42,16.31,3.89,6.07,4.36,8,10.4,6.21,17.68C79.28,36.54,71.54,42.15,61.43,40.9a21.27,21.27,0,0,1-14.7-8.49Zm-18-24.05a23.73,23.73,0,0,0-7.65,1.55,2.75,2.75,0,0,0-2.07,2.65,19,19,0,0,0,.77,7.86c2,5.9,6.48,9.65,11.45,12.94a16.63,16.63,0,0,0,7.91,2.74,3.09,3.09,0,0,0,3.14-1.41,17.77,17.77,0,0,0,3-9.4C43.85,15,37.09,10,30,6.94A6.05,6.05,0,0,0,27.37,6.56ZM57,29.54a34.14,34.14,0,0,0,12.29-2.89A15.13,15.13,0,0,0,78,15.89a2.32,2.32,0,0,0-.74-2.45,20.1,20.1,0,0,0-15-5.91,11.63,11.63,0,0,0-8.12,2.79c-3.64,3.29-5.94,7-6.1,12.1-.12,3.81.69,5.37,4.32,6.55A15,15,0,0,0,57,29.54ZM37.66,36.36c-12.75-4-21.48-11.43-22.49-25.58-6.58,5-5.48,17.46-1.46,22.62C17.88,38.77,30.46,43.08,37.66,36.36ZM79.6,18.42c-.81,1.19-1.38,2-2,2.88A22.8,22.8,0,0,1,63.4,31a35.07,35.07,0,0,1-12.2.13c-.33,0-.71-.36-1,0s0,.77.19,1.12a7.75,7.75,0,0,0,4.15,3.74C60.31,38.26,66.14,38,72,36.41a5.77,5.77,0,0,0,3.18-2.26c.87-1.22,1.77-2.42,2.62-3.66C80.25,26.9,80.7,23,79.6,18.42Z"/><path class="cls-2" d="M27.37,6.56A6.05,6.05,0,0,1,30,6.94C37.09,10,43.85,15,43.86,23.48a17.77,17.77,0,0,1-3,9.4,3.09,3.09,0,0,1-3.14,1.41,16.63,16.63,0,0,1-7.91-2.74c-5-3.29-9.44-7-11.45-12.94a19,19,0,0,1-.77-7.86,2.75,2.75,0,0,1,2.07-2.65A23.73,23.73,0,0,1,27.37,6.56Z"/><path class="cls-2" d="M57,29.54A15,15,0,0,1,52.31,29c-3.63-1.19-4.45-2.74-4.32-6.55.16-5.06,2.46-8.81,6.1-12.1a11.63,11.63,0,0,1,8.12-2.79,20.1,20.1,0,0,1,15,5.91A2.32,2.32,0,0,1,78,15.89a15.13,15.13,0,0,1-8.67,10.77A34.14,34.14,0,0,1,57,29.54Z"/><path class="cls-3" d="M37.66,36.36c-7.2,6.72-19.78,2.41-24-3-4-5.16-5.12-17.66,1.46-22.62C16.18,24.94,24.91,32.33,37.66,36.36Z"/><path class="cls-4" d="M79.6,18.42c1.09,4.56.65,8.48-1.81,12.07-.84,1.24-1.74,2.44-2.62,3.66A5.77,5.77,0,0,1,72,36.41c-5.85,1.64-11.68,1.86-17.43-.48a7.75,7.75,0,0,1-4.15-3.74c-.18-.36-.46-.76-.19-1.12s.64,0,1,0A35.07,35.07,0,0,0,63.4,31,22.8,22.8,0,0,0,77.63,21.3C78.22,20.46,78.79,19.61,79.6,18.42Z"/></svg>