<svg id="圖層_1" data-name="圖層 1" xmlns="http://www.w3.org/2000/svg" viewBox="0 0 456 448.6"><defs><style>.cls-1{fill:#5c1d13;}</style></defs><title>graphic</title><path class="cls-1" d="M243.57,394.44c-3.26.54-6.32,1-9.38,1.56A87.08,87.08,0,0,1,219,397c-2.77,0-5.53.73-8.32.94-5.26.4-10.52.77-15.79,1a121.88,121.88,0,0,1-12.93,0c-3.28-.23-6.51-1.17-9.78-1.72a44.87,44.87,0,0,0-4.52-.5c-1.52-.1-1.77.31-1.21,1.77.51,1.3,1,2.63,1.53,3.9a22.29,22.29,0,0,1,1.84,8.95c.08,4.19.42,8.38.64,12.57a17.84,17.84,0,0,1,0,2,4.37,4.37,0,0,1-5.39,4.16,11.06,11.06,0,0,1-6.27-3.51c-1.33-1.49-2.67-3-4-4.51a5.52,5.52,0,0,1-.87-1.55c-1.51-3.9-3-7.82-4.49-11.72-1.83-4.73-3.77-9.41-5.53-14.16a12.58,12.58,0,0,0-7.06-7.53,117.66,117.66,0,0,1-23.42-13.93c-7.11-5.36-14.53-10.31-21.88-15.36a32.4,32.4,0,0,1-8.68-8.5c-4.82-7.11-9.76-14.14-14.55-21.28-1.37-2-2.36-4.33-3.57-6.59l-4.94,1.78a39.58,39.58,0,0,1-13,2.31c-4.55.07-9.1.47-13.65.7-2.94.15-3.61-.28-4.49-3q-1.81-5.64-3.47-11.33a6.54,6.54,0,0,1-.28-2.6c.44-3.37-.08-6.68-.33-10-.37-4.94-.35-9.9-.6-14.85-.21-4.15-.58-8.28-.82-12.43-.07-1.15.1-2.31.08-3.46a59.93,59.93,0,0,0-.27-7c-1.38-9.83-.8-19.6.24-29.41.54-5.07.73-10.2.83-15.3.09-4.58-.27-9.18-.19-13.76a48.21,48.21,0,0,1,1-6.62,1.13,1.13,0,0,0,.06-.35c-.69-3.55,1.65-6.29,2.51-9.42s2.68-5.94,4.46-8.7,3.29-5.29,4.83-8c1.67-2.94,3.33-5.85,6.54-7.42a1.53,1.53,0,0,0,.53-.75,4.46,4.46,0,0,1,2.72-2.54c4.46-1.48,8.93-3,13.42-4.36,1.44-.44,3-.51,4.46-.88s2.61-.93,3.95-1.24a38.05,38.05,0,0,1,4.24-.63c3.05-.35,6.1-.79,9.17-.93a14.76,14.76,0,0,1,4.69.67c1.89.54,2.34.56,3.59-1,3.05-3.91,6-7.88,9.15-11.72a73.56,73.56,0,0,1,16.32-14.38,2.08,2.08,0,0,1,2.09-.5.65.65,0,0,0,.6-.18c1.07-2.23,3-3.05,5.31-3.38.37-3.79.75-7.48,1.08-11.18A53,53,0,0,1,137,79.7a135.17,135.17,0,0,1,10-10.19,3.71,3.71,0,0,0,1.14-3.82c-2-9.75-3.94-19.5-5.75-29.28a62.37,62.37,0,0,1-.53-7.51c0-.8,0-1.6-.11-2.39-.27-2.48-.28-2.48.82-4.8.41-.87.71-1.79,1.19-2.61a9,9,0,0,1,1.52-2c.94-.91,2-1.69,3-2.56a1.84,1.84,0,0,1,2.86,0c2.89,3,5.94,6,7.66,9.9a9.86,9.86,0,0,0,1.23,2c.28.37.85.87,1.15.79a1.85,1.85,0,0,0,1.07-1.1,10.11,10.11,0,0,1,4.07-5.32,3.77,3.77,0,0,1,4.38-.12,10.6,10.6,0,0,1,4.91,6.67c.21.75.56,1.45.9,2.32a14.6,14.6,0,0,0,4.42-5.51,6.4,6.4,0,0,1,1.85-2.68,3.68,3.68,0,0,1,4.66,0,13.11,13.11,0,0,1,5,6.14,62.25,62.25,0,0,1,4.35,24c-.07,3.25,0,3,3.21,3.56a86.44,86.44,0,0,1,9.6,2.44c2.34.67,4.63,1.49,6.91,2.33,2.58.95,5.12,2,7.68,3,1,.4,2.1.74,3.13,1.15a14.29,14.29,0,0,1,3,1.36,45.23,45.23,0,0,1,7.6,7.07c5.15,5.83,8.86,12.61,13,19.1,2.56,4,4.39,8.49,6.63,12.91,4.1-.88,8.51-1.51,12.54-3.41,5-2.35,10.06-4.51,14.62-7.67,2.4-1.66,5.27-2,8-2.56a39.29,39.29,0,0,0,4.62-1.23c2.06-.7,3.9.21,4.14,2.38A9.65,9.65,0,0,1,301.2,96a62.46,62.46,0,0,1-6.44,14.13c-2.27,3.65-5.57,6.28-9,8.64a89.61,89.61,0,0,1-7.95,4.38c-1,.54-2,1-3.21,1.65l1.25.78c5.28,3.23,10.47,6.63,15.89,9.61a22.34,22.34,0,0,1,7.2,6.32,65.91,65.91,0,0,0,5.38,5.78c.69.72,1.48.42,2.16-.08,1.39-1,2.75-2.07,4.11-3.11,3-2.33,6-4.77,9.16-7a17,17,0,0,1,4.8-2.11c3.24-1,6.54-1.75,9.83-2.59a2.77,2.77,0,0,1,2.82.94A6.71,6.71,0,0,1,339,140c-.9,3.48-1.79,7-2.73,10.43a25.32,25.32,0,0,1-4.08,8.35c-2.92,4-5.81,8-8.76,12a2.18,2.18,0,0,0-.29,2.64c.84,1.49,1.58,3,2.53,4.47a25,25,0,0,1,4,9.28,13.07,13.07,0,0,0,.83,2.36c.63,1.59,1.35,3.15,1.93,4.76s1.6,2.06,3,1c2.88-2.08,5.82-4.1,8.58-6.34a42.74,42.74,0,0,0,4-4.25,26.05,26.05,0,0,1,1.89-2,44,44,0,0,0,8.86-11.26c1.28-2.17,2.48-4.39,3.83-6.51a16.52,16.52,0,0,1,2.95-3.75c2.08-1.78,2.36-4.17,2.74-6.56a18.22,18.22,0,0,0,.13-2.87,2.87,2.87,0,0,0-2.25-3.25,16.41,16.41,0,0,0-2.06-.64,13.24,13.24,0,0,1-9.66-8c-1.76-4.13-3.15-8.41-2.58-13,.26-2,.85-4.05,1.27-6.08a9.49,9.49,0,0,0,.17-1.67c.07-2.78,1.23-5.07,2.71-7.4,3.65-5.78,9-9.17,15.2-11.48a10.93,10.93,0,0,1,5.79-.14c3.54.59,7.09,1.36,9.71,4,5.46,5.53,9.37,12,9.37,20,0,9.55-4.66,19.7-16.42,23.35-1.18.37-2.36.74-3.53,1.16a2.2,2.2,0,0,0-1.71,2.4c.1,1.79-.17,3.63.09,5.39a15.9,15.9,0,0,0,1.54,5.23c1.95,3.59,2.14,7.35,1.9,11.28a30.73,30.73,0,0,1-3.66,12.43q-3.41,6.53-7,12.94c-3,5.28-7.18,9.53-11.74,13.5-3.61,3.14-6.94,6.61-10.34,10a2.7,2.7,0,0,0-.62,1.62,73.1,73.1,0,0,0-.08,14,34.14,34.14,0,0,1-.29,6.08c-.22,3.51-.37,7-.72,10.51-.56,5.56-1,11.15-3.09,16.43a10.48,10.48,0,0,0-.26,2.81c-.09,1-.15,2-.34,2.94-.47,2.39-1,4.77-1.52,7.15a3.28,3.28,0,0,1-.22.8c-2.84,5.56-3.76,11.68-5.16,17.66-.41,1.75-.66,3.55-1.2,5.25a58.19,58.19,0,0,1-2.41,6.22c-1.62,3.6-3.27,7.2-5.08,10.71a127.25,127.25,0,0,1-17,25.75c-2,2.31-4.38,4.31-6.57,6.47-2.93,2.88-5.63,6.05-8.82,8.61-5.95,4.77-12.17,9.21-18.3,13.75-.92.68-1.76,1.24-1.24,2.6.1.27-.16.74-.36,1.06a51.07,51.07,0,0,0-3.15,5c-3.57,7.63-7,15.31-10.51,23a12,12,0,0,0-.63,1.42c-1.78,5.82-5.41,10.45-9.45,14.83a6.86,6.86,0,0,1-9.49.14,4.6,4.6,0,0,1-1.31-3.37,48.81,48.81,0,0,1,2.58-15.4C241.55,403.4,242.44,398.79,243.57,394.44ZM229.33,181.93v.18c2-.09,4.09-.06,6.1-.3a107.86,107.86,0,0,0,27-7.24c5.37-2.13,10-5.8,15.59-7.44a24.73,24.73,0,0,0,6.7-3.64c4.45-3,8.79-6.26,13.14-9.45,2-1.47,2.06-2.14.47-4.09a49.74,49.74,0,0,0-10.53-9.58q-7.62-5.2-15.52-10a21.59,21.59,0,0,0-6-2.21c-3.73-.9-7.54-.66-11.34-.38a25.4,25.4,0,0,1-9.87-.71c-8-2.63-16.05-5.28-22.28-11.42-.17-.17-.38-.29-.55-.46a5.33,5.33,0,0,0-4.85-1.38c-3.08.47-6.19.71-9.28,1.12-6.85.9-13.7,1.89-20.55,2.76-9.39,1.2-18.77,2.54-28.19,3.44-8.07.77-16.17,1.16-24.21,2.36a21.66,21.66,0,0,0-11.8,5.3c-2.55,2.3-5.35,4.33-7.89,6.64-4.26,3.86-8.5,7.75-12.56,11.82-2.31,2.31-4.27,5-6.36,7.49a43.58,43.58,0,0,0-6.75,11.4,85.48,85.48,0,0,1-4.1,8.23c-1,1.89-2.32,3.64-3.43,5.49-.86,1.43-.68,2.33.64,3.32s2.56,1.65,3.74,2.59a29.45,29.45,0,0,1,3.89,3.52c1.7,2,3.15,4.14,4.81,6.13a54.74,54.74,0,0,1,11,21.7c1.66,6.42,3.13,12.75,2,19.49-1.35,8.37-3.48,16.4-8.3,23.52a17.75,17.75,0,0,0-1.53,2.57,28.31,28.31,0,0,1-6.88,9C86,277,80.36,282.28,72.9,285.09a26.47,26.47,0,0,0-4.85,2.6c-1.81,1.16-2.2,2.46-1.69,4.55a4.76,4.76,0,0,1,.11,1.17,49.7,49.7,0,0,0,0,7.3,76.57,76.57,0,0,0,2.29,10.74c1.12,3.86,2.54,7.65,4,11.39a21.71,21.71,0,0,0,2.82,5c3.79,5,8.13,9.67,11.28,15.19a10.17,10.17,0,0,0,2.21,2.67c3.5,3,7,6,10.66,8.73,3,2.32,6.3,4.37,9.47,6.53,1.84,1.26,3.68,2.52,5.55,3.75,2.07,1.36,4.17,2.66,6.23,4,1.63,1.08,3.18,2.27,4.82,3.32,3.36,2.15,6.77,4.21,10.13,6.36a10.47,10.47,0,0,0,4.79,1.73,4,4,0,0,1,1.58.45,50,50,0,0,0,12,4.69c2,.53,4,1.08,6,1.75a93.79,93.79,0,0,0,32.8,4.86,136.63,136.63,0,0,0,32-4.1,3.41,3.41,0,0,1,1.63,0,4.35,4.35,0,0,0,4-.88,2.47,2.47,0,0,1,1.68-.7c1.78.42,3.39-.25,5.05-.55,3.62-.65,7.23-1.33,10.26-3.69a4.49,4.49,0,0,1,2.26-.42c1.11-.08,2.24,0,3.34-.12a16.24,16.24,0,0,0,7-3.25c3-2.15,6-4.4,9-6.59,8.9-6.49,18.45-12.11,26.18-20.15a102.37,102.37,0,0,0,11.08-13q5.74-8.41,11.46-16.84a6.26,6.26,0,0,0,.69-1.24c1.56-4.06,3.14-8.11,4.63-12.2,1-2.66,1.81-5.36,2.62-8.07.9-3,1.69-6.07,2.56-9.09.54-1.87,1.23-3.71,1.71-5.6s.72-3.69,1.09-5.52c.32-1.58.12-1.84-1.48-2.16a23.08,23.08,0,0,1-5.45-1.32c-5-2.38-9.88-4.88-14.66-7.61a20.94,20.94,0,0,1-8.91-9.46c-2.31-5-4.29-10.14-4.56-15.78-.2-4-.89-8-.93-11.94a65.46,65.46,0,0,1,3.06-19.46c1.67-5.56,3.62-11.06,7.14-15.75a102.54,102.54,0,0,1,13.07-14.5c1.36-1.23,1.42-2.34.18-3.71-.3-.32-.66-.59-.94-.92-.57-.66-1.07-.66-1.83-.18-3.85,2.43-7.7,4.86-11.64,7.15-4.39,2.55-8.87,4.94-13.89,6.06s-10.32,2.14-15.44,3.39a68.13,68.13,0,0,1-29,.7c-8.9-1.69-17.68-4-26.52-6a2.6,2.6,0,0,1-2.07-2,1.55,1.55,0,0,1,.24-1.3c2.05-1.67,4.16-3.27,7-3.14C226.29,182,227.82,181.93,229.33,181.93Zm18.41-74.57,0-.17c1-.07,2.07-.1,3.09-.22.8-.1,1.25-.56,1-1.41a17.55,17.55,0,0,0-1.17-3.1q-3.29-5.78-6.75-11.46c-1.72-2.82-3.44-5.67-5.39-8.33-4.77-6.52-10.61-11.69-18.47-14.28-5.23-1.72-10.38-3.67-15.6-5.41a22,22,0,0,0-4.55-.84c-1.62-.18-3.27-.13-4.9-.25a16.78,16.78,0,0,0-2.45-.43c-6.17.5-12.34,1-18.49,1.69a4.89,4.89,0,0,0-2.77,1.42,2.57,2.57,0,0,1-2.62.92,9.47,9.47,0,0,0-7,1.39c-2.52,1.55-5.09,3-7.5,4.72a55.13,55.13,0,0,0-6.49,5.26,74.91,74.91,0,0,0-5.17,6c-2.81,3.36-5.36,6.87-6.68,11.13-.42,1.37-1,2.68-1.41,4.06a13.09,13.09,0,0,0-.22,2.33,6.4,6.4,0,0,1-.28,2.31c-2,3.7-2.41,7.84-3.42,11.81a1.83,1.83,0,0,0,1.93,2.17,6.49,6.49,0,0,1,2.92.41c1.86,1,3.67.7,5.58.42,4.94-.73,9.87-1.68,14.83-2,7.08-.5,14-1.84,21-2.9,3.22-.49,6.36-1.62,9.7-1.23a3.86,3.86,0,0,0,1.27-.3c3.21-.83,6.37-2,9.63-2.42,5.62-.76,11.29-1.09,16.95-1.57q9.31-.78,18.63-1.49a13.4,13.4,0,0,1,2.85,0C239.78,106.13,243.76,106.76,247.74,107.36ZM82.31,227.24a51.79,51.79,0,0,0-.06-7.13,28.33,28.33,0,0,0-6-13.55c-2.53-3.28-5.65-3.13-8,.24A30.94,30.94,0,0,1,65,210.6c-2.67,2.7-5.57,5.18-8.07,8s-4.59,6-6.89,9c-7.52,9.85-13.88,20.25-16.5,32.61-1,4.78-1.81,9.35.37,14a30,30,0,0,0,9.56,12.21,7.91,7.91,0,0,0,7.85.95c1.33-.52,1.88-1.47,1.3-2.63a63.13,63.13,0,0,0-4.13-7.39A13.18,13.18,0,0,1,46,271.1c-.12-1.35-.2-2.71-.27-4.06A22.05,22.05,0,0,1,48.4,254.8a4.42,4.42,0,0,1,1.35-1.6,4.34,4.34,0,0,0,2-2.57c1.09-3.74,3.31-6.89,5.27-10.18a7.78,7.78,0,0,1,5.5-3.7,2.25,2.25,0,0,1,2.87,1.68,9.15,9.15,0,0,1,.41,2.71c-.06,3.47-.15,6.95-.34,10.42-.13,2.35-.45,4.69-.67,7-.09,1,.33,1.4,1.11,1,3-1.44,6.08-2.84,9-4.42a8.43,8.43,0,0,0,4.45-5.26C81.32,242.59,83.48,235.28,82.31,227.24Zm289.22-56c0-.68,0-1.36-.12-2a2,2,0,0,0-2.16-2,2.54,2.54,0,0,0-2.69,1.77c-.38.88-.65,1.81-1.09,2.65-4.11,7.94-9.88,14.61-16.24,20.79-3.26,3.17-6.75,6.12-10.22,9.07a47.12,47.12,0,0,1-5.53,4,6.54,6.54,0,0,1-5.75.79,1.28,1.28,0,0,0-1.74.5c-1.36,2.1-2.74,4.19-4.08,6.31a44.64,44.64,0,0,0-5.14,12.2,19.09,19.09,0,0,0,.61,12.1c2.18,5.83,6,10.41,10.62,14.42a9.19,9.19,0,0,0,6.2,2.19c.84,0,1.17-.19,1.26-1.1.3-3.22.73-6.43,1.09-9.65.37-3.37.85-6.74,1-10.12a48.76,48.76,0,0,0-.34-7.66,7.94,7.94,0,0,1,3.3-7.71,129.7,129.7,0,0,0,15.18-14.29,44.37,44.37,0,0,0,8.82-13.16c1.39-3.36,2.94-6.64,4.53-9.91A22.94,22.94,0,0,0,371.53,171.27ZM236.32,187c.33.27.39.36.45.37,5.51.92,11,2,16.55,2.69a43.83,43.83,0,0,0,15.8-1c.31-.08.63-.11.94-.16,4.79-.87,9.65-1.43,14.13-3.54a5.27,5.27,0,0,1,1.06-.16,38,38,0,0,0,3.92-.94,33.27,33.27,0,0,0,4.94-2c3.11-1.66,6.13-3.48,9.18-5.23.07,0,.11-.12.17-.16A69.14,69.14,0,0,1,309,172.5c6.84-4.27,13-9.25,17.76-15.86,3.56-4.89,6.61-9.89,7.46-16a18.45,18.45,0,0,0,0-2.27c-1.37.56-2.58,1-3.69,1.53-1.59.82-3.13,1.76-4.67,2.68a56.38,56.38,0,0,0-6.83,4.17c-6,4.8-12.33,9-18.63,13.29-6.61,4.52-13.82,8-20.9,11.69A166.28,166.28,0,0,1,255.1,182c-5.1,1.7-10.36,2.93-15.56,4.34a17.25,17.25,0,0,1-2,.22A9.41,9.41,0,0,0,236.32,187Zm-158.7.11c-.81,2.48-1.39,4.73-2.29,6.85s-.29,3.5,1.17,5a32.56,32.56,0,0,1,4.57,5.66c2.29,3.83,4.3,7.84,6.36,11.81a10.23,10.23,0,0,1,1.17,3.37c.42,3.57.84,7.15.94,10.74.16,5.85-1.2,11.5-2.79,17.08A21.72,21.72,0,0,1,82,256.5a37.92,37.92,0,0,1-14,9.9,8.73,8.73,0,0,0-2,1.05,2,2,0,0,0-.78,1.25c-.14,3.15-.22,6.31-.23,9.47a1.56,1.56,0,0,0,1.89,1.67,9.62,9.62,0,0,0,3.31-.92,83.25,83.25,0,0,0,17.4-12.67c2.53-2.43,4.34-5.6,6.49-8.43a28.92,28.92,0,0,0,4.24-8.14,72.6,72.6,0,0,0,3.33-17c.28-3,.87-5.93,0-8.92-.34-1.14-.48-2.34-.72-3.52-1-4.94-1.93-10-4.87-14.18A132.34,132.34,0,0,0,85.3,192.72C83.24,190.48,80.33,189,77.62,187.08Zm225,45.15h-.1c0,3.68,0,7.35,0,11a7.8,7.8,0,0,0,.2,2.49c1.16,3.31,2.27,6.66,3.72,9.85,2.5,5.49,7.22,8.89,12.22,11.77a102.2,102.2,0,0,0,10.9,4.93c1.91.82,3.1.05,3.37-2,.39-3,.74-5.95,1.19-8.91.15-1-.18-1.34-1.06-1.73-3.41-1.53-6.82-3.1-10.13-4.84a13.79,13.79,0,0,1-5.59-5.31,107.08,107.08,0,0,1-4.93-9.56,21.73,21.73,0,0,1-1.61-10.55c.31-4.4,1.67-8.51,3.09-12.64,2.33-6.79,5.11-13.28,11-17.9a2.93,2.93,0,0,0,.78-2.46,47.73,47.73,0,0,0-2-6.37c-.45-1.17-1.51-1.36-2.57-.64-.59.4-1.15.87-1.72,1.31-4.43,3.43-8.7,7.11-10.88,12.38-2,4.92-3.49,10.08-5.2,15.14a3,3,0,0,0-.1.83Q302.92,225.64,302.65,232.23ZM73.22,180.48a3,3,0,0,0-.35-.26c-1.06-.46-2.15-.87-3.19-1.37a28.53,28.53,0,0,0-18.09-2.47c-3.48.67-6.92,1.57-10.35,2.49a9.19,9.19,0,0,0-4.89,3.5c-3,4-4.36,8.57-5.07,13.4a17,17,0,0,0,0,2.34h1.45q13.25-.2,26.5-.41c2.12,0,4.24-.08,6.35-.23s2.57-.76,3-2.64c.21-.85.47-1.69.75-2.52Q71.27,186.41,73.22,180.48Zm302.11-71.95a13.42,13.42,0,0,0-7.14,1.85A20.3,20.3,0,0,0,360.08,121c-1.45,4-.65,8.06-.63,12.11a3,3,0,0,0,.63,1.66,16.53,16.53,0,0,0,8.78,6.29c2.88.79,5.71-.06,8.49-.81A14.26,14.26,0,0,0,387.42,131a19.29,19.29,0,0,0-1.73-17.25,9.26,9.26,0,0,0-6-4.54C378.28,108.85,376.79,108.75,375.33,108.53ZM296.09,96l-.49-.21c-.42.29-.82.61-1.27.86-2.3,1.27-4.58,2.57-6.92,3.76-1.81.92-3.68,1.73-5.54,2.55a51.83,51.83,0,0,1-5,2.14c-4.13,1.33-8.48,2-12.33,4.15a7.37,7.37,0,0,1-1.91.68,83.28,83.28,0,0,1-22.42,2.59,5.48,5.48,0,0,1-2.44-.49c-2.73-1.56-5.43-.81-8.14-.08-.3.08-.52.46-1,.91,2.24,1,4.19,2,6.22,2.81a35.88,35.88,0,0,1,7.9,3.94,11.39,11.39,0,0,0,4,1.62c3.35.8,6.77.44,10.14.11a114,114,0,0,0,21.84-4.2,4.63,4.63,0,0,0,1.58-.8c1.85-1.52,3.7-3,5.46-4.65a26.13,26.13,0,0,0,3.78-4c2-2.77,3.72-5.67,5.46-8.58A18,18,0,0,0,296.09,96ZM150.43,21c-.71,1.19-1.77,2.2-1.91,3.34a49.75,49.75,0,0,0,.07,14.7c1.25,7.44,2.77,14.83,4.2,22.24.37,1.93,1.34,2.42,3.11,1.59,2.24-1,4.46-2.15,6.68-3.25a2.58,2.58,0,0,0,1.58-3.43c-.32-1.28-.77-2.52-1.1-3.79-1.05-4.09-1.9-8.25-3.16-12.28s-2.82-7.8-4.33-11.67A18.74,18.74,0,0,0,150.43,21ZM48,319.33c-.25-.42-.44-.76-.66-1.1A10.53,10.53,0,0,1,45.55,312c.1-5.16,0-10.32,0-15.47A4.19,4.19,0,0,0,43,292.43a26.2,26.2,0,0,1-10.87-10.36c-.3-.53-.64-1-1-1.56a6.77,6.77,0,0,0,0,2.23c.51,3.88,1.17,7.75,1.52,11.64.46,5.09.63,10.21,1,15.3a61.45,61.45,0,0,0,.92,7.6c.46,2.26,1.79,3.1,4.06,3.1,1.36,0,2.73.06,4.08-.06C44.5,320.18,46.33,320.58,48,319.33Zm-4-148.9.15.33h1.27c3.91,0,7.83.06,11.74,0a32.25,32.25,0,0,1,13.08,2.45c1.87.77,3.76,1.5,5.7,2.28l9.25-18.07c-14.88-.11-28.33,3.78-40.41,12.19A5.51,5.51,0,0,0,43.93,170.43ZM191.7,45.28a35,35,0,0,0-2.61-13.77,11.14,11.14,0,0,0-2.31-3.43,1.3,1.3,0,0,0-2.34.36c-1.16,2.62-2.62,5.21-3.16,8a48.72,48.72,0,0,0-.45,9.57c0,2.47.3,4.94.5,7.41a2.9,2.9,0,0,0,3.58,2.86c1.78-.23,3.57-.41,5.36-.58,2.11-.2,3-1.39,2.43-3.44C192,49.72,191.39,47.2,191.7,45.28ZM29.43,252.43c.22-.49.46-1,.66-1.46,2.38-5.83,4.54-11.77,8.22-17a5.63,5.63,0,0,0,.95-4.51c-.67-3.8-1.17-7.63-1.74-11.47H30.22c0,.37-.07.68-.07,1-.06,4.35-.08,8.7-.18,13.06a40.34,40.34,0,0,1-.44,7A36.23,36.23,0,0,0,29.43,252.43ZM175.51,49.3a48.2,48.2,0,0,0-3.12-18.18,17.36,17.36,0,0,0-2.44-4.06,1.88,1.88,0,0,0-1.61-.66c-.42.12-.8.92-.9,1.47-.24,1.25-.31,2.53-.44,3.8-.39,3.7-.9,7.39-.13,11.12.89,4.26,1.67,8.53,2.51,12.8.44,2.24,1.5,2.82,3.69,2.06l.9-.32A2.14,2.14,0,0,0,175.52,55C175.49,53.13,175.51,51.21,175.51,49.3ZM58.53,290c-2.68,1.33-5.12,2.51-7.53,3.75a1.17,1.17,0,0,0-.48.91c.15,3.47.3,6.94.56,10.4.31,4.14.75,8.26,1.1,12.4.1,1.17.77,1.5,1.78,1.42s2.06-.26,3.09-.38c1.61-.19,2.44-.95,2.43-2.56,0-2.35-.17-4.69-.33-7-.1-1.43-.44-2.85-.46-4.28,0-3.67.07-7.35.07-11C58.77,292.44,58.63,291.31,58.53,290Zm202.7,96.13a16,16,0,0,0-1.54.67c-2,1.17-4,2.3-6,3.57a4.46,4.46,0,0,0-1.64,1.92c-2.36,5.93-4.74,11.85-6.87,17.86a51.81,51.81,0,0,0-2,8.36,12.68,12.68,0,0,0,.34,3.45l.45.18c1-.91,2.35-1.64,3-2.77A91,91,0,0,0,252.43,409c2-4.66,3.45-9.51,5.23-14.25C258.71,391.93,259.94,389.2,261.23,386.1Zm-111.52,5.82c.25.69.38,1.11.54,1.51,1.86,4.75,3.73,9.5,5.58,14.25,1.55,4,3,8.06,4.61,12.06.76,1.93,2.11,2.72,4.33,2.67-.19-3.73-.07-7.48-1.29-11.11a7.77,7.77,0,0,1-.61-3.13,9.48,9.48,0,0,0-.79-4.16,37.3,37.3,0,0,1-1.16-4.13c-.69-3.3-2.13-6-5.67-6.85C153.51,392.61,151.74,392.32,149.71,391.92ZM30.41,208.67a2.68,2.68,0,0,0,.46.14q13.17,0,26.34,0a1.51,1.51,0,0,0,1-.28c1.65-1.75,3.25-3.55,5.08-5.57-1.16,0-1.94,0-2.72,0-1.95.05-3.9.14-5.85.18-1.12,0-2.24-.15-3.35-.06-6.36.51-12.72,1.07-19.08,1.62a1.88,1.88,0,0,0-1.86,1.71A17,17,0,0,0,30.41,208.67ZM58,253.46c-2,4-3.93,7.94-4.44,12.36s.16,8.45,2.86,12a4.51,4.51,0,0,0,1.27.82,5.75,5.75,0,0,0,.3-1.27c0-5.51,0-11,0-16.54ZM44.24,224.38c1.23-.23,5.52-5.94,5.42-7.15-1.41.11-2.84.14-4.23.38a1.68,1.68,0,0,0-1.14,1.1C44.17,220.56,44.24,222.42,44.24,224.38Z"/><path class="cls-1" d="M397.37,400.29c-3.11,1.84-6.33,3.42-9.18,5.51s-3.82,5.3-3.52,8.83c.11,1.27.35,2.54.41,3.81s-.6,1.88-1.79,1.47c-1.57-.54-3-1.34-4.58-2a53.51,53.51,0,0,0-5.34-2,68.13,68.13,0,0,1-16.05-6.49c-1.36-.8-2.59-1.82-3.94-2.77a20.16,20.16,0,0,0-1.57,3.4,9.49,9.49,0,0,0-.25,3.73c.39,2.6,1,5.16,1.55,7.75.32,1.67-.18,2.71-1.48,3.28s-2.22.23-3.33-1.11c-3.62-4.39-4.16-9.47-3.2-14.84.37-2,.84-4.07,1.37-6.07a2.5,2.5,0,0,0-.75-2.58c-2.38-2.59-4.85-5.11-7-7.88a32.34,32.34,0,0,1-6.21-11.8c-1.43-5.68-.5-11.12,1.81-16.36a3.19,3.19,0,0,0-.31-3.63c-1-1.27-1.68-2.73-2.66-4-2.88-3.66-3.31-7.74-2.34-12.14a9.75,9.75,0,0,1,2.68-5.37c1.39-1.29,3.39-1.69,4.34-.83s.72,3.11-.29,4.56a4.39,4.39,0,0,0-.89,2.34,37.65,37.65,0,0,0,.55,5.8,6.09,6.09,0,0,0,1.2,2.31c1,1.45,1.68,1.4,3,.15,1.64-1.63,3.31-3.25,5.07-4.74a16.25,16.25,0,0,1,16-3.26,22.92,22.92,0,0,1,11.36,7,31.09,31.09,0,0,1,2.93,4.9c.68,1.19,1.3,2.42,2.09,3.91.78-1,1.34-1.62,1.84-2.32,2.68-3.73,5.65-7.18,9.67-9.52a20.61,20.61,0,0,1,19.85-1.12,34.68,34.68,0,0,1,9,5.67c2.23,2,2.75,2,4.62-.38a32,32,0,0,0,3.24-4.88c1.18-2.21,2.13-4.54,3.14-6.83.37-.85.38-2,1.73-1.93A2.71,2.71,0,0,1,433,342a7.85,7.85,0,0,1-.12,3.76c-2.22,5.58-4.64,11.09-9.81,14.73a3.73,3.73,0,0,0-1.55,3.9c1.08,6.64-1.66,12.06-5.57,17-3.42,4.32-7.05,8.47-10.65,12.65a2.75,2.75,0,0,0-.52,3.25c1.61,3.79,3.19,7.59,4.57,11.46a15.35,15.35,0,0,1,.68,4.78,2.28,2.28,0,0,1-1.91,2.32,2.37,2.37,0,0,1-2.58-1.37,16.16,16.16,0,0,1-1.33-2.8C402.35,406.52,401.22,404.6,397.37,400.29Zm-17.27,13.1c0-.59,0-1,0-1.37-.07-4.32,1.12-8,4.87-10.61s7.59-5.47,11.49-8a41.46,41.46,0,0,0,10.27-9.27c1.64-2.12,3.26-4.25,5-6.3a16.76,16.76,0,0,0,4-9.33c.21-2.18.63-4.48-.48-6.49-2.61-4.72-6.42-8.14-11.83-9.15-7.09-1.32-13,1.19-17.74,6.44a93.29,93.29,0,0,0-6.37,8.83c-2.12,3-4.48,2.94-6.19-.31-.8-1.52-1.51-3.08-2.25-4.63-2.3-4.84-5.7-8.53-10.82-10.47a12.3,12.3,0,0,0-13.38,2.73,38,38,0,0,0-7.1,10.59,18.71,18.71,0,0,0,.73,18.33c3.27,5.64,7.63,10.3,12.27,14.8a30.57,30.57,0,0,0,9.94,6.5c3,1.23,6,2.65,9,4C374.25,410.84,377.06,412.06,380.1,413.39Z"/><path class="cls-1" d="M343.36,80.77A8.44,8.44,0,0,0,349.83,90c1.59.47,3,1.09,3.61,2.81a3,3,0,0,1-2.7,4.18c-3.14.17-4.47,1.23-5.51,4.35-.69,2.08-1.38,4.17-2.16,6.22a2.88,2.88,0,0,1-2.95,2.19c-1.67-.08-2.64-1.18-2.68-3.05-.09-5.37-2.17-8-7.36-9.2-2-.49-2.74-1.27-2.73-3a2.9,2.9,0,0,1,1.83-2.72c.75-.37,1.54-.68,2.26-1.09,3.57-2,5.24-5.23,5.65-9.21a13.63,13.63,0,0,1,.52-3.05c.84-2.41,3.07-2.76,4.72-.82A3.43,3.43,0,0,1,343.36,80.77Zm-3.06,8.91L337,93.74,340.66,98c.87-1.42,1.67-2.69,2.41-4a1,1,0,0,0-.07-.92C342.17,92,341.28,90.89,340.3,89.67Z"/><path class="cls-1" d="M244.19,248.56c0,3.46-2.38,5.38-5.36,4.21-3.89-1.53-7.67-3.36-11.43-5.19-3.41-1.66-6.73-3.5-10.08-5.27a3.79,3.79,0,0,1-.91-.56c-1.54-1.51-3.22-1.39-4.94-.41-2,1.17-4.11,2.31-6.08,3.6-1.16.76-2.11,1.81-3.2,2.69-3.26,2.63-6.56,5.22-9.79,7.88a12.67,12.67,0,0,1-6.48,2.86,2.85,2.85,0,0,1-1.81-.28,6.86,6.86,0,0,1-3.24-4.7c-.57-3.87-1.11-7.75-1.45-11.65-.44-4.88-.63-9.78-1-14.67a34.64,34.64,0,0,0-.84-5.06,11.25,11.25,0,0,1,.8-6.44c.35-1,1.4-1,2.29-.62,3.41,1.36,6.88,2.6,10.18,4.19s6.62,3.69,10,5.48,7,3.62,10.52,5.42a2.18,2.18,0,0,0,2.44-.42q5.92-4.4,11.83-8.79c2.28-1.69,4.56-3.37,6.87-5a6.29,6.29,0,0,1,4.32-1.49,2.51,2.51,0,0,1,2.54,2.12c.88,4.06,1.85,8.1,2.53,12.19.51,3.06.54,6.2.9,9.29.38,3.25.9,6.49,1.35,9.73C244.15,248,244.17,248.43,244.19,248.56ZM184,232.65c.14,1.57.22,3.37.49,5.15.58,3.79,1.19,7.58,1.93,11.34.35,1.8,1.31,2.07,2.73,1q9.36-6.9,18.72-13.79c.78-.57.87-1.13.08-1.7-2.44-1.73-4.8-3.61-7.38-5.11-4.28-2.49-8.69-4.74-13.07-7.06-2.23-1.18-3.3-.47-3.28,2.06,0,2-.06,4-.11,6C184.05,231.15,184,231.79,184,232.65Zm53,13c0-.27-.07-.43-.09-.59q-1.26-10.59-2.52-21.17c-.17-1.43-.64-1.66-1.81-.8q-7.94,5.79-15.86,11.6c-.3.22-.68.68-.63,1s.54.63.9.74a54.59,54.59,0,0,1,12.56,5.55c2.16,1.28,4.25,2.69,6.38,4a1.47,1.47,0,0,0,.85.19C236.84,246.09,236.92,245.73,237,245.61Z"/><path class="cls-1" d="M266.86,276.12c6.91-.12,13.82-.17,20.72-.39a74,74,0,0,0,7.74-.86c2.62-.36,3.52.17,4.08,2.75a43.36,43.36,0,0,1,.89,5.07,22,22,0,0,1-.21,3.56c-.21,3-.22,6.08-.69,9.07a6.85,6.85,0,0,1-6.68,6.11c-3.82.33-7.66.37-11.48.71-3.65.32-7.28,1-10.93,1.28a109.8,109.8,0,0,1-29.71-1.53,13.47,13.47,0,0,1-2.07-.59,2.64,2.64,0,0,1-1.87-2.65c0-3.12-.28-6.29.2-9.34a48.86,48.86,0,0,1,2.77-9.75c1-2.69,3.52-3.57,6.27-3.55,6.15,0,12.31.15,18.46.23.84,0,1.68,0,2.52,0Zm-24.21,21a7.26,7.26,0,0,0,.72.2A110.35,110.35,0,0,0,267.84,299c8.21-.34,16.27-1.81,24.33-3.24,2-.35,2.83-1.47,2.85-3.68,0-3.19,0-6.39-.06-9.58a1.38,1.38,0,0,0-1.2-1.53,7.44,7.44,0,0,0-1.54-.2c-5.63.11-11.25.25-16.88.37-3.83.08-7.72.59-11.47.09a82.89,82.89,0,0,0-18.52,0,5,5,0,0,0-2,.9c-1.1.69-.65,1.86-.74,2.85C242.22,289,241.68,293,242.65,297.11Z"/><path class="cls-1" d="M170.86,148.57c0,1.31-.49,1.8-1.83,2-3.57.61-7-.26-10.27-1.37-4-1.36-8-2.91-12-4.48-2.19-.87-3.11-2.47-2.84-4.46.25-1.79,1-2.31,2.72-1.67,2.13.8,4.21,1.73,6.34,2.52,3.21,1.19,6.42,2.42,9.69,3.4a35.08,35.08,0,0,0,5.1.65A3.29,3.29,0,0,1,170.86,148.57Z"/><path class="cls-1" d="M241.8,153.89c-.52,0-1,0-1.56-.07-2-.23-2.84-2-1.54-3.54a5.7,5.7,0,0,1,2.81-1.84c3.46-.78,7-1.45,10.49-1.88a31.59,31.59,0,0,1,6.33.09c1.36.11,2,1.17,2.06,2.66s-.53,2.4-1.94,2.6c-5.53.77-11.08,1.44-16.62,2.15Z"/><path class="cls-1" d="M157.93,166.35c-3,0-4.69-1.07-5.17-3.26-.65-3,.5-5,3.25-5.46,3.4-.59,5.89,1,6.32,4C162.81,165,161.55,166.35,157.93,166.35Z"/><path class="cls-1" d="M246.27,167.87c-2.74,0-4-1.39-4-4.39,0-2.54,1.3-4,3.46-4,2.57,0,5.18,2.15,5.18,4.23A4.5,4.5,0,0,1,246.27,167.87Z"/><path class="cls-1" d="M371.1,138.41a17.28,17.28,0,0,1-2.46-.43,2.21,2.21,0,0,1-1.58-2.62c.16-1.26,1.09-1.59,2.14-1.68a32,32,0,0,1,3.22-.12,5.92,5.92,0,0,0,5-2.32c1.1-1.41,2-3,3-4.44.34-.49.56-1.16,1-1.45a2.69,2.69,0,0,1,1.93-.5,2,2,0,0,1,.91,1.59c.14,4.24-2,7.27-5.32,9.63A13.24,13.24,0,0,1,371.1,138.41Z"/><path class="cls-1" d="M383.44,395.46c-1.34-.08-2.3-.09-3.25-.2a9.08,9.08,0,0,1-7.2-4.74c-.92-1.62-1.82-2.07-3.91-1.66a19.77,19.77,0,0,1-9.15-.14,42.51,42.51,0,0,1-8-3.08,13.07,13.07,0,0,1-3.54-3.47,2.33,2.33,0,0,1,.4-3.14,2,2,0,0,1,3,.36c5.13,6.09,18.11,7.18,24.81,3a37.47,37.47,0,0,0,3.81-3.23c1.44-1.2,2.85-2.44,4.37-3.51a2.43,2.43,0,0,1,3.33.61,21.85,21.85,0,0,1,4,10.39C392.46,391.88,388.3,396.16,383.44,395.46Zm2-14.67-.56,0c-.33,1-1.17,2.25-.89,3.09a33.24,33.24,0,0,0,2.72,5.22c1.49-.92,1.95-1.91,1.3-3.45C387.35,384,386.35,382.42,385.48,380.79Zm-8.14,6.44c1.39,2.62,3.79,3.66,6,2.6l-.84-1.44c-1.74-3-1.94-3-5-1.37A1.57,1.57,0,0,0,377.33,387.23Z"/><path class="cls-1" d="M390.34,370.28c0-2.2,1.49-3.49,3.86-3.44,1.85,0,3.83,1.79,3.79,3.35s-2.35,3.52-4,3.48C391.7,373.62,390.3,372.31,390.34,370.28Z"/><path class="cls-1" d="M360.83,366.05c0,2-2.08,3.34-4.22,2.64a2.87,2.87,0,0,1-.65-.29c-1.2-.78-2.51-1.7-2.25-3.25s1.67-2.41,3.12-2.85C358.68,361.74,360.81,363.81,360.83,366.05Z"/></svg>