<svg id="圖層_1" data-name="圖層 1" xmlns="http://www.w3.org/2000/svg" viewBox="0 0 191.99 204.42"><defs><style>.cls-1{fill:#9e3224;}.cls-2{fill:#c5514e;}</style></defs><title>graphic</title><path d="M110.59,12.21c4,2.27,5.44,6.38,7.17,10.13,2.74,5.87,5.16,11.87,4.64,18.66-.18,2.66.94,4.65,3.72,6.21A22.75,22.75,0,0,1,134,54.38c3.59,5.65,6.52,11.7,7,18.67.15,2.36,1.15,4.65,1.65,7,1.08,5.17,2,10.35,3.13,15.52a2.82,2.82,0,0,0,1.45,1.88c4.66,1.49,9.39,2.76,14.07,4.19a59.45,59.45,0,0,1,8.63,3c3.65,1.75,5.19,4.6,4.29,6.76s-3.5,2.54-7.5,1.3c-3.06-1-6-2.36-9.17-2.79-4-.55-8-.31-12.18-.42-.87,6.1-1.62,11.21-2.31,16.34-.47,3.51,3.27,10.25,6.6,12.17,1.81,1.06,3.62,2.17,5.37,3.31s2,2.6.23,3.83-3.77,2.79-5.87,3.26c-4.9,1.07-7.9,4.87-11.83,7.3-7.4,4.59-14.76,9.3-23.3,11.65-.83.22-1.71.24-3.25.46,2,3.65,2.68,7.51,6.86,9.31,3.86,1.66,7.52,3.76,11.24,5.72a3.85,3.85,0,0,1,2,4.85c-.63,2.17-2.33,2.61-4.48,2.63-9.82,0-16.64-5.16-22.36-12.43-1.58-2-3.14-4.06-4.8-6a2.46,2.46,0,0,0-1.7-.87c-4.83.33-9.66,1.1-14.48,1.06a82.12,82.12,0,0,1-14.52-1.34c-12.87-2.34-21.28-10.44-27-21.79a2.62,2.62,0,0,0-1.63-1.29c-3.81-.44-7.63-.81-11.45-1.05-7.09-.46-11.69-4.68-15.74-10a12.79,12.79,0,0,1-2.73-7c-.19-2.74,1.32-5.5,3.23-5.7s4.53,2.29,4.95,4.74c.12.77.2,1.76.7,2.21,3.84,3.37,7.63,6.87,13.31,6.71,2-.07,2.7-.95,2.44-2.84s-.6-4-.76-5.95c-.61-8.53,0-16.92,6.46-23.33a36.9,36.9,0,0,1,24.71-11c3.75-.17,7.58,1.45,11.4,2.16a14.38,14.38,0,0,0,2.85-.07,21,21,0,0,0-.44-2.79c-3.67-12-4.76-23.87,2.31-35.25A30.54,30.54,0,0,1,93.56,47.44a51.12,51.12,0,0,1,13.59-5.15c6.63-1.29,7.34-1,5.92-7.61-1.15-5.33-4-10.29-6.18-15.39a18.83,18.83,0,0,0-1.41-1.95c-.78-1.3-2.32-2.55-.61-4.2S108.36,10.95,110.59,12.21ZM132,70.39c-1.49-7.07-5.76-12.22-11.3-16.45a10.14,10.14,0,0,0-4.31-2C106.6,50.45,95.08,53.52,89.06,64c-4.93,8.6-4.94,17.26-2.41,26.3,1.08,3.85,2.57,7.58,3.65,11.42s-1.49,6.81-5.4,6.23c-2.25-.33-4.48-.85-6.69-1.41-6.52-1.68-13.1-2.39-19.55-.06-6.81,2.46-12.14,6.41-14.39,14-1.21,4.06-.12,7.81.42,11.47.67,4.53,2.7,9,4.73,13.15a37.28,37.28,0,0,0,6.27,9.38c7.15,7.52,17.07,8.24,26.4,8.8,7.89.48,15.92-1.2,23.86-2.16a20.55,20.55,0,0,0,6.86-2c10.49-5.34,20.89-10.86,31.83-16.59-5.19-3.76-9.31-7.9-9.62-14.05-.28-5.43.24-10.92.52-16.37.34-6.58,1.57-13.23,1-19.71C135.82,85,133.54,77.73,132,70.39Z"/><path class="cls-1" d="M120.67,53.94c5.55,4.24,9.82,9.39,11.3,16.45,1.56,7.34,3.85,14.62,4.54,22,.6,6.48-.63,13.13-1,19.71-.28,5.45-.8,10.94-.52,16.37.31,6.15,4.43,10.29,9.62,14.05-10.94,5.74-21.33,11.26-31.83,16.59a20.55,20.55,0,0,1-6.86,2c-7.94,1-16,2.65-23.86,2.16-9.33-.55-19.25-1.28-26.4-8.8a37.28,37.28,0,0,1-6.27-9.38c-2-4.2-4.06-8.62-4.73-13.15-.53-3.66-1.63-7.4-.42-11.47,2.26-7.59,7.59-11.54,14.39-14,6.45-2.33,13-1.62,19.55.06,2.21.56,4.44,1.07,6.69,1.41,3.92.58,6.49-2.32,5.4-6.23s-2.57-7.57-3.65-11.42c-2.53-9-2.52-17.7,2.41-26.3,6-10.51,17.54-13.58,27.29-12.07A10.14,10.14,0,0,1,120.67,53.94Zm-10.5,26.43c-1.89-1.53-6-.78-7.63,1.38-2.3,3.1-2,5.84.82,8,2.33,1.79,5.38,1,7.64-2C112.11,86.29,111.59,81.5,110.17,80.36Zm16,41.45c6.1-6,3.86-14.87-2-18.8-5-3.35-10.42-4.5-16.06-5.14-1.17-.13-3.34,1.13-3.65,2.18a21.63,21.63,0,0,0-.52,7.05c.13,3,1.1,6,.78,8.86-.76,6.82-3.78,12.56-8.53,17.74-5.23,5.74-11,9.81-18.86,10.41a3.18,3.18,0,0,0-3.2,3.81,4.25,4.25,0,0,0,3,2.83,18.47,18.47,0,0,0,8-.92c8.52-3.62,15.54-9.2,19.91-17.55,1.39-2.62,2.94-3.66,6-2.86a12.58,12.58,0,0,0,5.46-.34C120.82,128.16,123.63,125,126.15,121.81Zm-55.59-.66a5.86,5.86,0,0,0-8.49.12c-1.11,1.2-1.09,5.91,0,7,1.49,1.5,6,1,7.73-.78C71.86,125.34,72.15,122.71,70.55,121.16Z"/><path d="M102.54,81.75c1.62-2.16,5.75-2.91,7.63-1.38,1.42,1.13,1.94,5.93.82,7.41-2.25,3-5.3,3.78-7.64,2C100.53,87.59,100.24,84.84,102.54,81.75Z"/><path d="M124.12,103c5.88,3.93,8.12,12.8,2,18.8-2.52,3.21-5.33,6.35-9.71,7.26a12.58,12.58,0,0,1-5.46.34c-3-.8-4.59.24-6,2.86-4.37,8.34-11.39,13.93-19.91,17.55a18.47,18.47,0,0,1-8,.92,4.25,4.25,0,0,1-3-2.83,3.18,3.18,0,0,1,3.2-3.81c7.83-.6,13.63-4.68,18.86-10.41,4.75-5.17,7.77-10.92,8.53-17.74.32-2.89-.65-5.89-.78-8.86a21.63,21.63,0,0,1,.52-7.05c.31-1,2.48-2.31,3.65-2.18C113.71,98.51,119.14,99.66,124.12,103Zm-2,8.53c.76-3.8-2.62-5.75-11.41-5.91.83,1.79,1.17,4,2.12,4.31C115.78,110.87,119,111.06,122.1,111.54Zm-2.17,4.9c-2.8-.27-5.3-1-7.53-.46-.87.21-1.09,3.18-1.69,5.12C115.3,121.87,117.89,120.42,119.93,116.44Z"/><path class="cls-2" d="M110.69,105.63c8.79.16,12.17,2.12,11.41,5.91-3.12-.48-6.32-.67-9.29-1.6C111.87,109.65,111.52,107.42,110.69,105.63Z"/><path class="cls-2" d="M112.41,116c2.23-.52,4.73.2,7.53.46-2,4-4.63,5.43-9.21,4.66C111.32,119.17,111.53,116.19,112.41,116Z"/><path d="M62.06,121.28a5.86,5.86,0,0,1,8.49-.12c1.6,1.55,1.31,4.18-.73,6.38-1.68,1.83-6.24,2.28-7.73.78C61,127.19,61,122.48,62.06,121.28Z"/></svg>