<svg id="圖層_1" data-name="圖層 1" xmlns="http://www.w3.org/2000/svg" xmlns:xlink="http://www.w3.org/1999/xlink" viewBox="0 0 385.81 392.23"><defs><style>.cls-1{fill:none;clip-rule:evenodd;}.cls-2{clip-path:url(#clip-path);}.cls-3{fill:#070404;}.cls-10,.cls-11,.cls-12,.cls-13,.cls-14,.cls-15,.cls-3,.cls-4,.cls-5,.cls-6,.cls-7,.cls-8,.cls-9{fill-rule:evenodd;}.cls-4{fill:#fff;}.cls-5{fill:#5c5d5d;}.cls-6{fill:#ddb637;}.cls-7{fill:#c35640;}.cls-8{fill:#267c65;}.cls-9{fill:#c45640;}.cls-10{fill:#297b65;}.cls-11{fill:#dcb537;}.cls-12{fill:#f2f2f2;}.cls-13{fill:#387664;}.cls-14{fill:#587269;}.cls-15{fill:#d2d1d1;}</style><clipPath id="clip-path"><path class="cls-1" d="M151.32,18.44l6.68,100s12.54-4.48,28.94-10.29,41.88,4.8,41.88,4.8l41.4-90.24Z"/></clipPath></defs><title>graphic</title><g class="cls-2"><path class="cls-3" d="M186.2,61.45a81.19,81.19,0,0,1,7.24-15.58c1.72-2.78,3.73-5.32,7.36-5.51a8,8,0,0,1,8.09,7.13c1.23,7.91,1.63,15.9-.44,23.8-.43,1.66-1.25,3.24-1,5.67,3.55-4.37,8.05-6.72,12.34-9.36a11.35,11.35,0,0,1,6.58-2.08c2.41.1,3.24,1.18,3.21,3.49-.19,13.8-7,24.19-16.8,33.1a24.05,24.05,0,0,0-2.84,3.34c-3.17,4.19-3.19,4.52,2.14,5.15,15.05,1.8,29.17,6.8,43.08,12.4,7.39,3,14.5,6.75,20.39,12.35a14.9,14.9,0,0,0,4.51,2.7,7.1,7.1,0,0,1,3.93,3.32c.79,1.66,1.8,1.74,3.21.77,4.28-2.95,8.7-5.47,14.09-5.95a28.72,28.72,0,0,1,12.13,1c2.4.83,3.48,2.7,4.14,4.94,1.82,6.2-.19,11.1-5.12,15-2.68,2.12-5.31,4.29-8,6.35a2,2,0,0,0-.73,2.93c3.38,6.92,4.77,14.56,8.16,21.56,1.82,3.77,2.1,8.62,3,13,1.58,8,.37,16.16,1.54,24.17a2.39,2.39,0,0,0,1.84,2.25c2.41.79,4.82,1.57,7.18,2.48,7.37,2.85,10,10.68,5.91,17.49-1.26,2.08-2.79,4-4.21,6s-3.35,2.31-5.46,2.15-3.23.27-3.71,2.95c-.73,4.13.28,6.93,3.25,9.86,7.77,7.66,12.7,17.14,16.45,27.32,1.66,4.51,3.15,9,3.47,13.81.69,10.7-2.84,20.19-8.53,28.94a118,118,0,0,1-13.67,17.13c-8.14,8.54-18.45,12.61-29.73,14.35-7.19,1.1-14.6,2.24-21.8.61-9.1-2.06-18.32-4.18-24.62-12.18a38.16,38.16,0,0,1-5.34-9c-.83-2-1.86-2.83-4.09-2.88-6-.13-11.87.8-17.82.43-1.78-.11-1,1.26-.81,2.09,1,4.18,1.73,8.26,1,12.68-.89,5.29-4.66,7.37-8.75,9.27-1.75.81-3.19-.48-4.25-1.83-4.08-5.19-7.44-10.76-8.51-17.42-.4-2.46-1.32-3.38-4.12-3a24,24,0,0,1-12.12-1.1c-5.75-2.18-12-2.66-17.7-5a2.57,2.57,0,0,0-3.12,1c-4.46,5.87-11.08,9.2-16.49,14-2.93,2.58-6.82,3.81-10.64,4.62a28.71,28.71,0,0,0-7,2c-7.27,3.63-14.91,3.18-22.62,2.43-4-.38-8-.12-12-.45-5.23-.44-9.74-2.61-14.32-4.77A71.2,71.2,0,0,1,57.85,350.5,36.93,36.93,0,0,1,46,328.88a106.3,106.3,0,0,1-1.59-25c.29-5.48,2.37-10.62,3.75-15.89,2.45-9.32,7.19-17.45,13.33-24.8A21.27,21.27,0,0,1,67.69,258a3.09,3.09,0,0,0,1.7-3.61c-.48-3.59-.9-7.14-3.61-9.94a4.89,4.89,0,0,1-1-3.29,13.7,13.7,0,0,1,7.91-12.56c1-.44,2.57-.55,2.14-2.22-1.22-4.78,1-9.2,1.36-13.81.18-2.33.88-4.63.87-6.94,0-7.9,1.19-15.77.66-23.68-.3-4.47-.4-9-1.85-13.27-2.45-7.18-4.92-8.46-12.62-9.84-3.08-.56-6.19-.18-9.28-.49-6.57-.66-10.36-4.91-10.26-11.52.13-8.93,4-13.17,12.86-13.67A94.63,94.63,0,0,1,77,134.21a9.31,9.31,0,0,1,4.59,1.8c4,3.35,8.53,6.26,11.06,11.09a3,3,0,0,0,3,1.76c6.54,0,13.08.09,19.6-.57a8.79,8.79,0,0,0,6.13-3c6.21-7.2,12.73-14,21.67-18A11.45,11.45,0,0,0,146,125.4a32.73,32.73,0,0,1,12-7c4.93-1.56,4.84-1.81,4.8-6.87-.06-7.53.24-15.07-.16-22.57-.49-9.25-1.3-18.5-1-27.76a211.75,211.75,0,0,1,1.86-23.86,24.12,24.12,0,0,1,7.06-13.88c2.69-2.6,5.82-2.45,8.55.11a15.22,15.22,0,0,1,4.25,7.46c2.5,9.05,2.25,18.34,2.83,27.55C186.25,59.55,186.2,60.5,186.2,61.45ZM96.46,171.15c-.09,5.56.7,11.17-.14,16.66-1.75,11.4-2,14-.51,16.34,1.37-17.89,6.31-34.19,17.56-48.82-5,0-9.32,1-13.66.73-3.9-.21-3.91,0-3.74,3.93C96,163.72,95.48,167.46,96.46,171.15Zm13.52,139c.92,1.37,1.77,2.79,2.78,4.09,4.18,5.34,7.3,11.73,15.6,12.19,6.05.33,11.92,2.48,18,3.08,2.37.24,3.38-.61,3.43-3,.1-4.28-.14-8.57.54-12.83.37-2.37-1-3.42-3.22-3.52-5.15-.24-10.3-.42-15.46-.63-7.2-1.26-14.46-.36-21.69-.46C109.28,309.1,109.67,309.8,110,310.18Zm107.38,31c4,0,8,.12,12,.07,3.08,0,6.2.35,9.24-.53,1.85,0,3.71,0,5.56-.06,3.11-.11,6.23.3,9.31-.54,1.92-.52,2.72-1.15,2.1-3.43-1.22-4.51-4.14-7.89-7-11.26-1.49-1.75-3.73-2.35-6.36-1.88a171.57,171.57,0,0,1-18.41,2.54c-5.36,0-10.72-.07-16.08-.08-1.23,0-1.23,0-1.54,1.21.35,1,.65,2,1.07,3,1.1,2.57,2.93,5,3,7.8.08,4,2.13,4.27,5.18,3.53C216,341.38,216.69,341.29,217.35,341.17ZM115.11,303.76c5.67,1.1,11.4.39,17.1.46,5.7.55,11.39,1.09,17.08,1.67,1,.1,1.7.1,1.76-1.21.08-1.54.46-3.07.52-4.62.24-5.93.09-11.89.66-17.79.64-6.69-1.64-11.75-6.93-15.71-1.08-.81-1.45-.94-2.42.24-4.56,5.57-9.25,11-14,16.48-5,5.73-9.52,11.82-14.13,17.85C114.2,301.9,113,303.14,115.11,303.76Zm94.57,15.83a152.15,152.15,0,0,0,23-1.53c10.79-1.65,21.61-3.13,32.44-4.33,10-1.11,17.57-5.46,22.24-14.39,3.37-6.45,7.16-12.64,9.92-19.46,8.31-20.56,14-41.44,11.59-64-.91-8.43-1.34-16.88-4.2-25a69,69,0,0,1-3.43-12.66,33.62,33.62,0,0,0-2.68-8.59c-.86-1.95-1.91-2.47-3.76-1.43-6.28,3.54-13,6.08-19.67,8.78-7.1,2.88-14.08,6.14-21.46,8.21a179.54,179.54,0,0,1-28,5.64c-8.27.94-16.19.35-22.93-5.35-1.54-1.31-2.67-2.81-1.75-4.77a3.6,3.6,0,0,1,4.47-1.88c7.44,2,14.43.48,21.29-2.49a335.79,335.79,0,0,0,49.1-26.86c2.23-1.44,2.2-2.32.58-4.12-7.15-7.94-16.29-13-25.9-17a280,280,0,0,0-26.75-9.1c-7.57-2.29-15.6-2.36-23.32-4-8-1.65-15.39-.31-22.9,2.26-5.75,2-11,5-16.42,7.54-13.76,6.48-26.58,14.18-36.66,26.14-6.09,7.22-11.81,14.53-15.71,23.09-1.67,3.68-3.66,7.29-4.58,11.3-1.41,6.18-1.72,12.52-2.69,18.75-1.67,10.74-3.4,21.47-6.62,31.95-2.45,8-3.54,16.33-5.5,24.45-1.71,7.11,1.55,12.36,5.88,17.3a6.63,6.63,0,0,0,3,1.72c3.62,1.19,5.72-.23,5.83-4A25.49,25.49,0,0,0,104,272c-1.13-9.09,0-18.13.8-27.15.72-8.06,5.43-14.68,9-21.68A3.44,3.44,0,0,1,115,222a3,3,0,0,1,3.56,0c1.14.88,1.13,2.19.51,3.45-.35.69-.82,1.34-1.1,2.05-.41,1-1.68,2.07-.67,3.15.77.83,2,.27,3-.08a42.49,42.49,0,0,1,17-2,27.88,27.88,0,0,0,7-.07c8.71-1.61,16.55,1.12,24.31,4.47a4.71,4.71,0,0,1,2.35,2.11c2.09,3.89.08,12.32-4,14-4.91,2-6.35,5.71-6.5,10.34-.08,2.4-1.78,5.18-.2,7.12,2.69,3.3,4.2,7.19,6.47,10.62,5.42,8.18,5.31,17.14,4.4,26.17-.33,3.28-.55,6.59-1,9.86-.19,1.49.76,1.84,1.82,2.11A133.56,133.56,0,0,0,209.68,319.6ZM61.27,138.92a39.78,39.78,0,0,0-4.39,0c-2.65.3-5.22.87-6.59,3.6-2.44,4.87,1.23,10.2,7.25,10.39a79.82,79.82,0,0,1,14.74,1.75,7.63,7.63,0,0,1,5.78,4.48c2.38,5.67,4.5,11.57,4.81,17.66a205.69,205.69,0,0,1-2.57,45.39,9.53,9.53,0,0,0,0,4,2.75,2.75,0,0,0,2.89,2.34c1.83,0,2.31-1.24,2.61-2.6a23.79,23.79,0,0,0,.63-4.33c.34-10.27,2.43-20.36,3.57-30.54A147.52,147.52,0,0,0,89.78,158a19.06,19.06,0,0,0-5.28-11C78,140.34,70,138.83,61.27,138.92ZM220.8,184.19c9.66.35,18.91-1.67,28.12-3.62s17.49-6.47,26.11-9.95a182.4,182.4,0,0,0,26.19-12.81c4.09-2.47,7-5.73,9.89-9.25,1.87-2.32,1.43-4-1.17-5.48a12,12,0,0,0-3.24-1.25c-5.22-1.17-9.92.59-14.08,3.37-6.8,4.55-14.2,8.1-20.72,13.11-2.21,1.7-4.25,3.76-6.7,5-13.17,6.84-26.53,13.27-40.22,19C223.58,182.94,222.19,183.58,220.8,184.19Zm-51.58-69.63a76,76,0,0,1,7.43-3.25c2.36-.75,3.13-2,3.14-4.45.09-14.14.14-28.28,1.15-42.4.65-9.19-.87-18.29-1.42-27.42a11,11,0,0,0-2.16-6.28c-1-1.23-2.18-2.64-3.77-2.48-1.81.19-2.59,2-3,3.59-.78,2.7-1.36,5.47-1.92,8.23-1.08,5.35-.11,10.92-1.77,16.21a11.82,11.82,0,0,0-.48,4.34c.77,12,1.41,24.11,2.33,36.14C169.15,102.61,169.18,108.44,169.21,114.56ZM63.67,304.06H59c-3.66,0-4.32,2.14-4.74,5.79-.07.58-.08,1.95-.07,2.53A56.41,56.41,0,0,0,58.88,334c2.06,4.66,4.73,8.6,8.8,11.53,1.86,1.33,3.21,1.1,4.44-.65,1.12-1.59,2.16-3.2,3.41-4.7,4.12-4.94,8.29-9.82,12.5-14.68,1.17-1.35,1-2.33-.63-2.78-4.86-1.33-8.24-6.17-10.54-10.3C73.86,307,70.14,304.06,63.67,304.06Zm44.55-14.81c0,4.25,0,7.08,0,9.91a1.82,1.82,0,0,0,.4,1.29c.63.48,1-.23,1.43-.57,2-1.62,3-4,4.71-5.94,8-9.14,14.28-19.51,21.94-28.87,1.39-1.69,1.28-2.81-1-3.62-6.27-2.2-12.81-3.18-19.33-4-6.75-.82-7.72.42-7.54,7.16,0,.29,0,.59,0,.88C109.52,273.92,108,282.27,108.21,289.25ZM205,59a35.73,35.73,0,0,0-1.25-9.52,4,4,0,0,0-3.61-3c-1.46-.17-2.31,1.12-2.81,2.22-3.23,7.18-6.36,14.41-8.25,22.08-1.06,4.3.1,8.76-1,13.08a23.65,23.65,0,0,0-1,6.9c.28,4.86-.41,9.66-.48,14.49,0,1-.84,2.37.42,2.86a3.81,3.81,0,0,0,3.76-1,6.17,6.17,0,0,0,1.47-2.81c2.84-8.17,5.57-16.38,8.49-24.53C203,73.08,205.09,66.23,205,59ZM121.36,235.68c-1.47,0-2.93,0-4.39,0a3,3,0,0,0-2.89,1.62,32.82,32.82,0,0,0-2.8,7c-.31,1.09-.13,1.94,1.32,1.93a202.42,202.42,0,0,1,23.47,1.44c6.62.73,13.52-1,20.35-1.07a13.05,13.05,0,0,0,6.21-1.41c3.1-1.69,3.53-4.55.75-6.75a19.86,19.86,0,0,0-14.76-4.4C139.55,235,130.55,236.9,121.36,235.68ZM107.08,358.31a30.78,30.78,0,0,0,8.33-1.84c5.63-1.77,11.55-2.74,16.59-6.19,1.87-1.28,2.27-2.32.66-4.11-1.88-2.1-3.5-4.43-5.34-6.57-1.26-1.46-2.42-3.09-4.41-3.71-5-1.56-10-3.09-15-4.72-1.6-.53-2.07-.11-2.07,1.51,0,7.59-.41,15.16-1.12,22.72C104.53,357.52,105.17,358.65,107.08,358.31Zm-12.54-.07c3.34.06,4.24-.8,4.3-3.71.14-7.48-.62-15,1.26-22.4.37-1.45,1.32-3.11-.94-3.91s-4.12-2.39-6.35.47c-4.31,5.52-9.06,10.7-13.53,16.1-4.64,5.6-4.58,5.63,2.18,8.9C85.76,355.78,90.13,357.65,94.54,358.24ZM308,270.15c-1.53.74-1.68,1.95-2.16,3-6.35,13.85-10.07,29-20.22,41-.43.51-.68,1.18-1.07,1.74a1.66,1.66,0,0,0,0,2.14,12.79,12.79,0,0,1,2.57,8.19c0,.67.27,1.74,1.08,1.21,3.84-2.53,8.66-3.91,10.63-8.71a44.66,44.66,0,0,0,2.9-9.14q2.69-15.17,5.22-30.38C307.47,276.18,307.67,273.16,308,270.15Zm8.89,6.82a2.76,2.76,0,0,0-1.12,2q-2.62,14.78-5.19,29.56c-.36,2.1.75,2.72,2.67,2.78,4.48.15,9,.06,13.41.78,3.24.53,3.54-.71,3.29-3.19a65.26,65.26,0,0,0-7.53-25.28A20.86,20.86,0,0,0,316.89,277ZM193.13,342.5c-.85-7.46-4.75-12.65-9.91-17a5.7,5.7,0,0,0-3-1.14c-3.53-.37-6.91-1-9.63-3.56-.54-.51-1.58-1.11-1.84.08-1.1,5-4.58,8.75-6.34,13.37-.55,1.44-.24,2.78,1.09,3.19,3.23,1,6.19,2.6,9.55,3.39,5.82,1.38,12,.76,17.59,3.07C192.32,344.53,192.88,343.37,193.13,342.5Zm93.78-.57c.67,5.54,1,9.89,1.82,14.19.47,2.38,1.68,2.59,3.54,1.87,2.18-.85,4.39-1.63,6.48-2.65,4.72-2.28,9.72-4.1,13.33-8.21,1.15-1.31,2.1-2.73.18-3.86-4.15-2.42-6.87-6.27-10.16-9.55-.61-.61-1-1.19-2.15-.58a101.57,101.57,0,0,1-9.28,4.23C288,338.46,286.36,340,286.91,341.93Zm42.44-23.5c-.13-1.43-1-1.77-2.22-1.81-5.25-.19-10.51-.38-15.76-.61a2.92,2.92,0,0,0-3.17,2c-1.33,3.14-2.77,6.23-4.19,9.32-.38.83-.89,1.71.1,2.34,4.56,2.89,7.14,7.65,10.78,11.39,1.22,1.25,2.06.75,2.87-.29a82.71,82.71,0,0,0,5.4-7.26C326,328.84,327.27,323.45,329.35,318.43ZM200.56,108.32c1.62.62,2.57-.39,3.09-2.13a9.64,9.64,0,0,1,2.92-4.65c4.46-3.81,7.16-9.23,11.87-12.81a4,4,0,0,0,.94-1.46,46.76,46.76,0,0,0,4.46-12.87c.16-.93,1-2.1.11-2.73s-2.12.17-2.95.71c-3.55,2.28-6.32,5.47-9.49,8.2a19.74,19.74,0,0,0-5.7,7.28c-2.51,6-5.15,12-7.77,17.91C197,108.16,198.34,108.45,200.56,108.32ZM69,271.88a20.57,20.57,0,0,0-6.5,8.58c-1.58,4.08-2.76,8.3-4.67,12.26a16.08,16.08,0,0,0-1.31,6c-.1,1.48.34,2.1,1.92,2.14,2.91.07,5.83.22,8.73.54,2.59.28,3.44-.46,3.62-3.28C71.34,289.42,68.41,281.11,69,271.88Zm203.43,82.92c-.4-3.63-.29-8.12-2.2-12.35-2.67-5.89-6.08-11.46-7.63-17.84a3.92,3.92,0,0,0-3.06-3.19c-2.73-.58-3.5.21-2.72,2.87,2.51,8.56,5,17.13,7.6,25.67.76,2.5,1.33,5.09,2.69,7.38,1,1.64,1.86,4.07,4,3.51s1.2-3,1.29-4.65C272.42,356,272.41,355.8,272.41,354.79ZM77.92,279.7A16.14,16.14,0,0,0,78,284c.16,5.17,3.43,9.83,2.26,15.25-.51,2.34,1.27,3.14,3.4,3.33,3.87.35,7.73.78,11.58,1.25,1.13.14,2.57,1,3.27,0s-.59-2.29-1.12-3.38a17.78,17.78,0,0,0-1.44-2.2c-3.47-5-8.35-8.74-12.28-13.35C82.06,283,80.94,280.47,77.92,279.7Zm24.31,19.93a43.33,43.33,0,0,1,2.19-8.13,9.35,9.35,0,0,0,.11-3.77c-.19-1.55-1-2.57-2.8-1.9a6.35,6.35,0,0,1-3.73-.05c-7.07-1.63-10.42-6.94-13.24-12.95-1.7-3.62-.69-7.29-.43-11.2-1.88.64-3.44,1.15-5,1.69-3.44,1.2-4.2,2.64-3.21,6.16a10.07,10.07,0,0,0,2.4,3.94C85.29,281,93.32,287.36,99,295.9A43.22,43.22,0,0,0,102.23,299.63Zm90.6,27.11c2,1.87,2.42,3.87,2.94,5.85,1.31,5,2.57,10,4.09,14.92,1.34,4.34,2.11,8.94,4.9,12.74.77,1,1.64,2.16,3.05,1.67s1.22-1.8,1.26-3c.32-10.54-3.38-19.86-8.73-28.66C198.84,327.78,196.57,326.4,192.83,326.74ZM76.95,234.42c-1.47.24-2.67-.28-3.67.72a6.33,6.33,0,0,0,2.34,10.66c2.27.82,4.65,1.37,7,2,2.86.73,4,0,4.33-3a20.74,20.74,0,0,1,1.54-6.19c.87-2,.22-3.33-2-3.37A49.55,49.55,0,0,1,76.95,234.42Zm204.83,95c-.49-2.38.3-5.21-1.8-7.09-3.06-2.73-6.43-4.56-10.8-2.8-1.33.54-1.88.87-1.24,2.37,1.59,3.73,3,7.54,4.55,11.3,1.37,3.4,1.37,3.39,4.81,1.72C279.64,333.79,282.46,333.06,281.78,329.43ZM318,248.55c5.28,0,8.63-3.22,8.38-8-.14-2.84-3.5-5.65-7.68-6.51-2-.42-3.12.25-3.4,2.37-.34,2.6-.86,5.18-1.22,7.78C313.51,248.55,313.54,248.55,318,248.55ZM260.18,359.46c-.79-2.85-1.43-5.25-2.12-7.64-1.64-5.66-1.65-5.66-7.42-5.36a18.4,18.4,0,0,1-2,0c-2.07-.13-2.28.82-1.6,2.5C249.35,354.83,254,357.64,260.18,359.46Zm-174-51.52c-2.48-.17-2.59-.11-2.28,1.12,1,4.15,4.62,6.89,10.35,7.47,3.69.38,4.44-3.23,6.28-5.28.93-1,.88-2.13-1-2.27C95.08,308.7,90.65,308.3,86.21,307.94Zm197.4,42.89a46.46,46.46,0,0,0-.47-7c-.67-3.72-.51-3.62-4.23-2.53-2.25.66-2.7,1.54-1.72,3.73a23.91,23.91,0,0,1,2,12.54c-.11,1-1,2.24.9,2.42,1.28.12,2.46.17,2.93-1.6A30.42,30.42,0,0,0,283.61,350.83ZM157.69,283c0,7.13,0,13.42,0,19.71a10.16,10.16,0,0,0,.48,2.28,2.29,2.29,0,0,0,2.73,2c1.51-.24,1.31-1.54,1.18-2.56-.4-3.29-.28-6.63-.7-9.89C160.93,290.83,160.85,286.82,157.69,283Zm-5-27.27c0-3.26-.15-3.39-4-3-1.25.12-2.94.11-3.26,1.4-.26,1.08,1.46,1.31,2.29,1.93a9.32,9.32,0,0,0,2,1.19c.85.35,1.6,1.51,2.56.9C153.11,257.64,152.57,256.5,152.7,255.74Zm-40,66.6c-.77-2.2-2.37-3.78-3.53-5.61a1.21,1.21,0,0,0-1.49-.62c-.73.26-.58.91-.63,1.47C106.83,320,108.78,321.65,112.68,322.34Zm22.07,17.54c.53,2.13,1.93,3,2.81,4.22s1.86.86,2.84.4c.66-.31,1.74-.59,1.6-1.43-.18-1.07-1.44-1-2.3-1.35ZM159,312c-2.37,2.43-1.22,5-1,7.54C158.9,317.12,160.9,314.87,159,312Z"/><path class="cls-4" d="M209.68,319.6A133.56,133.56,0,0,1,172,315.27c-1.07-.27-2-.63-1.82-2.11.43-3.27.65-6.58,1-9.86.91-9,1-18-4.4-26.17-2.27-3.43-3.78-7.33-6.47-10.62-1.58-1.94.13-4.72.2-7.12.15-4.64,1.58-8.31,6.5-10.34,4.05-1.67,6.06-10.1,4-14a4.71,4.71,0,0,0-2.35-2.11c-7.76-3.35-15.59-6.08-24.31-4.47a27.88,27.88,0,0,1-7,.07,42.49,42.49,0,0,0-17,2c-1,.35-2.26.91-3,.08-1-1.08.26-2.13.67-3.15.29-.72.76-1.36,1.1-2.05.63-1.26.63-2.57-.51-3.45a3,3,0,0,0-3.56,0,3.44,3.44,0,0,0-1.23,1.23c-3.54,7-8.25,13.61-9,21.68-.8,9-1.92,18.06-.8,27.15a25.49,25.49,0,0,1,.06,3.8c-.1,3.79-2.2,5.22-5.83,4a6.63,6.63,0,0,1-3-1.72c-4.33-4.95-7.59-10.19-5.88-17.3,2-8.12,3.05-16.49,5.5-24.45,3.22-10.48,4.95-21.21,6.62-31.95,1-6.23,1.28-12.57,2.69-18.75.92-4,2.9-7.62,4.58-11.3,3.9-8.56,9.62-15.87,15.71-23.09,10.08-12,22.9-19.66,36.66-26.14,5.44-2.56,10.67-5.56,16.42-7.54,7.51-2.57,14.94-3.92,22.9-2.26,7.72,1.61,15.74,1.68,23.32,4a280,280,0,0,1,26.75,9.1c9.61,4,18.75,9.06,25.9,17,1.62,1.8,1.64,2.68-.58,4.12a335.79,335.79,0,0,1-49.1,26.86c-6.86,3-13.85,4.48-21.29,2.49a3.6,3.6,0,0,0-4.47,1.88c-.92,2,.21,3.47,1.75,4.77,6.74,5.7,14.66,6.29,22.93,5.35a179.54,179.54,0,0,0,28-5.64C261,183.21,268,180,275.1,177.07c6.64-2.7,13.39-5.24,19.67-8.78,1.85-1,2.9-.52,3.76,1.43a33.62,33.62,0,0,1,2.68,8.59A69,69,0,0,0,304.64,191c2.86,8.08,3.29,16.53,4.2,25,2.45,22.52-3.28,43.4-11.59,64-2.76,6.81-6.54,13-9.92,19.46-4.68,8.94-12.23,13.29-22.24,14.39-10.83,1.2-21.65,2.68-32.44,4.33A152.15,152.15,0,0,1,209.68,319.6ZM184.52,153.86c0-4-1.72-6.5-4.39-6.43-3.09.08-7.3,4.67-7.39,8.06-.06,2.3,2,4,4.75,4C182,159.43,184.56,157.37,184.52,153.86Zm28.43,1c0,3,2.51,5.83,5.06,5.76,2.94-.08,7-3.06,7-5.07-.12-3.07-3.54-5.72-7.34-5.68A5,5,0,0,0,213,154.83Z"/><path class="cls-5" d="M61.27,138.92C70,138.83,78,140.34,84.5,147a19.06,19.06,0,0,1,5.28,11A147.52,147.52,0,0,1,90,191.15c-1.14,10.18-3.23,20.27-3.57,30.54a23.79,23.79,0,0,1-.63,4.33c-.3,1.36-.78,2.64-2.61,2.6a2.75,2.75,0,0,1-2.89-2.34,9.53,9.53,0,0,1,0-4,205.69,205.69,0,0,0,2.57-45.39c-.31-6.09-2.43-12-4.81-17.66a7.63,7.63,0,0,0-5.78-4.48,79.82,79.82,0,0,0-14.74-1.75c-6-.19-9.7-5.52-7.25-10.39,1.37-2.73,3.94-3.3,6.59-3.6A39.78,39.78,0,0,1,61.27,138.92Z"/><path class="cls-6" d="M220.8,184.19c1.4-.61,2.79-1.25,4.19-1.84,13.68-5.75,27.05-12.17,40.22-19,2.44-1.27,4.49-3.33,6.7-5,6.52-5,13.93-8.56,20.72-13.11,4.16-2.79,8.86-4.54,14.08-3.37a12,12,0,0,1,3.24,1.25c2.6,1.47,3,3.16,1.17,5.48-2.85,3.53-5.8,6.79-9.89,9.25A182.4,182.4,0,0,1,275,170.62c-8.62,3.48-17,8-26.11,9.95S230.46,184.54,220.8,184.19Z"/><path class="cls-7" d="M169.21,114.56c0-6.13-.06-12-.51-17.78-.92-12-1.56-24.09-2.33-36.14a11.82,11.82,0,0,1,.48-4.34c1.66-5.29.69-10.86,1.77-16.21.55-2.76,1.13-5.53,1.92-8.23.45-1.58,1.23-3.41,3-3.59,1.59-.16,2.79,1.25,3.77,2.48A11,11,0,0,1,179.52,37c.55,9.14,2.07,18.23,1.42,27.42-1,14.12-1.06,28.26-1.15,42.4,0,2.47-.79,3.7-3.14,4.45A76,76,0,0,0,169.21,114.56Z"/><path class="cls-8" d="M115.11,303.76c-2.12-.62-.91-1.86-.32-2.63,4.61-6,9.14-12.12,14.13-17.85,4.73-5.44,9.41-10.91,14-16.48,1-1.18,1.34-1,2.42-.24,5.29,4,7.57,9,6.93,15.71-.57,5.89-.43,11.85-.66,17.79-.06,1.54-.44,3.07-.52,4.62-.07,1.31-.78,1.31-1.76,1.21-5.69-.57-11.39-1.11-17.08-1.67a2.31,2.31,0,0,0-1.91-.49Z"/><path class="cls-8" d="M108.21,289.25c-.26-7,1.3-15.33.58-23.72,0-.29,0-.59,0-.88-.18-6.74.79-8,7.54-7.16,6.52.78,13.06,1.76,19.33,4,2.32.82,2.43,1.93,1,3.62-7.67,9.35-14,19.73-21.94,28.87-1.66,1.91-2.68,4.32-4.71,5.94-.43.35-.8,1.06-1.43.57a1.82,1.82,0,0,1-.4-1.29C108.2,296.33,108.21,293.5,108.21,289.25Z"/><path class="cls-8" d="M223.75,326.09a171.57,171.57,0,0,0,18.41-2.54c2.63-.47,4.88.13,6.36,1.88,2.86,3.37,5.78,6.75,7,11.26.62,2.28-.19,2.91-2.1,3.43-3.08.84-6.2.42-9.31.54-1.85.07-3.7,0-5.56.06-5.56,0-11.11-.08-16.67,0-1.51,0-3.12-.5-4.54.48-.67.12-1.34.2-2,.36-3.05.74-5.1.5-5.18-3.53-.05-2.81-1.88-5.23-3-7.8-.42-1-.72-2-1.07-3,1-1.08,2.37-.52,3.57-.61C214.37,326.26,219.1,327.23,223.75,326.09Z"/><path class="cls-9" d="M205,59c.14,7.24-1.92,14.09-4.3,20.76-2.91,8.15-5.64,16.36-8.49,24.53a6.17,6.17,0,0,1-1.47,2.81,3.81,3.81,0,0,1-3.76,1c-1.26-.49-.43-1.86-.42-2.86.08-4.83.76-9.63.48-14.49a23.65,23.65,0,0,1,1-6.9c1.09-4.32-.07-8.79,1-13.08,1.89-7.68,5-14.91,8.25-22.08.5-1.1,1.34-2.39,2.81-2.22a4,4,0,0,1,3.61,3A35.73,35.73,0,0,1,205,59Z"/><path class="cls-8" d="M131.66,309.57c5.16.21,10.31.4,15.46.63,2.19.1,3.59,1.15,3.22,3.52-.67,4.26-.43,8.55-.54,12.83-.05,2.38-1.06,3.23-3.43,3-6.09-.61-12-2.75-18-3.08-8.31-.46-11.43-6.85-15.6-12.19-1-1.29-1.86-2.72-2.78-4.09.84-1,2-.59,3-.59C119.21,309.55,125.44,309.57,131.66,309.57Z"/><path class="cls-5" d="M121.36,235.68c9.19,1.22,18.18-.64,27.25-1.6a19.86,19.86,0,0,1,14.76,4.4c2.78,2.2,2.35,5.07-.75,6.75a13.05,13.05,0,0,1-6.21,1.41c-6.83,0-13.73,1.8-20.35,1.07a202.42,202.42,0,0,0-23.47-1.44c-1.44,0-1.63-.84-1.32-1.93a32.82,32.82,0,0,1,2.8-7,3,3,0,0,1,2.89-1.62C118.43,235.7,119.9,235.68,121.36,235.68Z"/><path class="cls-10" d="M308,270.15c-.33,3-.53,6-1,9q-2.52,15.2-5.22,30.38a44.66,44.66,0,0,1-2.9,9.14c-2,4.8-6.8,6.19-10.63,8.71-.8.53-1.1-.54-1.08-1.21a12.79,12.79,0,0,0-2.57-8.19,1.66,1.66,0,0,1,0-2.14c.39-.56.63-1.23,1.07-1.74,10.15-12,13.87-27.12,20.22-41C306.32,272.1,306.47,270.89,308,270.15Z"/><path class="cls-8" d="M193.13,342.5c-.24.87-.8,2-2.46,1.35-5.64-2.31-11.77-1.69-17.59-3.07-3.35-.79-6.32-2.4-9.55-3.39-1.32-.41-1.63-1.75-1.09-3.19,1.76-4.62,5.24-8.41,6.34-13.37.26-1.19,1.3-.59,1.84-.08,2.72,2.56,6.1,3.19,9.63,3.56a5.7,5.7,0,0,1,3,1.14C188.38,329.85,192.28,335,193.13,342.5Z"/><path class="cls-9" d="M200.56,108.32c-2.21.13-3.57-.15-2.51-2.55,2.62-6,5.26-11.91,7.77-17.91a19.74,19.74,0,0,1,5.7-7.28c3.17-2.73,5.95-5.92,9.49-8.2.83-.54,2-1.38,2.95-.71s0,1.8-.11,2.73a46.76,46.76,0,0,1-4.46,12.87,4,4,0,0,1-.94,1.46c-4.71,3.57-7.41,9-11.87,12.81a9.64,9.64,0,0,0-2.92,4.65C203.13,107.93,202.18,108.94,200.56,108.32Z"/><path class="cls-10" d="M96,160c-.17-4-.16-4.14,3.74-3.93,4.34.24,8.62-.72,13.66-.73-11.25,14.63-16.2,30.93-17.56,48.82-1.53-2.32-1.24-4.93.51-16.34.84-5.5.06-11.11.14-16.66C96.23,167.43,97.05,163.67,96,160Z"/><path class="cls-11" d="M272.41,354.79c0,1,0,1.21,0,1.4-.08,1.69.77,4.13-1.29,4.65s-3.06-1.86-4-3.51c-1.37-2.29-1.93-4.88-2.69-7.38-2.59-8.54-5.09-17.11-7.6-25.67-.78-2.67,0-3.45,2.72-2.87a3.92,3.92,0,0,1,3.06,3.19c1.56,6.38,5,11.95,7.63,17.84C272.13,346.67,272,351.16,272.41,354.79Z"/><path class="cls-10" d="M77.92,279.7c3,.77,4.14,3.26,5.73,5.13,3.92,4.61,8.81,8.33,12.28,13.35a17.78,17.78,0,0,1,1.44,2.2c.53,1.09,1.91,2.22,1.12,3.38s-2.14.17-3.27,0c-3.85-.47-7.71-.9-11.58-1.25-2.13-.19-3.91-1-3.4-3.33,1.17-5.42-2.1-10.08-2.26-15.25A16.14,16.14,0,0,1,77.92,279.7Z"/><path class="cls-10" d="M102.23,299.63A43.22,43.22,0,0,1,99,295.9c-5.66-8.54-13.69-14.93-20.43-22.48a10.07,10.07,0,0,1-2.4-3.94c-1-3.51-.23-5,3.21-6.16,1.55-.54,3.1-1.05,5-1.69-.26,3.9-1.28,7.57.43,11.2,2.82,6,6.17,11.32,13.24,12.95a6.35,6.35,0,0,0,3.73.05c1.84-.67,2.61.35,2.8,1.9a9.35,9.35,0,0,1-.11,3.77A43.33,43.33,0,0,0,102.23,299.63Z"/><path class="cls-11" d="M192.83,326.74c3.74-.34,6,1,7.52,3.52,5.34,8.8,9,18.12,8.73,28.66,0,1.21,0,2.55-1.26,3s-2.29-.63-3.05-1.67c-2.79-3.8-3.55-8.4-4.9-12.74-1.53-4.92-2.79-9.93-4.09-14.92C195.25,330.6,194.83,328.61,192.83,326.74Z"/><path class="cls-5" d="M76.95,234.42a49.55,49.55,0,0,0,9.52.79c2.24,0,2.88,1.35,2,3.37a20.74,20.74,0,0,0-1.54,6.19c-.31,3-1.47,3.73-4.33,3-2.35-.59-4.73-1.14-7-2a6.33,6.33,0,0,1-2.34-10.66C74.28,234.14,75.48,234.67,76.95,234.42Z"/><path class="cls-10" d="M281.78,329.43c.68,3.64-2.14,4.36-4.48,5.5-3.44,1.68-3.44,1.69-4.81-1.72-1.51-3.77-3-7.57-4.55-11.3-.64-1.5-.09-1.83,1.24-2.37,4.37-1.77,7.74.06,10.8,2.8C282.07,324.21,281.29,327,281.78,329.43Z"/><path class="cls-5" d="M318,248.55c-4.48,0-4.52,0-3.91-4.42.35-2.6.88-5.18,1.22-7.78.28-2.11,1.37-2.79,3.4-2.37,4.18.86,7.53,3.67,7.68,6.51C326.66,245.34,323.3,248.55,318,248.55Z"/><path class="cls-10" d="M86.21,307.94c4.44.36,8.87.75,13.31,1.06,1.91.13,2,1.23,1,2.27-1.83,2-2.59,5.65-6.28,5.28-5.72-.59-9.32-3.33-10.35-7.47C83.62,307.83,83.73,307.77,86.21,307.94Z"/><path class="cls-12" d="M157.69,283c3.16,3.81,3.24,7.82,3.72,11.55.42,3.26.3,6.6.7,9.89.12,1,.32,2.32-1.18,2.56a2.29,2.29,0,0,1-2.73-2,10.16,10.16,0,0,1-.48-2.28C157.67,296.43,157.69,290.14,157.69,283Z"/><path class="cls-13" d="M152.7,255.74c-.13.76.41,1.89-.36,2.39-1,.62-1.71-.55-2.56-.9a9.32,9.32,0,0,1-2-1.19c-.83-.62-2.55-.85-2.29-1.93.32-1.3,2-1.29,3.26-1.4C152.54,252.36,152.69,252.48,152.7,255.74Z"/><path class="cls-13" d="M112.68,322.34c-3.89-.69-5.84-2.37-5.65-4.76,0-.56-.1-1.21.63-1.47a1.21,1.21,0,0,1,1.49.62C110.31,318.57,111.9,320.14,112.68,322.34Z"/><path class="cls-14" d="M131.66,309.57c-6.22,0-12.45,0-18.68,0-1,0-2.17-.4-3,.59-.3-.37-.69-1.08,0-1.07C117.21,309.21,124.46,308.31,131.66,309.57Z"/><path class="cls-15" d="M159,312c1.87,2.91-.13,5.16-1,7.54C157.81,317,156.67,314.4,159,312Z"/><path class="cls-14" d="M217.35,341.17c1.42-1,3-.46,4.54-.48,5.55-.05,11.11,0,16.67,0-3,.88-6.15.49-9.24.53C225.33,341.3,221.34,341.2,217.35,341.17Z"/><path class="cls-14" d="M223.75,326.09c-4.65,1.14-9.38.18-14.05.52-1.2.09-2.53-.47-3.57.61.31-1.16.31-1.21,1.54-1.21C213,326,218.39,326.06,223.75,326.09Z"/><path class="cls-14" d="M115.11,303.76l15.19,0a2.31,2.31,0,0,1,1.91.49C126.51,304.15,120.78,304.86,115.11,303.76Z"/><path class="cls-14" d="M96,160c1.08,3.68.26,7.44.49,11.15C95.48,167.46,96,163.72,96,160Z"/><path class="cls-3" d="M184.52,153.86c0,3.5-2.55,5.57-7,5.61-2.77,0-4.81-1.69-4.75-4,.09-3.39,4.3-8,7.39-8.06C182.8,147.36,184.47,149.82,184.52,153.86Z"/><path class="cls-3" d="M213,154.83a5,5,0,0,1,4.69-5c3.8,0,7.22,2.6,7.34,5.68.07,2-4,5-7,5.07C215.46,160.65,213,157.85,213,154.83Z"/></g><path class="cls-3" d="M186.42,60.23a82.17,82.17,0,0,1,7.36-15.78c1.75-2.82,3.79-5.39,7.47-5.58a8.17,8.17,0,0,1,8.22,7.23c1.25,8,1.65,16.11-.45,24.11-.44,1.68-1.26,3.29-1,5.74,3.61-4.43,8.18-6.81,12.53-9.49a11.55,11.55,0,0,1,6.68-2.11c2.45.1,3.29,1.19,3.26,3.54-.2,14-7.12,24.51-17.07,33.54a24.39,24.39,0,0,0-2.89,3.38c-3.22,4.25-3.24,4.58,2.18,5.22,15.29,1.82,29.64,6.89,43.76,12.57,7.5,3,14.73,6.84,20.71,12.52a15.14,15.14,0,0,0,4.58,2.73,7.2,7.2,0,0,1,4,3.36c.81,1.68,1.83,1.76,3.26.78,4.35-3,8.84-5.54,14.31-6a29.25,29.25,0,0,1,12.32,1c2.44.84,3.53,2.74,4.2,5,1.85,6.28-.19,11.25-5.2,15.2-2.72,2.14-5.4,4.34-8.16,6.43a2,2,0,0,0-.74,3c3.43,7,4.85,14.75,8.29,21.85,1.85,3.82,2.13,8.73,3,13.17,1.61,8.14.38,16.38,1.57,24.49a2.42,2.42,0,0,0,1.87,2.28c2.45.8,4.9,1.59,7.3,2.52,7.49,2.89,10.19,10.82,6,17.72-1.28,2.11-2.83,4.06-4.28,6.07s-3.4,2.34-5.54,2.18-3.28.28-3.77,3c-.74,4.19.29,7,3.31,10,7.9,7.76,12.9,17.37,16.71,27.68,1.69,4.57,3.2,9.1,3.52,14,.7,10.84-2.89,20.46-8.66,29.33a119.58,119.58,0,0,1-13.89,17.36c-8.27,8.65-18.75,12.78-30.2,14.54-7.3,1.12-14.83,2.27-22.15.62-9.24-2.09-18.61-4.23-25-12.34a38.64,38.64,0,0,1-5.43-9.14c-.85-2-1.89-2.87-4.15-2.92-6-.13-12.05.81-18.11.43-1.81-.12-1,1.28-.82,2.12,1,4.23,1.76,8.37,1,12.85-.9,5.36-4.74,7.47-8.89,9.39-1.78.82-3.25-.49-4.32-1.86-4.14-5.26-7.55-10.9-8.65-17.65-.41-2.49-1.34-3.43-4.19-3A24.4,24.4,0,0,1,178,350.15c-5.84-2.21-12.17-2.69-18-5a2.62,2.62,0,0,0-3.17,1c-4.53,6-11.26,9.32-16.75,14.15-3,2.62-6.92,3.86-10.81,4.68a29.23,29.23,0,0,0-7.12,2c-7.38,3.68-15.15,3.22-23,2.47-4-.39-8.11-.12-12.18-.46-5.32-.44-9.89-2.64-14.55-4.83a72.35,72.35,0,0,1-16.43-11A37.4,37.4,0,0,1,44,331.22a107.44,107.44,0,0,1-1.62-25.3c.29-5.55,2.41-10.76,3.81-16.1,2.48-9.44,7.3-17.68,13.55-25.13A21.6,21.6,0,0,1,66,259.37a3.13,3.13,0,0,0,1.73-3.66c-.49-3.64-.91-7.23-3.67-10.07a5,5,0,0,1-1-3.34,13.88,13.88,0,0,1,8-12.73c1-.44,2.61-.55,2.17-2.25-1.24-4.85,1-9.32,1.38-14,.18-2.36.89-4.69.88-7,0-8,1.21-16,.67-24-.3-4.53-.4-9.11-1.88-13.45-2.49-7.28-5-8.57-12.82-10-3.13-.56-6.29-.18-9.43-.49-6.67-.67-10.52-5-10.43-11.67.13-9.05,4.07-13.35,13.07-13.85A96.38,96.38,0,0,1,75.44,134a9.47,9.47,0,0,1,4.66,1.82c4.09,3.4,8.66,6.34,11.24,11.24a3,3,0,0,0,3.07,1.78c6.65,0,13.29.09,19.91-.58a8.94,8.94,0,0,0,6.23-3c6.31-7.29,12.93-14.23,22-18.2a11.63,11.63,0,0,0,3-2A33.27,33.27,0,0,1,157.76,118c5-1.58,4.92-1.83,4.88-7-.06-7.63.24-15.27-.16-22.87-.5-9.37-1.32-18.75-1-28.13a214,214,0,0,1,1.89-24.18,24.42,24.42,0,0,1,7.17-14.06c2.74-2.64,5.91-2.48,8.69.11a15.41,15.41,0,0,1,4.31,7.56c2.54,9.17,2.29,18.58,2.87,27.92C186.46,58.31,186.42,59.27,186.42,60.23ZM95.25,171.39c-.09,5.63.71,11.32-.15,16.88-1.78,11.56-2.07,14.2-.52,16.55C96,186.7,101,170.19,112.43,155.36c-5.12,0-9.46,1-13.88.74-4-.21-4,0-3.8,4C94.77,163.86,94.25,167.66,95.25,171.39ZM109,312.27c.94,1.38,1.8,2.83,2.82,4.14,4.24,5.41,7.41,11.88,15.85,12.35,6.15.33,12.11,2.51,18.3,3.13,2.41.24,3.43-.62,3.49-3,.1-4.34-.14-8.68.55-13,.38-2.4-1-3.46-3.27-3.56-5.23-.24-10.47-.43-15.71-.64-7.32-1.27-14.69-.36-22-.47C108.27,311.17,108.67,311.89,109,312.27Zm109.08,31.41c4.05,0,8.11.13,12.16.07,3.13,0,6.3.36,9.38-.54,1.88,0,3.77,0,5.65-.06,3.16-.12,6.32.31,9.46-.54,1.95-.53,2.76-1.16,2.13-3.47-1.24-4.57-4.21-8-7.12-11.41-1.51-1.77-3.79-2.38-6.46-1.91a174.73,174.73,0,0,1-18.71,2.57c-5.45,0-10.89-.07-16.34-.08-1.25,0-1.25,0-1.57,1.23.36,1,.66,2,1.09,3,1.11,2.6,3,5.05,3,7.9.08,4.08,2.16,4.32,5.26,3.58C216.7,343.88,217.39,343.79,218.06,343.68ZM114.19,305.77c5.76,1.12,11.58.39,17.37.46,5.79.56,11.57,1.11,17.35,1.69,1,.1,1.73.1,1.79-1.23.08-1.56.47-3.12.53-4.68.24-6,.1-12.05.67-18,.65-6.78-1.66-11.9-7-15.92-1.1-.82-1.47-1-2.45.24-4.64,5.64-9.4,11.19-14.2,16.7-5.06,5.81-9.67,12-14.35,18.09C113.27,303.88,112,305.14,114.19,305.77Zm96.08,16a155,155,0,0,0,23.34-1.55c11-1.67,22-3.17,33-4.39,10.17-1.12,17.85-5.53,22.6-14.58,3.43-6.53,7.27-12.81,10.07-19.71,8.44-20.83,14.26-42,11.77-64.81-.93-8.54-1.36-17.1-4.27-25.29a69.73,69.73,0,0,1-3.49-12.82,34,34,0,0,0-2.73-8.71c-.88-2-1.94-2.5-3.82-1.45-6.38,3.59-13.23,6.16-20,8.9-7.21,2.92-14.3,6.22-21.81,8.31a182.81,182.81,0,0,1-28.48,5.72c-8.4,1-16.45.36-23.3-5.42-1.57-1.32-2.71-2.85-1.78-4.84a3.66,3.66,0,0,1,4.54-1.91c7.56,2,14.66.49,21.63-2.52a341.4,341.4,0,0,0,49.88-27.22c2.26-1.46,2.24-2.35.59-4.18-7.27-8.05-16.55-13.17-26.31-17.23a285,285,0,0,0-27.17-9.22c-7.69-2.32-15.85-2.39-23.69-4-8.08-1.68-15.63-.31-23.27,2.29-5.84,2-11.16,5-16.68,7.64-14,6.57-27,14.37-37.24,26.48-6.19,7.31-12,14.72-16,23.4-1.7,3.73-3.72,7.39-4.65,11.45-1.43,6.26-1.75,12.68-2.74,19-1.7,10.88-3.46,21.75-6.73,32.37C91.09,245.57,90,254,88,262.28c-1.74,7.21,1.58,12.52,6,17.53A6.74,6.74,0,0,0,97,281.55c3.68,1.21,5.81-.24,5.92-4.08a25.76,25.76,0,0,0-.06-3.85c-1.14-9.21,0-18.37.81-27.51.73-8.17,5.52-14.87,9.11-22a3.49,3.49,0,0,1,1.25-1.25,3,3,0,0,1,3.62,0c1.16.89,1.15,2.22.52,3.49-.35.7-.83,1.36-1.12,2.08-.42,1-1.7,2.1-.68,3.19.79.84,2,.27,3.08-.08a43.27,43.27,0,0,1,17.28-2,28.4,28.4,0,0,0,7.13-.07c8.85-1.63,16.82,1.14,24.69,4.53a4.78,4.78,0,0,1,2.39,2.14c2.12,3.94.08,12.48-4,14.18-5,2.06-6.45,5.78-6.6,10.48-.08,2.44-1.81,5.25-.21,7.21,2.73,3.34,4.27,7.29,6.57,10.76,5.51,8.29,5.4,17.37,4.47,26.52-.34,3.32-.56,6.67-1,10-.2,1.51.77,1.87,1.85,2.14A136,136,0,0,0,210.27,321.81ZM59.5,138.74a40.52,40.52,0,0,0-4.46,0c-2.69.31-5.31.88-6.7,3.65-2.48,4.93,1.25,10.34,7.37,10.53a81.29,81.29,0,0,1,15,1.78,7.75,7.75,0,0,1,5.87,4.54C79,165,81.12,171,81.43,177.15a207.89,207.89,0,0,1-2.61,46,9.64,9.64,0,0,0,0,4.1,2.79,2.79,0,0,0,2.93,2.37c1.86,0,2.34-1.26,2.65-2.64a24.05,24.05,0,0,0,.64-4.38c.35-10.41,2.47-20.63,3.63-30.95a149.09,149.09,0,0,0-.25-33.56,19.3,19.3,0,0,0-5.37-11.17C76.54,140.18,68.34,138.65,59.5,138.74ZM221.56,184.6c9.81.35,19.21-1.69,28.57-3.67s17.77-6.56,26.53-10.08a185.5,185.5,0,0,0,26.61-13c4.16-2.5,7.16-5.81,10.05-9.38,1.9-2.35,1.45-4.06-1.19-5.55a12.22,12.22,0,0,0-3.29-1.27c-5.31-1.18-10.08.6-14.31,3.42-6.9,4.61-14.43,8.2-21.05,13.28-2.24,1.72-4.32,3.81-6.8,5.09-13.37,6.93-27,13.44-40.86,19.26C224.39,183.34,223,184,221.56,184.6Zm-52.4-70.55a77.3,77.3,0,0,1,7.55-3.3c2.39-.76,3.18-2,3.19-4.51.09-14.33.15-28.66,1.17-43,.66-9.32-.88-18.53-1.44-27.79a11.12,11.12,0,0,0-2.2-6.36c-1-1.24-2.22-2.68-3.83-2.51-1.84.19-2.63,2-3.09,3.64-.79,2.74-1.38,5.54-1.95,8.34-1.09,5.42-.11,11.07-1.8,16.43a12,12,0,0,0-.49,4.39c.78,12.21,1.43,24.43,2.37,36.62C169.1,101.94,169.12,107.85,169.16,114.05Zm-107.22,193H57.17c-3.72,0-4.39,1.68-4.81,5.38a22.75,22.75,0,0,0-.07,2.32,56.42,56.42,0,0,0,4.78,21.74A27.07,27.07,0,0,0,66,348.11c1.89,1.35,3.26,1.08,4.51-.69,1.14-1.61,2.2-3.26,3.46-4.78q6.28-7.51,12.7-14.88c1.19-1.37,1.06-2.36-.64-2.82-4.93-1.35-8.37-5.76-10.71-9.94C72.28,309.56,68.51,305.06,61.93,307.06Zm45.25-16c0,4.3,0,7.18,0,10a1.84,1.84,0,0,0,.4,1.31c.64.49,1-.23,1.45-.58,2.06-1.64,3.1-4.09,4.78-6,8.08-9.26,14.5-19.77,22.29-29.25,1.41-1.71,1.3-2.84-1.06-3.67-6.37-2.23-13-3.22-19.64-4-6.85-.83-7.84.43-7.66,7.26,0,.3,0,.6,0,.89C108.51,275.53,106.93,284,107.19,291.06ZM205.47,57.74a36.11,36.11,0,0,0-1.27-9.64,4,4,0,0,0-3.67-3c-1.48-.17-2.35,1.13-2.85,2.25-3.28,7.27-6.46,14.6-8.38,22.38-1.08,4.35.1,8.88-1,13.26a23.9,23.9,0,0,0-1.07,7c.28,4.92-.42,9.79-.49,14.68,0,1-.85,2.4.43,2.9a3.88,3.88,0,0,0,3.82-1.06,6.24,6.24,0,0,0,1.5-2.85c2.89-8.28,5.66-16.6,8.62-24.86C203.52,72,205.61,65.08,205.47,57.74Zm-84.92,179c-1.49,0-3,0-4.46,0a3,3,0,0,0-2.94,1.64,33.21,33.21,0,0,0-2.84,7.14c-.32,1.1-.13,2,1.34,2A206.17,206.17,0,0,1,135.48,249c6.73.74,13.73-1,20.68-1.08a13.29,13.29,0,0,0,6.3-1.43c3.15-1.71,3.58-4.61.76-6.84a20.21,20.21,0,0,0-15-4.46C139,236.12,129.88,238,120.55,236.78ZM106,361a31.34,31.34,0,0,0,8.46-1.86c5.72-1.79,11.74-2.78,16.86-6.27,1.9-1.29,2.3-2.36.67-4.17-1.91-2.13-3.55-4.49-5.42-6.65-1.28-1.48-2.46-3.13-4.48-3.76-5.09-1.59-10.19-3.13-15.25-4.78-1.62-.53-2.1-.11-2.1,1.53,0,7.69-.41,15.36-1.13,23C103.44,360.24,104.1,361.39,106,361ZM93.3,361c3.4.06,4.31-.81,4.37-3.76.15-7.58-.63-15.22,1.28-22.7.37-1.47,1.34-3.15-1-4s-4.19-2.42-6.45.47c-4.38,5.6-9.2,10.84-13.75,16.32-4.71,5.67-4.65,5.7,2.22,9C84.38,358.47,88.82,360.37,93.3,361Zm216.85-89.27c-1.55.75-1.71,2-2.19,3-6.45,14-10.23,29.38-20.54,41.51-.44.52-.69,1.2-1.08,1.76a1.68,1.68,0,0,0,0,2.17,12.94,12.94,0,0,1,2.61,8.3c0,.68.28,1.76,1.09,1.23,3.9-2.56,8.8-4,10.8-8.83a45.17,45.17,0,0,0,2.95-9.26q2.74-15.37,5.31-30.78C309.61,277.82,309.81,274.75,310.15,271.71Zm9,6.91a2.8,2.8,0,0,0-1.14,2.06q-2.66,15-5.27,30c-.37,2.13.76,2.76,2.71,2.82,4.55.15,9.15.06,13.62.79,3.29.54,3.6-.72,3.34-3.23a66,66,0,0,0-7.65-25.62A21.15,21.15,0,0,0,319.18,278.61ZM193.45,345c-.86-7.56-4.82-12.82-10.07-17.26a5.8,5.8,0,0,0-3-1.15c-3.59-.38-7-1-9.79-3.61-.55-.52-1.6-1.13-1.87.08-1.12,5-4.66,8.86-6.44,13.55-.56,1.46-.24,2.82,1.1,3.23,3.28,1,6.29,2.63,9.7,3.43,5.91,1.39,12.14.77,17.87,3.11C192.63,347.08,193.2,345.91,193.45,345Zm95.27-.58c.68,5.61,1,10,1.84,14.38.48,2.41,1.71,2.62,3.6,1.9,2.21-.86,4.46-1.66,6.59-2.68,4.79-2.31,9.88-4.16,13.55-8.32,1.17-1.33,2.14-2.77.19-3.91-4.22-2.45-7-6.35-10.32-9.68-.62-.62-1-1.21-2.18-.59a103.32,103.32,0,0,1-9.43,4.29C289.8,340.92,288.17,342.49,288.73,344.44Zm43.11-23.81c-.13-1.45-1-1.79-2.25-1.84-5.34-.2-10.67-.39-16-.62a3,3,0,0,0-3.22,2c-1.35,3.18-2.81,6.31-4.26,9.45-.38.84-.9,1.73.1,2.37,4.63,2.93,7.25,7.75,11,11.55,1.24,1.27,2.1.76,2.91-.29a83.82,83.82,0,0,0,5.49-7.35C328.47,331.17,329.73,325.71,331.84,320.63ZM201,107.73c1.65.63,2.61-.39,3.14-2.16a9.76,9.76,0,0,1,3-4.72c4.53-3.86,7.28-9.36,12.06-13a4,4,0,0,0,1-1.48,47.3,47.3,0,0,0,4.53-13c.16-.94,1-2.13.12-2.77s-2.15.17-3,.71c-3.6,2.31-6.42,5.54-9.64,8.31A20,20,0,0,0,206.34,87c-2.55,6.08-5.23,12.11-7.89,18.15C197.38,107.57,198.75,107.86,201,107.73ZM67.34,273.46a20.85,20.85,0,0,0-6.6,8.69c-1.6,4.13-2.8,8.41-4.75,12.42a16.26,16.26,0,0,0-1.33,6c-.1,1.5.35,2.13,1.95,2.17,3,.07,5.93.23,8.87.54,2.63.29,3.49-.47,3.68-3.33C69.73,291.24,66.75,282.82,67.34,273.46Zm206.66,84c-.4-3.68-.29-8.23-2.24-12.51-2.71-6-6.17-11.62-7.76-18.08a4,4,0,0,0-3.11-3.24c-2.77-.59-3.56.21-2.77,2.91,2.55,8.68,5.09,17.36,7.72,26,.77,2.53,1.35,5.16,2.74,7.48,1,1.67,1.89,4.12,4.11,3.55s1.22-3,1.31-4.71C274,358.7,274,358.5,274,357.48ZM76.42,281.39a16.31,16.31,0,0,0,.05,4.31c.16,5.24,3.49,10,2.3,15.46-.51,2.37,1.29,3.19,3.46,3.38,3.93.35,7.85.79,11.77,1.27,1.15.14,2.61,1,3.32,0s-.6-2.32-1.14-3.42a18,18,0,0,0-1.46-2.23c-3.52-5.09-8.49-8.86-12.47-13.52C80.62,284.7,79.48,282.17,76.42,281.39Zm24.69,20.19a43.82,43.82,0,0,1,2.23-8.24,9.45,9.45,0,0,0,.11-3.82c-.19-1.58-1-2.61-2.84-1.93a6.47,6.47,0,0,1-3.79-.05c-7.19-1.65-10.58-7-13.45-13.12-1.73-3.67-.7-7.39-.43-11.35-1.91.65-3.49,1.17-5.07,1.71-3.49,1.22-4.27,2.68-3.26,6.24a10.2,10.2,0,0,0,2.44,4c6.85,7.65,15,14.12,20.76,22.78A43.82,43.82,0,0,0,101.11,301.58Zm92,27.47c2,1.9,2.46,3.92,3,5.93,1.33,5.05,2.61,10.13,4.16,15.11,1.37,4.4,2.15,9.06,5,12.91.78,1.06,1.67,2.19,3.1,1.7s1.24-1.82,1.28-3c.33-10.68-3.44-20.13-8.86-29C199.26,330.1,196.95,328.7,193.15,329ZM75.42,235.5c-1.49.25-2.71-.28-3.73.73A6.4,6.4,0,0,0,74.07,247c2.31.83,4.73,1.38,7.11,2,2.91.74,4.08,0,4.4-3a21,21,0,0,1,1.57-6.27c.88-2,.23-3.38-2-3.41A50.47,50.47,0,0,1,75.42,235.5Zm208.09,96.27c-.5-2.41.3-5.28-1.83-7.19-3.11-2.77-6.53-4.62-11-2.83-1.36.55-1.91.88-1.26,2.4,1.62,3.78,3.08,7.64,4.62,11.45,1.39,3.45,1.39,3.44,4.89,1.74C281.34,336.19,284.2,335.45,283.51,331.77Zm36.83-81.95c5.36,0,8.77-3.26,8.51-8.15-.15-2.88-3.55-5.73-7.8-6.6-2.06-.43-3.17.26-3.45,2.4-.35,2.64-.88,5.25-1.24,7.88C315.75,249.82,315.78,249.82,320.34,249.82ZM261.57,362.2c-.8-2.89-1.45-5.32-2.15-7.74-1.66-5.74-1.67-5.74-7.54-5.43a18.74,18.74,0,0,1-2.07,0c-2.11-.13-2.31.83-1.62,2.53C250.57,357.51,255.33,360.36,261.57,362.2ZM84.83,310c-2.52-.17-2.63-.12-2.32,1.14,1,4.2,4.7,7,10.51,7.57,3.75.38,4.51-3.27,6.38-5.35.94-1.05.9-2.16-1-2.3C93.85,310.77,89.34,310.37,84.83,310Zm200.54,43.46a47,47,0,0,0-.48-7.09c-.68-3.77-.51-3.67-4.3-2.56-2.28.67-2.74,1.56-1.74,3.78a24.18,24.18,0,0,1,2.08,12.71c-.11,1-1,2.27.92,2.45,1.3.13,2.5.17,3-1.62A30.75,30.75,0,0,0,285.37,353.46ZM157.45,284.74c0,7.23,0,13.6,0,20A10.28,10.28,0,0,0,158,307a2.33,2.33,0,0,0,2.78,2c1.53-.24,1.33-1.56,1.2-2.59-.41-3.33-.29-6.72-.71-10C160.74,292.66,160.67,288.6,157.45,284.74Zm-5.07-27.63c0-3.3-.15-3.43-4-3.06-1.26.12-3,.11-3.31,1.42-.27,1.09,1.48,1.32,2.33,2a9.48,9.48,0,0,0,2,1.21c.86.36,1.63,1.53,2.6.91C152.8,259,152.25,257.88,152.38,257.11ZM111.72,324.6c-.79-2.23-2.4-3.83-3.58-5.68a1.23,1.23,0,0,0-1.51-.63c-.74.26-.59.93-.64,1.49C105.79,322.19,107.77,323.89,111.72,324.6Zm22.42,17.77c.53,2.15,2,3,2.85,4.28s1.89.87,2.89.4c.67-.31,1.77-.6,1.62-1.45-.19-1.09-1.46-1-2.33-1.37Zm24.67-28.29c-2.4,2.47-1.24,5.11-1,7.64C158.68,319.3,160.71,317,158.82,314.07Z"/><path class="cls-4" d="M210.27,321.81A136,136,0,0,1,172,317.43c-1.08-.27-2-.63-1.85-2.14.43-3.32.66-6.67,1-10,.93-9.14,1-18.23-4.47-26.52-2.31-3.48-3.84-7.42-6.57-10.76-1.6-2,.13-4.78.21-7.21.15-4.7,1.61-8.42,6.6-10.48,4.12-1.7,6.16-10.24,4-14.18a4.78,4.78,0,0,0-2.39-2.14c-7.88-3.39-15.84-6.16-24.69-4.53a28.4,28.4,0,0,1-7.13.07,43.27,43.27,0,0,0-17.28,2c-1,.36-2.29.92-3.08.08-1-1.09.26-2.16.68-3.19.29-.72.77-1.38,1.12-2.08.64-1.28.64-2.6-.52-3.49a3,3,0,0,0-3.62,0,3.49,3.49,0,0,0-1.25,1.25c-3.59,7.1-8.38,13.79-9.11,22-.82,9.14-2,18.3-.81,27.51a25.76,25.76,0,0,1,.06,3.85c-.1,3.84-2.24,5.29-5.92,4.08A6.74,6.74,0,0,1,94,279.81c-4.4-5-7.71-10.33-6-17.53,2-8.23,3.1-16.71,5.59-24.77,3.27-10.62,5-21.49,6.73-32.37,1-6.31,1.3-12.74,2.74-19,.93-4.06,2.95-7.73,4.65-11.45,4-8.67,9.78-16.08,16-23.4,10.24-12.11,23.27-19.92,37.24-26.48,5.52-2.59,10.84-5.64,16.68-7.64,7.63-2.61,15.18-4,23.27-2.29,7.84,1.63,16,1.7,23.69,4a285,285,0,0,1,27.17,9.22c9.77,4.05,19,9.18,26.31,17.23,1.65,1.83,1.67,2.72-.59,4.18a341.4,341.4,0,0,1-49.88,27.22c-7,3-14.07,4.54-21.63,2.52a3.66,3.66,0,0,0-4.54,1.91c-.93,2,.21,3.51,1.78,4.84,6.85,5.78,14.89,6.37,23.3,5.42a182.81,182.81,0,0,0,28.48-5.72c7.5-2.09,14.6-5.39,21.81-8.31,6.75-2.74,13.6-5.31,20-8.9,1.88-1.05,2.94-.53,3.82,1.45a34,34,0,0,1,2.73,8.71,69.73,69.73,0,0,0,3.49,12.82c2.91,8.19,3.34,16.75,4.27,25.29,2.48,22.82-3.33,44-11.77,64.81-2.8,6.9-6.65,13.18-10.07,19.71-4.75,9.05-12.42,13.46-22.6,14.58-11,1.21-22,2.71-33,4.39A155,155,0,0,1,210.27,321.81ZM184.71,153.88c0-4.1-1.75-6.59-4.46-6.52-3.14.08-7.41,4.73-7.51,8.17-.06,2.33,2,4.07,4.83,4C182.12,159.52,184.75,157.43,184.71,153.88Zm28.88,1c0,3.06,2.55,5.9,5.14,5.84,3-.08,7.16-3.1,7.09-5.14-.12-3.12-3.59-5.8-7.46-5.75A5.07,5.07,0,0,0,213.59,154.85Z"/><path class="cls-5" d="M59.5,138.74c8.84-.09,17,1.44,23.6,8.2a19.3,19.3,0,0,1,5.37,11.17,149.09,149.09,0,0,1,.25,33.56c-1.16,10.31-3.28,20.54-3.63,30.95a24.05,24.05,0,0,1-.64,4.38c-.31,1.38-.79,2.68-2.65,2.64a2.79,2.79,0,0,1-2.93-2.37,9.64,9.64,0,0,1,0-4.1,207.89,207.89,0,0,0,2.61-46C81.12,171,79,165,76.55,159.26a7.75,7.75,0,0,0-5.87-4.54,81.29,81.29,0,0,0-15-1.78c-6.11-.19-9.85-5.6-7.37-10.53,1.39-2.77,4-3.35,6.7-3.65A40.52,40.52,0,0,1,59.5,138.74Z"/><path class="cls-6" d="M221.56,184.6c1.42-.62,2.83-1.27,4.26-1.86,13.9-5.82,27.48-12.33,40.86-19.26,2.48-1.29,4.56-3.37,6.8-5.09,6.62-5.08,14.15-8.68,21.05-13.28,4.23-2.82,9-4.6,14.31-3.42a12.22,12.22,0,0,1,3.29,1.27c2.64,1.49,3.09,3.2,1.19,5.55-2.9,3.57-5.89,6.88-10.05,9.38a185.5,185.5,0,0,1-26.61,13c-8.76,3.52-17.22,8.12-26.53,10.08S231.37,185,221.56,184.6Z"/><path class="cls-7" d="M169.16,114.05c0-6.21-.06-12.11-.51-18-.93-12.19-1.58-24.41-2.37-36.62a12,12,0,0,1,.49-4.39c1.69-5.36.7-11,1.8-16.43.56-2.8,1.15-5.6,1.95-8.34.46-1.6,1.25-3.45,3.09-3.64,1.61-.16,2.83,1.27,3.83,2.51a11.12,11.12,0,0,1,2.2,6.36c.56,9.26,2.1,18.47,1.44,27.79-1,14.31-1.08,28.64-1.17,43,0,2.51-.8,3.75-3.19,4.51A77.3,77.3,0,0,0,169.16,114.05Z"/><path class="cls-8" d="M114.19,305.77c-2.16-.63-.93-1.88-.32-2.66,4.69-6.11,9.29-12.28,14.35-18.09,4.8-5.51,9.56-11.05,14.2-16.7,1-1.2,1.36-1.06,2.45-.24,5.37,4,7.69,9.13,7,15.92-.58,6-.43,12-.67,18-.06,1.56-.45,3.12-.53,4.68-.07,1.33-.79,1.33-1.79,1.23-5.78-.58-11.57-1.13-17.35-1.69a2.35,2.35,0,0,0-1.94-.49Z"/><path class="cls-8" d="M107.19,291.06c-.26-7.07,1.32-15.53.59-24,0-.3,0-.6,0-.89-.18-6.83.8-8.08,7.66-7.26,6.62.79,13.27,1.79,19.64,4,2.36.83,2.47,2,1.06,3.67-7.79,9.48-14.21,20-22.29,29.25-1.69,1.93-2.73,4.38-4.78,6-.44.35-.81,1.07-1.45.58a1.84,1.84,0,0,1-.4-1.31C107.17,298.24,107.19,295.36,107.19,291.06Z"/><path class="cls-8" d="M224.56,328.39a174.73,174.73,0,0,0,18.71-2.57c2.67-.48,5,.13,6.46,1.91,2.91,3.41,5.87,6.84,7.12,11.41.63,2.31-.19,2.94-2.13,3.47-3.13.85-6.3.43-9.46.54-1.88.07-3.76,0-5.65.06-5.65,0-11.29-.08-16.93,0-1.54,0-3.17-.5-4.62.48-.68.12-1.36.21-2,.37-3.1.75-5.18.5-5.26-3.58-.06-2.85-1.91-5.3-3-7.9-.42-1-.73-2-1.09-3,1.06-1.09,2.41-.53,3.63-.61C215,328.57,219.84,329.54,224.56,328.39Z"/><path class="cls-9" d="M205.47,57.74c.14,7.34-1.95,14.28-4.36,21-3,8.26-5.73,16.58-8.62,24.86a6.24,6.24,0,0,1-1.5,2.85,3.88,3.88,0,0,1-3.82,1.06c-1.28-.5-.44-1.88-.43-2.9.08-4.89.77-9.75.49-14.68a23.9,23.9,0,0,1,1.07-7c1.11-4.38-.07-8.9,1-13.26,1.92-7.78,5.1-15.1,8.38-22.38.5-1.12,1.37-2.42,2.85-2.25a4,4,0,0,1,3.67,3A36.11,36.11,0,0,1,205.47,57.74Z"/><path class="cls-8" d="M131,311.65c5.24.21,10.47.4,15.71.64,2.23.1,3.65,1.17,3.27,3.56-.68,4.32-.44,8.67-.55,13-.06,2.41-1.08,3.27-3.49,3-6.19-.62-12.15-2.79-18.3-3.13-8.44-.47-11.61-6.94-15.85-12.35-1-1.31-1.89-2.76-2.82-4.14.86-1,2-.6,3.06-.6C118.36,311.63,124.69,311.65,131,311.65Z"/><path class="cls-5" d="M120.55,236.78c9.34,1.24,18.47-.65,27.69-1.62a20.21,20.21,0,0,1,15,4.46c2.82,2.23,2.39,5.13-.76,6.84a13.29,13.29,0,0,1-6.3,1.43c-6.94,0-13.95,1.82-20.68,1.08a206.17,206.17,0,0,0-23.84-1.46c-1.47,0-1.66-.85-1.34-2a33.21,33.21,0,0,1,2.84-7.14,3,3,0,0,1,2.94-1.64C117.57,236.8,119.06,236.78,120.55,236.78Z"/><path class="cls-10" d="M310.15,271.71c-.34,3-.54,6.12-1,9.14q-2.56,15.4-5.31,30.78a45.17,45.17,0,0,1-2.95,9.26c-2,4.86-6.9,6.27-10.8,8.83-.82.53-1.12-.55-1.09-1.23a12.94,12.94,0,0,0-2.61-8.3,1.68,1.68,0,0,1,0-2.17c.39-.57.64-1.25,1.08-1.76,10.31-12.13,14.09-27.48,20.54-41.51C308.45,273.68,308.6,272.46,310.15,271.71Z"/><path class="cls-8" d="M193.45,345c-.25.89-.82,2.06-2.49,1.37-5.73-2.34-12-1.71-17.87-3.11-3.41-.8-6.42-2.43-9.7-3.43-1.35-.41-1.66-1.77-1.1-3.23,1.79-4.68,5.32-8.52,6.44-13.55.27-1.21,1.32-.6,1.87-.08,2.76,2.6,6.2,3.23,9.79,3.61a5.8,5.8,0,0,1,3,1.15C188.63,332.2,192.59,337.46,193.45,345Z"/><path class="cls-9" d="M201,107.73c-2.25.13-3.62-.16-2.55-2.59,2.66-6,5.34-12.07,7.89-18.15a20,20,0,0,1,5.79-7.38c3.22-2.76,6-6,9.64-8.31.85-.54,2.07-1.4,3-.71s0,1.83-.12,2.77a47.3,47.3,0,0,1-4.53,13,4,4,0,0,1-1,1.48c-4.78,3.62-7.53,9.12-12.06,13a9.76,9.76,0,0,0-3,4.72C203.62,107.34,202.65,108.36,201,107.73Z"/><path class="cls-10" d="M94.75,160.09c-.17-4-.16-4.2,3.8-4,4.41.24,8.76-.73,13.88-.74C101,170.19,96,186.7,94.59,204.83c-1.56-2.36-1.26-5,.52-16.55.86-5.57.06-11.25.15-16.88C95,167.63,95.85,163.81,94.75,160.09Z"/><path class="cls-11" d="M274,357.48c0,1,0,1.22,0,1.42-.08,1.71.78,4.18-1.31,4.71s-3.11-1.89-4.11-3.55c-1.39-2.32-2-4.95-2.74-7.48-2.63-8.65-5.17-17.34-7.72-26-.79-2.7,0-3.5,2.77-2.91a4,4,0,0,1,3.11,3.24c1.58,6.46,5,12.11,7.76,18.08C273.71,349.25,273.6,353.8,274,357.48Z"/><path class="cls-10" d="M76.42,281.39c3.07.78,4.2,3.31,5.82,5.2,4,4.67,9,8.44,12.47,13.52a18,18,0,0,1,1.46,2.23c.54,1.1,1.94,2.25,1.14,3.42s-2.17.17-3.32,0c-3.91-.47-7.84-.91-11.77-1.27-2.17-.19-4-1-3.46-3.38,1.19-5.49-2.14-10.21-2.3-15.46A16.31,16.31,0,0,1,76.42,281.39Z"/><path class="cls-10" d="M101.11,301.58a43.82,43.82,0,0,1-3.3-3.78C92.06,289.14,83.9,282.68,77.05,275a10.2,10.2,0,0,1-2.44-4c-1-3.56-.24-5,3.26-6.24,1.57-.55,3.15-1.07,5.07-1.71-.27,4-1.3,7.67.43,11.35,2.87,6.08,6.26,11.47,13.45,13.12a6.47,6.47,0,0,0,3.79.05c1.87-.68,2.65.35,2.84,1.93a9.45,9.45,0,0,1-.11,3.82A43.82,43.82,0,0,0,101.11,301.58Z"/><path class="cls-11" d="M193.15,329c3.8-.35,6.11,1.05,7.64,3.57,5.43,8.91,9.19,18.36,8.86,29,0,1.22,0,2.59-1.28,3s-2.32-.64-3.1-1.7c-2.83-3.85-3.61-8.51-5-12.91-1.55-5-2.83-10.06-4.16-15.11C195.61,333,195.18,330.95,193.15,329Z"/><path class="cls-5" d="M75.42,235.5a50.47,50.47,0,0,0,9.67.8c2.27,0,2.93,1.37,2,3.41A21,21,0,0,0,85.58,246c-.31,3.06-1.49,3.78-4.4,3-2.39-.6-4.8-1.15-7.11-2a6.4,6.4,0,0,1-2.38-10.81C72.71,235.22,73.93,235.75,75.42,235.5Z"/><path class="cls-10" d="M283.51,331.77c.69,3.68-2.18,4.42-4.55,5.58-3.49,1.7-3.5,1.71-4.89-1.74-1.54-3.82-3-7.67-4.62-11.45-.65-1.52-.09-1.85,1.26-2.4,4.44-1.79,7.86.06,11,2.83C283.81,326.49,283,329.36,283.51,331.77Z"/><path class="cls-5" d="M320.34,249.82c-4.56,0-4.59,0-4-4.47.36-2.63.89-5.24,1.24-7.88.28-2.14,1.39-2.82,3.45-2.4,4.24.87,7.65,3.72,7.8,6.6C329.11,246.57,325.7,249.82,320.34,249.82Z"/><path class="cls-10" d="M84.83,310c4.51.36,9,.76,13.52,1.07,1.94.14,2,1.24,1,2.3-1.86,2.07-2.63,5.73-6.38,5.35-5.81-.6-9.47-3.37-10.51-7.57C82.21,309.89,82.32,309.83,84.83,310Z"/><path class="cls-12" d="M157.45,284.74c3.21,3.86,3.29,7.92,3.78,11.7.42,3.3.3,6.69.71,10,.13,1,.33,2.35-1.2,2.59a2.33,2.33,0,0,1-2.78-2,10.28,10.28,0,0,1-.49-2.31C157.43,298.34,157.45,292,157.45,284.74Z"/><path class="cls-13" d="M152.38,257.11c-.13.77.42,1.92-.37,2.43-1,.62-1.74-.55-2.6-.91a9.48,9.48,0,0,1-2-1.21c-.84-.63-2.59-.86-2.33-2,.33-1.31,2-1.3,3.31-1.42C152.22,253.68,152.37,253.81,152.38,257.11Z"/><path class="cls-13" d="M111.72,324.6c-4-.7-5.94-2.4-5.74-4.82,0-.56-.1-1.23.64-1.49a1.23,1.23,0,0,1,1.51.63C109.32,320.77,110.94,322.36,111.72,324.6Z"/><path class="cls-14" d="M131,311.65c-6.32,0-12.65,0-19,0-1,0-2.2-.41-3.06.6-.31-.38-.71-1.09,0-1.08C116.32,311.29,123.69,310.38,131,311.65Z"/><path class="cls-15" d="M158.82,314.07c1.9,2.94-.13,5.23-1,7.64C157.58,319.18,156.41,316.54,158.82,314.07Z"/><path class="cls-14" d="M218.06,343.68c1.45-1,3.08-.47,4.62-.48,5.64-.06,11.29,0,16.93,0-3.09.9-6.25.5-9.38.54C226.17,343.8,222.12,343.71,218.06,343.68Z"/><path class="cls-14" d="M224.56,328.39c-4.72,1.16-9.52.18-14.28.53-1.22.09-2.57-.48-3.63.61.31-1.18.31-1.23,1.57-1.23C213.67,328.31,219.11,328.36,224.56,328.39Z"/><path class="cls-14" d="M114.19,305.77l15.43,0a2.35,2.35,0,0,1,1.94.49C125.77,306.16,120,306.88,114.19,305.77Z"/><path class="cls-14" d="M94.75,160.09c1.1,3.73.26,7.54.5,11.3C94.25,167.66,94.77,163.86,94.75,160.09Z"/><path class="cls-3" d="M184.71,153.88c0,3.55-2.59,5.64-7.14,5.69-2.82,0-4.89-1.71-4.83-4,.09-3.44,4.37-8.09,7.51-8.17C183,147.29,184.66,149.78,184.71,153.88Z"/><path class="cls-3" d="M213.59,154.85a5.07,5.07,0,0,1,4.77-5.06c3.86,0,7.34,2.64,7.46,5.75.07,2-4.1,5.06-7.09,5.14C216.14,160.76,213.64,157.91,213.59,154.85Z"/></svg>