<svg id="圖層_1" data-name="圖層 1" xmlns="http://www.w3.org/2000/svg" viewBox="0 0 225 209"><defs><style>.cls-1{fill:#926c49;}.cls-2{fill:#b18c53;}.cls-3{fill:none;stroke:#040000;stroke-miterlimit:10;}.cls-4,.cls-8{fill:#fff;}.cls-4,.cls-5,.cls-6{fill-rule:evenodd;}.cls-5{fill:#3ba147;}.cls-7{fill:#684e22;}</style></defs><title>graphic</title><path class="cls-1" d="M193.05,99.34c5-.17,4.9-.23,4.72,4.79-.2,5.65-.07,11.31-.14,17-.06,5.16-.18,10.31-.3,15.47-.13,5.69-.41,11.39-.43,17.09,0,6.46.23,12.92.19,19.38,0,4.35-.38,8.7-.59,13l-.34,6.9h-4.95c-.09-8.85-.14-17.7-.29-26.55,0-2-.62-4.09-.61-6.13,0-8.37.21-16.73.2-25.1,0-5.94-.36-11.88-.29-17.82,0-3.24.69-6.47.91-9.71a38.73,38.73,0,0,0-.09-6.15C190.88,99.87,191.44,99.39,193.05,99.34Z"/><path class="cls-2" d="M188.23,167c.47,2.6,0,5.37-.09,8.05q-.23,6.87-.53,13.74c-.06,1.39-.23,2.77-.35,4.16h-8.41c-.12-3.84-.23-7.69-.38-11.54-.08-2.37-.32-4.74-.31-7.1q0-12.76.22-25.51c.1-6.54.44-13.08.45-19.62,0-4.89-.54-9.78-.45-14.66.08-4.32.64-8.63,1.13-12.93.21-1.85,1.25-3,3.37-2.4a4.26,4.26,0,0,0,.47.13c4.53.65,4.71,1.05,4.66,5.73-.07,6.31.17,12.64.13,18.95,0,5.86-.53,11.73-.4,17.58C187.94,150.08,186.71,158.56,188.23,167Z"/><path class="cls-1" d="M177.2,95.3c-3.44,0-6.87.12-10.31.1a26.84,26.84,0,0,1-4.17-.38c-2.21-.35-3.73-3-3.28-5.27a12.91,12.91,0,0,0,0-3.55c-.14-1.74-.39-3.47-.58-5.17,5.24,0,10,.09,14.74,0q13.19-.3,26.39-.81c3.15-.12,3.42-.11,3,2.9-.52,3.54-1.24,7.07-2.12,10.54a2.89,2.89,0,0,1-2.16,1.67C191.53,95.42,184.36,95.31,177.2,95.3Z"/><path class="cls-1" d="M154.61,193h-6.93c-.14-6.73-.32-13.46-.42-20.19-.08-5.82-.2-11.64-.08-17.45.17-8.66.65-17.32.79-26,.08-5.14-.42-10.29-.3-15.42.1-4.23.67-8.46,1.13-12.68.26-2.33,1.7-2.92,4-2.82s2.29,1.42,2.32,2.94c.1,5.09.14,10.18.27,15.27s.41,10.08.44,15.13c0,2-.62,4.06-.7,6.1-.2,5.53-.39,11.07-.35,16.6,0,3.6.51,7.2.65,10.8.1,2.92,0,5.86,0,8.79-.13,4.75-.34,9.5-.52,14.25C154.77,189.88,154.68,191.43,154.61,193Z"/><path class="cls-2" d="M144.75,106.3c-.07,2.06.36,4.13.32,6.19-.13,6.86-.46,13.72-.54,20.59,0,3.32.39,6.64.44,10a55.7,55.7,0,0,1-.34,8.33c-1.55,11.16-.3,22.33-.39,33.5,0,2.71-.33,5.41-.5,8.11h-9.4c-.06-4.26-.14-8.52-.19-12.78-.08-6.4-.23-12.81-.18-19.21.06-6.8.41-13.59.47-20.39.05-5.91-.28-11.83-.14-17.74.19-8,.67-16,1-24.1h10.22C145.24,101.44,144.83,103.87,144.75,106.3Z"/><path class="cls-1" d="M77.9,98.27c2.48,0,4.66-.06,6.83.06.39,0,1,.83,1,1.31.15,1.79.1,3.6.14,5.4.11,5.66.34,11.32.32,17,0,5.94-.43,11.88-.4,17.82.05,8.4.4,16.8.53,25.19,0,2.77-.17,5.54-.28,8.3-.16,4.34-.34,8.69-.5,13-.08,2.21-.15,4.41-.22,6.61H76.95c0-5.58,0-11.15,0-16.73s-.36-11.16-.32-16.74c0-6.79.4-13.58.47-20.38.05-5.91-.27-11.82-.14-17.73C77.09,113.65,77.56,105.89,77.9,98.27Z"/><path class="cls-2" d="M68.21,98.59c1.94-.18,3.91-.06,5.9-.06,0,2.26,0,4.52,0,6.79-.14,9.75-.27,19.51-.45,29.26-.1,5.7-.39,11.39-.42,17.09,0,6.47.2,12.94.21,19.4,0,4.68-.21,9.36-.23,14,0,2.62.18,5.25.28,7.88H65.07c.08-1.13.26-2.27.23-3.4-.2-6.39-.61-12.77-.63-19.17,0-7.86.25-15.71.42-23.57.14-6.46.42-12.92.44-19.38,0-4.89-.5-9.79-.41-14.67a127.59,127.59,0,0,1,1.15-12.93C66.32,99.35,67.49,98.65,68.21,98.59Z"/><path class="cls-1" d="M34.17,98.19c4.6-.51,4.92-.25,4.92,4.33,0,8.36,0,16.73,0,25.09,0,3.9-.27,7.8-.22,11.7.11,8.65.38,17.31.54,26,0,2.36,0,4.73-.17,7.1-.22,3.69-.63,7.36-.8,11-.14,3.19-.06,6.38-.07,9.57H30c0-5.58,0-11.16,0-16.73s-.36-11.17-.33-16.75c0-6.8.39-13.6.46-20.39.06-5.83-.25-11.67-.11-17.5.17-7.69.61-15.37.94-23.22C32.09,98.32,33.13,98.31,34.17,98.19Z"/><path class="cls-2" d="M19.32,99.39a1.75,1.75,0,0,1,2.48-1.58c1.71.45,4.23-.13,5.11.88s.15,3.39.11,5.17c-.16,8.6-.36,17.2-.47,25.8,0,3.09.19,6.19.15,9.29,0,3.92-.35,7.83-.37,11.74,0,6.63.11,13.26.1,19.89,0,4.84-.2,9.68-.22,14.53,0,2.63.18,5.25.28,7.88H18.08a20.61,20.61,0,0,0,.28-2.9c-.22-6.56-.66-13.11-.69-19.66,0-7.86.25-15.71.43-23.57.14-6.46.42-12.92.43-19.38,0-4.89-.52-9.79-.41-14.67C18.23,108.32,18.8,103.85,19.32,99.39Z"/><path class="cls-2" d="M95.4,94.51c-13.66-.08-27.32-.29-41-.42-8-.07-16-.08-23.93-.11-4.34,0-8.68.06-13,0a2.33,2.33,0,0,1-1.75-1.4c-.44-3.57-.72-7.16-.88-10.76a2,2,0,0,1,1.41-1.42c5.39.11,10.79.39,16.18.56,1.39,0,2.79-.19,4.19-.17,6.5.08,13,.32,19.5.3,7,0,14-.39,21-.4,4.67,0,9.33.47,14,.49,4.1,0,8.19-.36,12.28-.47,4.49-.11,9-.15,13.47-.15,12.06,0,24.12.07,36.18.07,3.13,0,3.45.26,2.74,3.43-.67,3-1.45,5.92-2.35,8.82A2.35,2.35,0,0,1,151.66,94c-6.82.35-13.64.59-20.46.87,0-.11,0-.23,0-.35C119.26,94.52,107.33,94.58,95.4,94.51Z"/><path d="M203,83.11c.45-3,.18-3-3-2.9q-13.19.52-26.39.81c-4.75.1-9.5,0-14.74,0,.2,1.7.45,3.42.58,5.17a12.91,12.91,0,0,1,0,3.55C159,92,160.51,94.67,162.72,95a26.84,26.84,0,0,0,4.17.38c3.44,0,6.87-.1,10.31-.1,7.16,0,14.32.11,21.49,0a2.89,2.89,0,0,0,2.16-1.67C201.72,90.18,202.44,86.66,203,83.11ZM77.11,80.64c-7,0-14,.37-21,.4-6.5,0-13-.21-19.5-.3-1.4,0-2.8.21-4.19.17-5.4-.17-10.79-.45-16.18-.56a2,2,0,0,0-1.41,1.42c.16,3.6.44,7.19.88,10.76a2.33,2.33,0,0,0,1.75,1.4c4.33.11,8.68,0,13,0,8,0,16,0,23.93.11,13.66.12,27.32.34,41,.42,11.93.07,23.86,0,35.78,0,0,.12,0,.23,0,.35,6.82-.27,13.64-.51,20.46-.87a2.35,2.35,0,0,0,1.76-1.17c.9-2.9,1.69-5.85,2.35-8.82.71-3.17.39-3.43-2.74-3.43-12.06,0-24.12-.06-36.18-.07-4.49,0-9,0-13.47.15-4.1.1-8.19.48-12.28.47C86.44,81.11,81.77,80.63,77.11,80.64Zm7.62,17.7c-2.17-.13-4.35-.06-6.83-.06-.34,7.62-.81,15.38-1,23.14-.13,5.91.19,11.82.14,17.73-.06,6.8-.43,13.59-.47,20.38,0,5.58.26,11.16.32,16.74s0,11.15,0,16.73H73.48c-.1-2.63-.29-5.25-.28-7.88,0-4.68.24-9.36.23-14,0-6.47-.24-12.94-.21-19.4,0-5.7.31-11.39.42-17.09.18-9.75.31-19.51.45-29.26,0-2.27,0-4.53,0-6.79-2,0-4-.12-5.9.06-.71.06-1.89.76-1.95,1.28a127.59,127.59,0,0,0-1.15,12.93c-.09,4.89.42,9.78.41,14.67,0,6.46-.3,12.92-.44,19.38-.17,7.86-.45,15.71-.42,23.57,0,6.39.44,12.78.63,19.17,0,1.13-.15,2.27-.23,3.4h-4c.17-3.29.48-6.57.49-9.86,0-9.45-.1-18.9,0-28.36,0-4,.74-8,.8-12,0-3.56-.58-7.13-.53-10.69.06-5.88.5-11.75.65-17.64.12-4.6-.95-9.19.06-13.79.44-2-.6-2.6-2.47-2.58-5.88.06-11.76,0-17.42,0-.41,5.39-1,10.5-1.14,15.61-.17,6.51.1,13,.09,19.54,0,8.38-.2,16.75-.2,25.13,0,2,.59,4.09.59,6.13,0,6.89-.1,13.79-.16,20.68q0,3.91-.05,7.82H38.36c0-3.19-.07-6.38.07-9.57.17-3.69.58-7.36.8-11,.14-2.36.21-4.73.17-7.1-.16-8.65-.43-17.31-.54-26-.05-3.9.2-7.8.22-11.7,0-8.37,0-16.73,0-25.09,0-4.58-.32-4.84-4.92-4.33-1,.11-2.07.13-3.29.2-.34,7.85-.78,15.53-.94,23.22-.13,5.83.17,11.67.11,17.5-.06,6.8-.42,13.6-.46,20.39,0,5.58.26,11.16.33,16.75s0,11.16,0,16.73H26.49c-.1-2.62-.29-5.25-.28-7.88,0-4.84.21-9.68.22-14.53,0-6.63-.13-13.26-.1-19.89,0-3.91.32-7.83.37-11.74,0-3.09-.19-6.19-.15-9.29.12-8.6.32-17.2.47-25.8,0-1.79.76-4.18-.11-5.17s-3.39-.43-5.11-.88a1.75,1.75,0,0,0-2.48,1.58c-.52,4.46-1.09,8.93-1.2,13.41-.11,4.88.42,9.78.41,14.67,0,6.46-.29,12.92-.43,19.38-.17,7.86-.46,15.71-.43,23.57,0,6.56.47,13.11.69,19.66a20.61,20.61,0,0,1-.28,2.9h-4c.18-5.92.42-11.83.54-17.76.16-8.37.21-16.75.37-25.12.05-2.79.43-5.57.39-8.35,0-3.32-.58-6.64-.53-10,.09-6.54.62-13.08.62-19.62,0-3.69-.66-7.37.07-11.08a2.78,2.78,0,0,0-1.49-3.44,5.92,5.92,0,0,1-2.66-3.8c-.62-4.27-.77-8.62-1.08-12.95-.2-2.82.73-4,3.53-4.28,3.36-.34,6.73-.64,10.1-.83s6.74-.41,10.1-.29c3.59.13,7.16.8,10.76.93,5.58.21,11.17.15,16.76.24,5.9.09,11.79.24,17.69.32,5.41.07,10.82.15,16.23.12,3.61,0,7.21-.29,10.82-.3,7.28,0,14.56.17,21.83.09,7.62-.08,15.25-.25,22.86-.63,3.62-.18,7.21-1.32,10.82-1.35q17.52-.16,35,.28a25.69,25.69,0,0,1,7.57,1.84c1.9.66,2.7,2.28,2.25,4.37-.75,3.52-1.59,7-2.16,10.56a61.35,61.35,0,0,0-.4,6.59c-1.84-.93-2.5.05-2.56,1.34-.4,7.78-.79,15.56-1,23.35q-.32,11.94-.28,23.89c0,9,.31,18,.39,27.06.05,6.25,0,12.51-.05,18.77h-4.45l.34-6.9c.21-4.35.56-8.7.59-13,0-6.46-.22-12.92-.19-19.38,0-5.7.3-11.39.43-17.09.12-5.16.24-10.32.3-15.47.07-5.66-.06-11.32.14-17,.18-5,.32-5-4.72-4.79-1.61.05-2.17.53-2,2.19a38.73,38.73,0,0,1,.09,6.15c-.21,3.24-.87,6.47-.91,9.71-.06,5.94.29,11.88.29,17.82,0,8.37-.2,16.73-.2,25.1,0,2,.58,4.08.61,6.13.15,8.85.2,17.7.29,26.55h-4c.12-1.39.29-2.77.35-4.16q.3-6.86.53-13.74c.09-2.69.56-5.46.09-8.05-1.51-8.47-.29-17-.49-25.42-.14-5.85.35-11.72.4-17.58,0-6.31-.2-12.64-.13-18.95.05-4.68-.13-5.08-4.66-5.73a4.26,4.26,0,0,1-.47-.13c-2.12-.59-3.16.55-3.37,2.4-.49,4.3-1,8.61-1.13,12.93-.09,4.88.46,9.77.45,14.66,0,6.54-.35,13.08-.45,19.62q-.19,12.75-.22,25.51c0,2.36.23,4.73.31,7.1.14,3.85.25,7.7.38,11.54h-4.45c.17-5.33.39-10.66.5-16,.17-8.29.24-16.58.4-24.87.05-2.86.34-5.72.32-8.57,0-3.4-.39-6.81-.36-10.21s.39-6.84.57-10.26c.33-6.31-.85-12.63,0-18.95a37.59,37.59,0,0,0,0-4.9H158.79c-2,31.29-.8,62.52-.22,93.75h-4c.07-1.55.16-3.1.22-4.66.18-4.75.39-9.5.52-14.25.08-2.93.15-5.86,0-8.79-.13-3.61-.63-7.2-.65-10.8,0-5.54.15-11.07.35-16.6.08-2,.71-4.07.7-6.1,0-5-.31-10.09-.44-15.13s-.16-10.18-.27-15.27c0-1.51-.06-2.85-2.32-2.94s-3.72.5-4,2.82c-.46,4.22-1,8.45-1.13,12.68-.11,5.13.39,10.28.3,15.42-.14,8.66-.62,17.32-.79,26-.12,5.81,0,11.64.08,17.45.1,6.73.27,13.46.42,20.19h-4c.18-2.7.48-5.4.5-8.11.09-11.17-1.17-22.34.39-33.5A55.7,55.7,0,0,0,145,143c0-3.32-.47-6.65-.44-10,.08-6.86.41-13.72.54-20.59,0-2.06-.4-4.13-.32-6.19.08-2.43.49-4.86.79-7.53H135.31c-.36,8.07-.84,16.08-1,24.1-.14,5.91.2,11.82.14,17.74-.06,6.8-.42,13.59-.47,20.39-.05,6.4.1,12.81.18,19.21.05,4.26.13,8.52.19,12.78h-3.46a43.64,43.64,0,0,1-.37-4.38c.06-5.51.29-11,.32-16.51,0-6.63-.14-13.26-.1-19.89,0-3.76.4-7.51.46-11.27.08-4.89-.08-9.8,0-14.69.14-8.6.38-17.21.62-25.81,0-1.36-.43-2-1.85-1.89-1.23.09-2.47,0-3.71,0-7.94.15-15.87.34-23.81.46-4.31.06-8.63,0-12.77,0-.38,4.8-1,9.83-1.12,14.87-.17,6.43.12,12.88.09,19.31,0,7.63-.26,15.26-.25,22.89,0,2.71.65,5.41.67,8.11,0,6.9-.09,13.8-.16,20.69q0,4-.07,8.06H85.36c.07-2.2.14-4.4.22-6.61.16-4.34.34-8.68.5-13,.11-2.77.32-5.54.28-8.3-.13-8.4-.47-16.79-.53-25.19,0-5.94.38-11.88.4-17.82,0-5.66-.21-11.32-.32-17,0-1.8,0-3.61-.14-5.4C85.72,99.16,85.12,98.36,84.73,98.34Z"/><path class="cls-3" d="M65.07,193h-4c.17-3.29.48-6.57.49-9.86,0-9.45-.1-18.9,0-28.36,0-4,.74-8,.8-12,0-3.56-.58-7.13-.53-10.69.06-5.88.5-11.75.65-17.64.12-4.6-.95-9.19.06-13.79.44-2-.6-2.6-2.47-2.58-5.88.06-11.76,0-17.42,0-.41,5.39-1,10.5-1.14,15.61-.17,6.51.1,13,.09,19.54,0,8.38-.2,16.75-.2,25.13,0,2,.59,4.09.59,6.13,0,6.89-.1,13.79-.16,20.68q0,3.91-.05,7.82H38.36"/><path class="cls-3" d="M76.95,193H73.48"/><path class="cls-3" d="M134.33,193h-3.46a43.64,43.64,0,0,1-.37-4.38c.06-5.51.29-11,.32-16.51,0-6.63-.14-13.26-.1-19.89,0-3.76.4-7.51.46-11.27.08-4.89-.08-9.8,0-14.69.14-8.6.38-17.21.62-25.81,0-1.36-.43-2-1.85-1.89-1.23.09-2.47,0-3.71,0-7.94.15-15.87.34-23.81.46-4.31.06-8.63,0-12.77,0-.38,4.8-1,9.83-1.12,14.87-.17,6.43.12,12.88.09,19.31,0,7.63-.26,15.26-.25,22.89,0,2.71.65,5.41.67,8.11,0,6.9-.09,13.8-.16,20.69q0,4-.07,8.06H85.36"/><path class="cls-3" d="M147.68,193h-4"/><path class="cls-3" d="M178.85,193h-4.45c.17-5.33.39-10.66.5-16,.17-8.29.24-16.58.4-24.87.05-2.86.34-5.72.32-8.57,0-3.4-.39-6.81-.36-10.21s.39-6.84.57-10.26c.33-6.31-.85-12.63,0-18.95a37.59,37.59,0,0,0,0-4.9H158.79c-2,31.29-.8,62.52-.22,93.75h-4"/><path class="cls-3" d="M191.22,193h-4"/><path class="cls-3" d="M18.08,193h-4c.18-5.92.42-11.83.54-17.76.16-8.37.21-16.75.37-25.12.05-2.79.43-5.57.39-8.35,0-3.32-.58-6.64-.53-10,.09-6.54.62-13.08.62-19.62,0-3.69-.66-7.37.07-11.08a2.78,2.78,0,0,0-1.49-3.44,5.92,5.92,0,0,1-2.66-3.8c-.62-4.27-.77-8.62-1.08-12.95-.2-2.82.73-4,3.53-4.28,3.36-.34,6.73-.64,10.1-.83s6.74-.41,10.1-.29c3.59.13,7.16.8,10.76.93,5.58.21,11.17.15,16.76.24,5.9.09,11.79.24,17.69.32,5.41.07,10.82.15,16.23.12,3.61,0,7.21-.29,10.82-.3,7.28,0,14.56.17,21.83.09,7.62-.08,15.25-.25,22.86-.63,3.62-.18,7.21-1.32,10.82-1.35q17.52-.16,35,.28a25.69,25.69,0,0,1,7.57,1.84c1.9.66,2.7,2.28,2.25,4.37-.75,3.52-1.59,7-2.16,10.56a61.35,61.35,0,0,0-.4,6.59c-1.84-.93-2.5.05-2.56,1.34-.4,7.78-.79,15.56-1,23.35q-.32,11.94-.28,23.89c0,9,.31,18,.39,27.06.05,6.25,0,12.51-.05,18.77h-4.45"/><path class="cls-3" d="M30,193H26.49"/><path class="cls-3" d="M134.33,193c-.06-4.26-.14-8.52-.19-12.78-.08-6.4-.23-12.81-.18-19.21.06-6.8.41-13.59.47-20.39.05-5.91-.28-11.83-.14-17.74.19-8,.67-16,1-24.1h10.22c-.3,2.67-.7,5.1-.79,7.53-.07,2.06.36,4.13.32,6.19-.13,6.86-.46,13.72-.54,20.59,0,3.32.39,6.64.44,10a55.7,55.7,0,0,1-.34,8.33c-1.55,11.16-.3,22.33-.39,33.5,0,2.71-.33,5.41-.5,8.11Z"/><path class="cls-3" d="M178.85,193c-.12-3.84-.23-7.69-.38-11.54-.08-2.37-.32-4.74-.31-7.1q0-12.76.22-25.51c.1-6.54.44-13.08.45-19.62,0-4.89-.54-9.78-.45-14.66.08-4.32.64-8.63,1.13-12.93.21-1.85,1.25-3,3.37-2.4a4.26,4.26,0,0,0,.47.13c4.53.65,4.71,1.05,4.66,5.73-.07,6.31.17,12.64.13,18.95,0,5.86-.53,11.73-.4,17.58.2,8.46-1,16.95.49,25.42.47,2.6,0,5.37-.09,8.05q-.23,6.87-.53,13.74c-.06,1.39-.23,2.77-.35,4.16Z"/><path class="cls-3" d="M30,193c0-5.58,0-11.16,0-16.73s-.36-11.17-.33-16.75c0-6.8.39-13.6.46-20.39.06-5.83-.25-11.67-.11-17.5.17-7.69.61-15.37.94-23.22,1.22-.07,2.26-.09,3.29-.2,4.6-.51,4.92-.25,4.92,4.33,0,8.36,0,16.73,0,25.09,0,3.9-.27,7.8-.22,11.7.11,8.65.38,17.31.54,26,0,2.36,0,4.73-.17,7.1-.22,3.69-.63,7.36-.8,11-.14,3.19-.06,6.38-.07,9.57Z"/><path class="cls-3" d="M76.95,193c0-5.58,0-11.15,0-16.73s-.36-11.16-.32-16.74c0-6.79.4-13.58.47-20.38.05-5.91-.27-11.82-.14-17.73.18-7.76.65-15.52,1-23.14,2.48,0,4.66-.06,6.83.06.39,0,1,.83,1,1.31.15,1.79.1,3.6.14,5.4.11,5.66.34,11.32.32,17,0,5.94-.43,11.88-.4,17.82.05,8.4.4,16.8.53,25.19,0,2.77-.17,5.54-.28,8.3-.16,4.34-.34,8.69-.5,13-.08,2.21-.15,4.41-.22,6.61Z"/><path class="cls-3" d="M18.08,193a20.61,20.61,0,0,0,.28-2.9c-.22-6.56-.66-13.11-.69-19.66,0-7.86.25-15.71.43-23.57.14-6.46.42-12.92.43-19.38,0-4.89-.52-9.79-.41-14.67.11-4.48.68-9,1.2-13.41a1.75,1.75,0,0,1,2.48-1.58c1.71.45,4.23-.13,5.11.88s.15,3.39.11,5.17c-.16,8.6-.36,17.2-.47,25.8,0,3.09.19,6.19.15,9.29,0,3.92-.35,7.83-.37,11.74,0,6.63.11,13.26.1,19.89,0,4.84-.2,9.68-.22,14.53,0,2.63.18,5.25.28,7.88Z"/><path class="cls-3" d="M65.07,193c.08-1.13.26-2.27.23-3.4-.2-6.39-.61-12.77-.63-19.17,0-7.86.25-15.71.42-23.57.14-6.46.42-12.92.44-19.38,0-4.89-.5-9.79-.41-14.67a127.59,127.59,0,0,1,1.15-12.93c.06-.51,1.24-1.21,1.95-1.28,1.94-.18,3.91-.06,5.9-.06,0,2.26,0,4.52,0,6.79-.14,9.75-.27,19.51-.45,29.26-.1,5.7-.39,11.39-.42,17.09,0,6.47.2,12.94.21,19.4,0,4.68-.21,9.36-.23,14,0,2.62.18,5.25.28,7.88Z"/><path class="cls-3" d="M147.68,193c-.14-6.73-.32-13.46-.42-20.19-.08-5.82-.2-11.64-.08-17.45.17-8.66.65-17.32.79-26,.08-5.14-.42-10.29-.3-15.42.1-4.23.67-8.46,1.13-12.68.26-2.33,1.7-2.92,4-2.82s2.29,1.42,2.32,2.94c.1,5.09.14,10.18.27,15.27s.41,10.08.44,15.13c0,2-.62,4.06-.7,6.1-.2,5.53-.39,11.07-.35,16.6,0,3.6.51,7.2.65,10.8.1,2.92,0,5.86,0,8.79-.13,4.75-.34,9.5-.52,14.25-.06,1.56-.14,3.11-.22,4.66Z"/><path class="cls-3" d="M191.22,193c-.09-8.85-.14-17.7-.29-26.55,0-2-.62-4.09-.61-6.13,0-8.37.21-16.73.2-25.1,0-5.94-.36-11.88-.29-17.82,0-3.24.69-6.47.91-9.71a38.73,38.73,0,0,0-.09-6.15c-.15-1.65.41-2.13,2-2.19,5-.17,4.9-.23,4.72,4.79-.2,5.65-.07,11.31-.14,17-.06,5.16-.18,10.31-.3,15.47-.13,5.69-.41,11.39-.43,17.09,0,6.46.23,12.92.19,19.38,0,4.35-.38,8.7-.59,13l-.34,6.9Z"/><path class="cls-3" d="M131.18,94.52c-11.93,0-23.86.06-35.78,0-13.66-.08-27.32-.29-41-.42-8-.07-16-.08-23.93-.11-4.34,0-8.68.06-13,0a2.33,2.33,0,0,1-1.75-1.4c-.44-3.57-.72-7.16-.88-10.76a2,2,0,0,1,1.41-1.42c5.39.11,10.79.39,16.18.56,1.39,0,2.79-.19,4.19-.17,6.5.08,13,.32,19.5.3,7,0,14-.39,21-.4,4.67,0,9.33.47,14,.49,4.1,0,8.19-.36,12.28-.47,4.49-.11,9-.15,13.47-.15,12.06,0,24.12.07,36.18.07,3.13,0,3.45.26,2.74,3.43-.67,3-1.45,5.92-2.35,8.82A2.35,2.35,0,0,1,151.66,94c-6.82.35-13.64.59-20.46.87C131.19,94.75,131.18,94.64,131.18,94.52Z"/><path class="cls-3" d="M158.86,81c5.24,0,10,.09,14.74,0q13.19-.3,26.39-.81c3.15-.12,3.42-.11,3,2.9-.52,3.54-1.24,7.07-2.12,10.54a2.89,2.89,0,0,1-2.16,1.67c-7.16.09-14.33,0-21.49,0-3.44,0-6.87.12-10.31.1a26.84,26.84,0,0,1-4.17-.38c-2.21-.35-3.73-3-3.28-5.27a12.91,12.91,0,0,0,0-3.55C159.31,84.46,159.06,82.73,158.86,81Z"/><path class="cls-4" d="M46,77.34c-2,0-4.43,0-6.89,0-1.56,0-2-.72-2-2.24,0-.74.17-1.48.15-2.22-.13-4.76-.09-4.91,4.52-5.33,4.33-.4,8.72-.41,13.07-.64,1.36-.07,2,.41,1.93,1.82-.08,2.13,0,4.27-.12,6.4-.14,1.73-1.63,2.52-3.53,2.35-2.2-.19-4.14,0-7.14,0Z"/><path class="cls-5" d="M56.42,72.35c-6,.18-12.16.86-18.14,0-2-.3-4,.47-4.56,2.59-.49,1.77.59,4.27,2.59,4.56,6.71,1,13.37.5,20.12.3C61.19,79.63,61.21,72.21,56.42,72.35Z"/><path class="cls-6" d="M48.57,81.22l-11,.69c-1.89.12-3.74-.44-4.11-2.33A59.77,59.77,0,0,1,32.37,69.1c0-2.64,1.68-4.42,4.37-4.93a31.46,31.46,0,0,1,4.88-.6c4.28-.12,8.56-.18,12.84-.13a8.91,8.91,0,0,1,4,.79,4.27,4.27,0,0,1,2.09,2.83,81.38,81.38,0,0,1-.09,10.11c-.18,2.9-1.29,3.92-4.18,4S50.74,81.22,48.57,81.22ZM46,77.34v.1c3,0,4.94-.15,7.14,0,1.9.16,3.15-.62,3.28-2.35.17-2.12.17-4.26.26-6.4.06-1.41-.49-1.89-1.85-1.82-4.35.23-8.68.24-13,.64-4.61.42-4.58.57-4.44,5.33,0,.74,0,1.48,0,2.22,0,1.52.19,2.26,1.74,2.24C41.57,77.32,44,77.34,46,77.34Z"/><path class="cls-4" d="M46,62c-2,0-4.43,0-6.89,0-1.56,0-2-.72-2-2.24,0-.74.17-1.48.15-2.22-.13-4.76-.09-4.91,4.52-5.33,4.33-.4,8.72-.41,13.07-.64,1.36-.07,2,.41,1.93,1.82-.08,2.13,0,4.27-.12,6.4-.14,1.73-1.63,2.52-3.53,2.35-2.2-.19-4.14,0-7.14,0Z"/><path class="cls-5" d="M56.42,57c-6,.18-12.16.86-18.14,0-2-.3-4,.47-4.56,2.59-.49,1.77.59,4.27,2.59,4.56,6.71,1,13.37.5,20.12.3C61.19,64.29,61.21,56.87,56.42,57Z"/><path class="cls-6" d="M48.57,65.88l-11,.69c-1.89.12-3.74-.44-4.11-2.34a59.76,59.76,0,0,1-1.12-10.48c0-2.64,1.68-4.42,4.37-4.93a31.46,31.46,0,0,1,4.88-.6c4.28-.12,8.56-.18,12.84-.13a8.91,8.91,0,0,1,4,.79,4.27,4.27,0,0,1,2.09,2.83,81.38,81.38,0,0,1-.09,10.11c-.18,2.9-1.29,3.92-4.18,4S50.74,65.88,48.57,65.88ZM46,62v.1c3,0,4.94-.15,7.14,0,1.9.16,3.15-.62,3.28-2.35.17-2.12.17-4.26.26-6.4.06-1.41-.49-1.89-1.85-1.82-4.35.23-8.68.24-13,.64-4.61.42-4.58.58-4.44,5.33,0,.74,0,1.48,0,2.22,0,1.52.19,2.26,1.74,2.24C41.57,62,44,62,46,62Z"/><path class="cls-4" d="M46,47.66c-2,0-4.43,0-6.89,0-1.56,0-2-.72-2-2.24,0-.74.17-1.48.15-2.22-.13-4.76-.09-4.91,4.52-5.33,4.33-.4,8.72-.41,13.07-.64,1.36-.07,2,.41,1.93,1.82-.08,2.13,0,4.27-.12,6.4C56.53,47.19,55,48,53.14,47.81c-2.2-.19-4.14,0-7.14,0Z"/><path class="cls-5" d="M56.42,42.66c-6,.18-12.16.86-18.14,0-2-.3-4,.47-4.56,2.59-.49,1.77.59,4.27,2.59,4.56,6.71,1,13.37.5,20.12.3C61.19,49.94,61.21,42.52,56.42,42.66Z"/><path class="cls-6" d="M48.57,51.53l-11,.69c-1.89.12-3.74-.44-4.11-2.34a59.76,59.76,0,0,1-1.12-10.48c0-2.64,1.68-4.42,4.37-4.93a31.43,31.43,0,0,1,4.88-.6c4.28-.12,8.56-.18,12.84-.13a8.92,8.92,0,0,1,4,.79,4.27,4.27,0,0,1,2.09,2.83,81.38,81.38,0,0,1-.09,10.11c-.18,2.9-1.29,3.92-4.18,4S50.74,51.53,48.57,51.53ZM46,47.66v.1c3,0,4.94-.15,7.14,0,1.9.16,3.15-.62,3.28-2.35.17-2.12.17-4.26.26-6.4.06-1.41-.49-1.89-1.85-1.82-4.35.23-8.68.24-13,.64-4.61.42-4.58.58-4.44,5.33,0,.74,0,1.48,0,2.22,0,1.52.19,2.26,1.74,2.24C41.57,47.64,44,47.66,46,47.66Z"/><path class="cls-4" d="M46,33.31c-2,0-4.43,0-6.89,0-1.56,0-2-.72-2-2.24,0-.74.17-1.48.15-2.22-.13-4.76-.09-4.91,4.52-5.33,4.33-.4,8.72-.41,13.07-.64,1.36-.07,2,.41,1.93,1.82-.08,2.13,0,4.27-.12,6.4-.14,1.73-1.63,2.52-3.53,2.35-2.2-.19-4.14,0-7.14,0Z"/><path class="cls-5" d="M56.42,28.32c-6,.18-12.16.86-18.14,0-2-.3-4,.47-4.56,2.59-.49,1.77.59,4.27,2.59,4.56,6.71,1,13.37.5,20.12.3C61.19,35.6,61.21,28.17,56.42,28.32Z"/><path class="cls-6" d="M48.57,37.19l-11,.69c-1.89.12-3.74-.44-4.11-2.34a59.77,59.77,0,0,1-1.12-10.48c0-2.64,1.68-4.42,4.37-4.93a31.46,31.46,0,0,1,4.88-.6c4.28-.12,8.56-.18,12.84-.13a8.91,8.91,0,0,1,4,.79A4.27,4.27,0,0,1,60.6,23a81.38,81.38,0,0,1-.09,10.11c-.18,2.9-1.29,3.92-4.18,4S50.74,37.19,48.57,37.19ZM46,33.31v.1c3,0,4.94-.15,7.14,0,1.9.16,3.15-.62,3.28-2.35.17-2.12.17-4.26.26-6.4.06-1.41-.49-1.89-1.85-1.82-4.35.23-8.68.24-13,.64-4.61.42-4.58.57-4.44,5.33,0,.74,0,1.48,0,2.22,0,1.52.19,2.26,1.74,2.24C41.57,33.29,44,33.31,46,33.31Z"/><path class="cls-4" d="M109,75.36c-2,0-4.31,0-6.78,0-1.56,0-2-.72-1.93-2.24,0-.74.2-1.48.18-2.22-.13-4.76-.07-4.91,4.54-5.33,4.33-.4,8.73-.41,13.08-.64,1.36-.07,2,.41,1.93,1.82-.08,2.13,0,4.27-.12,6.4-.14,1.73-1.74,2.52-3.65,2.35-2.2-.19-4.25,0-7.25,0Z"/><path class="cls-5" d="M119.65,70.36c-6,.18-12.16.86-18.14,0-2-.3-4,.47-4.56,2.59-.49,1.77.59,4.27,2.59,4.56,6.71,1,13.37.5,20.12.3C124.43,77.64,124.44,70.22,119.65,70.36Z"/><path class="cls-6" d="M111.8,79.23l-11,.69c-1.89.12-3.74-.44-4.11-2.33A59.77,59.77,0,0,1,95.6,67.11c0-2.64,1.68-4.42,4.37-4.93a31.5,31.5,0,0,1,4.88-.6c4.28-.12,8.56-.18,12.84-.13a8.91,8.91,0,0,1,4,.79,4.27,4.27,0,0,1,2.09,2.83,81.38,81.38,0,0,1-.09,10.11c-.18,2.9-1.29,3.92-4.18,4S114,79.23,111.8,79.23ZM109,75.36v.1c3,0,5.06-.15,7.26,0,1.9.16,3.2-.62,3.34-2.35.17-2.12.2-4.26.28-6.4.06-1.41-.48-1.89-1.84-1.82-4.35.23-8.67.24-13,.64-4.61.42-4.57.57-4.44,5.33,0,.74,0,1.48,0,2.22,0,1.52.07,2.26,1.63,2.24C104.68,75.34,107,75.36,109,75.36Z"/><path class="cls-4" d="M97,75.43c-2,0-4.3,0-6.76,0-1.56,0-1.95-.72-1.92-2.24,0-.74.2-1.48.18-2.22-.13-4.76-.07-4.91,4.54-5.33,4.33-.4,8.73-.41,13.08-.64,1.36-.07,2,.41,1.93,1.82-.08,2.13.05,4.27-.12,6.4-.14,1.73-1.76,2.52-3.66,2.35-2.2-.19-4.27,0-7.27,0Z"/><path class="cls-5" d="M107.68,70.44c-6,.18-12.16.86-18.14,0-2-.3-4,.47-4.56,2.59-.49,1.77.59,4.27,2.59,4.56,6.71,1,13.37.5,20.12.3C112.45,77.72,112.47,70.3,107.68,70.44Z"/><path class="cls-6" d="M99.83,79.31l-11,.69c-1.89.12-3.74-.44-4.11-2.34a59.75,59.75,0,0,1-1.12-10.48c0-2.64,1.68-4.42,4.37-4.93a31.43,31.43,0,0,1,4.88-.6c4.28-.12,8.56-.18,12.84-.13a8.92,8.92,0,0,1,4,.79,4.27,4.27,0,0,1,2.09,2.83,81.41,81.41,0,0,1-.09,10.11c-.18,2.9-1.29,3.92-4.18,4S102,79.31,99.83,79.31ZM97,75.43v.1c3,0,5.07-.15,7.27,0,1.9.16,3.21-.62,3.35-2.35.17-2.12.2-4.26.29-6.4.06-1.41-.48-1.89-1.83-1.82-4.35.23-8.67.24-13,.64-4.61.42-4.57.58-4.44,5.33,0,.74,0,1.48,0,2.22,0,1.52.06,2.26,1.61,2.24C92.7,75.41,95,75.43,97,75.43Z"/><path class="cls-4" d="M79,75.43c-3,0-4.95,0-7.41,0a1.94,1.94,0,0,1-2.25-2.24c0-.74,0-1.48,0-2.22-.13-4.76-.15-4.91,4.46-5.33,4.33-.4,8.69-.41,13-.64,1.36-.07,2,.41,1.91,1.82-.08,2.13,0,4.27-.13,6.4-.14,1.73-1.12,2.52-3,2.35-2.2-.19-4.63,0-6.63,0Z"/><path class="cls-5" d="M88.38,70.44c-6,.18-12.16.86-18.14,0-2-.3-4,.47-4.56,2.59-.49,1.77.59,4.27,2.59,4.56,6.71,1,13.37.5,20.12.3C93.16,77.72,93.17,70.3,88.38,70.44Z"/><path class="cls-6" d="M80.53,79.31l-11,.69c-1.89.12-3.74-.44-4.11-2.34a59.75,59.75,0,0,1-1.12-10.48c0-2.64,1.68-4.42,4.37-4.93a31.43,31.43,0,0,1,4.88-.6c4.28-.12,8.56-.18,12.84-.13a8.92,8.92,0,0,1,4,.79,4.27,4.27,0,0,1,2.09,2.83,81.43,81.43,0,0,1-.09,10.11c-.18,2.9-1.29,3.92-4.18,4S82.71,79.31,80.53,79.31ZM79,75.43v.1c2,0,4.43-.15,6.63,0,1.9.16,2.89-.62,3-2.35.17-2.12,0-4.26.13-6.4.06-1.41-.56-1.89-1.92-1.82-4.35.23-8.71.24-13,.64-4.61.42-4.59.58-4.46,5.33,0,.74,0,1.48,0,2.22a1.94,1.94,0,0,0,2.26,2.24C74.05,75.41,76,75.43,79,75.43Z"/><path class="cls-7" d="M192.34,40.93c-5.49-1.59-10.68,1.52-13,6.79-2,4.64-2.22,9.47-1.65,14.35.48,4.11.36,4.65-3.73,4.8a52.62,52.62,0,0,1-9-.72c-.59-.08-1.33-1.19-1.47-1.93a20.27,20.27,0,0,1-.07-3.86c.59-10.68,2.8-21,10-29.26,3.67-4.21,9-5.7,14.59-6.41s9.82,2.08,14.17,4.51A14.21,14.21,0,0,1,206.65,34c4.89,7.54,8,15.68,7.65,24.85-.05,1.38.24,2.77.13,4.15-.2,2.77-.49,5.55-.93,8.29a2.11,2.11,0,0,1-1.6,1.22,41.09,41.09,0,0,1-7.17-.26c-.51-.07-1-1.64-1.17-2.57-.84-6.3-1.25-12.67-2.46-18.89A12.41,12.41,0,0,0,192.34,40.93Z"/><path class="cls-8" d="M177.31,93.84c.11,5.18-1,6.22-6.21,5.93-1.93-.11-3.86-.32-5.79-.37-1.65,0-2.62-.66-2.72-2.41a30.22,30.22,0,0,1-.26-3.3c.16-2.42.91-4.2,3.94-4.24a71.58,71.58,0,0,0,7.39-1c3.49-.42,3.58-.31,3.65,3.17C177.32,92.37,177.31,93.11,177.31,93.84Z"/><path class="cls-8" d="M171.89,104.19c5,.19,6.15,1.86,4.66,6.64-.13.41-.4,1-.73,1.09-3.87,1.4-7.7,3.19-12,1.7a1.62,1.62,0,0,1-.52-.18c-2.48-2.22-.62-4.84-.45-7.22.06-.86,1.63-2,2.71-2.3,1.36-.34,2.91.08,4.39.18Z"/><path class="cls-7" d="M166.28,135a51.81,51.81,0,0,1,8.91.78c.42.06,1,1.07,1,1.63-.21,5.1-.53,10.2-.83,15.3-.35,6-.83,12-1,17.94-.26,7.67-.44,15.35-.33,23,0,2.33-.79,3.34-2.65,4.4-2.36,1.35-4.52,2.2-7.29,1.24s-4.34-2.33-3.91-5.42a17.72,17.72,0,0,0,0-2.49h0c.34-8,.76-16.08,1-24.13.15-5.15,0-10.32.07-15.48.07-4.05.28-8.1.52-12.15C162,136.33,162.93,135.18,166.28,135Z"/><path class="cls-8" d="M173,117.57c1.77-.26,3.12.26,3.17,2.07a94.08,94.08,0,0,1-.36,9.61c0,.42-1,1-1.59,1.08-1.65.15-3.31.05-5.36.05l-1,.07c-5.14.35-5.73-.22-5.61-5.34a8.24,8.24,0,0,0,0-1.66c-.9-5,1-4.73,5-5.35C169.13,117.8,171.07,117.84,173,117.57Z"/><path d="M218.68,67.78c-.24,8.39-5.45,11.61-13.66,9.68-3.56-.83-6.43-1.72-7.3-5.54a31.21,31.21,0,0,1-.34-5h.17c-.24-3.31-.38-6.64-.73-9.94a14.53,14.53,0,0,0-4.71-8.91c-2.43-2.36-4.4-2.07-6.55.56-2.45,3-2.26,6.41-2,10a101.83,101.83,0,0,1,.31,13.84c-.59,8.33-1.69,16.63-2.47,24.95-.22,2.28-.06,4.59-.09,6.88-.09,6.53,0,13.06-.32,19.58-.46,10.39-1.45,20.77-1.67,31.16-.24,11.08.19,22.18.22,33.27a55.4,55.4,0,0,1-.67,9.66c-.47,2.65-1.71,5.1-4.88,5.66-2,.35-3.9.79-5.85,1.15-4.34.77-7.36-1.75-10.43-4.18-3.36-2.66-1.88-6.29-1.88-9.56,0-4.05.31-8.11.56-12.16.29-4.78.77-9.55,1-14.34.31-7.89.41-15.8.68-23.7.16-4.87.56-9.74.67-14.62.07-3.54-.15-7.1-.26-10.64-.12-4.12-.43-8.24-.36-12.36.11-6.34.51-12.67.72-19,0-1.37-.29-2.75-.32-4.13-.17-7.46-.46-14.92-.36-22.37,0-2.71,1.06-5.4,1.55-8.12,1.53-8.39,6.14-15.28,10.63-22.26,2.37-3.7,6-4.82,9.83-5.86,6.38-1.74,12.61-2.4,18.77,1.15,4.16,2.39,8.95,4,11.65,8.18,3.65,5.68,7.22,11.53,7.6,18.57C218.44,55.5,218.85,61.65,218.68,67.78Zm-54.84,45.84c4.29,1.49,8.12-.3,12-1.7.33-.12.61-.68.73-1.09,1.49-4.78.31-6.45-4.66-6.64L170,104.1c-1.47-.09-3-.52-4.39-.18-1.07.27-2.65,1.44-2.71,2.3-.17,2.38-2,5,.45,7.22A1.62,1.62,0,0,0,163.83,113.61Zm10.63-42.54c-3-.22-6-.68-9-.64A3.38,3.38,0,0,0,163,72.62,98.71,98.71,0,0,0,162.44,83c0,1.78,1.15,2.46,2.79,2.2,2.88-.46,5.79-.88,8.62-1.58,4.52-1.12,4.65-1.42,4.27-6a15,15,0,0,1-.12-2.49C178.29,72.5,177.05,71.26,174.47,71.07Zm-9.16,28.32c1.93.05,3.86.26,5.79.37,5.24.29,6.32-.74,6.21-5.93,0-.73,0-1.47,0-2.21-.07-3.48-.16-3.59-3.65-3.17a71.58,71.58,0,0,1-7.39,1c-3,0-3.77,1.82-3.94,4.24a30.22,30.22,0,0,0,.26,3.3C162.69,98.73,163.67,99.36,165.31,99.39Zm-1.23,99.95c2.77,1,4.93.11,7.29-1.24C173.22,197,174,196,174,193.7c-.11-7.67.08-15.35.33-23,.2-6,.68-12,1-17.94.3-5.1.62-10.2.83-15.3,0-.56-.6-1.57-1-1.63a51.81,51.81,0,0,0-8.91-.78c-3.35.14-4.26,1.3-4.46,4.64-.24,4-.45,8.09-.52,12.15-.09,5.16.08,10.32-.07,15.48-.24,8-.66,16.09-1,24.13h0a17.72,17.72,0,0,1,0,2.49C159.74,197,161.36,198.4,164.08,199.34Zm4.74-69c2.06,0,3.72.1,5.36-.05.58-.05,1.56-.67,1.59-1.08a94.08,94.08,0,0,0,.36-9.61c-.05-1.82-1.4-2.33-3.17-2.07s-3.83.24-5.72.53c-4,.62-5.94.39-5,5.35a8.24,8.24,0,0,1,0,1.66c-.12,5.13.47,5.69,5.61,5.34Zm35.92-58.15a41.09,41.09,0,0,0,7.17.26,2.11,2.11,0,0,0,1.6-1.22c.44-2.74.73-5.51.93-8.29.11-1.37-.18-2.77-.13-4.15.32-9.17-2.76-17.31-7.65-24.85a14.21,14.21,0,0,0-4.45-4.79c-4.36-2.43-8.63-5.22-14.17-4.51s-10.92,2.2-14.59,6.41c-7.22,8.29-9.43,18.58-10,29.26a20.27,20.27,0,0,0,.07,3.86c.14.74.88,1.85,1.47,1.93a52.62,52.62,0,0,0,9,.72c4.09-.14,4.21-.69,3.73-4.8-.57-4.88-.38-9.72,1.65-14.35,2.29-5.26,7.48-8.38,13-6.79a12.41,12.41,0,0,1,8.77,9.84c1.22,6.22,1.62,12.6,2.46,18.89C203.69,70.59,204.23,72.16,204.74,72.23Z"/><path class="cls-8" d="M178.12,77.66c.38,4.57.24,4.88-4.27,6-2.83.7-5.73,1.12-8.62,1.58-1.64.27-2.82-.42-2.79-2.2A98.71,98.71,0,0,1,163,72.62a3.38,3.38,0,0,1,2.46-2.18c3,0,6,.42,9,.64,2.58.18,3.82,1.42,3.53,4.1A15,15,0,0,0,178.12,77.66Z"/></svg>