<svg id="圖層_1" data-name="圖層 1" xmlns="http://www.w3.org/2000/svg" viewBox="0 0 41.47 42"><defs><style>.cls-1{fill:#221c1c;}.cls-1,.cls-2{fill-rule:evenodd;}.cls-2{fill:#e58c8a;}</style></defs><title>graphic</title><path class="cls-1" d="M11,35.59c.08-.19.23-.48.35-.78a3,3,0,0,0-.61-3.42,23.12,23.12,0,0,1-4.12-6.44,12.24,12.24,0,0,1-.82-7.87,10,10,0,0,1,1.49-3.42,4.35,4.35,0,0,1,1.83-1.28c3.09-1.77,6.35-1.46,9.57-.43a6.93,6.93,0,0,1,4.29,4.5c.77,2,.6,1.87,2.51,1.16A9.29,9.29,0,0,1,32,18,19.47,19.47,0,0,1,34.3,19a4.7,4.7,0,0,1,2.26,2.42,12.77,12.77,0,0,1,.89,3.67,3.52,3.52,0,0,1-1.38,3.08,50.14,50.14,0,0,1-6.25,4.52,14.12,14.12,0,0,1-4.59,2.2,9.35,9.35,0,0,0-1.81.9A15.64,15.64,0,0,1,18.69,37a7,7,0,0,0-4,1.7c-1.47,1.32-3.49.12-4.15-1.25C10.17,36.78,10.72,36.28,11,35.59Z"/><path class="cls-2" d="M15.62,33.44c-.26-2.3-1.47-4.11-2.64-6-1.06-1.67-2.07-3.37-3-5.09a4.83,4.83,0,0,1,.08-5.2A4.54,4.54,0,0,1,16,15c.62.22,1.24.44,1.85.69,2,.83,2.5,2,2,4.4a4.33,4.33,0,0,1-1.18,2.2A2.77,2.77,0,0,0,18,24.65a1.67,1.67,0,0,0,1.2,1.6,1.86,1.86,0,0,0,2-.52,17.34,17.34,0,0,1,5.66-4.12c2.63-1.05,4.69.59,5.56,2.74a1.21,1.21,0,0,1-.35,1.47c-.92.83-1.84,1.67-2.74,2.53-1.8,1.73-4.17,2.23-6.45,2.92S18.05,32.55,15.62,33.44Z"/></svg>