<svg id="圖層_1" data-name="圖層 1" xmlns="http://www.w3.org/2000/svg" xmlns:xlink="http://www.w3.org/1999/xlink" viewBox="0 0 385.81 392.23"><defs><style>.cls-1{fill:none;clip-rule:evenodd;}.cls-2{clip-path:url(#clip-path);}.cls-3{fill:#080505;}.cls-10,.cls-11,.cls-12,.cls-13,.cls-14,.cls-15,.cls-16,.cls-3,.cls-4,.cls-5,.cls-6,.cls-7,.cls-8,.cls-9{fill-rule:evenodd;}.cls-4{fill:#fff;}.cls-5{fill:#a94743;}.cls-6{fill:#fdfefe;}.cls-7{fill:#dfb835;}.cls-8{fill:#a84844;}.cls-9{fill:#c35640;}.cls-10{fill:#5f5e5e;}.cls-11{fill:#a84944;}.cls-12{fill:#dab43b;}.cls-13{fill:#f8f8f8;}.cls-14{fill:#805a54;}.cls-15{fill:#090707;}.cls-16{fill:#0f1010;}</style><clipPath id="clip-path"><path class="cls-1" d="M135.59,22.68,147,107s28.65-10.37,42.38-14.07a41.06,41.06,0,0,1,25.57,1.77L213.19,9,145.24,2.17Z"/></clipPath></defs><title>graphic</title><g class="cls-2"><path class="cls-3" d="M171.21,401.13c-8.94-5.81-11.8-15.29-15.22-24.41q-1.64-4.37-3.06-8.84a5.24,5.24,0,0,0-5.21-4c-9.79-.58-19.58-1.06-29.35-1.94a68.35,68.35,0,0,1-11.95-2.5,8.58,8.58,0,0,1-5.54-5c-1.34-2.91-3-5.65-4.63-8.42-2-3.49-2.86-7.41-4.18-11.16-1.89-5.36-2.33-10.76-2.81-16.23-.89-10.11-3.67-20-2.75-30.33.12-1.39.41-3-1-4.64l-2.48,18.24c0,.1,0,.2,0,.3-1.2,6.16-5.29,11.15-9.21,11.22-4.43.08-10.89-5.47-12.34-10.62a26.81,26.81,0,0,1-.78-5.68c-.58-9.47,1.38-18.66,2.56-27.95s2.14-18.61,3.48-27.88c2.68-18.64,5.35-37.27,10.5-55.42,6.87-24.22,20.38-43.85,38.37-60.37A105.53,105.53,0,0,1,152,103.82c4-1.43,4-1.59,2.94-5.87-1.55-6.5-1.75-13.19-2.26-19.8-.62-8.09-2.6-15.89-4-23.82a21.43,21.43,0,0,1-.3-4.82c.4-7.24-.26-14.5.46-21.75a54,54,0,0,1,3.55-14c1.39-3.66,3.83-4.43,7.26-2.58,5.37,2.91,8.36,7.65,9.75,13.65,1.23,5.33,1.25,5.32,5.6,2.37.9-.61,1.82-1.17,2.74-1.73,4.19-2.53,6.2-1.88,8.07,2.87,2,5.06,3.77,10.19,3.47,15.81a3.56,3.56,0,0,0,.13,1.5c.33.78.1,2.1,1.16,2.21.85.09,1.05-1.06,1.43-1.73a56.22,56.22,0,0,1,7.61-11.07c1.68-1.8,3.11-1.66,5.4-.84,7.84,2.84,5.84,9.08,5.23,14.89q-1.37,13.07-2.9,26.13c-.53,4.5-1,9-1.9,13.45-.55,2.85.45,3.56,2.93,3.75a134.45,134.45,0,0,1,34.44,7,77,77,0,0,1,17.67,9.22c8.14,5.51,16.66,10.46,24,17.17,3.11,2.85,6.53,3.23,10.27,1.4,4.56-2.23,9.25-3.1,14.07-.9a9.79,9.79,0,0,1,5.74,11.06,11.85,11.85,0,0,0,.27,3.86A17.8,17.8,0,0,1,310,155.93c-3,3.29-3.26,6.79-1.7,10.86a355.72,355.72,0,0,1,12.11,36,60.79,60.79,0,0,0,4.12,10.35c1.85,3.89,3.91,7.68,4.79,12a7,7,0,0,0,1,2.52c6.72,9.68,10.25,21.07,15.74,31.4,3.08,5.79,4.53,12.16,6.88,18.21,1.35,3.48,1.4,7.33,1.09,11.07-.28,3.46-.78,6.84-4.58,8.38s-7.05.51-9.87-2.26c-5.44-5.35-10.83-10.76-16.21-16.18-3.79-3.81-3.85-3.85-5.51,1.34A180.48,180.48,0,0,1,295,326.14c-4.89,7.21-11.6,12.77-17.71,18.84a11.29,11.29,0,0,0-3,5.7c-2.72,11.58-6,23-11,33.75-1.78,3.81-3.46,7.68-5.18,11.52-.83,1.86-.81,3.18,1.52,3.87,3.25,1,6,3.39,9.33,4.11a1.13,1.13,0,0,1,.94,1.56,1.9,1.9,0,0,1-2.14,1.23c-3.89-.08-7.78-.12-11.65-.53-2.13-.23-4.26-.34-6.39-.41-3.65-.11-5.73-3-4.46-6.58a114.41,114.41,0,0,0,5.68-21.88c.68-4.68,1.1-9.4,1.41-14.13.2-3.15-.79-3.84-3.62-2.82-7.73,2.78-15.79,3.1-23.83,3.46-3.42.15-6.7.4-9.77,2.33a14.84,14.84,0,0,1-7.54,2,144.65,144.65,0,0,1-33.6-2.89c-3.56-.72-4.47.14-3.36,3.64,3,9.57,5.2,19.46,9.45,28.6a5.71,5.71,0,0,1-1.14,6.68c-4.95,5.5-11.31,6.25-18,5.76a4.16,4.16,0,0,1-3.26-2.76c-1.13-2.45-.06-4.33,2.45-3.76C164,404.36,167.37,402.78,171.21,401.13Zm12.25-132a26.7,26.7,0,0,0-11.87-.06c-1.25.44-1.59,1.69-2.19,2.69-2.88,4.79-5.44,9.78-9.42,13.78a271.51,271.51,0,0,1-22.53,20.16C126.69,314.3,115.85,322.86,103,328c-4.82,1.93-5.25,2.71-4.1,7.85,1.39,6.23,4,11.62,10.12,14.23,1.59.67,3.35,1.27,4.43-.6s2.9-2.88,4.66-3.92a67.56,67.56,0,0,0,7.74-4.82c9-7.15,17.95-14.5,26.94-21.73,8.5-6.84,15.68-15.09,23-23.17,7.08-7.79,14.61-15.12,21.21-23.38,1.56-2,1.26-2.65-1-3C191.82,268.84,187.63,269.32,183.46,269.1Zm-93-14.42c.85,4.19,3.32,4.87,5.74,5.73a66.89,66.89,0,0,0,31.55,3.4c3-.39,5.91-1.35,8.89-1.15a127.19,127.19,0,0,0,20.09-.11,113.62,113.62,0,0,1,15.7-.48c9.48.44,18.94,2.14,28.48.95,9.15-1.14,18.33-2,27.45-3.48,7-1.15,13.55-5.27,21-3.22a1.4,1.4,0,0,0,.57-.08A231.16,231.16,0,0,0,278,249.1c15.48-5,29.73-12.15,41.87-23.52,2.09-2,2.76-3.85,1.64-6.61-6.91-17.07-13-34.48-19.16-51.86-.7-2-1.06-2.61-3.31-1.43-10.24,5.36-20.92,9.61-32.29,11.49-10.64,1.76-21.33,3.17-32,4.41-8.68,1-17.37,1.82-26.12.21-8-1.48-15.38-4.68-22.49-8.63-.78-.43-1.63-1-1.55-2s1.18-1.26,2-1.52a26.26,26.26,0,0,1,7.12-1.43c5.42-.2,10.85-.17,16.21-1.49,25.25-6.27,48.27-17.91,70.5-31.48,2.62-1.6,2.62-3,.12-5-6.76-5.47-14.15-9.95-21.45-14.54-5.38-3.38-10.59-7.15-16.68-9.13-11.52-3.74-23.4-5.62-35.31-7.37-1.63-.24-2.4.39-2.4,2.09,0,1.21,0,2.43,0,3.64.35,10.7-1.71,21.09-3.83,31.46-.44,2.12-.91,4.61-3,5.66-3.5,1.77-7.2,3.05-11.21,2.6a9.67,9.67,0,0,1-9-10.41c.22-5.65.67-11.28,1-16.92.28-5.38.49-10.76.74-16.32-1.88.71-3.41,1.3-5,1.86-9.8,3.51-19.74,6.62-29.35,10.59-14.58,6-26,16.67-36.6,28.39-12.2,13.5-21.43,28.48-26,46.83a527.21,527.21,0,0,0-11.64,65c-.56,4.66-.47,4.87,3.87,5.48C80.16,260,86.17,262.62,90.43,254.67Zm36.25,99c8,1.49,15.56,3.95,23.54,2.48a6.3,6.3,0,0,1,4,.54A6.37,6.37,0,0,0,161,356c1.82-1.25,2.19-3.45,4-4.71,9.3-6.65,17.6-14.72,25.55-22.84,11.51-11.75,23-23.89,31-38.83a10.37,10.37,0,0,1,.72-1c4.77-6.87,10.2-13.26,13.78-21,.52-1.13,1.15-2.44.48-3.44s-2.1-.5-3.22-.22c-5,1.24-10,3.15-15.06,3-5.55-.18-9.52,2.19-13,6.16-4.9,5.61-9.64,11.36-14.9,16.63a252.78,252.78,0,0,0-21.14,24.64c-10.34,13.45-21.81,25.47-36.34,34.06A16.72,16.72,0,0,0,126.68,353.63Zm57.6,6c2.88.7,5.47-.69,8-3.12q13.62-12.83,26.81-26.11c11.65-11.7,21.5-25,31.39-38.22a149.29,149.29,0,0,0,17-30.21c.87-2,.54-2.75-1.63-2.51-4.91.54-9.83,1-14.74,1.5a5,5,0,0,0-3.86,2.82c-3.67,6.18-6.81,12.89-11.36,18.28-9.53,11.28-17.27,24.09-27.92,34.44-6.08,5.9-11.17,12.91-16.76,19.35-6.07,7-12.84,13.23-19.43,19.66-.6.59-1.57,1.09-1.17,2.21s1.32.61,2,.75A51.38,51.38,0,0,0,184.28,359.58ZM228.19,357a53.75,53.75,0,0,0,14.44-2.85c8.44-2.88,17.49-4.48,25-9.52,10.23-6.88,19.16-15.45,25.6-26.46a283.49,283.49,0,0,0,14.9-30.39c2.86-6.58,5.47-13.13,5.91-20.4.31-5.24.48-10.49.72-16.05a11.83,11.83,0,0,0-3.28,3.25c-10.44,12.71-18.85,26.87-27.16,41.1a34.34,34.34,0,0,1-7.09,9.14,67,67,0,0,0-7.57,8c-9.81,11.61-19.21,23.64-31.17,33.05C234.64,348.85,231.55,352.56,228.19,357Zm-20-185.39c2.54,2.69,4.67,3.28,10,2.94,7.56-.48,15.14-.78,22.69-1.42,12.09-1,24.19-2.13,36-5,4.94-1.18,10.17-1.4,14.59-4.66,5.69-4.19,10.81-8.92,14.66-15a21.75,21.75,0,0,0,3.33-12.34c-.09-3.85-1.77-5.36-5.46-5.52-4.43-.2-8.36,1.41-12.26,3.29-7.4,3.59-14.34,8-21.36,12.33-5.76,3.54-11,8.12-17.36,10.44-5.41,2-10.68,4.23-15.94,6.56s-10.37,5.26-16.2,5.61C216.51,169.13,212.42,170.44,208.15,171.6Zm-2,185.56a13.15,13.15,0,0,0,1.81,0c.57-.11,1.12-.31,1.68-.46,5.5-1.56,9.87-4.88,13.93-9,7.87-8,16.15-15.47,23.52-24,6.88-8,13.76-16,21.51-23.06a67.09,67.09,0,0,0,9.75-11.18c2.46-3.51,4.87-7.07,7.46-10.48a266.92,266.92,0,0,0,22.54-34.59c.39-.72,1.44-1.62.76-2.35s-1.79-.34-2.66.32c-5,3.75-10.86,5.8-16.55,8.1-3.29,1.34-6.66,2.42-7,6.94a4.46,4.46,0,0,1-1,1.84c-3.4,5-6.42,10.45-10.31,15.05-9.57,11.32-18.23,23.36-27,35.36-7.08,9.74-13.27,20.2-21.5,29C217.58,344.63,212.13,350.66,206.17,357.16Zm-44.74-87.42c-7.63,0-14.61.23-21.58-.09-4.15-.19-6.76,1.66-9,4.9-9,13-19.59,23.74-35.76,26.22A2.32,2.32,0,0,0,93,303.51c.7,5.79.8,11.66,2.34,17.32.52,1.89,1.25,1.81,2.62.77a69.51,69.51,0,0,1,9.08-6c7.32-4,14.84-7.61,21.47-12.75C140.62,293.43,150.52,281.57,161.43,269.74Zm6.14-208.87c.64-6.88-.54-13.94-1.75-21-1-5.94-2.16-11.87-3.48-17.74-.46-2-1.58-4.34-3.94-4.25s-3.2,2.29-3.62,4.5c-.13.69-.35,1.36-.48,2-2.07,10.36-.94,20.73.35,31s3.47,20.63,3.86,31.15A63.55,63.55,0,0,0,160.23,97c.3,1.45.85,3,2.64,3.24A5.41,5.41,0,0,0,169,93.55a9.37,9.37,0,0,1-.17-1.5C168.39,81.77,168,71.48,167.57,60.87Zm4.79-11.59h-.14c.47,9,.9,18,1.43,26.94.31,5.24.69,10.48,1.2,15.7.1,1-.44,2.66,1.09,3,3,.72,7.46-2.38,7.95-5.39,3-18.16,1.52-36.23-1.15-54.26-.35-2.4-2.19-3.45-3.88-2.4-4.17,2.6-7.09,6-6.52,11.52A48.29,48.29,0,0,1,172.36,49.28Zm31.73,9.16c-.21-4.43.14-8.93-1-13.25-.4-1.51.11-4.14-1.84-4.26-1.8-.12-2.42,2.26-3.17,3.88-.08.18-.12.38-.2.57-3.73,9.45-7.13,19-7.32,29.38-.08,4.54-.46,9.08-.67,13.62-.05,1.11-.13,2.48,1.23,2.74a24,24,0,0,0,8.13,0c1.14-.17,1.43-1.39,1.54-2.36C202,78.68,204.44,68.73,204.09,58.44ZM90.94,266.64c-1.3-.42-1.59.48-1.35,2.23,1,7.17,2.07,14.33,2.63,21.54.25,3.23,1.43,3.44,3.79,2.68,8.86-2.85,15.78-8.44,21.17-16.18a8.06,8.06,0,0,0,1.55-4.19c.05-.94-.15-1.55-1.16-1.72C108.89,269.59,100.21,268.16,90.94,266.64ZM184.63,114c-.36,5.76.7,13,.62,20.24,0,4.11,3.42,6.06,6.9,4.1,2.21-1.25,2.87-3.33,3-5.8.28-4.81.85-9.61,1-14.43.14-4.42,1.24-8.8.49-13.24-1.25-7.45-1.26-7.45-8.34-5.83a8.23,8.23,0,0,1-.87.07c-2,.22-2.9,1.25-2.84,3.4C184.7,105.85,184.63,109.18,184.63,114ZM334.56,273.61c2.33-.63,4.69-1.16,7-1.92a2.35,2.35,0,0,0,1.58-3.53c-2.21-5.16-3.95-10.49-5.65-15.85-.59-1.86-1.76-2.66-3.57-1.41a44.05,44.05,0,0,1-9.22,4.41c-3.24,1.27-3.43,1.82-.93,4.4a32.35,32.35,0,0,1,7.39,11.48A3.25,3.25,0,0,0,334.56,273.61Zm-259,11.29a1.81,1.81,0,0,0,2.1-1.43c1.68-5.34,3.4-10.66,5.1-16,.33-1,.14-1.71-1.05-2-3.49-.72-7-1.51-10.45-2.28-.93-.2-1.53.11-1.67,1.12Q68.42,273,67.24,281.6c-.11.78-.23,1.73.84,1.94C70.54,284,73,284.43,75.6,284.89Zm192.49,67.29a15.73,15.73,0,0,1-2.62,1.3c-5.46,1.32-7.39,5.09-7.77,10.67a137.34,137.34,0,0,1-3.31,20.23c-.14.65-.59,1.47.2,1.89s1.41-.36,1.86-1c.63-.9,1.21-1.82,1.79-2.76C263.86,373.43,266,363.12,268.09,352.18Zm57.67-121c-3.22,4.48-5.73,9.14-8.42,13.68-.83,1.4-1.57,3-.21,4.41s3.1,2.73,5.39,1.46c3-1.66,6-3.2,9-4.79,1.8-1,2-2.21.86-3.93C330.22,238.61,328.14,235.11,325.76,231.22ZM172.89,396a5.46,5.46,0,0,0-.53-3.77c-3.86-7.42-5.3-15.73-8.14-23.52-1.62-4.44-2-4.65-6.84-4C161.61,375.62,164.24,387.26,172.89,396ZM71,306.43A4.84,4.84,0,0,0,73.5,303c.66-2.51,1.15-5.08,2-7.55,1.38-4.28.86-5.8-4.34-6.24-3.41-.29-4.1.57-4,4.05C67.18,298.05,69.57,302,71,306.43Zm276.27-20.61c-.12-1.28-.14-2.2-.29-3.09-1.3-7.84-1.43-7.89-8.31-4.33-1.16.6-1.67,1-.6,2.28,2,2.45,3.83,5.07,5.75,7.6,1.55,2,2.14,2,3-.48A13.8,13.8,0,0,0,347.22,285.82Z"/><path class="cls-4" d="M90.43,254.67c-4.26,7.95-10.27,5.28-15.79,4.5-4.34-.61-4.43-.82-3.87-5.48a527.21,527.21,0,0,1,11.64-65c4.59-18.35,13.82-33.33,26-46.83,10.59-11.72,22-22.37,36.6-28.39,9.62-4,19.56-7.08,29.35-10.59,1.54-.55,3.07-1.15,5-1.86-.25,5.56-.46,10.94-.74,16.32-.29,5.64-.74,11.28-1,16.92a9.67,9.67,0,0,0,9,10.41c4,.45,7.71-.83,11.21-2.6,2.1-1.06,2.57-3.54,3-5.66,2.13-10.37,4.19-20.76,3.83-31.46,0-1.21,0-2.43,0-3.64,0-1.7.76-2.33,2.4-2.09,11.91,1.75,23.79,3.63,35.31,7.37,6.1,2,11.31,5.75,16.68,9.13,7.31,4.59,14.7,9.07,21.45,14.54,2.49,2,2.49,3.4-.12,5-22.23,13.57-45.25,25.22-70.5,31.48-5.36,1.33-10.79,1.29-16.21,1.49a26.26,26.26,0,0,0-7.12,1.43c-.79.25-1.89.4-2,1.52s.78,1.57,1.55,2c7.12,3.95,14.45,7.15,22.49,8.63,8.76,1.61,17.45.8,26.12-.21,10.7-1.25,21.4-2.65,32-4.41,11.36-1.88,22.05-6.13,32.29-11.49,2.25-1.18,2.61-.53,3.31,1.43,6.15,17.38,12.24,34.79,19.16,51.86,1.12,2.76.45,4.65-1.64,6.61C307.76,237,293.51,244.09,278,249.1a231.16,231.16,0,0,1-28.15,7.13,1.4,1.4,0,0,1-.57.08c-7.43-2.05-14,2.06-21,3.22-9.12,1.51-18.3,2.33-27.45,3.48-9.54,1.19-19-.5-28.48-.95a113.62,113.62,0,0,0-15.7.48,127.19,127.19,0,0,1-20.09.11c-3-.2-5.92.76-8.89,1.15a66.89,66.89,0,0,1-31.55-3.4C93.75,259.55,91.28,258.86,90.43,254.67Zm113.19-11.23c.1-5.31-1.19-11.29-1-17.37a76.46,76.46,0,0,0-.46-8.75c-.26-3.34-1.67-4.65-4.92-4.57-1.93,0-3.86.36-5.8.43-6.09.23-10.37,5.3-9.46,11.67,1.29,9,2.78,17.89,4.28,26.81.73,4.33,3.16,6.49,7.49,7.09,3.53.48,6.65-1.47,8.45-5.1C203.74,250.63,203.51,247.4,203.63,243.44Zm13.64-93.87c-.08-2.75-2.31-5.65-4.32-5.61-2.58,0-5.18,3.54-5,6.74.13,2.4,1.72,3.75,4.39,3.72A5,5,0,0,0,217.26,149.57Zm-46.72,4.52c0,2.78.86,3.9,2.91,3.9,2.81,0,6-3.49,5.81-6.43-.22-2.78-2.33-2.9-4.28-2.93C172.18,148.59,170.51,150.74,170.54,154.09Z"/><path class="cls-5" d="M126.68,353.63a16.72,16.72,0,0,1,6.09-5.16c14.52-8.59,26-20.61,36.34-34.06a252.78,252.78,0,0,1,21.14-24.64c5.26-5.27,10-11,14.9-16.63,3.47-4,7.44-6.34,13-6.16,5.11.16,10.08-1.75,15.06-3,1.12-.28,2.48-.88,3.22.22s0,2.31-.48,3.44c-3.58,7.71-9,14.11-13.78,21a10.37,10.37,0,0,0-.72,1c-8,14.94-19.45,27.08-31,38.83-7.95,8.11-16.25,16.19-25.55,22.84-1.77,1.26-2.14,3.46-4,4.71a6.37,6.37,0,0,1-6.79.7,6.3,6.3,0,0,0-4-.54C142.24,357.58,134.7,355.12,126.68,353.63Z"/><path class="cls-5" d="M183.46,269.1c4.17.22,8.36-.26,12.52.36,2.27.34,2.57,1,1,3-6.6,8.27-14.13,15.6-21.21,23.38-7.35,8.08-14.52,16.33-23,23.17-9,7.23-17.89,14.58-26.94,21.73a67.56,67.56,0,0,1-7.74,4.82c-1.77,1-3.53,2-4.66,3.92s-2.84,1.28-4.43.6c-6.15-2.61-8.73-8-10.12-14.23-1.15-5.14-.72-5.92,4.1-7.85,12.87-5.15,23.71-13.7,34.48-22.33A271.51,271.51,0,0,0,160,285.51c4-4,6.55-9,9.42-13.78.6-1,.94-2.26,2.19-2.69Z"/><path class="cls-5" d="M184.28,359.58a51.38,51.38,0,0,1-11.56-1.16c-.72-.14-1.68.25-2-.75s.57-1.62,1.17-2.21c6.59-6.43,13.36-12.68,19.43-19.66,5.6-6.45,10.68-13.45,16.76-19.35C218.7,306.1,226.43,293.29,236,282c4.56-5.39,7.69-12.1,11.36-18.28a5,5,0,0,1,3.86-2.82c4.91-.5,9.83-1,14.74-1.5,2.17-.24,2.51.5,1.63,2.51a149.29,149.29,0,0,1-17,30.21c-9.89,13.25-19.74,26.52-31.39,38.22q-13.21,13.27-26.81,26.11C189.75,358.89,187.15,360.28,184.28,359.58Z"/><path class="cls-6" d="M228.19,357c3.36-4.43,6.45-8.14,10.28-11.15,12-9.41,21.36-21.44,31.17-33.05a67,67,0,0,1,7.57-8,34.34,34.34,0,0,0,7.09-9.14c8.32-14.23,16.72-28.39,27.16-41.1a11.83,11.83,0,0,1,3.28-3.25c-.24,5.57-.41,10.81-.72,16.05-.44,7.27-3,13.82-5.91,20.4a283.49,283.49,0,0,1-14.9,30.39c-6.44,11-15.37,19.58-25.6,26.46-7.5,5-16.55,6.63-25,9.52A53.75,53.75,0,0,1,228.19,357Z"/><path class="cls-7" d="M208.15,171.6c4.26-1.16,8.36-2.47,12.75-2.73,5.83-.35,10.95-3.29,16.2-5.61s10.53-4.58,15.94-6.56c6.37-2.32,11.61-6.9,17.36-10.44,7-4.32,14-8.74,21.36-12.33,3.89-1.89,7.83-3.49,12.26-3.29,3.69.16,5.38,1.67,5.46,5.52a21.75,21.75,0,0,1-3.33,12.34c-3.85,6.08-9,10.81-14.66,15-4.43,3.26-9.65,3.48-14.59,4.66-11.85,2.83-23.95,3.92-36,5-7.55.65-15.12.95-22.69,1.42C212.83,174.88,210.69,174.29,208.15,171.6Z"/><path class="cls-8" d="M206.17,357.16c6-6.5,11.41-12.53,17-18.47,8.23-8.83,14.41-19.29,21.5-29,8.73-12,17.39-24,27-35.36,3.89-4.6,6.91-10,10.31-15.05a4.46,4.46,0,0,0,1-1.84c.37-4.53,3.73-5.61,7-6.94,5.69-2.3,11.51-4.35,16.55-8.1.88-.65,2-1,2.66-.32s-.37,1.63-.76,2.35A266.92,266.92,0,0,1,285.82,279c-2.59,3.41-5,7-7.46,10.48a67.09,67.09,0,0,1-9.75,11.18c-7.75,7.06-14.63,15.09-21.51,23.06-7.36,8.53-15.65,16-23.52,24-4.05,4.1-8.43,7.42-13.93,9-.56.16-1.11.36-1.68.46A13.15,13.15,0,0,1,206.17,357.16Z"/><path class="cls-5" d="M161.43,269.74c-10.91,11.83-20.81,23.69-32.95,33.1-6.63,5.14-14.15,8.79-21.47,12.75a69.51,69.51,0,0,0-9.08,6c-1.37,1-2.11,1.12-2.62-.77-1.55-5.67-1.65-11.53-2.34-17.32a2.32,2.32,0,0,1,2.13-2.75c16.17-2.48,26.74-13.22,35.76-26.22,2.24-3.23,4.85-5.09,9-4.9C146.82,270,153.8,269.74,161.43,269.74Z"/><path class="cls-9" d="M167.57,60.87c.42,10.61.82,20.9,1.23,31.18a9.37,9.37,0,0,0,.17,1.5,5.41,5.41,0,0,1-6.11,6.69c-1.79-.28-2.34-1.79-2.64-3.24a63.55,63.55,0,0,1-1.73-10.4c-.39-10.52-2.55-20.77-3.86-31.15s-2.42-20.65-.35-31c.14-.69.35-1.36.48-2,.42-2.21,1.28-4.41,3.62-4.5s3.49,2.22,3.94,4.25c1.32,5.88,2.46,11.8,3.48,17.74C167,46.93,168.21,54,167.57,60.87Z"/><path class="cls-9" d="M172.36,49.28a48.29,48.29,0,0,0,0-4.86c-.57-5.55,2.35-8.91,6.52-11.52,1.7-1.06,3.53,0,3.88,2.4,2.67,18,4.11,36.1,1.15,54.26-.49,3-4.93,6.11-7.95,5.39-1.53-.36-1-2-1.09-3-.51-5.22-.9-10.46-1.2-15.7-.52-9-1-18-1.43-26.94Z"/><path class="cls-9" d="M204.09,58.44c.36,10.29-2.09,20.25-3.29,30.35-.11,1-.4,2.18-1.54,2.36a24,24,0,0,1-8.13,0c-1.36-.26-1.28-1.62-1.23-2.74.21-4.54.59-9.08.67-13.62.19-10.41,3.59-19.93,7.32-29.38.07-.19.11-.39.2-.57.75-1.61,1.37-4,3.17-3.88,2,.13,1.45,2.76,1.84,4.26C204.23,49.51,203.88,54,204.09,58.44Z"/><path class="cls-8" d="M90.94,266.64c9.27,1.52,18,3,26.64,4.36,1,.16,1.21.78,1.16,1.72a8.06,8.06,0,0,1-1.55,4.19c-5.39,7.74-12.31,13.33-21.17,16.18-2.37.76-3.54.55-3.79-2.68-.56-7.21-1.67-14.37-2.63-21.54C89.35,267.13,89.64,266.23,90.94,266.64Z"/><path class="cls-10" d="M184.63,114c0-4.84.07-8.17,0-11.5-.06-2.15.89-3.18,2.84-3.4a8.23,8.23,0,0,0,.87-.07c7.08-1.62,7.09-1.62,8.34,5.83.75,4.45-.35,8.83-.49,13.24-.15,4.82-.72,9.62-1,14.43-.14,2.47-.8,4.55-3,5.8-3.48,2-6.94,0-6.9-4.1C185.33,127,184.27,119.78,184.63,114Z"/><path class="cls-11" d="M334.56,273.61a3.25,3.25,0,0,1-3.41-2.42,32.35,32.35,0,0,0-7.39-11.48c-2.5-2.59-2.31-3.13.93-4.4a44.05,44.05,0,0,0,9.22-4.41c1.81-1.25,3-.45,3.57,1.41,1.7,5.36,3.44,10.69,5.65,15.85a2.35,2.35,0,0,1-1.58,3.53C339.25,272.45,336.89,273,334.56,273.61Z"/><path class="cls-11" d="M75.6,284.89c-2.59-.46-5.06-.87-7.52-1.35-1.07-.21-1-1.16-.84-1.94q1.17-8.63,2.39-17.25c.14-1,.74-1.33,1.67-1.12,3.48.77,7,1.56,10.45,2.28,1.19.24,1.39.91,1.05,2-1.7,5.33-3.42,10.66-5.1,16A1.81,1.81,0,0,1,75.6,284.89Z"/><path class="cls-12" d="M268.09,352.18c-2.14,10.94-4.23,21.25-9.86,30.33-.58.93-1.16,1.86-1.79,2.76-.45.64-.94,1.49-1.86,1s-.34-1.25-.2-1.89a137.34,137.34,0,0,0,3.31-20.23c.38-5.58,2.31-9.35,7.77-10.67A15.73,15.73,0,0,0,268.09,352.18Z"/><path class="cls-13" d="M325.76,231.22c2.38,3.88,4.46,7.39,6.65,10.82,1.09,1.72.94,3-.86,3.93-3,1.6-6.06,3.14-9,4.79-2.28,1.27-3.93.07-5.39-1.46s-.61-3,.21-4.41C320,240.36,322.54,235.7,325.76,231.22Z"/><path class="cls-12" d="M172.89,396c-8.66-8.76-11.28-20.4-15.51-31.26,4.84-.68,5.21-.47,6.84,4,2.85,7.79,4.29,16.1,8.14,23.52A5.46,5.46,0,0,1,172.89,396Z"/><path class="cls-13" d="M71,306.43c-1.38-4.44-3.77-8.37-3.87-13.13-.07-3.48.62-4.34,4-4.05,5.21.44,5.73,2,4.34,6.24-.8,2.46-1.29,5-2,7.55A4.84,4.84,0,0,1,71,306.43Z"/><path class="cls-13" d="M347.22,285.82a13.8,13.8,0,0,1-.45,2c-.86,2.44-1.45,2.53-3,.48-1.92-2.53-3.74-5.16-5.75-7.6-1.07-1.31-.57-1.68.6-2.28,6.89-3.56,7-3.51,8.31,4.33C347.08,283.62,347.1,284.53,347.22,285.82Z"/><path class="cls-14" d="M183.46,269.1,171.59,269A26.7,26.7,0,0,1,183.46,269.1Z"/><path class="cls-15" d="M203.63,243.44c-.11,4,.12,7.19-1.38,10.21-1.79,3.63-4.91,5.58-8.45,5.1-4.34-.59-6.76-2.76-7.49-7.09-1.51-8.92-3-17.85-4.28-26.81-.92-6.37,3.36-11.44,9.46-11.67,1.94-.07,3.86-.38,5.8-.43,3.25-.08,4.66,1.23,4.92,4.57a76.46,76.46,0,0,1,.46,8.75C202.44,232.15,203.72,238.13,203.63,243.44Zm-14.3-10.75c0,2.72-.14,5.45,0,8.16.22,3.42.59,6.86,3.1,9.49,2.09,2.18,3.52,1.87,4.32-1.08,1.26-4.64,2.27-9.22,1.42-14.22s-.89-10.41-1.29-15.62c0-.57.15-1.27-.43-1.65-1.22-.78-6.23,1.87-6.64,3.48C188.86,225,189.48,228.88,189.33,232.69Z"/><path class="cls-16" d="M217.26,149.57a5,5,0,0,1-4.94,4.85c-2.67,0-4.26-1.33-4.39-3.72-.17-3.2,2.43-6.69,5-6.74C215,143.92,217.18,146.82,217.26,149.57Z"/><path class="cls-16" d="M170.54,154.09c0-3.35,1.64-5.51,4.44-5.46,1.95,0,4.06.16,4.28,2.93.23,2.94-3,6.44-5.81,6.43C171.4,158,170.57,156.88,170.54,154.09Z"/><path class="cls-10" d="M189.33,232.69c.15-3.81-.46-7.67.51-11.44.41-1.61,5.42-4.25,6.64-3.48.58.37.38,1.07.43,1.65.4,5.21.42,10.49,1.29,15.62s-.16,9.59-1.42,14.22c-.8,3-2.23,3.25-4.32,1.08-2.52-2.63-2.89-6.07-3.1-9.49C189.19,238.14,189.33,235.41,189.33,232.69Z"/></g><path class="cls-3" d="M171.27,381.81c-9-5.46-11.83-14.39-15.26-23q-1.65-4.11-3.07-8.31c-.85-2.5-2.57-3.61-5.22-3.76-9.81-.55-19.64-1-29.43-1.82a72.52,72.52,0,0,1-12-2.36,8.43,8.43,0,0,1-5.56-4.7c-1.35-2.73-3-5.31-4.64-7.92-2-3.28-2.87-7-4.2-10.49-1.89-5-2.34-10.12-2.82-15.26-.9-9.51-3.68-18.85-2.76-28.53.12-1.31.41-2.82-1-4.37l-2.48,17.16c0,.09,0,.19,0,.28-1.2,5.8-5.31,10.49-9.24,10.55-4.44.07-10.93-5.15-12.38-10a23.76,23.76,0,0,1-.78-5.34c-.58-8.9,1.38-17.56,2.57-26.29s2.15-17.51,3.49-26.22C69.16,214,71.84,196.42,77,179.35c6.89-22.78,20.44-41.25,38.48-56.79A107.48,107.48,0,0,1,152,102.15c4-1.35,4-1.5,3-5.52-1.55-6.12-1.76-12.41-2.26-18.63-.62-7.61-2.61-14.95-4-22.4a18.93,18.93,0,0,1-.31-4.54c.41-6.81-.26-13.64.46-20.46a48.29,48.29,0,0,1,3.56-13.15c1.4-3.44,3.84-4.17,7.28-2.42,5.39,2.74,8.39,7.19,9.78,12.84,1.23,5,1.26,5,5.62,2.23.9-.57,1.82-1.11,2.75-1.63,4.2-2.38,6.22-1.77,8.09,2.7,2,4.76,3.78,9.59,3.48,14.87a3.15,3.15,0,0,0,.13,1.41c.33.74.1,2,1.16,2.08.85.08,1.06-1,1.44-1.63a52.91,52.91,0,0,1,7.63-10.42c1.68-1.69,3.12-1.57,5.41-.79,7.87,2.67,5.86,8.54,5.25,14q-1.37,12.3-2.91,24.58c-.53,4.23-1,8.48-1.91,12.65-.56,2.68.45,3.35,2.94,3.53A142.67,142.67,0,0,1,243.11,98a79.14,79.14,0,0,1,17.72,8.68c8.16,5.18,16.71,9.84,24.08,16.15,3.12,2.68,6.55,3,10.3,1.32,4.57-2.1,9.28-2.92,14.11-.85,4.37,1.87,6.67,5.89,5.76,10.4a10.47,10.47,0,0,0,.27,3.63,16.11,16.11,0,0,1-4.9,13.8c-3,3.09-3.27,6.39-1.7,10.22a320.43,320.43,0,0,1,12.14,33.86A55.16,55.16,0,0,0,325,205c1.85,3.66,3.92,7.23,4.81,11.28a6.31,6.31,0,0,0,1,2.37c6.74,9.11,10.28,19.82,15.78,29.54,3.08,5.45,4.54,11.44,6.9,17.13,1.36,3.27,1.4,6.89,1.1,10.41-.29,3.25-.78,6.43-4.59,7.88s-7.07.48-9.9-2.13c-5.46-5-10.86-10.13-16.26-15.22-3.8-3.58-3.86-3.63-5.52,1.26a165.69,165.69,0,0,1-22.92,43.76c-4.9,6.78-11.64,12-17.76,17.72a10.43,10.43,0,0,0-3.06,5.36c-2.72,10.89-6,21.62-11,31.75-1.79,3.59-3.47,7.22-5.2,10.84-.84,1.75-.81,3,1.53,3.64,3.26.91,6,3.19,9.36,3.86a1.07,1.07,0,0,1,.94,1.47c-.3,1-1.35,1.17-2.14,1.16-3.9-.07-7.81-.12-11.68-.5-2.14-.21-4.27-.32-6.41-.38-3.66-.1-5.74-2.84-4.47-6.19a102.28,102.28,0,0,0,5.69-20.58c.68-4.4,1.11-8.85,1.41-13.29.2-3-.79-3.61-3.63-2.65-7.75,2.62-15.83,2.92-23.9,3.26-3.43.14-6.71.37-9.8,2.19a15.65,15.65,0,0,1-7.56,1.89A154.41,154.41,0,0,1,174,348.1c-3.57-.68-4.48.13-3.37,3.42,3,9,5.21,18.3,9.47,26.91,1.14,2.3.66,4.4-1.15,6.28-5,5.18-11.34,5.88-18,5.42a4.11,4.11,0,0,1-3.27-2.59c-1.13-2.3-.06-4.07,2.46-3.54C164.09,384.85,167.42,383.37,171.27,381.81Zm12.29-124.19a28.5,28.5,0,0,0-11.91-.06c-1.26.41-1.59,1.59-2.19,2.53-2.88,4.5-5.45,9.2-9.45,13a267.34,267.34,0,0,1-22.6,19c-10.79,8.12-21.67,16.17-34.58,21-4.84,1.81-5.26,2.55-4.11,7.38,1.39,5.86,4,10.93,10.15,13.38,1.6.63,3.36,1.2,4.44-.57s2.9-2.71,4.68-3.69a68.63,68.63,0,0,0,7.76-4.53c9.07-6.73,18-13.64,27-20.44,8.53-6.43,15.72-14.19,23.09-21.79,7.1-7.32,14.66-14.22,21.27-22,1.57-1.84,1.26-2.49-1-2.81C191.94,257.37,187.74,257.83,183.56,257.62Zm-93.3-13.57c.85,3.94,3.33,4.58,5.76,5.39a71.26,71.26,0,0,0,31.64,3.2c3-.37,5.93-1.27,8.91-1.08a136,136,0,0,0,20.15-.11,121.46,121.46,0,0,1,15.75-.46c9.51.42,19,2,28.56.89,9.18-1.08,18.39-1.85,27.53-3.27,7-1.08,13.59-5,21-3a1.49,1.49,0,0,0,.58-.07,244.47,244.47,0,0,0,28.23-6.71c15.52-4.72,29.82-11.43,42-22.13,2.1-1.84,2.77-3.62,1.65-6.22-6.93-16.06-13-32.43-19.21-48.78-.7-1.85-1.06-2.45-3.32-1.35-10.27,5-21,9-32.38,10.81-10.67,1.65-21.4,3-32.13,4.15-8.7,1-17.42,1.71-26.2.2a77.15,77.15,0,0,1-22.56-8.12c-.78-.41-1.63-.92-1.56-1.89s1.18-1.19,2-1.43a27.86,27.86,0,0,1,7.14-1.35c5.44-.19,10.88-.16,16.25-1.41,25.33-5.9,48.41-16.85,70.71-29.62,2.62-1.5,2.63-2.8.12-4.7-6.78-5.15-14.19-9.36-21.52-13.68-5.39-3.18-10.62-6.72-16.73-8.58-11.55-3.52-23.47-5.29-35.41-6.93-1.64-.23-2.41.37-2.4,2,0,1.14,0,2.29,0,3.43.36,10.07-1.71,19.84-3.84,29.59-.44,2-.91,4.33-3,5.33-3.51,1.66-7.22,2.87-11.25,2.45-5.56-.59-9.22-4.49-9-9.79s.67-10.61,1-15.92c.28-5.06.49-10.12.74-15.35-1.89.66-3.42,1.23-5,1.75-9.82,3.3-19.8,6.22-29.44,10-14.62,5.66-26.08,15.68-36.7,26.71C96.07,150.6,86.82,164.7,82.22,182a468.16,468.16,0,0,0-11.68,61.18c-.56,4.38-.47,4.58,3.88,5.15C80,249,86,251.53,90.26,244.05Zm36.35,93.08c8,1.41,15.6,3.71,23.61,2.33a6.7,6.7,0,0,1,4,.51,6.73,6.73,0,0,0,6.81-.66c1.82-1.17,2.2-3.24,4-4.43,9.32-6.25,17.65-13.85,25.62-21.48,11.55-11.05,23-22.47,31.06-36.52a9.84,9.84,0,0,1,.72-.89c4.78-6.46,10.23-12.47,13.82-19.73.53-1.06,1.15-2.29.49-3.23s-2.11-.47-3.23-.21c-5,1.16-10,3-15.11,2.81-5.56-.17-9.55,2.06-13,5.79-4.92,5.27-9.67,10.69-14.94,15.65a242.7,242.7,0,0,0-21.2,23.18c-10.37,12.65-21.88,24-36.44,32A16.56,16.56,0,0,0,126.61,337.13Zm57.77,5.6c2.88.66,5.49-.65,8.07-2.93q13.66-12.07,26.88-24.56c11.69-11,21.56-23.49,31.48-36a138.32,138.32,0,0,0,17.09-28.42c.87-1.89.54-2.59-1.64-2.36-4.93.5-9.86.94-14.79,1.42a5,5,0,0,0-3.87,2.65c-3.69,5.81-6.83,12.13-11.4,17.2-9.56,10.61-17.32,22.66-28,32.4-6.1,5.55-11.2,12.14-16.81,18.21-6.09,6.57-12.88,12.44-19.49,18.5-.6.55-1.57,1-1.18,2.08s1.32.58,2,.71A54.82,54.82,0,0,0,184.38,342.73Zm44-2.44a57.05,57.05,0,0,0,14.48-2.68c8.46-2.71,17.54-4.21,25.06-9,10.26-6.47,19.21-14.53,25.67-24.89a260.14,260.14,0,0,0,14.94-28.58c2.87-6.19,5.49-12.35,5.93-19.19.31-4.93.48-9.87.73-15.1a11.52,11.52,0,0,0-3.29,3.06c-10.47,12-18.9,25.28-27.24,38.66a32.67,32.67,0,0,1-7.11,8.6,64.92,64.92,0,0,0-7.59,7.49c-9.84,10.92-19.26,22.24-31.26,31.09A56.8,56.8,0,0,0,228.42,340.3ZM208.32,165.9c2.55,2.53,4.69,3.09,10.06,2.77,7.58-.45,15.18-.73,22.75-1.34,12.12-1,24.26-2,36.14-4.66,5-1.11,10.2-1.32,14.63-4.39,5.71-3.94,10.84-8.39,14.7-14.11a19.5,19.5,0,0,0,3.34-11.61c-.09-3.62-1.78-5-5.48-5.19-4.44-.18-8.39,1.32-12.29,3.1-7.42,3.37-14.39,7.53-21.42,11.59-5.77,3.33-11,7.63-17.41,9.82-5.42,1.85-10.71,4-16,6.17S227,163,221.11,163.33C216.7,163.58,212.6,164.82,208.32,165.9Zm-2,174.55a14.06,14.06,0,0,0,1.81,0c.57-.1,1.12-.29,1.68-.44,5.51-1.47,9.9-4.59,14-8.45C231.69,324.06,240,317,247.38,309c6.9-7.49,13.8-15,21.58-21.69a64.51,64.51,0,0,0,9.78-10.52c2.47-3.3,4.88-6.65,7.48-9.86a250.05,250.05,0,0,0,22.6-32.53c.39-.67,1.44-1.52.76-2.21s-1.79-.32-2.67.3c-5.05,3.53-10.89,5.45-16.6,7.62-3.3,1.26-6.68,2.27-7,6.53a4.12,4.12,0,0,1-1,1.73c-3.41,4.75-6.44,9.83-10.34,14.16-9.6,10.65-18.28,22-27,33.26-7.11,9.16-13.31,19-21.56,27.3C217.78,328.67,212.31,334.34,206.33,340.46Zm-44.87-82.24c-7.65,0-14.65.22-21.64-.08-4.16-.18-6.78,1.57-9,4.61-9,12.22-19.64,22.33-35.86,24.66A2.21,2.21,0,0,0,92.79,290c.7,5.44.8,11,2.35,16.29.52,1.78,1.26,1.71,2.63.72a70.27,70.27,0,0,1,9.11-5.66c7.34-3.73,14.88-7.16,21.53-12C140.59,280.51,150.52,269.35,161.46,258.22Zm6.16-196.48c.64-6.48-.54-13.11-1.76-19.73-1-5.59-2.16-11.16-3.49-16.69-.46-1.91-1.58-4.08-4-4s-3.21,2.16-3.63,4.23c-.13.65-.35,1.28-.49,1.93-2.08,9.75-.95,19.5.35,29.17s3.48,19.41,3.87,29.3a56.4,56.4,0,0,0,1.74,9.78c.3,1.36.85,2.78,2.64,3A5.23,5.23,0,0,0,169,92.49a8.29,8.29,0,0,1-.17-1.41C168.44,81.4,168,71.73,167.62,61.74Zm4.81-10.9h-.14c.47,8.45.91,16.89,1.43,25.34.31,4.93.7,9.86,1.21,14.77.1,1-.44,2.5,1.09,2.84,3,.67,7.48-2.24,8-5.07,3-17.08,1.52-34.08-1.15-51-.36-2.26-2.19-3.25-3.9-2.25-4.19,2.45-7.11,5.61-6.54,10.83A42.61,42.61,0,0,1,172.42,50.84Zm31.82,8.61c-.21-4.17.14-8.4-1-12.47-.4-1.42.12-3.89-1.85-4-1.81-.11-2.43,2.13-3.18,3.65-.08.17-.12.36-.2.54C194.29,56,190.88,65,190.69,74.8c-.08,4.27-.46,8.54-.67,12.81-.05,1-.13,2.33,1.24,2.57a25.69,25.69,0,0,0,8.15,0c1.14-.16,1.43-1.3,1.54-2.22C202.14,78.5,204.6,69.14,204.24,59.46ZM90.76,255.31c-1.3-.39-1.59.46-1.36,2.1,1,6.74,2.08,13.48,2.64,20.26.25,3,1.43,3.24,3.81,2.52A40.56,40.56,0,0,0,117.08,265a7.3,7.3,0,0,0,1.55-3.94c.05-.88-.15-1.46-1.16-1.61Zm94-143.57c-.36,5.42.7,12.21.63,19,0,3.87,3.43,5.7,6.92,3.86,2.21-1.17,2.87-3.13,3-5.45.28-4.53.85-9,1-13.57.14-4.15,1.24-8.28.49-12.46-1.26-7-1.26-7-8.36-5.48-.28.06-.58,0-.87.06-2,.21-2.91,1.17-2.85,3.2C184.8,104.06,184.73,107.19,184.73,111.74ZM335.09,261.86c2.34-.59,4.71-1.09,7-1.8,1.6-.5,2.38-1.6,1.59-3.32A155.21,155.21,0,0,1,338,241.82c-.59-1.75-1.76-2.5-3.58-1.33a45.52,45.52,0,0,1-9.25,4.15c-3.25,1.2-3.44,1.71-.93,4.14a30.29,30.29,0,0,1,7.41,10.8A3.25,3.25,0,0,0,335.09,261.86ZM75.38,272.48a1.82,1.82,0,0,0,2.11-1.35c1.68-5,3.41-10,5.12-15,.33-1,.14-1.61-1.05-1.84-3.5-.67-7-1.42-10.48-2.15-.93-.19-1.53.1-1.67,1.06-.81,5.41-1.62,10.81-2.4,16.22-.11.74-.23,1.63.85,1.83C70.31,271.66,72.79,272,75.38,272.48Zm193,63.29A16.24,16.24,0,0,1,265.8,337c-5.48,1.25-7.41,4.78-7.79,10a121.84,121.84,0,0,1-3.32,19c-.14.61-.59,1.38.2,1.78s1.41-.34,1.86-.94c.63-.84,1.22-1.72,1.8-2.59C264.19,355.76,266.29,346.06,268.43,335.77ZM326.27,222c-3.23,4.22-5.75,8.6-8.44,12.87-.83,1.31-1.57,2.81-.21,4.15s3.11,2.57,5.4,1.37c3-1.56,6-3,9.06-4.51,1.8-.9,2-2.08.86-3.7C330.75,228.94,328.65,225.64,326.27,222ZM173,377a4.86,4.86,0,0,0-.53-3.55c-3.87-7-5.31-14.8-8.17-22.12-1.63-4.18-2-4.37-6.86-3.73C161.64,357.81,164.27,368.76,173,377ZM70.72,292.73a4.59,4.59,0,0,0,2.56-3.19c.66-2.36,1.16-4.78,2-7.1,1.39-4,.87-5.45-4.36-5.87-3.42-.27-4.11.53-4,3.81C66.94,284.86,69.34,288.55,70.72,292.73Zm277.07-19.39c-.12-1.21-.14-2.07-.29-2.91-1.31-7.38-1.43-7.42-8.34-4.08-1.17.57-1.68.91-.6,2.14,2,2.3,3.84,4.77,5.77,7.15,1.56,1.92,2.15,1.84,3-.46A12.29,12.29,0,0,0,347.79,273.34Z"/><path class="cls-4" d="M90.26,244.05c-4.27,7.48-10.3,5-15.84,4.24-4.35-.57-4.44-.78-3.88-5.15A468.16,468.16,0,0,1,82.22,182c4.6-17.26,13.86-31.35,26.1-44.05,10.62-11,22.09-21,36.7-26.71,9.64-3.73,19.62-6.66,29.44-10,1.55-.52,3.08-1.08,5-1.75-.25,5.23-.46,10.29-.74,15.35-.29,5.31-.74,10.61-1,15.92s3.43,9.2,9,9.79c4,.43,7.73-.78,11.25-2.45,2.1-1,2.57-3.33,3-5.33,2.13-9.75,4.2-19.53,3.84-29.59,0-1.14,0-2.28,0-3.43,0-1.6.77-2.19,2.4-2,11.94,1.65,23.85,3.42,35.41,6.93,6.12,1.86,11.34,5.4,16.73,8.58,7.33,4.32,14.74,8.53,21.52,13.68,2.5,1.9,2.5,3.2-.12,4.7-22.29,12.76-45.38,23.72-70.71,29.62-5.37,1.25-10.82,1.22-16.25,1.41a27.86,27.86,0,0,0-7.14,1.35c-.79.24-1.89.38-2,1.43s.78,1.48,1.56,1.89a77.15,77.15,0,0,0,22.56,8.12c8.78,1.52,17.5.75,26.2-.2,10.74-1.17,21.46-2.5,32.13-4.15,11.4-1.77,22.11-5.77,32.38-10.81,2.26-1.11,2.62-.5,3.32,1.35C309,178,315.1,194.4,322,210.46c1.12,2.6.45,4.38-1.65,6.22-12.17,10.7-26.46,17.41-42,22.13a244.47,244.47,0,0,1-28.23,6.71,1.49,1.49,0,0,1-.58.07c-7.45-1.93-14,1.94-21,3-9.15,1.42-18.35,2.2-27.53,3.27-9.56,1.12-19.05-.47-28.56-.89a121.46,121.46,0,0,0-15.75.46,136,136,0,0,1-20.15.11c-3-.19-5.94.72-8.91,1.08A71.26,71.26,0,0,1,96,249.44C93.58,248.63,91.11,248,90.26,244.05Zm113.52-10.57c.1-5-1.19-10.62-1-16.34a67.51,67.51,0,0,0-.46-8.23c-.26-3.14-1.67-4.37-4.93-4.3-1.94,0-3.87.34-5.81.4-6.11.21-10.4,5-9.48,11,1.29,8.43,2.78,16.83,4.3,25.22.73,4.07,3.17,6.11,7.52,6.67,3.54.45,6.67-1.38,8.47-4.79C203.9,240.25,203.66,237.2,203.78,233.48Zm13.68-88.3c-.08-2.59-2.32-5.31-4.33-5.28-2.59,0-5.2,3.33-5,6.34.13,2.25,1.73,3.53,4.41,3.5S217.53,147.59,217.46,145.18Zm-46.86,4.26c0,2.62.86,3.67,2.92,3.67,2.82,0,6.06-3.28,5.83-6-.22-2.61-2.34-2.73-4.29-2.76C172.25,144.26,170.56,146.28,170.6,149.44Z"/><path class="cls-5" d="M126.61,337.13a16.56,16.56,0,0,1,6.11-4.86c14.56-8.08,26.07-19.38,36.44-32a242.7,242.7,0,0,1,21.2-23.18c5.27-5,10-10.37,14.94-15.65,3.48-3.73,7.46-6,13-5.79,5.12.15,10.11-1.65,15.11-2.81,1.13-.26,2.49-.83,3.23.21s0,2.17-.49,3.23c-3.59,7.26-9,13.27-13.82,19.73a9.84,9.84,0,0,0-.72.89c-8,14.05-19.51,25.47-31.06,36.52-8,7.63-16.3,15.23-25.62,21.48-1.77,1.19-2.15,3.26-4,4.43a6.73,6.73,0,0,1-6.81.66,6.7,6.7,0,0,0-4-.51C142.21,340.85,134.65,338.54,126.61,337.13Z"/><path class="cls-5" d="M183.56,257.62c4.18.21,8.38-.25,12.56.34,2.28.32,2.58,1,1,2.81-6.62,7.78-14.17,14.67-21.27,22-7.37,7.6-14.56,15.36-23.09,21.79-9,6.8-17.95,13.71-27,20.44a68.63,68.63,0,0,1-7.76,4.53c-1.77,1-3.54,1.84-4.68,3.69s-2.84,1.2-4.44.57c-6.17-2.45-8.76-7.52-10.15-13.38-1.15-4.84-.72-5.57,4.11-7.38,12.91-4.84,23.78-12.89,34.58-21a267.34,267.34,0,0,0,22.6-19c4-3.77,6.57-8.46,9.45-13,.6-.94.94-2.12,2.19-2.53Z"/><path class="cls-5" d="M184.38,342.73a54.82,54.82,0,0,1-11.59-1.09c-.72-.13-1.69.23-2-.71s.57-1.52,1.18-2.08c6.61-6.05,13.4-11.92,19.49-18.5,5.61-6.06,10.71-12.65,16.81-18.21,10.69-9.74,18.44-21.78,28-32.4,4.57-5.07,7.71-11.39,11.4-17.2a5,5,0,0,1,3.87-2.65c4.93-.47,9.86-.91,14.79-1.42,2.18-.22,2.51.47,1.64,2.36a138.32,138.32,0,0,1-17.09,28.42c-9.92,12.46-19.8,24.95-31.48,36q-13.25,12.49-26.88,24.56C189.87,342.08,187.26,343.39,184.38,342.73Z"/><path class="cls-6" d="M228.42,340.3a56.8,56.8,0,0,1,10.31-10.49c12-8.85,21.42-20.17,31.26-31.09a64.92,64.92,0,0,1,7.59-7.49,32.67,32.67,0,0,0,7.11-8.6c8.34-13.38,16.77-26.71,27.24-38.66a11.52,11.52,0,0,1,3.29-3.06c-.25,5.24-.41,10.17-.73,15.1-.44,6.84-3.06,13-5.93,19.19a260.14,260.14,0,0,1-14.94,28.58c-6.46,10.36-15.41,18.42-25.67,24.89-7.52,4.74-16.6,6.24-25.06,9A57.05,57.05,0,0,1,228.42,340.3Z"/><path class="cls-7" d="M208.32,165.9c4.28-1.09,8.38-2.32,12.79-2.57,5.85-.33,11-3.1,16.24-5.28s10.57-4.31,16-6.17c6.39-2.18,11.64-6.49,17.41-9.82,7-4.06,14-8.22,21.42-11.59,3.9-1.78,7.85-3.28,12.29-3.1,3.7.15,5.39,1.57,5.48,5.19a19.5,19.5,0,0,1-3.34,11.61c-3.86,5.72-9,10.16-14.7,14.11-4.44,3.07-9.68,3.28-14.63,4.39-11.88,2.66-24,3.69-36.14,4.66-7.57.61-15.17.89-22.75,1.34C213,169,210.86,168.44,208.32,165.9Z"/><path class="cls-8" d="M206.33,340.46c6-6.12,11.44-11.79,17-17.38,8.25-8.3,14.46-18.14,21.56-27.3,8.76-11.29,17.44-22.61,27-33.26,3.9-4.33,6.93-9.41,10.34-14.16a4.12,4.12,0,0,0,1-1.73c.37-4.26,3.75-5.28,7-6.53,5.71-2.17,11.55-4.09,16.6-7.62.88-.61,2-1,2.67-.3s-.37,1.53-.76,2.21a250.05,250.05,0,0,1-22.6,32.53c-2.59,3.21-5,6.55-7.48,9.86A64.51,64.51,0,0,1,269,287.3c-7.77,6.65-14.68,14.2-21.58,21.69-7.38,8-15.69,15.08-23.59,22.57-4.07,3.86-8.45,7-14,8.45-.56.15-1.11.33-1.68.44A14.06,14.06,0,0,1,206.33,340.46Z"/><path class="cls-5" d="M161.46,258.22c-10.94,11.13-20.87,22.29-33,31.14-6.65,4.83-14.2,8.27-21.53,12A70.27,70.27,0,0,0,97.77,307c-1.37,1-2.11,1.05-2.63-.72C93.59,301,93.49,295.43,92.79,290a2.21,2.21,0,0,1,2.13-2.59c16.22-2.33,26.82-12.44,35.86-24.66,2.25-3,4.87-4.79,9-4.61C146.81,258.44,153.81,258.22,161.46,258.22Z"/><path class="cls-9" d="M167.62,61.74c.42,10,.82,19.66,1.24,29.33a8.29,8.29,0,0,0,.17,1.41,5.23,5.23,0,0,1-6.13,6.29c-1.79-.27-2.34-1.68-2.64-3A56.4,56.4,0,0,1,158.51,86c-.39-9.9-2.56-19.54-3.87-29.3s-2.42-19.43-.35-29.17c.14-.65.35-1.28.49-1.93.43-2.08,1.28-4.15,3.63-4.23s3.5,2.09,4,4c1.33,5.53,2.46,11.1,3.49,16.69C167.07,48.63,168.26,55.27,167.62,61.74Z"/><path class="cls-9" d="M172.42,50.84a42.61,42.61,0,0,0,0-4.57c-.57-5.22,2.35-8.39,6.54-10.83,1.7-1,3.54,0,3.9,2.25,2.68,17,4.12,34,1.15,51-.49,2.83-4.94,5.74-8,5.07-1.54-.34-1-1.89-1.09-2.84-.51-4.91-.9-9.84-1.21-14.77-.53-8.44-1-16.89-1.43-25.34Z"/><path class="cls-9" d="M204.24,59.46c.36,9.68-2.1,19-3.3,28.55-.11.91-.4,2.05-1.54,2.22a25.69,25.69,0,0,1-8.15,0c-1.36-.24-1.29-1.53-1.24-2.57.21-4.27.59-8.54.67-12.81.19-9.8,3.6-18.75,7.34-27.63.07-.17.11-.37.2-.54.75-1.52,1.37-3.76,3.18-3.65,2,.12,1.45,2.59,1.85,4C204.38,51.06,204,55.29,204.24,59.46Z"/><path class="cls-8" d="M90.76,255.31l26.71,4.1c1,.15,1.21.73,1.16,1.61a7.3,7.3,0,0,1-1.55,3.94,40.56,40.56,0,0,1-21.23,15.22c-2.38.72-3.55.52-3.81-2.52-.56-6.78-1.67-13.52-2.64-20.26C89.17,255.76,89.46,254.92,90.76,255.31Z"/><path class="cls-10" d="M184.73,111.74c0-4.55.07-7.69,0-10.81-.06-2,.89-3,2.85-3.2.29,0,.59,0,.87-.06,7.1-1.53,7.11-1.53,8.36,5.48.75,4.18-.35,8.3-.49,12.46-.15,4.53-.73,9-1,13.57-.14,2.32-.81,4.28-3,5.45-3.49,1.85-7,0-6.92-3.86C185.43,123.95,184.37,117.16,184.73,111.74Z"/><path class="cls-11" d="M335.09,261.86a3.25,3.25,0,0,1-3.42-2.27,30.29,30.29,0,0,0-7.41-10.8c-2.51-2.44-2.32-2.95.93-4.14a45.52,45.52,0,0,0,9.25-4.15c1.81-1.18,3-.42,3.58,1.33a155.21,155.21,0,0,0,5.67,14.91c.79,1.73,0,2.83-1.59,3.32C339.8,260.77,337.43,261.27,335.09,261.86Z"/><path class="cls-11" d="M75.38,272.48c-2.6-.43-5.08-.82-7.54-1.27-1.07-.2-1-1.09-.85-1.83.78-5.41,1.59-10.82,2.4-16.22.14-1,.74-1.25,1.67-1.06,3.49.73,7,1.47,10.48,2.15,1.19.23,1.39.86,1.05,1.84-1.71,5-3.43,10-5.12,15A1.82,1.82,0,0,1,75.38,272.48Z"/><path class="cls-12" d="M268.43,335.77c-2.15,10.29-4.24,20-9.89,28.53-.58.88-1.16,1.75-1.8,2.59-.45.6-.95,1.4-1.86.94s-.35-1.17-.2-1.78A121.84,121.84,0,0,0,258,347c.38-5.25,2.32-8.79,7.79-10A16.24,16.24,0,0,0,268.43,335.77Z"/><path class="cls-13" d="M326.27,222c2.39,3.65,4.48,6.95,6.67,10.18,1.1,1.62.94,2.81-.86,3.7-3,1.5-6.07,3-9.06,4.51-2.29,1.19-3.94.07-5.4-1.37s-.62-2.83.21-4.15C320.52,230.59,323,226.21,326.27,222Z"/><path class="cls-12" d="M173,377c-8.68-8.24-11.32-19.19-15.55-29.41,4.86-.64,5.23-.44,6.86,3.73,2.86,7.33,4.3,15.14,8.17,22.12A4.86,4.86,0,0,1,173,377Z"/><path class="cls-13" d="M70.72,292.73c-1.38-4.18-3.78-7.88-3.88-12.35-.07-3.28.62-4.08,4-3.81,5.22.42,5.74,1.85,4.36,5.87-.8,2.32-1.29,4.73-2,7.1A4.59,4.59,0,0,1,70.72,292.73Z"/><path class="cls-13" d="M347.79,273.34a12.29,12.29,0,0,1-.45,1.86c-.87,2.29-1.46,2.38-3,.46-1.93-2.38-3.75-4.85-5.77-7.15-1.08-1.23-.57-1.58.6-2.14,6.91-3.34,7-3.3,8.34,4.08C347.65,271.28,347.67,272.14,347.79,273.34Z"/><path class="cls-14" d="M183.56,257.62l-11.91-.06A28.5,28.5,0,0,1,183.56,257.62Z"/><path class="cls-15" d="M203.78,233.48c-.12,3.72.12,6.76-1.38,9.6-1.8,3.41-4.93,5.25-8.47,4.79-4.35-.56-6.78-2.59-7.52-6.67-1.51-8.39-3-16.79-4.3-25.22-.92-6,3.37-10.77,9.48-11,1.94-.07,3.87-.36,5.81-.4,3.26-.08,4.67,1.15,4.93,4.3a67.51,67.51,0,0,1,.46,8.23C202.59,222.86,203.87,228.48,203.78,233.48Zm-14.34-10.11c0,2.56-.14,5.13,0,7.68.22,3.22.59,6.45,3.11,8.92,2.09,2,3.53,1.76,4.33-1,1.26-4.36,2.28-8.68,1.42-13.38s-.89-9.79-1.3-14.69c0-.54.15-1.2-.43-1.55-1.22-.73-6.24,1.76-6.66,3.27C189,216.16,189.59,219.78,189.44,223.37Z"/><path class="cls-16" d="M217.46,145.18c.08,2.41-2.24,4.53-5,4.56s-4.28-1.25-4.41-3.5c-.17-3,2.44-6.3,5-6.34C215.14,139.87,217.38,142.6,217.46,145.18Z"/><path class="cls-16" d="M170.6,149.44c0-3.16,1.65-5.18,4.46-5.13,2,0,4.08.15,4.29,2.76.23,2.76-3,6.05-5.83,6C171.46,153.1,170.63,152.05,170.6,149.44Z"/><path class="cls-10" d="M189.44,223.37c.15-3.59-.47-7.21.51-10.76.42-1.51,5.44-4,6.66-3.27.58.35.38,1,.43,1.55.4,4.9.42,9.87,1.3,14.69s-.16,9-1.42,13.38c-.8,2.78-2.24,3.06-4.33,1-2.52-2.47-2.9-5.71-3.11-8.92C189.3,228.5,189.44,225.93,189.44,223.37Z"/></svg>