<svg id="圖層_1" data-name="圖層 1" xmlns="http://www.w3.org/2000/svg" viewBox="0 0 385.81 392.23"><defs><style>.cls-1{fill:#b2c5cc;}.cls-2{fill:#fff;}.cls-3{fill:#c9a63e;}.cls-4{fill:#545857;}.cls-5{fill:#b98830;}.cls-6{fill:#2d738c;}.cls-7{fill:#cd392a;}.cls-8{fill:#aa4c39;}</style></defs><title>graphic</title><path d="M365.42,94.58c5,7.8,5.42,15.88,1.17,24.13a19.56,19.56,0,0,1-10,9c-1.72.76-3.6,1.15-5.35,1.82-.55.2-1.31.76-1.34,1.19-.13,1.94,0,3.89,0,5.84,0,2.52,1.31,4.55,2.3,6.77,1.3,2.9,1,6.12.73,9.3-.35,4.78-2.48,8.84-4.59,12.92A125.14,125.14,0,0,1,341.76,177a49.58,49.58,0,0,1-6.11,7.1c-1.65,1.68-3.67,3-5.39,4.62-2.43,2.3-4.74,4.74-7.07,7.14a1.82,1.82,0,0,0-.49,1.09c-.13,3.85-.74,7.79-.16,11.54.64,4.16-.5,8-.65,12-.07,1.78,0,3.56-.19,5.32-.37,3.28-.78,6.56-1.39,9.8-.35,1.82-1.27,3.52-1.72,5.33a5.8,5.8,0,0,0,.23,2.16c-.63,2.94-1.2,5.6-1.77,8.26a4.4,4.4,0,0,1-.1.7,52.44,52.44,0,0,0-2.19,5.3c-.88,3-1.52,6.09-2.23,9.15s-1.22,6.12-2.13,9.09c-.53,1.75-1.7,3.31-2.49,5-1,2.2-1.86,4.48-3,6.63-1.69,3.25-3.49,6.44-5.35,9.59a64.3,64.3,0,0,1-4.76,7.4c-3.45,4.35-6.49,9-10.91,12.61-2.55,2.06-4.56,4.78-7,7s-5.15,4.34-7.79,6.43c-1.72,1.37-3.52,2.67-5.33,4s-3.78,2.68-5.72,4c-.81.53-1.53,1-1,2.11a1,1,0,0,1-.19,1c-2.19,1.92-3,4.59-4.06,7.15-1.65,4-3.58,7.79-5.36,11.69-1.68,3.65-3.53,7.23-4.92,11-1.58,4.24-4.71,7.33-7.49,10.61-1.44,1.7-4.3,2.13-6.66,1.16a4.42,4.42,0,0,1-3-4.27,55,55,0,0,1,.79-8.63c.51-2.62,1.69-5.09,2.38-7.68.87-3.25,1.55-6.55,2.39-10.15a10.12,10.12,0,0,1-2.09.84c-4.43.66-8.86,1.42-13.31,1.82-3.3.3-6.73-.38-9.94.24a102.31,102.31,0,0,1-15.61,1.46c-4.79.18-9.6.42-14.38.16-3.27-.18-6.49-1.2-9.75-1.76a29.31,29.31,0,0,0-4.25-.4c-1,0-1.14.53-.77,1.44,1,2.35,1.83,4.74,2.73,7.12a2.58,2.58,0,0,1,.19.69c.29,5.42.53,10.84.85,16.25a4.42,4.42,0,0,1-2,4.44c-1.44.84-2.93.45-4.58-.11-3.5-1.2-5.1-4.35-7.45-6.67-1.13-1.12-1.17-3.3-1.84-4.94-1.47-3.55-3.07-7.05-4.53-10.6-1.22-3-2.46-5.93-3.44-9a10.61,10.61,0,0,0-6.33-7.21,108.84,108.84,0,0,1-14.29-7.64c-3.82-2.37-7.24-5.37-10.91-8-4.14-3-8.39-5.76-12.56-8.67A69.67,69.67,0,0,1,89,316a45.29,45.29,0,0,1-5.15-6.53c-1.65-2.23-3.22-4.53-4.82-6.81-.47-.67-.9-1.37-1.36-2.06-2-3-4.06-6-6-9a36.87,36.87,0,0,1-1.76-3.48c-.34-.67-.71-1.34-1-1.88-4.88,1.83-9.49,3.65-14.63,3.67-4.38,0-8.76.46-13.14.67-3.91.19-4.08.11-5.32-3.64-.94-2.83-1.49-5.81-2.6-8.56-.95-2.35-.27-4.57-.24-6.85a33.13,33.13,0,0,0-.38-3.75c-.14-1.42-.38-2.83-.42-4.26-.18-5.73-.24-11.47-.46-17.2-.07-2.05-.55-4.08-.67-6.14-.07-1.15.36-2.33.33-3.49,0-1.78-.26-3.57-.44-5.35-.25-2.69-.73-5.39-.75-8.09,0-4.2.14-8.41.43-12.6.26-3.82,1-7.61,1.15-11.43.1-3,.55-5.93.09-9-.48-3.25.22-6.67-.12-10-.37-3.67,1.49-7,1.06-10.65a2.42,2.42,0,0,1,.42-1.53c1.6-2.35,1.9-5.24,3.19-7.69,1.14-2.17,2.62-4.16,3.94-6.23.62-1,1.2-2,1.79-3,2-3.36,3.39-7.24,7.28-9.1.11-.05.26-.11.28-.2,1-3.33,4.34-3,6.71-4.13a41.91,41.91,0,0,1,7.2-2.43c2.32-.6,4.74-.85,7.09-1.37.74-.16,1.38-.93,2.11-1,3.05-.33,6.13-.47,9.2-.75a25.24,25.24,0,0,1,3.22-.5,9.67,9.67,0,0,1,3.61.8c1.57.74,2.32-.12,3.1-1.14,2.62-3.39,5.14-6.86,7.87-10.16a68,68,0,0,1,6.11-6.42c2-1.85,4.18-3.46,6.34-5.12a33.84,33.84,0,0,1,3.59-2.42c.28-.17.84.12,1.43.22,1.13-2.21,2.2-2.92,5-3.36.33-3.58.55-7.17,1-10.72A87.35,87.35,0,0,1,125,84a28.44,28.44,0,0,1,2.14-5.28c1-2.18,2.14-4.34,3.38-6.42a33.39,33.39,0,0,1,3.57-5.1c2.06-2.32,4.36-4.44,6.55-6.65,1.31-1.33,2.63-2.65,3.87-4a1.6,1.6,0,0,0,.13-1.17c-.56-3.08-1.13-6.15-1.74-9.22-1-5-2.1-10-3-15a47.82,47.82,0,0,1-1.11-8.24c0-2,.31-4.06-.5-6-.09-.2-.16-.56-.05-.67,2-1.89,1.72-5.28,4.54-6.58A4,4,0,0,0,144,8.5c1.12-1.42,2.11-1.64,3.31-.35,2.39,2.6,5,5,6.49,8.35A16.83,16.83,0,0,0,155.23,19c.2.3.65.71.89.65a1.54,1.54,0,0,0,1-.83,8.7,8.7,0,0,1,4.56-5.62,3.46,3.46,0,0,1,2.81.21A9.62,9.62,0,0,1,169.36,20a7.3,7.3,0,0,0,.83,1.69,26.45,26.45,0,0,0,2.9-3,32.79,32.79,0,0,0,1.68-3.45c.76-1.4,3.28-2.23,4.58-1.42a11.32,11.32,0,0,1,4.91,5.36,58.73,58.73,0,0,1,3.83,14.42,72.93,72.93,0,0,1,.4,9.46c0,1,.18,1.53,1.35,1.58a32,32,0,0,1,11,2.64c3,1.25,6.29,1.94,9.4,3.05,2,.72,3.81,2.15,5.84,2.52,2.71.49,4.36,2.44,6.26,3.89,2.15,1.64,3.62,4.17,5.39,6.3a41.88,41.88,0,0,1,3.16,3.82c2.09,3.24,3.78,6.77,6.08,9.83s3.34,6.55,5.18,9.72a25.63,25.63,0,0,1,1.32,3.25c2.92-.67,5.94-1.18,8.85-2.1a47.74,47.74,0,0,0,6.89-3,60.46,60.46,0,0,0,8.68-4.71c3.78-2.74,8.44-2.14,12.44-3.92,1.43-.64,3,.72,3.33,2.37.42,2.46-.74,4.55-1.49,6.75-.21.6-.42,1.19-.69,1.76-.76,1.62-1.47,3.26-2.32,4.83a29.4,29.4,0,0,1-2.84,4.58,29.46,29.46,0,0,1-4.15,4,50.11,50.11,0,0,1-5.53,4,51,51,0,0,1-5,2.33c-.79.37-1.54.8-2.62,1.36,2.07,1.22,3.83,2.23,5.56,3.31,2.09,1.3,4.13,2.71,6.23,4a59.58,59.58,0,0,0,5.27,2.93c2.32,1.11,3.69,3,5.13,5a39.43,39.43,0,0,0,5.1,5.39c.26.25,1.22.11,1.62-.18,2.46-1.81,4.84-3.72,7.27-5.56,1.16-.88,2.39-1.67,3.56-2.55a15.07,15.07,0,0,1,1.87-1.56c1.18-.6,2.47-1,3.71-1.49a15.38,15.38,0,0,1,1.65-.61,67,67,0,0,1,7.78-1.84c2.21-.28,4.64,3.74,4,6.43a110.85,110.85,0,0,1-3.49,12.5c-1,2.7-2.93,5.09-4.6,7.5-2.09,3-4.36,5.92-6.52,8.9a1.36,1.36,0,0,0-.24,1.09,20.55,20.55,0,0,0,2.06,4.11,21.54,21.54,0,0,1,4.26,9.5c.22,1.28,1.1,2.45,1.62,3.69a16,16,0,0,1,.83,2.41c.32,1.32,1.43,2,2.57,1.14,4.1-3,8.58-5.52,11.64-9.74a8.43,8.43,0,0,1,1.42-1.6c4.58-3.76,7.44-8.8,10.29-13.84a26.1,26.1,0,0,1,5.16-6.94c1-.93,1.07-3,1.55-4.54a.47.47,0,0,0,0-.18c0-1.61.45-3.55-.3-4.72s-2.64-1.44-4.11-1.85c-5.58-1.54-8.19-5.88-9.49-10.87-.8-3.08-1.77-6.36-.59-9.79a34.37,34.37,0,0,0,1.13-7.14c.31-2.69,2.18-4.47,3.57-6.55,3.06-4.61,7.81-6.84,12.67-8.77a9.47,9.47,0,0,1,4.77-.11c4,.65,7.82,1.73,10.46,5.15C363.42,91.91,364.52,93.18,365.42,94.58Zm-9.32,25.76c5-3.45,6.75-8.51,6.52-14.5-.14-3.47-1.8-6.27-3.39-9.09a7.09,7.09,0,0,0-3.13-2.41,11.74,11.74,0,0,0-3.76-.94c-3.64-.41-7.24.27-9.92,2.67a18.77,18.77,0,0,0-6.52,13.09,28.64,28.64,0,0,0,.31,4c-.87,4.36,2.6,6.06,5.34,8.13s5.76,1.86,8.77,1.18A17,17,0,0,0,356.11,120.34Zm-11,37.46a18.86,18.86,0,0,0,2-9c0-1.16-.42-2.14-1.78-2.3a2.36,2.36,0,0,0-2.66,1.64c-.25.6-.39,1.25-.68,1.84-3.11,6.43-7.82,11.72-12.49,17-2.76,3.08-6.31,5.43-9.3,8.33a32.15,32.15,0,0,1-7.66,6,6.47,6.47,0,0,1-5.91.35,8.08,8.08,0,0,0-.77.69c-.12.12-.23.24-.35.37-1.45,1.62-2.28,3.65-3.42,5.51A39,39,0,0,0,297,201.43c-.86,4.48.81,8.57,2.69,12.27,1.67,3.29,4.43,6.15,7.12,8.77a9.11,9.11,0,0,0,7.44,2.66c.53-4.71,1-9.33,1.58-13.94.12-1,.47-2.06.49-3.09,0-1.79-.06-3.59-.12-5.38,0-.76-.12-1.52-.17-2.29-.05-1.09-.12-2.19-.1-3.29.05-2.3,1.58-3.64,3.2-5,2.5-2.09,5-4.17,7.37-6.44,2.69-2.61,5.27-5.35,7.75-8.16a29.87,29.87,0,0,0,4.34-5.83C340.93,167.18,342.84,162.4,345.1,157.8Zm-31.78-35.54a11.35,11.35,0,0,0,0-1.86,17.32,17.32,0,0,0-2.65.86c-1.71.92-3.29,2.12-5.05,2.9-4.08,1.79-7.38,4.64-10.76,7.42-1.19,1-2.58,1.72-3.86,2.6-1.67,1.16-3.33,2.34-5,3.5s-3.18,2.2-4.81,3.22c-2.31,1.46-4.68,2.85-7,4.26q-.76.46-1.56.86l-8.33,4.18c-2.64,1.33-5.22,2.81-7.94,4-4.2,1.81-8.47,3.45-12.76,5.06-1.92.72-3.9,1.25-5.88,1.79s-4.18,1.14-6.3,1.56-4.07,1.76-6.38,1.4c-.06,0-.14.15-.56.61l6.21,1.07c1.35.23,2.69.5,4,.7a69.45,69.45,0,0,0,6.91.91c2.46.11,4.94-.13,7.41-.21a3.78,3.78,0,0,0,.86.05c6-1.68,12.35-1.63,18.06-4.38.49-.23,1.19,0,1.76-.07a13,13,0,0,0,2.55-.79,14.67,14.67,0,0,1,2.46-1.32,11.76,11.76,0,0,0,6.51-3.18,2.57,2.57,0,0,1,.58-.41c1.25-.74,2.66-.84,3.83-2.22,1.64-1.94,4.15-3.15,6.33-4.62,4-2.72,8.13-5.4,11.21-9.25a88.47,88.47,0,0,0,6.93-9.36A28.15,28.15,0,0,0,313.32,122.26ZM312,240.68c.47-3.32.88-6.65,1.31-9.92a47.93,47.93,0,0,1-4.91-1.9,41.78,41.78,0,0,1-7.19-4.18c-3.59-2.87-5.39-7-7.27-11.12-2.6-5.66-2.37-11.36-.77-17.09.95-3.36,2.24-6.63,3.48-9.9a25.21,25.21,0,0,1,7.81-11,2.7,2.7,0,0,0,1-3.17c-.51-1.65-1-3.3-1.6-4.92-.43-1.19-1.44-1.65-2.41-.92a63.49,63.49,0,0,0-6.17,5.16,28.24,28.24,0,0,0-7.93,14.4c-.6,2.61-2.07,5.12-2.22,7.72-.42,7.56-.39,15.14-.52,22.72a3.21,3.21,0,0,0,.23,1.41c2.24,4.58,2.61,10.11,6.9,13.65,2.17,1.79,4.17,3.91,6.58,5.27,3.43,1.93,7.16,3.31,10.78,4.89C310.38,242.31,311.82,241.8,312,240.68Zm-1.21,7.59c.28-1.14-.17-1.39-1.23-1.56a21.49,21.49,0,0,1-5.57-1.37,116.61,116.61,0,0,1-12.15-6.27,25.34,25.34,0,0,1-7-6c-1.87-2.49-2.91-5.64-4.13-8.57a24.81,24.81,0,0,1-1.4-5.12c-.35-2-.37-4.13-.68-6.19a53.74,53.74,0,0,1-.05-15.88A68.09,68.09,0,0,1,284.25,178a30.54,30.54,0,0,1,3.13-5.39c2-2.63,4.22-5.12,6.44-7.58a57.54,57.54,0,0,1,5.33-5.39,1.93,1.93,0,0,0,.36-3,14.66,14.66,0,0,0-1.84-1.73c-3.85,2.38-7.65,4.89-11.62,7.13a63.9,63.9,0,0,1-9.51,4.54c-2.69,1-5.64,1.22-8.46,1.85-2.13.47-4.23,1.08-6.36,1.55-2.6.57-5.2,1.16-7.83,1.55a66.27,66.27,0,0,1-7.59.69,58.52,58.52,0,0,1-6.17-.35,61.34,61.34,0,0,1-6.56-.65c-4.23-.8-8.43-1.77-12.62-2.74-4-.91-7.95-1.89-11.91-2.88-1.49-.37-2.45-2.39-1.43-3.12,1.82-1.3,3.53-2.81,6.15-2.69a65.45,65.45,0,0,0,11.39-.28,88.94,88.94,0,0,0,12.45-2.78,87.39,87.39,0,0,0,11.17-3.94c3.51-1.53,6.82-3.55,10.2-5.35.26-.14.52-.46.75-.43,2.47.24,4-1.88,6.07-2.61,2.43-.84,4.47-2.86,6.65-4.39,2.62-1.83,5.27-3.62,7.82-5.54,1.85-1.39,1.8-2,.31-3.77a57.9,57.9,0,0,0-11-9.75c-2.09-1.5-4.42-2.65-6.61-4s-4-2.88-6.17-4c-4.8-2.58-10.1-2.56-15.31-2.17a25.93,25.93,0,0,1-9.93-.83c-2.53-.8-5-1.8-7.47-2.8a36.1,36.1,0,0,1-6.15-2.81c-2.48-1.62-4.66-3.68-7-5.49a3.43,3.43,0,0,0-2-.84c-3.32.28-6.63.71-9.94,1.12-5.19.65-10.39,1.28-15.57,2-3.35.47-6.66,1.19-10,1.65-4,.55-8.07,1-12.11,1.41-2.33.26-4.67.49-7,.66-4.06.3-8.13.4-12.17.83-4.22.44-8.41,1.09-12.58,1.81a10.64,10.64,0,0,0-4.08,1.6c-2.18,1.49-4.18,3.25-6.22,4.93-2.34,1.93-4.68,3.87-7,5.87-1.84,1.61-3.61,3.3-5.41,5a23.27,23.27,0,0,0-2.11,1.94c-2.13,2.48-4.14,5-6.29,7.5a35.88,35.88,0,0,0-7.3,12.41,22.18,22.18,0,0,1-2,4.19c-1.41,2.39-3,4.66-4.43,7-.65,1.09-.88,2,.57,3.12,2.4,1.83,5.2,3,7.09,5.72,3.09,4.43,7,8.22,9.53,13.14a45.57,45.57,0,0,1,3.9,9.24c.84,3.26,1.78,6.49,2.5,9.78,1.07,4.87.25,9.75-.58,14.52a54,54,0,0,1-3.28,11c-1.16,2.87-3,5.47-4.61,8.16-1.18,2-2.09,4.27-3.67,5.88-3.43,3.51-7.17,6.73-10.87,10a18.6,18.6,0,0,1-3.72,2.42c-2.59,1.34-5.29,2.47-7.86,3.84-2.21,1.17-4.56,2.4-3.31,5.67.08.19-.07.47-.07.7,0,4-.58,8.11.94,11.94a35.92,35.92,0,0,1,1,4.22c1.06,3.89,2.64,7.65,4.08,11.43a10.42,10.42,0,0,0,1.46,2.61c2,2.63,4.09,5.26,6.28,7.77,2.82,3.25,4.26,7.5,7.7,10.29,2.3,1.86,4.43,4,6.8,5.71,2.89,2.13,6,4,8.93,6,1.59,1.1,3,2.54,4.64,3.51,2.81,1.63,5.72,3,8.18,5.24A34.71,34.71,0,0,0,126,333.3c1.93,1.16,4.09,2,5.8,3.47s3.66,2.8,6.17,2.76a3.69,3.69,0,0,1,1.47.58,46.16,46.16,0,0,0,5.15,2.46c3.81,1.27,7.69,2.3,11.55,3.45,1.58.47,3.11,1.1,4.71,1.45,3,.67,6,1.26,9.09,1.74,2,.32,4,.44,6,.58,3.36.23,6.75.77,10.09.54,6.86-.47,13.69-1.27,20.5-2.11,2.51-.31,5-1.11,7.44-1.67a3,3,0,0,1,1.49-.16,3.64,3.64,0,0,0,4.18-1A2.2,2.2,0,0,1,221,345c.59,0,1.25.38,1.76.22,3.82-1.18,8.06-1,11.43-3.66a3.36,3.36,0,0,1,2.29-.81c3.53.66,6.44-.78,9.19-2.6s5.33-3.9,8-5.84c2.25-1.63,4.52-3.23,6.79-4.83.92-.65,1.88-1.24,2.79-1.88,2.47-1.72,5-3.34,7.36-5.22s4.19-3.81,6.25-5.75a53.52,53.52,0,0,0,4.9-4.82c2.37-2.92,5.06-5.55,6.91-9a134.35,134.35,0,0,1,7.43-11.2c.89-1.3,1.94-2.48,2.87-3.75a4.28,4.28,0,0,0,.37-1.06c.88-2.47,1.74-5,2.69-7.4.83-2.12,1.9-4.14,2.65-6.29,1.45-4.19,1.64-8.69,3.57-12.84C309.71,255.26,310,251.63,310.76,248.27ZM278.17,83.69c.28-.44.16-1.14.28-2.26-1.37,1-2.25,1.61-3.16,2.21-3.08,2-6.8,2.68-9.93,4.75-2,1.35-4.73,1.74-7.15,2.52-2.11.68-4.44.95-6.31,2-3.95,2.26-8.39,2.3-12.6,3.22-3.39.74-7,.53-10.49.61a7.1,7.1,0,0,1-3.48-.56c-2.6-1.44-5-.37-7.4.15-.09.23-.17.45-.25.68,1.11.57,2.2,1.18,3.34,1.7,2.83,1.29,6.06,2.05,8.44,3.9,3.57,2.79,7.58,2.38,11.39,2.24,4.94-.18,9.86-1.31,14.78-2a5.44,5.44,0,0,0,.69-.17c1.58-.44,3.17-.86,4.75-1.33,1.12-.34,2.6-.42,3.25-1.19,2.66-3.12,6.78-4.65,8.77-8.51C274.52,88.86,276.5,86.36,278.17,83.69ZM247,345.22c-.27,0-.53,0-.7.06q-3.2,1.87-6.37,3.78a2.11,2.11,0,0,0-.87.77c-.87,2-1.71,4-2.5,6.08C235,360,233.4,364.13,232,368.31a32.92,32.92,0,0,0-1.33,6.33,10,10,0,0,0,.53,3c1-.7,2.22-1.21,2.82-2.14,1.31-2,2.29-4.26,3.39-6.41,0-.09.09-.19.14-.29l.09-.21.07-.17c.07-.18.14-.37.21-.55l.13-.3a3.64,3.64,0,0,1,.23-.4l.07-.11.09-.11.09-.09,0,0a.86.86,0,0,1,.18-.13c.52-.27,1.58.49,2.8.94a20.91,20.91,0,0,1-1.77-1.95,1.84,1.84,0,0,1-.25-.65h0l0-.16c0-.05,0-.1,0-.15h0a1.06,1.06,0,0,1,0-.3c.58-1.76,1.25-3.49,1.9-5.23,1-2.74,2-5.5,3-8.23C245.21,349.06,246.12,347.21,247,345.22ZM238.49,91.36c.26-.15-.16-1.47-.29-2.25a2.17,2.17,0,0,0-.27-.66c-2.39-4.05-5-8-7.12-12.19-1.89-3.8-4.6-6.91-7.3-10.06a27.71,27.71,0,0,0-9.22-7.43c-3.15-1.47-6.39-2.75-9.65-3.94s-6.48-2-9.62-3.2-6.55.06-9.65-1.21a1.68,1.68,0,0,0-.71,0l-9.39.81a30.15,30.15,0,0,0-4.13.35c-2.09.47-4.61-.24-6.1,2.12a1.61,1.61,0,0,1-1.39.5,9,9,0,0,0-7.14,1.28c-3.29,2.12-6.72,4-9.86,6.37a31.25,31.25,0,0,0-4.73,5c-3.76,4.41-7.77,8.72-9,14.63-.32,1.46-1.69,2.53-1,4.54.41,1.25-1.13,3.08-1.57,4.71-.73,2.62-1.27,5.28-2,8.27.31.49.82,1.66,1,1.61a6.76,6.76,0,0,1,5,.93,2.51,2.51,0,0,0,1.4,0c2.22-.32,4.43-.66,6.63-1s4.52-.77,6.79-1c3-.32,5.94-.38,8.89-.76,3.37-.43,6.69-1.27,10.06-1.6,3.58-.36,7-2,10.66-1.49a5.64,5.64,0,0,0,1.91-.44l8.15-2.08a4.06,4.06,0,0,1,.54,0c3.43-.34,6.86-.74,10.29-1s6.69-.46,10-.69c2.79-.18,5.57-.34,8.35-.55,2.22-.17,4.36-1.06,6.65-.24a17.32,17.32,0,0,0,4,.68c2.34.25,4.69.46,7,.56A5,5,0,0,0,238.49,91.36ZM182.63,45.14c2-.14,2.7-1.32,2.17-3.17a15.61,15.61,0,0,1-.89-4.84,26.89,26.89,0,0,0-.88-9.07c-.78-2.61-1.15-5.38-3.15-7.54-1-1.12-2-1.07-2.56.05a30.05,30.05,0,0,0-2.92,7.22c-.49,2.44-.1,5.06-.1,7.6H174c.18,2.61.34,5.22.57,7.82a2.6,2.6,0,0,0,3.07,2.48C179.29,45.45,181,45.26,182.63,45.14Zm-13.47-2c0-.41,0-.83,0-1.25a89.2,89.2,0,0,0-.42-9.69,57.9,57.9,0,0,0-2.36-9.3,10.21,10.21,0,0,0-2.29-3.73c-.86-.93-2-.94-2.19.77-.38,3.48-.72,7-1.07,10.44l.28,0c.11,1.12.13,2.26.34,3.37.75,3.94,1.58,7.86,2.33,11.79a2,2,0,0,0,2.6,1.62C169.33,46.15,169.33,46.15,169.16,43.1ZM159.5,378.05a57.74,57.74,0,0,0-.7-8.35c-.43-1.93-1.53-3.68-1-5.79a2,2,0,0,0-.23-1,27.3,27.3,0,0,1-1.55-4.63c-.5-3.39-1.79-6-5.35-7-1.44-.37-2.92-.56-4.84-.92.68,1.76,1.12,3,1.6,4.15.73,1.8,1.51,3.58,2.21,5.38s1.28,3.48,1.93,5.22c1.31,3.5,2.56,7,4,10.5A3.93,3.93,0,0,0,159.5,378.05ZM157.44,48.76c1.83-.83,1.81-2.15,1.29-3.78s-1-3.4-1.44-5.12c-.55-2.28-.81-4.64-1.54-6.86-1.22-3.76-2.74-7.42-4.09-11.15a18.59,18.59,0,0,0-5-8c-.76,1-1.79,1.81-1.88,2.68a59.14,59.14,0,0,0,.38,15.75c1,6,2.34,12,3.55,18,.27,1.32,1,2.1,2.43,1.48C153.25,50.87,155.31,49.73,157.44,48.76ZM102.51,202.83a8.05,8.05,0,0,0,.13-2.47c-.62-3.34-1.24-6.69-2.06-10a29,29,0,0,0-5.66-11.92c-1.86-2.23-3.89-4.37-5.55-6.75-2.16-3.12-5.47-4.64-9-7.14-.86,2.63-1.53,4.84-2.31,7-.49,1.35.07,2.22,1,3.15a29.11,29.11,0,0,1,4,4.58c1.88,3,3.5,6.26,5.15,9.44A20.06,20.06,0,0,1,90.43,194a71.33,71.33,0,0,1,.84,9.09c.23,4.38-.68,8.62-1.6,12.89-1,4.77-2.71,9.06-6.22,12.54a34.26,34.26,0,0,1-12.19,8.12c-.82.3-2,1.05-2.08,1.69A82.13,82.13,0,0,0,69,247a1.59,1.59,0,0,0,2,1.6,8.37,8.37,0,0,0,2.86-.89,55.68,55.68,0,0,0,5.73-3.61,99.64,99.64,0,0,0,10.08-7.89c2.32-2.23,3.91-5.2,5.87-7.81,3-4,4.36-8.75,5.42-13.5C101.78,210.94,102,206.85,102.51,202.83ZM87.19,137.52a61.62,61.62,0,0,0-37.3,11.56c0,.18.07.36.11.54,4.92,0,9.85-.16,14.76,0s9.4,2.36,14.06,4.2Zm-2.3,70c.12-2.76-.09-5.54-.17-8.32-.06-2,.19-4.18-.3-6.12A29.22,29.22,0,0,0,79,181.9c-2.21-2.76-5.22-2.49-7.09.55A13.49,13.49,0,0,1,70,184.8c-3.9,3.91-8.3,7.3-11.34,12.08-2.15,3.39-5,6.29-7.28,9.64-2.11,3.16-3.83,6.6-5.66,9.94a40,40,0,0,0-4.82,12.37c-.7,4-2.46,7.76-1,12.31a27.25,27.25,0,0,0,8,12.34c2.26,2,5,3.32,8.36,2.15,1.34-.47,2-1.28,1.39-2.62-.78-1.76-1.67-3.47-2.61-5.15-.49-.87-1.26-1.58-1.82-2.41-1.68-2.49-1.65-5.41-1.81-8.21a20.35,20.35,0,0,1,2.07-10.62c.43-.82.87-1.94,1.59-2.24,1.39-.59,1.66-1.7,2.06-2.85a12.49,12.49,0,0,1,.62-1.83c.93-1.74,1.93-3.45,2.9-5.17,1.13-2,2.24-3.78,4.76-4.69s4-.43,4.26,2.64a73.66,73.66,0,0,1-.19,9.8c-.14,2.54-.47,5.07-.73,7.61l.53.57c2.48-1.16,5-2.24,7.45-3.51s4.63-2.95,5.38-5.83c.66-2.5,1.3-5,1.83-7.54A38.22,38.22,0,0,0,84.89,207.48Zm-11.76-39,3.28-10.18c-4.8-1.92-9.12-4.2-14.19-4a36,36,0,0,0-11.17,1.77c-1.07.39-2.28.42-3.36.81a9.73,9.73,0,0,0-3.08,1.6c-3.66,3.23-4.94,7.71-6,12.24a24.41,24.41,0,0,0-.33,3.69c.89,0,1.53,0,2.17,0l13.31-.24c3.78-.07,7.56-.11,11.34-.2a28.07,28.07,0,0,0,5.26-.3c2.22-.48,1.62-2.88,2.44-4.34A5.1,5.1,0,0,0,73.13,168.52Zm-5.77,10.29c-.93,0-1.49,0-2,0-.88.07-1.75.28-2.63.29-2.55,0-5.11-.22-7.65-.05-5.32.35-10.62.86-15.93,1.4a2,2,0,0,0-1.41,1.1,9.61,9.61,0,0,0-.06,2.6c3.09,0,5.94,0,8.79,0,2.5,0,5-.14,7.48-.14,2.66,0,5.33.14,8,.16a1.6,1.6,0,0,0,1.08-.44C64.4,182.22,65.74,180.65,67.36,178.82ZM64,281.09a28.7,28.7,0,0,0-.16-5.31c-1.1-5.2-.62-10.41-.49-15.62A13.9,13.9,0,0,0,63,257.9l-7.22,3.54c.14,1.42.39,2.87.43,4.33.16,4.87.11,9.74,1,14.56.23,1.19,0,3.11.58,3.44,1,.51,2.52-.06,3.82-.14A2.21,2.21,0,0,0,64,281.09Zm-1.42-33.61V224.27c-2.14,5-4.6,9.82-4,15.46a13.34,13.34,0,0,0,3.34,7.89ZM55.19,192.4c0-.19-.07-.38-.1-.57-1.32.09-2.65.11-4,.29-.37.05-1,.53-1,.84-.09,1.75,0,3.51,0,5.27l.65.08ZM51.73,285.2a6.72,6.72,0,0,0,1.8-.7c-.4-.66-.77-1.18-1-1.74A7.64,7.64,0,0,1,51.36,280c-.09-5.64,0-11.28-.09-16.92a3.57,3.57,0,0,0-1.56-2.64,24.42,24.42,0,0,1-10.11-9.06c-.52-.83-1-1.68-1.51-2.52.33,4.27,1,8.43,1.6,12.61.19,1.39-.05,2.85.06,4.26.4,5,.88,10,1.32,15,.27,3,1.55,4.67,3.77,4.65S49.43,285.32,51.73,285.2Zm-6.52-79a3.17,3.17,0,0,0,.55-1.77c-.52-3.89-1.14-7.76-1.76-11.89H37.36c0,2.33,0,4.62,0,6.91-.07,3.8-.16,7.6-.32,11.39,0,.86-.55,1.69-.61,2.56-.17,2.16-.28,4.33-.27,6.49,0,1.38.26,2.76.4,4.14,1.69-3.62,2.89-7.19,4.46-10.6C42.17,210.87,43.82,208.58,45.21,206.16Z"/><path class="cls-1" d="M362.63,105.84c.23,6-1.49,11-6.52,14.5a17,17,0,0,1-5.77,2.11c-3,.69-6.13.82-8.77-1.18s-6.21-3.77-5.34-8.13a28.64,28.64,0,0,1-.31-4,18.77,18.77,0,0,1,6.52-13.09c2.68-2.4,6.28-3.08,9.92-2.67a11.74,11.74,0,0,1,3.76.94,7.09,7.09,0,0,1,3.13,2.41C360.83,99.57,362.49,102.37,362.63,105.84Zm-4.17,6.27a8.19,8.19,0,0,0,.35-2.82,1.8,1.8,0,0,0-.82-1.4,2,2,0,0,0-1.74.41,16,16,0,0,0-1.51,2.38c-1.78,2.68-3.34,5.68-7.55,5.15-.47,0-1.12.08-1.78.11-1.24.06-2.37.43-2.36,1.87a2.25,2.25,0,0,0,2.18,2.23A11.9,11.9,0,0,0,358.46,112.11Z"/><path d="M358.81,109.29a8.19,8.19,0,0,1-.35,2.82,11.9,11.9,0,0,1-13.24,7.94,2.25,2.25,0,0,1-2.18-2.23c0-1.44,1.12-1.81,2.36-1.87.66,0,1.31-.08,1.78-.11,4.21.53,5.77-2.48,7.55-5.15a16,16,0,0,1,1.51-2.38,2,2,0,0,1,1.74-.41A1.8,1.8,0,0,1,358.81,109.29Z"/><path class="cls-2" d="M347.06,148.81a18.86,18.86,0,0,1-2,9c-2.26,4.61-4.17,9.38-6.51,13.94a29.87,29.87,0,0,1-4.34,5.83c-2.48,2.81-5.06,5.55-7.75,8.16-2.34,2.27-4.86,4.35-7.37,6.44-1.62,1.34-3.15,2.69-3.2,5,0,1.09,0,2.19.1,3.29,0,.76.14,1.52.17,2.29.07,1.79.17,3.59.12,5.38,0,1-.37,2.05-.49,3.09-.54,4.61-1.05,9.23-1.58,13.94a9.11,9.11,0,0,1-7.44-2.66c-2.69-2.62-5.45-5.48-7.12-8.77-1.88-3.7-3.55-7.78-2.69-12.27A39,39,0,0,1,302,188.22c1.14-1.86,2-3.89,3.42-5.51l.35-.37a8.08,8.08,0,0,1,.77-.69,6.47,6.47,0,0,0,5.91-.35,32.15,32.15,0,0,0,7.66-6c3-2.9,6.54-5.25,9.3-8.33,4.68-5.24,9.39-10.53,12.49-17,.29-.58.43-1.23.68-1.84a2.36,2.36,0,0,1,2.66-1.64C346.64,146.66,347,147.65,347.06,148.81Z"/><path d="M330.13,77.83a3.61,3.61,0,0,1,.72,2.87,3.35,3.35,0,0,1-2.44,1.9c-3.4-.15-4.59,1.87-5.38,4.61-.47,1.6-1.05,3.18-1.64,4.74-.53,1.38-1.41,2.47-3.06,2.22s-2.19-1.62-2.09-3.08A7.23,7.23,0,0,0,313.76,85a8.18,8.18,0,0,0-3.68-1.81c-1.39-.3-2.63-.52-3-2.07a2.8,2.8,0,0,1,2-3.39c4.59-1.83,6.67-5.31,6.88-10.11a5.77,5.77,0,0,1,.48-2.07A2.29,2.29,0,0,1,319.34,64a5.11,5.11,0,0,1,2.13,2.29c.31.54.06,1.4.06,2.11,0,4.27,2.14,6.91,6.19,8A4.5,4.5,0,0,1,330.13,77.83Zm-8.58,1.71-2.76-3.45-2.92,3.64,3.24,3.81Z"/><path class="cls-3" d="M318.79,76.09l2.76,3.45-2.43,4-3.24-3.81Z"/><path class="cls-3" d="M313.34,120.39a11.35,11.35,0,0,1,0,1.86,28.15,28.15,0,0,1-3.19,9.24,88.47,88.47,0,0,1-6.93,9.36c-3.08,3.85-7.17,6.53-11.21,9.25-2.18,1.46-4.69,2.68-6.33,4.62-1.17,1.37-2.57,1.48-3.83,2.22a2.57,2.57,0,0,0-.58.41,11.76,11.76,0,0,1-6.51,3.18,14.67,14.67,0,0,0-2.46,1.32,13,13,0,0,1-2.55.79c-.57.12-1.27-.16-1.76.07-5.71,2.75-12.1,2.71-18.06,4.38a3.78,3.78,0,0,1-.86-.05c-2.48.08-5,.32-7.41.21a69.45,69.45,0,0,1-6.91-.91c-1.35-.2-2.7-.47-4-.7l-6.21-1.07c.42-.46.5-.62.56-.61,2.3.36,4.24-1,6.38-1.4s4.21-1,6.3-1.56,4-1.07,5.88-1.79c4.28-1.61,8.56-3.25,12.76-5.06,2.71-1.16,5.29-2.64,7.94-4l8.33-4.18q.8-.4,1.56-.86c2.35-1.41,4.71-2.8,7-4.26,1.64-1,3.22-2.13,4.81-3.22s3.33-2.34,5-3.5c1.28-.88,2.67-1.62,3.86-2.6,3.38-2.78,6.68-5.63,10.76-7.42,1.76-.77,3.34-2,5.05-2.9A17.32,17.32,0,0,1,313.34,120.39Z"/><path class="cls-4" d="M313.29,230.76c-.43,3.27-.84,6.6-1.31,9.92-.16,1.12-1.59,1.63-2.92,1.05-3.62-1.58-7.35-3-10.78-4.89-2.41-1.36-4.41-3.48-6.58-5.27-4.29-3.54-4.66-9.07-6.9-13.65a3.21,3.21,0,0,1-.23-1.41c.13-7.58.1-15.16.52-22.72.15-2.6,1.62-5.11,2.22-7.72a28.24,28.24,0,0,1,7.93-14.4,63.49,63.49,0,0,1,6.17-5.16c1-.73,2-.27,2.41.92.58,1.62,1.1,3.27,1.6,4.92a2.7,2.7,0,0,1-1,3.17,25.21,25.21,0,0,0-7.81,11c-1.24,3.27-2.53,6.54-3.48,9.9-1.6,5.74-1.84,11.43.77,17.09,1.88,4.1,3.69,8.25,7.27,11.12a41.78,41.78,0,0,0,7.19,4.18A47.93,47.93,0,0,0,313.29,230.76Z"/><path class="cls-2" d="M309.54,246.7c1.06.18,1.51.43,1.23,1.56-.81,3.37-1.06,7-2.49,10.07-1.93,4.15-2.12,8.65-3.57,12.84-.74,2.15-1.82,4.17-2.65,6.29-1,2.44-1.81,4.93-2.69,7.4a4.28,4.28,0,0,1-.37,1.06c-.93,1.27-2,2.45-2.87,3.75a134.35,134.35,0,0,0-7.43,11.2c-1.86,3.4-4.54,6-6.91,9a53.52,53.52,0,0,1-4.9,4.82c-2.06,1.95-4.05,4-6.25,5.75s-4.89,3.5-7.36,5.22c-.91.64-1.87,1.24-2.79,1.88-2.27,1.6-4.54,3.2-6.79,4.83-2.67,1.94-5.25,4-8,5.84s-5.66,3.26-9.19,2.6a3.36,3.36,0,0,0-2.29.81c-3.37,2.64-7.61,2.48-11.43,3.66-.51.16-1.17-.24-1.76-.22a2.2,2.2,0,0,0-1.38.43,3.64,3.64,0,0,1-4.18,1,3,3,0,0,0-1.49.16c-2.48.56-4.93,1.36-7.44,1.67-6.82.84-13.65,1.64-20.5,2.11-3.34.23-6.73-.31-10.09-.54-2-.14-4-.26-6-.58-3-.49-6.07-1.08-9.09-1.74-1.59-.35-3.13-1-4.71-1.45-3.85-1.15-7.74-2.18-11.55-3.45a46.16,46.16,0,0,1-5.15-2.46,3.69,3.69,0,0,0-1.47-.58c-2.51,0-4.31-1.21-6.17-2.76s-3.87-2.31-5.8-3.47a34.71,34.71,0,0,1-5.64-3.59c-2.46-2.24-5.37-3.61-8.18-5.24-1.66-1-3-2.41-4.64-3.51-3-2-6-3.9-8.93-6-2.37-1.76-4.5-3.85-6.8-5.71-3.44-2.79-4.88-7-7.7-10.29-2.19-2.51-4.24-5.14-6.28-7.77a10.42,10.42,0,0,1-1.46-2.61c-1.44-3.78-3-7.54-4.08-11.43a35.92,35.92,0,0,0-1-4.22c-1.52-3.83-.91-7.93-.94-11.94,0-.24.15-.51.07-.7-1.25-3.27,1.1-4.5,3.31-5.67,2.57-1.37,5.27-2.5,7.86-3.84a18.6,18.6,0,0,0,3.72-2.42c3.69-3.25,7.43-6.46,10.87-10,1.58-1.62,2.49-3.89,3.67-5.88,1.58-2.7,3.45-5.29,4.61-8.16a54,54,0,0,0,3.28-11c.83-4.77,1.65-9.65.58-14.52-.72-3.29-1.65-6.52-2.5-9.78a45.57,45.57,0,0,0-3.9-9.24c-2.52-4.92-6.44-8.71-9.53-13.14-1.89-2.7-4.69-3.89-7.09-5.72-1.45-1.1-1.22-2-.57-3.12,1.42-2.38,3-4.66,4.43-7a22.18,22.18,0,0,0,2-4.19,35.88,35.88,0,0,1,7.3-12.41c2.16-2.45,4.17-5,6.29-7.5a23.27,23.27,0,0,1,2.11-1.94c1.8-1.66,3.57-3.35,5.41-5,2.28-2,4.62-3.94,7-5.87,2-1.69,4-3.45,6.22-4.93a10.64,10.64,0,0,1,4.08-1.6c4.17-.73,8.36-1.37,12.58-1.81,4-.42,8.12-.53,12.17-.83,2.34-.17,4.68-.4,7-.66,4-.44,8.09-.86,12.11-1.41,3.36-.46,6.67-1.18,10-1.65,5.18-.73,10.37-1.37,15.57-2,3.31-.41,6.62-.84,9.94-1.12a3.43,3.43,0,0,1,2,.84c2.37,1.8,4.55,3.87,7,5.49A36.1,36.1,0,0,0,224.1,107c2.46,1,4.94,2,7.47,2.8a25.93,25.93,0,0,0,9.93.83c5.21-.39,10.51-.41,15.31,2.17,2.16,1.16,4.09,2.73,6.17,4s4.52,2.53,6.61,4a57.9,57.9,0,0,1,11,9.75c1.49,1.79,1.53,2.38-.31,3.77-2.55,1.92-5.2,3.71-7.82,5.54-2.19,1.53-4.22,3.55-6.65,4.39-2.11.73-3.6,2.85-6.07,2.61-.23,0-.49.3-.75.43-3.38,1.81-6.69,3.82-10.2,5.35a87.39,87.39,0,0,1-11.17,3.94,88.94,88.94,0,0,1-12.45,2.78,65.45,65.45,0,0,1-11.39.28c-2.61-.11-4.33,1.4-6.15,2.69-1,.73-.06,2.74,1.43,3.12,4,1,7.93,2,11.91,2.88,4.19,1,8.39,1.93,12.62,2.74a61.34,61.34,0,0,0,6.56.65,58.52,58.52,0,0,0,6.17.35,66.27,66.27,0,0,0,7.59-.69c2.63-.39,5.23-1,7.83-1.55,2.13-.46,4.23-1.07,6.36-1.55,2.81-.63,5.77-.87,8.46-1.85a63.9,63.9,0,0,0,9.51-4.54c4-2.23,7.77-4.75,11.62-7.13a14.66,14.66,0,0,1,1.84,1.73,1.93,1.93,0,0,1-.36,3,57.54,57.54,0,0,0-5.33,5.39c-2.22,2.46-4.43,4.95-6.44,7.58a30.54,30.54,0,0,0-3.13,5.39,68.09,68.09,0,0,0-5.68,19.29,53.74,53.74,0,0,0,.05,15.88c.31,2.05.33,4.15.68,6.19a24.81,24.81,0,0,0,1.4,5.12c1.22,2.94,2.26,6.08,4.13,8.57a25.34,25.34,0,0,0,7,6A116.61,116.61,0,0,0,304,245.33,21.49,21.49,0,0,0,309.54,246.7Zm-27.18,5.21.23,0c-.34-1.92-.57-3.87-1.05-5.75-.32-1.24-1.07-2.35-2.66-2.11a79.62,79.62,0,0,1-15.82,1.05c-4.18-.21-8.4.27-12.59.28-5.64,0-11.29-.09-16.93-.21-2.92-.06-5.19.94-6.36,3.67a39.54,39.54,0,0,0-1.46,5,17.82,17.82,0,0,0-.89,3.6c-.14,2.66,0,5.34-.09,8a2.53,2.53,0,0,0,1.75,2.62,12.31,12.31,0,0,0,2.25.59c10.34,2,20.75,2,31.18,1,1.59-.15,3.14-.7,4.72-.83,3.24-.25,6.49-.33,9.73-.49,4.75-.23,7.28-2.68,7.55-7.38C282.09,257.92,282.21,254.92,282.36,251.91Zm-36.1-121.49a2.39,2.39,0,0,0-2.38-2.79,28.8,28.8,0,0,0-5.5,0c-3.18.43-6.33,1.09-9.48,1.72-1.51.3-3.09,2.11-2.8,3.27.41,1.63,1.85,1.59,3.16,1.61h.89a.72.72,0,0,0,0,.09c4.48-.59,8.95-1.27,13.43-1.72C245.16,132.49,246.17,132,246.26,130.42ZM233.68,147a4.16,4.16,0,0,0,4-3.94c-.07-1.74-2.52-3.63-4.71-3.63-2,0-3.13,1.38-3.08,3.74C230,145.9,231.08,147,233.68,147Zm-7,77.06c3,1,5.29-1.12,4.85-4.25-.62-4.36-1.27-8.72-1.82-13.1-.2-1.58,0-3.21-.26-4.76-.7-3.76-1.54-7.51-2.4-11.23a2.17,2.17,0,0,0-1.17-1.3c-2-.76-3.68.21-5.17,1.28-4.15,3-8.21,6.07-12.31,9.12-1.58,1.17-3.13,2.38-4.76,3.48a2,2,0,0,1-1.62.29,74.23,74.23,0,0,1-9.23-4.65,78.1,78.1,0,0,0-15.65-8,37,37,0,0,0-3.8-1.38c-.44-.11-1.41.31-1.5.65-.51,2-1.35,4-.55,6.22a10.79,10.79,0,0,1,.52,2.76c.37,4.45.69,8.91,1,13.36l-.21,0c.49,4,1,8,1.5,12,.26,2,2.76,4.85,4.09,4.59a12.43,12.43,0,0,0,4.93-1.69c3.65-2.73,7.55-5.12,10.69-8.59,1.8-2,4.53-3.16,6.89-4.63,1.84-1.14,3.75-2.23,5.72-.19a1.85,1.85,0,0,0,.47.26c4.54,2.38,9.06,4.81,13.64,7.12A45.89,45.89,0,0,0,226.66,224Zm-63.26-92.76c1.21-.05,1.65-.72,1.61-1.88a3,3,0,0,0-2.94-3,31.11,31.11,0,0,1-6.15-.93c-4.27-1.46-8.43-3.26-12.64-4.92-1.79-.71-2.53-.18-2.66,1.75a3.66,3.66,0,0,0,2.55,3.71c3.32,1.41,6.72,2.69,10.16,3.84,2.27.76,4.66,1.2,7,1.79,0-.07,0-.13,0-.2Zm-6.07,11.17c0-3-1.68-4.82-4.48-4.84s-4.34,1.28-4.37,3.43c0,3,1.49,4.54,4.66,4.55C156.13,145.62,157.31,144.73,157.33,142.46Z"/><path d="M305.81,182.34l-.35.37C305.58,182.58,305.69,182.46,305.81,182.34Z"/><path d="M282.58,251.88l-.23,0c-.14,3-.26,6-.44,9-.27,4.7-2.8,7.16-7.55,7.38-3.25.15-6.49.24-9.73.49-1.58.12-3.13.68-4.72.83-10.43,1-20.84,1-31.18-1a12.31,12.31,0,0,1-2.25-.59,2.53,2.53,0,0,1-1.75-2.62c.06-2.67-.06-5.35.09-8a17.82,17.82,0,0,1,.89-3.6,39.54,39.54,0,0,1,1.46-5c1.16-2.74,3.44-3.74,6.36-3.67,5.64.12,11.29.23,16.93.21,4.19,0,8.41-.49,12.59-.28A79.62,79.62,0,0,0,278.87,244c1.58-.24,2.34.88,2.66,2.11C282,248,282.24,250,282.58,251.88Zm-5,8.33c.11-2.4,0-4.81-.07-7.22,0-1,.27-2.59-.26-3-.83-.62-2.25-.54-3.42-.59-2-.09-3.92-.12-5.87,0-5.47.24-10.94.68-16.42.76-2.59,0-5.19-.77-7.79-.79-3.81,0-7.61.24-11.41.54a3.46,3.46,0,0,0-2.06,1.35c-.33.42-.1,1.25-.15,1.89-.17,2.08-.45,4.17-.48,6.26a47.09,47.09,0,0,0,.42,4.91c1.79.29,3.6.63,5.43.87a96.86,96.86,0,0,0,25.16.12c1-.13,2-.19,3-.36q5.69-.92,11.38-1.89A2.88,2.88,0,0,0,277.63,260.21Z"/><path class="cls-5" d="M278.45,81.43c-.12,1.13,0,1.82-.28,2.26-1.67,2.67-3.65,5.17-5.09,7.95-2,3.86-6.12,5.39-8.77,8.51-.65.77-2.13.85-3.25,1.19-1.58.47-3.17.89-4.75,1.33a5.44,5.44,0,0,1-.69.17c-4.92.73-9.84,1.86-14.78,2-3.81.14-7.81.55-11.39-2.24-2.38-1.85-5.61-2.62-8.44-3.9-1.13-.52-2.23-1.13-3.34-1.7.08-.23.16-.45.25-.68,2.44-.52,4.79-1.6,7.4-.15a7.1,7.1,0,0,0,3.48.56c3.5-.09,7.1.13,10.49-.61,4.21-.92,8.65-1,12.6-3.22,1.87-1.07,4.2-1.34,6.31-2,2.42-.78,5.11-1.17,7.15-2.52,3.13-2.07,6.86-2.71,9.93-4.75C276.2,83,277.09,82.39,278.45,81.43Z"/><path class="cls-6" d="M277.56,253c.05,2.41.19,4.82.07,7.22a2.88,2.88,0,0,1-2.55,2.84q-5.68,1-11.38,1.89c-1,.16-2,.23-3,.36a96.86,96.86,0,0,1-25.16-.12c-1.83-.24-3.64-.58-5.43-.87a47.09,47.09,0,0,1-.42-4.91c0-2.09.32-4.17.48-6.26.05-.65-.18-1.48.15-1.89a3.46,3.46,0,0,1,2.06-1.35c3.8-.3,7.6-.57,11.41-.54,2.6,0,5.2.83,7.79.79,5.48-.09,10.94-.53,16.42-.76,2-.08,3.92-.05,5.87,0,1.17.05,2.59,0,3.42.59C277.83,250.4,277.53,252,277.56,253Z"/><path class="cls-3" d="M246.32,345.28c.17-.1.42,0,.7-.06-.9,2-1.81,3.85-2.56,5.76-1.07,2.72-2,5.48-3,8.23-.64,1.74-1.32,3.47-1.9,5.23a.94.94,0,0,0,0,.3h0s0,.1,0,.15,0,.11,0,.16a.65.65,0,0,0-.13.19,8.66,8.66,0,0,0-.35.86,1.29,1.29,0,0,1-.27.54,1.18,1.18,0,0,0-.2.19l0,0-.09.09-.09.11-.07.11a3.64,3.64,0,0,0-.23.4l-.13.3c-.07.18-.14.37-.21.55l-.07.17-.09.21-.14.29c-1.11,2.15-2.09,4.39-3.39,6.41-.61.93-1.86,1.44-2.82,2.14a10,10,0,0,1-.53-3,32.92,32.92,0,0,1,1.33-6.33c1.41-4.17,3-8.27,4.59-12.39.78-2,1.62-4.07,2.5-6.08a2.11,2.11,0,0,1,.87-.77Q243.12,347.14,246.32,345.28Z"/><path d="M243.88,127.63a2.39,2.39,0,0,1,2.38,2.79c-.09,1.55-1.09,2.07-2.66,2.23-4.48.46-9,1.13-13.43,1.72a.72.72,0,0,1,0-.09h-.89c-1.32,0-2.75,0-3.16-1.61-.3-1.16,1.28-3,2.8-3.27,3.15-.63,6.31-1.29,9.48-1.72A28.8,28.8,0,0,1,243.88,127.63Z"/><path d="M239.75,365.71a20.91,20.91,0,0,0,1.77,1.95c-1.21-.45-2.28-1.21-2.8-.94a.86.86,0,0,0-.18.13,1.18,1.18,0,0,1,.2-.19,1.29,1.29,0,0,0,.27-.54,8.66,8.66,0,0,1,.35-.86.65.65,0,0,1,.13-.19A1.84,1.84,0,0,0,239.75,365.71Z"/><path class="cls-5" d="M238.2,89.11c.13.78.55,2.09.29,2.25a5,5,0,0,1-2.65.51c-2.35-.11-4.7-.32-7-.56a17.32,17.32,0,0,1-4-.68c-2.29-.82-4.44.07-6.65.24-2.78.21-5.56.37-8.35.55-3.34.22-6.69.4-10,.69s-6.86.69-10.29,1a4.06,4.06,0,0,0-.54,0l-8.15,2.08a5.64,5.64,0,0,1-1.91.44c-3.69-.47-7.09,1.13-10.66,1.49-3.38.34-6.69,1.17-10.06,1.6-2.95.38-5.93.44-8.89.76-2.27.25-4.53.67-6.79,1s-4.42.68-6.63,1a2.51,2.51,0,0,1-1.4,0,6.76,6.76,0,0,0-5-.93c-.22.05-.73-1.11-1-1.61.7-3,1.25-5.65,2-8.27.44-1.63,2-3.46,1.57-4.71-.67-2,.69-3.08,1-4.54,1.27-5.91,5.27-10.23,9-14.63a31.25,31.25,0,0,1,4.73-5c3.14-2.32,6.57-4.24,9.86-6.37a9,9,0,0,1,7.14-1.28,1.61,1.61,0,0,0,1.39-.5c1.48-2.36,4-1.65,6.1-2.12a30.15,30.15,0,0,1,4.13-.35l9.39-.81a1.68,1.68,0,0,1,.71,0c3.1,1.27,6.5,0,9.65,1.21s6.45,2,9.62,3.2,6.5,2.48,9.65,3.94a27.71,27.71,0,0,1,9.22,7.43c2.69,3.15,5.41,6.26,7.3,10.06,2.1,4.2,4.73,8.14,7.12,12.19A2.17,2.17,0,0,1,238.2,89.11Z"/><path d="M238,367.56l-.13.3Z"/><path d="M237.71,143a4.16,4.16,0,0,1-4,3.94c-2.6,0-3.71-1.09-3.76-3.83,0-2.36,1.08-3.74,3.08-3.74C235.19,139.42,237.64,141.3,237.71,143Z"/><path d="M237.41,369.07l.14-.29C237.5,368.89,237.46,369,237.41,369.07Z"/><path d="M231.51,219.8c.44,3.13-1.87,5.24-4.85,4.25a45.89,45.89,0,0,1-6.09-2.57c-4.58-2.31-9.09-4.74-13.64-7.12a1.85,1.85,0,0,1-.47-.26c-2-2-3.88-1-5.72.19-2.36,1.47-5.08,2.64-6.89,4.63-3.15,3.46-7,5.86-10.69,8.59a12.43,12.43,0,0,1-4.93,1.69c-1.33.26-3.83-2.64-4.09-4.59-.55-4-1-8-1.5-12l.21,0c-.35-4.45-.67-8.91-1-13.36a10.79,10.79,0,0,0-.52-2.76c-.8-2.18,0-4.19.55-6.22.09-.34,1.06-.76,1.5-.65a37,37,0,0,1,3.8,1.38,78.1,78.1,0,0,1,15.65,8,74.23,74.23,0,0,0,9.23,4.65,2,2,0,0,0,1.62-.29c1.63-1.1,3.18-2.31,4.76-3.48,4.1-3,8.15-6.15,12.31-9.12,1.49-1.07,3.2-2,5.17-1.28a2.17,2.17,0,0,1,1.17,1.3c.86,3.73,1.71,7.47,2.4,11.23.28,1.55.06,3.19.26,4.76C230.24,211.08,230.89,215.44,231.51,219.8Zm-6.93-1.66.42-.28q-1.25-10.48-2.49-20.94l-.74-.37-15.86,11.57.2.77C212.91,210.73,218.86,214.21,224.58,218.14Zm-25.45-9.44c0-.26-.09-.53-.12-.79a71.74,71.74,0,0,0-6.16-4.41c-4.23-2.45-8.6-4.67-12.92-7-1.76-.94-2.73-.39-2.79,1.62a22.78,22.78,0,0,1,.19,3c-1,6.09.53,12,1.44,17.87a11.9,11.9,0,0,0,.41,1.92c.4,1.21,1.13,1.67,2.27.77s2.13-1.7,3.22-2.53c1.64-1.28,3.25-2.59,4.93-3.8C192.75,213.13,195.95,210.93,199.13,208.7Z"/><path class="cls-7" d="M225,217.87l-.42.28c-5.72-3.93-11.68-7.42-18.46-9.25l-.2-.77,15.86-11.57.74.37Q223.76,207.39,225,217.87Z"/><path class="cls-7" d="M199,207.91c0,.26.07.53.12.79-3.18,2.23-6.38,4.43-9.53,6.7-1.69,1.21-3.3,2.53-4.93,3.8-1.08.84-2.14,1.7-3.22,2.53s-1.87.43-2.27-.77a11.9,11.9,0,0,1-.41-1.92c-.91-5.92-2.45-11.78-1.44-17.87a22.78,22.78,0,0,0-.19-3c.06-2,1-2.56,2.79-1.62,4.32,2.3,8.69,4.52,12.92,7A71.74,71.74,0,0,1,199,207.91Z"/><path class="cls-8" d="M184.8,42c.53,1.85-.22,3-2.17,3.17-1.67.12-3.34.31-5,.56a2.6,2.6,0,0,1-3.07-2.48c-.23-2.61-.39-5.22-.57-7.82h.31c0-2.54-.39-5.16.1-7.6a30.05,30.05,0,0,1,2.92-7.22c.56-1.13,1.53-1.17,2.56-.05,2,2.16,2.37,4.93,3.15,7.54a26.89,26.89,0,0,1,.88,9.07A15.61,15.61,0,0,0,184.8,42Z"/><path class="cls-8" d="M169.2,41.86c0,.41-.06.83,0,1.25.16,3,.17,3-2.75,4.06a2,2,0,0,1-2.6-1.62c-.75-3.94-1.58-7.86-2.33-11.79-.21-1.11-.23-2.25-.34-3.37l-.28,0c.35-3.48.69-7,1.07-10.44.19-1.71,1.33-1.7,2.19-.77a10.21,10.21,0,0,1,2.29,3.73,57.9,57.9,0,0,1,2.36,9.3A89.2,89.2,0,0,1,169.2,41.86Z"/><path d="M165,129.41c0,1.16-.4,1.83-1.61,1.88l-3,.14c0,.07,0,.13,0,.2-2.33-.59-4.71-1-7-1.79-3.44-1.15-6.84-2.43-10.16-3.84a3.66,3.66,0,0,1-2.55-3.71c.12-1.93.87-2.46,2.66-1.75,4.2,1.67,8.36,3.46,12.64,4.92a31.11,31.11,0,0,0,6.15.93A3,3,0,0,1,165,129.41Z"/><path class="cls-3" d="M158.79,369.7a57.74,57.74,0,0,1,.7,8.35,3.93,3.93,0,0,1-3.89-2.43c-1.44-3.45-2.69-7-4-10.5-.65-1.74-1.25-3.49-1.93-5.22s-1.48-3.59-2.21-5.38c-.48-1.19-.93-2.39-1.6-4.15,1.92.36,3.41.55,4.84.92,3.56.93,4.85,3.57,5.35,7a27.3,27.3,0,0,0,1.55,4.63,2,2,0,0,1,.23,1C157.26,366,158.37,367.78,158.79,369.7Z"/><path class="cls-8" d="M158.74,45c.52,1.62.53,2.94-1.29,3.78-2.13,1-4.2,2.11-6.34,3.06-1.38.62-2.16-.16-2.43-1.48-1.21-6-2.57-12-3.55-18a59.14,59.14,0,0,1-.38-15.75c.09-.87,1.12-1.64,1.88-2.68a18.59,18.59,0,0,1,5,8c1.34,3.72,2.87,7.38,4.09,11.15.73,2.22,1,4.58,1.54,6.86C157.71,41.59,158.19,43.3,158.74,45Z"/><path d="M152.85,137.62c2.8,0,4.5,1.85,4.48,4.84,0,2.27-1.2,3.16-4.18,3.15-3.17,0-4.7-1.51-4.66-4.55C148.51,138.9,150.16,137.6,152.85,137.62Z"/><path class="cls-4" d="M102.64,200.36a8.05,8.05,0,0,1-.13,2.47c-.49,4-.73,8.11-1.61,12.06-1.06,4.75-2.4,9.48-5.42,13.5-2,2.61-3.55,5.59-5.87,7.81a99.64,99.64,0,0,1-10.08,7.89,55.68,55.68,0,0,1-5.73,3.61,8.37,8.37,0,0,1-2.86.89,1.59,1.59,0,0,1-2-1.6,82.13,82.13,0,0,1,.23-8.7c.06-.63,1.26-1.39,2.08-1.69a34.26,34.26,0,0,0,12.19-8.12c3.51-3.48,5.19-7.77,6.22-12.54.93-4.27,1.84-8.51,1.6-12.89a71.33,71.33,0,0,0-.84-9.09,20.06,20.06,0,0,0-2.25-5.22c-1.65-3.18-3.27-6.4-5.15-9.44a29.11,29.11,0,0,0-4-4.58c-.89-.93-1.45-1.79-1-3.15.79-2.17,1.45-4.38,2.31-7,3.51,2.5,6.81,4,9,7.14,1.66,2.38,3.68,4.52,5.55,6.75a29,29,0,0,1,5.66,11.92C101.4,193.67,102,197,102.64,200.36Z"/><path class="cls-4" d="M49.89,149.07a61.62,61.62,0,0,1,37.3-11.56l-8.37,16.34c-4.66-1.85-9.11-4-14.06-4.2s-9.84,0-14.76,0C50,149.43,49.92,149.25,49.89,149.07Z"/><path class="cls-2" d="M84.72,199.17c.08,2.77.29,5.55.17,8.32a38.22,38.22,0,0,1-.95,6.09c-.54,2.53-1.18,5-1.83,7.54-.75,2.88-2.93,4.54-5.38,5.83s-5,2.34-7.45,3.51l-.53-.57c.26-2.54.6-5.06.73-7.61a73.66,73.66,0,0,0,.19-9.8c-.25-3.07-1.79-3.54-4.26-2.64s-3.62,2.68-4.76,4.69c-1,1.72-2,3.43-2.9,5.17a12.49,12.49,0,0,0-.62,1.83c-.4,1.14-.68,2.25-2.06,2.85-.72.3-1.16,1.42-1.59,2.24a20.35,20.35,0,0,0-2.07,10.62c.16,2.8.13,5.72,1.81,8.21.56.83,1.33,1.54,1.82,2.41.94,1.67,1.83,3.39,2.61,5.15.6,1.35-.06,2.15-1.39,2.62-3.32,1.17-6.1-.11-8.36-2.15a27.25,27.25,0,0,1-8-12.34c-1.45-4.55.32-8.28,1-12.31a40,40,0,0,1,4.82-12.37c1.84-3.34,3.55-6.77,5.66-9.94,2.23-3.34,5.12-6.25,7.28-9.64,3-4.78,7.44-8.16,11.34-12.08a13.49,13.49,0,0,0,1.9-2.36c1.87-3,4.88-3.31,7.09-.55a29.22,29.22,0,0,1,5.4,11.16C84.91,195,84.65,197.12,84.72,199.17Z"/><path class="cls-4" d="M76.4,158.34l-3.28,10.18a5.1,5.1,0,0,1-.34.83c-.81,1.46-.21,3.86-2.44,4.34a28.07,28.07,0,0,1-5.26.3c-3.78.09-7.56.14-11.34.2l-13.31.24c-.64,0-1.28,0-2.17,0a24.41,24.41,0,0,1,.33-3.69c1.09-4.52,2.36-9,6-12.24a9.73,9.73,0,0,1,3.08-1.6c1.08-.39,2.28-.42,3.36-.81a36,36,0,0,1,11.17-1.77C67.29,154.14,71.6,156.42,76.4,158.34Z"/><path class="cls-4" d="M65.31,178.83c.56,0,1.12,0,2,0-1.61,1.83-3,3.41-4.36,4.92a1.6,1.6,0,0,1-1.08.44c-2.66,0-5.33-.16-8-.16-2.5,0-5,.11-7.48.14-2.85,0-5.7,0-8.79,0a9.61,9.61,0,0,1,.06-2.6,2,2,0,0,1,1.41-1.1c5.3-.53,10.61-1.05,15.93-1.4,2.53-.17,5.1.06,7.65.05C63.56,179.11,64.44,178.9,65.31,178.83Z"/><path class="cls-4" d="M63.8,275.78a28.7,28.7,0,0,1,.16,5.31,2.21,2.21,0,0,1-2.34,2.55c-1.3.08-2.85.65-3.82.14-.62-.33-.36-2.25-.58-3.44-.91-4.82-.85-9.7-1-14.56,0-1.46-.29-2.91-.43-4.33L63,257.9a13.9,13.9,0,0,1,.32,2.26C63.18,265.37,62.7,270.58,63.8,275.78Z"/><path class="cls-4" d="M62.53,224.27v23.21l-.68.14a13.34,13.34,0,0,1-3.34-7.89C57.94,234.09,60.39,229.23,62.53,224.27Z"/><path class="cls-4" d="M55.09,191.83c0,.19.07.38.1.57l-4.43,5.9-.65-.08c0-1.76,0-3.52,0-5.27,0-.31.61-.79,1-.84C52.44,191.94,53.77,191.92,55.09,191.83Z"/><path class="cls-4" d="M53.53,284.5a6.72,6.72,0,0,1-1.8.7c-2.3.12-4.6.16-6.9.18s-3.5-1.6-3.77-4.65c-.44-5-.91-10-1.32-15-.11-1.41.13-2.86-.06-4.26-.57-4.18-1.26-8.34-1.6-12.61.5.84,1,1.69,1.51,2.52a24.42,24.42,0,0,0,10.11,9.06,3.57,3.57,0,0,1,1.56,2.64c.13,5.64,0,11.28.09,16.92a7.64,7.64,0,0,0,1.13,2.76C52.75,283.32,53.13,283.84,53.53,284.5Z"/><path class="cls-4" d="M45.76,204.39a3.17,3.17,0,0,1-.55,1.77c-1.39,2.42-3,4.71-4.2,7.23-1.57,3.4-2.77,7-4.46,10.6-.14-1.38-.4-2.76-.4-4.14,0-2.16.1-4.33.27-6.49.07-.87.57-1.7.61-2.56.16-3.8.25-7.6.32-11.39,0-2.29,0-4.57,0-6.91H44C44.63,196.63,45.24,200.5,45.76,204.39Z"/></svg>