<svg id="圖層_1" data-name="圖層 1" xmlns="http://www.w3.org/2000/svg" viewBox="0 0 690.34 579.69"><defs><style>.cls-1{fill:#fff;}.cls-2{fill:#090405;}.cls-2,.cls-3,.cls-4,.cls-5,.cls-6,.cls-7{fill-rule:evenodd;}.cls-3{fill:#85acba;}.cls-4{fill:#0d0c0c;}.cls-5{fill:#feffff;}.cls-6{fill:#b75742;}.cls-7{fill:#c9b048;}.cls-8{fill:#4a8daf;}.cls-9{fill:#3a6f81;}.cls-10{fill:#cdb246;}.cls-11{fill:#0a0506;}.cls-12{fill:#9e3224;}.cls-13{fill:#c5514e;}</style></defs><title>graphic</title><path class="cls-1" d="M149.8,230.07c-.23-37.26,10-72.29,23.28-108,2,2.45,3.69,4.12,5,6.05,12.8,19.38,20.8,41,28.91,62.53a316.22,316.22,0,0,1,18.34,73.63c1.56,12.88,2.27,25.86,3.3,38.81.74,9.31,2.48,18.69,1.91,27.93-2.3,37.28-10,73.39-25.68,107.54a68.8,68.8,0,0,1-4,7.1c-2.87,4.72-4.17,5.19-8.36,1.44-8.33-7.42-15.06-16.15-18.07-27.07-4.35-15.86-7.92-31.93-12.5-47.7-7.41-25.45-9.31-51.71-11.26-77.84C149,273.14,149.94,251.57,149.8,230.07Z"/><path class="cls-1" d="M167.91,117c-8.78,19.36-14.16,39.71-17.42,60.57-2.71,17.38-5.16,34.87-6.27,52.4-1.64,25.7-2,51.49,1.56,77.13,2.61,18.67,4.51,37.51,8.51,55.91,4.79,22,8.29,44.48,17.47,65.43,4.85,11,13.17,18.89,21.62,26.83-4.84,5.33-6.44,5.67-10-.36a377.31,377.31,0,0,1-18-34.27c-9.5-21.05-13.27-43.73-17.42-66.28-1.63-8.89-4.43-17.58-5.92-26.5-3.37-20.22-5.35-40.51-3.85-61.13,1.77-24.58,1.51-49.36,4.43-73.79,2.71-22.68,8.67-44.93,16.73-66.47.79-2.12,1.51-4.26,2.14-6.44C162.94,114.84,163.3,114.66,167.91,117Z"/><path class="cls-1" d="M140.35,147.83c1.88-12.6,8.75-23.28,16.91-33.24a15.22,15.22,0,0,1-.85,3.55c-10.43,20.23-12.76,42.57-16.48,64.48-2.52,14.81-4,29.83-5.21,44.82-1.62,19.91-3.28,39.9-3.43,59.87-.08,10.71,2.66,21.5,4.64,32.16,2.68,14.4,6.11,28.66,8.74,43.05,1.89,10.24,2.82,20.66,4.51,30.94,2.1,12.67,5.16,24.91,12.52,36s13.49,23,20.28,34.75c-3.83,2-6.38,1.43-9.11-2.7-11.15-17-19.45-35.35-26.11-54.42-2.38-6.79-3-14.16-4.6-21.23-5.2-23.26-11-46.42-15.45-69.83-2-10.38-1.94-21.34-1.43-32,1-20.72,3.72-41.38,4.32-62.1C130.34,196.74,136.69,172.51,140.35,147.83Z"/><path d="M57,349.29a7,7,0,0,0,1.6-5.53c-.33-1.26-2.82-2.49-4.49-2.74-6.24-.89-11.35,5.11-10,11.55C49.15,353.22,53.69,352.83,57,349.29Zm-7.4,11.18c-.15.42-.3.82-.46,1.22-3-1.07-7.08-1.27-8.78-3.39a11.72,11.72,0,0,1-.75-13.65,20.35,20.35,0,0,1,16.77-10.13c6.14-.42,10.77,6.71,8.76,13.33C62.86,355.47,57.33,359.36,49.64,360.47Z"/><path class="cls-1" d="M44.15,352.57c-1.35-6.44,3.77-12.43,10-11.55,1.67.25,4.16,1.48,4.49,2.74a7,7,0,0,1-1.6,5.53C53.69,352.83,49.15,353.22,44.15,352.57Z"/><path d="M183.41,454.91c3.52,6,5.13,5.69,10,.36-8.45-7.95-16.77-15.79-21.62-26.83-9.18-21-12.68-43.4-17.47-65.43-4-18.39-5.9-37.24-8.51-55.91-3.56-25.64-3.21-51.43-1.56-77.13,1.11-17.53,3.56-35,6.27-52.4,3.26-20.86,8.63-41.21,17.42-60.57-4.6-2.34-5-2.16-6.42,3.05-.62,2.17-1.34,4.32-2.14,6.44-8.06,21.53-14,43.79-16.73,66.47-2.93,24.43-2.66,49.21-4.43,73.79-1.5,20.62.48,40.91,3.85,61.13,1.49,8.92,4.29,17.61,5.92,26.5,4.15,22.55,7.92,45.23,17.42,66.28A377.31,377.31,0,0,0,183.41,454.91Zm9-7.77c4.19,3.75,5.49,3.28,8.36-1.44a68.8,68.8,0,0,0,4-7.1c15.68-34.15,23.37-70.25,25.68-107.54.57-9.23-1.17-18.62-1.91-27.93-1-12.95-1.74-25.93-3.3-38.81A316.22,316.22,0,0,0,207,190.68c-8.11-21.57-16.11-43.16-28.91-62.53-1.27-1.93-2.93-3.6-5-6.05-13.29,35.69-23.51,70.72-23.28,108,.14,21.5-.79,43.07.82,64.46,2,26.13,3.86,52.39,11.26,77.84,4.59,15.77,8.15,31.83,12.5,47.7C177.39,431,184.12,439.72,192.45,447.13Zm1.06,21.3c4.5-4.84,9.66-9.23,13.36-14.62,11.64-17,21.52-35.26,27.35-55,5.19-17.57,8.07-35.85,11.63-53.88a115.2,115.2,0,0,0,1.6-37.37c-2.39-18.42-4.31-36.9-6.58-55.34-.73-6-1.87-11.87-3-17.77-.83-4.28-2.2-8.47-2.89-12.76-2.71-16.67-7-33-15.21-47.68-7.36-13.09-16.71-25.08-25.34-37.43-1.83-2.64-4.33-4.79-6.52-7.17l-.48.44c4.36,8.7,9.45,17.13,13,26.18,7.26,18.8,13.55,38,20.49,56.9,5.18,14.1,8.95,28.48,10.32,43.48,1.19,13.22,2.62,26.42,3.92,39.63.54,5.55,1.32,11.11,1.48,16.69.49,18.87-.46,37.7-4.57,56.15-3.93,17.62-8.15,35.21-13.11,52.56a94.8,94.8,0,0,1-23.08,40.07c-1.59,1.66-2.65,3.84-3.94,5.76Zm-20.63-6.94c2.73,4.13,5.28,4.67,9.11,2.7-6.79-11.76-12.91-23.68-20.28-34.75s-10.42-23.3-12.52-36c-1.7-10.28-2.63-20.7-4.51-30.94-2.63-14.39-6.06-28.66-8.74-43.05-2-10.67-4.72-21.46-4.64-32.16.15-20,1.81-40,3.43-59.87,1.21-15,2.69-30,5.21-44.82,3.72-21.91,6.06-44.25,16.48-64.48a15.22,15.22,0,0,0,.85-3.55c-8.16,10-15,20.65-16.91,33.24-3.66,24.68-10,48.91-10.75,74.1-.59,20.73-3.33,41.38-4.32,62.1-.51,10.64-.53,21.59,1.43,32,4.43,23.41,10.25,46.57,15.45,69.83,1.59,7.07,2.22,14.44,4.6,21.23C153.42,426.14,161.72,444.53,172.87,461.49Zm-25.58-31.71a94.65,94.65,0,0,0-9-3.89c-11.93-3.74-23-8.95-32.66-17.1C94.45,399.36,83.19,390,71.92,380.73a26.48,26.48,0,0,0-4-2.31c-.69,1.44-2.22,3.09-1.92,4.27,1.13,4.43,2.29,9,4.46,13,7.91,14.32,20.46,23.39,35,30.29,8.43,4,16.35,9.34,26,9.79C137,436,142.75,436,147.29,429.79Zm4.54,37.82c5.39,1.6,11,2.65,16.45,4-10-9.94-13.05-23-18.08-35.09-14.43,8-21.34,8.33-36,1.26-6.68-3.21-13.15-6.8-19.85-10-15.79-7.52-24.71-21.2-32.43-36a14.2,14.2,0,0,1,.05-13.52c3.92-7.74,10.72-8.37,16.08-1.65,2.81,3.51,5.45,7.41,9,10.11,11.48,8.87,23,17.77,35.15,25.67,6.38,4.12,14.11,6.16,22.08,9.5-2.63-10.1-5.05-18.64-7-27.27-4.06-17.67-7.92-35.39-11.81-53.09-4.67-21.32-7.87-42.8-6.45-64.72.63-9.79,2.52-19.55,2.29-29.3-.62-25.85-.25-51.52,5.45-76.94,4.85-21.7,7.89-44,23-63.14-4,1.13-7.44,1.56-10.33,3-17.48,8.73-35.89,15.59-51.55,27.85C70.43,151.8,55.89,167.78,42,184.61c-14.08,17-22,36.52-26.76,57.71-7.39,32.58-7,65.21-1.94,98,3,19.59,10.79,36.47,23.4,52.07,12.27,15.2,26.6,27.9,40.77,41,11.23,10.4,23.65,18.21,38.1,22.88Q133.62,462.17,151.83,467.6Zm22.85-361.32a15.84,15.84,0,0,1,5.54,3.72,246.23,246.23,0,0,1,37.15,44.91A168.15,168.15,0,0,1,238,200c2.58,9,5.11,18,7.16,25.13,2.84,25.69,5.51,49.41,8.08,73.11,1,9,3.1,18.16,2.31,27a454.29,454.29,0,0,1-7.35,47.79c-2.42,12.23-5.09,24.66-9.76,36.13-8.09,19.83-17.17,39.39-30.82,56.24-3.68,4.53-7.8,9.18-12.72,12.09-3.84,2.27-9.25,2.62-13.94,2.56a108.48,108.48,0,0,1-39.7-7.86c-7-2.83-14.15-5.28-21.38-7.48a134.86,134.86,0,0,1-49.74-27.64c-18.24-15.78-33.92-33.41-48.28-52.53-6.69-8.9-10-19.19-12.53-29.83-2.4-10.15-5.78-20.14-7.25-30.41a218.38,218.38,0,0,1-2-34.27c.32-19.67,4.47-38.89,8.91-58a94.75,94.75,0,0,1,13.41-31.46C34,183.17,45.26,165.41,59.84,150.07a146.14,146.14,0,0,1,51-35.24c10.69-4.38,21.35-8.93,32.29-12.57,4.35-1.46,9.54-1.44,14.16-.77C163.19,102.35,169,104.39,174.68,106.29Z"/><path class="cls-1" d="M200.4,156c-3.5-9-8.59-17.48-13-26.18l.48-.44c2.19,2.38,4.69,4.54,6.52,7.17,8.63,12.35,18,24.34,25.34,37.43C228,188.68,232.28,205,235,221.7c.7,4.29,2.06,8.48,2.89,12.76,1.11,5.9,2.24,11.81,3,17.77,2.28,18.44,4.19,36.92,6.58,55.34a115.2,115.2,0,0,1-1.6,37.37c-3.56,18-6.44,36.31-11.63,53.88-5.84,19.74-15.71,38-27.35,55-3.7,5.4-8.85,9.78-13.36,14.62l-1.6-1.16c1.29-1.93,2.35-4.1,3.94-5.76a94.8,94.8,0,0,0,23.08-40.07c5-17.35,9.18-34.94,13.11-52.56,4.11-18.45,5.06-37.28,4.57-56.15-.16-5.58-.94-11.13-1.48-16.69-1.3-13.2-2.73-26.41-3.92-39.63-1.37-15-5.14-29.38-10.32-43.48C213.94,194,207.66,174.84,200.4,156Z"/><path class="cls-1" d="M138.26,425.89a94.65,94.65,0,0,1,9,3.89C142.75,436,137,436,131.47,435.73c-9.69-.45-17.61-5.77-26-9.79-14.52-6.9-27.07-16-35-30.29-2.17-4-3.34-8.53-4.46-13-.3-1.18,1.23-2.83,1.92-4.27a26.48,26.48,0,0,1,4,2.31C83.19,390,94.45,399.36,105.6,408.8,115.23,416.94,126.33,422.15,138.26,425.89Z"/><path class="cls-1" d="M49.64,360.47c7.69-1.11,13.21-5,15.54-12.61,2-6.63-2.62-13.76-8.76-13.33a20.35,20.35,0,0,0-16.77,10.13,11.72,11.72,0,0,0,.75,13.65c1.7,2.12,5.78,2.32,8.78,3.39C49.34,361.3,49.49,360.89,49.64,360.47Zm12.23,31.32c7.71,14.76,16.63,28.44,32.43,36,6.7,3.17,13.18,6.77,19.85,10,14.71,7.07,21.62,6.78,36-1.26,5,12.06,8.08,25.16,18.08,35.09-5.49-1.3-11.06-2.35-16.45-4q-18.22-5.39-36.28-11.27c-14.45-4.67-26.87-12.49-38.1-22.88-14.17-13.12-28.49-25.82-40.77-41-12.61-15.6-20.41-32.49-23.4-52.07-5-32.82-5.45-65.45,1.94-98C20,221.12,27.9,201.64,42,184.61c13.91-16.83,28.45-32.81,45.72-46.32,15.66-12.26,34.08-19.13,51.55-27.85,2.89-1.45,6.3-1.87,10.33-3-15.08,19.19-18.12,41.45-23,63.14-5.7,25.41-6.06,51.08-5.45,76.94.23,9.75-1.66,19.51-2.29,29.3-1.41,21.92,1.78,43.4,6.45,64.72,3.89,17.7,7.75,35.42,11.81,53.09,2,8.63,4.41,17.17,7,27.27-8-3.35-15.7-5.38-22.08-9.5C110,404.5,98.44,395.6,87,386.72c-3.5-2.7-6.14-6.59-9-10.11-5.36-6.72-12.16-6.09-16.08,1.65A14.2,14.2,0,0,0,61.87,391.79Z"/><path class="cls-2" d="M246.36,379.93c.95.6.36,1.49.41,2.27-1,.16-1.53-.49-2.1-1.09Z"/><path class="cls-2" d="M252.71,406.26c7.39-7.55,14.37-15.48,21.88-22.9,14.68-14.53,29.06-29.36,44.1-43.51a207.18,207.18,0,0,1,39.74-29.79c5.58-3.16,11.34-6,17.14-8.71,5.62-2.63,10.67-6.15,15.79-9.56,22.9-15.32,47-28.14,73.21-37,10.73-3.61,21.32-7.63,32.56-9.51A125.82,125.82,0,0,1,515.23,244a30.75,30.75,0,0,0,9.88.73,2.49,2.49,0,0,1,2.95,1.75,96.42,96.42,0,0,1,5.77,18.88c.59,2.66,0,5.28-.55,7.88-5.05,23.69-13,46.35-24.81,67.55-7.54,13.48-17.55,25-27.63,36.61-7.36,8.46-15.73,15.64-24.5,22.53-12.38,9.72-24.46,19.83-36.84,29.57-6.93,5.45-13.36,11.53-20.49,16.69-9,6.51-19.38,10.53-29.51,14.9-14.85,6.41-29.72,13-45.4,17-25.27,6.54-51,9.82-77.13,6.94-3.05-.35-6.07-1.05-9.11-1.59-8.82-1.6-13.67-7.89-17.81-15a4.24,4.24,0,0,1-.23-2.5c.16-5.37,2.08-10.39,3.38-15.48.75-2.93,2.66-5.65,3.38-8.72a3.33,3.33,0,0,0,1.15-1q6.13-8.64,12.31-17.24c4.23-4.3,7.11-9.6,10.7-14.37C251.46,408.26,252.07,407.22,252.71,406.26Zm267.42-117c-.47.7-1,1.39-1.39,2.12-4.47,7.57-8.54,15.35-13.82,22.42-12.63,16.95-26,33.35-38.91,50a153.46,153.46,0,0,1-26.4,27q-10.61,8.31-21.23,16.59c-11.42,8.85-22.29,18.43-34.74,26-10.7,6.47-21.51,12.68-33.11,17.37C334,457.52,317,462.78,300.1,468.45c-18.35,6.16-36.9,8.59-56,4.5a27.22,27.22,0,0,0-4.86-.16c-.7,0-1.11.19-1.22,1s.24,1,.95,1.17c5.05,1,10,2.64,15.13,2.94,21.44,1.32,42.68-.08,63.49-5.8,15.41-4.24,30-10.68,45-16.13a150.84,150.84,0,0,0,48.34-28.42c8.3-7.26,17.14-13.92,25.65-21,6-5,12-9.83,17.81-15.09,6.73-6.18,13-12.85,19.71-19a131.15,131.15,0,0,0,22.64-26.64c6.88-10.91,11.74-22.77,16.43-34.69,2.81-7.13,6.55-14,7.67-21.7,0-.3,0-.58.05-.87C520.35,288.56,520.14,288.84,520.13,289.3Zm-1-17.2-4.41.93c-34.83,7.59-68.72,17.65-99.08,37.22-12.95,8.34-26.17,16.26-39,24.76-15.15,10-29.52,21.1-43.64,32.53a235.36,235.36,0,0,0-23.4,21.11c-12.93,13.7-25.63,27.62-38.64,41.26-9.17,9.62-14.09,21-15.76,34-.47,3.71.35,4.55,4.14,4.74a80.93,80.93,0,0,0,17.34-1.48A283.13,283.13,0,0,0,345,446.61c11.1-4.89,22.09-10,32.4-16.53,4.42-2.78,8.43-6.13,12.57-9.31,8.68-6.68,17.46-13.24,26.24-19.81a308.46,308.46,0,0,0,32.25-27.75A354.73,354.73,0,0,0,483.68,332c11.49-15.49,22.91-31,31.33-48.48A44.72,44.72,0,0,0,519.15,272.1Zm-3.42-17.59c-10.52-1.27-20.91-1.57-30.93,2-8,2.83-15.76,6.51-23.69,9.6a412.77,412.77,0,0,0-59.37,28.27c-10.75,6.32-22,11.84-33,17.65-8.27,4.34-16.41,8.89-24.22,14-12.19,8-22,18.66-32.24,28.81s-20.49,20.52-30.62,30.88c-4.85,4.95-10.43,9.13-14.89,14.43a239.68,239.68,0,0,0-29.25,43.74c-1.81,3.48-3.51,7-5.05,10.64-1.44,3.35-.82,5.56,1.48,7.35,1,.76,1.5.82,2.12-.35,5.88-11.37,12.38-22.42,17.6-34.14a70.87,70.87,0,0,1,8.22-13.81c7.43-9.85,16.8-17.73,26.24-25.45,12.93-10.56,24.57-22.46,36.58-34,7.76-7.45,15.44-15,23.59-22,9.85-8.46,21.49-14.31,32.77-20.59,8.52-4.74,17.15-9.28,25.79-13.8s17.1-9,25.78-13.18c12.51-6.08,25.39-11.31,38.2-16.69,13.73-5.76,27.73-10.61,42.67-12C514.3,255.74,515.22,255.76,515.72,254.52ZM249.28,467.37c.13-1.16.23-2.35.41-3.54a78.55,78.55,0,0,1,18.16-39.51c12-14.23,25.56-26.75,38.72-39.76,7.24-7.15,14.93-13.81,22.74-20.33s15.61-13.33,23.6-19.78c8.33-6.72,17-12.95,26-18.82,10-6.57,20.36-12.65,30.8-18.51s21.45-11.34,32.5-16.35c13.83-6.25,27.62-12.57,42.1-17.26a203.12,203.12,0,0,1,34.52-8.25c1.83-.25,2.19-.88,1.86-2.61-.37-2-1.27-2.69-3.19-2.2-3.38.85-6.75,1.83-10.16,2.51-35.81,7.07-68.52,21.71-99.61,40.41-9.09,5.47-18.28,10.8-27.62,15.82a258.73,258.73,0,0,0-54.78,40.4c-8.87,9-17.82,17.9-27.12,26.45a248.61,248.61,0,0,0-27,28.33c-10.81,13.64-19,28.9-27.08,44.24C240.85,464.9,241.88,466.74,249.28,467.37Z"/><path class="cls-3" d="M519.15,272.1A44.72,44.72,0,0,1,515,283.56c-8.43,17.46-19.85,33-31.33,48.48a354.73,354.73,0,0,1-35.21,41.17A308.46,308.46,0,0,1,416.22,401c-8.78,6.57-17.55,13.13-26.24,19.81-4.13,3.18-8.14,6.53-12.57,9.31-10.31,6.49-21.3,11.64-32.4,16.53a283.13,283.13,0,0,1-68.37,20.58,80.93,80.93,0,0,1-17.34,1.48c-3.79-.19-4.61-1-4.14-4.74,1.67-13,6.6-24.41,15.76-34,13-13.64,25.71-27.56,38.64-41.26A235.36,235.36,0,0,1,333,367.54C347.1,356.11,361.48,345,376.62,335c12.86-8.49,26.09-16.41,39-24.76C446,290.69,479.91,280.62,514.74,273Z"/><path class="cls-3" d="M520.8,289.42c-1.12,7.74-4.86,14.58-7.67,21.7-4.7,11.93-9.55,23.78-16.43,34.69a131.15,131.15,0,0,1-22.64,26.64c-6.75,6.17-13,12.85-19.71,19-5.76,5.26-11.81,10.13-17.81,15.09-8.51,7-17.35,13.69-25.65,21a150.84,150.84,0,0,1-48.34,28.42c-15,5.44-29.57,11.89-45,16.13-20.81,5.72-42,7.11-63.49,5.8-5.15-.31-10.08-2-15.13-2.94-.71-.13-1.05-.39-.95-1.17s.52-1,1.22-1a27.22,27.22,0,0,1,4.86.16c19.13,4.09,37.68,1.66,56-4.5,16.88-5.67,33.91-10.93,50.43-17.61,11.6-4.69,22.41-10.9,33.11-17.37,12.44-7.52,23.32-17.1,34.74-26q10.63-8.26,21.23-16.59a153.46,153.46,0,0,0,26.4-27c13-16.69,26.28-33.09,38.91-50,5.28-7.08,9.35-14.86,13.82-22.42.43-.73.93-1.42,1.39-2.12C520.36,289.33,520.58,289.38,520.8,289.42Z"/><path class="cls-3" d="M515.72,254.52c-.51,1.25-1.42,1.22-2.24,1.3-14.95,1.41-28.94,6.26-42.67,12-12.81,5.38-25.69,10.61-38.2,16.69-8.68,4.21-17.23,8.71-25.78,13.18s-17.27,9.05-25.79,13.8c-11.28,6.28-22.92,12.12-32.77,20.59-8.15,7-15.83,14.56-23.59,22-12,11.52-23.65,23.42-36.58,34-9.44,7.71-18.8,15.6-26.24,25.45a70.87,70.87,0,0,0-8.22,13.81c-5.22,11.72-11.72,22.76-17.6,34.14-.61,1.17-1.14,1.11-2.12.35-2.3-1.8-2.92-4-1.48-7.35,1.55-3.6,3.24-7.16,5.05-10.64a239.68,239.68,0,0,1,29.25-43.74c4.46-5.3,10-9.48,14.89-14.43q15.2-15.55,30.62-30.88c10.25-10.14,20.05-20.84,32.24-28.81,7.81-5.08,15.95-9.64,24.22-14,11-5.81,22.26-11.33,33-17.65a412.77,412.77,0,0,1,59.37-28.27c7.94-3.09,15.66-6.77,23.69-9.6C494.81,252.95,505.21,253.24,515.72,254.52Z"/><path class="cls-3" d="M249.28,467.37c-7.4-.63-8.43-2.47-5.14-8.76,8.06-15.34,16.27-30.6,27.08-44.24a248.61,248.61,0,0,1,27-28.33c9.3-8.55,18.25-17.44,27.12-26.45a258.73,258.73,0,0,1,54.78-40.4c9.34-5,18.53-10.34,27.62-15.82,31.09-18.7,63.81-33.34,99.61-40.41,3.41-.68,6.77-1.66,10.16-2.51,1.92-.48,2.82.23,3.19,2.2.33,1.73,0,2.35-1.86,2.61a203.12,203.12,0,0,0-34.52,8.25c-14.48,4.68-28.28,11-42.1,17.26-11.05,5-21.92,10.41-32.5,16.35s-20.77,11.94-30.8,18.51c-9,5.87-17.66,12.1-26,18.82-8,6.45-15.72,13.2-23.6,19.78s-15.5,13.18-22.74,20.33c-13.16,13-26.77,25.53-38.72,39.76a78.55,78.55,0,0,0-18.16,39.51C249.51,465,249.41,466.22,249.28,467.37Z"/><path class="cls-3" d="M520.13,289.3c0-.47.22-.75.71-.75,0,.29,0,.57,0,.87C520.58,289.38,520.36,289.33,520.13,289.3Z"/><path class="cls-4" d="M445.77,135c-1.17,1.43-2.37.7-3.63-.19-2.7-1.9-3-4.94-3.42-7.73-4-28.28-14.3-54.75-23.24-81.61-2.45-7.34-2.22-8.33,4-10.11C429,32.67,430.8,33.35,432.2,41c4.17,22.79,6.85,45.8,10,68.74.81,5.9,2.8,11.64,4.46,17.4A10,10,0,0,1,445.77,135Z"/><path class="cls-4" d="M487,112.78c-2.81,2.08-3.82,5.07-6.66,3.93s-3.21-4-3.06-6.63c.64-11.59,1.41-23.18,2.1-34.76.28-4.64,2.43-7.34,7.25-5.87,5.3,1.61,15.24-.6,13.77,8C498.2,90.18,492.54,102.24,487,112.78Z"/><path class="cls-4" d="M287.53,97.5c1.31-5.94,2.05-9.61,3-13.23,2.2-8.81,10.48-12.13,18.12-7.08,4,2.66,7.67,8.22,11.5,8.23,5.33,0,3.3-8,6.65-11.48,3.52-3.66,6.16-8,12.6-6.58,7,1.55,13.07,3.72,14.47,11.82,3.22,18.76,6.24,37.55,8,56.52.81,8.82,1.55,17.65,2,26.49.24,4.49,2.63,5.78,6.35,4.87,17.62-4.32,34.66-2.65,51.25,4.52,3.76,1.63,7.26.31,10.87-1.15,9-3.63,13.82-1,15.36,8.59.67,4.14,2.37,6.25,6.31,8.21,16,8,29,20.4,41.87,32.53,5,4.71,6.07,3.46,7.48-1.79,3.18-11.84,9.55-22.86,8.74-35.75-.17-2.53,1-5.28,2.05-7.76,2-4.93,3.55-11.13,10.4-10.64,7.83.55,12.41,7.07,13.22,13.42,1.2,9.6,2.92,19.45-.26,29.39-4.89,15.34-8.16,31.2-15.34,45.79-1.91,3.88-.06,7.43,1.51,10.8,13.26,28.57,22.06,58.25,22.55,90,.16,10.41-3.49,20.08-5.58,30-2.4,11.53-1.65,12.81,10.14,14.61,8.53,1.32,17,2.06,25.67.56,3.53-.61,8.24-1.32,10.2,2.67,2.16,4.39-.53,8.26-3.69,11.49a17.22,17.22,0,0,1-12.31,5.13c-11,.38-22,1.28-33,1.16-5.18-.06-8.31,1.53-11.34,5.56-6.16,8.2-9.85,17.86-16.38,25.87-10.09,12.37-23.84,20-36.54,28.9-14.2,9.91-27.35,22.33-44.76,26.56a176.22,176.22,0,0,1-76.7,1.33c-11.35-2.27-23.39-3.82-33.37-11.21-4.22-3.13-6.76.71-9.22,3.63-9.95,11.7-22.49,16.95-37.88,15.29-5.12-.56-8.64-2.94-9.62-8.15-1-5.5,1.19-9.12,6.4-11.53,6.08-2.8,11.76-6.44,17.78-9.36,3.91-1.9,3-3.79.64-6-5.41-5.22-10.51-10.87-16.38-15.54-10.45-8.31-17.09-19-22.17-31.11-9.63-23-14-47.33-17.84-71.72-1.39-8.64-4.74-14.2-13.71-16.48-16.74-4.24-29.24-13.5-36.2-30.23-3.17-7.63,1.15-11.07,4.92-15.3,4-4.48,8.85-3.09,13.23-.45,6.22,3.74,12,8.21,18.4,11.63,11,5.92,14.07,4.2,14.76-8.05,1.81-31.9,14.21-59.56,33.3-84.64,4.78-6.29,10.13-12,17.13-15.68,6.63-3.5,6-7.59,2.64-13.05C275.93,175,267,161,259,146.5c-7.4-13.57-7.8-29.4-12.28-43.9-2.77-9-.53-16,2.93-23.81,2.86-6.43,6.54-6.8,12.13-4.06C271.88,79.65,280.7,86,287.53,97.5Zm51.73,170.93c3,4.58,6.94,4.25,10.61,4.13,5.9-.2,11.77-.89,17.66-1.13a8.7,8.7,0,0,1,8.9,5.67c1.22,2.87,1.33,5.66-.82,8.32-8.65,10.69-42.07,11.62-49.93.32-5.16-7.44-10.24-16.46-6-26.39,4.48-10.43,13.12-15.17,24.32-15.41a56.33,56.33,0,0,0,15.81-2.76c26.83-8.43,46.6-24.72,57.91-50.9,4-9.27,4.55-9.5-4.92-11.59-36.37-8.05-70.14.28-102.58,16.7-25.87,13.07-40.49,36.19-53.77,60.35-9.6,17.48-15,36.15-13.93,56.41.7,13-2,15.33-15.13,13.48a30.21,30.21,0,0,1-8.34-2.79c-8.3-3.84-16.5-7.85-23-14.64-3.66-3.85-5.07-.66-5.78,2.33-.62,2.69.68,5.07,2.37,7.39,6.73,9.32,15.16,15.78,26.79,17.6,6.93,1.1,14.56,4.42,16.52,10.11,3,8.77,8.27,17.1,8.55,26.68.4,13.88,5.07,26.88,7.64,40.3,5.07,26.56,23.1,44.15,41.91,61.26,2.08,1.87,4,1,5.91-.1,3.32-1.92.74-3.32-.43-5-2.25-3.17-1-4.8,2.49-5.63,9.51-2.27,21.87,2.74,26.73,10.94,3.63,6.15,2.48,9-4.32,11.08-1.38.42-3.16,1-3,3.88,10.49,3.25,21,7.51,32,9.69,27.84,5.5,55.55,4.29,82.33-5.66,13.76-5.12,24.32-15.49,36.3-23.57,18.76-12.64,31.7-30.13,44.49-48,1.21-1.69,3.93-4.31.2-5.79-2.59-1-6.16-2.53-8.59.16-1.56,1.77-1,5.79-5.21,4-3.59-1.53-4.17-4.86-4-8a47.45,47.45,0,0,1,7-22.86c2.66-4.2,6.83-5.85,11.31-7.1,1.61-.45,3.22-.86,4.14,1.07a3.75,3.75,0,0,1-.4,4.45c-.84,1-3.6.82-2.24,3.31,8.66,3.13,9,3,11.21-5.94,2.65-10.77.72-22.11,3.18-32.72,3.49-15.12.88-29.28-3.21-43.61-4.4-15.31-10.86-29.81-17-44.44-2.57-6.11-1.77-11.15,1.26-17.41a145.84,145.84,0,0,0,14.86-64.5c0-3,0-7-3.67-7-3.22,0-3.56,4-4,7q-2,15.55-4.32,31.06c-1.35,9-4.64,17-11.57,23.35-4.34,4-7.81,3.34-10.34-1.52-9.41-18.19-26.17-27.88-42.91-37.66-4.55-2.67-5.53-1.15-6.38,3.66-2.27,12.78-7.75,26.17-17.91,32.48C401.06,250.3,374.28,269.41,339.26,268.43ZM262.69,128a248.91,248.91,0,0,0,34.11,59.75c2.29,3,4.93,3,7.74,1.21,3.2-2.07,4.78-4.78,3.25-8.88-9.22-24.87-15.22-50.9-26.92-74.89a61.35,61.35,0,0,0-7.18-11.59c-3.45-4.31-8.05-9.51-13.12-7.52s-4.63,9.12-3.86,14.37C258.09,109.76,259.48,119.08,262.69,128ZM369.9,278c-9.47.74-17.12,1.54-24.76,1.86-7.1.29-12.58-2.81-15.37-9.47-2.92-7,.1-10.92,7.56-10.1a51.67,51.67,0,0,0,22.2-2.42c19.67-6.52,38.58-14.65,55.73-26.47,15.82-10.92,24.3-25.95,25-45.21.07-2,.33-4.9-2.08-5.58-2.27-.64-4,1.69-5.1,3.37-4.37,6.44-8.41,13.12-12.68,19.63-15.45,23.54-35.1,41-64.21,45.47C348,250.36,340,253,332.05,255.52c-6.46,2-8.71,6.72-6.74,13.25C330.63,286.59,354.77,292.5,369.9,278Zm-25-191.22c-2.48-2.16-.4-8-5.33-7.76s-5.54,5.11-6.34,9.07a42.76,42.76,0,0,0-.46,4.78c-2,23.34-.33,46.48,3.68,69.5,2,11.39,3.31,12,13.84,8.21,4-1.44,4.83-3.57,4-7.18-1.83-8.18-1.26-16.52-1.83-24.79C351.34,121.23,347.52,104.23,344.93,86.79ZM310.3,152.15c2.93,8.68,5.05,15.32,7.43,21.87.78,2.09,0,5.57,3.08,5.91s5.58-1.94,7.72-3.92c2-1.83,1.16-4.62.83-6.88-1.56-10.35-3.86-20.6-5-31a122.07,122.07,0,0,0-13.33-44.49c-2.16-4.11-5.29-8.56-9.05-8.18-4.86.49-3.35,6.56-3.69,10.19C296.46,116.46,305.52,134.94,310.3,152.15ZM272.18,506.27c16.29,1.26,43.13-16.09,47.15-29.14a9.92,9.92,0,0,0,.43-1.55c.16-1.69-.16-3.21-1.85-4.05a2.74,2.74,0,0,0-3.56.75C302.38,485.33,287.21,494.53,272.18,506.27Zm299.37-98.53a229.31,229.31,0,0,1-57.87-10.29c-4.74-1.51-4.46,1.8-5.4,4.47-1.23,3.5.1,5,3.5,5.38,13.58,1.56,27.13,3.61,40.76,4.53C558.89,412.26,565.8,412.68,571.55,407.75Z"/><path class="cls-5" d="M339.26,268.43c35,1,61.8-18.13,88.82-34.92,10.17-6.31,15.64-19.7,17.91-32.48.85-4.8,1.84-6.32,6.38-3.66,16.74,9.79,33.5,19.48,42.91,37.66,2.53,4.86,6,5.5,10.34,1.52,6.94-6.34,10.22-14.36,11.57-23.35q2.32-15.5,4.32-31.06c.4-3,.75-6.93,4-7,3.7-.06,3.67,4,3.67,7a145.84,145.84,0,0,1-14.86,64.5c-3,6.26-3.84,11.3-1.26,17.41,6.17,14.62,12.63,29.13,17,44.44,4.1,14.33,6.7,28.5,3.21,43.61-2.46,10.61-.52,21.95-3.18,32.72-2.21,9-2.54,9.07-11.21,5.94-1.36-2.49,1.4-2.3,2.24-3.31a3.75,3.75,0,0,0,.4-4.45c-.93-1.93-2.53-1.52-4.14-1.07-4.48,1.25-8.65,2.9-11.31,7.1a47.45,47.45,0,0,0-7,22.86c-.19,3.17.39,6.5,4,8,4.22,1.8,3.65-2.22,5.21-4,2.43-2.7,6-1.18,8.59-.16,3.73,1.48,1,4.1-.2,5.79-12.79,17.85-25.74,35.34-44.49,48-12,8.08-22.55,18.46-36.3,23.57-26.79,9.95-54.49,11.16-82.33,5.66-11-2.18-21.52-6.44-32-9.69-.18-2.91,1.6-3.47,3-3.88,6.8-2.11,8-4.93,4.32-11.08-4.86-8.2-17.22-13.21-26.73-10.94-3.47.83-4.75,2.46-2.49,5.63,1.17,1.66,3.75,3.06.43,5-1.9,1.08-3.83,2-5.91.1-18.81-17.12-36.84-34.71-41.91-61.26-2.56-13.42-7.23-26.41-7.64-40.3-.28-9.57-5.53-17.91-8.55-26.68-2-5.69-9.59-9-16.52-10.11-11.63-1.83-20.07-8.29-26.79-17.6-1.68-2.32-3-4.7-2.37-7.39.71-3,2.12-6.18,5.78-2.33,6.45,6.79,14.66,10.8,23,14.64a30.21,30.21,0,0,0,8.34,2.79c13.17,1.85,15.83-.5,15.13-13.48-1.1-20.26,4.33-38.94,13.93-56.41,13.28-24.16,27.9-47.28,53.77-60.35,32.44-16.42,66.22-24.75,102.58-16.7,9.47,2.09,8.93,2.32,4.92,11.59-11.31,26.18-31.07,42.47-57.91,50.9A56.33,56.33,0,0,1,344,243.94c-11.21.23-19.84,5-24.32,15.41-4.27,9.93.81,18.95,6,26.39,7.86,11.3,41.27,10.37,49.93-.32,2.15-2.66,2-5.45.82-8.32a8.7,8.7,0,0,0-8.9-5.67c-5.89.24-11.76.92-17.66,1.13C346.2,272.67,342.25,273,339.26,268.43ZM368,196.91c-2,.85-5.76,2.37-4.27,7.37,1.94,6.49,7.36,5.4,12,4.7s3.56-4.2,2.58-7.43C377,197.06,374.77,194.24,368,196.91Zm-52.92,21.74c-3.09-4.6-7.71-5.93-12.08-4.57s-4,5.89-2.76,9.52c1.33,3.87,4.59,5.15,8.36,3.77C312.58,225.89,315.07,223,315.08,218.65Z"/><path class="cls-6" d="M262.69,128c-3.21-8.94-4.61-18.26-6-27.54-.77-5.25-1.32-12.34,3.86-14.37s9.66,3.21,13.12,7.52a61.35,61.35,0,0,1,7.18,11.59c11.7,24,17.69,50,26.92,74.89,1.52,4.1-.05,6.81-3.25,8.88-2.81,1.81-5.45,1.81-7.74-1.21A248.91,248.91,0,0,1,262.69,128Z"/><path class="cls-7" d="M369.9,278c-15.13,14.49-39.27,8.58-44.59-9.24-2-6.53.28-11.25,6.74-13.25,7.94-2.48,15.94-5.16,24.12-6.41,29.11-4.48,48.76-21.94,64.21-45.47,4.27-6.51,8.31-13.19,12.68-19.63,1.14-1.68,2.83-4,5.1-3.37,2.42.67,2.15,3.54,2.08,5.58-.68,19.26-9.17,34.3-25,45.21-17.15,11.82-36.05,20-55.73,26.47a51.67,51.67,0,0,1-22.2,2.42c-7.46-.82-10.48,3.12-7.56,10.1,2.78,6.66,8.27,9.76,15.37,9.47C352.79,279.55,360.43,278.75,369.9,278Z"/><path class="cls-6" d="M344.93,86.79c2.59,17.44,6.41,34.44,7.6,51.83.57,8.27,0,16.61,1.83,24.79.8,3.61,0,5.75-4,7.18-10.54,3.75-11.86,3.18-13.84-8.21-4-23-5.66-46.16-3.68-69.5a42.76,42.76,0,0,1,.46-4.78c.8-4,1.33-8.87,6.34-9.07S342.45,84.63,344.93,86.79Z"/><path class="cls-6" d="M310.3,152.15c-4.79-17.2-13.84-35.68-12-56.5.33-3.63-1.17-9.7,3.69-10.19,3.76-.38,6.89,4.07,9.05,8.18a122.07,122.07,0,0,1,13.33,44.49c1.1,10.38,3.4,20.64,5,31,.33,2.26,1.15,5.05-.83,6.88-2.14,2-4.67,4.26-7.72,3.92s-2.3-3.82-3.08-5.91C315.35,167.47,313.23,160.83,310.3,152.15Z"/><path class="cls-7" d="M272.18,506.27c15-11.74,30.2-20.94,42.18-34a2.74,2.74,0,0,1,3.56-.75c1.69.84,2,2.36,1.85,4.05a9.92,9.92,0,0,1-.43,1.55C315.31,490.18,288.47,507.54,272.18,506.27Z"/><path class="cls-7" d="M571.55,407.75c-5.75,4.93-12.66,4.51-19,4.1-13.62-.92-27.17-3-40.76-4.53-3.41-.38-4.74-1.88-3.5-5.38.93-2.67.66-6,5.4-4.47A229.31,229.31,0,0,0,571.55,407.75Z"/><path class="cls-4" d="M368,196.91c6.77-2.66,9,.15,10.31,4.64,1,3.22,2.18,6.71-2.58,7.43s-10.07,1.79-12-4.7C362.24,199.28,366,197.75,368,196.91Z"/><path class="cls-4" d="M315.08,218.65c0,4.35-2.5,7.25-6.48,8.72-3.77,1.39-7,.1-8.36-3.77-1.25-3.63-1.58-8.18,2.76-9.52S312,214,315.08,218.65Z"/><path class="cls-8" d="M304.64,489.43c3.13,2.43,6.06,5.25,9.45,7.22,17.59,10.17,34.56,21.47,53.38,29.45,18.66,7.93,37.81,14.07,57.89,17.22a141,141,0,0,0,49.25-1c3-.61,6-1.37,9.1-.07,23.19-9.6,42.56-24.42,58.66-43.54,8.88-10.57,17.43-21.42,26.1-32.19,6.32-7.83,9.49-17.12,12-26.72,7.53-28.61,7.28-57.39,2.26-86.32-2.91-16.94-5.67-33.88-13.82-49.28-7.08-13.42-16.68-25.06-27-37.64-1.49,6.62-2.54,12.23-4,17.73-8.24,30.56-21.39,58.76-40.57,84.06-12.92,17.06-26.06,34-43.92,46.28-13,9-25.9,18-38.66,27.24-14.09,10.27-28.54,20-44.19,27.8A198.94,198.94,0,0,1,304.64,489.43Z"/><path class="cls-8" d="M293.65,478a12.59,12.59,0,0,0,4.76,3.72c25.62-.92,49.1-8.7,71.44-21.11,27.65-15.36,53-34.1,79.06-51.84,12.46-8.49,22-19.8,31.07-31.62,11.67-15.21,23.84-30,32.77-47.13a189.14,189.14,0,0,0,18.89-53.74c.74-4,.75-8.15,1.11-12.23.08-.8.09-1.66-.77-1.91s-1.19.74-1.53,1.38a21.88,21.88,0,0,0-2.17,8.13c-2.47,21.64-12.29,40.05-24.23,57.78-17.36,25.82-36.08,50.48-61,69.43C424.45,413,405.73,427,386.15,439.64c-14,9-30,13.88-45.24,20.14C327,465.46,313.23,471.37,299,476.23Q296.36,477.16,293.65,478Z"/><path class="cls-9" d="M298.41,481.75a12.59,12.59,0,0,1-4.76-3.72h0l-9,2.11-9,2.11c.05.43.11.86.17,1.28Z"/><path class="cls-9" d="M252.79,491.94c2,5.09,5.57,9.13,9.18,13.13,7.6,8.41,17.17,14.55,25.59,22,17.41,15.42,37.62,26,58.79,34.92,13.74,5.78,28.35,5.93,43,6,29.11.11,56.07-8,82.05-20.33,4-1.92,8.17-3.62,12.27-5.42-3-1.3-6.1-.53-9.1.07a141,141,0,0,1-49.25,1c-20.08-3.15-39.24-9.29-57.89-17.22-18.82-8-35.79-19.28-53.38-29.45-3.39-2-6.32-4.79-9.45-7.22-11.37,1.28-22.81,1.5-34.24,1.65-.92,1.34-2.25.78-3.51.83C262.19,492.12,257.49,490.87,252.79,491.94Z"/><path class="cls-10" d="M270.4,491.07c-5.61-.91-11.29-.64-16.93-.91-1.86-.08-2,.58-.68,1.77,4.7-1.07,9.4.19,14.11,0C268.15,491.86,269.49,492.41,270.4,491.07Z"/><path class="cls-9" d="M284.61,480.14l9-2.11h0Z"/><path class="cls-8" d="M293.65,478h0q2.71-.87,5.39-1.8C297.25,476.85,295.46,477.45,293.65,478Z"/><path class="cls-11" d="M532,262.17c.86.25.85,1.11.77,1.91-.36,4.08-.37,8.22-1.11,12.23a189.14,189.14,0,0,1-18.89,53.74c-8.93,17.1-21.11,31.93-32.77,47.13-9.08,11.82-18.62,23.13-31.07,31.62-26,17.74-51.41,36.48-79.06,51.84-22.34,12.41-45.83,20.19-71.44,21.11l-22.67,1.79c-.06-.42-.12-.85-.17-1.28l9-2.11,9-2.12c1.81-.58,3.6-1.18,5.39-1.79,14.19-4.86,28-10.77,41.87-16.45,15.28-6.26,31.29-11.11,45.24-20.14C405.73,427,424.45,413,443,398.89c25-19,43.68-43.61,61-69.43,11.94-17.73,21.76-36.13,24.23-57.78a21.88,21.88,0,0,1,2.17-8.13C530.79,262.9,531,261.89,532,262.17Zm-278.51,228c5.65.27,11.32,0,16.93.91,11.43-.15,22.87-.37,34.24-1.65a198.94,198.94,0,0,0,65.85-19.76c15.66-7.81,30.1-17.53,44.19-27.8,12.76-9.28,25.68-18.28,38.66-27.24,17.85-12.29,31-29.21,43.92-46.28,19.18-25.3,32.33-53.49,40.57-84.06,1.49-5.5,2.54-11.11,4-17.73,10.36,12.58,20,24.22,27,37.64,8.14,15.4,10.91,32.34,13.82,49.28,5,28.93,5.27,57.7-2.26,86.32-2.51,9.6-5.68,18.89-12,26.72-8.67,10.77-17.21,21.62-26.1,32.19-16.1,19.12-35.47,33.93-58.66,43.54-4.1,1.79-8.24,3.5-12.27,5.42-26,12.36-52.94,20.44-82.05,20.33-14.69-.08-29.3-.23-43-6-21.17-8.91-41.38-19.5-58.79-34.92-8.43-7.44-18-13.59-25.59-22-3.61-4-7.14-8-9.18-13.13C251.45,490.74,251.61,490.09,253.47,490.16Zm158.2,87.19c11.75-2.34,23-6.23,34.1-10.62,16.47-6.5,33-13,48.67-21.15,15.37-8,29.73-17.79,42.09-30.14C554.09,497.85,570,479,581.38,456.68a121.23,121.23,0,0,0,10.51-29.31c5.4-32.87,4.89-65.27-7.3-96.85a126.28,126.28,0,0,1-4.14-13.21c-4.09-15.69-11.85-29.46-22-41.95-5.49-6.76-11.36-13.24-17.06-19.83a19.34,19.34,0,0,0-10.54-6.65c-5.84-1.33-8.08.32-7.74,6.27.61,11.12-.29,22-4.29,32.52A177.44,177.44,0,0,1,506,313.85c-14.43,24.69-31.39,47.49-52,67.35-11.12,10.69-24.52,18.56-37,27.57-11.11,8.06-22.23,16.11-33.66,23.7-12.55,8.33-26.29,14.4-40.23,20-20.1,8.11-40.16,16.38-61.41,21.16-7.25,1.64-14.57,3.06-22,3.21-6.23.1-11.94-1.4-16.5-6a6.12,6.12,0,0,0-6.31-1.83c-2.56.79-2.58,3.35-2.84,5.44-.41,3.33,1,6.27,2.53,9.13,12.82,23.71,32.18,41.31,53.62,56.86,6,4.36,12.31,8.33,18.15,12.95,11.34,9,24.24,14.65,37.85,19.17C367.63,579.73,389.36,581.79,411.67,577.35Z"/><path d="M626.43,49c4,2.27,5.44,6.38,7.18,10.13,2.73,5.87,5.16,11.87,4.64,18.66-.19,2.66.93,4.65,3.71,6.21a22.75,22.75,0,0,1,7.91,7.17c3.59,5.65,6.52,11.71,7,18.67.15,2.36,1.15,4.65,1.65,7,1.07,5.16,2,10.35,3.12,15.51a2.82,2.82,0,0,0,1.45,1.88c4.66,1.49,9.39,2.76,14.07,4.19a59.26,59.26,0,0,1,8.64,3c3.65,1.74,5.19,4.6,4.29,6.76s-3.51,2.53-7.51,1.29c-3.06-1-6-2.36-9.17-2.79-4-.55-8-.31-12.18-.42-.87,6.1-1.62,11.21-2.31,16.34-.47,3.51,3.26,10.24,6.6,12.17,1.82,1.05,3.62,2.16,5.37,3.3s2,2.6.23,3.84-3.77,2.78-5.88,3.26c-4.89,1.08-7.9,4.87-11.83,7.3-7.41,4.59-14.76,9.3-23.3,11.64a31.4,31.4,0,0,1-3.25.46c2,3.65,2.68,7.51,6.86,9.31,3.86,1.66,7.52,3.76,11.24,5.72a3.84,3.84,0,0,1,2,4.85c-.63,2.17-2.32,2.62-4.48,2.63-9.82,0-16.64-5.16-22.36-12.43-1.58-2-3.13-4.06-4.8-6a2.46,2.46,0,0,0-1.7-.87c-4.83.33-9.66,1.1-14.48,1.07a83,83,0,0,1-14.51-1.35c-12.87-2.35-21.28-10.44-27-21.79A2.62,2.62,0,0,0,556,184.4c-3.81-.44-7.63-.81-11.45-1.06-7.09-.46-11.69-4.68-15.73-10a12.76,12.76,0,0,1-2.73-7c-.19-2.74,1.32-5.5,3.23-5.71s4.54,2.3,4.95,4.74c.13.77.2,1.76.7,2.21,3.84,3.37,7.63,6.88,13.31,6.71,2-.07,2.7-.95,2.44-2.83s-.61-4-.76-5.95c-.61-8.53,0-16.92,6.45-23.33a36.9,36.9,0,0,1,24.71-11c3.76-.17,7.58,1.45,11.4,2.16a13.76,13.76,0,0,0,2.86-.06,21.12,21.12,0,0,0-.45-2.79c-3.67-12-4.75-23.87,2.32-35.25a30.48,30.48,0,0,1,12.14-10.93A51.1,51.1,0,0,1,623,79.1c6.63-1.29,7.35-1,5.92-7.61-1.14-5.33-4-10.29-6.17-15.39a18.83,18.83,0,0,0-1.41-1.95c-.78-1.29-2.32-2.55-.62-4.19S624.2,47.75,626.43,49Zm21.39,58.18c-1.49-7.07-5.76-12.22-11.3-16.44a10.11,10.11,0,0,0-4.31-2c-9.75-1.51-21.28,1.55-27.3,12.06-4.93,8.6-4.94,17.26-2.41,26.3,1.08,3.85,2.57,7.58,3.65,11.42s-1.48,6.81-5.4,6.23a67.42,67.42,0,0,1-6.68-1.4c-6.52-1.68-13.1-2.4-19.55-.06-6.81,2.46-12.14,6.41-14.39,14-1.21,4.06-.12,7.81.42,11.47.66,4.52,2.7,9,4.72,13.14a37.28,37.28,0,0,0,6.27,9.38c7.15,7.52,17.07,8.24,26.41,8.8,7.89.48,15.91-1.21,23.86-2.16a20.44,20.44,0,0,0,6.86-2c10.5-5.33,20.89-10.86,31.83-16.59-5.19-3.76-9.31-7.9-9.62-14.06-.28-5.43.25-10.92.52-16.37.34-6.58,1.57-13.23,1-19.71C651.67,121.82,649.38,114.54,647.82,107.2Z"/><path class="cls-12" d="M636.52,90.76c5.54,4.23,9.82,9.38,11.3,16.44,1.56,7.34,3.85,14.62,4.54,22,.6,6.48-.63,13.13-1,19.71-.27,5.46-.8,10.94-.52,16.37.31,6.16,4.43,10.3,9.62,14.06-10.94,5.73-21.33,11.26-31.83,16.59a20.44,20.44,0,0,1-6.86,2c-7.94,1-16,2.64-23.86,2.16-9.34-.56-19.26-1.28-26.41-8.8a37.28,37.28,0,0,1-6.27-9.38c-2-4.19-4.06-8.62-4.72-13.14-.53-3.66-1.63-7.4-.42-11.47,2.25-7.59,7.58-11.55,14.39-14,6.45-2.34,13-1.62,19.55.06a67.42,67.42,0,0,0,6.68,1.4c3.92.59,6.5-2.31,5.4-6.23s-2.57-7.57-3.65-11.42c-2.53-9-2.52-17.7,2.41-26.3,6-10.51,17.55-13.57,27.3-12.06A10.11,10.11,0,0,1,636.52,90.76ZM626,117.18c-1.89-1.53-6-.78-7.63,1.38-2.3,3.1-2,5.85.82,8,2.33,1.79,5.38,1,7.64-2C628,123.11,627.44,118.31,626,117.18Zm16,41.45c6.1-6,3.86-14.88-2-18.8-5-3.35-10.42-4.51-16.07-5.15-1.17-.13-3.34,1.13-3.65,2.18a21.81,21.81,0,0,0-.51,7.06c.13,3,1.1,6,.78,8.86-.76,6.82-3.78,12.56-8.52,17.74-5.24,5.73-11,9.81-18.86,10.41a3.18,3.18,0,0,0-3.2,3.82,4.25,4.25,0,0,0,3,2.83,18.47,18.47,0,0,0,8-.92c8.52-3.62,15.53-9.21,19.91-17.55,1.39-2.62,2.94-3.66,6-2.86a12.64,12.64,0,0,0,5.46-.34C636.67,165,639.48,161.84,642,158.63ZM586.4,158a5.86,5.86,0,0,0-8.48.12c-1.11,1.2-1.1,5.91,0,7,1.49,1.51,6,1,7.74-.78C587.71,162.15,588,159.52,586.4,158Z"/><path d="M618.39,118.56c1.62-2.17,5.74-2.92,7.63-1.38,1.42,1.13,1.94,5.93.82,7.41-2.25,3-5.3,3.78-7.64,2C616.38,124.41,616.09,121.66,618.39,118.56Z"/><path d="M640,139.82c5.88,3.92,8.12,12.8,2,18.8-2.52,3.21-5.33,6.34-9.71,7.26a12.64,12.64,0,0,1-5.46.34c-3-.8-4.59.24-6,2.86-4.38,8.34-11.39,13.93-19.91,17.55a18.47,18.47,0,0,1-8,.92,4.25,4.25,0,0,1-3-2.83,3.18,3.18,0,0,1,3.2-3.82c7.83-.6,13.63-4.68,18.86-10.41,4.74-5.17,7.76-10.92,8.52-17.74.33-2.88-.65-5.89-.78-8.86a21.81,21.81,0,0,1,.51-7.06c.31-1,2.48-2.31,3.65-2.18C629.55,135.32,635,136.48,640,139.82Zm-2,8.53c.77-3.79-2.62-5.75-11.41-5.91.83,1.79,1.17,4,2.12,4.31C631.63,147.68,634.83,147.87,638,148.35Zm-2.17,4.91c-2.8-.27-5.3-1-7.53-.46-.87.21-1.09,3.18-1.69,5.12C631.15,158.69,633.75,157.23,635.79,153.26Z"/><path class="cls-13" d="M626.54,142.44c8.79.16,12.18,2.12,11.41,5.91-3.12-.48-6.32-.67-9.29-1.6C627.72,146.46,627.37,144.23,626.54,142.44Z"/><path class="cls-13" d="M628.26,152.8c2.22-.53,4.73.19,7.53.46-2,4-4.63,5.43-9.21,4.66C627.17,156,627.39,153,628.26,152.8Z"/><path d="M577.92,158.09a5.86,5.86,0,0,1,8.48-.12c1.61,1.56,1.31,4.18-.73,6.39-1.69,1.82-6.25,2.28-7.74.78C576.82,164,576.8,159.29,577.92,158.09Z"/></svg>