<svg id="圖層_1" data-name="圖層 1" xmlns="http://www.w3.org/2000/svg" xmlns:xlink="http://www.w3.org/1999/xlink" viewBox="0 0 245.99 250.83"><defs><style>.cls-1,.cls-2,.cls-3{fill:none;}.cls-1{clip-rule:evenodd;}.cls-3{stroke:#fff;stroke-miterlimit:10;stroke-width:7px;}.cls-4{clip-path:url(#clip-path);}.cls-5{fill:#080505;}.cls-10,.cls-11,.cls-12,.cls-13,.cls-14,.cls-15,.cls-16,.cls-17,.cls-18,.cls-19,.cls-5,.cls-6,.cls-7,.cls-8,.cls-9{fill-rule:evenodd;}.cls-6{fill:#fff;}.cls-7{fill:#fcfdfd;}.cls-8{fill:#deb735;}.cls-9{fill:#c5543e;}.cls-10{fill:#6e5330;}.cls-11{fill:#5b7e36;}.cls-12{fill:#c35640;}.cls-13{fill:#d7b23c;}.cls-14{fill:#626752;}.cls-15{fill:#64714e;}.cls-16{fill:#5a5144;}.cls-17{fill:#6b7c49;}.cls-18{fill:#0c0d0d;}.cls-19{fill:#131313;}.cls-20{clip-path:url(#clip-path-2);}</style><clipPath id="clip-path"><path class="cls-1" d="M88.66,8.95,95.46,73s16.47-6,24-6.23,16.29-2.37,22.64-1.11S144.84,0,144.84,0Z"/></clipPath><clipPath id="clip-path-2"><circle class="cls-2" cx="128.95" cy="124.68" r="104.46"/></clipPath></defs><title>GraphicE</title><circle class="cls-3" cx="126.78" cy="132.85" r="100.46"/><circle class="cls-3" cx="126.45" cy="134.18" r="100.46"/><g class="cls-4"><path class="cls-5" d="M205.54,163c-.33,3.53-.8,7.06-.95,10.59-.14,3.29-1.4,6.24-2.35,9.29-.8,2.55-1.68,5.08-2.42,7.65a5.75,5.75,0,0,1-4.12,4.29,15,15,0,0,0-7.7,4.79c-3.33,4-7.89,6.47-12.17,9.28-1.6,1.05-2.63,1.9-1.78,4.26.64,1.78-.22,4-.53,5.94a91.22,91.22,0,0,1-4.71,17.34c-.76,2.07-.71,2.08,1.49,2.77,1.13.36,2.27.72,3.37,1.15a1.64,1.64,0,0,1,1,2.19c-.3.94-1.21.68-1.85.51-2.74-.7-5.73-.52-8.15-2.33a.55.55,0,0,0-.16-.07c-2.68-.86-2.67-.86-2.72-3.79a130.49,130.49,0,0,1,1-14.93c.16-1.59,0-3.21.09-4.82,0-1.08-.4-1.12-1.3-.86-2.68.78-5.11,2.28-7.91,2.7-4.05.61-8.08,1.47-12.2,1.25-3.7-.19-7.36.38-11,.46a58.37,58.37,0,0,1-16.38-2c-2.08-.56-2.25-.32-2.32,1.77-.19,5.18.13,10.35.38,15.52.16,3.29-1.28,4.66-4.6,4.65-1.91,0-3.81,0-5.72,0a3.26,3.26,0,0,1-2.91-1.75,2.22,2.22,0,0,1-.16-2.38c.52-.86,1.36-.45,2.09-.23a20.75,20.75,0,0,0,4.83.6,23.26,23.26,0,0,0-2.13-5.69c-1.89-4.2-2.28-8.71-2.81-13.18a4.25,4.25,0,0,0-3.18-3.92A98.75,98.75,0,0,0,79.24,209a10.45,10.45,0,0,1-6.29-3.45c-.33-.37-.64-1.07-1.24-.78s-.3,1-.3,1.48c-.09,5.47.79,11,.26,16.41-.55,5.7.16,11.42-.59,17.11-.28,2.1-1.1,3.39-3.12,4a11.91,11.91,0,0,1-4.76.45,4.2,4.2,0,0,1-4-4,54.62,54.62,0,0,1,0-12.28,20.85,20.85,0,0,0-.13-6.59c-.32-1.51.15-3,.18-4.43a149.14,149.14,0,0,0-1.64-26.12c-.74-4.73-.63-9.6-2.22-14.21-.19-.56-.21-1.17-1-1.54-.87,1.42-.48,3-.48,4.44a6.42,6.42,0,0,1-2,4.78,3.4,3.4,0,0,1-5.67-.83c-1.65-3-3.21-6.11-3-9.75.07-1.24-.51-1.68-1.79-1.27a5.46,5.46,0,0,0-3.94,5,28.53,28.53,0,0,0,0,3.39,3.89,3.89,0,0,1-2.69,4c-4.12,1.8-8.6-1.06-9.08-5.82a12.47,12.47,0,0,1,.29-4.25c1-3.93,1.84-7.85,4.56-11.06,3.52-4.15,8.13-6.06,13.39-6.53a1.85,1.85,0,0,0,2-1.55,55.27,55.27,0,0,0,1.86-10.68c.44-4.89,2-9.51,3.29-14.2,2.9-10.55,7.35-20.45,12.17-30.23a48.67,48.67,0,0,1,13.18-16c7-5.8,15.06-9.72,23.48-13,1-.38,1.31-.85,1-2A114.07,114.07,0,0,1,97.23,49.3c-.51-8.08-.51-16.18-.52-24.28a33.13,33.13,0,0,1,2.7-12.45,5.26,5.26,0,0,1,2.44-2.74c1.36-.75,2.35-.6,3.78.47,3.46,2.59,4,6.37,4.65,10,1.11,6.3,1.83,12.68,2.75,19.24a17.54,17.54,0,0,0,2-4.37A12.15,12.15,0,0,1,118,30.79a2.29,2.29,0,0,1,2.9-.39c3.1,1.52,3.64,4.38,3.77,7.36.11,2.67.71,5.31.33,8,.9.14,1-.52,1.22-.93a19.62,19.62,0,0,1,3.68-4.8c1.84-1.65,3.88-1.42,4.79.82a24.8,24.8,0,0,1,2,13.23,77.12,77.12,0,0,1-1.87,9.78c-.37,1.28.65,1.38,1.45,1.47a41.3,41.3,0,0,0,5.87.33c8.45-.26,15.65,3.13,22.52,7.44,8.62,5.42,17,11.2,24.47,18.17,3.23,3,7,5.75,8.85,10.11.47,1.14,1.3.9,2.23.55,3.78-1.41,7.44-3.24,11.49-3.79,3.16-.43,6.31-.6,8.8,2.1A6.47,6.47,0,0,1,221,108c-3.69,5.28-8.81,8.59-14.77,10.72-3.81,1.36-4,1.38-2.37,5,2,4.4,2.32,9.05,2.59,13.74a2.76,2.76,0,0,0,1.16,2.28c3.06,2.16,5,5.24,6.71,8.44,2.49,4.59,5.43,9,6.65,14.16a21.94,21.94,0,0,1,.26,9.37c-.43,2.19-2.19,2.72-4,3.29s-3.37.36-4.48-1.18c-1.38-1.93-2.59-4-3.87-6q-1.53-2.4-3-4.81Zm-18.15.41V172c0,1.46-.26,2.92-.29,4.37-.64,2.1-.36,4.25-.42,6.38-.29,3.29-.64,6.59-.91,9.89,0,.4-.52,1,.28,1.14,1.08.25,3.73-1.16,4-2.22a47.12,47.12,0,0,0,.81-4.88c.4-3.65.36-7.37.88-11,.6-4.19,1.26-8.29.56-12.5-.18-1.08.37-2.44-1.6-2.3C187.78,161.07,187.39,161.37,187.39,163.43ZM194,189.88c.15.63.32,1,1.2.82a2.55,2.55,0,0,0,2-2,110.92,110.92,0,0,0,2.86-12.07c.7-3.65.54-7.42,1.72-11a10,10,0,0,0,0-4.25c-.34-2.56-1.19-3-3.26-2.28a12.29,12.29,0,0,1-2.48.41,1.64,1.64,0,0,0-1.7,1.81V167c0,5.13-.36,10.27-.74,15.41A16.57,16.57,0,0,0,194,189.88Zm-16.47-2.54c0,2.62.05,5.23,0,7.85,0,1.19.4,1.52,1.48,1s2.06-.93,3.11-1.32c.75-.27.91-.66,1-1.51a130.53,130.53,0,0,0,1.18-18.58v-6.38a18.06,18.06,0,0,0,.16-3c-.69-3.89.28-3.3-3.39-2.6-.7.13-1.33.38-2,.5-1.8.31-2.45,1.37-2.33,3.16.27,4,.57,7.95.47,11.93C177.32,181.38,176.94,184.38,177.58,187.34ZM115,203.1A7.32,7.32,0,0,0,115,201c-1.7-4.87-1.47-10.05-2.43-15-.79-4.06-1.35-8.16-2-12.24-.09-.52,0-1.26-.84-1.34-1.05-.1-2.1-.31-3.15-.34-2.43-.08-2.84.4-2.9,2.88-.21,8.42,1.25,16.63,3.1,24.78.48,2.1.35,4.35,1.49,6.29,2.19.78,4.44.22,6.67.31.45,0,.58-.4.53-.77C115.26,204.7,115.62,203.83,115,203.1ZM165.78,186q0,1,.07,2.1c0,1.89-.36,3.81.31,5.67a14.73,14.73,0,0,1-.3,4.07c-.28,1,.15,1.48,1.21,1.29,2.15-.38,4.31-.74,6.46-1.17.64-.13,1.38-.46,1.46-1.16.19-1.76.64-3.64-.08-5.29a7.81,7.81,0,0,1-.4-4c.07-.88.14-1.77.24-2.65.39-3.28-.57-6.5-.37-9.77s-.71-6.34-1.3-9.47c-.19-1-.62-1.31-1.54-1.14-1.75.31-3.48.73-5.24.88-2,.18-2.23,1.41-1.87,2.85,1,3.84.65,7.78,1.06,11.66C165.5,181.94,165.17,184,165.78,186Zm-3.17-4c0-4.63-1-9.17-1.48-13.75-.1-1-.7-1.26-1.59-1.3a30.25,30.25,0,0,0-6.16.5c-1.24.21-1.61.75-1.54,2,.34,6,1.43,11.89,1.14,17.9q0,6.6-.06,13.21c0,1,0,2,1.42,1.11,2.31-.37,4.62-.79,6.94-1.08a2,2,0,0,0,2-2.33,85.77,85.77,0,0,0-.41-8.83C162.84,187,163.26,184.48,162.61,182ZM101,172.38a15,15,0,0,0-7.21-.06c-3.59.09-3.66.1-3.12,3.63q1.19,7.86,2.55,15.7c.75,4.35,1.63,8.68,2.38,13a1.73,1.73,0,0,0,2.06,1.65c2.2-.05,4.41-.07,6.61,0,1.28,0,1.41-.37,1.22-1.56-1-6.48-3-12.81-3.52-19.37-.24-2.8-1.42-5.44-1.24-8.3C100.86,175.53,101.51,174,101,172.38Zm49.77,25.44a2.42,2.42,0,0,0,.33-1.71c0-3.57,0-7.14,0-10.7,0-.8.23-1.67-.31-2.42.16-4.42-1-8.71-1.38-13.07-.12-1.23-.71-1.68-1.86-1.58a64.81,64.81,0,0,0-7.55,1.14,1.66,1.66,0,0,0-1.48,1.73,30.29,30.29,0,0,0,.24,5.51c.81,5.26,2.2,10.45,2,15.84-.12,2.79-.47,5.57-.37,8.37.26.71-.61,1.95.73,2.12a4.48,4.48,0,0,0,3.2-.3c.54,0,1.07,0,1.61,0C150.33,202.62,150.69,202.25,150.81,197.82ZM62.47,209.54q0,6.45,0,12.9c0,.52-.12,1.07.34,1.49a79,79,0,0,1-1.31,12.29c-.28,1.8.47,3.11,2,3.35,3,.46,3.19.34,3.62-2.16a83.34,83.34,0,0,0,1.07-14.64c.79-2.34.22-4.75.32-7.13,0-1.07.39-2.22-.32-3.24-.53-4.55.11-9.11,0-13.66a8,8,0,0,0-.07-1.6c-1.41-6-1.89-12.25-3.17-18.32-.71-3.34-1-6.79-2.58-9.92-.67-1.31-1.36-2.51-2.83-3-1.25-.43-2.59-.85-3.62.34a3.29,3.29,0,0,0,0,4.68c3.58,3.24,4.34,7.44,4.44,11.95a72.12,72.12,0,0,0,.43,8.69C61.6,197.52,61.66,203.56,62.47,209.54ZM131,115.74c.27-1.48,1.1-1.79,2.46-1.77,4.1.06,8.28.42,12.29-.21s8.07-1.44,12.14-1.8a153.61,153.61,0,0,0,35.26-7.55c.85-.28.94-.54.72-1.37a12.83,12.83,0,0,0-4.34-6.37,205.2,205.2,0,0,0-19.8-15.47c-4.42-3-8.9-5.92-13.55-8.56a11.06,11.06,0,0,0-3.62-1.44c-8.15-1.32-16.28-2.93-24.61-2.15-2.24.21-4.81-.29-6.66.84a23.4,23.4,0,0,1-10.15,3C99.49,74.08,89.7,79.55,80.4,86.05,74.93,89.88,71,95.28,67.58,101c-5.14,8.48-10,17.05-12.42,26.79-1.65,6.73-3.76,13.36-4,20.41a39.83,39.83,0,0,1-2.65,13,26.55,26.55,0,0,0-2,7.53c-.23,3.14-.62,6.29.55,9.35.34.87,1,1.89,1.66,1.94s1.18-1.15,1.56-1.95a5.19,5.19,0,0,0,.34-1.91c.21-3.14.35-6.3.71-9.42a10,10,0,0,1,4.81-7.92c.41-.24,1.06-.87,1.26,0,.3,1.27,1.36,1.51,2.22,1.78a10.49,10.49,0,0,1,6,5,3.41,3.41,0,0,0,3.12,1.66c10.76.37,21.52.87,32.29,1.1,6.66.14,13.34-.08,20-.23a137.48,137.48,0,0,0,17.56-1.75c6.51-1,12.92-2.65,19.49-3.32,14-1.41,27.65-4.5,41.25-7.9a2.39,2.39,0,0,0,1.85-1.88c1.15-3.75.71-7.55.68-11.35a67,67,0,0,0-3-19.66c-.19-.61-.19-1.34-1.33-1.19-4.18.55-8.38,1.05-12.59,1.4s-8.63,1-13,.74c-1.9-.11-3.79-.35-5.68-.56-6.62-.76-13.24-1.49-19.84-2.33C141.09,119.63,136.28,116.92,131,115.74ZM99.32,210c2.8,2.52,6.34,2.66,9.46,3.63a95.09,95.09,0,0,0,12.56,2.46c3.8.63,7.63,1.46,11.5,1a127.91,127.91,0,0,0,26.31-6c7.53-2.51,14.86-5.28,21.28-10.07.63-.47,1.49-.77,1.43-2l-4.5,1.19c-9.6,2.55-19.46,3.55-29.25,5-4.59.68-9.26.77-13.76,2.16a31.21,31.21,0,0,1-9.71,1.06c-7.26-.1-14.46,1.25-21.74.77A8.83,8.83,0,0,0,99.32,210Zm52.59-94a3.47,3.47,0,0,0,2.21.8c6.55.76,13.14.94,19.69,1.75,5.33.66,10.69-.11,16-.46a65.36,65.36,0,0,0,13.18-2,29.07,29.07,0,0,0,15-9.08c1.92-2.25,1.43-4.14-1.49-4.76a13.72,13.72,0,0,0-3-.17c-3.08,0-5.88,1.23-8.77,2.14-3.61,1.15-7.46,1.66-10.94,3.08-10.63,4.34-21.84,5.82-33.06,7.4C157.9,115.21,155.06,115.63,151.91,116.08ZM111.53,58.86a134.71,134.71,0,0,0-2.32-24.08c-.92-5.08-1.2-10.26-2.7-15.24-.35-1.16-1.48-2.17-1.32-3.18.19-1.22-.26-1.51-1.1-1.73-1.15-.31-1.68.47-1.9,1.39-.84,3.7-2.07,7.34-2.18,11.17a217.68,217.68,0,0,0,1.49,28.12c.44,4.36,1.41,8.67,2.13,13,.19,1.13.66,1.65,1.94,1.27a29.15,29.15,0,0,1,4.18-.89,1.86,1.86,0,0,0,1.79-2.18C111.5,64,111.53,61.41,111.53,58.86Zm25.66,123c.13-4.15-1.22-7.38-1.11-10.78,0-.77-.61-1-1.26-.92-3.21.48-6.49.47-9.65,1.32-.7.19-1.21.46-1.15,1.31.24,3.62.17,7.29.77,10.84,1.17,6.95,1.9,14,3.34,20.87.2,1,.62,1.2,1.45,1.06,2.16-.37,4.33-.72,6.47-1.16.65-.13,1.5-.25,1.49-1.25-.06-4,.76-8.09.28-12.12C137.42,187.72,137.74,184.38,137.19,181.85Zm-54.67-9.52c-.74,0-1.16,0-1.58,0-1.91-.06-2.48.42-2,2.3.57,2.16.4,4.37.55,6.52a152.35,152.35,0,0,0,3.66,22.05,1.94,1.94,0,0,0,2.2,1.8,21.13,21.13,0,0,1,6.35.65c1.75.49,1.68-.5,1.38-1.5a52.07,52.07,0,0,1-1.31-8.42c-1-7.41-3-14.61-4-22-.08-.61-.38-1-1-1C85.24,172.78,83.76,172,82.53,172.33Zm30.3,1.41c.26,1.88.53,3.75.77,5.63q1,8.19,2.06,16.38c.38,3.05,1.76,5.92,1.55,9.09-.07,1.09.82,1.2,1.64,1.09a31,31,0,0,1,4.26-.34c2.77,0,3.17-.4,2.58-3.13-2.05-9.58-2.79-19.33-3.84-29-.15-1.39-.72-2-2-1.74a25.53,25.53,0,0,1-5.16.28C113.27,171.91,112.56,172.24,112.83,173.74Zm-36.89,1.69a6.6,6.6,0,0,0,.25-1.84c-.08-.43.06-1.11-.74-1.23-2.22-.33-4.42-.72-6.64-1.07-.88-.14-1.23.05-1,1.12a73.35,73.35,0,0,1,1.28,8.24c.32,4.79,1.57,9.43,2.4,14.13.63,3.56,1.68,7,5.07,9,.88.52,1.87,1.49,2.88.84s.68-1.92.59-3c-.41-5-1.76-9.77-2.37-14.71C77.15,183,76.49,179.08,75.94,175.43Zm39.13-117.8a47.91,47.91,0,0,0-.08,5.93c.32,4.34.29,4.34,4.44,3.21a2,2,0,0,0,1.69-2c.57-6,1.46-12,1.47-18.11,0-3.84.33-7.75-1.37-11.39-.28-.59-.45-1.35-1.18-1.45a2,2,0,0,0-1.9,1.1,9.59,9.59,0,0,0-1.33,3.28A74.67,74.67,0,0,0,115.07,57.63Zm92.34,85.79c-.89,3.47-.65,6.8-1,10.09a8.41,8.41,0,0,0,1.23,5c2.13,4,5.2,7.51,7.17,11.66.39.83,1.13,1.71,2.26,1.25a2.82,2.82,0,0,0,1.85-3,38.48,38.48,0,0,0-.82-5.81c-1.36-5.57-4.46-10.3-7.54-15C209.61,146.19,208.47,144.84,207.42,143.43ZM134,53a39.49,39.49,0,0,0-1.27-7.53c-.17-.83-.56-1.85-1.34-2s-1.48.8-1.94,1.59c-3.51,6-4.47,12.68-5.16,19.42,0,.48-.06,1.15.49,1.18a17.12,17.12,0,0,0,6.26-.77c.25-.08.44-.55.55-.87A48.89,48.89,0,0,0,134,53ZM29.91,175.11c-.21,1.55.64,3,1.08,4.63.14.49.43,1,.92,1s.73-.52.88-1c.59-2,1.24-4,1.77-6,.59-2.23,1.76-3.71,4.22-3.88,3.55-.25,6-1.72,6-5.71a3.5,3.5,0,0,1,.14-.51c.26-1.63-.33-2.33-2-2.35C36.42,161.2,29.92,168,29.91,175.11ZM109,236c.15-.45.26-.61.25-.77-.48-5.44-.35-10.94-1.53-16.32-.19-.87-.41-2-1.56-1.78s-.71,1.33-.75,2.13a5.24,5.24,0,0,0,0,.53A64.22,64.22,0,0,0,107.28,231C107.65,232.64,107.58,234.46,109,236Zm58.5-9.05a.64.64,0,0,0,.67-.63A108.59,108.59,0,0,0,170,214.37c0-.5.57-1.47-.53-1.49a1.6,1.6,0,0,0-1.83,1.34,19.48,19.48,0,0,0-.11,2.31C167.53,220,167.53,223.46,167.53,226.94Z"/><path class="cls-6" d="M131,115.74c5.27,1.18,10.07,3.89,15.47,4.58,6.61.84,13.23,1.57,19.84,2.33,1.89.22,3.78.46,5.68.56,4.35.24,8.66-.38,13-.74s8.4-.84,12.59-1.4c1.14-.15,1.14.58,1.33,1.19a67,67,0,0,1,3,19.66c0,3.8.48,7.6-.68,11.35a2.39,2.39,0,0,1-1.85,1.88c-13.6,3.4-27.26,6.49-41.25,7.9-6.57.66-13,2.32-19.49,3.32a137.48,137.48,0,0,1-17.56,1.75c-6.67.15-13.34.37-20,.23-10.77-.23-21.53-.73-32.29-1.1a3.41,3.41,0,0,1-3.12-1.66,10.49,10.49,0,0,0-6-5c-.86-.26-1.92-.51-2.22-1.78-.2-.87-.86-.24-1.26,0a10,10,0,0,0-4.81,7.92c-.36,3.13-.5,6.28-.71,9.42a5.19,5.19,0,0,1-.34,1.91c-.37.8-.7,2-1.56,1.95s-1.33-1.07-1.66-1.94c-1.18-3.06-.79-6.2-.55-9.35a26.55,26.55,0,0,1,2-7.53,39.83,39.83,0,0,0,2.65-13c.21-7,2.32-13.67,4-20.41C57.54,118,62.44,109.46,67.58,101c3.46-5.7,7.35-11.1,12.83-14.93,9.29-6.5,19.09-12,30.75-13.15a23.4,23.4,0,0,0,10.15-3c1.85-1.13,4.42-.63,6.66-.84,8.32-.78,16.46.84,24.61,2.15a11.06,11.06,0,0,1,3.62,1.44c4.65,2.64,9.13,5.52,13.55,8.56a205.2,205.2,0,0,1,19.8,15.47,12.83,12.83,0,0,1,4.34,6.37c.22.83.13,1.09-.72,1.37A153.61,153.61,0,0,1,157.9,112c-4.07.36-8.1,1.16-12.14,1.8s-8.19.28-12.29.21C132.12,114,131.29,114.26,131,115.74Zm21.9-13.06c-.08-3.46-.24-3.73-2.58-4.55-3.4-1.19-6.4-.67-8.94,2a4.67,4.67,0,0,1-3.38,1.76,33.78,33.78,0,0,1-11.42-1.44c-1.1-.38-2-.68-2.33-2a2.68,2.68,0,0,0-1.56-1.62,5.62,5.62,0,0,0-7.53,1.82c-.74,1.07-1.47,2.16-2.1,3.29a3.71,3.71,0,0,0,2.2,5.69,26.06,26.06,0,0,0,3.91,1,4.65,4.65,0,0,0,5.32-2.61c.34-.62.64-1.27.95-1.9.22-.45.44-.77,1.06-.5,3.31,1.43,6.86,1.19,10.34,1.39a3.26,3.26,0,0,1,2.54,1.24c1.56,1.76,3.43,3.44,5.84,3.79C149.2,110.65,153,106.84,152.91,102.68Zm-8.73-20.84a5.94,5.94,0,0,0-2.79.42c-.49.19-1,.48-1,1.12a1.27,1.27,0,0,0,.87,1.23,7.86,7.86,0,0,0,1.52.48,22.55,22.55,0,0,0,8.12.37,21.49,21.49,0,0,0,7.42-2.29,1.54,1.54,0,0,0,.78-2c-.31-.87-1-.75-1.78-.51A25.37,25.37,0,0,1,144.18,81.83Zm-34.45,3.06c2.32,0,4.61-.48,6.92-.59.85,0,1.72-.29,1.62-1.44s-1-1.35-1.93-1.25a32,32,0,0,1-5.49.13,26.1,26.1,0,0,0-4.07.24c-1,.09-1.86.5-1.74,1.76s1,1.13,1.87,1.15S108.77,84.89,109.72,84.89ZM95.58,89.28c-.71,0-1.42,0-2.12,0s-1.47.2-1.57.87c-.06.42.49,1,.9,1.41,1,.93,5.63.9,6.63,0a1.75,1.75,0,0,0,.63-1.9c-.29-.86-1-.62-1.66-.52A9.25,9.25,0,0,1,95.58,89.28Zm70.84,3.09c1.07,0,2.14,0,3.2-.16a1.37,1.37,0,0,0,1.27-1.46c0-.5-.09-1-.7-1.06a22.21,22.21,0,0,0-7,.78,1,1,0,0,0-.68,1.12c.11.6.58.65,1.09.66C164.52,92.27,165.47,92.33,166.42,92.37Zm-55.69-2.63c-1.28,0-2.63,1.1-2.39,2.07.27,1.13.64,2.31,2.23,2.26s3-1,3-2A2.68,2.68,0,0,0,110.72,89.74Zm40.81,2.46A2.27,2.27,0,0,0,149,94.52c.09,1.45,1,2,2.38,2s2.79-1.23,2.77-2.24A2.59,2.59,0,0,0,151.53,92.2Zm12.24,3a7.43,7.43,0,0,0,4.68,2.65,1.92,1.92,0,0,0,2.12-1c.38-.68.59-1.8-.47-1.78C168,95.18,165.92,94.26,163.77,95.23ZM94.41,96.92c1.19-.19,2.31-.34,3.41-.54.57-.1,1-.37.83-1.09s-.38-1.31-1.07-1.2a43.21,43.21,0,0,0-4.64,1.11,1.17,1.17,0,0,0-.56.84c-.06.44.41.53.74.62S94,96.84,94.41,96.92Z"/><path class="cls-7" d="M99.32,210a8.83,8.83,0,0,1,3.58-.79c7.28.47,14.48-.87,21.74-.77a31.21,31.21,0,0,0,9.71-1.06c4.49-1.39,9.16-1.48,13.76-2.16,9.79-1.44,19.65-2.44,29.25-5l4.5-1.19c.06,1.23-.8,1.53-1.43,2-6.42,4.79-13.75,7.57-21.28,10.07a127.91,127.91,0,0,1-26.31,6c-3.86.43-7.69-.4-11.5-1a95.09,95.09,0,0,1-12.56-2.46C105.65,212.69,102.12,212.55,99.32,210Z"/><path class="cls-8" d="M151.91,116.08c3.15-.46,6-.88,8.83-1.28,11.22-1.58,22.43-3.06,33.06-7.4,3.48-1.42,7.33-1.93,10.94-3.08,2.88-.92,5.68-2.1,8.77-2.14a13.72,13.72,0,0,1,3,.17c2.91.62,3.41,2.51,1.49,4.76a29.07,29.07,0,0,1-15,9.08,65.36,65.36,0,0,1-13.18,2c-5.34.34-10.7,1.11-16,.46-6.55-.81-13.14-1-19.69-1.75A3.47,3.47,0,0,1,151.91,116.08Z"/><path class="cls-9" d="M111.53,58.86c0,2.55,0,5.11,0,7.66a1.86,1.86,0,0,1-1.79,2.18,29.15,29.15,0,0,0-4.18.89c-1.28.39-1.75-.14-1.94-1.27-.72-4.34-1.69-8.64-2.13-13A217.68,217.68,0,0,1,100,27.19c.11-3.83,1.35-7.46,2.18-11.17.21-.93.75-1.7,1.9-1.39.84.22,1.28.51,1.1,1.73-.16,1,1,2,1.32,3.18,1.5,5,1.78,10.17,2.7,15.24A134.71,134.71,0,0,1,111.53,58.86Z"/><path class="cls-10" d="M68.39,222.77a86.45,86.45,0,0,1-1.18,14.64c-.43,2.5-.71,2.62-3.67,2.16-1.55-.24-2.32-1.55-2-3.35a79,79,0,0,0,1.3-12.29q0-6.45,0-12.9c0-.51.13-1.07-.33-1.49-.81-6-.87-12-1.73-18a72.12,72.12,0,0,1-.43-8.69c-.09-4.51-.86-8.71-4.44-11.95a3.29,3.29,0,0,1,0-4.68c1-1.18,2.37-.76,3.62-.34,1.47.5,2.16,1.7,2.83,3,1.6,3.13,1.87,6.58,2.58,9.92,1.29,6.06,1.76,12.27,3.17,18.32a8,8,0,0,1,.17,1.6c.12,4.55-.89,9.11.11,13.66Z"/><path class="cls-11" d="M137.19,181.85c.55,2.53.23,5.87.62,9.18.48,4-.34,8.08-.28,12.12,0,1-.84,1.11-1.49,1.25-2.15.44-4.31.79-6.47,1.16-.83.14-1.25-.1-1.45-1.06-1.43-6.91-2.16-13.93-3.34-20.87-.6-3.55-.52-7.22-.77-10.84-.06-.85.45-1.13,1.15-1.31,3.16-.85,6.44-.84,9.65-1.32.64-.1,1.28.15,1.26.92C136,174.47,137.32,177.7,137.19,181.85Z"/><path class="cls-11" d="M140.4,200.93c-.11-2.8.25-5.58.37-8.37.23-5.39-1.17-10.58-2-15.84a30.29,30.29,0,0,1-.24-5.51,1.66,1.66,0,0,1,1.48-1.73,64.81,64.81,0,0,1,7.55-1.14c1.15-.1,1.53.35,1.65,1.58.41,4.36,1.17,8.65,1.17,13.07v14.83c0,4.43-.27,4.8-4.66,4.92-.54,0-1,0-1.5,0C142.71,202.58,140.77,203.55,140.4,200.93Z"/><path class="cls-11" d="M101,172.38c.47,1.61-.18,3.15-.28,4.73-.18,2.86,1,5.5,1.24,8.3.57,6.55,2.49,12.88,3.52,19.37.19,1.19.07,1.61-1.22,1.56-2.2-.08-4.4-.06-6.61,0a1.73,1.73,0,0,1-2.06-1.65c-.75-4.35-1.63-8.68-2.38-13q-1.35-7.84-2.55-15.7c-.53-3.53-.47-3.54,3.13-3.63Z"/><path class="cls-11" d="M153,187.37c.29-6-.8-11.93-1.14-17.9-.07-1.25.3-1.79,1.54-2a30.25,30.25,0,0,1,6.16-.5c.89,0,1.49.34,1.59,1.3.49,4.58,1.43,9.12,1.48,13.75.09,2.48-.33,5,.3,7.43a85.77,85.77,0,0,1,.41,8.83,2,2,0,0,1-2,2.33c-2.32.29-4.63.72-6.94,1.08-1.22.06-1.06-.82-1.06-1.58,0-3.62,0-7.25,0-10.87C153.28,188.61,153.51,187.92,153,187.37Z"/><path class="cls-11" d="M82.53,172.33c1.24-.29,2.72.44,4.26.38.66,0,1,.39,1,1,.95,7.41,3,14.61,4,22a52.07,52.07,0,0,0,1.31,8.42c.3,1,.37,2-1.38,1.5a21.13,21.13,0,0,0-6.35-.65,1.94,1.94,0,0,1-2.2-1.8,152.35,152.35,0,0,1-3.66-22.05c-.15-2.15,0-4.36-.55-6.52-.49-1.87.08-2.36,2-2.3C81.37,172.34,81.78,172.33,82.53,172.33Z"/><path class="cls-11" d="M165.85,188.12q0-1-.07-2.1c-.08-2,.33-4.11-.29-6.13-.41-3.88-.11-7.82-1.06-11.66-.36-1.44-.09-2.67,1.87-2.85,1.76-.16,3.49-.58,5.24-.88.93-.16,1.36.15,1.54,1.14.59,3.14,1.49,6.23,1.3,9.47s.76,6.49.37,9.77c-.1.88-.17,1.77-.24,2.65a7.81,7.81,0,0,0,.4,4c.71,1.65.27,3.52.08,5.29-.08.7-.82,1-1.46,1.16-2.15.43-4.31.78-6.46,1.17-1.06.19-1.49-.32-1.21-1.29a14.73,14.73,0,0,0,.3-4.07C166,191.89,166.5,190,165.85,188.12Z"/><path class="cls-11" d="M112.83,173.74c-.27-1.5.44-1.83,1.81-1.78a25.53,25.53,0,0,0,5.16-.28c1.33-.23,1.89.35,2,1.74,1.06,9.71,1.79,19.46,3.84,29,.59,2.73.19,3.16-2.58,3.13a31,31,0,0,0-4.26.34c-.82.1-1.71,0-1.64-1.09.21-3.16-1.17-6-1.55-9.09q-1-8.19-2.06-16.38C113.36,177.49,113.09,175.62,112.83,173.74Z"/><path class="cls-11" d="M108.17,206c-1.15-1.94-1-4.19-1.49-6.29-1.85-8.16-3.31-16.36-3.1-24.78.06-2.48.47-3,2.9-2.88,1.05,0,2.1.25,3.15.34.89.08.75.82.84,1.34.69,4.08,1.26,8.18,2,12.24,1,5,.74,10.16,2.43,15a7.32,7.32,0,0,1,.08,2.13,4.49,4.49,0,0,0,0,.88c.3,1.7-.5,2.15-2.07,2S109.76,206,108.17,206Z"/><path class="cls-11" d="M75.94,175.43c.54,3.65,1.2,7.55,1.69,11.48.61,4.93,2,9.75,2.37,14.71.09,1.07.39,2.36-.59,3s-2-.32-2.88-.84c-3.39-2-4.44-5.43-5.07-9-.83-4.7-2.08-9.34-2.4-14.13a73.35,73.35,0,0,0-1.28-8.24c-.2-1.07.16-1.26,1-1.12,2.21.35,4.42.74,6.64,1.07.79.12.65.8.74,1.23A6.6,6.6,0,0,1,75.94,175.43Z"/><path class="cls-11" d="M184.7,174.82a183.37,183.37,0,0,1-1.33,18.58,1.61,1.61,0,0,1-1.18,1.51c-1.06.39-2.08.86-3.11,1.32s-1.5.14-1.48-1c0-2.62,0-5.23,0-7.85-.1-3,.36-6-.3-8.94.1-4-.19-8-.46-11.93-.12-1.78.56-2.84,2.35-3.16.7-.12,1.37-.37,2.07-.5,3.67-.7,2.78-1.29,3.47,2.6a16.64,16.64,0,0,1,0,3A14.38,14.38,0,0,0,184.7,174.82Z"/><path class="cls-12" d="M115.07,57.63a74.67,74.67,0,0,1,1.74-19.42,9.59,9.59,0,0,1,1.33-3.28,2,2,0,0,1,1.9-1.1c.72.1.9.86,1.18,1.45,1.7,3.65,1.38,7.56,1.37,11.39,0,6.07-.91,12.08-1.47,18.11a2,2,0,0,1-1.69,2c-4.15,1.13-4.12,1.13-4.44-3.21A47.91,47.91,0,0,1,115.07,57.63Z"/><path class="cls-7" d="M207.42,143.43c1.06,1.41,2.19,2.77,3.15,4.24,3.07,4.72,6.18,9.45,7.54,15a38.48,38.48,0,0,1,.82,5.81,2.82,2.82,0,0,1-1.85,3c-1.13.46-1.87-.43-2.26-1.25-2-4.15-5-7.61-7.17-11.66a8.41,8.41,0,0,1-1.23-5C206.77,150.23,206.53,146.89,207.42,143.43Z"/><path class="cls-11" d="M194,182.36,195.18,167a11.26,11.26,0,0,0,0-5.67c-.26-1.1.16-1.68,1.3-1.81a8.76,8.76,0,0,0,2.08-.41c2.08-.76,2.92-.28,3.26,2.28a10,10,0,0,1,0,4.25c-1.18,3.61-1,7.37-1.72,11a110.92,110.92,0,0,1-2.86,12.07,2.55,2.55,0,0,1-2,2c-.88.2-1-.19-1.2-.82Q194,186.12,194,182.36Z"/><path class="cls-11" d="M186.89,176.33q0-2.19.07-4.37a24.5,24.5,0,0,0,0-8.52c0-2.06.6-2.37,3.49-2.57,2-.14,1.63,1.22,1.81,2.3.7,4.21,0,8.31-.56,12.5-.52,3.6-.48,7.32-.88,11a47.15,47.15,0,0,1-.81,4.88c-.23,1.06-2.9,2.47-4,2.22-.8-.19-.34-.74-.31-1.14.28-3.3.57-6.59.86-9.89C187.27,180.61,186.76,178.45,186.89,176.33Z"/><path class="cls-12" d="M134,53A48.89,48.89,0,0,1,131.57,64c-.11.32-.29.79-.55.87a17.12,17.12,0,0,1-6.26.77c-.55,0-.54-.71-.49-1.18.7-6.75,1.65-13.42,5.16-19.42.46-.79,1.07-1.7,1.94-1.59s1.17,1.13,1.34,2A39.49,39.49,0,0,1,134,53Z"/><path class="cls-10" d="M29.91,175.11c0-7.09,6.52-13.91,13-13.83,1.66,0,2.25.72,2,2.35a3.5,3.5,0,0,0-.14.51c0,4-2.42,5.46-6,5.71-2.46.18-3.63,1.66-4.22,3.88-.53,2-1.19,4-1.77,6-.14.49-.39,1-.88,1s-.78-.46-.92-1C30.54,178.16,29.7,176.66,29.91,175.11Z"/><path class="cls-13" d="M109,236c-1.46-1.52-1.39-3.35-1.76-5a64.22,64.22,0,0,1-1.81-11.24,5.24,5.24,0,0,1,0-.53c0-.8-.27-1.92.75-2.13s1.37.91,1.56,1.78c1.18,5.37,1.05,10.88,1.53,16.32C109.3,235.37,109.19,235.54,109,236Z"/><path class="cls-13" d="M167.53,226.94c0-3.48,0-6.94,0-10.41a19.48,19.48,0,0,1,.11-2.31,1.6,1.6,0,0,1,1.83-1.34c1.09,0,.56,1,.53,1.49a108.59,108.59,0,0,1-1.79,11.94A.64.64,0,0,1,167.53,226.94Z"/><path class="cls-14" d="M153,187.37c.54.55.31,1.24.31,1.87,0,3.62,0,7.25,0,10.87,0,.77-.16,1.64,1.06,1.58-1.44.87-1.43-.13-1.42-1.11Q152.94,194,153,187.37Z"/><path class="cls-15" d="M150.39,197.82V183c0,.75.51,1.62.52,2.42,0,3.57-.07,7.13-.09,10.7C150.82,196.69,150.39,197.31,150.39,197.82Z"/><path class="cls-16" d="M62.47,209.54c.47.42.33,1,.33,1.49q0,6.45,0,12.9c-.46-.42-.34-1-.34-1.49Q62.45,216,62.47,209.54Z"/><path class="cls-16" d="M68.39,222.77V212.4c1,1,.37,2.17.32,3.24C68.61,218,69.39,220.42,68.39,222.77Z"/><path class="cls-15" d="M108.17,206c1.59,0,3.2-.08,4.78,0s2.37-.32,2.07-2a4.49,4.49,0,0,1,0-.88c.58.73.23,1.6.33,2.4,0,.37-.08.79-.53.77C112.61,206.18,110.35,206.74,108.17,206Z"/><path class="cls-14" d="M177.28,178.4c.66,3,.2,6,.3,8.94C176.94,184.38,177.33,181.38,177.28,178.4Z"/><path class="cls-14" d="M162.91,189.45c-.63-2.45-.21-5-.3-7.43C163.26,184.48,162.84,187,162.91,189.45Z"/><path class="cls-15" d="M194,182.36q0,3.76,0,7.52A16.5,16.5,0,0,1,194,182.36Z"/><path class="cls-15" d="M101,172.38l-7.21-.06A15,15,0,0,1,101,172.38Z"/><path class="cls-14" d="M186.89,176.33c-.13,2.13.38,4.28-.31,6.38C186.64,180.58,186.24,178.43,186.89,176.33Z"/><path class="cls-15" d="M165.49,179.89c.62,2,.21,4.08.29,6.13C165.17,184,165.5,181.94,165.49,179.89Z"/><path class="cls-17" d="M194.39,161.28a5.74,5.74,0,0,1,0,5.67Z"/><path class="cls-15" d="M165.85,188.12c.65,1.86.18,3.78.31,5.67C165.49,191.92,165.89,190,165.85,188.12Z"/><path class="cls-15" d="M140.4,200.93c.37,2.63,2.42,1.65,3.93,1.82a4.48,4.48,0,0,1-3.2.3C139.79,202.88,140.66,201.64,140.4,200.93Z"/><path class="cls-18" d="M152.91,102.68c.1,4.17-3.71,8-7.7,7.4-2.4-.35-4.28-2-5.84-3.79a3.26,3.26,0,0,0-2.54-1.24c-3.48-.2-7,0-10.34-1.39-.62-.27-.84,0-1.06.5-.31.64-.61,1.28-.95,1.9a4.65,4.65,0,0,1-5.32,2.61,26.06,26.06,0,0,1-3.91-1,3.71,3.71,0,0,1-2.2-5.69c.64-1.13,1.36-2.22,2.1-3.29a5.62,5.62,0,0,1,7.53-1.82,2.68,2.68,0,0,1,1.56,1.62c.29,1.34,1.23,1.64,2.33,2A33.78,33.78,0,0,0,138,101.91a4.67,4.67,0,0,0,3.38-1.76c2.54-2.69,5.54-3.21,8.94-2C152.66,98.94,152.83,99.22,152.91,102.68Zm-2.75.36c-.07-.84.23-1.87-.92-2.25a7.3,7.3,0,0,0-3.47-.58c-1.76.29-3.42,1-4,2.8s1.18,2.17,2.1,3.08a3.45,3.45,0,0,0,4.38.6A3.35,3.35,0,0,0,150.16,103Zm-30.69,2.86a3.07,3.07,0,0,0,3.28-2c.47-1.06-.21-3.89-1-4.5-.29-.22-.61-.42-1-.22-1.29.72-2.88.73-4.07,1.66-.88.69-1.9,1.39-1.63,2.72s1.34,1.68,2.51,1.87C118.21,105.58,118.84,105.75,119.47,105.89Z"/><path class="cls-18" d="M144.18,81.83a25.37,25.37,0,0,0,13.14-1.14c.75-.24,1.48-.36,1.78.51a1.54,1.54,0,0,1-.78,2,21.49,21.49,0,0,1-7.42,2.29,22.55,22.55,0,0,1-8.12-.37,7.86,7.86,0,0,1-1.52-.48,1.27,1.27,0,0,1-.87-1.23c0-.64.51-.92,1-1.12A5.94,5.94,0,0,1,144.18,81.83Z"/><path class="cls-18" d="M109.72,84.89c-.95,0-1.89,0-2.84,0s-1.75,0-1.87-1.15.7-1.66,1.74-1.76a26.1,26.1,0,0,1,4.07-.24,32,32,0,0,0,5.49-.13c1-.1,1.83,0,1.93,1.25s-.77,1.41-1.62,1.44C114.33,84.41,112,84.91,109.72,84.89Z"/><path class="cls-19" d="M95.58,89.28a9.25,9.25,0,0,0,2.82-.14c.62-.1,1.37-.34,1.66.52a1.75,1.75,0,0,1-.63,1.9c-1,.91-5.62.94-6.63,0-.41-.38-1-1-.9-1.41.1-.67.92-.82,1.57-.87S94.87,89.28,95.58,89.28Z"/><path class="cls-18" d="M166.42,92.37c-.95,0-1.9-.1-2.85-.12-.51,0-1-.06-1.09-.66a1,1,0,0,1,.68-1.12,22.21,22.21,0,0,1,7-.78c.61,0,.71.56.7,1.06a1.37,1.37,0,0,1-1.27,1.46C168.56,92.34,167.48,92.32,166.42,92.37Z"/><path class="cls-19" d="M110.72,89.74A2.68,2.68,0,0,1,113.6,92c0,1.06-1.44,2-3,2s-2-1.14-2.23-2.26C108.1,90.84,109.44,89.77,110.72,89.74Z"/><path class="cls-18" d="M151.53,92.2a2.59,2.59,0,0,1,2.61,2.12c0,1-1.48,2.26-2.77,2.24s-2.29-.6-2.38-2A2.27,2.27,0,0,1,151.53,92.2Z"/><path class="cls-19" d="M163.77,95.23c2.15-1,4.25-.05,6.33-.09,1.06,0,.85,1.1.47,1.78a1.92,1.92,0,0,1-2.12,1A7.43,7.43,0,0,1,163.77,95.23Z"/><path class="cls-19" d="M94.41,96.92c-.39-.07-.85-.13-1.3-.26s-.8-.18-.74-.62a1.17,1.17,0,0,1,.56-.84,43.21,43.21,0,0,1,4.64-1.11c.69-.11.91.62,1.07,1.2s-.25,1-.83,1.09C96.72,96.57,95.61,96.73,94.41,96.92Z"/><path class="cls-7" d="M150.16,103a3.35,3.35,0,0,1-1.95,3.65,3.45,3.45,0,0,1-4.38-.6c-.92-.91-2.7-1.38-2.1-3.08s2.28-2.51,4-2.8a7.3,7.3,0,0,1,3.47.58C150.39,101.17,150.09,102.19,150.16,103Z"/><path class="cls-7" d="M119.47,105.89c-.63-.14-1.26-.31-1.89-.42-1.17-.19-2.24-.56-2.51-1.87s.74-2,1.63-2.72c1.19-.93,2.78-.95,4.07-1.66.37-.2.68,0,1,.22.8.62,1.48,3.44,1,4.5A3.07,3.07,0,0,1,119.47,105.89Z"/></g><g class="cls-20"><path class="cls-5" d="M202.35,160.22c-.32,3.42-.77,6.83-.92,10.26-.14,3.19-1.36,6-2.28,9-.77,2.47-1.63,4.92-2.34,7.41a5.57,5.57,0,0,1-4,4.16,14.49,14.49,0,0,0-7.46,4.64c-3.23,3.84-7.64,6.27-11.79,9-1.55,1-2.55,1.85-1.73,4.13.62,1.72-.21,3.83-.51,5.76a88.35,88.35,0,0,1-4.56,16.79c-.73,2-.68,2,1.44,2.69,1.1.35,2.2.69,3.27,1.12a1.59,1.59,0,0,1,1,2.12c-.29.91-1.17.66-1.79.5-2.65-.67-5.55-.5-7.89-2.25a.53.53,0,0,0-.16-.06c-2.6-.83-2.59-.83-2.63-3.67a126.4,126.4,0,0,1,1-14.46c.15-1.54,0-3.11.08-4.67,0-1-.38-1.09-1.26-.84-2.6.75-4.94,2.21-7.67,2.62-3.92.59-7.83,1.42-11.82,1.21-3.58-.19-7.12.37-10.7.44a56.54,56.54,0,0,1-15.87-1.94c-2-.54-2.18-.31-2.25,1.71-.18,5,.13,10,.37,15,.15,3.18-1.24,4.52-4.45,4.5-1.85,0-3.69,0-5.54,0a3.16,3.16,0,0,1-2.82-1.69,2.15,2.15,0,0,1-.16-2.3c.51-.83,1.32-.43,2-.23a20.1,20.1,0,0,0,4.68.58,22.53,22.53,0,0,0-2.07-5.51c-1.83-4.07-2.21-8.43-2.72-12.77a4.11,4.11,0,0,0-3.08-3.8A95.65,95.65,0,0,0,80,204.72a10.12,10.12,0,0,1-6.1-3.34c-.32-.36-.62-1-1.2-.75s-.29.94-.29,1.43c-.09,5.3.76,10.61.25,15.89-.54,5.52.16,11.06-.57,16.58-.27,2-1.07,3.28-3,3.87a11.54,11.54,0,0,1-4.61.43,4.06,4.06,0,0,1-3.88-3.91,52.91,52.91,0,0,1,0-11.89,20.2,20.2,0,0,0-.13-6.38c-.31-1.47.15-2.86.17-4.29A144.45,144.45,0,0,0,59,187c-.72-4.58-.61-9.3-2.15-13.76-.19-.54-.21-1.13-1-1.49-.85,1.37-.46,2.88-.47,4.3a6.22,6.22,0,0,1-2,4.63,3.29,3.29,0,0,1-5.5-.81c-1.6-2.95-3.11-5.92-2.91-9.44.07-1.2-.49-1.62-1.74-1.23a5.29,5.29,0,0,0-3.81,4.82,27.64,27.64,0,0,0,0,3.29,3.77,3.77,0,0,1-2.6,3.87c-4,1.75-8.33-1-8.8-5.64a12.08,12.08,0,0,1,.28-4.11c.92-3.81,1.78-7.6,4.42-10.72,3.41-4,7.88-5.87,13-6.33a1.79,1.79,0,0,0,1.9-1.5,53.53,53.53,0,0,0,1.8-10.35c.42-4.73,1.94-9.21,3.18-13.76C55.47,118.6,59.78,109,64.45,99.54A47.14,47.14,0,0,1,77.21,84.06C84,78.44,91.8,74.65,100,71.51c1-.37,1.27-.83,1-2a110.48,110.48,0,0,1-3.51-19.49c-.5-7.82-.5-15.68-.51-23.52a32.09,32.09,0,0,1,2.61-12.06,5.09,5.09,0,0,1,2.36-2.65c1.32-.72,2.28-.58,3.66.45,3.35,2.51,3.88,6.17,4.51,9.72,1.07,6.11,1.77,12.28,2.66,18.63a17,17,0,0,0,1.92-4.23,11.77,11.77,0,0,1,2.85-4.27,2.21,2.21,0,0,1,2.81-.38c3,1.47,3.53,4.24,3.65,7.12.11,2.59.68,5.15.32,7.75.87.14.94-.5,1.18-.9A19,19,0,0,1,129,41.09c1.78-1.59,3.76-1.38,4.64.79a24,24,0,0,1,1.92,12.81,74.69,74.69,0,0,1-1.81,9.48c-.36,1.24.63,1.33,1.4,1.42a40,40,0,0,0,5.68.32c8.19-.25,15.16,3,21.81,7.21,8.35,5.25,16.51,10.84,23.7,17.6,3.13,2.94,6.82,5.57,8.57,9.8.46,1.11,1.26.87,2.16.53,3.66-1.36,7.2-3.14,11.13-3.67,3.06-.41,6.11-.58,8.52,2a6.26,6.26,0,0,1,.6,7.49c-3.57,5.11-8.54,8.32-14.31,10.38-3.69,1.32-3.84,1.33-2.29,4.81,1.91,4.27,2.25,8.77,2.51,13.31a2.67,2.67,0,0,0,1.12,2.21c3,2.09,4.82,5.07,6.5,8.17,2.42,4.44,5.26,8.69,6.44,13.71a21.25,21.25,0,0,1,.25,9.08c-.42,2.12-2.12,2.64-3.86,3.19s-3.27.34-4.34-1.14c-1.34-1.87-2.51-3.86-3.74-5.8l-2.95-4.66Zm-18,.4v8.25c0,1.41-.07,2.82-.09,4.24-.62,2-.25,4.12-.31,6.18-.28,3.19-.57,6.38-.84,9.58,0,.39-.48.93.3,1.11,1,.24,3.62-1.12,3.85-2.15a45.66,45.66,0,0,0,.79-4.72c.39-3.54.35-7.14.85-10.63.58-4.05,1.22-8,.54-12.11-.18-1,.17-2.36-1.73-2.23C185,158.32,184.39,158.62,184.39,160.61Zm6.82,25.62c.15.61.31,1,1.16.79a2.47,2.47,0,0,0,1.92-2,107.44,107.44,0,0,0,2.77-11.69c.68-3.53.53-7.18,1.66-10.67a9.7,9.7,0,0,0,0-4.12c-.33-2.48-1.15-2.94-3.16-2.21a12.67,12.67,0,0,1-2.48.39c-1.11.12-1.72.68-1.72,1.75V164c0,5-.28,9.95-.64,14.92A16.08,16.08,0,0,0,191.21,186.23Zm-15.95-2.46c0,2.53.05,5.07,0,7.6,0,1.15.38,1.47,1.43,1s2-.9,3-1.27c.72-.27.64-.64.76-1.47a126.23,126.23,0,0,0,.91-18v-6.18c0-1,.56-2,.39-2.93-.67-3.77.39-3.19-3.17-2.52-.67.13-1.23.36-1.91.48-1.74.3-2.35,1.33-2.23,3.06.26,3.85.57,7.7.47,11.56C175,178,174.64,180.9,175.27,183.77ZM114.68,199a7.09,7.09,0,0,0-.08-2.06c-1.64-4.72-1.42-9.74-2.36-14.57-.76-3.93-1.31-7.9-2-11.85-.09-.51,0-1.22-.82-1.3-1-.09-2-.3-3.05-.33-2.36-.07-2.75.39-2.81,2.79-.21,8.16,1.21,16.11,3,24,.46,2,.33,4.21,1.45,6.09,2.12.76,4.3.22,6.46.3.44,0,.56-.39.52-.74C114.9,200.59,115.24,199.75,114.68,199Zm49.15-16.54q0,1,.07,2c0,1.83-.35,3.69.3,5.49a14.27,14.27,0,0,1-.29,3.94c-.27.94.14,1.43,1.17,1.25,2.09-.37,4.18-.72,6.26-1.13.62-.12,1.34-.44,1.41-1.12.19-1.71.62-3.52-.08-5.12a7.57,7.57,0,0,1-.39-3.86c.07-.86.13-1.72.23-2.57.38-3.17-.55-6.29-.36-9.46s-.69-6.14-1.25-9.18c-.18-1-.6-1.27-1.5-1.11-1.69.3-3.37.7-5.08.86-1.9.17-2.16,1.37-1.81,2.76.93,3.72.63,7.53,1,11.29C163.57,178.54,163.24,180.54,163.83,182.49Zm-3.07-3.87c0-4.49-1-8.88-1.43-13.32-.1-.93-.68-1.22-1.54-1.26a29.3,29.3,0,0,0-6,.48c-1.2.2-1.56.72-1.49,1.93.33,5.78,1.38,11.52,1.1,17.34q0,6.4-.05,12.79c0,1,0,1.92,1.38,1.08,2.24-.36,4.47-.77,6.73-1.05a2,2,0,0,0,2-2.25,83.07,83.07,0,0,0-.4-8.55C161,183.41,161.39,181,160.76,178.62Zm-59.63-9.34a14.49,14.49,0,0,0-7-.06c-3.48.09-3.54.1-3,3.52q1.15,7.61,2.47,15.2c.73,4.21,1.58,8.41,2.31,12.62a1.68,1.68,0,0,0,2,1.6c2.13-.05,4.27-.07,6.4,0,1.24,0,1.36-.36,1.18-1.51-1-6.28-2.86-12.41-3.41-18.76-.24-2.72-1.37-5.27-1.2-8C101,172.34,101.58,170.84,101.13,169.28Zm48.2,24.64a2.34,2.34,0,0,0,.32-1.65c0-3.46,0-6.91,0-10.37,0-.78.22-1.62-.3-2.35.15-4.28-.94-8.43-1.33-12.66-.11-1.19-.69-1.62-1.8-1.53a62.77,62.77,0,0,0-7.31,1.1,1.61,1.61,0,0,0-1.43,1.67,29.34,29.34,0,0,0,.23,5.34c.78,5.1,2.13,10.13,1.91,15.34-.12,2.7-.46,5.39-.35,8.1.25.69-.59,1.89.7,2.06a4.34,4.34,0,0,0,3.1-.29c.52,0,1,0,1.56,0C148.87,198.57,149.22,198.22,149.33,193.92ZM63.77,205.27q0,6.25,0,12.5c0,.5-.11,1,.33,1.45a76.56,76.56,0,0,1-1.27,11.9c-.27,1.75.45,3,2,3.24,2.87.45,3.09.33,3.5-2.09a80.72,80.72,0,0,0,1-14.18c.76-2.27.21-4.6.31-6.9,0-1,.37-2.15-.31-3.14-.51-4.41.11-8.82,0-13.23a7.78,7.78,0,0,0-.06-1.55c-1.37-5.86-1.83-11.87-3.07-17.74-.69-3.24-.95-6.58-2.5-9.61-.65-1.27-1.32-2.44-2.74-2.92-1.21-.41-2.5-.82-3.51.33a3.19,3.19,0,0,0,0,4.53c3.47,3.14,4.21,7.21,4.3,11.57a69.85,69.85,0,0,0,.41,8.42C62.93,193.63,63,199.49,63.77,205.27Zm66.39-90.85c.27-1.43,1.07-1.73,2.38-1.71,4,.06,8,.41,11.91-.21s7.81-1.39,11.76-1.74a148.79,148.79,0,0,0,34.15-7.31c.82-.28.91-.52.7-1.33a12.43,12.43,0,0,0-4.2-6.17,198.76,198.76,0,0,0-19.18-15c-4.28-2.94-8.62-5.73-13.13-8.29A10.71,10.71,0,0,0,151,71.29c-7.89-1.27-15.77-2.84-23.83-2.08-2.17.2-4.66-.28-6.45.81a22.67,22.67,0,0,1-9.83,2.91c-11.29,1.14-20.78,6.44-29.79,12.74-5.3,3.71-9.07,8.94-12.42,14.46-5,8.21-9.72,16.52-12,26C55.08,132.6,53,139,52.84,145.84a38.58,38.58,0,0,1-2.57,12.63,25.72,25.72,0,0,0-1.93,7.3c-.22,3-.6,6.09.54,9.05.32.84.92,1.83,1.61,1.88s1.15-1.11,1.51-1.88a5,5,0,0,0,.33-1.85c.21-3,.34-6.1.69-9.13a9.66,9.66,0,0,1,4.66-7.67c.39-.23,1-.84,1.22,0,.29,1.23,1.32,1.47,2.15,1.72a10.16,10.16,0,0,1,5.84,4.84,3.3,3.3,0,0,0,3,1.61c10.43.36,20.85.85,31.28,1.07,6.46.13,12.92-.08,19.38-.23a133.16,133.16,0,0,0,17-1.7c6.31-1,12.51-2.57,18.88-3.21,13.55-1.37,26.78-4.36,40-7.66a2.31,2.31,0,0,0,1.79-1.82c1.11-3.63.69-7.32.65-11a64.92,64.92,0,0,0-2.92-19c-.19-.59-.19-1.3-1.29-1.15-4.05.54-8.12,1-12.19,1.35s-8.36,1-12.57.71c-1.84-.1-3.67-.34-5.5-.55-6.41-.74-12.82-1.45-19.22-2.26C139.92,118.19,135.26,115.56,130.16,114.42Zm-30.7,91.33c2.71,2.44,6.14,2.58,9.17,3.51a92.1,92.1,0,0,0,12.17,2.38c3.68.61,7.39,1.41,11.14,1a123.89,123.89,0,0,0,25.49-5.82c7.29-2.43,14.39-5.12,20.61-9.76.61-.46,1.44-.75,1.39-1.94l-4.36,1.15c-9.3,2.47-18.85,3.43-28.33,4.83-4.45.66-9,.75-13.32,2.09a30.23,30.23,0,0,1-9.41,1c-7-.09-14,1.21-21.06.75A8.55,8.55,0,0,0,99.46,205.75Zm50.94-91a3.36,3.36,0,0,0,2.14.78c6.34.74,12.73.91,19.07,1.7,5.16.63,10.35-.11,15.52-.44a63.31,63.31,0,0,0,12.77-1.93,28.16,28.16,0,0,0,14.53-8.79c1.86-2.18,1.38-4-1.44-4.61a13.28,13.28,0,0,0-2.92-.16c-3,0-5.7,1.19-8.49,2.08-3.5,1.11-7.22,1.6-10.6,3-10.29,4.21-21.16,5.64-32,7.17ZM111.29,59.33A130.48,130.48,0,0,0,109,36c-.9-4.92-1.16-9.94-2.62-14.77-.34-1.13-1.43-2.1-1.28-3.08.18-1.18-.25-1.46-1.06-1.68-1.11-.3-1.63.45-1.84,1.35-.81,3.58-2,7.11-2.12,10.81a210.85,210.85,0,0,0,1.44,27.24c.43,4.23,1.36,8.4,2.06,12.6.18,1.09.64,1.6,1.88,1.23a28.23,28.23,0,0,1,4-.86,1.8,1.8,0,0,0,1.74-2.11C111.26,64.27,111.29,61.8,111.29,59.33Zm24.86,119.13c.13-4-1.18-7.15-1.07-10.44,0-.74-.6-1-1.22-.89-3.11.47-6.29.46-9.35,1.28-.68.18-1.17.45-1.11,1.27.24,3.5.16,7.06.74,10.5,1.14,6.73,1.85,13.53,3.23,20.22.19.93.6,1.17,1.4,1,2.09-.36,4.19-.7,6.27-1.13.63-.13,1.45-.24,1.44-1.21-.05-3.92.74-7.83.27-11.74C136.37,184.14,136.68,180.91,136.14,178.45Zm-52.95-9.22c-.72,0-1.12,0-1.53,0-1.85-.06-2.4.41-1.92,2.22a33.16,33.16,0,0,1,.54,6.31,147.57,147.57,0,0,0,3.55,21.36A1.88,1.88,0,0,0,86,200.87a20.46,20.46,0,0,1,6.15.63c1.7.47,1.63-.48,1.34-1.45a50.44,50.44,0,0,1-1.27-8.16c-.94-7.18-2.95-14.15-3.87-21.33-.08-.59-.37-1-1-1C85.83,169.66,84.39,169,83.19,169.23Zm29.35,1.36c.25,1.82.51,3.64.74,5.46q1,7.93,2,15.87c.37,3,1.71,5.74,1.5,8.8-.07,1.06.79,1.16,1.59,1.06a30,30,0,0,1,4.13-.33c2.68,0,3.07-.38,2.5-3-2-9.28-2.7-18.72-3.72-28.13-.15-1.35-.7-1.91-2-1.69a24.73,24.73,0,0,1-5,.27C113,168.83,112.29,169.14,112.54,170.6Zm-35.73,1.64a6.39,6.39,0,0,0,.24-1.79c-.08-.42.05-1.08-.71-1.2-2.15-.32-4.28-.7-6.43-1-.85-.14-1.2,0-1,1.09a71,71,0,0,1,1.24,8c.31,4.64,1.52,9.13,2.32,13.69.61,3.45,1.63,6.75,4.91,8.71.85.51,1.81,1.44,2.79.82s.66-1.86.58-2.9c-.4-4.81-1.7-9.47-2.3-14.25C78,179.55,77.34,175.77,76.82,172.24Zm37.9-114.1a46.4,46.4,0,0,0-.08,5.74c.31,4.2.28,4.2,4.3,3.11a2,2,0,0,0,1.63-1.92c.55-5.84,1.41-11.67,1.43-17.54,0-3.72.32-7.5-1.33-11-.27-.58-.44-1.31-1.14-1.41a1.94,1.94,0,0,0-1.84,1.07,9.29,9.29,0,0,0-1.29,3.18A72.33,72.33,0,0,0,114.72,58.14Zm89.44,83.1c-.86,3.36-.63,6.59-1,9.77a8.14,8.14,0,0,0,1.19,4.89c2.06,3.92,5,7.28,6.94,11.29.38.8,1.1,1.66,2.19,1.22a2.73,2.73,0,0,0,1.79-2.88,37.27,37.27,0,0,0-.8-5.63c-1.32-5.39-4.32-10-7.3-14.55C206.29,143.92,205.19,142.6,204.16,141.24ZM133,53.61a38.25,38.25,0,0,0-1.23-7.3c-.16-.8-.54-1.8-1.29-1.89s-1.43.77-1.88,1.54c-3.4,5.81-4.32,12.28-5,18.81,0,.46-.05,1.12.48,1.15a16.59,16.59,0,0,0,6.07-.75c.24-.08.42-.53.53-.84A47.36,47.36,0,0,0,133,53.61ZM32.23,171.93c-.2,1.5.62,2.95,1,4.49.13.48.42.94.89.93s.71-.5.85-1c.57-1.93,1.2-3.83,1.72-5.77.57-2.16,1.7-3.59,4.09-3.76,3.44-.24,5.79-1.66,5.78-5.53a3.39,3.39,0,0,1,.14-.5c.26-1.58-.32-2.25-1.92-2.28C38.54,158.45,32.24,165.06,32.23,171.93Zm76.64,59c.15-.43.25-.59.24-.74-.46-5.27-.34-10.6-1.48-15.81-.18-.84-.4-1.94-1.52-1.72s-.69,1.29-.73,2.06a5.07,5.07,0,0,0,0,.52,62.2,62.2,0,0,0,1.75,10.89C107.53,227.65,107.46,229.42,108.87,230.89Zm56.66-8.77a.62.62,0,0,0,.65-.61,105.18,105.18,0,0,0,1.74-11.56c0-.48.55-1.43-.51-1.44a1.55,1.55,0,0,0-1.77,1.3,18.87,18.87,0,0,0-.1,2.24C165.52,215.4,165.53,218.75,165.53,222.12Z"/><path class="cls-6" d="M130.16,114.42c5.1,1.14,9.76,3.77,15,4.43,6.4.81,12.81,1.52,19.22,2.26,1.83.21,3.66.44,5.5.55,4.21.24,8.39-.37,12.57-.71s8.14-.82,12.19-1.35c1.1-.15,1.1.56,1.29,1.15a64.92,64.92,0,0,1,2.92,19c0,3.68.46,7.36-.65,11a2.31,2.31,0,0,1-1.79,1.82c-13.18,3.29-26.41,6.29-40,7.66-6.36.64-12.57,2.25-18.88,3.21a133.16,133.16,0,0,1-17,1.7c-6.46.15-12.92.36-19.38.23-10.43-.22-20.85-.71-31.28-1.07a3.3,3.3,0,0,1-3-1.61A10.16,10.16,0,0,0,61,157.89c-.83-.26-1.86-.49-2.15-1.72-.2-.84-.83-.24-1.22,0A9.66,9.66,0,0,0,53,163.83c-.35,3-.48,6.08-.69,9.13a5,5,0,0,1-.33,1.85c-.36.77-.68,1.94-1.51,1.88s-1.28-1-1.61-1.88c-1.14-3-.76-6-.54-9.05a25.72,25.72,0,0,1,1.93-7.3,38.58,38.58,0,0,0,2.57-12.63c.21-6.82,2.25-13.24,3.85-19.77,2.31-9.43,7.06-17.74,12-26,3.35-5.52,7.12-10.75,12.42-14.46,9-6.3,18.49-11.59,29.79-12.74A22.67,22.67,0,0,0,120.75,70c1.79-1.09,4.28-.61,6.45-.81,8.06-.75,15.94.81,23.83,2.08a10.71,10.71,0,0,1,3.51,1.39c4.51,2.55,8.85,5.35,13.13,8.29a198.76,198.76,0,0,1,19.18,15,12.43,12.43,0,0,1,4.2,6.17c.21.81.12,1.05-.7,1.33a148.79,148.79,0,0,1-34.15,7.31c-3.94.35-7.85,1.12-11.76,1.74s-7.93.27-11.91.21C131.23,112.69,130.42,113,130.16,114.42Zm21.21-12.65c-.08-3.35-.24-3.62-2.5-4.41-3.3-1.15-6.2-.65-8.66,2a4.52,4.52,0,0,1-3.27,1.71,32.72,32.72,0,0,1-11.06-1.39c-1.07-.37-2-.66-2.25-2a2.59,2.59,0,0,0-1.51-1.57,5.44,5.44,0,0,0-7.29,1.76c-.72,1-1.42,2.09-2,3.19a3.59,3.59,0,0,0,2.13,5.51,25.24,25.24,0,0,0,3.79,1,4.5,4.5,0,0,0,5.15-2.53c.33-.6.62-1.23.92-1.84.21-.44.42-.74,1-.48,3.21,1.39,6.64,1.16,10,1.35a3.16,3.16,0,0,1,2.46,1.2c1.51,1.71,3.32,3.33,5.65,3.67C147.77,109.49,151.46,105.8,151.37,101.77Zm-8.46-20.19a5.75,5.75,0,0,0-2.7.41c-.47.19-.95.47-1,1.08a1.23,1.23,0,0,0,.84,1.19,7.62,7.62,0,0,0,1.47.47,21.84,21.84,0,0,0,7.86.36,20.82,20.82,0,0,0,7.18-2.21,1.49,1.49,0,0,0,.76-1.91c-.3-.84-1-.73-1.73-.5A24.57,24.57,0,0,1,142.91,81.58Zm-33.37,3c2.25,0,4.46-.47,6.7-.57.82,0,1.67-.28,1.57-1.4s-.93-1.3-1.87-1.21a31,31,0,0,1-5.32.13,25.28,25.28,0,0,0-3.95.23c-1,.09-1.8.49-1.68,1.7s1,1.1,1.81,1.11S108.62,84.54,109.54,84.54Zm-13.7,4.25c-.68,0-1.37,0-2.05,0s-1.42.2-1.52.84c-.06.41.48,1,.88,1.37,1,.9,5.45.87,6.42,0a1.7,1.7,0,0,0,.61-1.84c-.28-.83-1-.61-1.61-.51A9,9,0,0,1,95.84,88.79Zm68.61,3c1,0,2.08,0,3.1-.16a1.33,1.33,0,0,0,1.23-1.41c0-.48-.09-1-.68-1a21.51,21.51,0,0,0-6.81.75.93.93,0,0,0-.66,1.09c.11.58.56.63,1.06.64C162.61,91.68,163.53,91.74,164.45,91.78Zm-53.94-2.54c-1.24,0-2.54,1.07-2.32,2,.26,1.09.62,2.24,2.16,2.19s2.95-1,2.94-2A2.6,2.6,0,0,0,110.51,89.24ZM150,91.62a2.2,2.2,0,0,0-2.45,2.25c.09,1.4,1,2,2.3,2s2.7-1.19,2.68-2.17A2.51,2.51,0,0,0,150,91.62Zm11.85,2.94a7.19,7.19,0,0,0,4.53,2.57,1.86,1.86,0,0,0,2.05-.93c.37-.66.57-1.74-.46-1.73C166,94.51,164,93.61,161.89,94.56ZM94.71,96.19c1.16-.18,2.23-.33,3.3-.52.56-.1,1-.36.8-1.05s-.37-1.27-1-1.16a41.86,41.86,0,0,0-4.49,1.07,1.13,1.13,0,0,0-.54.82c-.06.43.4.51.71.6S94.33,96.12,94.71,96.19Z"/><path class="cls-7" d="M99.46,205.75a8.55,8.55,0,0,1,3.47-.77c7,.46,14-.84,21.06-.75a30.23,30.23,0,0,0,9.41-1c4.35-1.35,8.88-1.44,13.32-2.09,9.48-1.4,19-2.36,28.33-4.83l4.36-1.15c.05,1.19-.77,1.48-1.39,1.94-6.22,4.64-13.31,7.33-20.61,9.76a123.89,123.89,0,0,1-25.49,5.82c-3.74.42-7.45-.39-11.14-1a92.1,92.1,0,0,1-12.17-2.38C105.6,208.33,102.17,208.19,99.46,205.75Z"/><path class="cls-8" d="M150.4,114.75l8.55-1.24c10.86-1.53,21.73-3,32-7.17,3.37-1.38,7.1-1.87,10.6-3,2.79-.89,5.5-2,8.49-2.08a13.28,13.28,0,0,1,2.92.16c2.82.6,3.3,2.43,1.44,4.61a28.16,28.16,0,0,1-14.53,8.79,63.31,63.31,0,0,1-12.77,1.93c-5.17.33-10.36,1.08-15.52.44-6.34-.78-12.73-1-19.07-1.7A3.36,3.36,0,0,1,150.4,114.75Z"/><path class="cls-9" d="M111.29,59.33c0,2.47,0,4.95,0,7.42a1.8,1.8,0,0,1-1.74,2.11,28.23,28.23,0,0,0-4,.86c-1.24.37-1.7-.13-1.88-1.23-.7-4.2-1.64-8.37-2.06-12.6a210.85,210.85,0,0,1-1.44-27.24c.11-3.71,1.3-7.23,2.12-10.81.2-.9.72-1.65,1.84-1.35.81.22,1.24.5,1.06,1.68-.15,1,.94,2,1.28,3.08,1.45,4.83,1.72,9.85,2.62,14.77A130.48,130.48,0,0,1,111.29,59.33Z"/><path class="cls-10" d="M69.39,218.08a83.69,83.69,0,0,1-1.08,14.18c-.41,2.42-.66,2.54-3.52,2.09-1.5-.23-2.23-1.5-2-3.24a76.56,76.56,0,0,0,1.26-11.9q0-6.25,0-12.5c0-.5.13-1-.32-1.45-.78-5.79-.84-11.64-1.67-17.43a69.85,69.85,0,0,1-.41-8.42c-.09-4.37-.83-8.43-4.3-11.57a3.19,3.19,0,0,1,0-4.53c1-1.15,2.29-.74,3.51-.33,1.43.49,2.09,1.65,2.74,2.92,1.55,3,1.81,6.37,2.5,9.61,1.25,5.87,1.71,11.89,3.07,17.74a7.77,7.77,0,0,1,.11,1.55c.11,4.41-.95,8.82.05,13.23Z"/><path class="cls-11" d="M136.14,178.45c.53,2.45.22,5.69.6,8.89.47,3.91-.32,7.82-.27,11.74,0,1-.81,1.08-1.44,1.21-2.08.43-4.18.77-6.27,1.13-.8.14-1.21-.1-1.4-1-1.39-6.69-2.1-13.49-3.23-20.22-.58-3.44-.51-7-.74-10.5-.06-.82.44-1.09,1.11-1.27,3.06-.82,6.24-.82,9.35-1.28.62-.09,1.24.15,1.22.89C135,171.3,136.27,174.43,136.14,178.45Z"/><path class="cls-11" d="M139.25,196.93c-.1-2.71.24-5.4.35-8.1.22-5.22-1.13-10.25-1.91-15.34a29.34,29.34,0,0,1-.23-5.34,1.61,1.61,0,0,1,1.43-1.67,62.77,62.77,0,0,1,7.31-1.1A1.47,1.47,0,0,1,148,166.9c.4,4.22,1.36,8.37,1.36,12.66v14.37c0,4.3-.5,4.65-4.75,4.76-.52,0-1.05,0-1.57,0C141.61,198.53,139.61,199.48,139.25,196.93Z"/><path class="cls-11" d="M101.13,169.28c.45,1.56-.17,3.06-.27,4.58-.17,2.77,1,5.32,1.2,8,.55,6.35,2.41,12.48,3.41,18.76.18,1.15.06,1.56-1.18,1.51-2.13-.08-4.27-.06-6.4,0a1.68,1.68,0,0,1-2-1.6c-.73-4.21-1.58-8.41-2.31-12.62q-1.31-7.59-2.47-15.2c-.51-3.42-.45-3.43,3-3.52Z"/><path class="cls-11" d="M151.42,183.8c.28-5.82-.77-11.56-1.1-17.34-.07-1.21.29-1.73,1.49-1.93a29.3,29.3,0,0,1,6-.48c.86,0,1.45.33,1.54,1.26.48,4.44,1.39,8.83,1.43,13.32.08,2.4-.32,4.82.29,7.19a83.07,83.07,0,0,1,.4,8.55,2,2,0,0,1-2,2.25c-2.25.28-4.48.69-6.73,1.05-1.19.05-1-.79-1-1.53,0-3.51,0-7,0-10.53C151.73,185,151.95,184.33,151.42,183.8Z"/><path class="cls-11" d="M83.19,169.23c1.2-.28,2.63.43,4.13.37.64,0,.93.37,1,1,.92,7.18,2.92,14.15,3.87,21.33a50.44,50.44,0,0,0,1.27,8.16c.29,1,.36,1.92-1.34,1.45a20.46,20.46,0,0,0-6.15-.63,1.88,1.88,0,0,1-2.14-1.74,147.57,147.57,0,0,1-3.55-21.36,33.16,33.16,0,0,0-.54-6.31c-.48-1.81.07-2.28,1.92-2.22C82.07,169.25,82.47,169.23,83.19,169.23Z"/><path class="cls-11" d="M163.9,184.52q0-1-.07-2c-.08-2,.32-4-.28-5.93-.4-3.76-.1-7.57-1-11.29-.35-1.39-.09-2.59,1.81-2.76,1.7-.15,3.39-.56,5.08-.86.9-.16,1.31.15,1.5,1.11.57,3,1.45,6,1.25,9.18s.73,6.29.36,9.46c-.1.85-.16,1.71-.23,2.57a7.57,7.57,0,0,0,.39,3.86c.69,1.6.26,3.41.08,5.12-.07.68-.79,1-1.41,1.12-2.08.41-4.17.76-6.26,1.13-1,.18-1.44-.31-1.17-1.25a14.27,14.27,0,0,0,.29-3.94C164.08,188.18,164.53,186.32,163.9,184.52Z"/><path class="cls-11" d="M112.54,170.6c-.26-1.45.43-1.77,1.76-1.73a24.73,24.73,0,0,0,5-.27c1.28-.22,1.83.34,2,1.69,1,9.4,1.74,18.85,3.72,28.13.57,2.65.18,3.06-2.5,3a30,30,0,0,0-4.13.33c-.79.1-1.66,0-1.59-1.06.21-3.06-1.13-5.85-1.5-8.8q-1-7.93-2-15.87C113.06,174.23,112.79,172.42,112.54,170.6Z"/><path class="cls-11" d="M108,201.81c-1.11-1.88-1-4.06-1.45-6.09-1.8-7.9-3.21-15.85-3-24,.06-2.4.45-2.86,2.81-2.79,1,0,2,.24,3.05.33.86.08.73.79.82,1.3.67,4,1.22,7.92,2,11.85.93,4.83.71,9.85,2.36,14.57a7.09,7.09,0,0,1,.08,2.06,4.35,4.35,0,0,0,0,.86c.29,1.65-.48,2.08-2,2S109.57,201.81,108,201.81Z"/><path class="cls-11" d="M76.82,172.24c.53,3.54,1.16,7.32,1.64,11.12.59,4.78,1.9,9.44,2.3,14.25.08,1,.38,2.29-.58,2.9s-1.94-.31-2.79-.82c-3.28-2-4.3-5.26-4.91-8.71-.81-4.56-2-9-2.32-13.69a71,71,0,0,0-1.24-8c-.19-1,.16-1.22,1-1.09,2.14.34,4.28.71,6.43,1,.77.12.63.77.71,1.2A6.39,6.39,0,0,1,76.82,172.24Z"/><path class="cls-11" d="M182.16,171.64a177.62,177.62,0,0,1-1.29,18,1.56,1.56,0,0,1-1.15,1.47c-1,.38-2,.84-3,1.27s-1.45.14-1.43-1c0-2.53,0-5.07,0-7.6-.1-2.89.35-5.79-.29-8.66.09-3.86-.19-7.71-.45-11.56-.12-1.73.54-2.75,2.28-3.06.67-.12,1.33-.36,2-.48,3.56-.68,2.7-1.25,3.36,2.52a16.12,16.12,0,0,1,0,2.93A13.92,13.92,0,0,0,182.16,171.64Z"/><path class="cls-12" d="M114.72,58.14a72.33,72.33,0,0,1,1.68-18.81,9.29,9.29,0,0,1,1.29-3.18,1.94,1.94,0,0,1,1.84-1.07c.7.1.87.83,1.14,1.41,1.65,3.53,1.34,7.32,1.33,11,0,5.88-.88,11.7-1.43,17.54A2,2,0,0,1,118.95,67c-4,1.09-4,1.09-4.3-3.11A46.4,46.4,0,0,1,114.72,58.14Z"/><path class="cls-7" d="M204.16,141.24c1,1.37,2.12,2.68,3.05,4.11,3,4.57,6,9.16,7.3,14.55a37.27,37.27,0,0,1,.8,5.63,2.73,2.73,0,0,1-1.79,2.88c-1.09.44-1.81-.42-2.19-1.22-1.91-4-4.88-7.37-6.94-11.29A8.14,8.14,0,0,1,203.2,151C203.54,147.83,203.31,144.59,204.16,141.24Z"/><path class="cls-11" d="M191.21,178.94l1.1-14.92a10.91,10.91,0,0,0,0-5.5c-.25-1.07.15-1.63,1.26-1.75a8.49,8.49,0,0,0,2-.39c2-.74,2.83-.27,3.16,2.21a9.7,9.7,0,0,1,0,4.12c-1.14,3.49-1,7.14-1.66,10.67a107.44,107.44,0,0,1-2.77,11.69,2.47,2.47,0,0,1-1.92,2c-.85.19-1-.18-1.16-.79Q191.21,182.59,191.21,178.94Z"/><path class="cls-11" d="M184.28,173.1q0-2.12.07-4.23a23.73,23.73,0,0,0,0-8.26c0-2,.58-2.29,3.38-2.49,1.9-.13,1.58,1.19,1.75,2.23.68,4.08,0,8.05-.54,12.11-.5,3.49-.46,7.09-.85,10.63a45.67,45.67,0,0,1-.79,4.72c-.22,1-2.81,2.39-3.85,2.15-.78-.18-.33-.72-.3-1.11.27-3.19.55-6.39.83-9.58C184.65,177.25,184.15,175.16,184.28,173.1Z"/><path class="cls-12" d="M133,53.61a47.36,47.36,0,0,1-2.34,10.72c-.11.31-.28.77-.53.84a16.59,16.59,0,0,1-6.07.75c-.53,0-.52-.69-.48-1.15.68-6.53,1.6-13,5-18.81.45-.76,1-1.65,1.88-1.54s1.13,1.09,1.29,1.89A38.25,38.25,0,0,1,133,53.61Z"/><path class="cls-10" d="M32.23,171.93c0-6.87,6.31-13.48,12.59-13.4,1.61,0,2.18.69,1.92,2.28a3.39,3.39,0,0,0-.14.5c0,3.87-2.34,5.29-5.78,5.53-2.39.17-3.52,1.61-4.09,3.76-.51,1.94-1.15,3.85-1.72,5.77-.14.47-.38,1-.85,1s-.75-.45-.89-.93C32.84,174.88,32,173.42,32.23,171.93Z"/><path class="cls-13" d="M108.87,230.89c-1.41-1.48-1.34-3.24-1.7-4.8a62.2,62.2,0,0,1-1.75-10.89,5.07,5.07,0,0,1,0-.52c0-.77-.26-1.86.73-2.06s1.33.88,1.52,1.72c1.14,5.21,1,10.53,1.48,15.81C109.13,230.3,109,230.46,108.87,230.89Z"/><path class="cls-13" d="M165.53,222.12c0-3.37,0-6.73,0-10.08a18.87,18.87,0,0,1,.1-2.24,1.55,1.55,0,0,1,1.77-1.3c1.06,0,.55,1,.51,1.44a105.18,105.18,0,0,1-1.74,11.56A.62.62,0,0,1,165.53,222.12Z"/><path class="cls-14" d="M151.42,183.8c.52.53.3,1.2.3,1.81,0,3.51,0,7,0,10.53,0,.74-.16,1.59,1,1.53-1.4.84-1.38-.13-1.38-1.08Q151.4,190.2,151.42,183.8Z"/><path class="cls-15" d="M149.39,193.92V179.56c0,.73.26,1.57.27,2.35,0,3.45,0,6.91,0,10.37C149.69,192.83,149.39,193.43,149.39,193.92Z"/><path class="cls-16" d="M63.77,205.27c.45.41.32.95.32,1.45q0,6.25,0,12.5c-.44-.41-.33-.95-.33-1.45Q63.75,211.52,63.77,205.27Z"/><path class="cls-16" d="M69.39,218.08V208c1,1,.35,2.1.31,3.14C69.6,213.48,70.39,215.82,69.39,218.08Z"/><path class="cls-15" d="M108,201.81c1.54,0,3.1-.08,4.63,0s2.29-.31,2-2a4.35,4.35,0,0,1,0-.86c.56.71.22,1.55.32,2.33,0,.36-.08.76-.52.74C112.33,202,110.15,202.56,108,201.81Z"/><path class="cls-14" d="M175,175.11c.64,2.87.19,5.77.29,8.66C174.64,180.9,175,178,175,175.11Z"/><path class="cls-14" d="M161.05,185.81c-.61-2.38-.21-4.8-.29-7.19C161.39,181,161,183.41,161.05,185.81Z"/><path class="cls-15" d="M191.21,178.94q0,3.64,0,7.29A16,16,0,0,1,191.21,178.94Z"/><path class="cls-15" d="M101.13,169.28l-7-.06A14.49,14.49,0,0,1,101.13,169.28Z"/><path class="cls-14" d="M184.28,173.1c-.13,2.06.37,4.15-.3,6.18C184,177.22,183.66,175.14,184.28,173.1Z"/><path class="cls-15" d="M163.55,176.56c.6,2,.2,4,.28,5.93C163.24,180.54,163.57,178.54,163.55,176.56Z"/><path class="cls-17" d="M191.39,158.53a5.41,5.41,0,0,1,0,5.5Z"/><path class="cls-15" d="M163.9,184.52c.63,1.8.18,3.66.3,5.49C163.55,188.21,163.94,186.36,163.9,184.52Z"/><path class="cls-15" d="M139.25,196.93c.36,2.55,2.34,1.6,3.81,1.76a4.34,4.34,0,0,1-3.1.29C138.66,198.82,139.5,197.62,139.25,196.93Z"/><path class="cls-18" d="M151.37,101.77c.09,4-3.6,7.73-7.45,7.17-2.33-.34-4.14-2-5.65-3.67a3.16,3.16,0,0,0-2.46-1.2c-3.37-.19-6.81,0-10-1.35-.6-.26-.81,0-1,.48-.3.62-.59,1.24-.92,1.84a4.5,4.5,0,0,1-5.15,2.53,25.24,25.24,0,0,1-3.79-1,3.59,3.59,0,0,1-2.13-5.51c.62-1.1,1.32-2.15,2-3.19a5.44,5.44,0,0,1,7.29-1.76,2.59,2.59,0,0,1,1.51,1.57c.28,1.29,1.19,1.59,2.25,2A32.72,32.72,0,0,0,136.94,101a4.52,4.52,0,0,0,3.27-1.71c2.46-2.61,5.36-3.11,8.66-2C151.13,98.15,151.29,98.41,151.37,101.77Zm-2.66.35c-.07-.82.23-1.81-.89-2.18a7.07,7.07,0,0,0-3.36-.56c-1.7.28-3.31,1-3.91,2.72s1.14,2.1,2,3a3.34,3.34,0,0,0,4.24.58A3.24,3.24,0,0,0,148.71,102.11ZM119,104.88a3,3,0,0,0,3.18-1.89,5.39,5.39,0,0,0-1-4.36c-.28-.22-.59-.41-.94-.21-1.25.7-2.79.71-3.94,1.61-.86.67-1.84,1.35-1.58,2.64s1.3,1.63,2.43,1.81C117.76,104.58,118.37,104.75,119,104.88Z"/><path class="cls-18" d="M142.91,81.58a24.57,24.57,0,0,0,12.73-1.11c.72-.23,1.43-.34,1.73.5a1.49,1.49,0,0,1-.76,1.91,20.82,20.82,0,0,1-7.18,2.21,21.84,21.84,0,0,1-7.86-.36,7.62,7.62,0,0,1-1.47-.47,1.23,1.23,0,0,1-.84-1.19c0-.62.49-.89,1-1.08A5.75,5.75,0,0,1,142.91,81.58Z"/><path class="cls-18" d="M109.54,84.54c-.92,0-1.83,0-2.75,0s-1.7,0-1.81-1.11.68-1.61,1.68-1.7a25.28,25.28,0,0,1,3.95-.23,31,31,0,0,0,5.32-.13c.94-.1,1.77,0,1.87,1.21s-.75,1.36-1.57,1.4C114,84.08,111.79,84.56,109.54,84.54Z"/><path class="cls-19" d="M95.84,88.79a9,9,0,0,0,2.73-.14c.6-.1,1.32-.33,1.61.51A1.7,1.7,0,0,1,99.56,91c-1,.88-5.44.91-6.42,0-.4-.37-.94-1-.88-1.37.1-.65.9-.79,1.52-.84S95.15,88.79,95.84,88.79Z"/><path class="cls-18" d="M164.45,91.78c-.92,0-1.84-.1-2.76-.12-.49,0-.95-.06-1.06-.64a.93.93,0,0,1,.66-1.09,21.51,21.51,0,0,1,6.81-.75c.59,0,.68.54.68,1a1.33,1.33,0,0,1-1.23,1.41C166.53,91.75,165.48,91.73,164.45,91.78Z"/><path class="cls-19" d="M110.51,89.24a2.6,2.6,0,0,1,2.78,2.22c0,1-1.39,1.94-2.94,2s-1.9-1.1-2.16-2.19C108,90.3,109.27,89.26,110.51,89.24Z"/><path class="cls-18" d="M150,91.62a2.51,2.51,0,0,1,2.53,2.05c0,1-1.43,2.19-2.68,2.17s-2.22-.58-2.3-2A2.2,2.2,0,0,1,150,91.62Z"/><path class="cls-19" d="M161.89,94.56c2.08-.95,4.12-.05,6.13-.09,1,0,.82,1.07.46,1.73a1.86,1.86,0,0,1-2.05.93A7.19,7.19,0,0,1,161.89,94.56Z"/><path class="cls-19" d="M94.71,96.19c-.37-.07-.82-.13-1.26-.25s-.78-.17-.71-.6a1.13,1.13,0,0,1,.54-.82,41.86,41.86,0,0,1,4.49-1.07c.67-.11.88.6,1,1.16s-.24,1-.8,1.05C96.94,95.86,95.86,96,94.71,96.19Z"/><path class="cls-7" d="M148.71,102.11a3.24,3.24,0,0,1-1.89,3.54,3.34,3.34,0,0,1-4.24-.58c-.89-.89-2.61-1.34-2-3s2.21-2.43,3.91-2.72a7.07,7.07,0,0,1,3.36.56C148.93,100.31,148.64,101.3,148.71,102.11Z"/><path class="cls-7" d="M119,104.88c-.61-.14-1.22-.3-1.83-.4-1.13-.19-2.17-.55-2.43-1.81s.72-2,1.58-2.64c1.16-.9,2.69-.92,3.94-1.61.35-.2.66,0,.94.21a5.39,5.39,0,0,1,1,4.36A3,3,0,0,1,119,104.88Z"/></g></svg>