<svg id="圖層_1" data-name="圖層 1" xmlns="http://www.w3.org/2000/svg" viewBox="0 0 43.8 42.5"><defs><style>.cls-1{fill:#0e0d0d;}.cls-1,.cls-2,.cls-3{fill-rule:evenodd;}.cls-2{fill:#fdfefe;}.cls-3{fill:#cfaf43;}</style></defs><title>graphic</title><path class="cls-1" d="M40.15,18.3c0,8.84-5,15.92-12.73,18.11a23.15,23.15,0,0,1-12.63.1C9.37,35,5.37,29.61,4.23,23.63,2.75,15.79,10.65,5.23,19,4.93c3.45-.12,6.89-.51,10.35-.62a7.49,7.49,0,0,1,5.2,1.94C38.74,9.75,40.17,12.84,40.15,18.3ZM25.8,6.47c-.58,0-1.16,0-1.73,0-3.42.24-4.07.76-5.18,4-2.67,7.87-.74,14.84,4.22,21.17,2,2.53,4.13,2.86,7,1.3,4.09-2.22,6.12-6,7.49-10.16C40.4,14.2,34.8,6.46,25.8,6.47ZM23,34.64c0-.19,0-.26,0-.3a2.34,2.34,0,0,0-.29-.42c-6.34-6.59-8.13-14.34-6-23.14.22-.89,1.11-2.24.31-2.66s-2,.62-3,1.24a1.44,1.44,0,0,0-.25.24,51.26,51.26,0,0,0-6,7.56,8.48,8.48,0,0,0-1.17,6.46C8.41,31.92,14.29,35.34,23,34.64Z"/><path class="cls-2" d="M25.8,6.47c9,0,14.6,7.73,11.8,16.33C36.23,27,34.2,30.73,30.11,33c-2.86,1.55-5,1.23-7-1.3-5-6.34-6.89-13.3-4.22-21.17,1.1-3.24,1.76-3.76,5.18-4C24.64,6.44,25.22,6.47,25.8,6.47Z"/><path class="cls-3" d="M23,34.64c-8.74.69-14.62-2.72-16.41-11a8.48,8.48,0,0,1,1.17-6.46,51.26,51.26,0,0,1,6-7.56,1.44,1.44,0,0,1,.25-.24c.94-.62,2-1.74,3-1.24S17,9.9,16.75,10.79c-2.16,8.8-.37,16.55,6,23.14a2.34,2.34,0,0,1,.29.42S23,34.45,23,34.64Z"/></svg>