<svg id="圖層_1" data-name="圖層 1" xmlns="http://www.w3.org/2000/svg" viewBox="0 0 86.85 66.45"><defs><style>.cls-1{fill:#0e0d0d;}.cls-1,.cls-2,.cls-3,.cls-4{fill-rule:evenodd;}.cls-2{fill:#fdfefe;}.cls-3{fill:#bf3327;}.cls-4{fill:#c26f27;}</style></defs><title>graphic</title><path class="cls-1" d="M46.91,32.07c1,.33,1.25-.27,1.66-.63A20.84,20.84,0,0,1,71.68,28.8c4.29,2.26,5.89,5.93,6.17,10.46a33.24,33.24,0,0,1-1.71,12.25,5,5,0,0,1-1,2c-5.35,5.64-11.6,8.8-19.63,7.09a12,12,0,0,1-8.17-6.13,30.26,30.26,0,0,1-3.71-10.15c-.31-1.83.25-3.54.64-5.28.23-1,.53-2,.9-3.37-2.63,2-5,3.6-7.79,4.34-6.1,1.61-12.08,1.5-17.38-2.26-5.52-3.91-8.58-13-6.61-18.64,1.25-3.56,3.75-6.22,6.58-8.53,3.24-2.65,6.43-5.53,10.89-6s8.48.55,11.82,3.68c2.28,2.13,4.49,4.3,5.84,7.22a14.38,14.38,0,0,1,.74,10.6A36.06,36.06,0,0,1,46.91,32.07Zm28.9,9c.19-3.54-.35-6.9-3.43-9.13-8.26-6-19.92-4.45-25.51,5.31-.93,1.63-1.42,3.39-.48,5.11,2,3.57,4.56,6.49,8.78,7.5a51.38,51.38,0,0,0,8.54,1.17,15.11,15.11,0,0,0,9.34-2.49A5.42,5.42,0,0,0,75.8,44C75.84,43,75.81,42.07,75.81,41.09ZM33.71,6.67c-7.2-.1-16.8,7.27-18.54,14a2.38,2.38,0,0,0,1.05,2.85c1.5,1,2.93,2.05,4.48,2.94,3.94,2.25,8,3.65,12.6,1.92.43-.16.89-.23,1.33-.35,4.13-1.14,7.89-2.9,10.55-6.45a4.79,4.79,0,0,0,.32-5.94A36.58,36.58,0,0,0,41.23,10,10.61,10.61,0,0,0,33.71,6.67Zm-18.13,19C16.73,29.83,18.49,33.43,22,36a8.29,8.29,0,0,0,4.47,1.72,35.57,35.57,0,0,0,11.66-1c4.62-1.34,8.19-5.94,8.23-10.27,0-1.48-.34-1.68-1.64-.93A52.56,52.56,0,0,1,34.1,30.58c-5.82,1.82-11,1-15.53-3.27A7.51,7.51,0,0,0,15.58,25.67Zm30.89,21A4.09,4.09,0,0,0,47,49.51a24.4,24.4,0,0,0,4.45,6.75,7.41,7.41,0,0,0,4.71,2.3,17.6,17.6,0,0,0,5.5,0,16,16,0,0,0,10.87-7.09C62.82,54.11,54,54.05,46.47,46.65Z"/><path class="cls-2" d="M33.71,6.67A10.61,10.61,0,0,1,41.23,10a36.58,36.58,0,0,1,4.28,5.63,4.79,4.79,0,0,1-.32,5.94c-2.66,3.55-6.42,5.3-10.55,6.45-.44.12-.91.19-1.33.35-4.56,1.73-8.66.33-12.6-1.92-1.55-.88-3-2-4.48-2.94a2.38,2.38,0,0,1-1.05-2.85C16.91,13.94,26.51,6.57,33.71,6.67Z"/><path class="cls-3" d="M15.58,25.67a7.51,7.51,0,0,1,3,1.65c4.51,4.3,9.71,5.08,15.53,3.27a52.56,52.56,0,0,0,10.56-5.09c1.31-.76,1.66-.56,1.64.93,0,4.33-3.61,8.92-8.23,10.27a35.57,35.57,0,0,1-11.66,1A8.29,8.29,0,0,1,22,36C18.49,33.43,16.73,29.83,15.58,25.67Z"/><path class="cls-2" d="M75.81,41.09c0,1,0,2,0,2.94a5.42,5.42,0,0,1-2.74,4.53,15.11,15.11,0,0,1-9.34,2.49,51.38,51.38,0,0,1-8.54-1.17c-4.22-1-6.81-3.93-8.78-7.5-.95-1.71-.45-3.48.48-5.11C52.46,27.51,64.12,26,72.38,32,75.46,34.19,76,37.54,75.81,41.09Z"/><path class="cls-4" d="M46.47,46.65c7.49,7.4,16.35,7.46,26,4.82a16,16,0,0,1-10.87,7.09,17.6,17.6,0,0,1-5.5,0,7.41,7.41,0,0,1-4.71-2.3A24.4,24.4,0,0,1,47,49.51,4.09,4.09,0,0,1,46.47,46.65Z"/></svg>