<svg id="圖層_1" data-name="圖層 1" xmlns="http://www.w3.org/2000/svg" viewBox="0 0 163.5 235.14"><defs><style>.cls-1{fill:#c9a53e;}.cls-2{fill:#cf5351;}.cls-3{fill:#a43226;}.cls-4{fill:#fff;}</style></defs><title>graphic</title><path class="cls-1" d="M124.59,63.64c1,.17,2,2.16,1.6,2.92s-.78,1.19-1.16,1.8-.66,1.13-1,1.69c-.08.12-.22.28-.35.29-1.19.09-1.95.92-2.83,1.57A10.26,10.26,0,0,1,118,73.79a10.33,10.33,0,0,0-1.34.71c-1.22.61-2.44,1.26-3.69,1.81s-2.39,1-3.61,1.36a23.46,23.46,0,0,0-3.37,1,16.76,16.76,0,0,1-3.54.86,3,3,0,0,1-.44,0l0-.13-3.42.64c-1.27.23-2.55.45-3.83.65s-2.63.46-4,.56c-1.73.14-3.47.16-5.22.2-1.17,0-2.34,0-3.51,0h-.19c-.4,0-1,.09-1-.49,0-.21.47-.54.79-.66,2.91-1.09,5.83-2.12,8.74-3.21.73-.27,1.38-.74,2.09-1.08.46-.22,1-.36,1.42-.56,1.15-.49,2.3-1,3.42-1.52,1.71-.84,3.39-1.74,5.08-2.61.67-.34,1.35-.62,2-1,.83-.43,1.63-.91,2.47-1.32,1.86-.91,3.69-1.9,5.62-2.64,1.77-.68,3.66-1.07,5.49-1.62,1.1-.33,2.17-.72,3.25-1.1A6.56,6.56,0,0,1,124.59,63.64Z"/><path class="cls-1" d="M118.08,206.17c.49-.29,1,0,1,.54a7.67,7.67,0,0,1-.46,2q-1.13,3-2.35,5.88c-.38.9-.88,1.74-1.29,2.62-.31.65-.56,1.31-.85,2a2.19,2.19,0,0,1-.27.57c-.85,1-1.69,2-2.61,2.92a1.23,1.23,0,0,1-1.08.25c-.28-.11-.49-.58-.6-.93a5.27,5.27,0,0,1-.09-1.2l-.08,0c.28-1.13.53-2.26.86-3.38s.72-2,1-3.07c.46-1.54.82-3.11,1.33-4.63a2.23,2.23,0,0,1,1-1.05c1-.59,2.11-1.06,3.16-1.61C117.19,206.74,117.62,206.43,118.08,206.17Z"/><path d="M99.59,132.84c-.9.1-1.86-1.12-1.8-2.38s.93-2.33,2.12-3.12a1.18,1.18,0,0,1,1.43,0c.74.53,1.59,1,1.76,2a2.87,2.87,0,0,1-.13,1.39C102.43,132.34,101,132.69,99.59,132.84Z"/><path class="cls-2" d="M96.2,152.79a1,1,0,0,1-1.93.22c-.52-.71-1.21-1.29-1.79-2s-1.12-1.37-1.66-2.07c-.07-.09-.1-.34,0-.39.61-.52,1.24-1,1.87-1.5,0,0,.12,0,.16,0h.08c1.48.17,3.43,1.85,3.6,3.3A6.11,6.11,0,0,1,96.2,152.79Z"/><path class="cls-2" d="M89.61,154.46a3.49,3.49,0,0,1-1.85-2.53,1.5,1.5,0,0,1,1.05-1.44,1.1,1.1,0,0,1,.69.29c.36.28.68.61,1,.92.72.65,1.46,1.28,2.15,2a.56.56,0,0,1-.37.93c-.33.05-.67.08-1,.12A13.65,13.65,0,0,1,89.61,154.46Z"/><path d="M96.49,150.36c-.17-1.45-2.12-3.13-3.6-3.3h-.08s-.13,0-.16,0c-.63.49-1.26,1-1.87,1.5-.06.05,0,.3,0,.39.54.7,1.08,1.41,1.66,2.07s1.27,1.24,1.79,2a1,1,0,0,0,1.93-.22A6.11,6.11,0,0,0,96.49,150.36ZM70,152.7a16.37,16.37,0,0,1-3.31-1.88,3.79,3.79,0,0,1-1.13-2.2c-.09-.46.23-.75.65-.9a1,1,0,0,1,1.14.27,18.37,18.37,0,0,0,2.48,2.44,6.61,6.61,0,0,0,2.33.77,25.22,25.22,0,0,0,3.68.7c1.61.13,3.23.08,4.84.07a8.79,8.79,0,0,0,4.28-1.3.76.76,0,0,1,.17-.09A7.26,7.26,0,0,0,88.65,148c.77-.85,1.58-1.67,2.35-2.52.63-.69,1.53-.66,2.32-.94a.56.56,0,0,1,.43.1,29.16,29.16,0,0,1,3.73,2.74,5,5,0,0,1,1.07,3.46c0,.19,0,.38,0,.72a4.85,4.85,0,0,1-2.59,4.69,1.72,1.72,0,0,1-.45.22c-1,.28-2,.53-3.06.83a6.17,6.17,0,0,1-3,.06,3.91,3.91,0,0,1-2.62-2.15c-.43-.73-.89-1.43-1.36-2.13a.69.69,0,0,0-.87-.27c-1.5.39-3,.7-4.54,1a23.13,23.13,0,0,1-3.25.45,10.71,10.71,0,0,1-2.13-.33c-.94-.15-1.89-.25-2.81-.47A7.62,7.62,0,0,1,70,152.7Zm17.78-.78a3.49,3.49,0,0,0,1.85,2.53,13.65,13.65,0,0,0,1.69.25c.34,0,.68-.07,1-.12a.56.56,0,0,0,.37-.93c-.69-.68-1.43-1.31-2.15-2-.34-.31-.66-.64-1-.92a1.1,1.1,0,0,0-.69-.29A1.5,1.5,0,0,0,87.76,151.92Z"/><path d="M81.31,68.67A2.43,2.43,0,0,1,81,64.6a6.8,6.8,0,0,1,1.58-.81,1.22,1.22,0,0,1,.91.08,5.85,5.85,0,0,1,1.2.92,1.12,1.12,0,0,1,.29.66C85,66,85,66.51,85,67c0,.84,0,1.65-.94,2a2.13,2.13,0,0,1-1.16.16A6.33,6.33,0,0,1,81.31,68.67Z"/><path class="cls-3" d="M76.85,7.09a1.85,1.85,0,0,1,3.22.13,11.53,11.53,0,0,1,1.78,6c-.14,2.14-.25,4.29-.42,6.43-.09,1.09-.26,2.18-.43,3.26-.22,1.4-.5,2.8-.71,4.2-.09.6,0,1.23-.06,1.83-.13,1.22-.26,2.45-.47,3.66-.29,1.7-.64,3.4-1,5.09-.26,1.29-.68,2.57-.82,3.87a12.56,12.56,0,0,1-.9,3.6c-.7,1.68-1.16,3.45-1.75,5.18-.21.63-.74.68-1.31.63a1,1,0,0,1-1-1c-.14-1.25-.2-2.5-.31-3.75s-.24-2.36-.33-3.54c0-.44.08-.89,0-1.33-.17-1.88-.41-3.75-.56-5.63a18.79,18.79,0,0,1,.07-2.22,1.9,1.9,0,0,0,0-.5c-.36-1.61.13-3.16.31-4.73s.09-3.08.13-4.62a6,6,0,0,1,.17-1.39,49.58,49.58,0,0,0,1.25-6.56,22.83,22.83,0,0,1,1.85-6.45A11,11,0,0,1,76.85,7.09Z"/><path class="cls-3" d="M67.12,52.36c-.88.28-1.5,0-1.69-.92-.23-1.17-.38-2.35-.5-3.54-.24-2.34-.44-4.68-.65-7,0-.56,0-1.12-.08-1.68A10,10,0,0,0,64,38c-.3-1.34-.59-2.69-.91-4-.1-.41-.32-.8-.39-1.21-.1-.62-.11-1.27-.19-1.9-.14-1.13-.34-2.26-.44-3.4S62,25.3,62,24.23a1.19,1.19,0,0,0,0-.38,12.34,12.34,0,0,1-.38-4.16c0-1.34-.17-2.67-.26-4a3.93,3.93,0,0,1,2.23-3.62,1.17,1.17,0,0,1,1.53.86c.46,2.07.89,4.15,1.33,6.22a1.61,1.61,0,0,0,.19.54,10.08,10.08,0,0,1,1.07,3.84c.35,1.86.66,3.72,1,5.59.16,1,.26,2.06.39,3.09h-.07c.07,2.27.14,4.54.2,6.81s.06,4.3.15,6.44c.06,1.61.21,3.21.35,4.81.1,1.1-.06,1.37-1.1,1.64C68,52,67.58,52.21,67.12,52.36Z"/><path class="cls-3" d="M64.48,127.2a2.42,2.42,0,0,0-2.59-.67,4,4,0,0,0-2.44,2.89,2.57,2.57,0,0,0,.1,1.24c.37,1.34,1.45,1.67,2.83,1.8a2.35,2.35,0,0,0,.8-.23A3.78,3.78,0,0,0,65.05,129,2.74,2.74,0,0,0,64.48,127.2ZM67.33,148a1,1,0,0,0-1.14-.27c-.42.16-.74.44-.65.9a3.79,3.79,0,0,0,1.13,2.2A16.37,16.37,0,0,0,70,152.7a7.62,7.62,0,0,0,1.86.77c.92.23,1.87.32,2.81.47a10.71,10.71,0,0,0,2.13.33,23.13,23.13,0,0,0,3.25-.45c1.52-.29,3-.61,4.54-1a.69.69,0,0,1,.87.27c.47.7.93,1.4,1.36,2.13a3.91,3.91,0,0,0,2.62,2.15,6.17,6.17,0,0,0,3-.06c1-.3,2-.55,3.06-.83a1.72,1.72,0,0,0,.45-.22,4.85,4.85,0,0,0,2.59-4.69c0-.33,0-.52,0-.72a5,5,0,0,0-1.07-3.46,29.16,29.16,0,0,0-3.73-2.74.56.56,0,0,0-.43-.1c-.78.28-1.69.25-2.32.94-.77.85-1.57,1.67-2.35,2.52a7.26,7.26,0,0,1-3.54,2.55.76.76,0,0,0-.17.09,8.79,8.79,0,0,1-4.28,1.3c-1.61,0-3.23.06-4.84-.07a25.22,25.22,0,0,1-3.68-.7,6.61,6.61,0,0,1-2.33-.77A18.37,18.37,0,0,1,67.33,148Zm35.79-18.63c-.17-1-1-1.45-1.76-2a1.18,1.18,0,0,0-1.43,0c-1.19.79-2.13,1.77-2.12,3.12s.9,2.48,1.8,2.38c1.45-.16,2.84-.5,3.4-2.09A2.87,2.87,0,0,0,103.11,129.36ZM116,144.64c.5,1.47,1.8,1.51,3,1.74a6.88,6.88,0,0,1,1.58.47.88.88,0,0,1,.31.69,7.11,7.11,0,0,1-2.41,5.48,20.18,20.18,0,0,1-5,3.33c-1.22.53-2.37,1.24-3.6,1.76-1.49.64-3,1.18-4.56,1.74s-3.38,1.14-5,1.8c-2.36,1-4.66,2.07-7,3a6.19,6.19,0,0,0-2.77,2,24.22,24.22,0,0,1-2.13,2,3.58,3.58,0,0,0-1.29,2,7.4,7.4,0,0,0,0,1.45,10.63,10.63,0,0,0,.23,1.45c.13.59-.2.8-.69.92a5.68,5.68,0,0,1-3.08-.23c-2.26-.67-4.53-1.32-6.77-2-1.13-.36-2.21-.88-3.31-1.31-.91-.35-1.87-.61-2.74-1-1.27-.6-2.48-1.3-3.71-2s-2.33-1.17-3.41-1.87c-1.51-1-3-2.07-4.41-3.12-.49-.35-.9-.8-1.41-1.1a9.93,9.93,0,0,1-2.8-3.07c-.72-1-1.55-1.88-2.34-2.82-.16-.2-.44-.37-.48-.58a5.91,5.91,0,0,0-1.48-2.49,1.46,1.46,0,0,1,0-2,29.05,29.05,0,0,0,2.15-3.28,7.08,7.08,0,0,0,.8-4.17,3.53,3.53,0,0,0-2.86-2.72c-.53-.05-1-.22-1.56-.3a20.08,20.08,0,0,0-2.07-.25,1.58,1.58,0,0,1-1.38-1.29,17.81,17.81,0,0,1-.61-3.11,19.6,19.6,0,0,1,.32-3.46c.33-2.34.67-4.68,1.09-7a6.12,6.12,0,0,1,.8-2c1.09-1.81,2.25-3.59,3.39-5.37a4.47,4.47,0,0,1,2.17-1.62q2-.86,4.12-1.62a13.93,13.93,0,0,1,6.47-.93c.8.1,1.6.26,2.39.43,1.11.23,2.22.51,3.34.76a10.61,10.61,0,0,1,3.91,2.31c1,.76,2,1.57,3,2.39,2.1,1.8,3.39,4,3,6.87.08.65.17,1.29.24,1.95s.11,1.44.17,2.16c.07.89.47,1.25,1.34,1.23a18.05,18.05,0,0,0,2.38-.11,2,2,0,0,0,1.31-2,9,9,0,0,1,.2-2.38c.17-.7.69-1.31.88-2a29.27,29.27,0,0,1,2.58-5.27,1.67,1.67,0,0,1,.48-.59,42.26,42.26,0,0,1,4-2.85,30.42,30.42,0,0,1,4.62-2.08,11.35,11.35,0,0,1,2.57-.36,11.52,11.52,0,0,1,1.2-.07,4,4,0,0,1,1.07.06c1.25.33,2.5.67,3.73,1.07s2.56.89,3.82,1.38c.59.23,1.11.62,1.7.85a13.36,13.36,0,0,1,4.75,2.78,10,10,0,0,1,3,4.95,13.45,13.45,0,0,1,.39,4.24,4.62,4.62,0,0,0,.6,2,1,1,0,0,1-.24,1.32c-.72.62-1.47,1.21-2.16,1.86a9,9,0,0,0-.8,1.06q-.31.4-.65.77a6.73,6.73,0,0,0-1.87,3.59,5,5,0,0,0,1.49,4.27A.86.86,0,0,1,116,144.64Z"/><path d="M80.07,7.22a1.85,1.85,0,0,0-3.22-.13,11,11,0,0,0-1.17,2.13,22.83,22.83,0,0,0-1.85,6.45,49.58,49.58,0,0,1-1.25,6.56,6,6,0,0,0-.17,1.39c0,1.54,0,3.1-.13,4.62S71.62,31.36,72,33a1.9,1.9,0,0,1,0,.5,18.79,18.79,0,0,0-.07,2.22c.15,1.88.39,3.75.56,5.63,0,.44-.07.89,0,1.33.09,1.18.22,2.36.33,3.54s.16,2.5.31,3.75a1,1,0,0,0,1,1c.57.06,1.1,0,1.31-.63.59-1.72,1.05-3.5,1.75-5.18a12.56,12.56,0,0,0,.9-3.6c.13-1.3.55-2.58.82-3.87.35-1.69.7-3.39,1-5.09.21-1.21.34-2.44.47-3.66.06-.61,0-1.23.06-1.83.21-1.41.49-2.8.71-4.2.17-1.08.35-2.17.43-3.26.17-2.14.28-4.28.42-6.43A11.53,11.53,0,0,0,80.07,7.22Zm46.12,59.34c.44-.76-.63-2.75-1.6-2.92a6.56,6.56,0,0,0-3.4.14c-1.08.39-2.15.77-3.25,1.1-1.83.55-3.72.94-5.49,1.62-1.93.74-3.76,1.74-5.62,2.64-.84.41-1.64.89-2.47,1.32-.66.34-1.35.63-2,1C100.65,72.3,99,73.2,97.27,74c-1.12.55-2.27,1-3.42,1.52-.47.2-1,.34-1.42.56-.71.34-1.36.81-2.09,1.08-2.9,1.09-5.83,2.13-8.74,3.21-.32.12-.8.45-.79.66,0,.57.61.44,1,.49H82c1.17,0,2.34,0,3.51,0,1.74,0,3.49-.07,5.22-.2,1.32-.1,2.64-.36,4-.56s2.55-.42,3.83-.65l3.42-.64,0,.13a3,3,0,0,0,.44,0,16.76,16.76,0,0,0,3.54-.86,23.46,23.46,0,0,1,3.37-1c1.22-.41,2.43-.85,3.61-1.36s2.46-1.19,3.69-1.81a10.33,10.33,0,0,1,1.34-.71,10.26,10.26,0,0,0,2.89-1.88c.88-.66,1.64-1.48,2.83-1.57.13,0,.27-.17.35-.29.35-.55.66-1.13,1-1.69S125.83,67.17,126.19,66.56Zm-67.49,157a9.59,9.59,0,0,0,1.55,1.11.9.9,0,0,0,.76,0c.13-.07.19-.45.14-.66-.1-.43-.35-.83-.44-1.26a13.34,13.34,0,0,0-1.26-3.93,2.3,2.3,0,0,1-.16-.49,15.34,15.34,0,0,0-.68-2.16c-.64-1.35-.9-2.89-2-4-.07-.07-.07-.2-.11-.29-.53-1-1.21-1.8-2.53-1.58a2.14,2.14,0,0,1-.86-.15l-2.26-.64c-.45.06-.63.43-.42,1,.39,1,.75,1.94,1.18,2.88s.94,2.08,1.5,3.06c.35.62,1,1.1,1.29,1.73A19,19,0,0,0,58.7,223.55ZM65.43,51.44c.18.91.8,1.2,1.69.92.46-.15.92-.33,1.39-.45,1-.27,1.2-.53,1.1-1.64-.14-1.6-.29-3.21-.35-4.81-.09-2.14-.09-4.29-.15-6.44s-.13-4.54-.2-6.81H69c-.13-1-.23-2.06-.39-3.09-.29-1.87-.61-3.73-1-5.59a10.08,10.08,0,0,0-1.07-3.84,1.61,1.61,0,0,1-.19-.54c-.44-2.07-.87-4.15-1.33-6.22a1.17,1.17,0,0,0-1.53-.86,3.93,3.93,0,0,0-2.23,3.62c.08,1.33.22,2.66.26,4a12.34,12.34,0,0,0,.38,4.16,1.19,1.19,0,0,1,0,.38c0,1.07,0,2.15.11,3.22s.3,2.27.44,3.4c.08.63.08,1.27.19,1.9.07.41.29.8.39,1.21.31,1.34.61,2.68.91,4a10,10,0,0,1,.21,1.22c.05.56,0,1.12.08,1.68.21,2.34.4,4.69.65,7C65,49.08,65.2,50.27,65.43,51.44ZM27.84,188.37c1.45,1.53,3.51,2.28,4.87,4a43,43,0,0,0,3.72,3.55,13.25,13.25,0,0,0,5.06,3.17,7.2,7.2,0,0,1,1.54.74,28.49,28.49,0,0,0,5.22,2.6c1.76.68,3.59,1.2,5.4,1.72,1.65.48,3.32.89,5,1.29,1.24.29,2.49.53,3.74.76,1.58.3,3.16.66,4.75.85,2.44.3,4.92.32,7.25,1.24a1.6,1.6,0,0,0,.56.09,29.5,29.5,0,0,1,5.89.45,57.28,57.28,0,0,0,6.76,1c1.77.17,3.56.08,5.34.16a13.13,13.13,0,0,0,4.18-.7,10.46,10.46,0,0,1,1.48-.36c1.51-.19,3-.26,4.53-.52a28.29,28.29,0,0,0,3.67-1A21.36,21.36,0,0,0,111,205.8a33,33,0,0,1,4.77-1.87c1.22-.48,2.46-1,3.63-1.55,1.39-.71,2.7-1.61,4.08-2.34a9.64,9.64,0,0,0,3-2,4,4,0,0,1,.65-.5c1-.72,2-1.4,2.89-2.18.57-.49,1-1.18,1.5-1.72,1-1,2-1.91,3-2.92a30.26,30.26,0,0,0,2.34-2.69c.82-1.08,1.58-2.21,2.29-3.36a9.12,9.12,0,0,1,1.58-2.12,9.1,9.1,0,0,0,1.54-1.83c.27-.41.41-.85.89-1.1a1.61,1.61,0,0,0,.52-.75c.45-.94.88-1.88,1.31-2.83a18.86,18.86,0,0,0,1-2.14c.68-2.12,1.28-4.26,1.92-6.4a8.68,8.68,0,0,1,1.05-2.84,8.76,8.76,0,0,0,1.14-3.14c.22-.86.51-1.71.77-2.57s.57-1.6.75-2.42c.29-1.32.49-2.66.76-4s.64-2.75.9-4.14c.45-2.36.79-4.73,1.28-7.08a26.58,26.58,0,0,0,.61-6.13c0-.83-.2-1.65-.17-2.47.08-1.68.49-3.31.07-5a29.27,29.27,0,0,1-.4-4.67l.23,0c-.2-.94-.41-1.88-.59-2.82a17.14,17.14,0,0,0-1.5-5.16,2.65,2.65,0,0,1-.16-.55,19.89,19.89,0,0,0-1.1-3.53,17.22,17.22,0,0,1-1.45-4.71,3.41,3.41,0,0,0-.29-.9c-.89-1.69-1.84-3.34-2.68-5.06a7.52,7.52,0,0,0-1.8-2.51,1.6,1.6,0,0,1-.34-.52c-.37-.78-.67-1.59-1.09-2.34-1-1.7-1.41-3.62-2.48-5.29s-2-3.74-3.77-5a.55.55,0,0,1-.22-.31,3.79,3.79,0,0,0-1.65-2,14.6,14.6,0,0,1-2.8-3.09c-.93-1.33-2.05-2.52-3.09-3.76l-.05,0a4.31,4.31,0,0,1-2-2.36c-.29-.67-.86-.71-1.37-.18a9,9,0,0,1-1,.79c-.35.27-.72.52-1,.82a21.51,21.51,0,0,1-2.24,2.05,47.37,47.37,0,0,1-4.43,2.59c-1.9,1-3.84,1.94-5.81,2.8a20.87,20.87,0,0,1-3.36,1c-1,.25-2,.42-3.05.58-1.43.22-2.85.46-4.29.57-1.76.14-3.53.14-5.29.26-1.3.08-2.59.26-3.89.37-2.23.18-4.45.41-6.68.48-1.91.06-3.83,0-5.73-.13-1.54-.08-3.07-.31-4.61-.42A4.89,4.89,0,0,1,72.73,84a2.3,2.3,0,0,0-.72-.25,12,12,0,0,1-6.24-3c-.35-.34-.67-.58-.43-1.1.37-.78.86-1.13,1.47-.92a7.5,7.5,0,0,0,3.65.35c.92-.14,1.86-.18,2.78-.3,1.64-.22,3.28-.46,4.91-.73a14.39,14.39,0,0,0,2.24-.52c1.73-.58,3.44-1.21,5.16-1.84a19,19,0,0,0,4.33-1.83A8.6,8.6,0,0,1,91.3,73c1.08-.45,2.19-.82,3.27-1.27.74-.31,1.43-.73,2.17-1.05,1.58-.67,3.19-1.26,4.74-2,1.76-.8,3.47-1.69,5.21-2.56,1-.51,2-1,3-1.56.22-.12.41-.3.64-.41,1.57-.78,3.15-1.53,4.71-2.33a.8.8,0,0,0,.39-.62,1.36,1.36,0,0,0-.42-.71c-.12-.13-.36-.13-.52-.23a18.41,18.41,0,0,0-4.36-2c-1.34-.4-2.71-.74-4.05-1.15-1.88-.58-3.75-1.21-5.62-1.82A6.52,6.52,0,0,0,99,54.88a9.24,9.24,0,0,1-2.45-.62,20.47,20.47,0,0,0-3.61-.61,7.12,7.12,0,0,1-1.07-.08,9.47,9.47,0,0,0-3.78-.38c-.47,0-.94.18-1.41.2-1.72.06-3.45-.07-5.15.16-3.35.44-6.67,1.07-10,1.64-.42.07-.81.25-1.22.35s-1,.21-1.47.3c-1.18.23-2.39.39-3.54.71-1,.27-1.82.81-2.76,1.11-1.68.53-3.38,1-5.1,1.43A29.14,29.14,0,0,0,52.3,61a24.86,24.86,0,0,1-4.6,1.64,2.28,2.28,0,0,0-.56.29,7.69,7.69,0,0,1-.84.45c-1.05.4-2.14.73-3.16,1.19A21.78,21.78,0,0,0,41,65.78c-.62.36-1.24.72-1.85,1.09a13.37,13.37,0,0,1-1.42.9,17.19,17.19,0,0,0-4.82,3.41,50.9,50.9,0,0,0-3.5,3.87c-.89,1-1.73,2.14-2.52,3.27s-1.27,2.18-2,3.17a11.44,11.44,0,0,0-1.86,3c-.14.37-.55.63-.8,1-.37.51-.72,1-1.06,1.56a6.73,6.73,0,0,1-.64,1.07,9.63,9.63,0,0,0-1.82,3.3,25.62,25.62,0,0,1-1.59,3.72,35,35,0,0,0-2,4.49,32.35,32.35,0,0,0-1.28,3.61c-.46,1.67-.79,3.39-1.21,5.08s-.94,3.43-1.35,5.16c-.27,1.15-.47,2.33-.64,3.51-.15,1-.22,2.06-.32,3.09-.11,1.23-.23,2.46-.29,3.69,0,.63.12,1.26.13,1.89,0,1.08-.08,2.15-.09,3.22,0,1.64,0,3.27,0,4.91,0,.85.06,1.69.07,2.54s-.08,1.44,0,2.15c.08,1,.3,2,.37,3,.09,1.21.07,2.42.1,3.63a12.46,12.46,0,0,0,.05,1.69c.32,1.92.72,3.82,1,5.74.14.85.12,1.74.28,2.59.4,2.09.87,4.18,1.32,6.26.07.31.2.6.29.9a10.94,10.94,0,0,0,.64,2.24,29.92,29.92,0,0,1,2,5.22c.34,1.07.71,2.13,1.1,3.18.18.49.44,1,.63,1.43.38.95.69,1.92,1.12,2.84a28.12,28.12,0,0,0,1.45,2.54,25.78,25.78,0,0,0,2,3.21c.95,1.14,2.11,2.11,3.15,3.18C26.41,186.81,27.11,187.6,27.84,188.37ZM54.38,7.53a2,2,0,0,0-1.48-1.35c-.74,0-1,.56-1.16,1.09-.38,1-.7,2.11-1.05,3.16a3.39,3.39,0,0,0-.28.82c-.06,1.34-.13,2.68-.1,4,0,1.17.23,2.33.29,3.5.08,1.59.08,3.18.13,4.77a10.48,10.48,0,0,0,.19,1.19c.14.94.25,1.89.41,2.83.2,1.12.48,2.23.63,3.36.39,2.94.71,5.88,1.09,8.82.22,1.62.55,3.22.78,4.84.2,1.41.38,2.83.45,4.25a14.91,14.91,0,0,1-.14,3.31,5.08,5.08,0,0,0,0,2.67,1.29,1.29,0,0,0,1.66,1c1.05-.4,2.09-.85,3.13-1.28a1.08,1.08,0,0,0,.74-1.15c-.06-1-.13-2.07-.2-3.1-.08-1.25-.14-2.49-.23-3.74a5.34,5.34,0,0,0-.12-.63c-.18-.89-.42-1.77-.51-2.66-.14-1.44-.14-2.89-.28-4.33A42,42,0,0,0,57.57,32a37.42,37.42,0,0,1-.75-4.29c-.23-1.57-.44-3.14-.56-4.72-.08-1.08,0-2.18,0-3.27a4,4,0,0,0-.17-.81,11.14,11.14,0,0,1-.31-1.54c0-.76,0-1.52,0-2.5-.15-1-.33-2.26-.51-3.5-.07-.5-.07-1-.19-1.52C54.89,9.1,54.62,8.32,54.38,7.53ZM119,206.71c.05-.57-.48-.83-1-.54s-.89.57-1.36.82c-1,.54-2.13,1-3.16,1.61a2.23,2.23,0,0,0-1,1.05c-.5,1.52-.87,3.09-1.33,4.63-.3,1-.72,2-1,3.07s-.57,2.25-.86,3.38l.08,0a5.27,5.27,0,0,0,.09,1.2c.11.35.32.82.6.93a1.23,1.23,0,0,0,1.08-.25c.92-.93,1.76-1.93,2.61-2.92a2.19,2.19,0,0,0,.27-.57c.28-.65.54-1.32.85-2,.42-.88.91-1.73,1.29-2.62q1.22-2.92,2.35-5.88A7.67,7.67,0,0,0,119,206.71ZM58,227.35c-1.14-1-2.26-2-3.39-3-.22-.2-.53-.4-.6-.65-.32-1.18-1.41-1.78-2-2.74s-1.44-2.18-2.08-3.32a28,28,0,0,1-1.57-3.17c-.39-1-.63-2-1-3s-.66-2.06-1.05-3.07c-.27-.7-1-.72-1.61-1-1.46-.76-3-1.46-4.38-2.31-1.68-1-3.28-2.18-4.9-3.28a1.06,1.06,0,0,1-.29-.24,11.26,11.26,0,0,0-3.41-2.9,1.37,1.37,0,0,1-.35-.27c-.64-.81-1.29-1.63-1.91-2.46a30,30,0,0,0-3.44-4.29A57.1,57.1,0,0,1,21,186.21a19.47,19.47,0,0,1-2.61-3.8c-.75-1.53-1.82-2.89-2.67-4.37-.46-.8-.72-1.72-1.12-2.57-.54-1.14-1.1-2.28-1.71-3.39a28,28,0,0,1-2.25-5.9c-.81-2.76-1.55-5.54-2.2-8.33-.38-1.61-.51-3.27-.79-4.91s-.71-3.47-1-5.21c-.35-2.36-.72-4.72-.88-7.1-.11-1.77.11-3.56.17-5.35,0-.51-.06-1,0-1.53s.11-1.17.18-1.76a8.9,8.9,0,0,0,.14-1.07c0-.94-.06-1.87,0-2.81,0-1.53,0-3.06.16-4.58.11-1.17.4-2.33.6-3.49.05-.31.05-.64.11-.95.14-.7.31-1.39.46-2.09a14.83,14.83,0,0,0,.32-1.48c.18-1.48.26-3,.5-4.43a27.55,27.55,0,0,1,.78-2.69c.21-.78.35-1.57.53-2.36.26-1.12.55-2.23.8-3.35.3-1.34.51-2.69.86-4,.26-1,.69-1.95,1-2.93.2-.62.32-1.27.49-1.91A16.1,16.1,0,0,1,15,89.11c.56-.83,1-1.76,1.52-2.61a16.69,16.69,0,0,0,1.18-1.56c.48-1,1.54-1.51,2.07-2.38a14.5,14.5,0,0,1,2.17-2.63,1.2,1.2,0,0,0,.44-1A3.72,3.72,0,0,1,23,77.39c.31-.59.66-1.14,1-1.73.2-.37.41-.62.89-.55a.75.75,0,0,0,.52-.27c.67-.76,1.32-1.54,2-2.31a3.69,3.69,0,0,0,.38-.43C28.85,70.39,30.54,69.34,32,68a58.88,58.88,0,0,1,5-3.61,16.45,16.45,0,0,1,2.93-1.63c.81-.37,1.51-1,2.31-1.34,2-1,4-1.86,6-2.75.81-.36,1.67-.62,2.51-.94A1.59,1.59,0,0,0,51.53,56a19.73,19.73,0,0,1-1.26-6.26q-.34-3.07-.88-6.1a58.47,58.47,0,0,1-.71-7.33c0-.15,0-.34,0-.44.44-.57.15-1.15.08-1.74-.13-1.27-.25-2.54-.28-3.81,0-2.82,0-5.65-.08-8.47,0-1.24-.48-2.45-.57-3.69-.12-1.82-.69-3.56-.5-5.43.21-2.15.1-4.33.17-6.49A4.1,4.1,0,0,1,47.91,5c.28-.73.59-1.45.92-2.15a2,2,0,0,1,.56-.66A12.2,12.2,0,0,1,51.2.87,10.8,10.8,0,0,1,53.43,0c.53-.14.93.24,1.18.68s.51,1.07.78,1.6A11.51,11.51,0,0,0,56.3,4a8.91,8.91,0,0,1,.94,2.69c.45,1.32.9,2.64,1.38,3.95.05.15.31.36.39.32a1.13,1.13,0,0,0,.49-.43c.41-.66.76-1.35,1.19-2A1.16,1.16,0,0,1,61.4,8,6.25,6.25,0,0,0,64,6.73a1.34,1.34,0,0,1,2,.44,13,13,0,0,1,1,1.92,35.25,35.25,0,0,1,1.31,3.63c.33,1.19.45,2.44.71,3.66a7.19,7.19,0,0,0,.5,1.21l.25,0a8.56,8.56,0,0,0,.5-1.33c.14-.74.18-1.51.31-2.26A8.1,8.1,0,0,1,71,12.86c0-.12.14-.23.15-.35a23.47,23.47,0,0,1,2.07-6.28,15.27,15.27,0,0,1,1.7-3.08A8.5,8.5,0,0,1,78.28.57a2.28,2.28,0,0,1,2.57,0,1.33,1.33,0,0,0,.73.21A2,2,0,0,1,83.31,2a7,7,0,0,1,.83,2.26c.26,1.92.43,3.87.52,5.81,0,1-.23,2-.28,2.94-.06,1.29,0,2.6-.08,3.89s-.26,2.7-.36,4.05c0,.57,0,1.14,0,1.71,0,2,0,4.08-.08,6.12,0,1.41,0,2.83-.11,4.24,0,.48-.2.95-.26,1.42a47.85,47.85,0,0,1-1.79,7.88c-.52,1.66-.82,3.38-1.25,5.07-.15.59-.37,1.17-.57,1.75-.34,1-.09,1.32,1,1.25l7-.48c1.21-.08,2.41-.14,3.61-.21a1.32,1.32,0,0,1,.32,0c1.79.31,3.6.59,5.38,1,.72.15,1.37.61,2.08.77s1.62,0,2.37.26c1.39.41,2.73,1,4.1,1.5a11.12,11.12,0,0,0,1.63.48,16.75,16.75,0,0,1,4.39,1.64c1.29.67,2.69,1.13,4,1.7a3.55,3.55,0,0,1,.78.41,5,5,0,0,0,2.17,1.37c.26,0,.45.45.72.6a2,2,0,0,0,1.06.41c1.05-.12,2.08-.46,3.13-.54a3.82,3.82,0,0,1,2,.38,18.37,18.37,0,0,1,3.72,2.74c.93.88.85,1.83.89,2.89.06,1.35-.68,2.49-.86,3.77a1.11,1.11,0,0,0,.54,1.32,10.5,10.5,0,0,1,1.65,1.54,22.38,22.38,0,0,1,1.81,1.89c.95,1.2,1.79,2.47,2.73,3.68a13.08,13.08,0,0,0,1.17,1.15c.41.42.82.85,1.22,1.27.16.17.28.42.48.5a2.87,2.87,0,0,1,1.49,1.83,6.71,6.71,0,0,0,2,2.65,9.12,9.12,0,0,1,1.74,2.33c.32.55.75,1,1.06,1.58a14.33,14.33,0,0,1,.8,1.77c.28.69.45,1.44.78,2.1.51,1,1.1,2,1.68,2.92.26.44.64.81.86,1.26.49,1,.95,2,1.37,3.08.64,1.56,1.28,3.12,1.84,4.72.34,1,.51,2,.76,2.95,0,.08,0,.19,0,.25.42.81.88,1.6,1.29,2.42a7.08,7.08,0,0,1,.66,1.55c.39,1.68.71,3.38,1.06,5.07.17.82.35,1.65.56,2.46a14.58,14.58,0,0,1,.49,1.64c.11.87.1,1.76.14,2.65a.8.8,0,0,0,0,.31c.78,1.36.37,2.83.41,4.25,0,.3,0,.59.06.89a15.88,15.88,0,0,1,.11,3.9,10.4,10.4,0,0,0,0,2.52,7.81,7.81,0,0,1-.13,2.83,17.83,17.83,0,0,0-.33,3c-.11,1-.28,2.06-.37,3.1-.16,1.78-.15,3.58-.46,5.33-.48,2.72-1.14,5.42-1.79,8.12-.56,2.32-1.15,4.64-1.83,6.92-.53,1.76-.85,3.61-2,5.15-.11.14-.09.37-.16.54-.39,1-.74,2.11-1.2,3.12-.77,1.72-2,3.2-2.46,5.09a9.59,9.59,0,0,1-.85,1.63c-.53,1.16-1,2.35-1.55,3.49a12.68,12.68,0,0,1-1.19,1.68c-1,1.42-2,2.9-3.15,4.25-.81,1-1.82,1.77-2.71,2.67-.7.71-1.33,1.49-2,2.19-1.32,1.29-2.55,2.66-4.4,3.28a4.73,4.73,0,0,0-1.61,1.41,8.2,8.2,0,0,1-2.41,1.62c-2,1-4,2-5.16,4.07a9,9,0,0,0-.56,1.41c-.39,1.18-.75,2.38-1.14,3.57-.51,1.5-1,3-1.57,4.5-.1.28-.23.55-.32.83-.19.6-.35,1.2-.53,1.8a1.59,1.59,0,0,1-.18.54,7.84,7.84,0,0,0-1,2.85,12.64,12.64,0,0,1-.91,1.74c-.13.26-.18.57-.33.82a7.15,7.15,0,0,1-.65,1c-.16.19-.44.3-.56.51-.78,1.36-2.13,2.13-3.25,3.11a3,3,0,0,1-4.08-.38c-1.24-1.26-1.31-2.83-1.23-4.41a26.27,26.27,0,0,1,.57-4,25.58,25.58,0,0,1,.91-2.65c.2-.63.34-1.28.51-1.93a2.47,2.47,0,0,1,.24-.79,5.64,5.64,0,0,0,.75-2.6c0-.25,0-.65-.11-.74a1.06,1.06,0,0,0-.84-.05,13.71,13.71,0,0,1-1.3.65c-1.58.36-3.15.7-4.75,1-1.91.31-3.83.5-5.74.79-1.69.26-3.38.58-5.06.86a8.71,8.71,0,0,1-1.21,0c-.91,0-1.83,0-2.74,0s-1.78,0-2.66,0c-1.82.1-3.63.36-5.45.34-1.59,0-3.17-.36-4.76-.51s-3.09-.23-4.63-.38c-1.14-.11-2.27-.31-3.41-.42a6.19,6.19,0,0,0-2.19,0,3.41,3.41,0,0,1-2.26-.18c-.29-.11-.84-.09-1,.09a1.3,1.3,0,0,0-.07,1.06c.33.93.75,1.82,1.17,2.71.2.44.51.83.71,1.27.48,1.08,1,2.16,1.35,3.28.49,1.45.93,2.93,1.28,4.42a2.89,2.89,0,0,1-.9,3.07.9.9,0,0,1-.51.23c-1.71,0-3.46.33-5.11-.42A3.75,3.75,0,0,1,58,227.35Z"/><path d="M61.9,126.53a2.42,2.42,0,0,1,2.59.67,2.74,2.74,0,0,1,.57,1.83,3.78,3.78,0,0,1-1.87,3.21,2.35,2.35,0,0,1-.8.23c-1.39-.13-2.46-.46-2.83-1.8a2.57,2.57,0,0,1-.1-1.24A4,4,0,0,1,61.9,126.53Z"/><path class="cls-1" d="M60.25,224.67a9.59,9.59,0,0,1-1.55-1.11,19,19,0,0,1-4.34-5.38c-.32-.63-.94-1.11-1.29-1.73-.56-1-1-2-1.5-3.06s-.79-1.92-1.18-2.88c-.21-.52,0-.89.42-1l2.26.64a2.14,2.14,0,0,0,.86.15c1.33-.22,2,.54,2.53,1.58,0,.09,0,.23.11.29,1.13,1.1,1.4,2.65,2,4a15.34,15.34,0,0,1,.68,2.16,2.3,2.3,0,0,0,.16.49,13.34,13.34,0,0,1,1.26,3.93c.09.43.34.83.44,1.26,0,.21,0,.59-.14.66A.9.9,0,0,1,60.25,224.67Z"/><path class="cls-3" d="M52.91,6.18a2,2,0,0,1,1.48,1.35c.23.79.5,1.57.7,2.37.12.49.12,1,.19,1.52.17,1.24.36,2.47.51,3.5,0,1-.06,1.74,0,2.5A11.14,11.14,0,0,0,56.07,19a4,4,0,0,1,.17.81c0,1.09-.08,2.19,0,3.27.12,1.58.34,3.15.56,4.72A37.42,37.42,0,0,0,57.57,32a42,42,0,0,1,.74,6.82c.14,1.44.13,2.9.28,4.33.09.9.33,1.78.51,2.66a5.34,5.34,0,0,1,.12.63c.08,1.25.15,2.49.23,3.74.07,1,.14,2.07.2,3.1a1.08,1.08,0,0,1-.74,1.15c-1,.43-2.07.88-3.13,1.28a1.29,1.29,0,0,1-1.66-1,5.08,5.08,0,0,1,0-2.67,14.91,14.91,0,0,0,.14-3.31c-.07-1.42-.25-2.84-.45-4.25-.23-1.62-.56-3.22-.78-4.84-.39-2.94-.7-5.88-1.09-8.82-.15-1.13-.43-2.24-.63-3.36-.16-.94-.27-1.89-.41-2.83a10.48,10.48,0,0,1-.19-1.19c-.05-1.59-.05-3.18-.13-4.77-.05-1.17-.26-2.33-.29-3.5,0-1.34,0-2.68.1-4a3.39,3.39,0,0,1,.28-.82c.35-1.05.67-2.12,1.05-3.16C51.95,6.74,52.17,6.15,52.91,6.18Z"/><path d="M51.15,69.73a3.65,3.65,0,0,1,2.16,3.86c-.17.72-.79.93-1.32,1.18a7.11,7.11,0,0,1-1.44.41c-.89,0-1.44-.2-1.74-.76A14.3,14.3,0,0,1,48,72.62a.87.87,0,0,1,.15-.57c.25-.47.59-.89.79-1.38A2,2,0,0,1,51.15,69.73Z"/><path d="M117.45,141.8a4.72,4.72,0,0,0,5.93,1.31c.74-.4,1.32-1.07,2-1.54a38.33,38.33,0,0,0,5.36-4.76c.53-.52,1-1.11,1.47-1.67.13-.14.24-.33.4-.41,1.37-.7,1.94-2.11,2.83-3.22a5.32,5.32,0,0,0,.54-1.28,10.7,10.7,0,0,1,.47-1c.18-.34.48-.67.85-.38a1.22,1.22,0,0,1,.45.92,7.9,7.9,0,0,1-2,4.59c-.46.52-1,1-1.48,1.47-.09.09-.22.18-.24.29-.33,1.55-1.74,2.22-2.7,3.24s-2.26,2.05-3.38,3.09c-.66.62-1.27,1.3-1.93,1.92a1.82,1.82,0,0,1-.75.46,2.25,2.25,0,0,0-1.8,2.14,14,14,0,0,1-1.6,5.4,6.48,6.48,0,0,1-1.35,2.11,3.85,3.85,0,0,0-.85,1.17c-.49,1-1.49,1.36-2.24,2a15.44,15.44,0,0,1-4.71,2.89c-1.53.62-3.14,1-4.71,1.57a57.64,57.64,0,0,0-6,2.09c-1.54.73-3.25,1.09-4.86,1.69-1.09.4-2.14.92-3.2,1.4a4,4,0,0,0-1,.55,5.06,5.06,0,0,0-.79,1c-.22.34-.39.7-.58,1.06a4.16,4.16,0,0,0,.27,4.25c.91,1.51.43,2.75-.47,3.92a1.38,1.38,0,0,1-1.64.36,17.09,17.09,0,0,0-4.57-.8c-.44-.06-.9.09-1.33,0a26.54,26.54,0,0,1-2.92-.56c-2.44-.63-4.87-1.3-7.28-2a21.89,21.89,0,0,1-2.47-1c-1.19-.51-2.38-1-3.55-1.57-.75-.35-1.45-.79-2.18-1.18-.28-.15-.59-.25-.86-.41a17.63,17.63,0,0,1-3.44-2.15C60,167.58,58.28,167.11,57,166a9.43,9.43,0,0,1-2.64-2.34c-.27-.46-.83-.73-1.17-1.16q-1.46-1.83-2.84-3.72a23.25,23.25,0,0,1-1.58-2.39,17.7,17.7,0,0,1-1.21-2.65,1.17,1.17,0,0,0-1.17-.88c-1.71,0-3.41,0-5.11,0a3,3,0,0,1-.7-.05c-1.91-.48-3.85-.89-5.73-1.48a24.75,24.75,0,0,1-3.72-1.61,24.27,24.27,0,0,1-3.47-2.05c-.68-.5-1.07-1.37-1.7-2a1.81,1.81,0,0,1-.53-1.74,1,1,0,0,1,.4-.57,3.42,3.42,0,0,1,.74-.36.88.88,0,0,1,1,.15c1.42,1.1,2.86,2.17,4.34,3.19,1.8,1.23,3.9,1.71,5.93,2.42a25.62,25.62,0,0,0,4.61.92,11.42,11.42,0,0,0,5-.59,5.25,5.25,0,0,0,3-2.65,5.55,5.55,0,0,0,.58-1.54c.13-.53-.23-.86-.64-1.14a5.12,5.12,0,0,0-3.14-.61c-1.21,0-2.41.2-3.61.2a21.43,21.43,0,0,1-2.85-.25c-.63-.08-1.24-.33-1.87-.38a9.11,9.11,0,0,1-4.54-2.17,1.74,1.74,0,0,0-.45-.32c-1.62-.45-2.7-1.66-3.88-2.72a10.5,10.5,0,0,1-2-2.22,11.24,11.24,0,0,1-.9-2.56c-.22-.68-.38-1.38-.62-2.06a5.45,5.45,0,0,1-.4-3.05c.15-.7.1-1.44.19-2.16.13-1.11.29-2.22.45-3.32a2,2,0,0,1,1.73-1.76c.86,0,1.13.59.86,1.38a9.4,9.4,0,0,0-.47,2.34,27,27,0,0,0,0,3.44,28.39,28.39,0,0,0,.4,2.82c0,.27.14.54.17.81a3.68,3.68,0,0,0,1,2.09,37.94,37.94,0,0,0,2.89,3.11,23.42,23.42,0,0,0,3.15,1.9,17.68,17.68,0,0,0,4.71,1.89,1.75,1.75,0,0,0,.82,0,.79.79,0,0,0,.56-1.09,11.1,11.1,0,0,1-.7-4.45c.09-.88.3-1.74.45-2.61a12,12,0,0,1,.26-1.51c.49-1.61,1-3.22,1.55-4.83.15-.48.2-1,.38-1.47a50.27,50.27,0,0,1,2-4.8,18.18,18.18,0,0,1,2.14-2.82c.39-.48.88-.87,1.26-1.34a9.4,9.4,0,0,1,3.2-2.26c1.21-.64,2.49-1.18,3.76-1.7,2-.83,4.06-1.67,6.31-1.5a22.23,22.23,0,0,1,2.66.57c.89.19,1.79.32,2.68.52a9.44,9.44,0,0,1,3.82,1.31c1.49,1.12,2.95,2.29,4.45,3.4a9.25,9.25,0,0,1,2.52,2.55,2.08,2.08,0,0,0,.61.55,1.52,1.52,0,0,1,.8,1.36c0,.22.2.45.31.67.33.65.63,1.3,1,1.92a1.05,1.05,0,0,0,.64.41.59.59,0,0,0,.47-.33c.41-1.3,1.48-2.11,2.28-3.11.3-.38.52-.82.82-1.19a17.92,17.92,0,0,1,1.66-1.84A14.24,14.24,0,0,1,92,113.88c.88-.36,1.8-.63,2.69-1a33.53,33.53,0,0,1,4.21-1.62,11.2,11.2,0,0,1,5.49.2c1,.28,2.09.51,3.14.76a16.3,16.3,0,0,1,4.4,1.57c1.69,1,3.39,1.94,5,3a37.42,37.42,0,0,1,3,2.39,7.94,7.94,0,0,1,2.55,4.55c.25,1,.54,2,.81,3,.08.3.18.61.33,1.1.25-.16.52-.24.64-.43a34.66,34.66,0,0,0,4.24-8.32c.48-1.62.94-3.26,1.55-4.84a17.92,17.92,0,0,1,1.52-2.72c.07-.12.4-.24.47-.19s.41.4.4.59a23.2,23.2,0,0,1-.3,2.72c-.24,1.29-.53,2.57-.87,3.84s-.69,2.23-1,3.34a29.21,29.21,0,0,1-3.11,6.13,35,35,0,0,1-2.37,2.91c-1.71,2.23-3.89,4-5.78,6.06-.54.58-1.07,1.18-1.57,1.79A2.21,2.21,0,0,0,117.45,141.8Zm3.16,5a6.88,6.88,0,0,0-1.58-.47c-1.21-.22-2.52-.26-3-1.74a.86.86,0,0,0-.19-.25,5,5,0,0,1-1.49-4.27,6.73,6.73,0,0,1,1.87-3.59q.34-.38.65-.77a9,9,0,0,1,.8-1.06c.69-.65,1.44-1.24,2.16-1.86a1,1,0,0,0,.24-1.32,4.62,4.62,0,0,1-.6-2,13.45,13.45,0,0,0-.39-4.24,10,10,0,0,0-3-4.95,13.36,13.36,0,0,0-4.75-2.78c-.59-.23-1.11-.62-1.7-.85-1.26-.49-2.53-1-3.82-1.38s-2.48-.74-3.73-1.07a4,4,0,0,0-1.07-.06,11.52,11.52,0,0,0-1.2.07,11.35,11.35,0,0,0-2.57.36,30.42,30.42,0,0,0-4.62,2.08,42.26,42.26,0,0,0-4,2.85,1.67,1.67,0,0,0-.48.59,29.27,29.27,0,0,0-2.58,5.27c-.19.7-.71,1.3-.88,2a9,9,0,0,0-.2,2.38,2,2,0,0,1-1.31,2,18.05,18.05,0,0,1-2.38.11c-.87,0-1.27-.34-1.34-1.23-.06-.72-.1-1.44-.17-2.16s-.16-1.3-.24-1.95c.36-2.89-.93-5.08-3-6.87-1-.83-2-1.63-3-2.39a10.61,10.61,0,0,0-3.91-2.31c-1.11-.25-2.22-.52-3.34-.76-.79-.17-1.59-.33-2.39-.43a13.93,13.93,0,0,0-6.47.93q-2.08.76-4.12,1.62a4.47,4.47,0,0,0-2.17,1.62c-1.14,1.79-2.3,3.56-3.39,5.37a6.12,6.12,0,0,0-.8,2c-.42,2.33-.76,4.67-1.09,7a19.6,19.6,0,0,0-.32,3.46,17.81,17.81,0,0,0,.61,3.11,1.58,1.58,0,0,0,1.38,1.29,20.08,20.08,0,0,1,2.07.25c.52.08,1,.25,1.56.3a3.53,3.53,0,0,1,2.86,2.72,7.08,7.08,0,0,1-.8,4.17,29.05,29.05,0,0,1-2.15,3.28,1.46,1.46,0,0,0,0,2,5.91,5.91,0,0,1,1.48,2.49c0,.22.32.39.48.58.78.94,1.61,1.84,2.34,2.82a9.93,9.93,0,0,0,2.8,3.07c.51.3.93.75,1.41,1.1,1.46,1.05,2.9,2.14,4.41,3.12,1.08.7,2.27,1.26,3.41,1.87s2.45,1.36,3.71,2c.88.42,1.83.67,2.74,1,1.11.43,2.18.95,3.31,1.31,2.24.72,4.52,1.37,6.77,2a5.68,5.68,0,0,0,3.08.23c.49-.12.82-.32.69-.92a10.63,10.63,0,0,1-.23-1.45,7.4,7.4,0,0,1,0-1.45,3.58,3.58,0,0,1,1.29-2,24.22,24.22,0,0,0,2.13-2,6.19,6.19,0,0,1,2.77-2c2.37-.92,4.67-2,7-3,1.65-.67,3.36-1.19,5-1.8s3.07-1.1,4.56-1.74c1.23-.52,2.37-1.23,3.6-1.76a20.18,20.18,0,0,0,5-3.33,7.11,7.11,0,0,0,2.41-5.48A.88.88,0,0,0,120.61,146.84Z"/><path class="cls-4" d="M53.31,73.59a3.65,3.65,0,0,0-2.16-3.86,2,2,0,0,0-2.17.94c-.2.49-.54.91-.79,1.38a.87.87,0,0,0-.15.57,14.3,14.3,0,0,0,.77,1.81c.3.56.85.74,1.74.76A7.11,7.11,0,0,0,52,74.77C52.52,74.52,53.14,74.31,53.31,73.59Zm31.35-8.8a5.85,5.85,0,0,0-1.2-.92,1.22,1.22,0,0,0-.91-.08A6.8,6.8,0,0,0,81,64.6a2.43,2.43,0,0,0,.34,4.07,6.33,6.33,0,0,0,1.62.57,2.13,2.13,0,0,0,1.16-.16c.9-.38,1-1.19.94-2,0-.53,0-1.06-.08-1.59A1.12,1.12,0,0,0,84.66,64.79Zm29.86-4.45c.16.1.4.1.52.23a1.36,1.36,0,0,1,.42.71.8.8,0,0,1-.39.62c-1.56.8-3.14,1.55-4.71,2.33-.23.11-.42.3-.64.41-1,.53-2,1.05-3,1.56-1.73.86-3.45,1.76-5.21,2.56-1.56.71-3.17,1.3-4.74,2-.74.32-1.43.74-2.17,1.05-1.08.45-2.19.82-3.27,1.27a8.6,8.6,0,0,0-1.43.83,19,19,0,0,1-4.33,1.83c-1.71.63-3.43,1.26-5.16,1.84a14.39,14.39,0,0,1-2.24.52c-1.63.27-3.27.5-4.91.73-.92.12-1.86.16-2.78.3a7.5,7.5,0,0,1-3.65-.35c-.61-.21-1.1.14-1.47.92-.25.53.08.76.43,1.1a12,12,0,0,0,6.24,3,2.3,2.3,0,0,1,.72.25,4.89,4.89,0,0,0,2.32.54c1.54.11,3.07.34,4.61.42,1.91.1,3.83.19,5.73.13,2.23-.07,4.45-.3,6.68-.48,1.3-.11,2.59-.29,3.89-.37,1.76-.11,3.53-.11,5.29-.26,1.44-.12,2.86-.35,4.29-.57,1-.16,2-.33,3.05-.58a20.87,20.87,0,0,0,3.36-1c2-.85,3.9-1.8,5.81-2.8a47.37,47.37,0,0,0,4.43-2.59,21.51,21.51,0,0,0,2.24-2.05c.33-.3.69-.55,1-.82a9,9,0,0,0,1-.79c.51-.53,1.07-.49,1.37.18a4.31,4.31,0,0,0,2,2.36l.05,0c1,1.25,2.17,2.44,3.09,3.76a14.6,14.6,0,0,0,2.8,3.09,3.79,3.79,0,0,1,1.65,2,.55.55,0,0,0,.22.31c1.78,1.29,2.63,3.25,3.77,5s1.53,3.59,2.48,5.29c.42.75.73,1.56,1.09,2.34a1.6,1.6,0,0,0,.34.52,7.52,7.52,0,0,1,1.8,2.51c.83,1.71,1.79,3.37,2.68,5.06a3.41,3.41,0,0,1,.29.9,17.22,17.22,0,0,0,1.45,4.71,19.89,19.89,0,0,1,1.1,3.53,2.65,2.65,0,0,0,.16.55,17.14,17.14,0,0,1,1.5,5.16c.18.94.39,1.88.59,2.82l-.23,0a29.27,29.27,0,0,0,.4,4.67c.42,1.74,0,3.37-.07,5,0,.82.15,1.64.17,2.47a26.58,26.58,0,0,1-.61,6.13c-.48,2.34-.83,4.72-1.28,7.08-.26,1.39-.62,2.76-.9,4.14s-.46,2.67-.76,4c-.18.82-.5,1.62-.75,2.42s-.55,1.7-.77,2.57a8.76,8.76,0,0,1-1.14,3.14,8.68,8.68,0,0,0-1.05,2.84c-.64,2.13-1.25,4.27-1.92,6.4a18.86,18.86,0,0,1-1,2.14c-.43.95-.85,1.89-1.31,2.83a1.61,1.61,0,0,1-.52.75c-.48.26-.62.7-.89,1.1a9.1,9.1,0,0,1-1.54,1.83,9.12,9.12,0,0,0-1.58,2.12c-.71,1.15-1.47,2.28-2.29,3.36a30.26,30.26,0,0,1-2.34,2.69c-1,1-2,1.92-3,2.92-.53.54-.93,1.23-1.5,1.72-.91.78-1.92,1.46-2.89,2.18a4,4,0,0,0-.65.5,9.64,9.64,0,0,1-3,2c-1.38.74-2.69,1.63-4.08,2.34-1.17.6-2.41,1.07-3.63,1.55A33,33,0,0,0,111,205.8a21.36,21.36,0,0,1-4.23,1.55,28.29,28.29,0,0,1-3.67,1c-1.5.27-3,.33-4.53.52a10.46,10.46,0,0,0-1.48.36,13.13,13.13,0,0,1-4.18.7c-1.78-.08-3.57,0-5.34-.16a57.28,57.28,0,0,1-6.76-1,29.5,29.5,0,0,0-5.89-.45,1.6,1.6,0,0,1-.56-.09c-2.33-.92-4.81-.94-7.25-1.24-1.59-.19-3.17-.55-4.75-.85-1.25-.24-2.5-.47-3.74-.76-1.67-.4-3.34-.81-5-1.29-1.82-.53-3.64-1-5.4-1.72a28.49,28.49,0,0,1-5.22-2.6,7.2,7.2,0,0,0-1.54-.74,13.25,13.25,0,0,1-5.06-3.17,43,43,0,0,1-3.72-3.55c-1.36-1.71-3.42-2.45-4.87-4-.73-.77-1.43-1.57-2.18-2.32-1-1.07-2.2-2-3.15-3.18a25.78,25.78,0,0,1-2-3.21A28.12,28.12,0,0,1,19,177.12c-.43-.92-.74-1.89-1.12-2.84-.19-.48-.45-.94-.63-1.43-.38-1.05-.76-2.11-1.1-3.18a29.92,29.92,0,0,0-2-5.22,10.94,10.94,0,0,1-.64-2.24c-.09-.3-.22-.59-.29-.9-.45-2.08-.91-4.16-1.32-6.26-.16-.85-.14-1.73-.28-2.59-.32-1.92-.72-3.82-1-5.74a12.46,12.46,0,0,1-.05-1.69c0-1.21,0-2.42-.1-3.63-.07-1-.29-2-.37-3-.06-.71,0-1.43,0-2.15S10,134.6,10,133.75c0-1.64,0-3.27,0-4.91,0-1.07.08-2.15.09-3.22,0-.63-.15-1.26-.13-1.89.05-1.23.18-2.46.29-3.69.09-1,.17-2.06.32-3.09.17-1.18.36-2.35.64-3.51.41-1.73.92-3.43,1.35-5.16s.74-3.4,1.21-5.08A32.35,32.35,0,0,1,15,99.61a35,35,0,0,1,2-4.49,25.62,25.62,0,0,0,1.59-3.72,9.63,9.63,0,0,1,1.82-3.3A6.73,6.73,0,0,0,21.11,87c.34-.53.68-1.05,1.06-1.56.25-.34.67-.6.8-1a11.44,11.44,0,0,1,1.86-3c.77-1,1.32-2.14,2-3.17s1.63-2.22,2.52-3.27a50.9,50.9,0,0,1,3.5-3.87,17.19,17.19,0,0,1,4.82-3.41,13.37,13.37,0,0,0,1.42-.9c.61-.38,1.24-.73,1.85-1.09a21.78,21.78,0,0,1,2.14-1.24c1-.46,2.11-.79,3.16-1.19a7.69,7.69,0,0,0,.84-.45,2.28,2.28,0,0,1,.56-.29A24.86,24.86,0,0,0,52.3,61a29.14,29.14,0,0,1,5.13-1.88c1.72-.4,3.41-.9,5.1-1.43.94-.3,1.81-.84,2.76-1.11,1.15-.33,2.35-.48,3.54-.71.49-.1,1-.18,1.47-.3s.81-.28,1.22-.35c3.33-.57,6.65-1.19,10-1.64,1.69-.22,3.43-.1,5.15-.16.47,0,.94-.15,1.41-.2a9.47,9.47,0,0,1,3.78.38,7.12,7.12,0,0,0,1.07.08,20.47,20.47,0,0,1,3.61.61,9.24,9.24,0,0,0,2.45.62,6.52,6.52,0,0,1,1.51.47c1.87.61,3.74,1.24,5.62,1.82,1.34.42,2.71.76,4.05,1.15A18.41,18.41,0,0,1,114.52,60.34ZM54.33,163.7A9.43,9.43,0,0,0,57,166c1.31,1.07,3,1.54,4.25,2.77A17.63,17.63,0,0,0,64.66,171c.27.16.58.26.86.41.73.39,1.43.83,2.18,1.18,1.17.55,2.36,1.05,3.55,1.57a21.89,21.89,0,0,0,2.47,1c2.42.71,4.85,1.37,7.28,2a26.54,26.54,0,0,0,2.92.56c.43.06.9-.09,1.33,0a17.09,17.09,0,0,1,4.57.8,1.38,1.38,0,0,0,1.64-.36c.9-1.17,1.38-2.41.47-3.92a4.16,4.16,0,0,1-.27-4.25c.19-.36.36-.73.58-1.06a5.06,5.06,0,0,1,.79-1,4,4,0,0,1,1-.55c1.06-.48,2.11-1,3.2-1.4,1.61-.6,3.32-1,4.86-1.69a57.64,57.64,0,0,1,6-2.09c1.57-.54,3.18-1,4.71-1.57a15.44,15.44,0,0,0,4.71-2.89c.74-.68,1.75-1.07,2.24-2a3.85,3.85,0,0,1,.85-1.17,6.48,6.48,0,0,0,1.35-2.11,14,14,0,0,0,1.6-5.4,2.25,2.25,0,0,1,1.8-2.14,1.82,1.82,0,0,0,.75-.46c.66-.63,1.27-1.3,1.93-1.92,1.12-1,2.35-2,3.38-3.09s2.37-1.69,2.7-3.24c0-.11.15-.2.24-.29.49-.49,1-1,1.48-1.47a7.9,7.9,0,0,0,2-4.59,1.22,1.22,0,0,0-.45-.92c-.37-.28-.67,0-.85.38a10.7,10.7,0,0,0-.47,1,5.32,5.32,0,0,1-.54,1.28c-.9,1.11-1.46,2.53-2.83,3.22-.16.08-.27.27-.4.41-.49.56-.94,1.15-1.47,1.67a38.33,38.33,0,0,1-5.36,4.76c-.71.47-1.29,1.14-2,1.54a4.72,4.72,0,0,1-5.93-1.31,2.21,2.21,0,0,1-.05-3c.5-.62,1-1.21,1.57-1.79,1.89-2.05,4.07-3.83,5.78-6.06a35,35,0,0,0,2.37-2.91,29.21,29.21,0,0,0,3.11-6.13c.35-1.11.74-2.22,1-3.34s.62-2.55.87-3.84a23.2,23.2,0,0,0,.3-2.72c0-.19-.22-.44-.4-.59s-.39.07-.47.19A17.92,17.92,0,0,0,130,114.3c-.6,1.58-1.06,3.22-1.55,4.84a34.66,34.66,0,0,1-4.24,8.32c-.11.18-.39.27-.64.43-.15-.5-.25-.8-.33-1.1-.27-1-.56-2-.81-3a7.94,7.94,0,0,0-2.55-4.55,37.42,37.42,0,0,0-3-2.39c-1.62-1.07-3.32-2-5-3a16.3,16.3,0,0,0-4.4-1.57c-1-.25-2.1-.48-3.14-.76a11.2,11.2,0,0,0-5.49-.2,33.53,33.53,0,0,0-4.21,1.62c-.89.34-1.81.61-2.69,1a14.24,14.24,0,0,0-4.11,2.75,17.92,17.92,0,0,0-1.66,1.84c-.31.37-.52.81-.82,1.19-.8,1-1.86,1.81-2.28,3.11a.59.59,0,0,1-.47.33,1.05,1.05,0,0,1-.64-.41c-.37-.62-.67-1.28-1-1.92-.11-.22-.31-.45-.31-.67a1.52,1.52,0,0,0-.8-1.36,2.08,2.08,0,0,1-.61-.55,9.25,9.25,0,0,0-2.52-2.55c-1.5-1.11-3-2.28-4.45-3.4a9.44,9.44,0,0,0-3.82-1.31c-.89-.2-1.79-.33-2.68-.52a22.23,22.23,0,0,0-2.66-.57c-2.25-.18-4.29.66-6.31,1.5-1.28.52-2.55,1.06-3.76,1.7a9.4,9.4,0,0,0-3.2,2.26c-.38.48-.87.87-1.26,1.34a18.18,18.18,0,0,0-2.14,2.82,50.27,50.27,0,0,0-2,4.8c-.18.47-.23,1-.38,1.47-.51,1.61-1.06,3.21-1.55,4.83a12,12,0,0,0-.26,1.51c-.15.87-.36,1.74-.45,2.61a11.1,11.1,0,0,0,.7,4.45.79.79,0,0,1-.56,1.09,1.75,1.75,0,0,1-.82,0,17.68,17.68,0,0,1-4.71-1.89,23.42,23.42,0,0,1-3.15-1.9,37.94,37.94,0,0,1-2.89-3.11,3.68,3.68,0,0,1-1-2.09c0-.27-.13-.54-.17-.81a28.39,28.39,0,0,1-.4-2.82,27,27,0,0,1,0-3.44,9.4,9.4,0,0,1,.47-2.34c.27-.8,0-1.34-.86-1.38a2,2,0,0,0-1.73,1.76c-.16,1.11-.32,2.21-.45,3.32-.09.72,0,1.46-.19,2.16a5.45,5.45,0,0,0,.4,3.05c.23.68.4,1.38.62,2.06a11.24,11.24,0,0,0,.9,2.56,10.5,10.5,0,0,0,2,2.22c1.18,1.06,2.27,2.27,3.88,2.72a1.74,1.74,0,0,1,.45.32,9.11,9.11,0,0,0,4.54,2.17c.63.05,1.24.3,1.87.38a21.43,21.43,0,0,0,2.85.25c1.2,0,2.41-.2,3.61-.2a5.12,5.12,0,0,1,3.14.61c.41.28.77.61.64,1.14a5.55,5.55,0,0,1-.58,1.54,5.25,5.25,0,0,1-3,2.65,11.42,11.42,0,0,1-5,.59,25.62,25.62,0,0,1-4.61-.92c-2-.71-4.13-1.19-5.93-2.42-1.48-1-2.92-2.09-4.34-3.19a.88.88,0,0,0-1-.15,3.42,3.42,0,0,0-.74.36,1,1,0,0,0-.4.57,1.81,1.81,0,0,0,.53,1.74c.63.59,1,1.45,1.7,2a24.27,24.27,0,0,0,3.47,2.05,24.75,24.75,0,0,0,3.72,1.61c1.88.59,3.82,1,5.73,1.48a3,3,0,0,0,.7.05c1.7,0,3.4,0,5.11,0a1.17,1.17,0,0,1,1.17.88,17.7,17.7,0,0,0,1.21,2.65,23.25,23.25,0,0,0,1.58,2.39q1.38,1.89,2.84,3.72C53.5,163,54.07,163.24,54.33,163.7Z"/></svg>