<svg id="圖層_1" data-name="圖層 1" xmlns="http://www.w3.org/2000/svg" viewBox="0 0 157 155.06"><defs><style>.cls-1{fill:#e3a032;}.cls-2{fill:#fff;}.cls-3{fill:#b7543b;}.cls-4{fill:none;stroke:#221714;stroke-miterlimit:10;stroke-width:2px;}</style></defs><title>graphic</title><path class="cls-1" d="M42.76,132.2a31.18,31.18,0,0,0,4.2,3.4c1.54,1,3.29,1.67,4.9,2.57a46.79,46.79,0,0,0,18.76,5.9,53.24,53.24,0,0,0,5.36.82c2.66.15,5.37.57,7.94-.66,1.07-.51,2.18-.93,3.28-1.36,3.47-1.38,7-2.59,10.38-4.16a61.75,61.75,0,0,0,13.73-8.91c1.53-1.29,3.23-2.42,4.62-3.85a52.75,52.75,0,0,0,5-5.89,59.27,59.27,0,0,0,5.41-8.37,73.2,73.2,0,0,0,3.83-10.27,22,22,0,0,0,1.33-8.22,65.3,65.3,0,0,1,.1-7.88c.28-5.44-1.4-10.33-4.11-14.93-1.17-2-2.33-4-3.65-5.88-2.08-3-4.18-6-6.5-8.83a16.09,16.09,0,0,0-4.18-3.31c-1.75-1-3.73-1.7-5.51-2.7-1.61-.9-3-2.18-4.64-3a90.56,90.56,0,0,0-9.19-4.21c-2.72-1-5.58-1.66-8.35-2.59a34.37,34.37,0,0,0-13-1.49A53.34,53.34,0,0,0,64,39.65c-3.1.69-6.12,1.74-9.2,2.51a14,14,0,0,0-7.52,4.39,6.09,6.09,0,0,1-1,1,74.92,74.92,0,0,0-16.64,16,63.36,63.36,0,0,0-5.91,10.11,52.57,52.57,0,0,0-3.95,13.48A20.27,20.27,0,0,0,20,95.6c.5,2.19.87,4.41,1.33,6.61a6.52,6.52,0,0,0,.47,1.11,8.21,8.21,0,0,1,.92,2.27c.27,3.2,1.84,5.95,3.53,8.42a98.38,98.38,0,0,0,8.55,10.44C37.3,127.19,40.06,129.67,42.76,132.2Zm70.11-87.76c1.63,1.19,3.06,2.65,4.62,3.94a38.44,38.44,0,0,1,6.91,8c.76,1.1,1.62,2.12,2.32,3.25,1.15,1.86,2.31,3.72,3.28,5.67,1.57,3.15,3.1,6.33,4.44,9.59,2.24,5.47,2.06,11.24,1.83,17-.1,2.57.2,5.15.29,7.73a6.88,6.88,0,0,1-.13,1.69c-1,4.52-1.79,9.09-4,13.27-1.11,2.11-1.65,4.59-3,6.46a108.11,108.11,0,0,1-7.25,8.19,21.1,21.1,0,0,1-2,2c-2.89,2.45-5.82,4.86-8.73,7.28a43.63,43.63,0,0,1-4.49,3.72A53.93,53.93,0,0,1,93.88,148c-4.23,1.28-8.55,2.31-12.87,3.25-1.25.27-2.65-.2-4-.22-3.36,0-6.74.19-10.07-.11a35.66,35.66,0,0,1-6.65-1.77,42.44,42.44,0,0,1-4.09-1.41c-1.6-.66-3.16-1.43-4.73-2.17-1-.47-2.07-.9-3.05-1.45-2.31-1.32-4.6-2.69-6.88-4.07a10.73,10.73,0,0,1-2.1-1.53c-2.49-2.52-4.88-5.14-7.38-7.66-2.17-2.19-4.5-4.22-6.62-6.46a26,26,0,0,1-2.52-3.7c-1.43-2.18-2.86-4.36-4.3-6.54a9.09,9.09,0,0,1-1.23-1.77c-1.07-3.12-2-6.3-3.08-9.4-1.46-4.1-.85-8.4-1.35-12.59a29.82,29.82,0,0,1,.26-5c1.12-3.84,2.13-8,3.57-11.94a72.77,72.77,0,0,1,4.26-9c.58-1.1,1.74-1.88,2.47-2.92A83.9,83.9,0,0,1,37,46.89a58.53,58.53,0,0,1,11.65-8,56.16,56.16,0,0,1,9.56-3.79,65.38,65.38,0,0,1,10.32-2.45,31,31,0,0,1,8.76,0c4.55.68,9,1.89,13.54,2.86A37,37,0,0,1,101.28,39a8,8,0,0,0,2.72.56C107.59,40,110.13,42.43,112.87,44.43Z"/><path d="M107.63,49.67c1.78,1,3.77,1.65,5.51,2.7a16.09,16.09,0,0,1,4.18,3.31c2.32,2.82,4.41,5.83,6.5,8.83,1.31,1.89,2.48,3.89,3.65,5.88,2.71,4.6,4.39,9.48,4.11,14.93a65.3,65.3,0,0,0-.1,7.88,22,22,0,0,1-1.33,8.22,73.2,73.2,0,0,1-3.83,10.27,59.27,59.27,0,0,1-5.41,8.37,52.75,52.75,0,0,1-5,5.89c-1.39,1.43-3.09,2.56-4.62,3.85a61.75,61.75,0,0,1-13.73,8.91c-3.37,1.58-6.92,2.78-10.38,4.16-1.1.44-2.21.86-3.28,1.36-2.57,1.22-5.28.8-7.94.66a53.24,53.24,0,0,1-5.36-.82,46.79,46.79,0,0,1-18.76-5.9c-1.61-.9-3.36-1.57-4.9-2.57a31.18,31.18,0,0,1-4.2-3.4c-2.7-2.53-5.47-5-7.95-7.74A98.38,98.38,0,0,1,26.27,114c-1.69-2.48-3.26-5.22-3.53-8.42a8.21,8.21,0,0,0-.92-2.27,6.52,6.52,0,0,1-.47-1.11c-.46-2.2-.83-4.42-1.33-6.61a20.27,20.27,0,0,1-.2-8.52,52.57,52.57,0,0,1,3.95-13.48,63.36,63.36,0,0,1,5.91-10.11,74.92,74.92,0,0,1,16.64-16,6.09,6.09,0,0,0,1-1,14,14,0,0,1,7.52-4.39c3.09-.77,6.11-1.82,9.2-2.51a53.34,53.34,0,0,1,8.38-1.29,34.37,34.37,0,0,1,13,1.49c2.77.93,5.63,1.57,8.35,2.59A90.56,90.56,0,0,1,103,46.65C104.62,47.48,106,48.77,107.63,49.67ZM62.42,139.29c1.61.38,3.27.6,4.84,1.1a26.27,26.27,0,0,0,16.51-.11,104.84,104.84,0,0,0,10.46-3.62,114.59,114.59,0,0,0,12.18-6.39,28.19,28.19,0,0,0,6-5c2.7-2.91,5-6.17,7.64-9.15,2.22-2.53,4.41-5.1,5.57-8.28s2.8-6.46,2.9-10a51.81,51.81,0,0,0-.15-5.51c-.2-2.59-.64-5.17.05-7.75a.64.64,0,0,0,0-.31c-.82-3.06-1.44-6.19-2.51-9.16a63.75,63.75,0,0,0-3.83-8.2c-.93-1.76-2.32-3.27-3.29-5a19.19,19.19,0,0,0-8.88-7.9,29,29,0,0,1-4.69-2.29,47.62,47.62,0,0,0-15.91-7.44c-4.59-1.23-9.3-2-14-3a3.26,3.26,0,0,0-.77.07c-.72,0-1.43,0-2.15.08a26.4,26.4,0,0,0-5.52.5,69.6,69.6,0,0,0-9.66,3.58c-2.67,1.24-5.43,2.4-7.61,4.62-1.31,1.34-3.27,2-4.65,3.3-3.77,3.52-7.39,7.2-11,10.85a17.75,17.75,0,0,0-2,2.54,54.4,54.4,0,0,0-8.44,21.42c0,2.73-.14,5.48.16,8.18a26.49,26.49,0,0,0,4.08,12.3c2.34,3.44,4.71,6.86,7.16,10.21a49.43,49.43,0,0,0,5.2,6.4A83.92,83.92,0,0,0,48.22,132c1.72,1.29,3.89,2,5.56,3.33A20.87,20.87,0,0,0,62.42,139.29Z"/><path d="M116.21,97.67c1.37.44,2.75.86,4.14,1.21,1.05.26,1.9.62,1.7,1.92a2,2,0,0,1-2.53,1.61c-.2,0-.4-.1-1-.27-1.35-.21-3.12-.51-4.89-.77-.81-.12-1.16-.43-1.06-1.32A3.06,3.06,0,0,1,116.21,97.67Z"/><path class="cls-2" d="M112.57,100.05c-.11.89.25,1.21,1.06,1.32,1.77.25,3.54.55,4.89.77.61.16.81.23,1,.27a2,2,0,0,0,2.53-1.61c.19-1.3-.65-1.66-1.7-1.92-1.39-.35-2.77-.77-4.14-1.21A3.06,3.06,0,0,0,112.57,100.05ZM30,85.91c1.18,1.3,5.17,1.81,7,.86.37-.19,1-.72.9-.84a2.26,2.26,0,0,0-1-1.18c-1.39-.5-2.84-.84-4.59-1.34a8.79,8.79,0,0,0-1.65.14C29.08,83.92,28.88,84.71,30,85.91Zm79.9-32a19.19,19.19,0,0,1,8.88,7.9c1,1.74,2.36,3.25,3.29,5a63.75,63.75,0,0,1,3.83,8.2c1.07,3,1.7,6.1,2.51,9.16a.64.64,0,0,1,0,.31c-.7,2.58-.25,5.16-.05,7.75a51.81,51.81,0,0,1,.15,5.51c-.11,3.58-1.71,6.78-2.9,10s-3.34,5.74-5.57,8.28c-2.62,3-4.94,6.24-7.64,9.15a28.19,28.19,0,0,1-6,5,114.59,114.59,0,0,1-12.18,6.39,104.84,104.84,0,0,1-10.46,3.62,26.27,26.27,0,0,1-16.51.11c-1.57-.5-3.23-.72-4.84-1.1a20.87,20.87,0,0,1-8.64-3.91c-1.67-1.34-3.84-2-5.56-3.33A83.92,83.92,0,0,1,40,125.23a49.43,49.43,0,0,1-5.2-6.4c-2.46-3.35-4.82-6.77-7.16-10.21a26.49,26.49,0,0,1-4.08-12.3c-.3-2.7-.12-5.45-.16-8.18a54.4,54.4,0,0,1,8.44-21.42,17.75,17.75,0,0,1,2-2.54c3.64-3.65,7.27-7.32,11-10.85,1.38-1.29,3.34-2,4.65-3.3,2.17-2.22,4.94-3.38,7.61-4.62a69.6,69.6,0,0,1,9.66-3.58,26.4,26.4,0,0,1,5.52-.5c.71-.05,1.43,0,2.15-.08a3.26,3.26,0,0,1,.77-.07c4.66,1,9.37,1.77,14,3a47.62,47.62,0,0,1,15.91,7.44A29,29,0,0,0,109.87,53.92ZM80.45,55c-.08,1.43,1.38,2.75,2.25,2a8.57,8.57,0,0,0,2-2.46,36.46,36.46,0,0,0,1.65-3.8c.09-.22.2-.62.11-.69-.84-.65-1.66-1.57-2.61-1.75-.62-.11-1.68.74-2.11,1.43a12.31,12.31,0,0,0-1,3.07l.13,0A15,15,0,0,0,80.45,55ZM74.89,81.56c-.68,2.91-1.29,5.84-2,9.16-2.46-.72-4.74-1.51-7.08-2-2.14-.48-4.34-.7-6.53-1-2.62-.35-5.23-.73-7.86-1a8.89,8.89,0,0,0-3.48.32c-.64.21-1.49,1.2-1.43,1.74s.91,1.4,1.59,1.81a5.79,5.79,0,0,0,2.25.52c2.39.28,4.81.43,7.19.8,3,.45,6,1.06,8.94,1.61,1.29.24,2.6.44,3.87.75s2.37.83,3.58,1.09c2.43.51,3.11,0,3.55-2.54.27-1.57.58-3.15,1-4.69.46-1.72,1.25-3.37,1.55-5.11.77-4.43,1.4-8.89,2-13.35a20.34,20.34,0,0,0-.08-4.43c0-.26-1.07-.73-1.18-.63-1.26,1.22-3,2.08-3.25,4.13-.36,2.7-.77,5.39-1.29,8.06C75.87,78.43,75.26,80,74.89,81.56ZM64.37,133a2,2,0,0,0,.53,1.61,1.52,1.52,0,0,0,2.3-.43c.74-1.38,1.33-2.84,2-4.27l-.2-.1a7.23,7.23,0,0,0,0-1.08c-.1-.83.48-2-1-2.18a2.23,2.23,0,0,0-2.82,1.92C64.89,129.93,64.54,131.44,64.37,133Z"/><path class="cls-3" d="M107.7,24.38l.41.12q-1.71,5.37-3.43,10.74a1.22,1.22,0,0,1-1.83.85c-1.14-.49-2.25-1-3.37-1.56-1.27-.61-1.57-1.5-1.15-2.9,1.21-4,2.31-8.06,3.38-12.12a6.84,6.84,0,0,1,3-3.77,2.55,2.55,0,0,1,2.44.05,4.09,4.09,0,0,1,1.35,2.75A43.39,43.39,0,0,1,107.7,24.38Z"/><path class="cls-3" d="M94.58,32.4c-.32,1.21-1.31,1.68-2,.81-1.27-1.49-3-1.66-4.63-2.26s-1.86-1.41-1.48-2.84c1.11-4.14,2-8.33,3.36-12.4A53.44,53.44,0,0,1,93.32,8a3.37,3.37,0,0,1,1.86-1.45c1.47-.46,2.64.5,2.8,2.59.25,3.33.22,6.68.29,9.53Z"/><path d="M81.71,49.73c.43-.69,1.49-1.54,2.11-1.43,1,.18,1.77,1.1,2.61,1.75.09.07,0,.47-.11.69a36.46,36.46,0,0,1-1.65,3.8,8.57,8.57,0,0,1-2,2.46c-.87.71-2.33-.61-2.25-2a15,15,0,0,1,.42-2.12l-.13,0A12.31,12.31,0,0,1,81.71,49.73Z"/><path d="M68,126.5c1.49.19.9,1.35,1,2.18a7.23,7.23,0,0,1,0,1.08l.2.1c-.66,1.43-1.25,2.89-2,4.27a1.52,1.52,0,0,1-2.3.43,2,2,0,0,1-.53-1.61c.18-1.52.52-3,.82-4.53A2.23,2.23,0,0,1,68,126.5Z"/><path d="M72.88,90.72c.72-3.32,1.33-6.25,2-9.16.37-1.59,1-3.13,1.29-4.73.52-2.67.93-5.36,1.29-8.06.27-2.05,2-2.91,3.25-4.13.11-.11,1.16.37,1.18.63A20.34,20.34,0,0,1,82,69.69c-.57,4.46-1.2,8.92-2,13.35-.3,1.74-1.09,3.39-1.55,5.11-.41,1.54-.71,3.12-1,4.69-.44,2.5-1.12,3.05-3.55,2.54-1.22-.26-2.37-.79-3.58-1.09s-2.58-.52-3.87-.75c-3-.55-5.95-1.16-8.94-1.61-2.38-.36-4.8-.51-7.19-.8a5.79,5.79,0,0,1-2.25-.52c-.68-.41-1.51-1.14-1.59-1.81s.79-1.53,1.43-1.74a8.89,8.89,0,0,1,3.48-.32c2.63.22,5.25.6,7.86,1,2.18.29,4.38.51,6.53,1C68.14,89.21,70.42,90,72.88,90.72Z"/><path class="cls-3" d="M83.5,27.7c-.25,1.57-.93,2.26-2.56,2.09-1.07-.11-2.17.05-3.23-.07a1.57,1.57,0,0,1-1.15-.85,13.56,13.56,0,0,1-.4-3.46c.08-2.47.32-4.94.5-7.59.5-3.89,1.23-7.91,3.7-11.31a9,9,0,0,1,3-2.53c1.69-.89,3.49.62,3.6,2.92a41.33,41.33,0,0,1-2.11,14.16A47.57,47.57,0,0,0,83.5,27.7Z"/><path d="M32.31,83.41c1.75.49,3.2.83,4.59,1.34a2.26,2.26,0,0,1,1,1.18c.06.12-.53.65-.9.84-1.87,1-5.86.44-7-.86s-.88-2,.69-2.36A8.79,8.79,0,0,1,32.31,83.41Z"/><path class="cls-4" d="M13.23,85.36a29.82,29.82,0,0,0-.26,5c.5,4.19-.11,8.49,1.35,12.59,1.11,3.11,2,6.28,3.08,9.4a9.09,9.09,0,0,0,1.23,1.77c1.44,2.18,2.86,4.36,4.3,6.54a26,26,0,0,0,2.52,3.7c2.12,2.24,4.45,4.27,6.62,6.46,2.49,2.52,4.89,5.13,7.38,7.66a10.73,10.73,0,0,0,2.1,1.53c2.28,1.38,4.56,2.75,6.88,4.07,1,.56,2,1,3.05,1.45,1.57.73,3.13,1.51,4.73,2.17a42.44,42.44,0,0,0,4.09,1.41,35.66,35.66,0,0,0,6.65,1.77c3.33.31,6.71.07,10.07.11,1.33,0,2.73.49,4,.22,4.32-.94,8.64-2,12.87-3.25A53.93,53.93,0,0,0,107,142.25a43.63,43.63,0,0,0,4.49-3.72c2.91-2.43,5.83-4.84,8.73-7.28a21.1,21.1,0,0,0,2-2,108.11,108.11,0,0,0,7.25-8.19c1.38-1.88,1.92-4.35,3-6.46,2.2-4.17,3-8.75,4-13.27a6.88,6.88,0,0,0,.13-1.69c-.09-2.58-.4-5.16-.29-7.73.23-5.78.41-11.54-1.83-17-1.33-3.26-2.87-6.44-4.44-9.59-1-2-2.13-3.82-3.28-5.67-.7-1.13-1.57-2.15-2.32-3.25a38.44,38.44,0,0,0-6.91-8c-1.56-1.29-3-2.75-4.62-3.94-2.74-2-5.28-4.42-8.87-4.92a8,8,0,0,1-2.72-.56,37,37,0,0,0-10.43-3.53c-4.51-1-9-2.19-13.54-2.86a31,31,0,0,0-8.76,0,65.38,65.38,0,0,0-10.32,2.45,56.16,56.16,0,0,0-9.56,3.79,58.53,58.53,0,0,0-11.65,8A83.9,83.9,0,0,0,23.51,61.47c-.72,1-1.89,1.82-2.47,2.92a72.77,72.77,0,0,0-4.26,9C15.36,77.39,14.35,81.53,13.23,85.36Z"/><path class="cls-4" d="M76.67,17.81c-.19,2.64-.42,5.11-.5,7.59a13.56,13.56,0,0,0,.4,3.46,1.57,1.57,0,0,0,1.15.85c1.06.12,2.16,0,3.23.07,1.63.18,2.31-.52,2.56-2.09a47.57,47.57,0,0,1,1.37-6.64A41.33,41.33,0,0,0,87,6.9c-.11-2.3-1.91-3.81-3.6-2.92a9,9,0,0,0-3,2.53C77.9,9.9,77.16,13.92,76.67,17.81Z"/><path class="cls-4" d="M98.27,18.7c-.07-2.85,0-6.2-.29-9.53-.16-2.09-1.32-3-2.8-2.59A3.37,3.37,0,0,0,93.32,8a53.44,53.44,0,0,0-3.52,7.69c-1.32,4.07-2.25,8.26-3.36,12.4-.38,1.42,0,2.26,1.48,2.84s3.36.77,4.63,2.26c.73.86,1.71.39,2-.81Z"/><path class="cls-4" d="M108.11,24.5l-.41-.12a43.39,43.39,0,0,0,.84-5.83,4.09,4.09,0,0,0-1.35-2.75,2.55,2.55,0,0,0-2.44-.05,6.84,6.84,0,0,0-3,3.77c-1.07,4.05-2.17,8.1-3.38,12.12-.42,1.4-.12,2.29,1.15,2.9,1.12.53,2.23,1.07,3.37,1.56a1.22,1.22,0,0,0,1.83-.85Q106.41,29.88,108.11,24.5Z"/><path class="cls-4" d="M131.26,97.08a32.43,32.43,0,0,1-1.11,4.33,73.2,73.2,0,0,1-3.83,10.27,59.27,59.27,0,0,1-5.41,8.37,52.75,52.75,0,0,1-5,5.89c-1.39,1.43-3.09,2.56-4.62,3.85a61.75,61.75,0,0,1-13.73,8.91c-3.37,1.58-6.92,2.78-10.38,4.16-1.1.44-2.21.86-3.28,1.36-2.57,1.22-5.28.8-7.94.66a53.24,53.24,0,0,1-5.36-.82,46.79,46.79,0,0,1-18.76-5.9c-1.61-.9-3.36-1.57-4.9-2.57a31.18,31.18,0,0,1-4.2-3.4c-2.7-2.53-5.47-5-7.95-7.74A98.38,98.38,0,0,1,26.27,114c-1.69-2.48-3.26-5.22-3.53-8.42a8.21,8.21,0,0,0-.92-2.27,6.52,6.52,0,0,1-.47-1.11c-.46-2.2-.83-4.42-1.33-6.61a20.27,20.27,0,0,1-.2-8.52,52.57,52.57,0,0,1,3.95-13.48,63.36,63.36,0,0,1,5.91-10.11,74.92,74.92,0,0,1,16.64-16,6.09,6.09,0,0,0,1-1,14,14,0,0,1,7.52-4.39c3.09-.77,6.11-1.82,9.2-2.51a53.34,53.34,0,0,1,8.38-1.29,34.37,34.37,0,0,1,13,1.49c2.77.93,5.63,1.57,8.35,2.59A90.56,90.56,0,0,1,103,46.65c1.63.83,3,2.12,4.64,3,1.78,1,3.77,1.65,5.51,2.7a16.09,16.09,0,0,1,4.18,3.31c2.32,2.82,4.41,5.83,6.5,8.83,1.31,1.89,2.48,3.89,3.65,5.88,2.71,4.6,4.39,9.48,4.11,14.93a65.3,65.3,0,0,0-.1,7.88A16.2,16.2,0,0,1,131.26,97.08Z"/><path class="cls-4" d="M23.44,88.15c0,2.73-.14,5.48.16,8.18a26.49,26.49,0,0,0,4.08,12.3c2.34,3.44,4.71,6.86,7.16,10.21a49.43,49.43,0,0,0,5.2,6.4A83.92,83.92,0,0,0,48.22,132c1.72,1.29,3.89,2,5.56,3.33a20.87,20.87,0,0,0,8.64,3.91c1.61.38,3.27.6,4.84,1.1a26.27,26.27,0,0,0,16.51-.11,104.84,104.84,0,0,0,10.46-3.62,114.59,114.59,0,0,0,12.18-6.39,28.19,28.19,0,0,0,6-5c2.7-2.91,5-6.17,7.64-9.15,2.22-2.53,4.41-5.1,5.57-8.28s2.8-6.46,2.9-10a51.81,51.81,0,0,0-.15-5.51c-.2-2.59-.64-5.17.05-7.75a.64.64,0,0,0,0-.31c-.82-3.06-1.44-6.19-2.51-9.16a63.75,63.75,0,0,0-3.83-8.2c-.93-1.76-2.32-3.27-3.29-5a19.19,19.19,0,0,0-8.88-7.9,29,29,0,0,1-4.69-2.29,47.62,47.62,0,0,0-15.91-7.44c-4.59-1.23-9.3-2-14-3a3.26,3.26,0,0,0-.77.07c-.72,0-1.43,0-2.15.08a26.4,26.4,0,0,0-5.52.5,69.6,69.6,0,0,0-9.66,3.58c-2.67,1.24-5.43,2.4-7.61,4.62-1.31,1.34-3.27,2-4.65,3.3-3.77,3.52-7.39,7.2-11,10.85a17.75,17.75,0,0,0-2,2.54A54.4,54.4,0,0,0,23.44,88.15Z"/></svg>