<svg id="圖層_1" data-name="圖層 1" xmlns="http://www.w3.org/2000/svg" xmlns:xlink="http://www.w3.org/1999/xlink" viewBox="0 0 245.99 250.83"><defs><style>.cls-1,.cls-2{fill:none;}.cls-1{clip-rule:evenodd;}.cls-3{fill:#fff;stroke:#fff;stroke-miterlimit:10;stroke-width:7px;}.cls-4{clip-path:url(#clip-path);}.cls-5{fill:#090506;}.cls-10,.cls-11,.cls-12,.cls-13,.cls-14,.cls-15,.cls-16,.cls-17,.cls-5,.cls-6,.cls-7,.cls-8,.cls-9{fill-rule:evenodd;}.cls-6{fill:#335e9a;}.cls-7{fill:#fefefe;}.cls-8{fill:#4674aa;}.cls-9{fill:#213755;}.cls-10{fill:#ab2b27;}.cls-11{fill:#345f9a;}.cls-12{fill:#dcb536;}.cls-13{fill:#c25540;}.cls-14{fill:#f8f8f8;}.cls-15{fill:#273956;}.cls-16{fill:#f4f4f5;}.cls-17{fill:#d6b13e;}.cls-18{clip-path:url(#clip-path-2);}</style><clipPath id="clip-path"><polygon class="cls-1" points="81.4 17.54 90.9 50.54 148.9 52.54 135.9 26.04 86.9 10.04 81.4 17.54"/></clipPath><clipPath id="clip-path-2"><ellipse class="cls-2" cx="125.56" cy="135.01" rx="98.96" ry="98.53"/></clipPath></defs><title>GraphicE</title><circle class="cls-3" cx="121.06" cy="139.43" r="100.46"/><g class="cls-4"><path class="cls-5" d="M50.07,162.55a14.1,14.1,0,0,0-1.85,4.66,13.92,13.92,0,0,1-2.79,5.1c-1.32,1.7-3.36,1.56-5.19.67-5.22-2.54-5-7.14-4.33-11.58,1.47-9.67,4.29-18.88,10-27a88.75,88.75,0,0,0,7.51-12.22c2-4.2,4.36-8.28,6.19-12.56,3-7.06,7.67-12.94,12.57-18.66,2.06-2.41,3.65-5.29,6.45-7,.86-.53.39-1,.15-1.62a21,21,0,0,1-1.07-13.75C79,64.19,85.33,59,89.86,58.74c1.88-.13,3.77-.16,5.66-.17,1.36,0,1.85-.62,1.48-1.91-2.11-7.4-1.77-15.2-3.81-22.64-1.34-4.88.9-9.29,3.35-13.35,1.64-2.72,4.65-2.51,7-.3,2.95,2.78,4.34,6.31,5.43,10,.94,3.19,2.25,6.22,3.49,9.74.95-2.44,1.19-4.74,2.3-6.72.43-.76.72-1.59,1.17-2.33,1.37-2.24,2.41-2.12,4.54-.6,3.48,2.49,4,6.15,4.64,9.87A5.82,5.82,0,0,0,125.9,43a13.35,13.35,0,0,1,2.14-4.7c1-1.46,2.14-1.62,3.75-.88,3.39,1.56,4.32,4.45,4.45,7.79.24,5.95-.55,11.84-1.15,17.74-.12,1.17,0,1.56,1.21,1.66,7.56.66,14.71,2.81,21.8,5.47,5.22,2,10.64,3.36,15.35,6.48.85.57,1.28,0,1.86-.48,3.42-2.68,6.46-5.83,10-8.32s7.48-3.07,11.46-3.75c2.32-.4,4.5,2.16,4,4.57-1.05,5-2.16,10.06-6.44,13.65-1.7,1.43-2.74,3.56-4.62,4.87-1.32.92-1.07,1.81-.07,2.78,6.13,5.92,9.59,13.55,13.43,20.95,1.42,2.75,1.89,5.78,2.48,8.74a29.32,29.32,0,0,0,2.14,6.81c.84,1.79.87,3.78,1.38,5.65,1,3.73,3.36,6.42,6,8.86,2.87,2.64,5.94,5.12,9.71,6.47a14,14,0,0,1,3.69,2.27,4.27,4.27,0,0,1,.35,6.61c-4.76,4.67-6.65,5-12.67,2-1.49-.73-3-1.41-4.76-2.23-.54,3.73-1.81,7.12-2.39,10.75-1,6.25-3.59,12-6.59,17.58a65.86,65.86,0,0,1-11,15.28,47.7,47.7,0,0,1-18.55,12.16c-1.64.57-3.08,1.61-4.79,2-.93.23-1.33,1.1-1.6,1.94-1.38,4.27-3.28,8.35-4.34,12.74a21.11,21.11,0,0,1-2.35,5.36c-1,1.79-.43,2.6,1.3,3.15,1.1.35,2.17.82,3.26,1.2a1.94,1.94,0,0,1,1.48,1.93c-.09,1.05-1.12,1.26-2,1.19a20.61,20.61,0,0,1-9.06-2.74,3.22,3.22,0,0,1-1.31-3.82,61.3,61.3,0,0,0,1.69-14.84c0-1.31-.36-1.89-1.74-1.69-5.37.78-10.81.35-16.21,1.08-9,1.21-18-.15-27-.55a25.14,25.14,0,0,1-5.08-1.1c-1-.26-1.61-.37-1.56,1.05.22,5.43.34,10.86,1.86,16.14.72,2.51-1,5.44-3.78,6.56s-6,.21-7.23-2.15a2.23,2.23,0,0,1-.21-2.46c.55-.75,1.47-.4,2.23-.24a3.46,3.46,0,0,1,1.42.5,2,2,0,0,0,2.92-.35c.87-.88.56-2-.1-3A79.27,79.27,0,0,1,92.22,215c-.77-2.33-1.71-3.83-4.31-4.47-3-.74-5.82-2.18-8.74-3.26-3.39-1.24-5.42-4-7.59-6.62a16.16,16.16,0,0,0-2.53-2.36,30.48,30.48,0,0,1-8.2-9.73,154.41,154.41,0,0,1-10-22.16A23,23,0,0,1,50.07,162.55Zm91-7.48a22.54,22.54,0,0,0,3.64-.44,49.17,49.17,0,0,1,10.39-1.88,115.57,115.57,0,0,0,18.69-3.24A127.56,127.56,0,0,0,201.18,139a9.76,9.76,0,0,0,2.91-1.86,2,2,0,0,0,.31-2.59c-.68-1-1.42-.07-2.05.25-4.2,2.12-8.3,4.35-12.74,6.09-6,2.34-12.12,4.21-18.12,6.47s-12.32,2.71-18.48,4.17L144,152a19.58,19.58,0,0,1-6.84-.62c-3-.95-6.18-.17-9.27-.27-4.32-.14-8.51-1.71-12.87-1a4.45,4.45,0,0,1-2.11-.32c-6.33-2-12.94-2.84-19.46-3.85a65.34,65.34,0,0,1-14-4.23c-7.92-3.12-13.1-9.75-19-15.39a28.68,28.68,0,0,1-2.69-3.49c-1.15,2.22-1,3.74.74,5.27,2.26,2,4.92,3.6,6.94,5.91,3.85,4.42,8.74,7.18,14.08,9.46,6.35,2.71,13,4.3,19.56,6.4,2.67.86,5.27,2.19,8.11,2.25a71.84,71.84,0,0,1,10.06,1.24c5.18.85,10.3,2.16,15.61,2.07A17.06,17.06,0,0,0,141,155.07Zm-18.69,2.61c-4.11-.74-8.13-2-12.36-2.08-3.54,0-7.15.24-10.54-1-7-2.44-14-4.68-20.78-7.56-7.32-3.1-13.94-7-19.17-13.07-1-1.19-2.25-2.2-3.64-3.55a62.35,62.35,0,0,0-1.11,9.2,157.31,157.31,0,0,0-.88,18.61c.07,2-.62,3.88.22,5.94a147.32,147.32,0,0,0,10.33,21.35c3.05,5,7,9,11,13a6.37,6.37,0,0,0,3.75,2,17.06,17.06,0,0,1,5.27,1.9c4.35,2.13,8.64,4.41,13.06,6.38,4.6,2.06,9.09,4.5,14.18,5.22,3.88.55,7.81.23,11.72.29,3.4,0,6.81.21,10.17-.56,2.21-.51,2.71-1.82,1.47-3.8a28.69,28.69,0,0,1-2-3.35c-2.83-6.33,1.06-11.92,7.89-11.4a1.24,1.24,0,0,1,.22,0c2.22.6,3.06-.49,3.08-2.55a10.12,10.12,0,0,1,1-4.61c2.21-4.32,6.42-5.76,10.69-3.58,1.55.79,3,1.68,4.56,2.54,2.5,1.43,2.93,1.3,3.68-1.58s1.32-6.06,2.14-9.05c2.07-7.58,9-13.56,16.08-12.65A23.08,23.08,0,0,1,198,172.75c1.37,1.76,1.87,3.85,2.64,6.11a24.48,24.48,0,0,0,4.14-9.89c1-6.57,3.12-13.06.81-19.76a.55.55,0,0,1,0-.41c1.67-2.53-.18-4.87-.41-7.28-.07-.75-.44-1-1.34-.55-2.41,1.3-4.93,2.4-7.39,3.61-12.23,6-25.21,9.43-38.69,11.17-4,.52-8.08.68-12,1.76-1.53.42-3.09.73-4.63,1.08-1.11.26-3.9,3.11-3.66,4,.36,1.28,1.82,1.18,2.78,1.71s2.43.95,2.08,2.59a26.1,26.1,0,0,1-1,3.53,2,2,0,0,1-3,1.22c-1.33-.64-2.77-.82-4.11-1.32-2.06-.77-3.28-.07-3.86,2.19,1.82.41,3.64.79,5.45,1.23.92.22,1.85.44,1.67,1.8-.68,5.31-3.57,7.21-8.7,5.67-4.21-1.27-4.2-1.27-4.86,3a2.35,2.35,0,0,1-.09.42c-.4,1.13-1.15,2-2.4,1.72s-1.07-1.42-.94-2.32a21.9,21.9,0,0,1,.84-3.8c.39-1.17.06-1.72-1-2.14-1.82-.7-3.61-1.49-5.39-2.3-3.12-1.43-3.11-1.45-1.2-4.41a9.21,9.21,0,0,0,.82-1.53c1-2.44,1.64-2.82,4.08-2s4.75,1.76,7.05,2.79c1.18.53,1.85.42,2.28-.83.52-1.5-.78-1.26-1.46-1.45a35.83,35.83,0,0,1-6.75-2.32c-2.15-1.08-2.2-1.78-.62-3.53,1.16-1.29,2.21-2.67,3.31-4a2.22,2.22,0,0,1,2.39,0c1.8.88,3.64,1.72,5.51,2.44s3.35.51,4.52-1.71C130.48,159.07,126.53,157.63,122.35,157.69ZM62,113.65c.67.38,1.13.1,1.62,0a25.39,25.39,0,0,1,12.84.19c5.17,1.43,10.07,3.5,15.08,5.34,9.91,3.65,19.28,8.32,27.44,15,4.17,3.44,7.83,7.52,11.68,11.34,2.51,2.49,5.5,2.19,7.36-.72a37.67,37.67,0,0,1,7.24-8.91c15-12.52,30.82-23.69,50.2-28.52,1.5-.38,1.86-.67.94-2.16a112.66,112.66,0,0,0-9.71-13.33c-.92-1.09-1.55-1.05-2.62-.32a75.29,75.29,0,0,1-11.47,6.53,65.5,65.5,0,0,1-20.94,6c-4.64.42-9.07-.66-13.61-.79-.8,0-2,.38-2.12-.83a2.13,2.13,0,0,1,2-2.25A18.73,18.73,0,0,0,142,99c7.05-2.78,13.25-7.06,19.48-11.23,3-2,6.42-3.64,9-6.41.89-1,.89-1.36-.17-2A29.77,29.77,0,0,0,162,76c-8.48-2.44-16.53-6.19-25.7-6.44-7.51-.21-14.71.14-21.68,3-.58.24-1.24.3-1.15,1.26a14.67,14.67,0,0,1-1.9,7.91c-1.91,3.72-4.77,7-9.12,7.77-6.29,1.18-12.66,1.95-18.4-2.18-1.33-1-2.42-.56-3.65.48-4.87,4.12-8.6,9.22-12.36,14.26C65.46,105.58,63.79,109.69,62,113.65Zm78,100c5.87,1,11.7.14,17.32-1a64.82,64.82,0,0,0,20.19-8.1c1.54-.92,1.6-1.68.22-2.68a6.45,6.45,0,0,0-5.49-1.39c-3,.72-4.45,2.6-4.45,5.8,0,1.06,0,2.18-1.39,2.23s-1.25-1.12-1.4-2c-.92-5.59,2.56-10,8.21-10.54,3.62-.32,6.32,1.27,8.37,4.06.86,1.17,1.53,1.15,2.56.31,1.9-1.56,4.08-2.84,5.78-4.58,4.2-4.33,9.1-8.19,6.84-15.71a14.49,14.49,0,0,0-6.77-9c-1.95-1.14-4.24-1.38-6.42-1.84a7.3,7.3,0,0,0-7.21,2c-4.75,5.09-8,11-8.48,18.06-.14,1.86-.86,2.59-2.78,2.8-3.55.39-6.64-1.27-9.89-2-5.82-1.38-7.12-.66-7.57,5.46-.22,3-1.18,4.08-4.19,4.43a7.65,7.65,0,0,1-3.44-.13c-1.55-.52-2.63.15-3.35,1.59-1.59,3.19-.77,5.26,2.6,6.67,1.41.58,2.92,1.21,3.08,3C142.4,212.6,140.94,212.88,139.91,213.67Zm13.8-66c5-.32,9.55-.72,13.82-2.34,5.8-2.2,11.78-3.92,17.49-6.29,5.93-2.45,11.76-5.25,16-10.42a5.42,5.42,0,0,0,.93-6.2c-1-2.31-2.18-4.59-2.48-7.12-.16-1.38-.86-1.31-1.76-1-4.27,1.53-8.7,2.74-12.69,4.89a163.85,163.85,0,0,0-22.57,14.07,82.49,82.49,0,0,0-13.95,13c-.3.37-1,.67-.73,1.21s1,.35,1.55.34C150.93,147.84,152.52,147.75,153.71,147.7Zm-44-71.06c-.1-3.55-3.4-8.55-6.4-10.55A19.59,19.59,0,0,0,92.14,62.8,10.5,10.5,0,0,0,82.65,68c-3,5.13-2.91,12,4,15.9,5.49,3.12,11,2.7,16.7.73C107.56,83.16,108.4,79.34,109.69,76.64ZM61.45,122a10.2,10.2,0,0,0,.73,1.12c3.95,4.37,8.11,8.47,13.46,11.19,2.45,1.25,4.86,2.59,7.17,4.07a17.59,17.59,0,0,0,5.57,2.29c7.58,1.78,15.16,3.55,22.87,4.63,1.14.16,2.3.82,3.75.21a11.35,11.35,0,0,0-1.44-1.71c-2.78-2.2-5.41-4.67-8.44-6.44-7.36-4.31-15-8-23.43-10-2.1-.5-4.11-1.34-6.17-2C71,124,66.5,122.49,61.45,122Zm86.48-21.56c.59.84,1.35.59,2,.59,2.62,0,4.82-1.08,7.22-2.09,4-1.67,8.21-2.79,12.33-4.15,11.78-3.91,19.51-12.27,26-22.25a10.46,10.46,0,0,0,.88-2.2c.24-.68.53-1.48,0-2s-1.41-.16-2.06,0a16.26,16.26,0,0,0-4.3,2,142,142,0,0,0-17.36,13.44,88.8,88.8,0,0,1-23.81,16.07A5.14,5.14,0,0,0,147.93,100.42ZM112.25,65.19c-.71-5-1.33-10.4-2.26-15.75a105.89,105.89,0,0,0-6.48-21.75,27.79,27.79,0,0,0-1.36-3.18c-.61-1.08-1.53-1.27-2,.09-1.41,4.57-2.64,9.18-2,14.05C99,44.55,100.9,50.18,102,56c.34,1.83.89,3.9,2.68,4.79a12.5,12.5,0,0,1,6.2,6.36c.18.41.4,1.1,1,.85s.41-.86.41-1.36S112.28,65.92,112.25,65.19ZM62,116.33c-.77,0-1.64.26-1.79,1.14s.78.93,1.38,1c1.7.3,3.43.46,5.11.8a156.65,156.65,0,0,1,25.19,7.22c5.34,2.06,10.72,4.18,15.37,7.53A154.92,154.92,0,0,1,121,145.33a6.39,6.39,0,0,0,3.45,1.69c.41.06.93.08,1.17-.35a1,1,0,0,0-.3-1.17c-3.71-3.88-7.31-8-11.89-10.78-7.82-4.81-15.71-9.52-24.48-12.59-5.19-1.82-10.41-3.54-15.6-5.34C69.53,115.46,65.75,117.75,62,116.33Zm56-82.07c-2,7-3.8,13.71-2.52,20.76a81.84,81.84,0,0,1,1.24,9c.06.81,0,2.44,1.18,2s3.5.8,4-2c1.33-7,.16-14-.27-20.93C121.43,40.15,121,36.87,117.95,34.26ZM41.46,167.5a58.4,58.4,0,0,0,8-14.1,7.75,7.75,0,0,0,.62-3.16,25.07,25.07,0,0,1,1.24-8.31c.79-2.78.46-5.64.68-8.57-.39.12-.57.12-.64.21-.27.34-.51.7-.75,1.06C45.34,142.28,42.94,151,41,159.9,40.42,162.38,39.66,165,41.46,167.5Zm152.69-55.83a6.23,6.23,0,0,0-3.33.11c-6.54,1.89-12.29,5.47-18.2,8.64-9.29,5-17.6,11.4-25.51,18.32a32,32,0,0,0-6.8,8.71c3.69.78,3.71.79,5.54-2.3a35.05,35.05,0,0,1,7.94-9.13,206.06,206.06,0,0,1,26.1-17.93C184.38,115.41,189.38,113.9,194.14,111.67ZM130.07,42.35c-2.16,4.24-3.95,14.48-3.63,20.48,0,.79-.44,2.26,1.12,2S131,66,131.83,63.3A30.35,30.35,0,0,0,132.38,50,20.13,20.13,0,0,0,130.07,42.35Zm80.49,99.26c-.65,8-.11,9.3,4.56,11.93,3.09,1.74,7.19,1.28,10.66-1.43C219.68,150.16,214.9,146.58,210.55,141.62Zm-79.09,37c1.08,0,2.26-.13,2.41-1.33s-1.23-1-1.93-1.23c-4-1.5-8-2.88-11.95-4.36-1.16-.43-2.49-1.28-3.06.41-.47,1.39,1,1.75,2,2.25a4,4,0,0,0,.61.2,29.19,29.19,0,0,1,6.58,2.61A10.39,10.39,0,0,0,131.47,178.6Zm-7.55-17c-.79.12-1.1.79-1.39,1.44-.45,1,.48,1,1,1.29,4.41,2.22,9.35,2.69,14,4.15.81.26,1.33,0,1.52-.72s-.54-.95-1-1.13c-4.32-1.59-8.65-3.15-13-4.71C124.67,161.76,124.32,161.68,123.92,161.56Zm39.45,53.85c-4.63.93-4.62.93-4.75,5.08,0,.58-.12,1.16-.14,1.73-.09,2.18-.16,4.35-.24,6.53l.57.1Zm-68.53-1.06,5.31,12.56c.18-3.09,0-6.06-.07-9a2.29,2.29,0,0,0-1.64-2.3Z"/><path class="cls-6" d="M122.41,158.52c-1.1,1.34-2.15,2.73-3.31,4-1.58,1.75-1.53,2.45.62,3.53a35.83,35.83,0,0,0,6.75,2.32c.68.19,2-.06,1.46,1.45-.43,1.25-1.11,1.35-2.28.83-2.31-1-4.67-1.95-7.05-2.79s-3.11-.49-4.08,2a9.21,9.21,0,0,1-.82,1.53c-1.9,3-1.92,3,1.2,4.41,1.78.81,3.57,1.6,5.39,2.3,1.1.42,1.43,1,1,2.14a21.9,21.9,0,0,0-.84,3.8c-.13.9-.34,2.07.94,2.32s2-.59,2.4-1.72a2.35,2.35,0,0,0,.09-.42c.66-4.25.65-4.25,4.86-3,5.14,1.54,8-.35,8.7-5.67.17-1.36-.75-1.58-1.67-1.8-1.81-.44-3.63-.82-5.45-1.23.57-2.27,1.8-3,3.86-2.19,1.34.5,2.78.68,4.11,1.32a2,2,0,0,0,3-1.22,26.1,26.1,0,0,0,1-3.53c.34-1.64-1-2-2.08-2.59s-2.42-.43-2.78-1.71c-.24-.88,2.54-3.74,3.66-4,1.54-.36,3.1-.66,4.63-1.08,3.94-1.08,8-1.24,12-1.76,13.48-1.74,26.46-5.14,38.69-11.17,2.46-1.21,5-2.31,7.39-3.61.9-.49,1.27-.2,1.34.55.23,2.42,2.08,4.76.41,7.28a.55.55,0,0,0,0,.41c2.31,6.7.23,13.19-.81,19.76a24.48,24.48,0,0,1-4.14,9.89c-.76-2.25-1.27-4.34-2.64-6.11a23.08,23.08,0,0,0-15.61-8.88c-7-.91-14,5.07-16.08,12.65-.81,3-1.35,6.05-2.14,9.05s-1.19,3-3.68,1.58c-1.51-.86-3-1.75-4.56-2.54-4.28-2.18-8.48-.74-10.69,3.58a10.12,10.12,0,0,0-1,4.61c0,2.06-.86,3.15-3.08,2.55a1.24,1.24,0,0,0-.22,0c-6.83-.52-10.72,5.07-7.89,11.4a28.69,28.69,0,0,0,2,3.35c1.24,2,.74,3.3-1.47,3.8-3.36.77-6.76.61-10.17.56-3.91-.06-7.83.26-11.72-.29-5.09-.72-9.58-3.16-14.18-5.22-4.42-2-8.71-4.25-13.06-6.38a17.06,17.06,0,0,0-5.27-1.9,6.37,6.37,0,0,1-3.75-2c-4-4.08-7.94-8-11-13a147.32,147.32,0,0,1-10.33-21.35c-.84-2.06-.15-4-.22-5.94a157.31,157.31,0,0,1,.88-18.61,62.35,62.35,0,0,1,1.11-9.2c1.39,1.35,2.62,2.36,3.64,3.55,5.22,6.09,11.85,10,19.17,13.07,6.81,2.88,13.83,5.12,20.78,7.56,3.39,1.19,7,.92,10.54,1,4.23,0,8.25,1.34,12.36,2.08Q122.38,158.1,122.41,158.52Z"/><path class="cls-7" d="M62,113.65c1.83-4,3.5-8.07,6.12-11.59,3.76-5,7.5-10.14,12.36-14.26,1.23-1,2.32-1.44,3.65-.48,5.74,4.12,12.11,3.36,18.4,2.18,4.34-.82,7.21-4.05,9.12-7.77a14.67,14.67,0,0,0,1.9-7.91c-.09-1,.57-1,1.15-1.26,7-2.89,14.17-3.24,21.68-3,9.17.25,17.22,4,25.7,6.44a29.77,29.77,0,0,1,8.2,3.31c1.06.69,1.07,1.09.17,2-2.56,2.76-5.95,4.37-9,6.41C155.21,91.9,149,96.19,142,99a18.73,18.73,0,0,1-4.12,1.29,2.13,2.13,0,0,0-2,2.25c.1,1.2,1.32.8,2.12.83,4.54.13,9,1.21,13.61.79a65.5,65.5,0,0,0,20.94-6A75.29,75.29,0,0,0,184,91.61c1.07-.73,1.7-.77,2.62.32a112.66,112.66,0,0,1,9.71,13.33c.92,1.48.57,1.78-.94,2.16-19.38,4.84-35.19,16-50.2,28.52a37.67,37.67,0,0,0-7.24,8.91c-1.86,2.91-4.85,3.21-7.36.72-3.85-3.83-7.51-7.9-11.68-11.34-8.16-6.73-17.53-11.4-27.44-15-5-1.84-9.91-3.91-15.08-5.34a25.39,25.39,0,0,0-12.84-.19C63.09,113.76,62.63,114,62,113.65Zm82.75-27c2.14-.11,3.05-.91,3-2.58-.11-1.93-1.27-3.33-2.73-3.29a3.88,3.88,0,0,0-3.43,3.31C141.53,85.87,142.63,86.74,144.71,86.64Zm-16.52.63a3.13,3.13,0,0,0-3.07,3.25c0,1.47.64,2.35,2.17,2.36a3.83,3.83,0,0,0,3.44-3.55C130.69,87.66,129.43,87.48,128.19,87.27Z"/><path class="cls-8" d="M139.91,213.67c1-.79,2.49-1.07,2.36-2.64-.16-1.81-1.67-2.43-3.08-3-3.37-1.4-4.19-3.48-2.6-6.67.72-1.44,1.8-2.11,3.35-1.59a7.65,7.65,0,0,0,3.44.13c3-.36,4-1.42,4.19-4.43.45-6.12,1.74-6.84,7.57-5.46,3.25.77,6.34,2.42,9.89,2,1.91-.21,2.64-.94,2.78-2.8.52-7.08,3.73-13,8.48-18.06a7.3,7.3,0,0,1,7.21-2c2.18.46,4.47.7,6.42,1.84a14.49,14.49,0,0,1,6.77,9c2.25,7.52-2.64,11.38-6.84,15.71-1.7,1.75-3.87,3-5.78,4.58-1,.85-1.7.86-2.56-.31-2-2.8-4.75-4.39-8.37-4.06-5.65.51-9.13,5-8.21,10.54.15.9,0,2.07,1.4,2s1.39-1.17,1.39-2.23c0-3.2,1.43-5.07,4.45-5.8a6.45,6.45,0,0,1,5.49,1.39c1.38,1,1.32,1.76-.22,2.68a64.82,64.82,0,0,1-20.19,8.1C151.61,213.81,145.79,214.65,139.91,213.67Z"/><path class="cls-6" d="M153.71,147.7c-1.19.05-2.78.15-4.37.17-.53,0-1.27.34-1.55-.34s.43-.84.73-1.21a82.49,82.49,0,0,1,13.95-13A163.85,163.85,0,0,1,185,119.23c4-2.16,8.42-3.37,12.69-4.89.9-.32,1.6-.39,1.76,1,.3,2.53,1.46,4.82,2.48,7.12a5.42,5.42,0,0,1-.93,6.2c-4.26,5.17-10.09,8-16,10.42-5.72,2.36-11.69,4.08-17.49,6.29C163.26,147,158.67,147.38,153.71,147.7Z"/><path class="cls-9" d="M153,151.55c6.17-1.35,12.54-1.92,18.48-4.17s12.14-4.12,18.12-6.47c4.44-1.74,8.54-4,12.74-6.09.63-.32,1.38-1.25,2.05-.25a2,2,0,0,1-.31,2.59,9.76,9.76,0,0,1-2.91,1.86,127.56,127.56,0,0,1-27.42,10.48,115.57,115.57,0,0,1-18.69,3.24,49.17,49.17,0,0,0-10.39,1.88,22.54,22.54,0,0,1-3.64.44c-2.23.46-3.45,1.66-8.31.35-5.31.09-10.43-1.22-15.61-2.07a71.84,71.84,0,0,0-10.06-1.24c-2.84-.06-5.43-1.39-8.11-2.25-6.53-2.11-13.21-3.7-19.56-6.4-5.34-2.28-10.23-5-14.08-9.46-2-2.31-4.68-3.88-6.94-5.91-1.71-1.54-1.89-3.06-.74-5.27a28.68,28.68,0,0,0,2.69,3.49c5.94,5.63,11.11,12.27,19,15.39a65.34,65.34,0,0,0,14,4.23c6.52,1,13.13,1.81,19.46,3.85a4.45,4.45,0,0,0,2.11.32c4.36-.73,8.55.84,12.87,1,3.09.1,6.24-.68,9.27.27a19.14,19.14,0,0,0,6.84.61C147.93,151.77,147.92,151.49,153,151.55Z"/><path class="cls-10" d="M109.69,76.64c-1.29,2.71-2.12,6.52-6.34,8-5.68,2-11.21,2.39-16.7-.73-6.91-3.93-7-10.77-4-15.9a10.5,10.5,0,0,1,9.49-5.18,19.59,19.59,0,0,1,11.15,3.29C106.29,68.09,109.59,73.09,109.69,76.64ZM95.15,80.29a5.56,5.56,0,0,0,5.1-3.63,5.21,5.21,0,0,0-1.62-5.83c-1.81-1.66-4.38-1.65-6.39-2.94-.76-.49-1.42.67-1.74,1.29a21.27,21.27,0,0,0-1.29,3.64C87.91,77.22,90.5,80.46,95.15,80.29Z"/><path class="cls-11" d="M61.45,122c5.05.52,9.56,2,14.08,3.41,2.06.63,4.07,1.47,6.17,2,8.38,2,16.06,5.66,23.43,10,3,1.77,5.66,4.24,8.44,6.44a11.35,11.35,0,0,1,1.44,1.71c-1.45.62-2.61,0-3.75-.21-7.71-1.08-15.3-2.85-22.87-4.63a17.59,17.59,0,0,1-5.57-2.29c-2.31-1.48-4.72-2.82-7.17-4.07-5.34-2.72-9.51-6.81-13.46-11.19A10.2,10.2,0,0,1,61.45,122Z"/><path class="cls-12" d="M147.93,100.42a5.14,5.14,0,0,1,.85-.59,88.8,88.8,0,0,0,23.81-16.07,142,142,0,0,1,17.36-13.44,16.26,16.26,0,0,1,4.3-2c.65-.2,1.47-.61,2.06,0s.29,1.36,0,2a10.46,10.46,0,0,1-.88,2.2c-6.45,10-14.18,18.34-26,22.25-4.12,1.37-8.37,2.49-12.33,4.15-2.4,1-4.6,2.09-7.22,2.09C149.28,101,148.53,101.26,147.93,100.42Z"/><path class="cls-13" d="M112.25,65.19c0,.73.06,1.09.06,1.45s.13,1.15-.41,1.36-.86-.44-1-.85a12.5,12.5,0,0,0-6.2-6.36c-1.79-.88-2.34-3-2.68-4.79-1.08-5.83-3-11.46-3.78-17.36-.63-4.87.6-9.48,2-14.05.42-1.36,1.35-1.17,2-.09a27.79,27.79,0,0,1,1.36,3.18A105.89,105.89,0,0,1,110,49.44C110.92,54.79,111.54,60.18,112.25,65.19Z"/><path class="cls-9" d="M62,116.33c3.79,1.42,7.57-.87,11.4.46,5.19,1.8,10.41,3.53,15.6,5.34,8.77,3.06,16.65,7.78,24.48,12.59,4.58,2.82,8.19,6.9,11.89,10.78a1,1,0,0,1,.3,1.17c-.25.44-.76.41-1.17.35a6.39,6.39,0,0,1-3.45-1.69,154.92,154.92,0,0,0-13.78-11.28c-4.65-3.35-10-5.46-15.37-7.53a156.65,156.65,0,0,0-25.19-7.22c-1.69-.35-3.42-.5-5.11-.8-.6-.11-1.53-.15-1.38-1S61.19,116.37,62,116.33Z"/><path class="cls-13" d="M117.95,34.26c3.07,2.6,3.48,5.89,3.66,8.83.43,7,1.6,13.91.27,20.93-.53,2.81-2.69,1.54-4,2s-1.12-1.2-1.18-2a81.84,81.84,0,0,0-1.24-9C114.15,48,115.9,41.31,117.95,34.26Z"/><path class="cls-14" d="M41.46,167.5c-1.79-2.52-1-5.13-.49-7.6,2-8.88,4.37-17.62,9.6-25.28.24-.36.48-.72.75-1.06.07-.09.25-.09.64-.21-.22,2.92.11,5.79-.68,8.57A25.07,25.07,0,0,0,50,150.24a7.75,7.75,0,0,1-.62,3.16A58.4,58.4,0,0,1,41.46,167.5Z"/><path class="cls-15" d="M194.14,111.67c-4.76,2.23-9.77,3.74-14.26,6.41A206.06,206.06,0,0,0,153.78,136a35.05,35.05,0,0,0-7.94,9.13c-1.83,3.09-1.85,3.07-5.54,2.3a32,32,0,0,1,6.8-8.71c7.91-6.91,16.22-13.34,25.51-18.32,5.91-3.17,11.66-6.75,18.2-8.64A6.23,6.23,0,0,1,194.14,111.67Z"/><path class="cls-13" d="M130.07,42.35A20.13,20.13,0,0,1,132.38,50a30.35,30.35,0,0,1-.55,13.33c-.8,2.75-2.81,1.33-4.27,1.55s-1.08-1.23-1.12-2C126.12,56.84,127.91,46.6,130.07,42.35Z"/><path class="cls-16" d="M210.55,141.62c4.34,5,9.13,8.55,15.23,10.5-3.48,2.71-7.57,3.16-10.66,1.43C210.44,150.92,209.9,149.6,210.55,141.62Z"/><path class="cls-9" d="M131.47,178.6a10.39,10.39,0,0,1-5.34-1.45,29.19,29.19,0,0,0-6.58-2.61,4,4,0,0,1-.61-.2c-1-.51-2.48-.86-2-2.25.58-1.69,1.91-.84,3.06-.41,4,1.48,8,2.86,11.95,4.36.71.27,2.09,0,1.93,1.23S132.55,178.61,131.47,178.6Z"/><path class="cls-15" d="M123.92,161.56c.4.12.76.19,1.09.32,4.33,1.56,8.66,3.12,13,4.71.5.19,1.24.39,1,1.13s-.7,1-1.52.72c-4.64-1.46-9.58-1.93-14-4.15-.51-.26-1.43-.29-1-1.29C122.82,162.35,123.13,161.68,123.92,161.56Z"/><path class="cls-17" d="M163.37,215.41l-4.56,13.44-.57-.1c.08-2.18.15-4.35.24-6.53,0-.58.12-1.16.14-1.73C158.74,216.34,158.74,216.34,163.37,215.41Z"/><path class="cls-17" d="M94.83,214.35l3.6,1.23a2.29,2.29,0,0,1,1.64,2.3c.12,3,.25,5.94.07,9Z"/><path class="cls-11" d="M122.41,158.52q0-.42-.06-.83c4.17-.06,8.13,1.38,12.49,1.56-1.18,2.22-2.77,2.38-4.52,1.71s-3.71-1.56-5.51-2.44A2.22,2.22,0,0,0,122.41,158.52Z"/><path class="cls-5" d="M144.71,86.64c-2.08.11-3.17-.77-3.2-2.56a3.88,3.88,0,0,1,3.43-3.31c1.45,0,2.61,1.37,2.73,3.29C147.76,85.73,146.85,86.52,144.71,86.64Z"/><path class="cls-5" d="M128.19,87.27c1.24.21,2.5.39,2.55,2.06a3.83,3.83,0,0,1-3.44,3.55c-1.54,0-2.18-.89-2.17-2.36A3.13,3.13,0,0,1,128.19,87.27Z"/><path class="cls-5" d="M95.15,80.29c-4.65.17-7.24-3.07-5.93-7.48a21.27,21.27,0,0,1,1.29-3.64c.32-.62,1-1.78,1.74-1.29,2,1.3,4.58,1.28,6.39,2.94a5.21,5.21,0,0,1,1.62,5.83A5.56,5.56,0,0,1,95.15,80.29Zm2.34-4.84A8.1,8.1,0,0,0,94,71.31c-1.24-.84-2.19-.42-2.8.88a3.61,3.61,0,0,0,1,4.5c1.4,1.3,3,1.24,4.63.51C97.53,76.89,97.45,76.33,97.49,75.45Z"/><path class="cls-10" d="M97.49,75.45c0,.87,0,1.44-.67,1.75-1.66.72-3.24.78-4.63-.51a3.61,3.61,0,0,1-1-4.5c.61-1.31,1.56-1.72,2.8-.88A8.1,8.1,0,0,1,97.49,75.45Z"/></g><g class="cls-18"><path class="cls-5" d="M50.7,160.14a13.8,13.8,0,0,0-1.82,4.57,13.64,13.64,0,0,1-2.75,5c-1.3,1.66-3.31,1.53-5.11.66-5.14-2.49-4.93-7-4.27-11.36,1.44-9.48,4.23-18.52,9.89-26.52a87,87,0,0,0,7.4-12c2-4.12,4.3-8.12,6.1-12.32,3-6.92,7.56-12.69,12.38-18.31,2-2.36,3.59-5.19,6.35-6.88.84-.52.38-1,.15-1.59A20.51,20.51,0,0,1,78,67.93c1.21-4.27,7.47-9.32,11.93-9.62,1.85-.13,3.71-.15,5.57-.16,1.34,0,1.83-.61,1.46-1.87C94.86,49,95.2,41.37,93.18,34.07c-1.32-4.79.89-9.11,3.3-13.1,1.61-2.67,4.58-2.46,6.88-.3,2.9,2.73,4.27,6.19,5.34,9.8.93,3.13,2.21,6.11,3.44,9.55.93-2.39,1.17-4.65,2.27-6.59.42-.74.71-1.56,1.15-2.29,1.35-2.19,2.38-2.08,4.47-.59,3.43,2.45,4,6,4.57,9.69a5.69,5.69,0,0,0,.8,2.61,13.07,13.07,0,0,1,2.11-4.61c.95-1.43,2.11-1.59,3.69-.86,3.34,1.53,4.26,4.37,4.39,7.64.23,5.83-.54,11.62-1.13,17.4-.12,1.14,0,1.53,1.19,1.63a81.57,81.57,0,0,1,21.48,5.36c5.14,1.92,10.48,3.3,15.12,6.36.84.55,1.27,0,1.83-.47,3.37-2.63,6.36-5.72,9.9-8.16s7.37-3,11.29-3.68c2.29-.39,4.43,2.12,3.93,4.48-1,4.94-2.12,9.86-6.34,13.39-1.67,1.4-2.7,3.5-4.55,4.78-1.3.9-1.06,1.78-.07,2.73,6,5.8,9.45,13.29,13.23,20.54,1.4,2.7,1.86,5.67,2.44,8.57a28.68,28.68,0,0,0,2.11,6.68c.83,1.76.85,3.71,1.36,5.54,1,3.65,3.31,6.3,5.93,8.69a28.9,28.9,0,0,0,9.57,6.35,13.76,13.76,0,0,1,3.64,2.23,4.18,4.18,0,0,1,.34,6.49c-4.69,4.58-6.55,4.87-12.48,1.95-1.47-.72-3-1.38-4.69-2.19-.53,3.66-1.78,7-2.35,10.55-1,6.13-3.53,11.73-6.49,17.25a64.61,64.61,0,0,1-10.81,15,47,47,0,0,1-18.28,11.93c-1.62.56-3,1.58-4.72,2-.92.22-1.31,1.07-1.57,1.9-1.36,4.19-3.23,8.19-4.27,12.49a20.66,20.66,0,0,1-2.32,5.26c-1,1.75-.42,2.55,1.28,3.09,1.09.34,2.13.81,3.21,1.18a1.91,1.91,0,0,1,1.45,1.89c-.09,1-1.1,1.23-2,1.17a20.37,20.37,0,0,1-8.92-2.68,3.15,3.15,0,0,1-1.29-3.75,59.89,59.89,0,0,0,1.66-14.55c0-1.29-.35-1.85-1.71-1.66-5.29.76-10.65.34-16,1.06-8.88,1.19-17.76-.15-26.64-.54a24.86,24.86,0,0,1-5-1.07c-1-.25-1.59-.36-1.53,1,.22,5.32.33,10.65,1.83,15.83.71,2.46-1,5.34-3.72,6.44s-5.87.21-7.13-2.11a2.18,2.18,0,0,1-.2-2.41c.54-.74,1.44-.39,2.2-.23a3.41,3.41,0,0,1,1.39.49,2,2,0,0,0,2.87-.34c.86-.86.55-1.93-.1-2.93a77.59,77.59,0,0,1-8.33-18.39c-.75-2.29-1.68-3.75-4.25-4.38-3-.73-5.73-2.14-8.61-3.19C76,202.75,74,200,71.89,197.47a15.9,15.9,0,0,0-2.49-2.32,29.93,29.93,0,0,1-8.08-9.55,151.14,151.14,0,0,1-9.85-21.73A22.46,22.46,0,0,1,50.7,160.14Zm89.62-7.34a22.29,22.29,0,0,0,3.59-.43,48.62,48.62,0,0,1,10.23-1.85,114.29,114.29,0,0,0,18.41-3.18,126,126,0,0,0,27-10.28,9.61,9.61,0,0,0,2.86-1.83,2,2,0,0,0,.31-2.54c-.67-1-1.4-.07-2,.24-4.14,2.08-8.17,4.27-12.55,6-5.89,2.3-11.94,4.13-17.85,6.35s-12.13,2.66-18.21,4.09l-8.91.38a19.36,19.36,0,0,1-6.74-.61c-3-.93-6.09-.17-9.13-.27-4.25-.14-8.38-1.68-12.68-1a4.4,4.4,0,0,1-2.08-.31c-6.24-2-12.75-2.79-19.17-3.77a64.57,64.57,0,0,1-13.83-4.15c-7.81-3.06-12.91-9.57-18.75-15.09a28.15,28.15,0,0,1-2.65-3.42c-1.13,2.17-1,3.67.73,5.17,2.23,2,4.85,3.53,6.84,5.8,3.79,4.33,8.61,7,13.87,9.28,6.26,2.65,12.84,4.22,19.27,6.28,2.63.84,5.19,2.14,8,2.21a71.05,71.05,0,0,1,9.91,1.22c5.1.83,10.15,2.11,15.37,2A16.87,16.87,0,0,0,140.32,152.8Zm-18.41,2.56c-4.05-.73-8-2-12.18-2-3.49,0-7,.23-10.39-.94C92.49,150,85.58,147.81,78.87,145c-7.21-3-13.74-6.85-18.88-12.82-1-1.17-2.21-2.16-3.59-3.48a60.91,60.91,0,0,0-1.1,9A153.66,153.66,0,0,0,54.44,156c.07,1.92-.61,3.81.22,5.83a144.24,144.24,0,0,0,10.17,20.95c3,4.93,6.92,8.78,10.83,12.79a6.28,6.28,0,0,0,3.7,2,16.85,16.85,0,0,1,5.19,1.87c4.29,2.09,8.51,4.32,12.87,6.26,4.53,2,9,4.41,14,5.12,3.83.54,7.69.22,11.54.28a41.77,41.77,0,0,0,10-.55c2.17-.5,2.67-1.78,1.45-3.73a28.12,28.12,0,0,1-2-3.28c-2.79-6.21,1-11.7,7.77-11.18a1.22,1.22,0,0,1,.21,0c2.19.58,3-.48,3-2.5a9.89,9.89,0,0,1,1-4.52c2.18-4.24,6.32-5.65,10.53-3.51,1.52.77,3,1.64,4.49,2.49,2.46,1.4,2.89,1.28,3.63-1.55s1.3-5.95,2.1-8.88c2-7.44,8.91-13.3,15.84-12.41a22.76,22.76,0,0,1,15.38,8.71c1.35,1.73,1.84,3.78,2.6,6a24,24,0,0,0,4.08-9.7c1-6.44,3.07-12.82.79-19.38a.53.53,0,0,1,0-.41c1.65-2.48-.18-4.77-.4-7.15-.07-.73-.43-1-1.32-.54-2.38,1.27-4.86,2.35-7.28,3.54a120.33,120.33,0,0,1-38.11,11c-4,.51-8,.67-11.84,1.73-1.5.41-3,.71-4.56,1.06-1.09.25-3.84,3-3.6,3.92.35,1.25,1.79,1.16,2.74,1.68s2.39.93,2.05,2.54a25.52,25.52,0,0,1-1,3.46,2,2,0,0,1-3,1.2c-1.31-.63-2.72-.8-4-1.3-2-.76-3.24-.07-3.8,2.15,1.79.4,3.58.78,5.37,1.2.91.22,1.82.43,1.65,1.77-.67,5.21-3.51,7.07-8.57,5.56-4.14-1.24-4.14-1.24-4.79,2.93a2.3,2.3,0,0,1-.09.41c-.39,1.11-1.13,1.92-2.36,1.69s-1.05-1.39-.93-2.27a21.4,21.4,0,0,1,.83-3.73c.38-1.14.06-1.69-1-2.1-1.8-.69-3.56-1.46-5.31-2.26-3.08-1.41-3.06-1.42-1.19-4.33a9,9,0,0,0,.81-1.5c1-2.39,1.61-2.77,4-1.91s4.68,1.73,6.95,2.74c1.16.52,1.83.42,2.25-.81.51-1.48-.77-1.24-1.44-1.42a35.39,35.39,0,0,1-6.64-2.28c-2.12-1.06-2.17-1.75-.61-3.46,1.14-1.26,2.18-2.62,3.26-3.93a2.2,2.2,0,0,1,2.36,0c1.78.86,3.58,1.69,5.43,2.39s3.3.5,4.46-1.68C129.91,156.72,126,155.31,121.91,155.37ZM62.42,112.18a1.82,1.82,0,0,0,1.59,0,25.12,25.12,0,0,1,12.65.19c5.09,1.4,9.92,3.43,14.86,5.24,9.76,3.58,19,8.16,27,14.76,4.11,3.37,7.71,7.37,11.51,11.13,2.47,2.44,5.42,2.15,7.25-.7a37,37,0,0,1,7.13-8.74c14.79-12.28,30.36-23.23,49.45-28,1.48-.37,1.83-.66.92-2.12a110.53,110.53,0,0,0-9.57-13.08c-.91-1.07-1.53-1-2.58-.32A74.25,74.25,0,0,1,171.36,97a64.73,64.73,0,0,1-20.63,5.86c-4.57.42-8.94-.65-13.41-.77-.79,0-2,.37-2.09-.81a2.09,2.09,0,0,1,1.93-2.2,18.5,18.5,0,0,0,4.06-1.27c6.95-2.73,13.06-6.93,19.19-11,3-2,6.32-3.57,8.85-6.28.88-.94.87-1.33-.17-2A29.4,29.4,0,0,0,161,75.21c-8.36-2.39-16.29-6.07-25.32-6.32-7.4-.2-14.49.14-21.35,3-.57.24-1.22.29-1.13,1.24a14.34,14.34,0,0,1-1.87,7.75c-1.88,3.65-4.7,6.82-9,7.62-6.2,1.16-12.48,1.91-18.13-2.13-1.31-.94-2.38-.55-3.59.47-4.79,4-8.48,9-12.18,14C65.87,104.26,64.22,108.29,62.42,112.18Zm76.79,98.1c5.79,1,11.52.14,17.07-1a64,64,0,0,0,19.89-7.94c1.52-.91,1.57-1.64.22-2.63a6.38,6.38,0,0,0-5.41-1.36c-3,.71-4.38,2.55-4.38,5.69,0,1,0,2.13-1.37,2.18s-1.23-1.1-1.37-2c-.9-5.48,2.52-9.84,8.09-10.34a8.79,8.79,0,0,1,8.24,4c.85,1.15,1.5,1.13,2.52.3,1.87-1.53,4-2.78,5.69-4.49,4.14-4.24,9-8,6.74-15.41a14.22,14.22,0,0,0-6.67-8.85c-1.92-1.12-4.17-1.35-6.32-1.8a7.21,7.21,0,0,0-7.1,2c-4.68,5-7.84,10.77-8.35,17.71-.14,1.82-.85,2.54-2.73,2.75-3.5.38-6.54-1.24-9.74-2-5.74-1.35-7-.65-7.45,5.36-.22,3-1.17,4-4.13,4.35a7.57,7.57,0,0,1-3.39-.13c-1.53-.51-2.59.15-3.3,1.56-1.57,3.13-.76,5.16,2.56,6.54,1.39.57,2.88,1.19,3,3C141.66,209.23,140.21,209.51,139.21,210.28Zm13.59-64.71c4.89-.31,9.41-.71,13.61-2.3,5.71-2.16,11.6-3.85,17.23-6.17,5.85-2.41,11.58-5.15,15.78-10.22a5.3,5.3,0,0,0,.92-6.08,24.72,24.72,0,0,1-2.44-7c-.16-1.35-.85-1.28-1.74-1-4.21,1.5-8.57,2.68-12.51,4.8a161.52,161.52,0,0,0-22.23,13.8,81.12,81.12,0,0,0-13.74,12.76c-.3.37-.94.66-.72,1.19s1,.35,1.52.34C150.06,145.72,151.63,145.62,152.8,145.57Zm-43.37-69.7c-.1-3.48-3.35-8.38-6.3-10.34a19.36,19.36,0,0,0-11-3.23,10.35,10.35,0,0,0-9.35,5.08c-3,5-2.86,11.74,3.94,15.6,5.41,3.06,10.86,2.65,16.45.72C107.34,82.27,108.16,78.53,109.43,75.87ZM61.91,120.34a10,10,0,0,0,.72,1.1c3.89,4.29,8,8.31,13.26,11,2.41,1.22,4.79,2.54,7.06,4a17.37,17.37,0,0,0,5.49,2.25c7.46,1.75,14.93,3.48,22.53,4.54,1.13.16,2.26.81,3.7.2a11.15,11.15,0,0,0-1.42-1.68c-2.74-2.16-5.33-4.58-8.31-6.32-7.25-4.23-14.82-7.84-23.08-9.78-2.07-.49-4.05-1.31-6.08-1.93C71.33,122.33,66.89,120.85,61.91,120.34ZM147.1,99.2c.59.82,1.33.57,2,.58,2.58,0,4.74-1.06,7.11-2.05,3.9-1.64,8.08-2.73,12.14-4.07,11.6-3.83,19.22-12,25.57-21.82a10.24,10.24,0,0,0,.87-2.16c.24-.67.52-1.45,0-2s-1.39-.16-2,0a16.05,16.05,0,0,0-4.24,2,139.84,139.84,0,0,0-17.1,13.19,87.49,87.49,0,0,1-23.45,15.76A5.06,5.06,0,0,0,147.1,99.2ZM112,64.64c-.7-4.91-1.31-10.21-2.23-15.44a103.54,103.54,0,0,0-6.39-21.34A27.19,27.19,0,0,0,102,24.74c-.6-1.06-1.51-1.24-1.92.09-1.38,4.48-2.6,9-2,13.79.76,5.78,2.66,11.31,3.73,17,.33,1.8.88,3.83,2.64,4.7a12.28,12.28,0,0,1,6.11,6.24c.18.4.4,1.08,1,.83s.4-.85.41-1.34S112,65.36,112,64.64ZM62.42,114.8c-.76,0-1.61.25-1.76,1.12s.77.91,1.36,1c1.67.3,3.37.45,5,.79a154.81,154.81,0,0,1,24.81,7.08c5.26,2,10.56,4.1,15.14,7.38a152.48,152.48,0,0,1,13.58,11.06,6.31,6.31,0,0,0,3.4,1.66c.4.06.91.08,1.16-.35a.94.94,0,0,0-.29-1.15c-3.65-3.8-7.2-7.81-11.71-10.57-7.71-4.72-15.47-9.34-24.11-12.35-5.11-1.78-10.25-3.47-15.37-5.24C69.88,114,66.15,116.2,62.42,114.8Zm55.15-80.5c-2,6.91-3.74,13.44-2.48,20.36a80,80,0,0,1,1.22,8.84c.06.8,0,2.39,1.16,2s3.45.78,4-2c1.31-6.89.16-13.71-.27-20.53C121,40.08,120.59,36.86,117.57,34.3ZM42.22,165a57.22,57.22,0,0,0,7.85-13.83,7.57,7.57,0,0,0,.61-3.1,24.5,24.5,0,0,1,1.22-8.15c.77-2.72.45-5.54.67-8.41-.38.12-.56.12-.63.2-.27.33-.5.69-.74,1-5.15,7.51-7.52,16.08-9.46,24.79C41.2,160,40.45,162.52,42.22,165Zm150.41-54.76a6.17,6.17,0,0,0-3.28.1c-6.44,1.85-12.1,5.36-17.93,8.47-9.15,4.88-17.34,11.19-25.13,18a31.36,31.36,0,0,0-6.69,8.54c3.64.76,3.66.77,5.46-2.25a34.43,34.43,0,0,1,7.82-9,203,203,0,0,1,25.71-17.58C183,113.9,187.94,112.42,192.63,110.23Zm-63.12-68c-2.13,4.16-3.89,14.21-3.57,20.08,0,.78-.43,2.21,1.11,2s3.43,1.18,4.21-1.52a29.65,29.65,0,0,0,.54-13.07A19.69,19.69,0,0,0,129.51,42.24Zm79.29,97.37c-.64,7.83-.11,9.12,4.49,11.7,3,1.7,7.08,1.26,10.5-1.4C217.79,148,213.07,144.47,208.79,139.61Zm-77.9,36.27c1.06,0,2.22-.12,2.37-1.31s-1.21-.94-1.91-1.21c-3.91-1.47-7.86-2.83-11.77-4.28-1.14-.42-2.45-1.25-3,.4-.47,1.36,1,1.71,2,2.21a3.93,3.93,0,0,0,.6.2,28.82,28.82,0,0,1,6.48,2.56A10.27,10.27,0,0,0,130.89,175.88Zm-7.44-16.71c-.77.12-1.08.77-1.37,1.41-.44,1,.47,1,1,1.26,4.35,2.18,9.21,2.64,13.79,4.07.8.25,1.31,0,1.5-.7s-.53-.93-1-1.11c-4.26-1.56-8.52-3.09-12.79-4.62C124.2,159.36,123.85,159.28,123.45,159.17ZM162.31,212c-4.56.91-4.55.91-4.68,5,0,.57-.11,1.13-.14,1.7-.09,2.13-.16,4.27-.24,6.41l.56.09Zm-67.51-1L100,223.26c.18-3,0-5.94-.07-8.85a2.25,2.25,0,0,0-1.61-2.25Z"/><path class="cls-6" d="M122,156.18c-1.08,1.32-2.12,2.67-3.26,3.93-1.56,1.72-1.51,2.4.61,3.46a35.39,35.39,0,0,0,6.64,2.28c.67.18,1.95-.06,1.44,1.42-.42,1.23-1.09,1.33-2.25.81-2.27-1-4.6-1.91-6.95-2.74s-3.06-.48-4,1.91a9,9,0,0,1-.81,1.5c-1.88,2.91-1.89,2.92,1.19,4.33,1.75.8,3.51,1.57,5.31,2.26,1.09.41,1.41,1,1,2.1a21.4,21.4,0,0,0-.83,3.73c-.13.88-.34,2,.93,2.27s2-.58,2.36-1.69a2.3,2.3,0,0,0,.09-.41c.65-4.17.64-4.17,4.79-2.93,5.06,1.51,7.9-.35,8.57-5.56.17-1.34-.74-1.55-1.65-1.77-1.78-.43-3.58-.8-5.37-1.2.57-2.22,1.77-2.91,3.8-2.15,1.32.49,2.74.67,4,1.3a2,2,0,0,0,3-1.2,25.52,25.52,0,0,0,1-3.46c.34-1.61-1-2-2.05-2.54s-2.39-.42-2.74-1.68c-.24-.87,2.51-3.66,3.6-3.92,1.52-.35,3.06-.65,4.56-1.06,3.88-1.06,7.89-1.22,11.84-1.73a120.33,120.33,0,0,0,38.11-11c2.42-1.19,4.91-2.27,7.28-3.54.89-.48,1.25-.2,1.32.54.22,2.37,2,4.67.4,7.15a.53.53,0,0,0,0,.41c2.28,6.57.23,12.94-.79,19.38a24,24,0,0,1-4.08,9.7c-.75-2.21-1.25-4.26-2.6-6a22.76,22.76,0,0,0-15.38-8.71c-6.93-.9-13.81,5-15.84,12.41-.8,2.93-1.33,5.94-2.1,8.88s-1.17,2.95-3.63,1.55c-1.49-.85-3-1.72-4.49-2.49-4.21-2.14-8.35-.73-10.53,3.51a9.89,9.89,0,0,0-1,4.52c0,2-.85,3.09-3,2.5a1.22,1.22,0,0,0-.21,0c-6.73-.51-10.56,5-7.77,11.18a28.12,28.12,0,0,0,2,3.28c1.22,2,.72,3.23-1.45,3.73a41.77,41.77,0,0,1-10,.55c-3.85-.06-7.72.26-11.54-.28-5-.71-9.43-3.1-14-5.12-4.35-1.94-8.58-4.17-12.87-6.26a16.85,16.85,0,0,0-5.19-1.87,6.28,6.28,0,0,1-3.7-2c-3.91-4-7.82-7.85-10.83-12.79a144.24,144.24,0,0,1-10.17-20.95c-.83-2-.15-3.91-.22-5.83a153.66,153.66,0,0,1,.87-18.25,60.91,60.91,0,0,1,1.1-9C57.78,130,59,131,60,132.16c5.14,6,11.67,9.78,18.88,12.82,6.71,2.83,13.62,5,20.47,7.42,3.34,1.17,6.9.9,10.39.94,4.17,0,8.13,1.31,12.18,2Q121.93,155.78,122,156.18Z"/><path class="cls-7" d="M62.42,112.18c1.8-3.89,3.45-7.92,6-11.36,3.7-4.95,7.39-10,12.18-14,1.21-1,2.28-1.41,3.59-.47,5.65,4,11.93,3.29,18.13,2.13,4.28-.8,7.1-4,9-7.62a14.34,14.34,0,0,0,1.87-7.75c-.08-.94.57-1,1.13-1.24,6.86-2.84,14-3.18,21.35-3,9,.25,17,3.93,25.32,6.32a29.4,29.4,0,0,1,8.08,3.25c1,.67,1.05,1.06.17,2-2.53,2.71-5.86,4.29-8.85,6.28-6.13,4.09-12.24,8.29-19.19,11A18.5,18.5,0,0,1,137.16,99a2.09,2.09,0,0,0-1.93,2.2c.09,1.18,1.3.79,2.09.81,4.47.12,8.84,1.19,13.41.77A64.73,64.73,0,0,0,171.36,97a74.25,74.25,0,0,0,11.3-6.41c1.05-.71,1.68-.75,2.58.32a110.53,110.53,0,0,1,9.57,13.08c.91,1.45.56,1.75-.92,2.12-19.09,4.74-34.67,15.7-49.45,28a37,37,0,0,0-7.13,8.74c-1.83,2.85-4.78,3.14-7.25.7-3.8-3.75-7.39-7.75-11.51-11.13-8-6.6-17.27-11.18-27-14.76-4.93-1.81-9.76-3.84-14.86-5.24A25.12,25.12,0,0,0,64,112.17,1.82,1.82,0,0,1,62.42,112.18Zm81.51-26.5c2.11-.11,3-.89,2.92-2.53-.11-1.89-1.26-3.27-2.68-3.23a3.81,3.81,0,0,0-3.38,3.25C140.8,84.92,141.88,85.78,143.93,85.68Zm-16.27.62a3.08,3.08,0,0,0-3,3.19c0,1.44.63,2.31,2.14,2.31a3.77,3.77,0,0,0,3.39-3.48C130.12,86.68,128.88,86.5,127.66,86.3Z"/><path class="cls-8" d="M139.21,210.28c1-.77,2.45-1,2.32-2.59-.15-1.77-1.64-2.39-3-3-3.32-1.37-4.13-3.41-2.56-6.54.7-1.41,1.77-2.07,3.3-1.56a7.57,7.57,0,0,0,3.39.13c3-.35,3.91-1.39,4.13-4.35.44-6,1.72-6.71,7.45-5.36,3.2.75,6.24,2.37,9.74,2,1.88-.2,2.6-.93,2.73-2.75.51-6.95,3.67-12.72,8.35-17.71a7.21,7.21,0,0,1,7.1-2c2.15.45,4.4.68,6.32,1.8a14.22,14.22,0,0,1,6.67,8.85c2.22,7.37-2.6,11.16-6.74,15.41-1.67,1.71-3.82,3-5.69,4.49-1,.83-1.68.85-2.52-.3a8.79,8.79,0,0,0-8.24-4c-5.57.5-9,4.86-8.09,10.34.15.89,0,2,1.37,2s1.37-1.14,1.37-2.18c0-3.14,1.41-5,4.38-5.69a6.38,6.38,0,0,1,5.41,1.36c1.35,1,1.3,1.73-.22,2.63a64,64,0,0,1-19.89,7.94C150.73,210.42,145,211.24,139.21,210.28Z"/><path class="cls-6" d="M152.8,145.57c-1.17.05-2.74.14-4.31.17-.52,0-1.25.34-1.52-.34s.42-.82.72-1.19a81.12,81.12,0,0,1,13.74-12.76,161.52,161.52,0,0,1,22.23-13.8c3.94-2.12,8.3-3.3,12.51-4.8.88-.31,1.58-.38,1.74,1a24.72,24.72,0,0,0,2.44,7,5.3,5.3,0,0,1-.92,6.08c-4.2,5.08-9.94,7.82-15.78,10.22-5.63,2.32-11.52,4-17.23,6.17C162.2,144.86,157.68,145.26,152.8,145.57Z"/><path class="cls-9" d="M152.1,149.35c6.08-1.32,12.35-1.88,18.21-4.09s12-4,17.85-6.34c4.38-1.71,8.41-3.9,12.55-6,.62-.31,1.36-1.23,2-.24a2,2,0,0,1-.31,2.54,9.61,9.61,0,0,1-2.86,1.83,126,126,0,0,1-27,10.28,114.29,114.29,0,0,1-18.41,3.18,48.62,48.62,0,0,0-10.23,1.85,22.3,22.3,0,0,1-3.59.43c-2.2.45-3.4,1.63-8.18.34-5.23.09-10.27-1.2-15.37-2a71.05,71.05,0,0,0-9.91-1.22c-2.8-.06-5.35-1.36-8-2.21-6.43-2.07-13-3.63-19.27-6.28-5.26-2.23-10.08-4.95-13.87-9.28-2-2.27-4.61-3.81-6.84-5.8-1.68-1.51-1.86-3-.73-5.17a28.15,28.15,0,0,0,2.65,3.42c5.85,5.53,10.95,12,18.75,15.09a64.57,64.57,0,0,0,13.83,4.15c6.42,1,12.93,1.78,19.17,3.77a4.4,4.4,0,0,0,2.08.31c4.3-.71,8.42.82,12.68,1,3,.1,6.15-.67,9.13.26a18.93,18.93,0,0,0,6.74.6C147.11,149.56,147.1,149.29,152.1,149.35Z"/><path class="cls-10" d="M109.43,75.87c-1.27,2.66-2.09,6.4-6.24,7.83C97.6,85.63,92.15,86,86.74,83c-6.81-3.85-6.94-10.56-3.94-15.6a10.35,10.35,0,0,1,9.35-5.08,19.36,19.36,0,0,1,11,3.23C106.09,67.49,109.33,72.39,109.43,75.87ZM95.11,79.46a5.47,5.47,0,0,0,5-3.56,5.1,5.1,0,0,0-1.6-5.72c-1.78-1.63-4.32-1.62-6.29-2.89-.75-.48-1.4.66-1.71,1.27a20.81,20.81,0,0,0-1.27,3.57C88,76.44,90.53,79.62,95.11,79.46Z"/><path class="cls-11" d="M61.91,120.34c5,.51,9.42,2,13.87,3.34,2,.62,4,1.45,6.08,1.93,8.26,1.94,15.82,5.55,23.08,9.78,3,1.74,5.58,4.16,8.31,6.32a11.15,11.15,0,0,1,1.42,1.68c-1.43.61-2.57,0-3.7-.2-7.6-1.06-15.07-2.79-22.53-4.54A17.37,17.37,0,0,1,83,136.4c-2.28-1.45-4.65-2.77-7.06-4-5.26-2.66-9.37-6.68-13.26-11A10,10,0,0,1,61.91,120.34Z"/><path class="cls-12" d="M147.1,99.2a5.06,5.06,0,0,1,.83-.58,87.49,87.49,0,0,0,23.45-15.76,139.84,139.84,0,0,1,17.1-13.19,16.05,16.05,0,0,1,4.24-2c.64-.2,1.45-.6,2,0s.28,1.33,0,2a10.24,10.24,0,0,1-.87,2.16c-6.35,9.79-14,18-25.57,21.82-4.06,1.34-8.24,2.44-12.14,4.07-2.37,1-4.53,2.05-7.11,2.05C148.44,99.77,147.69,100,147.1,99.2Z"/><path class="cls-13" d="M112,64.64c0,.72.06,1.07.06,1.43s.13,1.13-.41,1.34-.85-.43-1-.83a12.28,12.28,0,0,0-6.11-6.24c-1.76-.87-2.3-2.9-2.64-4.7-1.07-5.72-3-11.24-3.73-17-.62-4.78.59-9.3,2-13.79.41-1.33,1.33-1.14,1.92-.09a27.19,27.19,0,0,1,1.33,3.12,103.54,103.54,0,0,1,6.39,21.34C110.65,54.44,111.26,59.73,112,64.64Z"/><path class="cls-9" d="M62.42,114.8c3.73,1.4,7.46-.85,11.23.45C78.77,117,83.91,118.72,89,120.5c8.64,3,16.41,7.63,24.11,12.35,4.51,2.76,8.06,6.77,11.71,10.57a.94.94,0,0,1,.29,1.15c-.24.43-.75.4-1.16.35a6.31,6.31,0,0,1-3.4-1.66A152.48,152.48,0,0,0,107,132.18c-4.58-3.28-9.88-5.36-15.14-7.38a154.81,154.81,0,0,0-24.81-7.08c-1.66-.34-3.36-.49-5-.79-.59-.11-1.51-.15-1.36-1S61.66,114.84,62.42,114.8Z"/><path class="cls-13" d="M117.57,34.3c3,2.55,3.43,5.78,3.61,8.66.42,6.82,1.58,13.65.27,20.53-.52,2.76-2.65,1.52-4,2s-1.1-1.17-1.16-2a80,80,0,0,0-1.22-8.84C113.82,47.75,115.55,41.21,117.57,34.3Z"/><path class="cls-14" d="M42.22,165c-1.77-2.47-1-5-.48-7.45,1.94-8.71,4.31-17.29,9.46-24.79.24-.35.47-.71.74-1,.07-.09.24-.08.63-.2-.21,2.87.11,5.68-.67,8.41a24.5,24.5,0,0,0-1.22,8.15,7.57,7.57,0,0,1-.61,3.1A57.22,57.22,0,0,1,42.22,165Z"/><path class="cls-15" d="M192.63,110.23c-4.69,2.18-9.62,3.67-14,6.29a203,203,0,0,0-25.71,17.58,34.43,34.43,0,0,0-7.82,9c-1.8,3-1.82,3-5.46,2.25a31.36,31.36,0,0,1,6.69-8.54c7.79-6.78,16-13.08,25.13-18,5.83-3.11,11.49-6.62,17.93-8.47A6.17,6.17,0,0,1,192.63,110.23Z"/><path class="cls-13" d="M129.51,42.24a19.69,19.69,0,0,1,2.28,7.47,29.65,29.65,0,0,1-.54,13.07c-.79,2.7-2.77,1.31-4.21,1.52s-1.06-1.2-1.11-2C125.62,56.45,127.38,46.4,129.51,42.24Z"/><path class="cls-16" d="M208.79,139.61c4.28,4.87,9,8.38,15,10.3-3.43,2.66-7.46,3.1-10.5,1.4C208.68,148.73,208.15,147.44,208.79,139.61Z"/><path class="cls-9" d="M130.89,175.88a10.27,10.27,0,0,1-5.26-1.43,28.82,28.82,0,0,0-6.48-2.56,3.93,3.93,0,0,1-.6-.2c-1-.5-2.44-.85-2-2.21.57-1.65,1.88-.82,3-.4,3.91,1.45,7.86,2.81,11.77,4.28.7.26,2.06,0,1.91,1.21S131.95,175.89,130.89,175.88Z"/><path class="cls-15" d="M123.45,159.17c.4.11.74.19,1.07.31,4.27,1.53,8.53,3.06,12.79,4.62.49.18,1.22.38,1,1.11s-.69,1-1.5.7c-4.57-1.43-9.44-1.89-13.79-4.07-.5-.25-1.41-.29-1-1.26C122.37,159.94,122.68,159.29,123.45,159.17Z"/><path class="cls-17" d="M162.31,212l-4.49,13.18-.56-.09c.08-2.14.15-4.27.24-6.41,0-.57.12-1.13.14-1.7C157.76,212.9,157.75,212.9,162.31,212Z"/><path class="cls-17" d="M94.8,210.95l3.55,1.21a2.25,2.25,0,0,1,1.61,2.25c.11,2.91.25,5.82.07,8.85Z"/><path class="cls-11" d="M122,156.18q0-.41-.06-.82c4.11-.06,8,1.35,12.3,1.54-1.16,2.17-2.73,2.34-4.46,1.68s-3.65-1.53-5.43-2.39A2.2,2.2,0,0,0,122,156.18Z"/><path class="cls-5" d="M143.93,85.68c-2,.11-3.13-.76-3.15-2.51a3.81,3.81,0,0,1,3.38-3.25c1.43,0,2.58,1.34,2.68,3.23C146.94,84.78,146,85.57,143.93,85.68Z"/><path class="cls-5" d="M127.66,86.3c1.22.2,2.46.38,2.51,2a3.77,3.77,0,0,1-3.39,3.48c-1.51,0-2.15-.87-2.14-2.31A3.07,3.07,0,0,1,127.66,86.3Z"/><path class="cls-5" d="M95.11,79.46c-4.58.17-7.13-3-5.84-7.34a20.81,20.81,0,0,1,1.27-3.57c.31-.61,1-1.75,1.71-1.27,2,1.27,4.51,1.26,6.29,2.89a5.1,5.1,0,0,1,1.6,5.72A5.47,5.47,0,0,1,95.11,79.46Zm2.31-4.75A8,8,0,0,0,94,70.64c-1.22-.82-2.16-.42-2.75.87a3.53,3.53,0,0,0,1,4.41c1.37,1.27,2.93,1.21,4.56.5C97.46,76.12,97.38,75.56,97.42,74.71Z"/><path class="cls-10" d="M97.42,74.71c0,.86,0,1.41-.66,1.72-1.64.71-3.19.77-4.56-.5a3.53,3.53,0,0,1-1-4.41c.6-1.28,1.54-1.69,2.75-.87A8,8,0,0,1,97.42,74.71Z"/></g></svg>