<svg id="圖層_1" data-name="圖層 1" xmlns="http://www.w3.org/2000/svg" viewBox="0 0 478.66 86.67"><defs><style>.cls-1{fill:#aeca5b;}.cls-2{fill:#040000;}.cls-3{fill:none;stroke:#040000;stroke-miterlimit:10;stroke-width:3px;}.cls-4{fill:#549435;}.cls-5{fill:#99ab47;}</style></defs><title>graphic</title><path class="cls-1" d="M42,59c.12-.7,0-1-.46-1.36-.74-.52-.63-1.42-.71-2.19a4.6,4.6,0,0,1,4.08-5.09,6.29,6.29,0,0,1,4.65,1.13,2.37,2.37,0,0,1,.55.79c.18.34.43.63.8.41a.89.89,0,0,0,.24-.75c-.19-1.21-.54-2.41-.65-3.62A17.87,17.87,0,0,1,51,40.66a11.38,11.38,0,0,1,3.65-5.34,12.31,12.31,0,0,1,3-2,29.94,29.94,0,0,1,5.7-1.49,15.79,15.79,0,0,1,7.32.69c1.28.41,2.57.83,3.86,1.18,2.91.79,4.63,3,6.2,5.32,1,1.47,1,3.19,1.11,4.87A10.84,10.84,0,0,1,81.2,49a22.22,22.22,0,0,1-1.91,3.11c-.47.71-1.07,1.33-1.52,2.06a1,1,0,0,0,.07,1c.29.25.56,0,.82-.35,2-3.06,5-4,8.24-2.54a10.92,10.92,0,0,1,2.62,2.26,4.15,4.15,0,0,1,1.22,3,2.37,2.37,0,0,0,.18.59c.16-.08.38-.11.48-.23.42-.52.81-1.07,1.2-1.62,1.3-1.86,4.13-3.7,6.66-2.91A6.15,6.15,0,0,1,103,56.84c.12.27,0,.63.06.95,0,.15.12.37.22.39s.41-.07.44-.17c.14-.49.57-.92.2-1.5a11.41,11.41,0,0,1-.9-1.76,2.36,2.36,0,0,1-.18-1.13,10.38,10.38,0,0,1,1.52-4.54c.4-.6.63-1.32,1-1.92a4,4,0,0,1,1.22-1.34,6.33,6.33,0,0,1,7.31.28c.24.18.37.52.58.75s.39.41.54.38.37-.3.51-.5a2.13,2.13,0,0,0,.18-.56c-.7-.73-.4-1.57-.09-2.3a8.13,8.13,0,0,1,2.9-4.12A10.93,10.93,0,0,1,122,38.5c1.87-.4,3.63.31,5.3,1.06A8.92,8.92,0,0,1,129,41.07c.17.15.52.33.62.26a1.13,1.13,0,0,0,.35-.69,36.36,36.36,0,0,1,.58-3.65,15.08,15.08,0,0,1,1.35-3.14c.58-1.07,1.3-2.06,2-3.07A13.29,13.29,0,0,1,137,27.45a24.07,24.07,0,0,1,2.21-1.72,24.4,24.4,0,0,1,3.48-1.62,14.47,14.47,0,0,1,5.87-.45,42.64,42.64,0,0,1,5.2.35,9.29,9.29,0,0,1,3.11,1.28c1.3.77,2.49,1.73,3.73,2.62a16.41,16.41,0,0,1,1.84,1.4,8.88,8.88,0,0,1,1,1.47,16.14,16.14,0,0,1,1,1.49A17,17,0,0,1,166.39,38c.15,1.13.34,2.27.4,3.41s0,2.44,0,3.66a2,2,0,0,0,.2.58c.24-.11.61-.15.7-.33a8.34,8.34,0,0,1,3.42-3.59,35,35,0,0,1,3.31-1.54c2.59-1.19,5.11-.67,7.59.36a12.47,12.47,0,0,1,2.8,1.38,10.86,10.86,0,0,1,3.77,4,11.4,11.4,0,0,1,1.22,2.6c0,.14.25.24.38.36a1.63,1.63,0,0,0,.3-.36c.39-.94.75-1.89,1.15-2.82a4.58,4.58,0,0,1,2-2.16,21.91,21.91,0,0,1,3.2-1.49c1.35-.49,2.52.18,3.63.87a5.59,5.59,0,0,1,1.14.85c.49.52.9,1.13,1.37,1.68a3.86,3.86,0,0,0,.57.47c.05-.22.18-.46.14-.65a5.92,5.92,0,0,1,1.54-5.42c1.09-1.26,2.6-1.32,4.07-1.47A6.1,6.1,0,0,1,214,40.16c.21.18.33.47.54.64a7.78,7.78,0,0,0,.93.54,6.11,6.11,0,0,0,.14-1,19.79,19.79,0,0,1-.11-2.88,5.16,5.16,0,0,1,2-3.22c.57-.49,1.16-1,1.75-1.44a4.9,4.9,0,0,1,4.58-.79,8.74,8.74,0,0,1,5.52,4.17,1,1,0,0,0,.76.26c.12,0,.28-.36.31-.57.24-1.84.42-3.69.68-5.53.19-1.36.47-2.7.74-4a12.56,12.56,0,0,1,1.54-4.45,34.52,34.52,0,0,1,2.48-3.62,22.91,22.91,0,0,1,6.77-5.78A32.1,32.1,0,0,1,248.43,10a27.3,27.3,0,0,1,8.21-1.12A28.5,28.5,0,0,1,267.51,11a13.57,13.57,0,0,1,3.94,3,10.94,10.94,0,0,1,2.42,3.39,42.1,42.1,0,0,0,2.49,4.54,9.2,9.2,0,0,1,1.17,3.54c.31,2,.5,4.08.64,6.12a10.75,10.75,0,0,1-.3,2.23,15.78,15.78,0,0,0-.25,1.85c0,.23.29.47.45.7a3.25,3.25,0,0,0,.35-.61c.17-.53.27-1.09.44-1.62A8.61,8.61,0,0,1,282.24,30a8.21,8.21,0,0,1,4.11-1.72,2.85,2.85,0,0,1,1.09.05,14.35,14.35,0,0,1,4.3,1.69,8.59,8.59,0,0,1,2.48,2.38,15.66,15.66,0,0,1,.64,1.53c.09.18.28.43.43.44s.39-.21.48-.39c.37-.7.66-1.46,1.07-2.14a4.94,4.94,0,0,1,2.87-2.13,6.75,6.75,0,0,1,3.42-.35,4.79,4.79,0,0,1,2.77.9l.11.07c1.77.65,2.66,2.12,3.41,3.72.2.44.21,1,.38,1.43.1.27.29.67.5.71a.75.75,0,0,0,.89-.55c.51-1.51,1.08-3,1.64-4.5.46-1.24.92-2.48,1.4-3.71A28.66,28.66,0,0,1,315.56,24a13.69,13.69,0,0,1,3.28-4c.85-.71,1.66-1.48,2.54-2.14a14.26,14.26,0,0,1,1.71-.88c.88-.49,1.7-1.09,2.62-1.48,1.12-.48,2.3-.79,3.46-1.18.51-.17,1-.3,1.54-.48a17.1,17.1,0,0,1,6.09-.61c.6,0,1.2,0,1.8,0,1.65.12,3.3.2,4.93.42a23.18,23.18,0,0,1,6.72,2.12,15,15,0,0,1,5.72,4.7,20.41,20.41,0,0,1,2.28,4.26,18.83,18.83,0,0,1,1.53,5.58c.09,1,0,1.94.05,2.9a2.08,2.08,0,0,1-.89,1.79,2.93,2.93,0,0,0-.56,1.19.51.51,0,0,0,.2.46.67.67,0,0,0,.59,0c.48-.5.9-1.05,1.35-1.59A3.37,3.37,0,0,1,363,34a6.78,6.78,0,0,1,5.36,1.94A4.79,4.79,0,0,1,370,39.35c0,.33-.05.85.49.82s.68-.37.63-.88A5.24,5.24,0,0,1,372.3,35a4.88,4.88,0,0,1,1.23-1c.69-.38,1.44-.64,2.17-1a7.5,7.5,0,0,1,3.74-.45,3.55,3.55,0,0,1,1.36.67c.32.2.59.51.91.71.13.08.36,0,.54,0a1.9,1.9,0,0,0,0-.68c-.08-.17-.37-.25-.46-.43a.85.85,0,0,1-.07-.67,11.73,11.73,0,0,1,1.62-2.47c3-3.15,6.51-4.9,11-4a34.48,34.48,0,0,1,4.64,1.06,14.12,14.12,0,0,1,3.47,1.89c1.27.91,2.38,2,3.6,3,.21.17.6.12.91.18,0-.27,0-.6-.09-.8a18.53,18.53,0,0,0-1.23-1.49,17.88,17.88,0,0,1,3-1,14.4,14.4,0,0,1,5.51-.13,10.86,10.86,0,0,1,5.87,3.34A14.93,14.93,0,0,1,423.07,37a27.57,27.57,0,0,1,.87,4.43,5.09,5.09,0,0,1-.17,1.28c-.14,1.17-.26,2.35-.41,3.52a1.22,1.22,0,0,1-.3.62.92.92,0,0,0,.28,1.41,1,1,0,0,0,.66-.09,12.2,12.2,0,0,1,6.55-1.5,36.17,36.17,0,0,1,5.55.66,9.36,9.36,0,0,1,2.7,1.54,10.75,10.75,0,0,1,3,3.23,17.1,17.1,0,0,1,1.9,2.87,14.51,14.51,0,0,1,1.15,5.88c0,.33.17.89.38,1a1.33,1.33,0,0,0,1.08-.28A9,9,0,0,1,450,59.12a9.11,9.11,0,0,1,6.25.29,6.73,6.73,0,0,1,3.92,4.65,11,11,0,0,0,.32,1.19,2.11,2.11,0,0,1-.5,2,2.19,2.19,0,0,0-.19.5,2.38,2.38,0,0,0,.47.09h3.43a8.42,8.42,0,0,1,4.17,1.37c.23.12.42.3.64.43A3.78,3.78,0,0,1,470.19,72a16.83,16.83,0,0,1,.67,2.43c.16,1.29.4,2.66-1,3.51-.47.28-.84.84-1.33.95a13,13,0,0,1-2.92.24c-2.77,0-5.55-.21-8.32-.21s-5.81.13-8.71.2c-1.14,0-2.28,0-3.42.09-.71,0-1.41.19-2.11.2-3.14,0-6.28.06-9.42.1-3.57,0-7.14.1-10.72.13-3.81,0-7.62,0-11.43.07-2.65,0-5.3.09-7.94.09q-5.1,0-10.2-.11c-1.66,0-3.31-.18-5-.23-.82,0-1.63.06-2.45.06-1.52,0-3,0-4.56,0-.49,0-1,.18-1.46.16-2-.08-4-.25-5.93-.3-1.61,0-3.22,0-4.83.05-1.78,0-3.56.06-5.34.11-4.11.11-8.21.26-12.32.33-3.23.05-6.46,0-9.68,0-1.78,0-3.56,0-5.33,0-2.32-.07-4.63-.24-7-.3a17.55,17.55,0,0,0-2.68.21,23.6,23.6,0,0,1-4,0c-2.36-.1-4.73-.05-7.1,0-1.93,0-3.86,0-5.8.06-3.71,0-7.43.09-11.14.09s-7.57,0-11.36-.08c-2.84,0-5.68-.12-8.51-.14-3.87,0-7.74,0-11.61,0-2.95,0-5.9-.09-8.85-.12-2.15,0-4.3,0-6.45,0-2.58,0-5.17-.12-7.75-.15-1.81,0-3.62,0-5.43,0l-12.46-.08-14.46-.12-8.53-.07c-4.31,0-8.61-.08-12.91-.05-1.67,0-3.34,0-5-.07-2.1-.06-4.21.11-6.32.12-1.63,0-3.25-.1-4.88-.12-2.25,0-4.51,0-6.76,0-1.61,0-3.21-.12-4.82-.13-3.94,0-7.87,0-11.81,0-1.68,0-3.35-.16-5-.17-1.91,0-3.82,0-5.72,0-1.42,0-2.83-.07-4.25-.07-3,0-6,0-9,0-1,0-2-.09-3-.1-1.85,0-3.69,0-5.54,0-2.34,0-4.69,0-7,0a39.34,39.34,0,0,0-6.28.24,29,29,0,0,1-4,.1l-9.54.05c-1.26,0-2.53.11-3.79.08-2.34,0-4.68-.19-7-.21-2.63,0-5.25,0-7.88.05-1.07,0-2.14-.09-3.21-.1l-11.29-.12c-3.1,0-6.2,0-9.3-.09q-5-.07-10-.18c-3.29-.07-6.57-.19-9.86-.25-2.7-.05-5.41,0-8.11-.08-.41,0-.81-.1-1.22-.09a9.78,9.78,0,0,0-1.28.13A1.5,1.5,0,0,1,17,77.21a5.52,5.52,0,0,1-.19-5.94,25.46,25.46,0,0,1,1.53-2.43,8,8,0,0,1,4.73-3,15.63,15.63,0,0,1,4.3-.06c1.34,0,2,.84,2.83,1.64a2.63,2.63,0,0,0,1.25.48c.07,0,.4-.47.34-.61a8,8,0,0,1,.34-6.91,5.58,5.58,0,0,1,1.47-2,8.58,8.58,0,0,1,2.65-1.14,3.88,3.88,0,0,1,4.37,1.36C40.83,58.87,41.45,58.87,42,59Z"/><path class="cls-2" d="M103.76,58c0,.1-.3.2-.44.17s-.2-.25-.22-.39c0-.31.06-.68-.06-.95a6.15,6.15,0,0,0-3.79-3.54c-2.54-.79-5.37,1-6.66,2.91-.38.55-.78,1.1-1.2,1.62-.1.13-.32.16-.48.23a2.37,2.37,0,0,1-.18-.59,4.15,4.15,0,0,0-1.22-3,10.92,10.92,0,0,0-2.62-2.26c-3.27-1.46-6.27-.52-8.24,2.54-.26.4-.53.6-.82.35a1,1,0,0,1-.07-1c.45-.72,1-1.35,1.52-2.06A22.22,22.22,0,0,0,81.2,49a10.84,10.84,0,0,0,.58-5.09c-.09-1.67-.12-3.4-1.11-4.87-1.58-2.35-3.29-4.53-6.2-5.32-1.3-.35-2.58-.77-3.86-1.18a15.79,15.79,0,0,0-7.32-.69,29.94,29.94,0,0,0-5.7,1.49,12.31,12.31,0,0,0-3,2A11.38,11.38,0,0,0,51,40.66a17.87,17.87,0,0,0-.49,7.67c.11,1.22.46,2.41.65,3.62a.89.89,0,0,1-.24.75c-.36.21-.62-.07-.8-.41a2.37,2.37,0,0,0-.55-.79,6.29,6.29,0,0,0-4.65-1.13,4.6,4.6,0,0,0-4.08,5.09c.08.78,0,1.67.71,2.19.45.32.57.66.46,1.36-.51-.16-1.12-.15-1.38-.45a3.88,3.88,0,0,0-4.37-1.36,8.58,8.58,0,0,0-2.65,1.14,5.58,5.58,0,0,0-1.47,2,8,8,0,0,0-.34,6.91c.06.14-.27.63-.34.61a2.63,2.63,0,0,1-1.25-.48c-.81-.8-1.49-1.62-2.83-1.64a15.63,15.63,0,0,0-4.3.06,8,8,0,0,0-4.73,3,25.46,25.46,0,0,0-1.53,2.43A5.52,5.52,0,0,0,17,77.21a1.5,1.5,0,0,0,1.53.87A9.78,9.78,0,0,1,19.77,78c.41,0,.81.09,1.22.09,2.71,0,5.41,0,8.11.08,3.29.06,6.57.18,9.86.25s6.7.13,10,.18c3.1,0,6.2.06,9.3.09l11.29.12c1.07,0,2.14.1,3.21.1,2.63,0,5.25-.08,7.88-.05,2.34,0,4.68.17,7,.21,1.26,0,2.53-.07,3.79-.08l9.54-.05a29,29,0,0,0,4-.1,39.34,39.34,0,0,1,6.28-.24c2.34,0,4.69,0,7,0,1.85,0,3.69,0,5.54,0,1,0,2,.1,3,.1,3,0,6,0,9,0,1.42,0,2.83.07,4.25.07,1.91,0,3.82-.07,5.72,0,1.68,0,3.35.16,5,.17,3.94,0,7.87,0,11.81,0,1.61,0,3.21.12,4.82.13,2.25,0,4.51,0,6.76,0,1.63,0,3.26.13,4.88.12,2.11,0,4.21-.17,6.32-.12,1.67,0,3.34.08,5,.07,4.3,0,8.61,0,12.91.05l8.53.07,14.46.12,12.46.08c1.81,0,3.62,0,5.43,0,2.58,0,5.16.12,7.75.15,2.15,0,4.3,0,6.45,0,2.95,0,5.9.1,8.85.12,3.87,0,7.74,0,11.61,0,2.84,0,5.68.1,8.51.14,3.79,0,7.57.09,11.36.08s7.43-.06,11.14-.09c1.93,0,3.86-.05,5.8-.06,2.37,0,4.74-.05,7.1,0a23.6,23.6,0,0,0,4,0,17.55,17.55,0,0,1,2.68-.21c2.32.06,4.63.23,7,.3,1.78.05,3.56,0,5.33,0,3.23,0,6.46,0,9.68,0,4.11-.07,8.21-.22,12.32-.33,1.78,0,3.56-.08,5.34-.11,1.61,0,3.22-.1,4.83-.05,2,.05,4,.22,5.93.3.48,0,1-.16,1.46-.16,1.52,0,3,0,4.56,0,.82,0,1.64-.09,2.45-.06,1.66.05,3.31.2,5,.23q5.1.1,10.2.11c2.65,0,5.29-.07,7.94-.09,3.81,0,7.62,0,11.43-.07,3.57,0,7.14-.09,10.72-.13,3.14,0,6.28,0,9.42-.1.7,0,1.4-.17,2.11-.2,1.14-.05,2.28-.06,3.42-.09,2.9-.07,5.8-.2,8.71-.2s5.54.17,8.32.21a13,13,0,0,0,2.92-.24c.49-.1.86-.67,1.33-.95,1.44-.85,1.2-2.22,1-3.51a16.83,16.83,0,0,0-.67-2.43,3.78,3.78,0,0,0-1.64-2.44c-.22-.13-.42-.3-.64-.43a8.42,8.42,0,0,0-4.17-1.37h-3.43a2.38,2.38,0,0,1-.47-.09,2.19,2.19,0,0,1,.19-.5,2.11,2.11,0,0,0,.5-2,11,11,0,0,1-.32-1.19,6.73,6.73,0,0,0-3.92-4.65,9.11,9.11,0,0,0-6.25-.29,9,9,0,0,0-3.69,2.41,1.33,1.33,0,0,1-1.08.28c-.21-.07-.39-.63-.38-1A14.51,14.51,0,0,0,443.72,55a17.1,17.1,0,0,0-1.9-2.87,10.75,10.75,0,0,0-3-3.23,9.36,9.36,0,0,0-2.7-1.54,36.17,36.17,0,0,0-5.55-.66,12.2,12.2,0,0,0-6.55,1.5,1,1,0,0,1-.66.09.92.92,0,0,1-.28-1.41,1.22,1.22,0,0,0,.3-.62c.15-1.17.27-2.35.41-3.52a5.09,5.09,0,0,0,.17-1.28,27.57,27.57,0,0,0-.87-4.43,14.93,14.93,0,0,0-3.16-5.24A10.86,10.86,0,0,0,414,28.42a14.4,14.4,0,0,0-5.51.13,17.88,17.88,0,0,0-3,1A18.53,18.53,0,0,1,406.8,31c.13.2.06.53.09.8-.31-.06-.7,0-.91-.18-1.22-1-2.33-2.11-3.6-3a14.12,14.12,0,0,0-3.47-1.89,34.48,34.48,0,0,0-4.64-1.06c-4.45-.89-8,.86-11,4a11.73,11.73,0,0,0-1.62,2.47.85.85,0,0,0,.07.67c.09.18.38.26.46.43a1.9,1.9,0,0,1,0,.68c-.18,0-.41.07-.54,0-.33-.2-.59-.51-.91-.71a3.55,3.55,0,0,0-1.36-.67,7.5,7.5,0,0,0-3.74.45c-.72.32-1.48.58-2.17,1a4.88,4.88,0,0,0-1.23,1,5.24,5.24,0,0,0-1.19,4.28c.06.51-.17.85-.63.88s-.49-.49-.49-.82a4.79,4.79,0,0,0-1.59-3.42A6.78,6.78,0,0,0,363,34a3.37,3.37,0,0,0-2.53,1.1c-.45.53-.87,1.09-1.35,1.59a.67.67,0,0,1-.59,0,.51.51,0,0,1-.2-.46,2.93,2.93,0,0,1,.56-1.19,2.08,2.08,0,0,0,.89-1.79c-.08-1,0-1.94-.05-2.9a18.83,18.83,0,0,0-1.53-5.58A20.41,20.41,0,0,0,356,20.55a15,15,0,0,0-5.72-4.7,23.18,23.18,0,0,0-6.72-2.12c-1.63-.22-3.29-.3-4.93-.42-.6,0-1.2,0-1.8,0a17.1,17.1,0,0,0-6.09.61c-.5.18-1,.32-1.54.48-1.16.38-2.34.7-3.46,1.18-.92.39-1.74,1-2.62,1.48a14.26,14.26,0,0,0-1.71.88c-.89.66-1.69,1.43-2.54,2.14a13.69,13.69,0,0,0-3.28,4,28.66,28.66,0,0,0-1.37,3.35c-.48,1.23-.94,2.47-1.4,3.71-.55,1.5-1.12,3-1.64,4.5a.75.75,0,0,1-.89.55c-.2,0-.4-.44-.5-.71-.16-.46-.17-1-.38-1.43-.74-1.59-1.64-3.07-3.41-3.72l-.11-.07a4.79,4.79,0,0,0-2.77-.9,6.75,6.75,0,0,0-3.42.35,4.94,4.94,0,0,0-2.87,2.13c-.4.68-.69,1.44-1.07,2.14-.09.18-.33.4-.48.39s-.35-.26-.43-.44a15.66,15.66,0,0,0-.64-1.53A8.59,8.59,0,0,0,291.74,30a14.35,14.35,0,0,0-4.3-1.69,2.85,2.85,0,0,0-1.09-.05A8.21,8.21,0,0,0,282.24,30a8.61,8.61,0,0,0-3.37,4.19c-.18.53-.28,1.09-.44,1.62a3.25,3.25,0,0,1-.35.61c-.16-.24-.45-.47-.45-.7a15.78,15.78,0,0,1,.25-1.85,10.75,10.75,0,0,0,.3-2.23c-.14-2-.34-4.1-.64-6.12a9.2,9.2,0,0,0-1.17-3.54,42.1,42.1,0,0,1-2.49-4.54A10.94,10.94,0,0,0,271.45,14a13.57,13.57,0,0,0-3.94-3,28.5,28.5,0,0,0-10.87-2.21A27.3,27.3,0,0,0,248.43,10a32.1,32.1,0,0,0-5.88,2.45,22.91,22.91,0,0,0-6.77,5.78,34.52,34.52,0,0,0-2.48,3.62,12.56,12.56,0,0,0-1.54,4.45c-.27,1.34-.54,2.69-.74,4-.26,1.84-.44,3.69-.68,5.53,0,.21-.2.56-.31.57a1,1,0,0,1-.76-.26A8.74,8.74,0,0,0,223.76,32a4.9,4.9,0,0,0-4.58.79c-.58.48-1.17,1-1.75,1.44a5.16,5.16,0,0,0-2,3.22,19.79,19.79,0,0,0,.11,2.88,6.11,6.11,0,0,1-.14,1,7.78,7.78,0,0,1-.93-.54c-.22-.17-.33-.46-.54-.64a6.1,6.1,0,0,0-4.66-1.86c-1.47.15-3,.2-4.07,1.47a5.92,5.92,0,0,0-1.54,5.42c0,.2-.09.43-.14.65a3.86,3.86,0,0,1-.57-.47c-.47-.55-.87-1.16-1.37-1.68a5.59,5.59,0,0,0-1.14-.85c-1.11-.69-2.27-1.36-3.63-.87a21.91,21.91,0,0,0-3.2,1.49,4.58,4.58,0,0,0-2,2.16c-.41.93-.76,1.89-1.15,2.82a1.63,1.63,0,0,1-.3.36c-.13-.12-.35-.22-.38-.36a11.4,11.4,0,0,0-1.22-2.6,10.86,10.86,0,0,0-3.77-4,12.47,12.47,0,0,0-2.8-1.38c-2.48-1-5-1.56-7.59-.36a35,35,0,0,0-3.31,1.54,8.34,8.34,0,0,0-3.42,3.59c-.08.18-.46.22-.7.33a2,2,0,0,1-.2-.58c0-1.22.05-2.44,0-3.66s-.25-2.27-.4-3.41a17,17,0,0,0-1.94-5.71,16.14,16.14,0,0,0-1-1.49,8.88,8.88,0,0,0-1-1.47,16.41,16.41,0,0,0-1.84-1.4c-1.23-.89-2.42-1.85-3.73-2.62A9.29,9.29,0,0,0,153.74,24a42.64,42.64,0,0,0-5.2-.35,14.47,14.47,0,0,0-5.87.45,24.4,24.4,0,0,0-3.48,1.62A24.07,24.07,0,0,0,137,27.45a13.29,13.29,0,0,0-3.11,3.33c-.68,1-1.4,2-2,3.07A15.08,15.08,0,0,0,130.56,37a36.36,36.36,0,0,0-.58,3.65,1.13,1.13,0,0,1-.35.69c-.1.07-.45-.11-.62-.26a8.92,8.92,0,0,0-1.74-1.52c-1.67-.75-3.42-1.46-5.3-1.06a10.93,10.93,0,0,0-3.39,1.27,8.13,8.13,0,0,0-2.9,4.12c-.3.72-.6,1.57.09,2.3a2.13,2.13,0,0,1-.18.56c-.13.2-.31.46-.51.5s-.39-.22-.54-.38-.34-.57-.58-.75a6.33,6.33,0,0,0-7.31-.28,4,4,0,0,0-1.22,1.34c-.4.6-.63,1.31-1,1.92a10.38,10.38,0,0,0-1.52,4.54,2.36,2.36,0,0,0,.18,1.13,11.41,11.41,0,0,0,.9,1.76C104.33,57.09,103.9,57.52,103.76,58ZM472.08,76.14a4.51,4.51,0,0,1-.49,1.58,4.32,4.32,0,0,1-3.41,2.66,1.24,1.24,0,0,0-.29.1,2.06,2.06,0,0,1-2,.14,7.74,7.74,0,0,0-2.87-.18c-1.57,0-3.13.08-4.7.08-2.11,0-4.22-.11-6.33-.12-3.1,0-6.2,0-9.3,0-1.56,0-3.13.22-4.69.27-1.22,0-2.45,0-3.68-.06-.71,0-1.41,0-2.12,0-2.64.11-5.28.26-7.92.34-1.33,0-2.66,0-4-.06-1.7,0-3.39,0-5.09,0-1.53,0-3.05-.12-4.57-.11s-2.84.14-4.26.16c-2,0-4,0-6,0-.73,0-1.46-.05-2.19-.07-3.17-.09-6.33-.25-9.49-.25-4,0-8,.16-12,.2-1.52,0-3-.11-4.57-.14-1.24,0-2.49,0-3.74,0-1.5,0-3-.08-4.5-.08q-3.13,0-6.25.06c-3.74.07-7.48.2-11.22.23-1.93,0-3.86-.15-5.79-.2-1.18,0-2.36,0-3.54,0-2.66,0-5.33-.07-8,0-2.9,0-5.8.14-8.71.15-2.43,0-4.86-.1-7.29-.13-.58,0-1.15.12-1.73.12-3.22,0-6.45.11-9.67.11-3,0-6,0-9-.09-2,0-4.08-.1-6.12-.12-1.12,0-2.24,0-3.36,0-2.64,0-5.29,0-7.93,0-2.21,0-4.43-.09-6.65-.09s-4.43,0-6.64.05c-2.71,0-5.42,0-8.13,0-3.24,0-6.49.05-9.73,0-2.39,0-4.78-.11-7.16-.15-2.54,0-5.08-.08-7.62-.09-3.1,0-6.19,0-9.29,0-2.26,0-4.51-.17-6.77-.23-.59,0-1.19.16-1.78.15-2.14,0-4.29,0-6.43-.14-1.31-.06-2.6-.29-3.91-.35-1.61-.07-3.22,0-4.84-.06l-8.7-.1-8.12-.06c-.15,0-.41,0-.42.1-.14.86-.4.2-.65.08s-.51-.42-.57.14c0,0-.1.09-.15.09l-1.45,0h-2.61a.94.94,0,0,1-.5-.06,2.68,2.68,0,0,0-2.53-.1,2.23,2.23,0,0,1-.63.1L159.08,80l-7.79,0L143,80l-11.16-.08c-3.67,0-7.35,0-11,0-2.21,0-4.42-.07-6.64-.08-3.05,0-6.11,0-9.16,0q-7,0-13.93-.09c-1.74,0-3.48-.1-5.22-.1-2.19,0-4.39.07-6.58.09-1.41,0-2.82,0-4.24,0-3.23-.05-6.46-.15-9.68-.2-1.85,0-3.69,0-5.54,0-2.21,0-4.42-.05-6.64-.06-2.86,0-5.73,0-8.59,0-2.54,0-5.07-.13-7.6-.16-1.94,0-3.87.05-5.81.05-4.11,0-8.22.06-12.33-.08a3.87,3.87,0,0,1-3-1.25,2.8,2.8,0,0,1-.46-1.11A16,16,0,0,1,14.78,74a5.46,5.46,0,0,1,.48-2.13,10.68,10.68,0,0,1,1.25-2.35,10.15,10.15,0,0,1,3.3-3.44c.72-.37,1.5-.62,2.25-.94.47-.2.94-.43,1.4-.67a5.2,5.2,0,0,1,3.4-.42,7.31,7.31,0,0,1,1.81.76c.4.19.78.43,1.25.69a2.15,2.15,0,0,0,.11-.44,10.26,10.26,0,0,1,1.87-6.32,5.65,5.65,0,0,1,5.72-2.65c.69.1,1.38.23,2.16.37A6.57,6.57,0,0,1,42.57,50c1.67-1.19,4.58-1.11,7.06.44a10.78,10.78,0,0,0-.12-1.22,18.4,18.4,0,0,1,.6-9.67A6.74,6.74,0,0,1,51,37.65a31.56,31.56,0,0,1,2.65-3.36,7.47,7.47,0,0,1,3.85-2.12c2-.45,4-1,6-1.28a12.88,12.88,0,0,1,5,.11c.93.24,1.91.28,2.84.54,1.63.44,3.36.68,4.77,1.73s2.59,2,3.79,3.05a7.57,7.57,0,0,1,1.63,2.07A11.72,11.72,0,0,1,82.45,41a7.86,7.86,0,0,1,.24,1.79,31.62,31.62,0,0,1-.07,4.43,19.46,19.46,0,0,1-1,3.35c.18.34.56.3,1,.24a8.23,8.23,0,0,1,5.61,1.09,7.36,7.36,0,0,1,2.34,2.75,2.35,2.35,0,0,0,.28.43c.8.86.87.8,1.78,0,1.63-1.4,3.34-2.8,5.63-2.82a10.39,10.39,0,0,1,2.54.55,11.43,11.43,0,0,1,1.2.46,9.47,9.47,0,0,1,.11-1.23c.36-1.55.46-3.21,1.6-4.45.63-.69,1.38-1.27,2.07-1.91a8.22,8.22,0,0,1,4.51-2,8,8,0,0,1,3,.57c.75.2.73.17,1-.58a8.21,8.21,0,0,1,2.62-4,10.68,10.68,0,0,1,3.89-2.23,7.12,7.12,0,0,1,5.32.31c.64.32,1.34.52,2,.8.33.14.63.33,1,.52.45-1.18.82-2.3,1.3-3.38a21.6,21.6,0,0,1,1.6-3.08,52.26,52.26,0,0,1,3.17-4.37,8.27,8.27,0,0,1,3.44-2.9A16.26,16.26,0,0,0,140.75,24a9.41,9.41,0,0,1,4.58-1.28c2.17,0,4.34-.07,6.51,0a14,14,0,0,1,8.6,3.52,38.9,38.9,0,0,1,4,3.89,10.86,10.86,0,0,1,2.36,4.69c.47,2,.67,4,1,6,0,.32,0,.65,0,1a3.43,3.43,0,0,0,.19.63,1.78,1.78,0,0,0,.54-.21,19.2,19.2,0,0,1,6.18-3.37,8.32,8.32,0,0,1,4.09-.23A21.79,21.79,0,0,1,183.74,40a10.08,10.08,0,0,1,3.21,2.3,14.08,14.08,0,0,1,2.41,3.17l.62,1.06a7.72,7.72,0,0,1,5.41-5.23c2.66-.89,5.07-.1,7.22,1.95a8.27,8.27,0,0,0,.25-1.35,3.19,3.19,0,0,1,1-2.18c.27-.3.55-.59.83-.88a4.69,4.69,0,0,1,2.6-1.27,9.14,9.14,0,0,1,5.74.61,10.05,10.05,0,0,1,1.45,1.07,4.25,4.25,0,0,0,.17-1.09A4.35,4.35,0,0,1,215.74,35a33.67,33.67,0,0,1,2.79-3.06c.93-.94,2.19-.85,3.38-1,1.83-.22,3.34.55,4.88,1.33a6,6,0,0,1,2.46,2.2,3.35,3.35,0,0,0,.46.44c.12-.87.26-1.59.31-2.31a14,14,0,0,1,.77-4.91,4.92,4.92,0,0,0,.21-1.21,15.6,15.6,0,0,1,3.52-7.76c.57-.67,1-1.46,1.6-2.11a30.2,30.2,0,0,1,2.56-2.5,13,13,0,0,1,2.38-1.73c1.51-.8,3.07-1.52,4.65-2.16,1.25-.51,2.56-.87,3.85-1.27a22.36,22.36,0,0,1,7.07-1,40.56,40.56,0,0,1,4.44.14,18.05,18.05,0,0,1,3.65,1,33.34,33.34,0,0,1,4.21,1.77,15.38,15.38,0,0,1,4.7,3.88,25.39,25.39,0,0,1,4.06,7.46,22.38,22.38,0,0,1,1.54,7.92,4.81,4.81,0,0,0,.28,1.14l.82-.64c1.12-.9,2.2-1.86,3.39-2.68a4.53,4.53,0,0,1,2.73-.59,12.33,12.33,0,0,1,4.09.77,9.92,9.92,0,0,1,3.24,2.17,17.64,17.64,0,0,1,1.23,1.4c.2.23.4.34.58,0,1.23-2.64,3.52-3.41,6.15-3.36a11.21,11.21,0,0,1,3.92.68,9.09,9.09,0,0,1,4.06,3.19c.28.38.57.75,1,1.24.14-.49.21-.86.35-1.2.44-1.1.87-2.19,1.35-3.27.73-1.66,1.45-3.32,2.27-4.93.47-.93,1.14-1.77,1.69-2.66a15,15,0,0,1,5.37-4.9,22.75,22.75,0,0,1,2.83-1.34c1.32-.56,2.65-1.13,4-1.59a29.13,29.13,0,0,1,3.53-1,30.38,30.38,0,0,1,8.75-.3,41.3,41.3,0,0,1,5.42.85,14.56,14.56,0,0,1,3,1.17,25.33,25.33,0,0,1,3.86,2,19.8,19.8,0,0,1,3.08,2.9,16.84,16.84,0,0,1,3.54,6.71,3.64,3.64,0,0,0,.4.89,8.19,8.19,0,0,1,.95,4.8c0,.38-.07.77-.11,1.15s.13.7.63.61a11.2,11.2,0,0,1,1.59-.26A8.59,8.59,0,0,1,368.9,35,7.32,7.32,0,0,1,370,36.35c.1.13.21.25.24.28.63-.83,1.25-1.61,1.82-2.42s1.58-1.07,2.41-1.54a9.71,9.71,0,0,1,5.24-1c.38,0,.84.18,1.12,0s.35-.66.55-1a18.46,18.46,0,0,1,2.53-3.07,16.1,16.1,0,0,1,4.33-2.94,8.79,8.79,0,0,1,5.47-.79A26.73,26.73,0,0,1,400.52,26a24.24,24.24,0,0,1,2.71,1.67c.5.32,1,.7,1.49,1a.75.75,0,0,0,.59-.06,15.78,15.78,0,0,1,8.33-1.47,9,9,0,0,1,5.15,2.18A20.38,20.38,0,0,1,423.22,34a11.88,11.88,0,0,1,1.06,2.63,27.26,27.26,0,0,1,1.07,8,6.51,6.51,0,0,1-.37,1.54c.38-.1.7-.17,1-.27a13.87,13.87,0,0,1,9.11-.16,19.33,19.33,0,0,1,5.33,2.78,13.88,13.88,0,0,1,2.19,2,9.36,9.36,0,0,1,1.08,2,5.39,5.39,0,0,0,.44,1.06,12.64,12.64,0,0,1,2.17,5.14c.08.29.18.57.3,1,.42-.3.77-.57,1.13-.82a11.74,11.74,0,0,1,2.15-1.36,4.63,4.63,0,0,1,2.37-.32,27.51,27.51,0,0,1,4.2,1.18A10,10,0,0,1,461,62a4.36,4.36,0,0,1,1,3.77c-.12.58.1.73.67.63a7.46,7.46,0,0,1,8.21,4.18A12.12,12.12,0,0,1,472.08,76.14Z"/><path class="cls-3" d="M472.08,76.14a4.51,4.51,0,0,1-.49,1.58,4.32,4.32,0,0,1-3.41,2.66,1.24,1.24,0,0,0-.29.1,2.06,2.06,0,0,1-2,.14,7.74,7.74,0,0,0-2.87-.18c-1.57,0-3.13.08-4.7.08-2.11,0-4.22-.11-6.33-.12-3.1,0-6.2,0-9.3,0-1.56,0-3.13.22-4.69.27-1.22,0-2.45,0-3.68-.06-.71,0-1.41,0-2.12,0-2.64.11-5.28.26-7.92.34-1.33,0-2.66,0-4-.06-1.7,0-3.39,0-5.09,0-1.53,0-3.05-.12-4.57-.11s-2.84.14-4.26.16c-2,0-4,0-6,0-.73,0-1.46-.05-2.19-.07-3.17-.09-6.33-.25-9.49-.25-4,0-8,.16-12,.2-1.52,0-3-.11-4.57-.14-1.24,0-2.49,0-3.74,0-1.5,0-3-.08-4.5-.08q-3.13,0-6.25.06c-3.74.07-7.48.2-11.22.23-1.93,0-3.86-.15-5.79-.2-1.18,0-2.36,0-3.54,0-2.66,0-5.33-.07-8,0-2.9,0-5.8.14-8.71.15-2.43,0-4.86-.1-7.29-.13-.58,0-1.15.12-1.73.12-3.22,0-6.45.11-9.67.11-3,0-6,0-9-.09-2,0-4.08-.1-6.12-.12-1.12,0-2.24,0-3.36,0-2.64,0-5.29,0-7.93,0-2.21,0-4.43-.09-6.65-.09s-4.43,0-6.64.05c-2.71,0-5.42,0-8.13,0-3.24,0-6.49.05-9.73,0-2.39,0-4.78-.11-7.16-.15-2.54,0-5.08-.08-7.62-.09-3.1,0-6.19,0-9.29,0-2.26,0-4.51-.17-6.77-.23-.59,0-1.19.16-1.78.15-2.14,0-4.29,0-6.43-.14-1.31-.06-2.6-.29-3.91-.35-1.61-.07-3.22,0-4.84-.06l-8.7-.1-8.12-.06c-.15,0-.41,0-.42.1-.14.86-.4.2-.65.08s-.51-.42-.57.14c0,0-.1.09-.15.09l-1.45,0h-2.61a.94.94,0,0,1-.5-.06,2.68,2.68,0,0,0-2.53-.1,2.23,2.23,0,0,1-.63.1L159.08,80l-7.79,0L143,80l-11.16-.08c-3.67,0-7.35,0-11,0-2.21,0-4.42-.07-6.64-.08-3.05,0-6.11,0-9.16,0q-7,0-13.93-.09c-1.74,0-3.48-.1-5.22-.1-2.19,0-4.39.07-6.58.09-1.41,0-2.82,0-4.24,0-3.23-.05-6.46-.15-9.68-.2-1.85,0-3.69,0-5.54,0-2.21,0-4.42-.05-6.64-.06-2.86,0-5.73,0-8.59,0-2.54,0-5.07-.13-7.6-.16-1.94,0-3.87.05-5.81.05-4.11,0-8.22.06-12.33-.08a3.87,3.87,0,0,1-3-1.25,2.8,2.8,0,0,1-.46-1.11A16,16,0,0,1,14.78,74a5.46,5.46,0,0,1,.48-2.13,10.68,10.68,0,0,1,1.25-2.35,10.15,10.15,0,0,1,3.3-3.44c.72-.37,1.5-.62,2.25-.94.47-.2.94-.43,1.4-.67a5.2,5.2,0,0,1,3.4-.42,7.31,7.31,0,0,1,1.81.76c.4.19.78.43,1.25.69a2.15,2.15,0,0,0,.11-.44,10.26,10.26,0,0,1,1.87-6.32,5.65,5.65,0,0,1,5.72-2.65c.69.1,1.38.23,2.16.37A6.57,6.57,0,0,1,42.57,50c1.67-1.19,4.58-1.11,7.06.44a10.78,10.78,0,0,0-.12-1.22,18.4,18.4,0,0,1,.6-9.67A6.74,6.74,0,0,1,51,37.65a31.56,31.56,0,0,1,2.65-3.36,7.47,7.47,0,0,1,3.85-2.12c2-.45,4-1,6-1.28a12.88,12.88,0,0,1,5,.11c.93.24,1.91.28,2.84.54,1.63.44,3.36.68,4.77,1.73s2.59,2,3.79,3.05a7.57,7.57,0,0,1,1.63,2.07A11.72,11.72,0,0,1,82.45,41a7.86,7.86,0,0,1,.24,1.79,31.62,31.62,0,0,1-.07,4.43,19.46,19.46,0,0,1-1,3.35c.18.34.56.3,1,.24a8.23,8.23,0,0,1,5.61,1.09,7.36,7.36,0,0,1,2.34,2.75,2.35,2.35,0,0,0,.28.43c.8.86.87.8,1.78,0,1.63-1.4,3.34-2.8,5.63-2.82a10.39,10.39,0,0,1,2.54.55,11.43,11.43,0,0,1,1.2.46,9.47,9.47,0,0,1,.11-1.23c.36-1.55.46-3.21,1.6-4.45.63-.69,1.38-1.27,2.07-1.91a8.22,8.22,0,0,1,4.51-2,8,8,0,0,1,3,.57c.75.2.73.17,1-.58a8.21,8.21,0,0,1,2.62-4,10.68,10.68,0,0,1,3.89-2.23,7.12,7.12,0,0,1,5.32.31c.64.32,1.34.52,2,.8.33.14.63.33,1,.52.45-1.18.82-2.3,1.3-3.38a21.6,21.6,0,0,1,1.6-3.08,52.26,52.26,0,0,1,3.17-4.37,8.27,8.27,0,0,1,3.44-2.9A16.26,16.26,0,0,0,140.75,24a9.41,9.41,0,0,1,4.58-1.28c2.17,0,4.34-.07,6.51,0a14,14,0,0,1,8.6,3.52,38.9,38.9,0,0,1,4,3.89,10.86,10.86,0,0,1,2.36,4.69c.47,2,.67,4,1,6,0,.32,0,.65,0,1a3.43,3.43,0,0,0,.19.63,1.78,1.78,0,0,0,.54-.21,19.2,19.2,0,0,1,6.18-3.37,8.32,8.32,0,0,1,4.09-.23A21.79,21.79,0,0,1,183.74,40a10.08,10.08,0,0,1,3.21,2.3,14.08,14.08,0,0,1,2.41,3.17l.62,1.06a7.72,7.72,0,0,1,5.41-5.23c2.66-.89,5.07-.1,7.22,1.95a8.27,8.27,0,0,0,.25-1.35,3.19,3.19,0,0,1,1-2.18c.27-.3.55-.59.83-.88a4.69,4.69,0,0,1,2.6-1.27,9.14,9.14,0,0,1,5.74.61,10.05,10.05,0,0,1,1.45,1.07,4.25,4.25,0,0,0,.17-1.09A4.35,4.35,0,0,1,215.74,35a33.67,33.67,0,0,1,2.79-3.06c.93-.94,2.19-.85,3.38-1,1.83-.22,3.34.55,4.88,1.33a6,6,0,0,1,2.46,2.2,3.35,3.35,0,0,0,.46.44c.12-.87.26-1.59.31-2.31a14,14,0,0,1,.77-4.91,4.92,4.92,0,0,0,.21-1.21,15.6,15.6,0,0,1,3.52-7.76c.57-.67,1-1.46,1.6-2.11a30.2,30.2,0,0,1,2.56-2.5,13,13,0,0,1,2.38-1.73c1.51-.8,3.07-1.52,4.65-2.16,1.25-.51,2.56-.87,3.85-1.27a22.36,22.36,0,0,1,7.07-1,40.56,40.56,0,0,1,4.44.14,18.05,18.05,0,0,1,3.65,1,33.34,33.34,0,0,1,4.21,1.77,15.38,15.38,0,0,1,4.7,3.88,25.39,25.39,0,0,1,4.06,7.46,22.38,22.38,0,0,1,1.54,7.92,4.81,4.81,0,0,0,.28,1.14l.82-.64c1.12-.9,2.2-1.86,3.39-2.68a4.53,4.53,0,0,1,2.73-.59,12.33,12.33,0,0,1,4.09.77,9.92,9.92,0,0,1,3.24,2.17,17.64,17.64,0,0,1,1.23,1.4c.2.23.4.34.58,0,1.23-2.64,3.52-3.41,6.15-3.36a11.21,11.21,0,0,1,3.92.68,9.09,9.09,0,0,1,4.06,3.19c.28.38.57.75,1,1.24.14-.49.21-.86.35-1.2.44-1.1.87-2.19,1.35-3.27.73-1.66,1.45-3.32,2.27-4.93.47-.93,1.14-1.77,1.69-2.66a15,15,0,0,1,5.37-4.9,22.75,22.75,0,0,1,2.83-1.34c1.32-.56,2.65-1.13,4-1.59a29.13,29.13,0,0,1,3.53-1,30.38,30.38,0,0,1,8.75-.3,41.3,41.3,0,0,1,5.42.85,14.56,14.56,0,0,1,3,1.17,25.33,25.33,0,0,1,3.86,2,19.8,19.8,0,0,1,3.08,2.9,16.84,16.84,0,0,1,3.54,6.71,3.64,3.64,0,0,0,.4.89,8.19,8.19,0,0,1,.95,4.8c0,.38-.07.77-.11,1.15s.13.7.63.61a11.2,11.2,0,0,1,1.59-.26A8.59,8.59,0,0,1,368.9,35,7.32,7.32,0,0,1,370,36.35c.1.13.21.25.24.28.63-.83,1.25-1.61,1.82-2.42s1.58-1.07,2.41-1.54a9.71,9.71,0,0,1,5.24-1c.38,0,.84.18,1.12,0s.35-.66.55-1a18.46,18.46,0,0,1,2.53-3.07,16.1,16.1,0,0,1,4.33-2.94,8.79,8.79,0,0,1,5.47-.79A26.73,26.73,0,0,1,400.52,26a24.24,24.24,0,0,1,2.71,1.67c.5.32,1,.7,1.49,1a.75.75,0,0,0,.59-.06,15.78,15.78,0,0,1,8.33-1.47,9,9,0,0,1,5.15,2.18A20.38,20.38,0,0,1,423.22,34a11.88,11.88,0,0,1,1.06,2.63,27.26,27.26,0,0,1,1.07,8,6.51,6.51,0,0,1-.37,1.54c.38-.1.7-.17,1-.27a13.87,13.87,0,0,1,9.11-.16,19.33,19.33,0,0,1,5.33,2.78,13.88,13.88,0,0,1,2.19,2,9.36,9.36,0,0,1,1.08,2,5.39,5.39,0,0,0,.44,1.06,12.64,12.64,0,0,1,2.17,5.14c.08.29.18.57.3,1,.42-.3.77-.57,1.13-.82a11.74,11.74,0,0,1,2.15-1.36,4.63,4.63,0,0,1,2.37-.32,27.51,27.51,0,0,1,4.2,1.18A10,10,0,0,1,461,62a4.36,4.36,0,0,1,1,3.77c-.12.58.1.73.67.63a7.46,7.46,0,0,1,8.21,4.18A12.12,12.12,0,0,1,472.08,76.14Z"/><path class="cls-3" d="M470.86,74.47a16.83,16.83,0,0,0-.67-2.43,3.78,3.78,0,0,0-1.64-2.44c-.22-.13-.42-.3-.64-.43a8.42,8.42,0,0,0-4.17-1.37h-3.43a2.38,2.38,0,0,1-.47-.09,2.19,2.19,0,0,1,.19-.5,2.11,2.11,0,0,0,.5-2,11,11,0,0,1-.32-1.19,6.73,6.73,0,0,0-3.92-4.65,9.11,9.11,0,0,0-6.25-.29,9,9,0,0,0-3.69,2.41,1.33,1.33,0,0,1-1.08.28c-.21-.07-.39-.63-.38-1A14.51,14.51,0,0,0,443.72,55a17.1,17.1,0,0,0-1.9-2.87,10.75,10.75,0,0,0-3-3.23,9.36,9.36,0,0,0-2.7-1.54,36.17,36.17,0,0,0-5.55-.66,12.2,12.2,0,0,0-6.55,1.5,1,1,0,0,1-.66.09.92.92,0,0,1-.28-1.41,1.22,1.22,0,0,0,.3-.62c.15-1.17.27-2.35.41-3.52a5.09,5.09,0,0,0,.17-1.28,27.57,27.57,0,0,0-.87-4.43,14.93,14.93,0,0,0-3.16-5.24A10.86,10.86,0,0,0,414,28.42a14.4,14.4,0,0,0-5.51.13,17.88,17.88,0,0,0-3,1A18.53,18.53,0,0,1,406.8,31c.13.2.06.53.09.8-.31-.06-.7,0-.91-.18-1.22-1-2.33-2.11-3.6-3a14.12,14.12,0,0,0-3.47-1.89,34.48,34.48,0,0,0-4.64-1.06c-4.45-.89-8,.86-11,4a11.73,11.73,0,0,0-1.62,2.47.85.85,0,0,0,.07.67c.09.18.38.26.46.43a1.9,1.9,0,0,1,0,.68c-.18,0-.41.07-.54,0-.33-.2-.59-.51-.91-.71a3.55,3.55,0,0,0-1.36-.67,7.5,7.5,0,0,0-3.74.45c-.72.32-1.48.58-2.17,1a4.88,4.88,0,0,0-1.23,1,5.24,5.24,0,0,0-1.19,4.28c.06.51-.17.85-.63.88s-.49-.49-.49-.82a4.79,4.79,0,0,0-1.59-3.42A6.78,6.78,0,0,0,363,34a3.37,3.37,0,0,0-2.53,1.1c-.45.53-.87,1.09-1.35,1.59a.67.67,0,0,1-.59,0,.51.51,0,0,1-.2-.46,2.93,2.93,0,0,1,.56-1.19,2.08,2.08,0,0,0,.89-1.79c-.08-1,0-1.94-.05-2.9a18.83,18.83,0,0,0-1.53-5.58A20.41,20.41,0,0,0,356,20.55a15,15,0,0,0-5.72-4.7,23.18,23.18,0,0,0-6.72-2.12c-1.63-.22-3.29-.3-4.93-.42-.6,0-1.2,0-1.8,0a17.1,17.1,0,0,0-6.09.61c-.5.18-1,.32-1.54.48-1.16.38-2.34.7-3.46,1.18-.92.39-1.74,1-2.62,1.48a14.26,14.26,0,0,0-1.71.88c-.89.66-1.69,1.43-2.54,2.14a13.69,13.69,0,0,0-3.28,4,28.66,28.66,0,0,0-1.37,3.35c-.48,1.23-.94,2.47-1.4,3.71-.55,1.5-1.12,3-1.64,4.5a.75.75,0,0,1-.89.55c-.2,0-.4-.44-.5-.71-.16-.46-.17-1-.38-1.43-.74-1.59-1.64-3.07-3.41-3.72l-.11-.07a4.79,4.79,0,0,0-2.77-.9,6.75,6.75,0,0,0-3.42.35,4.94,4.94,0,0,0-2.87,2.13c-.4.68-.69,1.44-1.07,2.14-.09.18-.33.4-.48.39s-.35-.26-.43-.44a15.66,15.66,0,0,0-.64-1.53A8.59,8.59,0,0,0,291.74,30a14.35,14.35,0,0,0-4.3-1.69,2.85,2.85,0,0,0-1.09-.05A8.21,8.21,0,0,0,282.24,30a8.61,8.61,0,0,0-3.37,4.19c-.18.53-.28,1.09-.44,1.62a3.25,3.25,0,0,1-.35.61c-.16-.24-.45-.47-.45-.7a15.78,15.78,0,0,1,.25-1.85,10.75,10.75,0,0,0,.3-2.23c-.14-2-.34-4.1-.64-6.12a9.2,9.2,0,0,0-1.17-3.54,42.1,42.1,0,0,1-2.49-4.54A10.94,10.94,0,0,0,271.45,14a13.57,13.57,0,0,0-3.94-3,28.5,28.5,0,0,0-10.87-2.21A27.3,27.3,0,0,0,248.43,10a32.1,32.1,0,0,0-5.88,2.45,22.91,22.91,0,0,0-6.77,5.78,34.52,34.52,0,0,0-2.48,3.62,12.56,12.56,0,0,0-1.54,4.45c-.27,1.34-.54,2.69-.74,4-.26,1.84-.44,3.69-.68,5.53,0,.21-.2.56-.31.57a1,1,0,0,1-.76-.26A8.74,8.74,0,0,0,223.76,32a4.9,4.9,0,0,0-4.58.79c-.58.48-1.17,1-1.75,1.44a5.16,5.16,0,0,0-2,3.22,19.79,19.79,0,0,0,.11,2.88,6.11,6.11,0,0,1-.14,1,7.78,7.78,0,0,1-.93-.54c-.22-.17-.33-.46-.54-.64a6.1,6.1,0,0,0-4.66-1.86c-1.47.15-3,.2-4.07,1.47a5.92,5.92,0,0,0-1.54,5.42c0,.2-.09.43-.14.65a3.86,3.86,0,0,1-.57-.47c-.47-.55-.87-1.16-1.37-1.68a5.59,5.59,0,0,0-1.14-.85c-1.11-.69-2.27-1.36-3.63-.87a21.91,21.91,0,0,0-3.2,1.49,4.58,4.58,0,0,0-2,2.16c-.41.93-.76,1.89-1.15,2.82a1.63,1.63,0,0,1-.3.36c-.13-.12-.35-.22-.38-.36a11.4,11.4,0,0,0-1.22-2.6,10.86,10.86,0,0,0-3.77-4,12.47,12.47,0,0,0-2.8-1.38c-2.48-1-5-1.56-7.59-.36a35,35,0,0,0-3.31,1.54,8.34,8.34,0,0,0-3.42,3.59c-.08.18-.46.22-.7.33a2,2,0,0,1-.2-.58c0-1.22.05-2.44,0-3.66s-.25-2.27-.4-3.41a17,17,0,0,0-1.94-5.71,16.14,16.14,0,0,0-1-1.49,8.88,8.88,0,0,0-1-1.47,16.41,16.41,0,0,0-1.84-1.4c-1.23-.89-2.42-1.85-3.73-2.62A9.29,9.29,0,0,0,153.74,24a42.64,42.64,0,0,0-5.2-.35,14.47,14.47,0,0,0-5.87.45,24.4,24.4,0,0,0-3.48,1.62A24.07,24.07,0,0,0,137,27.45a13.29,13.29,0,0,0-3.11,3.33c-.68,1-1.4,2-2,3.07A15.08,15.08,0,0,0,130.56,37a36.36,36.36,0,0,0-.58,3.65,1.13,1.13,0,0,1-.35.69c-.1.07-.45-.11-.62-.26a8.92,8.92,0,0,0-1.74-1.52c-1.67-.75-3.42-1.46-5.3-1.06a10.93,10.93,0,0,0-3.39,1.27,8.13,8.13,0,0,0-2.9,4.12c-.3.72-.6,1.57.09,2.3a2.13,2.13,0,0,1-.18.56c-.13.2-.31.46-.51.5s-.39-.22-.54-.38-.34-.57-.58-.75a6.33,6.33,0,0,0-7.31-.28,4,4,0,0,0-1.22,1.34c-.4.6-.63,1.31-1,1.92a10.38,10.38,0,0,0-1.52,4.54,2.36,2.36,0,0,0,.18,1.13,11.41,11.41,0,0,0,.9,1.76c.37.59-.06,1-.2,1.5,0,.1-.3.2-.44.17s-.2-.25-.22-.39c0-.31.06-.68-.06-.95a6.15,6.15,0,0,0-3.79-3.54c-2.54-.79-5.37,1-6.66,2.91-.38.55-.78,1.1-1.2,1.62-.1.13-.32.16-.48.23a2.37,2.37,0,0,1-.18-.59,4.15,4.15,0,0,0-1.22-3,10.92,10.92,0,0,0-2.62-2.26c-3.27-1.46-6.27-.52-8.24,2.54-.26.4-.53.6-.82.35a1,1,0,0,1-.07-1c.45-.72,1-1.35,1.52-2.06A22.22,22.22,0,0,0,81.2,49a10.84,10.84,0,0,0,.58-5.09c-.09-1.67-.12-3.4-1.11-4.87-1.58-2.35-3.29-4.53-6.2-5.32-1.3-.35-2.58-.77-3.86-1.18a15.79,15.79,0,0,0-7.32-.69,29.94,29.94,0,0,0-5.7,1.49,12.31,12.31,0,0,0-3,2A11.38,11.38,0,0,0,51,40.66a17.87,17.87,0,0,0-.49,7.67c.11,1.22.46,2.41.65,3.62a.89.89,0,0,1-.24.75c-.36.21-.62-.07-.8-.41a2.37,2.37,0,0,0-.55-.79,6.29,6.29,0,0,0-4.65-1.13,4.6,4.6,0,0,0-4.08,5.09c.08.78,0,1.67.71,2.19.45.32.57.66.46,1.36-.51-.16-1.12-.15-1.38-.45a3.88,3.88,0,0,0-4.37-1.36,8.58,8.58,0,0,0-2.65,1.14,5.58,5.58,0,0,0-1.47,2,8,8,0,0,0-.34,6.91c.06.14-.27.63-.34.61a2.63,2.63,0,0,1-1.25-.48c-.81-.8-1.49-1.62-2.83-1.64a15.63,15.63,0,0,0-4.3.06,8,8,0,0,0-4.73,3,25.46,25.46,0,0,0-1.53,2.43A5.52,5.52,0,0,0,17,77.21a1.5,1.5,0,0,0,1.53.87A9.78,9.78,0,0,1,19.77,78c.41,0,.81.09,1.22.09,2.71,0,5.41,0,8.11.08,3.29.06,6.57.18,9.86.25s6.7.13,10,.18c3.1,0,6.2.06,9.3.09l11.29.12c1.07,0,2.14.1,3.21.1,2.63,0,5.25-.08,7.88-.05,2.34,0,4.68.17,7,.21,1.26,0,2.53-.07,3.79-.08l9.54-.05a29,29,0,0,0,4-.1,39.34,39.34,0,0,1,6.28-.24c2.34,0,4.69,0,7,0,1.85,0,3.69,0,5.54,0,1,0,2,.1,3,.1,3,0,6,0,9,0,1.42,0,2.83.07,4.25.07,1.91,0,3.82-.07,5.72,0,1.68,0,3.35.16,5,.17,3.94,0,7.87,0,11.81,0,1.61,0,3.21.12,4.82.13,2.25,0,4.51,0,6.76,0,1.63,0,3.26.13,4.88.12,2.11,0,4.21-.17,6.32-.12,1.67,0,3.34.08,5,.07,4.3,0,8.61,0,12.91.05l8.53.07,14.46.12,12.46.08c1.81,0,3.62,0,5.43,0,2.58,0,5.16.12,7.75.15,2.15,0,4.3,0,6.45,0,2.95,0,5.9.1,8.85.12,3.87,0,7.74,0,11.61,0,2.84,0,5.68.1,8.51.14,3.79,0,7.57.09,11.36.08s7.43-.06,11.14-.09c1.93,0,3.86-.05,5.8-.06,2.37,0,4.74-.05,7.1,0a23.6,23.6,0,0,0,4,0,17.55,17.55,0,0,1,2.68-.21c2.32.06,4.63.23,7,.3,1.78.05,3.56,0,5.33,0,3.23,0,6.46,0,9.68,0,4.11-.07,8.21-.22,12.32-.33,1.78,0,3.56-.08,5.34-.11,1.61,0,3.22-.1,4.83-.05,2,.05,4,.22,5.93.3.48,0,1-.16,1.46-.16,1.52,0,3,0,4.56,0,.82,0,1.64-.09,2.45-.06,1.66.05,3.31.2,5,.23q5.1.1,10.2.11c2.65,0,5.29-.07,7.94-.09,3.81,0,7.62,0,11.43-.07,3.57,0,7.14-.09,10.72-.13,3.14,0,6.28,0,9.42-.1.7,0,1.4-.17,2.11-.2,1.14-.05,2.28-.06,3.42-.09,2.9-.07,5.8-.2,8.71-.2s5.54.17,8.32.21a13,13,0,0,0,2.92-.24c.49-.1.86-.67,1.33-.95C471.25,77.13,471,75.76,470.86,74.47Z"/><path class="cls-4" d="M168.54,66.8a3.63,3.63,0,0,1,2.32,3.53c0,.59,0,1.18,0,1.78.54.19.67-.18.86-.49a9.17,9.17,0,0,1,3.65-3.49,6,6,0,0,1,4.86-.18,11,11,0,0,1,3,1.68,7.08,7.08,0,0,1,2.23,4.4,2.27,2.27,0,0,0,.39.65,2.94,2.94,0,0,0,.67-.61A28.94,28.94,0,0,1,188,71.18a4.19,4.19,0,0,1,6.52-.24c.58.73,1,1.56,1.58,2.31a1.16,1.16,0,0,0,.73.39c.11,0,.32-.35.38-.57a12.33,12.33,0,0,1,1.69-4.56,5.29,5.29,0,0,1,4.33-2.09,10.17,10.17,0,0,1,4.48,1.17,5.53,5.53,0,0,1,3.11,4c0,.08,0,.19,0,.24s.37.45.59.49.46-.19.49-.55a4.79,4.79,0,0,1,1.46-3.4,7.64,7.64,0,0,1,3.85-2,4.08,4.08,0,0,1,3.81,1.14c.71.78,1.38,1.59,2.08,2.37.11.12.43.22.51.15a1,1,0,0,0,.39-.63c-.13-2.52,1.11-4.21,3.06-5.61A6.57,6.57,0,0,1,231,62.45a8,8,0,0,1,2.67.54,1.7,1.7,0,0,0,.55,0,1.65,1.65,0,0,0-.25-.48,2.94,2.94,0,0,1-.12-3.11,5,5,0,0,1,4.71-2.09c.75,0,1.5.14,2.26.2.11,0,.3-.06.33-.14a.89.89,0,0,0,0-.49c-.2-.8-.47-1.59-.6-2.41a6,6,0,0,1,1.07-4.18A3.31,3.31,0,0,1,246,48.93c.6.27,1.13.7,1.73,1a2.5,2.5,0,0,0,.82.11,4.66,4.66,0,0,0,0-.82,15.66,15.66,0,0,1-.37-1.64,8.53,8.53,0,0,1,0-2.59A3.91,3.91,0,0,1,252,42.1a13.41,13.41,0,0,1,2.24.21,1.85,1.85,0,0,1,1.35,2.15c-.25.92-.63,1.81-.93,2.71a4.45,4.45,0,0,0-.2,1c0,.36.17.51.5.33,1.88-1,3.85-.8,5.82-.43a9.36,9.36,0,0,1,1.82.54,3.57,3.57,0,0,1,2.1,3.22,11.73,11.73,0,0,1-.1,1.83,2.18,2.18,0,0,0,.09.5,2.2,2.2,0,0,0,.48-.16,16.55,16.55,0,0,1,2-1.2,7.18,7.18,0,0,1,2.19-.55,36.27,36.27,0,0,1,4.74-.2,9.56,9.56,0,0,1,5.15,2.13c1.28.93,1.76,2.3,2.41,3.59a21.77,21.77,0,0,1,.76,2.05.45.45,0,0,0,.29.26.41.41,0,0,0,.34-.19c.81-2,2.55-3.06,4.34-3.88a6.34,6.34,0,0,1,4-.31,14.3,14.3,0,0,1,4.45,1.86c1.09.68,2.4,1.12,3,2.37a3.88,3.88,0,0,1,.49,1.54c0,.93-.1,1.87-.15,2.81a1.5,1.5,0,0,0,.1.42,1.38,1.38,0,0,0,.46-.17,20.81,20.81,0,0,1,2-1.83,8.2,8.2,0,0,1,2.11-.89,6.7,6.7,0,0,1,3.5-.2,4.53,4.53,0,0,1,3.3,2.77,3,3,0,0,0,.46.57c.18-.22.45-.42.53-.68a6.44,6.44,0,0,1,2.68-3.71,17.81,17.81,0,0,1,2-1.06c1.2-.58,2.44-.23,3.66-.11a11,11,0,0,1,1.92.28,10.36,10.36,0,0,1,1.65.74c.16.08.29.24.46.29a3.37,3.37,0,0,0,.66.07c0-.21,0-.46,0-.62a5.42,5.42,0,0,1-.51-2.56,9.05,9.05,0,0,1,.46-3.3,4.21,4.21,0,0,1,3.62-3.11A14.55,14.55,0,0,1,332,51.1a5.81,5.81,0,0,1,2.12,1.07,6.73,6.73,0,0,1,2.53,2,11.25,11.25,0,0,1,.86,1.91c.17.48.21,1,.36,1.49a.59.59,0,0,0,.4.34c.1,0,.29-.19.35-.33a4.16,4.16,0,0,0,.12-.71,5.28,5.28,0,0,1,1.88-2.77,6.42,6.42,0,0,1,4.15-1.6,11.16,11.16,0,0,1,4,.44c2.42.68,3.35,2,3.8,4.27a5.59,5.59,0,0,1,0,2.78.46.46,0,0,0,.14.37s.23,0,.32-.05.36-.2.41-.35c.42-1.23,1.57-1.56,2.56-2a7.34,7.34,0,0,1,4.68-.22,4.12,4.12,0,0,1,3.1,3.79c.06.51.1,1,.16,1.55.54.09.69-.11,1-.6a5.86,5.86,0,0,1,1.87-1.94,7.43,7.43,0,0,1,6.43-.73A4.22,4.22,0,0,1,376.41,64c0,.35,0,.7.5.64s.58-.33.49-.74a6.92,6.92,0,0,1,.68-4.91c.36-.68.55-1.46.94-2.12A4.63,4.63,0,0,1,382.41,55a14.13,14.13,0,0,1,6-.08c1.17.26,2.29.77,3.45,1.13a7.42,7.42,0,0,1,3.34,2.44,3.73,3.73,0,0,1,.95,2.59,20.86,20.86,0,0,1-.85,5.56c-.17.56-.42,1.09-.61,1.64,0,.13-.06.4,0,.43a.68.68,0,0,0,.51,0,1.78,1.78,0,0,0,.53-.44c1.11-1.26,2.33-2.37,4.15-2.06a5.28,5.28,0,0,1,3.83,2.63,5.39,5.39,0,0,1,.25,1c.14.42.42.43.68.13a5.32,5.32,0,0,0,.74-1.05,5.66,5.66,0,0,1,3.16-2.9,3.9,3.9,0,0,1,1.3-.27,8.65,8.65,0,0,1,5.49,1.5,8.39,8.39,0,0,1,2.31,2.9,1.72,1.72,0,0,1,.09.77c0,1.39,0,2.78,0,4.17,0,.22,0,.55.18.64s.45,0,.66-.09c.8-.35,1.57-.8,2.39-1.06a4.18,4.18,0,0,1,2.8.27,3.82,3.82,0,0,1,2.42,2.25,2,2,0,0,1-1.51,2.33q-4.85.09-9.7.15c-4.78,0-9.55.11-14.33.1-3.73,0-7.45-.09-11.18-.17-1.6,0-3.21-.2-4.81-.21-1.28,0-2.56.16-3.84.18-1.78,0-3.57,0-5.35,0-1.42,0-2.83-.29-4.25-.29-2,0-3.93.19-5.9.24-1.28,0-2.57,0-3.85,0-1.46,0-2.93.06-4.39.08-1.66,0-3.32,0-5,.08-2.53.07-5.05.21-7.58.24-1.72,0-3.44-.15-5.16-.19-1.54,0-3.08,0-4.63,0-1.72,0-3.44-.14-5.17-.16-1.27,0-2.55,0-3.82.09a44.8,44.8,0,0,1-5.23,0c-1.6-.07-3.21,0-4.81,0-1.87,0-3.73-.11-5.6-.08-1.52,0-3,.23-4.55.26s-3.08-.07-4.63-.07c-2.05,0-4.11.08-6.16.06s-3.84-.15-5.76-.17c-1.66,0-3.32,0-5,0-1.06,0-2.11-.08-3.17-.1s-2.35,0-3.52,0l-6,0q-3,0-6,0c-1.53,0-3.06-.07-4.59-.09l-7.52-.09c-2.9,0-5.8,0-8.7-.08-1.62,0-3.25-.12-4.87-.13s-3.49.07-5.23,0-3.56-.15-5.34-.19c-1.09,0-2.17,0-3.26,0-1.7,0-3.4.07-5.1.08q-2.9,0-5.79,0c-1.74,0-3.49-.13-5.23-.1-1.54,0-3.07.22-4.61.25s-3.07-.1-4.61-.11c-2,0-4.09.06-6.14,0s-3.84-.16-5.75-.19c-1.66,0-3.32,0-5,0-1.26,0-2.51-.09-3.77-.12-.81,0-1.62,0-2.43,0l-6.36,0-4.5,0c-1.87,0-3.75,0-5.62-.06-1,0-2.08-.27-3.12-.35s-1.87,0-2.81,0l-8,0c-2.82,0-5.63,0-8.45-.05-3.21,0-6.41-.13-9.62-.16-1.38,0-2.76.1-4.14.08s-2.58-.14-3.87-.19c-.62,0-1.25,0-1.87,0l-9-.05c-1.67,0-3.35-.1-5-.08-.88,0-1.77.22-2.65.29-1.13.09-2.26.16-3.39.18-1.64,0-3.28,0-4.92,0s-3.4-.08-5.1-.1L81.32,78c-2.38,0-4.75,0-7.13-.07q-3,0-6-.13a.93.93,0,0,1-.69-.26c-.08-.14.07-.49.2-.69A2.93,2.93,0,0,1,71,75.78c.38.12.79.17,1.17.3a9.36,9.36,0,0,1,1.19.52c.31.16.46.23.71-.17a9.8,9.8,0,0,1,1.57-2A2.63,2.63,0,0,1,77,74a17.43,17.43,0,0,1,2.89-.33,3.18,3.18,0,0,1,2.88,1.92,3.41,3.41,0,0,0,.52.61c.22-.22.6-.42.64-.67.15-1,.92-1.31,1.56-1.79a3.62,3.62,0,0,1,3.55.4c.4.47.7,1,1.07,1.53.17.24.41.63.59.61s.53-.32.69-.57c1.58-2.45,4.18-3.42,6.89-2A4.57,4.57,0,0,1,100.15,75a1.1,1.1,0,0,0,.81.29c.11,0,.28-.37.31-.59.31-2.46,1.3-3.46,3.74-3.75a3.82,3.82,0,0,1,4.16,3.1c.07.36.26.58.56.42a1,1,0,0,0,.51-.68,7.19,7.19,0,0,1,.69-2.91,2.65,2.65,0,0,1,2.36-1.57,6.7,6.7,0,0,1,3.93.13,2.54,2.54,0,0,1,1.69,1.9c.1.49.29,1,.46,1.51a12.1,12.1,0,0,0,1.26-.86A5.37,5.37,0,0,1,126.17,71a7.77,7.77,0,0,1,1.06.59c.56.29.74.18.69-.43a9,9,0,0,1,.84-4.89,3.47,3.47,0,0,1,1.73-1.14,6,6,0,0,1,4,.08,3.68,3.68,0,0,1,.87.55c.48.31.82.16.77-.4a5.64,5.64,0,0,0-.39-1.41,6.39,6.39,0,0,1-.36-3.12,5.49,5.49,0,0,1,1.22-2.57,3,3,0,0,1,3.09-1,15.91,15.91,0,0,1,3.41,1c.41.16.69.73.94,1.16a9.4,9.4,0,0,1,1.2,2.32,18.81,18.81,0,0,1,.31,3.13c0,.14-.05.31,0,.43s.21.59.39.65a.76.76,0,0,0,.66-.33,10.07,10.07,0,0,1,2.9-3.21,5.5,5.5,0,0,1,1.8-.87,4.87,4.87,0,0,1,1.61,0A7.94,7.94,0,0,1,157.26,63a4.88,4.88,0,0,1,2.12,4.77,3,3,0,0,0,.11.91c0,.19.17.51.27.51a1.4,1.4,0,0,0,.76-.23,28.22,28.22,0,0,1,2.64-1.85A6.49,6.49,0,0,1,168.54,66.8Z"/><path class="cls-5" d="M197.25,73.07c-.06.22-.27.59-.38.57a1.16,1.16,0,0,1-.73-.39c-.56-.75-1-1.58-1.58-2.31a4.19,4.19,0,0,0-6.52.24,28.94,28.94,0,0,0-1.57,2.88,2.94,2.94,0,0,1-.67.61,2.27,2.27,0,0,1-.39-.65,7.08,7.08,0,0,0-2.23-4.4,11,11,0,0,0-3-1.68,6,6,0,0,0-4.86.18,9.17,9.17,0,0,0-3.65,3.49c-.2.3-.32.68-.86.49,0-.6,0-1.19,0-1.78a3.63,3.63,0,0,0-2.32-3.53,6.49,6.49,0,0,0-5.38.29,28.22,28.22,0,0,0-2.64,1.85,1.4,1.4,0,0,1-.76.23c-.09,0-.22-.32-.27-.51a3,3,0,0,1-.11-.91A4.88,4.88,0,0,0,157.26,63a7.94,7.94,0,0,0-4.34-1.52,4.87,4.87,0,0,0-1.61,0,5.5,5.5,0,0,0-1.8.87,10.07,10.07,0,0,0-2.9,3.21.76.76,0,0,1-.66.33c-.18-.06-.29-.41-.39-.65s0-.28,0-.43a18.81,18.81,0,0,0-.31-3.13,9.4,9.4,0,0,0-1.2-2.32c-.26-.43-.54-1-.94-1.16a15.91,15.91,0,0,0-3.41-1,3,3,0,0,0-3.09,1,5.49,5.49,0,0,0-1.22,2.57,6.39,6.39,0,0,0,.36,3.12,5.64,5.64,0,0,1,.39,1.41c.05.56-.29.71-.77.4a3.68,3.68,0,0,0-.87-.55,6,6,0,0,0-4-.08,3.47,3.47,0,0,0-1.73,1.14,9,9,0,0,0-.84,4.89c0,.61-.13.72-.69.43a7.77,7.77,0,0,0-1.06-.59A5.37,5.37,0,0,0,120.62,72a12.1,12.1,0,0,1-1.26.86c-.17-.55-.36-1-.46-1.51a2.54,2.54,0,0,0-1.69-1.9,6.7,6.7,0,0,0-3.93-.13,2.65,2.65,0,0,0-2.36,1.57,7.19,7.19,0,0,0-.69,2.91,1,1,0,0,1-.51.68c-.3.15-.5-.06-.56-.42A3.82,3.82,0,0,0,105,71c-2.44.28-3.43,1.28-3.74,3.75,0,.22-.2.59-.31.59a1.1,1.1,0,0,1-.81-.29,4.57,4.57,0,0,0-1.84-1.36c-2.71-1.39-5.31-.42-6.89,2-.16.25-.44.55-.69.57s-.42-.37-.59-.61c-.37-.5-.67-1.06-1.07-1.53a3.62,3.62,0,0,0-3.55-.4c-.64.47-1.41.83-1.56,1.79,0,.25-.42.45-.64.67a3.41,3.41,0,0,1-.52-.61,3.18,3.18,0,0,0-2.88-1.92A17.43,17.43,0,0,0,77,74a2.63,2.63,0,0,0-1.35.46,9.8,9.8,0,0,0-1.57,2c-.25.4-.41.33-.71.17a9.36,9.36,0,0,0-1.19-.52c-.38-.13-.79-.18-1.17-.3a2.93,2.93,0,0,0-3.32,1.1c-.13.2-.29.55-.2.69a.93.93,0,0,0,.69.26q3,.09,6,.13c2.38,0,4.75,0,7.13.07l7.67.09c1.7,0,3.4.09,5.1.1s3.28,0,4.92,0c1.13,0,2.26-.1,3.39-.18.89-.07,1.77-.27,2.65-.29,1.67,0,3.35.06,5,.08l9,.05c.63,0,1.25,0,1.87,0,1.29.06,2.58.18,3.87.19s2.76-.1,4.14-.08c3.21,0,6.41.12,9.62.16,2.82,0,5.63,0,8.45.05l8,0c.94,0,1.87,0,2.81,0s2.08.31,3.12.35c1.87.07,3.74,0,5.62.06l4.5,0,6.36,0c.81,0,1.62,0,2.43,0,1.26,0,2.51.11,3.77.12,1.66,0,3.32,0,5,0,1.92,0,3.84.17,5.75.19s4.09,0,6.14,0c1.54,0,3.07.13,4.61.11s3.07-.23,4.61-.25c1.74,0,3.49.08,5.23.1q2.9,0,5.79,0c1.7,0,3.4-.05,5.1-.08,1.09,0,2.17-.07,3.26,0,1.78,0,3.56.17,5.34.19s3.49-.06,5.23,0,3.25.11,4.87.13c2.9,0,5.8.05,8.7.08l7.52.09c1.53,0,3.06.08,4.59.09q3,0,6,0l6,0c1.17,0,2.35,0,3.52,0s2.11.1,3.17.1c1.66,0,3.32-.06,5,0,1.92,0,3.84.16,5.76.17s4.1-.06,6.16-.06c1.54,0,3.09.1,4.63.07s3-.24,4.55-.26c1.87,0,3.73.07,5.6.08,1.6,0,3.21-.11,4.81,0a44.8,44.8,0,0,0,5.23,0c1.27-.09,2.55-.11,3.82-.09,1.72,0,3.44.13,5.17.16,1.54,0,3.08,0,4.63,0,1.72,0,3.44.2,5.16.19,2.53,0,5.05-.16,7.58-.24,1.66,0,3.32-.05,5-.08,1.46,0,2.92-.08,4.39-.08,1.28,0,2.57.06,3.85,0,2-.05,3.93-.24,5.9-.24,1.42,0,2.83.24,4.25.29,1.78.06,3.56.06,5.35,0,1.28,0,2.56-.19,3.84-.18,1.6,0,3.2.18,4.81.21,3.73.08,7.45.16,11.18.17,4.78,0,9.55-.06,14.33-.1q4.85-.05,9.7-.15a2,2,0,0,0,1.51-2.33,3.82,3.82,0,0,0-2.42-2.25,4.18,4.18,0,0,0-2.8-.27c-.83.26-1.59.72-2.39,1.06-.2.09-.52.19-.66.09s-.18-.42-.18-.64c0-1.39,0-2.78,0-4.17a1.72,1.72,0,0,0-.09-.77,8.39,8.39,0,0,0-2.31-2.9,8.65,8.65,0,0,0-5.49-1.5,3.9,3.9,0,0,0-1.3.27,5.66,5.66,0,0,0-3.16,2.9,5.32,5.32,0,0,1-.74,1.05c-.26.3-.55.29-.68-.13a5.39,5.39,0,0,0-.25-1,5.28,5.28,0,0,0-3.83-2.63c-1.81-.31-3,.8-4.15,2.06a1.78,1.78,0,0,1-.53.44.68.68,0,0,1-.51,0c-.05,0,0-.29,0-.43.19-.55.45-1.08.61-1.64a20.86,20.86,0,0,0,.85-5.56,3.73,3.73,0,0,0-.95-2.59A7.42,7.42,0,0,0,391.9,56c-1.16-.36-2.27-.87-3.45-1.13a14.13,14.13,0,0,0-6,.08A4.63,4.63,0,0,0,379,56.9c-.39.66-.58,1.43-.94,2.12a6.92,6.92,0,0,0-.68,4.91c.1.41-.05.7-.49.74s-.49-.29-.5-.64a4.22,4.22,0,0,0-3.15-4.14,7.43,7.43,0,0,0-6.43.73A5.86,5.86,0,0,0,365,62.55c-.28.49-.44.68-1,.6-.05-.53-.1-1-.16-1.55a4.12,4.12,0,0,0-3.1-3.79A7.34,7.34,0,0,0,356,58c-1,.39-2.14.72-2.56,2-.05.15-.26.26-.41.35s-.27.1-.32.05a.46.46,0,0,1-.14-.37,5.59,5.59,0,0,0,0-2.78c-.45-2.24-1.38-3.59-3.8-4.27a11.16,11.16,0,0,0-4-.44,6.42,6.42,0,0,0-4.15,1.6,5.28,5.28,0,0,0-1.88,2.77,4.16,4.16,0,0,1-.12.71c-.06.14-.25.35-.35.33a.59.59,0,0,1-.4-.34c-.15-.49-.19-1-.36-1.49a11.25,11.25,0,0,0-.86-1.91,6.73,6.73,0,0,0-2.53-2A5.81,5.81,0,0,0,332,51.1a14.55,14.55,0,0,0-3.68.11,4.21,4.21,0,0,0-3.62,3.11,9.05,9.05,0,0,0-.46,3.3,5.42,5.42,0,0,0,.51,2.56c.1.16,0,.41,0,.62a3.37,3.37,0,0,1-.66-.07c-.17-.05-.29-.22-.46-.29a10.36,10.36,0,0,0-1.65-.74,11,11,0,0,0-1.92-.28c-1.22-.12-2.46-.47-3.66.11a17.81,17.81,0,0,0-2,1.06,6.44,6.44,0,0,0-2.68,3.71c-.07.26-.35.45-.53.68a3,3,0,0,1-.46-.57,4.53,4.53,0,0,0-3.3-2.77,6.7,6.7,0,0,0-3.5.2,8.2,8.2,0,0,0-2.11.89,20.81,20.81,0,0,0-2,1.83,1.38,1.38,0,0,1-.46.17,1.5,1.5,0,0,1-.1-.42c0-.94.18-1.88.15-2.81a3.88,3.88,0,0,0-.49-1.54c-.64-1.25-1.95-1.69-3-2.37a14.3,14.3,0,0,0-4.45-1.86,6.34,6.34,0,0,0-4,.31c-1.8.83-3.54,1.86-4.34,3.88a.41.41,0,0,1-.34.19.45.45,0,0,1-.29-.26,21.77,21.77,0,0,0-.76-2.05c-.65-1.29-1.12-2.66-2.41-3.59A9.56,9.56,0,0,0,274,52.07a36.27,36.27,0,0,0-4.74.2,7.18,7.18,0,0,0-2.19.55,16.55,16.55,0,0,0-2,1.2,2.2,2.2,0,0,1-.48.16,2.18,2.18,0,0,1-.09-.5,11.73,11.73,0,0,0,.1-1.83,3.57,3.57,0,0,0-2.1-3.22,9.36,9.36,0,0,0-1.82-.54c-2-.37-3.95-.6-5.82.43-.33.18-.53,0-.5-.33a4.45,4.45,0,0,1,.2-1c.3-.91.68-1.79.93-2.71a1.85,1.85,0,0,0-1.35-2.15A13.41,13.41,0,0,0,252,42.1,3.91,3.91,0,0,0,248.12,45a8.53,8.53,0,0,0,0,2.59,15.66,15.66,0,0,0,.37,1.64,4.66,4.66,0,0,1,0,.82,2.5,2.5,0,0,1-.82-.11c-.59-.3-1.12-.72-1.73-1a3.31,3.31,0,0,0-4.35,1.35,6,6,0,0,0-1.07,4.18c.13.81.41,1.6.6,2.41a.89.89,0,0,1,0,.49c0,.08-.22.15-.33.14-.75-.06-1.5-.18-2.26-.2a5,5,0,0,0-4.71,2.09A2.94,2.94,0,0,0,234,62.5a1.65,1.65,0,0,1,.25.48,1.7,1.7,0,0,1-.55,0,8,8,0,0,0-2.67-.54,6.57,6.57,0,0,0-3.85,1.27c-2,1.4-3.19,3.1-3.06,5.61a1,1,0,0,1-.39.63c-.08.07-.4,0-.51-.15-.71-.78-1.38-1.59-2.08-2.37a4.08,4.08,0,0,0-3.81-1.14,7.64,7.64,0,0,0-3.85,2,4.79,4.79,0,0,0-1.46,3.4c0,.35-.17.6-.49.55s-.41-.31-.59-.49,0-.16,0-.24a5.53,5.53,0,0,0-3.11-4,10.17,10.17,0,0,0-4.48-1.17,5.29,5.29,0,0,0-4.33,2.09A12.33,12.33,0,0,0,197.25,73.07Zm-2.9-3.8a16.51,16.51,0,0,1,1.64,2,6.74,6.74,0,0,1,.41.68,5.63,5.63,0,0,0,.16-.58,6.84,6.84,0,0,1,3.2-4.66,6.75,6.75,0,0,1,4.65-1.11,12.69,12.69,0,0,1,3.42,1A7.37,7.37,0,0,1,210.08,68a12.32,12.32,0,0,1,1.46,2.11,2.26,2.26,0,0,0,.21-.31c.23-.5.4-1,.68-1.49a5.6,5.6,0,0,1,3.84-2.69c.88-.18,1.8-.11,2.7-.24a2.71,2.71,0,0,1,2.18.82c.73.59,1.48,1.16,2.29,1.78.11-.3.21-.54.28-.79A7.93,7.93,0,0,1,227,62.89a7.77,7.77,0,0,1,2.8-1.37,4.58,4.58,0,0,1,2.33-.1,4.18,4.18,0,0,0,.46.08,4.61,4.61,0,0,1,0-.79,3.86,3.86,0,0,1,.41-1.63,16.91,16.91,0,0,1,2.2-2.09,2,2,0,0,1,1-.5c1.08-.16,2.18-.21,3.27-.35a.63.63,0,0,0,.4-.44c0-.46,0-.93,0-1.4a6.92,6.92,0,0,1,1.69-5.21c1.66-1.7,3-2,5.13-1.05a1.77,1.77,0,0,0,.56.05,2.27,2.27,0,0,0,0-.49,5.65,5.65,0,0,1,.4-3.87A5,5,0,0,1,252.27,41c1.3.06,2.74-.23,3.74,1.17a2.72,2.72,0,0,1,.51,2.88c-.26.6-.47,1.22-.76,2a7.45,7.45,0,0,1,3.9-.3,15.18,15.18,0,0,1,3.23,1c.9.4,2,.85,1.81,2.06,1.12.68.62,1.82,1,2.72a3.35,3.35,0,0,0,.53-.13c.31-.13.6-.31.91-.44a15.45,15.45,0,0,1,5.11-.93c.51,0,1,.23,1.54.19a7.63,7.63,0,0,1,4.57,1.33,10.65,10.65,0,0,1,2.48,2,11.72,11.72,0,0,1,1.33,2.33c.25.45.47.92.75,1.46a10.65,10.65,0,0,1,5.75-3.65,8,8,0,0,1,4.53.6,17,17,0,0,1,5.48,3.07,3.85,3.85,0,0,1,1.54,2.94c0,.39.08.79.12,1.14,1-.4,2-.8,2.93-1.15a8.2,8.2,0,0,1,4.4-.44,4,4,0,0,1,2.81,1.44c.72,1,.85,1,1.49-.11A7.15,7.15,0,0,1,317,58.42a18.2,18.2,0,0,1,4.69.23,11.29,11.29,0,0,1,1.81.46c0-.76,0-1.44,0-2.12a8.29,8.29,0,0,1,1.13-4.57,4,4,0,0,1,3-2c.62-.05,1.22-.29,1.83-.31a10.44,10.44,0,0,1,3.07.15,11,11,0,0,1,2.72,1.49,6.75,6.75,0,0,1,1.58,1.3,28.09,28.09,0,0,1,1.62,2.38,15.36,15.36,0,0,1,1.66-1.76,8.34,8.34,0,0,1,2.54-1.59,11.18,11.18,0,0,1,6.31,0c2.3.63,3.93,1.86,4.28,4.4.08.6.27,1.18.42,1.85a4.3,4.3,0,0,0,.58-.35,5.75,5.75,0,0,1,3.82-1.35,11.8,11.8,0,0,1,2.89.08,4.22,4.22,0,0,1,3.28,2.92c.14.47.34.92.54,1.47a8,8,0,0,1,5.85-2.63,7.4,7.4,0,0,1,5.92,2.27c.34-1,.63-1.91,1-2.82.68-1.74,1.57-3.18,3.62-3.67a18.67,18.67,0,0,1,5.88-.69A16.62,16.62,0,0,1,392,54.75a8.88,8.88,0,0,1,4,2.67,4.92,4.92,0,0,1,1,1.9,12.46,12.46,0,0,1,0,4.62c-.11.6-.15,1.22-.23,1.88l.29-.07a1.48,1.48,0,0,0,.27-.13,4.11,4.11,0,0,1,4.79.13c.9.56,1.76,1.2,2.71,1.86.23-.26.53-.58.8-.92a5.32,5.32,0,0,1,3.9-2.19,10.78,10.78,0,0,1,7.14,1.77,6,6,0,0,1,2.65,5.15c0,.85,0,1.7,0,2.65a7.41,7.41,0,0,0,1-.4,4.09,4.09,0,0,1,2.54-.37,5.36,5.36,0,0,1,3.79,2.15,2.64,2.64,0,0,1,.42,3.09l-.4.83a6.08,6.08,0,0,0,.61.07l5.28,0c2,0,4,0,6,0,2.82-.12,5.63-.39,8.45-.48s5.52-.06,8.29-.08c.72,0,1.19-.49,1.27-1.32A3.57,3.57,0,0,0,454.68,74a4.46,4.46,0,0,0-5.25.07,1.22,1.22,0,0,1-.95,0c-.38-.14-.26-.48-.14-.79a1.73,1.73,0,0,0,.09-.53c0-1.5-1.6-2.64-2.75-2.84a6.83,6.83,0,0,0-4,.65,4.15,4.15,0,0,0-2.48,3.27c-.09.5-.37.71-.8.58s-.4-.52-.31-.92a3.62,3.62,0,0,0,.2-1.44,23.17,23.17,0,0,0-1-3.66A11.71,11.71,0,0,0,435.78,66a4.26,4.26,0,0,0-2.56-1.86,12.69,12.69,0,0,0-3.61-.05,2.93,2.93,0,0,0-2.26,1,.87.87,0,0,1-.85.09c-.28-.19-.29-.53,0-.88a3.33,3.33,0,0,0,.9-2.73,11,11,0,0,0-.49-2.15,10.75,10.75,0,0,0-.93-1.83,6.61,6.61,0,0,0-.66-.71,10.41,10.41,0,0,0-3.73-2.76,13.33,13.33,0,0,0-3.79-1,5.28,5.28,0,0,0-5.74,2.56,2.41,2.41,0,0,1-1.46,1.05c0-.27,0-.43.09-.57.31-1.18.72-2.34.92-3.54A25.9,25.9,0,0,0,412,48.6a6.41,6.41,0,0,0-.49-2.31,8.47,8.47,0,0,0-1.2-2,14,14,0,0,0-2.39-2.74,9.25,9.25,0,0,0-4.25-2.21,14.63,14.63,0,0,0-1.85-.18,5.84,5.84,0,0,0-1.85.17,12.43,12.43,0,0,0-4.83,3.43,5.46,5.46,0,0,0-1.1,1.59c-.4.91-.65,1.88-1,2.82a2.9,2.9,0,0,1-.25.74c-.11.16-.44.37-.54.31a.81.81,0,0,1-.37-.59,6,6,0,0,1,.19-1.15,3.65,3.65,0,0,0-2-4,7.4,7.4,0,0,0-4.39-.68,4.63,4.63,0,0,0-3.93,2.78c-.38.86-.58,1.81-.9,2.7a3.39,3.39,0,0,1-.49.72,5,5,0,0,1-.61-.5c-.21-.24-.35-.53-.56-.78a5.43,5.43,0,0,0-2.74-1.34,2.74,2.74,0,0,0-2.42.4,5.43,5.43,0,0,0-2.26,2.72c-.2.52-.31,1.09-.52,1.61-.08.21-.34.34-.52.51a2.41,2.41,0,0,1-.41-.56c-.15-.42-.18-.89-.36-1.3-.37-.86-.86-1.74-1.86-1.85a30.79,30.79,0,0,0-4.38-.14,2.12,2.12,0,0,0-2.09,1.72c-.19.66-.08,1.54-.94,1.94-.07-.26-.15-.51-.21-.76a29,29,0,0,0-.61-2.84,3.59,3.59,0,0,0-1.91-2.47,10.84,10.84,0,0,0-6-.69,3,3,0,0,0-2.53,2.58c0,.21-.38.41-.62.54a.47.47,0,0,1-.41-.18,2,2,0,0,1,0-.9c.64-2.32,1.38-4.62,2-7a8.6,8.6,0,0,0-.74-6.09,9.41,9.41,0,0,0-3.91-3.91,12,12,0,0,0-2.31-1,17.79,17.79,0,0,0-2.5-.44,3.39,3.39,0,0,0-1.12-.09,12.64,12.64,0,0,0-5.82,2.59c-2.48,2.08-4.36,4.51-4.36,7.95a17.93,17.93,0,0,0,.37,2.08c0,.23-.16.48-.25.72a2.29,2.29,0,0,1-.63-.42,2.19,2.19,0,0,1-.31-.79,5.27,5.27,0,0,0-3.61-4,4.55,4.55,0,0,0-4.82.71,26.8,26.8,0,0,0-3,3.21c-1.14,1.45-.93,3.2-.5,4.8a21.3,21.3,0,0,0,1.68,3.62c.13.26.35.49,0,.73a.53.53,0,0,1-.82-.21c-.36-.59-.65-1.22-1-1.81a1.28,1.28,0,0,0-.64-.59,6.51,6.51,0,0,0-3.53.08c-.78.26-1.55.58-2.33.84a5.22,5.22,0,0,0-2.9,2.09c-.66,1-1.43,2-1.15,3.34a.57.57,0,0,1-.09.41c-.16.22-.38.58-.56.57-.39,0-.57-.38-.48-.77a3.21,3.21,0,0,0-.31-2.37c-.77-1.4-1.73-2.59-3.45-2.82-1.27-.17-2.53-.35-3.79-.51a4.89,4.89,0,0,0-3,.47,5.18,5.18,0,0,0-2,1.7c-.08.12-.3.15-.45.22,0-.12-.13-.25-.12-.36a15.7,15.7,0,0,0-.71-6.47,3.22,3.22,0,0,0-2.88-2.34,7.86,7.86,0,0,0-2.24.07,10.22,10.22,0,0,0-5.46,2.32c-1.22,1.17-2.37,2.4-1.84,4.37.05.19-.44.52-.69.79a2.69,2.69,0,0,1-.43-.67,10.87,10.87,0,0,0-.31-1.49,6.17,6.17,0,0,0-1.15-1.83,5.79,5.79,0,0,0-1.79-1.08,6.86,6.86,0,0,0-6.16,0,1.14,1.14,0,0,1-.35.11c-.61.1-.92-.22-.76-.81a2.76,2.76,0,0,1,.36-.77c.27-.43.63-.81.86-1.26.51-1,.91-2,1.45-3a4.84,4.84,0,0,0,.51-3c-.16-1.56-.45-3.11-.66-4.67a8.75,8.75,0,0,0-1.53-3.75,6,6,0,0,0-3.82-2.32,27.33,27.33,0,0,0-5.23-.62,34.26,34.26,0,0,0-5.76.43,7.83,7.83,0,0,0-3.4,1.24A10.33,10.33,0,0,0,246,28.92c-.48,1.45-1.24,2.86-.92,4.49,0,.17-.19.45-.36.57a.55.55,0,0,1-.52-.11,4,4,0,0,1-.59-.9c-.6-1.23-1.16-1.53-2.44-1.07a10.71,10.71,0,0,0-2.43,1.21,3.19,3.19,0,0,0-1.07,1.4c-.64,1.6-.06,3.1.68,4.5.57,1.07,1.27,2.08,1.92,3.1.23.36.23.68-.15.88s-.61.09-.86-.29a6.47,6.47,0,0,0-1.37-1.53,2.62,2.62,0,0,0-2.55-.32c-.57.21-1.13.46-1.69.7a2.59,2.59,0,0,0-1.5,2c-.37,1.81-.58,3.6,1.22,4.88.18.13.23.45.33.69s.27.76-.19.95-.63-.12-.88-.44a11.61,11.61,0,0,0-1.7-1.88,3.48,3.48,0,0,0-2.86-.41A21.62,21.62,0,0,0,224,48.59,3.35,3.35,0,0,0,221.79,51a1.91,1.91,0,0,0,.2,1.75c.34.41.44.83.06,1.11s-.71-.12-1-.47a3,3,0,0,0-1.84-1.28,4.81,4.81,0,0,0-2.73.3,6,6,0,0,0-4.2,5c0,.14,0,.32-.11.41a1.16,1.16,0,0,1-.53.33c-.06,0-.25-.27-.28-.43a2,2,0,0,1,0-.83,5.23,5.23,0,0,0-.32-4.14c-.56-1-1.08-2-2.24-2.37a8.87,8.87,0,0,0-2.92-.34A10.53,10.53,0,0,0,199,53a2.81,2.81,0,0,0-.76,1.66c-.25,2,.9,3.39,2,4.78.19.23.5.43.2.77s-.55.06-.78-.11a1.9,1.9,0,0,1-.29-.31A6.22,6.22,0,0,0,196.67,58a1.55,1.55,0,0,0-1.81.36c-.74.93-1.36,1.91-.82,3.2.06.14,0,.5-.11.52a.83.83,0,0,1-.61-.1c-.31-.22-.56-.52-.86-.77-.75-.63-1.48-1.42-2.6-.83a9,9,0,0,0-1.27.92,5.49,5.49,0,0,1-.54.49,2.22,2.22,0,0,1-.62.15c0-.2,0-.41,0-.61a17.32,17.32,0,0,0-.08-2.89,7,7,0,0,0-1-2,4.37,4.37,0,0,0-3.82-2.17,7.25,7.25,0,0,0-4.06.71c-.76.41-1.59.74-2,1.55-.57,1.23-1,2.51-1.54,3.78-.15.37-.16.91-.7.82-.18,0-.35-.52-.39-.83a13.68,13.68,0,0,0-.6-2.92,3.87,3.87,0,0,0-3.94-2.69,18.71,18.71,0,0,0-4,.78,5,5,0,0,0-3.27,2.9c-.22.43-.29.94-.54,1.35-.15.24-.51.36-.77.53a4.15,4.15,0,0,1-.27-.79,1.68,1.68,0,0,1,.14-.59,14.78,14.78,0,0,0,1-4,6.83,6.83,0,0,0-1.72-4.32A4.88,4.88,0,0,0,154.63,49c-1.44.34-2.86.76-4.29,1.15a1.69,1.69,0,0,1-.36,0c0-.81-.21-1.57.68-2.16A3.25,3.25,0,0,0,152,45.07a4.56,4.56,0,0,0-2.77-4.31,10.67,10.67,0,0,0-9.56.24,31.31,31.31,0,0,0-4.43,3.21,4.37,4.37,0,0,0-1.38,3.66,7.06,7.06,0,0,0,1.06,4c.13.18-.05.6-.09.91-.23-.09-.52-.11-.68-.28-.62-.64-1.14-1.38-1.79-2a5.42,5.42,0,0,0-1.69-1c-.36-.14-.84,0-1.26,0a3.12,3.12,0,0,0-3.08,1.54,3.85,3.85,0,0,0-.63,3.41c.08.22,0,.67-.08.73a.85.85,0,0,1-.79-.06A3.81,3.81,0,0,0,122,54.14a2.42,2.42,0,0,0-2.51,1.78,4.84,4.84,0,0,0,.12,2.72c.06.19-.05.43-.09.65a1.74,1.74,0,0,1-.64-.12c-.62-.42-1.18-.95-1.83-1.31a9.71,9.71,0,0,0-5.37-1.27,8.79,8.79,0,0,0-4.63,2,4,4,0,0,0-2,2.74,6.05,6.05,0,0,0,.32,3.33c.41.87.39.93-.32,1.38-.05,0-.13-.09-.17-.16a4.64,4.64,0,0,0-1.8-1.78,2.4,2.4,0,0,0-1.11-.4c-1.74-.11-2.87,1-3.9,2.16a10.09,10.09,0,0,0-1,2.1.9.9,0,0,1-.6.46c-.37,0-.28-.33-.29-.6A2.71,2.71,0,0,0,96,66.58a6.49,6.49,0,0,0-1.27-1.34,6.6,6.6,0,0,0-4.81-2,19.94,19.94,0,0,0-4.47,1,6.47,6.47,0,0,0-2.88,2c-.21.24-.46.43-.85.8l-.27-1.12a7.47,7.47,0,0,0-.64-2.5,3.37,3.37,0,0,0-2.61-1.3A6.13,6.13,0,0,0,73,64.43a4.94,4.94,0,0,1-.69.57,7,7,0,0,1-.2-1.5,3.9,3.9,0,0,0-1.29-3.55,5.62,5.62,0,0,0-4.47-1.81c-1.36.15-2.66.32-3.58,1.49a5.88,5.88,0,0,1-.66.79.6.6,0,0,1-.5,0,.39.39,0,0,1-.17-.35A7,7,0,0,1,62,58.81c.41-.58.94-1.08,1.32-1.68.89-1.41,1.75-2.85,2.55-4.31a2.31,2.31,0,0,0,0-2.18,3.54,3.54,0,0,0-3-1.89,8.05,8.05,0,0,0-5.38,1.8,7.28,7.28,0,0,0-3,6.45,21.14,21.14,0,0,0,.37,2.35c.06.29.47.59.08.84a1.85,1.85,0,0,1-1.09.31c-.63-.06-1.23-.33-1.86-.42-1.94-.28-4,.63-4.55,2.11-.39,1-1,2.12-.23,3.26.2.31.51.59.15,1s-.75.33-1.16.18a4.61,4.61,0,0,1-.45-.2A6.13,6.13,0,0,0,41.18,66c-.35.12-.87.31-.95.57-.3,1-1,2.1-.13,3.22.24.31.42.69,0,1a.88.88,0,0,1-1.17.12,18.56,18.56,0,0,0-1.65-1,3,3,0,0,0-1.22-.26c-1.86,0-3.26,2.74-2.84,4.28.21.78-.26,1.37-1,1.26A9.05,9.05,0,0,1,31,74.83a5.28,5.28,0,0,0-1.43-.41,2,2,0,0,0-1.78,1.89c-.07.57.13.81.68.79,2.11-.08,4.21.29,6.33.14a26.14,26.14,0,0,1,2.67.07c2.25.07,4.5.16,6.76.21s4.58,0,6.87.09c2.82,0,5.64.12,8.47.18l5.84.1c.85,0,.78.17,1.26-.88a4.15,4.15,0,0,1,3.2-2.54,5.49,5.49,0,0,1,3.22.7c.3.14.46.14.67-.21a3.86,3.86,0,0,1,2.94-2.11c.6-.07,1.21-.16,1.8-.27A4.65,4.65,0,0,1,83,73.66c.21.21.45.25.8,0,1.13-.77,2.21-1.62,3.77-1.4a3.65,3.65,0,0,1,3,1.82,5.62,5.62,0,0,0,.57.71c.63-1.62,2.09-2.07,3.4-2.71a3.25,3.25,0,0,1,1.1-.31c1.62-.15,3,.63,4.33,1.34.69.36.63.37,1-.33a4.13,4.13,0,0,1,2.31-2.37c.42-.14.82-.36,1.24-.48a2.82,2.82,0,0,1,2.19-.09,6.89,6.89,0,0,1,2.56,1.84,2.78,2.78,0,0,0,.53.4c.09-.38.15-.65.22-.93a3.78,3.78,0,0,1,2.38-2.75,7.26,7.26,0,0,1,3.54-.38c1.72.25,3.13.9,3.75,2.69.08.22.13.45.2.71A6.75,6.75,0,0,1,127,70c.06-.64.09-1.21.18-1.76A4.93,4.93,0,0,1,131.06,64a6.57,6.57,0,0,1,3,0c.73.13.89,0,.77-.78a6.65,6.65,0,0,1,1.65-5.69,3.26,3.26,0,0,1,2.66-1.07,17.83,17.83,0,0,1,3.09.53,4.42,4.42,0,0,1,2.94,1.8,6.48,6.48,0,0,1,1.18,3.81c0,.37,0,.75.07,1.24a11.15,11.15,0,0,1,1.14-1.31,15,15,0,0,1,2.35-1.73,4.78,4.78,0,0,1,1.9-.4,6,6,0,0,1,3.19.24c1,.51,2.05,1.07,3.06,1.64a4.43,4.43,0,0,1,2.34,3.46c.08.64.13,1.28.19,1.84a21.11,21.11,0,0,1,2.08-1.51,6.87,6.87,0,0,1,5.66-.56,4.52,4.52,0,0,1,2.65,1.89,4.11,4.11,0,0,1,.76,2.55c.7-.67,1.3-1.27,1.94-1.83a6.82,6.82,0,0,1,5.71-1.58,11.26,11.26,0,0,1,4.66,2,1.8,1.8,0,0,1,.46.48c.66,1,1.31,2,1.91,3a23.16,23.16,0,0,1,2-2.32C189.84,68.35,192.72,67.79,194.35,69.27Zm262.26,4.88a4.31,4.31,0,0,1,.22,5.58,2.17,2.17,0,0,1-1.5.67c-2.72,0-5.45,0-8.17,0-2.54,0-5.08,0-7.62,0-2,0-4,.22-6,.26-3.69.06-7.38.06-11.08.09-2.52,0-5,.06-7.55.06-3,0-6-.09-8.95-.08-1.89,0-3.78.16-5.67.15-2.2,0-4.39-.1-6.59-.17-2.89-.09-5.77-.24-8.66-.27-2.28,0-4.55.09-6.83.11-1,0-2.06-.09-3.09-.07-2.11,0-4.2-.37-6.34-.06a34.06,34.06,0,0,1-4.93,0c-2.82,0-5.65-.06-8.47,0-4.2.08-8.4.24-12.6.32-1.09,0-2.19-.18-3.28-.22-1.6,0-3.21,0-4.81-.05-1.18,0-2.36-.07-3.53-.07-1.55,0-3.09,0-4.64,0h-9.32c-1.67,0-3.35,0-5,0-4,.11-8,.33-12.05.1-2.35-.14-4.71-.15-7.06-.17s-4.75,0-7.12,0h-4.62l-8.93-.07q-3.22,0-6.45,0c-2.11,0-4.22.07-6.33.09q-3.74,0-7.47,0c-1.59,0-3.17-.06-4.76-.07-2.47,0-4.94,0-7.42,0a4.36,4.36,0,0,1-.86-.24,4,4,0,0,0-.84-.12c-2.22,0-4.43,0-6.65,0s-4.22-.1-6.33-.11c-2.71,0-5.41,0-8.12,0-1.52,0-3-.12-4.56-.11-1.82,0-3.63.15-5.45.2-1.56,0-3.12,0-4.68,0-1.18,0-2.36-.07-3.54-.11-2.09-.07-4.18-.17-6.28-.2s-4.18,0-6.27,0q-2.8,0-5.59,0c-3,0-5.94-.1-8.91-.13-2.13,0-4.26,0-6.38,0s-4,.06-6,.08l-5.68,0c-1.78,0-3.56.07-5.34,0s-3.69-.16-5.53-.2c-2.05,0-4.1,0-6.16,0l-8.72-.06c-1.74,0-3.47,0-5.21,0s-3.44-.06-5.16-.08l-6.27,0c-2.64,0-5.29-.08-7.93-.1-3,0-6.06,0-9.08-.05s-6.14-.08-9.21-.11c-2.23,0-4.47,0-6.7,0-2,0-4-.09-6.07-.14s-3.81-.11-5.72-.12c-2.54,0-5.08,0-7.63,0q-3.23,0-6.46-.05c-1.75,0-3.49-.1-5.24-.12s-3.57,0-5.35,0c-2.93,0-5.86-.1-8.79-.12-1.56,0-3.11,0-4.67.1a2,2,0,0,1-2.24-2.51,3.5,3.5,0,0,1,2.68-3.06,4.48,4.48,0,0,1,1.56,0,6.68,6.68,0,0,1,1,.23A23.58,23.58,0,0,1,33,70.24a4,4,0,0,1,3.61-2c.44,0,.88.24,1.33.29a.66.66,0,0,0,.51-.35c.26-.66.45-1.35.68-2a2.12,2.12,0,0,1,1.4-1.34,6.39,6.39,0,0,1,5.27.13c.08-.54.13-1,.23-1.48a10.09,10.09,0,0,1,.45-1.75c.38-.92,1.28-1.34,2-1.89a11.66,11.66,0,0,1,1.25-.75c1-.55,2.09-.24,3.14-.32.63-.05.8-.13.7-.79a7.49,7.49,0,0,1,.75-4.82C55.59,51,57,49,59.66,48.37c.92-.22,1.82-.55,2.75-.69A4.36,4.36,0,0,1,66.14,49a2.8,2.8,0,0,1,1.12,2.15,6.51,6.51,0,0,1-.67,2.32c-.57,1.27-1.26,2.5-1.93,3.81,2-.23,3.84-.43,5.64.81s2.9,2.61,2.89,4.89c.17-.1.29-.17.41-.25a7.28,7.28,0,0,1,5.69-1.63,4.23,4.23,0,0,1,2.54,2.35c.14.62.27,1.24.4,1.89l1.23-.85A12.11,12.11,0,0,1,91,62.23a8,8,0,0,1,2.77.93,7.53,7.53,0,0,1,2.89,2.44,1.13,1.13,0,0,0,.26.2c.9-.78,1.76-1.56,2.66-2.29a3.87,3.87,0,0,1,2.56-.83,4,4,0,0,1,1.29.44c.27.11.53.26.83.41,0-.74,0-1.39,0-2a5.06,5.06,0,0,1,2.61-3.68,18.86,18.86,0,0,1,3.76-2,4.36,4.36,0,0,1,3.19-.15,5,5,0,0,0,1,.18,7,7,0,0,1,3.55,1.79c.11-.7.23-1.33.3-2,.16-1.45,1.17-2,2.34-2.6s2,0,3,.23c.49.09.55,0,.71-.44A17.48,17.48,0,0,1,126,50.29a4.58,4.58,0,0,1,.86-1,1.48,1.48,0,0,1,.67-.39c.78-.17,1.57-.31,2.36-.43a3.33,3.33,0,0,1,2.54.78,5,5,0,0,0,.69.36,20.07,20.07,0,0,1,0-2.09A6.07,6.07,0,0,1,134.27,44a12.69,12.69,0,0,1,3.2-2.76c.56-.32,1.07-.75,1.64-1a13.42,13.42,0,0,1,2.19-.86,32.07,32.07,0,0,1,3.47-.82,4.86,4.86,0,0,1,1.67.12,11.64,11.64,0,0,1,4.26,1.53,3.67,3.67,0,0,1,1.48,1.34c1.08,2.22,1.39,4.45-.1,6.65,0,0,0,0,0,.17.35-.07.68-.15,1-.21a24.92,24.92,0,0,1,3.46-.49,5,5,0,0,1,3.85,1.68,17.22,17.22,0,0,1,1.08,1.54,7.93,7.93,0,0,1,1.26,4.74,9.66,9.66,0,0,1,1.34-.69,29.4,29.4,0,0,1,4.31-1.29,5.22,5.22,0,0,1,4.89,1.73,10.15,10.15,0,0,1,1.21,2.35c.06.12.1.25.17.43.43-.83.78-1.63,1.23-2.36a5.76,5.76,0,0,1,3.05-2.1,8.67,8.67,0,0,1,4.52-.27,5,5,0,0,1,3.76,2.47,8.75,8.75,0,0,1,1.24,3.55,3.77,3.77,0,0,0,.18.58c1.43-1.25,2.81-1,4.19.19.89-2.68,2.51-3.81,5.19-2.66-.14-.57-.29-1.08-.39-1.6a4,4,0,0,1,1.67-4.22A12.25,12.25,0,0,1,204,49.24a13.15,13.15,0,0,1,4.09-.15,3.84,3.84,0,0,1,2.68,1.25,10.21,10.21,0,0,1,1.25,2,16.07,16.07,0,0,1,.66,1.57c1.12-.75,2.14-1.52,3.26-2.12a9,9,0,0,1,2.4-.75,2.89,2.89,0,0,1,1.3.12,10.67,10.67,0,0,1,1.38.59c.05-.2.12-.39.15-.58a4.18,4.18,0,0,1,1.82-3,9.76,9.76,0,0,1,4.12-1.62c.91-.11,1.83-.25,2.74-.33a2.68,2.68,0,0,1,.8.2c.4.1.52,0,.54-.46a7.64,7.64,0,0,1,.63-3.77,3.72,3.72,0,0,1,1-1,8.72,8.72,0,0,1,2-1.25,8.22,8.22,0,0,1,2.13-.28,6.08,6.08,0,0,1,.87.06c-.2-.39-.32-.67-.48-.94a5.25,5.25,0,0,1,.41-6,5.84,5.84,0,0,1,3-1.81c.81-.19,1.63-.63,2.48-.15a12.07,12.07,0,0,1,1,.7c.24-.72.48-1.5.76-2.25a11.33,11.33,0,0,1,2.5-4,16.2,16.2,0,0,1,1.77-1.85,10.7,10.7,0,0,1,5.48-1.8c1-.1,2.1-.26,3.15-.28a20,20,0,0,1,2.51.21c.5.05,1,.15,1.5.22a20.93,20.93,0,0,1,3,.43c2.52.73,4.5,2.13,5.16,4.88.31,1.28.59,2.56.82,3.85a21.84,21.84,0,0,1,.38,3.26,6.82,6.82,0,0,1-.38,2.15,13.79,13.79,0,0,1-2.3,4.62,3.42,3.42,0,0,0-.26.44c3.94-1,7.43-.78,9.86,3.13a1.54,1.54,0,0,0,.32-.42,7.23,7.23,0,0,1,2.14-2.7c1.47-1.42,3.35-1.8,5.29-2.15a7.56,7.56,0,0,1,3.28-.07,3.5,3.5,0,0,1,2.85,2.8c.33,1.63.73,3.24,1.1,4.87a8.83,8.83,0,0,1,1.84-.78,12.08,12.08,0,0,1,3.12-.24,34.77,34.77,0,0,1,4.16.71,2.8,2.8,0,0,1,1.19.55,6.29,6.29,0,0,1,2.06,2.37c.14.34.32.36.54,0a6.69,6.69,0,0,1,1.3-1.89,22.16,22.16,0,0,1,3.12-1.84,9,9,0,0,1,5.1-1c.76.06.83,0,.65-.78a6.68,6.68,0,0,1,.07-4.28,9.93,9.93,0,0,1,1.41-2.19,11.88,11.88,0,0,1,3.5-3,3.44,3.44,0,0,1,1.6-.43,6.85,6.85,0,0,1,5.46,2.2,2.75,2.75,0,0,0,.57.35c.11-.55.17-1,.29-1.41a11.68,11.68,0,0,1,2.71-4.6,15.08,15.08,0,0,1,6.47-4,9.21,9.21,0,0,1,4.32-.06,11.11,11.11,0,0,1,5.58,2.78,9,9,0,0,1,3.31,8.66,20.44,20.44,0,0,1-1.14,4.86,2.21,2.21,0,0,0-.07.34,2,2,0,0,0,.44,0,11,11,0,0,1,7.71.32,4,4,0,0,1,2.25,2.69l.47,1.3c1-1.54,2.38-1.65,3.9-1.51a18.75,18.75,0,0,0,2.19,0,3.38,3.38,0,0,1,3.3,1.74,2.92,2.92,0,0,0,.3.37c.69-.84,1.33-1.66,2-2.45a4,4,0,0,1,4.12-1.08c.87.34,1.74.73,2.57,1.16.47.24.68.22.88-.33a6.71,6.71,0,0,1,3.1-3.87,8.08,8.08,0,0,1,4.22-.65,7.36,7.36,0,0,1,4.1,1.51,7.3,7.3,0,0,1,1.25,1.65c.22-.27.48-.59.73-.91.69-.9,1.32-1.87,2.09-2.69a6,6,0,0,1,1.92-1.39,11.07,11.07,0,0,1,6.69-.54,9.41,9.41,0,0,1,3.4,1.69,14.67,14.67,0,0,1,4.52,5.28,7.25,7.25,0,0,1,.7,3.75c-.06,1.37-.16,2.74-.23,4.09a8.41,8.41,0,0,1,6.56-.92,10.14,10.14,0,0,1,4.17,1.77c1,.76,1.93,1.53,2.83,2.36a6.85,6.85,0,0,1,2.07,4.26,25.36,25.36,0,0,1,.09,2.62c.4-.09.92-.22,1.45-.31a8,8,0,0,1,3.91.16,6.1,6.1,0,0,1,3.29,2.71,17.26,17.26,0,0,1,2.07,4.52c.12.47.43.45.79.17A7.79,7.79,0,0,1,445.22,69a4.21,4.21,0,0,1,3.34,1.18,9,9,0,0,1,1,1.9,5.3,5.3,0,0,1,.23.69,13.23,13.23,0,0,0,1.41-.29,5.29,5.29,0,0,1,2.82.2A4.34,4.34,0,0,1,456.61,74.16Z"/><path class="cls-5" d="M103.08,64.12a4.64,4.64,0,0,1,1.8,1.78c0,.07.11.11.17.16.71-.45.73-.51.32-1.38a6.05,6.05,0,0,1-.32-3.33,4,4,0,0,1,2-2.74,8.79,8.79,0,0,1,4.63-2A9.71,9.71,0,0,1,117,57.85c.65.36,1.21.89,1.83,1.31a1.74,1.74,0,0,0,.64.12c0-.22.15-.46.09-.65a4.84,4.84,0,0,1-.12-2.72A2.42,2.42,0,0,1,122,54.14a3.81,3.81,0,0,1,2.82,1.07.85.85,0,0,0,.79.06c.12-.06.16-.51.08-.73a3.85,3.85,0,0,1,.63-3.41,3.12,3.12,0,0,1,3.08-1.54c.42,0,.9-.16,1.26,0a5.42,5.42,0,0,1,1.69,1c.66.59,1.18,1.33,1.79,2,.16.16.45.19.68.28,0-.31.22-.72.09-.91a7.06,7.06,0,0,1-1.06-4,4.37,4.37,0,0,1,1.38-3.66A31.31,31.31,0,0,1,139.64,41a10.67,10.67,0,0,1,9.56-.24A4.56,4.56,0,0,1,152,45.07,3.25,3.25,0,0,1,150.67,48c-.89.59-.68,1.35-.68,2.16a1.69,1.69,0,0,0,.36,0c1.43-.38,2.85-.81,4.29-1.15a4.88,4.88,0,0,1,5.27,1.65,6.83,6.83,0,0,1,1.72,4.32,14.78,14.78,0,0,1-1,4,1.68,1.68,0,0,0-.14.59,4.15,4.15,0,0,0,.27.79c.26-.17.62-.28.77-.53.25-.41.33-.92.54-1.35a5,5,0,0,1,3.27-2.9,18.71,18.71,0,0,1,4-.78,3.87,3.87,0,0,1,3.94,2.69,13.68,13.68,0,0,1,.6,2.92c0,.3.22.8.39.83.54.09.55-.44.7-.82.5-1.27,1-2.55,1.54-3.78.38-.81,1.21-1.14,2-1.55a7.25,7.25,0,0,1,4.06-.71,4.37,4.37,0,0,1,3.82,2.17,7,7,0,0,1,1,2,17.32,17.32,0,0,1,.08,2.89c0,.2,0,.41,0,.61a2.22,2.22,0,0,0,.62-.15,5.49,5.49,0,0,0,.54-.49,9,9,0,0,1,1.27-.92c1.11-.58,1.85.2,2.6.83.29.25.55.55.86.77a.83.83,0,0,0,.61.1c.08,0,.17-.37.11-.52-.54-1.29.09-2.27.82-3.2a1.55,1.55,0,0,1,1.81-.36,6.22,6.22,0,0,1,2.79,1.79,1.9,1.9,0,0,0,.29.31c.23.17.47.47.78.11s0-.54-.2-.77c-1.15-1.39-2.29-2.82-2-4.78A2.81,2.81,0,0,1,199,53a10.53,10.53,0,0,1,6.89-3,8.87,8.87,0,0,1,2.92.34c1.16.37,1.68,1.39,2.24,2.37a5.23,5.23,0,0,1,.32,4.14,2,2,0,0,0,0,.83c0,.16.22.44.28.43a1.16,1.16,0,0,0,.53-.33c.09-.09.09-.27.11-.41a6,6,0,0,1,4.2-5,4.81,4.81,0,0,1,2.73-.3,3,3,0,0,1,1.84,1.28c.25.34.53.78,1,.47s.28-.7-.06-1.11a1.91,1.91,0,0,1-.2-1.75A3.35,3.35,0,0,1,224,48.59a21.62,21.62,0,0,1,4.11-1.29,3.48,3.48,0,0,1,2.86.41,11.61,11.61,0,0,1,1.7,1.88c.25.32.48.61.88.44s.34-.59.19-.95-.15-.56-.33-.69c-1.8-1.28-1.59-3.07-1.22-4.88a2.59,2.59,0,0,1,1.5-2c.56-.25,1.11-.5,1.69-.7a2.62,2.62,0,0,1,2.55.32,6.47,6.47,0,0,1,1.37,1.53c.26.37.53.46.86.29s.38-.52.15-.88c-.66-1-1.36-2-1.92-3.1-.74-1.4-1.32-2.89-.68-4.5a3.19,3.19,0,0,1,1.07-1.4,10.71,10.71,0,0,1,2.43-1.21c1.28-.46,1.84-.16,2.44,1.07a4,4,0,0,0,.59.9.55.55,0,0,0,.52.11c.17-.13.39-.41.36-.57-.32-1.63.44-3,.92-4.49A10.33,10.33,0,0,1,249.87,24a7.83,7.83,0,0,1,3.4-1.24,34.26,34.26,0,0,1,5.76-.43,27.33,27.33,0,0,1,5.23.62,6,6,0,0,1,3.82,2.32A8.75,8.75,0,0,1,269.6,29c.21,1.56.5,3.11.66,4.67a4.84,4.84,0,0,1-.51,3c-.54,1-.94,2-1.45,3-.23.45-.59.83-.86,1.26a2.76,2.76,0,0,0-.36.77c-.15.59.16.91.76.81a1.14,1.14,0,0,0,.35-.11,6.86,6.86,0,0,1,6.16,0,5.79,5.79,0,0,1,1.79,1.08,6.17,6.17,0,0,1,1.15,1.83,10.87,10.87,0,0,1,.31,1.49,2.69,2.69,0,0,0,.43.67c.24-.27.74-.6.69-.79-.53-2,.62-3.19,1.84-4.37A10.22,10.22,0,0,1,286,39.92a7.86,7.86,0,0,1,2.24-.07,3.22,3.22,0,0,1,2.88,2.34,15.7,15.7,0,0,1,.71,6.47c0,.11.07.24.12.36.15-.07.37-.1.45-.22a5.18,5.18,0,0,1,2-1.7,4.89,4.89,0,0,1,3-.47c1.27.16,2.53.34,3.79.51,1.72.23,2.68,1.42,3.45,2.82a3.21,3.21,0,0,1,.31,2.37c-.1.4.09.75.48.77.18,0,.4-.35.56-.57a.57.57,0,0,0,.09-.41c-.28-1.35.49-2.33,1.15-3.34a5.22,5.22,0,0,1,2.9-2.09c.79-.26,1.55-.58,2.33-.84a6.51,6.51,0,0,1,3.53-.08,1.28,1.28,0,0,1,.64.59c.37.58.66,1.22,1,1.81a.53.53,0,0,0,.82.21c.35-.24.13-.47,0-.73A21.3,21.3,0,0,1,316.84,44c-.44-1.6-.64-3.35.5-4.8a26.8,26.8,0,0,1,3-3.21,4.55,4.55,0,0,1,4.82-.71,5.27,5.27,0,0,1,3.61,4,2.19,2.19,0,0,0,.31.79,2.29,2.29,0,0,0,.63.42c.09-.24.28-.5.25-.72a17.93,17.93,0,0,1-.37-2.08c0-3.44,1.88-5.86,4.36-7.95a12.64,12.64,0,0,1,5.82-2.59,3.39,3.39,0,0,1,1.12.09,17.79,17.79,0,0,1,2.5.44,12,12,0,0,1,2.31,1,9.41,9.41,0,0,1,3.91,3.91,8.6,8.6,0,0,1,.74,6.09c-.58,2.34-1.31,4.63-2,7a2,2,0,0,0,0,.9.47.47,0,0,0,.41.18c.24-.13.58-.33.62-.54a3,3,0,0,1,2.53-2.58,10.84,10.84,0,0,1,6,.69,3.59,3.59,0,0,1,1.91,2.47,29,29,0,0,1,.61,2.84c.06.25.14.5.21.76.87-.4.76-1.28.94-1.94a2.12,2.12,0,0,1,2.09-1.72,30.79,30.79,0,0,1,4.38.14c1,.11,1.49,1,1.86,1.85.18.41.21.88.36,1.3a2.41,2.41,0,0,0,.41.56c.18-.17.43-.3.52-.51.21-.52.32-1.08.52-1.61A5.43,5.43,0,0,1,374,45.78a2.74,2.74,0,0,1,2.42-.4,5.43,5.43,0,0,1,2.74,1.34c.2.24.35.54.56.78a5,5,0,0,0,.61.5,3.39,3.39,0,0,0,.49-.72c.32-.89.52-1.84.9-2.7a4.63,4.63,0,0,1,3.93-2.78,7.4,7.4,0,0,1,4.39.68,3.65,3.65,0,0,1,2,4,6,6,0,0,0-.19,1.15.81.81,0,0,0,.37.59c.1.06.43-.15.54-.31a2.9,2.9,0,0,0,.25-.74c.31-.94.57-1.91,1-2.82a5.46,5.46,0,0,1,1.1-1.59,12.43,12.43,0,0,1,4.83-3.43,5.84,5.84,0,0,1,1.85-.17,14.63,14.63,0,0,1,1.85.18,9.25,9.25,0,0,1,4.25,2.21,14,14,0,0,1,2.39,2.74,8.47,8.47,0,0,1,1.2,2A6.41,6.41,0,0,1,412,48.6a25.9,25.9,0,0,1-.34,4.07c-.2,1.2-.61,2.36-.92,3.54,0,.15,0,.3-.09.57a2.41,2.41,0,0,0,1.46-1.05,5.28,5.28,0,0,1,5.74-2.56,13.33,13.33,0,0,1,3.79,1,10.41,10.41,0,0,1,3.73,2.76,6.61,6.61,0,0,1,.66.71,10.75,10.75,0,0,1,.93,1.83,11,11,0,0,1,.49,2.15,3.33,3.33,0,0,1-.9,2.73c-.31.35-.3.69,0,.88a.87.87,0,0,0,.85-.09,2.93,2.93,0,0,1,2.26-1,12.69,12.69,0,0,1,3.61.05A4.26,4.26,0,0,1,435.78,66a11.71,11.71,0,0,1,1.44,2.37,23.17,23.17,0,0,1,1,3.66,3.62,3.62,0,0,1-.2,1.44c-.09.39-.13.78.31.92s.72-.07.8-.58a4.15,4.15,0,0,1,2.48-3.27,6.83,6.83,0,0,1,4-.65c1.15.2,2.79,1.34,2.75,2.84a1.73,1.73,0,0,1-.09.53c-.12.3-.24.65.14.79a1.22,1.22,0,0,0,.95,0,4.46,4.46,0,0,1,5.25-.07,3.57,3.57,0,0,1,1.86,3.49c-.09.83-.55,1.32-1.27,1.32-2.76,0-5.53,0-8.29.08s-5.63.37-8.45.48c-2,.08-4,0-6,0l-5.28,0a6.08,6.08,0,0,1-.61-.07l.4-.83a2.64,2.64,0,0,0-.42-3.09,5.36,5.36,0,0,0-3.79-2.15,4.09,4.09,0,0,0-2.54.37,7.41,7.41,0,0,1-1,.4c0-1,0-1.8,0-2.65a6,6,0,0,0-2.65-5.15,10.78,10.78,0,0,0-7.14-1.77,5.32,5.32,0,0,0-3.9,2.19c-.27.34-.58.66-.8.92-1-.66-1.81-1.3-2.71-1.86a4.11,4.11,0,0,0-4.79-.13,1.48,1.48,0,0,1-.27.13l-.29.07c.08-.66.12-1.28.23-1.88a12.46,12.46,0,0,0,0-4.62,4.92,4.92,0,0,0-1-1.9,8.88,8.88,0,0,0-4-2.67,16.62,16.62,0,0,0-4.88-1.17,18.67,18.67,0,0,0-5.88.69c-2,.49-2.94,1.94-3.62,3.67-.36.91-.65,1.84-1,2.82a7.4,7.4,0,0,0-5.92-2.27,8,8,0,0,0-5.85,2.63c-.2-.55-.4-1-.54-1.47A4.22,4.22,0,0,0,361,56.72a11.8,11.8,0,0,0-2.89-.08A5.75,5.75,0,0,0,354.29,58a4.3,4.3,0,0,1-.58.35c-.16-.68-.34-1.26-.42-1.85-.35-2.54-2-3.77-4.28-4.4a11.18,11.18,0,0,0-6.31,0,8.34,8.34,0,0,0-2.54,1.59,15.36,15.36,0,0,0-1.66,1.76,28.09,28.09,0,0,0-1.62-2.38,6.75,6.75,0,0,0-1.58-1.3,11,11,0,0,0-2.72-1.49,10.44,10.44,0,0,0-3.07-.15c-.61,0-1.22.26-1.83.31a4,4,0,0,0-3,2A8.29,8.29,0,0,0,323.53,57c0,.68,0,1.36,0,2.12a11.29,11.29,0,0,0-1.81-.46,18.2,18.2,0,0,0-4.69-.23A7.15,7.15,0,0,0,312,62.09c-.64,1.13-.76,1.15-1.49.11a4,4,0,0,0-2.81-1.44,8.2,8.2,0,0,0-4.4.44c-1,.34-1.91.75-2.93,1.15,0-.36-.11-.75-.12-1.14a3.85,3.85,0,0,0-1.54-2.94,17,17,0,0,0-5.48-3.07,8,8,0,0,0-4.53-.6,10.65,10.65,0,0,0-5.75,3.65c-.28-.54-.51-1-.75-1.46a11.72,11.72,0,0,0-1.33-2.33,10.65,10.65,0,0,0-2.48-2,7.63,7.63,0,0,0-4.57-1.33c-.5,0-1-.22-1.54-.19a15.45,15.45,0,0,0-5.11.93c-.31.13-.6.31-.91.44a3.35,3.35,0,0,1-.53.13c-.34-.9.17-2-1-2.72.16-1.22-.92-1.66-1.81-2.06a15.18,15.18,0,0,0-3.23-1,7.45,7.45,0,0,0-3.9.3c.29-.77.5-1.39.76-2a2.72,2.72,0,0,0-.51-2.88c-1-1.4-2.44-1.12-3.74-1.17a5,5,0,0,0-4.68,2.77,5.65,5.65,0,0,0-.4,3.87,2.27,2.27,0,0,1,0,.49,1.77,1.77,0,0,1-.56-.05c-2.1-.93-3.47-.64-5.13,1.05a6.92,6.92,0,0,0-1.69,5.21c0,.47.07.94,0,1.4a.63.63,0,0,1-.4.44c-1.09.14-2.19.19-3.27.35a2,2,0,0,0-1,.5,16.91,16.91,0,0,0-2.2,2.09,3.86,3.86,0,0,0-.41,1.63,4.61,4.61,0,0,0,0,.79,4.18,4.18,0,0,1-.46-.08,4.58,4.58,0,0,0-2.33.1,7.77,7.77,0,0,0-2.8,1.37,7.93,7.93,0,0,0-3.25,4.29c-.07.25-.17.49-.28.79-.8-.62-1.56-1.18-2.29-1.78a2.71,2.71,0,0,0-2.18-.82c-.89.13-1.82.05-2.7.24a5.6,5.6,0,0,0-3.84,2.69c-.28.47-.45,1-.68,1.49a2.26,2.26,0,0,1-.21.31A12.32,12.32,0,0,0,210.08,68a7.37,7.37,0,0,0-2.25-1.47,12.69,12.69,0,0,0-3.42-1,6.75,6.75,0,0,0-4.65,1.11,6.84,6.84,0,0,0-3.2,4.66,5.63,5.63,0,0,1-.16.58,6.74,6.74,0,0,0-.41-.68,16.51,16.51,0,0,0-1.64-2c-1.64-1.48-4.51-.92-6,.44a23.16,23.16,0,0,0-2,2.32c-.6-.93-1.24-2-1.91-3a1.8,1.8,0,0,0-.46-.48,11.26,11.26,0,0,0-4.66-2,6.82,6.82,0,0,0-5.71,1.58c-.64.55-1.23,1.16-1.94,1.83a4.11,4.11,0,0,0-.76-2.55,4.52,4.52,0,0,0-2.65-1.89,6.87,6.87,0,0,0-5.66.56,21.11,21.11,0,0,0-2.08,1.51c-.06-.56-.11-1.21-.19-1.84A4.43,4.43,0,0,0,158,62.28c-1-.57-2-1.13-3.06-1.64a6,6,0,0,0-3.19-.24,4.78,4.78,0,0,0-1.9.4,15,15,0,0,0-2.35,1.73,11.15,11.15,0,0,0-1.14,1.31c0-.5-.06-.87-.07-1.24a6.48,6.48,0,0,0-1.18-3.81,4.42,4.42,0,0,0-2.94-1.8,17.83,17.83,0,0,0-3.09-.53,3.26,3.26,0,0,0-2.66,1.07,6.65,6.65,0,0,0-1.65,5.69c.12.74,0,.9-.77.78a6.57,6.57,0,0,0-3,0,4.93,4.93,0,0,0-3.85,4.24c-.09.56-.12,1.13-.18,1.76a6.75,6.75,0,0,0-7.19,1.42c-.07-.26-.12-.49-.2-.71-.62-1.79-2-2.44-3.75-2.69a7.26,7.26,0,0,0-3.54.38A3.78,3.78,0,0,0,110,71.18c-.07.27-.13.54-.22.93a2.78,2.78,0,0,1-.53-.4,6.89,6.89,0,0,0-2.56-1.84,2.82,2.82,0,0,0-2.19.09c-.43.11-.82.34-1.24.48a4.13,4.13,0,0,0-2.31,2.37c-.35.7-.29.69-1,.33-1.36-.71-2.71-1.5-4.33-1.34a3.25,3.25,0,0,0-1.1.31c-1.31.64-2.77,1.09-3.4,2.71a5.62,5.62,0,0,1-.57-.71,3.65,3.65,0,0,0-3-1.82c-1.55-.22-2.64.63-3.77,1.4-.35.23-.58.19-.8,0a4.65,4.65,0,0,0-4.46-1.09c-.6.11-1.2.2-1.8.27a3.86,3.86,0,0,0-2.94,2.11c-.21.35-.37.34-.67.21a5.49,5.49,0,0,0-3.22-.7A4.15,4.15,0,0,0,66.67,77c-.48,1-.41.9-1.26.88l-5.84-.1c-2.82-.06-5.64-.13-8.47-.18-2.29,0-4.58,0-6.87-.09s-4.5-.14-6.76-.21a26.14,26.14,0,0,0-2.67-.07c-2.12.15-4.22-.22-6.33-.14-.55,0-.75-.22-.68-.79a2,2,0,0,1,1.78-1.89,5.28,5.28,0,0,1,1.43.41,9.05,9.05,0,0,0,1.28.34c.72.1,1.2-.48,1-1.26-.42-1.55,1-4.31,2.84-4.28a3,3,0,0,1,1.22.26,18.56,18.56,0,0,1,1.65,1,.88.88,0,0,0,1.17-.12c.38-.36.2-.74,0-1-.87-1.11-.17-2.17.13-3.22.08-.26.6-.46.95-.57a6.13,6.13,0,0,1,4.66.52,4.61,4.61,0,0,0,.45.2c.42.15.81.25,1.16-.18s.05-.71-.15-1c-.76-1.15-.17-2.22.23-3.26.55-1.47,2.6-2.39,4.55-2.11.63.09,1.23.35,1.86.42A1.85,1.85,0,0,0,55,60.2c.39-.26,0-.55-.08-.84A21.14,21.14,0,0,1,54.56,57a7.28,7.28,0,0,1,3-6.45,8.05,8.05,0,0,1,5.38-1.8,3.54,3.54,0,0,1,3,1.89,2.31,2.31,0,0,1,0,2.18c-.79,1.47-1.66,2.9-2.55,4.31-.38.6-.91,1.1-1.32,1.68a7,7,0,0,0-.64,1.28.39.39,0,0,0,.17.35.6.6,0,0,0,.5,0,5.88,5.88,0,0,0,.66-.79c.92-1.17,2.22-1.35,3.58-1.49a5.62,5.62,0,0,1,4.47,1.81,3.9,3.9,0,0,1,1.29,3.55,7,7,0,0,0,.2,1.5,4.94,4.94,0,0,0,.69-.57,6.13,6.13,0,0,1,5.25-2.29,3.37,3.37,0,0,1,2.61,1.3,7.47,7.47,0,0,1,.64,2.5l.27,1.12c.39-.36.64-.56.85-.8a6.47,6.47,0,0,1,2.88-2,19.94,19.94,0,0,1,4.47-1,6.6,6.6,0,0,1,4.81,2A6.49,6.49,0,0,1,96,66.58a2.71,2.71,0,0,1,.17,1.27c0,.27-.09.61.29.6a.9.9,0,0,0,.6-.46,10.09,10.09,0,0,1,1-2.1c1-1.15,2.17-2.27,3.9-2.16A2.4,2.4,0,0,1,103.08,64.12Z"/></svg>