<svg id="圖層_1" data-name="圖層 1" xmlns="http://www.w3.org/2000/svg" viewBox="0 0 181.33 207.33"><defs><style>.cls-1{fill:#fffffc;}.cls-1,.cls-2,.cls-3,.cls-4,.cls-5,.cls-6,.cls-7{fill-rule:evenodd;}.cls-2{fill:#231c1c;}.cls-3{fill:#eae9e5;}.cls-4{fill:#e9e8e3;}.cls-5{fill:#db5840;}.cls-6{fill:#f0cb22;}.cls-7{fill:#da5840;}</style></defs><title>graphic</title><path class="cls-1" d="M26,167c-.79-1.34-2.14-2.11-3.22-3.15a74.32,74.32,0,0,0-7.6-5.89,21.68,21.68,0,0,1-6.55-7.69A58.52,58.52,0,0,1,5.16,141a19.11,19.11,0,0,1-.79-4.33c.29-.17.59,0,.87,0a2.47,2.47,0,0,0,2.29-.49c1.59-1.21,3.16-2.45,4.77-3.64a13.79,13.79,0,0,0,2.57-2.69c.28-.36.52-.77,1-.92a7.34,7.34,0,0,0,2.15-.74,4.31,4.31,0,0,0,2.57-3.43,5.3,5.3,0,0,1,.29-1.11,4.35,4.35,0,0,0,.18-2.19,6,6,0,0,1,.22-3.24,49.91,49.91,0,0,0,1.59-6.69c.84-3.9,1.85-7.76,2.65-11.67,1.23-6.05,2.29-12.14,3.62-18.17a16.06,16.06,0,0,0,.39-4.16,15.1,15.1,0,0,1,.6-3.63c.46-2.25.77-4.53,1.12-6.8a1.94,1.94,0,0,0,0-1.05,1.49,1.49,0,0,1,.05-.81A65.53,65.53,0,0,0,33.1,53.64c.05-.55.08-1.1.17-1.64.64-3.87-.59-7.38-2.17-10.83-.22-.48-.52-.91-.74-1.39s-.47-.87-.14-1.32A1.38,1.38,0,0,1,31.71,38a5.54,5.54,0,0,1,3.65,2.35A6.06,6.06,0,0,1,36.29,44a78.15,78.15,0,0,1-1.16,12.1c-1.08,6.65-1.87,13.35-2.69,20-.15,1.25-.34,2.49-.61,3.72C30.93,83.91,30,88,29.26,92.06c-.49,2.64-1.35,5.18-1.64,7.86a15.16,15.16,0,0,0-.19,1.88,2.49,2.49,0,0,0,1.67,2.42c.59.24.94.08,1.12-.52.33-1.13.73-2.23,1.16-3.32a67.56,67.56,0,0,1,5.74-11.91c1.54-2.41,3.07-4.82,4.53-7.28a26.83,26.83,0,0,1,8.88-9.05A33.47,33.47,0,0,0,54.79,69a13.31,13.31,0,0,1,3.93-2.12,94.32,94.32,0,0,1,19.74-5.32,58.42,58.42,0,0,1,6.2-.43c2.53-.16,5.06-.32,7.6-.25A26.88,26.88,0,0,1,101,62.43c2.49.94,5,1.74,7.57,2.53A25.62,25.62,0,0,1,115,68.2c.81.53,1.67,1,2.51,1.41a29.74,29.74,0,0,1,9,7.87,60.19,60.19,0,0,1,6.2,8.67,10.13,10.13,0,0,0,.67.94,11.22,11.22,0,0,1,2,4.07c.52,2.28,1,4.57,1.34,6.89a42.79,42.79,0,0,1-.09,9c-.07,1-.48,1.26-1.5,1.09-2.19-.36-4.34-.92-6.51-1.38-5.17-1.1-10.29-2.4-15.49-3.35a34.36,34.36,0,0,1-5.85-1.92c-2.95-1.11-5.91-2.18-8.8-3.47a14.26,14.26,0,0,1-5.93-4.86,2.25,2.25,0,0,0-1.11-.94,1.17,1.17,0,0,0-1.63.65,2.79,2.79,0,0,1-1.28,1.31c-2.13,1.25-4.37,2.31-6.43,3.69a11.38,11.38,0,0,0-5.27,9.47,4.63,4.63,0,0,0,1.57,3.92,11.63,11.63,0,0,1,2.87,3.49,2.41,2.41,0,0,0,.7.81A12.42,12.42,0,0,0,87,118a4.57,4.57,0,0,0,5.36-3.18c.08-.26.17-.52.25-.78.53-1.74.28-2.44-1.34-3.31a11.25,11.25,0,0,1-2.71-2,11.76,11.76,0,0,1-1.36-1.66c-.3-.44-.46-.9,0-1.31s.88-.32,1.36.18a55.39,55.39,0,0,0,8,6.73,13.3,13.3,0,0,0,3.41,1.63,12.61,12.61,0,0,1,1.45.58A90.74,90.74,0,0,0,117,120.6c2.89.86,5.86,1.43,8.7,2.46,1.75.63,3.52,1.22,5.28,1.85a2.51,2.51,0,0,1,1.72,3.4c-.84,1.27-1.42,2.69-2.19,4a24.73,24.73,0,0,1-8,8.07q-2,1.29-3.94,2.6a17.31,17.31,0,0,0-2.92,3.05,70.06,70.06,0,0,1-6.52,6.36c-3,2.53-6.22,4.74-9,7.46-2.42,2.34-4.78,4.75-7,7.25a48.39,48.39,0,0,1-9,7.37A74.92,74.92,0,0,1,76,179.54a30.82,30.82,0,0,1-8.19,3.13,20.26,20.26,0,0,1-9.16-.14,12.63,12.63,0,0,0-1.68-.36,14.19,14.19,0,0,1-7.06-2.88,7.22,7.22,0,0,0-1.52-.82A45.85,45.85,0,0,1,40,173.36a33.49,33.49,0,0,0-8.68-4.46,32.12,32.12,0,0,0-5-1.66A.85.85,0,0,1,26,167Z"/><path class="cls-2" d="M132.52,128.2c.29-1.76-.21-2.54-1.83-3.14-4.94-1.81-10-3.13-15-4.59A70,70,0,0,1,103,115.89c-1.59-.82-3.3-1.34-4.93-2.07-2.31-1-4.1-2.81-6-4.37a17.76,17.76,0,0,1-3.76-3.53c-.32-.46-.52-.16-.79,0s-.5.39-.23.77a11.67,11.67,0,0,0,3.62,3.54l.58.31c1.75.94,2.08,1.77,1.45,3.61a7.12,7.12,0,0,1-1.24,2.63A5.08,5.08,0,0,1,86,118.08a15.35,15.35,0,0,1-3.85-2,3.66,3.66,0,0,1-1.25-1.49,7.8,7.8,0,0,0-2.29-2.77,5.28,5.28,0,0,1-2-4.79c.3-4.83,2.89-8.06,6.93-10.3L88.38,94a2.18,2.18,0,0,0,1.25-1.38c.29-1.05,2.2-1.15,2.83-.11,2.16,3.56,5.6,5.21,9.27,6.57,2.75,1,5.5,2,8.24,3.08a48.6,48.6,0,0,0,6.9,1.69c5.82,1.31,11.64,2.58,17.46,3.88,2,.45,1.94.46,2.16-1.58A42.25,42.25,0,0,0,135,90.6a10.06,10.06,0,0,0-1.35-2.81,95.45,95.45,0,0,0-8.73-11.87,29.06,29.06,0,0,0-8.8-6.8,29.56,29.56,0,0,1-3.3-2,18.63,18.63,0,0,0-4.68-2l-7.85-2.67a27.48,27.48,0,0,0-9.09-1.29c-3.89,0-7.77.21-11.63.58a71,71,0,0,0-10.92,2.21,59,59,0,0,0-11.89,4.18,11.06,11.06,0,0,0-2.6,1.77,48.93,48.93,0,0,1-5,3.54,26.16,26.16,0,0,0-7.23,7.9c-1.79,3-3.64,5.92-5.5,8.86a54,54,0,0,0-3.14,6.46A45.56,45.56,0,0,0,30.43,104c-.21.79-.7,1-1.44.58a3,3,0,0,1-1.8-3.42A43.61,43.61,0,0,1,28.45,95c.49-1.77.57-3.65,1-5.45.91-3.56,1.58-7.18,2.29-10.78.67-3.44,1-7,1.35-10.45C33.83,62.1,35,56,35.68,49.77q.31-2.85.37-5.71a5.23,5.23,0,0,0-3.92-5.66l-.47-.13a1.25,1.25,0,0,0-1.35.34c-.27.35.11.77.3,1.1a25.09,25.09,0,0,1,3,8.58,7.22,7.22,0,0,1,.07,2A120.31,120.31,0,0,1,32.07,63.2c-.21,1-.45,1.9-.68,2.85A7.43,7.43,0,0,1,31,68.28c-1.55,5.36-2.5,10.86-3.77,16.29-.44,1.86-.8,3.74-1.35,5.57a30,30,0,0,0-1.1,5.2,45.77,45.77,0,0,1-1.41,5.81,26.19,26.19,0,0,0-1,5.31,15.86,15.86,0,0,1-.65,3.13c-.87,3.47-1.51,7-2.44,10.45a7.39,7.39,0,0,0-.11,2.37,2.6,2.6,0,0,1-.59,2,2,2,0,0,0-.36,1.06,5.36,5.36,0,0,1-2.36,3.75,3.13,3.13,0,0,0-.78.91c-1.33,2-3.38,3.23-5.21,4.7-.63.51-1.31,1-1.92,1.49a2.93,2.93,0,0,1-3.55.4c-1-.83-.86-.85-.39-2a6.61,6.61,0,0,1,2.57-2.91c1.46-1.06,2.66-2.51,4.15-3.51,2-1.33,2.79-3.3,3.46-5.42.34-1.09.75-2.17,1-3.27a169.61,169.61,0,0,0,3.56-18.68A84.45,84.45,0,0,1,21,90.67a75.33,75.33,0,0,0,1.48-8.37c.74-4.72,2-9.32,2.7-14,.94-6.76,1.91-13.51,3-20.24a7.86,7.86,0,0,0-1.24-6c-.17-.25-.29-.53-.46-.78a4,4,0,0,1-.75-3.86c.77-1.93,1.63-3.78,3.82-4.47a2.74,2.74,0,0,1,.71-.15,21.93,21.93,0,0,1,6.7.85,3.31,3.31,0,0,1,2.16,2.13c.62,1.59,1.22,3.19,1.91,4.75a7.3,7.3,0,0,1,.27,5.54C39.54,51,38.9,56.16,38.13,61.32c-1,6.85-1.88,13.73-3.08,20.56-.17,1-.43,1.91-.63,2.87-.05.25-.17.6.14.73s.31-.24.42-.41c2.14-3.3,4.23-6.62,6.52-9.82A36,36,0,0,1,53.87,64.52,13.33,13.33,0,0,1,56,63.78c3.11-1.06,6.23-2.1,9.34-3.17a78,78,0,0,1,8.65-2c1-.22,2-.47,3-.66.67-.13.81-.39.53-1.06-1.63-3.83-3.17-7.69-4.64-11.59a11.1,11.1,0,0,1-.76-4.6,11.91,11.91,0,0,1,1.29-4.95c1.08-2,2.94-2.79,5.11-3.17a7,7,0,0,1,6.92,2.15c.86,1,1.82,1.82,2.8,2.78a5.55,5.55,0,0,0,.45-2A17.1,17.1,0,0,1,90,30.23c.59-1.55,2-1.94,3.37-2a15.79,15.79,0,0,1,7.13,1.12,10.37,10.37,0,0,1,2.94,2.35A21.84,21.84,0,0,1,107,35.58c.11.18.26.43.49.38s.31-.4.35-.66c.41-2.31.38-4.7,1-7,1.09-4.18,1.79-8.5,3.69-12.43.76-1.57,1.59-3.1,2.46-4.6a14.1,14.1,0,0,1,3.22-3.19,2.13,2.13,0,0,1,1.56-.35c3.22.16,5.1,1.93,6,5.19,2,6.81,2.32,13.78,2.72,20.76.27,4.77.67,9.52,0,14.26a71.66,71.66,0,0,1-1.25,8,30.1,30.1,0,0,1-2.59,6.26c-.85,1.61-1.79,3.17-2.72,4.73a.51.51,0,0,0,.15.77A67.74,67.74,0,0,1,136.84,85.2a26.57,26.57,0,0,1,3.66,15.58c-.13,2.24,0,4.49-.22,6.72-.09,1,.21,1.23,1.25,1.31l8.64.64c1,.07,2,.21,2.37,1.38a2.6,2.6,0,0,1-.79,3,12.54,12.54,0,0,0-1.9,2.32,6,6,0,0,1-1.66,1.75c-1.14.78-2.21,1.66-3.32,2.49a12.25,12.25,0,0,1-5.73,2.37c-1.23.17-1.24.25-1.3,1.5a16,16,0,0,1-2.29,7.76,16.66,16.66,0,0,0-1.25,4,24.9,24.9,0,0,1-1.39,4.18c-.09.17-.32.38-.11.58s.46,0,.66-.14c3.19-1.69,6.19-3.69,9.2-5.67s5.67-4,8.88-5.41c2.12-.93,4.26-1.78,6.44-2.53a1.25,1.25,0,0,1,.4-.09,29.94,29.94,0,0,1,8.67.78c3,.88,4.62,3,5.42,5.89a7,7,0,0,1-.24,5.12,3.94,3.94,0,0,1-2.35,2c-3.06,1.18-6.1.56-9.17,0-2-.37-4-.59-6.06-.92a3.35,3.35,0,0,0-2.73.73c-4.81,3.7-9.64,7.39-14.44,11.11a45,45,0,0,1-4.59,2.77c-3,1.8-5.64,4.19-8.7,5.84-5.29,2.87-10.36,6.11-15.65,9a3.68,3.68,0,0,1-1.22.45,13.54,13.54,0,0,0-5.35,2.28c-3.21,2-6.39,4.1-9.5,6.27a11.9,11.9,0,0,0-3.87,4.2,1.49,1.49,0,0,1-.81.77c-2.26.71-3.7,2.5-5.33,4-2.8,2.64-5.45,5.43-8.28,8a3.59,3.59,0,0,1-2.13.9c-1,.12-1.58-.82-1.4-2.26-.27-.41,0-.74.2-1a7.48,7.48,0,0,1,1.57-1.76c1.78-1.42,3.55-2.86,5.33-4.29a8.93,8.93,0,0,0,1.63-1.7A20.41,20.41,0,0,1,84,180.43a20.59,20.59,0,0,0,2.3-2.18,6.1,6.1,0,0,1,1.56-1.16,3.85,3.85,0,0,0,2.05-1.64,1,1,0,0,1,.64-.48,8,8,0,0,0,2.72-1.76,28.64,28.64,0,0,0,4.45-3.92A1.2,1.2,0,0,1,98,169c2.13-1.36,4.15-2.88,6.27-4.24a2.65,2.65,0,0,1,1.4-.39,8.41,8.41,0,0,0,3.58-1c3.52-1.76,7-3.66,10.55-5.32a1.92,1.92,0,0,0,.91-.79,2.33,2.33,0,0,1,2.09-1.2,5.43,5.43,0,0,0,2.49-.89,47.81,47.81,0,0,0,5.46-4c3.16-2.44,6.47-4.64,9.82-6.8a79.45,79.45,0,0,0,8.38-6,29.05,29.05,0,0,1,7.48-4.07,3,3,0,0,1,1.77-.08c3,.54,6.08,1.09,9.12,1.65,1.28.24,1.46,0,.95-1.18a5.84,5.84,0,0,0-4.46-3.77,15.16,15.16,0,0,0-9,1.19,6.74,6.74,0,0,0-1.77,1.28,29.46,29.46,0,0,1-4.81,3.46c-2.66,1.57-5.42,3-7.94,4.79-2.92,2.06-5.84,4.15-8.68,6.33a36.73,36.73,0,0,1-6.11,3.72,10.79,10.79,0,0,0-2.94,1.89,9.82,9.82,0,0,1-4.37,2.25c-1.28.38-2.59.64-3.89.91s-1.91,0-2.29-.78a2.1,2.1,0,0,1,.6-2.6,35.59,35.59,0,0,0,2.92-2.44,2.2,2.2,0,0,1,.87-.44,11.7,11.7,0,0,0,4.33-1.93c2-1.66,4.18-3.17,5.15-5.84.64-1.77,1.89-3.23,2.79-4.88a16.58,16.58,0,0,0,.94-2.34C130.54,133,131.61,130.65,132.52,128.2Z"/><path class="cls-3" d="M132.52,128.2a5.55,5.55,0,0,1-.7,2.48c-.86,2-1.62,4-2.37,6.1a20.84,20.84,0,0,1-2.69,4.74c-.62.87-.67,2-1.3,2.8a6.77,6.77,0,0,1-.63.94c-1.78,1.64-3.33,3.64-5.65,4.5-.81.3-1.5,1-2.54.91a2,2,0,0,0-1.52,1,5,5,0,0,1-1.85,1.54,2.15,2.15,0,0,0-1.18,1.84,1.33,1.33,0,0,0,1.59,1.57,32.07,32.07,0,0,0,7.06-1.92,1.32,1.32,0,0,0,.42-.24c2-2,4.68-3.09,7.1-4.5,2.72-1.58,5.1-3.65,7.68-5.43,2.77-1.92,5.51-3.88,8.43-5.6,3.17-1.86,6.55-3.5,9.16-6.24a6.52,6.52,0,0,1,3.34-1.6c2.92-.71,5.89-1.21,8.77.2a5.88,5.88,0,0,1,3.25,4.42c.1.55,0,.71-.63.6-3.26-.62-6.54-1.14-9.79-1.79a4.43,4.43,0,0,0-2.67.36,38.3,38.3,0,0,0-8.79,5.43A73.24,73.24,0,0,1,137,147a22.61,22.61,0,0,0-2.15,1.58c-2.22,1.54-4.35,3.2-6.45,4.9-1.19,1-2.55,1.62-3.79,2.5a2.85,2.85,0,0,1-1.49.33c-.92.08-1.78.23-2.15,1.27-.13.38-.54.52-.88.68-3.7,1.74-7.3,3.69-11,5.53a6.54,6.54,0,0,1-3.2.85,2.94,2.94,0,0,0-1.82.58,65.36,65.36,0,0,0-5.65,3.94c-1.6,1.39-3.14,2.87-4.81,4.18a8.43,8.43,0,0,1-2.92,1.85.9.9,0,0,0-.67.55c-.21.86-.94,1.06-1.58,1.38a6.6,6.6,0,0,0-2.2,1.63c-1.21,1.44-2.88,2.35-4.18,3.69a16.41,16.41,0,0,0-1.84,2c-1.77,2.58-4.49,4.11-6.77,6.13a10.6,10.6,0,0,0-2.29,2.27,3.58,3.58,0,0,0-.49,1c-.12.34-.4.41-.71.44a3.93,3.93,0,0,1-2.17-.25,62.62,62.62,0,0,0-7-2.44c-2.09-.71-4-1.79-6-2.65-1.18-.5-2.35-1.05-3.49-1.67a20.76,20.76,0,0,1-3.93-2.66,38.5,38.5,0,0,0-4.23-3.54c-1-.63-1.8-1.43-2.7-2.15-.17-.14-.33-.35-.52-.39-1.65-.27-2.67-1.57-3.93-2.47-1.63-1.16-3.35-2.18-4.95-3.39a17.56,17.56,0,0,1-3.2-3.06A8.53,8.53,0,0,1,26,167a7.89,7.89,0,0,1,3.23.82c1.91.73,3.86,1.35,5.73,2.23a41.71,41.71,0,0,1,5.9,3.54c1.68,1.16,3.37,2.33,5.17,3.33a54.17,54.17,0,0,1,5.77,3.29,9.61,9.61,0,0,0,4,1.5c1.15.2,2.3.41,3.45.67A19.88,19.88,0,0,0,69.31,182a38.42,38.42,0,0,0,11-5.42c1.71-1.19,3.53-2.22,5.21-3.46a53.36,53.36,0,0,0,8-7,84.12,84.12,0,0,1,11.56-10.95,65.41,65.41,0,0,0,8-6.9c1.15-1.19,2.31-2.37,3.34-3.66a14.51,14.51,0,0,1,3.59-3,37.49,37.49,0,0,0,7.27-5.57,23.68,23.68,0,0,0,3.45-4.8A19.49,19.49,0,0,1,132.52,128.2Z"/><path class="cls-4" d="M15.83,129.2c.33-.43.63-.88,1-1.28a4.93,4.93,0,0,0,1-1.79c.27-.83,0-1.85,1-2.45.23-.15.23-.6.18-.93a11.27,11.27,0,0,1,.44-4.28,109.14,109.14,0,0,0,2.54-11.32c.52-3.89,1.87-7.56,2.47-11.39.8-5.13,2.46-10,3.42-15.12.64-3.4,1.46-6.76,2.27-10.12.36-1.51.88-3,1.33-4.46.38.49.1,1,0,1.5-.37,3.09-1,6.13-1.56,9.19-.26,1.52-.06,3.11-.38,4.64q-1.55,7.52-3.05,15.06c-.49,2.48-.91,5-1.51,7.44-1.06,4.36-2,8.75-2.94,13.14a14.44,14.44,0,0,1-.54,1.62,5.06,5.06,0,0,0-.15,2.67,4,4,0,0,1-.07,2.18c-.51,1.39-.42,3-1.75,4.09A6.57,6.57,0,0,1,15.83,129.2Z"/><path class="cls-2" d="M91.35,73.9a2.86,2.86,0,0,1-3.75,1.74,3.57,3.57,0,0,1-1.69-4.25,3,3,0,0,1,3.94-1.53A2.75,2.75,0,0,1,91.35,73.9Z"/><path class="cls-2" d="M122.62,89.39c.58-1.11,1.34-2,2.74-1.92A1.67,1.67,0,0,1,127,88.67c.22.68.47,1.35.67,2a1.5,1.5,0,0,1-1.11,2.08,10,10,0,0,1-3,.43,1.38,1.38,0,0,1-1.46-1.35A7.72,7.72,0,0,1,122.62,89.39Z"/><path class="cls-5" d="M122.1,13.79a2.58,2.58,0,0,1,.91,1.6c2.19,7.71,2.6,15.62,2.85,23.54a56.67,56.67,0,0,1-1.3,15.13c-.86,3.58-2.12,6.94-4.83,9.54-.46.44-.59,1.35-1.28,1.33a4.35,4.35,0,0,1-1.7-.78A25.18,25.18,0,0,0,112.41,62a.9.9,0,0,1-.66-1.1c1.39-7.71.23-15.5.5-23.25,0-.24,0-.48.07-.72a22.29,22.29,0,0,1,1.88-6.14c.71-1.77,1.58-3.47,2.32-5.22,1.21-2.88,2.17-5.87,3.54-8.69.41-.83.87-1.63,1.33-2.43A1.15,1.15,0,0,1,122.1,13.79Z"/><path class="cls-6" d="M103.79,104c2.11.68,4.22,1.33,6.32,2,5.67,1.92,11.26,4.16,17.31,4.41,4.51.19,9,1,13.45,1.43a54.66,54.66,0,0,1,6.08,1.25,2.86,2.86,0,0,1,.51.23,10.61,10.61,0,0,1-4.18,3.84,21.88,21.88,0,0,1-8.76,2.19c-4.31.32-8.27-1.09-12.35-2-3.3-.73-6.56-1.64-9.83-2.49a16,16,0,0,1-3.44-1.34c-3.62-1.9-7.31-3.68-10.82-5.78a39,39,0,0,1-5.11-4.26c-.7-.6-1.36-1.27-2-1.9a.93.93,0,0,1,1,.12c2.47,1.36,5.21,1.94,7.84,2.86a3.46,3.46,0,0,0,3.21-.3A2.78,2.78,0,0,1,103.79,104Z"/><path class="cls-7" d="M98.3,33.59A13.7,13.7,0,0,1,104,38.07a14.8,14.8,0,0,1,2.24,6.74,13,13,0,0,1,.11,3.36c-.41,3.13,0,6.27-.21,9.41-.11,2-.08,2-2.05,1.42a34.52,34.52,0,0,0-6.39-1.32c-.24,0-.49,0-.73-.08-1.76-.29-1.72-.4-1.73-2.2a37.08,37.08,0,0,0-1-7.64l-.61-2.81c.24-2.58,1.4-4.84,2.43-7.14.5-1.12,1-2.24,1.51-3.34C97.69,34.1,97.83,33.7,98.3,33.59Z"/><path class="cls-7" d="M83.59,39.16a16.3,16.3,0,0,1,4.57,6.63,38.33,38.33,0,0,1,2.66,10.66c0,.33,0,.52-.4.47-2.49-.3-4.93.18-7.38.39a1.59,1.59,0,0,1-1.79-.93C80.53,55,79.74,53.64,79,52.27c-.19-2.17-.67-4.36,0-6.49a13.85,13.85,0,0,1,3.54-6A1.53,1.53,0,0,1,83.59,39.16Z"/><path class="cls-1" d="M122.1,13.79a61.86,61.86,0,0,0-4.44,9.7c-1,2.63-2.27,5.18-3.33,7.8-.74,1.84-1.35,3.74-2,5.61a55,55,0,0,1,.39-6.66,75,75,0,0,1,2.14-12.11,15.66,15.66,0,0,1,2.68-4.72,3.74,3.74,0,0,0,.32-.46,1.64,1.64,0,0,1,2.2-.81A3.25,3.25,0,0,1,122.1,13.79Z"/><path class="cls-1" d="M103.79,104a3.53,3.53,0,0,1-3.88,1c-3-1-6.15-1.75-9-3.32a14,14,0,0,1-1.15-1,2,2,0,0,0-1.94-.67,8.31,8.31,0,0,0-3.12.32.64.64,0,0,1-.69-.08,4.49,4.49,0,0,1,3.13-1.67,5.36,5.36,0,0,0,2.07-.66,2.6,2.6,0,0,1,2.94.2A46.3,46.3,0,0,0,103,103.66C103.29,103.75,103.54,103.89,103.79,104Z"/><path class="cls-1" d="M83.59,39.16A14,14,0,0,0,79,46.94a12.49,12.49,0,0,0,.1,2.79c0,.85,0,1.7-.08,2.55a14.09,14.09,0,0,1-1.71-5.2c-.23-1.15-.45-2.3-.77-3.44a4.07,4.07,0,0,1,.2-2.79c.37-.84.72-1.7,1.09-2.55a2.12,2.12,0,0,1,3.32-1A16.26,16.26,0,0,1,83.59,39.16Z"/><path class="cls-1" d="M98.3,33.59c-1.38,3-2.83,5.91-3.93,9-.28.78-.23,1.67-.79,2.35-.39-2.23-.93-4.44-1.13-6.71A14.91,14.91,0,0,1,92.63,34c.36-1.81.64-1.73,2.35-1.55A9.72,9.72,0,0,1,98.3,33.59Z"/><path class="cls-6" d="M84,100.2a10.42,10.42,0,0,1,2.83-.54,2.06,2.06,0,0,1,1,.31c-.53.28-1.06.54-1.58.83-2.48,1.38-3.39,3.67-3.54,6.38a2.4,2.4,0,0,0,.86,1.81q2,2,4,4.05c.18.19.45.32.48.65a1.46,1.46,0,0,1-1.1,0,8.46,8.46,0,0,1-5.18-6.08,12,12,0,0,0-.45-1.67,3.82,3.82,0,0,1,1.09-4.37C82.9,101.06,83.46,100.63,84,100.2Z"/></svg>