<svg id="圖層_1" data-name="圖層 1" xmlns="http://www.w3.org/2000/svg" viewBox="0 0 197.82 186.02"><defs><style>.cls-1{fill:#070304;}.cls-1,.cls-2,.cls-3,.cls-4,.cls-5{fill-rule:evenodd;}.cls-2{fill:#ddb839;}.cls-3{fill:#c03224;}.cls-4{fill:#d5b287;}.cls-5{fill:#fefefe;}</style></defs><title>graphic</title><path class="cls-1" d="M124.24,102.52c6.17.12,11.57-1.43,16.91-3.32a18.31,18.31,0,0,1,4.5-1.1,2.69,2.69,0,0,1,3.16,3.33c-.8,5.47-3.83,9.44-8.38,12.31a20.94,20.94,0,0,1-15.59,2.7c-1.87-.35-3.76-.6-5.63-.95-.59-.11-.76.09-.63.61a5.86,5.86,0,0,0,.75,2c4.09,6,6.26,12.73,7.55,19.79.4,2.18.69,4.39,1.09,6.57a6,6,0,0,1-3.22,6.68c-5.54,2.94-6.39,6.78-5.92,12.24.24,2.84,0,5.7-1.91,8-2.91,3.56-10,3.22-12.27-2.58a32.5,32.5,0,0,1-1.4-6.75c-.15-1-.39-1.16-1.43-1.07-4.15.36-8.3.74-12.43,1.31-2.25.31-2.15-.13-3,2.45-1.08,3.2-1.86,6.51-3.48,9.51a7.34,7.34,0,0,1-6.73,3.51c-2.07-.26-4.3-3-4.75-5.58a24.35,24.35,0,0,1,.18-7.36,3.31,3.31,0,0,0-1.37-3.58C68,159.64,66,157.84,64,156.05s-2.5-4.45-1.32-7.47c1.84-4.7,3.44-9.49,5-14.28.87-2.6,1.71-5.21,2.55-7.82.09-.29.37-.62.12-.89s-.66,0-1,.12c-3.69,1.15-7.16,2.85-10.74,4.29a14.55,14.55,0,0,1-8.88.93,9.94,9.94,0,0,1-7.54-9.2,1.92,1.92,0,0,1,1.06-1.83,13.55,13.55,0,0,1,5.32-1.62,36.94,36.94,0,0,0,19.52-8.76,29.3,29.3,0,0,0,5-5.4c.44-.64.5-1-.11-1.6-1.87-1.73-3.69-3.51-5.5-5.31-.48-.48-.74-.45-1,.15s-.69,1.17-1,1.78c-1.54,3.43-4.32,5.19-7.87,5.92a27.76,27.76,0,0,1-2.94.46,5.61,5.61,0,0,1-5.86-3.25,33.94,33.94,0,0,1-1.77-3.65c-.33-.86-.68-1.07-1.57-.76a13.38,13.38,0,0,1-7.63.51,10.34,10.34,0,0,1-7.77-9.75c-.1-2.91,1.37-5.35,3.24-7.5,1.12-1.29,2.3-2.54,3.52-3.73a1.28,1.28,0,0,0,.3-1.77,15.94,15.94,0,0,1-1.89-5.86,13.1,13.1,0,0,1,2.35-8.57,25.62,25.62,0,0,1,5.71-6.69c3.48-2.65,7.47-2.6,11.53-1.89A31.68,31.68,0,0,1,60.18,54c.65.24.9,0,1.22-.49a115.11,115.11,0,0,1,7.12-11C74.54,34.76,82,29,91.63,26.71c8.58-2,16.45.15,23.44,5.5,3.06,2.34,5,5.53,6.61,8.94.69,1.44.73,1.39,2.1.64,3-1.61,6-3,9.47-2.89,4.52.1,9.5,3.66,10.66,7.72a12,12,0,0,1-.16,6.11,28.08,28.08,0,0,1-1.44,4.54c-.33.78-.19,1.1.69,1.23,4.45.69,7.19,4,7.36,8.48a12.32,12.32,0,0,1-3.09,8.77,3.92,3.92,0,0,0-.87,3.66,10.81,10.81,0,0,1-1.87,9.47c-2.19,2.91-5.1,3.57-8.45,3.22a15.54,15.54,0,0,1-7.23-2.89c-1.41-1-2.88-1.86-4.29-2.82-.6-.41-.9-.41-1.25.31-2.23,4.67-4.48,9.33-6.78,14-.4.8-.06.94.56,1.07A25.86,25.86,0,0,0,124.24,102.52ZM50.6,92c.1.62.19,1.2.28,1.78a32.73,32.73,0,0,0,.91,5c.69,2.18,1.83,3,4.08,2.77a8.49,8.49,0,0,0,5-2.38c2.63-2.35,4.54-5.1,3.82-8.87A47.18,47.18,0,0,1,64.23,74,38.74,38.74,0,0,1,70.82,57.9c.6-.87,1.39-.78,1.88.18.13.25.24.5.36.75,4.17,9,16.21,13.38,25.06,8.84a33.48,33.48,0,0,0,14.6-14c.6-1.11,1.5-1.46,2.41-.82a15.76,15.76,0,0,1,4.11,3.77A27.94,27.94,0,0,1,124,79.27a2.76,2.76,0,0,0,1.62,3.45q3.4,1.85,6.83,3.64a10.47,10.47,0,0,0,5.51,1.28c2.28-.14,3.31-1,3.78-3.23.15-.74.13-1.52.34-2.23.3-1-.17-1.37-1-1.6-2.22-.6-4.46-1.15-6.73-1.54-.41-.07-.93,0-1.15-.49-.86-1.67.7-4.37,2.6-4.54a11.07,11.07,0,0,1,3.3.36c3.7.79,6.57-1,7.53-4.6a9.25,9.25,0,0,0,.31-2,4.63,4.63,0,0,0-4.49-5,10.22,10.22,0,0,0-1.91,0,37,37,0,0,0-8,1.87c-.33.11-.71.39-1.06-.08a.94.94,0,0,1,0-1.18,23,23,0,0,1,4.47-6A24.46,24.46,0,0,0,139.84,53a5.75,5.75,0,0,0,.2-6.72c-2.61-4.07-9-5.16-12.72-2.15-1.52,1.23-3.18,2.25-4.78,3.36-.58.4-.83.31-1.19-.24-1.54-2.37-3.13-4.7-4.7-7C112.42,34,106.36,31,98.94,30.54c-5.21-.31-10,1.3-14.44,3.8-5.94,3.31-10.62,8.07-14.84,13.31a23.3,23.3,0,0,0-5,10.4c-.34,1.84-.46,3.73-.69,5.72-.7-.58-1.28-1.05-1.85-1.54-2.36-2-4.6-4.13-7.81-4.85s-6.32-1-9.17,1a18.13,18.13,0,0,0-6.48,8.52,5.65,5.65,0,0,0,3.92,7.49,8.64,8.64,0,0,0,3.43.25,3.79,3.79,0,0,1,2.21.32,2.4,2.4,0,0,1,1.28,2.47c0,1-.8.92-1.37,1.16a11.68,11.68,0,0,1-3.45.9c-4.23.37-7.11,2.82-9.25,6.21a5.64,5.64,0,0,0,.07,6.52c1.44,2.1,3.57,2.67,6,2.2C44.54,93.83,47.51,92.84,50.6,92Zm30.83,66a190.78,190.78,0,0,0,20.06-1.32,39.23,39.23,0,0,0,15.79-5.06,26.24,26.24,0,0,0,4.5-3.34c2.13-2,2.11-4.46,1.55-7.17A70.54,70.54,0,0,0,109,110.28a4.56,4.56,0,0,0-3.95-1.79c-1.23,0-2.46.12-3.7.16q-9.61.29-19.21.55a1.17,1.17,0,0,0-1.28.92c-3.16,9.18-6.39,18.33-9.54,27.5-1.35,3.95-2.95,7.82-4,11.88-1,3.83.83,6.57,4.68,7.49A35.49,35.49,0,0,0,81.43,158ZM71.65,63.58a60.25,60.25,0,0,0-4.46,17.1c-.71,6.73,1.33,12.48,6.64,16.89,1.53,1.27,3.09,2.51,4.65,3.75a17.8,17.8,0,0,0,12,4.06c3.14-.1,6.29,0,9.44,0a11.4,11.4,0,0,0,5.61-1.35A24.47,24.47,0,0,0,116.8,91.61a45.65,45.65,0,0,0,3.34-21.22A25.7,25.7,0,0,0,115.94,58c-.59-.89-.91-.78-1.48,0-1.23,1.66-2.56,3.25-3.82,4.9-2.78,3.65-6,6.63-10.61,7.89a15.46,15.46,0,0,0-2.62,1.12c-6.32,3.12-12.5,2.69-18.53-.78A19.63,19.63,0,0,1,71.65,63.58Zm40.21,42.27a10.91,10.91,0,0,0,10.07,6.63c3,.13,6,0,9,0a13.13,13.13,0,0,0,10.32-4.61c1.45-1.68,3.93-2,2.85-5.17C143.59,102.81,130.79,108.86,111.86,105.86ZM46.23,123.49a15.16,15.16,0,0,0,3.47,2.84,6.26,6.26,0,0,0,5.72.51c3.28-1.29,6.56-2.59,9.82-3.93a19,19,0,0,0,8.38-6.29,14.71,14.71,0,0,0,3-10.9c-.28.38-.44.57-.58.79a31.17,31.17,0,0,1-3.19,4.31c-4.12,4.61-9.38,7.38-15.12,9.38C54,121.5,50.19,122.44,46.23,123.49Zm69,37.78a17.28,17.28,0,0,0-.31-3.18c-.11-.51-.3-.71-.79-.57a27.88,27.88,0,0,0-5.7,2,3.7,3.7,0,0,0-2,2.77c-.49,3,2.28,6.82,5.31,7.11a2,2,0,0,0,2.2-1.27A19,19,0,0,0,115.26,161.26ZM75,169.59a5.06,5.06,0,0,0,.46,2.2c.31.82.56,1.74,1.7,1.68s2.3-.25,2.87-1.51c1.24-2.71,2.07-5.56,3.08-8.35.13-.36.15-.69-.36-.77a23.31,23.31,0,0,0-4.49-.53,2.42,2.42,0,0,0-2.52,2.1A52.17,52.17,0,0,0,75,169.59Z"/><path class="cls-2" d="M50.6,92c-3.09.85-6.06,1.84-9.13,2.44-2.43.47-4.56-.1-6-2.2a5.64,5.64,0,0,1-.07-6.52c2.14-3.39,5-5.84,9.25-6.21a11.68,11.68,0,0,0,3.45-.9c.57-.23,1.39-.12,1.37-1.16A2.4,2.4,0,0,0,48.18,75,3.79,3.79,0,0,0,46,74.65a8.64,8.64,0,0,1-3.43-.25,5.65,5.65,0,0,1-3.92-7.49A18.13,18.13,0,0,1,45.1,58.4c2.85-2,6-1.72,9.17-1s5.45,2.84,7.81,4.85c.57.49,1.15,1,1.85,1.54.23-2,.35-3.88.69-5.72a23.3,23.3,0,0,1,5-10.4c4.22-5.24,8.89-10,14.84-13.31,4.48-2.5,9.23-4.11,14.44-3.8,7.41.44,13.47,3.43,17.7,9.71,1.58,2.34,3.16,4.68,4.7,7,.36.55.62.65,1.19.24,1.6-1.11,3.26-2.13,4.78-3.36,3.73-3,10.11-1.92,12.72,2.15a5.75,5.75,0,0,1-.2,6.72A24.46,24.46,0,0,1,136,57.39a23,23,0,0,0-4.47,6,.94.94,0,0,0,0,1.18c.36.48.73.19,1.06.08a37,37,0,0,1,8-1.87,10.22,10.22,0,0,1,1.91,0,4.63,4.63,0,0,1,4.49,5,9.25,9.25,0,0,1-.31,2c-1,3.65-3.84,5.39-7.53,4.6a11.07,11.07,0,0,0-3.3-.36c-1.91.17-3.47,2.87-2.6,4.54.23.44.74.42,1.15.49,2.27.39,4.5.94,6.73,1.54.85.23,1.32.59,1,1.6-.21.72-.19,1.5-.34,2.23-.47,2.24-1.5,3.09-3.78,3.23a10.47,10.47,0,0,1-5.51-1.28q-3.43-1.79-6.83-3.64A2.76,2.76,0,0,1,124,79.27a27.94,27.94,0,0,0-4.72-22.65,15.76,15.76,0,0,0-4.11-3.77c-.92-.64-1.81-.29-2.41.82a33.48,33.48,0,0,1-14.6,14c-8.85,4.54-20.89.2-25.06-8.84-.12-.25-.23-.5-.36-.75-.49-1-1.28-1.06-1.88-.18A38.74,38.74,0,0,0,64.23,74a47.18,47.18,0,0,0,.43,16.37c.72,3.77-1.19,6.52-3.82,8.87a8.49,8.49,0,0,1-5,2.38c-2.25.19-3.39-.59-4.08-2.77a32.73,32.73,0,0,1-.91-5C50.79,93.19,50.69,92.61,50.6,92ZM85.33,54a9.83,9.83,0,0,0-.16-2.24c-.1-.34-.1-.72-.55-.82s-.67.17-.9.45a14,14,0,0,0-2.29,3.74,7.33,7.33,0,0,0-.18,5.45,1.39,1.39,0,0,0,.92,1c.6.13.84-.36,1.1-.74A12.14,12.14,0,0,0,85.33,54ZM93,53.8a7.23,7.23,0,0,0-.61-3.36c-.17-.38-.31-.78-.89-.81s-.83.29-1.07.74A11.35,11.35,0,0,0,89.22,56a7.84,7.84,0,0,0,.53,3,1.3,1.3,0,0,0,.89.88c.49.09.65-.38.86-.7A9,9,0,0,0,93,53.8Zm9.06,2.47c0-.8,0-1.72-.13-2.63-.12-1.26-1.26-2.81-1.93-2.72s-1.58,1.87-1.29,3.16c.43,1.93.94,3.85,1.42,5.77.12.48.38,1,.91.92a1.11,1.11,0,0,0,.82-1.17C101.9,58.52,102,57.45,102.06,56.27Z"/><path class="cls-3" d="M81.43,158A35.49,35.49,0,0,1,72,157c-3.85-.92-5.64-3.66-4.68-7.49,1-4.05,2.61-7.93,4-11.88,3.15-9.18,6.38-18.33,9.54-27.5a1.17,1.17,0,0,1,1.28-.92q9.61-.25,19.21-.55c1.23,0,2.46-.12,3.7-.16a4.56,4.56,0,0,1,3.95,1.79,70.54,70.54,0,0,1,14.35,30.86c.56,2.7.58,5.15-1.55,7.17a26.24,26.24,0,0,1-4.5,3.34,39.23,39.23,0,0,1-15.79,5.06A190.78,190.78,0,0,1,81.43,158Zm-.23-25.09c0,.65,0,1.09,0,1.53a12.63,12.63,0,0,0,9.8,12.4c4,.95,8.07,1.07,11.81-1.14,4.48-2.64,8.2-10.61,7.37-15.74a2.2,2.2,0,0,0-1.51-2,14.32,14.32,0,0,0-5.75-.82,40.75,40.75,0,0,1-6.78-.22c-3.61-.18-7.21-.72-10.84-.6a3.62,3.62,0,0,0-3.86,3.32A15.62,15.62,0,0,0,81.2,132.93Z"/><path class="cls-4" d="M71.65,63.58a19.63,19.63,0,0,0,7.23,7.55c6,3.47,12.21,3.89,18.53.78A15.46,15.46,0,0,1,100,70.79c4.57-1.26,7.83-4.24,10.61-7.89,1.25-1.65,2.58-3.24,3.82-4.9.57-.77.89-.88,1.48,0a25.7,25.7,0,0,1,4.21,12.38,45.65,45.65,0,0,1-3.34,21.22A24.47,24.47,0,0,1,105.57,104a11.4,11.4,0,0,1-5.61,1.35c-3.15,0-6.3-.08-9.44,0a17.8,17.8,0,0,1-12-4.06c-1.56-1.24-3.11-2.48-4.65-3.75-5.31-4.41-7.36-10.16-6.64-16.89A60.25,60.25,0,0,1,71.65,63.58Zm27,27.91c0-2.57-.55-4-1.74-4.71a1.37,1.37,0,0,0-1.57-.11,1.41,1.41,0,0,0-.59,1.56c.2.85.43,1.69.68,2.52.63,2.08-.21,3.19-2.33,3.14-1.53,0-2-.45-2.35-2a10.42,10.42,0,0,0-.75-3c-.56-1-1.29-.85-2.13-.57a1.29,1.29,0,0,0-.88,1.7,31,31,0,0,0,1.23,4.47,3.67,3.67,0,0,0,4.37,2.62c.79-.09,1.57-.23,2.36-.32a3.6,3.6,0,0,0,3-2.35A8.71,8.71,0,0,0,98.64,91.49Zm4.5-16a3.22,3.22,0,0,0,0,6.44,3.22,3.22,0,0,0,0-6.44ZM81.21,80.41a3.14,3.14,0,0,0,3.16,3.19,3.19,3.19,0,0,0,3.15-3.2A3.38,3.38,0,0,0,84,77.11C82.67,77.07,81.2,78.8,81.21,80.41Z"/><path class="cls-4" d="M111.86,105.86c18.09,2.71,29.62-3.55,32.2-3.15,1.49,2.11-.36,3.77-2,5.2-2.71,3.15-7,4.54-11.14,4.58-3,0-6,.14-9,0A10.91,10.91,0,0,1,111.86,105.86Z"/><path class="cls-4" d="M46.23,123.49c4-1,7.76-2,11.45-3.28,5.74-2,11-4.77,15.12-9.38A31.17,31.17,0,0,0,76,106.52c.14-.22.3-.41.58-.79a14.71,14.71,0,0,1-3,10.9,19,19,0,0,1-8.38,6.29c-3.26,1.34-6.54,2.64-9.82,3.93a6.26,6.26,0,0,1-5.72-.51A15.16,15.16,0,0,1,46.23,123.49Z"/><path class="cls-4" d="M115.26,161.26a19,19,0,0,1-1.32,6.83,2,2,0,0,1-2.2,1.27c-3-.29-5.8-4.1-5.31-7.11a3.7,3.7,0,0,1,2-2.77,27.88,27.88,0,0,1,5.7-2c.49-.14.68.06.79.57A17.28,17.28,0,0,1,115.26,161.26Z"/><path class="cls-4" d="M75,169.59a52.17,52.17,0,0,1,.75-5.17,2.42,2.42,0,0,1,2.52-2.1,23.31,23.31,0,0,1,4.49.53c.51.08.49.41.36.77-1,2.79-1.84,5.65-3.08,8.35-.58,1.26-1.7,1.45-2.87,1.51s-1.39-.86-1.7-1.68A5.06,5.06,0,0,1,75,169.59Z"/><path class="cls-1" d="M85.33,54a12.14,12.14,0,0,1-2.07,6.85c-.26.37-.51.87-1.1.74a1.39,1.39,0,0,1-.92-1,7.33,7.33,0,0,1,.18-5.45,14,14,0,0,1,2.29-3.74c.23-.28.47-.54.9-.45s.46.48.55.82A9.83,9.83,0,0,1,85.33,54Z"/><path class="cls-1" d="M93,53.8a9,9,0,0,1-1.49,5.4c-.21.32-.37.79-.86.7a1.3,1.3,0,0,1-.89-.88,7.84,7.84,0,0,1-.53-3,11.35,11.35,0,0,1,1.2-5.62c.24-.45.46-.77,1.07-.74s.72.43.89.81A7.23,7.23,0,0,1,93,53.8Z"/><path class="cls-1" d="M102.06,56.27c-.07,1.18-.15,2.25-.2,3.32a1.11,1.11,0,0,1-.82,1.17c-.54.09-.79-.43-.91-.92-.48-1.92-1-3.83-1.42-5.77-.28-1.29.5-3.06,1.29-3.16s1.81,1.46,1.93,2.72C102,54.55,102,55.47,102.06,56.27Z"/><path class="cls-1" d="M81.2,132.93a15.62,15.62,0,0,1,.25-3.23,3.62,3.62,0,0,1,3.86-3.32c3.63-.11,7.23.42,10.84.6a40.75,40.75,0,0,0,6.78.22,14.32,14.32,0,0,1,5.75.82,2.2,2.2,0,0,1,1.51,2c.82,5.13-2.89,13.09-7.37,15.74-3.75,2.21-7.78,2.08-11.81,1.14a12.63,12.63,0,0,1-9.8-12.4C81.2,134,81.2,133.59,81.2,132.93ZM87.7,131v-.06c-.63,0-1.27,0-1.91,0-.41,0-.65,0-.74.51-.79,4.07,0,8.28,4,10.64a11.78,11.78,0,0,0,10.1,1.12c4.17-1.42,7.18-5.76,7.19-10.81,0-.66-.39-.67-.85-.69Z"/><path class="cls-1" d="M98.64,91.49a8.71,8.71,0,0,1-.66,3,3.6,3.6,0,0,1-3,2.35c-.79.09-1.57.22-2.36.32a3.67,3.67,0,0,1-4.37-2.62A31,31,0,0,1,87,90.06a1.29,1.29,0,0,1,.88-1.7c.83-.28,1.57-.45,2.13.57a10.42,10.42,0,0,1,.75,3c.33,1.52.82,1.94,2.35,2,2.12,0,3-1.05,2.33-3.14-.25-.84-.49-1.67-.68-2.52a1.41,1.41,0,0,1,.59-1.56,1.37,1.37,0,0,1,1.57.11C98.09,87.53,98.64,88.93,98.64,91.49Z"/><path class="cls-1" d="M103.14,75.47a3.22,3.22,0,0,1,0,6.44,3.22,3.22,0,0,1,0-6.44Z"/><path class="cls-1" d="M81.21,80.41c0-1.6,1.46-3.34,2.79-3.3a3.38,3.38,0,0,1,3.51,3.3,3.19,3.19,0,0,1-3.15,3.2A3.14,3.14,0,0,1,81.21,80.41Z"/><path class="cls-5" d="M87.7,131l17.77.7c.46,0,.85,0,.85.69,0,5-3,9.39-7.19,10.81A11.78,11.78,0,0,1,89,142.06c-4-2.37-4.76-6.57-4-10.64.1-.5.33-.53.74-.51.63,0,1.27,0,1.91,0Z"/></svg>