<svg id="圖層_1" data-name="圖層 1" xmlns="http://www.w3.org/2000/svg" viewBox="0 0 197.82 186.02"><defs><style>.cls-1,.cls-6{fill:#070304;}.cls-1{stroke:#090405;stroke-miterlimit:10;stroke-width:3px;}.cls-1,.cls-2,.cls-3,.cls-4,.cls-5,.cls-6{fill-rule:evenodd;}.cls-2{fill:#d2af85;}.cls-3{fill:#ddb839;}.cls-4{fill:#fff;}.cls-5{fill:#b3c6d9;}</style></defs><title>graphic</title><path class="cls-1" d="M52.94,99.58A6.81,6.81,0,0,0,56,99c.71-.21.9-.48.57-1.26a47.59,47.59,0,0,1-2.79-8.87c-1.59-7.64-1.27-15.06,2.32-22.09A35.75,35.75,0,0,1,66.69,54.58L69,52.84c.31-.24.57-.58.38-1a11,11,0,0,1-.78-4,29.78,29.78,0,0,1,.72-10.23A16,16,0,0,1,77.18,28a48.48,48.48,0,0,1,21.51-5.57A55.85,55.85,0,0,1,121,27q5.16,2.15,10.24,4.49a11.16,11.16,0,0,1,6.05,5.92,13.21,13.21,0,0,1,.35,8.05,29.32,29.32,0,0,0-1,5.61,9.56,9.56,0,0,0,2.5,7c5.21,5.5,7.8,12.31,9.38,19.71,1,4.87.09,9.4-1.62,13.87-1.77,4.66-4.54,8.71-7.25,12.78-1,1.54-2,3.12-3.06,4.63-.38.55-.21.82.21,1.16,4,3.14,7.83,6.46,12.23,9a10.86,10.86,0,0,1,1.9,1.46,4.91,4.91,0,0,1,1.24,5.73,16.23,16.23,0,0,1-3.08,5.48,4.83,4.83,0,0,1-6.28,1.27,16.49,16.49,0,0,1-3.13-2.12c-.56-.44-.76-.26-1,.29-.39,1-.75,1.95-1.19,2.89-1.08,2.3-2.54,2.9-4.87,2.12a37.53,37.53,0,0,1-6.71-3.4c-1.19-.69-1.22-.71-2.07.41-.61.79-1.2,1.6-1.83,2.38-.31.39-.36.66,0,1a14.09,14.09,0,0,0,1.7,1.58,4,4,0,0,1,1.89,4.47,4.46,4.46,0,0,1-4.06,3.4,12.79,12.79,0,0,1-4.71-.92,1.42,1.42,0,0,0-1.84.64,41.05,41.05,0,0,1-3,3.38,5.07,5.07,0,0,0-1.51,4.12c.13,1.59.2,3.17.31,4.76.2,2.92.48,5.83.58,8.76a5.28,5.28,0,0,1-3.5,5.35,4.14,4.14,0,0,1-4.53-1.39,17.44,17.44,0,0,1-3.44-9.39c-.23-2.22-.06-4.45-.27-6.68a16.61,16.61,0,0,1,.13-2.57c0-.39,0-.66-.5-.71-2.81-.24-5.61-.53-8.42-.76-1.43-.11-1.43-.06-1.87,1.38-1.09,3.64-1.94,7.37-3.28,10.92a9.06,9.06,0,0,1-8.43,5.88,7.35,7.35,0,0,1-1.7-.28c-2-.49-2.52-2-2.16-4.44A17,17,0,0,1,75,160c1.08-2.49,2.22-5,3.27-7.47.75-1.8.37-2.63-1.45-3.19a5,5,0,0,1-2.51-1.79c-.31-.39-.61-.8-.89-1.21-1.37-1.93-1.36-1.93-3.51-1.37s-3.41,0-4.41-2.1a4.31,4.31,0,0,1,.95-5.2c.09-.08.2-.15.29-.23,1.36-1.12,1.36-1.12,0-2.37-1-1-2.09-1.94-3.11-2.94s-.89-.89-1.79,0A12.07,12.07,0,0,1,58,135a2.52,2.52,0,0,1-2.68-.31,6.48,6.48,0,0,1-2.65-4.78c-.13-2.32-.5-3.41-3-1.81a28.79,28.79,0,0,1-6,3.09c-2.31.79-4.41.64-6.11-1.48a6.39,6.39,0,0,1-.88-7c1.13-2.21,2.41-4.35,3.65-6.5,2.48-4.31,5-8.61,7.47-12.91a13.18,13.18,0,0,1,1.49-2.16A4.18,4.18,0,0,1,52.94,99.58Zm49.6,15.54a19.23,19.23,0,0,0,5.64-.9c4.7-1.17,9.36-2.54,14.09-3.59a26.47,26.47,0,0,0,14.15-7.9,38.79,38.79,0,0,0,8.21-13.84,19.84,19.84,0,0,0,.7-10.43,44.79,44.79,0,0,0-10.77-21.39c-.47-.53-.76-.6-1.33-.16a31.38,31.38,0,0,1-6.37,4.21,41.85,41.85,0,0,1-14.61,3.48A64.75,64.75,0,0,1,89,62.21a89.5,89.5,0,0,1-13.82-5.45,5.3,5.3,0,0,0-5-.19,23.82,23.82,0,0,0-12,14c-1.8,5.09-2.68,10.3-1.38,15.69q4.38,18.06,20.13,26.65a6.19,6.19,0,0,0,2.58.83c3.27.21,6.54.44,9.8.63C93.69,114.66,98.11,114.88,102.53,115.12Zm31.39-71c0-.8,0-1.59,0-2.39a7.54,7.54,0,0,0-3.13-6.07A49.11,49.11,0,0,0,114.07,28a89,89,0,0,0-12.84-2.07,29.2,29.2,0,0,0-9.87.44A65,65,0,0,0,77.7,31.71,10.51,10.51,0,0,0,73,36.62a21.37,21.37,0,0,0-1.84,6.84c-.55,4.11.81,7.37,4.24,9.46a58.15,58.15,0,0,0,31.61,9,58.9,58.9,0,0,0,14.92-2.13,17,17,0,0,0,8.41-4.66C133.16,52,134,48.23,133.93,44.12ZM94.46,118.55c-4.47,0-8.93,0-13.4,0-.73,0-1,.12-1.11,1-.64,5.21-1.38,10.4-2.06,15.6-.31,2.33-.61,4.67-.81,7a2.89,2.89,0,0,0,2.18,3.07,61.37,61.37,0,0,0,13,2.12,95.12,95.12,0,0,0,15.63-.3c3-.32,4.07-1.58,4-4.75a90.87,90.87,0,0,0-.81-9.79c-.61-4.37-1.41-8.72-2.07-13.08-.1-.69-.3-.87-1-.87C103.51,118.56,99,118.55,94.46,118.55Zm-55.1,7.15a1.44,1.44,0,0,0,.25,1.09,4.1,4.1,0,0,0,4.38.66c1.94-1.18,3.77-2.54,5.6-3.9,1-.75,2-1.52,3.08-2.2,1.3-.85,2.58-.16,2.72,1.43.08.86.14,1.71.15,2.57a27.63,27.63,0,0,0,.35,5c.3,1.56,1.48,1.92,2.61.84a9.59,9.59,0,0,0,1.4-1.76A158.25,158.25,0,0,1,70,116.08c1.69-2.08,1.64-2.94-.52-4.51a49.07,49.07,0,0,1-8.17-7.13,7.92,7.92,0,0,0-4.86-2.56,1.81,1.81,0,0,0-1.15,0c-1,.43-2,.79-3,1.15a5.25,5.25,0,0,0-2.87,2.46c-3.46,5.86-6.46,12-9.58,18.05A7,7,0,0,0,39.36,125.7Zm109.74.62A3.49,3.49,0,0,0,147,123a31.19,31.19,0,0,1-10.18-8.3c-2.4-2.89-5.33-4.06-9-2.61-2.54,1-5.07,2-7.6,3.06-1.71.69-1.74.78-.67,2.39q3.29,5,6.61,9.94a14.89,14.89,0,0,0,4.3,4.6c2.4,1.51,4.26.8,5.18-2a6.71,6.71,0,0,0,.33-1.18,9.13,9.13,0,0,1,1.07-3c.57-1.07,1.32-1.2,2.17-.37,1.27,1.24,2.51,2.5,3.81,3.69,1.07,1,2.35,1.48,3.68.73A4.66,4.66,0,0,0,149.1,126.32Zm-72.78-6.57a8.46,8.46,0,0,0-.14-1.59c-.43-1.95-1.56-2.36-3-1.07l-.2.2a104.68,104.68,0,0,0-7.1,9c-1.33,1.93-1.18,2.71.48,4.33a47.73,47.73,0,0,1,3.81,3.84,2.3,2.3,0,0,1,.29,3.12c-.45.83-1,1.59-1.45,2.42-.77,1.48-.59,1.77,1,1.74,2.08,0,3.09-1.1,3-3.25a12.25,12.25,0,0,0-.82-4c-.5-1.39-1.11-2.74-1.6-4.14-.7-2-.25-3.18,1.52-4.2.24-.14.49-.25.72-.39A6.71,6.71,0,0,0,76.32,119.75Zm46.1,23c-.94-1.31-1.87-2.58-2.78-3.89a3.83,3.83,0,0,1-.13-4.52c.73-1.17,1.5-2.31,2.22-3.49a2.93,2.93,0,0,0,.39-3.12c-1.74-3.28-3.58-6.49-5.6-9.59a1.84,1.84,0,0,0-1.5-.91c-.54,0-1.09,0-1.64,0-.36,0-.42.11-.44.49a5.1,5.1,0,0,0,1.9,4.44c3.19,2.82,3.4,5.24,1.4,8.38a8.38,8.38,0,0,0-1.26,6.07C115.53,139.81,118.31,143.21,122.42,142.76Zm-17.81,8.35-1.83.18c-.23,0-.52,0-.53.34a15.19,15.19,0,0,0-.18,2.85c.57,3.66,1.06,7.33,1.75,11a2.94,2.94,0,0,0,2.17,2.46c1.52.54,2.08.25,2.54-1.38a3,3,0,0,0,.07-.94c-.12-2.25-.23-4.51-.39-6.76-.14-1.94-.31-3.87-.54-5.79s-.28-2-2.16-1.93Zm-20.35-1c-1.58,0-2.59.7-3.15,2.6C80,156.5,78.23,160,76.79,163.6c-.23.58-.86,1.37-.58,1.7.45.54,1.35.36,2.08.3a2.54,2.54,0,0,0,.35-.07c2.56-.51,4.22-2.25,5.49-4.47a19.24,19.24,0,0,0,2.19-9c.06-1.53-.22-1.81-1.69-1.9Zm-9.39-17.08a26.47,26.47,0,0,0,.92-5C73.51,128.85,73.12,130.21,74.88,133.06Zm38.84-3c1.38-1.51,1.26-3.56-.34-5.24C113.19,126.58,113.69,128.27,113.72,130Z"/><path class="cls-2" d="M102.53,115.12c-4.42-.24-8.84-.47-13.27-.73-3.27-.19-6.54-.43-9.8-.63a6.19,6.19,0,0,1-2.58-.83q-15.75-8.59-20.13-26.65c-1.31-5.4-.42-10.6,1.38-15.69a23.82,23.82,0,0,1,12-14,5.3,5.3,0,0,1,5,.19A89.5,89.5,0,0,0,89,62.21a64.75,64.75,0,0,0,23.21,2.4,41.85,41.85,0,0,0,14.61-3.48,31.38,31.38,0,0,0,6.37-4.21c.56-.45.86-.37,1.33.16a44.79,44.79,0,0,1,10.77,21.39,19.84,19.84,0,0,1-.7,10.43,38.79,38.79,0,0,1-8.21,13.84,26.47,26.47,0,0,1-14.15,7.9c-4.73,1-9.39,2.42-14.09,3.59A19.23,19.23,0,0,1,102.53,115.12Zm-7.83-9.38a56.39,56.39,0,0,0,14.42-1.94A42.24,42.24,0,0,0,128.67,93a40.89,40.89,0,0,0,4.78-5.64c.86-1.23.76-2.66-.19-3.3a2.82,2.82,0,0,0-3.07.23,18.1,18.1,0,0,0-3.54,4.33,22.86,22.86,0,0,1-6.92,7c-5,3.2-10.58,4.22-16.28,4.77a93.28,93.28,0,0,1-11.91.16,47.39,47.39,0,0,1-5.71-.4C77.74,98.87,69.7,91.64,68.1,82.86a2.6,2.6,0,0,0-2-2.14,1,1,0,0,0-1.21.56,3,3,0,0,0-.08,2.31C66.37,91.08,70,97.07,76.38,101A34.13,34.13,0,0,0,94.71,105.74Zm16.23-32a3.71,3.71,0,0,0,3.59,3.87,3.79,3.79,0,0,0,3.67-3.82,3.7,3.7,0,0,0-3.67-3.87A3.63,3.63,0,0,0,110.94,73.71ZM85.06,69.89c-2.72,0-4.15,2.48-3.12,5.38.7,2,2.16,2.67,4.44,2.12,1.53-.37,2.08-1.44,1.86-3.56,0-.25,0-.51,0-.76C87.94,71.1,86.75,69.89,85.06,69.89Z"/><path class="cls-3" d="M133.93,44.12c.1,4.11-.77,7.9-3.58,11a17,17,0,0,1-8.41,4.66A58.9,58.9,0,0,1,107,61.88a58.15,58.15,0,0,1-31.61-9c-3.43-2.08-4.79-5.34-4.24-9.46A21.37,21.37,0,0,1,73,36.62a10.51,10.51,0,0,1,4.7-4.91,65,65,0,0,1,13.67-5.35,29.2,29.2,0,0,1,9.87-.44A89,89,0,0,1,114.07,28a49.11,49.11,0,0,1,16.72,7.67,7.54,7.54,0,0,1,3.13,6.07C134,42.53,133.93,43.33,133.93,44.12Zm-32.35,9.49A50.09,50.09,0,0,0,116.82,51a13.92,13.92,0,0,0,8.28-7c1.51-2.88.48-7.77-3.65-8.5-3.55-.62-7.06-1.48-10.62-2.09-3-.51-5.91-1.46-9-1.2-.75.06-1.5.09-2.25.08a27.3,27.3,0,0,0-6.7.5,16.94,16.94,0,0,0-9.3,5.62c-2.9,3.44-2.12,10.49,3,12.36A44.07,44.07,0,0,0,101.57,53.61Z"/><path class="cls-4" d="M94.46,118.55c4.53,0,9.05,0,13.58,0,.65,0,.85.18,1,.87.66,4.36,1.46,8.71,2.07,13.08a90.87,90.87,0,0,1,.81,9.79c.1,3.18-.94,4.44-4,4.75a95.12,95.12,0,0,1-15.63.3,61.37,61.37,0,0,1-13-2.12,2.89,2.89,0,0,1-2.18-3.07c.2-2.34.5-4.68.81-7,.68-5.2,1.42-10.39,2.06-15.6.11-.87.38-1,1.11-1C85.53,118.56,90,118.55,94.46,118.55Z"/><path class="cls-5" d="M39.36,125.7a7,7,0,0,1,.54-2.19c3.11-6.06,6.12-12.19,9.58-18.05A5.25,5.25,0,0,1,52.35,103c1-.35,2-.72,3-1.15a1.81,1.81,0,0,1,1.15,0,7.92,7.92,0,0,1,4.86,2.56,49.07,49.07,0,0,0,8.17,7.13c2.16,1.57,2.21,2.43.52,4.51A158.25,158.25,0,0,0,59.9,129.47a9.59,9.59,0,0,1-1.4,1.76c-1.13,1.07-2.31.71-2.61-.84a27.63,27.63,0,0,1-.35-5c0-.86-.07-1.71-.15-2.57-.14-1.58-1.42-2.27-2.72-1.43-1.05.69-2.06,1.45-3.08,2.2-1.83,1.36-3.66,2.72-5.6,3.9a4.1,4.1,0,0,1-4.38-.66A1.44,1.44,0,0,1,39.36,125.7Zm25-9c0-.83-.4-1.17-1.17-1a2.14,2.14,0,0,0-.6.19c-.87.54-1.13.13-1.34-.75-.56-2.43-.95-2.6-3-1.38a21.2,21.2,0,0,1-4,2c-.62.21-1,.08-1.11-.65a9.91,9.91,0,0,0-.32-1.39c-.14-.45-.45-.74-.9-.41a4.43,4.43,0,0,0-2,3.46,2,2,0,0,0,1.87,2.16,6.64,6.64,0,0,0,2.15-.25c1.11-.29,2-1.12,3-1.48a2.3,2.3,0,0,1,3.09,1c.76,1.09,1.59,1.46,2.54,1.12A3.1,3.1,0,0,0,64.33,116.71Z"/><path class="cls-5" d="M149.1,126.32a4.66,4.66,0,0,1-2.46,3.65c-1.34.75-2.61.25-3.68-.73-1.3-1.19-2.55-2.45-3.81-3.69-.85-.83-1.6-.7-2.17.37a9.13,9.13,0,0,0-1.07,3,6.71,6.71,0,0,1-.33,1.18c-.93,2.78-2.78,3.49-5.18,2a14.89,14.89,0,0,1-4.3-4.6q-3.32-5-6.61-9.94c-1.07-1.62-1-1.71.67-2.39,2.53-1,5.06-2.06,7.6-3.06,3.69-1.45,6.62-.28,9,2.61A31.19,31.19,0,0,0,147,123,3.49,3.49,0,0,1,149.1,126.32Zm-19.89-6-.58-.19a14.6,14.6,0,0,0-3.7-1.22c-.47-.05-1.09-.17-1.34.34s.07,1.1.5,1.51a8,8,0,0,0,4.58,1.79,3.15,3.15,0,0,0,1.71-.07c1.65-.69,1.89-1.51,1-3.1-.64-1.12-.42-1.56.83-1.6.66,0,1.33.07,2,.05.36,0,.81-.06.63-.64-.27-.87-2.32-1.66-3.08-1.18a1.66,1.66,0,0,1-1.39.18,3.87,3.87,0,0,0-1.26-.14c-.88.06-1.17.45-1,1.36A12.21,12.21,0,0,0,129.21,120.35Z"/><path class="cls-2" d="M76.32,119.75a6.71,6.71,0,0,1-3.48,6c-.24.14-.49.25-.72.39-1.77,1-2.22,2.19-1.52,4.2.49,1.4,1.1,2.74,1.6,4.14a12.25,12.25,0,0,1,.82,4c0,2.14-1,3.2-3,3.25-1.59,0-1.77-.26-1-1.74.44-.83,1-1.59,1.45-2.42a2.3,2.3,0,0,0-.29-3.12,47.73,47.73,0,0,0-3.81-3.84c-1.66-1.62-1.81-2.4-.48-4.33a104.68,104.68,0,0,1,7.1-9l.2-.2c1.48-1.29,2.61-.88,3,1.07A8.46,8.46,0,0,1,76.32,119.75Z"/><path class="cls-2" d="M122.42,142.76c-4.11.46-6.89-2.95-7.43-6.17a8.38,8.38,0,0,1,1.26-6.07c2-3.14,1.79-5.56-1.4-8.38a5.1,5.1,0,0,1-1.9-4.44c0-.38.08-.51.44-.49.55,0,1.09,0,1.64,0a1.84,1.84,0,0,1,1.5.91c2,3.1,3.86,6.31,5.6,9.59a2.93,2.93,0,0,1-.39,3.12c-.72,1.18-1.49,2.32-2.22,3.49a3.83,3.83,0,0,0,.13,4.52C120.55,140.17,121.49,141.45,122.42,142.76Z"/><path class="cls-2" d="M104.61,151.1h.89c1.88,0,1.92,0,2.16,1.93s.4,3.85.54,5.79c.16,2.25.27,4.51.39,6.76a3,3,0,0,1-.07.94c-.46,1.64-1,1.93-2.54,1.38a2.94,2.94,0,0,1-2.17-2.46c-.69-3.64-1.18-7.32-1.75-11a15.19,15.19,0,0,1,.18-2.85c0-.39.3-.32.53-.34Z"/><path class="cls-2" d="M84.27,150.14h.36c1.46.08,1.74.36,1.69,1.9a19.24,19.24,0,0,1-2.19,9c-1.27,2.22-2.93,4-5.49,4.47a2.54,2.54,0,0,1-.35.07c-.73.05-1.63.23-2.08-.3-.28-.34.35-1.12.58-1.7,1.45-3.62,3.2-7.1,4.33-10.87C81.68,150.84,82.68,150.13,84.27,150.14Z"/><path class="cls-6" d="M94.71,105.74A34.13,34.13,0,0,1,76.38,101c-6.42-3.89-10-9.88-11.55-17.36a3,3,0,0,1,.08-2.31,1,1,0,0,1,1.21-.56,2.6,2.6,0,0,1,2,2.14c1.6,8.78,9.64,16,17.71,17.24a47.39,47.39,0,0,0,5.71.4,93.28,93.28,0,0,0,11.91-.16c5.7-.55,11.28-1.58,16.28-4.77a22.86,22.86,0,0,0,6.92-7,18.1,18.1,0,0,1,3.54-4.33,2.82,2.82,0,0,1,3.07-.23c1,.64,1,2.06.19,3.3A40.89,40.89,0,0,1,128.67,93a42.24,42.24,0,0,1-19.54,10.82A56.39,56.39,0,0,1,94.71,105.74Z"/><path class="cls-6" d="M110.94,73.71a3.63,3.63,0,0,1,3.59-3.82,3.7,3.7,0,0,1,3.67,3.87,3.79,3.79,0,0,1-3.67,3.82A3.71,3.71,0,0,1,110.94,73.71Z"/><path class="cls-6" d="M85.06,69.89c1.69,0,2.88,1.21,3.12,3.18,0,.25,0,.51,0,.76.23,2.12-.33,3.19-1.86,3.56-2.28.55-3.74-.15-4.44-2.12C80.91,72.37,82.34,69.9,85.06,69.89Z"/><path class="cls-6" d="M101.57,53.61a44.07,44.07,0,0,1-15-2.87c-5.12-1.86-5.9-8.92-3-12.36a16.94,16.94,0,0,1,9.3-5.62,27.3,27.3,0,0,1,6.7-.5c.75,0,1.5,0,2.25-.08,3.08-.26,6,.69,9,1.2,3.56.61,7.07,1.46,10.62,2.09,4.12.73,5.16,5.62,3.65,8.5a13.92,13.92,0,0,1-8.28,7A50.09,50.09,0,0,1,101.57,53.61ZM97.61,36c-.87.12-1.75.17-2.6.36-2.71.61-5,2.22-7.48,3.43a3.93,3.93,0,0,0-2.28,4.48c.18,1.22.19,1.27,1.27.87a70.82,70.82,0,0,1,17.26-4.38,26.63,26.63,0,0,1,10.78,1.07c1.49.46,2.82,1.33,4.27,1.87a1.88,1.88,0,0,0,2.46-.59,2.78,2.78,0,0,0-1-4.37,6.21,6.21,0,0,0-1.3-.43c-2.61-.58-5.26-.82-7.9-1.19C106.62,36.5,102.12,36.19,97.61,36Zm19,11a20.62,20.62,0,0,0-8.84-2.55,31.44,31.44,0,0,0-8.49.77c-3.12.69-6.19,1.61-9.29,2.56C94.68,51.5,112.13,51.15,116.63,47Z"/><path class="cls-6" d="M64.33,116.71a3.1,3.1,0,0,1-1.75,2.59c-1,.33-1.79,0-2.54-1.12a2.3,2.3,0,0,0-3.09-1c-1.08.36-1.92,1.2-3,1.48a6.64,6.64,0,0,1-2.15.25,2,2,0,0,1-1.87-2.16,4.43,4.43,0,0,1,2-3.46c.45-.33.75,0,.9.41a9.91,9.91,0,0,1,.32,1.39c.11.73.49.86,1.11.65a21.2,21.2,0,0,0,4-2c2.05-1.22,2.44-1.05,3,1.38.2.88.47,1.3,1.34.75a2.14,2.14,0,0,1,.6-.19C63.93,115.55,64.33,115.88,64.33,116.71Z"/><path class="cls-6" d="M129.21,120.35a12.21,12.21,0,0,1-1.16-2.93c-.12-.91.17-1.3,1-1.36a3.87,3.87,0,0,1,1.26.14,1.66,1.66,0,0,0,1.39-.18c.76-.48,2.81.31,3.08,1.18.18.58-.26.64-.63.64-.67,0-1.33-.07-2-.05-1.24,0-1.46.49-.83,1.6.91,1.6.66,2.41-1,3.1a3.15,3.15,0,0,1-1.71.07,8,8,0,0,1-4.58-1.79c-.43-.41-.78-.94-.5-1.51s.87-.39,1.34-.34a14.6,14.6,0,0,1,3.7,1.22Z"/><path class="cls-2" d="M116.63,47c-4.5,4.13-21.94,4.49-26.63.78,3.11-1,6.17-1.87,9.29-2.56a31.44,31.44,0,0,1,8.49-.77A20.62,20.62,0,0,1,116.63,47Z"/></svg>