<svg id="圖層_1" data-name="圖層 1" xmlns="http://www.w3.org/2000/svg" viewBox="0 0 392.74 118.84"><defs><style>.cls-1{fill:#fff;}.cls-2{fill:#090405;fill-rule:evenodd;}</style></defs><title>graphic</title><path d="M81.95,80.83c8-9.18,15.59-18.65,23.68-27.71,2.58-2.9,6.17-4.9,9.27-7.34a29.72,29.72,0,0,0,3.83-3.23c3.28-3.63,3-8.09-.57-11.38-4.5-4.08-10.54-5.76-16.75-2.9C93.22,32,85.19,36,78.09,41.66A57.25,57.25,0,0,0,63.63,58.61c-3.84,6.82-8,13.49-11.77,20.33a61.87,61.87,0,0,0-4.13,9.28c-2,5.69-1.51,11.42.53,17,.86,2.36,1.89,4.66,2.84,7l.48,1.15,6.95-2.31c-.82-.8-1.49-1.38-2.08-2-3-3.39-3.5-7.46-3.23-11.79a36.69,36.69,0,0,1,5-16.35c4.72-8.11,9-16.47,14.69-24,6.61-8.81,14.61-16,24.68-20.62,4.1-1.9,8.51-2.71,12.91-3.48a3.05,3.05,0,0,1,1.79.48,27.63,27.63,0,0,1,2.41,1.65c-1.48,3.38-4.15,5.68-6.53,8.2-8.92,9.45-17.91,18.83-26.81,28.29C73.07,80.23,67.45,90.7,63,101.9c-1.22,3.06-2.87,5.95-4.45,9.16l8.52-2.84-.44.05C70.84,98.56,74.94,88.91,81.95,80.83Z"/><path class="cls-1" d="M81.38,71.39c8.9-9.46,17.89-18.84,26.81-28.29,2.38-2.52,5-4.81,6.53-8.2a27.63,27.63,0,0,0-2.41-1.65,3.05,3.05,0,0,0-1.79-.48c-4.41.77-8.81,1.58-12.91,3.48C87.54,40.91,79.54,48.06,72.93,56.87c-5.65,7.54-10,15.9-14.69,24a36.69,36.69,0,0,0-5,16.35c-.27,4.32.22,8.39,3.23,11.79.59.66,1.26,1.25,2.08,2h0c1.58-3.21,3.23-6.1,4.45-9.16C67.45,90.7,73.07,80.23,81.38,71.39Z"/><path d="M132.64,17.37c.49-1.5,1-2.84,1.36-4.23,1.19-4.78,4.72-6.28,8.91-6.51,4.47-.24,7.86,2.09,10.79,5.14a20,20,0,0,1,5.58,15.08c-.1,3.3-2.83,6.43-6.59,7.54-4.92,1.46-9-.35-12.76-3.36-3.57-2.89-5.25-6.84-5.92-11.3C133.87,18.81,134.11,17.64,132.64,17.37ZM142,12.91c-.15,1.1-.35,2.16-.44,3.22-.29,3.45.26,6.69,2.57,9.43a6.32,6.32,0,0,0,5.15,2.36,2.9,2.9,0,0,0,1.87-.82,7.29,7.29,0,0,0,2-5.82A9.46,9.46,0,0,0,142,12.91Z"/><path class="cls-1" d="M142,12.91a9.46,9.46,0,0,1,11.16,8.37,7.29,7.29,0,0,1-2,5.82,2.9,2.9,0,0,1-1.87.82,6.32,6.32,0,0,1-5.15-2.36c-2.31-2.74-2.86-6-2.57-9.43C141.65,15.07,141.85,14,142,12.91Z"/><path class="cls-2" d="M51.6,113.38s2.21,3.4,8.09,3,6.95-8.12,6.95-8.12Z"/></svg>