<svg id="圖層_1" data-name="圖層 1" xmlns="http://www.w3.org/2000/svg" xmlns:xlink="http://www.w3.org/1999/xlink" viewBox="0 0 245.99 250.83"><defs><style>.cls-1,.cls-2,.cls-3{fill:none;}.cls-1{clip-rule:evenodd;}.cls-3{stroke:#fff;stroke-miterlimit:10;stroke-width:7px;}.cls-4{clip-path:url(#clip-path);}.cls-5{fill:#080505;}.cls-10,.cls-11,.cls-12,.cls-13,.cls-14,.cls-15,.cls-16,.cls-17,.cls-18,.cls-5,.cls-6,.cls-7,.cls-8,.cls-9{fill-rule:evenodd;}.cls-6{fill:#fff;}.cls-7{fill:#a94743;}.cls-8{fill:#fdfefe;}.cls-9{fill:#dfb835;}.cls-10{fill:#a84844;}.cls-11{fill:#c35640;}.cls-12{fill:#5f5e5e;}.cls-13{fill:#a84944;}.cls-14{fill:#dab43b;}.cls-15{fill:#f8f8f8;}.cls-16{fill:#805a54;}.cls-17{fill:#090707;}.cls-18{fill:#0f1010;}.cls-19{clip-path:url(#clip-path-2);}</style><clipPath id="clip-path"><path class="cls-1" d="M91.91,20.84,99,73.53s17.9-6.48,26.48-8.79a25.66,25.66,0,0,1,16,1.1l-1.1-53.54L97.93,8Z"/></clipPath><clipPath id="clip-path-2"><ellipse class="cls-2" cx="126.89" cy="143.36" rx="98.96" ry="96.5"/></clipPath></defs><title>GraphicE</title><circle class="cls-3" cx="128.72" cy="143.06" r="100.46"/><g class="cls-4"><path class="cls-5" d="M114.16,257.31c-5.58-3.63-7.37-9.56-9.51-15.25q-1-2.73-1.91-5.52a3.27,3.27,0,0,0-3.25-2.5c-6.11-.36-12.24-.67-18.34-1.21a42.71,42.71,0,0,1-7.47-1.57,5.36,5.36,0,0,1-3.46-3.12c-.84-1.82-1.89-3.53-2.89-5.26-1.26-2.18-1.79-4.63-2.61-7A40.46,40.46,0,0,1,63,205.77c-.56-6.32-2.29-12.52-1.72-19a3.4,3.4,0,0,0-.62-2.9l-1.55,11.4c0,.06,0,.13,0,.19-.75,3.85-3.31,7-5.76,7-2.77,0-6.81-3.42-7.71-6.63a16.75,16.75,0,0,1-.48-3.55c-.36-5.91.86-11.66,1.6-17.46s1.34-11.63,2.17-17.42c1.67-11.64,3.35-23.29,6.56-34.63,4.29-15.13,12.74-27.4,24-37.72a65.94,65.94,0,0,1,22.76-13.56c2.5-.89,2.48-1,1.84-3.67a79.14,79.14,0,0,1-1.41-12.37c-.39-5.06-1.63-9.93-2.47-14.88a13.39,13.39,0,0,1-.19-3c.25-4.53-.16-9.06.29-13.59a33.76,33.76,0,0,1,2.22-8.74c.87-2.28,2.39-2.77,4.53-1.61a12.21,12.21,0,0,1,6.09,8.53c.77,3.33.78,3.32,3.5,1.48.56-.38,1.14-.73,1.71-1.08,2.62-1.58,3.88-1.18,5,1.8,1.24,3.16,2.35,6.37,2.17,9.88a2.22,2.22,0,0,0,.08.93c.21.49.06,1.31.73,1.38s.66-.66.89-1.08a35.13,35.13,0,0,1,4.75-6.92c1-1.12,1.95-1,3.37-.52,4.9,1.78,3.65,5.68,3.27,9.3q-.85,8.17-1.81,16.32c-.33,2.81-.65,5.63-1.19,8.41-.35,1.78.28,2.23,1.83,2.34a84,84,0,0,1,21.52,4.38,48.11,48.11,0,0,1,11,5.76C175,78,180.37,81.1,185,85.3a5.29,5.29,0,0,0,6.42.88c2.85-1.39,5.78-1.94,8.79-.56a6.12,6.12,0,0,1,3.59,6.91,7.4,7.4,0,0,0,.17,2.41,11.12,11.12,0,0,1-3.05,9.17c-1.89,2.05-2,4.24-1.06,6.79a222.27,222.27,0,0,1,7.56,22.49,38,38,0,0,0,2.58,6.47,33.21,33.21,0,0,1,3,7.5,4.35,4.35,0,0,0,.6,1.58c4.2,6,6.41,13.17,9.83,19.62,1.92,3.62,2.83,7.6,4.3,11.38a15.58,15.58,0,0,1,.68,6.92c-.18,2.16-.49,4.27-2.86,5.24a5.31,5.31,0,0,1-6.17-1.41c-3.4-3.34-6.76-6.73-10.13-10.11-2.37-2.38-2.4-2.41-3.44.84a112.77,112.77,0,0,1-14.28,29.07c-3.06,4.51-7.25,8-11.07,11.77a7.05,7.05,0,0,0-1.91,3.56,107.28,107.28,0,0,1-6.87,21.09c-1.11,2.38-2.16,4.8-3.24,7.2-.52,1.16-.51,2,1,2.42,2,.6,3.72,2.12,5.83,2.57a.71.71,0,0,1,.59,1,1.19,1.19,0,0,1-1.34.77c-2.43,0-4.86-.08-7.28-.33-1.33-.14-2.66-.21-4-.25a2.89,2.89,0,0,1-2.79-4.11,71.49,71.49,0,0,0,3.55-13.67c.43-2.92.69-5.88.88-8.83.13-2-.49-2.4-2.26-1.76-4.83,1.74-9.86,1.94-14.89,2.16a11.82,11.82,0,0,0-6.11,1.46,9.27,9.27,0,0,1-4.71,1.26,90.38,90.38,0,0,1-21-1.8c-2.22-.45-2.79.08-2.1,2.27,1.89,6,3.25,12.16,5.9,17.87a3.57,3.57,0,0,1-.71,4.17c-3.09,3.44-7.06,3.9-11.24,3.6a2.6,2.6,0,0,1-2-1.72c-.7-1.53,0-2.71,1.53-2.35C109.68,259.33,111.76,258.34,114.16,257.31Zm7.66-82.5a16.68,16.68,0,0,0-7.42,0c-.78.27-1,1.06-1.37,1.68-1.8,3-3.4,6.11-5.89,8.61a169.65,169.65,0,0,1-14.08,12.6c-6.72,5.39-13.5,10.74-21.54,14-3,1.2-3.28,1.69-2.56,4.9.87,3.89,2.48,7.26,6.32,8.89,1,.42,2.09.8,2.77-.38A7.07,7.07,0,0,1,81,222.58a42.21,42.21,0,0,0,4.84-3C91.45,215.1,97,210.51,102.63,206c5.31-4.27,9.8-9.43,14.39-14.48,4.42-4.86,9.13-9.45,13.25-14.61,1-1.22.79-1.66-.63-1.87C127,174.65,124.42,174.95,121.82,174.81Zm-58.13-9c.53,2.62,2.07,3,3.59,3.58A41.8,41.8,0,0,0,87,171.5c1.85-.24,3.7-.84,5.55-.72a79.47,79.47,0,0,0,12.55-.07,71,71,0,0,1,9.81-.3c5.92.28,11.84,1.33,17.79.59,5.72-.71,11.46-1.23,17.15-2.17,4.36-.72,8.47-3.29,13.11-2a.88.88,0,0,0,.36,0,144.43,144.43,0,0,0,17.59-4.45c9.67-3.13,18.58-7.59,26.16-14.7a3.31,3.31,0,0,0,1-4.13c-4.32-10.67-8.13-21.54-12-32.4-.43-1.23-.66-1.63-2.07-.9a67.33,67.33,0,0,1-20.17,7.18c-6.65,1.1-13.33,2-20,2.76-5.42.63-10.85,1.14-16.32.13a46.17,46.17,0,0,1-14.05-5.39c-.49-.27-1-.61-1-1.25s.74-.79,1.23-.95a16.41,16.41,0,0,1,4.45-.9,49,49,0,0,0,10.13-.93c15.78-3.92,30.16-11.19,44.05-19.67,1.63-1,1.64-1.86.08-3.12A134.9,134.9,0,0,0,169,79c-3.36-2.11-6.61-4.47-10.42-5.7-7.2-2.34-14.62-3.51-22.06-4.61-1-.15-1.5.24-1.5,1.31,0,.76,0,1.52,0,2.28.22,6.69-1.07,13.18-2.39,19.66-.27,1.33-.57,2.88-1.88,3.54a12.38,12.38,0,0,1-7,1.62,6,6,0,0,1-5.6-6.5c.14-3.53.42-7,.6-10.57.17-3.36.31-6.72.46-10.19-1.18.44-2.13.82-3.1,1.16-6.12,2.19-12.33,4.13-18.34,6.61C88.7,81.31,81.56,88,74.94,95.29c-7.62,8.43-13.39,17.79-16.26,29.26a329.42,329.42,0,0,0-7.27,40.64c-.35,2.91-.29,3,2.42,3.42C57.27,169.1,61,170.77,63.69,165.8Zm22.65,61.83c5,.93,9.72,2.47,14.71,1.55a3.94,3.94,0,0,1,2.47.34,4,4,0,0,0,4.24-.44c1.14-.78,1.37-2.15,2.47-2.94a123,123,0,0,0,16-14.27c7.19-7.34,14.36-14.93,19.35-24.26A6.48,6.48,0,0,1,146,187c3-4.29,6.37-8.29,8.61-13.11.33-.7.72-1.52.3-2.15s-1.31-.31-2-.14c-3.11.77-6.22,2-9.41,1.87-3.47-.11-5.95,1.37-8.11,3.85-3.06,3.5-6,7.1-9.31,10.39a157.94,157.94,0,0,0-13.21,15.39c-6.46,8.41-13.63,15.91-22.7,21.28A10.45,10.45,0,0,0,86.34,227.63Zm36,3.72c1.8.44,3.42-.43,5-1.95q8.51-8,16.75-16.32c7.28-7.31,13.43-15.6,19.61-23.88a93.28,93.28,0,0,0,10.65-18.88c.54-1.25.34-1.72-1-1.57-3.07.33-6.14.63-9.21.94a3.1,3.1,0,0,0-2.41,1.76c-2.3,3.86-4.25,8.06-7.1,11.42-6,7-10.79,15.05-17.45,21.52-3.8,3.69-7,8.07-10.47,12.09-3.79,4.37-8,8.27-12.14,12.29-.38.37-1,.68-.73,1.38s.82.38,1.27.47A32.1,32.1,0,0,0,122.33,231.35Zm27.44-1.62a33.58,33.58,0,0,0,9-1.78c5.27-1.8,10.93-2.8,15.61-5.95a51.09,51.09,0,0,0,16-16.53,177.14,177.14,0,0,0,9.31-19c1.79-4.11,3.42-8.2,3.69-12.75.2-3.27.3-6.55.45-10a7.39,7.39,0,0,0-2,2c-6.53,7.94-11.78,16.79-17,25.68a21.46,21.46,0,0,1-4.43,5.71,41.84,41.84,0,0,0-4.73,5c-6.13,7.26-12,14.77-19.47,20.65A36.7,36.7,0,0,0,149.76,229.73ZM137.24,113.89c1.59,1.68,2.92,2.05,6.26,1.84,4.73-.3,9.46-.48,14.18-.89,7.55-.65,15.11-1.33,22.52-3.1,3.09-.74,6.35-.88,9.12-2.91a35.08,35.08,0,0,0,9.16-9.37,13.59,13.59,0,0,0,2.08-7.71c-.05-2.41-1.11-3.35-3.41-3.45a15.84,15.84,0,0,0-7.66,2.06,153.59,153.59,0,0,0-13.34,7.7c-3.6,2.21-6.87,5.07-10.85,6.52-3.38,1.23-6.67,2.64-10,4.1s-6.48,3.29-10.12,3.51A39.51,39.51,0,0,0,137.24,113.89ZM136,229.84a8.22,8.22,0,0,0,1.13,0c.35-.07.7-.19,1-.29a20,20,0,0,0,8.7-5.61c4.92-5,10.09-9.66,14.69-15A165.6,165.6,0,0,1,175,194.53a41.92,41.92,0,0,0,6.09-7c1.54-2.19,3-4.42,4.66-6.55a166.78,166.78,0,0,0,14.08-21.61c.24-.45.9-1,.47-1.47s-1.12-.21-1.66.2c-3.15,2.35-6.79,3.62-10.34,5.06-2.06.83-4.16,1.51-4.39,4.34a2.79,2.79,0,0,1-.61,1.15c-2.12,3.15-4,6.53-6.44,9.4-6,7.07-11.39,14.6-16.85,22.1-4.43,6.08-8.29,12.62-13.43,18.14C143.14,222,139.73,225.77,136,229.84Zm-28-54.62c-4.76,0-9.13.15-13.48-.06-2.59-.12-4.22,1-5.63,3.06C83.3,186.33,76.7,193,66.6,194.6a1.45,1.45,0,0,0-1.33,1.72c.44,3.62.5,7.28,1.46,10.82.32,1.18.78,1.13,1.64.48A43.43,43.43,0,0,1,74,203.86c4.57-2.48,9.27-4.75,13.42-8C95,190,101.23,182.6,108,175.21ZM111.88,44.7c.4-4.3-.34-8.71-1.09-13.11-.64-3.71-1.35-7.41-2.17-11.09-.29-1.27-1-2.71-2.46-2.66s-2,1.43-2.26,2.81c-.08.43-.22.85-.3,1.28-1.29,6.47-.59,13,.22,19.38s2.17,12.89,2.41,19.47a39.71,39.71,0,0,0,1.08,6.5c.19.9.53,1.85,1.65,2a3.38,3.38,0,0,0,3.82-4.18,5.85,5.85,0,0,1-.11-.94C112.4,57.76,112.15,51.33,111.88,44.7Zm3-7.24h-.09c.29,5.61.56,11.22.89,16.83.19,3.27.43,6.55.75,9.81.06.63-.28,1.66.68,1.89,1.89.45,4.66-1.49,5-3.37,1.85-11.35.95-22.64-.72-33.9-.22-1.5-1.37-2.16-2.43-1.5-2.61,1.63-4.43,3.73-4.07,7.2A30.17,30.17,0,0,1,114.88,37.46Zm19.82,5.72c-.13-2.77.09-5.58-.62-8.28-.25-.94.07-2.58-1.15-2.66s-1.51,1.42-2,2.42c-.05.11-.08.24-.12.36-2.33,5.9-4.46,11.85-4.57,18.36-.05,2.84-.29,5.67-.42,8.51,0,.7-.08,1.55.77,1.71a15,15,0,0,0,5.08,0c.71-.11.89-.87,1-1.47C133.4,55.83,134.93,49.61,134.7,43.18ZM64,173.28c-.81-.26-1,.3-.85,1.39.6,4.48,1.29,9,1.64,13.46.16,2,.89,2.15,2.37,1.67A25.39,25.39,0,0,0,80.4,179.69a5,5,0,0,0,1-2.62c0-.59-.1-1-.72-1.07Zm58.54-95.36c-.22,3.6.44,8.11.39,12.65,0,2.57,2.14,3.79,4.31,2.56a4,4,0,0,0,1.88-3.62c.18-3,.53-6,.63-9,.09-2.76.77-5.5.31-8.28-.78-4.66-.79-4.66-5.21-3.64a5.14,5.14,0,0,1-.54,0,1.8,1.8,0,0,0-1.78,2.12C122.59,72.81,122.55,74.89,122.55,77.91Zm93.68,99.72c1.46-.39,2.93-.72,4.36-1.2a1.47,1.47,0,0,0,1-2.21c-1.38-3.22-2.47-6.56-3.53-9.9-.37-1.16-1.1-1.66-2.23-.88a27.53,27.53,0,0,1-5.76,2.76c-2,.8-2.15,1.13-.58,2.75a20.21,20.21,0,0,1,4.62,7.17A2,2,0,0,0,216.22,177.63Zm-161.8,7.05a1.13,1.13,0,0,0,1.31-.89c1-3.34,2.12-6.66,3.19-10,.21-.65.09-1.07-.66-1.22-2.18-.45-4.35-.94-6.53-1.43-.58-.13-1,.07-1,.7q-.76,5.39-1.5,10.78c-.07.49-.14,1.08.53,1.21C51.26,184.14,52.8,184.39,54.42,184.68Zm120.27,42a9.83,9.83,0,0,1-1.64.81c-3.41.83-4.62,3.18-4.86,6.67a85.81,85.81,0,0,1-2.07,12.64c-.09.4-.37.92.13,1.18s.88-.23,1.16-.63c.39-.56.76-1.14,1.12-1.72C172.05,240,173.36,233.56,174.7,226.72Zm36-75.58c-2,2.8-3.58,5.71-5.26,8.55-.52.87-1,1.86-.13,2.75s1.94,1.71,3.37.91c1.86-1,3.76-2,5.65-3,1.12-.6,1.22-1.38.54-2.46C213.52,155.76,212.21,153.57,210.73,151.15Zm-95.52,103a3.41,3.41,0,0,0-.33-2.36c-2.41-4.63-3.31-9.83-5.09-14.69-1-2.78-1.25-2.9-4.27-2.48C108.16,241.37,109.8,248.64,115.21,254.11Zm-63.69-56A3,3,0,0,0,53.11,196c.41-1.57.72-3.18,1.22-4.72.86-2.67.54-3.62-2.71-3.9-2.13-.18-2.56.35-2.52,2.53C49.16,192.9,50.66,195.36,51.52,198.14Zm172.62-12.88c-.07-.8-.09-1.37-.18-1.93-.81-4.9-.89-4.93-5.2-2.71-.73.38-1,.61-.37,1.42,1.26,1.53,2.39,3.17,3.6,4.75,1,1.28,1.34,1.22,1.88-.3A8.62,8.62,0,0,0,224.14,185.26Z"/><path class="cls-6" d="M63.69,165.8c-2.66,5-6.42,3.3-9.87,2.81-2.71-.38-2.77-.52-2.42-3.42a329.42,329.42,0,0,1,7.27-40.64c2.87-11.47,8.63-20.83,16.26-29.26C81.56,88,88.7,81.31,97.8,77.55c6-2.48,12.22-4.42,18.34-6.61,1-.34,1.92-.72,3.1-1.16-.16,3.47-.29,6.83-.46,10.19-.18,3.53-.46,7-.6,10.57a6,6,0,0,0,5.6,6.5,12.38,12.38,0,0,0,7-1.62c1.31-.66,1.6-2.21,1.88-3.54,1.33-6.48,2.62-13,2.39-19.66,0-.76,0-1.52,0-2.28,0-1.06.48-1.46,1.5-1.31,7.44,1.09,14.86,2.27,22.06,4.61,3.81,1.24,7.06,3.59,10.42,5.7A134.9,134.9,0,0,1,182.44,88c1.56,1.26,1.56,2.12-.08,3.12-13.89,8.48-28.27,15.76-44.05,19.67a49,49,0,0,1-10.13.93,16.41,16.41,0,0,0-4.45.9c-.49.16-1.18.25-1.23.95s.49,1,1,1.25a46.17,46.17,0,0,0,14.05,5.39c5.47,1,10.9.5,16.32-.13,6.69-.78,13.37-1.66,20-2.76a67.33,67.33,0,0,0,20.17-7.18c1.4-.73,1.63-.33,2.07.9,3.84,10.86,7.65,21.73,12,32.4a3.31,3.31,0,0,1-1,4.13c-7.58,7.11-16.49,11.56-26.16,14.7a144.43,144.43,0,0,1-17.59,4.45.88.88,0,0,1-.36,0c-4.64-1.28-8.75,1.29-13.11,2-5.7.94-11.43,1.46-17.15,2.17-6,.74-11.87-.31-17.79-.59a71,71,0,0,0-9.81.3,79.47,79.47,0,0,1-12.55.07c-1.86-.12-3.7.48-5.55.72a41.8,41.8,0,0,1-19.71-2.12C65.76,168.84,64.22,168.42,63.69,165.8Zm70.73-7c.06-3.32-.74-7.06-.6-10.85a47.78,47.78,0,0,0-.29-5.47c-.16-2.09-1-2.91-3.07-2.85-1.21,0-2.41.22-3.62.27a6.14,6.14,0,0,0-5.91,7.29c.81,5.6,1.73,11.18,2.68,16.75.46,2.71,2,4.06,4.68,4.43,2.21.3,4.16-.92,5.28-3.18C134.49,163.27,134.34,161.25,134.41,158.78Zm8.52-58.65c-.05-1.72-1.44-3.53-2.7-3.51-1.61,0-3.24,2.21-3.13,4.21.08,1.5,1.08,2.34,2.74,2.33A3.09,3.09,0,0,0,142.94,100.13ZM113.74,103c0,1.74.54,2.44,1.82,2.44a4.19,4.19,0,0,0,3.63-4c-.13-1.73-1.46-1.81-2.67-1.83C114.77,99.51,113.72,100.86,113.74,103Z"/><path class="cls-7" d="M86.34,227.63a10.45,10.45,0,0,1,3.81-3.22c9.07-5.37,16.24-12.88,22.7-21.28a157.94,157.94,0,0,1,13.21-15.39c3.28-3.29,6.25-6.89,9.31-10.39,2.17-2.48,4.65-4,8.11-3.85,3.19.1,6.3-1.09,9.41-1.87.7-.17,1.55-.55,2,.14s0,1.44-.3,2.15c-2.24,4.82-5.63,8.81-8.61,13.11a6.48,6.48,0,0,0-.45.59c-5,9.34-12.16,16.92-19.35,24.26a123,123,0,0,1-16,14.27c-1.11.79-1.34,2.16-2.47,2.94a4,4,0,0,1-4.24.44,3.94,3.94,0,0,0-2.47-.34C96.06,230.1,91.35,228.56,86.34,227.63Z"/><path class="cls-7" d="M121.82,174.81c2.61.14,5.22-.16,7.82.23,1.42.21,1.61.64.63,1.87-4.12,5.16-8.83,9.75-13.25,14.61-4.59,5-9.07,10.2-14.39,14.48C97,210.51,91.45,215.1,85.8,219.57a42.21,42.21,0,0,1-4.84,3A7.07,7.07,0,0,0,78.05,225c-.68,1.17-1.77.8-2.77.38-3.84-1.63-5.45-5-6.32-8.89-.72-3.21-.45-3.7,2.56-4.9,8-3.22,14.82-8.56,21.54-14a169.65,169.65,0,0,0,14.08-12.6c2.49-2.5,4.09-5.62,5.89-8.61.38-.63.59-1.41,1.37-1.68Z"/><path class="cls-7" d="M122.33,231.35a32.1,32.1,0,0,1-7.22-.72c-.45-.09-1.05.15-1.27-.47s.36-1,.73-1.38c4.12-4,8.35-7.92,12.14-12.29,3.5-4,6.68-8.4,10.47-12.09,6.66-6.47,11.49-14.47,17.45-21.52,2.85-3.37,4.8-7.56,7.1-11.42a3.1,3.1,0,0,1,2.41-1.76c3.07-.31,6.14-.61,9.21-.94,1.36-.15,1.57.31,1,1.57a93.28,93.28,0,0,1-10.65,18.88c-6.18,8.28-12.33,16.57-19.61,23.88q-8.26,8.29-16.75,16.32C125.75,230.91,124.12,231.78,122.33,231.35Z"/><path class="cls-8" d="M149.76,229.73a36.7,36.7,0,0,1,6.42-7c7.47-5.88,13.35-13.4,19.47-20.65a41.84,41.84,0,0,1,4.73-5,21.46,21.46,0,0,0,4.43-5.71c5.2-8.89,10.45-17.74,17-25.68a7.39,7.39,0,0,1,2-2c-.15,3.48-.26,6.76-.45,10-.27,4.54-1.9,8.63-3.69,12.75a177.14,177.14,0,0,1-9.31,19,51.09,51.09,0,0,1-16,16.53c-4.69,3.15-10.34,4.14-15.61,5.95A33.58,33.58,0,0,1,149.76,229.73Z"/><path class="cls-9" d="M137.24,113.89a39.51,39.51,0,0,1,8-1.71c3.64-.22,6.84-2.06,10.12-3.51s6.58-2.86,10-4.1c4-1.45,7.25-4.31,10.85-6.52a153.59,153.59,0,0,1,13.34-7.7,15.84,15.84,0,0,1,7.66-2.06c2.3.1,3.36,1,3.41,3.45a13.59,13.59,0,0,1-2.08,7.71,35.08,35.08,0,0,1-9.16,9.37c-2.76,2-6,2.18-9.12,2.91-7.4,1.77-15,2.45-22.52,3.1-4.72.4-9.45.59-14.18.89C140.16,115.94,138.83,115.57,137.24,113.89Z"/><path class="cls-10" d="M136,229.84c3.72-4.06,7.13-7.83,10.59-11.54,5.14-5.52,9-12.05,13.43-18.14,5.46-7.5,10.87-15,16.85-22.1,2.43-2.88,4.32-6.25,6.44-9.4a2.79,2.79,0,0,0,.61-1.15c.23-2.83,2.33-3.5,4.39-4.34,3.56-1.44,7.19-2.72,10.34-5.06.55-.41,1.24-.65,1.66-.2s-.23,1-.47,1.47A166.78,166.78,0,0,1,185.77,181c-1.62,2.13-3.12,4.35-4.66,6.55a41.92,41.92,0,0,1-6.09,7,165.6,165.6,0,0,0-13.44,14.41c-4.6,5.33-9.78,10-14.69,15a20,20,0,0,1-8.7,5.61c-.35.1-.69.22-1,.29A8.22,8.22,0,0,1,136,229.84Z"/><path class="cls-7" d="M108,175.21c-6.81,7.39-13,14.8-20.59,20.68-4.14,3.21-8.84,5.49-13.42,8a43.43,43.43,0,0,0-5.67,3.76c-.85.65-1.32.7-1.64-.48-1-3.54-1-7.21-1.46-10.82a1.45,1.45,0,0,1,1.33-1.72C76.7,193,83.3,186.33,88.94,178.22c1.4-2,3-3.18,5.63-3.06C98.92,175.36,103.28,175.21,108,175.21Z"/><path class="cls-11" d="M111.88,44.7c.26,6.63.51,13.06.77,19.48a5.85,5.85,0,0,0,.11.94,3.38,3.38,0,0,1-3.82,4.18c-1.12-.18-1.46-1.12-1.65-2a39.71,39.71,0,0,1-1.08-6.5c-.24-6.57-1.6-13-2.41-19.47s-1.51-12.9-.22-19.38c.09-.43.22-.85.3-1.28.27-1.38.8-2.76,2.26-2.81s2.18,1.39,2.46,2.66c.83,3.67,1.53,7.37,2.17,11.09C111.55,36,112.29,40.4,111.88,44.7Z"/><path class="cls-11" d="M114.88,37.46a30.17,30.17,0,0,0,0-3c-.36-3.47,1.47-5.57,4.07-7.2,1.06-.66,2.21,0,2.43,1.5,1.67,11.27,2.57,22.55.72,33.9-.31,1.88-3.08,3.82-5,3.37-1-.23-.62-1.26-.68-1.89-.32-3.26-.56-6.54-.75-9.81-.33-5.61-.6-11.22-.89-16.83Z"/><path class="cls-11" d="M134.7,43.18c.22,6.43-1.31,12.65-2.06,19-.07.61-.25,1.36-1,1.47a15,15,0,0,1-5.08,0c-.85-.16-.8-1-.77-1.71.13-2.84.37-5.67.42-8.51.12-6.51,2.25-12.45,4.57-18.36,0-.12.07-.24.12-.36.47-1,.85-2.5,2-2.42s.9,1.72,1.15,2.66C134.79,37.6,134.57,40.42,134.7,43.18Z"/><path class="cls-10" d="M64,173.28,80.65,176c.63.1.75.49.72,1.07a5,5,0,0,1-1,2.62A25.39,25.39,0,0,1,67.17,189.8c-1.48.48-2.21.35-2.37-1.67-.35-4.5-1-9-1.64-13.46C63,173.58,63.19,173,64,173.28Z"/><path class="cls-12" d="M122.55,77.91c0-3,0-5.1,0-7.18a1.8,1.8,0,0,1,1.78-2.12,5.14,5.14,0,0,0,.54,0c4.43-1,4.43-1,5.21,3.64.47,2.78-.22,5.52-.31,8.28-.1,3-.45,6-.63,9a4,4,0,0,1-1.88,3.62c-2.17,1.23-4.34,0-4.31-2.56C123,86,122.32,81.51,122.55,77.91Z"/><path class="cls-13" d="M216.22,177.63a2,2,0,0,1-2.13-1.51,20.21,20.21,0,0,0-4.62-7.17c-1.56-1.62-1.44-2,.58-2.75a27.53,27.53,0,0,0,5.76-2.76c1.13-.78,1.86-.28,2.23.88,1.06,3.35,2.15,6.68,3.53,9.9a1.47,1.47,0,0,1-1,2.21C219.15,176.91,217.68,177.24,216.22,177.63Z"/><path class="cls-13" d="M54.42,184.68c-1.62-.29-3.16-.54-4.7-.84-.67-.13-.59-.73-.53-1.21q.73-5.39,1.5-10.78c.09-.63.46-.83,1-.7,2.18.48,4.35,1,6.53,1.43.74.15.87.57.66,1.22-1.06,3.33-2.14,6.66-3.19,10A1.13,1.13,0,0,1,54.42,184.68Z"/><path class="cls-14" d="M174.7,226.72c-1.34,6.83-2.64,13.28-6.16,19-.36.58-.73,1.16-1.12,1.72-.28.4-.59.93-1.16.63s-.22-.78-.13-1.18a85.81,85.81,0,0,0,2.07-12.64c.24-3.49,1.44-5.84,4.86-6.67A9.83,9.83,0,0,0,174.7,226.72Z"/><path class="cls-15" d="M210.73,151.15c1.49,2.43,2.79,4.62,4.16,6.76.68,1.07.59,1.86-.54,2.46-1.88,1-3.78,2-5.65,3-1.43.79-2.45,0-3.37-.91s-.38-1.88.13-2.75C207.14,156.86,208.71,153.95,210.73,151.15Z"/><path class="cls-14" d="M115.21,254.11c-5.41-5.47-7-12.75-9.69-19.53,3-.42,3.26-.29,4.27,2.48,1.78,4.87,2.68,10.06,5.09,14.69A3.41,3.41,0,0,1,115.21,254.11Z"/><path class="cls-15" d="M51.52,198.14c-.86-2.78-2.36-5.23-2.42-8.2,0-2.18.39-2.71,2.52-2.53,3.25.28,3.58,1.23,2.71,3.9-.5,1.54-.81,3.14-1.22,4.72A3,3,0,0,1,51.52,198.14Z"/><path class="cls-15" d="M224.14,185.26a8.62,8.62,0,0,1-.28,1.23c-.54,1.52-.91,1.58-1.88.3-1.2-1.58-2.34-3.22-3.6-4.75-.67-.82-.35-1,.37-1.42,4.3-2.22,4.38-2.19,5.2,2.71C224,183.88,224.06,184.45,224.14,185.26Z"/><path class="cls-16" d="M121.82,174.81l-7.42,0A16.68,16.68,0,0,1,121.82,174.81Z"/><path class="cls-17" d="M134.41,158.78c-.07,2.47.07,4.49-.86,6.38-1.12,2.27-3.07,3.49-5.28,3.18-2.71-.37-4.23-1.72-4.68-4.43-.94-5.57-1.87-11.15-2.68-16.75a6.14,6.14,0,0,1,5.91-7.29c1.21,0,2.41-.24,3.62-.27,2-.05,2.91.77,3.07,2.85a47.78,47.78,0,0,1,.29,5.47C133.67,151.72,134.47,155.46,134.41,158.78Zm-8.93-6.72c0,1.7-.09,3.41,0,5.1.13,2.14.37,4.29,1.94,5.93,1.3,1.36,2.2,1.17,2.7-.67a20.17,20.17,0,0,0,.88-8.89c-.55-3.2-.56-6.5-.81-9.76,0-.36.1-.8-.27-1-.76-.49-3.89,1.17-4.15,2.17C125.19,147.27,125.57,149.68,125.48,152.06Z"/><path class="cls-18" d="M142.94,100.13a3.09,3.09,0,0,1-3.09,3c-1.67,0-2.66-.83-2.74-2.33-.11-2,1.52-4.18,3.13-4.21C141.49,96.6,142.88,98.41,142.94,100.13Z"/><path class="cls-18" d="M113.74,103c0-2.1,1-3.44,2.78-3.41,1.22,0,2.54.1,2.67,1.83a4.19,4.19,0,0,1-3.63,4C114.28,105.39,113.76,104.69,113.74,103Z"/><path class="cls-12" d="M125.48,152.06c.09-2.38-.29-4.79.32-7.15.26-1,3.39-2.66,4.15-2.17.36.23.24.67.27,1,.25,3.26.26,6.56.81,9.76a20.17,20.17,0,0,1-.88,8.89c-.5,1.84-1.39,2-2.7.67-1.57-1.64-1.8-3.79-1.94-5.93C125.39,155.47,125.48,153.76,125.48,152.06Z"/></g><g class="cls-19"><path class="cls-5" d="M114.2,245.24c-5.6-3.41-7.39-9-9.54-14.34q-1-2.57-1.92-5.19a3.26,3.26,0,0,0-3.26-2.35c-6.13-.34-12.27-.63-18.39-1.14a45.31,45.31,0,0,1-7.49-1.47,5.27,5.27,0,0,1-3.47-2.94c-.84-1.71-1.9-3.32-2.9-4.95-1.26-2.05-1.8-4.35-2.62-6.56a35.93,35.93,0,0,1-1.76-9.54c-.56-5.94-2.3-11.78-1.72-17.83a3,3,0,0,0-.62-2.73L59,186.93c0,.06,0,.12,0,.18-.75,3.62-3.32,6.55-5.77,6.59-2.78,0-6.83-3.22-7.73-6.24a14.84,14.84,0,0,1-.49-3.34c-.36-5.56.86-11,1.61-16.43s1.34-10.94,2.18-16.38c1.68-11,3.36-21.91,6.58-32.57,4.3-14.24,12.77-25.77,24-35.49A67.16,67.16,0,0,1,102.16,70.5c2.51-.84,2.48-.94,1.84-3.45a70,70,0,0,1-1.41-11.64c-.39-4.76-1.63-9.34-2.48-14a11.83,11.83,0,0,1-.19-2.83c.25-4.26-.16-8.52.29-12.79a30.17,30.17,0,0,1,2.22-8.22c.87-2.15,2.4-2.61,4.55-1.52a11.55,11.55,0,0,1,6.11,8c.77,3.13.78,3.13,3.51,1.39.56-.36,1.14-.69,1.72-1,2.62-1.49,3.89-1.11,5.06,1.69,1.24,3,2.36,6,2.17,9.29a2,2,0,0,0,.08.88c.21.46.06,1.24.73,1.3s.66-.62.9-1A33.06,33.06,0,0,1,132,30.08c1.05-1.06,2-1,3.38-.49,4.91,1.67,3.66,5.34,3.28,8.75q-.86,7.68-1.82,15.36c-.33,2.64-.65,5.3-1.19,7.91-.35,1.68.28,2.09,1.83,2.2a89.14,89.14,0,0,1,21.58,4.12,49.45,49.45,0,0,1,11.07,5.42c5.1,3.24,10.44,6.15,15,10.09a5.57,5.57,0,0,0,6.44.82c2.86-1.31,5.8-1.82,8.82-.53a5.68,5.68,0,0,1,3.6,6.5,6.54,6.54,0,0,0,.17,2.27,10.07,10.07,0,0,1-3.06,8.62c-1.9,1.93-2,4-1.06,6.38a200.22,200.22,0,0,1,7.59,21.16,34.47,34.47,0,0,0,2.58,6.08,30.15,30.15,0,0,1,3,7.05,3.94,3.94,0,0,0,.6,1.48c4.21,5.69,6.43,12.38,9.86,18.46,1.93,3.41,2.84,7.15,4.31,10.7a13.8,13.8,0,0,1,.68,6.51c-.18,2-.49,4-2.87,4.93a5.56,5.56,0,0,1-6.18-1.33c-3.41-3.15-6.78-6.33-10.16-9.51-2.37-2.24-2.41-2.27-3.45.79a103.53,103.53,0,0,1-14.32,27.34c-3.06,4.24-7.27,7.5-11.1,11.07a6.52,6.52,0,0,0-1.91,3.35,96.54,96.54,0,0,1-6.89,19.84c-1.12,2.24-2.17,4.51-3.25,6.77-.52,1.09-.51,1.87,1,2.27,2,.57,3.73,2,5.85,2.41a.67.67,0,0,1,.59.92c-.19.65-.84.73-1.34.72-2.43,0-4.88-.07-7.3-.31-1.34-.13-2.67-.2-4-.24-2.29-.06-3.59-1.77-2.79-3.87a63.91,63.91,0,0,0,3.56-12.86c.43-2.75.69-5.53.88-8.3.13-1.85-.49-2.26-2.27-1.66-4.84,1.64-9.89,1.82-14.93,2a12.49,12.49,0,0,0-6.12,1.37,9.78,9.78,0,0,1-4.72,1.18,96.48,96.48,0,0,1-21.05-1.7c-2.23-.42-2.8.08-2.1,2.14,1.9,5.63,3.26,11.44,5.92,16.81A3.2,3.2,0,0,1,119,247c-3.1,3.24-7.09,3.67-11.27,3.38a2.57,2.57,0,0,1-2-1.62c-.71-1.44,0-2.55,1.54-2.21C109.71,247.14,111.79,246.21,114.2,245.24Zm7.68-77.6a17.81,17.81,0,0,0-7.44,0c-.78.26-1,1-1.37,1.58-1.8,2.81-3.41,5.75-5.91,8.1A167,167,0,0,1,93,189.13c-6.74,5.07-13.54,10.1-21.6,13.13-3,1.13-3.29,1.59-2.57,4.61.87,3.66,2.49,6.83,6.34,8.36,1,.4,2.1.75,2.78-.35a7,7,0,0,1,2.92-2.31,42.88,42.88,0,0,0,4.85-2.83c5.67-4.2,11.25-8.52,16.88-12.77,5.33-4,9.82-8.87,14.43-13.62,4.44-4.58,9.16-8.89,13.29-13.74,1-1.15.79-1.56-.63-1.76C127.11,167.48,124.49,167.77,121.88,167.64Zm-58.3-8.48c.53,2.46,2.08,2.86,3.6,3.37a44.52,44.52,0,0,0,19.77,2,30.7,30.7,0,0,1,5.57-.68,85,85,0,0,0,12.59-.07,75.89,75.89,0,0,1,9.84-.28c5.94.26,11.87,1.26,17.85.56,5.73-.67,11.49-1.16,17.2-2,4.37-.68,8.49-3.1,13.14-1.89a.93.93,0,0,0,.36,0,152.75,152.75,0,0,0,17.64-4.19c9.7-2.95,18.63-7.14,26.23-13.83,1.31-1.15,1.73-2.26,1-3.89-4.33-10-8.15-20.26-12-30.48-.44-1.15-.66-1.53-2.07-.84a70.49,70.49,0,0,1-20.23,6.75c-6.67,1-13.37,1.86-20.08,2.59-5.44.59-10.88,1.07-16.37.12a48.2,48.2,0,0,1-14.09-5.07c-.49-.25-1-.58-1-1.18s.74-.74,1.23-.89a17.41,17.41,0,0,1,4.46-.84,52.26,52.26,0,0,0,10.16-.88c15.82-3.68,30.25-10.53,44.18-18.5,1.64-.94,1.64-1.75.08-2.94a136.13,136.13,0,0,0-13.44-8.55c-3.37-2-6.63-4.2-10.46-5.36-7.22-2.2-14.66-3.3-22.12-4.33-1-.14-1.51.23-1.5,1.23,0,.71,0,1.43,0,2.14.22,6.29-1.07,12.4-2.4,18.49-.27,1.25-.57,2.71-1.88,3.33a13.08,13.08,0,0,1-7,1.53c-3.47-.37-5.76-2.81-5.62-6.12s.42-6.63.6-9.95c.17-3.16.31-6.32.46-9.59-1.18.42-2.14.77-3.1,1.09C110,72,103.82,73.82,97.79,76.15,88.66,79.69,81.5,86,74.86,92.84c-7.65,7.93-13.43,16.74-16.31,27.52a292.52,292.52,0,0,0-7.3,38.22c-.35,2.74-.3,2.86,2.43,3.22C57.14,162.26,60.91,163.83,63.58,159.16Zm22.71,58.16c5,.88,9.75,2.32,14.75,1.46a4.19,4.19,0,0,1,2.48.32,4.21,4.21,0,0,0,4.25-.41c1.14-.73,1.37-2,2.48-2.77a121.11,121.11,0,0,0,16-13.42c7.22-6.91,14.4-14,19.41-22.82a6.15,6.15,0,0,1,.45-.56c3-4,6.39-7.79,8.64-12.33.33-.66.72-1.43.3-2s-1.32-.29-2-.13c-3.12.73-6.24,1.85-9.44,1.75a10.12,10.12,0,0,0-8.14,3.62c-3.07,3.3-6,6.68-9.34,9.78a151.64,151.64,0,0,0-13.25,14.48c-6.48,7.91-13.67,15-22.77,20A10.35,10.35,0,0,0,86.29,217.32Zm36.1,3.5c1.8.41,3.43-.41,5-1.83q8.53-7.54,16.8-15.35c7.3-6.88,13.47-14.68,19.67-22.46a86.43,86.43,0,0,0,10.68-17.76c.55-1.18.34-1.62-1-1.48-3.08.32-6.16.59-9.24.88a3.1,3.1,0,0,0-2.42,1.66c-2.3,3.63-4.26,7.58-7.12,10.75-6,6.63-10.82,14.16-17.5,20.24-3.81,3.47-7,7.59-10.5,11.38-3.8,4.11-8,7.77-12.18,11.56-.38.34-1,.64-.74,1.3s.83.36,1.28.44A34.25,34.25,0,0,0,122.39,220.82Zm27.52-1.52a35.65,35.65,0,0,0,9-1.67c5.29-1.7,11-2.63,15.66-5.59a49.62,49.62,0,0,0,16-15.55A162.55,162.55,0,0,0,200,178.62c1.79-3.87,3.43-7.72,3.7-12,.2-3.08.3-6.16.45-9.44a7.2,7.2,0,0,0-2.06,1.91c-6.54,7.47-11.81,15.8-17,24.16a20.41,20.41,0,0,1-4.44,5.37,40.56,40.56,0,0,0-4.74,4.68c-6.15,6.82-12,13.9-19.53,19.43A35.49,35.49,0,0,0,149.9,219.3Zm-12.56-109c1.59,1.58,2.93,1.93,6.28,1.73,4.74-.28,9.49-.46,14.22-.84a163,163,0,0,0,22.58-2.91c3.1-.69,6.37-.82,9.14-2.74a34.1,34.1,0,0,0,9.19-8.81,12.19,12.19,0,0,0,2.09-7.25c-.05-2.26-1.11-3.15-3.42-3.24a16.71,16.71,0,0,0-7.68,1.94c-4.64,2.11-9,4.71-13.38,7.24-3.61,2.08-6.89,4.77-10.88,6.14-3.39,1.16-6.69,2.49-10,3.85s-6.5,3.09-10.15,3.3A41.9,41.9,0,0,0,137.35,110.33ZM136.11,219.4a8.79,8.79,0,0,0,1.13,0c.36-.06.7-.18,1.05-.27a20.2,20.2,0,0,0,8.73-5.28c4.93-4.68,10.12-9.09,14.74-14.1a160.28,160.28,0,0,1,13.48-13.55,40.31,40.31,0,0,0,6.11-6.57c1.54-2.06,3.05-4.15,4.67-6.16a156.24,156.24,0,0,0,14.12-20.33c.24-.42.9-1,.47-1.38s-1.12-.2-1.67.19c-3.16,2.21-6.81,3.41-10.37,4.76-2.06.78-4.17,1.42-4.4,4.08a2.57,2.57,0,0,1-.61,1.08,99.32,99.32,0,0,1-6.46,8.85c-6,6.65-11.42,13.73-16.89,20.78-4.44,5.72-8.31,11.87-13.47,17.06C143.26,212,139.84,215.58,136.11,219.4Zm-28-51.38c-4.78,0-9.16.14-13.52-.05a6.16,6.16,0,0,0-5.64,2.88c-5.65,7.64-12.27,14-22.41,15.41a1.38,1.38,0,0,0-1.33,1.62c.44,3.4.5,6.85,1.47,10.18.32,1.11.79,1.07,1.64.45A43.91,43.91,0,0,1,74,195c4.59-2.33,9.3-4.47,13.46-7.49C95,181.94,101.23,175,108.07,168Zm3.85-122.76c.4-4-.34-8.19-1.1-12.33-.64-3.49-1.35-7-2.18-10.43-.29-1.19-1-2.55-2.47-2.5s-2,1.35-2.27,2.64c-.08.4-.22.8-.3,1.2-1.3,6.09-.59,12.19.22,18.23s2.17,12.13,2.42,18.31a35.24,35.24,0,0,0,1.09,6.11c.19.85.53,1.74,1.65,1.9a3.27,3.27,0,0,0,3.83-3.93,5.18,5.18,0,0,1-.11-.88C112.43,57.53,112.18,51.49,111.91,45.25Zm3-6.81h-.09c.3,5.28.57,10.56.89,15.83.19,3.08.43,6.16.75,9.23.06.59-.28,1.56.68,1.78,1.89.42,4.67-1.4,5-3.17,1.85-10.67,1-21.29-.72-31.89-.22-1.41-1.37-2-2.43-1.41-2.62,1.53-4.44,3.51-4.09,6.77A26.62,26.62,0,0,1,114.92,38.44Zm19.88,5.38c-.13-2.6.09-5.25-.62-7.79-.25-.89.07-2.43-1.15-2.51s-1.52,1.33-2,2.28c-.05.11-.08.23-.12.33-2.34,5.55-4.47,11.15-4.59,17.27-.05,2.67-.29,5.34-.42,8,0,.65-.08,1.46.77,1.61a16.05,16.05,0,0,0,5.09,0c.71-.1.89-.81,1-1.38C133.49,55.72,135,49.87,134.8,43.82ZM63.89,166.19c-.81-.24-1,.28-.85,1.31.6,4.21,1.3,8.42,1.65,12.66.16,1.9.89,2,2.38,1.57a25.34,25.34,0,0,0,13.27-9.51,4.56,4.56,0,0,0,1-2.46c0-.55-.1-.91-.72-1Zm58.71-89.71c-.22,3.38.44,7.63.39,11.9,0,2.42,2.14,3.56,4.32,2.41a3.7,3.7,0,0,0,1.89-3.41c.18-2.83.53-5.65.63-8.48.09-2.6.78-5.17.31-7.78-.79-4.38-.79-4.38-5.23-3.43-.18,0-.36,0-.55,0a1.73,1.73,0,0,0-1.78,2C122.65,71.69,122.61,73.65,122.61,76.49Zm94,93.8c1.46-.37,2.94-.68,4.38-1.13a1.37,1.37,0,0,0,1-2.08,97,97,0,0,1-3.54-9.32c-.37-1.09-1.1-1.56-2.23-.83a28.44,28.44,0,0,1-5.78,2.59c-2,.75-2.15,1.07-.58,2.59a18.92,18.92,0,0,1,4.63,6.75A2,2,0,0,0,216.56,170.29ZM54.29,176.92a1.14,1.14,0,0,0,1.32-.84c1.05-3.14,2.13-6.27,3.2-9.4.21-.61.09-1-.66-1.15-2.19-.42-4.37-.89-6.55-1.34-.58-.12-1,.06-1,.66-.51,3.38-1,6.76-1.5,10.14-.07.46-.14,1,.53,1.14C51.11,176.41,52.66,176.65,54.29,176.92Zm120.62,39.55a10.14,10.14,0,0,1-1.64.76c-3.42.78-4.63,3-4.87,6.27a76.13,76.13,0,0,1-2.08,11.89c-.09.38-.37.86.13,1.11s.88-.21,1.16-.59.76-1.07,1.12-1.62C172.26,229,173.57,222.9,174.91,216.47ZM211,145.38c-2,2.63-3.59,5.37-5.28,8-.52.82-1,1.75-.13,2.59s1.94,1.6,3.37.86c1.87-1,3.77-1.88,5.66-2.82,1.13-.56,1.22-1.3.54-2.31C213.84,149.72,212.54,147.66,211,145.38Zm-95.79,96.86a3,3,0,0,0-.33-2.22c-2.42-4.36-3.32-9.25-5.1-13.82-1-2.61-1.25-2.73-4.28-2.33C108.18,230.24,109.83,237.09,115.25,242.23ZM51.37,189.58a2.87,2.87,0,0,0,1.6-2c.41-1.48.72-3,1.22-4.44.87-2.51.54-3.41-2.72-3.67-2.14-.17-2.57.33-2.52,2.38C49,184.66,50.51,187,51.37,189.58Zm173.12-12.11c-.07-.75-.09-1.29-.18-1.82-.82-4.61-.89-4.64-5.21-2.55-.73.35-1,.57-.37,1.34,1.26,1.44,2.4,3,3.61,4.47,1,1.2,1.34,1.15,1.88-.28A7.68,7.68,0,0,0,224.49,177.46Z"/><path class="cls-6" d="M63.58,159.16c-2.67,4.67-6.44,3.1-9.9,2.65-2.72-.36-2.78-.48-2.43-3.22a292.52,292.52,0,0,1,7.3-38.22c2.88-10.79,8.66-19.59,16.31-27.52C81.5,86,88.66,79.69,97.79,76.15c6-2.33,12.26-4.16,18.39-6.22,1-.32,1.93-.68,3.1-1.09-.16,3.27-.29,6.43-.46,9.59-.18,3.32-.46,6.63-.6,9.95s2.15,5.75,5.62,6.12a13.08,13.08,0,0,0,7-1.53c1.31-.62,1.61-2.08,1.88-3.33,1.33-6.09,2.62-12.2,2.4-18.49,0-.71,0-1.43,0-2.14,0-1,.48-1.37,1.5-1.23,7.46,1,14.91,2.13,22.12,4.33,3.82,1.16,7.08,3.38,10.46,5.36A136.13,136.13,0,0,1,182.68,86c1.56,1.19,1.56,2-.08,2.94-13.93,8-28.35,14.82-44.18,18.5a52.26,52.26,0,0,1-10.16.88,17.41,17.41,0,0,0-4.46.84c-.49.15-1.18.23-1.23.89s.49.93,1,1.18a48.2,48.2,0,0,0,14.09,5.07c5.49.95,10.93.47,16.37-.12,6.71-.73,13.41-1.56,20.08-2.59a70.49,70.49,0,0,0,20.23-6.75c1.41-.69,1.64-.31,2.07.84,3.85,10.22,7.67,20.44,12,30.48.7,1.63.28,2.74-1,3.89-7.6,6.69-16.54,10.88-26.23,13.83a152.75,152.75,0,0,1-17.64,4.19.93.93,0,0,1-.36,0c-4.65-1.21-8.77,1.21-13.14,1.89-5.71.89-11.47,1.37-17.2,2-6,.7-11.9-.3-17.85-.56a75.89,75.89,0,0,0-9.84.28,85,85,0,0,1-12.59.07,30.7,30.7,0,0,0-5.57.68,44.52,44.52,0,0,1-19.77-2C65.66,162,64.11,161.62,63.58,159.16Zm70.93-6.6c.06-3.12-.74-6.64-.61-10.21a42.18,42.18,0,0,0-.29-5.14c-.17-2-1-2.73-3.08-2.69-1.21,0-2.42.21-3.63.25a5.88,5.88,0,0,0-5.93,6.86c.81,5.26,1.74,10.51,2.68,15.76.46,2.54,2,3.82,4.7,4.16a5.16,5.16,0,0,0,5.29-3C134.58,156.78,134.44,154.88,134.51,152.56Zm8.55-55.17c-.05-1.62-1.45-3.32-2.71-3.3-1.62,0-3.25,2.08-3.14,4,.08,1.41,1.08,2.2,2.75,2.19A3,3,0,0,0,143.06,97.38ZM113.78,100c0,1.64.54,2.29,1.83,2.29,1.76,0,3.78-2.05,3.64-3.78s-1.46-1.7-2.68-1.72C114.81,96.81,113.76,98.07,113.78,100Z"/><path class="cls-7" d="M86.29,217.32a10.35,10.35,0,0,1,3.82-3c9.1-5.05,16.29-12.11,22.77-20a151.64,151.64,0,0,1,13.25-14.48c3.29-3.1,6.26-6.48,9.34-9.78a10.12,10.12,0,0,1,8.14-3.62c3.2.09,6.32-1,9.44-1.75.7-.16,1.56-.52,2,.13s0,1.36-.3,2c-2.24,4.53-5.65,8.29-8.64,12.33a6.15,6.15,0,0,0-.45.56c-5,8.78-12.19,15.92-19.41,22.82a121.11,121.11,0,0,1-16,13.42c-1.11.74-1.34,2-2.48,2.77a4.21,4.21,0,0,1-4.25.41,4.19,4.19,0,0,0-2.48-.32C96,219.64,91.32,218.2,86.29,217.32Z"/><path class="cls-7" d="M121.88,167.64c2.61.13,5.24-.15,7.85.21,1.42.2,1.61.6.63,1.76-4.13,4.86-8.86,9.17-13.29,13.74-4.6,4.75-9.1,9.6-14.43,13.62-5.63,4.25-11.21,8.57-16.88,12.77a42.88,42.88,0,0,1-4.85,2.83A7,7,0,0,0,78,214.88c-.68,1.1-1.78.75-2.78.35-3.85-1.53-5.47-4.7-6.34-8.36-.72-3-.45-3.48,2.57-4.61,8.07-3,14.86-8.05,21.6-13.13a167,167,0,0,0,14.12-11.85c2.5-2.35,4.1-5.28,5.91-8.1.38-.59.59-1.33,1.37-1.58Z"/><path class="cls-7" d="M122.39,220.82a34.25,34.25,0,0,1-7.24-.68c-.45-.08-1.06.14-1.28-.44s.36-1,.74-1.3c4.13-3.78,8.37-7.45,12.18-11.56,3.51-3.79,6.7-7.91,10.5-11.38,6.68-6.08,11.52-13.61,17.5-20.24,2.86-3.17,4.82-7.11,7.12-10.75a3.1,3.1,0,0,1,2.42-1.66c3.08-.3,6.16-.57,9.24-.88,1.36-.14,1.57.3,1,1.48a86.43,86.43,0,0,1-10.68,17.76c-6.2,7.79-12.37,15.59-19.67,22.46q-8.28,7.8-16.8,15.35C125.82,220.41,124.19,221.23,122.39,220.82Z"/><path class="cls-8" d="M149.9,219.3a35.49,35.49,0,0,1,6.44-6.55c7.49-5.53,13.39-12.6,19.53-19.43a40.56,40.56,0,0,1,4.74-4.68,20.41,20.41,0,0,0,4.44-5.37c5.21-8.36,10.48-16.69,17-24.16a7.2,7.2,0,0,1,2.06-1.91c-.15,3.27-.26,6.36-.45,9.44-.27,4.27-1.91,8.12-3.7,12a162.55,162.55,0,0,1-9.34,17.86,49.62,49.62,0,0,1-16,15.55c-4.7,3-10.37,3.9-15.66,5.59A35.65,35.65,0,0,1,149.9,219.3Z"/><path class="cls-9" d="M137.35,110.33a41.9,41.9,0,0,1,8-1.61c3.65-.21,6.86-1.93,10.15-3.3s6.6-2.69,10-3.85c4-1.36,7.27-4.05,10.88-6.14,4.4-2.54,8.75-5.14,13.38-7.24a16.71,16.71,0,0,1,7.68-1.94c2.31.1,3.37,1,3.42,3.24a12.19,12.19,0,0,1-2.09,7.25,34.1,34.1,0,0,1-9.19,8.81c-2.77,1.92-6,2-9.14,2.74a163,163,0,0,1-22.58,2.91c-4.73.38-9.48.56-14.22.84C140.28,112.26,138.94,111.92,137.35,110.33Z"/><path class="cls-10" d="M136.11,219.4c3.73-3.82,7.15-7.37,10.62-10.86,5.16-5.19,9-11.34,13.47-17.06,5.47-7.05,10.9-14.13,16.89-20.78a99.32,99.32,0,0,0,6.46-8.85,2.57,2.57,0,0,0,.61-1.08c.23-2.66,2.34-3.3,4.4-4.08,3.57-1.35,7.22-2.55,10.37-4.76.55-.38,1.25-.61,1.67-.19s-.23,1-.47,1.38A156.24,156.24,0,0,1,186,173.45c-1.62,2-3.13,4.09-4.67,6.16a40.31,40.31,0,0,1-6.11,6.57,160.28,160.28,0,0,0-13.48,13.55c-4.61,5-9.8,9.42-14.74,14.1a20.2,20.2,0,0,1-8.73,5.28c-.35.09-.7.21-1.05.27A8.79,8.79,0,0,1,136.11,219.4Z"/><path class="cls-7" d="M108.07,168c-6.83,7-13,13.93-20.65,19.46-4.16,3-8.87,5.17-13.46,7.49a43.91,43.91,0,0,0-5.69,3.53c-.86.62-1.32.66-1.64-.45-1-3.33-1-6.78-1.47-10.18a1.38,1.38,0,0,1,1.33-1.62c10.14-1.46,16.76-7.77,22.41-15.41A6.16,6.16,0,0,1,94.55,168C98.91,168.15,103.29,168,108.07,168Z"/><path class="cls-11" d="M111.91,45.25c.26,6.24.52,12.28.77,18.33a5.18,5.18,0,0,0,.11.88A3.27,3.27,0,0,1,109,68.39c-1.12-.17-1.46-1.05-1.65-1.9a35.24,35.24,0,0,1-1.09-6.11c-.24-6.18-1.6-12.21-2.42-18.31s-1.52-12.14-.22-18.23c.09-.4.22-.8.3-1.2.27-1.3.8-2.59,2.27-2.64s2.18,1.31,2.47,2.5c.83,3.45,1.54,6.94,2.18,10.43C111.58,37.06,112.32,41.2,111.91,45.25Z"/><path class="cls-11" d="M114.92,38.44a26.62,26.62,0,0,0,0-2.85c-.36-3.26,1.47-5.24,4.09-6.77,1.06-.62,2.21,0,2.43,1.41,1.67,10.6,2.57,21.22.72,31.89-.31,1.77-3.09,3.59-5,3.17-1-.21-.62-1.18-.68-1.78-.32-3.07-.56-6.15-.75-9.23-.33-5.28-.6-10.55-.89-15.83Z"/><path class="cls-11" d="M134.8,43.82c.22,6-1.31,11.9-2.06,17.84-.07.57-.25,1.28-1,1.38a16.05,16.05,0,0,1-5.09,0c-.85-.15-.8-1-.77-1.61.13-2.67.37-5.34.42-8,.12-6.12,2.25-11.71,4.59-17.27,0-.11.07-.23.12-.33.47-.95.86-2.35,2-2.28s.91,1.62,1.15,2.51C134.89,38.57,134.67,41.22,134.8,43.82Z"/><path class="cls-10" d="M63.89,166.19l16.69,2.56c.63.1.76.46.72,1a4.56,4.56,0,0,1-1,2.46,25.34,25.34,0,0,1-13.27,9.51c-1.48.45-2.22.33-2.38-1.57-.35-4.24-1-8.45-1.65-12.66C62.9,166.48,63.08,165.95,63.89,166.19Z"/><path class="cls-12" d="M122.61,76.49c0-2.84,0-4.8,0-6.76a1.73,1.73,0,0,1,1.78-2c.18,0,.37,0,.55,0,4.44-1,4.44-1,5.23,3.43.47,2.61-.22,5.19-.31,7.78-.1,2.83-.45,5.65-.63,8.48a3.7,3.7,0,0,1-1.89,3.41c-2.18,1.16-4.35,0-4.32-2.41C123,84.12,122.38,79.87,122.61,76.49Z"/><path class="cls-13" d="M216.56,170.29a2,2,0,0,1-2.14-1.42,18.92,18.92,0,0,0-4.63-6.75c-1.57-1.52-1.45-1.84.58-2.59a28.44,28.44,0,0,0,5.78-2.59c1.13-.73,1.86-.26,2.23.83a97,97,0,0,0,3.54,9.32,1.37,1.37,0,0,1-1,2.08C219.5,169.61,218,169.92,216.56,170.29Z"/><path class="cls-13" d="M54.29,176.92c-1.62-.27-3.17-.51-4.71-.79-.67-.12-.6-.68-.53-1.14.49-3.38,1-6.76,1.5-10.14.09-.59.46-.78,1-.66,2.18.45,4.36.92,6.55,1.34.74.14.87.54.66,1.15-1.07,3.13-2.15,6.26-3.2,9.4A1.14,1.14,0,0,1,54.29,176.92Z"/><path class="cls-14" d="M174.91,216.47c-1.34,6.43-2.65,12.49-6.18,17.83-.36.55-.73,1.09-1.12,1.62s-.59.87-1.16.59-.22-.73-.13-1.11a76.13,76.13,0,0,0,2.08-11.89c.24-3.28,1.45-5.49,4.87-6.27A10.14,10.14,0,0,0,174.91,216.47Z"/><path class="cls-15" d="M211,145.38c1.49,2.28,2.8,4.34,4.17,6.36.69,1,.59,1.75-.54,2.31-1.89.94-3.79,1.84-5.66,2.82-1.43.75-2.46,0-3.37-.86s-.39-1.77.13-2.59C207.45,150.75,209,148,211,145.38Z"/><path class="cls-14" d="M115.25,242.23c-5.42-5.15-7.07-12-9.72-18.37,3-.4,3.27-.28,4.28,2.33,1.78,4.58,2.69,9.46,5.1,13.82A3,3,0,0,1,115.25,242.23Z"/><path class="cls-15" d="M51.37,189.58c-.86-2.61-2.36-4.92-2.42-7.72,0-2,.39-2.55,2.52-2.38,3.26.26,3.59,1.15,2.72,3.67-.5,1.45-.81,3-1.22,4.44A2.87,2.87,0,0,1,51.37,189.58Z"/><path class="cls-15" d="M224.49,177.46a7.68,7.68,0,0,1-.28,1.16c-.54,1.43-.91,1.49-1.88.28-1.2-1.49-2.34-3-3.61-4.47-.67-.77-.36-1,.37-1.34,4.32-2.09,4.39-2.06,5.21,2.55C224.4,176.17,224.42,176.71,224.49,177.46Z"/><path class="cls-16" d="M121.88,167.64l-7.44,0A17.81,17.81,0,0,1,121.88,167.64Z"/><path class="cls-17" d="M134.51,152.56c-.07,2.33.07,4.23-.86,6a5.16,5.16,0,0,1-5.29,3c-2.72-.35-4.24-1.62-4.7-4.16-.94-5.24-1.87-10.49-2.68-15.76a5.88,5.88,0,0,1,5.93-6.86c1.21,0,2.42-.22,3.63-.25,2,0,2.92.72,3.08,2.69a42.18,42.18,0,0,1,.29,5.14C133.77,145.92,134.57,149.43,134.51,152.56Zm-9-6.32c0,1.6-.09,3.21,0,4.8.14,2,.37,4,1.95,5.58,1.31,1.28,2.21,1.1,2.71-.63a17.86,17.86,0,0,0,.89-8.36c-.55-3-.56-6.12-.81-9.18,0-.34.1-.75-.27-1-.77-.46-3.9,1.1-4.16,2C125.26,141.73,125.64,144,125.55,146.24Z"/><path class="cls-18" d="M143.06,97.38a3,3,0,0,1-3.1,2.85c-1.67,0-2.67-.78-2.75-2.19-.11-1.88,1.52-3.93,3.14-4C141.61,94.07,143,95.77,143.06,97.38Z"/><path class="cls-18" d="M113.78,100c0-2,1-3.24,2.78-3.21,1.22,0,2.55.09,2.68,1.72s-1.88,3.78-3.64,3.78C114.32,102.33,113.8,101.68,113.78,100Z"/><path class="cls-12" d="M125.55,146.24c.09-2.24-.29-4.51.32-6.72.26-.94,3.4-2.5,4.16-2,.36.22.24.63.27,1,.25,3.06.26,6.17.81,9.18a17.86,17.86,0,0,1-.89,8.36c-.5,1.73-1.4,1.91-2.71.63-1.58-1.55-1.81-3.57-1.95-5.58C125.46,149.44,125.55,147.84,125.55,146.24Z"/></g></svg>