<svg id="圖層_1" data-name="圖層 1" xmlns="http://www.w3.org/2000/svg" viewBox="0 0 778.46 927.9"><defs><style>.cls-1{fill:#0b0808;}.cls-1,.cls-10,.cls-11,.cls-12,.cls-13,.cls-14,.cls-15,.cls-2,.cls-3,.cls-4,.cls-5,.cls-6,.cls-7,.cls-8,.cls-9{fill-rule:evenodd;}.cls-2{fill:#b6cbde;}.cls-3{fill:#c03226;}.cls-4{fill:#202222;}.cls-5{fill:#bf3327;}.cls-6{fill:#cfaf43;}.cls-7{fill:#915843;}.cls-8{fill:#0e0d0d;}.cls-9{fill:#fdfefe;}.cls-10{fill:#328bac;}.cls-11{fill:#54953c;}.cls-12{fill:#c26f27;}.cls-13{fill:#c46e8e;}.cls-14{fill:#f5f5f6;}.cls-15{fill:#3784a2;}</style></defs><title>graphic</title><path class="cls-1" d="M350.45,119.05c2.12-4.12,5.34-7,8.46-9.86,6.51-6.06,13.29-4.48,16.57,3.85,1.63,4.14,2,8.59,2.74,12.93.47,2.59.74,5.22,1.11,7.83,1.64-.16,1.46-1.35,1.74-2.3,1.45-4.83,7.27-9.84,12-9.88,5.11,0,8,3.46,10,7.55a23.49,23.49,0,0,1,2.39,13.29,141.2,141.2,0,0,1-6.78,29.6c-2.28,6.87-2.15,7.07,5,6.61,10-.65,19.93-1.83,29.91-2.25,7.61-.33,15.08,1.07,21.27,5.93S463,194,461,201.75c-.92,3.59,0,5.63,3.67,7.16,25.56,10.67,46.51,27.45,64.23,48.58,11.51,13.71,21.25,28.36,25.43,46,2.85,12,5.18,24.15,7.31,36.3,6.39,36.53.26,71.42-14.9,104.86-7.36,16.25-15.57,32.14-26.91,46.1-6.32,7.78-12.8,15.42-19.3,23a7.38,7.38,0,0,0-2,5.19c.17,11.64,1.12,23.24,1.64,34.85.87,19.56,4.64,39,2.84,58.65-1.64,18-2.87,36.12-10,53.1-2.32,5.53-2.69,11.4-3.12,17.28-1.08,14.67-2.47,29.32-3.33,44-.76,12.94-2.16,25.8-3.84,38.63-1.16,8.84-1.19,18-5.72,26.12-1.15,2.07-2.26,3.93-5,3.54s-2.88-2.56-3.42-4.58c-2.25-8.3-2.82-16.83-3.37-25.33-1.54-23.8-3-47.61-3.73-71.46a17.34,17.34,0,0,0-.4-2.61c-1.85-10-1.84-9.92-12-8.2A81,81,0,0,1,438.68,684c-17.24.64-34.51,2.46-51.71,1-17.78-1.56-35.54-2.54-53.38-2.43a46.16,46.16,0,0,1-5.75,0c-4.22-.51-5.13,1.49-4.5,5.19,2,11.59,3.76,23.21,5.79,34.79a43.75,43.75,0,0,1,.47,7.48c0,10.48.06,21,0,31.44a130.79,130.79,0,0,0,1.09,20.71c.76,5-1.73,8.54-5.62,11.14-2.88,1.92-5.62,1.25-6.9-2-3.38-8.54-9.43-15.86-12.16-24.52-4.41-13.94-9.53-27.73-9.29-42.88.24-15.44-1.62-30.89-3-46.24a86.75,86.75,0,0,0-3.76-19.3c-5.45-16-5.51-32.37-7.21-48.67-1.61-15.38-3-30.81-2.39-46.29.5-13.56,1.67-27.1,8.68-39.25,1.46-2.53-.23-3.44-1.85-4.5-9-5.88-17.85-12.05-27.1-17.55-25-14.83-39-37.79-48.29-64.29-2.43-6.94-5.88-13.62-6.93-20.93a188.53,188.53,0,0,1-1.16-37.41c1.06-18.76,4.51-37.06,8.65-55.27,4.89-21.5,15.36-40.71,25.25-60.15,5.32-10.45,11.41-20.26,20.12-28.32a101.45,101.45,0,0,1,12.07-9.65c2.87-1.94,3.54-4.29,2.85-7.6a39,39,0,0,1,.74-17.94c.83-3.17,3.32-5.19,6.19-6.58,12.15-5.88,24.66-10.37,38.36-10.91,9.92-.4,9.94-.89,8.5-10.68-1.41-9.61-1.79-19.33-2.23-29-.28-6.22-.53-12.32,1.12-18.35a33.7,33.7,0,0,1,8.93-15c4-4,6.24-3.92,9.83.35,1.14,1.35,2.16,2.8,3.2,4.23S349.29,117.42,350.45,119.05ZM335.86,664.89c-9.25,1.32-17.28-2.76-25.55-5.78-4.47-1.63-8.91-3.31-13.73-5.1.66,8.08,2,15,10.39,17.38,5.51,1.59,11,3.2,16.63,4.4,9.53,2,19.15-.74,29,1.22,15.78,3.15,32,.7,48.1,1.77,25.21,1.69,49.91-3.16,74.58-7.47,10.77-1.88,17.12-11.9,14.82-23.22-11.8,12.19-27.11,15.54-42.81,16.67-20.54,1.48-41.17,3.33-61.76.12-1.1-1-2.49-.8-3.79-.81q-21,0-42.06,0C338.36,664.09,337,663.84,335.86,664.89ZM494.42,587c.61-20.52-1.66-40.88-3.17-61.29-.49-6.63-.46-6.46-7.1-5.88-17.59,1.54-35.2,2.91-52.8,4.35l-37.91,0c-3.52-.32-7-.85-10.57-.94a641.88,641.88,0,0,0-80.35,3.27c-8.62.88-11.14,3.87-11.92,12.63a263.4,263.4,0,0,0-.18,39.32c1.06,17.36,1.73,34.74,2.83,52.1.48,7.64,3,14.67,10,18.74,9.24,5.38,19.07,9.36,30,9.38,13,0,25.95,0,38.92-.08,17.41-.08,34.69,2.72,52.13,2.09,16.4-.6,32.72-1.71,48.29-7.33,15-5.42,23-16.76,22.5-31.07,0-8.77.09-17.54-.06-26.31C495.05,593,495.87,589.93,494.42,587ZM209.73,396.34c.21,3.07.21,8,.93,12.75,3.08,20.56,12,38.88,22.38,56.54a61.92,61.92,0,0,0,17.74,19.52c11,7.7,21.27,16.33,32,24.39,10.93,8.22,23.19,11.17,36.59,9.79,14.08-1.45,28.2-1.95,42.34-2.3,21.23-.52,42.42.85,63.63,1.44,18.58.51,37-2,55.5-3.77,8.4-.81,15-4.78,20.72-10.6,4.49-4.55,7.72-10,11.43-15.15,19.72-27.28,35.61-56.35,42.06-89.88,3.11-16.16,4.43-32.46,1.88-48.66-2.35-14.91-6.39-29.55-9.43-44.37-3.36-16.43-10.35-30.91-22.32-42.78-9-8.93-18-17.85-27.33-26.46-11.14-10.32-24.11-17.78-38.3-23.11-3.38-1.27-6.93-2.22-10.19-.07a15.16,15.16,0,0,1-8.24,2.56c-3.08.09-6.15.57-9.22.92-19,2.16-38.09,3.75-57.19,5.07q-23.58,1.62-47.16,3.25c-14.69,1-29.38,2.1-44.08,2.77a19.87,19.87,0,0,0-11,3.82c-12.28,8.51-21.05,20-28.68,32.59C219.62,304.56,212,348.85,209.73,396.34ZM345.21,186.39c-5.67.67-11.34,1.9-17,1.91-15.06,0-28.65,5.85-42.57,10.3-5.76,1.84-8.61,8.91-7.3,16a11.72,11.72,0,0,0,10.5,9.29c10.47.55,20.8-1.27,31.19-2,11.09-.8,22.14-2.27,33.22-3.24,9.06-.79,18.16-1.14,27.21-1.92,11.82-1,23.61-2.27,35.42-3.43,9.19-.9,18.38-1.75,27.55-2.78a10.49,10.49,0,0,0,7.89-4.25c3.06-4.33,3.31-13.66.38-18.09-1.22-1.84-2.93-3.17-5.07-3.13-4.73.08-9.31-1.09-14.05-1.07-13.09.06-26.12.94-39.18,1.72C377.36,186.57,361.26,184.86,345.21,186.39Zm-23.88,595c-.46-7.08-1-12.87-1.18-18.67q-1.29-38.39-5.72-76.53c-.44-3.82-1.23-6.6-5.76-7.49-7.05-1.39-7-1.66-6.79,5.64.74,24.59,3.06,49,10.1,72.69A137.55,137.55,0,0,0,321.34,781.4Zm9.92-637.6c-.16,11.25,0,20.59,2.21,29.64,2.44,9.89,0,9.4,11.26,8.05,5.72-.69,6.24-1.45,6.37-7.3.29-13.35-2.27-26.38-4.34-39.47-.85-5.36-1.12-10.91-4.7-15.44-3.22-4.09-4.23-4.07-6.91.2a24.1,24.1,0,0,0-3,7.31C330.62,133.06,331.49,139.43,331.26,143.8Zm36.1-33.27c-6,3.65-11.66,7.15-12,14.93-.71,17.12,1.55,34.12,2.13,51.19.08,2.36,1.18,3.12,3.6,3.18,9.88.24,9.88.33,10.08-9.61,0-.3,0-.59,0-.88.44-13.39,1.62-26.77,0-40.17C370.47,122.92,369.74,116.69,367.36,110.53ZM484.74,680.9c.15-5.12.15-5.1-5-3.8a68.19,68.19,0,0,1-8.58,2c-4,.46-4.38,2.48-3.93,6,2.26,17.51,4.43,35,4.22,52.75a152.81,152.81,0,0,0,2.61,31.6c.19,1-.15,2.4,1.26,2.45,1.93.07,1.23-1.65,1.32-2.65.72-7.46,1.35-14.94,2-22.4Q481.68,713.85,484.74,680.9ZM379,167.75c0,2.94,0,5.89,0,8.83,0,.85-.15,1.76.7,2.41,3.56,2.72,11.1,0,11.62-4.47,1.26-10.66,3.79-21.1,5.38-31.69.5-3.32,1.62-6.61,1.13-10-.61-4.29-3.9-5.59-7.26-2.88a19.48,19.48,0,0,0-4.32,5.54C380.41,145.43,379.15,156.46,379,167.75Z"/><path class="cls-2" d="M209.73,396.34c2.3-47.49,9.89-91.77,34.08-131.75,7.62-12.6,16.4-24.08,28.68-32.59a19.87,19.87,0,0,1,11-3.82c14.71-.67,29.39-1.79,44.08-2.77q23.58-1.59,47.16-3.25c19.1-1.31,38.17-2.91,57.19-5.07,3.07-.35,6.14-.83,9.22-.92a15.16,15.16,0,0,0,8.24-2.56c3.26-2.14,6.82-1.19,10.19.07,14.19,5.34,27.17,12.79,38.3,23.11,9.3,8.62,18.33,17.54,27.33,26.46,12,11.87,19,26.35,22.32,42.78,3,14.81,7.08,29.45,9.43,44.37,2.55,16.2,1.23,32.51-1.88,48.66-6.45,33.53-22.34,62.59-42.06,89.88-3.7,5.12-6.94,10.6-11.43,15.15-5.75,5.83-12.32,9.8-20.72,10.6-18.47,1.78-36.93,4.28-55.5,3.77-21.21-.59-42.4-2-63.63-1.44-14.13.35-28.26.84-42.34,2.3-13.4,1.38-25.66-1.57-36.59-9.79-10.71-8.06-21-16.69-32-24.39A61.92,61.92,0,0,1,233,465.63c-10.38-17.66-19.3-36-22.38-56.54C209.94,404.3,209.94,399.41,209.73,396.34Zm188.34,82c1.37,1.81,2.43,3.22,3.5,4.61,9.53,12.4,22.14,19.79,37.55,21.68,25.82,3.17,45.59-11.14,51.79-36.55,4.53-18.6-.38-34-15.87-45.16-12.3-8.85-26.82-10.59-41.66-9.93a16.21,16.21,0,0,0-8.87,3.48c-10.62,7.62-20.83,15.57-25,28.82-.39-.26-.53-.3-.58-.4-.42-.77-.75-1.59-1.24-2.32-11-16.47-23.53-31-45.34-31.65-17.27-.54-31.74,5.8-41.9,20.11-8.66,12.2-8.15,26.44-5.92,40.07,2.87,17.54,15.12,27.61,31.46,33,21.86,7.16,41,2.13,53.79-14.06C392.62,486.47,395.07,482.62,398.07,478.37ZM348,338.62a92.1,92.1,0,0,0,5.88-15.28A36.74,36.74,0,0,0,352,296.27c-3.44-7.45-9.1-13-14.91-18.43-8.53-8-18.85-10.5-30.19-9.41s-19.55,8.45-27.82,15.23c-7.22,5.91-13.6,12.69-16.79,21.79-5,14.32,2.8,37.61,16.89,47.59,13.55,9.61,28.83,9.89,44.4,5.78,7.17-1.89,13.19-6.07,19.9-11.09-1,3.57-1.72,6.07-2.3,8.62-1,4.43-2.45,8.81-1.64,13.48A77.28,77.28,0,0,0,349,395.75c4.74,8.15,11.42,13.65,20.86,15.65,20.51,4.35,36.47-3.71,50.14-18.12a12.72,12.72,0,0,0,2.67-5c3.24-10.19,5-20.57,4.35-31.29-.73-11.56-4.82-20.93-15.77-26.71-18.8-9.92-43.23-7.32-59,6.73C351.24,337.93,350.49,339.47,348,338.62ZM271.48,448a37.57,37.57,0,0,0,7-.58c25.92-6.08,39.62-26.45,35.09-52.52-1.26-7.28-3.21-14.2-9-19.66-8.35-7.94-17.27-13.72-29.49-11.5a16,16,0,0,1-4,0c-10.7-.8-20.32,2.49-29.31,7.91-18.09,10.89-23.75,34.81-11.59,51.24a71.66,71.66,0,0,0,27.94,22.43A27.3,27.3,0,0,0,271.48,448ZM524.71,363.1c.06-13.92-3.58-21.84-14.19-30.75a19.14,19.14,0,0,0-13.29-5c-8.83.28-17.62,1.28-26.42,1.59-21.44.75-41.62,27.74-37.82,47.76,2.89,15.27,13.11,29.07,27,32.87a59.13,59.13,0,0,0,32.25-.26C512,403.75,524.61,385.68,524.71,363.1Z"/><path class="cls-3" d="M495.16,622.34c.5,14.31-7.47,25.65-22.5,31.07-15.57,5.62-31.9,6.73-48.29,7.33-17.44.63-34.72-2.17-52.13-2.09-13,.06-25.94.11-38.92.08-11,0-20.79-4-30-9.38-7-4.07-9.55-11.1-10-18.74-1.1-17.36-1.77-34.74-2.83-52.1a263.4,263.4,0,0,1,.18-39.32c.77-8.76,3.29-11.75,11.92-12.63a641.88,641.88,0,0,1,80.35-3.27c3.53.08,7,.61,10.57.94,1.25,1.06,2.78.78,4.21.79,9.09,0,18.19.08,27.28-.06,2.12,0,4.42.64,6.41-.74,17.6-1.44,35.21-2.81,52.8-4.35,6.64-.58,6.61-.76,7.1,5.88,1.51,20.41,3.77,40.77,3.17,61.29,0,7.45-.1,14.9.09,22.35C494.63,613.69,493.68,618.08,495.16,622.34Zm-20.34-52c0-8.93.73-17.88-.7-26.78,0-2.07-.06-4.13-.11-6.19-.14-5.46-2.18-7.29-7.47-6.31-3.9.73-7.76,1.73-11.61,2.73-10.26,2.67-10.28,2.7-10.24,13.09,0,9.73-.22,19.47.91,29.17.66,5.6,2.07,7.24,7.65,7.87,5.79.66,11.42-.72,17-1.9,2.6-.55,4-2.55,4.3-5.07C474.86,574.79,474.75,572.56,474.82,570.35ZM392,651.53c10.49-.05,19-2.11,27.44-4,8.75-1.92,13.93-7.8,15.48-16.27,2-11-1.8-21.31-7.45-30.2-10.36-16.3-24.73-21.65-46.2-15.31-12.94,3.82-21.51,11.75-24.79,25.05a147.54,147.54,0,0,0-3.58,21.34c-.6,6.25,1.92,10.57,7.56,13.15C371,650.15,382.47,650.34,392,651.53Zm24.25-100c.7-5.5-2.23-9.49-7.48-12.13q-3.94-2-7.85-4c-2-1.06-4.46-1.6-4.14-4.87.16-1.63-1.51-2.35-2.84-1.89-4,1.41-9.66-.32-11.42,5.88-.52,1.82-2.85,2.43-4.59,3.22a27.81,27.81,0,0,0-7.77,5,14.5,14.5,0,0,0,3,23.55,37.59,37.59,0,0,0,5.24,2.32,12,12,0,0,1,6.75,5.12c2.78,4.52,6.79,4.9,11.31,2,3.11-2,6.28-3.83,9.55-5.51C413.45,566.44,416.34,560.16,416.26,551.53ZM303.9,641.15c.08-2.34-1.13-3.92-1.81-5.66a2.46,2.46,0,0,0-3.59-1.49c-1.87,1-.86,2.47-.15,3.77C299.47,639.81,301,641.28,303.9,641.15Zm2.46-16.57c-1.23,1.14-2.59,2.27-2.36,4s1.16,3.37,2.95,3.16a2.4,2.4,0,0,0,1.87-3.34C308.26,627,308.17,625.23,306.36,624.58Z"/><path class="cls-4" d="M345.21,186.39c16-1.52,32.15.18,48.16-.76,13.06-.78,26.09-1.66,39.18-1.72,4.74,0,9.33,1.15,14.05,1.07,2.14,0,3.85,1.29,5.07,3.13,2.94,4.43,2.68,13.76-.38,18.09a10.49,10.49,0,0,1-7.89,4.25c-9.17,1-18.36,1.88-27.55,2.78-11.8,1.16-23.6,2.41-35.42,3.43-9.06.78-18.16,1.13-27.21,1.92-11.08,1-22.13,2.44-33.22,3.24-10.39.75-20.72,2.57-31.19,2a11.72,11.72,0,0,1-10.5-9.29c-1.32-7,1.53-14.11,7.3-16,13.92-4.45,27.51-10.26,42.57-10.3C333.87,188.29,339.54,187.06,345.21,186.39Z"/><path class="cls-5" d="M385.48,664.88c20.59,3.21,41.22,1.37,61.76-.12,15.7-1.13,31-4.48,42.81-16.67,2.3,11.32-4,21.34-14.82,23.22-24.67,4.31-49.37,9.16-74.58,7.47-16.06-1.08-32.33,1.38-48.1-1.77-9.8-2-19.43.82-29-1.22-5.6-1.2-11.12-2.81-16.63-4.4-8.4-2.42-9.72-9.31-10.39-17.38,4.82,1.79,9.26,3.47,13.73,5.1,8.27,3,16.3,7.11,25.55,5.78Z"/><path class="cls-6" d="M321.34,781.4A137.55,137.55,0,0,1,312,757c-7-23.71-9.36-48.09-10.1-72.69-.22-7.31-.26-7,6.79-5.64,4.53.89,5.33,3.68,5.76,7.49q4.37,38.16,5.72,76.53C320.36,768.53,320.88,774.32,321.34,781.4Z"/><path class="cls-5" d="M331.26,143.8c.23-4.37-.64-10.74.87-17a24.1,24.1,0,0,1,3-7.31c2.69-4.27,3.69-4.29,6.91-.2,3.58,4.54,3.85,10.09,4.7,15.44,2.07,13.09,4.63,26.12,4.34,39.47-.13,5.85-.65,6.62-6.37,7.3-11.25,1.35-8.81,1.83-11.26-8.05C331.24,164.39,331.11,155,331.26,143.8Z"/><path class="cls-5" d="M367.36,110.53c2.38,6.16,3.11,12.39,3.86,18.64,1.62,13.4.44,26.78,0,40.17,0,.3,0,.59,0,.88-.2,9.94-.2,9.84-10.08,9.61-2.42-.06-3.52-.82-3.6-3.18-.58-17.07-2.84-34.07-2.13-51.19C355.7,117.68,361.4,114.18,367.36,110.53Z"/><path class="cls-5" d="M379,167.75c.1-11.29,1.37-22.32,7.25-32.31a19.48,19.48,0,0,1,4.32-5.54c3.36-2.71,6.65-1.41,7.26,2.88.49,3.43-.63,6.72-1.13,10-1.59,10.6-4.12,21-5.38,31.69-.52,4.42-8.06,7.19-11.62,4.47-.85-.65-.69-1.56-.7-2.41C379,173.64,379,170.69,379,167.75Z"/><path class="cls-7" d="M385.48,664.88H335.86c1.09-1,2.5-.8,3.78-.8q21-.06,42.06,0C383,664.08,384.38,663.87,385.48,664.88Z"/><path class="cls-7" d="M431.36,524.2c-2,1.38-4.29.71-6.41.74-9.09.14-18.19.09-27.28.06-1.43,0-3,.28-4.21-.79Z"/><path class="cls-8" d="M398.07,478.37c-3,4.26-5.45,8.1-8.26,11.67C377,506.22,357.88,511.25,336,504.1c-16.34-5.35-28.59-15.41-31.46-33-2.23-13.63-2.74-27.87,5.92-40.07,10.15-14.31,24.63-20.66,41.9-20.11,21.81.69,34.35,15.18,45.34,31.65.48.72.82,1.55,1.24,2.32.05.09.2.14.58.4,4.15-13.25,14.37-21.2,25-28.82a16.21,16.21,0,0,1,8.87-3.48c14.84-.66,29.35,1.08,41.66,9.93,15.49,11.14,20.4,26.56,15.87,45.16-6.2,25.41-26,39.72-51.79,36.55-15.4-1.89-28-9.28-37.55-21.68C400.5,481.58,399.44,480.17,398.07,478.37Zm-45.94-61.43c-7.23-.07-13.36,2-19.54,4-3.44,1.09-5,3.35-5.3,6.76-.58,6.81-.27,13.54,2,20.06,5.15,15.08,16.56,24.65,29.25,33.05a42.48,42.48,0,0,0,20.2,7c3.35.28,6.26-.71,8-3.61,4.45-7.37,7.56-15,7.54-24,0-21.59-17.29-34.38-35.37-42.23A15.46,15.46,0,0,0,352.13,416.94Zm75.68,58.7c10.15-.67,21.13-2.56,31.38-7.37,11.8-5.53,19.14-14.76,22.14-27.51a5.91,5.91,0,0,0-1.88-6.26c-10.64-10.52-23.54-15.31-38.34-15.1-7.63.11-14.66,1.64-20.74,7.13-9.29,8.4-15.16,18-15.58,30.91-.32,9.73,1.77,13.7,11,16.73C419.37,475.32,423,475.62,427.82,475.64Zm-49.41,17.42c-32.57-10.31-54.87-29.19-57.45-65.32-16.8,12.68-14,44.6-3.74,57.77C327.9,499.21,360,510.21,378.41,493.06Zm107.11-45.83c-2.07,3-3.53,5.21-5,7.36-9,12.8-20.86,21.35-36.34,24.68-10.4,2.24-20.77,1.74-31.17.33-.84-.11-1.82-.92-2.46-.07s0,2,.48,2.87A19.8,19.8,0,0,0,421.58,492c14.67,6,29.56,5.4,44.51,1.22a14.74,14.74,0,0,0,8.13-5.77c2.23-3.12,4.53-6.18,6.69-9.34C487.18,468.88,488.32,458.88,485.52,447.23Z"/><path class="cls-8" d="M348,338.62c2.44.85,3.2-.69,4.24-1.62,15.79-14.05,40.22-16.65,59-6.73,10.94,5.77,15,15.14,15.77,26.71.68,10.72-1.11,21.11-4.35,31.29a12.72,12.72,0,0,1-2.67,5c-13.67,14.41-29.63,22.47-50.14,18.12-9.44-2-16.12-7.5-20.86-15.65a77.28,77.28,0,0,1-9.48-25.92c-.8-4.67.63-9,1.64-13.48.58-2.55,1.34-5.05,2.3-8.62-6.7,5-12.73,9.2-19.9,11.09-15.57,4.11-30.85,3.83-44.4-5.78-14.09-10-21.91-33.27-16.89-47.59,3.19-9.1,9.58-15.88,16.79-21.79,8.28-6.78,16.43-14.13,27.82-15.23s21.65,1.41,30.19,9.41c5.81,5.45,11.46,11,14.91,18.43a36.74,36.74,0,0,1,1.88,27.07A92.1,92.1,0,0,1,348,338.62Zm73.8,23c.5-9-.9-17.61-8.76-23.31C392,323.06,362.21,327,347.95,351.9c-2.38,4.15-3.64,8.66-1.22,13,5,9.13,11.65,16.58,22.43,19.17a131.23,131.23,0,0,0,21.81,3,38.59,38.59,0,0,0,23.86-6.36c4.26-2.7,6.79-6.46,7-11.58C421.93,366.65,421.85,364.14,421.85,361.64Zm-107.52-87.9c-18.4-.26-42.9,18.57-47.35,35.69-.78,3-.05,5.5,2.68,7.28,3.83,2.48,7.49,5.24,11.44,7.5,10.06,5.74,20.52,9.32,32.18,4.9,1.09-.41,2.28-.58,3.41-.89,10.55-2.92,20.16-7.4,26.95-16.47,3.78-5.05,4.09-9.91.83-15.16a93.43,93.43,0,0,0-10.93-14.38C328,276.3,321.14,274.08,314.32,273.74ZM268,322.26c2.95,10.64,7.44,19.82,16.28,26.29a21.16,21.16,0,0,0,11.41,4.4c10,.46,20.06.27,29.77-2.55,11.8-3.43,20.92-15.17,21-26.22,0-3.79-.86-4.3-4.19-2.37-8.65,5-17.31,10-27,13-14.86,4.64-28.14,2.63-39.66-8.34A19.17,19.17,0,0,0,268,322.26Zm78.9,53.59c-.78,3.1.42,5.22,1.3,7.31a62.32,62.32,0,0,0,11.37,17.25c3.22,3.61,7.38,5.18,12,5.86a45,45,0,0,0,14,0c11.47-1.92,20.4-7.68,27.76-18.11C388.68,394.9,366.06,394.76,346.92,375.85Z"/><path class="cls-8" d="M271.48,448a27.3,27.3,0,0,1-13.27-2.68,71.66,71.66,0,0,1-27.94-22.43c-12.17-16.43-6.5-40.35,11.59-51.24,9-5.42,18.61-8.71,29.31-7.91a16,16,0,0,0,4,0c12.21-2.22,21.14,3.56,29.49,11.5,5.74,5.46,7.69,12.38,9,19.66,4.53,26.06-9.17,46.44-35.09,52.52A37.57,37.57,0,0,1,271.48,448Zm2-77.71c-12.24-1.46-22.48,1.51-30.28,11.17a53.86,53.86,0,0,0-9.78,18.12c-3.33,10.86,1.34,17.9,12.41,19.29l.88.1a55.08,55.08,0,0,0,56.16-28.58c1.6-3,1.32-5.37-.88-8C294.41,373.26,285.52,367.61,273.45,370.31Zm33.35,23.64c-1.47.38-1.79,1.45-2.37,2.25A80.39,80.39,0,0,1,289,412.54c-13.28,10.5-28.57,13.08-45,11.29-1-.1-2.12-.85-2.7.52s.73,1.76,1.5,2.31c4.4,3.2,8.72,6.54,13.29,9.48,6.08,3.91,12.85,6.09,20.09,5.23,17.38-2.09,30-14.7,31.83-32C308.64,404.28,309.59,398.87,306.8,393.95Z"/><path class="cls-8" d="M392,651.53c-9.54-1.19-21-1.38-31.54-6.21-5.64-2.58-8.16-6.9-7.56-13.15a147.54,147.54,0,0,1,3.58-21.34c3.28-13.3,11.86-21.23,24.79-25.05,21.47-6.35,35.84-1,46.2,15.31,5.64,8.88,9.45,19.2,7.45,30.2-1.55,8.48-6.73,14.35-15.48,16.27C411,649.42,402.49,651.47,392,651.53Zm-3.16-5.14c12.73,0,22.88-2.51,33-5.28,4.91-1.35,8.43-6.2,7.24-9.6-1.66-4.77-3.89-9.25-8.53-12-10.37-6-21.47-8.65-33.39-6.71-9.61,1.57-18.48,4.8-25.11,12.52-5.8,6.77-4.64,12.29,3.68,15.81C373.75,644.6,382.19,646.47,388.84,646.39Zm-28.17-27.82c21.87-15.7,43.71-14.19,66-3.21a26.34,26.34,0,0,0-11.13-19.57c-12-8.45-33.49-8.15-45.12.7C363.43,601.8,360.56,609,360.67,618.57Z"/><path class="cls-8" d="M416.26,551.53c.08,8.63-2.82,14.9-10.25,18.7-3.27,1.67-6.45,3.55-9.55,5.51-4.52,2.85-8.54,2.47-11.31-2a12,12,0,0,0-6.75-5.12,37.59,37.59,0,0,1-5.24-2.32,14.5,14.5,0,0,1-3-23.55,27.81,27.81,0,0,1,7.77-5c1.74-.79,4.07-1.4,4.59-3.22,1.77-6.2,7.38-4.48,11.42-5.88,1.33-.46,3,.26,2.84,1.89-.32,3.27,2.13,3.81,4.14,4.87q3.91,2.05,7.85,4C414,542,417,546,416.26,551.53Zm-31.45,9.54c-.7-6.32-1.3-11.71-1.89-17.1-.13-1.2-.19-2.17-2-2-5.55.51-10.48,5.34-10.54,10.6a11,11,0,0,0,10.5,11.33C383.66,564.08,385.74,563.77,384.81,561.07Zm14.82-12.89h-.08c.34,5,.82,10,1,15,.08,2.71,1.08,3,3.25,2,5.15-2.19,7.68-6.21,8.13-11.61a11.13,11.13,0,0,0-6.65-11.44c-1.72-.82-3.77-2-5.45-1s0,3.17-.28,4.8A9.65,9.65,0,0,0,399.63,548.18ZM396,559.74c.06-8.46-2.26-15.74-4.59-23-.24-.76-.4-2-1.5-1.8a4.43,4.43,0,0,0-2,1.51c-1.15,1.23-.68,2.8-.6,4.21.29,5.13.67,10.26,1,15.38.26,3.51.51,7,.85,10.54.19,2,1,4.39,2.85,4.46,1.63.07,2.94-2,3.23-4.13C395.59,564.29,396.2,561.71,396,559.74Z"/><path class="cls-1" d="M474.82,570.35c-.06,2.21,0,4.44-.23,6.62-.32,2.52-1.7,4.52-4.3,5.07-5.61,1.18-11.24,2.56-17,1.9-5.58-.64-7-2.27-7.65-7.87-1.13-9.7-.88-19.44-.91-29.17,0-10.39,0-10.41,10.24-13.09,3.85-1,7.71-2,11.61-2.73,5.28-1,7.33.85,7.47,6.31.05,2.06.07,4.13.11,6.19C474.11,552.5,473.44,561.45,474.82,570.35Zm-24.6-10.62c-.4,4.32.31,9.13.81,13.95.46,4.4,2.84,6.91,6.5,7,5,.12,10-4.47,10.22-9.64.38-8.06.71-16.13.89-24.2.26-11.21,1-11.22-11.22-8.49-3.27.73-5.81,2.51-6.26,6C450.53,549.23,449.62,554.16,450.22,559.73Z"/><path class="cls-8" d="M303.9,641.15c-2.93.13-4.43-1.34-5.55-3.38-.71-1.3-1.72-2.8.15-3.77a2.46,2.46,0,0,1,3.59,1.49C302.77,637.22,304,638.81,303.9,641.15Z"/><path class="cls-1" d="M306.36,624.58c1.81.65,1.9,2.44,2.45,3.81a2.4,2.4,0,0,1-1.87,3.34c-1.78.22-2.74-1.56-2.95-3.16S305.13,625.72,306.36,624.58Z"/><path class="cls-9" d="M352.13,416.94a15.46,15.46,0,0,1,6.75,1c18.08,7.85,35.32,20.64,35.37,42.23,0,9-3.09,16.64-7.54,24-1.75,2.9-4.66,3.89-8,3.61a42.48,42.48,0,0,1-20.2-7c-12.69-8.4-24.1-18-29.25-33.05-2.23-6.53-2.54-13.26-2-20.06.29-3.41,1.86-5.68,5.3-6.76C338.77,418.95,344.9,416.86,352.13,416.94Z"/><path class="cls-9" d="M427.82,475.64c-4.78,0-8.44-.32-12-1.47-9.27-3-11.36-7-11-16.73.42-12.91,6.29-22.51,15.58-30.91,6.08-5.49,13.11-7,20.74-7.13,14.8-.21,27.7,4.58,38.34,15.1a5.91,5.91,0,0,1,1.88,6.26c-3,12.75-10.34,22-22.14,27.51C448.95,473.08,438,475,427.82,475.64Z"/><path class="cls-10" d="M378.41,493.06c-18.39,17.15-50.51,6.15-61.19-7.55C307,472.33,304.16,440.41,321,427.74,323.54,463.87,345.84,482.75,378.41,493.06Z"/><path class="cls-11" d="M485.52,447.23c2.8,11.65,1.66,21.65-4.61,30.83-2.16,3.16-4.46,6.23-6.69,9.34a14.74,14.74,0,0,1-8.13,5.77c-15,4.18-29.84,4.74-44.51-1.22A19.8,19.8,0,0,1,411,482.41c-.46-.91-1.18-1.94-.48-2.87s1.62,0,2.46.07c10.4,1.4,20.77,1.91,31.17-.33,15.49-3.33,27.34-11.88,36.34-24.68C482,452.45,483.45,450.27,485.52,447.23Z"/><path class="cls-9" d="M314.32,273.74c6.81.34,13.72,2.55,19.21,8.47a93.43,93.43,0,0,1,10.93,14.38c3.26,5.25,3,10.11-.83,15.16-6.79,9.07-16.4,13.54-26.95,16.47-1.13.31-2.32.48-3.41.89-11.65,4.42-22.12.83-32.18-4.9-4-2.25-7.61-5-11.44-7.5-2.74-1.78-3.46-4.27-2.68-7.28C271.43,292.32,295.92,273.48,314.32,273.74Z"/><path class="cls-5" d="M268,322.26a19.17,19.17,0,0,1,7.65,4.21c11.52,11,24.8,13,39.66,8.34,9.66-3,18.32-8,27-13,3.33-1.93,4.23-1.42,4.19,2.37-.1,11.05-9.22,22.79-21,26.22-9.71,2.83-19.76,3-29.77,2.55a21.16,21.16,0,0,1-11.41-4.4C275.46,342.08,271,332.9,268,322.26Z"/><path class="cls-9" d="M421.85,361.64c0,2.5.09,5,0,7.51-.21,5.12-2.75,8.88-7,11.58A38.59,38.59,0,0,1,391,387.09a131.23,131.23,0,0,1-21.81-3c-10.77-2.58-17.39-10-22.43-19.17-2.42-4.38-1.15-8.88,1.22-13C362.21,327,392,323.06,413.09,338.33,421,344,422.35,352.6,421.85,361.64Z"/><path class="cls-12" d="M346.92,375.85c19.14,18.9,41.76,19,66.5,12.31-7.36,10.44-16.29,16.19-27.76,18.11a45,45,0,0,1-14,0c-4.64-.68-8.81-2.26-12-5.86a62.32,62.32,0,0,1-11.37-17.25C347.34,381.07,346.14,379,346.92,375.85Z"/><path class="cls-9" d="M273.45,370.31c12.07-2.7,21,3,28.5,12.06,2.2,2.65,2.48,5.06.88,8A55.08,55.08,0,0,1,246.68,419l-.88-.1c-11.07-1.38-15.74-8.43-12.41-19.29a53.86,53.86,0,0,1,9.78-18.12C251,371.81,261.21,368.84,273.45,370.31Z"/><path class="cls-13" d="M306.8,393.95c2.79,4.92,1.84,10.33,1.3,15.4-1.85,17.32-14.45,29.94-31.83,32-7.24.87-14-1.32-20.09-5.23-4.57-2.94-8.89-6.28-13.29-9.48-.77-.56-2.06-1-1.5-2.31s1.74-.63,2.7-.52c16.38,1.78,31.67-.79,45-11.29a80.39,80.39,0,0,0,15.39-16.34C305,395.4,305.33,394.33,306.8,393.95Z"/><path class="cls-8" d="M524.71,363.1c-.1,22.58-12.75,40.65-32.51,46.24a59.13,59.13,0,0,1-32.25.26c-13.85-3.8-24.07-17.6-27-32.87-3.79-20,16.39-47,37.82-47.76,8.81-.31,17.6-1.31,26.42-1.59a19.14,19.14,0,0,1,13.29,5C521.13,341.26,524.77,349.17,524.71,363.1Zm-36.64-30.2c-1.47,0-3-.09-4.42,0-8.73.61-10.41,1.94-13.22,10.22-6.83,20.11-1.9,37.89,10.78,54.07,5.07,6.47,10.55,7.29,17.86,3.33,10.46-5.67,15.63-15.24,19.13-25.94C525.37,352.64,511,332.86,488.07,332.9Zm-7.08,72c0-.49,0-.66-.05-.76a6,6,0,0,0-.73-1.07C464,386.18,459.45,366.39,465,343.92c.56-2.28,2.83-5.72.79-6.8-2.4-1.28-5.21,1.58-7.61,3.16a3.68,3.68,0,0,0-.64.61c-5.57,6.1-11.08,12.25-15.43,19.32a21.67,21.67,0,0,0-3,16.49C443.65,397.89,458.67,406.62,481,404.85Z"/><path class="cls-9" d="M488.07,332.9c23,0,37.3,19.74,30.13,41.7-3.5,10.71-8.67,20.27-19.13,25.94-7.31,4-12.79,3.14-17.86-3.33-12.68-16.18-17.61-34-10.78-54.07,2.81-8.28,4.49-9.61,13.22-10.22C485.12,332.81,486.6,332.9,488.07,332.9Z"/><path class="cls-6" d="M481,404.85c-22.32,1.77-37.34-7-41.9-28.14a21.67,21.67,0,0,1,3-16.49c4.35-7.06,9.86-13.22,15.43-19.32a3.68,3.68,0,0,1,.64-.61c2.4-1.59,5.21-4.44,7.61-3.16,2,1.09-.23,4.52-.79,6.8-5.51,22.46-.94,42.26,15.24,59.1a6,6,0,0,1,.73,1.07C481,404.19,481,404.36,481,404.85Z"/><path class="cls-9" d="M388.84,646.39c-6.66.09-15.09-1.78-23.16-5.2-8.31-3.52-9.48-9-3.68-15.81,6.63-7.72,15.5-11,25.11-12.52,11.92-1.95,23,.68,33.39,6.71,4.64,2.7,6.87,7.19,8.53,12,1.18,3.4-2.34,8.25-7.24,9.6C411.72,643.88,401.57,646.37,388.84,646.39Z"/><path class="cls-5" d="M360.67,618.57c-.12-9.58,2.75-16.77,9.72-22.07,11.63-8.85,33.17-9.15,45.12-.7a26.34,26.34,0,0,1,11.13,19.57C404.39,604.38,382.54,602.87,360.67,618.57Z"/><path class="cls-14" d="M384.81,561.07c.93,2.7-1.15,3-3.93,2.83a11,11,0,0,1-10.5-11.33c.06-5.26,5-10.09,10.54-10.6,1.82-.17,1.87.8,2,2C383.51,549.37,384.11,554.75,384.81,561.07Z"/><path class="cls-14" d="M399.63,548.18a9.65,9.65,0,0,1-.11-2.2c.29-1.64-1.51-3.74.28-4.8s3.74.13,5.45,1a11.13,11.13,0,0,1,6.65,11.44c-.44,5.4-3,9.42-8.13,11.61-2.17.93-3.17.68-3.25-2-.15-5-.62-10-1-15Z"/><path class="cls-14" d="M396,559.74c.2,2-.42,4.55-.76,7.17-.29,2.18-1.6,4.2-3.23,4.13-1.81-.07-2.65-2.49-2.85-4.46-.34-3.51-.6-7-.85-10.54-.37-5.12-.76-10.25-1-15.38-.08-1.42-.55-3,.6-4.21a4.43,4.43,0,0,1,2-1.51c1.1-.19,1.26,1,1.5,1.8C393.75,544,396.06,551.28,396,559.74Z"/><path class="cls-15" d="M450.22,559.73c-.6-5.56.31-10.5.94-15.42.45-3.45,3-5.24,6.26-6,12.25-2.72,11.47-2.72,11.22,8.49-.18,8.07-.52,16.13-.89,24.2-.24,5.17-5.2,9.76-10.22,9.64-3.65-.08-6-2.59-6.5-7C450.53,568.86,449.82,564,450.22,559.73Z"/><path class="cls-8" d="M112.4,692.13a26.08,26.08,0,0,1-12.68-2.56A68.45,68.45,0,0,1,73,668.15c-11.62-15.69-6.21-38.54,11.07-48.94,8.59-5.17,17.78-8.32,28-7.56a15.3,15.3,0,0,0,3.8,0c11.67-2.12,20.19,3.4,28.17,11,5.49,5.22,7.35,11.83,8.55,18.78,4.33,24.9-8.76,44.36-33.52,50.16A35.89,35.89,0,0,1,112.4,692.13Zm1.88-74.23c-11.69-1.4-21.47,1.44-28.93,10.67A51.45,51.45,0,0,0,76,645.88c-3.18,10.37,1.28,17.1,11.86,18.42l.84.09a52.61,52.61,0,0,0,53.65-27.3c1.53-2.84,1.26-5.13-.84-7.67C134.3,620.73,125.8,615.32,114.27,617.9Zm31.86,22.58c-1.41.36-1.71,1.38-2.26,2.15a76.79,76.79,0,0,1-14.7,15.61c-12.69,10-27.29,12.49-42.94,10.79-.91-.1-2-.81-2.57.5s.7,1.68,1.43,2.21c4.21,3.05,8.33,6.24,12.7,9.05,5.8,3.73,12.27,5.82,19.19,5,16.6-2,28.64-14,30.4-30.59C147.89,650.35,148.79,645.18,146.13,640.49Z"/><path class="cls-9" d="M114.27,617.9c11.53-2.58,20,2.83,27.23,11.52,2.1,2.54,2.37,4.83.84,7.67A52.61,52.61,0,0,1,88.7,664.4l-.84-.09c-10.58-1.32-15-8.05-11.86-18.42a51.45,51.45,0,0,1,9.34-17.31C92.8,619.34,102.58,616.51,114.27,617.9Z"/><path class="cls-13" d="M146.13,640.49c2.66,4.7,1.76,9.86,1.24,14.71-1.77,16.54-13.8,28.6-30.4,30.59-6.92.83-13.38-1.26-19.19-5-4.37-2.81-8.49-6-12.7-9.05-.73-.53-2-.92-1.43-2.21s1.66-.6,2.57-.5c15.65,1.7,30.25-.75,42.94-10.79a76.79,76.79,0,0,0,14.7-15.61C144.42,641.87,144.72,640.85,146.13,640.49Z"/><path class="cls-8" d="M329.81,860c-.09,21.57-12.18,38.83-31.05,44.17a56.48,56.48,0,0,1-30.8.24c-13.23-3.63-23-16.81-25.76-31.39-3.62-19.12,15.65-44.91,36.13-45.62,8.41-.29,16.81-1.25,25.24-1.52a18.28,18.28,0,0,1,12.7,4.74C326.39,839.13,329.86,846.69,329.81,860Zm-35-28.85c-1.41,0-2.82-.08-4.22,0-8.34.58-9.94,1.85-12.63,9.76-6.52,19.2-1.81,36.2,10.3,51.65,4.84,6.18,10.08,7,17.06,3.18,10-5.42,14.93-14.55,18.27-24.78C330.43,850,316.76,831.11,294.81,831.14ZM288,899.87c0-.46,0-.63,0-.73a5.7,5.7,0,0,0-.7-1c-15.46-16.08-19.82-35-14.56-56.45.53-2.18,2.71-5.46.76-6.5-2.29-1.22-5,1.51-7.27,3a3.51,3.51,0,0,0-.61.58c-5.32,5.82-10.58,11.71-14.74,18.45A20.7,20.7,0,0,0,248,873C252.38,893.23,266.73,901.56,288,899.87Z"/><path class="cls-9" d="M294.81,831.14c21.95,0,35.63,18.86,28.78,39.83-3.34,10.23-8.28,19.36-18.27,24.78-7,3.79-12.21,3-17.06-3.18-12.11-15.46-16.82-32.45-10.3-51.65,2.69-7.91,4.29-9.18,12.63-9.76C292,831.06,293.4,831.14,294.81,831.14Z"/><path class="cls-6" d="M288,899.87c-21.32,1.69-35.67-6.64-40-26.88a20.7,20.7,0,0,1,2.85-15.75c4.15-6.75,9.41-12.63,14.74-18.45a3.51,3.51,0,0,1,.61-.58c2.29-1.52,5-4.24,7.27-3,1.95,1-.22,4.32-.76,6.5-5.26,21.46-.9,40.37,14.56,56.45a5.7,5.7,0,0,1,.7,1C288.06,899.24,288,899.4,288,899.87Z"/><path class="cls-8" d="M148.23,791.53c-3.13,5.35-5.66,10.15-8.64,14.66-13.55,20.47-35.76,28.34-62.4,22-19.91-4.72-35.44-15.44-40.59-36-4-15.94-6-32.79,3-48.12,10.62-18,27.16-26.95,47.69-28,25.94-1.35,42.25,14.59,56.92,33,.65.81,1.12,1.76,1.7,2.63.07.11.25.15.73.41,3.61-16.13,14.93-26.57,26.77-36.67,3-2.57,6.2-4.5,10.18-5,17.53-2.25,34.92-1.64,50.4,7.64,19.48,11.68,26.84,29.47,23.31,52-4.82,30.75-26.85,49.7-57.79,48.5-18.46-.71-34.15-8.23-46.69-22C151.43,795.1,150,793.53,148.23,791.53ZM87.63,723.24c-8.59.63-15.65,3.71-22.78,6.64-4,1.63-5.6,4.48-5.61,8.55,0,8.13,1,16.08,4.32,23.6,7.6,17.38,22.09,27.59,38,36.29a50.57,50.57,0,0,0,24.65,6.28c4,0,7.35-1.46,9.14-5.08,4.54-9.18,7.47-18.57,6.55-29.23-2.2-25.61-23.92-39.06-46.15-46.57A18.4,18.4,0,0,0,87.63,723.24Zm95.6,62.1c12-1.8,24.81-5.14,36.49-11.86,13.44-7.73,21.23-19.4,23.52-34.83.48-3.24-.46-5.24-2.85-7.24-13.67-11.42-29.44-15.82-47-14.1-9,.88-17.22,3.4-23.89,10.52-10.19,10.88-16.2,22.85-15.41,38.21.59,11.57,3.46,16.08,14.76,18.75C173.19,785.8,177.56,785.79,183.24,785.34Zm-56.87,25.57c-39.66-9-68-29.16-74.63-71.77C33.06,755.85,39.57,793.43,53,808,67.07,823.23,106.27,833.08,126.37,810.91Zm122.49-65c-2.16,3.8-3.67,6.54-5.24,9.23C234.2,771.22,221,782.54,203,788c-12.11,3.69-24.46,4.12-36.94,3.49-1-.05-2.25-.91-2.93.16s.21,2.32.85,3.35a23.57,23.57,0,0,0,13.51,10.27c18,5.61,35.6,3.47,52.92-3a17.54,17.54,0,0,0,9.07-7.65c2.33-3.92,4.76-7.78,7-11.75C253,771.42,253.33,759.45,248.86,745.91Z"/><path class="cls-9" d="M87.63,723.24a18.4,18.4,0,0,1,8.11.49c22.22,7.51,43.94,21,46.15,46.57.92,10.65-2,20-6.55,29.23-1.79,3.62-5.14,5.08-9.14,5.08a50.57,50.57,0,0,1-24.65-6.28c-15.89-8.7-30.37-18.92-38-36.29-3.29-7.52-4.33-15.47-4.32-23.6,0-4.07,1.64-6.92,5.61-8.55C72,726.94,79,723.87,87.63,723.24Z"/><path class="cls-9" d="M183.24,785.34c-5.67.45-10,.46-14.36-.56-11.3-2.67-14.16-7.17-14.76-18.75-.79-15.36,5.22-27.33,15.41-38.21,6.67-7.12,14.85-9.63,23.89-10.52,17.53-1.72,33.31,2.68,47,14.1,2.4,2,3.34,4,2.85,7.24-2.29,15.42-10.08,27.1-23.52,34.83C208,780.2,195.2,783.54,183.24,785.34Z"/><path class="cls-10" d="M126.37,810.91C106.27,833.08,67.07,823.23,53,808c-13.48-14.6-20-52.19-1.31-68.89C58.39,781.75,86.71,801.92,126.37,810.91Z"/><path class="cls-11" d="M248.86,745.91c4.47,13.54,4.12,25.51-2.41,37-2.25,4-4.67,7.83-7,11.75a17.54,17.54,0,0,1-9.07,7.65c-17.32,6.45-34.92,8.59-52.92,3A23.57,23.57,0,0,1,164,795c-.64-1-1.59-2.18-.85-3.35s1.92-.21,2.93-.16c12.48.63,24.83.2,36.94-3.49,18-5.49,31.24-16.81,40.65-32.89C245.19,752.45,246.7,749.71,248.86,745.91Z"/></svg>