<svg id="圖層_1" data-name="圖層 1" xmlns="http://www.w3.org/2000/svg" viewBox="0 0 156.5 159.66"><defs><style>.cls-1{fill:#ddb932;}.cls-2{fill:#6b4c23;}.cls-3{fill:#fff;}.cls-4{fill:#4a7033;}.cls-5{fill:#c5523d;}</style></defs><title>graphic</title><path d="M5.81,74.7c-.91.39-1,2.56-.21,3.22a17.93,17.93,0,0,0,2.73,1.88,11.72,11.72,0,0,0,7.15,1c3.45-.42,6.86-1.21,10.32-1.41,2.22-.13,4.18-1,6.3-1.32.23,0,.47,0,.85-.05.06,1.07.12,2.09.16,2.94A8.64,8.64,0,0,0,30.64,82c-1.49,1.36-1.68,5.05-.49,7.31.64,1.21,1.37,2.36,1.94,3.31a15.57,15.57,0,0,0-1.55,3.1,5.56,5.56,0,0,0,2.55,5.56A3.11,3.11,0,0,1,34.82,104c.06,1.06,1,2,1.5,3.09.7,1.45,1.36,2.93,2.07,4.38.33.68.71,1.34,1.1,2A45.16,45.16,0,0,0,42,117.67c1.39,1.87,3,3.59,4.45,5.39.61.74,1.16,1.52,1.74,2.28,2.73,3.55,5.93,6.53,10.27,8,1.93.65,3.94,1.05,5.91,1.56l1.19.32c-2.39,1.56-4.42,2.93-6.5,4.22A12.15,12.15,0,0,0,55,143.93a2.93,2.93,0,0,0,.08,2.11,2.86,2.86,0,0,0,1.23,1.71,5.12,5.12,0,0,0,3.07.29,16.14,16.14,0,0,0,3.5-2,25.42,25.42,0,0,1,3.28-2.12c2.58-1.1,5.26-2,7.89-3,.11,0,.27,0,.34-.1,1.5-1.59,3.15-1,4.88-.44a20.62,20.62,0,0,0,3.19.47,40.51,40.51,0,0,0,10.15-.15c2.05-.2,4.12-.33,6.17-.58.83-.1,1.61-.48,2.43-.64,2-.4,4-.66,6-1.13,2.8-.66,5.75-.8,8.26-2.44,1.29-.85,2.62-1.64,4-2.41a2.29,2.29,0,0,1,1.14-.31c3.13.08,6-1,9-1.77a13.32,13.32,0,0,0,3.17-1.72c1.87-1.08,3.73-2.17,5.57-3.28a5.43,5.43,0,0,0,1.11-.91c1.4-1.47,2.79-3,4.14-4.47a6.63,6.63,0,0,0,.72-1.35c1.28-2.4,2.59-4.79,3.84-7.21a15.26,15.26,0,0,0,1.05-2.67c2.49-8.47,2.56-17.16,2.23-25.88,0-.76.31-1.55.26-2.31a39.37,39.37,0,0,0-.6-4.89c-.23-1.17-1.46-1.72-3.32-1.68-.29-1.61-.58-3.25-.87-4.88a2.68,2.68,0,0,0-.13-.82c-1.52-2.71-3-5.43-4.62-8.08-1.48-2.44-3.07-4.83-4.67-7.2A14.94,14.94,0,0,0,136,52.68c-1.18-1.31-2.26-2.72-3.5-4a41.12,41.12,0,0,0-3.46-2.94c-2.46-2-4.83-4.12-7.45-5.87-3.56-2.38-7.25-4.58-11.56-5.43-1.28-.25-2.49-.91-3.78-1.15-3.25-.61-6.51-1.2-9.8-1.58-2.34-.27-4.72-.2-7.08-.26-.69,0-.86-.28-1-1-.41-2.77-1-5.51-1.49-8.26-.33-1.82-.59-3.65-.91-5.47a9.78,9.78,0,0,0-4.77-7.15A7.33,7.33,0,0,0,79,8.53c-1-.19-1.51.48-1.73,1.88-.31,2-.65,4-1,6.12a8.17,8.17,0,0,1-.59-.68c-.83-1.17-1.62-2.38-2.48-3.52a3.4,3.4,0,0,0-3.53-1.13c-1.91.72-2.64,1.53-2.56,3.3.09,2,.4,4.05.6,6.08,0,.5.06,1,.1,1.88-1-.46-1.77-.82-2.55-1.15s-1.69-.74-2.56-1c-2.19-.72-3.13-.15-3.26,2.16a19.38,19.38,0,0,0,.39,3.69A11.42,11.42,0,0,0,60.45,29a42.37,42.37,0,0,0,2.93,6c.65,1,.3,1.46-.43,1.91-1.09.66-2.21,1.27-3.36,1.83-1.61.8-3.34,1.42-4.86,2.35a26,26,0,0,0-3.8,3.06,48.6,48.6,0,0,0-4.32,4.29C44.73,50.6,43,53,41.27,55.27,40,56.86,38.72,58.41,37.54,60c-1,1.44-2,3-1.86,4.89s-.81,3.15-2.72,3.71c-3.39,1-6.73,2.17-10.13,3.15a72.68,72.68,0,0,1-8.16,2c-2,.33-4,.08-6,.21A8.88,8.88,0,0,0,5.81,74.7Zm2.52,2.18c-.43-.49,0-.93.59-.94,1.66,0,3.32,0,5,0,2.69-.13,5.44,0,7.9-1.46a2,2,0,0,1,.94-.2c2.5-.05,4.7-1.22,7-1.89,1.4-.4,2.82-.74,4.49-1.18-.16.83-.26,1.25-.31,1.67a3.77,3.77,0,0,1-3.2,3.56c-1.53.32-3,.79-4.57,1-2.81.41-5.63.73-8.45,1-2.51.27-5,.62-7.5-.27A4.82,4.82,0,0,1,8.32,76.88Zm22.62,8.51c0-1.23.19-2,1.68-2.28.35,2.84.68,5.6,1.06,8.67A9.59,9.59,0,0,1,30.95,85.39Zm2.16,13.37c-.49-.46-.36-1.58-.51-2.4.63,0,1.27-.06,1.9,0,.35,0,.66.3,1,.37,2.73.52,5.47,1,8.2,1.53,2,.38,3.81.88,5.81-.21a28.2,28.2,0,0,1,4.92-1.56c.36-.12.65-.51,1-.58,1.52-.3,3.2-.21,4.56-.83,2.8-1.27,5.45-2.87,8.12-4.39,2.43-1.39,4.87-2.77,7.2-4.31s4.56-3.3,6.83-5c.79-.58,1.6-1.14,2.38-1.75.94-.74,1.81-1.59,2.79-2.27.67-.46,1.28-.94.84-1.72s-1.38-.47-2-.07c-.82.54-1.51,1.27-2.28,1.89-1.51,1.23-3.11,2.36-4.54,3.68a31.52,31.52,0,0,1-6.47,4.19,28.14,28.14,0,0,0-5.72,3.7c-1.4,1.27-3.38,1.89-5.11,2.79a1,1,0,0,1-.47.09c-2.15,0-4.31,0-6.46-.1-1.21,0-2.41-.36-3.6-.34-3.89.06-7.78.24-11.67.34-.73,0-1.46-.11-2.27-.17l.18-.67a43.67,43.67,0,0,0,1.44-5.28,3.69,3.69,0,0,0-2.92-4c-.92-.19-1-.62-.88-1.45a30.23,30.23,0,0,0,.39-3.1c.2-2.07.36-4.15.59-6.23a3.46,3.46,0,0,1,.48-1,4.59,4.59,0,0,1,.93.66c.51.59,1,1.24,1.85.76a6,6,0,0,0,2.14-1.74A8.54,8.54,0,0,0,43,66.28a34.3,34.3,0,0,0-.11-4.37c0-1.24-.18-2.38-1.46-3l2.3-3.17c.55-.76,1-.79,1.51.09a20.68,20.68,0,0,0,1.93,2.75,1.46,1.46,0,0,0,1.2.48c1.9-.57,3.78-1.22,5.63-1.93A22.66,22.66,0,0,1,56.5,56a14.65,14.65,0,0,0,5.43-2.67,1.48,1.48,0,0,0,.67-1.74,9.37,9.37,0,0,0-3.14-5A3.33,3.33,0,0,0,55.59,46c-1.92.83-3.85,1.62-5.78,2.43a1.1,1.1,0,0,1,.39-.82c.68-.53,1.39-1,2.07-1.54a39.54,39.54,0,0,1,4.32-3.36c2.79-1.61,5.72-3,8.59-4.43a26.41,26.41,0,0,1,3.7-1.88c1.84-.59,3.77-.9,5.67-1.31A19.59,19.59,0,0,1,77,34.62c2.89-.23,5.78-.46,8.67-.6A58.85,58.85,0,0,1,91.88,34c3.33.19,6.67.46,10,.84A27.66,27.66,0,0,1,108.32,36c3.11,1.16,6,2.82,9.06,4.18,5.13,2.3,9,6.33,13.13,9.89,2.06,1.77,3.57,4.2,5.25,6.39.85,1.11,1.51,2.36,2.32,3.51,1.18,1.68,2.53,3.25,3.59,5a38.25,38.25,0,0,1,4,9.77,1.27,1.27,0,0,1-.64,1.71c-1.81.91-3.59,1.86-5.43,2.69a41.75,41.75,0,0,1-4.15,1.54c-2.25.74-4.52,1.4-6.78,2.11s-4.65,1.54-7,2.17c-2.87.77-5.77,1.4-8.67,2.06-1.36.31-2.72.59-4.1.83-1.78.31-3.58.51-5.36.85-2.67.51-5.31,1.27-8,1.63-3.12.42-6.29.51-9.44.77-1.09.09-2.17.27-3.26.4L82.62,91a33.63,33.63,0,0,1,2.55-2.44c1.47-1.15,3.12-2.09,3.8-4,.29-.83,0-1.38-.73-1.42a2.93,2.93,0,0,0-1.87.63c-1.43,1.21-2.65,2.67-4.13,3.81-3.34,2.58-6.78,5-10.2,7.52-2.55,1.84-5.09,3.72-7.75,5.4a14.29,14.29,0,0,1-4.81,2.12c-2.54.47-5.19.32-7.77.61a22.08,22.08,0,0,1-9.26-.93c-2-.63-4.1-1-6.1-1.73A9.13,9.13,0,0,1,33.11,98.76Zm1.38-13.85c-.09-.64-.13-1.39.7-1.3.64.07,1.77-.16,1.69,1.17-.1,1.72-.11,3.44-.25,5.15a8.28,8.28,0,0,1-.53,1.75h-.4a6.78,6.78,0,0,1-.53-1.41C34.91,88.49,34.73,86.69,34.49,84.91Zm2,9.11,0-.58c6.27.36,12.55-.37,18.81.41a15.51,15.51,0,0,1-2.6,1.21,12.27,12.27,0,0,1-6.23.61C43.2,95.08,39.86,94.57,36.51,94Zm1.25,11.75c-.23-.42-.39-.87-.75-1.67a13.05,13.05,0,0,0,1.84.6c1.52.22,3,.36,4.57.57a12,12,0,0,0,2.21.37c.74,0,1,.18,1.18.83.45,1.94,1,3.87,1.4,5.82s.72,4.19,1.33,6.2c.75,2.48,1.79,4.87,2.69,7.3.19.5.37,1,.55,1.51l-.35.2c-.64-.74-1.32-1.45-1.91-2.23-1.33-1.75-2.61-3.55-3.94-5.3-1.58-2.09-3.5-3.89-4.64-6.35C40.7,110.95,39.16,108.39,37.77,105.77Zm.68-36.86c-2.21-2.55-2.26-6.74,2.15-8.41a10,10,0,0,1-.43,8.23C39.75,69.64,39.1,69.66,38.45,68.91Zm7.73-14.77a1.23,1.23,0,0,1,.46-1.86c1.08-.64,2.23-1.17,3.31-1.8.6-.35,1.09-.91,1.71-1.2a17.82,17.82,0,0,1,3-1.11c3-.81,2.95-1.82,5.08,1.42,1.14,1.73.81,2.67-1.15,3.45-1.67.67-3.24,1.58-4.89,2.3s-3.31,1.34-5,2a3.81,3.81,0,0,1-.9-.67C47.2,55.87,46.7,55,46.18,54.15Zm2.3,52.29a15.64,15.64,0,0,1,1.74-.24c1.52,0,3,.06,4.56,0,.81,0,1.11.2,1.11,1a2.79,2.79,0,0,0,.14.71c.89,3.43,1.7,6.88,2.71,10.28.92,3.1,2.06,6.14,3.12,9.21.53,1.52,1.07,3,1.62,4.59a11.74,11.74,0,0,1-6.75-1.85,3.3,3.3,0,0,1-.69-.83c-.73-1.29-1.49-2.56-2.13-3.89A53.58,53.58,0,0,1,49.7,112C49.36,110.17,48.92,108.4,48.47,106.43ZM57,145.86c-.17-.52-.29-1.32,0-1.67a21.52,21.52,0,0,1,3.56-3.71,29,29,0,0,1,5.19-3,8,8,0,0,1,3.85-1c1.26.13,2.43,1.09,3.84,1.78a5.37,5.37,0,0,1-.64.43,48,48,0,0,0-5.31,2.15c-2.09,1.14-4,2.65-6,3.89a17.5,17.5,0,0,1-3.36,1.45C57.75,146.33,57,146.09,57,145.86Zm.58-38.76c-.18-.71-.2-1.29.78-1.36.26,0,.49-.25.75-.37l5.29-2.3c.6,2.21,1.24,4.16,1.63,6.15.44,2.22.55,4.52,1,6.74s1.14,4.41,1.71,6.62a12.48,12.48,0,0,0,.61,2.57c1.11,2.15,1,4.55,1.52,6.81,0,.14-.46.58-.72.59-1,0-1.93-.07-2.89-.06a1.72,1.72,0,0,1-1.76-1c-.39-.83-.78-1.66-1.13-2.5-1.06-2.53-2.2-5-3.11-7.62-.71-2-1.14-4.14-1.66-6.22C58.86,112.48,58.21,109.78,57.54,107.1Zm3.79-82.64a1.9,1.9,0,0,1,.5-.56c1.54-.85,1.84-.78,3.16.34.52.44,1.12.76,1.67,1.16.77.56,1.8,1,2.24,1.75a18.5,18.5,0,0,1,1.36,3.79,9.3,9.3,0,0,1,.46,2,1.12,1.12,0,0,1-.44.93,26.26,26.26,0,0,1-3.39,1,1.46,1.46,0,0,1-1.24-.24A18.11,18.11,0,0,1,63,30.71,54.65,54.65,0,0,1,61.32,24.46ZM66.47,103a.87.87,0,0,1,.28-.72c1.43-.95,2.89-1.85,4.33-2.76l.44.18c.15,1.13.24,2.27.46,3.38.81,4,1.69,8,2.49,12,.49,2.45.89,4.92,1.34,7.38.19,1,.44,2.08.6,3.12.27,1.8.57,3.6.7,5.42.06.76.93,1.64.06,2.28a17.84,17.84,0,0,0-2.14-.43c-1.92-.14-2.12-.33-2.56-2.2-.56-2.38-1.21-4.74-1.79-7.11-.76-3.1-1.51-6.21-2.21-9.33-.28-1.24-.42-2.52-.64-3.77C67.37,107.94,66.9,105.45,66.47,103Zm2.71-87.43a2.24,2.24,0,0,1,1-1.65,1.94,1.94,0,0,1,1.83,0,18.31,18.31,0,0,1,2.77,4,30.5,30.5,0,0,1,2.09,5.83c.62,2.56,1,5.19,1.46,8.08-1,.12-1.74.19-2.51.31-2,.31-2,.31-2.74-1.6-.06-.15-.08-.31-.12-.47-.54-1.84-1-3.72-1.66-5.51A29.92,29.92,0,0,1,69.18,15.53Zm3.45,119.81.06-.37a7.7,7.7,0,0,1,1.77-.25c3.37.32,6.73.9,10.1,1,3.66.11,7.33-.19,11-.34,2.21-.09,4.41-.29,6.62-.31,1.26,0,2.52.26,3.78.34a11.78,11.78,0,0,0,1.74-.13l.11.32a10.27,10.27,0,0,1-2,.82c-2.1.4-4.21.7-6.33,1a96.92,96.92,0,0,1-10.43,1.42c-3.36.13-6.83.35-10.09-1.1-1.41-.63-2.92-1-4.37-1.55C73.94,136,73.29,135.64,72.63,135.35Zm.62-35.42c-.15-.81-.38-1.65.56-2.26,2.07-1.33,4.12-2.71,6.29-4.14.12.38.31.88.43,1.4a44.66,44.66,0,0,1,.74,8.69c0,1,.22,2,.3,3,.16,2,.17,4.1.48,6.12.39,2.57,1,5.09,1.53,7.64.35,1.8.65,3.61.94,5.42.42,2.59.81,5.19,1.22,7.83-1.32,0-2.44,0-3.55,0-2.06,0-2.53-.25-3-2.3-.55-2.54-.9-5.13-1.39-7.69-.92-4.81-2.16-9.55-2.79-14.42C74.65,106.07,73.85,103,73.25,99.92Zm5.52-78.42A23.6,23.6,0,0,1,79,11.84c.26-1,.74-1.08,1.44-.67a6.06,6.06,0,0,1,3,3.62c.65,2.44,1.13,4.92,1.71,7.38.38,1.63.92,3.23,1.15,4.87a34.66,34.66,0,0,1,0,4.48l-2.88.29c-2.47.23-2.53.25-3.06-2.17C79.74,26.94,79.22,24.23,78.77,21.51Zm3.34,72.78c-.05-.51-.14-1,.73-1,1.35,0,2.68-.32,4-.35.43,0,1.18.37,1.27.7.4,1.62.65,3.29.91,4.94.49,3.16.92,6.33,1.41,9.49.3,1.95.69,3.88,1,5.83s.45,4.06.83,6.06c.54,2.77,1.27,5.51,1.85,8.27.35,1.67.57,3.36.85,5.09a1.51,1.51,0,0,1-.45.18c-2.07,0-4.14.11-6.21.09-.22,0-.56-.43-.62-.71-.6-2.7-1.17-5.39-1.69-8.1s-1-5.36-1.44-8-1.11-5.19-1.38-7.82c-.31-2.93-.23-5.9-.43-8.85C82.64,98.1,82.31,96.19,82.11,94.28ZM91,100.52c-.35-2.61-.75-5.22-1.15-8.06,2.57-.12,4.81-.26,7.06-.3.29,0,.78.53.84.87.48,2.8,1,5.61,1.27,8.43.49,4.68,1.85,9.21,2.12,13.93a50.1,50.1,0,0,0,.86,5.52c.38,2.19.82,4.38,1.15,6.57.29,1.9.48,3.82.73,5.91-2.13,0-3.94.06-5.73,0a1.71,1.71,0,0,1-1.16-1,27.52,27.52,0,0,1-1-3.64c-.49-2.23-.94-4.46-1.37-6.7-.89-4.6-1.82-9.2-2.62-13.82C91.59,105.68,91.38,103.09,91,100.52Zm8.64-7.79c-.06-.69.3-.91.9-1,2.22-.32,4.45-.67,6.8-1a15.89,15.89,0,0,1,1,2.86q.68,4.67,1.14,9.37c.33,3.42,1.09,6.77,1,10.28-.12,3.27.54,6.57.83,9.86,0,.51-.05,1,0,1.55a14.44,14.44,0,0,0,.07,1.83A34.31,34.31,0,0,1,112,131c0,2.22-.15,2.23-2.46,2.33-.76,0-1.53,0-2.3.06-1.07,0-1.58-.4-1.67-1.55-.16-2-.46-3.89-.77-5.82-.64-4-1.34-8.05-2-12.09-.15-.91-.13-1.85-.3-2.75-.69-3.56-1.53-7.09-2.11-10.67C100,98,99.91,95.33,99.68,92.73Zm10-.7c-.25-1.65-.26-1.63,1.32-2.06.66-.18,1.28-.49,1.93-.67,1.53-.4,3.08-.76,4.76-1.17a21.37,21.37,0,0,0-.11,2.18q.36,6.12.76,12.24c.22,3.35.48,6.69.72,10,.27,3.69.61,7.38.79,11.07.1,2.12,0,4.25-.1,6.37,0,1.07-.41,1.76-1.68,1.78a12.12,12.12,0,0,0-2.59.51c-1.2.29-1.45.13-1.58-1-.3-2.62-.66-5.23-.9-7.86-.28-3.08-.46-6.17-.68-9.25-.19-2.71-.31-5.42-.58-8.12-.21-2.12-.61-4.22-.93-6.33C110.45,97.18,110.07,94.6,109.68,92Zm10.39-3.12c-.07-1,.3-1.22,1.12-1.47,2.41-.72,4.8-1.54,7.37-2.38a4.4,4.4,0,0,1,.92,3c.28,4.15,1,8.32.78,12.45-.15,3.42.53,6.84-.2,10.27a55.41,55.41,0,0,0-.61,6.3c-.32,3.3-1.56,6.36-2.62,9.45-.46,1.35-.68,3-2.09,3.8a7.85,7.85,0,0,1-2.25.52,10.35,10.35,0,0,1-.23-1.66c0-.76.25-1.52.2-2.27-.39-6.71-.83-13.42-1.25-20.13C120.83,100.82,120.49,94.87,120.07,88.91Zm8.32,40.48a2.62,2.62,0,0,1-.76,0c.69-2.08,1.39-4.07,2-6.08a32.78,32.78,0,0,0,1.24-4.83c.38-2.61.53-5.26.77-7.89.12-1.4.26-2.8.29-4.19,0-.54-.38-1.08-.36-1.62,0-1.12.38-2.24.35-3.34-.09-2.54.48-5.13-.45-7.63-.06-.15.07-.38.1-.57a5.56,5.56,0,0,0,.27-1.6c-.26-2-.52-4-1-5.94-.25-1.1.11-1.54,1.07-1.81,1.58-.44,3.16-.89,4.72-1.36,1.32-.4,2.63-.83,4.06-1.29.06.46.11.77.14,1.07.19,1.83.4,3.66.57,5.49s.39,3.62.46,5.43,0,3.9,0,5.85c0,2.26-.12,4.53-.21,6.79,0,.18-.21.34-.28.53a8.33,8.33,0,0,0-.6,1.76c-.26,2.06-.18,4.1-1.37,6a20.12,20.12,0,0,0-2.32,6c-.47,2-1.68,3.55-2.75,5.21C133,127.61,130.79,128.65,128.39,129.4Zm10.06-6.06a4,4,0,0,1-.93.36,11.06,11.06,0,0,1,.81-1.94c2.29-3.35,2.94-7.33,4.2-11.06a22.68,22.68,0,0,0,.95-5.89c.18-3,.1-6.05.15-9.08,0-.64.15-1.28.12-1.91-.26-4.22-.12-8.47-1.1-12.63a1.1,1.1,0,0,1,.26-1c1.6-.91,3.23-1.76,4.89-2.55.2-.09.85.25.93.51a12.26,12.26,0,0,1,.71,3.14c.17,3.94.28,7.89.3,11.84a47.42,47.42,0,0,1-1.46,12.18,18.79,18.79,0,0,1-2.46,6.44c-1.22,1.73-1,4.24-2.92,5.63-.12.09-.09.38-.15.56C142,120.28,140.2,121.81,138.45,123.34Z"/><path class="cls-1" d="M8.91,75.94c-.61,0-1,.45-.59.94A4.82,4.82,0,0,0,10.2,78.2c2.45.89,5,.54,7.5.27,2.82-.3,5.65-.62,8.45-1,1.54-.23,3-.7,4.57-1a3.77,3.77,0,0,0,3.2-3.56c.05-.43.16-.85.31-1.67-1.67.44-3.09.78-4.49,1.18-2.33.66-4.53,1.83-7,1.89a2,2,0,0,0-.94.2c-2.45,1.48-5.21,1.33-7.9,1.46C12.23,76,10.57,75.91,8.91,75.94Z"/><path class="cls-2" d="M32.63,83.1c-1.5.25-1.72,1.05-1.68,2.28a9.59,9.59,0,0,0,2.74,6.38C33.31,88.7,33,85.95,32.63,83.1Z"/><path class="cls-3" d="M32.6,96.36c.15.82,0,1.94.51,2.4a9.13,9.13,0,0,0,3.24,1.79c2,.68,4.08,1.09,6.1,1.73a22.08,22.08,0,0,0,9.26.93c2.58-.29,5.23-.14,7.77-.61a14.29,14.29,0,0,0,4.81-2.12c2.66-1.68,5.2-3.56,7.75-5.4,3.43-2.47,6.86-4.94,10.2-7.52,1.48-1.14,2.7-2.6,4.13-3.81a2.93,2.93,0,0,1,1.87-.63c.72,0,1,.59.73,1.42-.68,1.92-2.33,2.85-3.8,4A33.63,33.63,0,0,0,82.62,91l.27.54c1.08-.14,2.17-.31,3.26-.4,3.15-.26,6.32-.35,9.44-.77,2.69-.36,5.33-1.12,8-1.63,1.78-.34,3.58-.54,5.36-.85,1.37-.24,2.74-.52,4.1-.83,2.89-.66,5.8-1.29,8.67-2.06,2.36-.63,4.67-1.44,7-2.17s4.53-1.37,6.78-2.11a41.75,41.75,0,0,0,4.15-1.54c1.84-.83,3.63-1.78,5.43-2.69a1.27,1.27,0,0,0,.64-1.71,38.25,38.25,0,0,0-4-9.77c-1.06-1.74-2.41-3.31-3.59-5-.81-1.15-1.47-2.4-2.32-3.51-1.68-2.19-3.19-4.62-5.25-6.39-4.16-3.56-8-7.59-13.13-9.89-3-1.36-6-3-9.06-4.18a27.66,27.66,0,0,0-6.46-1.22c-3.32-.38-6.65-.66-10-.84a58.85,58.85,0,0,0-6.16.05c-2.89.14-5.78.37-8.67.6a19.59,19.59,0,0,0-2.49.45c-1.89.41-3.83.72-5.67,1.31a26.41,26.41,0,0,0-3.7,1.88c-2.87,1.47-5.8,2.82-8.59,4.43A39.54,39.54,0,0,0,52.28,46c-.68.53-1.4,1-2.07,1.54a1.1,1.1,0,0,0-.39.82c1.93-.81,3.86-1.61,5.78-2.43a3.33,3.33,0,0,1,3.87.57,9.37,9.37,0,0,1,3.14,5,1.48,1.48,0,0,1-.67,1.74A14.65,14.65,0,0,1,56.5,56,22.66,22.66,0,0,0,54,57.17c-1.86.7-3.73,1.36-5.63,1.93a1.46,1.46,0,0,1-1.2-.48,20.68,20.68,0,0,1-1.93-2.75c-.52-.88-1-.85-1.51-.09l-2.3,3.17c1.28.59,1.44,1.73,1.46,3A34.3,34.3,0,0,1,43,66.28a8.54,8.54,0,0,1-1.22,3.37,6,6,0,0,1-2.14,1.74c-.82.48-1.35-.17-1.85-.76a4.59,4.59,0,0,0-.93-.66,3.46,3.46,0,0,0-.48,1c-.22,2.07-.38,4.15-.59,6.23a30.23,30.23,0,0,1-.39,3.1c-.17.83,0,1.26.88,1.45a3.69,3.69,0,0,1,2.92,4A43.67,43.67,0,0,1,37.78,91l-.18.67c.81.07,1.54.19,2.27.17,3.89-.1,7.78-.27,11.67-.34,1.2,0,2.4.29,3.6.34,2.15.08,4.31.08,6.46.1a1,1,0,0,0,.47-.09c1.73-.9,3.71-1.52,5.11-2.79a28.14,28.14,0,0,1,5.72-3.7,31.52,31.52,0,0,0,6.47-4.19c1.43-1.31,3-2.45,4.54-3.68.77-.62,1.46-1.35,2.28-1.89.61-.41,1.48-.85,2,.07s-.18,1.26-.84,1.72c-1,.68-1.85,1.52-2.79,2.27-.77.61-1.58,1.17-2.38,1.75-2.27,1.66-4.48,3.41-6.83,5s-4.77,2.93-7.2,4.31c-2.67,1.53-5.33,3.12-8.12,4.39-1.36.62-3,.54-4.56.83-.36.07-.65.46-1,.58A28.2,28.2,0,0,0,49.52,98c-2,1.09-3.86.59-5.81.21-2.73-.52-5.47-1-8.2-1.53-.35-.07-.66-.34-1-.37C33.88,96.3,33.24,96.35,32.6,96.36ZM49.16,64.91c-1.18.17-1-1.14-1.17-1.76,0-1.31.43-1.73,2-1.54.44.06,1.21,1.22,1.08,1.45C50.58,63.81,49.87,64.81,49.16,64.91Zm1.62,8.18c-1.12-.24-1.3-.39-.91-1.68,1.9.56,4.07.52,5.21,2.86a8.16,8.16,0,0,1-1.53-.18C52.61,73.8,51.73,73.3,50.78,73.1Zm1-3.9a1.21,1.21,0,0,1-.26-1.06,1.15,1.15,0,0,1,.89-.54c.79,0,1.59.18,2.37.1A2.13,2.13,0,0,1,57.2,69C56.46,69.51,52.3,69.69,51.78,69.19Z"/><path class="cls-2" d="M35.19,83.61c-.83-.09-.78.66-.7,1.3.23,1.78.42,3.58.68,5.36a6.78,6.78,0,0,0,.53,1.41h.4a8.28,8.28,0,0,0,.53-1.75c.14-1.71.15-3.43.25-5.15C37,83.45,35.83,83.68,35.19,83.61Z"/><path class="cls-4" d="M36.55,93.44l0,.58c3.34.55,6.69,1.06,10,1.66a12.27,12.27,0,0,0,6.23-.61,15.51,15.51,0,0,0,2.6-1.21C49.1,93.08,42.82,93.81,36.55,93.44Z"/><path class="cls-4" d="M37,104.11c.35.8.52,1.25.75,1.67,1.4,2.62,2.94,5.17,4.18,7.86,1.14,2.45,3.06,4.26,4.64,6.35,1.33,1.75,2.6,3.55,3.94,5.3.59.78,1.27,1.49,1.91,2.23l.35-.2c-.18-.5-.36-1-.55-1.51-.91-2.43-1.94-4.83-2.69-7.3-.61-2-.87-4.14-1.33-6.2s-.94-3.87-1.4-5.82c-.15-.65-.44-.88-1.18-.83a12,12,0,0,1-2.21-.37c-1.52-.21-3.05-.35-4.57-.57A13.05,13.05,0,0,1,37,104.11Z"/><path class="cls-3" d="M40.6,60.5c-4.41,1.67-4.36,5.87-2.15,8.41.65.75,1.29.72,1.72-.19A10,10,0,0,0,40.6,60.5Z"/><path class="cls-2" d="M46.64,52.29a1.23,1.23,0,0,0-.46,1.86c.52.86,1,1.73,1.59,2.55a3.81,3.81,0,0,0,.9.67c1.71-.68,3.39-1.31,5-2s3.22-1.63,4.89-2.3c2-.78,2.29-1.72,1.15-3.45-2.13-3.25-2.11-2.23-5.08-1.42a17.82,17.82,0,0,0-3,1.11c-.62.29-1.11.85-1.71,1.2C48.87,51.12,47.72,51.64,46.64,52.29Z"/><path d="M48,63.15c.2.62,0,1.94,1.17,1.76.72-.1,1.43-1.1,1.86-1.85.13-.23-.64-1.39-1.08-1.45C48.41,61.42,48,61.84,48,63.15Z"/><path class="cls-4" d="M50.21,106.2a15.64,15.64,0,0,0-1.74.24c.44,2,.89,3.74,1.23,5.52a53.58,53.58,0,0,0,4.19,13.42c.64,1.33,1.4,2.6,2.13,3.89a3.3,3.3,0,0,0,.69.83,11.74,11.74,0,0,0,6.75,1.85c-.55-1.55-1.1-3.07-1.62-4.59-1.06-3.06-2.19-6.11-3.12-9.21-1-3.4-1.82-6.85-2.71-10.28a2.79,2.79,0,0,1-.14-.71c0-.77-.3-1-1.11-1C53.26,106.26,51.73,106.17,50.21,106.2Z"/><path d="M49.87,71.42c-.38,1.29-.21,1.44.91,1.68.95.2,1.83.7,2.77,1a8.16,8.16,0,0,0,1.53.18C53.94,71.93,51.77,72,49.87,71.42Z"/><path d="M51.52,68.14a1.21,1.21,0,0,0,.26,1.06c.52.5,4.68.31,5.42-.17a2.13,2.13,0,0,0-2.43-1.32c-.78.08-1.58-.13-2.37-.1A1.15,1.15,0,0,0,51.52,68.14Z"/><path class="cls-1" d="M57,144.19c-.28.34-.16,1.15,0,1.67.08.23.8.48,1.11.37a17.5,17.5,0,0,0,3.36-1.45c2-1.24,3.93-2.75,6-3.89a48,48,0,0,1,5.31-2.15,5.37,5.37,0,0,0,.64-.43c-1.41-.69-2.58-1.65-3.84-1.78a8,8,0,0,0-3.85,1,29,29,0,0,0-5.19,3A21.52,21.52,0,0,0,57,144.19Z"/><path class="cls-4" d="M58.32,105.74c-1,.07-1,.64-.78,1.36.67,2.68,1.32,5.37,2,8.06.53,2.08,1,4.2,1.66,6.22.91,2.58,2,5.09,3.11,7.62.35.84.74,1.67,1.13,2.5a1.72,1.72,0,0,0,1.76,1c1,0,1.93.1,2.89.06.26,0,.75-.45.72-.59-.55-2.26-.41-4.66-1.52-6.81a12.48,12.48,0,0,1-.61-2.57c-.57-2.21-1.26-4.39-1.71-6.62s-.55-4.52-1-6.74c-.39-2-1-3.94-1.63-6.15l-5.29,2.3C58.81,105.49,58.57,105.72,58.32,105.74Z"/><path class="cls-5" d="M61.82,23.89a1.9,1.9,0,0,0-.5.56A54.65,54.65,0,0,0,63,30.71a18.11,18.11,0,0,0,2.59,3.92,1.46,1.46,0,0,0,1.24.24,26.26,26.26,0,0,0,3.39-1,1.12,1.12,0,0,0,.44-.93,9.3,9.3,0,0,0-.46-2,18.5,18.5,0,0,0-1.36-3.79c-.45-.76-1.47-1.19-2.24-1.75-.55-.4-1.15-.73-1.67-1.16C63.66,23.11,63.36,23,61.82,23.89Z"/><path class="cls-4" d="M66.75,102.25a.87.87,0,0,0-.28.72c.43,2.49.9,5,1.35,7.46.23,1.26.36,2.53.64,3.77.7,3.12,1.46,6.23,2.21,9.33.58,2.38,1.23,4.73,1.79,7.11.44,1.87.64,2.06,2.56,2.2a17.84,17.84,0,0,1,2.14.43c.87-.64,0-1.52-.06-2.28-.13-1.81-.43-3.62-.7-5.42-.16-1-.4-2.08-.6-3.12-.45-2.46-.84-4.93-1.34-7.38-.8-4-1.68-8-2.49-12-.23-1.11-.31-2.25-.46-3.38l-.44-.18C69.64,100.4,68.18,101.3,66.75,102.25Z"/><path class="cls-5" d="M70.21,13.88a2.24,2.24,0,0,0-1,1.65,29.92,29.92,0,0,0,2.14,9c.69,1.79,1.12,3.67,1.66,5.51,0,.15.06.32.12.47.74,1.91.74,1.91,2.74,1.6.77-.12,1.54-.19,2.51-.31-.51-2.89-.83-5.52-1.46-8.08a30.5,30.5,0,0,0-2.09-5.83,18.31,18.31,0,0,0-2.77-4A1.94,1.94,0,0,0,70.21,13.88Z"/><path class="cls-3" d="M72.69,135l-.06.37c.66.29,1.3.62,2,.87,1.45.53,3,.92,4.37,1.55,3.25,1.45,6.72,1.23,10.09,1.1a96.92,96.92,0,0,0,10.43-1.42c2.11-.31,4.23-.62,6.33-1a10.27,10.27,0,0,0,2-.82l-.11-.32a11.78,11.78,0,0,1-1.74.13c-1.26-.08-2.52-.36-3.78-.34-2.2,0-4.41.22-6.62.31-3.66.15-7.33.45-11,.34-3.37-.1-6.73-.68-10.1-1A7.7,7.7,0,0,0,72.69,135Z"/><path class="cls-4" d="M73.81,97.67c-.94.6-.71,1.44-.56,2.26.6,3.09,1.4,6.15,1.8,9.26.63,4.87,1.87,9.61,2.79,14.42.49,2.56.84,5.14,1.39,7.69.44,2.05.92,2.33,3,2.3,1.12,0,2.23,0,3.55,0-.41-2.64-.8-5.24-1.22-7.83-.29-1.81-.59-3.62-.94-5.42-.5-2.55-1.14-5.08-1.53-7.64-.31-2-.32-4.08-.48-6.12-.08-1-.28-2-.3-3a44.66,44.66,0,0,0-.74-8.69c-.11-.52-.31-1-.43-1.4C77.92,95,75.88,96.34,73.81,97.67Z"/><path class="cls-5" d="M79,11.84a23.6,23.6,0,0,0-.18,9.66c.45,2.72,1,5.44,1.57,8.13.53,2.42.59,2.41,3.06,2.17l2.88-.29a34.66,34.66,0,0,0,0-4.48c-.23-1.65-.77-3.25-1.15-4.87-.57-2.46-1.06-4.94-1.71-7.38a6.06,6.06,0,0,0-3-3.62C79.69,10.76,79.21,10.81,79,11.84Z"/><path class="cls-4" d="M82.85,93.24c-.87,0-.79.53-.73,1,.2,1.91.52,3.82.65,5.74.19,2.95.12,5.92.43,8.85.27,2.63.91,5.21,1.38,7.82s.92,5.37,1.44,8,1.1,5.41,1.69,8.1c.06.28.4.71.62.71,2.07,0,4.14,0,6.21-.09a1.51,1.51,0,0,0,.45-.18c-.29-1.73-.51-3.42-.85-5.09-.58-2.76-1.31-5.5-1.85-8.27-.38-2-.53-4-.83-6.06s-.68-3.88-1-5.83c-.49-3.16-.93-6.33-1.41-9.49-.25-1.66-.51-3.32-.91-4.94-.08-.33-.83-.71-1.27-.7C85.53,92.92,84.19,93.21,82.85,93.24Z"/><path class="cls-4" d="M89.88,92.46c.41,2.84.8,5.44,1.15,8.06s.55,5.16,1,7.71c.8,4.62,1.73,9.22,2.62,13.82.44,2.24.89,4.47,1.37,6.7a27.52,27.52,0,0,0,1,3.64,1.71,1.71,0,0,0,1.16,1c1.79.11,3.6,0,5.73,0-.25-2.08-.44-4-.73-5.91-.34-2.2-.78-4.38-1.15-6.57a50.1,50.1,0,0,1-.86-5.52c-.27-4.72-1.62-9.25-2.12-13.93-.3-2.83-.8-5.63-1.27-8.43-.06-.34-.55-.87-.84-.87C94.69,92.2,92.45,92.34,89.88,92.46Z"/><path class="cls-4" d="M100.58,91.73c-.6.09-1,.3-.9,1,.23,2.6.3,5.22.7,7.79.57,3.58,1.42,7.11,2.11,10.67.17.9.16,1.84.3,2.75.65,4,1.35,8.05,2,12.09.31,1.93.61,3.87.77,5.82.09,1.15.6,1.59,1.67,1.55.76,0,1.53,0,2.3-.06,2.31-.1,2.44-.1,2.46-2.33a34.31,34.31,0,0,0-.62-4.55,14.44,14.44,0,0,1-.07-1.83c0-.52.09-1,0-1.55-.29-3.29-.95-6.59-.83-9.86.12-3.51-.63-6.86-1-10.28q-.46-4.69-1.14-9.37a15.89,15.89,0,0,0-1-2.86C105,91.06,102.8,91.41,100.58,91.73Z"/><path class="cls-4" d="M111,90c-1.58.43-1.57.41-1.32,2.06.39,2.57.76,5.15,1.14,7.72.31,2.11.72,4.21.93,6.33.27,2.7.39,5.41.58,8.12.22,3.08.39,6.17.68,9.25.24,2.62.6,5.24.9,7.86.13,1.14.38,1.31,1.58,1a12.12,12.12,0,0,1,2.59-.51c1.27,0,1.65-.71,1.68-1.78.06-2.12.2-4.26.1-6.37-.18-3.7-.52-7.38-.79-11.07-.24-3.34-.5-6.69-.72-10q-.41-6.12-.76-12.24a21.37,21.37,0,0,1,.11-2.18c-1.67.41-3.22.77-4.76,1.17C112.28,89.48,111.66,89.79,111,90Z"/><path class="cls-4" d="M121.19,87.45c-.81.24-1.18.52-1.12,1.47.42,6,.76,11.91,1.13,17.86.42,6.71.86,13.42,1.25,20.13,0,.75-.19,1.51-.2,2.27a10.35,10.35,0,0,0,.23,1.66,7.85,7.85,0,0,0,2.25-.52c1.4-.81,1.63-2.45,2.09-3.8,1.06-3.09,2.3-6.15,2.62-9.45a55.41,55.41,0,0,1,.61-6.3c.73-3.42.06-6.85.2-10.27.17-4.13-.5-8.3-.78-12.45a4.4,4.4,0,0,0-.92-3C126,85.91,123.6,86.72,121.19,87.45Z"/><path class="cls-4" d="M127.64,129.4a2.62,2.62,0,0,0,.76,0c2.4-.74,4.58-1.78,6-4,1.07-1.66,2.28-3.16,2.75-5.21a20.12,20.12,0,0,1,2.32-6c1.19-1.95,1.11-4,1.37-6a8.33,8.33,0,0,1,.6-1.76c.07-.19.27-.35.28-.53.09-2.26.17-4.53.21-6.79,0-1.95.07-3.9,0-5.85s-.29-3.62-.46-5.43-.38-3.66-.57-5.49c0-.3-.08-.61-.14-1.07-1.43.46-2.74.89-4.06,1.29-1.57.47-3.15.92-4.72,1.36-1,.27-1.31.71-1.07,1.81.44,2,.7,4,1,5.94a5.56,5.56,0,0,1-.27,1.6c0,.19-.16.41-.1.57.93,2.5.35,5.09.45,7.63,0,1.11-.3,2.23-.35,3.34,0,.53.37,1.08.36,1.62,0,1.4-.17,2.8-.29,4.19-.23,2.63-.39,5.28-.77,7.89a32.78,32.78,0,0,1-1.24,4.83C129,125.34,128.33,127.32,127.64,129.4Z"/><path class="cls-4" d="M137.52,123.7a4,4,0,0,0,.93-.36c1.75-1.53,3.51-3.05,4.29-5.36.06-.19,0-.48.15-.56,1.94-1.39,1.7-3.9,2.92-5.63a18.79,18.79,0,0,0,2.46-6.44,47.42,47.42,0,0,0,1.46-12.18c0-3.95-.13-7.89-.3-11.84a12.26,12.26,0,0,0-.71-3.14c-.08-.26-.73-.61-.93-.51-1.66.79-3.29,1.64-4.89,2.55a1.1,1.1,0,0,0-.26,1c1,4.16.85,8.41,1.1,12.63,0,.63-.11,1.27-.12,1.91,0,3,0,6.06-.15,9.08a22.68,22.68,0,0,1-.95,5.89c-1.26,3.73-1.9,7.71-4.2,11.06A11.06,11.06,0,0,0,137.52,123.7Z"/></svg>