<svg id="圖層_1" data-name="圖層 1" xmlns="http://www.w3.org/2000/svg" viewBox="0 0 135 120.84"><defs><style>.cls-1{fill:#c38127;}.cls-2{fill:#7d5a26;}.cls-3{fill:#eabe28;}.cls-4{fill-rule:evenodd;}</style></defs><title>graphic</title><path class="cls-1" d="M109.53,65.26a.84.84,0,0,1,.74,0,10.83,10.83,0,0,0,7.38,1.08,1.2,1.2,0,0,1,.36,0l4.62.76c.2,0,.42.14.58.08,1.55-.6,2.61.72,3.93,1,.21,0,.36.37.48.51a10.31,10.31,0,0,1-.71,1.64c-.77,1.18-1.59,2.33-2.44,3.45-.48.64-1,1.28-2,.61-.19-.13-.66.15-1,.23a1.21,1.21,0,0,1-.55.08c-1.08-.33-2.14-.69-3.21-1.06-2-.69-4-1.44-6.06-2.07-.81-.25-1.27-.55-1.4-1.48-.2-1.39-.59-2.76-.87-4.14C109.36,65.74,109.39,65.36,109.53,65.26Z"/><path class="cls-2" d="M84.28,72.07c1.34-.2,1.54-.15,1.23,1.15-.56,2.32-1.35,4.58-2,6.86a39.72,39.72,0,0,1-1.33,4.42c-1.07,2.46-1.7,5.07-3,7.5a34.64,34.64,0,0,1-3.33,5.76A35.44,35.44,0,0,1,71,102.58a39.28,39.28,0,0,1-5.22,3.62,8.35,8.35,0,0,1-3.65,1.43c-1.75.07-3.6.35-5.32-.63a21.61,21.61,0,0,0-3.18-1.16c-.51-.2-1-.48-1.49-.73l-.11-.45,2-.89c.14-.06.32,0,.44-.12q1.64-1.16,3.26-2.36a25.6,25.6,0,0,0,3.55-2.72c2-2.06,3.79-4.24,5.54-6.48a26.48,26.48,0,0,0,3.3-5c1.17-2.53,1.78-5.32,3-7.83s1.74-5,2.8-7.55C78.74,73.1,81.52,72.48,84.28,72.07Z"/><path class="cls-2" d="M77.55,67.63c-1.08-.43-2.62-1-4.14-1.66-1.06-.45-2.08-1-3.11-1.49s-1.36-1.32-.74-2c1.1-1.22,1.23-3.2,3.09-3.85.33-.11.38-.89.65-1.3,1.21-1.78,2.22-3.8,3.77-5.23,1.27-1.17,1.69-3,3.32-3.82.51-.26.67-1.13,1.09-1.65,1.88-2.36,3.85-4.64,5.67-7a16.71,16.71,0,0,0,1.67-3.3c1.75-3.94,4.47-7.38,5.9-11.51.34-1,1-1.94,1.41-3,.33-.85,1-.47,1.44,0a22.09,22.09,0,0,1,4.73,7.29c1,2.4,1.25,4.9,1.91,7.33.31,1.14.81,2.54.42,3.49-.76,1.82,0,3.63-.5,5.38a2,2,0,0,0-.11.7,6.93,6.93,0,0,1-1.32,5.15c-.82,1.08-1.23,2.47-2.06,3.54-1.25,1.62-2.71,3.07-4.07,4.6-.36.4-.65.87-1,1.25a8.62,8.62,0,0,1-1.41,1.19,57.83,57.83,0,0,1-5.72,3.48,33,33,0,0,1-6.14,2.18A25.89,25.89,0,0,1,77.55,67.63Z"/><path class="cls-1" d="M78.9,105.27A55.51,55.51,0,0,0,73,106.76c.81-1.33,1.36-2.56,3-2.63.19,0,.39-.34.53-.56s.12-.56.28-.65c1.56-.79,1.6-2.53,2.41-3.78s1.62-2.71,2.53-4c1.75-2.52,2-5.64,3.47-8.29.66-1.19.59-2.78.84-4.18,0-.2,0-.4.09-.59q1.51-5.27,3-10.54s.05-.08,0-.11c-.66-2.49,1.72-2.06,2.78-2.91s2.4-.86,3.38-1.89a11.54,11.54,0,0,1,3.1-1.72,9.08,9.08,0,0,0,3.7-3,5,5,0,0,1,1.25-1,12,12,0,0,1,.75,2c.3,1.83.49,3.68.77,5.52.14,1,.38,1.91.58,2.86a8.24,8.24,0,0,1-.13,4.8c-.13.35.28.87.23,1.28-.45,3.43-1,6.85-1.42,10.27-.28,2.06-2,3.34-2.84,5.08-.61,1.22-2.17,2-3.33,2.91-.88.72-1.79,1.4-2.68,2.11-.19.15-.33.35-.53.48a42,42,0,0,1-3.62,2.21C87.22,102.35,83.41,104.65,78.9,105.27Z"/><path class="cls-1" d="M76,37.82c.6,1.85,1.05,3.58-.28,5.55s-3,3.35-4.23,5.2S69.17,52,68,53.74s-2.3,3.07-3.42,4.63a11.08,11.08,0,0,0-.83,1.57c-1,2-1.74,4-.62,6.17a4.5,4.5,0,0,0,1.33,1.44,22.64,22.64,0,0,0,3.37,2.21,20.55,20.55,0,0,0,3.29,1l1.45.43a8.34,8.34,0,0,0-1.23,2.37,22.7,22.7,0,0,1-2.9,7.88c-1.61,3-3.08,6.08-4.67,9.09-1.19,2.25-3.16,3.8-5.06,5.39a24.83,24.83,0,0,1-4.45,3.44,15,15,0,0,1-5.8,2c-.62,0-1.32.56-2.08.37a1.76,1.76,0,0,1-.68-.22c-2.18-1.72-4.74-2.63-7.27-3.67-2-.83-3.74-2.35-5.61-3.54a8.22,8.22,0,0,1-2.29-2.58,8.26,8.26,0,0,0-1.93-1.86c-1.44-1.08-2.09-2.67-2.93-4.15-.66-1.15-1.47-2.21-2.14-3.36a2.9,2.9,0,0,1-.22-1.23c-.07-1-.11-2-.15-3,0-.66,0-1.33-.05-2a15.84,15.84,0,0,0-.59-2.92,5.85,5.85,0,0,1,0-3.69c1-3.07,2.1-6.09,3.16-9.12.47-1.34,1-2.65,1.42-4,.15-.45,0-1,.17-1.45,1.3-3.28,3.7-5.76,6.06-8.26a34.31,34.31,0,0,1,3.1-2.58c1-.82,1.93-1.67,2.91-2.48a3.29,3.29,0,0,1,.84-.42c1.48-.6,2.84-1.48,4.23-2.21a47.86,47.86,0,0,1,5.43-2.52,36.23,36.23,0,0,0,3.84-1.68,13.42,13.42,0,0,1,8.48-1.68c2.28.38,4.64.16,6.88.64A27.67,27.67,0,0,1,74.78,36,3.14,3.14,0,0,1,76,37.82Z"/><path class="cls-3" d="M19.4,64.36c-.34.77-.68,1-1.42.7C15.09,64,12.2,63,9.21,61.9c.16-.29.24-.61.43-.72,1.76-1,3.25-2.42,5.47-2.6a12.51,12.51,0,0,0,3.4-1.34l4.69-1.92.32.36c-.26.6-.5,1.21-.79,1.8C21.61,59.78,20.44,62,19.4,64.36Z"/><path d="M69.57,62.46c-.62.69-.22,1.54.74,2s2.05,1,3.11,1.49c1.52.65,3.06,1.23,4.14,1.66a25.89,25.89,0,0,0,4.71-.27,33,33,0,0,0,6.14-2.18,57.83,57.83,0,0,0,5.72-3.48,8.62,8.62,0,0,0,1.41-1.19c.38-.38.67-.85,1-1.25,1.36-1.53,2.82-3,4.07-4.6.83-1.07,1.25-2.46,2.06-3.54A6.93,6.93,0,0,0,104,46a2,2,0,0,1,.11-.7c.48-1.75-.26-3.56.5-5.38.39-.95-.11-2.35-.42-3.49-.67-2.43-.91-4.93-1.91-7.33a22.09,22.09,0,0,0-4.73-7.29c-.45-.44-1.12-.83-1.44,0-.4,1-1.06,2-1.41,3-1.43,4.13-4.15,7.56-5.9,11.51a16.71,16.71,0,0,1-1.67,3.3c-1.81,2.41-3.79,4.69-5.67,7-.42.52-.58,1.39-1.09,1.65-1.63.84-2,2.66-3.32,3.82-1.55,1.42-2.55,3.44-3.77,5.23-.27.4-.33,1.18-.65,1.3C70.8,59.26,70.67,61.25,69.57,62.46ZM121.5,74.63c.35-.08.82-.36,1-.23,1,.67,1.49,0,2-.61.85-1.12,1.66-2.27,2.44-3.45a10.31,10.31,0,0,0,.71-1.64c-.13-.14-.27-.47-.48-.51-1.32-.28-2.38-1.6-3.93-1-.16.06-.39-.05-.58-.08L118,66.35a1.2,1.2,0,0,0-.36,0,10.83,10.83,0,0,1-7.38-1.08.84.84,0,0,0-.74,0c-.14.1-.17.48-.12.71.28,1.38.67,2.75.87,4.14.13.92.59,1.22,1.4,1.48,2,.63,4,1.37,6.06,2.07,1.07.36,2.13.72,3.21,1.06A1.21,1.21,0,0,0,121.5,74.63Zm-52,38.73c-.46.07-1,.45-1.33.28a3.55,3.55,0,0,0-3-.25c-2.06.66-3.81-.41-5.67-.91a52.62,52.62,0,0,0-6.26-1.71,40.72,40.72,0,0,1-6.35-1.53,13.61,13.61,0,0,1-3.9-2.38,9.64,9.64,0,0,0-3.89-2.22A3.87,3.87,0,0,1,37,103.25c-1-1.35-2.81-1.58-3.72-3.17-.73-1.27-2.33-2-3.39-3.12a69.51,69.51,0,0,1-6.74-7.63c-1.47-2.12-2.19-4.76-3.22-7.18-.44-1-.84-2.12-1.21-3.19-.86-2.5-.52-5.12-.69-7.69,0-.67-.17-1-.77-1.28-1.84-.87-3.63-1.86-5.48-2.71S8.22,65.84,6.45,65.1c-.63-.26-1.2-.64-1.82-.92a1.6,1.6,0,0,1-1-2.17c.62-1.79,1.43-3.49,3.35-4.25s3.69-1.29,5.48-2.07c2.48-1.08,4.9-2.31,7.37-3.44,1.93-.88,4-1.56,5.82-2.58.86-.48,1.39-1.56,2.07-2.38l3.93-4.73c.18-.21.44-.38.56-.62,1.42-2.84,4.25-4.07,6.63-5.82,1.15-.85,2.38-1.6,3.6-2.35a7.19,7.19,0,0,1,1.6-.72c2.81-.88,5.63-1.75,8.45-2.58a42.86,42.86,0,0,1,4.92-1.29,39.41,39.41,0,0,1,5-.37,12,12,0,0,1,2.37.15c3,.47,6,.65,8.81,1.93a24.19,24.19,0,0,0,4.27,1c.63.15,1.21.49,1.84.7a21.74,21.74,0,0,0,2.81.78c.27,0,.74-.33.92-.63,1.56-2.58,3-5.2,4.62-7.77.88-1.43,1.88-2.78,2.83-4.16S92.62,18.26,93.5,17a9.28,9.28,0,0,1,.65-.86c.87-1,1.85-.79,2.76.09a26.78,26.78,0,0,0,3.6,2.71,12.39,12.39,0,0,1,4.6,4.94c1.29,2.82,2.52,5.67,3.62,8.56a19.39,19.39,0,0,1,1.47,7,.3.3,0,0,0,0,.12c1,2.2.37,4.53.57,6.8,0,.31.12.62.14.94,0,.54.3,1.32,0,1.6-1.8,2-1.72,4.84-3.36,6.8-.57.68-1.13,1.17-1,2.1a2.68,2.68,0,0,0,2.35,2c1.71,0,3.41.16,5.12.23.59,0,1.17,0,1.76,0a4.76,4.76,0,0,1,1,.19,9.34,9.34,0,0,0,2,.59,11.51,11.51,0,0,1,3.74.44c1.23.47,2.66.41,3.92.82a27.55,27.55,0,0,1,3.25,1.6,11.86,11.86,0,0,0,1.32.47c.22.5.42.94.61,1.39a1.15,1.15,0,0,1,.15.54q-.44,2.72-.93,5.43a2.32,2.32,0,0,1-.23.5l-.74,1.66c-.54.74-.91,1.28-1.32,1.79a16.86,16.86,0,0,1-1.33,1.52,14.92,14.92,0,0,1-1.79,1.56,3,3,0,0,1-1.23.42c-3.23.53-6.28-.46-9.37-1.14-.35-.08-.78.19-1.27.33l-2.69-2.26a3.89,3.89,0,0,0-.46,1.12c-.08,1.38-.08,2.76-.1,4.13a8.78,8.78,0,0,1-1,5,28.49,28.49,0,0,0-2.67,5.21,26.54,26.54,0,0,1-2.92,5,46,46,0,0,1-3.4,4.3,33,33,0,0,1-3.73,3.79,21.73,21.73,0,0,1-3.37,1.88c-1.91,1.07-3.84,2.1-5.71,3.24-.67.41-1.78.44-1.81,1.61,0,0-.06.06-.1.06-1.35.15-2.7.32-4.06.44-.29,0-.62-.24-.9-.18-2.6.57-5.18,1.18-7.78,1.77-.17,0-.38-.09-.56-.07C71.4,113.13,70.47,113.23,69.55,113.36ZM76,104.13c-1.64.07-2.19,1.3-3,2.63a55.51,55.51,0,0,1,5.93-1.49c4.51-.62,8.33-2.92,12.29-4.87a42,42,0,0,0,3.62-2.21c.2-.13.35-.33.53-.48.89-.71,1.8-1.39,2.68-2.11,1.15-.94,2.71-1.69,3.33-2.91.87-1.74,2.56-3,2.84-5.08.46-3.43,1-6.84,1.42-10.27.05-.41-.36-.94-.23-1.28a8.24,8.24,0,0,0,.13-4.8c-.2-1-.43-1.9-.58-2.86-.28-1.83-.47-3.68-.77-5.52a12,12,0,0,0-.75-2,5,5,0,0,0-1.25,1,9.08,9.08,0,0,1-3.7,3,11.54,11.54,0,0,0-3.1,1.72c-1,1-2.37,1.07-3.38,1.89s-3.43.42-2.78,2.91c0,0,0,.07,0,.11q-1.52,5.27-3,10.54c-.05.19-.05.4-.09.59-.25,1.41-.18,3-.84,4.18-1.47,2.65-1.73,5.77-3.47,8.29-.9,1.3-1.66,2.69-2.53,4s-.85,3-2.41,3.78c-.16.08-.15.45-.28.65S76.15,104.13,76,104.13ZM18,65.05c.75.27,1.08.07,1.42-.7,1-2.32,2.21-4.58,3.31-6.87.28-.59.53-1.2.79-1.8l-.32-.36L18.5,57.25a12.51,12.51,0,0,1-3.4,1.34c-2.22.18-3.71,1.62-5.47,2.6-.19.11-.26.43-.43.72C12.2,63,15.09,64,18,65.05Zm28.36,36.7c.77.18,1.46-.33,2.08-.37a15,15,0,0,0,5.8-2,24.83,24.83,0,0,0,4.45-3.44c1.9-1.59,3.87-3.14,5.06-5.39,1.59-3,3.06-6.09,4.67-9.09a22.7,22.7,0,0,0,2.9-7.88,8.34,8.34,0,0,1,1.23-2.37l-1.45-.43a20.55,20.55,0,0,1-3.29-1,22.64,22.64,0,0,1-3.37-2.21,4.5,4.5,0,0,1-1.33-1.44c-1.13-2.16-.35-4.19.62-6.17a11.08,11.08,0,0,1,.83-1.57c1.12-1.56,2.31-3.06,3.42-4.63s2.36-3.45,3.54-5.18,3-3.32,4.23-5.2.88-3.7.28-5.55A3.14,3.14,0,0,0,74.78,36,27.67,27.67,0,0,0,69,33.82c-2.24-.48-4.6-.26-6.88-.64a13.42,13.42,0,0,0-8.48,1.68,36.23,36.23,0,0,1-3.84,1.68,47.86,47.86,0,0,0-5.43,2.52c-1.4.72-2.76,1.61-4.23,2.21a3.29,3.29,0,0,0-.84.42c-1,.81-1.93,1.66-2.91,2.48a34.31,34.31,0,0,0-3.1,2.58c-2.36,2.5-4.77,5-6.06,8.26-.17.44,0,1-.17,1.45-.43,1.35-.95,2.66-1.42,4-1.07,3-2.18,6.05-3.16,9.12a5.85,5.85,0,0,0,0,3.69,15.84,15.84,0,0,1,.59,2.92c.09.65,0,1.32.05,2,0,1,.08,2,.15,3a2.9,2.9,0,0,0,.22,1.23c.67,1.14,1.49,2.2,2.14,3.36.85,1.48,1.5,3.07,2.93,4.15a8.26,8.26,0,0,1,1.93,1.86,8.22,8.22,0,0,0,2.29,2.58c1.87,1.19,3.6,2.7,5.61,3.54,2.53,1,5.09,2,7.27,3.67A1.76,1.76,0,0,0,46.34,101.75Zm7.35,4.08A21.61,21.61,0,0,1,56.86,107c1.71,1,3.57.7,5.32.63a8.35,8.35,0,0,0,3.65-1.43A39.28,39.28,0,0,0,71,102.58a35.44,35.44,0,0,0,4.79-4.82A34.64,34.64,0,0,0,79.17,92c1.27-2.43,1.9-5,3-7.5a39.72,39.72,0,0,0,1.33-4.42c.68-2.29,1.47-4.55,2-6.86.31-1.3.11-1.35-1.23-1.15-2.76.41-5.54,1-8.26-.37-1.06,2.54-1.64,5.13-2.8,7.55s-1.82,5.3-3,7.83a26.48,26.48,0,0,1-3.3,5c-1.75,2.24-3.58,4.42-5.54,6.48a25.6,25.6,0,0,1-3.55,2.72q-1.62,1.2-3.26,2.36c-.12.08-.3.06-.44.12l-2,.89.11.45C52.69,105.36,53.17,105.64,53.69,105.84Z"/><path class="cls-4" d="M43.89,55.66c-2.06-.13-3.49-2.9-2.69-4.7l.05-.11c.55-.87,4.74-2,5.68-1.59a2.86,2.86,0,0,1,1.32,3,9.83,9.83,0,0,1-.79,2C46.58,55.8,45,55.47,43.89,55.66Z"/></svg>