<svg id="圖層_1" data-name="圖層 1" xmlns="http://www.w3.org/2000/svg" viewBox="0 0 392.74 194.29"><defs><style>.cls-1{fill:#fff;}</style></defs><title>graphic</title><path d="M384.44,151.19c-4.36-13.57-8.32-27.27-13.94-40.38A145.28,145.28,0,0,0,341.78,68C330.89,56.56,318.57,46.77,306,37.23c-5.28-4-10.52-8.11-16-11.86-8.54-5.86-18-9.69-27.95-12.59-12.54-3.66-25.09-7.25-38-9.59A184.28,184.28,0,0,0,197.34.38,8.12,8.12,0,0,1,196.2.18H181.56c-1.45.12-2.9.29-4.36.34-8.78.35-17.35,2.1-25.93,3.83-6.06,1.23-12.16,2.29-18.21,3.6a72.15,72.15,0,0,0-25.84,11.57A370.65,370.65,0,0,0,68.55,49.6C59.23,58,50.3,66.83,42.83,77a145,145,0,0,0-18,33.34c-3.3,8.43-7.12,16.66-10.65,25A107.57,107.57,0,0,0,6.1,169.45a5.52,5.52,0,0,1-.22.89v6.48c.12.57.26,1.14.34,1.71a16.49,16.49,0,0,0,.44,2.12l20.38-.8c-1.19-1.78-.95-3.22.85-4.42a48.24,48.24,0,0,1,5.32-3C44,167.08,54.89,162,66.14,157.78A165.9,165.9,0,0,1,99.95,149c10.9-1.67,21.86-2.89,32.78-4.43,6.37-.9,12.68-2.19,19-3.05,7-.94,14-1.82,21.08-2.31,7.61-.52,15.25-.7,22.88-.75a209.3,209.3,0,0,1,28.91,2.16c7.41,1,14.84,1.76,22.27,2.55,18.87,2,37.78,3.77,56.36,7.86a294.36,294.36,0,0,1,55.79,18.65c3,1.32,6,2.5,9.1,3.69,3.24,1.27,3.52,2,1.82,5h12.9c.49-1.31,1-2.63,1.4-4A36.71,36.71,0,0,0,384.44,151.19ZM371.95,169a16.1,16.1,0,0,1-3.07-1.07c-11.35-6.72-23.64-11.09-36.38-14.14-14.68-3.51-29.4-6.88-44.18-9.91-9.58-2-19.29-3.28-29-4.74q-14.16-2.14-28.37-4c-11.41-1.47-22.84-3.1-34.36-3.11-6.4,0-12.83.9-19.21,1.64-8.09.95-16.16,2.13-24.24,3.24-7.6,1-15.18,2.28-22.79,3.17s-15,1.53-22.56,2.1c-11,.83-21.93,1.54-32.63,4.32a82.74,82.74,0,0,0-17.93,7.27c-9.17,4.86-18.51,9.4-27.78,14.06-2.46,1.23-5,2.39-7.43,3.59a5.24,5.24,0,0,1,.48-6.9,14.86,14.86,0,0,1,3-2.18c14.85-8.46,30.63-14.7,46.88-19.9a136.08,136.08,0,0,1,26.49-5.32c6.86-.77,13.66-2.07,20.48-3.16,12.35-2,24.68-4,37-5.91,6.79-1,13.61-1.91,20.44-2.67a106.72,106.72,0,0,1,20.71.16c15.26,1.28,30.35,3.91,45.5,6,9.18,1.28,18.4,2.29,27.61,3.35a254.28,254.28,0,0,1,29.58,5.39q21,5,41.92,10.12c8.46,2.09,15.77,6.48,22.52,11.86,2.31,1.84,4.5,3.84,6.75,5.75a5.65,5.65,0,0,0,.82.49Zm0-13.43a97.12,97.12,0,0,0-25.81-12.45A455.36,455.36,0,0,0,302,130.89a216.36,216.36,0,0,0-28.8-4.22c-11.11-.86-22.26-1.31-33.37-2.23C234,124,228.32,123,222.61,122a184.64,184.64,0,0,0-27-2.82,235.68,235.68,0,0,0-40.75,2.67c-18.57,2.77-37.13,5.61-55.66,8.63-10.68,1.75-21.29,3.92-31.93,5.91l-.16,0-8.52,2.84h0l-6.95,2.31,0,.06c-1.75.56-3.41,1.1-5.07,1.62-6.56,2-13.2,3.83-19.46,6.72a47.4,47.4,0,0,0-11,6.93c-.14.12-.3.21-.75.51,1.63-5.25,2.95-10.28,4.74-15.12,4.71-12.73,9.5-25.43,14.51-38A90.69,90.69,0,0,1,54.78,73.62c12.35-12.42,25-24.54,38.64-35.55,9.9-8,20.42-15,32.28-19.77a106.44,106.44,0,0,1,31.12-7.36c10-.85,20.1-1.34,30.18-1.26,25.67.2,50.79,3.78,75.16,12.09,15.87,5.42,30.69,12.85,43.36,24,7,6.16,13.67,12.78,20.25,19.41a253.82,253.82,0,0,1,24.63,28.92c7.47,10.2,13,21.42,17.68,33.1,3.24,8.08,6.59,16.12,9.62,24.27,1.2,3.22,1.67,6.71,2.54,10.38C377.25,159.57,374.68,157.48,372,155.6Z"/><path d="M316.23,159.81c-17.29-4.13-34.69-7.76-52.3-10.27a477.19,477.19,0,0,0-51.07-4.7,328.26,328.26,0,0,0-37.14.94c-8.6.68-17.24,1-25.83,1.81-9.31.86-18.6,2-27.87,3.16s-18.28,2.57-27.4,4a202.61,202.61,0,0,0-34.91,8.34c-8.36,2.88-15.47,7.73-22,13.51-2.39,2.11-4.74,4.27-7.29,6.58l5.42,5.38c-.8-1.29-.39-2.56,1.21-4.24,8.69-9.13,18.81-15.71,31.44-18.09,17.35-3.26,34.65-6.77,52-10.15a240.14,240.14,0,0,1,26.48-3.53c12.44-1,24.9-1.22,37.37-1.5,16-.36,32,.29,48,1.46,10,.74,20.1,1.26,30.14,2A224.18,224.18,0,0,1,304,162c20.35,5.56,39.88,13.35,59.11,21.94.21.09.4.23.67.38l5.2-5c-2.35-1.18-4.66-2.36-7-3.49A226.75,226.75,0,0,0,316.23,159.81Z"/><polygon class="cls-1" points="58.55 139.25 58.56 139.24 58.55 139.24 58.55 139.25"/></svg>