<svg id="圖層_1" data-name="圖層 1" xmlns="http://www.w3.org/2000/svg" viewBox="0 0 197.82 186.02"><defs><style>.cls-1,.cls-3{fill:#070404;}.cls-1{stroke:#090405;stroke-miterlimit:10;stroke-width:3px;}.cls-1,.cls-2,.cls-3,.cls-4{fill-rule:evenodd;}.cls-2{fill:#dbb63b;}.cls-4{fill:#2793b8;}</style></defs><title>graphic</title><path class="cls-1" d="M54.5,84.32a36.8,36.8,0,0,1,5,2.37c5.81,3.55,8.66,8.84,9.17,15.52a21.71,21.71,0,0,1,0,4.59c-.08.56.14.8.7.8l3.9,0c.84,0,1.1-.67,1.36-1.28a29.8,29.8,0,0,1,4.22-7.12,26.4,26.4,0,0,1,4.85-4.74c4-3,8.08-5.9,12.93-7.45,7.8-2.49,15-1.06,21.74,3.29a33.52,33.52,0,0,1,9.52,9.16,16.36,16.36,0,0,1,1.77,3.57c.24.65.44.86,1.07.3,7-6.17,14.9-10.87,22.88-15.52A32.36,32.36,0,0,1,166,83.65a10.76,10.76,0,0,1,4.47.19,78.66,78.66,0,0,1,11.47,4.35,6.14,6.14,0,0,1,2.76,2.53,2,2,0,0,1-.12,2.42,4.48,4.48,0,0,1-4.12,2,30.1,30.1,0,0,1-7-1.25c-5.26-1.6-10.35-.76-15.3,1.33a40.9,40.9,0,0,0-16.8,12.7,21.56,21.56,0,0,1-3.41,3.23c-2.15,1.79-4.3,3.59-6.47,5.36a1.61,1.61,0,0,0-.65,1.36A28.32,28.32,0,0,1,127.94,130a16.08,16.08,0,0,1-7.8,7.85c-3.73,1.8-7.51,3.53-11.64,4.12a31.75,31.75,0,0,1-17.39-2.4,57.58,57.58,0,0,1-8.25-4.48,10.35,10.35,0,0,1-3.06-3c-2.06-3.07-4.24-6.07-5.6-9.55A20.61,20.61,0,0,1,73,117.82c-.09-.66-.32-.92-1-.9-1.36,0-2.73.06-4.1,0a2.66,2.66,0,0,0-2.48,1.37c-1.33,2.08-2.66,4.16-4,6.23a39,39,0,0,1-4.85,6.22c-3.16,3.22-6.87,5.42-11.46,5.7-5.66.35-11.27.24-16.49-2.49a88.65,88.65,0,0,1-8.35-5.48c-5.24-3.54-7.09-8.88-8.18-14.67a31.44,31.44,0,0,1,0-10.84,17.57,17.57,0,0,1,4.47-8.69c3.42-4,7.1-7.59,11.93-9.86A35.29,35.29,0,0,1,40.9,81.17,6.93,6.93,0,0,0,44.06,80C50.57,76,57,71.81,63.59,67.89c4.51-2.68,9.32-4.75,14-7.17a23.49,23.49,0,0,1,5.07-2.33c3.78-.94,7,.24,10,2.58,2.6,2.08,4.93,4.48,7.39,6.73,1.45,1.33,1,3,.43,4.55A2.75,2.75,0,0,1,97.33,74a15.75,15.75,0,0,1-5.62-1.27,8.56,8.56,0,0,1-3.49-3.06c-1.39-2-2.7-2.37-4.89-1.38a57,57,0,0,1-5.84,2.07,20.89,20.89,0,0,0-5.3,2.54C66.67,76.6,61,80.09,55.39,83.71ZM14.08,108.07a29.51,29.51,0,0,0,.6,6.51c.92,4.66,2.72,8.76,7.09,11.26a11.57,11.57,0,0,1,1.12.84,61.62,61.62,0,0,0,6.6,4.49c3.43,2,7.28,2.21,11,2.81a11.44,11.44,0,0,0,7.59-1c6.33-3.6,11.55-8.34,14.53-15.16a50.55,50.55,0,0,0,3.29-13.41,14,14,0,0,0-3.19-11.45,24.8,24.8,0,0,0-8-6.25C50.22,84.4,45.5,82.8,40.3,84.17c-3.18.84-6.48,1.17-9.54,2.47-5.33,2.26-9.13,6.29-12.67,10.71C15.4,100.69,13.89,104.33,14.08,108.07Zm114.22,7.31c0-.63-.08-1.46-.11-2.29a41.22,41.22,0,0,0-.73-7.34A16.21,16.21,0,0,0,122.1,97a45.58,45.58,0,0,0-9-6.2c-4-2.1-8.23-2.23-12.63-1.55a22.21,22.21,0,0,0-10.28,4.28c-2,1.53-4,3-6.07,4.57a13.82,13.82,0,0,0-3.59,4,38.1,38.1,0,0,0-4,9.73c-1.28,4.73-.91,9.22,1.85,13.39l4.48,6.73a2.5,2.5,0,0,0,.8.74q3,1.86,6.12,3.57a30.7,30.7,0,0,0,11.44,3.22,19.76,19.76,0,0,0,5.85.26,46.32,46.32,0,0,0,11.09-3.83,15.89,15.89,0,0,0,8-8.26C127.84,123.76,128.18,119.7,128.3,115.38Zm2.06-2.29a10.93,10.93,0,0,0,2-1.61c3.4-3.19,6.75-6.44,10.21-9.57,5-4.52,10.94-7.5,17.06-10.18A18.59,18.59,0,0,1,173,90.85a34.22,34.22,0,0,0,7.44,1.36c.47,0,1.3.2,1.39-.32s-.57-1-1.12-1.27c-.09,0-.19-.07-.28-.11-3.15-1.24-6.29-2.51-9.49-3.62a10.31,10.31,0,0,0-6.84,0c-2.21.73-4.31,1.73-6.56,2.35a22,22,0,0,0-5.91,2.32c-3.11,1.94-6.23,3.84-9.31,5.82a62.24,62.24,0,0,0-11.31,9,2.63,2.63,0,0,0-1,2.08C130.12,110,130.22,111.47,130.35,113.1ZM46.12,81.19a6.84,6.84,0,0,0,8.19-.1q7.44-4.86,14.93-9.63a53.58,53.58,0,0,1,12-6,9.72,9.72,0,0,1,10.21,2c1,.88,2.08,1.66,3.11,2.51a3.92,3.92,0,0,0,2.94.83c-.84-1.42-1.95-2.54-2.69-3.91A12.53,12.53,0,0,0,92,63.61a10.31,10.31,0,0,0-12.22-1.44l-3,1.63C70,67.51,63,70.9,56.27,74.81,52.85,76.79,49.57,79,46.12,81.19Zm24.25,32.57h2.69c.38,0,.63,0,.64-.53a18.21,18.21,0,0,1,.16-1.88c.06-.49-.11-.61-.6-.6a28.21,28.21,0,0,1-3.68-.11c-1.64-.19-2.61.9-2.5,2.56,0,.44.18.57.6.56C68.58,113.75,69.48,113.76,70.37,113.76Z"/><path class="cls-2" d="M14.08,108.07c-.19-3.74,1.32-7.38,4-10.72,3.54-4.42,7.34-8.45,12.67-10.71,3.06-1.3,6.36-1.63,9.54-2.47,5.21-1.37,9.93.22,14.47,2.51a24.8,24.8,0,0,1,8,6.25,14,14,0,0,1,3.19,11.45,50.55,50.55,0,0,1-3.29,13.41c-3,6.82-8.2,11.56-14.53,15.16a11.44,11.44,0,0,1-7.59,1c-3.76-.6-7.61-.86-11-2.81a61.62,61.62,0,0,1-6.6-4.49,11.57,11.57,0,0,0-1.12-.84c-4.37-2.5-6.17-6.6-7.09-11.26A29.51,29.51,0,0,1,14.08,108.07ZM41.33,87.15a10.66,10.66,0,0,0-2.54.21c-5.09.82-9.86,2.57-13.55,6.22-3.51,3.47-5.71,7.89-7.4,12.52a14,14,0,0,0-.83,6.17,25.74,25.74,0,0,0,3.11,9.18,6.54,6.54,0,0,0,2.17,2.45A69.47,69.47,0,0,0,31,129.1a23.61,23.61,0,0,0,14.14,1.8,17.49,17.49,0,0,0,10.65-6.41,49.58,49.58,0,0,0,7-11.92,10.48,10.48,0,0,0-.12-9,116.35,116.35,0,0,0-6.13-10.73,1.27,1.27,0,0,0-.33-.37C51.84,89.32,47.08,87.22,41.33,87.15Z"/><path class="cls-2" d="M128.3,115.38c-.12,4.31-.45,8.37-2.17,12.2a15.89,15.89,0,0,1-8,8.26A46.32,46.32,0,0,1,107,139.66a19.76,19.76,0,0,1-5.85-.26,30.7,30.7,0,0,1-11.44-3.22q-3.11-1.71-6.12-3.57a2.5,2.5,0,0,1-.8-.74l-4.48-6.73c-2.76-4.16-3.13-8.66-1.85-13.39a38.1,38.1,0,0,1,4-9.73,13.82,13.82,0,0,1,3.59-4c2-1.53,4.05-3,6.07-4.57a22.21,22.21,0,0,1,10.28-4.28c4.4-.68,8.63-.55,12.63,1.55a45.58,45.58,0,0,1,9,6.2,16.21,16.21,0,0,1,5.35,8.8,41.22,41.22,0,0,1,.73,7.34C128.21,113.93,128.27,114.76,128.3,115.38Zm-2.52-1.3a21,21,0,0,0-.68-5.32c-.79-3.33-1.8-6.58-4.31-9.07a28.83,28.83,0,0,0-8.45-5.76c-4.88-2.22-9.9-2-14.83-.63-9.87,2.79-16.7,8.94-19.63,19-1.28,4.38-.92,8.55,1.92,12.31a36.1,36.1,0,0,0,4.67,4.64,32.12,32.12,0,0,0,9.94,6.55c4.87,1.89,9.83,1.26,14.77.5,3.93-.6,7-2.84,9.63-5.65C123.06,126.13,125.8,121,125.77,114.08Z"/><path class="cls-2" d="M130.35,113.1c-.13-1.63-.24-3.13-.36-4.62a2.63,2.63,0,0,1,1-2.08,62.24,62.24,0,0,1,11.31-9c3.08-2,6.21-3.88,9.31-5.82a22,22,0,0,1,5.91-2.32c2.25-.62,4.36-1.62,6.56-2.35a10.31,10.31,0,0,1,6.84,0c3.2,1.12,6.34,2.39,9.49,3.62.09,0,.19.06.28.11.55.28,1.21.72,1.12,1.27s-.92.36-1.39.32A34.22,34.22,0,0,1,173,90.85a18.59,18.59,0,0,0-13.41.89c-6.12,2.68-12.06,5.66-17.06,10.18-3.46,3.13-6.81,6.38-10.21,9.57A10.93,10.93,0,0,1,130.35,113.1Z"/><path class="cls-2" d="M46.12,81.19c3.46-2.18,6.73-4.4,10.15-6.39C63,70.9,70,67.51,76.84,63.79l3-1.63A10.31,10.31,0,0,1,92,63.61a12.53,12.53,0,0,1,2.78,3.25c.75,1.37,1.85,2.49,2.69,3.91a3.92,3.92,0,0,1-2.94-.83c-1-.85-2.12-1.63-3.11-2.51a9.72,9.72,0,0,0-10.21-2,53.58,53.58,0,0,0-12,6q-7.48,4.79-14.93,9.63A6.84,6.84,0,0,1,46.12,81.19Z"/><path class="cls-2" d="M70.37,113.76c-.9,0-1.79,0-2.69,0-.42,0-.56-.12-.6-.56-.12-1.66.86-2.75,2.5-2.56a28.21,28.21,0,0,0,3.68.11c.49,0,.66.11.6.6a18.21,18.21,0,0,0-.16,1.88c0,.48-.26.53-.64.53Z"/><path class="cls-3" d="M41.33,87.15c5.75.06,10.51,2.17,14.89,5.33a1.27,1.27,0,0,1,.33.37,116.35,116.35,0,0,1,6.13,10.73,10.48,10.48,0,0,1,.12,9,49.58,49.58,0,0,1-7,11.92,17.49,17.49,0,0,1-10.65,6.41A23.61,23.61,0,0,1,31,129.1a69.47,69.47,0,0,1-8.74-5.18,6.54,6.54,0,0,1-2.17-2.45A25.74,25.74,0,0,1,17,112.28a14,14,0,0,1,.83-6.17c1.69-4.63,3.89-9,7.4-12.52,3.69-3.65,8.46-5.41,13.55-6.22A10.66,10.66,0,0,1,41.33,87.15ZM19.73,111.32c.13.81,0,1.56.23,2.33a46.45,46.45,0,0,0,2.56,7,4.62,4.62,0,0,0,2.17,2.28c2.29,1.22,4.62,2.36,6.87,3.64,4.47,2.53,9.24,2.58,14.11,1.79a12.6,12.6,0,0,0,7.7-4.8c3.63-4.35,5.42-9.64,7.5-14.77a4.42,4.42,0,0,0-.19-3.68,60.69,60.69,0,0,0-4.94-8.19,13.19,13.19,0,0,0-8.15-5.5c-2.08-.46-4.19-.64-6.3-.92a12.06,12.06,0,0,0-7.89,1.38c-.92.53-1.88,1-2.81,1.51C23.58,97.31,20.65,103.71,19.73,111.32Z"/><path class="cls-3" d="M125.77,114.08c0,6.88-2.71,12.05-7,16.55-2.66,2.81-5.7,5.06-9.63,5.65-4.94.76-9.9,1.39-14.77-.5a32.12,32.12,0,0,1-9.94-6.55,36.1,36.1,0,0,1-4.67-4.64c-2.84-3.76-3.2-7.93-1.92-12.31,2.94-10,9.76-16.19,19.63-19,4.93-1.39,10-1.59,14.83.63a28.83,28.83,0,0,1,8.45,5.76c2.51,2.48,3.52,5.74,4.31,9.07A21,21,0,0,1,125.77,114.08Zm-2.19.28a17.74,17.74,0,0,0-4-11.58c-5.44-6.45-12.49-8.54-20.71-6.93-3.24.63-5.84,2.43-8.38,4.41-4.74,3.69-8.19,8.11-8.78,14.35-.43,4.54.49,8.67,3.76,11.94a27.52,27.52,0,0,0,13.3,7.08,18.8,18.8,0,0,0,9.93.19c2.75-.81,4.93-2.58,7.2-4.2C121,126,123.61,121.11,123.59,114.36Z"/><path class="cls-4" d="M19.73,111.32c.91-7.61,3.84-14,10.87-18,.93-.52,1.89-1,2.81-1.51a12.06,12.06,0,0,1,7.89-1.38c2.1.28,4.22.46,6.3.92a13.19,13.19,0,0,1,8.15,5.5,60.69,60.69,0,0,1,4.94,8.19,4.42,4.42,0,0,1,.19,3.68c-2.08,5.14-3.87,10.42-7.5,14.77a12.6,12.6,0,0,1-7.7,4.8c-4.86.79-9.64.75-14.11-1.79-2.25-1.28-4.59-2.42-6.87-3.64a4.62,4.62,0,0,1-2.17-2.28,46.45,46.45,0,0,1-2.56-7C19.78,112.88,19.86,112.13,19.73,111.32Zm10.41-11.25a11.5,11.5,0,0,1,5.57-3.24c2.22-.53,4.46-.93,6.64.07,2.39,1.1,4.75,2.24,7.08,3.47a6.12,6.12,0,0,1,3.33,4.48A18.26,18.26,0,0,1,52.9,109a14.19,14.19,0,0,1-2.48,7.77c-2.61,3.69-6.36,5.63-10.59,6.83a4.67,4.67,0,0,1-4.28-.7,22.2,22.2,0,0,1-6.44-7.64,5.5,5.5,0,0,1,.44-6.05c2.51-3.2,5.78-5.19,10-5.09a5.58,5.58,0,0,1,5.27,4,9.69,9.69,0,0,1,.08,3.36c-.21,2-1,3.74-3.07,4.5a5,5,0,0,1-5.39-1.34,1.94,1.94,0,0,1-.73-2.14,2,2,0,0,1,2-1.22,20.84,20.84,0,0,1,2.78.24c1.07.06,1.25-.1,1.2-1.15a1.47,1.47,0,0,0-1.35-1.49c-2.38-.34-4.58,0-6.27,1.93a2.26,2.26,0,0,0-.54,1.85c.34,3,3.82,6,6.8,6.27,2.46.2,6.16-2.7,6.45-5.8a20.58,20.58,0,0,0-.15-6.17,5.11,5.11,0,0,0-2-3.22,10,10,0,0,0-7.4-1.66c-3,.4-5.4,2.07-7.7,3.94-3.33,2.7-3.78,6.4-2.21,10.17,1.16,2.8,3.17,4.94,5.21,7.12a8,8,0,0,0,7.6,2.55,17.41,17.41,0,0,0,13.52-10.2c1.71-3.64,1.72-7.55,1.16-11.44a6.13,6.13,0,0,0-3.13-4.63c-1.65-.94-3.3-1.88-4.89-2.91-4.72-3.08-9.55-3-14.49-.63C30.56,96.89,30,97.86,30.14,100.08Z"/><path class="cls-4" d="M123.59,114.36c0,6.75-2.57,11.65-7.64,15.27-2.27,1.62-4.45,3.39-7.2,4.2a18.8,18.8,0,0,1-9.93-.19,27.52,27.52,0,0,1-13.3-7.08c-3.28-3.27-4.19-7.4-3.76-11.94.59-6.24,4-10.66,8.78-14.35,2.54-2,5.14-3.78,8.38-4.41,8.22-1.6,15.27.48,20.71,6.93A17.74,17.74,0,0,1,123.59,114.36Zm-7.25-3.4a22.62,22.62,0,0,0-.28-4.08c-.36-2-1-3.77-3.06-4.6s-3.88-1.57-5.89-2.16c-3.52-1-7.1-1.51-10.65-.11-1.83.72-3.58,1.63-4.57,3.49-.14.27-.44.55,0,.87s.55-.06.76-.21A15.1,15.1,0,0,1,96.38,102c5.2-1.71,10.16-.86,15,1.45a4.72,4.72,0,0,1,2.41,3.05,26.67,26.67,0,0,1,.64,3.82,13.56,13.56,0,0,1-1.49,8.78c-3.3,5.92-10.06,9.62-17.11,5.32-3.89-2.37-4.92-6.55-2.48-10.39a10.67,10.67,0,0,1,6.27-4.65,8.16,8.16,0,0,1,4.59-.47c2.08.6,3.62,3.19,3.57,5.91a5.36,5.36,0,0,1-3.66,5,4.14,4.14,0,0,1-4.08-.95c-1.46-1.37-1.44-1.52.26-2.6a5.8,5.8,0,0,1,.88-.47c.58-.24,1.06-.62.87-1.26a1.14,1.14,0,0,0-1.42-.65A4.4,4.4,0,0,0,97,116.61c-.54,1.45.15,2.69,1.09,3.72,2.28,2.51,6.54,2.48,9.16,0a8.33,8.33,0,0,0,.07-11.46c-1.79-1.9-3.87-2.81-6.46-1.93a27.16,27.16,0,0,0-6.38,3.26c-3.71,2.5-4.71,6.58-3.84,10.55.63,2.87,2.57,4.57,5.19,5.76,3.7,1.68,7.35,3,11.36,1,2.14-1,4.37-1.94,5.66-4.08A23.29,23.29,0,0,0,116.33,111Z"/><path class="cls-3" d="M30.14,100.08c-.13-2.21.42-3.18,2.12-4,4.94-2.37,9.77-2.45,14.49.63,1.59,1,3.24,2,4.89,2.91a6.13,6.13,0,0,1,3.13,4.63c.56,3.9.56,7.8-1.16,11.44A17.41,17.41,0,0,1,40.1,125.9a8,8,0,0,1-7.6-2.55c-2-2.18-4.05-4.32-5.21-7.12-1.57-3.77-1.12-7.47,2.21-10.17,2.3-1.87,4.68-3.54,7.7-3.94a10,10,0,0,1,7.4,1.66,5.11,5.11,0,0,1,2,3.22,20.58,20.58,0,0,1,.15,6.17c-.29,3.1-4,6-6.45,5.8-3-.25-6.46-3.31-6.8-6.27a2.26,2.26,0,0,1,.54-1.85c1.69-2,3.89-2.27,6.27-1.93a1.47,1.47,0,0,1,1.35,1.49c.06,1.05-.13,1.2-1.2,1.15a20.84,20.84,0,0,0-2.78-.24,2,2,0,0,0-2,1.22,1.94,1.94,0,0,0,.73,2.14A5,5,0,0,0,41.82,116c2.08-.76,2.86-2.46,3.07-4.5a9.69,9.69,0,0,0-.08-3.36,5.58,5.58,0,0,0-5.27-4c-4.23-.1-7.49,1.89-10,5.09a5.5,5.5,0,0,0-.44,6.05,22.2,22.2,0,0,0,6.44,7.64,4.67,4.67,0,0,0,4.28.7c4.23-1.2,8-3.15,10.59-6.83A14.19,14.19,0,0,0,52.9,109a18.26,18.26,0,0,0-.14-4.18,6.12,6.12,0,0,0-3.33-4.48c-2.32-1.22-4.69-2.37-7.08-3.47-2.18-1-4.42-.59-6.64-.07A11.5,11.5,0,0,0,30.14,100.08Z"/><path class="cls-3" d="M116.33,111a23.29,23.29,0,0,1-3.53,12.5c-1.29,2.14-3.52,3.06-5.66,4.08-4,1.92-7.66.65-11.36-1-2.62-1.19-4.56-2.89-5.19-5.76-.87-4,.13-8.05,3.84-10.55a27.16,27.16,0,0,1,6.38-3.26c2.58-.88,4.66,0,6.46,1.93a8.33,8.33,0,0,1-.07,11.46c-2.62,2.5-6.89,2.53-9.16,0-.94-1-1.62-2.27-1.09-3.72a4.4,4.4,0,0,1,3.63-2.77,1.14,1.14,0,0,1,1.42.65c.19.64-.29,1-.87,1.26a5.8,5.8,0,0,0-.88.47c-1.7,1.08-1.73,1.24-.26,2.6a4.14,4.14,0,0,0,4.08.95,5.36,5.36,0,0,0,3.66-5c0-2.72-1.49-5.31-3.57-5.91a8.16,8.16,0,0,0-4.59.47A10.67,10.67,0,0,0,93.31,114c-2.44,3.85-1.4,8,2.48,10.39,7.05,4.29,13.81.6,17.11-5.32a13.56,13.56,0,0,0,1.49-8.78,26.67,26.67,0,0,0-.64-3.82,4.72,4.72,0,0,0-2.41-3.05c-4.8-2.31-9.76-3.16-15-1.45a15.1,15.1,0,0,0-3.79,2.19c-.22.15-.4.5-.76.21s-.1-.6,0-.87c1-1.86,2.74-2.77,4.57-3.49,3.55-1.4,7.13-.92,10.65.11,2,.59,3.95,1.38,5.89,2.16s2.71,2.64,3.06,4.6A22.62,22.62,0,0,1,116.33,111Z"/></svg>