<svg id="圖層_1" data-name="圖層 1" xmlns="http://www.w3.org/2000/svg" viewBox="0 0 721 718"><defs><style>.cls-1{fill:#1c1715;}.cls-1,.cls-10,.cls-2,.cls-3,.cls-4,.cls-5,.cls-6,.cls-7,.cls-8,.cls-9{fill-rule:evenodd;}.cls-2{fill:#fefcf9;}.cls-3{fill:#d35a4a;}.cls-4{fill:#e8bf30;}.cls-5{fill:#fcf9f4;}.cls-6{fill:#e7bf2f;}.cls-7{fill:#fdfcf9;}.cls-8{fill:#268ba9;}.cls-9{fill:#2e7b8f;}.cls-10{fill:#8d8781;}</style></defs><title>GraphicE</title><path class="cls-1" d="M239.87,326.32c-1.23-9-.87-17.59-.86-26.2A68.75,68.75,0,0,1,245.07,272c3.68-8.32,6.9-16.87,11.64-24.67a172.38,172.38,0,0,1,25.53-33c6.63-6.6,14.07-12.19,21.38-17.94a24.66,24.66,0,0,1,7.31-3.94c-1.52-1-3-.77-4.55-1.05,1.08-1.94-.27-3.09-1.32-4.38-5.36-6.53-10.75-13.07-14.26-20.83A94.41,94.41,0,0,1,283,140.63a21.87,21.87,0,0,1,.62-9.3,71.12,71.12,0,0,1,5.59-13.89,4.71,4.71,0,0,1,2.5-2.12,36.63,36.63,0,0,1,27.07-.8c3.37,1.15,6.58,2.28,8.25,5.85.69,1.47,2.19,2,3.84,1.73a2.76,2.76,0,0,0,2.66-2.23,113,113,0,0,1,5.12-16.45C342,95,345.44,86.57,352.48,80.31a21.37,21.37,0,0,1,14.7-5.66A7.6,7.6,0,0,1,371.6,76c3.67,2.52,7.38,5.1,10,8.7a38.49,38.49,0,0,1,6.11,14.2,24.16,24.16,0,0,1,.8,6.83,28.41,28.41,0,0,0,.41,6.9,24.71,24.71,0,0,1-.32,8.76,8.32,8.32,0,0,0-.16,2.8,2.85,2.85,0,0,0,4.87,1.53,5,5,0,0,0,.68-.89c5.31-8.67,12.22-16.1,18.54-24,3.15-3.93,5.68-8.39,9.11-12.12,6.43-7,11.87-14.84,18.73-21.47,5.42-5.24,12-8.6,18.69-11.63,3-1.36,6.53-.31,9.76.48,5.12,1.25,7.32,5.31,7.62,10.08.14,2.24,0,4.5,0,6.75,0,1.29.25,2.66-1.29,3.4-.24.11-.3.65-.39,1-1.53,6.05-2.78,12.18-5.6,17.84-2.47,5-5.61,9.54-8.35,14.36-1.73,3-3.64,6-5.43,9-.75,1.26-1.8,2.41-1.61,4.09,0,.34-.35.78-.63,1.1a170.3,170.3,0,0,0-12,15.84,185.68,185.68,0,0,0-10.3,15.85c-2.12,3.82-5.55,6.89-8.18,10.46-4.13,5.63-9.41,10.38-12.74,16.63-.56,1.05-.74,1.54.55,2,5.49,1.94,10.36,5.2,15.84,7.23,4.41,1.63,7.91,5,11.74,7.66a27.88,27.88,0,0,0,4.1,2.6,43.71,43.71,0,0,1,8.73,5.68c3.26,2.61,6.31,5.48,9.75,7.87a21,21,0,0,1,6.85,7.08,3.79,3.79,0,0,0,.81,1c4.18,3.64,6.63,8.56,9.83,12.93a138.93,138.93,0,0,1,13,21,3.1,3.1,0,0,0,3.8,1.92c4.69-1.13,9.56-.91,14.25-2.08,2.59-.65,5.35.05,8-.48,4.34-.86,8.84-1.17,13-2.52,3.63-1.17,7.16-2.83,10.82-4a108.7,108.7,0,0,1,15.19-3.84,14.17,14.17,0,0,1,4.3,0,34.19,34.19,0,0,0,7.3.09,4.91,4.91,0,0,1,5.43,4.65,8.47,8.47,0,0,1-1.44,5.71c-3.76,5.13-6.7,10.84-11.23,15.43-5.24,5.31-10.69,10.32-17.53,13.55a7.66,7.66,0,0,0-1.75,1.08,36.33,36.33,0,0,1-12.92,7.34,1.92,1.92,0,0,0-1.2.84c-1.07,2-3,2.7-5,3.36q-7.09,2.38-14.16,4.8c-3.1,1.06-3.69,1.83-3.78,5.13-.07,2.56-.18,5.13-.13,7.69a137.77,137.77,0,0,1-2.95,30.13c-2,10.15-3.84,20.34-6.56,30.33-1.9,7-3.49,14.09-6,20.83-3.24,8.79-5.73,17.94-10.56,26.11-1.65,2.8-1.51,2.91,1.11,4.76a123.21,123.21,0,0,1,10.62,8.32,2.49,2.49,0,0,0,2.9.4,25.47,25.47,0,0,0,11.67-9.57c1.69-2.4,3.42-4.78,5.11-7.18a7.38,7.38,0,0,0,1.67-3.31c.42-4.4,4-5.72,7.12-7.37,6.43-3.38,12.62-2.37,18.61,1.29a46.8,46.8,0,0,0,4.94,2.67,8.68,8.68,0,0,1,3.57,3.69,1.54,1.54,0,0,1,.09,1.41A45.59,45.59,0,0,1,533.74,439a85.62,85.62,0,0,0-8.27,9.94,40.77,40.77,0,0,1-7.24,7.56c-2.36,1.86-4.53,3.92-6.69,6a14.41,14.41,0,0,1-8,3.71c-3.82.56-7.72.6-11.58.84a12.12,12.12,0,0,1-5.49-1c-3.94-1.66-8.11-2.83-11.57-5.57-2-1.55-2.83-1.07-3.36,1.44-.78,3.66-1.46,7.34-2.32,11-1.29,5.44-3.2,10.61-6.79,15a2.43,2.43,0,0,0-.54,2.61c.25.57.76,1.27,1.41.67.91-.84,1.72-.43,2.6-.15a25.46,25.46,0,0,0,8,.81c6.13,0,12.26-.38,18.38.28a49.13,49.13,0,0,1,19.94,7.07,6.54,6.54,0,0,1,2.11,2.59c.59,1,1,.9,1.79.13,1.72-1.73,3.56-3.33,5.3-5s3.41-3.12,5.83-3.52a4,4,0,0,0,2.16-1.42,5.4,5.4,0,0,1,4.57-1.71,12.25,12.25,0,0,0,4.44,0,2,2,0,0,1,2.11.91c.57.8.2,1.56-.16,2.28a4.88,4.88,0,0,1-1.83,1.84c-6.6,4.33-12,10.06-18,15.18-3.33,2.88-6,6.54-9,9.83-1.09,1.21-2.19,2.41-3.35,3.54-2.2,2.15-3.51,2.28-6.13.61a8.21,8.21,0,0,0-2.84-.86,203.57,203.57,0,0,0-28.92-3.86c-5.48-.43-9.82.44-14.28,3.6-6.13,4.34-13.4,4.73-20.68,4.4-2.43-.11-4.86-.39-7.29-.57a4.48,4.48,0,0,0-3.24.49,1.83,1.83,0,0,1-1.64.12c-3.61-1.18-7.32-.7-11-.57a44.48,44.48,0,0,1-11.36-.84,29.81,29.81,0,0,0-5.21-.54,78.28,78.28,0,0,1-15.34-1.73,60.93,60.93,0,0,0-8.95-1.29c-4.44-.39-8.53-1.9-12.63-3.27-15.19-5.07-30.69-9.09-46-13.67a35,35,0,0,1-7-3.16c-2.89-1.61-4.22-.87-4.26,2.4-.05,4.5,0,9,0,13.51a21.25,21.25,0,0,1-2.77,10.55c-5.09,9.09-12.72,15-22.39,18.64a112.05,112.05,0,0,1-20,5.91c-2.45.43-2.92,1-2.47,3.44,1.5,7.94.5,15.66-1.81,23.29-.14.47,0,1.3-.79,1.15a1.25,1.25,0,0,1-.87-1.48c.19-2,.34-4,.63-6a11.25,11.25,0,0,0-.49-5.53,27.77,27.77,0,0,1-1.93-7.19c-.15-1.93-1.52-3.35-2.6-4.89-1.81-2.59-3.89-5.06-4.31-8.39-.3-2.39.21-3.4,2.49-4.1a6.65,6.65,0,0,0,4-2.85c1.13-1.75,3.12-2.46,5-3.19,3.2-1.27,6.49-2.33,8.43-5.52a2.18,2.18,0,0,1,1-.78c4.24-1.65,6-5.47,7.81-9.14s1.8-7.46,1-11.36c-.4-2-.78-4-1-6.09a5.86,5.86,0,0,0-3.77-5.13,69.85,69.85,0,0,1-19.64-12.36c-10-8.9-17.4-19.47-23.25-31.35a56,56,0,0,1-4.94-14.61c-.79-4.27-1.37-8.74.28-12.95,1.56-4,1.62-8.3,3.21-12.28s2-8.47,3-12.72c.39-1.7.76-3.41,1-5.13s1.66-2.67,2-4.33c.14-.7.76-1.46.71-2.34a5.34,5.34,0,0,1,.65-2.5,51.86,51.86,0,0,0,3.06-7.83,2.37,2.37,0,0,1,.21-.71,30.42,30.42,0,0,0,3.85-9.74,5.43,5.43,0,0,1,.77-1.47c1.41-2.5,1.24-3.27-1.5-4.07-3.57-1-6.7-3-10-4.49-3.6-1.64-6.39-4.27-9.09-7.1-5.6-5.86-9.58-12.82-12.88-20a42.06,42.06,0,0,1-3.18-23c1.06-8.68,3.36-17,5.77-25.31,1.11-3.85,3.66-7.07,5.51-10.6A2.34,2.34,0,0,1,214,274c3.64-.54,7.27-1.21,10.92-1.66,5.22-.64,10.45,3.28,12.28,9,1,3.23,1.05,6.32-.87,9.33A85.34,85.34,0,0,0,228,307.41c-2.6,7.12.49,13.75,7.72,16.11C237.29,324,238.33,325.23,239.87,326.32Z"/><path class="cls-1" d="M171.91,170.44a14.26,14.26,0,0,1-5.49-1c-3.58-1.39-4.63-4.74-2.41-7.84a13.48,13.48,0,0,1,10.65-5.76,52.11,52.11,0,0,0,7.59-1.1c.76-.16,1.5-.33,1.66-1.24s-.47-1.24-1-1.64c-1.8-1.25-3.65-2.41-5.4-3.72-2.64-2-2.39-4.35.6-5.77,4.17-2,8.7-2.59,13.17-3.43l12.87-2.4a12.67,12.67,0,0,0,4.15-1.65c3.87-2.31,6.78-.78,7.18,3.77a6,6,0,0,1-.33,3,6.12,6.12,0,0,0-.39,1.24c-.82,4.34.59,5.63,4.67,4.27,3.78-1.26,7.32-3.17,11.22-4.13,2.2-.54,4.37-.84,5.94,1.34,1.31,1.81,1.1,4.93-.43,7a12.18,12.18,0,0,1-7,4.76c-5.24,1.36-10.44,2.91-15.87,3.44a3.38,3.38,0,0,1-3.9-2c-1.56-3.13-1-6.33-.57-9.55,0-.25.14-.48.18-.73.68-3.86-.25-4.78-4.11-4.26-3.4.46-6.82.79-10.23,1.23-2.51.33-4.73,1.52-7,2.57-1,.45-.86,1.17-.26,1.81.9.95,1.87,1.84,2.86,2.7a32.88,32.88,0,0,1,4.9,5.16c1.12,1.52.93,2.67-.59,3.62-3.65,2.29-7.27,4.62-11,6.8A23.65,23.65,0,0,1,171.91,170.44Z"/><path class="cls-1" d="M609.26,173.32a23.88,23.88,0,0,1-12.2-4.8c-1.11-.81-2.17-1.7-3.2-2.6s-1.91-.87-2.45.64a44.76,44.76,0,0,0-2.07,8.72,109,109,0,0,1-2.25,11,8.23,8.23,0,0,1-4.34,5.59,5.91,5.91,0,0,0-1.8,1.31c-4.45,5-10.24,7.65-16.61,9.18-1.93.47-3.81,1.23-5.85,1.16-3.18-.1-3.89-1.09-3-4.12a11,11,0,0,1,2.87-5c5.91-5.73,12.26-10.62,20.81-11.73,2.56-.33,3.8-1.91,4.1-4.66a102.69,102.69,0,0,1,3.36-16.1c1.22-4.48,4.54-5.49,7.92-2.26a27.76,27.76,0,0,0,8.86,5.8,10.4,10.4,0,0,0,7.13.4,4.39,4.39,0,0,1,2.75,0c1.31.43,2.9.76,3,2.39a4.25,4.25,0,0,1-2.45,4.1A12.8,12.8,0,0,1,609.26,173.32Z"/><path class="cls-1" d="M137.38,473.39a31.85,31.85,0,0,0,1.83,11.76c1.81,5,3,10.28,5.08,15.22.86,2,.24,3.82-1,5.59-4.9,6.85-11.61,10.74-19.72,12.54-2.56.57-5,1.39-7.72.73-2-.49-2.4-1.05-1.88-3a19.32,19.32,0,0,1,9.89-12.33,75.35,75.35,0,0,1,10-4.2c3.61-1.37,4.24-2.76,3.24-6.46-1.2-4.44-3.12-8.69-3.88-13.24-.57-3.37-.65-6.83-.92-10.25a3.27,3.27,0,0,1,.69-2.28,2.54,2.54,0,0,1,2.55-1.22c1.1.18,1.51,1,1.81,1.94C137.89,469.9,137.35,471.66,137.38,473.39Z"/><path class="cls-1" d="M143.64,324.49a41.37,41.37,0,0,1,3.57-12.83,63.26,63.26,0,0,1,6.88-11.76c2.08-2.94,4.65-2.95,6.89-.11a7.62,7.62,0,0,1,.88,8.9c-2.82,5.41-5.76,10.76-7.82,16.54a24.07,24.07,0,0,0-1.43,8.62,26.06,26.06,0,0,1-.26,3.73,8.57,8.57,0,0,0,4,8.66,6.18,6.18,0,0,1,2.41,2.28c.84,1.77.09,3.1-1.89,3.26A7,7,0,0,1,150.5,349a28.88,28.88,0,0,1-6-16C144.27,330.28,144,327.61,143.64,324.49Z"/><path class="cls-1" d="M576.87,323.18a15.26,15.26,0,0,0,10.89-4.67c4-3.84,8-7.74,11.69-11.89a28.79,28.79,0,0,0,4.13-6.43,3.13,3.13,0,0,0,.21-2.88c-.6-1.21.1-1.73,1-2.19A4.78,4.78,0,0,1,610,296a3.65,3.65,0,0,1,1,4.57c-4.44,10.63-10.63,19.75-21.43,24.92a10.7,10.7,0,0,1-4.49,1.15,19.89,19.89,0,0,0-5.36.67c-1.69.5-4.69-1.16-5.3-2.78a.87.87,0,0,1,.8-1.33A14.44,14.44,0,0,1,576.87,323.18Z"/><path class="cls-1" d="M584.56,538.87a5.64,5.64,0,0,1-1.79,4c-7.19,7.75-15.9,13.44-25.16,18.36a12.77,12.77,0,0,1-5.06,1.22c-.8.06-1.74.26-2.16-.65a2.68,2.68,0,0,1,.22-2.51c.71-1.27,2-1.64,3.23-2.07,6.15-2.19,11.7-5.31,16-10.34a27.51,27.51,0,0,0,6.71-15.16c.29-2.59,2.32-3.5,4.68-2.35a2,2,0,0,1,1.4,2,8.09,8.09,0,0,0,1.4,5.13A4.48,4.48,0,0,1,584.56,538.87Z"/><path class="cls-1" d="M565.68,525a7,7,0,0,1-1,3.54,26.8,26.8,0,0,1-7.79,9,79,79,0,0,1-11.45,7.43,14.54,14.54,0,0,1-12.9.62c-.66-.28-1.06-.67-1-1.39s.8-1.11,1.48-1.21c6.13-1,11.31-4,16.47-7.23a23.33,23.33,0,0,0,9.74-12.17,15.72,15.72,0,0,1,.77-1.9,2.52,2.52,0,0,1,4.32-.45A5.26,5.26,0,0,1,565.68,525Z"/><path class="cls-1" d="M579.56,284.46a4.19,4.19,0,0,1,4,2c.72,1.23,0,2.38-.67,3.47-1.63,2.65-3.22,5.33-4.86,8-3.32,5.36-8.49,8.08-14.28,9.84a4.28,4.28,0,0,1-3.74-.73c-1-.69-2-1.56-1.84-2.83.16-1.1,1.51-.92,2.35-1.14a16.46,16.46,0,0,0,8.72-5.79c1.36-1.63,2.71-3.27,4.15-4.82a8.37,8.37,0,0,0,2.65-5.19C576.12,285.48,577.57,284.5,579.56,284.46Z"/><path class="cls-1" d="M161.89,331.93a11.57,11.57,0,0,1,2.4-6.76,4,4,0,0,1,4.93-1c1.59.85,1.54,2.24,1.2,3.74-.55,2.36-1,4.76-1.64,7.09a3.22,3.22,0,0,0,1.1,3.51l2.34,2.16a1.94,1.94,0,0,1,.45,2.67c-.6,1-1.4,1-2.4.68C164.45,342.34,162,338.79,161.89,331.93Z"/><path class="cls-2" d="M362.38,336.72a3,3,0,0,1,3.41-1.85c6.22.51,12.42.86,18.66-.31,5.39-1,10.86-1.7,16.33-2.25,4.21-.42,6.84-3,9.4-5.89a2.24,2.24,0,0,0,.51-1c.84-4,1-8-1.14-11.79-1.32-2.33-3.51-3-6-3.18-2.73-.16-3-.47-2.48-3.22a27.46,27.46,0,0,0,.47-3c.13-1.9,1.22-2.22,2.84-2,8.84,1.29,17.68,2.55,26.57,3.42a14.51,14.51,0,0,0,1.86.2c10-.33,19.84,1.2,29.76,1.54,7.77.27,15.56.56,23.34-.24a38.32,38.32,0,0,1,6.37.06c2.48.16,3,.79,3.13,3.25a84.68,84.68,0,0,1-1.12,20.74,231.8,231.8,0,0,0-3.72,25,59.41,59.41,0,0,1-4.12,16.08c-2.55,6.61-3.64,13.59-5.63,20.34s-4.28,13.4-6.72,20a50.43,50.43,0,0,1-6.31,11.22c-2.41,3.46-2.17,6.39.8,9.4a8.89,8.89,0,0,0,2.15,1.8c6.11,3.1,11.16,7.74,16.87,11.42a6.31,6.31,0,0,0,7.09.15c5.06-3.3,10.26-6.48,14.43-11A30.49,30.49,0,0,0,515,427.5c1.32-3,4.09-4.89,5.7-7.62a4.87,4.87,0,0,1,4.85-2.36,32,32,0,0,1,5.36.82c3.83.8,5,3.76,2.81,7.06-2.78,4.13-5.41,8.29-9.4,11.57a60.85,60.85,0,0,0-7.14,7c-1.05,1.21-1.22,3-3,3.77-4,1.61-6.41,5.35-10.49,7.12-9.49,4.11-17.89,2.4-25.85-3.4a21.93,21.93,0,0,1-6.76-8.16c-.4-.81-.46-2.31-1.9-1.72-1.27.52-2.73,1.65-2.16,3.1.85,2.15,0,3.79-.86,5.45-5.5,10.84-8,22.64-10.85,34.3-.43,1.76-1.26.55-1.66.3a34.29,34.29,0,0,0-8-4,50.88,50.88,0,0,0-16-2.54,28.64,28.64,0,0,1-8.26-1.53c-6.35-1.83-12.84-1.79-19.34-1.77-2,0-3.35,2-3.51,5a3.12,3.12,0,0,0,3.12,3.28,18.8,18.8,0,0,0,3.55-.13,32.36,32.36,0,0,1,12.24.7A90.39,90.39,0,0,0,436.29,487a10.77,10.77,0,0,1,5.11,1.65c4.5,2.81,9,5.67,13.49,8.45a5.1,5.1,0,0,1,2.55,3.92c.24,2,.33,4,.51,6a2.27,2.27,0,0,1-.46,1.57,7.46,7.46,0,0,0-.93,1.4c-2.07,5.07-6.46,6.94-11.27,8.24a5.13,5.13,0,0,1-1.28.23c-6.56,0-13.13.17-19.69.07-7.58-.11-15-1.59-22.53-2.5-4-.49-8-1.12-12.05-1.71a27.94,27.94,0,0,1-6-1.54,78.7,78.7,0,0,0-13.64-3.92c-3.92-.74-7.75-1.85-11.69-2.46a6.29,6.29,0,0,1-2.67-.82c-1.77-1.2-3.59-2-5.78-1.12-.24.1-.61,0-.9-.13A190.55,190.55,0,0,0,323.66,499c-4.71-.7-9.1-2.6-13.74-3.56-1.54-.32-1.58-1.37-.87-2.56a22.52,22.52,0,0,0,3.31-7.67c.68-3.91-.42-7.56-1.27-11.26-.4-1.76-1.09-3.47-1.34-5.25-.67-4.7-3.11-8.54-5.88-12.15-3.21-4.17-7.91-5.19-12.87-5.21a1.28,1.28,0,0,0-1.11,2c1.28,2.29,2.09,5,4.95,6a4.59,4.59,0,0,1,2.1,1.83c1.76,2.58,4.18,5,5,7.84,1.21,4.19,1.65,8.9-.09,13-1.49,3.55-5,5.44-8.64,6.71a42.13,42.13,0,0,1-29,0A38.18,38.18,0,0,1,248,477.4c-6.91-8.18-13.14-16.87-17.6-26.64a32.9,32.9,0,0,1-3.16-18c1.39-11.11,5.87-21.19,10.2-31.32a140.19,140.19,0,0,1,8.27-15.66,112.86,112.86,0,0,0,8.21-18,3.63,3.63,0,0,0-2.23-4.41,7.49,7.49,0,0,1-3.58-2.84,4.88,4.88,0,0,0-1.79-1.3c-6.4-3.56-12.54-7.47-17.76-12.71a68.87,68.87,0,0,1-6.6-7.16c-2-2.7-4-5.39-6.22-8-3.93-4.63-5.51-10.4-7-16.16a19.76,19.76,0,0,1-.09-7.25c.9-8.07,4.92-14.69,9.55-21a16.18,16.18,0,0,1,4.45-3.71c1.38-.9,2.88-1.75,4.46-.52s2,4.21,1.11,5.88c-.77,1.43-1.64,2.8-2.46,4.2A47.52,47.52,0,0,0,219,311.56a19.51,19.51,0,0,0,4.48,15,32.26,32.26,0,0,0,7.27,6.73c4.84,3.2,9.77,6.28,14.65,9.42a5,5,0,0,0,5.64.27c2-1.21,2.45-3.19,2.39-5.37a3.4,3.4,0,0,0-2-3c-3-1.55-4.55-3.43-4.15-7.29.46-4.36-.63-8.82-.75-13.27-.22-7.74,2-15,3.5-22.5,2.15-10.65,6.92-20.1,12.4-29.28,5-8.46,9.5-17.28,15.27-25.31a40.18,40.18,0,0,1,3.5-4.62c8.45-8.76,16.53-17.83,26.61-25,6.76-4.79,14-8.55,21-12.88,4-2.46,8.61-3.22,13.16-4,4.73-.83,9.46-1.7,14.21-2.36a28.4,28.4,0,0,1,13.82,1.59,2.92,2.92,0,0,0,3,0,3.26,3.26,0,0,1,2.56-.06c7,1.59,14.1,2.61,21.07,4.21,7.68,1.77,15.34,3.63,22.54,7.21,4.89,2.43,9.87,4.76,14.87,7a28.74,28.74,0,0,1,6.7,4.07c10.71,8.94,21,18.27,29.55,29.43a14.84,14.84,0,0,1,2.06,3.34c2,4.78,4,9.55,5.85,14.36,1.05,2.67.74,3.41-2,4-1.81.37-3.24,1.59-5,1.84a98.34,98.34,0,0,0-10.9,2.42,62.34,62.34,0,0,1-10.86,2.1c-9.43.69-18.92,1.25-28.13,3.77-7.12,1.94-14.33,1.32-21.59.68a109.54,109.54,0,0,1-14.44-2c-4.75-1.07-9.51-2.46-14.14-4a33.14,33.14,0,0,1-9.61-4.46,5.84,5.84,0,0,0-5.2-.84c-2.66.77-5.55,1.11-7.27,3.74-.13.2-.43.49-.57.45-2-.56-2.46,1.14-3.17,2.25-1.38,2.16-2.79,4.29-4.34,6.33a11.57,11.57,0,0,0-2.53,5.48c-.4,2.65-2,5.09-2.73,7.71-2.43,8.61-3.55,17.25.5,25.75,1.77,3.72,3.89,7.14,7.92,8.83.37.15.75.35.81.71.34,2,2,2.48,3.53,3.21,4.26,2.07,8.09,5,12.54,6.67C362.39,334.3,361.36,335.76,362.38,336.72Z"/><path class="cls-3" d="M441.49,74.57a32.76,32.76,0,0,1,27.08-10.24c1.8.14,2.62,1,2.61,2.91a14.85,14.85,0,0,1-1.2,6.55c-2.11,4.4-2.91,9.31-5,13.71-5.09,10.71-10.29,21.36-16.86,31.29-7.76,11.74-16.16,23-24.65,34.22a11.88,11.88,0,0,1-1.89,2.08c-7,5.7-12.17,13.05-18,19.82a39.17,39.17,0,0,1-2.81,3,4.56,4.56,0,0,1-4.29,1.41c-4.11-1.1-8.28-1.07-12.47-1a2.16,2.16,0,0,1-.78-.8c-1.28-4.62-.28-8.92,2-13a18.88,18.88,0,0,0,2-4.4,13.58,13.58,0,0,1,1.75-3.72,17.3,17.3,0,0,0,2-4.24,8,8,0,0,1,.91-2.25c2.55-3.65,4-7.87,6.17-11.76,2-3.71,4.19-7.37,6.27-11,2.36-4.17,4.49-8.51,7.5-12.29a14.58,14.58,0,0,0,1.59-2.75,18.21,18.21,0,0,1,2.77-4.22,17.62,17.62,0,0,0,2.53-3.71,39,39,0,0,1,3.54-5C424.58,96,427.07,93,429.42,90c3.08-4,6-8.08,9.39-11.86A14.56,14.56,0,0,0,441.49,74.57Z"/><path class="cls-4" d="M404.92,321.58a52,52,0,0,0-9.47,3.18,8.1,8.1,0,0,1-4.21.73c-3.39-.27-6.73.36-10.09.6a53.27,53.27,0,0,1-22.29-3,6.63,6.63,0,0,0-1.6-.52c-5.6-.5-9.33-3.82-12.45-8.12a11.48,11.48,0,0,0-1.4-1.76c-4.11-3.8-4.46-8.53-2.94-13.43,2-6.54,4.32-13,8.38-18.67,3.43-4.78,8-6.32,13.64-4.8,8.67,2.34,17.41,4.41,26.26,5.95a100.72,100.72,0,0,0,28,.74c12.3-1.31,24.53-3.16,36.84-4.39,8.25-.82,16.53-1.65,24.63-3.6a.64.64,0,0,1,.19,0c7.13.44,13.6-2.89,20.54-3.58,16.18-1.61,30.91-8.55,46.39-12.74a6,6,0,0,1,2.55-.28c2.68.4,5.18-.56,7.73-1.12a29.55,29.55,0,0,1,3.48-.66c.67-.07,1.59-.45,2,.4s-.13,1.42-.6,2c-1.21,1.59-2.42,3.18-3.58,4.81a30,30,0,0,1-7.69,7.57c-2.89,2-5.62,4.17-8.41,6.29a17.68,17.68,0,0,1-4.69,2.7,11.9,11.9,0,0,0-4.63,2.73,8.3,8.3,0,0,1-3.4,1.93c-5,1.64-9.68,4.27-14.6,6.24-2,.78-3.48,1.56-5.51.8a1.57,1.57,0,0,0-1.42.23c-1.13,1.55-2.68,1.07-4.1.95-4.23-.35-8.32.71-12.49,1a65.41,65.41,0,0,1-10.24-.36c-6-.52-12.15-2.2-18.18-1.18s-12-1-18-1.11c-4.48-.11-8.92-1.19-13.45-.63-2.22.28-4.25-.82-6.42-1.08-6.4-.77-12.84-1.08-19.27-1.32a143.51,143.51,0,0,1-29.45-4c-4-1-8-1.71-12-3a9.65,9.65,0,0,0-5.18-.27,4.58,4.58,0,0,0-3,2.31c-4.6,7.42-5.47,15.85-6.37,24.18-.29,2.71,1.35,5.54,3.66,7.47,3.44,2.88,7.84,3.39,11.92,4.66,1.19.37,2.42.59,3.62.94,2.23.65,4.41,1.26,6.76.32a4.8,4.8,0,0,1,2.6-.11c5.73,1.16,11.14-.59,16.63-1.68a35.16,35.16,0,0,1,5.71-1C402.3,317.83,403.67,318.71,404.92,321.58Z"/><path class="cls-3" d="M356.65,88.46c3.91-2.75,8.26-3.3,12.85-2.5a5.54,5.54,0,0,1,4.39,3.42c2.26,5.36,4.31,10.91,5,16.6a58.17,58.17,0,0,1,.15,16.06c-1.19,7.89-2.1,15.82-3.67,23.65-1,5-2.8,9.71-4.07,14.59-1.62,6.22-4.67,11.82-7.31,17.6a3.78,3.78,0,0,1-3.87,2.38c-4.25-.12-8.33.87-12.48,1.7-3.33.66-6.77,1.74-10.3,1a2.41,2.41,0,0,1-2.19-2.76c.09-1.68-.23-3.37.17-5a109.19,109.19,0,0,1,1.39-11.27,12.46,12.46,0,0,1,.26-2.23c1.49-4.46,1.77-9.18,3.13-13.69a74.9,74.9,0,0,0,1.86-8.57c.74-4.19,2.38-8.16,2.79-12.41.24-2.5,1.34-4.8,1.95-7.22,1.27-5.07,2.44-10.18,4.19-15.14,1.28-3.64,2.39-7.35,3.66-11A23.4,23.4,0,0,1,356.65,88.46Z"/><path class="cls-3" d="M300.51,122.65c12.32-4.66,22.84,4.26,25.3,14.79a146.35,146.35,0,0,1,2.85,15,142.72,142.72,0,0,1,1.23,23.45c-.07,1.67-.23,3.35-.3,5a3.58,3.58,0,0,1-2.47,3.41A27.76,27.76,0,0,1,317,186.83c-1.77,0-3.13-.67-3.68-2.32-1.17-3.55-3.3-6.57-5-9.81-1.87-3.79-1.78-8-2.33-12a129.08,129.08,0,0,1-1.58-13c-.13-3.67-.8-7.32-1.28-11C302.38,133.35,301.9,127.92,300.51,122.65Z"/><path class="cls-5" d="M441.49,74.57c.27,1.45-.81,2.25-1.62,3.1-3.84,4-6.89,8.64-10.17,13.09-1.25,1.7-2.93,3.1-4.11,4.84-1.29,1.91-2.84,3.66-4.05,5.56-2.64,4.14-5.61,8.06-8.17,12.26-2.13,3.49-4.11,7.09-6.44,10.47a6.19,6.19,0,0,0-.75,1.07c-1.77,4.34-4.64,8.07-6.78,12.22-1.87,3.63-3.54,7.39-5.7,10.89a6.92,6.92,0,0,0-.84,1.45c-1.32,4.24-4.09,7.83-5.36,12.1a5.34,5.34,0,0,1-.68,1.53,18.47,18.47,0,0,0-3.2,14.38,2.67,2.67,0,0,1-2.84.32,16.1,16.1,0,0,1-2.42.08c-2.82-.32-3.9-2.17-3.13-4.91a125,125,0,0,1,8.41-21.59c3.49-7,7.2-14,12.7-19.79,3.81-4,6.81-8.78,10-13.32A393.17,393.17,0,0,1,434.08,83C436.57,80.22,438.82,77.21,441.49,74.57Z"/><path class="cls-5" d="M356.65,88.46a35.6,35.6,0,0,1-2.19,7.76,22.7,22.7,0,0,0-2.12,6.55,8.77,8.77,0,0,1-1,2.81,14.35,14.35,0,0,0-1.62,5.34c-.11,2.06-1.34,3.79-1.63,5.72-.65,4.32-2.17,8.4-3,12.67-.81,4-1.88,8-2.8,12-1.08,4.65-2.48,9.25-3,14-.16,1.52-.91,2.88-1.08,4.34-.59,4.87-2.26,9.57-2.32,14.52,0,.42.09.9-.53,1,.05-3.31.08-6.61.17-9.92.26-9.24.21-18.49.69-27.72a30.9,30.9,0,0,1,1.16-6.81A40.8,40.8,0,0,0,339,123a5.33,5.33,0,0,1,.47-1.8c2.46-5.22,3.9-10.77,5.59-16.26C347.1,98.28,350.52,92.37,356.65,88.46Z"/><path class="cls-5" d="M300.51,122.65c1.27.23,1.08,1.34,1.29,2.19a102.54,102.54,0,0,1,2,13.62c.45,4.06,1,8.13,1.43,12.21.45,4.74,1,9.5,1.89,14.2.63,3.24.82,6.56,1.2,9.84-5.22-6.31-8.73-13.63-12.21-21a11.41,11.41,0,0,1-1-4.16c-.46-6.83-1.44-13.66-.3-20.52A7.64,7.64,0,0,1,300.51,122.65Z"/><path class="cls-4" d="M271.86,539.71a30.24,30.24,0,0,1,2.81-5.13,44.83,44.83,0,0,0,6.9-16.22,8.21,8.21,0,0,0-.15-4.61,23.27,23.27,0,0,1-.8-5.54c-.1-1.15.4-1.79,1.6-1.78h.19c4.77.14,6.08-1.21,6.8,5.45.49,4.47,1.07,8.92.58,13.43a9.19,9.19,0,0,1-3.15,6.15,73.88,73.88,0,0,1-8.74,6.4A11.86,11.86,0,0,1,271.86,539.71Z"/><path class="cls-6" d="M473.46,506.32c-1.43.08-2.87.16-4.3.23-.62,0-1.37.09-1.56-.68a17.62,17.62,0,0,1-.66-4.61c0-.73.7-.6,1.13-.71,2-.47,3.95.31,5.88.75,7.33,1.7,14.66,3.39,22,5.21a79.16,79.16,0,0,1,10.7,3.88c.44.18,1.33.33.67,1.11-.46.53-.72,1.87-1.73,1.23-4.53-2.87-9.85-2.44-14.78-3.63-4.59-1.11-9.17-2.4-13.92-2.71-1.12-.07-2.25,0-3.37,0C473.46,506.36,473.46,506.34,473.46,506.32Z"/><path class="cls-7" d="M377.41,303.77c0,2.49.07,5,0,7.48s-1,3.19-3.47,2.94c-1.61-.17-3.2-.45-4.8-.71-1-.16-1.76-.73-1.31-1.77,2.19-5,2.33-10.55,4.47-15.54a3.24,3.24,0,0,1,4.91-1.09c.45.42.26.93.27,1.4,0,2.43,0,4.86,0,7.3Z"/><path class="cls-2" d="M382.71,312a12.71,12.71,0,0,1,1.31-4.71,7.57,7.57,0,0,0,.85-5,8.55,8.55,0,0,1,.65-4.21,1.39,1.39,0,0,1,2.08-.91,20.18,20.18,0,0,0,2.23.93c2.83.86,4.32,2.51,3.55,5.64a3.11,3.11,0,0,0,.1,1.48c.25.91,1.65,2.09-.69,2.25-.35,0-.22.65-.27,1-.38,2.74-.39,2.7-3.22,2.89C387.14,311.47,385,311.76,382.71,312Z"/><path class="cls-2" d="M362.42,290.89c.43.08.86.15,1.28.25,2.83.72,2.71.71,2.42,3.63-.39,3.93-.91,7.77-3.16,11.17a8.64,8.64,0,0,0-.83,3.42c-.24,1.42-1,1.54-2.08.75-2.44-1.7-3.52-3.65-2.47-6.8s1.31-6.83,2.38-10.15C360.32,292,360.7,290.68,362.42,290.89Z"/><path class="cls-8" d="M242.9,379.14a.77.77,0,0,1-.46-1.17c1-1.44,1.24-3.22,2.13-4.71a2.59,2.59,0,0,1,1.32-1.25c.42-.14.85,0,.62.51-1.06,2.16-2.18,4.29-3.3,6.43C243.17,379,243,379.07,242.9,379.14Z"/><path class="cls-9" d="M380.77,177.86l2.84-.32.4.75C382.93,178.18,381.64,179.58,380.77,177.86Z"/><path class="cls-10" d="M402.76,193.45l4.7,1.27A4.26,4.26,0,0,1,402.76,193.45Z"/><path class="cls-1" d="M407.77,240.55c-3.09.05-5.68-.7-7.53-3.2s-2.24-5.73-.72-7.87c1.72-2.42,4.41-2.55,7-2.51a4.6,4.6,0,0,1,4.37,2.91c.76,1.63,1.83,3.11,2.72,4.68,1,1.78.83,2.43-.85,3.53a3.73,3.73,0,0,0-1.15.92A3.15,3.15,0,0,1,407.77,240.55Z"/><path class="cls-1" d="M367.5,226.88a5.65,5.65,0,0,1-1.85,4.54c-1.17,1-2.33,2.07-3.43,3.18a1.77,1.77,0,0,1-2.64.3c-1.27-1-2.51-2-3.75-3.09a2.69,2.69,0,0,1-.84-1.43c-1.09-4,1.62-9.1,5.56-10.38.45-.14.86-.5,1.36,0,1.58,1.51,3.24,2.93,4.75,4.5A3.2,3.2,0,0,1,367.5,226.88Z"/></svg>