<svg id="圖層_1" data-name="圖層 1" xmlns="http://www.w3.org/2000/svg" viewBox="0 0 118.68 125.09"><defs><style>.cls-1{fill:#0d0c0c;fill-rule:evenodd;}</style></defs><title>graphic</title><path class="cls-1" d="M50.28,113.81c-1.17,1.43-2.37.7-3.63-.19-2.7-1.9-3-4.94-3.42-7.73-4-28.28-14.3-54.75-23.24-81.61-2.45-7.34-2.22-8.33,4-10.11,9.55-2.73,11.31-2.05,12.71,5.57,4.17,22.79,6.85,45.8,10,68.74.81,5.9,2.8,11.64,4.46,17.4A10,10,0,0,1,50.28,113.81Z"/><path class="cls-1" d="M91.48,91.56c-2.81,2.08-3.82,5.07-6.66,3.93s-3.21-4-3.06-6.63c.64-11.59,1.41-23.18,2.1-34.76.28-4.64,2.43-7.34,7.25-5.87,5.3,1.61,15.24-.6,13.77,8C102.71,69,97.05,81,91.48,91.56Z"/></svg>