<svg id="圖層_1" data-name="圖層 1" xmlns="http://www.w3.org/2000/svg" viewBox="0 0 206 202"><defs><style>.cls-1{fill:#d7b340;}.cls-2{fill:#2f8aad;}.cls-3{fill:#090707;}.cls-4{fill:#cb3224;}.cls-5{fill:#549d38;}.cls-6{fill:#fdfefe;}.cls-7{fill:#99917d;}</style></defs><title>graphic</title><path class="cls-1" d="M170.78,76.87c1.19-2.06,2.58-2.52,4.49-1.93,3.51,1.08,5.74,3.77,5.5,7.16C178.27,78.68,175.22,76.6,170.78,76.87Z"/><path class="cls-2" d="M184,131.68A54.54,54.54,0,0,1,178.31,156a35.22,35.22,0,0,1-11.86,13.61c-6.73,4.65-13.81,8.73-21.92,10.29-4.85.93-9.87.43-14.81.13-4.2-.26-8.39-.69-12.58-1a11.21,11.21,0,0,1-4.06-1,66.72,66.72,0,0,1-17.47-11.92c-.3-.29-.89-.48-.5-1.11s.93-.27,1.37,0c2.36,1.23,4.42,3,7.08,3.65a50.06,50.06,0,0,0,16.12.93c5-.43,10-.6,14.81-2.16,10.62-3.45,20.62-8.06,28.55-16.28,3.07-3.17,6.48-6,9.4-9.34,5.3-6,7.82-13.24,9-21.09A23.44,23.44,0,0,1,184,131.68Z"/><path class="cls-1" d="M174,80.49c3.18,1.11,4.82,3.53,4,6.18-2.42-2.69-4.7-5.65-9-4.06A3.71,3.71,0,0,1,174,80.49Z"/><path class="cls-1" d="M175.51,71.35c5.07-1.9,8.63.28,8.44,5.11C180.77,75.27,179.43,71.21,175.51,71.35Z"/><path class="cls-1" d="M168.38,89.09c-.69-.32-1.32-.76-1.1-1.68s1-.78,1.63-.82,1.33,0,2.5,0c1.63-.45,3,.47,3.68,2.43a1.59,1.59,0,0,1-.15,1.7,1.49,1.49,0,0,1-1.81.47Q170.73,90.19,168.38,89.09Z"/><path class="cls-3" d="M174.93,90.72a1.59,1.59,0,0,0,.15-1.7c-.72-2-2-2.88-3.68-2.43-1.17,0-1.84,0-2.5,0s-1.42-.05-1.63.82.41,1.36,1.1,1.68q2.36,1.09,4.75,2.1A1.49,1.49,0,0,0,174.93,90.72Zm9-14.26c.19-4.83-3.38-7-8.44-5.11C179.43,71.21,180.77,75.27,184,76.46Zm-8.68-1.52c-1.91-.59-3.3-.13-4.49,1.93,4.45-.27,7.49,1.81,10,5.23C181,78.71,178.78,76,175.27,74.94ZM95.12,165c-.39.62.2.82.5,1.11A66.72,66.72,0,0,0,113.09,178a11.21,11.21,0,0,0,4.06,1c4.19.33,8.38.76,12.58,1,4.94.3,10,.8,14.81-.13,8.11-1.56,15.18-5.64,21.92-10.29A35.22,35.22,0,0,0,178.31,156,54.54,54.54,0,0,0,184,131.68a23.44,23.44,0,0,0-2.49-11c-1.2,7.85-3.72,15.06-9,21.09-2.92,3.33-6.33,6.16-9.4,9.34-7.93,8.22-17.93,12.83-28.55,16.28-4.78,1.56-9.83,1.73-14.81,2.16a50.06,50.06,0,0,1-16.12-.93c-2.66-.64-4.73-2.43-7.08-3.65C96.05,164.72,95.56,164.28,95.12,165Zm82.82-78.31c.85-2.65-.8-5.08-4-6.18a3.71,3.71,0,0,0-5,2.12C173.24,81,175.52,84,177.95,86.68ZM174.4,133c3.33-6.29,5-12.79,2.23-19.78-4.19-10.43-19.14-18.4-30.55-16.36-7.15,1.28-14.38,2.22-20.95,5.64a11.37,11.37,0,0,1-2.1.63c-5.84,1.72-11.66,3.46-16.4,7.56a36.86,36.86,0,0,1-4.22,3.69c-7.15,4.47-11.8,11.17-16.2,18.05A14.15,14.15,0,0,0,84,143.72c1.52,6.13,5.38,10.87,9.73,15.14,5.62,5.53,12.66,7.44,20.43,7,8.4-.47,16.8-.92,24.89-3.61,11.5-3.81,20-11.88,28.39-20A37.18,37.18,0,0,0,174.4,133Zm-7.91-40.33c.34-.9-.83-1.19-1.27-1.8a7.2,7.2,0,0,1-.9-6.88,57.12,57.12,0,0,1,6.59-13.49c4.42-6.46,12.48-4.13,15.7.77,1.41,2.15.71,4.4-.4,6.48-1.63,3.07-3.34,6.1-5,9.14q-1.62,2.89-3.3,5.74A4.47,4.47,0,0,1,174,95.1a6.3,6.3,0,0,0-1.38.25,3.25,3.25,0,0,0-2.09,2.26c-.42,1,.54,1.54,1.16,2.1,7.85,7.17,13.75,15.42,14.79,26.42.88,9.24.23,18.28-3.17,27A40.91,40.91,0,0,1,169,171.74c-4.34,3.15-8.8,6.07-13.4,8.81-3.66,2.18-7.89,2.36-11.9,3.22a33.14,33.14,0,0,1-8.55.89c-8.34-.45-16.65-1.15-24.63-3.87a32.73,32.73,0,0,1-15.75-10.94c-4.22-5.44-8.73-10.69-11.71-17-4.38-9.21-3.6-18,2.55-26.22,2.85-3.8,5.79-7.54,8.88-11.13,2.09-2.44,4.92-4.09,7.46-6,10.56-8.17,22.63-12.7,35.7-14.85,3.75-.61,7.47-1.41,11.23-2,4.69-.7,8.9,1.43,13.26,2.56a2.58,2.58,0,0,0,2.76-.58A6.63,6.63,0,0,0,166.49,92.64Z"/><path class="cls-4" d="M155.25,138.36c0-1.34,1.55-1.71,2.79-1.93s1.64.76,1.56,1.78,0,2.32-1.56,2.25C156.66,140.39,155.28,139.56,155.25,138.36Z"/><path class="cls-5" d="M153.92,129.25c.37.42.24.8.16,1.28a15,15,0,0,1-2.46,5.63,37.25,37.25,0,0,1-12.21,12.15c-2.41,1.42-3.9.39-4-2.5-.25-.82.4-1.16.93-1.55a59.5,59.5,0,0,0,12.53-12.56,8.13,8.13,0,0,1,3.58-2.42C152.92,129.1,153.41,128.67,153.92,129.25Z"/><path class="cls-1" d="M153.24,142.18c.63.35.06,1.23.34,1.84a20.1,20.1,0,0,1-.47,2.54,2.2,2.2,0,0,1-3.18,1.35c-1.27-.7-1.12-1.89-.67-3a5.47,5.47,0,0,1,2-2.17C151.84,142.37,152.58,141.81,153.24,142.18Z"/><path class="cls-5" d="M137.73,152.91c.5.15,1.12.14.85,1-.43,1.36-3.66,3.77-5.16,3.82a2.74,2.74,0,0,1-2.42-1.17c-.47-.75.49-1.37,1-1.9A5.26,5.26,0,0,1,137.73,152.91Z"/><path class="cls-3" d="M134.22,65.35c0,1.49-.23,2.81,1,3s2-.85,2.25-2.07a30.67,30.67,0,0,1,1-4,1.7,1.7,0,0,0-1.06-2.4c-1-.37-1.77.46-2.09,1.38A13.37,13.37,0,0,0,134.22,65.35Zm0,7a5.34,5.34,0,0,1-3.48-5.83c.4-3.83,1.11-7.52,3.41-10.72,1.48-2.07,2.5-2.21,4.36-.45,1.68,1.58,3.17,3.29,3,5.63.12,3.49-1.75,6-3.15,8.73C137.55,71.31,136.87,73.35,134.26,72.36Z"/><path class="cls-4" d="M135.18,68.37c-1.19-.2-.95-1.53-1-3a13.37,13.37,0,0,1,1-4.1c.31-.92,1.11-1.74,2.09-1.38a1.7,1.7,0,0,1,1.06,2.4,30.67,30.67,0,0,0-1,4C137.15,67.52,136.41,68.59,135.18,68.37Z"/><path class="cls-1" d="M147.66,121c1.64,0,2.33.59,1.94,2.32a20.9,20.9,0,0,1-3.87,8c-3.71,4.9-8.5,8.58-13.6,12a3.46,3.46,0,0,1,.21-4.06c3.56-5.33,7.17-10.61,10.73-15.94A5.11,5.11,0,0,1,147.66,121Z"/><path class="cls-5" d="M131,117.09c.9-.28.6,1,.86,1.59-.2,2.08-2.09,1.57-3.27,2-.94.33-1.49-.92-1.31-1.29C128,117.92,129.64,117.52,131,117.09Z"/><path class="cls-1" d="M130.7,150.18c.35.4-.2.8-.38,1.19a2.1,2.1,0,0,1-1.56,1.11c-4.64,1.17-9.3,2.3-14,3.13-3.37.59-5.32-.53-6.08-3.3-.25-.9-.16-1.39,1-1.35,1.47.06,2.94,0,4.4,0,4.18-.17,8.39.73,12.54-.49a22.7,22.7,0,0,1,2.88-.73A1.61,1.61,0,0,1,130.7,150.18Z"/><path class="cls-5" d="M118.89,147.68c-.27-.64.33-.78.7-1,2.49-1.41,5-2.79,7.47-4.18.15.2.26.29.3.4,1.19,3.82,1.2,3.84-2.67,4.53-1.51.27-3,.43-4.56.59C119.69,148.08,119.13,148.27,118.89,147.68Z"/><path class="cls-3" d="M119.85,86.31a5.11,5.11,0,0,1-2.51-4.88A13.69,13.69,0,0,1,120,75a4.63,4.63,0,0,1,6-1.07c1.84,1,2.42,2.75,1.81,5.16A10,10,0,0,1,124,84.93C122.72,85.83,121.39,87.14,119.85,86.31Zm3.66-8.83c-1.45,0-3.33,2.46-3.22,4.2.05.81.68.69,1.17.68a3.56,3.56,0,0,0,3.12-3.54C124.32,78.44,124.72,77.44,123.51,77.48Z"/><path class="cls-4" d="M124.7,139.46c.21.8-.87,1.31-1.51,1.65a93.4,93.4,0,0,1-9.53,4.73c-2.34.91-4.25.31-6-2.08,4.83-.4,8.57-2.93,12.66-4.57a4.53,4.53,0,0,1,2.15-.31C123.22,139,124.41,138.37,124.7,139.46Z"/><path class="cls-5" d="M120.29,81.68c-.11-1.73,1.77-4.15,3.22-4.2,1.21,0,.81,1,1.07,1.34a3.56,3.56,0,0,1-3.12,3.54C121,82.37,120.34,82.48,120.29,81.68Z"/><path class="cls-1" d="M130,132.48c.74,0,2.27-.94,2.25.89,0,1.54-1.08,2.19-2.54,2.22h-1c-3.47-.61-7.27-.06-10.9-1.18a15.91,15.91,0,0,1-4.31-2.05,1.78,1.78,0,0,1-.92-1.65c.09-1.78.71-2.2,2.3-1.45A38.09,38.09,0,0,0,130,132.48Z"/><path class="cls-3" d="M124.68,147.44c3.87-.69,3.87-.72,2.67-4.53,0-.11-.14-.2-.3-.4-2.48,1.39-5,2.77-7.47,4.18-.38.21-1,.35-.7,1s.81.39,1.23.35C121.64,147.87,123.17,147.71,124.68,147.44Zm7.19-28.76c-.26-.62,0-1.87-.86-1.59-1.38.43-3,.83-3.73,2.29-.18.37.37,1.62,1.31,1.29C129.79,120.25,131.67,120.76,131.88,118.68ZM153.59,144c-.29-.61.29-1.49-.34-1.84s-1.4.18-2,.6a5.47,5.47,0,0,0-2,2.17c-.45,1.07-.61,2.26.67,3a2.2,2.2,0,0,0,3.18-1.35A20.1,20.1,0,0,0,153.59,144Zm.49-13.49c.08-.49.21-.86-.16-1.28-.51-.58-1-.15-1.43,0a8.13,8.13,0,0,0-3.58,2.42,59.5,59.5,0,0,1-12.53,12.56c-.53.39-1.17.73-.93,1.55.07,2.89,1.56,3.92,4,2.5a37.25,37.25,0,0,0,12.21-12.15A15,15,0,0,0,154.08,130.53Zm-21.82,2.84c0-1.84-1.51-.86-2.25-.89a38.09,38.09,0,0,1-15.14-3.22c-1.59-.75-2.21-.33-2.3,1.45a1.78,1.78,0,0,0,.92,1.65,15.91,15.91,0,0,0,4.31,2.05c3.63,1.12,7.43.57,10.9,1.18h1C131.18,135.56,132.24,134.91,132.25,133.37ZM109.62,151c-1.11,0-1.2.45-1,1.35.76,2.77,2.71,3.89,6.08,3.3,4.72-.83,9.37-2,14-3.13a2.1,2.1,0,0,0,1.56-1.11c.18-.39.73-.78.38-1.19a1.61,1.61,0,0,0-1.27-.43,22.7,22.7,0,0,0-2.88.73c-4.14,1.22-8.36.32-12.54.49C112.56,151,111.09,151,109.62,151Zm50-12.75c.08-1-.19-1.9-1.56-1.78s-2.83.59-2.79,1.93,1.41,2,2.79,2.1C159.64,140.53,159.53,139.21,159.6,138.21Zm-39.32,1c-4.09,1.63-7.83,4.17-12.66,4.57,1.8,2.39,3.71,3,6,2.08a93.4,93.4,0,0,0,9.53-4.73c.63-.34,1.72-.86,1.51-1.65-.29-1.09-1.48-.48-2.27-.57A4.53,4.53,0,0,0,120.28,139.2Zm12.06.07a3.46,3.46,0,0,0-.21,4.06c5.09-3.39,9.88-7.07,13.6-12a20.9,20.9,0,0,0,3.87-8c.39-1.73-.29-2.33-1.94-2.32a5.11,5.11,0,0,0-4.59,2.32C139.5,128.66,135.89,134,132.34,139.28Zm6.24,14.62c.27-.84-.35-.84-.85-1a5.26,5.26,0,0,0-5.76,1.74c-.48.53-1.44,1.15-1,1.9a2.74,2.74,0,0,0,2.42,1.17C134.92,157.67,138.15,155.25,138.58,153.9Zm-34,.91c1.41-3.45,1.52-6.48-.81-9.6-1.26-1.69-.49-3.36,1.59-4,3-1,6-1.84,9-2.74.37-.11.87-.07,1-.55.14-.66-.51-.68-.88-.9-1.31-.8-2.67-1.51-3.95-2.36a2.78,2.78,0,0,1-1.24-3.46c.51-1.51.9-3.07,1.5-4.55.81-2,1.7-2.43,3.75-1.68a34,34,0,0,1,4,1.78c3.65,1.9,7,1.54,10.46-1.29-1.3-.18-2.35-.25-3.36-.47a2.59,2.59,0,0,1-2.15-3.3,31.19,31.19,0,0,1,1.19-4.64,4,4,0,0,1,3.41-2.73,9.21,9.21,0,0,1,4.16.29c2.76.9,3.56,2.23,2.77,5a17.83,17.83,0,0,1-1.35,3.33c-.64,1.23-.13,1.66,1,1.87,1.91.35,3.64-.16,4.52-1.84,2.72-5.19,6.81-6.19,12.13-4.68,3.19.9,3.65,1.07,3.71,4.36a4.13,4.13,0,0,0,1.26,3.17c1.51,1.5,1.06,3.52.69,5.33-.27,1.29.06,1.59,1.3,1.74,5,.63,6.35,1.49,4.26,7.54-.76,2.19-2.16,3.87-4.66,4.17-.89.11-1,.65-1.12,1.37-.82,4.83-3.3,6.53-8,5.48a4.3,4.3,0,0,0-4.78,1.65c-2.28,3-5.31,5.26-7.72,8.15a4.34,4.34,0,0,1-6.29.12,18.09,18.09,0,0,1-1.74-1.94c-2.91-3.64-7-3.2-9,1a16.1,16.1,0,0,1-1.53,2.58,2.72,2.72,0,0,1-3.18,1.08c-2.23-.68-4.49-1.25-6.71-2A5.33,5.33,0,0,1,104.56,154.8Z"/><path class="cls-1" d="M88.07,88.49c.13.92-.37,1.31-1.5,1.25a3,3,0,0,1-2.91-3.11c0-.75.45-.88,1-.85C86.19,85.87,88.08,87.28,88.07,88.49Z"/><path class="cls-3" d="M88.07,88.49c0-1.21-1.88-2.62-3.37-2.71-.59,0-1,.1-1,.85a3,3,0,0,0,2.91,3.11C87.7,89.8,88.2,89.42,88.07,88.49ZM80.73,89.6c-1.42-2.72-.51-5.33.77-7.82a1.31,1.31,0,0,1,2-.56,33.27,33.27,0,0,0,6.76,3,2.34,2.34,0,0,1,1.78,2.7,10.22,10.22,0,0,1-1.12,4c-.81,1.5-2,2.49-3.64,2.19C84.32,93.05,82,92.12,80.73,89.6Z"/><path class="cls-6" d="M103.75,145.21c2.33,3.12,2.23,6.15.81,9.6a5.33,5.33,0,0,0,3.18,7.21c2.22.72,4.48,1.3,6.71,2a2.72,2.72,0,0,0,3.18-1.08,16.1,16.1,0,0,0,1.53-2.58c2-4.16,6.12-4.6,9-1a18.09,18.09,0,0,0,1.74,1.94,4.34,4.34,0,0,0,6.29-.12c2.41-2.88,5.45-5.16,7.72-8.15a4.3,4.3,0,0,1,4.78-1.65c4.71,1.05,7.19-.65,8-5.48.12-.72.23-1.26,1.12-1.37,2.5-.3,3.9-2,4.66-4.17,2.09-6,.76-6.9-4.26-7.54-1.24-.16-1.57-.45-1.3-1.74.37-1.81.82-3.83-.69-5.33A4.13,4.13,0,0,1,155,122.6c-.06-3.29-.52-3.46-3.71-4.36-5.33-1.52-9.42-.51-12.13,4.68-.88,1.68-2.6,2.2-4.52,1.84-1.14-.21-1.65-.64-1-1.87a17.83,17.83,0,0,0,1.35-3.33c.79-2.75,0-4.08-2.77-5a9.21,9.21,0,0,0-4.16-.29,4,4,0,0,0-3.41,2.73,31.19,31.19,0,0,0-1.19,4.64,2.59,2.59,0,0,0,2.15,3.3c1,.23,2.06.29,3.36.47-3.43,2.82-6.81,3.19-10.46,1.29a34,34,0,0,0-4-1.78c-2-.75-2.94-.35-3.75,1.68-.59,1.48-1,3-1.5,4.55a2.78,2.78,0,0,0,1.24,3.46c1.27.85,2.64,1.56,3.95,2.36.36.22,1,.25.88.9-.1.48-.59.44-1,.55-3,.9-6,1.77-9,2.74C103.26,141.85,102.49,143.52,103.75,145.21Zm72.89-32c2.81,7,1.1,13.5-2.23,19.78a37.18,37.18,0,0,1-7,9.26c-8.4,8.17-16.89,16.23-28.39,20-8.09,2.68-16.49,3.14-24.89,3.61-7.77.4-14.81-1.51-20.43-7-4.35-4.27-8.21-9-9.73-15.14a14.15,14.15,0,0,1,2.22-11.29c4.4-6.88,9.05-13.58,16.2-18.05a36.86,36.86,0,0,0,4.22-3.69c4.73-4.1,10.56-5.84,16.4-7.56a11.37,11.37,0,0,0,2.1-.63c6.57-3.42,13.8-4.36,20.95-5.64C157.5,94.79,172.45,102.77,176.64,113.2Z"/><path class="cls-3" d="M70.28,154.62c1.67-.43,1.94-1.18,1.32-2.68a2.12,2.12,0,0,0-3-1.37,11.37,11.37,0,0,0-4.1,3.11,1.27,1.27,0,0,0-.16,1.65,1.37,1.37,0,0,0,.88.6A29.64,29.64,0,0,0,70.28,154.62Zm-2.75-6.91c2.72-1.5,8.05,1.48,8,4.8a10.51,10.51,0,0,1-3,4.22,12.81,12.81,0,0,1-4.72,2.54,5.07,5.07,0,0,1-6.19-2.21,5.56,5.56,0,0,1,1.65-6.65A36.8,36.8,0,0,1,67.53,147.71Z"/><path class="cls-1" d="M71.6,151.94c.62,1.5.35,2.25-1.32,2.68a29.64,29.64,0,0,1-5.08,1.31,1.37,1.37,0,0,1-.88-.6,1.27,1.27,0,0,1,.16-1.65,11.37,11.37,0,0,1,4.1-3.11A2.12,2.12,0,0,1,71.6,151.94Z"/><path class="cls-3" d="M49.1,118.31c-1.25,3-.55,5.23,2.23,7.31.9.68,2,1.14,2.89,1.79.52.37,1.26.89,1,1.58-.19.49-1,.59-1.61.59-2.93,0-4.88-1.68-6.37-3.92a7.64,7.64,0,0,1-.74-7.62c1.31-3,2.7-5.95,4-8.94,1.88-4.25,5.38-5.84,10.72-6.13,1-.16,2.71.68,4.4,1.42.73.32,1.78,1,1.3,1.93a2,2,0,0,1-2.42.89,34.27,34.27,0,0,0-4.26-1,6.36,6.36,0,0,0-7.39,3.68C51.52,112.67,50.27,115.48,49.1,118.31Z"/><path class="cls-7" d="M43.46,103.35c.83.79,1.26,1.83.51,2.64s-1.56-.08-2.21-.64L34,98.71a3.79,3.79,0,0,1-1.23-1.78c-.38-1.17-.07-1.69,1.13-1.52a2.3,2.3,0,0,1,2,.72Q39.67,99.76,43.46,103.35Z"/><path class="cls-3" d="M43.46,114a63.58,63.58,0,0,0-.49,9.18,3.72,3.72,0,0,0,.72,2.21c2.56,3.26,5.5,5.93,9.62,7.17,5.49,1.66,11.17,2.33,16.78,3.39a2.13,2.13,0,0,0,2.52-1.5c.53-1.43,1-2.9,1.5-4.33,2.36-6.37,4.72-12.74,7.13-19.08.63-1.65.31-2.66-1.25-3.64a46.51,46.51,0,0,0-11.51-4.74,56,56,0,0,0-8.68-2A5.36,5.36,0,0,0,57,101c-2.82,1.66-5.74,3.16-8.45,5A10.56,10.56,0,0,0,43.46,114Zm.51-8c.75-.8.31-1.85-.51-2.64q-3.79-3.59-7.53-7.22a2.3,2.3,0,0,0-2-.72c-1.19-.17-1.5.35-1.13,1.52A3.79,3.79,0,0,0,34,98.71l7.77,6.64C42.42,105.91,43.23,106.79,44,106Zm-3.37,8.31c.87-3.52-1.23-5.73-3.4-8A169.31,169.31,0,0,0,22.58,92.9c-4.87-4-8.15-9.16-11.17-14.54-.68-1.23-1.31-2.48-1.93-3.75-1.14-2.33-.69-4,1.49-5.28q2.6-1.52,5.31-2.85c2.3-1.13,3.65-.91,5.35,1a39.91,39.91,0,0,1,4.11,5.18c3.89,6.15,8.37,11.93,11.59,18.52,1.78,3.63,4.71,6.49,7.71,9.17,2.31,2.07,3.62,2.14,6.27.25a13.88,13.88,0,0,1,9.59-2.76A56.47,56.47,0,0,1,82,104.36c2.12,1.11,2.82,2.4,2.8,4.31a5.58,5.58,0,0,1-.69,2.83,161.05,161.05,0,0,0-8.5,23.94c-1.18,4.12-1.72,4.43-6,3.83-6.08-.87-12.21-1.56-17.9-4.07a29.59,29.59,0,0,1-8.73-6c-3.36-3.31-4.24-7.44-3.09-12C40.21,116.26,40.36,115.27,40.61,114.3Z"/><path class="cls-7" d="M51.33,125.63c-2.78-2.08-3.48-4.29-2.23-7.31,1.17-2.83,2.42-5.64,3.76-8.39a6.36,6.36,0,0,1,7.39-3.68,34.27,34.27,0,0,1,4.26,1,2,2,0,0,0,2.42-.89c.49-.93-.57-1.61-1.3-1.93-1.69-.75-3.41-1.58-4.4-1.42-5.34.29-8.84,1.88-10.72,6.13-1.32,3-2.71,5.94-4,8.94a7.64,7.64,0,0,0,.74,7.62c1.49,2.24,3.43,3.92,6.37,3.92.63,0,1.42-.1,1.61-.59.27-.69-.47-1.21-1-1.58C53.3,126.76,52.24,126.31,51.33,125.63ZM80,107.38c1.56,1,1.88,2,1.25,3.64-2.41,6.35-4.77,12.72-7.13,19.08-.53,1.43-1,2.9-1.5,4.33a2.13,2.13,0,0,1-2.52,1.5c-5.61-1.06-11.29-1.74-16.78-3.39-4.12-1.24-7.05-3.91-9.62-7.17a3.72,3.72,0,0,1-.72-2.21,63.58,63.58,0,0,1,.49-9.18,10.56,10.56,0,0,1,5.1-8c2.71-1.81,5.63-3.31,8.45-5a5.36,5.36,0,0,1,2.78-.39,56,56,0,0,1,8.68,2A46.51,46.51,0,0,1,80,107.38Z"/></svg>