<svg id="圖層_1" data-name="圖層 1" xmlns="http://www.w3.org/2000/svg" viewBox="0 0 361.22 243.7"><defs><style>.cls-1{fill:none;stroke:#fff;stroke-miterlimit:10;stroke-width:5px;}.cls-2{fill:#0e0d0d;}.cls-12,.cls-13,.cls-2,.cls-3,.cls-4,.cls-5,.cls-6,.cls-7{fill-rule:evenodd;}.cls-3{fill:#fefefe;}.cls-4{fill:#c46e8f;}.cls-5{fill:#338bac;}.cls-6{fill:#53963d;}.cls-7{fill:#cfaf43;}.cls-8{fill:#c9a63e;}.cls-9{fill:#d05351;}.cls-10{fill:#a53226;}.cls-11{fill:#fff;}.cls-12{fill:#c03327;}.cls-13{fill:#c26f27;}</style></defs><title>graphic</title><polygon class="cls-1" points="109.2 6.61 200.58 171.91 11.73 168.4 109.2 6.61"/><path class="cls-2" d="M96.63,113.63a16.51,16.51,0,0,1-8-1.77A43.34,43.34,0,0,1,72,98c-7.17-10.07-3.48-24.47,7.58-30.85,5.5-3.17,11.35-5.06,17.81-4.45a9.69,9.69,0,0,0,2.4,0c7.41-1.2,12.74,2.39,17.7,7.29,3.41,3.37,4.51,7.57,5.19,12,2.45,15.81-6.07,28-21.81,31.36A22.72,22.72,0,0,1,96.63,113.63Zm2.06-47c-7.38-1-13.61.66-18.44,6.41a32.57,32.57,0,0,0-6.12,10.84c-2.14,6.53.61,10.84,7.29,11.8l.53.07a33.31,33.31,0,0,0,34.28-16.65,3.88,3.88,0,0,0-.44-4.86C111.33,68.69,106,65.17,98.69,66.67Zm19.9,14.67c-.89.21-1.1.86-1.46,1.34a48.61,48.61,0,0,1-9.49,9.7c-8.15,6.2-17.42,7.58-27.31,6.32-.58-.07-1.27-.54-1.64.29s.42,1.07.88,1.42c2.63,2,5.2,4,7.93,5.88a18.23,18.23,0,0,0,12.09,3.39,21.35,21.35,0,0,0,19.6-19C119.58,87.6,120.22,84.34,118.59,81.34Z"/><path class="cls-3" d="M98.69,66.67c7.33-1.5,12.64,2,17.1,7.62a3.88,3.88,0,0,1,.44,4.86A33.31,33.31,0,0,1,82,95.79l-.53-.07c-6.68-1-9.42-5.27-7.29-11.8a32.57,32.57,0,0,1,6.12-10.84C85.08,67.32,91.31,65.64,98.69,66.67Z"/><path class="cls-4" d="M118.59,81.34c1.63,3,1,6.26.61,9.33a21.35,21.35,0,0,1-19.6,19,18.23,18.23,0,0,1-12.09-3.39c-2.73-1.83-5.3-3.9-7.93-5.88-.46-.35-1.24-.61-.88-1.42s1.06-.36,1.64-.29c9.88,1.26,19.16-.12,27.31-6.32a48.61,48.61,0,0,0,9.49-9.7C117.49,82.19,117.69,81.55,118.59,81.34Z"/><path class="cls-2" d="M97.89,156.36c-1.64,2.69-3,5.1-4.53,7.37-7.07,10.27-18.43,14.06-31.91,10.6-10.07-2.58-17.86-8.18-20.28-18.65-1.88-8.14-2.75-16.71,2-24.42,5.56-9,14-13.43,24.49-13.78,13.19-.44,21.32,7.81,28.6,17.32.32.42.55.9.84,1.35,0,.06.12.08.37.22,2-8.16,7.84-13.35,13.94-18.37a9.8,9.8,0,0,1,5.22-2.45c8.93-1,17.75-.5,25.53,4.36,9.79,6.12,13.36,15.22,11.35,26.63-2.74,15.58-14.11,25-29.81,24.09A32.85,32.85,0,0,1,100.18,159ZM67.75,121.1c-4.37.24-8,1.74-11.63,3.16a4.25,4.25,0,0,0-2.93,4.29,29.34,29.34,0,0,0,2,12c3.7,8.9,11,14.22,18.95,18.8a25.69,25.69,0,0,0,12.46,3.43,4.77,4.77,0,0,0,4.69-2.49c2.39-4.62,4-9.36,3.61-14.79-.88-13-11.78-20.07-23-24.09A9.35,9.35,0,0,0,67.75,121.1Zm48,32.45a52.73,52.73,0,0,0,18.65-5.68,23.37,23.37,0,0,0,12.28-17.47,3.58,3.58,0,0,0-1.38-3.71,31,31,0,0,0-23.73-7.61c-4.6.36-8.78,1.56-12.23,5.12-5.28,5.43-8.44,11.45-8.19,19.26.19,5.88,1.6,8.2,7.32,9.66A23.11,23.11,0,0,0,115.73,153.55ZM86.6,166c-20.06-4.95-34.26-15.46-37.23-37.16-9.64,8.31-6.7,27.46,0,35C56.36,171.7,76.18,177.07,86.6,166Zm62.84-31.86c-1.13,1.91-1.92,3.29-2.75,4.64-4.93,8.08-11.75,13.7-21,16.32-6.19,1.76-12.46,1.86-18.8,1.42-.51,0-1.13-.48-1.49.05s.09,1.18.4,1.71a12,12,0,0,0,6.76,5.35c9.09,3,18.05,2.1,26.91-1a8.91,8.91,0,0,0,4.68-3.8c1.22-2,2.49-3.91,3.67-5.9C151.29,147.14,151.58,141.06,149.44,134.14Z"/><path class="cls-3" d="M67.75,121.1a9.35,9.35,0,0,1,4.11.32c11.22,4,22.12,11.07,23,24.09.36,5.42-1.21,10.16-3.61,14.79a4.77,4.77,0,0,1-4.69,2.49,25.69,25.69,0,0,1-12.46-3.43c-8-4.57-15.25-9.9-18.95-18.8a29.34,29.34,0,0,1-2-12,4.25,4.25,0,0,1,2.93-4.29C59.77,122.84,63.38,121.34,67.75,121.1Z"/><path class="cls-3" d="M115.73,153.55a23.11,23.11,0,0,1-7.29-.42c-5.71-1.46-7.13-3.78-7.32-9.66-.25-7.81,2.91-13.83,8.19-19.26,3.45-3.55,7.64-4.75,12.23-5.12a31,31,0,0,1,23.73,7.61,3.58,3.58,0,0,1,1.38,3.71,23.37,23.37,0,0,1-12.28,17.47A52.73,52.73,0,0,1,115.73,153.55Z"/><path class="cls-5" d="M86.6,166c-10.42,11.07-30.24,5.7-37.22-2.16-6.71-7.55-9.66-26.7,0-35C52.34,150.55,66.54,161.06,86.6,166Z"/><path class="cls-6" d="M149.44,134.14c2.14,6.92,1.85,13-1.57,18.78-1.18,2-2.44,3.93-3.67,5.9a8.91,8.91,0,0,1-4.68,3.8c-8.86,3.11-17.82,4-26.91,1a12,12,0,0,1-6.76-5.35c-.31-.53-.79-1.12-.4-1.71s1-.09,1.49-.05c6.33.44,12.61.34,18.8-1.42,9.21-2.62,16-8.25,21-16.32C147.51,137.43,148.3,136.05,149.44,134.14Z"/><polygon class="cls-1" points="342.95 79.75 250.6 237.63 160.04 78.72 342.95 79.75"/><path class="cls-2" d="M234.39,85.39c-.11,11.36-6.53,20.41-16.48,23.17a29.74,29.74,0,0,1-16.22,0c-7-2-12.06-8.92-13.47-16.61-1.85-10.08,8.38-23.6,19.16-23.92,4.43-.13,8.85-.61,13.3-.72a9.63,9.63,0,0,1,6.67,2.54C232.65,74.4,234.46,78.39,234.39,85.39ZM216,70.1c-.74,0-1.49-.05-2.22,0-4.39.28-5.24.95-6.68,5.1-3.49,10.09-1.06,19.06,5.27,27.23,2.53,3.27,5.29,3.7,9,1.73,5.28-2.82,7.91-7.62,9.69-13C234.75,80.13,227.6,70.15,216,70.1Zm-3.76,36.18c0-.24,0-.33,0-.38a3,3,0,0,0-.37-.54c-8.09-8.52-10.34-18.49-7.5-29.77.29-1.15,1.44-2.87.42-3.42-1.2-.65-2.63.78-3.84,1.57a1.85,1.85,0,0,0-.32.31,65.86,65.86,0,0,0-7.82,9.67A10.9,10.9,0,0,0,191.28,92C193.52,102.67,201,107.1,212.28,106.27Z"/><path class="cls-3" d="M216,70.1c11.56,0,18.71,10,15,21.06-1.79,5.38-4.42,10.17-9.69,13-3.69,2-6.44,1.54-9-1.73-6.33-8.18-8.76-17.14-5.27-27.23,1.44-4.16,2.28-4.82,6.68-5.1C214.56,70,215.3,70.09,216,70.1Z"/><path class="cls-7" d="M212.28,106.27c-11.23.83-18.76-3.6-21-14.28a10.9,10.9,0,0,1,1.55-8.29A65.86,65.86,0,0,1,200.65,74a1.85,1.85,0,0,1,.32-.31c1.21-.79,2.63-2.22,3.84-1.57,1,.55-.13,2.27-.42,3.42-2.84,11.29-.59,21.26,7.5,29.77a3,3,0,0,1,.37.54C212.29,105.94,212.27,106,212.28,106.27Z"/><path class="cls-8" d="M275.24,76.32c.62.1,1.31,1.38,1,1.86s-.5.77-.74,1.16-.42.72-.64,1.08c0,.08-.14.18-.22.19a3.54,3.54,0,0,0-1.8,1A6.55,6.55,0,0,1,271,82.83a6.41,6.41,0,0,0-.85.46c-.78.4-1.55.81-2.35,1.17s-1.53.62-2.3.88a14.94,14.94,0,0,0-2.15.66,10.71,10.71,0,0,1-2.26.56,2,2,0,0,1-.28,0,.81.81,0,0,1,0-.08l-2.18.42c-.81.15-1.63.3-2.44.43s-1.68.3-2.53.37c-1.11.09-2.22.11-3.33.15-.75,0-1.49,0-2.24,0H248c-.26,0-.62.06-.65-.31,0-.13.3-.35.5-.42,1.85-.7,3.72-1.37,5.57-2.08.46-.18.88-.48,1.33-.7.29-.14.61-.23.91-.36.73-.32,1.47-.63,2.18-1,1.09-.54,2.16-1.13,3.24-1.68.42-.22.86-.4,1.28-.62s1-.59,1.57-.85c1.19-.59,2.35-1.23,3.59-1.71s2.34-.7,3.5-1.06c.7-.22,1.39-.46,2.07-.72A4.19,4.19,0,0,1,275.24,76.32Z"/><path class="cls-8" d="M267.25,178a.79.79,0,0,1-.69.16c-.18-.07-.31-.37-.38-.59a3.37,3.37,0,0,1-.06-.77l-.05,0c.18-.72.33-1.45.54-2.16s.45-1.3.64-2c.29-1,.51-2,.83-3a1.42,1.42,0,0,1,.63-.68c.65-.38,1.34-.69,2-1,.3-.16.58-.36.87-.53s.65,0,.62.34a4.9,4.9,0,0,1-.29,1.26q-.71,1.9-1.48,3.77c-.24.57-.55,1.12-.81,1.68-.19.41-.36.84-.53,1.26a1.4,1.4,0,0,1-.17.36C268.37,176.73,267.84,177.37,267.25,178Z"/><path d="M259.51,120.63c-.57.06-1.19-.71-1.16-1.51a2.48,2.48,0,0,1,1.35-2,.76.76,0,0,1,.92,0c.47.34,1,.63,1.13,1.26a1.84,1.84,0,0,1-.08.89C261.32,120.3,260.43,120.53,259.51,120.63Z"/><path class="cls-9" d="M257.41,133.39a.67.67,0,0,1-1.24.15c-.33-.45-.78-.82-1.15-1.24s-.72-.87-1.07-1.32c0-.06-.07-.22,0-.25.39-.33.79-.65,1.19-1,0,0,.08,0,.11,0h.05a3,3,0,0,1,2.31,2.09A4,4,0,0,1,257.41,133.39Z"/><path class="cls-9" d="M252.69,131.94a.7.7,0,0,1,.44.18c.23.18.43.39.65.59.46.41.94.81,1.38,1.25a.36.36,0,0,1-.23.6l-.65.08a8.65,8.65,0,0,1-1.08-.16,2.23,2.23,0,0,1-1.19-1.61A1,1,0,0,1,252.69,131.94Z"/><path d="M249,76.61a3.73,3.73,0,0,1,.77.58.72.72,0,0,1,.19.42c0,.33,0,.68.06,1,0,.54,0,1.06-.6,1.3a1.36,1.36,0,0,1-.74.11,4,4,0,0,1-1-.36,1.55,1.55,0,0,1-.23-2.6,4.35,4.35,0,0,1,1-.52A.78.78,0,0,1,249,76.61Z"/><path class="cls-10" d="M244.54,40.35a1.19,1.19,0,0,1,2.06.07,7.35,7.35,0,0,1,1.16,3.83c-.08,1.37-.14,2.74-.25,4.11,0,.7-.16,1.39-.26,2.08-.14.9-.31,1.79-.44,2.69-.05.38,0,.78,0,1.17-.08.78-.16,1.57-.29,2.34-.18,1.09-.4,2.17-.62,3.26-.16.83-.43,1.64-.51,2.48a8,8,0,0,1-.56,2.3c-.44,1.08-.73,2.21-1.1,3.31-.13.4-.47.44-.84.41a.66.66,0,0,1-.62-.64c-.09-.8-.14-1.6-.21-2.4s-.16-1.51-.22-2.26c0-.28.05-.57,0-.85-.12-1.2-.27-2.39-.38-3.59a12,12,0,0,1,0-1.42,1.22,1.22,0,0,0,0-.32,8.89,8.89,0,0,1,.18-3c.11-1,0-2,.07-3a3.93,3.93,0,0,1,.1-.89,31.69,31.69,0,0,0,.77-4.19,14.59,14.59,0,0,1,1.16-4.13A7,7,0,0,1,244.54,40.35Z"/><path d="M253.13,132.13a.7.7,0,0,0-.44-.18,1,1,0,0,0-.67.92,2.23,2.23,0,0,0,1.19,1.61,8.65,8.65,0,0,0,1.08.16l.65-.08a.36.36,0,0,0,.23-.6c-.44-.43-.92-.83-1.38-1.25C253.56,132.52,253.36,132.3,253.13,132.13Zm3,1.41a.67.67,0,0,0,1.24-.15,4,4,0,0,0,.18-1.55,3,3,0,0,0-2.31-2.09h-.05s-.08,0-.11,0c-.4.32-.81.64-1.19,1,0,0,0,.19,0,.25.35.45.7.9,1.07,1.32S255.84,133.08,256.18,133.54Zm-3.08,2.82a2.5,2.5,0,0,1-1.68-1.37c-.27-.46-.57-.91-.88-1.36a.44.44,0,0,0-.56-.17c-1,.25-1.92.46-2.9.65a14.78,14.78,0,0,1-2.07.3,6.81,6.81,0,0,1-1.36-.21c-.6-.1-1.21-.15-1.8-.29a4.86,4.86,0,0,1-1.19-.48,10.47,10.47,0,0,1-2.12-1.19,2.42,2.42,0,0,1-.73-1.4c-.06-.29.15-.48.42-.58a.61.61,0,0,1,.73.17,11.65,11.65,0,0,0,1.6,1.55,4.22,4.22,0,0,0,1.49.49,16.14,16.14,0,0,0,2.36.44c1,.08,2.06,0,3.09,0a5.62,5.62,0,0,0,2.73-.84.48.48,0,0,1,.11-.06,4.64,4.64,0,0,0,2.25-1.64c.49-.55,1-1.07,1.49-1.62s1-.42,1.48-.61a.36.36,0,0,1,.27.06,18.62,18.62,0,0,1,2.39,1.74,3.19,3.19,0,0,1,.7,2.2c0,.12,0,.25,0,.46a3.1,3.1,0,0,1-1.64,3,1.09,1.09,0,0,1-.29.14c-.65.18-1.31.35-2,.54A4,4,0,0,1,253.1,136.35Z"/><path class="cls-10" d="M236,43.58a.75.75,0,0,1,1,.54c.3,1.32.58,2.65.87,4a1.06,1.06,0,0,0,.12.34,6.47,6.47,0,0,1,.7,2.45c.23,1.18.44,2.37.63,3.57.11.65.17,1.31.26,2h0c.05,1.45.11,2.9.15,4.35s.05,2.75.12,4.12c0,1,.14,2.05.24,3.08.07.71,0,.87-.7,1-.3.08-.59.2-.89.29-.56.18-1,0-1.08-.58-.15-.74-.25-1.5-.33-2.26-.16-1.49-.3-3-.44-4.49,0-.36,0-.72-.05-1.07a6.4,6.4,0,0,0-.14-.78c-.19-.86-.39-1.72-.59-2.57-.07-.26-.21-.51-.25-.77s-.07-.81-.12-1.21c-.09-.72-.22-1.44-.29-2.17s-.06-1.37-.08-2.06a.76.76,0,0,0,0-.24,7.89,7.89,0,0,1-.26-2.66c0-.85-.12-1.7-.18-2.56A2.51,2.51,0,0,1,236,43.58Z"/><path d="M235.74,120.52c-.89-.08-1.58-.29-1.82-1.14a1.66,1.66,0,0,1-.07-.79,2.57,2.57,0,0,1,1.55-1.86,1.54,1.54,0,0,1,1.65.42,1.75,1.75,0,0,1,.37,1.17,2.42,2.42,0,0,1-1.18,2.06A1.51,1.51,0,0,1,235.74,120.52Z"/><path class="cls-8" d="M230.6,170.31c.85-.15,1.28.34,1.62,1,0,.06,0,.14.08.19a7.78,7.78,0,0,1,1.31,2.54,10,10,0,0,1,.44,1.38,1.47,1.47,0,0,0,.1.31,8.52,8.52,0,0,1,.82,2.51c.06.28.22.53.28.8s0,.38-.09.42a.57.57,0,0,1-.48,0,6.13,6.13,0,0,1-1-.71,12.16,12.16,0,0,1-2.79-3.42c-.21-.4-.61-.7-.83-1.1-.36-.63-.67-1.29-1-2s-.51-1.22-.76-1.84c-.14-.33,0-.57.27-.61l1.45.4A1.36,1.36,0,0,0,230.6,170.31Z"/><path class="cls-10" d="M229.24,39.85a1.25,1.25,0,0,1,.95.86c.15.5.33,1,.45,1.51a9.58,9.58,0,0,1,.13,1c.12.79.24,1.58.34,2.23s0,1.11,0,1.6a7.12,7.12,0,0,0,.2,1,2.56,2.56,0,0,1,.11.51c0,.7,0,1.4,0,2.09.08,1,.23,2,.38,3a23.91,23.91,0,0,0,.5,2.74,26.85,26.85,0,0,1,.49,4.36c.09.92.09,1.85.19,2.77.06.57.22,1.13.34,1.7a3.14,3.14,0,0,1,.08.4c.06.8.11,1.59.16,2.39s.09,1.32.14,2a.69.69,0,0,1-.47.73c-.66.28-1.32.57-2,.83a.83.83,0,0,1-1.06-.61,3.25,3.25,0,0,1,0-1.71,9.53,9.53,0,0,0,.08-2.12c0-.91-.17-1.81-.3-2.71s-.37-2.06-.51-3.09c-.26-1.88-.47-3.76-.73-5.63-.1-.72-.29-1.43-.41-2.15s-.18-1.21-.27-1.81a6.38,6.38,0,0,1-.12-.76c0-1,0-2-.1-3,0-.75-.17-1.49-.19-2.23s0-1.71,0-2.56a2.1,2.1,0,0,1,.17-.52c.22-.67.42-1.36.66-2C228.63,40.22,228.76,39.84,229.24,39.85Z"/><path class="cls-10" d="M258.35,119.12c0,.81.58,1.58,1.16,1.51.92-.1,1.81-.33,2.16-1.35a1.84,1.84,0,0,0,.08-.89c-.11-.63-.66-.92-1.13-1.26a.76.76,0,0,0-.92,0A2.48,2.48,0,0,0,258.35,119.12Zm-24.43.26c.24.85.93,1.06,1.82,1.14a1.51,1.51,0,0,0,.51-.15,2.42,2.42,0,0,0,1.18-2.06,1.75,1.75,0,0,0-.37-1.17,1.54,1.54,0,0,0-1.65-.42,2.57,2.57,0,0,0-1.55,1.86A1.66,1.66,0,0,0,233.92,119.38Zm-3.77,8.19a2.26,2.26,0,0,0-1.84-1.73c-.34,0-.67-.14-1-.19a12.79,12.79,0,0,0-1.32-.15,1,1,0,0,1-.89-.82,11.52,11.52,0,0,1-.4-2,12.39,12.39,0,0,1,.19-2.21c.2-1.5.41-3,.67-4.48a3.94,3.94,0,0,1,.5-1.28c.69-1.16,1.43-2.3,2.15-3.45a2.86,2.86,0,0,1,1.38-1q1.3-.56,2.63-1a8.9,8.9,0,0,1,4.13-.62c.51.06,1,.16,1.53.26.71.15,1.42.32,2.14.47a6.78,6.78,0,0,1,2.51,1.46c.65.48,1.29,1,1.91,1.52a4.78,4.78,0,0,1,2,4.38c.05.41.11.83.16,1.24s.08.92.12,1.38.31.8.86.78A11.51,11.51,0,0,0,249,120a1.3,1.3,0,0,0,.83-1.27,5.6,5.6,0,0,1,.12-1.52c.11-.45.44-.84.56-1.28a18.61,18.61,0,0,1,1.63-3.37,1,1,0,0,1,.3-.38,27,27,0,0,1,2.53-1.84A19.37,19.37,0,0,1,258,109a7.24,7.24,0,0,1,1.64-.24,7.42,7.42,0,0,1,.77-.05,2.57,2.57,0,0,1,.68,0c.8.21,1.6.42,2.38.67s1.64.56,2.45.87c.38.14.71.39,1.09.54a8.51,8.51,0,0,1,3,1.76,6.43,6.43,0,0,1,1.92,3.15,8.59,8.59,0,0,1,.26,2.71,3,3,0,0,0,.39,1.3.64.64,0,0,1-.15.84c-.46.4-.94.78-1.38,1.2a5.76,5.76,0,0,0-.51.68c-.13.17-.27.33-.41.5a4.29,4.29,0,0,0-1.19,2.3,3.21,3.21,0,0,0,1,2.73.58.58,0,0,1,.12.16c.32.94,1.15,1,1.93,1.1a4.39,4.39,0,0,1,1,.29.57.57,0,0,1,.2.44,4.55,4.55,0,0,1-1.52,3.51,12.91,12.91,0,0,1-3.21,2.15c-.78.35-1.51.8-2.29,1.14-1,.41-1.93.77-2.91,1.13s-2.16.74-3.21,1.17c-1.5.62-3,1.34-4.48,1.94a4,4,0,0,0-1.76,1.31,15.91,15.91,0,0,1-1.35,1.29,2.28,2.28,0,0,0-.82,1.28,4.62,4.62,0,0,0,0,.93,6.79,6.79,0,0,0,.15.92c.08.38-.13.51-.44.59a3.63,3.63,0,0,1-2-.13c-1.45-.42-2.9-.83-4.34-1.28-.72-.23-1.41-.56-2.12-.82s-1.19-.38-1.76-.65c-.81-.38-1.59-.82-2.38-1.24s-1.49-.74-2.18-1.18c-1-.62-1.89-1.31-2.83-2-.31-.22-.58-.51-.91-.7a6.33,6.33,0,0,1-1.8-2c-.47-.62-1-1.2-1.5-1.79-.1-.12-.28-.23-.31-.37a3.78,3.78,0,0,0-1-1.59.93.93,0,0,1,0-1.26,18.57,18.57,0,0,0,1.36-2.11A4.53,4.53,0,0,0,230.15,127.57ZM242,132.45a4.22,4.22,0,0,1-1.49-.49,11.65,11.65,0,0,1-1.6-1.55.61.61,0,0,0-.73-.17c-.27.1-.47.28-.42.58a2.42,2.42,0,0,0,.73,1.4,10.47,10.47,0,0,0,2.12,1.19,4.86,4.86,0,0,0,1.19.48c.59.14,1.2.2,1.8.29a6.81,6.81,0,0,0,1.36.21,14.78,14.78,0,0,0,2.07-.3c1-.19,1.94-.4,2.9-.65a.44.44,0,0,1,.56.17c.3.44.6.89.88,1.36a2.5,2.5,0,0,0,1.68,1.37,4,4,0,0,0,1.9,0c.65-.2,1.31-.36,2-.54a1.09,1.09,0,0,0,.29-.14,3.1,3.1,0,0,0,1.64-3c0-.21,0-.33,0-.46a3.19,3.19,0,0,0-.7-2.2,18.62,18.62,0,0,0-2.39-1.74.36.36,0,0,0-.27-.06c-.5.18-1.08.16-1.48.61s-1,1.07-1.49,1.62a4.64,4.64,0,0,1-2.25,1.64.48.48,0,0,0-.11.06,5.62,5.62,0,0,1-2.73.84c-1,0-2.07.05-3.09,0A16.14,16.14,0,0,1,242,132.45Z"/><path d="M228,84c-.57,0-.92-.12-1.12-.48a9.35,9.35,0,0,1-.5-1.15.55.55,0,0,1,.1-.36c.16-.3.37-.57.5-.89a1.29,1.29,0,0,1,1.38-.61,2.33,2.33,0,0,1,1.39,2.46c-.11.46-.5.6-.84.76A4.53,4.53,0,0,1,228,84Z"/><path d="M246.6,40.42a1.19,1.19,0,0,0-2.06-.07,7,7,0,0,0-.74,1.36,14.59,14.59,0,0,0-1.16,4.13,31.69,31.69,0,0,1-.77,4.19,3.93,3.93,0,0,0-.1.89c0,1,0,2-.07,3a8.89,8.89,0,0,0-.18,3,1.22,1.22,0,0,1,0,.32,12,12,0,0,0,0,1.42c.1,1.2.26,2.4.38,3.59,0,.28,0,.57,0,.85.06.76.15,1.51.22,2.26s.11,1.6.21,2.4a.66.66,0,0,0,.62.64c.37,0,.7,0,.84-.41.37-1.1.66-2.24,1.1-3.31a8,8,0,0,0,.56-2.3c.08-.83.35-1.65.51-2.48.22-1.08.44-2.17.62-3.26.13-.78.21-1.56.29-2.34,0-.39,0-.79,0-1.17.12-.9.3-1.79.44-2.69.11-.69.22-1.39.26-2.08.1-1.37.17-2.74.25-4.11A7.35,7.35,0,0,0,246.6,40.42ZM232.22,171.31c-.34-.66-.78-1.15-1.62-1a1.36,1.36,0,0,1-.55-.09l-1.45-.4c-.29,0-.4.28-.27.61.25.62.49,1.24.76,1.84s.61,1.32,1,2c.23.4.62.7.83,1.1a12.16,12.16,0,0,0,2.79,3.42,6.13,6.13,0,0,0,1,.71.57.57,0,0,0,.48,0c.08,0,.12-.29.09-.42s-.23-.53-.28-.8a8.52,8.52,0,0,0-.82-2.51,1.47,1.47,0,0,1-.1-.31,10,10,0,0,0-.44-1.38,7.78,7.78,0,0,0-1.31-2.54S232.26,171.37,232.22,171.31Zm-2-130.6a1.25,1.25,0,0,0-.95-.86c-.48,0-.61.36-.74.7-.24.67-.44,1.35-.66,2a2.1,2.1,0,0,0-.17.52c0,.85-.08,1.71,0,2.56s.16,1.49.19,2.23c.06,1,.06,2,.1,3a6.38,6.38,0,0,0,.12.76c.09.6.17,1.21.27,1.81s.32,1.42.41,2.15c.26,1.88.47,3.76.73,5.63.15,1,.36,2.06.51,3.09s.25,1.8.3,2.71a9.53,9.53,0,0,1-.08,2.12,3.25,3.25,0,0,0,0,1.71.83.83,0,0,0,1.06.61c.67-.26,1.33-.55,2-.83a.69.69,0,0,0,.47-.73c0-.66-.09-1.32-.14-2s-.1-1.59-.16-2.39a3.14,3.14,0,0,0-.08-.4c-.11-.57-.27-1.13-.34-1.7-.1-.92-.1-1.85-.19-2.77a26.85,26.85,0,0,0-.49-4.36,23.91,23.91,0,0,1-.5-2.74c-.15-1-.29-2-.38-3-.06-.69,0-1.39,0-2.09a2.56,2.56,0,0,0-.11-.51,7.12,7.12,0,0,1-.2-1c0-.49,0-1,0-1.6s-.22-1.44-.34-2.23a9.58,9.58,0,0,0-.13-1C230.52,41.71,230.34,41.22,230.19,40.71Zm46.09,37.47c.28-.48-.41-1.76-1-1.86a4.19,4.19,0,0,0-2.17.1c-.69.25-1.38.5-2.07.72-1.16.36-2.37.61-3.5,1.06s-2.4,1.12-3.59,1.71c-.53.27-1,.58-1.57.85s-.86.41-1.28.62c-1.08.56-2.15,1.14-3.24,1.68-.71.36-1.45.66-2.18,1-.3.13-.61.22-.91.36-.45.22-.86.52-1.33.7-1.85.71-3.72,1.38-5.57,2.08-.2.08-.51.29-.5.42,0,.37.39.28.65.31h.12c.75,0,1.49,0,2.24,0,1.11,0,2.23-.06,3.33-.15.85-.07,1.68-.24,2.53-.37s1.63-.28,2.44-.43l2.18-.42a.81.81,0,0,0,0,.08,2,2,0,0,0,.28,0,10.71,10.71,0,0,0,2.26-.56,14.94,14.94,0,0,1,2.15-.66c.78-.27,1.55-.55,2.3-.88s1.57-.77,2.35-1.17a6.41,6.41,0,0,1,.85-.46,6.55,6.55,0,0,0,1.84-1.21,3.54,3.54,0,0,1,1.8-1c.08,0,.17-.11.22-.19.22-.36.42-.72.64-1.08S276.05,78.58,276.28,78.18Zm-.4-4.43a11.75,11.75,0,0,1,2.39,1.74,2.29,2.29,0,0,1,.58,1.84,12.84,12.84,0,0,1-.54,2.41.71.71,0,0,0,.35.84,6.7,6.7,0,0,1,1.06,1,14.32,14.32,0,0,1,1.16,1.2c.61.76,1.15,1.57,1.75,2.34a8,8,0,0,0,.75.73c.27.27.52.54.78.81.1.11.18.26.31.32a1.83,1.83,0,0,1,1,1.16,4.29,4.29,0,0,0,1.31,1.69,5.79,5.79,0,0,1,1.12,1.48c.21.35.48.66.68,1a9.16,9.16,0,0,1,.52,1.13c.18.44.29.92.51,1.34.33.64.71,1.25,1.09,1.86.17.28.41.51.55.8.32.64.61,1.3.89,2,.41,1,.83,2,1.19,3,.22.61.34,1.25.5,1.88,0,.05,0,.12,0,.16.28.51.57,1,.83,1.54a4.52,4.52,0,0,1,.43,1c.26,1.07.46,2.16.7,3.23.11.53.23,1.05.36,1.57a9.32,9.32,0,0,1,.32,1c.07.56.07,1.13.1,1.69a.51.51,0,0,0,0,.2c.5.86.25,1.8.28,2.72,0,.19,0,.38,0,.57a10.22,10.22,0,0,1,.09,2.49,6.5,6.5,0,0,0,0,1.61,5,5,0,0,1-.08,1.81,11.4,11.4,0,0,0-.2,1.92c-.07.66-.17,1.32-.22,2-.1,1.14-.08,2.29-.27,3.41-.3,1.74-.71,3.47-1.11,5.19-.35,1.48-.72,3-1.15,4.43a10.36,10.36,0,0,1-1.24,3.3c-.07.09-.06.24-.1.35-.25.67-.46,1.35-.75,2a18.39,18.39,0,0,0-1.55,3.26,5.92,5.92,0,0,1-.54,1c-.33.74-.62,1.51-1,2.24a8.09,8.09,0,0,1-.76,1.08c-.66.91-1.28,1.86-2,2.73-.51.62-1.16,1.14-1.72,1.71s-.85,1-1.3,1.4a7.64,7.64,0,0,1-2.8,2.11,3,3,0,0,0-1,.91,5.26,5.26,0,0,1-1.54,1,6.78,6.78,0,0,0-3.28,2.62,5.73,5.73,0,0,0-.35.91c-.25.76-.47,1.52-.72,2.28-.32,1-.65,1.92-1,2.88-.06.18-.15.35-.2.53-.12.38-.22.77-.33,1.15a1,1,0,0,1-.11.35,5,5,0,0,0-.63,1.82,8.24,8.24,0,0,1-.57,1.11c-.08.17-.12.36-.21.53a4.56,4.56,0,0,1-.41.62c-.1.12-.28.19-.36.33a8.45,8.45,0,0,1-2.07,2,1.91,1.91,0,0,1-2.61-.23,3.44,3.44,0,0,1-.8-2.81,16.79,16.79,0,0,1,.35-2.57,16.35,16.35,0,0,1,.57-1.7c.13-.4.21-.82.32-1.23a1.66,1.66,0,0,1,.15-.51,3.59,3.59,0,0,0,.47-1.66c0-.16,0-.41-.07-.47a.68.68,0,0,0-.53,0,8.6,8.6,0,0,1-.83.42c-1,.24-2,.46-3,.63-1.22.2-2.45.33-3.67.52s-2.16.38-3.23.57a5.59,5.59,0,0,1-.77,0l-1.75,0c-.57,0-1.14,0-1.7,0-1.16.07-2.32.24-3.48.24s-2-.22-3-.31-2-.14-3-.23c-.73-.07-1.45-.19-2.18-.26a4,4,0,0,0-1.4,0,2.18,2.18,0,0,1-1.44-.11c-.18-.07-.54-.05-.62.06a.82.82,0,0,0,0,.67c.22.59.48,1.16.75,1.73.13.28.33.53.46.81.31.69.63,1.38.87,2.09.32.93.6,1.87.84,2.82a1.85,1.85,0,0,1-.57,2,.57.57,0,0,1-.33.15,7.7,7.7,0,0,1-3.27-.25,2.37,2.37,0,0,1-.59-.35c-.73-.63-1.45-1.27-2.18-1.91-.14-.13-.34-.25-.38-.41-.21-.75-.91-1.13-1.29-1.75s-.93-1.39-1.34-2.11a17.87,17.87,0,0,1-1-2c-.26-.61-.41-1.26-.62-1.9s-.43-1.31-.68-2c-.18-.45-.67-.46-1-.64-.94-.48-1.9-.92-2.81-1.46-1.08-.65-2.1-1.38-3.14-2.08a.64.64,0,0,1-.19-.15,7.19,7.19,0,0,0-2.19-1.84.87.87,0,0,1-.23-.17c-.42-.52-.83-1-1.23-1.57a19.15,19.15,0,0,0-2.21-2.73A36.69,36.69,0,0,1,209.5,155a12.5,12.5,0,0,1-1.68-2.42c-.48-1-1.17-1.84-1.72-2.78-.3-.51-.46-1.1-.72-1.64-.35-.73-.71-1.45-1.11-2.16a18,18,0,0,1-1.46-3.76c-.52-1.76-1-3.53-1.44-5.32-.25-1-.34-2.09-.52-3.13s-.47-2.21-.64-3.33c-.23-1.51-.48-3-.58-4.53-.08-1.13.06-2.28.09-3.42,0-.33,0-.65,0-1s.07-.75.11-1.12a5.41,5.41,0,0,0,.09-.68c0-.6,0-1.2,0-1.79,0-1,0-2,.09-2.93.06-.75.25-1.49.37-2.24,0-.2,0-.41.07-.61.09-.45.19-.89.29-1.34a9.08,9.08,0,0,0,.2-.95c.11-.94.16-1.9.3-2.83.09-.58.34-1.14.49-1.72s.22-1,.33-1.51c.17-.71.35-1.43.5-2.14s.32-1.72.53-2.57c.16-.64.43-1.25.63-1.88.13-.4.2-.81.31-1.22a10.25,10.25,0,0,1,1.34-3c.35-.54.62-1.13,1-1.67a10.93,10.93,0,0,0,.75-1c.31-.65,1-1,1.31-1.53a9.2,9.2,0,0,1,1.38-1.69.77.77,0,0,0,.27-.64,2.34,2.34,0,0,1,.43-1c.19-.38.42-.73.61-1.11s.26-.4.57-.36a.48.48,0,0,0,.33-.17c.43-.49.84-1,1.25-1.49a2.24,2.24,0,0,0,.24-.28,13.41,13.41,0,0,1,2.69-2.62,37.6,37.6,0,0,1,3.17-2.32,10.57,10.57,0,0,1,1.87-1.05c.51-.24,1-.62,1.47-.86,1.27-.61,2.56-1.2,3.85-1.78.52-.23,1.07-.4,1.6-.61a1,1,0,0,0,.49-1.1,12.61,12.61,0,0,1-.83-4q-.23-2-.58-3.9a37.65,37.65,0,0,1-.48-4.68c0-.09,0-.22,0-.28.28-.37.09-.74,0-1.11-.09-.81-.17-1.62-.19-2.43,0-1.8,0-3.61-.08-5.41,0-.79-.32-1.57-.37-2.36a20.48,20.48,0,0,1-.34-3.47c.13-1.37,0-2.76.09-4.15a2.58,2.58,0,0,1,.23-.82c.18-.47.37-.93.58-1.38a1.26,1.26,0,0,1,.36-.42,7.72,7.72,0,0,1,1.15-.84,6.9,6.9,0,0,1,1.43-.55c.34-.09.6.15.76.43s.33.68.5,1a7.36,7.36,0,0,0,.59,1.06,5.69,5.69,0,0,1,.61,1.72c.29.84.59,1.68.89,2.52,0,.09.2.23.25.21a.72.72,0,0,0,.31-.28c.26-.42.48-.87.76-1.28a.75.75,0,0,1,.45-.32,4,4,0,0,0,1.66-.83.86.86,0,0,1,1.31.27,8.44,8.44,0,0,1,.62,1.23,22.88,22.88,0,0,1,.85,2.32c.21.76.29,1.56.47,2.33a4.47,4.47,0,0,0,.32.77h.16a5.47,5.47,0,0,0,.31-.85c.09-.48.11-1,.19-1.45a5,5,0,0,1,.23-.74,1.2,1.2,0,0,0,.09-.22,15,15,0,0,1,1.3-4,9.76,9.76,0,0,1,1.08-2,5.41,5.41,0,0,1,2.17-1.66,1.46,1.46,0,0,1,1.65,0,.85.85,0,0,0,.47.13,1.26,1.26,0,0,1,1.1.73,4.47,4.47,0,0,1,.54,1.44c.17,1.23.29,2.47.36,3.71,0,.62-.14,1.25-.17,1.88,0,.83,0,1.66,0,2.48s-.15,1.73-.22,2.59c0,.36,0,.73,0,1.09,0,1.3,0,2.61,0,3.91,0,.9,0,1.81-.05,2.71,0,.3-.12.6-.16.91a30.43,30.43,0,0,1-1.12,5c-.32,1.06-.51,2.16-.78,3.24-.09.38-.24.75-.36,1.12-.22.65-.06.85.62.79l4.46-.33,2.31-.14h.2c1.15.19,2.3.37,3.44.6.46.09.87.38,1.33.48s1,0,1.52.16c.89.26,1.75.63,2.63.94a7.09,7.09,0,0,0,1,.3A10.69,10.69,0,0,1,267,71c.83.42,1.72.71,2.59,1.07a2.27,2.27,0,0,1,.5.26,3.21,3.21,0,0,0,1.39.87c.17,0,.29.28.46.38a1.28,1.28,0,0,0,.68.26c.67-.08,1.33-.3,2-.35A2.44,2.44,0,0,1,275.88,73.75Zm-38.48-5c.12.58.52.77,1.08.58.3-.1.59-.21.89-.29.66-.17.77-.34.7-1-.1-1-.2-2-.24-3.08-.06-1.37-.07-2.74-.12-4.12s-.1-2.9-.15-4.35h0c-.09-.66-.15-1.32-.26-2-.19-1.19-.4-2.38-.63-3.57a6.47,6.47,0,0,0-.7-2.45,1.06,1.06,0,0,1-.12-.34c-.29-1.32-.57-2.65-.87-4a.75.75,0,0,0-1-.54,2.51,2.51,0,0,0-1.41,2.32c.06.85.15,1.7.18,2.56a7.89,7.89,0,0,0,.26,2.66.76.76,0,0,1,0,.24c0,.69,0,1.37.08,2.06s.2,1.45.29,2.17c.05.4.06.81.12,1.21s.19.51.25.77c.21.85.4,1.71.59,2.57a6.4,6.4,0,0,1,.14.78c0,.36,0,.72.05,1.07.14,1.5.27,3,.44,4.49C237.15,67.23,237.25,68,237.4,68.73Zm29.16,109.4a.79.79,0,0,0,.69-.16c.58-.59,1.11-1.24,1.66-1.87a1.4,1.4,0,0,0,.17-.36c.18-.42.34-.85.53-1.26.26-.56.58-1.11.81-1.68q.77-1.87,1.48-3.77a4.9,4.9,0,0,0,.29-1.26c0-.37-.31-.53-.62-.34s-.57.37-.87.53c-.67.35-1.36.66-2,1a1.42,1.42,0,0,0-.63.68c-.32,1-.54,2-.83,3-.19.66-.45,1.3-.64,2s-.36,1.44-.54,2.16l.05,0a3.37,3.37,0,0,0,.06.77C266.24,177.76,266.38,178.06,266.56,178.13Zm-43.94-15a4.63,4.63,0,0,1,1,.47,18.16,18.16,0,0,0,3.34,1.65c1.13.43,2.29.75,3.46,1.08s2.12.56,3.2.8c.79.18,1.59.33,2.39.47,1,.19,2,.41,3,.53a18.28,18.28,0,0,1,4.64.77,1,1,0,0,0,.36.06,18.86,18.86,0,0,1,3.77.27,36.61,36.61,0,0,0,4.32.59c1.13.1,2.28,0,3.41.08a8.39,8.39,0,0,0,2.67-.46,6.68,6.68,0,0,1,.94-.24c1-.13,1.94-.17,2.89-.35a18.08,18.08,0,0,0,2.34-.66,13.68,13.68,0,0,0,2.7-1,21.12,21.12,0,0,1,3-1.21c.78-.31,1.57-.62,2.31-1s1.72-1,2.6-1.51a6.14,6.14,0,0,0,1.92-1.26,2.56,2.56,0,0,1,.41-.32c.62-.46,1.26-.9,1.84-1.41.36-.31.61-.76,1-1.1.63-.64,1.3-1.23,1.92-1.87a19.58,19.58,0,0,0,1.49-1.72c.52-.69,1-1.42,1.45-2.16a5.83,5.83,0,0,1,1-1.36,5.82,5.82,0,0,0,1-1.17c.17-.26.26-.54.56-.71a1,1,0,0,0,.33-.48c.29-.6.55-1.21.82-1.81a12.32,12.32,0,0,0,.6-1.37c.42-1.36.8-2.73,1.2-4.09a5.59,5.59,0,0,1,.66-1.82,5.63,5.63,0,0,0,.72-2c.13-.55.32-1.1.48-1.64s.36-1,.47-1.55c.18-.84.3-1.7.47-2.55s.4-1.76.56-2.65c.28-1.51.49-3,.79-4.53A17.07,17.07,0,0,0,295,122c0-.53-.14-1.06-.12-1.58a11,11,0,0,0,0-3.23,18.53,18.53,0,0,1-.27-3l.15,0c-.13-.6-.27-1.2-.39-1.8a11,11,0,0,0-1-3.29,1.69,1.69,0,0,1-.1-.35,12.84,12.84,0,0,0-.72-2.25,11,11,0,0,1-.94-3,2.29,2.29,0,0,0-.19-.57c-.57-1.08-1.19-2.13-1.73-3.22a4.81,4.81,0,0,0-1.16-1.6,1,1,0,0,1-.22-.33c-.24-.5-.44-1-.71-1.49-.62-1.09-.91-2.31-1.61-3.37a10.58,10.58,0,0,0-2.43-3.2.36.36,0,0,1-.14-.19,2.43,2.43,0,0,0-1.06-1.29,9.34,9.34,0,0,1-1.8-2c-.6-.84-1.32-1.6-2-2.39l0,0a2.75,2.75,0,0,1-1.31-1.5c-.19-.43-.55-.45-.87-.11a5.61,5.61,0,0,1-.62.51c-.22.17-.45.34-.66.53a13.75,13.75,0,0,1-1.43,1.32,30.27,30.27,0,0,1-2.82,1.67c-1.21.64-2.44,1.26-3.7,1.81a13.39,13.39,0,0,1-2.14.65c-.64.16-1.29.28-1.95.38-.91.15-1.82.3-2.74.38-1.12.1-2.25.1-3.38.18-.83.06-1.65.18-2.48.25-1.42.12-2.84.28-4.26.33-1.22,0-2.45,0-3.66-.06-1,0-2-.19-2.95-.25a3.13,3.13,0,0,1-1.48-.34,1.49,1.49,0,0,0-.46-.16,7.68,7.68,0,0,1-4-1.9c-.22-.22-.43-.37-.28-.7.24-.5.54-.73.94-.59a4.79,4.79,0,0,0,2.33.21c.59-.09,1.19-.12,1.78-.2,1-.15,2.09-.3,3.13-.48a9.13,9.13,0,0,0,1.43-.34c1.1-.38,2.2-.78,3.29-1.19A12.08,12.08,0,0,0,253.09,83a5.57,5.57,0,0,1,.91-.54c.68-.29,1.39-.53,2.08-.82.47-.2.91-.47,1.38-.68,1-.43,2-.82,3-1.28s2.21-1.09,3.32-1.65l1.94-1c.14-.07.26-.19.41-.27,1-.5,2-1,3-1.5a.51.51,0,0,0,.25-.4.88.88,0,0,0-.27-.45c-.08-.08-.23-.08-.33-.15A11.75,11.75,0,0,0,266,73c-.86-.25-1.73-.46-2.59-.72-1.2-.37-2.4-.76-3.6-1.14a4.18,4.18,0,0,0-1-.29,5.93,5.93,0,0,1-1.57-.39A13,13,0,0,0,255,70a4.57,4.57,0,0,1-.69,0,6,6,0,0,0-2.42-.23c-.3,0-.6.12-.9.13-1.1,0-2.21,0-3.29.12-2.14.29-4.26.71-6.38,1.08-.27,0-.52.16-.78.23s-.63.14-.94.2c-.75.15-1.52.26-2.26.47s-1.16.53-1.76.72c-1.07.34-2.16.67-3.25.93A18.68,18.68,0,0,0,229,74.86a15.87,15.87,0,0,1-2.93,1.06,1.49,1.49,0,0,0-.36.19,4.89,4.89,0,0,1-.53.29c-.67.26-1.36.48-2,.77a13.94,13.94,0,0,0-1.37.8l-1.18.7a8.56,8.56,0,0,1-.91.58,11,11,0,0,0-3.07,2.19,32.53,32.53,0,0,0-2.22,2.49c-.57.67-1.1,1.38-1.6,2.1s-.8,1.4-1.3,2A7.35,7.35,0,0,0,210.38,90c-.08.24-.35.41-.51.62s-.45.66-.67,1a4.41,4.41,0,0,1-.41.69,6.16,6.16,0,0,0-1.15,2.12,16.54,16.54,0,0,1-1,2.38,22.38,22.38,0,0,0-1.28,2.88,20.38,20.38,0,0,0-.81,2.31c-.29,1.07-.49,2.17-.76,3.25s-.59,2.19-.84,3.3c-.17.74-.29,1.49-.4,2.24s-.14,1.31-.19,2-.14,1.57-.17,2.36c0,.4.08.81.09,1.21,0,.69,0,1.37,0,2.06,0,1,0,2.09,0,3.14,0,.54,0,1.08.06,1.62s0,.92,0,1.37c.06.63.2,1.26.25,1.89s.06,1.54.08,2.32a8,8,0,0,0,0,1.08c.21,1.23.47,2.44.69,3.67.09.55.08,1.11.19,1.65.26,1.34.57,2.67.86,4,0,.2.13.38.19.57a7.09,7.09,0,0,0,.42,1.43,19,19,0,0,1,1.29,3.33c.22.68.46,1.36.71,2,.12.31.28.61.41.91.25.6.45,1.22.73,1.81a18.35,18.35,0,0,0,.93,1.62,16.31,16.31,0,0,0,1.32,2c.61.73,1.35,1.34,2,2,.48.48.93,1,1.4,1.48.93,1,2.25,1.44,3.13,2.53a27.48,27.48,0,0,0,2.39,2.26A8.45,8.45,0,0,0,222.62,163.17Z"/><path class="cls-11" d="M249.73,77.19a3.73,3.73,0,0,0-.77-.58.78.78,0,0,0-.58,0,4.35,4.35,0,0,0-1,.52,1.55,1.55,0,0,0,.23,2.6,4,4,0,0,0,1,.36,1.36,1.36,0,0,0,.74-.11c.57-.25.62-.76.6-1.3,0-.34,0-.68-.06-1A.72.72,0,0,0,249.73,77.19Zm-22.88,6.29c.19.36.55.47,1.12.48a4.53,4.53,0,0,0,.92-.27c.34-.16.73-.3.84-.76a2.33,2.33,0,0,0-1.39-2.46,1.29,1.29,0,0,0-1.38.61c-.13.31-.34.59-.5.89a.55.55,0,0,0-.1.36A9.35,9.35,0,0,0,226.85,83.48Zm51.82.34c.67.79,1.39,1.55,2,2.39a9.34,9.34,0,0,0,1.8,2,2.43,2.43,0,0,1,1.06,1.29.36.36,0,0,0,.14.19,10.58,10.58,0,0,1,2.43,3.2c.69,1.07,1,2.29,1.61,3.37.27.48.47,1,.71,1.49a1,1,0,0,0,.22.33,4.81,4.81,0,0,1,1.16,1.6c.54,1.09,1.15,2.15,1.73,3.22a2.29,2.29,0,0,1,.19.57,11,11,0,0,0,.94,3,12.84,12.84,0,0,1,.72,2.25,1.69,1.69,0,0,0,.1.35,11,11,0,0,1,1,3.29c.12.6.26,1.2.39,1.8l-.15,0a18.53,18.53,0,0,0,.27,3,11,11,0,0,1,0,3.23c0,.52.1,1.05.12,1.58a17.07,17.07,0,0,1-.37,3.92c-.3,1.5-.51,3-.79,4.53-.16.89-.38,1.76-.56,2.65s-.29,1.71-.47,2.55c-.11.53-.31,1-.47,1.55s-.35,1.09-.48,1.64a5.63,5.63,0,0,1-.72,2,5.59,5.59,0,0,0-.66,1.82c-.4,1.36-.78,2.73-1.2,4.09a12.32,12.32,0,0,1-.6,1.37c-.27.61-.54,1.21-.82,1.81a1,1,0,0,1-.33.48c-.31.17-.39.45-.56.71a5.82,5.82,0,0,1-1,1.17,5.83,5.83,0,0,0-1,1.36c-.45.74-.93,1.46-1.45,2.16a19.58,19.58,0,0,1-1.49,1.72c-.62.65-1.29,1.24-1.92,1.87-.34.35-.59.79-1,1.1-.58.5-1.22.94-1.84,1.41a2.56,2.56,0,0,0-.41.32,6.14,6.14,0,0,1-1.92,1.26c-.88.47-1.71,1.05-2.6,1.51s-1.53.69-2.31,1a21.12,21.12,0,0,0-3,1.21,13.68,13.68,0,0,1-2.7,1,18.08,18.08,0,0,1-2.34.66c-1,.18-1.93.22-2.89.35a6.68,6.68,0,0,0-.94.24,8.39,8.39,0,0,1-2.67.46c-1.14,0-2.28,0-3.41-.08a36.61,36.61,0,0,1-4.32-.59A18.86,18.86,0,0,0,244,169a1,1,0,0,1-.36-.06,18.28,18.28,0,0,0-4.64-.77c-1-.12-2-.34-3-.53-.8-.15-1.6-.29-2.39-.47-1.07-.25-2.14-.51-3.2-.8s-2.33-.65-3.46-1.08a18.16,18.16,0,0,1-3.34-1.65,4.63,4.63,0,0,0-1-.47,8.45,8.45,0,0,1-3.25-2A27.48,27.48,0,0,1,217,158.9c-.87-1.09-2.2-1.56-3.13-2.53-.47-.49-.92-1-1.4-1.48-.67-.68-1.42-1.29-2-2a16.31,16.31,0,0,1-1.32-2,18.35,18.35,0,0,1-.93-1.62c-.28-.58-.48-1.21-.73-1.81-.13-.31-.29-.6-.41-.91-.25-.67-.49-1.35-.71-2a19,19,0,0,0-1.29-3.33,7.09,7.09,0,0,1-.42-1.43c-.06-.19-.14-.38-.19-.57-.29-1.33-.6-2.66-.86-4-.11-.54-.1-1.11-.19-1.65-.21-1.23-.47-2.44-.69-3.67a8,8,0,0,1,0-1.08c0-.77,0-1.55-.08-2.32s-.19-1.26-.25-1.89c0-.45,0-.92,0-1.37s0-1.08-.06-1.62c0-1,0-2.09,0-3.14,0-.69,0-1.37,0-2.06,0-.4-.1-.81-.09-1.21,0-.79.11-1.57.17-2.36s.1-1.32.19-2,.22-1.5.4-2.24c.25-1.11.57-2.2.84-3.3s.47-2.18.76-3.25a20.38,20.38,0,0,1,.81-2.31,22.38,22.38,0,0,1,1.28-2.88,16.54,16.54,0,0,0,1-2.38,6.16,6.16,0,0,1,1.15-2.12,4.41,4.41,0,0,0,.41-.69c.22-.34.43-.68.67-1s.42-.39.51-.62a7.35,7.35,0,0,1,1.18-1.93c.49-.63.84-1.37,1.3-2s1-1.42,1.6-2.1a32.53,32.53,0,0,1,2.22-2.49,11,11,0,0,1,3.07-2.19,8.56,8.56,0,0,0,.91-.58l1.18-.7a13.94,13.94,0,0,1,1.37-.8c.65-.3,1.35-.51,2-.77a4.89,4.89,0,0,0,.53-.29,1.49,1.49,0,0,1,.36-.19A15.87,15.87,0,0,0,229,74.86a18.68,18.68,0,0,1,3.27-1.22c1.09-.26,2.18-.59,3.25-.93.6-.19,1.15-.54,1.76-.72s1.5-.32,2.26-.47c.31-.06.63-.12.94-.2s.51-.18.78-.23c2.12-.37,4.24-.79,6.38-1.08,1.08-.15,2.19-.07,3.29-.12.3,0,.6-.1.9-.13a6,6,0,0,1,2.42.23,4.57,4.57,0,0,0,.69,0,13,13,0,0,1,2.31.37,5.93,5.93,0,0,0,1.57.39,4.18,4.18,0,0,1,1,.29c1.2.38,2.39.78,3.6,1.14.86.26,1.73.47,2.59.72a11.75,11.75,0,0,1,2.79,1.27c.1.06.26.07.33.15a.88.88,0,0,1,.27.45.51.51,0,0,1-.25.4c-1,.52-2,1-3,1.5-.15.07-.27.19-.41.27l-1.94,1c-1.1.56-2.2,1.13-3.32,1.65s-2,.84-3,1.28c-.47.2-.91.48-1.38.68-.69.29-1.4.53-2.08.82a5.57,5.57,0,0,0-.91.54,12.08,12.08,0,0,1-2.76,1.18c-1.09.41-2.19.82-3.29,1.19a9.13,9.13,0,0,1-1.43.34c-1,.18-2.09.33-3.13.48-.59.08-1.19.11-1.78.2a4.79,4.79,0,0,1-2.33-.21c-.39-.13-.7.09-.94.59-.16.34.05.48.28.7a7.68,7.68,0,0,0,4,1.9,1.49,1.49,0,0,1,.46.16,3.13,3.13,0,0,0,1.48.34c1,.07,2,.21,2.95.25,1.22.06,2.45.11,3.66.06,1.42-.05,2.84-.21,4.26-.33.83-.07,1.65-.19,2.48-.25,1.13-.08,2.26-.09,3.38-.18.92-.08,1.83-.24,2.74-.38.66-.1,1.31-.22,1.95-.38a13.39,13.39,0,0,0,2.14-.65c1.26-.55,2.49-1.17,3.7-1.81a30.27,30.27,0,0,0,2.82-1.67,13.75,13.75,0,0,0,1.43-1.32c.21-.19.44-.35.66-.53a5.61,5.61,0,0,0,.62-.51c.32-.34.68-.31.87.11a2.75,2.75,0,0,0,1.31,1.5Zm1.75,23.37c0-.12-.14-.28-.26-.38s-.25,0-.3.12a11.59,11.59,0,0,0-1,1.74c-.38,1-.67,2.06-1,3.1a22.15,22.15,0,0,1-2.68,5.33c-.07.12-.25.17-.41.28-.1-.32-.16-.51-.22-.7-.18-.64-.37-1.28-.53-1.92a5.07,5.07,0,0,0-1.64-2.9,23.91,23.91,0,0,0-1.91-1.52c-1-.68-2.13-1.29-3.21-1.91a10.45,10.45,0,0,0-2.82-1c-.67-.16-1.34-.3-2-.48a7.15,7.15,0,0,0-3.51-.11,21.54,21.54,0,0,0-2.68,1.05c-.57.22-1.15.39-1.72.63a9.11,9.11,0,0,0-2.61,1.77,11.28,11.28,0,0,0-1.05,1.18c-.19.24-.33.52-.52.76a6.54,6.54,0,0,0-1.44,2,.37.37,0,0,1-.3.21.67.67,0,0,1-.41-.26c-.24-.39-.44-.81-.65-1.23-.07-.14-.2-.29-.2-.43a1,1,0,0,0-.52-.86,1.34,1.34,0,0,1-.39-.35,5.89,5.89,0,0,0-1.62-1.62c-1-.7-1.9-1.44-2.85-2.16a6,6,0,0,0-2.44-.83c-.57-.12-1.15-.21-1.72-.32a14.12,14.12,0,0,0-1.7-.36,8.77,8.77,0,0,0-4,1c-.81.34-1.63.69-2.4,1.1a6,6,0,0,0-2,1.46c-.24.31-.55.56-.8.86a11.53,11.53,0,0,0-1.35,1.81,31.75,31.75,0,0,0-1.27,3.08c-.12.3-.15.63-.24.94-.32,1-.66,2.06-1,3.09a7.43,7.43,0,0,0-.16,1c-.09.56-.23,1.11-.28,1.67a7.09,7.09,0,0,0,.46,2.84.5.5,0,0,1-.35.7,1.11,1.11,0,0,1-.52,0,11.3,11.3,0,0,1-3-1.19,15,15,0,0,1-2-1.21,24.25,24.25,0,0,1-1.86-2,2.35,2.35,0,0,1-.64-1.33c0-.17-.09-.34-.11-.52a18.14,18.14,0,0,1-.26-1.8,17,17,0,0,1,0-2.2,6.07,6.07,0,0,1,.29-1.5c.17-.51,0-.86-.55-.88a1.29,1.29,0,0,0-1.1,1.13c-.1.71-.2,1.42-.27,2.13-.05.46,0,.93-.11,1.38a3.48,3.48,0,0,0,.27,2c.15.43.26.88.4,1.31a7.33,7.33,0,0,0,.58,1.64,6.75,6.75,0,0,0,1.28,1.41,6.51,6.51,0,0,0,2.49,1.73,1.11,1.11,0,0,1,.29.2,5.82,5.82,0,0,0,2.91,1.37c.4,0,.79.19,1.19.24a13.68,13.68,0,0,0,1.82.15c.77,0,1.54-.13,2.31-.14a3.27,3.27,0,0,1,2,.38c.27.18.5.39.41.73a3.59,3.59,0,0,1-.37,1,3.35,3.35,0,0,1-1.91,1.71,7.3,7.3,0,0,1-3.2.39,16.37,16.37,0,0,1-3-.57,15.26,15.26,0,0,1-3.8-1.53c-.95-.64-1.87-1.32-2.78-2a.56.56,0,0,0-.66-.09,2.21,2.21,0,0,0-.47.24.66.66,0,0,0-.25.37,1.16,1.16,0,0,0,.34,1.11c.4.37.66.93,1.09,1.24a20.42,20.42,0,0,0,4.61,2.31c1.2.37,2.44.63,3.67.93a1.88,1.88,0,0,0,.45,0c1.09,0,2.18,0,3.26,0a.75.75,0,0,1,.75.56,11.31,11.31,0,0,0,.78,1.69,14.62,14.62,0,0,0,1,1.52c.59.8,1.2,1.59,1.82,2.37.22.27.58.44.76.74a6,6,0,0,0,1.69,1.49c.84.68,1.91,1,2.72,1.75a11.27,11.27,0,0,0,2.21,1.36c.17.1.37.16.55.26.47.25.92.52,1.4.75.75.35,1.51.67,2.27,1a13.88,13.88,0,0,0,1.58.64c1.54.45,3.1.86,4.66,1.26a16.9,16.9,0,0,0,1.87.35c.28,0,.57-.06.85,0a10.92,10.92,0,0,1,2.92.5.88.88,0,0,0,1-.24,2,2,0,0,0,.29-2.51,2.66,2.66,0,0,1-.19-2.71c.12-.23.22-.47.37-.68a3.24,3.24,0,0,1,.51-.66,2.47,2.47,0,0,1,.64-.35c.68-.31,1.34-.65,2-.91,1-.39,2.12-.62,3.1-1.09a36.83,36.83,0,0,1,3.82-1.36c1-.35,2-.62,3-1a9.87,9.87,0,0,0,3-1.86c.47-.44,1.11-.69,1.42-1.32a2.47,2.47,0,0,1,.54-.75,4.14,4.14,0,0,0,.85-1.35,8.92,8.92,0,0,0,1-3.46,1.44,1.44,0,0,1,1.14-1.37,1.18,1.18,0,0,0,.48-.3c.42-.4.81-.84,1.23-1.24.71-.67,1.49-1.27,2.15-2s1.51-1.09,1.71-2.08c0-.07.09-.13.15-.19.31-.32.65-.61.94-.94a5,5,0,0,0,1.24-2.94.78.78,0,0,0-.29-.58c-.24-.18-.43,0-.54.25a6.84,6.84,0,0,0-.29.67,3.4,3.4,0,0,1-.34.82c-.57.71-.93,1.62-1.8,2.07-.1.05-.17.17-.25.27-.31.36-.6.74-.93,1.07a24.42,24.42,0,0,1-3.41,3.06c-.45.3-.82.73-1.29,1a3,3,0,0,1-3.79-.82,1.41,1.41,0,0,1,0-1.93c.32-.4.65-.78,1-1.15,1.2-1.32,2.59-2.46,3.67-3.89a22.08,22.08,0,0,0,1.51-1.87,18.66,18.66,0,0,0,2-3.93c.22-.71.46-1.42.65-2.14s.39-1.63.54-2.46A15.15,15.15,0,0,0,280.43,107.19Z"/><path d="M228.31,125.84a2.26,2.26,0,0,1,1.84,1.73,4.53,4.53,0,0,1-.5,2.67,18.57,18.57,0,0,1-1.36,2.11.93.93,0,0,0,0,1.26,3.78,3.78,0,0,1,1,1.59c0,.14.2.25.31.37.51.6,1,1.17,1.5,1.79a6.33,6.33,0,0,0,1.8,2c.33.19.6.48.91.7.94.67,1.86,1.36,2.83,2,.69.45,1.45.79,2.18,1.18s1.57.86,2.38,1.24c.56.26,1.17.42,1.76.65s1.4.6,2.12.82c1.44.45,2.89.86,4.34,1.28a3.63,3.63,0,0,0,2,.13c.31-.08.53-.21.44-.59a6.79,6.79,0,0,1-.15-.92,4.62,4.62,0,0,1,0-.93,2.28,2.28,0,0,1,.82-1.28,15.91,15.91,0,0,0,1.35-1.29,4,4,0,0,1,1.76-1.31c1.51-.6,3-1.32,4.48-1.94,1.05-.43,2.14-.77,3.21-1.17s2-.71,2.91-1.13c.78-.34,1.51-.79,2.29-1.14a12.91,12.91,0,0,0,3.21-2.15,4.55,4.55,0,0,0,1.52-3.51.57.57,0,0,0-.2-.44,4.39,4.39,0,0,0-1-.29c-.78-.14-1.61-.16-1.93-1.1a.58.58,0,0,0-.12-.16,3.21,3.21,0,0,1-1-2.73,4.29,4.29,0,0,1,1.19-2.3c.14-.16.28-.33.41-.5a5.76,5.76,0,0,1,.51-.68c.44-.42.92-.8,1.38-1.2a.64.64,0,0,0,.15-.84,3,3,0,0,1-.39-1.3,8.59,8.59,0,0,0-.26-2.71,6.43,6.43,0,0,0-1.92-3.15,8.51,8.51,0,0,0-3-1.76c-.38-.15-.71-.39-1.09-.54-.81-.31-1.62-.61-2.45-.87s-1.58-.46-2.38-.67a2.57,2.57,0,0,0-.68,0,7.42,7.42,0,0,0-.77.05A7.24,7.24,0,0,0,258,109a19.37,19.37,0,0,0-2.95,1.34,27,27,0,0,0-2.53,1.84,1,1,0,0,0-.3.38,18.61,18.61,0,0,0-1.63,3.37c-.12.45-.45.84-.56,1.28a5.6,5.6,0,0,0-.12,1.52A1.3,1.3,0,0,1,249,120a11.51,11.51,0,0,1-1.52.08c-.56,0-.81-.21-.86-.78s-.07-.92-.12-1.38-.11-.83-.16-1.24a4.78,4.78,0,0,0-2-4.38c-.62-.52-1.26-1-1.91-1.52a6.78,6.78,0,0,0-2.51-1.46c-.71-.16-1.42-.33-2.14-.47-.51-.11-1-.21-1.53-.26a8.9,8.9,0,0,0-4.13.62q-1.33.49-2.63,1a2.86,2.86,0,0,0-1.38,1c-.72,1.14-1.46,2.28-2.15,3.45a3.94,3.94,0,0,0-.5,1.28c-.26,1.49-.47,3-.67,4.48a12.39,12.39,0,0,0-.19,2.21,11.52,11.52,0,0,0,.4,2,1,1,0,0,0,.89.82,12.79,12.79,0,0,1,1.32.15C227.65,125.7,228,125.81,228.31,125.84Zm51.86-19c.12.09.26.25.26.38a15.15,15.15,0,0,1-.18,1.74c-.15.82-.33,1.64-.54,2.46s-.43,1.43-.65,2.14a18.66,18.66,0,0,1-2,3.93,22.08,22.08,0,0,1-1.51,1.87c-1.08,1.43-2.47,2.57-3.67,3.89-.34.37-.68.76-1,1.15a1.41,1.41,0,0,0,0,1.93,3,3,0,0,0,3.79.82c.47-.26.84-.69,1.29-1a24.42,24.42,0,0,0,3.41-3.06c.34-.33.62-.71.93-1.07.08-.09.15-.21.25-.27.87-.45,1.23-1.36,1.8-2.07a3.4,3.4,0,0,0,.34-.82,6.84,6.84,0,0,1,.29-.67c.11-.22.3-.43.54-.25a.78.78,0,0,1,.29.58,5,5,0,0,1-1.24,2.94c-.29.33-.63.63-.94.94-.06.06-.14.12-.15.19-.2,1-1.11,1.42-1.71,2.08s-1.44,1.32-2.15,2c-.42.4-.81.83-1.23,1.24a1.18,1.18,0,0,1-.48.3,1.44,1.44,0,0,0-1.14,1.37,8.92,8.92,0,0,1-1,3.46,4.14,4.14,0,0,1-.85,1.35,2.47,2.47,0,0,0-.54.75c-.31.62-.95.88-1.42,1.32a9.87,9.87,0,0,1-3,1.86c-1,.4-2,.67-3,1a36.83,36.83,0,0,0-3.82,1.36c-1,.47-2.07.71-3.1,1.09-.7.26-1.36.6-2,.91a2.47,2.47,0,0,0-.64.35,3.24,3.24,0,0,0-.51.66c-.14.22-.25.45-.37.68a2.66,2.66,0,0,0,.19,2.71,2,2,0,0,1-.29,2.51.88.88,0,0,1-1,.24,10.92,10.92,0,0,0-2.92-.5c-.28,0-.57.06-.85,0a16.9,16.9,0,0,1-1.87-.35c-1.56-.4-3.12-.81-4.66-1.26a13.88,13.88,0,0,1-1.58-.64c-.76-.32-1.53-.64-2.27-1-.48-.22-.93-.5-1.4-.75-.18-.09-.38-.15-.55-.26a11.27,11.27,0,0,1-2.21-1.36c-.81-.78-1.88-1.08-2.72-1.75a6,6,0,0,1-1.69-1.49c-.17-.29-.53-.46-.76-.74-.62-.78-1.23-1.57-1.82-2.37a14.62,14.62,0,0,1-1-1.52,11.31,11.31,0,0,1-.78-1.69.75.75,0,0,0-.75-.56c-1.09,0-2.18,0-3.26,0a1.88,1.88,0,0,1-.45,0c-1.22-.3-2.46-.56-3.67-.93a20.42,20.42,0,0,1-4.61-2.31c-.43-.32-.69-.87-1.09-1.24a1.16,1.16,0,0,1-.34-1.11.66.66,0,0,1,.25-.37,2.21,2.21,0,0,1,.47-.24.56.56,0,0,1,.66.09c.91.7,1.84,1.38,2.78,2a15.26,15.26,0,0,0,3.8,1.53,16.37,16.37,0,0,0,3,.57,7.3,7.3,0,0,0,3.2-.39,3.35,3.35,0,0,0,1.91-1.71,3.59,3.59,0,0,0,.37-1c.08-.34-.15-.55-.41-.73a3.27,3.27,0,0,0-2-.38c-.77,0-1.54.14-2.31.14a13.68,13.68,0,0,1-1.82-.15c-.4-.05-.79-.21-1.19-.24a5.82,5.82,0,0,1-2.91-1.37,1.11,1.11,0,0,0-.29-.2,6.51,6.51,0,0,1-2.49-1.73,6.75,6.75,0,0,1-1.28-1.41,7.33,7.33,0,0,1-.58-1.64c-.14-.44-.25-.88-.4-1.31a3.48,3.48,0,0,1-.27-2c.09-.45.06-.92.11-1.38.08-.71.18-1.42.27-2.13a1.29,1.29,0,0,1,1.1-1.13c.55,0,.72.37.55.88a6.07,6.07,0,0,0-.29,1.5,17,17,0,0,0,0,2.2,18.14,18.14,0,0,0,.26,1.8c0,.17.09.34.11.52a2.35,2.35,0,0,0,.64,1.33,24.25,24.25,0,0,0,1.86,2,15,15,0,0,0,2,1.21,11.3,11.3,0,0,0,3,1.19,1.11,1.11,0,0,0,.52,0,.5.5,0,0,0,.35-.7,7.09,7.09,0,0,1-.46-2.84c.06-.56.19-1.11.28-1.67a7.43,7.43,0,0,1,.16-1c.31-1,.65-2.06,1-3.09.1-.31.13-.64.24-.94a31.75,31.75,0,0,1,1.27-3.08,11.53,11.53,0,0,1,1.35-1.81c.25-.31.56-.56.8-.86a6,6,0,0,1,2-1.46c.77-.41,1.59-.76,2.4-1.1a8.77,8.77,0,0,1,4-1,14.12,14.12,0,0,1,1.7.36c.57.12,1.15.2,1.72.32a6,6,0,0,1,2.44.83c1,.71,1.89,1.45,2.85,2.16a5.89,5.89,0,0,1,1.62,1.62,1.34,1.34,0,0,0,.39.35,1,1,0,0,1,.52.86c0,.14.13.29.2.43.21.41.41.83.65,1.23a.67.67,0,0,0,.41.26.37.37,0,0,0,.3-.21,6.54,6.54,0,0,1,1.44-2c.19-.24.33-.53.52-.76a11.28,11.28,0,0,1,1.05-1.18,9.11,9.11,0,0,1,2.61-1.77c.56-.24,1.15-.41,1.72-.63a21.54,21.54,0,0,1,2.68-1.05,7.15,7.15,0,0,1,3.51.11c.67.18,1.34.32,2,.48a10.45,10.45,0,0,1,2.82,1c1.08.62,2.17,1.23,3.21,1.91a23.91,23.91,0,0,1,1.91,1.52,5.07,5.07,0,0,1,1.64,2.9c.16.64.35,1.28.53,1.92.06.19.12.39.22.7.16-.1.33-.16.41-.28a22.15,22.15,0,0,0,2.68-5.33c.3-1,.59-2.09,1-3.1a11.59,11.59,0,0,1,1-1.74C279.92,106.85,280.13,106.78,280.17,106.81Z"/><path class="cls-2" d="M196.9,64.66c-.31,13.65-8.17,24.44-20.18,27.59a35.75,35.75,0,0,1-19.5-.21c-8.33-2.45-14.36-10.91-15.94-20.17-2.07-12.15,10.44-28.24,23.41-28.45,5.33-.09,10.65-.59,16-.66a11.57,11.57,0,0,1,8,3.15C195,51.41,197.1,56.24,196.9,64.66ZM175.09,46c-.89,0-1.79-.09-2.67,0-5.29.27-6.31,1.05-8.11,6-4.35,12.08-1.57,22.89,5.91,32.81,3,4,6.3,4.53,10.76,2.21,6.39-3.31,9.62-9,11.86-15.47C197.42,58.34,189,46.22,175.09,46ZM170,89.41c0-.29,0-.4,0-.46a3.61,3.61,0,0,0-.43-.65C160,77.93,157.41,65.91,161,52.39c.36-1.37,1.78-3.42.56-4.1-1.44-.8-3.17.89-4.64,1.83a2.22,2.22,0,0,0-.39.36A79.17,79.17,0,0,0,147,62a13.1,13.1,0,0,0-2,9.94C147.5,84.78,156.49,90.23,170,89.41Z"/><path class="cls-3" d="M175.09,46c13.89.24,22.33,12.36,17.75,25.55C190.6,78,187.37,83.69,181,87c-4.46,2.31-7.77,1.76-10.76-2.21C162.74,74.86,160,64.05,164.31,52c1.79-5,2.82-5.76,8.11-6C173.31,45.9,174.2,46,175.09,46Z"/><path class="cls-7" d="M170,89.41c-13.51.82-22.5-4.62-25-17.49A13.1,13.1,0,0,1,147,62a79.17,79.17,0,0,1,9.55-11.51,2.22,2.22,0,0,1,.39-.36c1.47-.93,3.2-2.63,4.64-1.83,1.22.68-.19,2.73-.56,4.1-3.58,13.52-1,25.54,8.55,35.9a3.61,3.61,0,0,1,.43.65C170,89,170,89.11,170,89.41Z"/><path class="cls-2" d="M153.55,109.63c1.47.54,1.94-.38,2.58-.93,9.71-8.32,24.5-9.61,35.76-3.4,6.55,3.61,8.92,9.32,9.23,16.32a51.33,51.33,0,0,1-3,18.87,7.69,7.69,0,0,1-1.67,3C188,152,178.3,156.74,165.95,153.88c-5.69-1.32-9.66-4.72-12.43-9.7a46.73,46.73,0,0,1-5.44-15.78c-.43-2.83.48-5.46,1.15-8.13.38-1.53.87-3,1.49-5.19-4.11,3-7.8,5.42-12.15,6.48-9.46,2.31-18.69,2-26.78-4-8.41-6.2-12.88-20.36-9.67-29,2-5.46,6-9.49,10.4-13,5.08-4,10.09-8.36,17-8.89s13.08,1.1,18.14,6c3.45,3.36,6.81,6.77,8.81,11.31a22.22,22.22,0,0,1,.83,16.39A55.69,55.69,0,0,1,153.55,109.63Zm44.36,14.75c.4-5.46-.34-10.66-5-14.19-12.58-9.47-30.64-7.45-39.54,7.47-1.48,2.49-2.3,5.19-.89,7.87,2.94,5.58,6.86,10.16,13.35,11.84A79.36,79.36,0,0,0,179,139.42a23.34,23.34,0,0,0,14.5-3.58,8.37,8.37,0,0,0,4.37-6.92C197.91,127.41,197.89,125.89,197.92,124.38ZM133.9,70c-11.12-.36-26.15,10.75-29,21a3.68,3.68,0,0,0,1.54,4.43c2.29,1.54,4.47,3.26,6.83,4.66,6,3.58,12.3,5.87,19.4,3.33.66-.24,1.38-.32,2.07-.5,6.41-1.65,12.27-4.24,16.48-9.65,2.34-3,2.58-5.95.67-9.16a56.5,56.5,0,0,0-6.44-8.82A16.39,16.39,0,0,0,133.9,70ZM105.35,98.84c1.66,6.47,4.28,12.07,9.55,16.08a12.8,12.8,0,0,0,6.85,2.79c6,.39,12.12.39,18-1.21,7.17-1.94,12.82-8.93,13-15.62.06-2.29-.47-2.61-2.51-1.48-5.29,2.93-10.58,5.85-16.45,7.56-9,2.64-17,1.27-23.88-5.49A11.59,11.59,0,0,0,105.35,98.84Zm47.1,33.29c-.51,1.86.19,3.16.7,4.43a37.68,37.68,0,0,0,6.68,10.56,11.45,11.45,0,0,0,7.2,3.68,27.18,27.18,0,0,0,8.49.16c7-1,12.42-4.41,17-10.64C177.49,144.12,163.81,143.77,152.45,132.13Z"/><path class="cls-3" d="M133.9,70a16.39,16.39,0,0,1,11.52,5.34,56.5,56.5,0,0,1,6.44,8.82c1.91,3.21,1.67,6.15-.67,9.16-4.21,5.41-10.07,8-16.48,9.65-.69.18-1.41.26-2.07.5-7.1,2.54-13.38.25-19.4-3.33-2.36-1.41-4.55-3.12-6.83-4.66a3.68,3.68,0,0,1-1.54-4.43C107.75,80.77,122.77,69.66,133.9,70Z"/><path class="cls-12" d="M105.35,98.84a11.59,11.59,0,0,1,4.58,2.63c6.84,6.76,14.85,8.13,23.88,5.49,5.87-1.72,11.17-4.63,16.45-7.56,2-1.13,2.57-.81,2.51,1.48-.18,6.68-5.83,13.68-13,15.62-5.9,1.6-12,1.6-18,1.21a12.8,12.8,0,0,1-6.85-2.79C109.63,110.91,107,105.31,105.35,98.84Z"/><path class="cls-3" d="M197.92,124.38c0,1.51,0,3-.1,4.54a8.37,8.37,0,0,1-4.37,6.92,23.34,23.34,0,0,1-14.5,3.58,79.36,79.36,0,0,1-13.16-2.05c-6.49-1.68-10.4-6.27-13.35-11.84-1.41-2.68-.6-5.38.89-7.87,8.9-14.91,27-16.94,39.54-7.47C197.57,113.72,198.32,118.92,197.92,124.38Z"/><path class="cls-13" d="M152.45,132.13c11.36,11.64,25,12,40.07,8.19-4.57,6.23-10,9.61-17,10.64a27.18,27.18,0,0,1-8.49-.16,11.45,11.45,0,0,1-7.2-3.68,37.68,37.68,0,0,1-6.68-10.56C152.65,135.29,151.95,134,152.45,132.13Z"/></svg>