<svg id="圖層_1" data-name="圖層 1" xmlns="http://www.w3.org/2000/svg" xmlns:xlink="http://www.w3.org/1999/xlink" viewBox="0 0 245.99 250.83"><defs><style>.cls-1,.cls-2,.cls-3{fill:none;}.cls-1{clip-rule:evenodd;}.cls-3{stroke:#fff;stroke-miterlimit:10;stroke-width:7px;}.cls-4{clip-path:url(#clip-path);}.cls-5{fill:#090707;}.cls-10,.cls-11,.cls-12,.cls-13,.cls-14,.cls-15,.cls-16,.cls-17,.cls-5,.cls-6,.cls-7,.cls-8,.cls-9{fill-rule:evenodd;}.cls-6{fill:#fefefe;}.cls-7{fill:#c9912c;}.cls-8{fill:#dfb835;}.cls-9{fill:#b2475e;}.cls-10{fill:#c8912c;}.cls-11{fill:#fefdfe;}.cls-12{fill:#c5912e;}.cls-13{fill:#c25540;}.cls-14{fill:#c25641;}.cls-15{fill:#6c5432;}.cls-16{fill:#d6b23d;}.cls-17{fill:#0d0e0d;}.cls-18{clip-path:url(#clip-path-2);}</style><clipPath id="clip-path"><polygon class="cls-1" points="81.72 12.54 78.22 71.54 160.22 58.54 157.72 6.54 81.72 12.54"/></clipPath><clipPath id="clip-path-2"><circle class="cls-2" cx="130.58" cy="140.79" r="98.71"/></clipPath></defs><title>GraphicE</title><circle class="cls-3" cx="131.83" cy="143.04" r="100.46"/><g class="cls-4"><path class="cls-5" d="M105,29.3c.14-3.79.78-7.21,3.18-10.14,2.19-2.68,4.93-2.43,6.5.71,1,2,1.82,4.1,2.78,6.28,1.32-2.22,1.45-4.83,3.48-6.56,2.37-2,3.46-1.92,4.72,1,1.49,3.43,1.81,7.14,2.32,10.79a16.56,16.56,0,0,1,.1,6.53,1.53,1.53,0,0,0,.92,1.68,1.94,1.94,0,0,0,.55.27c6.82,1.35,10.68,6.55,14.77,11.41,2.29,2.73,4.44,5.57,6.6,8.4A3.67,3.67,0,0,0,155,61.15c8.27-1.48,16.55-2.89,24.72-4.85A2.51,2.51,0,0,1,183,58a10.31,10.31,0,0,1,.23,8.18c-1.75,4.17-3.23,8.49-7.59,11.24a40.53,40.53,0,0,1,4.09,2A58.93,58.93,0,0,1,194,91.6c.9,1.1,1.68,1.22,2.76.4A22.24,22.24,0,0,1,204.51,88c5.12-1.31,9.36,1.95,9.06,7.15a21.94,21.94,0,0,1-4.8,12.85,1.82,1.82,0,0,0,0,2.41,76.23,76.23,0,0,1,9.21,25.77,71.1,71.1,0,0,1,.52,23.51,54.72,54.72,0,0,1-2.71,11.72c-1.77,4.51-2.75,9.28-4.82,13.73A58.42,58.42,0,0,1,200.17,201c-2.22,2.32-4.29,4.81-6.3,7.28-3.32,4.09-7.71,6.32-12.29,8.29-2.18.94-3.85,2.82-6.35,3.13-.82.1-1,1-1.22,1.76-.81,2.75-1.7,5.49-2.45,8.26a31.31,31.31,0,0,1-4.4,8.77c-1.12,1.71-1,2.28.92,2.69,3.27.71,6.44,1.82,9.8,2.19.94.1,2.33.27,2.32,1.57s-1.36,1.52-2.46,1.62c-4.52.42-8.79-1.09-13.17-1.79-1-.16-2-.43-3-.67-2.41-.57-3.28-2.52-1.93-4.58,3-4.65,3.36-10,4.19-15.27.24-1.53-.58-1.86-1.8-1.47-9.12,2.92-18.52,3.16-28,3.31a131,131,0,0,1-14.32-.5c-2.33-.22-2.7.18-2.42,2.52.43,3.59,1.13,7.15,1.25,10.79A3.18,3.18,0,0,1,117,242a13.32,13.32,0,0,1-7.67,2.54c-1.47,0-2.71-.54-3-2-.28-1.61,1.29-1.74,2.35-2,3.79-1,3.9-1,1.69-4.29-2.58-3.79-3.47-8.15-4.55-12.45a3,3,0,0,0-2.21-2.52c-4.17-1.45-8.52-2.3-12.49-4.54a121.66,121.66,0,0,1-10.71-7.18,118.23,118.23,0,0,1-11.53-9.81c-6-5.55-10.9-11.91-13.84-19.79a63.73,63.73,0,0,1-4-26.38A115.93,115.93,0,0,1,60.34,115a55.67,55.67,0,0,1,10.06-15.4c3.47-3.86,6.53-8.09,10.23-11.77a6.7,6.7,0,0,1,3-2.07c1-.27,1.59-.86,1.31-2.29a42.68,42.68,0,0,1,1.81-23c1.5-4.17,2.89-8.43,6.15-11.73a3.21,3.21,0,0,0,.63-3.42C92.23,41.09,91,36.82,90,32.49a31.57,31.57,0,0,1-.29-12c.42-2.57,2.27-3.66,4.47-4.25a4.42,4.42,0,0,1,5,2c1.6,2.28,3.26,4.52,4,7.33A20.61,20.61,0,0,0,105,29.3Zm41,104.16a22,22,0,0,0-7.33-.37c-2.72-.2-5.47-.1-8-1.21a1.09,1.09,0,0,0-1.29.33c-2.94,2.71-5.65,5.52-6.7,9.6-1.5,5.81.54,10.88,3,15.93a12,12,0,0,0,7.66,6.59,38.91,38.91,0,0,0,12.87,2.08c6.38-.21,11.46-2.8,14.87-8.32,4.91-8,2.64-16.4-2.37-23.11-.73-1-1.76-2.45-3.24-2.09C152.25,133.66,149.11,133.22,146,133.47ZM93.61,190.6C90.82,190,88.45,189.3,86,189a32.44,32.44,0,0,1-21.21-11.71c-.53-.63-1.66-1.43-.94-2.23s1.52.32,2.26.7c3.4,1.77,6.1,4.66,9.65,6.14C86.36,186.3,97.31,188,108.69,186a15.1,15.1,0,0,0,9.19-5.73,1.94,1.94,0,0,0,.26-2.29,1.42,1.42,0,0,0-1.71-.81c-2.61.87-5.29.17-7.92.5a65.24,65.24,0,0,1-7.58.46c-10.68.08-20.83-2.48-30.72-6.29a17.4,17.4,0,0,1-4.13-2.24c-.69-.51-1.59-1.11-1.09-2.14s1.5-1,2.5-.88a4.37,4.37,0,0,1,2.11,1.2,12.14,12.14,0,0,0,4.23,2.45c5.88,1.67,11.53,4.15,17.84,4.18,4.64,0,9.26.92,13.94.53a7.61,7.61,0,0,0,5.24-2.38,84.73,84.73,0,0,1,10-9.42c2.41-1.82,2.34-1.78.92-4.41-4.19-7.79-4.83-15.6-.05-23.44a22.08,22.08,0,0,1,3.87-5c1-.93.9-1.57.11-2.5-.44-.53-1-1-.83-2,.72-3.75,3.14-5.63,6.87-4.66,7.67,2,14.92-.16,21.81-2.75a68.36,68.36,0,0,0,17.51-9.73,33.48,33.48,0,0,1,4.52-3.19c5.39-2.85,10.22-6.6,15.46-9.67.81-.47,1-.95.18-1.7-5.53-5-10.38-10.75-17.85-13.15-1.32-.42-2.06-.48-3.07.31-3.3,2.55-6.56,5.1-10.5,6.71-9.57,3.9-19.46,5.67-29.7,4.17-4.46-.65-9-1.53-12.8-4.44a2.82,2.82,0,0,0-2.49-.61c-1.39.33-2.82.53-4.21.87a22.39,22.39,0,0,1-7.91.94c-3.8-.45-7.59-1.08-11.4-1.46-1.59-.16-3.47-1-4.79.2-2.34,2.07-5.17,3.62-6.86,6.42-2.2,3.66-5.23,6.69-8.07,9.81a43.31,43.31,0,0,0-7.69,12.25,112,112,0,0,0-7.78,27.11c-1.41,9.14-2.62,18.35-.1,27.5,1.74,6.31,3.27,12.78,7.68,17.92,11.34,13.23,24.33,24,41.27,29.68,8.23,2.78,16.33,4.24,24.87,3.5,4-.35,8.07,0,12.07-.29a182.78,182.78,0,0,0,23.68-3.84c8.33-1.8,16.27-4.67,23.12-10,4.72-3.66,7.92-8.69,11.75-13.15a37.88,37.88,0,0,0,5.45-8.42c6.75-14.29,10.3-29.19,8.52-45.12a71.16,71.16,0,0,0-9.93-29.25c-2.12.84-2.57,3.15-4.2,4.26-5.9,4-11.43,8.54-18.38,10.88-6.51,2.19-13.24,3.32-19.9,4.79-1,.23-1.46.47-.6,1.35,3.69,3.77,4.9,8.4,5.5,13.55,1.4,12.07-8,23.2-20.15,23.58a46.55,46.55,0,0,1-14.71-2.34,3.1,3.1,0,0,0-3.34.75,42.67,42.67,0,0,1-7,5.67c-.75.45-.82.87-.35,1.64a4.81,4.81,0,0,1,0,4.72c-.87,1.93-2.43,3.08-4.09,4.36-3,2.3-5.88,4.41-9.72,4.85a1.62,1.62,0,0,0-1.08.51c-1.24,1.94-3.31,3.06-4.72,4.84-2.45,3.08-5.57,5.47-8.55,8-1.56,1.31-5,.63-6.89-1.34-1.58-1.64-.6-3.17.48-4.56A40.32,40.32,0,0,1,93.61,190.6Zm8.84-120.17c.3,5,2.19,9,4.23,12.94.83,1.61,1.79,2.16,3.6,1.6,6.51-2,13.11-3.71,19.31-6.7a61.71,61.71,0,0,0,9.19-5.35A2.82,2.82,0,0,0,140,69.56c-.93-3.71-3.16-6.7-5.31-9.65-5.69-7.8-12.14-14.67-22.34-16.44-1.43-.25-2,.08-2.47,1.3a53.51,53.51,0,0,1-2.58,6C103.89,57.06,104.08,64.15,102.45,70.43Zm46,58.86c2,.22,4.91-.45,7.8-.94,8.28-1.39,16.69-2.22,24.58-5.34,5.72-2.26,11.52-4.43,16.13-8.74,2.25-2.11,4.45-4.26,6.73-6.33a18.58,18.58,0,0,0,6.19-12.34c.3-3-1.15-4.6-4.15-4.34a13.62,13.62,0,0,0-6.19,2.57c-9,5.89-18,11.67-26.85,17.82a77.7,77.7,0,0,1-26.55,12.4,32.26,32.26,0,0,1-10.38,1c-1.5-.13-3-.19-4.5-.29-.86-.06-1.73,0-2,.94s.4,1.48,1.17,1.87c1.79.9,3.47,2.35,5.68.94a2.37,2.37,0,0,1,1.41,0A101.48,101.48,0,0,0,148.46,129.3ZM119.72,86a1.83,1.83,0,0,0,1.35.86c4.2.54,8.38,1.24,12.6,1.57,2.92.23,5.84,1,8.79.37C153.19,86.48,163.38,83,172,75.84c3.45-2.87,6.51-5.89,7.61-10.38.42-1.72,1.05-3.71-.39-5.07s-3.14-.38-4.65.08a107.64,107.64,0,0,1-13,2.93c-4.64.81-9.4,1.25-11.93,6.14a3.13,3.13,0,0,1-.87.86,75,75,0,0,1-13.23,9C130.53,81.93,125.51,84.55,119.72,86Zm-16.41-1.26c-.73-1.86-1.36-3.44-2-5-1.58-4.14-2.57-8.36-1.85-12.83,1.08-6.77,2.61-13.4,5.71-19.58.63-1.26,1.18-2.56,1.75-3.81-.46-.34-.75-.12-1.07,0C99,45.61,94.81,50.87,91.79,56.82c-3.2,6.31-5,13.19-3.63,20.45.37,1.93,0,4.23,2.37,5.34A22.22,22.22,0,0,0,103.32,84.71Zm17.1-43.19a7.28,7.28,0,0,0,2.65,2.42c8.22,5.68,14.84,12.78,19,21.93,1.82,4,1.37,3.94,5.2,1.52,2.05-1.3,2.36-2.54.91-4.4-3.21-4.09-6-8.46-9.26-12.55C134.19,44.47,127.73,42.85,120.42,41.52ZM104.94,38.6c-.31-1.19-.65-2.44-1-3.7-.82-3.37-3.37-5.94-4.27-9.28a8.55,8.55,0,0,0-3.85-4.88,1.63,1.63,0,0,0-2.67,1c-.27,2.16-.91,4.35-.48,6.53a140.87,140.87,0,0,0,3.87,14c.35,1.13,1,1.59,2.16.95q2.51-1.39,5.05-2.72A2,2,0,0,0,104.94,38.6Zm4.17-6.81c0,.6-.09,1.35-.14,2.1-.23,3.78-.23,3.76,3.58,3.28.91-.12,1.93-.07,1.86-1.35-.22-4.08,0-8.25-2.07-12-.37-.66-.57-1.77-1.66-1.51s-1.08,1.28-1.2,2.16A45.62,45.62,0,0,0,109.11,31.8Zm13.29-8a19,19,0,0,0-3,7.41c-1.09,5.3-1,5.27,4.29,6.76,1.25.35,1.52.1,1.58-1.13.15-3.15-1-6-1.64-9C123.39,26.53,123.44,25.11,122.4,23.83ZM103.22,190.56c-2.78-.43-5.59-.87-7.55,1.39-1.58,1.81-3.31,3.45-4.92,5.22a7.68,7.68,0,0,0-1,1.28c-.26.45-.68,1-.14,1.48a1.45,1.45,0,0,0,1.7.22c1.31-.56,2.12-1.72,3.25-2.48C97.67,195.61,99.84,192.39,103.22,190.56ZM114,174.06c1.81,0,3.34.41,4.62-.71,2.32-2,4.61-4.08,7-6.06,1.13-.95,1.33-1.64.1-2.74s-1.74-.6-2.54.47a40.16,40.16,0,0,1-3.12,3.27C118.24,170.22,115.88,171.6,114,174.06Zm.92,63.46c-.32-3.43-.68-6.87-1-10.3-.22-2.6-.8-3.16-3.41-3.29-1,0-1.21.18-.9,1.13A68.34,68.34,0,0,0,115,237.52Zm51.26-5.83c.49,0,.6,0,.62,0,1.84-3.2,2.46-6.86,3.85-10.23.17-.41-.09-.69-.5-.63-1.08.16-2.35.25-2.59,1.59C167.06,225.46,166.67,228.54,166.21,231.69Z"/><path class="cls-6" d="M93.61,190.6a40.32,40.32,0,0,0-6.86,6.62c-1.08,1.39-2.05,2.92-.48,4.56,1.89,2,5.33,2.65,6.89,1.34,3-2.51,6.11-4.9,8.55-8,1.41-1.78,3.47-2.9,4.72-4.84a1.62,1.62,0,0,1,1.08-.51c3.84-.44,6.75-2.55,9.72-4.85,1.65-1.28,3.22-2.42,4.09-4.36a4.81,4.81,0,0,0,0-4.72c-.47-.77-.4-1.19.35-1.64a42.67,42.67,0,0,0,7-5.67,3.1,3.1,0,0,1,3.34-.75,46.55,46.55,0,0,0,14.71,2.34c12.14-.38,21.55-11.51,20.15-23.58-.6-5.15-1.81-9.78-5.5-13.55-.86-.88-.43-1.12.6-1.35,6.66-1.47,13.39-2.6,19.9-4.79,7-2.34,12.48-6.89,18.38-10.88,1.63-1.1,2.09-3.42,4.2-4.26A71.16,71.16,0,0,1,214.45,141c1.78,15.93-1.77,30.83-8.52,45.12a37.88,37.88,0,0,1-5.45,8.42c-3.82,4.46-7,9.5-11.75,13.15-6.85,5.3-14.79,8.16-23.12,10a182.78,182.78,0,0,1-23.68,3.84c-4,.33-8-.06-12.07.29-8.54.74-16.64-.73-24.87-3.5-16.93-5.71-29.93-16.45-41.27-29.68C59.32,183.47,57.79,177,56,170.69c-2.53-9.15-1.32-18.35.1-27.5a112,112,0,0,1,7.78-27.11,43.31,43.31,0,0,1,7.69-12.25c2.84-3.12,5.87-6.16,8.07-9.81,1.69-2.8,4.52-4.35,6.86-6.42,1.32-1.16,3.2-.36,4.79-.2,3.81.38,7.59,1,11.4,1.46a22.39,22.39,0,0,0,7.91-.94c1.39-.34,2.82-.54,4.21-.87a2.82,2.82,0,0,1,2.49.61c3.77,2.91,8.34,3.78,12.8,4.44,10.24,1.5,20.13-.27,29.7-4.17,3.95-1.61,7.2-4.17,10.5-6.71,1-.78,1.76-.73,3.07-.31,7.47,2.4,12.32,8.2,17.85,13.15.85.76.63,1.23-.18,1.7-5.25,3.07-10.07,6.82-15.46,9.67a33.48,33.48,0,0,0-4.52,3.19,68.36,68.36,0,0,1-17.51,9.73c-6.89,2.59-14.14,4.74-21.81,2.75-3.73-1-6.15.91-6.87,4.66-.18.93.38,1.42.83,2,.78.93.91,1.57-.11,2.5a22.08,22.08,0,0,0-3.87,5c-4.78,7.84-4.14,15.65.05,23.44,1.42,2.64,1.48,2.6-.92,4.41a84.73,84.73,0,0,0-10,9.42,7.61,7.61,0,0,1-5.24,2.38c-4.68.39-9.3-.5-13.94-.53-6.32,0-12-2.51-17.84-4.18a12.14,12.14,0,0,1-4.23-2.45,4.37,4.37,0,0,0-2.11-1.2c-1-.14-2-.12-2.5.88s.4,1.63,1.09,2.14a17.4,17.4,0,0,0,4.13,2.24c9.89,3.81,20,6.37,30.72,6.29a65.24,65.24,0,0,0,7.58-.46c2.63-.33,5.31.37,7.92-.5a1.42,1.42,0,0,1,1.71.81,1.94,1.94,0,0,1-.26,2.29,15.1,15.1,0,0,1-9.19,5.73c-11.39,2.05-22.34.33-32.92-4.09-3.55-1.48-6.25-4.38-9.65-6.14-.74-.39-1.54-1.5-2.26-.7s.41,1.6.94,2.23A32.44,32.44,0,0,0,86,189C88.45,189.3,90.82,190,93.61,190.6Zm87.46-1.48a10.61,10.61,0,0,0,3.82-.71c5.94-2.28,10.69-6.28,15.07-10.73a24.59,24.59,0,0,0,2.7-4.09,1.62,1.62,0,0,0-.42-2.34c-.81-.54-1.29.33-1.75.93-.83,1.09-1.66,2.17-2.53,3.22a36.49,36.49,0,0,1-13.5,9.75,4,4,0,0,1-5.11-1.19c-.93-1.53-.51-2.76,1.61-4.42a20.4,20.4,0,0,1,2.75-1.77c1.61-.88,3.33-1.6,4.9-2.55,4.61-2.8,8.22-6.5,10.07-11.69.35-1,.36-2.09-.66-2.45-.77-.27-1.5.5-1.67,1.41-.8,4.3-3.7,6.86-7.35,8.72a71.75,71.75,0,0,1-7.41,3.42c-2.8,1-4.38,3.2-5.65,5.61A5.91,5.91,0,0,0,181.08,189.12Zm-67.6-83.66c-2.13,0-4.75,2.52-4.67,4.44.07,1.7,1.6,2.83,3.79,2.82a4.2,4.2,0,0,0,3.92-4A3.39,3.39,0,0,0,113.48,105.46Zm50.06-3.28c0-2-1.25-3.78-2.51-3.74-1.72.06-4.1,2.38-4.15,4,0,1.28,2.09,3.31,3.46,3.29A3.51,3.51,0,0,0,163.54,102.18Z"/><path class="cls-7" d="M102.45,70.43c1.63-6.29,1.44-13.37,4.81-19.64a53.51,53.51,0,0,0,2.58-6c.48-1.22,1-1.55,2.47-1.3,10.21,1.78,16.66,8.64,22.34,16.44,2.15,3,4.39,5.94,5.31,9.65a2.82,2.82,0,0,1-1.19,3.36,61.71,61.71,0,0,1-9.19,5.35c-6.21,3-12.81,4.67-19.31,6.7-1.81.57-2.78,0-3.6-1.6C104.64,79.39,102.75,75.39,102.45,70.43Z"/><path class="cls-8" d="M148.46,129.3a101.48,101.48,0,0,1-11-.83,2.37,2.37,0,0,0-1.41,0c-2.21,1.41-3.89,0-5.68-.94-.77-.39-1.5-.88-1.17-1.87s1.19-1,2-.94c1.5.1,3,.15,4.5.29a32.26,32.26,0,0,0,10.38-1,77.7,77.7,0,0,0,26.55-12.4c8.8-6.15,17.87-11.93,26.85-17.82a13.62,13.62,0,0,1,6.19-2.57c3-.27,4.45,1.33,4.15,4.34a18.58,18.58,0,0,1-6.19,12.34c-2.28,2.07-4.48,4.23-6.73,6.33-4.61,4.32-10.41,6.49-16.13,8.74-7.89,3.11-16.3,3.95-24.58,5.34C153.37,128.84,150.47,129.52,148.46,129.3Z"/><path class="cls-7" d="M119.72,86c5.78-1.42,10.81-4,15.85-6.59a75,75,0,0,0,13.23-9,3.13,3.13,0,0,0,.87-.86c2.52-4.89,7.29-5.33,11.93-6.14a107.64,107.64,0,0,0,13-2.93c1.5-.46,3.34-1.32,4.65-.08s.81,3.35.39,5.07C178.51,70,175.45,73,172,75.84c-8.62,7.18-18.82,10.64-29.54,12.93-2.95.63-5.88-.15-8.79-.37-4.21-.33-8.4-1-12.6-1.57A1.83,1.83,0,0,1,119.72,86Z"/><path class="cls-9" d="M146,133.47c3.12-.25,6.27.19,9.4-.57,1.48-.36,2.51,1.11,3.24,2.09,5,6.71,7.28,15.15,2.37,23.11-3.41,5.53-8.49,8.12-14.87,8.32a38.91,38.91,0,0,1-12.87-2.08,12,12,0,0,1-7.66-6.59c-2.42-5.05-4.46-10.12-3-15.93,1.05-4.08,3.76-6.89,6.7-9.6a1.09,1.09,0,0,1,1.29-.33c2.58,1.11,5.33,1,8.05,1.21a16.13,16.13,0,0,0-2.87,1c-4.34,2.41-6.55,6.18-7.74,11s-1.24,8.91,2.83,12.67c2.91,2.69,5.85,4.86,9.73,5.67a13.71,13.71,0,0,0,10.87-2,17.85,17.85,0,0,0,8-11.15c.65-2.47,1.27-5.11,0-7.64-.34-.69-.63-1.65-1.77-1.28a1.73,1.73,0,0,0-1.42,2,22.45,22.45,0,0,1-1.26,8.47,10.78,10.78,0,0,1-9,8c-6.28,1.1-12.11-3.49-14.75-8.06a4.45,4.45,0,0,1-.35-3,25.55,25.55,0,0,1,1.66-6.53c2.39-5.33,10.1-6.4,13.67-1.89,1.71,2.17,1.89,4.79,1.85,7.4a1.84,1.84,0,0,1-1.46,1.77c-2.55.71-4.23-.19-5.09-2.73-.19-.56-.21-1.3-1-1.35a1.9,1.9,0,0,0-1.72,1,3.29,3.29,0,0,0-.3,3,6.48,6.48,0,0,0,7.35,4.2c3.61-.58,6.49-3.54,6.42-6.67,0-1-.33-2-.35-3.06C151.86,139.16,150.08,135.64,146,133.47Z"/><path class="cls-10" d="M103.32,84.71a22.22,22.22,0,0,1-12.79-2.1c-2.33-1.12-2-3.41-2.37-5.34-1.4-7.26.43-14.14,3.63-20.45,3-6,7.22-11.21,14.09-13.38.32-.1.61-.32,1.07,0-.57,1.26-1.12,2.55-1.75,3.81-3.1,6.18-4.63,12.81-5.71,19.58-.71,4.47.27,8.69,1.85,12.83C102,81.27,102.58,82.85,103.32,84.71Z"/><path class="cls-11" d="M146,133.47c4.1,2.18,5.88,5.69,6,10.23,0,1,.33,2,.35,3.06.07,3.14-2.81,6.1-6.42,6.67a6.48,6.48,0,0,1-7.35-4.2,3.29,3.29,0,0,1,.3-3,1.9,1.9,0,0,1,1.72-1c.81.06.83.79,1,1.35.86,2.55,2.54,3.44,5.09,2.73a1.84,1.84,0,0,0,1.46-1.77c0-2.62-.13-5.24-1.85-7.4-3.56-4.51-11.27-3.44-13.67,1.89a25.55,25.55,0,0,0-1.66,6.53,4.45,4.45,0,0,0,.35,3c2.65,4.56,8.47,9.16,14.75,8.06a10.78,10.78,0,0,0,9-8,22.45,22.45,0,0,0,1.26-8.47,1.73,1.73,0,0,1,1.42-2c1.14-.36,1.43.59,1.77,1.28,1.24,2.53.63,5.17,0,7.64a17.85,17.85,0,0,1-8,11.15,13.71,13.71,0,0,1-10.87,2c-3.88-.82-6.82-3-9.73-5.67-4.07-3.76-4-7.8-2.83-12.67s3.4-8.58,7.74-11a16.13,16.13,0,0,1,2.87-1A21.94,21.94,0,0,1,146,133.47Z"/><path class="cls-12" d="M120.42,41.52c7.31,1.33,13.77,2.95,18.5,8.92,3.24,4.09,6,8.46,9.26,12.55,1.46,1.86,1.15,3.1-.91,4.4-3.82,2.42-3.38,2.48-5.2-1.52-4.16-9.16-10.78-16.26-19-21.93A7.28,7.28,0,0,1,120.42,41.52Z"/><path class="cls-13" d="M104.94,38.6a2,2,0,0,1-1.14,1.87q-2.54,1.34-5.05,2.72c-1.17.65-1.81.18-2.16-.95a140.87,140.87,0,0,1-3.87-14c-.43-2.18.21-4.37.48-6.53a1.63,1.63,0,0,1,2.67-1,8.55,8.55,0,0,1,3.85,4.88c.9,3.33,3.45,5.9,4.27,9.28C104.29,36.16,104.63,37.42,104.94,38.6Z"/><path class="cls-14" d="M109.11,31.8a45.62,45.62,0,0,1,.38-7.32c.11-.88.16-1.91,1.2-2.16s1.29.85,1.66,1.51c2.08,3.75,1.85,7.92,2.07,12,.07,1.29-.95,1.24-1.86,1.35-3.81.48-3.81.5-3.58-3.28C109,33.15,109.07,32.4,109.11,31.8Z"/><path class="cls-14" d="M122.4,23.83c1,1.27,1,2.7,1.25,4,.6,3,1.79,5.88,1.64,9-.06,1.24-.34,1.48-1.58,1.13-5.32-1.49-5.38-1.46-4.29-6.76A19,19,0,0,1,122.4,23.83Z"/><path class="cls-15" d="M103.22,190.56c-3.38,1.84-5.55,5.05-8.66,7.12-1.14.75-1.94,1.92-3.25,2.48a1.45,1.45,0,0,1-1.7-.22c-.54-.49-.11-1,.14-1.48a7.68,7.68,0,0,1,1-1.28c1.6-1.77,3.34-3.41,4.92-5.22C97.63,189.69,100.44,190.12,103.22,190.56Z"/><path class="cls-15" d="M114,174.06c1.85-2.46,4.2-3.84,6-5.77a40.16,40.16,0,0,0,3.12-3.27c.8-1.07,1.3-1.58,2.54-.47s1,1.79-.1,2.74c-2.36,2-4.64,4-7,6.06C117.37,174.46,115.84,174.08,114,174.06Z"/><path class="cls-16" d="M115,237.52A68.34,68.34,0,0,1,109.67,225c-.31-.95-.07-1.18.9-1.13,2.61.14,3.19.69,3.41,3.29C114.27,230.65,114.63,234.08,115,237.52Z"/><path class="cls-16" d="M166.21,231.69c.46-3.15.85-6.22,1.39-9.28.23-1.34,1.5-1.43,2.59-1.59.42-.06.67.22.5.63-1.4,3.37-2,7-3.85,10.23C166.81,231.71,166.71,231.69,166.21,231.69Z"/><path class="cls-17" d="M181.08,189.12a5.91,5.91,0,0,1-5.13-8.87c1.28-2.41,2.86-4.57,5.65-5.61a71.75,71.75,0,0,0,7.41-3.42c3.65-1.86,6.55-4.42,7.35-8.72.17-.91.9-1.69,1.67-1.41,1,.36,1,1.47.66,2.45-1.85,5.2-5.46,8.9-10.07,11.69-1.57,1-3.29,1.66-4.9,2.55a20.4,20.4,0,0,0-2.75,1.77c-2.12,1.65-2.54,2.88-1.61,4.42a4,4,0,0,0,5.11,1.19,36.49,36.49,0,0,0,13.5-9.75c.87-1.05,1.7-2.13,2.53-3.22.46-.6.94-1.47,1.75-.93a1.62,1.62,0,0,1,.42,2.34,24.59,24.59,0,0,1-2.7,4.09c-4.38,4.45-9.12,8.45-15.07,10.73A10.61,10.61,0,0,1,181.08,189.12Z"/><path class="cls-17" d="M113.48,105.46a3.39,3.39,0,0,1,3.05,3.29,4.2,4.2,0,0,1-3.92,4c-2.19,0-3.72-1.13-3.79-2.82C108.74,108,111.35,105.49,113.48,105.46Z"/><path class="cls-17" d="M163.54,102.18a3.51,3.51,0,0,1-3.2,3.6c-1.37,0-3.5-2-3.46-3.29,0-1.66,2.43-4,4.15-4C162.3,98.4,163.5,100.19,163.54,102.18Z"/></g><g class="cls-18"><path class="cls-5" d="M104.71,29.52c.13-3.72.77-7.08,3.13-10,2.15-2.63,4.85-2.38,6.38.69,1,2,1.79,4,2.73,6.17,1.3-2.18,1.43-4.75,3.42-6.45,2.33-2,3.4-1.88,4.64,1,1.46,3.37,1.78,7,2.28,10.6a16.27,16.27,0,0,1,.1,6.41,1.5,1.5,0,0,0,.91,1.66,1.91,1.91,0,0,0,.54.26c6.7,1.32,10.49,6.43,14.51,11.21,2.25,2.68,4.36,5.47,6.49,8.25a3.6,3.6,0,0,0,4,1.46C162,59.36,170.09,58,178.12,56a2.46,2.46,0,0,1,3.18,1.7,10.13,10.13,0,0,1,.23,8c-1.72,4.09-3.17,8.35-7.46,11a39.83,39.83,0,0,1,4,1.94,57.9,57.9,0,0,1,14,12c.89,1.08,1.65,1.2,2.71.4a21.86,21.86,0,0,1,7.65-4c5-1.29,9.2,1.91,8.91,7a21.56,21.56,0,0,1-4.72,12.63,1.78,1.78,0,0,0,0,2.36,74.9,74.9,0,0,1,9.05,25.32,69.86,69.86,0,0,1,.51,23.1,53.77,53.77,0,0,1-2.67,11.52c-1.74,4.43-2.7,9.12-4.74,13.49a57.4,57.4,0,0,1-10.58,15.62c-2.18,2.28-4.22,4.72-6.19,7.15-3.26,4-7.57,6.21-12.07,8.14-2.14.92-3.78,2.77-6.24,3.07-.8.1-1,1-1.2,1.73-.8,2.7-1.67,5.39-2.41,8.11a30.76,30.76,0,0,1-4.32,8.62c-1.1,1.68-1,2.24.91,2.64,3.21.69,6.33,1.79,9.63,2.15.93.1,2.29.27,2.28,1.54s-1.34,1.49-2.41,1.59c-4.44.41-8.64-1.07-12.94-1.75-1-.16-2-.42-2.95-.66-2.37-.56-3.22-2.47-1.89-4.5,3-4.57,3.3-9.85,4.12-15,.24-1.5-.57-1.83-1.77-1.44-9,2.87-18.2,3.11-27.5,3.25a128.74,128.74,0,0,1-14.07-.49c-2.29-.21-2.66.17-2.38,2.47.42,3.53,1.11,7,1.22,10.6a3.12,3.12,0,0,1-1.57,3,13.08,13.08,0,0,1-7.53,2.5c-1.44,0-2.66-.53-2.91-2-.27-1.59,1.27-1.71,2.31-2,3.72-1,3.83-1,1.66-4.22-2.53-3.73-3.41-8-4.48-12.24a3,3,0,0,0-2.17-2.47c-4.1-1.42-8.37-2.26-12.27-4.47a119.54,119.54,0,0,1-10.53-7.05,116.17,116.17,0,0,1-11.33-9.64c-5.88-5.45-10.71-11.7-13.59-19.44a62.62,62.62,0,0,1-3.89-25.92,113.91,113.91,0,0,1,9.1-37.83,54.7,54.7,0,0,1,9.88-15.13c3.41-3.79,6.42-8,10.05-11.57a6.58,6.58,0,0,1,2.93-2c1-.26,1.57-.84,1.29-2.25a41.94,41.94,0,0,1,1.78-22.59c1.47-4.1,2.84-8.29,6-11.53a3.16,3.16,0,0,0,.62-3.37c-1.27-4.18-2.5-8.37-3.45-12.63a31,31,0,0,1-.28-11.83c.41-2.53,2.23-3.59,4.39-4.17A4.34,4.34,0,0,1,99,18.57c1.57,2.24,3.21,4.44,3.9,7.2A20.25,20.25,0,0,0,104.71,29.52ZM145,131.87a21.56,21.56,0,0,0-7.2-.37c-2.67-.19-5.38-.1-7.91-1.19a1.08,1.08,0,0,0-1.26.32c-2.89,2.66-5.55,5.43-6.58,9.43-1.48,5.71.53,10.69,2.91,15.66a11.81,11.81,0,0,0,7.53,6.48,38.24,38.24,0,0,0,12.64,2c6.27-.2,11.26-2.75,14.61-8.18,4.83-7.83,2.59-16.12-2.32-22.71-.72-1-1.73-2.41-3.18-2.06C151.14,132.06,148,131.63,145,131.87ZM93.52,188c-2.74-.6-5.08-1.28-7.46-1.59a31.87,31.87,0,0,1-20.84-11.51c-.52-.62-1.63-1.4-.92-2.19s1.49.31,2.22.69c3.34,1.73,6,4.58,9.48,6,10.39,4.34,21.15,6,32.34,4a14.84,14.84,0,0,0,9-5.63,1.9,1.9,0,0,0,.25-2.25,1.4,1.4,0,0,0-1.68-.79c-2.56.85-5.2.17-7.79.49a64.1,64.1,0,0,1-7.45.45c-10.49.08-20.47-2.44-30.18-6.18a17.1,17.1,0,0,1-4.06-2.2c-.68-.5-1.56-1.09-1.07-2.1s1.48-1,2.46-.86a4.3,4.3,0,0,1,2.07,1.18A11.93,11.93,0,0,0,74.08,168c5.78,1.64,11.33,4.07,17.53,4.11,4.56,0,9.1.9,13.7.52a7.47,7.47,0,0,0,5.15-2.34,83.25,83.25,0,0,1,9.87-9.25c2.36-1.79,2.3-1.75.91-4.34-4.12-7.66-4.75-15.33,0-23a21.69,21.69,0,0,1,3.8-4.93c1-.91.88-1.54.11-2.45-.44-.52-1-1-.81-1.92.7-3.69,3.08-5.53,6.75-4.58,7.54,2,14.66-.16,21.43-2.7a67.17,67.17,0,0,0,17.2-9.56,32.9,32.9,0,0,1,4.44-3.14c5.3-2.8,10-6.48,15.19-9.5.79-.47,1-.93.18-1.67C184,88.3,179.28,82.6,171.94,80.24c-1.29-.42-2-.47-3,.3-3.24,2.5-6.44,5-10.32,6.6-9.41,3.83-19.12,5.57-29.18,4.09-4.38-.64-8.88-1.5-12.58-4.36a2.77,2.77,0,0,0-2.45-.6c-1.37.32-2.77.52-4.14.85a22,22,0,0,1-7.77.93C98.74,87.61,95,87,91.28,86.61c-1.56-.16-3.41-.95-4.7.2-2.3,2-5.08,3.55-6.74,6.31-2.17,3.59-5.14,6.57-7.93,9.64a42.55,42.55,0,0,0-7.55,12,110.09,110.09,0,0,0-7.64,26.63c-1.39,9-2.58,18-.09,27,1.71,6.2,3.22,12.56,7.55,17.61,11.14,13,23.91,23.55,40.55,29.16,8.09,2.73,16,4.17,24.44,3.44,4-.34,7.93,0,11.86-.29a179.6,179.6,0,0,0,23.27-3.78c8.19-1.77,16-4.58,22.72-9.79,4.64-3.59,7.78-8.54,11.54-12.93a37.22,37.22,0,0,0,5.36-8.28c6.63-14,10.12-28.68,8.37-44.33a69.92,69.92,0,0,0-9.76-28.74c-2.08.82-2.53,3.1-4.13,4.18-5.8,3.92-11.23,8.39-18.06,10.69-6.4,2.15-13,3.27-19.55,4.71-1,.22-1.43.46-.59,1.32,3.62,3.71,4.81,8.25,5.4,13.31,1.37,11.86-7.87,22.8-19.8,23.17a45.74,45.74,0,0,1-14.45-2.3,3,3,0,0,0-3.28.74,41.93,41.93,0,0,1-6.9,5.57c-.74.44-.8.86-.34,1.61a4.72,4.72,0,0,1,0,4.64c-.85,1.9-2.39,3-4,4.28-2.91,2.26-5.78,4.33-9.55,4.77a1.59,1.59,0,0,0-1.06.5c-1.22,1.91-3.25,3-4.63,4.75-2.4,3-5.47,5.38-8.41,7.84-1.53,1.29-4.9.62-6.77-1.31-1.55-1.61-.59-3.12.47-4.48A39.61,39.61,0,0,1,93.52,188ZM102.2,69.94c.29,4.87,2.15,8.8,4.15,12.71.81,1.58,1.76,2.13,3.54,1.57,6.39-2,12.88-3.64,19-6.59a60.63,60.63,0,0,0,9-5.25,2.77,2.77,0,0,0,1.17-3.3c-.91-3.64-3.1-6.58-5.22-9.48-5.59-7.66-11.93-14.41-22-16.16-1.41-.25-2,.07-2.42,1.28a52.58,52.58,0,0,1-2.54,5.92C103.61,56.8,103.8,63.76,102.2,69.94Zm45.21,57.84c2,.22,4.82-.45,7.66-.92,8.13-1.36,16.4-2.18,24.15-5.24,5.62-2.22,11.32-4.35,15.85-8.59,2.21-2.07,4.38-4.19,6.61-6.22a18.26,18.26,0,0,0,6.08-12.12c.29-3-1.13-4.52-4.08-4.26a13.38,13.38,0,0,0-6.08,2.53c-8.82,5.79-17.73,11.47-26.38,17.51a76.35,76.35,0,0,1-26.09,12.18,31.7,31.7,0,0,1-10.2,1c-1.47-.13-3-.18-4.43-.28-.84-.06-1.7,0-2,.92s.39,1.46,1.15,1.84c1.76.88,3.41,2.31,5.58.92a2.33,2.33,0,0,1,1.39,0A99.71,99.71,0,0,0,147.41,127.78ZM119.18,85.21a1.8,1.8,0,0,0,1.32.84c4.12.53,8.24,1.22,12.38,1.54,2.87.22,5.74,1,8.64.37,10.54-2.25,20.55-5.65,29-12.71,3.39-2.82,6.39-5.78,7.48-10.2.41-1.69,1-3.65-.38-5s-3.09-.37-4.57.08A105.76,105.76,0,0,1,160.33,63c-4.56.8-9.24,1.23-11.72,6a3.08,3.08,0,0,1-.86.85,73.69,73.69,0,0,1-13,8.83C129.8,81.24,124.86,83.81,119.18,85.21ZM103.05,84c-.72-1.83-1.34-3.38-1.94-4.94C99.56,75,98.59,70.82,99.3,66.42c1.06-6.65,2.57-13.17,5.61-19.24.62-1.24,1.16-2.51,1.72-3.75-.46-.33-.74-.12-1.05,0-6.75,2.13-10.87,7.29-13.84,13.14-3.15,6.2-4.94,13-3.57,20.09.36,1.9,0,4.15,2.33,5.25A21.83,21.83,0,0,0,103.05,84Zm16.81-42.44a7.15,7.15,0,0,0,2.61,2.38c8.08,5.58,14.58,12.55,18.67,21.55,1.79,3.93,1.35,3.87,5.11,1.49,2-1.27,2.32-2.49.89-4.32-3.15-4-5.91-8.32-9.09-12.33C133.39,44.43,127,42.84,119.86,41.53Zm-15.21-2.87c-.3-1.17-.64-2.4-.94-3.63-.8-3.31-3.31-5.84-4.19-9.11a8.4,8.4,0,0,0-3.79-4.8,1.6,1.6,0,0,0-2.62.94c-.27,2.13-.9,4.28-.47,6.42a138.42,138.42,0,0,0,3.8,13.77c.34,1.11,1,1.57,2.12.93q2.47-1.37,5-2.68A2,2,0,0,0,104.65,38.66Zm4.1-6.69c0,.59-.09,1.33-.13,2.07-.23,3.72-.23,3.7,3.52,3.22.89-.11,1.89-.07,1.83-1.33-.22-4,0-8.11-2-11.79-.36-.65-.56-1.74-1.63-1.48s-1.06,1.26-1.18,2.12A44.82,44.82,0,0,0,108.75,32Zm13.06-7.83a18.68,18.68,0,0,0-2.93,7.28c-1.07,5.21-1,5.17,4.21,6.64,1.23.34,1.5.1,1.56-1.11.15-3.1-1-5.93-1.62-8.88C122.78,26.8,122.83,25.4,121.8,24.15ZM103,188c-2.73-.42-5.49-.85-7.42,1.37-1.55,1.78-3.26,3.39-4.83,5.13a7.55,7.55,0,0,0-1,1.26c-.25.44-.67,1-.14,1.46a1.42,1.42,0,0,0,1.67.21c1.29-.55,2.08-1.69,3.2-2.43C97.51,192.93,99.64,189.77,103,188Zm10.62-16.21c1.78,0,3.28.4,4.54-.7,2.28-2,4.53-4,6.84-6,1.11-.93,1.31-1.61.1-2.69s-1.71-.59-2.49.46a39.46,39.46,0,0,1-3.06,3.21C117.72,168,115.4,169.34,113.58,171.76Zm.9,62.35c-.32-3.37-.67-6.75-.95-10.12-.21-2.56-.79-3.1-3.35-3.24-1,0-1.19.18-.89,1.11A67.15,67.15,0,0,0,114.49,234.11Zm50.37-5.73c.49,0,.59,0,.61,0,1.81-3.14,2.41-6.74,3.79-10.05.17-.4-.09-.68-.49-.62-1.06.16-2.31.24-2.54,1.56C165.69,222.27,165.31,225.29,164.85,228.38Z"/><path class="cls-6" d="M93.52,188a39.61,39.61,0,0,0-6.74,6.51c-1.06,1.36-2,2.87-.47,4.48,1.86,1.93,5.24,2.6,6.77,1.31,2.93-2.47,6-4.82,8.41-7.84,1.39-1.75,3.41-2.84,4.63-4.75a1.59,1.59,0,0,1,1.06-.5c3.77-.43,6.64-2.51,9.55-4.77,1.63-1.26,3.16-2.38,4-4.28a4.72,4.72,0,0,0,0-4.64c-.46-.75-.39-1.17.34-1.61a41.93,41.93,0,0,0,6.9-5.57,3,3,0,0,1,3.28-.74,45.74,45.74,0,0,0,14.45,2.3c11.93-.37,21.18-11.31,19.8-23.17-.59-5.06-1.78-9.61-5.4-13.31-.84-.86-.43-1.1.59-1.32,6.55-1.44,13.15-2.56,19.55-4.71,6.83-2.3,12.26-6.77,18.06-10.69,1.6-1.08,2.05-3.36,4.13-4.18a69.92,69.92,0,0,1,9.76,28.74c1.75,15.65-1.74,30.29-8.37,44.33a37.22,37.22,0,0,1-5.36,8.28c-3.76,4.39-6.9,9.33-11.54,12.93-6.73,5.21-14.53,8-22.72,9.79A179.6,179.6,0,0,1,141,218.38c-3.93.32-7.9-.06-11.86.29-8.39.73-16.35-.71-24.44-3.44-16.64-5.61-29.41-16.16-40.55-29.16-4.33-5.06-5.84-11.41-7.55-17.61-2.48-9-1.29-18,.09-27a110.09,110.09,0,0,1,7.64-26.63,42.55,42.55,0,0,1,7.55-12c2.79-3.07,5.76-6.05,7.93-9.64,1.66-2.75,4.44-4.27,6.74-6.31,1.29-1.14,3.14-.35,4.7-.2,3.74.38,7.46,1,11.2,1.44a22,22,0,0,0,7.77-.93c1.37-.33,2.77-.53,4.14-.85a2.77,2.77,0,0,1,2.45.6c3.7,2.86,8.2,3.72,12.58,4.36,10.06,1.48,19.78-.26,29.18-4.09,3.88-1.58,7.08-4.09,10.32-6.6,1-.77,1.73-.72,3-.3,7.34,2.36,12.11,8.06,17.54,12.93.83.74.62,1.21-.18,1.67-5.15,3-9.9,6.7-15.19,9.5a32.9,32.9,0,0,0-4.44,3.14,67.17,67.17,0,0,1-17.2,9.56c-6.77,2.54-13.89,4.66-21.43,2.7-3.67-1-6,.89-6.75,4.58-.18.92.38,1.4.81,1.92.77.91.89,1.54-.11,2.45a21.69,21.69,0,0,0-3.8,4.93c-4.7,7.71-4.07,15.38,0,23,1.39,2.59,1.46,2.55-.91,4.34a83.25,83.25,0,0,0-9.87,9.25,7.47,7.47,0,0,1-5.15,2.34c-4.6.38-9.14-.5-13.7-.52-6.21,0-11.76-2.47-17.53-4.11a11.93,11.93,0,0,1-4.16-2.41,4.3,4.3,0,0,0-2.07-1.18c-1-.14-2-.12-2.46.86s.39,1.6,1.07,2.1a17.1,17.1,0,0,0,4.06,2.2c9.72,3.74,19.69,6.26,30.18,6.18a64.1,64.1,0,0,0,7.45-.45c2.59-.32,5.22.36,7.79-.49a1.4,1.4,0,0,1,1.68.79,1.9,1.9,0,0,1-.25,2.25,14.84,14.84,0,0,1-9,5.63c-11.19,2-21.95.33-32.34-4-3.48-1.45-6.14-4.3-9.48-6-.73-.38-1.52-1.47-2.22-.69s.4,1.57.92,2.19a31.87,31.87,0,0,0,20.84,11.51C88.44,186.73,90.78,187.42,93.52,188Zm85.94-1.45a10.42,10.42,0,0,0,3.76-.69c5.84-2.24,10.5-6.17,14.8-10.55a24.16,24.16,0,0,0,2.65-4,1.59,1.59,0,0,0-.41-2.3c-.79-.53-1.27.33-1.71.92-.81,1.07-1.63,2.13-2.49,3.16a35.85,35.85,0,0,1-13.27,9.58,3.91,3.91,0,0,1-5-1.17c-.91-1.51-.5-2.72,1.58-4.34a20,20,0,0,1,2.7-1.74c1.59-.87,3.27-1.57,4.82-2.5,4.53-2.75,8.08-6.38,9.9-11.49.34-1,.35-2.06-.65-2.41-.75-.27-1.47.49-1.64,1.39-.79,4.23-3.63,6.74-7.23,8.57a70.5,70.5,0,0,1-7.28,3.36c-2.75,1-4.3,3.14-5.56,5.52A5.8,5.8,0,0,0,179.46,186.56ZM113,104.35c-2.1,0-4.66,2.47-4.58,4.36.07,1.67,1.57,2.79,3.73,2.77a4.13,4.13,0,0,0,3.86-3.9A3.33,3.33,0,0,0,113,104.35Zm49.19-3.22c0-2-1.22-3.72-2.47-3.67-1.69.06-4,2.34-4.08,4,0,1.26,2.05,3.25,3.4,3.24A3.45,3.45,0,0,0,162.23,101.14Z"/><path class="cls-7" d="M102.2,69.94c1.6-6.18,1.41-13.14,4.73-19.3a52.58,52.58,0,0,0,2.54-5.92c.47-1.2,1-1.52,2.42-1.28,10,1.75,16.37,8.49,22,16.16,2.12,2.9,4.31,5.84,5.22,9.48a2.77,2.77,0,0,1-1.17,3.3,60.63,60.63,0,0,1-9,5.25c-6.1,2.94-12.58,4.59-19,6.59-1.78.56-2.73,0-3.54-1.57C104.36,78.74,102.5,74.81,102.2,69.94Z"/><path class="cls-8" d="M147.41,127.78a99.71,99.71,0,0,1-10.79-.81,2.33,2.33,0,0,0-1.39,0c-2.17,1.38-3.82,0-5.58-.92-.76-.38-1.47-.86-1.15-1.84s1.17-1,2-.92c1.48.1,3,.15,4.43.28a31.7,31.7,0,0,0,10.2-1,76.35,76.35,0,0,0,26.09-12.18c8.65-6,17.55-11.72,26.38-17.51a13.38,13.38,0,0,1,6.08-2.53c3-.26,4.37,1.31,4.08,4.26a18.26,18.26,0,0,1-6.08,12.12c-2.24,2-4.4,4.16-6.61,6.22-4.53,4.24-10.23,6.37-15.85,8.59-7.75,3.06-16,3.88-24.15,5.24C152.24,127.33,149.39,128,147.41,127.78Z"/><path class="cls-7" d="M119.18,85.21c5.68-1.4,10.62-4,15.58-6.48a73.69,73.69,0,0,0,13-8.83,3.08,3.08,0,0,0,.86-.85c2.48-4.81,7.16-5.24,11.72-6a105.76,105.76,0,0,0,12.74-2.88c1.48-.45,3.28-1.29,4.57-.08s.79,3.29.38,5c-1.08,4.42-4.09,7.38-7.48,10.2-8.47,7.06-18.49,10.46-29,12.71-2.9.62-5.77-.14-8.64-.37-4.14-.32-8.25-1-12.38-1.54A1.8,1.8,0,0,1,119.18,85.21Z"/><path class="cls-9" d="M145,131.87c3.07-.24,6.16.19,9.23-.56,1.45-.35,2.47,1.09,3.18,2.06,4.91,6.59,7.15,14.88,2.32,22.71-3.35,5.43-8.34,8-14.61,8.18a38.24,38.24,0,0,1-12.64-2,11.81,11.81,0,0,1-7.53-6.48c-2.38-5-4.38-9.95-2.91-15.66,1-4,3.69-6.77,6.58-9.43a1.08,1.08,0,0,1,1.26-.32c2.53,1.09,5.24,1,7.91,1.19a15.85,15.85,0,0,0-2.82.95c-4.26,2.36-6.43,6.07-7.61,10.79s-1.22,8.75,2.78,12.45c2.86,2.64,5.75,4.77,9.56,5.57a13.47,13.47,0,0,0,10.68-2,17.53,17.53,0,0,0,7.87-11c.64-2.43,1.25-5,0-7.51-.33-.68-.62-1.62-1.74-1.26a1.7,1.7,0,0,0-1.4,1.92,22.06,22.06,0,0,1-1.24,8.32,10.59,10.59,0,0,1-8.85,7.84c-6.17,1.08-11.9-3.43-14.5-7.92a4.38,4.38,0,0,1-.34-3,25.11,25.11,0,0,1,1.63-6.42c2.35-5.23,9.93-6.28,13.43-1.86,1.68,2.13,1.86,4.7,1.81,7.27a1.81,1.81,0,0,1-1.43,1.74c-2.5.7-4.16-.18-5-2.68-.18-.55-.21-1.27-1-1.33a1.86,1.86,0,0,0-1.69.94,3.23,3.23,0,0,0-.29,2.9,6.37,6.37,0,0,0,7.22,4.13c3.55-.57,6.38-3.48,6.31-6.56,0-1-.33-2-.35-3C150.75,137.47,149,134,145,131.87Z"/><path class="cls-10" d="M103.05,84a21.83,21.83,0,0,1-12.56-2.06c-2.29-1.1-2-3.35-2.33-5.25-1.37-7.14.42-13.9,3.57-20.09,3-5.85,7.09-11,13.84-13.14.32-.1.6-.31,1.05,0-.56,1.23-1.1,2.51-1.72,3.75-3,6.07-4.55,12.59-5.61,19.24-.7,4.39.26,8.54,1.82,12.61C101.71,80.59,102.34,82.14,103.05,84Z"/><path class="cls-11" d="M145,131.87c4,2.14,5.77,5.59,5.85,10,0,1,.32,2,.35,3,.07,3.08-2.76,6-6.31,6.56a6.37,6.37,0,0,1-7.22-4.13,3.23,3.23,0,0,1,.29-2.9,1.86,1.86,0,0,1,1.69-.94c.79.05.82.78,1,1.33.84,2.5,2.5,3.38,5,2.68a1.81,1.81,0,0,0,1.43-1.74c0-2.57-.13-5.14-1.81-7.27-3.5-4.43-11.08-3.38-13.43,1.86a25.11,25.11,0,0,0-1.63,6.42,4.38,4.38,0,0,0,.34,3c2.6,4.48,8.33,9,14.5,7.92a10.59,10.59,0,0,0,8.85-7.84,22.06,22.06,0,0,0,1.24-8.32,1.7,1.7,0,0,1,1.4-1.92c1.12-.36,1.4.58,1.74,1.26,1.22,2.49.62,5.08,0,7.51a17.53,17.53,0,0,1-7.87,11,13.47,13.47,0,0,1-10.68,2c-3.81-.8-6.71-2.93-9.56-5.57-4-3.7-4-7.67-2.78-12.45s3.35-8.43,7.61-10.79a15.85,15.85,0,0,1,2.82-.95A21.56,21.56,0,0,1,145,131.87Z"/><path class="cls-12" d="M119.86,41.53c7.19,1.31,13.53,2.9,18.18,8.77,3.18,4,5.94,8.31,9.09,12.33,1.43,1.82,1.13,3-.89,4.32-3.76,2.38-3.32,2.44-5.11-1.49-4.09-9-10.59-16-18.67-21.55A7.15,7.15,0,0,1,119.86,41.53Z"/><path class="cls-13" d="M104.65,38.66a2,2,0,0,1-1.12,1.84q-2.5,1.31-5,2.68c-1.15.63-1.78.18-2.12-.93a138.42,138.42,0,0,1-3.8-13.77c-.42-2.14.21-4.29.47-6.42a1.6,1.6,0,0,1,2.62-.94,8.4,8.4,0,0,1,3.79,4.8c.88,3.27,3.39,5.8,4.19,9.11C104,36.27,104.34,37.5,104.65,38.66Z"/><path class="cls-14" d="M108.75,32a44.82,44.82,0,0,1,.37-7.2c.11-.87.15-1.88,1.18-2.12s1.27.83,1.63,1.48c2,3.69,1.81,7.78,2,11.79.07,1.26-.93,1.22-1.83,1.33-3.75.47-3.74.49-3.52-3.22C108.66,33.3,108.71,32.57,108.75,32Z"/><path class="cls-14" d="M121.8,24.15c1,1.25,1,2.65,1.23,3.93.59,2.95,1.76,5.78,1.62,8.88-.06,1.22-.33,1.46-1.56,1.11-5.23-1.46-5.28-1.43-4.21-6.64A18.68,18.68,0,0,1,121.8,24.15Z"/><path class="cls-15" d="M103,188c-3.32,1.8-5.45,5-8.51,7-1.12.74-1.91,1.88-3.2,2.43a1.42,1.42,0,0,1-1.67-.21c-.53-.48-.11-1,.14-1.46a7.55,7.55,0,0,1,1-1.26c1.57-1.74,3.28-3.35,4.83-5.13C97.47,187.12,100.23,187.55,103,188Z"/><path class="cls-15" d="M113.58,171.76c1.82-2.42,4.13-3.77,5.92-5.67a39.46,39.46,0,0,0,3.06-3.21c.79-1.05,1.28-1.55,2.49-.46s1,1.76-.1,2.69c-2.32,1.94-4.56,4-6.84,6C116.86,172.16,115.36,171.78,113.58,171.76Z"/><path class="cls-16" d="M114.49,234.11a67.15,67.15,0,0,1-5.19-12.25c-.3-.93-.07-1.16.89-1.11,2.57.13,3.14.68,3.35,3.24C113.82,227.37,114.17,230.74,114.49,234.11Z"/><path class="cls-16" d="M164.85,228.38c.45-3.09.84-6.12,1.36-9.12.23-1.32,1.48-1.4,2.54-1.56.41-.06.66.22.49.62-1.37,3.31-2,6.91-3.79,10.05C165.45,228.41,165.34,228.38,164.85,228.38Z"/><path class="cls-17" d="M179.46,186.56a5.8,5.8,0,0,1-5-8.71c1.25-2.37,2.81-4.49,5.56-5.52a70.5,70.5,0,0,0,7.28-3.36c3.59-1.83,6.44-4.34,7.23-8.57.17-.9.89-1.66,1.64-1.39,1,.35,1,1.44.65,2.41-1.82,5.11-5.36,8.74-9.9,11.49-1.54.94-3.23,1.63-4.82,2.5a20,20,0,0,0-2.7,1.74c-2.08,1.62-2.49,2.83-1.58,4.34a3.91,3.91,0,0,0,5,1.17,35.85,35.85,0,0,0,13.27-9.58c.85-1,1.67-2.1,2.49-3.16.45-.59.92-1.44,1.71-.92a1.59,1.59,0,0,1,.41,2.3,24.16,24.16,0,0,1-2.65,4c-4.3,4.38-9,8.31-14.8,10.55A10.42,10.42,0,0,1,179.46,186.56Z"/><path class="cls-17" d="M113,104.35a3.33,3.33,0,0,1,3,3.23,4.13,4.13,0,0,1-3.86,3.9c-2.15,0-3.66-1.11-3.73-2.77C108.38,106.83,110.95,104.38,113,104.35Z"/><path class="cls-17" d="M162.23,101.14a3.45,3.45,0,0,1-3.15,3.53c-1.35,0-3.44-2-3.4-3.24,0-1.63,2.39-3.91,4.08-4C161,97.42,162.19,99.18,162.23,101.14Z"/></g></svg>