<svg id="圖層_1" data-name="圖層 1" xmlns="http://www.w3.org/2000/svg" xmlns:xlink="http://www.w3.org/1999/xlink" viewBox="0 0 245.99 250.83"><defs><style>.cls-1,.cls-2,.cls-3{fill:none;}.cls-1{clip-rule:evenodd;}.cls-3{stroke:#fff;stroke-miterlimit:10;stroke-width:7px;}.cls-4{clip-path:url(#clip-path);}.cls-5{fill:#070404;}.cls-10,.cls-11,.cls-12,.cls-13,.cls-14,.cls-15,.cls-16,.cls-17,.cls-5,.cls-6,.cls-7,.cls-8,.cls-9{fill-rule:evenodd;}.cls-6{fill:#fff;}.cls-7{fill:#5c5d5d;}.cls-8{fill:#ddb637;}.cls-9{fill:#c35640;}.cls-10{fill:#267c65;}.cls-11{fill:#c45640;}.cls-12{fill:#297b65;}.cls-13{fill:#dcb537;}.cls-14{fill:#f2f2f2;}.cls-15{fill:#387664;}.cls-16{fill:#587269;}.cls-17{fill:#d2d1d1;}.cls-18{clip-path:url(#clip-path-2);}</style><clipPath id="clip-path"><path class="cls-1" d="M102,9.75l4,59.65s7.48-2.67,17.27-6.14,25,2.86,25,2.86l24.7-53.84Z"/></clipPath><clipPath id="clip-path-2"><ellipse class="cls-2" cx="123.88" cy="139.26" rx="96.96" ry="96.71"/></clipPath></defs><title>GraphicE</title><circle class="cls-3" cx="122.88" cy="140.01" r="100.46"/><g class="cls-4"><path class="cls-5" d="M122.8,35.41a48.43,48.43,0,0,1,4.32-9.29c1-1.66,2.23-3.17,4.39-3.28a4.8,4.8,0,0,1,4.83,4.26,34.53,34.53,0,0,1-.26,14.2,8,8,0,0,0-.58,3.38c2.12-2.61,4.8-4,7.36-5.58a6.77,6.77,0,0,1,3.93-1.24c1.44.06,1.93.7,1.91,2.08-.11,8.23-4.18,14.43-10,19.75a14.35,14.35,0,0,0-1.69,2c-1.89,2.5-1.9,2.69,1.28,3.07,9,1.07,17.41,4.06,25.7,7.4a37.7,37.7,0,0,1,12.16,7.37,8.89,8.89,0,0,0,2.69,1.61,4.23,4.23,0,0,1,2.35,2c.47,1,1.07,1,1.92.46,2.55-1.76,5.19-3.26,8.41-3.55a17.13,17.13,0,0,1,7.23.61,3.94,3.94,0,0,1,2.47,2.95c1.09,3.7-.11,6.62-3.05,8.95-1.6,1.26-3.17,2.56-4.79,3.79A1.2,1.2,0,0,0,192.9,98c2,4.13,2.85,8.69,4.87,12.86,1.09,2.25,1.25,5.14,1.77,7.76.94,4.8.22,9.64.92,14.42a1.43,1.43,0,0,0,1.1,1.34c1.44.47,2.88.94,4.29,1.48a6.94,6.94,0,0,1,3.52,10.44c-.75,1.24-1.66,2.39-2.51,3.57a3.38,3.38,0,0,1-3.26,1.28c-1.34-.1-1.93.16-2.21,1.76a6,6,0,0,0,1.94,5.88c4.64,4.57,7.58,10.22,9.81,16.3a29.23,29.23,0,0,1,2.07,8.24c.41,6.38-1.7,12-5.09,17.27A70.37,70.37,0,0,1,202,210.86c-4.86,5.09-11,7.52-17.74,8.56-4.29.66-8.71,1.34-13,.36-5.43-1.23-10.93-2.49-14.69-7.27a22.76,22.76,0,0,1-3.19-5.38,2.33,2.33,0,0,0-2.44-1.72c-3.55-.08-7.08.48-10.63.25-1.06-.07-.61.75-.48,1.25a18.22,18.22,0,0,1,.59,7.56c-.53,3.15-2.78,4.4-5.22,5.53-1,.48-1.91-.29-2.54-1.09-2.43-3.1-4.44-6.42-5.08-10.39-.24-1.47-.79-2-2.46-1.77a14.29,14.29,0,0,1-7.23-.65c-3.43-1.3-7.15-1.59-10.56-3a1.54,1.54,0,0,0-1.86.61c-2.66,3.5-6.61,5.49-9.84,8.33a13.72,13.72,0,0,1-6.35,2.76A17.13,17.13,0,0,0,85.06,216c-4.33,2.17-8.9,1.9-13.5,1.45-2.37-.23-4.76-.07-7.15-.27-3.12-.26-5.81-1.56-8.54-2.84a42.48,42.48,0,0,1-9.65-6.49A22,22,0,0,1,39.15,195a63.42,63.42,0,0,1-.95-14.89c.17-3.27,1.41-6.34,2.24-9.48a38.09,38.09,0,0,1,8-14.8,12.69,12.69,0,0,1,3.71-3.14,1.84,1.84,0,0,0,1-2.16c-.29-2.14-.53-4.26-2.15-5.93a2.92,2.92,0,0,1-.61-2,8.18,8.18,0,0,1,4.72-7.49c.6-.26,1.53-.33,1.28-1.33-.73-2.85.6-5.49.81-8.24.11-1.39.53-2.76.52-4.14,0-4.72.71-9.41.39-14.13A30.59,30.59,0,0,0,57,99.36c-1.46-4.29-2.94-5-7.53-5.87-1.84-.33-3.7-.11-5.54-.29-3.92-.39-6.18-2.93-6.12-6.87.08-5.33,2.39-7.86,7.67-8.16a56.45,56.45,0,0,1,12.18.65,5.55,5.55,0,0,1,2.74,1.07c2.4,2,5.09,3.73,6.6,6.61a1.78,1.78,0,0,0,1.8,1.05c3.9,0,7.8.05,11.69-.34a5.25,5.25,0,0,0,3.66-1.78c3.71-4.29,7.59-8.38,12.93-10.72a6.83,6.83,0,0,0,1.75-1.15A19.52,19.52,0,0,1,106,69.4c2.94-.93,2.89-1.08,2.86-4.1,0-4.49.14-9-.09-13.47-.29-5.52-.78-11-.59-16.56A126.32,126.32,0,0,1,109.26,21a14.39,14.39,0,0,1,4.21-8.28c1.61-1.55,3.47-1.46,5.1.06a9.08,9.08,0,0,1,2.53,4.45c1.49,5.4,1.34,10.94,1.69,16.44C122.83,34.28,122.8,34.84,122.8,35.41ZM69.26,100.85c-.05,3.32.42,6.66-.09,9.94-1,6.8-1.22,8.36-.3,9.75.81-10.67,3.77-20.39,10.48-29.12-3,0-5.56.58-8.15.44-2.33-.13-2.33,0-2.23,2.35S68.68,98.66,69.26,100.85Zm8.06,82.94c.55.81,1.05,1.67,1.66,2.44,2.49,3.18,4.35,7,9.31,7.27,3.61.2,7.11,1.48,10.75,1.84,1.41.14,2-.36,2-1.78a57.51,57.51,0,0,1,.32-7.66c.22-1.41-.61-2-1.92-2.1-3.07-.14-6.15-.25-9.22-.38-4.3-.75-8.63-.21-12.94-.27C76.91,183.15,77.14,183.57,77.32,183.8Zm64.06,18.49c2.38,0,4.76.07,7.14,0A20.19,20.19,0,0,0,154,202c1.11,0,2.21,0,3.32,0,1.85-.07,3.71.18,5.55-.32,1.14-.31,1.62-.69,1.25-2-.73-2.69-2.47-4.71-4.18-6.72a3.83,3.83,0,0,0-3.8-1.12,102.36,102.36,0,0,1-11,1.51c-3.2,0-6.4,0-9.59,0-.74,0-.74,0-.92.72.21.6.39,1.2.64,1.78.65,1.53,1.75,3,1.78,4.65,0,2.4,1.27,2.55,3.09,2.11C140.59,202.41,141,202.36,141.38,202.29ZM80.39,180c3.39.66,6.8.23,10.2.27,3.4.33,6.8.65,10.19,1,.59.06,1,.06,1.05-.72s.27-1.83.31-2.75c.14-3.54.06-7.1.39-10.61a9.71,9.71,0,0,0-4.13-9.37c-.64-.48-.86-.56-1.44.14-2.72,3.32-5.52,6.59-8.34,9.83-3,3.42-5.68,7.05-8.43,10.65C79.84,178.86,79.12,179.6,80.39,180Zm56.42,9.45a90.77,90.77,0,0,0,13.7-.92c6.44-1,12.89-1.87,19.35-2.58,6-.66,10.48-3.26,13.27-8.59,2-3.85,4.27-7.54,5.92-11.61,5-12.26,8.37-24.72,6.91-38.16-.55-5-.8-10.07-2.51-14.89a41.14,41.14,0,0,1-2-7.55,20.05,20.05,0,0,0-1.6-5.13c-.52-1.16-1.14-1.47-2.24-.85a100.94,100.94,0,0,1-11.73,5.24,121.39,121.39,0,0,1-12.81,4.9,107.11,107.11,0,0,1-16.73,3.37c-4.93.56-9.66.21-13.68-3.19-.92-.78-1.59-1.68-1-2.85a2.14,2.14,0,0,1,2.67-1.12c4.44,1.19,8.61.29,12.7-1.49a200.32,200.32,0,0,0,29.29-16c1.33-.86,1.31-1.38.35-2.46-4.27-4.74-9.72-7.76-15.45-10.14a167.06,167.06,0,0,0-16-5.43c-4.52-1.36-9.31-1.41-13.91-2.37s-9.18-.18-13.66,1.35a98.12,98.12,0,0,0-9.8,4.5C99.6,77.29,92,81.88,85.94,89c-3.63,4.31-7,8.67-9.37,13.78a35.86,35.86,0,0,0-2.73,6.74c-.84,3.68-1,7.47-1.61,11.18a135.43,135.43,0,0,1-4,19.06c-1.46,4.75-2.11,9.74-3.28,14.59-1,4.24.93,7.37,3.51,10.32a4,4,0,0,0,1.8,1c2.16.71,3.41-.14,3.48-2.4a15.21,15.21,0,0,0,0-2.27c-.67-5.42,0-10.82.48-16.2.43-4.81,3.24-8.75,5.35-12.93a2.05,2.05,0,0,1,.74-.74,1.78,1.78,0,0,1,2.13,0,1.54,1.54,0,0,1,.3,2.06c-.21.41-.49.8-.66,1.22-.25.61-1,1.24-.4,1.88s1.19.16,1.81,0a25.35,25.35,0,0,1,10.15-1.17,16.63,16.63,0,0,0,4.19,0c5.2-1,9.88.67,14.5,2.67a2.81,2.81,0,0,1,1.4,1.26c1.25,2.32,0,7.35-2.37,8.35-2.93,1.21-3.79,3.4-3.88,6.17,0,1.43-1.06,3.09-.12,4.25,1.6,2,2.51,4.29,3.86,6.34,3.23,4.88,3.17,10.23,2.62,15.61-.2,2-.33,3.93-.58,5.88-.11.89.45,1.1,1.09,1.26A79.68,79.68,0,0,0,136.81,189.42ZM48.27,81.63a23.73,23.73,0,0,0-2.62,0c-1.58.18-3.12.52-3.93,2.15-1.46,2.9.74,6.09,4.33,6.2a47.62,47.62,0,0,1,8.79,1,4.55,4.55,0,0,1,3.45,2.67,31.89,31.89,0,0,1,2.87,10.54,122.71,122.71,0,0,1-1.53,27.08,5.69,5.69,0,0,0,0,2.41,1.64,1.64,0,0,0,1.72,1.4c1.09,0,1.38-.74,1.56-1.55a14.19,14.19,0,0,0,.37-2.58c.2-6.13,1.45-12.15,2.13-18.22A88,88,0,0,0,65.27,93a11.37,11.37,0,0,0-3.15-6.57C58.28,82.48,53.46,81.57,48.27,81.63Zm95.17,27c5.76.21,11.28-1,16.78-2.16s10.44-3.86,15.58-5.94a108.82,108.82,0,0,0,15.62-7.64,22.72,22.72,0,0,0,5.9-5.52c1.12-1.38.85-2.39-.7-3.27a7.17,7.17,0,0,0-1.93-.75c-3.12-.7-5.92.35-8.4,2-4.05,2.71-8.47,4.83-12.36,7.82a29,29,0,0,1-4,3c-7.85,4.08-15.83,7.91-24,11.34C145.1,107.89,144.27,108.27,143.44,108.63ZM112.66,67.1a45.33,45.33,0,0,1,4.43-1.94A2.36,2.36,0,0,0,119,62.5c.05-8.43.09-16.87.69-25.3.39-5.48-.52-10.91-.85-16.36a6.56,6.56,0,0,0-1.29-3.75c-.58-.73-1.3-1.58-2.25-1.48s-1.54,1.2-1.82,2.14c-.47,1.61-.81,3.26-1.14,4.91-.64,3.19-.06,6.52-1.05,9.67a7.05,7.05,0,0,0-.29,2.59c.46,7.19.84,14.38,1.39,21.56C112.63,60,112.64,63.44,112.66,67.1ZM49.7,180H46.9c-2.19,0-2.58,1.34-2.83,3.52,0,.35,0,1.19,0,1.54A33.73,33.73,0,0,0,46.84,198a16.06,16.06,0,0,0,5.25,6.89c1.11.79,1.91.66,2.65-.39s1.29-1.91,2-2.8c2.46-2.95,4.95-5.85,7.46-8.76.7-.81.62-1.39-.38-1.66-2.9-.79-4.91-3.74-6.29-6.21C55.78,181.85,53.56,180,49.7,180Zm26.58-8.71c0,2.53,0,4.22,0,5.91a1.09,1.09,0,0,0,.24.77c.38.29.59-.14.85-.34,1.21-1,1.82-2.41,2.81-3.54,4.74-5.45,8.52-11.64,13.09-17.22.83-1,.77-1.67-.62-2.16a54,54,0,0,0-11.53-2.37c-4-.49-4.6.25-4.5,4.27,0,.17,0,.35,0,.53C77.05,162.17,76.12,167.15,76.27,171.31ZM134,33.94a21.31,21.31,0,0,0-.74-5.68,2.37,2.37,0,0,0-2.15-1.78c-.87-.1-1.38.67-1.67,1.33A77.74,77.74,0,0,0,124.49,41c-.63,2.56.06,5.23-.59,7.8a14.11,14.11,0,0,0-.63,4.12c.16,2.9-.24,5.76-.29,8.64,0,.6-.5,1.42.25,1.71a2.27,2.27,0,0,0,2.24-.62,3.68,3.68,0,0,0,.88-1.68c1.7-4.87,3.33-9.77,5.06-14.64C132.84,42.35,134.07,38.26,134,33.94ZM84.12,139.35c-.87,0-1.75,0-2.62,0a1.78,1.78,0,0,0-1.73,1,19.58,19.58,0,0,0-1.67,4.2c-.19.65-.08,1.16.79,1.15a120.76,120.76,0,0,1,14,.86c4,.44,8.07-.61,12.14-.64a7.79,7.79,0,0,0,3.7-.84c1.85-1,2.1-2.71.45-4a11.85,11.85,0,0,0-8.8-2.63C95,139,89.6,140.08,84.12,139.35ZM75.6,212.52a18.36,18.36,0,0,0,5-1.1c3.36-1.05,6.89-1.64,9.9-3.69,1.11-.76,1.35-1.39.4-2.45-1.12-1.25-2.09-2.64-3.19-3.92A6.08,6.08,0,0,0,85,199.14c-3-.93-6-1.84-9-2.82-1-.31-1.24-.07-1.23.9,0,4.53-.24,9-.67,13.55C74.07,212,74.46,212.72,75.6,212.52Zm-7.48,0c2,0,2.53-.48,2.56-2.21.09-4.46-.37-9,.75-13.37.22-.86.78-1.85-.56-2.33s-2.46-1.43-3.79.28c-2.57,3.3-5.4,6.39-8.07,9.61s-2.73,3.36,1.3,5.31A26.55,26.55,0,0,0,68.12,212.47Zm127.35-52.56c-.91.44-1,1.16-1.29,1.79-3.79,8.26-6,17.3-12.06,24.44-.26.3-.4.7-.64,1a1,1,0,0,0,0,1.28,7.63,7.63,0,0,1,1.53,4.89c0,.4.16,1,.64.72,2.29-1.51,5.17-2.33,6.34-5.2a26.65,26.65,0,0,0,1.73-5.45q1.61-9.05,3.12-18.12C195.15,163.52,195.26,161.71,195.46,159.92Zm5.3,4.07a1.65,1.65,0,0,0-.67,1.21q-1.56,8.82-3.1,17.64c-.22,1.25.45,1.62,1.59,1.66a62.46,62.46,0,0,1,8,.46c1.93.32,2.11-.42,2-1.9A38.93,38.93,0,0,0,204.06,168,12.45,12.45,0,0,0,200.76,164Zm-73.83,39.1c-.51-4.45-2.83-7.55-5.91-10.16a3.4,3.4,0,0,0-1.76-.68c-2.11-.22-4.12-.6-5.75-2.13-.32-.31-.94-.66-1.1,0-.66,3-2.74,5.22-3.78,8-.33.86-.14,1.66.65,1.9,1.93.59,3.7,1.55,5.7,2,3.47.82,7.13.45,10.49,1.83C126.45,204.29,126.79,203.6,126.93,203.08Zm55.95-.34c.4,3.3.57,5.9,1.08,8.47.28,1.42,1,1.54,2.11,1.12,1.3-.5,2.62-1,3.87-1.58,2.81-1.36,5.8-2.45,8-4.9.69-.78,1.26-1.63.11-2.3-2.48-1.44-4.1-3.74-6.06-5.7-.36-.37-.58-.71-1.28-.35a60.6,60.6,0,0,1-5.54,2.53C183.51,200.67,182.55,201.59,182.88,202.74Zm25.32-14c-.08-.86-.61-1.06-1.32-1.08-3.13-.11-6.27-.23-9.4-.37a1.74,1.74,0,0,0-1.89,1.19c-.79,1.87-1.65,3.72-2.5,5.56-.23.49-.53,1,.06,1.4,2.72,1.73,4.26,4.56,6.43,6.8.73.74,1.23.45,1.71-.17a49.34,49.34,0,0,0,3.22-4.33C206.22,194.93,207,191.71,208.2,188.72ZM131.36,63.37c1,.37,1.53-.23,1.84-1.27a5.75,5.75,0,0,1,1.74-2.78c2.66-2.27,4.27-5.51,7.08-7.64a2.38,2.38,0,0,0,.56-.87,27.9,27.9,0,0,0,2.66-7.68c.1-.56.58-1.26.07-1.63s-1.26.1-1.76.42c-2.12,1.36-3.77,3.26-5.66,4.89a11.77,11.77,0,0,0-3.4,4.34c-1.5,3.58-3.07,7.13-4.63,10.69C129.24,63.28,130,63.45,131.36,63.37ZM52.87,160.95A12.27,12.27,0,0,0,49,166.06c-.94,2.43-1.65,5-2.79,7.31a9.59,9.59,0,0,0-.78,3.55c-.06.88.2,1.26,1.14,1.28,1.74,0,3.48.13,5.21.32,1.55.17,2-.28,2.16-2C54.27,171.42,52.53,166.46,52.87,160.95Zm121.36,49.47c-.24-2.16-.17-4.84-1.32-7.37-1.59-3.51-3.63-6.84-4.55-10.64a2.34,2.34,0,0,0-1.83-1.91c-1.63-.35-2.09.12-1.63,1.71,1.5,5.11,3,10.22,4.53,15.32a19.2,19.2,0,0,0,1.61,4.4c.59,1,1.11,2.43,2.41,2.09s.72-1.77.77-2.77C174.24,211.13,174.23,211,174.23,210.41Zm-116-44.8a9.63,9.63,0,0,0,0,2.54c.09,3.09,2,5.87,1.35,9.1-.3,1.4.76,1.88,2,2,2.31.21,4.61.47,6.91.74.68.08,1.53.6,2,0s-.35-1.36-.67-2a10.6,10.6,0,0,0-.86-1.31c-2.07-3-5-5.21-7.32-8C60.67,167.56,60,166.08,58.2,165.62Zm14.5,11.89A25.85,25.85,0,0,1,74,172.65a5.58,5.58,0,0,0,.07-2.25c-.11-.93-.57-1.53-1.67-1.13a3.79,3.79,0,0,1-2.22,0c-4.22-1-6.22-4.14-7.9-7.72-1-2.16-.41-4.35-.25-6.68l-3,1c-2.05.72-2.51,1.58-1.91,3.67a6,6,0,0,0,1.43,2.35c4,4.51,8.81,8.31,12.19,13.41A25.78,25.78,0,0,0,72.7,177.51Zm54,16.17a6.32,6.32,0,0,1,1.76,3.49c.78,3,1.53,6,2.44,8.9.8,2.59,1.26,5.33,2.92,7.6.46.62,1,1.29,1.82,1s.73-1.07.75-1.79c.19-6.29-2-11.85-5.21-17.1A4.28,4.28,0,0,0,126.75,193.68ZM57.62,138.6c-.88.15-1.59-.17-2.19.43a3.77,3.77,0,0,0,1.4,6.36c1.36.49,2.78.81,4.18,1.17,1.71.43,2.4,0,2.58-1.79a12.37,12.37,0,0,1,.92-3.69c.52-1.2.13-2-1.2-2A29.56,29.56,0,0,1,57.62,138.6Zm122.2,56.68c-.29-1.42.18-3.11-1.07-4.23-1.82-1.63-3.84-2.72-6.44-1.67-.8.32-1.12.52-.74,1.41.95,2.23,1.81,4.5,2.71,6.74.82,2,.82,2,2.87,1C178.54,197.88,180.22,197.45,179.82,195.28ZM201.45,147c3.15,0,5.15-1.92,5-4.8-.09-1.7-2.09-3.37-4.58-3.89-1.21-.25-1.86.15-2,1.41-.2,1.55-.51,3.09-.73,4.64C198.75,147,198.77,147,201.45,147ZM166.93,213.2c-.47-1.7-.85-3.13-1.26-4.56-1-3.38-1-3.38-4.43-3.2a11,11,0,0,1-1.22,0c-1.24-.08-1.36.49-1,1.49C160.48,210.44,163.27,212.11,166.93,213.2ZM63.15,182.46c-1.48-.1-1.54-.07-1.36.67.61,2.47,2.76,4.11,6.17,4.46,2.2.23,2.65-1.93,3.74-3.15.55-.62.53-1.27-.61-1.35C68.44,182.91,65.79,182.68,63.15,182.46Zm117.76,25.59a27.72,27.72,0,0,0-.28-4.18c-.4-2.22-.3-2.16-2.52-1.51-1.34.4-1.61.92-1,2.22a14.27,14.27,0,0,1,1.22,7.48c-.06.58-.57,1.34.54,1.44.77.07,1.47.1,1.75-1A18.15,18.15,0,0,0,180.91,208.05Zm-75.12-40.46c0,4.26,0,8,0,11.76a6.06,6.06,0,0,0,.29,1.36,1.37,1.37,0,0,0,1.63,1.2c.9-.14.78-.92.71-1.52-.24-2-.17-4-.42-5.9C107.72,172.25,107.68,169.86,105.79,167.59Zm-3-16.27c0-1.95-.09-2-2.37-1.8-.74.07-1.75.06-1.94.84s.87.78,1.37,1.15a5.56,5.56,0,0,0,1.2.71c.51.21,1,.9,1.53.54S102.73,151.77,102.81,151.32ZM78.94,191.06a16.69,16.69,0,0,0-2.11-3.35.72.72,0,0,0-.89-.37c-.43.15-.35.55-.38.88C75.45,189.64,76.61,190.64,78.94,191.06ZM92.1,201.52c.31,1.27,1.15,1.78,1.68,2.52s1.11.51,1.7.24c.39-.18,1-.35,1-.85s-.86-.61-1.37-.8Zm14.49-16.66c-1.41,1.45-.73,3-.58,4.5C106.51,187.94,107.71,186.59,106.59,184.86Z"/><path class="cls-6" d="M136.81,189.42a79.68,79.68,0,0,1-22.46-2.58c-.64-.16-1.2-.37-1.09-1.26.25-2,.39-3.93.58-5.88.55-5.38.61-10.73-2.62-15.61-1.35-2-2.26-4.37-3.86-6.34-.94-1.16.08-2.81.12-4.25.09-2.77.94-5,3.88-6.17,2.42-1,3.62-6,2.37-8.35a2.81,2.81,0,0,0-1.4-1.26c-4.63-2-9.3-3.63-14.5-2.67a16.63,16.63,0,0,1-4.19,0,25.35,25.35,0,0,0-10.15,1.17c-.62.21-1.35.54-1.81,0s.15-1.27.4-1.88c.17-.43.45-.81.66-1.22a1.54,1.54,0,0,0-.3-2.06,1.78,1.78,0,0,0-2.13,0,2.05,2.05,0,0,0-.74.74c-2.11,4.18-4.92,8.12-5.35,12.93-.48,5.38-1.15,10.77-.48,16.2a15.21,15.21,0,0,1,0,2.27c-.06,2.26-1.31,3.11-3.48,2.4a4,4,0,0,1-1.8-1c-2.58-3-4.53-6.08-3.51-10.32,1.17-4.85,1.82-9.84,3.28-14.59a135.43,135.43,0,0,0,4-19.06c.58-3.72.77-7.5,1.61-11.18a35.86,35.86,0,0,1,2.73-6.74c2.33-5.11,5.74-9.47,9.37-13.78,6-7.13,13.66-11.73,21.87-15.59a98.12,98.12,0,0,1,9.8-4.5c4.48-1.53,8.91-2.34,13.66-1.35s9.39,1,13.91,2.37a167.06,167.06,0,0,1,16,5.43c5.73,2.39,11.18,5.4,15.45,10.14,1,1.08,1,1.6-.35,2.46a200.32,200.32,0,0,1-29.29,16c-4.09,1.77-8.26,2.68-12.7,1.49a2.14,2.14,0,0,0-2.67,1.12c-.55,1.17.12,2.07,1,2.85,4,3.4,8.75,3.75,13.68,3.19A107.11,107.11,0,0,0,163,109.28a121.39,121.39,0,0,0,12.81-4.9,100.94,100.94,0,0,0,11.73-5.24c1.1-.62,1.73-.31,2.24.85a20.05,20.05,0,0,1,1.6,5.13,41.14,41.14,0,0,0,2,7.55c1.71,4.82,2,9.86,2.51,14.89,1.46,13.44-2,25.89-6.91,38.16-1.65,4.06-3.9,7.76-5.92,11.61-2.79,5.33-7.3,7.93-13.27,8.59-6.46.71-12.92,1.6-19.35,2.58A90.77,90.77,0,0,1,136.81,189.42Zm-15-98.87c0-2.41-1-3.88-2.62-3.84-1.84,0-4.35,2.79-4.41,4.81,0,1.37,1.18,2.39,2.83,2.38C120.28,93.86,121.82,92.63,121.8,90.54Zm17,.57c0,1.8,1.5,3.48,3,3.44,1.75,0,4.2-1.83,4.16-3-.07-1.83-2.11-3.41-4.38-3.39A3,3,0,0,0,138.76,91.12Z"/><path class="cls-7" d="M48.27,81.63c5.19-.05,10,.85,13.86,4.83A11.37,11.37,0,0,1,65.27,93a88,88,0,0,1,.14,19.76c-.68,6.07-1.93,12.09-2.13,18.22a14.19,14.19,0,0,1-.37,2.58c-.18.81-.47,1.58-1.56,1.55a1.64,1.64,0,0,1-1.72-1.4,5.69,5.69,0,0,1,0-2.41,122.71,122.71,0,0,0,1.53-27.08,31.89,31.89,0,0,0-2.87-10.54A4.55,4.55,0,0,0,54.83,91,47.62,47.62,0,0,0,46,90c-3.59-.11-5.78-3.3-4.33-6.2.82-1.63,2.35-2,3.93-2.15A23.73,23.73,0,0,1,48.27,81.63Z"/><path class="cls-8" d="M143.44,108.63c.83-.37,1.66-.74,2.5-1.1,8.16-3.43,16.14-7.26,24-11.34a29,29,0,0,0,4-3c3.89-3,8.31-5.11,12.36-7.82,2.48-1.66,5.29-2.71,8.4-2a7.17,7.17,0,0,1,1.93.75c1.55.88,1.82,1.88.7,3.27a22.72,22.72,0,0,1-5.9,5.52,108.82,108.82,0,0,1-15.62,7.64c-5.14,2.07-10.11,4.78-15.58,5.94S149.2,108.84,143.44,108.63Z"/><path class="cls-9" d="M112.66,67.1c0-3.65,0-7.13-.3-10.61-.55-7.18-.93-14.37-1.39-21.56a7.05,7.05,0,0,1,.29-2.59c1-3.16.41-6.48,1.05-9.67.33-1.65.68-3.3,1.14-4.91.27-.94.74-2,1.82-2.14s1.66.75,2.25,1.48a6.56,6.56,0,0,1,1.29,3.75c.33,5.45,1.24,10.88.85,16.36-.6,8.42-.63,16.86-.69,25.3a2.36,2.36,0,0,1-1.88,2.66A45.33,45.33,0,0,0,112.66,67.1Z"/><path class="cls-10" d="M80.39,180c-1.27-.37-.54-1.11-.19-1.57,2.75-3.6,5.46-7.23,8.43-10.65,2.82-3.24,5.62-6.51,8.34-9.83.58-.71.8-.63,1.44-.14a9.71,9.71,0,0,1,4.13,9.37c-.34,3.52-.25,7.07-.39,10.61,0,.92-.26,1.83-.31,2.75s-.47.78-1.05.72c-3.4-.34-6.79-.66-10.19-1a1.38,1.38,0,0,0-1.14-.29Z"/><path class="cls-10" d="M76.27,171.31c-.15-4.16.78-9.14.35-14.15,0-.17,0-.35,0-.53-.11-4,.47-4.76,4.5-4.27a54,54,0,0,1,11.53,2.37c1.39.49,1.45,1.15.62,2.16-4.57,5.58-8.35,11.77-13.09,17.22-1,1.14-1.6,2.58-2.81,3.54-.26.21-.48.63-.85.34a1.09,1.09,0,0,1-.24-.77C76.26,175.54,76.27,173.85,76.27,171.31Z"/><path class="cls-10" d="M145.2,193.29a102.36,102.36,0,0,0,11-1.51,3.83,3.83,0,0,1,3.8,1.12c1.71,2,3.45,4,4.18,6.72.37,1.36-.11,1.73-1.25,2-1.84.5-3.7.25-5.55.32-1.1,0-2.21,0-3.32,0-3.32,0-6.63,0-9.94,0-.9,0-1.86-.3-2.71.29-.4.07-.8.12-1.19.22-1.82.44-3,.3-3.09-2.11,0-1.68-1.12-3.12-1.78-4.65-.25-.58-.43-1.19-.64-1.78.62-.64,1.41-.31,2.13-.36C139.61,193.39,142.43,194,145.2,193.29Z"/><path class="cls-11" d="M134,33.94c.08,4.32-1.14,8.41-2.56,12.38-1.74,4.86-3.37,9.76-5.06,14.64a3.68,3.68,0,0,1-.88,1.68,2.27,2.27,0,0,1-2.24.62c-.75-.29-.26-1.11-.25-1.71,0-2.88.45-5.74.29-8.64a14.11,14.11,0,0,1,.63-4.12c.65-2.58,0-5.24.59-7.8a77.74,77.74,0,0,1,4.92-13.17c.3-.66.8-1.42,1.67-1.33a2.37,2.37,0,0,1,2.15,1.78A21.31,21.31,0,0,1,134,33.94Z"/><path class="cls-10" d="M90.26,183.43c3.08.13,6.15.24,9.22.38,1.31.06,2.14.69,1.92,2.1a57.51,57.51,0,0,0-.32,7.66c0,1.42-.63,1.92-2,1.78-3.63-.36-7.13-1.64-10.75-1.84-5-.28-6.82-4.09-9.31-7.27-.6-.77-1.11-1.62-1.66-2.44.5-.59,1.19-.35,1.8-.35C82.84,183.42,86.55,183.43,90.26,183.43Z"/><path class="cls-7" d="M84.12,139.35c5.48.73,10.85-.38,16.26-1a11.85,11.85,0,0,1,8.8,2.63c1.66,1.31,1.4,3-.45,4a7.79,7.79,0,0,1-3.7.84c-4.08,0-8.19,1.07-12.14.64a120.76,120.76,0,0,0-14-.86c-.86,0-1-.5-.79-1.15a19.58,19.58,0,0,1,1.67-4.2,1.78,1.78,0,0,1,1.73-1C82.37,139.37,83.24,139.35,84.12,139.35Z"/><path class="cls-12" d="M195.46,159.92c-.2,1.8-.32,3.6-.61,5.38q-1.5,9.07-3.12,18.12a26.65,26.65,0,0,1-1.73,5.45c-1.18,2.86-4.05,3.69-6.34,5.2-.48.31-.66-.32-.64-.72a7.63,7.63,0,0,0-1.53-4.89,1,1,0,0,1,0-1.28c.23-.33.38-.73.64-1,6.05-7.14,8.28-16.18,12.06-24.44C194.46,161.08,194.55,160.36,195.46,159.92Z"/><path class="cls-10" d="M126.93,203.08c-.15.52-.48,1.21-1.46.81-3.36-1.38-7-1-10.49-1.83-2-.47-3.77-1.43-5.7-2-.79-.24-1-1-.65-1.9,1-2.76,3.13-5,3.78-8,.16-.71.78-.35,1.1,0,1.62,1.53,3.64,1.9,5.75,2.13a3.4,3.4,0,0,1,1.76.68C124.1,195.53,126.42,198.63,126.93,203.08Z"/><path class="cls-11" d="M131.36,63.37c-1.32.08-2.13-.09-1.5-1.52,1.56-3.56,3.14-7.11,4.63-10.69a11.77,11.77,0,0,1,3.4-4.34c1.89-1.63,3.55-3.53,5.66-4.89.5-.32,1.21-.82,1.76-.42s0,1.08-.07,1.63a27.9,27.9,0,0,1-2.66,7.68,2.38,2.38,0,0,1-.56.87c-2.81,2.13-4.42,5.37-7.08,7.64a5.75,5.75,0,0,0-1.74,2.78C132.9,63.14,132.33,63.74,131.36,63.37Z"/><path class="cls-12" d="M69,94.2c-.1-2.37-.1-2.47,2.23-2.35,2.59.14,5.14-.43,8.15-.44-6.71,8.73-9.66,18.45-10.48,29.12-.92-1.39-.74-2.94.3-9.75.5-3.28,0-6.63.09-9.94C69.12,98.64,69.61,96.39,69,94.2Z"/><path class="cls-13" d="M174.23,210.41c0,.6,0,.72,0,.84,0,1,.46,2.46-.77,2.77s-1.83-1.11-2.41-2.09a19.2,19.2,0,0,1-1.61-4.4c-1.55-5.09-3-10.21-4.53-15.32-.47-1.59,0-2.06,1.63-1.71a2.34,2.34,0,0,1,1.83,1.91c.93,3.8,3,7.13,4.55,10.64C174.06,205.57,174,208.25,174.23,210.41Z"/><path class="cls-12" d="M58.2,165.62c1.8.46,2.47,1.95,3.42,3.06,2.34,2.75,5.26,5,7.32,8A10.6,10.6,0,0,1,69.8,178c.32.65,1.14,1.33.67,2s-1.28.1-2,0c-2.3-.28-4.6-.54-6.91-.74-1.27-.11-2.33-.59-2-2,.7-3.23-1.26-6-1.35-9.1A9.63,9.63,0,0,1,58.2,165.62Z"/><path class="cls-12" d="M72.7,177.51a25.78,25.78,0,0,1-1.94-2.23c-3.38-5.1-8.17-8.9-12.19-13.41a6,6,0,0,1-1.43-2.35c-.59-2.09-.14-3,1.91-3.67l3-1c-.16,2.33-.76,4.52.25,6.68,1.68,3.58,3.68,6.75,7.9,7.72a3.79,3.79,0,0,0,2.22,0c1.1-.4,1.56.21,1.67,1.13a5.58,5.58,0,0,1-.07,2.25A25.85,25.85,0,0,0,72.7,177.51Z"/><path class="cls-13" d="M126.75,193.68a4.28,4.28,0,0,1,4.49,2.1c3.19,5.25,5.4,10.81,5.21,17.1,0,.72,0,1.52-.75,1.79s-1.36-.38-1.82-1c-1.66-2.27-2.12-5-2.92-7.6-.91-2.94-1.66-5.92-2.44-8.9A6.32,6.32,0,0,0,126.75,193.68Z"/><path class="cls-7" d="M57.62,138.6a29.56,29.56,0,0,0,5.68.47c1.33,0,1.72.8,1.2,2a12.37,12.37,0,0,0-.92,3.69c-.18,1.8-.87,2.23-2.58,1.79-1.4-.35-2.82-.68-4.18-1.17a3.77,3.77,0,0,1-1.4-6.36C56,138.44,56.74,138.75,57.62,138.6Z"/><path class="cls-12" d="M179.82,195.28c.4,2.17-1.28,2.6-2.67,3.28-2.05,1-2.05,1-2.87-1-.9-2.25-1.76-4.52-2.71-6.74-.38-.89-.06-1.09.74-1.41,2.61-1.05,4.62,0,6.44,1.67C180,192.17,179.53,193.86,179.82,195.28Z"/><path class="cls-7" d="M201.45,147c-2.68,0-2.69,0-2.33-2.63.21-1.55.52-3.09.73-4.64.17-1.26.82-1.66,2-1.41,2.49.51,4.49,2.19,4.58,3.89C206.59,145.11,204.59,147,201.45,147Z"/><path class="cls-12" d="M63.15,182.46c2.65.21,5.29.45,7.94.63,1.14.08,1.17.73.61,1.35-1.09,1.22-1.54,3.37-3.74,3.15-3.41-.35-5.56-2-6.17-4.46C61.6,182.4,61.67,182.36,63.15,182.46Z"/><path class="cls-14" d="M105.79,167.59c1.89,2.27,1.93,4.66,2.22,6.89.25,1.94.18,3.94.42,5.9.07.61.19,1.38-.71,1.52a1.37,1.37,0,0,1-1.63-1.2,6.06,6.06,0,0,1-.29-1.36C105.78,175.6,105.79,171.84,105.79,167.59Z"/><path class="cls-15" d="M102.81,151.32c-.08.45.25,1.13-.22,1.43s-1-.33-1.53-.54a5.56,5.56,0,0,1-1.2-.71c-.49-.37-1.52-.51-1.37-1.15s1.2-.77,1.94-.84C102.72,149.3,102.81,149.38,102.81,151.32Z"/><path class="cls-15" d="M78.94,191.06c-2.32-.41-3.49-1.42-3.37-2.84,0-.33-.06-.72.38-.88a.72.72,0,0,1,.89.37A16.69,16.69,0,0,1,78.94,191.06Z"/><path class="cls-16" d="M90.26,183.43c-3.71,0-7.43,0-11.14,0-.61,0-1.29-.24-1.8.35-.18-.22-.41-.64,0-.64C81.64,183.22,86,182.68,90.26,183.43Z"/><path class="cls-17" d="M106.59,184.86c1.11,1.73-.08,3.08-.58,4.5C105.86,187.87,105.18,186.31,106.59,184.86Z"/><path class="cls-16" d="M141.38,202.29c.85-.58,1.81-.28,2.71-.29,3.31,0,6.63,0,9.94,0a20.19,20.19,0,0,1-5.51.32C146.15,202.36,143.76,202.31,141.38,202.29Z"/><path class="cls-16" d="M145.2,193.29c-2.77.68-5.59.11-8.38.31-.72.05-1.51-.28-2.13.36.18-.69.18-.72.92-.72C138.8,193.24,142,193.27,145.2,193.29Z"/><path class="cls-16" d="M80.39,180l9.06,0a1.38,1.38,0,0,1,1.14.29C87.19,180.2,83.77,180.63,80.39,180Z"/><path class="cls-16" d="M69,94.2c.65,2.19.15,4.44.29,6.65C68.68,98.66,69,96.42,69,94.2Z"/><path class="cls-5" d="M121.8,90.54c0,2.09-1.52,3.32-4.19,3.35-1.65,0-2.87-1-2.83-2.38.06-2,2.56-4.76,4.41-4.81C120.77,86.66,121.77,88.13,121.8,90.54Z"/><path class="cls-5" d="M138.76,91.12a3,3,0,0,1,2.8-3c2.27,0,4.31,1.55,4.38,3.39,0,1.2-2.41,3-4.16,3C140.26,94.59,138.79,92.92,138.76,91.12Z"/></g><g class="cls-18"><path class="cls-5" d="M122.93,34.68a49,49,0,0,1,4.39-9.42c1-1.68,2.26-3.22,4.46-3.33a4.87,4.87,0,0,1,4.9,4.31,34.9,34.9,0,0,1-.27,14.38,8.1,8.1,0,0,0-.59,3.43C138,41.42,140.7,40,143.3,38.4a6.89,6.89,0,0,1,4-1.26c1.46.06,2,.71,1.94,2.11-.12,8.34-4.25,14.62-10.18,20a14.55,14.55,0,0,0-1.72,2c-1.92,2.53-1.93,2.73,1.3,3.11,9.12,1.09,17.68,4.11,26.11,7.5a38.32,38.32,0,0,1,12.36,7.47A9,9,0,0,0,179.82,81a4.3,4.3,0,0,1,2.38,2c.48,1,1.09,1.05,1.95.46,2.6-1.78,5.27-3.31,8.54-3.6a17.45,17.45,0,0,1,7.35.62,4,4,0,0,1,2.51,3c1.1,3.75-.11,6.71-3.1,9.07-1.62,1.28-3.22,2.59-4.87,3.84a1.21,1.21,0,0,0-.44,1.77c2,4.18,2.89,8.8,4.95,13,1.1,2.28,1.27,5.21,1.79,7.86,1,4.86.23,9.77.93,14.61a1.45,1.45,0,0,0,1.11,1.36c1.46.48,2.92,1,4.35,1.5a7,7,0,0,1,3.58,10.57c-.76,1.26-1.69,2.42-2.55,3.62A3.44,3.44,0,0,1,205,152c-1.36-.1-2,.16-2.25,1.78a6,6,0,0,0,2,6c4.71,4.63,7.7,10.36,10,16.52a29.56,29.56,0,0,1,2.1,8.35c.42,6.47-1.72,12.2-5.17,17.5a71.34,71.34,0,0,1-8.29,10.36c-4.93,5.16-11.18,7.62-18,8.67-4.36.67-8.85,1.35-13.21.37-5.51-1.25-11.1-2.53-14.92-7.36a23.05,23.05,0,0,1-3.24-5.46,2.37,2.37,0,0,0-2.48-1.74c-3.61-.08-7.19.48-10.8.26-1.08-.07-.61.76-.49,1.27a18.42,18.42,0,0,1,.6,7.67c-.54,3.2-2.83,4.46-5.3,5.6-1.06.49-1.94-.29-2.58-1.11-2.47-3.14-4.51-6.51-5.16-10.53-.24-1.49-.8-2-2.5-1.79a14.56,14.56,0,0,1-7.35-.66c-3.48-1.32-7.26-1.61-10.73-3a1.56,1.56,0,0,0-1.89.62c-2.7,3.55-6.72,5.56-10,8.44a14,14,0,0,1-6.45,2.79,17.44,17.44,0,0,0-4.24,1.19c-4.4,2.2-9,1.92-13.71,1.47-2.41-.23-4.84-.07-7.26-.27-3.17-.26-5.9-1.58-8.68-2.88a43.16,43.16,0,0,1-9.8-6.58,22.31,22.31,0,0,1-7.19-13.07,64.1,64.1,0,0,1-1-15.09c.17-3.31,1.44-6.42,2.27-9.61a38.56,38.56,0,0,1,8.08-15,12.89,12.89,0,0,1,3.76-3.18,1.86,1.86,0,0,0,1-2.19c-.29-2.17-.54-4.31-2.19-6a3,3,0,0,1-.62-2,8.28,8.28,0,0,1,4.79-7.59c.61-.26,1.56-.33,1.3-1.34-.74-2.89.61-5.56.82-8.35.11-1.41.53-2.8.53-4.2,0-4.78.72-9.53.4-14.32a30.92,30.92,0,0,0-1.12-8c-1.48-4.34-3-5.11-7.65-6-1.87-.34-3.75-.11-5.62-.3-4-.4-6.28-3-6.22-7,.08-5.4,2.43-8,7.8-8.26a57.5,57.5,0,0,1,12.37.66,5.65,5.65,0,0,1,2.78,1.09c2.44,2,5.17,3.78,6.71,6.7A1.81,1.81,0,0,0,68,87.52c4,0,7.93.05,11.88-.35a5.33,5.33,0,0,0,3.72-1.8C87.4,81,91.34,76.88,96.77,74.51a6.94,6.94,0,0,0,1.77-1.16,19.85,19.85,0,0,1,7.29-4.22c3-.94,2.93-1.09,2.91-4.15,0-4.55.14-9.11-.1-13.64-.3-5.59-.79-11.19-.6-16.78a127.68,127.68,0,0,1,1.13-14.42,14.57,14.57,0,0,1,4.28-8.39c1.63-1.57,3.53-1.48,5.18.06a9.19,9.19,0,0,1,2.57,4.51c1.52,5.47,1.37,11.09,1.71,16.66C123,33.54,122.93,34.11,122.93,34.68ZM68.54,101c-.05,3.36.42,6.75-.09,10.07-1.06,6.89-1.24,8.47-.31,9.88C69,110.13,72,100.28,78.79,91.43c-3.05,0-5.65.59-8.28.44-2.36-.13-2.37,0-2.27,2.38C68.25,96.51,67.94,98.77,68.54,101Zm8.19,84c.56.83,1.07,1.69,1.68,2.47,2.53,3.23,4.42,7.09,9.46,7.37,3.67.2,7.23,1.5,10.92,1.86,1.44.15,2-.37,2.08-1.8a58.13,58.13,0,0,1,.33-7.76c.23-1.43-.62-2.07-1.95-2.13-3.12-.14-6.24-.26-9.37-.38-4.37-.76-8.76-.22-13.15-.28C76.31,184.39,76.55,184.82,76.73,185Zm65.08,18.74c2.42,0,4.84.07,7.26,0a20.56,20.56,0,0,0,5.6-.32c1.12,0,2.25,0,3.37,0,1.88-.07,3.77.18,5.64-.32,1.16-.32,1.65-.69,1.27-2.07-.74-2.73-2.51-4.77-4.25-6.81a3.9,3.9,0,0,0-3.86-1.14,104.24,104.24,0,0,1-11.16,1.53c-3.25,0-6.5,0-9.75,0-.75,0-.75,0-.93.73.21.6.4,1.22.65,1.81.66,1.55,1.77,3,1.81,4.72.05,2.43,1.29,2.58,3.14,2.14C141,203.9,141.4,203.85,141.81,203.78Zm-62-22.62c3.44.67,6.91.23,10.36.28,3.45.33,6.9.66,10.35,1,.6.06,1,.06,1.07-.73s.28-1.86.32-2.79c.14-3.59.06-7.19.4-10.75a9.82,9.82,0,0,0-4.2-9.49c-.65-.49-.88-.57-1.46.15-2.77,3.37-5.61,6.67-8.47,10-3,3.47-5.77,7.15-8.56,10.79C79.29,180,78.55,180.79,79.84,181.17Zm57.32,9.57a92.45,92.45,0,0,0,13.92-.93c6.54-1,13.1-1.89,19.66-2.62,6.07-.67,10.65-3.3,13.48-8.7,2-3.9,4.34-7.64,6-11.76,5-12.43,8.51-25.05,7-38.66-.55-5.1-.81-10.2-2.55-15.09a41.6,41.6,0,0,1-2.08-7.65,20.28,20.28,0,0,0-1.63-5.19c-.52-1.18-1.16-1.49-2.28-.86a102.68,102.68,0,0,1-11.92,5.31,123.51,123.51,0,0,1-13,5,109.06,109.06,0,0,1-17,3.41c-5,.57-9.81.21-13.9-3.23-.94-.79-1.62-1.7-1.06-2.89a2.18,2.18,0,0,1,2.71-1.14c4.51,1.21,8.74.29,12.9-1.51A203.67,203.67,0,0,0,177.22,88c1.35-.87,1.33-1.4.35-2.49-4.34-4.8-9.87-7.86-15.7-10.28a170,170,0,0,0-16.21-5.5c-4.59-1.38-9.45-1.43-14.13-2.4s-9.33-.19-13.88,1.37a99.81,99.81,0,0,0-10,4.56C99.36,77.12,91.59,81.78,85.48,89c-3.69,4.36-7.16,8.78-9.52,14a36.28,36.28,0,0,0-2.77,6.83c-.85,3.73-1,7.57-1.63,11.33a136.92,136.92,0,0,1-4,19.31c-1.48,4.81-2.15,9.87-3.33,14.78-1,4.3.94,7.47,3.56,10.46a4,4,0,0,0,1.83,1c2.2.72,3.47-.14,3.53-2.43a15.37,15.37,0,0,0,0-2.3c-.68-5.5,0-11,.48-16.41.44-4.88,3.29-8.87,5.44-13.1a2.08,2.08,0,0,1,.75-.75,1.81,1.81,0,0,1,2.16,0,1.56,1.56,0,0,1,.31,2.08c-.21.42-.49.81-.67,1.24-.25.62-1,1.25-.41,1.9s1.21.16,1.84,0A25.81,25.81,0,0,1,93.3,135.7a16.94,16.94,0,0,0,4.26,0c5.28-1,10,.68,14.73,2.7a2.85,2.85,0,0,1,1.42,1.27c1.27,2.35,0,7.45-2.41,8.46-3,1.23-3.85,3.45-3.94,6.25,0,1.45-1.08,3.13-.12,4.3,1.63,2,2.54,4.35,3.92,6.42,3.28,4.94,3.22,10.36,2.67,15.82-.2,2-.33,4-.59,6-.12.9.46,1.11,1.1,1.28A81.15,81.15,0,0,0,137.16,190.74Zm-90-109.22a24.17,24.17,0,0,0-2.66,0c-1.61.18-3.17.53-4,2.18-1.48,2.94.75,6.17,4.4,6.28a48.5,48.5,0,0,1,8.93,1.06,4.62,4.62,0,0,1,3.5,2.71,32.25,32.25,0,0,1,2.91,10.68,124,124,0,0,1-1.56,27.44,5.75,5.75,0,0,0,0,2.45,1.66,1.66,0,0,0,1.75,1.41c1.11,0,1.4-.75,1.58-1.57a14.35,14.35,0,0,0,.38-2.62c.21-6.21,1.47-12.31,2.16-18.46a89,89,0,0,0-.15-20,11.51,11.51,0,0,0-3.2-6.66C57.38,82.38,52.48,81.46,47.21,81.52Zm96.69,27.36c5.85.21,11.46-1,17-2.19s10.6-3.91,15.83-6a110.67,110.67,0,0,0,15.87-7.74,23.06,23.06,0,0,0,6-5.59c1.14-1.4.86-2.42-.71-3.31a7.29,7.29,0,0,0-2-.76c-3.17-.71-6,.36-8.54,2-4.12,2.75-8.61,4.89-12.56,7.93a29.45,29.45,0,0,1-4.06,3c-8,4.14-16.08,8-24.38,11.49C145.58,108.13,144.74,108.51,143.9,108.88ZM112.63,66.79a46.11,46.11,0,0,1,4.5-2A2.39,2.39,0,0,0,119,62.13c.05-8.55.09-17.1.7-25.63.4-5.56-.53-11.05-.86-16.58a6.63,6.63,0,0,0-1.31-3.8c-.59-.74-1.32-1.6-2.28-1.5s-1.57,1.22-1.84,2.17c-.47,1.63-.83,3.31-1.16,5-.65,3.23-.06,6.6-1.07,9.8a7.13,7.13,0,0,0-.29,2.62c.47,7.28.85,14.57,1.41,21.85C112.59,59.57,112.61,63.09,112.63,66.79ZM48.66,182H45.82c-2.22,0-2.62,1-2.87,3.16a13.15,13.15,0,0,0,0,1.36,33.61,33.61,0,0,0,2.85,13,16.13,16.13,0,0,0,5.34,6.93,1.66,1.66,0,0,0,2.69-.42c.68-1,1.31-1.95,2.07-2.85q3.75-4.48,7.58-8.88c.71-.82.63-1.41-.38-1.69-2.94-.8-5-3.39-6.39-5.89C54.84,183.47,52.58,181,48.66,182Zm27-9.63c0,2.57,0,4.28,0,6a1.1,1.1,0,0,0,.24.78c.38.29.6-.14.87-.35,1.23-1,1.85-2.44,2.85-3.59,4.82-5.52,8.65-11.79,13.3-17.45.84-1,.78-1.7-.63-2.19a55,55,0,0,0-11.72-2.4c-4.09-.49-4.68.26-4.57,4.33,0,.18,0,.36,0,.53C76.45,163.13,75.51,168.18,75.66,172.39ZM134.29,33.2a21.55,21.55,0,0,0-.76-5.75,2.41,2.41,0,0,0-2.19-1.8c-.89-.1-1.4.68-1.7,1.34a78.64,78.64,0,0,0-5,13.35c-.64,2.6.06,5.3-.6,7.91a14.26,14.26,0,0,0-.64,4.17c.17,2.94-.25,5.84-.29,8.76,0,.61-.51,1.43.25,1.73a2.31,2.31,0,0,0,2.28-.63,3.72,3.72,0,0,0,.89-1.7c1.72-4.94,3.38-9.9,5.14-14.83C133.13,41.72,134.38,37.58,134.29,33.2ZM83.63,140c-.89,0-1.78,0-2.66,0a1.81,1.81,0,0,0-1.75,1,19.81,19.81,0,0,0-1.7,4.26c-.19.66-.08,1.17.8,1.17a123,123,0,0,1,14.22.87c4,.44,8.19-.62,12.33-.64a7.93,7.93,0,0,0,3.76-.85c1.88-1,2.14-2.75.45-4.08a12.06,12.06,0,0,0-8.94-2.66C94.65,139.62,89.2,140.75,83.63,140ZM75,214.14A18.69,18.69,0,0,0,80,213c3.41-1.07,7-1.66,10.06-3.74,1.13-.77,1.37-1.41.4-2.49-1.14-1.27-2.12-2.68-3.24-4a6.17,6.17,0,0,0-2.67-2.24c-3-.95-6.08-1.86-9.1-2.85-1-.32-1.26-.07-1.25.91,0,4.59-.25,9.17-.68,13.73C73.43,213.66,73.82,214.35,75,214.14Zm-7.6,0c2,0,2.57-.48,2.61-2.24.09-4.52-.37-9.08.76-13.54.22-.88.8-1.88-.57-2.37s-2.5-1.44-3.85.28c-2.61,3.34-5.49,6.47-8.2,9.73s-2.78,3.4,1.32,5.38A27,27,0,0,0,67.38,214.1Zm129.37-53.25c-.93.45-1,1.18-1.31,1.81-3.85,8.37-6.11,17.53-12.25,24.77-.26.31-.41.71-.65,1.05a1,1,0,0,0,0,1.3,7.72,7.72,0,0,1,1.56,5c0,.41.16,1.05.65.73,2.33-1.53,5.25-2.37,6.45-5.27a27,27,0,0,0,1.76-5.53q1.63-9.17,3.17-18.36C196.42,164.49,196.54,162.66,196.75,160.85Zm5.39,4.12a1.67,1.67,0,0,0-.68,1.23q-1.59,8.93-3.15,17.87c-.22,1.27.45,1.64,1.62,1.68a63.62,63.62,0,0,1,8.13.47c2,.32,2.15-.43,2-1.93A39.37,39.37,0,0,0,205.48,169,12.62,12.62,0,0,0,202.13,165Zm-75,39.62c-.51-4.51-2.88-7.65-6-10.3a3.46,3.46,0,0,0-1.79-.69c-2.14-.22-4.19-.6-5.84-2.15-.33-.31-1-.67-1.12,0-.67,3-2.78,5.29-3.84,8.08-.33.87-.14,1.68.66,1.93,2,.6,3.75,1.57,5.79,2,3.53.83,7.25.46,10.66,1.85C126.64,205.81,127,205.11,127.12,204.58Zm56.84-.35c.41,3.35.58,6,1.1,8.58.29,1.44,1,1.57,2.14,1.13,1.32-.51,2.66-1,3.93-1.6,2.86-1.38,5.89-2.48,8.08-5,.7-.79,1.28-1.65.11-2.33-2.52-1.46-4.17-3.79-6.16-5.78-.37-.37-.59-.72-1.3-.35a61.64,61.64,0,0,1-5.63,2.56C184.6,202.14,183.63,203.07,184,204.24ZM209.69,190c-.08-.87-.62-1.07-1.34-1.1-3.18-.12-6.37-.23-9.55-.37a1.77,1.77,0,0,0-1.92,1.21c-.81,1.9-1.68,3.77-2.54,5.64-.23.5-.54,1,.06,1.41,2.76,1.75,4.33,4.62,6.53,6.89.74.75,1.25.45,1.74-.17a50,50,0,0,0,3.27-4.39C207.67,196.32,208.43,193.07,209.69,190ZM131.63,63c1,.37,1.56-.23,1.87-1.29a5.82,5.82,0,0,1,1.77-2.81c2.7-2.3,4.34-5.58,7.2-7.74a2.42,2.42,0,0,0,.57-.88,28.22,28.22,0,0,0,2.71-7.78c.1-.56.59-1.27.07-1.65s-1.28.1-1.79.43c-2.15,1.38-3.83,3.31-5.75,5a11.93,11.93,0,0,0-3.46,4.4c-1.52,3.63-3.12,7.23-4.71,10.83C129.47,62.93,130.29,63.1,131.63,63ZM51.89,161.89a12.44,12.44,0,0,0-3.94,5.19c-1,2.47-1.67,5-2.83,7.41a9.7,9.7,0,0,0-.8,3.6c-.06.89.21,1.27,1.16,1.29,1.77,0,3.54.14,5.29.32,1.57.17,2.08-.28,2.19-2C53.31,172.5,51.54,167.48,51.89,161.89ZM175.18,212c-.24-2.19-.18-4.91-1.34-7.47-1.62-3.56-3.68-6.93-4.63-10.78a2.37,2.37,0,0,0-1.86-1.93c-1.66-.35-2.12.12-1.65,1.74,1.52,5.18,3,10.36,4.61,15.52a19.42,19.42,0,0,0,1.63,4.46c.6,1,1.13,2.46,2.45,2.12s.73-1.79.78-2.81C175.18,212.74,175.18,212.63,175.18,212ZM57.3,166.62a9.73,9.73,0,0,0,0,2.57c.1,3.13,2.08,5.94,1.37,9.22-.31,1.41.77,1.9,2.06,2,2.34.21,4.68.47,7,.75.69.08,1.56.61,2,0s-.36-1.38-.68-2a10.74,10.74,0,0,0-.87-1.33c-2.1-3-5.06-5.28-7.44-8.07C59.81,168.6,59.13,167.09,57.3,166.62Zm14.73,12a26.14,26.14,0,0,1,1.33-4.92,5.64,5.64,0,0,0,.07-2.28c-.11-.94-.58-1.56-1.7-1.15a3.86,3.86,0,0,1-2.26,0c-4.29-1-6.31-4.2-8-7.83-1-2.19-.42-4.41-.26-6.77l-3,1c-2.08.73-2.55,1.6-1.94,3.72a6.08,6.08,0,0,0,1.45,2.38c4.09,4.57,9,8.42,12.38,13.59A26.14,26.14,0,0,0,72,178.67Zm54.91,16.39a6.4,6.4,0,0,1,1.78,3.54c.79,3,1.55,6,2.48,9,.82,2.63,1.28,5.4,3,7.7.46.63,1,1.31,1.85,1s.74-1.09.76-1.82c.19-6.37-2.05-12-5.29-17.32A4.35,4.35,0,0,0,126.94,195.06ZM56.71,139.25c-.89.15-1.62-.17-2.23.44a3.82,3.82,0,0,0,1.42,6.45c1.38.5,2.82.83,4.24,1.19,1.73.44,2.43,0,2.62-1.82a12.51,12.51,0,0,1,.93-3.74c.53-1.22.13-2-1.22-2A30.11,30.11,0,0,1,56.71,139.25Zm124.14,57.43c-.3-1.44.18-3.15-1.09-4.29-1.85-1.65-3.9-2.76-6.55-1.69-.81.33-1.14.53-.75,1.43,1,2.26,1.84,4.56,2.76,6.83.83,2.06.83,2.05,2.92,1C179.56,199.32,181.27,198.88,180.85,196.68Zm22-48.89c3.2,0,5.23-1.94,5.08-4.86-.09-1.72-2.12-3.42-4.65-3.94-1.23-.25-1.89.15-2.06,1.43-.21,1.57-.52,3.13-.74,4.7C200.09,147.79,200.11,147.79,202.82,147.79Zm-35.06,67c-.48-1.72-.87-3.17-1.28-4.62-1-3.42-1-3.42-4.5-3.24a11.18,11.18,0,0,1-1.24,0c-1.26-.08-1.38.49-1,1.51C161.2,212,164,213.74,167.76,214.84ZM62.33,183.69c-1.5-.1-1.57-.07-1.38.68.62,2.51,2.8,4.16,6.27,4.52,2.24.23,2.69-2,3.8-3.19.56-.63.54-1.29-.62-1.37C67.7,184.15,65,183.91,62.33,183.69ZM182,209.62a28,28,0,0,0-.28-4.23c-.4-2.25-.31-2.19-2.56-1.53-1.36.4-1.64.93-1,2.25a14.42,14.42,0,0,1,1.24,7.58c-.06.59-.58,1.36.55,1.46.78.07,1.49.1,1.77-1A18.35,18.35,0,0,0,182,209.62Zm-76.31-41c0,4.31,0,8.11,0,11.91a6.13,6.13,0,0,0,.29,1.38,1.39,1.39,0,0,0,1.66,1.22c.91-.14.79-.93.72-1.54-.24-2-.17-4-.42-6C107.61,173.35,107.56,170.92,105.65,168.62Zm-3-16.48c0-2-.09-2-2.4-1.83-.75.07-1.78.06-2,.85s.89.79,1.39,1.16a5.65,5.65,0,0,0,1.22.72c.51.21,1,.91,1.55.54S102.54,152.6,102.62,152.14ZM78.37,192.4A16.9,16.9,0,0,0,76.23,189a.74.74,0,0,0-.9-.37c-.44.16-.35.55-.38.89C74.83,191,76,192,78.37,192.4ZM91.74,203c.32,1.28,1.17,1.8,1.7,2.55s1.13.52,1.72.24c.4-.19,1.05-.36,1-.86s-.87-.62-1.39-.82Zm14.72-16.88c-1.43,1.47-.74,3-.59,4.56C106.38,189.24,107.59,187.88,106.46,186.12Z"/><path class="cls-6" d="M137.16,190.74a81.15,81.15,0,0,1-22.82-2.61c-.65-.16-1.22-.38-1.1-1.28.26-2,.39-4,.59-6,.55-5.46.62-10.88-2.67-15.82-1.38-2.07-2.29-4.43-3.92-6.42-1-1.17.08-2.85.12-4.3.09-2.8,1-5,3.94-6.25,2.46-1,3.67-6.11,2.41-8.46a2.85,2.85,0,0,0-1.42-1.27c-4.7-2-9.45-3.68-14.73-2.7a16.94,16.94,0,0,1-4.26,0A25.81,25.81,0,0,0,83,136.88c-.63.21-1.37.55-1.84,0s.16-1.29.41-1.9c.18-.43.46-.82.67-1.24a1.56,1.56,0,0,0-.31-2.08,1.81,1.81,0,0,0-2.16,0,2.08,2.08,0,0,0-.75.75c-2.14,4.23-5,8.23-5.44,13.1-.49,5.45-1.17,10.91-.48,16.41a15.37,15.37,0,0,1,0,2.3c-.06,2.29-1.33,3.15-3.53,2.43a4,4,0,0,1-1.83-1c-2.62-3-4.6-6.16-3.56-10.46,1.19-4.91,1.85-10,3.33-14.78a136.92,136.92,0,0,0,4-19.31c.59-3.77.78-7.6,1.63-11.33A36.28,36.28,0,0,1,76,103c2.37-5.17,5.83-9.59,9.52-14,6.11-7.23,13.88-11.88,22.22-15.8a99.81,99.81,0,0,1,10-4.56c4.55-1.56,9.06-2.37,13.88-1.37s9.54,1,14.13,2.4a170,170,0,0,1,16.21,5.5c5.83,2.42,11.36,5.47,15.7,10.28,1,1.09,1,1.62-.35,2.49a203.67,203.67,0,0,1-29.76,16.24c-4.16,1.8-8.39,2.71-12.9,1.51a2.18,2.18,0,0,0-2.71,1.14c-.56,1.19.13,2.1,1.06,2.89,4.09,3.45,8.89,3.8,13.9,3.23a109.06,109.06,0,0,0,17-3.41,123.51,123.51,0,0,0,13-5,102.68,102.68,0,0,0,11.92-5.31c1.12-.63,1.76-.31,2.28.86a20.28,20.28,0,0,1,1.63,5.19,41.6,41.6,0,0,0,2.08,7.65c1.73,4.89,2,10,2.55,15.09,1.48,13.61-2,26.24-7,38.66-1.67,4.12-4,7.86-6,11.76-2.83,5.4-7.41,8-13.48,8.7-6.57.72-13.12,1.62-19.66,2.62A92.45,92.45,0,0,1,137.16,190.74ZM121.91,90.55c0-2.45-1-3.93-2.66-3.89-1.87,0-4.42,2.82-4.48,4.87,0,1.39,1.2,2.43,2.88,2.41C120.37,93.92,121.93,92.67,121.91,90.55Zm17.23.58c0,1.83,1.52,3.52,3.07,3.48,1.78,0,4.27-1.85,4.23-3.07-.07-1.86-2.14-3.46-4.45-3.43A3,3,0,0,0,139.14,91.13Z"/><path class="cls-7" d="M47.21,81.52c5.28-.05,10.17.86,14.08,4.89a11.51,11.51,0,0,1,3.2,6.66,89,89,0,0,1,.15,20c-.69,6.15-2,12.25-2.16,18.46a14.35,14.35,0,0,1-.38,2.62c-.18.82-.47,1.6-1.58,1.57a1.66,1.66,0,0,1-1.75-1.41,5.75,5.75,0,0,1,0-2.45,124,124,0,0,0,1.56-27.44,32.25,32.25,0,0,0-2.91-10.68,4.62,4.62,0,0,0-3.5-2.71A48.5,48.5,0,0,0,44.95,90c-3.65-.11-5.88-3.34-4.4-6.28.83-1.65,2.39-2,4-2.18A24.17,24.17,0,0,1,47.21,81.52Z"/><path class="cls-8" d="M143.9,108.88c.85-.37,1.69-.75,2.54-1.11,8.29-3.47,16.4-7.36,24.38-11.49a29.45,29.45,0,0,0,4.06-3c3.95-3,8.44-5.18,12.56-7.93,2.52-1.68,5.37-2.75,8.54-2a7.29,7.29,0,0,1,2,.76c1.57.89,1.84,1.91.71,3.31a23.06,23.06,0,0,1-6,5.59,110.67,110.67,0,0,1-15.87,7.74c-5.23,2.1-10.27,4.84-15.83,6S149.75,109.09,143.9,108.88Z"/><path class="cls-9" d="M112.63,66.79c0-3.7,0-7.23-.31-10.75-.56-7.27-.94-14.56-1.41-21.85a7.13,7.13,0,0,1,.29-2.62c1-3.2.42-6.57,1.07-9.8.34-1.67.69-3.34,1.16-5,.28-1,.75-2.06,1.84-2.17s1.69.76,2.28,1.5a6.63,6.63,0,0,1,1.31,3.8c.33,5.52,1.25,11,.86,16.58-.61,8.53-.64,17.09-.7,25.63a2.39,2.39,0,0,1-1.91,2.69A46.11,46.11,0,0,0,112.63,66.79Z"/><path class="cls-10" d="M79.84,181.17c-1.29-.37-.55-1.12-.19-1.59,2.8-3.64,5.54-7.33,8.56-10.79,2.87-3.29,5.71-6.59,8.47-10,.59-.72.81-.63,1.46-.15a9.82,9.82,0,0,1,4.2,9.49c-.34,3.56-.26,7.17-.4,10.75,0,.93-.27,1.86-.32,2.79s-.47.79-1.07.73c-3.45-.35-6.9-.67-10.35-1a1.4,1.4,0,0,0-1.16-.3Z"/><path class="cls-10" d="M75.66,172.39c-.16-4.22.79-9.26.35-14.34,0-.18,0-.36,0-.53-.11-4.07.48-4.82,4.57-4.33a55,55,0,0,1,11.72,2.4c1.41.49,1.47,1.17.63,2.19-4.65,5.65-8.48,11.93-13.3,17.45-1,1.15-1.63,2.61-2.85,3.59-.26.21-.48.64-.87.35a1.1,1.1,0,0,1-.24-.78C75.65,176.67,75.66,175,75.66,172.39Z"/><path class="cls-10" d="M145.68,194.66a104.24,104.24,0,0,0,11.16-1.53,3.9,3.9,0,0,1,3.86,1.14c1.73,2,3.5,4.08,4.25,6.81.37,1.38-.11,1.76-1.27,2.07-1.87.51-3.76.26-5.64.32-1.12,0-2.24,0-3.37,0-3.37,0-6.73,0-10.1,0-.92,0-1.89-.3-2.75.29-.4.07-.81.12-1.21.22-1.85.44-3.09.3-3.14-2.14,0-1.7-1.14-3.16-1.81-4.72-.25-.59-.43-1.2-.65-1.81.63-.65,1.44-.31,2.16-.37C140,194.77,142.87,195.35,145.68,194.66Z"/><path class="cls-11" d="M134.29,33.2c.08,4.38-1.16,8.52-2.6,12.55-1.77,4.93-3.42,9.89-5.14,14.83a3.72,3.72,0,0,1-.89,1.7,2.31,2.31,0,0,1-2.28.63c-.76-.3-.26-1.12-.25-1.73,0-2.92.46-5.82.29-8.76a14.26,14.26,0,0,1,.64-4.17c.66-2.61,0-5.31.6-7.91a78.64,78.64,0,0,1,5-13.35c.3-.67.82-1.44,1.7-1.34a2.41,2.41,0,0,1,2.19,1.8A21.55,21.55,0,0,1,134.29,33.2Z"/><path class="cls-10" d="M89.87,184.68c3.12.13,6.25.24,9.37.38,1.33.06,2.18.7,1.95,2.13a58.13,58.13,0,0,0-.33,7.76c0,1.44-.64,2-2.08,1.8-3.69-.37-7.25-1.67-10.92-1.86-5-.28-6.93-4.14-9.46-7.37-.61-.78-1.13-1.64-1.68-2.47.51-.6,1.21-.36,1.82-.36C82.33,184.66,86.1,184.68,89.87,184.68Z"/><path class="cls-7" d="M83.63,140c5.57.74,11-.39,16.52-1a12.06,12.06,0,0,1,8.94,2.66c1.68,1.33,1.42,3.06-.45,4.08a7.93,7.93,0,0,1-3.76.85c-4.14,0-8.32,1.09-12.33.64a123,123,0,0,0-14.22-.87c-.88,0-1-.51-.8-1.17a19.81,19.81,0,0,1,1.7-4.26A1.81,1.81,0,0,1,81,140C81.86,140,82.74,140,83.63,140Z"/><path class="cls-12" d="M196.75,160.85c-.2,1.82-.32,3.65-.62,5.45q-1.53,9.19-3.17,18.36a27,27,0,0,1-1.76,5.53c-1.2,2.9-4.12,3.74-6.45,5.27-.49.32-.67-.33-.65-.73a7.72,7.72,0,0,0-1.56-5,1,1,0,0,1,0-1.3c.24-.34.38-.74.65-1.05,6.15-7.24,8.41-16.39,12.25-24.77C195.73,162,195.82,161.29,196.75,160.85Z"/><path class="cls-10" d="M127.12,204.58c-.15.53-.49,1.23-1.49.82-3.42-1.4-7.13-1-10.66-1.85-2-.48-3.83-1.45-5.79-2-.8-.25-1-1.06-.66-1.93,1.07-2.79,3.18-5.09,3.84-8.08.16-.72.79-.36,1.12,0,1.65,1.55,3.7,1.93,5.84,2.15a3.46,3.46,0,0,1,1.79.69C124.25,196.94,126.61,200.07,127.12,204.58Z"/><path class="cls-11" d="M131.63,63c-1.34.08-2.16-.09-1.52-1.54,1.59-3.6,3.19-7.2,4.71-10.83a11.93,11.93,0,0,1,3.46-4.4c1.92-1.65,3.6-3.58,5.75-5,.5-.32,1.23-.83,1.79-.43s0,1.09-.07,1.65A28.22,28.22,0,0,1,143,50.29a2.42,2.42,0,0,1-.57.88c-2.85,2.16-4.49,5.44-7.2,7.74a5.82,5.82,0,0,0-1.77,2.81C133.19,62.79,132.61,63.39,131.63,63Z"/><path class="cls-12" d="M68.24,94.26c-.1-2.4-.1-2.51,2.27-2.38,2.63.14,5.22-.43,8.28-.44C72,100.28,69,110.13,68.14,120.95c-.93-1.41-.75-3,.31-9.88.51-3.32,0-6.71.09-10.07C68.4,98.75,68.9,96.48,68.24,94.26Z"/><path class="cls-13" d="M175.18,212c0,.61,0,.73,0,.85-.05,1,.46,2.49-.78,2.81s-1.86-1.13-2.45-2.12a19.42,19.42,0,0,1-1.63-4.46c-1.57-5.16-3.08-10.34-4.61-15.52-.47-1.61,0-2.09,1.65-1.74a2.37,2.37,0,0,1,1.86,1.93c.94,3.85,3,7.22,4.63,10.78C175,207.11,174.94,209.82,175.18,212Z"/><path class="cls-12" d="M57.3,166.62c1.83.46,2.51,2,3.47,3.1,2.38,2.79,5.34,5,7.44,8.07a10.74,10.74,0,0,1,.87,1.33c.32.66,1.16,1.34.68,2s-1.3.1-2,0c-2.34-.28-4.68-.54-7-.75-1.29-.11-2.37-.6-2.06-2,.71-3.28-1.28-6.09-1.37-9.22A9.73,9.73,0,0,1,57.3,166.62Z"/><path class="cls-12" d="M72,178.67a26.14,26.14,0,0,1-2-2.26c-3.43-5.16-8.3-9-12.38-13.59a6.08,6.08,0,0,1-1.45-2.38c-.6-2.12-.14-3,1.94-3.72l3-1c-.16,2.36-.77,4.58.26,6.77,1.71,3.63,3.74,6.84,8,7.83a3.86,3.86,0,0,0,2.26,0c1.11-.41,1.58.21,1.7,1.15a5.64,5.64,0,0,1-.07,2.28A26.14,26.14,0,0,0,72,178.67Z"/><path class="cls-13" d="M126.94,195.06a4.35,4.35,0,0,1,4.56,2.13c3.24,5.32,5.48,11,5.29,17.32,0,.73,0,1.54-.76,1.82s-1.39-.38-1.85-1c-1.69-2.3-2.15-5.08-3-7.7-.93-3-1.69-6-2.48-9A6.4,6.4,0,0,0,126.94,195.06Z"/><path class="cls-7" d="M56.71,139.25a30.11,30.11,0,0,0,5.77.48c1.36,0,1.75.81,1.22,2a12.51,12.51,0,0,0-.93,3.74c-.19,1.83-.89,2.26-2.62,1.82-1.42-.36-2.87-.69-4.24-1.19a3.82,3.82,0,0,1-1.42-6.45C55.09,139.08,55.82,139.4,56.71,139.25Z"/><path class="cls-12" d="M180.85,196.68c.41,2.2-1.3,2.64-2.72,3.33-2.08,1-2.09,1-2.92-1-.92-2.28-1.79-4.58-2.76-6.83-.39-.91-.06-1.1.75-1.43,2.65-1.07,4.69,0,6.55,1.69C181,193.53,180.56,195.24,180.85,196.68Z"/><path class="cls-7" d="M202.82,147.79c-2.72,0-2.74,0-2.37-2.67.21-1.57.53-3.13.74-4.7.17-1.28.83-1.68,2.06-1.43,2.53.52,4.56,2.22,4.65,3.94C208.05,145.85,206,147.79,202.82,147.79Z"/><path class="cls-12" d="M62.33,183.69c2.69.22,5.38.46,8.07.64,1.16.08,1.19.74.62,1.37-1.11,1.24-1.57,3.42-3.8,3.19-3.47-.36-5.65-2-6.27-4.52C60.76,183.63,60.82,183.59,62.33,183.69Z"/><path class="cls-14" d="M105.65,168.62c1.92,2.3,2,4.73,2.25,7,.25,2,.18,4,.42,6,.08.61.2,1.4-.72,1.54a1.39,1.39,0,0,1-1.66-1.22,6.13,6.13,0,0,1-.29-1.38C105.64,176.73,105.65,172.93,105.65,168.62Z"/><path class="cls-15" d="M102.62,152.14c-.08.46.25,1.15-.22,1.45s-1-.33-1.55-.54a5.65,5.65,0,0,1-1.22-.72c-.5-.37-1.55-.51-1.39-1.16s1.22-.78,2-.85C102.53,150.09,102.62,150.17,102.62,152.14Z"/><path class="cls-15" d="M78.37,192.4C76,192,74.83,191,74.94,189.52c0-.34-.06-.73.38-.89a.74.74,0,0,1,.9.37A16.9,16.9,0,0,1,78.37,192.4Z"/><path class="cls-16" d="M89.87,184.68c-3.77,0-7.55,0-11.32,0-.62,0-1.31-.24-1.82.36-.18-.22-.42-.65,0-.65C81.11,184.46,85.51,183.92,89.87,184.68Z"/><path class="cls-17" d="M106.46,186.12c1.13,1.76-.08,3.12-.59,4.56C105.72,189.17,105,187.59,106.46,186.12Z"/><path class="cls-16" d="M141.81,203.78c.86-.59,1.84-.28,2.75-.29,3.37,0,6.73,0,10.1,0a20.56,20.56,0,0,1-5.6.32C146.65,203.86,144.23,203.8,141.81,203.78Z"/><path class="cls-16" d="M145.68,194.66c-2.82.69-5.68.11-8.52.32-.73.05-1.53-.28-2.16.37.19-.7.19-.73.93-.73C139.19,194.62,142.43,194.64,145.68,194.66Z"/><path class="cls-16" d="M79.84,181.17l9.21,0a1.4,1.4,0,0,1,1.16.3C86.75,181.4,83.28,181.83,79.84,181.17Z"/><path class="cls-16" d="M68.24,94.26c.66,2.22.16,4.5.3,6.74C67.94,98.77,68.25,96.51,68.24,94.26Z"/><path class="cls-5" d="M121.91,90.55c0,2.12-1.54,3.37-4.26,3.39-1.68,0-2.92-1-2.88-2.41.06-2,2.61-4.82,4.48-4.87C120.87,86.62,121.88,88.1,121.91,90.55Z"/><path class="cls-5" d="M139.14,91.13a3,3,0,0,1,2.85-3c2.31,0,4.38,1.57,4.45,3.43,0,1.21-2.44,3-4.23,3.07C140.66,94.66,139.17,93,139.14,91.13Z"/></g></svg>