<svg id="圖層_1" data-name="圖層 1" xmlns="http://www.w3.org/2000/svg" viewBox="0 0 392.74 79.91"><defs><style>.cls-1{fill:#fff;}</style></defs><title>graphic</title><path d="M373,.81c-.19.35-.41.68-.65,1.07L372,1.73l-5.2,5a56.11,56.11,0,0,1-9.57,6.45A232.76,232.76,0,0,1,319.15,29c-15.33,5-30.7,9.91-46.44,13.5a275.56,275.56,0,0,1-39.24,6.34c-9.24.74-18.5,1.12-27.76,1.46-6.95.26-13.91.14-20.87.29-6.75.15-13.5.44-20.25.67A89.42,89.42,0,0,1,148.83,50a335.91,335.91,0,0,1-43.6-9.09A271.55,271.55,0,0,1,49,18.31a73.5,73.5,0,0,1-8.46-5.66,6.68,6.68,0,0,1-1.73-1.72L33.4,5.55l-.4.37c-1-1.28-2.1-2.42-3-3.7L9.67,3c1.05,3.88,3.4,7.08,6.08,10.06a127.68,127.68,0,0,0,22.15,19c11.81,8.28,24.54,15,37.47,21.27,11.4,5.57,23.52,9,35.72,12.28q20,5.32,40.25,9.3a95.63,95.63,0,0,0,27,1.2c6.8-.61,13.64-.8,20.46-1.14q19.87-1,39.75-1.88c6.82-.32,13.66-.49,20.47-1a68.49,68.49,0,0,0,9.38-1.87c8.3-1.86,16.64-3.54,24.87-5.69,17.5-4.58,33.59-12.39,48.85-22A246.54,246.54,0,0,0,379,14.18a14.93,14.93,0,0,0,4-5.77c.94-2.54,1.95-5.07,2.89-7.61ZM358,21.63a62.81,62.81,0,0,1-11.61,8.44c-9.71,5.78-19.3,11.79-29.13,17.35C305.39,54.14,292.46,58,279,60.14c-6.51,1-13.09,1.58-19.59,2.7A250.17,250.17,0,0,1,234.25,66c-7.21.5-14.44.82-21.66,1.21-11.13.61-22.27,1.13-33.4,1.84A104.27,104.27,0,0,1,153.38,68c-6.71-1.24-13.37-2.8-20-4.51-12-3.11-24-6.26-35.84-9.71C75.76,47.47,56.38,36.43,38.23,23,31.31,17.84,25.61,11.6,20,5.07l1.3-1.61a46.23,46.23,0,0,1,5.4,4.36,97,97,0,0,0,40.47,26.3c17.94,6.17,36,11.94,54.29,17a181.82,181.82,0,0,0,33.51,5.71c7.25.58,14.52,1.14,21.78,1.16,8.62,0,17.25-.57,25.87-.88,9.9-.35,19.81-.6,29.72-1A160,160,0,0,0,269,49.82c19.43-5.53,38.82-11.2,58.25-16.75,9.68-2.77,18.74-7.08,27.88-11.18.8-.36,1.6-.74,2.42-1a3,3,0,0,1,1,0A3.17,3.17,0,0,1,358,21.63Z"/><path class="cls-1" d="M357.51,20.84c-.82.31-1.62.69-2.42,1-9.14,4.1-18.19,8.41-27.88,11.18C307.79,38.62,288.39,44.29,269,49.82A160,160,0,0,1,232.29,56c-9.9.44-19.81.69-29.72,1-8.63.31-17.25.9-25.87.88-7.26,0-14.53-.57-21.78-1.16a181.82,181.82,0,0,1-33.51-5.71c-18.29-5-36.35-10.78-54.29-17A97,97,0,0,1,26.66,7.82a46.23,46.23,0,0,0-5.4-4.36L20,5.07C25.61,11.6,31.31,17.84,38.23,23c18.15,13.46,37.53,24.5,59.33,30.82,11.89,3.44,23.86,6.6,35.84,9.71,6.6,1.71,13.26,3.27,20,4.51a104.27,104.27,0,0,0,25.81,1.06c11.13-.72,22.26-1.24,33.4-1.84,7.22-.39,14.45-.71,21.66-1.21a250.17,250.17,0,0,0,25.2-3.18c6.49-1.12,13.08-1.66,19.59-2.7,13.42-2.15,26.35-6,38.23-12.72,9.84-5.56,19.42-11.57,29.13-17.35A62.81,62.81,0,0,0,358,21.63a3.17,3.17,0,0,0,.45-.82A3,3,0,0,0,357.51,20.84Z"/></svg>