<svg id="圖層_1" data-name="圖層 1" xmlns="http://www.w3.org/2000/svg" viewBox="0 0 390.89 222.65"><defs><style>.cls-1{fill:#0a0506;}.cls-2{fill:#3a6f81;}.cls-3{fill:#4a8daf;}.cls-4{fill:#cdb246;}</style></defs><title>graphic</title><path class="cls-1" d="M95,196.54c10.84,5.11,22.19,8.66,33.73,11.75,17.11,4.57,34.27,9.16,51.71,11.94,17.08,2.74,34.48,3.37,51.76.8,24.57-3.7,48.59-9.4,71-20.58a121.23,121.23,0,0,0,25.88-17.31c23.88-23.21,42.74-49.57,51.72-82.21a126.28,126.28,0,0,1,4.53-13.09c6-15,8-30.73,7.29-46.79-.4-8.7-1.26-17.4-1.92-26.08a19.34,19.34,0,0,0-4.52-11.62c-3.91-4.54-6.68-4.55-9.95.44-6.12,9.3-13.34,17.55-22.79,23.59a177.44,177.44,0,0,1-25.94,13.38C301.2,52,274,60.28,245.6,64c-15.3,2-30.76.34-46.12.18-13.73-.13-27.46-.27-41.16-1-15-.77-29.7-4.06-44.25-7.82-21-5.43-42-10.71-62-19.51-6.81-3-13.53-6.2-19.63-10.52-5.07-3.63-8.77-8.23-9.7-14.62a6.12,6.12,0,0,0-4-5.22c-2.53-.89-4.07,1.16-5.52,2.69C11,10.62,10.34,13.81,9.88,17c-3.8,26.69,1.3,52.35,9.3,77.6,2.25,7.09,4.94,14,6.89,21.2,3.79,13.95,10.77,26.19,19,37.92C58.16,172.27,74.41,186.85,95,196.54Zm65.71,11.68c-28.24-5.51-54.72-15.05-78.06-32.45-11.76-8.79-23.42-17.6-31-30.42-11.72-19.76-21.67-40.29-26.5-63-2.35-11-6.38-21.62-7.49-32.91-.52-5.36-1-10.71.43-16-.37-1.76.15-2.19,1.6-1,4.38,3.57,9.1,6.73,13.07,10.8,9.28,6.68,18.61,13.3,28.51,19a198.94,198.94,0,0,0,64.69,23.27c17.23,3,34.63,3.81,52.06,3.93,15.78.13,31.52.58,47.28,1.09,21.66.73,42.29-5.05,62.83-11.09,30.47-8.93,57.81-23.78,82.61-43.45,4.47-3.53,8.65-7.42,13.78-11.86.85,16.27,1.64,31.35-.64,46.35-2.61,17.22-10.47,32.49-18.2,47.83-13.17,26.24-30.08,49.53-53.15,68.05-7.73,6.22-15.8,11.81-25.54,14.34-13.37,3.5-26.7,7.15-40.12,10.36-24.32,5.8-48.69,6.19-73,.12C169.41,210.16,165.07,209.07,160.69,208.22ZM130.77,77.85c-25.35-3.31-48.85-11-70-25.52l-19.29-12c.2-.37.41-.75.62-1.13l8.52,3.68,8.53,3.67c1.79.61,3.59,1.19,5.4,1.76,14.3,4.53,28.9,8,43.44,11.67,16,4.05,31.76,9.67,48.35,10.71,23.27,1.47,46.63,1.36,70,1.05,31.34-.4,61-9.09,90.36-19.52,20.14-7.15,39-16.11,53.84-32a21.88,21.88,0,0,1,6.58-5.25c.66-.31,1.43-1,2.05-.2s0,1.4-.51,2c-2.71,3.07-5.18,6.39-8.16,9.18a189.14,189.14,0,0,1-47.14,32C306,66.27,287.37,71,268.94,76.24c-14.33,4.1-28.72,7.53-43.79,6.94C193.67,82,162.13,81.94,130.77,77.85Z"/><path class="cls-2" d="M82.63,175.77c23.34,17.39,49.82,26.94,78.06,32.45,4.38.85,8.72,1.94,13.09,2.94-1.68-2.86-4.59-4.06-7.36-5.35a141,141,0,0,1-40.19-28.49c-14.27-14.48-26-30.8-36.3-48.27S72.62,92.26,64.53,73.63C63,70,62.3,66,61.22,62.21c-9.9-5.73-19.23-12.36-28.51-19-1.54.53-2.27-.71-3.31-1.41-3.92-2.63-6.95-6.43-11.36-8.37-1.39,5.3-1,10.65-.43,16,1.11,11.28,5.15,21.91,7.49,32.91,4.82,22.75,14.78,43.28,26.5,63C59.21,158.17,70.87,167,82.63,175.77Z"/><path class="cls-3" d="M166.42,205.81c2.77,1.3,5.68,2.49,7.36,5.35,24.36,6.07,48.73,5.68,73-.12,13.42-3.21,26.75-6.86,40.12-10.36,9.74-2.54,17.81-8.12,25.54-14.34,23.07-18.52,40-41.81,53.15-68.05,7.73-15.35,15.59-30.61,18.2-47.83,2.28-15,1.49-30.07.64-46.35-5.13,4.44-9.31,8.32-13.78,11.86-24.8,19.67-52.14,34.52-82.61,43.45-20.53,6-41.16,11.82-62.83,11.09-15.76-.52-31.5-1-47.28-1.09-17.44-.13-34.83-.9-52.06-3.93A198.94,198.94,0,0,1,61.22,62.21C62.3,66,63,70,64.53,73.63c8.1,18.63,15,37.81,25.4,55.42s22,33.8,36.3,48.27A141,141,0,0,0,166.42,205.81Z"/><path class="cls-4" d="M29.41,41.76c1,.71,1.78,1.95,3.31,1.41-4-4.07-8.69-7.23-13.07-10.8-1.45-1.17-2-.74-1.6,1C22.46,35.33,25.49,39.13,29.41,41.76Z"/><path class="cls-3" d="M60.78,52.33c21.14,14.5,44.64,22.21,70,25.52,31.36,4.1,62.9,4.11,94.39,5.34,15.06.58,29.46-2.84,43.79-6.94,18.42-5.29,37-10,54.38-18.41a189.14,189.14,0,0,0,47.14-32c3-2.79,5.45-6.1,8.16-9.18.54-.6,1.06-1.28.51-2s-1.39-.11-2.05.2a21.88,21.88,0,0,0-6.58,5.25c-14.85,15.93-33.69,24.89-53.84,32-29.31,10.44-59,19.13-90.36,19.52-23.32.31-46.69.42-70-1.05C139.77,69.61,124,64,108,59.94,93.47,56.25,78.87,52.8,64.57,48.27q-2.71-.85-5.4-1.76A12.59,12.59,0,0,0,60.78,52.33Z"/><path class="cls-2" d="M41.49,40.28l19.29,12a12.59,12.59,0,0,1-1.61-5.82h0l-8.52-3.68-8.52-3.68C41.9,39.53,41.69,39.91,41.49,40.28Z"/><path class="cls-2" d="M50.64,42.83l8.52,3.68h0Z"/><path class="cls-3" d="M59.17,46.5h0q2.69.91,5.4,1.76C62.76,47.7,61,47.12,59.17,46.5Z"/></svg>