<svg id="圖層_1" data-name="圖層 1" xmlns="http://www.w3.org/2000/svg" viewBox="0 0 324.12 335.14"><defs><style>.cls-1{fill:none;stroke:#fff;stroke-miterlimit:10;stroke-width:5px;}.cls-2{fill:#0b0808;}.cls-10,.cls-11,.cls-12,.cls-13,.cls-14,.cls-15,.cls-16,.cls-2,.cls-3,.cls-4,.cls-5,.cls-6,.cls-7,.cls-8,.cls-9{fill-rule:evenodd;}.cls-3{fill:#b7ccdf;}.cls-4{fill:#c13326;}.cls-5{fill:#202222;}.cls-6{fill:#c03327;}.cls-7{fill:#cfaf43;}.cls-8{fill:#925843;}.cls-9{fill:#0e0d0d;}.cls-10{fill:#fefefe;}.cls-11{fill:#338bac;}.cls-12{fill:#53963d;}.cls-13{fill:#c26f27;}.cls-14{fill:#c46e8f;}.cls-15{fill:#f6f6f7;}.cls-16{fill:#3885a3;}</style></defs><title>graphic</title><polygon class="cls-1" points="260.22 31.29 263.14 311.49 15.43 168.86 260.22 31.29"/><path class="cls-2" d="M172.89,49.25a13,13,0,0,1,3.35-3.18c2.52-1.9,4.86-1.1,5.71,2a23.73,23.73,0,0,1,.5,4.67c.07.93.07,1.87.11,2.81.59,0,.56-.43.7-.75.69-1.65,2.93-3.21,4.59-3.05s2.69,1.51,3.26,3a8.35,8.35,0,0,1,.36,4.78A50.16,50.16,0,0,1,188,69.74c-1.06,2.35-1,2.42,1.51,2.52,3.55.14,7.11.08,10.65.3a11.11,11.11,0,0,1,7.3,2.87,6.19,6.19,0,0,1,1.47,7.08,1.86,1.86,0,0,0,1,2.66,59.65,59.65,0,0,1,20.92,19.51c3.57,5.27,6.47,10.8,7.31,17.18.57,4.35.95,8.72,1.26,13.09.92,13.14-2.52,25.25-9.09,36.51a73.77,73.77,0,0,1-11.19,15.31c-2.52,2.52-5.09,5-7.66,7.44a2.62,2.62,0,0,0-.88,1.76c-.37,4.12-.45,8.25-.69,12.38-.41,6.94.21,14-1.14,20.83-1.24,6.29-2.33,12.66-5.47,18.4a19.16,19.16,0,0,0-1.73,6c-.92,5.15-1.94,10.27-2.78,15.43-.74,4.54-1.7,9-2.77,13.51-.73,3.08-1.07,6.31-3,9-.48.69-.94,1.31-1.88,1.07s-.92-1-1-1.74a45.38,45.38,0,0,1-.27-9.07c.33-8.47.67-16.93,1.29-25.39a6.16,6.16,0,0,0,0-.94c-.29-3.6-.29-3.57-3.93-3.33a28.78,28.78,0,0,1-3.76,0c-6.11-.4-12.28-.39-18.31-1.55-6.23-1.2-12.47-2.19-18.77-2.81a16.4,16.4,0,0,1-2-.2c-1.47-.33-1.87.34-1.78,1.67.27,4.17.48,8.34.77,12.51a15.54,15.54,0,0,1-.11,2.66c-.37,3.7-.74,7.41-1.15,11.11a46.46,46.46,0,0,0-.37,7.36,3.88,3.88,0,0,1-2.39,3.73,1.49,1.49,0,0,1-2.36-1c-.88-3.14-2.75-5.95-3.4-9.11-1-5.09-2.35-10.15-1.72-15.49a153.9,153.9,0,0,0,.62-16.45,30.82,30.82,0,0,0-.63-7c-1.34-5.84-.77-11.64-.77-17.46a117,117,0,0,1,.85-16.44c.67-4.77,1.58-9.51,4.5-13.55.61-.84,0-1.23-.49-1.66-3-2.41-5.87-4.91-8.93-7.19-8.28-6.15-12.41-14.78-14.72-24.48-.6-2.54-1.58-5-1.68-7.65a67,67,0,0,1,1-13.26,118.49,118.49,0,0,1,5.07-19.21c2.51-7.42,6.91-13.82,11.12-20.33a34.7,34.7,0,0,1,8.14-9.27,36,36,0,0,1,4.62-3,2.3,2.3,0,0,0,1.28-2.58,13.85,13.85,0,0,1,.92-6.31,3.75,3.75,0,0,1,2.43-2.1,34.3,34.3,0,0,1,14-2.46c3.52.22,3.54,0,3.39-3.46s.07-6.9.27-10.35a20.69,20.69,0,0,1,1.07-6.44,12,12,0,0,1,3.71-5c1.56-1.27,2.35-1.16,3.46.48.35.52.66,1.07,1,1.61S172.54,48.63,172.89,49.25ZM147.81,241.59c-3.32.13-6-1.61-8.82-3-1.52-.74-3-1.49-4.67-2.3-.06,2.88.16,5.36,3,6.52,1.89.76,3.78,1.53,5.72,2.16,3.29,1.07,6.79.44,10.19,1.49,5.46,1.69,11.3,1.42,16.93,2.38,8.85,1.52,17.75.7,26.63.08,3.88-.27,6.48-3.58,6.08-7.66-4.61,3.88-10.15,4.5-15.74,4.33-7.31-.23-14.67-.33-21.83-2.21A1.81,1.81,0,0,0,164,243q-7.43-.78-14.86-1.53A1.73,1.73,0,0,0,147.81,241.59Zm58.87-21.73c1-7.23.91-14.51,1.12-21.77.07-2.36.07-2.3-2.29-2.34-6.27-.1-12.55-.26-18.82-.39L173.29,194c-1.23-.24-2.46-.56-3.7-.72a228,228,0,0,0-28.51-1.78c-3.08,0-4.08,1-4.67,4a93.57,93.57,0,0,0-1.5,13.89c-.26,6.17-.66,12.34-.9,18.51-.11,2.72.54,5.3,2.86,7a21.22,21.22,0,0,0,10.27,4.41c4.58.48,9.17.94,13.75,1.39,6.15.61,12.16,2.23,18.34,2.64,5.82.39,11.63.59,17.33-.83,5.51-1.37,8.74-5.08,9.08-10.16.32-3.1.67-6.19.94-9.3C206.69,222,207.09,220.95,206.68,219.87ZM113,142.1c0,1.09-.22,2.82-.14,4.54.34,7.38,2.82,14.18,5.84,20.8a22,22,0,0,0,5.56,7.55c3.61,3.12,6.92,6.55,10.41,9.79a17.79,17.79,0,0,0,12.57,4.79c5,0,10,.34,15,.73,7.52.59,15,1.85,22.43,2.83,6.55.86,13.16.65,19.75.7a11.68,11.68,0,0,0,7.71-3,44.09,44.09,0,0,0,4.59-4.94c8-8.92,14.64-18.61,18.14-30.22a50,50,0,0,0,2.44-17.13c-.29-5.36-1.18-10.68-1.71-16a29,29,0,0,0-6.32-15.93c-2.86-3.48-5.72-7-8.69-10.35A40.93,40.93,0,0,0,208,86.67c-1.15-.57-2.37-1-3.6-.4a5.38,5.38,0,0,1-3,.6c-1.09-.08-2.19,0-3.29,0-6.8.07-13.6-.06-20.39-.3L160.91,86c-5.23-.19-10.46-.33-15.68-.63a7.06,7.06,0,0,0-4,.95c-4.65,2.56-8.17,6.29-11.32,10.47C119.89,110,115.59,125.4,113,142.1Zm55.54-69.24a53.14,53.14,0,0,1-6.08.06c-5.32-.54-10.34,1-15.42,2.09-2.1.44-3.37,2.83-3.16,5.37A4.16,4.16,0,0,0,147.29,84c3.68.58,7.4.31,11.09.42,3.95.12,7.9,0,11.86.07,3.23.05,6.46.26,9.69.32,4.21.07,8.43.06,12.64.08,3.28,0,6.56.05,9.83,0a3.73,3.73,0,0,0,2.94-1.21,6.87,6.87,0,0,0,.79-6.38,2.15,2.15,0,0,0-1.68-1.29c-1.67-.14-3.25-.73-4.93-.89-4.63-.46-9.27-.62-13.91-.82C179.94,74.09,174.31,72.9,168.58,72.85ZM138.43,282.24c.1-2.52.12-4.58.27-6.64q.95-13.61.77-27.25c0-1.36-.2-2.38-1.76-2.86-2.44-.75-2.41-.84-2.6,1.75-.64,8.72-.71,17.42.91,26.05A48.86,48.86,0,0,0,138.43,282.24ZM165.21,57.29a41.16,41.16,0,0,0-.3,10.55c.5,3.58-.34,3.32,3.68,3.26,2,0,2.26-.28,2.52-2.35.59-4.71.16-9.41-.09-14.11-.1-1.92,0-3.9-1.1-5.63-1-1.56-1.35-1.59-2.45-.18a8.56,8.56,0,0,0-1.33,2.47C165.37,53.48,165.45,55.76,165.21,57.29Zm14-10.44c-2.24,1.07-4.38,2.1-4.78,4.84-.88,6-.7,12.11-1.11,18.17-.06.84.3,1.15,1.16,1.25,3.48.44,3.48.48,3.91-3,0-.1,0-.21,0-.31.64-4.72,1.55-9.4,1.46-14.19A26.86,26.86,0,0,0,179.18,46.86Zm20.66,205.83c.24-1.8.24-1.8-1.64-1.53a24.22,24.22,0,0,1-3.1.39c-1.41,0-1.64.72-1.6,2a133.87,133.87,0,0,1-.43,18.79,54.28,54.28,0,0,0-.23,11.26c0,.34-.14.84.35.91.68.1.49-.54.56-.89.53-2.61,1-5.23,1.54-7.84Q197.55,264.22,199.83,252.69ZM181.22,67.5c-.11,1-.22,2.08-.32,3.12,0,.3-.12.62.16.88,1.16,1.09,3.92.39,4.27-1.15.83-3.72,2.11-7.32,3.06-11a12.28,12.28,0,0,0,.77-3.51c-.06-1.54-1.17-2.12-2.46-1.28a6.92,6.92,0,0,0-1.73,1.8C182.51,59.67,181.66,63.52,181.22,67.5Z"/><path class="cls-3" d="M113,142.1c2.55-16.7,6.85-32.07,16.85-45.31,3.15-4.17,6.67-7.91,11.32-10.47a7.06,7.06,0,0,1,4-.95c5.22.3,10.45.44,15.68.63l16.78.57c6.8.23,13.59.37,20.39.3,1.1,0,2.2-.07,3.29,0a5.38,5.38,0,0,0,3-.6c1.23-.64,2.45-.17,3.6.4a40.93,40.93,0,0,1,12.69,9.57c3,3.39,5.84,6.87,8.69,10.35a29,29,0,0,1,6.32,15.93c.53,5.35,1.43,10.67,1.71,16A50,50,0,0,1,235,155.67c-3.5,11.61-10.18,21.3-18.14,30.22a44.09,44.09,0,0,1-4.59,4.94,11.68,11.68,0,0,1-7.71,3c-6.59,0-13.2.16-19.75-.7-7.47-1-14.91-2.24-22.43-2.83-5-.39-10-.73-15-.73a17.79,17.79,0,0,1-12.57-4.79c-3.49-3.24-6.8-6.66-10.41-9.79a22,22,0,0,1-5.56-7.55c-3-6.62-5.51-13.42-5.84-20.8C112.83,144.92,113,143.19,113,142.1ZM176.6,178l1.07,1.76a19.3,19.3,0,0,0,12.48,9c9,2.06,16.52-2.27,19.63-11,2.28-6.41,1.11-12-4-16.54-4-3.58-9.09-4.72-14.36-5a5.76,5.76,0,0,0-3.26.91c-4,2.31-7.93,4.74-9.88,9.27-.13-.11-.18-.13-.19-.16-.12-.29-.21-.59-.35-.86-3.28-6.22-7.18-11.8-14.86-12.84-6.08-.82-11.43.89-15.54,5.58-3.5,4-3.84,9-3.55,13.94.38,6.3,4.34,10.31,9.91,12.79,7.46,3.33,14.41,2.25,19.52-3C174.38,180.62,175.39,179.35,176.6,178ZM164,126.75a32.72,32.72,0,0,0,2.64-5.19,13.05,13.05,0,0,0,.32-9.63,21.69,21.69,0,0,0-4.59-7.06,13.08,13.08,0,0,0-10.32-4.43c-4.07,0-7.21,2.27-10.39,4.36A17.79,17.79,0,0,0,135,111.9c-2.3,4.88-.38,13.39,4.23,17.43,4.44,3.89,9.83,4.55,15.48,3.66a21,21,0,0,0,7.44-3.19c-.47,1.23-.83,2.08-1.13,3a12.06,12.06,0,0,0-1.07,4.7,27.45,27.45,0,0,0,2.4,9.51,10.92,10.92,0,0,0,6.8,6.29c7.09,2.29,13,0,18.38-4.57A4.52,4.52,0,0,0,188.6,147a30.15,30.15,0,0,0,2.68-10.9c.16-4.11-.94-7.57-4.6-10a18.91,18.91,0,0,0-21.1.22C165.18,126.62,164.86,127.14,164,126.75Zm-31,35.86a13.35,13.35,0,0,0,2.5,0c9.38-1.2,15-7.9,14.32-17.28-.18-2.62-.62-5.13-2.45-7.27-2.66-3.11-5.6-5.48-10-5.14a5.69,5.69,0,0,1-1.4-.14,17.36,17.36,0,0,0-10.65,1.72c-6.79,3.19-9.66,11.43-6,17.68a25.46,25.46,0,0,0,9.05,8.95A9.7,9.7,0,0,0,133,162.61Zm92.58-20.76c.53-4.92-.47-7.85-3.89-11.38a6.8,6.8,0,0,0-4.52-2.24c-3.13-.22-6.27-.19-9.39-.4-7.6-.52-15.72,8.28-15.11,15.5.47,5.5,3.57,10.75,8.33,12.6a21,21,0,0,0,11.4,1.09C219.57,155.75,224.7,149.82,225.56,141.85Z"/><path class="cls-4" d="M205.65,232.37c-.35,5.08-3.58,8.79-9.08,10.16-5.71,1.42-11.52,1.21-17.33.83-6.19-.41-12.19-2-18.34-2.64-4.59-.45-9.17-.91-13.75-1.39a21.22,21.22,0,0,1-10.27-4.41c-2.32-1.69-3-4.27-2.86-7,.25-6.17.64-12.34.9-18.51a93.57,93.57,0,0,1,1.5-13.89c.59-3.07,1.59-4,4.67-4a228,228,0,0,1,28.51,1.78c1.24.16,2.47.47,3.7.72a2.1,2.1,0,0,0,1.46.43c3.21.34,6.42.69,9.64,1,.75.07,1.54.39,2.29,0,6.27.14,12.54.29,18.82.39,2.37,0,2.36,0,2.29,2.34-.21,7.27-.15,14.55-1.12,21.77-.27,2.63-.58,5.26-.78,7.9C205.78,229.3,205.28,230.82,205.65,232.37Zm-5.29-19.11a59,59,0,0,0,.73-9.49c.06-.73.13-1.46.19-2.19.15-1.94-.51-2.66-2.41-2.5-1.41.11-2.81.33-4.2.54-3.72.57-3.73.58-4.1,4.25a91.91,91.91,0,0,0-.74,10.34c0,2,.47,2.63,2.42,3.06a19,19,0,0,0,6.09,0,1.93,1.93,0,0,0,1.7-1.63C200.22,214.83,200.26,214,200.36,213.26Zm-32.22,25.66a43.84,43.84,0,0,0,9.84-.4,6.78,6.78,0,0,0,6.06-5.19c1.11-3.81.14-7.6-1.53-10.94-3.06-6.14-7.95-8.55-15.77-7.09-4.71.88-8,3.37-9.67,7.95a52.41,52.41,0,0,0-2,7.41,4.25,4.25,0,0,0,2.19,4.92C160.77,237.67,164.81,238.15,168.14,238.92Zm12.22-34.45c.45-1.92-.44-3.43-2.2-4.56q-1.32-.84-2.63-1.71c-.67-.45-1.52-.73-1.29-1.87.12-.57-.45-.89-.93-.77-1.48.35-3.4-.47-4.25,1.66-.25.62-1.1.75-1.74,1a9.88,9.88,0,0,0-2.93,1.48,5.15,5.15,0,0,0,.19,8.43,13.35,13.35,0,0,0,1.77,1,4.28,4.28,0,0,1,2.2,2.06c.82,1.7,2.22,2,3.92,1.14,1.17-.58,2.36-1.13,3.58-1.6C178.82,209.64,180.07,207.53,180.36,204.47Zm-43,27.56a4.63,4.63,0,0,0-.43-2.07.87.87,0,0,0-1.21-.66c-.7.27-.39.84-.19,1.33A2,2,0,0,0,137.38,232Zm1.47-5.76c-.48.36-1,.71-1,1.33s.29,1.23.93,1.22a.85.85,0,0,0,.78-1.11C139.44,227.21,139.47,226.57,138.86,226.27Z"/><path class="cls-5" d="M168.58,72.85c5.73,0,11.35,1.24,17,1.49,4.64.2,9.28.37,13.91.82,1.68.17,3.25.75,4.93.89a2.15,2.15,0,0,1,1.68,1.29,6.87,6.87,0,0,1-.79,6.38,3.73,3.73,0,0,1-2.94,1.21c-3.28,0-6.56,0-9.83,0-4.21,0-8.43,0-12.64-.08-3.23-.05-6.46-.26-9.69-.32-4-.06-7.91.06-11.86-.07-3.7-.11-7.41.15-11.09-.42a4.16,4.16,0,0,1-3.37-3.67c-.21-2.54,1.06-4.93,3.16-5.37,5.08-1.06,10.1-2.62,15.42-2.09A53.14,53.14,0,0,0,168.58,72.85Z"/><path class="cls-6" d="M165.35,243.4c7.16,1.89,14.52,2,21.83,2.21,5.59.17,11.12-.45,15.74-4.33.4,4.08-2.21,7.39-6.08,7.66-8.88.62-17.78,1.43-26.63-.08-5.63-1-11.47-.69-16.93-2.38-3.39-1-6.89-.42-10.19-1.49-1.94-.63-3.83-1.4-5.72-2.16-2.88-1.16-3.1-3.64-3-6.52,1.64.81,3.15,1.56,4.67,2.3,2.81,1.37,5.5,3.11,8.82,3Z"/><path class="cls-7" d="M138.43,282.24a48.86,48.86,0,0,1-2.41-8.95c-1.62-8.64-1.55-17.34-.91-26.05.19-2.59.16-2.49,2.6-1.75,1.57.48,1.75,1.49,1.76,2.86q.15,13.64-.77,27.25C138.55,277.65,138.52,279.72,138.43,282.24Z"/><path class="cls-6" d="M165.21,57.29c.24-1.54.17-3.82.93-6a8.56,8.56,0,0,1,1.33-2.47c1.11-1.41,1.46-1.38,2.45.18,1.1,1.73,1,3.7,1.1,5.63.25,4.7.68,9.4.09,14.11-.26,2.06-.47,2.31-2.52,2.35-4,.07-3.18.33-3.68-3.26A41.16,41.16,0,0,1,165.21,57.29Z"/><path class="cls-6" d="M179.18,46.86a26.86,26.86,0,0,1,.69,6.73c.09,4.79-.82,9.48-1.46,14.19,0,.1,0,.21,0,.31-.43,3.5-.43,3.47-3.91,3-.85-.11-1.21-.42-1.16-1.25.42-6.05.24-12.14,1.11-18.17C174.8,49,176.94,47.93,179.18,46.86Z"/><path class="cls-6" d="M181.22,67.5c.45-4,1.3-7.84,3.74-11.15a6.92,6.92,0,0,1,1.73-1.8c1.28-.84,2.4-.26,2.46,1.28a12.28,12.28,0,0,1-.77,3.51c-.95,3.69-2.22,7.28-3.06,11-.35,1.54-3.11,2.25-4.27,1.15-.28-.26-.19-.58-.16-.88C181,69.58,181.11,68.54,181.22,67.5Z"/><path class="cls-8" d="M165.35,243.4l-17.53-1.81a1.73,1.73,0,0,1,1.36-.14q7.43.75,14.86,1.53A1.81,1.81,0,0,1,165.35,243.4Z"/><path class="cls-8" d="M186.69,195.37c-.76.41-1.54.09-2.29,0-3.22-.28-6.43-.63-9.64-1a2.1,2.1,0,0,1-1.46-.43Z"/><path class="cls-9" d="M176.6,178c-1.21,1.39-2.22,2.66-3.35,3.82-5.11,5.25-12.06,6.33-19.52,3-5.58-2.49-9.54-6.49-9.91-12.79-.29-4.9,0-9.95,3.55-13.94,4.11-4.69,9.46-6.4,15.54-5.58,7.68,1,11.58,6.62,14.86,12.84.14.27.23.58.35.86,0,0,.06.06.19.16,2-4.53,5.85-7,9.88-9.27a5.76,5.76,0,0,1,3.26-.91c5.27.31,10.33,1.45,14.36,5,5.07,4.5,6.24,10.13,4,16.54-3.12,8.75-10.63,13.09-19.63,11a19.3,19.3,0,0,1-12.48-9Zm-14-23.38a21.53,21.53,0,0,0-7,.69,2.49,2.49,0,0,0-2.12,2.2,17.23,17.23,0,0,0,0,7.16c1.27,5.52,5,9.31,9.13,12.75a15.09,15.09,0,0,0,6.88,3.21,2.8,2.8,0,0,0,3-1,16.12,16.12,0,0,0,3.54-8.21c.77-7.63-4.85-12.78-11-16.21A5.49,5.49,0,0,0,162.61,154.57Zm24.6,23.51a31,31,0,0,0,11.36-1.46,13.73,13.73,0,0,0,8.83-8.91,2.1,2.1,0,0,0-.44-2.28,18.24,18.24,0,0,0-13-6.74,10.55,10.55,0,0,0-7.59,1.76c-3.59,2.63-6,5.8-6.64,10.35-.47,3.43.12,4.91,3.29,6.31A13.58,13.58,0,0,0,187.21,178.08Zm-18.09,4.35C158,177.6,150.8,170.11,151.2,157.25c-6.4,3.87-6.57,15.25-3.43,20.28C151,182.76,162,187.82,169.12,182.43Zm39.52-12.28c-.84,1-1.44,1.71-2,2.42a20.69,20.69,0,0,1-13.74,7.4,31.82,31.82,0,0,1-11-1c-.29-.07-.61-.39-.87-.11s-.07.69.06,1a7,7,0,0,0,3.39,3.76c5,2.64,10.25,3,15.68,2.06a5.23,5.23,0,0,0,3.08-1.74c.9-1,1.83-2,2.7-3.06C208.44,177.86,209.2,174.36,208.64,170.15Z"/><path class="cls-9" d="M164,126.75c.83.39,1.16-.13,1.56-.42a18.91,18.91,0,0,1,21.1-.22c3.66,2.44,4.76,5.9,4.6,10A30.15,30.15,0,0,1,188.6,147a4.52,4.52,0,0,1-1.13,1.67c-5.36,4.59-11.29,6.86-18.38,4.57a10.92,10.92,0,0,1-6.8-6.29,27.45,27.45,0,0,1-2.4-9.51,12.06,12.06,0,0,1,1.07-4.7c.3-.88.66-1.74,1.13-3a21,21,0,0,1-7.44,3.19c-5.65.89-11,.23-15.48-3.66-4.61-4-6.53-12.56-4.23-17.43a17.79,17.79,0,0,1,6.73-7.09c3.17-2.09,6.32-4.39,10.39-4.36a13.08,13.08,0,0,1,10.32,4.43,21.69,21.69,0,0,1,4.59,7.06,13.05,13.05,0,0,1-.32,9.63A32.72,32.72,0,0,1,164,126.75Zm25.24,10.83c.51-3.18.33-6.26-2.24-8.55-6.89-6.17-17.56-5.88-23.51,2.41-1,1.38-1.6,2.93-.91,4.56,1.45,3.41,3.51,6.29,7.23,7.59a46.62,46.62,0,0,0,7.6,1.85,13.71,13.71,0,0,0,8.66-1.38,4.92,4.92,0,0,0,2.9-3.84C189.11,139.35,189.17,138.46,189.26,137.58Zm-34.79-35c-6.49-.76-15.84,5-18,10.88a2.16,2.16,0,0,0,.68,2.67c1.26,1,2.45,2.13,3.77,3.07,3.34,2.39,6.91,4,11.19,2.91.4-.11.83-.12,1.24-.19,3.83-.65,7.39-1.88,10.12-4.83a4.35,4.35,0,0,0,.85-5.33,33.19,33.19,0,0,0-3.34-5.48A9.63,9.63,0,0,0,154.48,102.59ZM136.35,118c.65,3.87,1.91,7.28,4.79,9.88a7.52,7.52,0,0,0,3.87,2,32.27,32.27,0,0,0,10.61.18c4.29-.78,7.94-4.6,8.38-8.5.15-1.34-.15-1.55-1.4-1a47.68,47.68,0,0,1-10,3.61c-5.42,1.1-10-.1-13.71-4.4A6.81,6.81,0,0,0,136.35,118Zm25.92,21.82a3.71,3.71,0,0,0,.19,2.63,22.14,22.14,0,0,0,3.39,6.51,6.72,6.72,0,0,0,4,2.51,16,16,0,0,0,5,.52,14.49,14.49,0,0,0,10.47-5.39C176.33,148.12,168.34,147.24,162.27,139.87Z"/><path class="cls-9" d="M133,162.61a9.7,9.7,0,0,1-4.59-1.43,25.46,25.46,0,0,1-9.05-8.95c-3.7-6.25-.82-14.49,6-17.68a17.36,17.36,0,0,1,10.65-1.72,5.69,5.69,0,0,0,1.4.14c4.4-.34,7.34,2,10,5.14,1.83,2.14,2.27,4.66,2.45,7.27.65,9.38-4.94,16.07-14.32,17.28A13.35,13.35,0,0,1,133,162.61Zm3.53-27.39c-4.27-1-8-.29-11.11,2.84a19.13,19.13,0,0,0-4.12,6c-1.57,3.71-.18,6.38,3.68,7.27l.31.07a19.57,19.57,0,0,0,20.89-8,2.28,2.28,0,0,0,0-2.87C143.81,137,140.87,134.71,136.51,135.22Zm10.92,9.57c-.53.08-.69.45-.92.71a28.56,28.56,0,0,1-6,5.21c-5.08,3.23-10.57,3.58-16.3,2.35-.33-.07-.72-.38-1,.09s.19.65.45.87c1.44,1.29,2.84,2.63,4.35,3.83a10.71,10.71,0,0,0,6.91,2.58,12.54,12.54,0,0,0,12.42-10.15C147.7,148.51,148.24,146.63,147.43,144.79Z"/><path class="cls-9" d="M168.14,238.92c-3.33-.77-7.36-1.25-10.92-3.35a4.25,4.25,0,0,1-2.19-4.92,52.41,52.41,0,0,1,2-7.41c1.64-4.58,5-7.07,9.67-7.95,7.82-1.46,12.7,1,15.77,7.09,1.67,3.35,2.64,7.13,1.53,10.94a6.78,6.78,0,0,1-6.06,5.19A43.84,43.84,0,0,1,168.14,238.92Zm-.93-1.93a42.19,42.19,0,0,0,11.84-.66c1.78-.3,3.2-1.88,2.91-3.13a7.28,7.28,0,0,0-2.58-4.53,17.46,17.46,0,0,0-11.55-3.59c-3.45.2-6.71,1-9.33,3.51-2.3,2.18-2.09,4.17.72,5.72A21.55,21.55,0,0,0,167.21,237Zm-8.94-10.86c8.3-4.75,16-3.42,23.43,1.28a9.36,9.36,0,0,0-3.22-7.32c-3.91-3.42-11.54-4.1-16-1.4C159.85,220.31,158.58,222.74,158.27,226.13Z"/><path class="cls-9" d="M180.36,204.47c-.29,3.05-1.54,5.16-4.31,6.23-1.22.47-2.41,1-3.58,1.6-1.7.84-3.11.56-3.92-1.14a4.28,4.28,0,0,0-2.2-2.06,13.35,13.35,0,0,1-1.77-1,5.15,5.15,0,0,1-.19-8.43,9.88,9.88,0,0,1,2.93-1.48c.64-.22,1.49-.35,1.74-1,.85-2.13,2.77-1.31,4.25-1.66.49-.11,1.05.2.93.77-.23,1.14.61,1.43,1.29,1.87q1.31.87,2.63,1.71C179.92,201,180.81,202.56,180.36,204.47ZM168.9,206.7c0-2.26,0-4.18,0-6.11,0-.43,0-.77-.63-.78a4.13,4.13,0,0,0-4.11,3.36,3.9,3.9,0,0,0,3.3,4.39C168.38,207.72,169.13,207.68,168.9,206.7Zm5.71-3.9h0c-.06,1-.08,3.5-.21,5.27-.07,1,.27,1.05,1.08.81a4.57,4.57,0,0,0,3.3-3.82,4,4,0,0,0-1.93-4.29c-.58-.35-1.26-.83-1.89-.54s-.11,1.17-.27,1.74C174.57,202.2,174.61,201.79,174.6,202.79Zm-1.7,3.84a25.35,25.35,0,0,0-.78-8.29c-.06-.28-.07-.72-.47-.69a1.58,1.58,0,0,0-.77.46c-.45.39-.34,1-.37,1.47-.09,1.82-.14,3.65-.19,5.47,0,1.25-.08,2.5-.08,3.75,0,.71.21,1.59.84,1.68s1.11-.58,1.29-1.34A13.06,13.06,0,0,0,172.9,206.63Z"/><path class="cls-2" d="M200.36,213.26c-.1.78-.15,1.57-.32,2.33a1.93,1.93,0,0,1-1.7,1.63,19,19,0,0,1-6.09,0c-1.95-.43-2.39-1.06-2.42-3.06a91.91,91.91,0,0,1,.74-10.34c.37-3.67.37-3.68,4.1-4.25,1.4-.21,2.8-.43,4.2-.54,1.9-.15,2.56.57,2.41,2.5-.06.73-.12,1.46-.19,2.19A61.67,61.67,0,0,0,200.36,213.26Zm-8.3-4.65a26.55,26.55,0,0,0-.22,5c0,1.57.75,2.54,2,2.71a3.75,3.75,0,0,0,4-3c.43-2.84.84-5.67,1.2-8.52.5-4,.78-3.93-3.65-3.41a2.52,2.52,0,0,0-2.43,1.88A22.27,22.27,0,0,0,192.06,208.61Z"/><path class="cls-9" d="M137.38,232a2,2,0,0,1-1.84-1.4c-.2-.49-.51-1.05.19-1.33a.87.87,0,0,1,1.21.66A4.63,4.63,0,0,1,137.38,232Z"/><path class="cls-2" d="M138.86,226.27c.62.3.58.93.73,1.44a.85.85,0,0,1-.78,1.11c-.64,0-.91-.65-.93-1.22S138.38,226.63,138.86,226.27Z"/><path class="cls-10" d="M162.61,154.57a5.49,5.49,0,0,1,2.35.59c6.1,3.43,11.73,8.58,11,16.21a16.12,16.12,0,0,1-3.54,8.21,2.8,2.8,0,0,1-3,1,15.09,15.09,0,0,1-6.88-3.21c-4.18-3.43-7.86-7.23-9.13-12.75a17.23,17.23,0,0,1,0-7.16,2.49,2.49,0,0,1,2.12-2.2A21.53,21.53,0,0,1,162.61,154.57Z"/><path class="cls-10" d="M187.21,178.08a13.58,13.58,0,0,1-4.18-1c-3.17-1.41-3.76-2.89-3.29-6.31.62-4.55,3-7.72,6.64-10.35a10.55,10.55,0,0,1,7.59-1.76,18.24,18.24,0,0,1,13,6.74,2.1,2.1,0,0,1,.44,2.28,13.73,13.73,0,0,1-8.83,8.91A31,31,0,0,1,187.21,178.08Z"/><path class="cls-11" d="M169.12,182.43c-7.12,5.39-18.07.33-21.35-4.9-3.15-5-3-16.41,3.43-20.28C150.8,170.11,158,177.6,169.12,182.43Z"/><path class="cls-12" d="M208.64,170.15c.56,4.22-.2,7.71-2.76,10.73-.88,1-1.8,2-2.7,3.06a5.23,5.23,0,0,1-3.08,1.74c-5.44.93-10.72.58-15.68-2.06a7,7,0,0,1-3.39-3.76c-.13-.34-.35-.73-.06-1s.58,0,.87.11a31.82,31.82,0,0,0,11,1,20.69,20.69,0,0,0,13.74-7.4C207.2,171.86,207.8,171.14,208.64,170.15Z"/><path class="cls-10" d="M154.48,102.59a9.63,9.63,0,0,1,6.48,3.69,33.19,33.19,0,0,1,3.34,5.48,4.35,4.35,0,0,1-.85,5.33c-2.73,3-6.29,4.19-10.12,4.83-.41.07-.84.08-1.24.19-4.28,1.14-7.85-.51-11.19-2.91-1.31-.94-2.51-2.05-3.77-3.07a2.16,2.16,0,0,1-.68-2.67C138.64,107.59,148,101.83,154.48,102.59Z"/><path class="cls-6" d="M136.35,118a6.81,6.81,0,0,1,2.55,1.77c3.67,4.3,8.29,5.49,13.71,4.4a47.68,47.68,0,0,0,10-3.61c1.25-.56,1.55-.35,1.4,1-.44,3.9-4.09,7.72-8.38,8.5A32.27,32.27,0,0,1,145,129.9a7.52,7.52,0,0,1-3.87-2C138.25,125.32,137,121.92,136.35,118Z"/><path class="cls-10" d="M189.26,137.58c-.09.88-.15,1.77-.28,2.65a4.92,4.92,0,0,1-2.9,3.84,13.71,13.71,0,0,1-8.66,1.38,46.62,46.62,0,0,1-7.6-1.85c-3.71-1.31-5.78-4.18-7.23-7.59-.69-1.64-.08-3.18.91-4.56,5.95-8.29,16.62-8.58,23.51-2.41C189.59,131.32,189.77,134.4,189.26,137.58Z"/><path class="cls-13" d="M162.27,139.87c6.07,7.38,14.06,8.25,23,6.78A14.49,14.49,0,0,1,174.85,152a16,16,0,0,1-5-.52,6.72,6.72,0,0,1-4-2.51,22.14,22.14,0,0,1-3.39-6.51A3.71,3.71,0,0,1,162.27,139.87Z"/><path class="cls-10" d="M136.51,135.22c4.36-.51,7.3,1.81,9.63,5.3a2.28,2.28,0,0,1,0,2.87,19.57,19.57,0,0,1-20.89,8l-.31-.07c-3.86-.89-5.26-3.55-3.68-7.27a19.13,19.13,0,0,1,4.12-6C128.51,134.93,132.24,134.26,136.51,135.22Z"/><path class="cls-14" d="M147.43,144.79c.8,1.84.27,3.72-.1,5.49a12.54,12.54,0,0,1-12.42,10.15,10.71,10.71,0,0,1-6.91-2.58c-1.51-1.21-2.91-2.54-4.35-3.83-.25-.22-.69-.42-.45-.87s.64-.16,1-.09c5.72,1.23,11.22.88,16.3-2.35a28.56,28.56,0,0,0,6-5.21C146.75,145.24,146.9,144.88,147.43,144.79Z"/><path class="cls-9" d="M225.56,141.85c-.86,8-6,13.9-13.18,15.15a21,21,0,0,1-11.4-1.09c-4.76-1.85-7.86-7.1-8.33-12.6-.61-7.21,7.51-16,15.11-15.5,3.12.21,6.27.18,9.39.4a6.8,6.8,0,0,1,4.52,2.24C225.09,134,226.09,136.93,225.56,141.85Zm-11.84-12c-.52-.05-1-.14-1.56-.16-3.11-.1-3.75.31-5,3.13-3.15,6.86-2.05,13.32,1.84,19.5,1.56,2.47,3.46,3,6.19,1.83,3.9-1.62,6.08-4.81,7.71-8.47C226.17,138.17,221.83,130.66,213.71,129.84ZM208.59,155c0-.17,0-.23,0-.27a2.12,2.12,0,0,0-.22-.4c-5.1-6.54-6-13.7-3.23-21.44.28-.79,1.21-1.92.53-2.38s-1.9.37-2.8.84a1.31,1.31,0,0,0-.25.19,46.51,46.51,0,0,0-6.16,6.26,7.7,7.7,0,0,0-1.66,5.72C195.65,151.18,200.64,154.82,208.59,155Z"/><path class="cls-10" d="M213.71,129.84c8.12.83,12.46,8.34,9.12,15.83-1.63,3.66-3.8,6.85-7.71,8.47-2.73,1.13-4.63.64-6.19-1.83-3.89-6.18-5-12.65-1.84-19.5,1.3-2.82,1.94-3.23,5-3.13C212.67,129.7,213.19,129.78,213.71,129.84Z"/><path class="cls-7" d="M208.59,155c-8-.19-12.94-3.82-13.78-11.47a7.7,7.7,0,0,1,1.66-5.72,46.51,46.51,0,0,1,6.16-6.26,1.31,1.31,0,0,1,.25-.19c.9-.47,2-1.38,2.8-.84s-.25,1.59-.53,2.38c-2.77,7.74-1.87,14.9,3.23,21.44a2.12,2.12,0,0,1,.22.4S208.59,154.83,208.59,155Z"/><path class="cls-10" d="M167.21,237a21.55,21.55,0,0,1-8-2.68c-2.81-1.55-3-3.54-.72-5.72,2.62-2.49,5.88-3.3,9.33-3.51a17.46,17.46,0,0,1,11.55,3.59A7.28,7.28,0,0,1,182,233.2c.29,1.24-1.13,2.83-2.91,3.13A42.19,42.19,0,0,1,167.21,237Z"/><path class="cls-6" d="M158.27,226.13c.31-3.39,1.59-5.83,4.24-7.45,4.43-2.7,12.06-2,16,1.4a9.36,9.36,0,0,1,3.22,7.32C174.23,222.71,166.57,221.38,158.27,226.13Z"/><path class="cls-15" d="M168.9,206.7c.23,1-.51,1-1.49.86a3.9,3.9,0,0,1-3.3-4.39,4.13,4.13,0,0,1,4.11-3.36c.65,0,.63.35.63.78C168.87,202.51,168.88,204.44,168.9,206.7Z"/><path class="cls-15" d="M174.6,202.79c0-1,0-.59,0-.84.16-.57-.4-1.41.27-1.72s1.32.17,1.89.52a3.94,3.94,0,0,1,1.93,4.28,4.55,4.55,0,0,1-3.3,3.8c-.8.25-1.15.18-1.08-.78.13-1.77.14-4.27.21-5.27Z"/><path class="cls-15" d="M172.9,206.63a13.06,13.06,0,0,1-.53,2.51c-.18.76-.72,1.43-1.29,1.34s-.85-1-.84-1.68c0-1.25,0-2.5.08-3.75.05-1.82.11-3.65.19-5.47,0-.5-.09-1.07.37-1.47a1.58,1.58,0,0,1,.77-.46c.4,0,.41.41.47.69A25.35,25.35,0,0,1,172.9,206.63Z"/><path class="cls-16" d="M192.06,208.61a22.27,22.27,0,0,1,.9-5.42,2.52,2.52,0,0,1,2.43-1.88c4.43-.52,4.15-.54,3.65,3.41-.36,2.84-.77,5.68-1.2,8.52a3.75,3.75,0,0,1-4,3c-1.29-.16-2-1.14-2-2.71A26.55,26.55,0,0,1,192.06,208.61Z"/></svg>