<svg id="圖層_1" data-name="圖層 1" xmlns="http://www.w3.org/2000/svg" viewBox="0 0 65.96 55.16"><defs><style>.cls-1{fill:#926c49;}.cls-2{fill:#b18c53;}</style></defs><title>graphic</title><path d="M60.49,25.68a2.13,2.13,0,0,1-2.57,1.85,34.29,34.29,0,0,0-3.54-.28c.35,1.43.63,2.49.86,3.58.42,2,.73,3.94,1.23,5.89.35,1.38,1,2.69,1.37,4.06.3,1,.46,2,.67,3,.15.72-.14,1.08-.89,1.05l-5.29-.21a4.94,4.94,0,0,0-1.09,0c-3.34.63-3.25-.23-4.38-3.29-1-2.78-1.82-5.65-2.72-8.47-.46-1.45-1-2.89-1.39-4.35a1.68,1.68,0,0,0-2-1.44c-2.88.19-5.77.29-8.66.28-2.61,0-5.21-.18-7.81-.36a1.37,1.37,0,0,0-1.61,1.08C21.31,32.53,19.9,37,18.45,41.37a16.06,16.06,0,0,1-1.29,3,1.68,1.68,0,0,1-1.26.51c-2.61,0-5.22,0-7.84,0-1.06,0-1.45-.51-1.14-1.57.6-2.1,1.33-4.17,1.86-6.29s.86-4.32,1.32-6.48c.21-1,.5-1.93.81-3.08-1.66-.22-3.09-.36-4.5-.64-.38-.08-.93-.58-.94-.9,0-1.19.16-2.39.24-3.58a12.56,12.56,0,0,0,0-2.61,1.28,1.28,0,0,1,1.2-1.62c1.78-.11,3.58.07,5.37.06,1.52,0,3-.16,4.57-.17,2.28,0,4.57,0,6.86,0,2.65,0,5.29-.07,7.93-.11,2,0,3.94,0,5.9-.07,2.53-.07,5.06-.3,7.58-.27,3.93.06,7.86.33,11.8.41,1.08,0,2.11-.12,2.71,1a4.55,4.55,0,0,1,.65,1.63C60.45,22.3,60.47,24,60.49,25.68Zm-2.58-.47c0-1.25.09-2.45,0-3.63A1.57,1.57,0,0,0,56,20c-1.59.17-3.21.21-4.81.26s-2.93,0-4.51,0c.14,1.9.26,3.6.39,5.42Zm-2,17.72s.15,0,.46-.1A46.5,46.5,0,0,1,54.61,37a42.27,42.27,0,0,0-2.52-9,1.32,1.32,0,0,0-.78-.75,16.68,16.68,0,0,0-2.36,0c.6,2.27,1.12,4.28,1.68,6.27s1.16,3.91,1.73,5.86a24.09,24.09,0,0,0,.82,2.88C53.75,43.61,55.08,42.37,55.93,42.93Zm-7.39-1.62c.54,1.56,1.34,1.94,3.06,1.34-.6-2.05-1.21-4.1-1.79-6.16-.2-.72-.23-1.49-.47-2.19-.62-1.73-1.36-3.41-2-5.13s-.63-1.85-2.55-1.87H44c.69,3.15,2.34,5.82,2.76,8.92C47,38,47.95,39.6,48.54,41.31ZM44.6,25.4c0-1.48,0-3,0-4.6,0-.28-.58-.73-.93-.76-1.33-.13-2.68-.16-4-.15-3.22,0-6.45.06-9.67.1-2.54,0-5.07.08-7.61.07-4,0-8.09-.08-12.14-.08-1.84,0-2,.2-2.3,2-.1.6-.19,1.2-.29,1.79-.14.86.17,1.27,1.09,1.28,2.29,0,4.58.13,6.87.18,4,.09,8,.2,11.94.24,3.54,0,7.07,0,10.61,0ZM21.5,27.07H18.43l-4.8,15.68c2.1.29,2.66.08,3-1,.56-1.63,1.15-3.25,1.67-4.9.6-1.89,1.11-3.81,1.71-5.7C20.47,29.81,21,28.52,21.5,27.07Zm-5-.08a21,21,0,0,0-2.27,0,1.1,1.1,0,0,0-.77.56c-.68,1.88-1.37,3.77-1.93,5.69-.66,2.27-1.2,4.57-1.79,6.86-.23.91-.44,1.82-.66,2.74.8,0,1.47,0,2.14,0s.86-.17,1-.83c.77-2.86,1.68-5.69,2.49-8.54C15.32,31.4,15.85,29.27,16.46,27Z"/><path class="cls-1" d="M57.88,21.57c.12,1.18,0,2.39,0,3.63L47,25.65c-.13-1.82-.26-3.52-.39-5.42,1.58,0,3,0,4.51,0S54.37,20.13,56,20A1.57,1.57,0,0,1,57.88,21.57Z"/><path class="cls-1" d="M56.39,42.83c-.31.07-.41.13-.46.1-.85-.55-2.18.68-2.77-.65a24.09,24.09,0,0,1-.82-2.88c-.57-2-1.18-3.9-1.73-5.86s-1.08-4-1.68-6.27a16.68,16.68,0,0,1,2.36,0,1.32,1.32,0,0,1,.78.75,42.27,42.27,0,0,1,2.52,9A46.5,46.5,0,0,0,56.39,42.83Z"/><path class="cls-2" d="M51.6,42.65c-1.72.6-2.51.22-3.06-1.34S47,38,46.76,36.21c-.42-3.1-2.07-5.77-2.76-8.92h.8c1.92,0,1.88,0,2.55,1.87s1.36,3.4,2,5.13c.25.69.27,1.47.47,2.19C50.38,38.54,51,40.59,51.6,42.65Z"/><path class="cls-2" d="M44.56,20.8c.09,1.55,0,3.12,0,4.6H38.11c-3.54,0-7.07.07-10.61,0-4,0-8-.15-11.94-.24C13.27,25.14,11,25,8.69,25c-.92,0-1.23-.42-1.09-1.28.1-.6.19-1.19.29-1.79.29-1.78.46-2,2.3-2,4,0,8.09.07,12.14.08,2.54,0,5.07,0,7.61-.07,3.23,0,6.45-.09,9.67-.1,1.34,0,2.69,0,4,.15C44,20.07,44.54,20.52,44.56,20.8Z"/><path class="cls-1" d="M18.43,27.07H21.5c-.52,1.45-1,2.74-1.46,4.06-.6,1.89-1.11,3.81-1.71,5.7-.52,1.65-1.11,3.27-1.67,4.9-.38,1.1-.94,1.31-3,1Z"/><path class="cls-2" d="M14.19,27a21,21,0,0,1,2.27,0c-.61,2.28-1.14,4.41-1.74,6.51C13.9,36.36,13,39.18,12.23,42c-.18.66-.42.86-1,.83s-1.35,0-2.14,0c.22-.92.43-1.83.66-2.74.58-2.29,1.12-4.59,1.79-6.86.56-1.92,1.25-3.81,1.93-5.69A1.1,1.1,0,0,1,14.19,27Z"/></svg>