<svg id="圖層_1" data-name="圖層 1" xmlns="http://www.w3.org/2000/svg" viewBox="0 0 197.82 186.02"><defs><style>.cls-1,.cls-9{fill:#080505;}.cls-1{stroke:#0a0808;stroke-miterlimit:10;stroke-width:2px;}.cls-1,.cls-10,.cls-11,.cls-12,.cls-13,.cls-14,.cls-15,.cls-16,.cls-2,.cls-3,.cls-4,.cls-5,.cls-6,.cls-7,.cls-8,.cls-9{fill-rule:evenodd;}.cls-2{fill:#fefefe;}.cls-3{fill:#97907c;}.cls-4{fill:#918c7a;}.cls-5{fill:#0b0a0a;}.cls-6{fill:#0f1010;}.cls-7{fill:#121312;}.cls-8{fill:#0b0a09;}.cls-10{fill:#308cad;}.cls-11{fill:#fdfefe;}.cls-12{fill:#b55549;}.cls-13{fill:#ad5a4e;}.cls-14{fill:#dcb73b;}.cls-15{fill:#977b5d;}.cls-16{fill:#1b1d1c;}</style></defs><title>graphic</title><path class="cls-1" d="M72.39,38.38c7.49-.57,14,2.54,20.33,6.12a52.31,52.31,0,0,1,11.68,9c.87.89,1.71,1.8,2.5,2.76a1.81,1.81,0,0,0,2.33.57c3.4-1.26,6.8-2.56,10.27-3.59a61.13,61.13,0,0,1,9.73-2c1.48-.19,3,0,4.49-.07a66.11,66.11,0,0,0,7.44-.23,13.52,13.52,0,0,1,3.7.18c4.9.67,9.78,1.44,14.63,2.42,2.07.42,3.7,1.68,5.41,2.77a81,81,0,0,1,6.7,4.57,12.19,12.19,0,0,0,3.65,2.08c1.84.63,2.85,2.48,4,4,1.55,2.1,2.9,4.35,4.49,6.43a1.53,1.53,0,0,1,.08,1.85,67,67,0,0,0-4.21,10c-2.61,7-4.06,14.41-7.14,21.26a15.91,15.91,0,0,0-.86,2.51c-1.29,5-3.33,9.69-5.12,14.49a43.46,43.46,0,0,0-1.88,9.19,23.11,23.11,0,0,1-1.24,5.41,13.5,13.5,0,0,0-1,4.1c-.2,2.82-1.39,5.38-2.14,8.05-.62,2.18-1.38,4.36-1.2,6.7a3.18,3.18,0,0,1-.67,2.11c-.49.68-1,1.37-1.52,2a3.8,3.8,0,0,1-5.46.91,52.45,52.45,0,0,0-5.18-2.71,11.59,11.59,0,0,1-4.28-3.09,3.43,3.43,0,0,0-1.62-1.12,45.21,45.21,0,0,0-12-2.52c-4.33-.16-8.67-.64-13-.4A31.14,31.14,0,0,0,103.34,155,6.43,6.43,0,0,0,99.6,159a1.68,1.68,0,0,1-2.48,1.19c-3.8-1.33-7.8-1.93-11.65-3a4.29,4.29,0,0,0-2,0c-1.74.29-2.23-.11-2.92-1.7-.94-2.15-2-4.24-3-6.35A5.42,5.42,0,0,0,75.33,147c-3.59-2.26-7-4.78-11-6.34a20.85,20.85,0,0,0-10.16-1.16c-2.67.3-5.4.08-8.07.62-2,.41-4.1.69-6.1,1.22-4,1.07-7.11-1.83-8.34-5-.72-1.85-1.86-3.48-2.59-5.36-1.55-4-1.13-8.11-1-12.21.06-1.55.31-3.11.3-4.63,0-5.51,1.23-10.79,2.33-16.12a92.09,92.09,0,0,1,5.33-16.79,156,156,0,0,0,6-18.56,163.59,163.59,0,0,1,6.3-17.91,2.82,2.82,0,0,1,1.4-1.55c3.8-1.81,7.63-3.69,11.84-4.21A59.45,59.45,0,0,1,72.39,38.38ZM92.85,141.09a47.12,47.12,0,0,1,1-7,5.72,5.72,0,0,0,0-2c-.53-5-.79-10,.39-14.94,2.35-9.76,4.68-19.51,6.84-29.31.95-4.32,1.7-8.69,2.83-13,1.27-4.79,2.2-9.54,1.62-14.53a4.47,4.47,0,0,0-1.22-2.81,62.29,62.29,0,0,0-17-12.61c-5.36-2.65-10.82-4.23-17-3.63a63.13,63.13,0,0,0-17.73,4,4.43,4.43,0,0,0-2.83,2.61c-1.19,3.42-2.67,6.73-3.75,10.2C44,64.46,42.5,71,40.18,77.23c-1.17,3.14-2.57,6.21-3.7,9.35-1.21,3.38-1.94,7-2.92,10.44a94.17,94.17,0,0,0-3.26,19.6,37.28,37.28,0,0,0,.31,10.44c.29,1.32.74,1.57,2,1a37.78,37.78,0,0,1,6-1.78c3.43-.83,6.82-2.13,10.38-2,5.45.27,10.91,0,16.34.54s10.89,1.76,15.45,5.32C84.94,133.52,89.76,136.13,92.85,141.09Zm2.46,1.86a7.37,7.37,0,0,1,4-2.53c1.93-.34,3.74-1,5.61-1.54a38.08,38.08,0,0,1,6.67-1c2.29-.21,4.57.35,6.85-.18a10.55,10.55,0,0,1,2.37-.14c5.85,0,11.51,1.32,17.19,2.47a73.84,73.84,0,0,1,10,3.1c1.16.41,1.59,0,1.67-1.08a12.41,12.41,0,0,1,.73-3.09c1.54-4.51,3.43-8.93,4.54-13.54,1.82-7.6,3.58-15.22,5.43-22.82,1.06-4.33,2.88-8.41,3.94-12.77.6-2.47,1.88-4.84,2.61-7.34,1.45-5,3.92-9.56,5.47-14.5a2.56,2.56,0,0,0-.69-3,36,36,0,0,0-7.1-5.35c-2.51-1.45-5-3-7.92-3.57-3.49-.67-7-.75-10.53-1.41a25.33,25.33,0,0,0-7.8-.3,70.93,70.93,0,0,1-7.55.63c-7.15.08-13.73,2.18-20.1,5.21a3.91,3.91,0,0,0-2.38,4.16,14.1,14.1,0,0,1-.51,4.74,125.24,125.24,0,0,0-4.09,16.58c-1.18,8.06-3.41,15.91-5.32,23.81-.9,3.75-2,7.48-2.15,11.31-.19,4.19-.7,8.4-.09,12.62a6.77,6.77,0,0,1-.1,2.25A49.82,49.82,0,0,0,95.31,142.95Zm-5.06,9.94a3.83,3.83,0,0,1,0,.57c-.08.73-.41,1.45.63,1.88a1.74,1.74,0,0,0,2.27-.76c.52-.67,1-1.35,1.56-2,2.94-3.4,7.14-4.66,11.05-6.3,6.17-2.58,12.89-2.36,19.39-3.19,2.86-.37,5.62.51,8.42,1.2,4.38,1.08,7.86,3.77,11.71,5.77a1,1,0,0,1,.59,1.09c-.14.51-.67.52-1.12.45a4.92,4.92,0,0,1-1.67-.35c-2.64-1.5-5.61-2.11-8.39-3.23-3.05-1.23-6.25-2.38-9.51-1.9-3.78.56-7.63.4-11.37,1.2-2.75.59-5.63.5-8.23,1.83-3.37,1.73-7.11,2.82-9.74,5.77-.28.31-1.21.57-.55,1.17a1.52,1.52,0,0,0,2.16.23,3.68,3.68,0,0,0,.59-.72,8.59,8.59,0,0,1,4.74-3.42c1.22-.39,2.42-.82,3.63-1.25a29.69,29.69,0,0,1,13.69-1.55c2.32.27,4.66.9,7,.53a15.58,15.58,0,0,1,8.4,1.2c3.48,1.38,7.12,2.33,10.36,4.34,2,1.26,4.14,2.37,6.05,3.83.42.32.86.74,1.43.49s.31-.86.32-1.31a11.65,11.65,0,0,0-1-5.29c-3.2-6.75-1.54-5.6-8.18-8a78,78,0,0,0-20.94-4.2,14.18,14.18,0,0,0-3.43-.2,21.81,21.81,0,0,1-6.22,0,8.08,8.08,0,0,0-3,.08c-4,1-7.93,2-11.82,3.28A3.51,3.51,0,0,0,97,145.63a3.64,3.64,0,0,1-1.88,1.61c-1.4.47-2,.18-2.19-1.26a3.09,3.09,0,0,0-.71-1.53,68.49,68.49,0,0,0-10.59-10.24c-3.73-3-8.22-4.49-12.71-5.74-3.54-1-7.22-1.71-11-1.08a8.72,8.72,0,0,1-2.76.07,21.78,21.78,0,0,0-4.62-.35,45.67,45.67,0,0,0-8.38,1c-3,.79-6.18,1.15-8.79,3.09-.53.39-1,.73-.92,1.45.3,1.88,1.18,2.48,3.06,1.95A119,119,0,0,0,48,130.75a6,6,0,0,1,3-.54c2.5.31,5-.16,7.5-.05a77.34,77.34,0,0,1,15.82,2.32A18.69,18.69,0,0,1,85.85,141c.64,1,1.28,2,1.95,3A14.48,14.48,0,0,1,90.25,152.88Zm65.36,2.05a9,9,0,0,0,.75-1.22c1.17-3,2.65-5.9,3.42-9a162.86,162.86,0,0,0,3.8-17.27c.47-3.48,1.86-6.8,3.1-10.08,2.24-5.89,3.8-12,6.26-17.81.8-1.88.91-3.94,1.57-5.86l6.11-17.61a3.54,3.54,0,0,0,.24-2.68,13.68,13.68,0,0,0-4.59-6.19c-.62-.45-.86-.31-1.34.3-1.29,1.65-1.26,3.73-2.06,5.54a106.9,106.9,0,0,0-4.51,11.56c-2.78,8.92-5.4,17.88-8,26.85-3,10.41-5.31,21-8.58,31.34a2.57,2.57,0,0,0-.21,1.16C152.13,147.8,154,151.15,155.61,154.94Zm-66.93-3.21a10.59,10.59,0,0,0-2.63-6.78c-2.18-2.48-4.2-5.11-7-7.07a17.71,17.71,0,0,0-8-3.35c-3.23-.44-6.51-.67-9.7-1.24a41.61,41.61,0,0,0-15.26.42c-2,.38-4,1.25-6,1.56A10.65,10.65,0,0,0,36,137c-.7.45-.54.78,0,1.16a4.24,4.24,0,0,0,3.89.78,37,37,0,0,1,12.57-1.78c4.06.08,8.12-.21,12,1.35,1.14.46,2.41,1,3.57-.18.17-.17.61-.13.9-.08,3.32.58,6.65,1.23,9.37,3.34,3.62,2.8,5.71,6.79,7.79,10.74.43.82.67,2.28,1.67,2.06S88.74,152.79,88.68,151.73ZM69,140a71.17,71.17,0,0,0,6.27,4.57,12.78,12.78,0,0,1,4,3.61A36,36,0,0,1,82,153.31a1.27,1.27,0,0,0,1.71.84c.75-.4,0-1-.27-1.39A30,30,0,0,0,74.07,142,13.24,13.24,0,0,0,69,140Z"/><path class="cls-2" d="M92.85,141.09c-3.08-5-7.9-7.56-12.13-10.86-4.56-3.56-9.87-4.78-15.45-5.32s-10.9-.28-16.34-.54c-3.56-.17-6.95,1.12-10.38,2a37.78,37.78,0,0,0-6,1.78c-1.23.52-1.68.27-2-1a37.28,37.28,0,0,1-.31-10.44A94.17,94.17,0,0,1,33.56,97c1-3.48,1.71-7.06,2.92-10.44,1.12-3.14,2.53-6.2,3.7-9.35C42.5,71,44,64.46,46,58.09c1.08-3.47,2.55-6.78,3.75-10.2a4.43,4.43,0,0,1,2.83-2.61,63.13,63.13,0,0,1,17.73-4c6.16-.61,11.62,1,17,3.63a62.29,62.29,0,0,1,17,12.61,4.47,4.47,0,0,1,1.22,2.81c.58,5-.35,9.75-1.62,14.53-1.14,4.27-1.89,8.64-2.83,13-2.16,9.8-4.49,19.56-6.84,29.31-1.18,4.9-.92,9.94-.39,14.94a5.72,5.72,0,0,1,0,2A47.12,47.12,0,0,0,92.85,141.09Zm1.76-74.63c-.21-2.21-.75-4.38-3.25-5.23-1.43-.48-2.89-.82-4.35-1.2-6.45-1.68-12.43-4.8-19-6a30.54,30.54,0,0,0-7.13-.41,2.77,2.77,0,0,0-2.33,1.52,51.45,51.45,0,0,0-2.4,4.72C53.89,64.74,52.81,70,51,74.95a71.79,71.79,0,0,0-2.55,10.42c-.32,1.66.28,2.42,1.94,2.6,1,.11,1.94.19,2.92.22a43.21,43.21,0,0,1,13.31,2.11,48.13,48.13,0,0,0,8.55,2.35c2,.32,3.58,1.46,5.34,2.29s1.95.78,3-.81c.56-.85,1.09-1.72,1.6-2.6a96.35,96.35,0,0,0,7.93-18.18A56.21,56.21,0,0,0,94.61,66.46ZM46,107.85c0,.62,0,1.24,0,1.86,0,.77.38,1.33,1.16,1.34s.88-.62,1-1.22c.16-1.18.3-2.37.48-3.55.43-2.71.87-5.41,1.32-8.12.14-.85,0-1.8-.83-2-.68-.14-.93.8-1.13,1.43A32.63,32.63,0,0,0,46,107.85Zm32.53,8.35c0,.31,0,.62,0,.93,0,.5.13.92.66,1a.89.89,0,0,0,1-.73,3.53,3.53,0,0,0,.22-.76c.31-3.92,1.28-7.74,1.78-11.64a2,2,0,0,0-.64-1.77.72.72,0,0,0-.82-.28.81.81,0,0,0-.58.8C80,107.95,78.42,112,78.54,116.2Zm-22.7-7c-.08.57.38,1.5,1.11,1.52s.89-1,.9-1.78a14.09,14.09,0,0,1,1.39-6.28A5.61,5.61,0,0,0,59.81,99c-.09-.48-.25-1-.88-1a1.17,1.17,0,0,0-1.18.89A69,69,0,0,0,55.84,109.16ZM67,100.34a.92.92,0,0,0-.8-.85c-.7-.12-1.06.43-1.19,1-.76,3.36-1.48,6.74-2.22,10.1a1.19,1.19,0,0,0,1,1.5c.65.12.92-.6.94-1.18a14.21,14.21,0,0,1,1-4A45.34,45.34,0,0,0,67,100.34Zm4.29,11c.13.69-.48,1.74.66,1.87s1.13-1,1.29-1.76c.47-2.43.92-4.85,1.46-7.26a2.39,2.39,0,0,0-.47-2.11c-.49-.64-1.12-.59-1.25.19C72.5,105.32,71.47,108.27,71.3,111.36Z"/><path class="cls-2" d="M95.31,142.95a49.82,49.82,0,0,1,.71-7.35,6.77,6.77,0,0,0,.1-2.25c-.61-4.21-.1-8.43.09-12.62.17-3.83,1.24-7.56,2.15-11.31,1.91-7.91,4.14-15.75,5.32-23.81A125.24,125.24,0,0,1,107.77,69a14.1,14.1,0,0,0,.51-4.74,3.91,3.91,0,0,1,2.38-4.16c6.37-3,13-5.13,20.1-5.21a70.93,70.93,0,0,0,7.55-.63,25.33,25.33,0,0,1,7.8.3c3.48.66,7,.73,10.53,1.41,3,.57,5.41,2.11,7.92,3.57a36,36,0,0,1,7.1,5.35,2.56,2.56,0,0,1,.69,3c-1.55,4.94-4,9.53-5.47,14.5-.73,2.5-2,4.87-2.61,7.34-1.06,4.35-2.88,8.44-3.94,12.77-1.85,7.6-3.6,15.22-5.43,22.82-1.11,4.61-3,9-4.54,13.54a12.41,12.41,0,0,0-.73,3.09c-.08,1.06-.51,1.49-1.67,1.08a73.84,73.84,0,0,0-10-3.1c-5.68-1.15-11.34-2.46-17.19-2.47a10.55,10.55,0,0,0-2.37.14c-2.27.53-4.56,0-6.85.18a38.08,38.08,0,0,0-6.67,1c-1.87.52-3.68,1.21-5.61,1.54A7.37,7.37,0,0,0,95.31,142.95Zm37.49-10c2-.16,4,.1,6-.24a1.82,1.82,0,0,0,1.74-1.71c.32-4.44,2-8.57,3-12.88a55.72,55.72,0,0,1,3-10.56c1.27-2.93,1.15-5.32-.72-7.87a4,4,0,0,0-2.51-1.89c-3.64-.77-7.26-1.6-10.89-2.35-2-.41-3.81-1.49-5.91-1.42-3.32.11-6.65.19-10,.3a2.36,2.36,0,0,0-2.14,1.14,16.16,16.16,0,0,0-2,5.18c-.84,5.51-1.82,11-2.53,16.54-.4,3.09-1.44,6-1.79,9.11a3.35,3.35,0,0,0,3.19,4c1.67.2,3.35.37,5,.71C121.68,132.16,127.16,133.22,132.8,132.93ZM155,72a1.06,1.06,0,0,0-.82-1.23c-.56-.13-.94.25-1.17.79a38.07,38.07,0,0,0-2.2,6.09c-1,4.25-2,8.5-3,12.75-.14.61-.24,1.3.63,1.47s1-.44,1.18-1c1-4.34,2.62-8.52,3.34-12.94a13.14,13.14,0,0,1,1.73-4.84A1.76,1.76,0,0,0,155,72ZM139.28,86.7a.76.76,0,0,0,.54.69A.89.89,0,0,0,141,87a3.48,3.48,0,0,0,.5-1.35c.42-2.67.77-5.35,1.33-8,.48-2.24,1.23-4.43,1.82-6.65.18-.69.28-1.48-.69-1.73s-1.2.47-1.44,1.17a49,49,0,0,0-1.88,8.4C140.22,81.38,139.75,83.91,139.28,86.7Zm-6.92-3.4c0,.6,0,.87,0,1.13,0,.55,0,1.23.67,1.24s.91-.6,1-1.23c0-.13,0-.27,0-.4a17.94,17.94,0,0,1,1.24-5.8c1-2.73,1.79-5.54,2.66-8.33A1.92,1.92,0,0,0,138,69c-.12-.58-.38-1.09-1.08-1.17s-.86.5-1,1A69.17,69.17,0,0,0,133.75,77C133.4,79.27,132.18,81.31,132.35,83.31Zm-8.54-14.7c.1-1,0-1.5-.78-1.56s-1.07.3-1.11,1.09a23.79,23.79,0,0,1-.9,5.07q-1.37,5-2.69,10.09c-.12.46-.3,1,.36,1.23a1,1,0,0,0,1.26-.64,8.07,8.07,0,0,0,.45-1.24c.62-2.12,1.24-4.23,1.82-6.35A43.43,43.43,0,0,0,123.81,68.61Zm1.63,13.91c0,.85.08,1.3.69,1.4s.84-.29.93-.84q.19-1.24.44-2.48c.89-4.45,2.46-8.73,3.45-13.16.16-.72.2-1.42-.6-1.63s-1.06.56-1.22,1.2c-.81,3.16-1.63,6.31-2.4,9.48C126.23,78.59,125.82,80.71,125.44,82.52Z"/><path class="cls-3" d="M90.25,152.88A14.48,14.48,0,0,0,87.8,144c-.66-1-1.31-2-1.95-3a18.69,18.69,0,0,0-11.52-8.52,77.34,77.34,0,0,0-15.82-2.32c-2.51-.1-5,.36-7.5.05a6,6,0,0,0-3,.54,119,119,0,0,1-12.48,3.89c-1.88.53-2.76-.07-3.06-1.95-.12-.72.4-1.06.92-1.45,2.62-1.95,5.77-2.3,8.79-3.09a45.67,45.67,0,0,1,8.38-1,21.78,21.78,0,0,1,4.62.35,8.72,8.72,0,0,0,2.76-.07c3.75-.63,7.43.09,11,1.08,4.49,1.25,9,2.73,12.71,5.74a68.49,68.49,0,0,1,10.59,10.24A3.09,3.09,0,0,1,93,146c.21,1.44.79,1.73,2.19,1.26A3.64,3.64,0,0,0,97,145.63,3.51,3.51,0,0,1,99,144.12c3.89-1.27,7.86-2.27,11.82-3.28a8.08,8.08,0,0,1,3-.08,21.81,21.81,0,0,0,6.22,0,14.18,14.18,0,0,1,3.43.2,78,78,0,0,1,20.94,4.2c6.64,2.44,5,1.29,8.18,8a11.65,11.65,0,0,1,1,5.29c0,.45.26,1.05-.32,1.31s-1-.17-1.43-.49c-1.91-1.45-4-2.57-6.05-3.83-3.24-2-6.88-3-10.36-4.34a15.58,15.58,0,0,0-8.4-1.2c-2.34.37-4.67-.26-7-.53a29.69,29.69,0,0,0-13.69,1.55c-1.2.43-2.41.86-3.63,1.25A8.59,8.59,0,0,0,98,155.62a3.68,3.68,0,0,1-.59.72,1.52,1.52,0,0,1-2.16-.23c-.65-.59.28-.86.55-1.17,2.63-3,6.37-4,9.74-5.77,2.6-1.33,5.48-1.25,8.23-1.83,3.75-.8,7.59-.64,11.37-1.2,3.27-.48,6.46.67,9.51,1.9,2.78,1.12,5.75,1.73,8.39,3.23a4.92,4.92,0,0,0,1.67.35c.45.07,1,.06,1.12-.45a1,1,0,0,0-.59-1.09c-3.86-2-7.33-4.69-11.71-5.77-2.8-.69-5.57-1.56-8.42-1.2-6.5.84-13.21.61-19.39,3.19-3.91,1.64-8.11,2.91-11.05,6.3-.55.64-1,1.32-1.56,2a1.74,1.74,0,0,1-2.27.76c-1-.43-.71-1.15-.63-1.88A3.83,3.83,0,0,0,90.25,152.88Z"/><path class="cls-3" d="M155.61,154.94c-1.57-3.79-3.48-7.14-4-11a2.57,2.57,0,0,1,.21-1.16c3.27-10.34,5.58-20.93,8.58-31.34,2.58-9,5.2-17.93,8-26.85A106.9,106.9,0,0,1,172.87,73c.8-1.81.77-3.89,2.06-5.54.48-.61.72-.75,1.34-.3a13.68,13.68,0,0,1,4.59,6.19,3.54,3.54,0,0,1-.24,2.68l-6.11,17.61c-.66,1.91-.78,4-1.57,5.86-2.46,5.8-4,11.92-6.26,17.81-1.24,3.28-2.63,6.6-3.1,10.08a162.86,162.86,0,0,1-3.8,17.27c-.77,3.13-2.25,6-3.42,9A9,9,0,0,1,155.61,154.94ZM176.9,74c.07-1.11,0-1.91-1-2.09s-1.23.62-1.33,1.41a21.42,21.42,0,0,1-2.33,6.72,36.65,36.65,0,0,0-2.12,5.69c-1.4,4.6-1.68,9.46-3.46,14-1.9,4.8-2.81,9.94-4.67,14.74a193.07,193.07,0,0,0-8,27.78c-.15.65-.27,1.56.43,1.74s1.26-.48,1.43-1.27c0-.21.15-.42.19-.63.94-6.3,3-12.31,4.71-18.42,1.24-4.42,3.39-8.54,4.58-13,2.08-7.73,4.65-15.31,6.68-23a69.46,69.46,0,0,1,3.58-9.53A11.58,11.58,0,0,0,176.9,74Z"/><path class="cls-3" d="M88.68,151.73c.05,1.06.05,2.45-1,2.67s-1.24-1.24-1.67-2.06c-2.08-4-4.17-7.94-7.79-10.74-2.72-2.11-6.05-2.77-9.37-3.34-.3-.05-.74-.09-.9.08-1.15,1.14-2.43.63-3.57.18-3.9-1.56-8-1.28-12-1.35a37,37,0,0,0-12.57,1.78,4.24,4.24,0,0,1-3.89-.78c-.53-.38-.69-.71,0-1.16a10.65,10.65,0,0,1,4.24-1.72c2-.32,4-1.19,6-1.56a41.61,41.61,0,0,1,15.26-.42c3.19.58,6.47.8,9.7,1.24a17.71,17.71,0,0,1,8,3.35c2.75,2,4.77,4.59,7,7.07A10.59,10.59,0,0,1,88.68,151.73Z"/><path class="cls-4" d="M69,140a13.24,13.24,0,0,1,5.07,2,30,30,0,0,1,9.38,10.78c.22.41,1,1,.27,1.39a1.27,1.27,0,0,1-1.71-.84,36,36,0,0,0-2.74-5.12,12.78,12.78,0,0,0-4-3.61A71.17,71.17,0,0,1,69,140Z"/><path class="cls-5" d="M94.61,66.46a56.21,56.21,0,0,1-1.53,6.89,96.35,96.35,0,0,1-7.93,18.18c-.51.88-1,1.75-1.6,2.6-1.05,1.59-1.29,1.62-3,.81s-3.37-2-5.34-2.29a48.13,48.13,0,0,1-8.55-2.35A43.21,43.21,0,0,0,53.34,88.2c-1,0-1.95-.11-2.92-.22-1.66-.18-2.26-.94-1.94-2.6A71.79,71.79,0,0,1,51,74.95c1.76-5,2.85-10.21,5.05-15.06a51.45,51.45,0,0,1,2.4-4.72,2.77,2.77,0,0,1,2.33-1.52A30.54,30.54,0,0,1,68,54c6.62,1.18,12.6,4.31,19,6,1.45.38,2.91.71,4.35,1.2C93.86,62.08,94.4,64.25,94.61,66.46ZM52.78,76.82a45.7,45.7,0,0,1,5-2.41c1.71-.58,3.44-1.1,5.18-1.61A1.7,1.7,0,0,0,64.1,71.5c.39-1.31.72-2.64,1.14-3.94a9.19,9.19,0,0,1,3.88-5.21c.84-.52,1.65-.57,2.08.47.53,1.3,1.23,1.26,2.21.5a1.75,1.75,0,0,1,2.7.27C76.89,65,77.89,65,79.2,64.82c1.89-.26,2.87,1,2.33,2.85s-1.31,3.65-2,5.45c-.35.87-.49,1.73.56,2.29a14.63,14.63,0,0,1,5.62,5.87c.82,1.39,1.12,1.38,2,0,1.15-1.88,1.51-4,2.12-6.09a66.13,66.13,0,0,0,2.14-8c.33-2-1.05-4.36-2.81-4.51-3.38-.31-6.33-1.84-9.46-2.89-5.71-1.93-11.31-4.29-17.57-3.85a2.91,2.91,0,0,0-2.89,2c-.92,2.29-1.91,4.56-2.86,6.84A85,85,0,0,0,52.78,76.82Zm17.95-2.21c-5.87.19-10.59.65-15,2.87-2.9,1.46-4.06,4-4.82,6.88-.21.77.18,1.28,1,1.41.52.09,1,.2,1.57.25A69.87,69.87,0,0,1,64,87.62c2.58.61,4.91,2,7.51,2.59A87.08,87.08,0,0,1,80.59,93c.86.3,1.31.2,1.69-.61.64-1.36,1.28-2.72,2-4A5.23,5.23,0,0,0,84.12,83C81,77.19,75.74,75.19,70.72,74.61Zm4.89-1.37a1.42,1.42,0,0,0,1-.43,11.44,11.44,0,0,0,2.56-4.87c.12-.46-.11-.52-.47-.55a1.42,1.42,0,0,0-1.42.52c-.9,1.36-1.82,2.71-2.63,4.12C74.31,72.69,74.52,73.25,75.61,73.24Zm-5.08-1A1.57,1.57,0,0,0,72,71.33c.65-1.35,1.32-2.69,2-4,.2-.4.44-.93,0-1.21s-.93.09-1.2.48c-1,1.48-2,3-3,4.51C69.39,71.81,69.72,72.2,70.54,72.24Zm-1.67-6.32a6,6,0,0,0-2.18,5.23A7.68,7.68,0,0,0,68.87,65.92Z"/><path class="cls-6" d="M46,107.85A32.63,32.63,0,0,1,48,97.6c.2-.62.44-1.57,1.13-1.43.87.18,1,1.14.83,2-.44,2.71-.89,5.41-1.32,8.12-.18,1.18-.31,2.37-.48,3.55-.08.59-.25,1.23-1,1.22S46,110.48,46,109.71C46,109.09,46,108.47,46,107.85Z"/><path class="cls-7" d="M78.54,116.2c-.12-4.23,1.49-8.25,1.58-12.46a.81.81,0,0,1,.58-.8.72.72,0,0,1,.82.28,2,2,0,0,1,.64,1.77c-.5,3.89-1.48,7.72-1.78,11.64a3.53,3.53,0,0,1-.22.76.89.89,0,0,1-1,.73c-.53-.07-.68-.5-.66-1C78.55,116.82,78.54,116.51,78.54,116.2Z"/><path class="cls-6" d="M55.84,109.16a69,69,0,0,1,1.92-10.25A1.17,1.17,0,0,1,58.93,98c.63-.05.78.5.88,1a5.61,5.61,0,0,1-.58,3.61,14.09,14.09,0,0,0-1.39,6.28c0,.76-.12,1.81-.9,1.78S55.75,109.73,55.84,109.16Z"/><path class="cls-7" d="M67,100.34a45.34,45.34,0,0,1-1.32,6.59,14.21,14.21,0,0,0-1,4c0,.58-.3,1.3-.94,1.18a1.19,1.19,0,0,1-1-1.5c.74-3.37,1.45-6.74,2.22-10.1.13-.57.49-1.12,1.19-1A.92.92,0,0,1,67,100.34Z"/><path class="cls-6" d="M71.3,111.36c.17-3.08,1.19-6,1.7-9.08.13-.77.76-.82,1.25-.19a2.39,2.39,0,0,1,.47,2.11c-.54,2.41-1,4.84-1.46,7.26-.16.81-.11,1.9-1.29,1.76S71.43,112,71.3,111.36Z"/><path class="cls-8" d="M132.8,132.93c-5.64.29-11.12-.76-16.59-1.91-1.64-.35-3.33-.51-5-.71a3.35,3.35,0,0,1-3.19-4c.35-3.09,1.38-6,1.79-9.11.71-5.53,1.69-11,2.53-16.54a16.16,16.16,0,0,1,2-5.18,2.36,2.36,0,0,1,2.14-1.14c3.32-.12,6.64-.2,10-.3,2.1-.07,3.92,1,5.91,1.42,3.64.75,7.26,1.58,10.89,2.35a4,4,0,0,1,2.51,1.89c1.87,2.55,2,4.94.72,7.87a55.72,55.72,0,0,0-3,10.56c-.92,4.31-2.65,8.44-3,12.88a1.82,1.82,0,0,1-1.74,1.71C136.79,133,134.78,132.76,132.8,132.93Zm-7.72-36.54a30.93,30.93,0,0,1-5.25.38c-4.45.19-4.17.41-5.48,4.3-1.59,4.73-1.4,9.78-2.45,14.62a.88.88,0,0,0,.32,1c.46.29.71-.15,1-.43a12.23,12.23,0,0,1,3.88-2.75c1.75-.79,3.39-1.6,3.27-3.92a1,1,0,0,1,.11-.38c.22-.54.43-1.18,1.13-1.11s.72.79.89,1.32a1.59,1.59,0,0,1,0,.53c0,.87.49,1,1.21,1a3.54,3.54,0,0,0,2.77-1.83,35.06,35.06,0,0,1,4.63-5.64c.35-.34.8-.57,1.15-.31s.18.75,0,1.12a5.56,5.56,0,0,1-.51.78l-2.7,3.62c-.42.57-.77,1.26-.14,1.77s1-.21,1.41-.6c2-2.05,4.06-4.09,6.26-6,.49-.42,1-.83,1.6-.17a.94.94,0,0,1-.3,1.57c-2.18,1.19-3,3.66-5,5-.7.48-.6,1.1.17,1.57a1.75,1.75,0,0,0,2.27-.36,2.11,2.11,0,0,1,2.26-.22.83.83,0,0,1,.41,1.13,2.4,2.4,0,0,0,1,2.78,5.89,5.89,0,0,1,.9,1.3c.31.47.51,1.17,1.2,1.07s.74-.85.81-1.38a64.33,64.33,0,0,1,2.62-10.26,10.41,10.41,0,0,0,.41-1.54,3.93,3.93,0,0,0-3.15-4.56c-3.18-.58-6.36-1.1-9.51-1.82A55.87,55.87,0,0,0,125.08,96.39Zm1.53,16.4c-.76.21-1.43.15-2.08.33-.89.25-1.2.65-.84,1.53.19.45.38,1-.12,1.32a1,1,0,0,1-1.38-.39c-1.21-1.85-2.54-1.2-3.94-.35a6.28,6.28,0,0,1-1.07.53c-.88.34-1.26.72-.68,1.74a7.42,7.42,0,0,1,.94,4.61,19.8,19.8,0,0,1-1.56,5.45c-.35.83-.28,1.18.72,1.44a54.06,54.06,0,0,0,12.19,2.21c2.18.06,2.54,0,2.76-2.12a6.67,6.67,0,0,1,3.68-5.47c1-.57,2.11-1.12,3.16-1.68a1.27,1.27,0,0,0,.66-1.95c-.62-1.17-1.15-2.39-1.76-3.56s-1.11-1.12-2-.36c-.51.43-1,.93-1.45,1.37a1.19,1.19,0,0,1-1.58.06c-.53-.35-.44-.78-.23-1.28s.21-.87.39-1.26c.34-.71.16-1.09-.61-1.22A45.51,45.51,0,0,1,126.6,112.79Zm-11.05,9.75a10.35,10.35,0,0,0-.42-3c-.16-.6.12-1.54-.66-1.71s-1.09.71-1.42,1.21c-.52.8-1.68.92-1.94,1.9a13.89,13.89,0,0,0-.7,3.34c0,1-.32,2.29.47,3.13.95,1,2.95.55,3.63-.69A9.09,9.09,0,0,0,115.55,122.55Zm20.39,8.7c1.23-.1,2.12-.36,2.36-1.67s.69-2.74,1-4.1c.28-1.12.07-1.31-1.06-1.05-2,.46-4.71,3.65-4.83,5.72,0,.43-.1,1,.57,1A6.55,6.55,0,0,1,135.95,131.25Z"/><path class="cls-7" d="M155,72a1.76,1.76,0,0,1-.34,1.1A13.14,13.14,0,0,0,153,77.95c-.72,4.42-2.32,8.61-3.34,12.94-.13.56-.42,1.15-1.18,1s-.77-.86-.63-1.47c1-4.25,2-8.5,3-12.75a38.07,38.07,0,0,1,2.2-6.09c.23-.54.61-.92,1.17-.79A1.06,1.06,0,0,1,155,72Z"/><path class="cls-6" d="M139.28,86.7c.47-2.8.94-5.32,1.32-7.86a49,49,0,0,1,1.88-8.4c.24-.7.48-1.42,1.44-1.17s.87,1,.69,1.73c-.59,2.22-1.34,4.4-1.82,6.65-.56,2.64-.91,5.32-1.33,8A3.48,3.48,0,0,1,141,87a.89.89,0,0,1-1.14.42A.76.76,0,0,1,139.28,86.7Z"/><path class="cls-7" d="M132.35,83.31c-.18-2,1-4,1.4-6.26a69.17,69.17,0,0,1,2.13-8.21c.14-.5.24-1.09,1-1s1,.59,1.08,1.17a1.92,1.92,0,0,1-.06.92c-.87,2.78-1.65,5.6-2.66,8.33a17.94,17.94,0,0,0-1.24,5.8c0,.13,0,.27,0,.4-.05.63-.33,1.24-1,1.23s-.68-.7-.67-1.24C132.36,84.17,132.35,83.91,132.35,83.31Z"/><path class="cls-6" d="M123.81,68.61a43.43,43.43,0,0,1-1.59,7.7c-.58,2.13-1.21,4.24-1.82,6.35a8.07,8.07,0,0,1-.45,1.24,1,1,0,0,1-1.26.64c-.66-.23-.48-.76-.36-1.23q1.33-5.05,2.69-10.09a23.79,23.79,0,0,0,.9-5.07c0-.79.32-1.15,1.11-1.09S123.91,67.64,123.81,68.61Z"/><path class="cls-7" d="M125.44,82.52c.38-1.81.79-3.93,1.29-6,.76-3.17,1.59-6.32,2.4-9.48.16-.64.33-1.44,1.22-1.2s.76.91.6,1.63c-1,4.43-2.56,8.71-3.45,13.16q-.25,1.24-.44,2.48c-.08.55-.29.95-.93.84S125.4,83.37,125.44,82.52Z"/><path class="cls-9" d="M176.9,74a11.58,11.58,0,0,1-1.3,4.1A69.46,69.46,0,0,0,172,87.68c-2,7.74-4.59,15.32-6.68,23-1.19,4.42-3.34,8.54-4.58,13-1.71,6.1-3.77,12.12-4.71,18.42,0,.22-.14.42-.19.63-.17.79-.76,1.44-1.43,1.27s-.57-1.09-.43-1.74a193.07,193.07,0,0,1,8-27.78c1.86-4.8,2.77-9.94,4.67-14.74,1.79-4.52,2.07-9.38,3.46-14a36.65,36.65,0,0,1,2.12-5.69,21.42,21.42,0,0,0,2.33-6.72c.1-.79.3-1.6,1.33-1.41S177,72.94,176.9,74Z"/><path class="cls-10" d="M52.78,76.82A85,85,0,0,1,56.3,64.75c1-2.28,1.93-4.55,2.86-6.84a2.91,2.91,0,0,1,2.89-2c6.26-.44,11.86,1.92,17.57,3.85,3.12,1.05,6.08,2.59,9.46,2.89,1.76.16,3.14,2.49,2.81,4.51a66.13,66.13,0,0,1-2.14,8c-.61,2.06-1,4.22-2.12,6.09-.83,1.35-1.14,1.36-2,0a14.63,14.63,0,0,0-5.62-5.87c-1.05-.56-.91-1.41-.56-2.29.72-1.8,1.49-3.58,2-5.45s-.44-3.11-2.33-2.85c-1.31.18-2.31.2-3.09-1.24a1.75,1.75,0,0,0-2.7-.27c-1,.76-1.68.81-2.21-.5-.43-1-1.24-1-2.08-.47a9.19,9.19,0,0,0-3.88,5.21c-.42,1.3-.75,2.63-1.14,3.94a1.7,1.7,0,0,1-1.18,1.31c-1.73.51-3.46,1-5.18,1.61A45.7,45.7,0,0,0,52.78,76.82Z"/><path class="cls-11" d="M70.72,74.61c5,.58,10.27,2.58,13.39,8.34a5.23,5.23,0,0,1,.18,5.42c-.73,1.31-1.37,2.67-2,4-.38.81-.83.91-1.69.61a87.08,87.08,0,0,0-9.11-2.8c-2.59-.61-4.92-2-7.51-2.59A69.87,69.87,0,0,0,53.48,86c-.53,0-1-.16-1.57-.25-.81-.14-1.19-.64-1-1.41.76-2.87,1.92-5.42,4.82-6.88C60.14,75.26,64.86,74.8,70.72,74.61Zm-3.14,5.84c-.19-.42-.14-1.33-1-1.25A1.72,1.72,0,0,0,65,80.71a1.25,1.25,0,0,0,1.16,1.51C67.19,82.29,67.41,81.46,67.59,80.45Zm7.79,2.83c0-.51-.14-1.15-1-1.15s-1.42.39-1.35,1.27c0,.67.31,1.34,1.18,1.33S75.39,84.22,75.37,83.28Z"/><path class="cls-12" d="M75.61,73.24c-1.09,0-1.31-.55-.93-1.21.81-1.41,1.73-2.76,2.63-4.12a1.42,1.42,0,0,1,1.42-.52c.36,0,.59.09.47.55a11.44,11.44,0,0,1-2.56,4.87A1.42,1.42,0,0,1,75.61,73.24Z"/><path class="cls-12" d="M70.54,72.24c-.81,0-1.15-.42-.68-1.17,1-1.52,2-3,3-4.51.27-.39.72-.82,1.2-.48s.16.81,0,1.21c-.66,1.34-1.33,2.68-2,4A1.57,1.57,0,0,1,70.54,72.24Z"/><path class="cls-13" d="M68.87,65.92a7.68,7.68,0,0,1-2.18,5.23A6,6,0,0,1,68.87,65.92Z"/><path class="cls-14" d="M125.08,96.39A55.87,55.87,0,0,1,132.24,98c3.15.72,6.33,1.24,9.51,1.82a3.93,3.93,0,0,1,3.15,4.56,10.41,10.41,0,0,1-.41,1.54,64.33,64.33,0,0,0-2.62,10.26c-.07.52-.09,1.28-.81,1.38s-.89-.6-1.2-1.07a5.89,5.89,0,0,0-.9-1.3,2.4,2.4,0,0,1-1-2.78.83.83,0,0,0-.41-1.13,2.11,2.11,0,0,0-2.26.22,1.75,1.75,0,0,1-2.27.36c-.77-.47-.87-1.09-.17-1.57,2-1.37,2.85-3.84,5-5a.94.94,0,0,0,.3-1.57c-.59-.66-1.11-.25-1.6.17-2.19,1.87-4.23,3.91-6.26,6-.38.39-.81,1.09-1.41.6s-.28-1.2.14-1.77l2.7-3.62a5.56,5.56,0,0,0,.51-.78c.18-.37.29-.9,0-1.12s-.8,0-1.15.31a35.06,35.06,0,0,0-4.63,5.64,3.54,3.54,0,0,1-2.77,1.83c-.72,0-1.24-.11-1.21-1a1.59,1.59,0,0,0,0-.53c-.17-.53-.16-1.26-.89-1.32s-.91.57-1.13,1.11a1,1,0,0,0-.11.38c.12,2.32-1.52,3.12-3.27,3.92a12.23,12.23,0,0,0-3.88,2.75c-.26.28-.51.72-1,.43a.88.88,0,0,1-.32-1c1-4.84.86-9.89,2.45-14.62,1.3-3.89,1-4.1,5.48-4.3A30.93,30.93,0,0,0,125.08,96.39Z"/><path class="cls-15" d="M126.6,112.79a45.51,45.51,0,0,0,5.21,1c.77.13.94.52.61,1.22-.19.39-.22.86-.39,1.26s-.3.93.23,1.28a1.19,1.19,0,0,0,1.58-.06c.5-.44.94-.94,1.45-1.37.89-.76,1.46-.67,2,.36s1.14,2.39,1.76,3.56a1.27,1.27,0,0,1-.66,1.95c-1.05.57-2.11,1.11-3.16,1.68a6.67,6.67,0,0,0-3.68,5.47c-.22,2.08-.57,2.18-2.76,2.12A54.06,54.06,0,0,1,116.59,129c-1-.26-1.07-.62-.72-1.44a19.8,19.8,0,0,0,1.56-5.45,7.42,7.42,0,0,0-.94-4.61c-.59-1-.2-1.4.68-1.74a6.28,6.28,0,0,0,1.07-.53c1.4-.86,2.74-1.5,3.94.35a1,1,0,0,0,1.38.39c.5-.37.31-.87.12-1.32-.36-.87-.05-1.28.84-1.53C125.18,112.94,125.84,113,126.6,112.79Zm-3.51,7.65c0-1-.33-1.6-1-1.62a2.11,2.11,0,0,0-1.76,2,1.24,1.24,0,0,0,1.25,1.41C122.69,122.23,123.07,121.43,123.1,120.44Zm6.32.09a1.46,1.46,0,0,0,1.49,1.72c1,.05,1.11-.83,1.14-1.48a1.48,1.48,0,0,0-1.48-1.67C129.62,119,129.4,119.69,129.42,120.53Z"/><path class="cls-12" d="M115.55,122.55a9.09,9.09,0,0,1-1,4.18c-.68,1.24-2.68,1.69-3.63.69-.79-.84-.48-2.09-.47-3.13a13.89,13.89,0,0,1,.7-3.34c.26-1,1.42-1.1,1.94-1.9.33-.51.69-1.37,1.42-1.21s.51,1.12.66,1.71A10.35,10.35,0,0,1,115.55,122.55Z"/><path class="cls-12" d="M135.95,131.25a6.55,6.55,0,0,0-1.94-.14c-.67,0-.59-.53-.57-1,.12-2.07,2.82-5.26,4.83-5.72,1.14-.26,1.34-.07,1.06,1.05-.34,1.37-.78,2.72-1,4.1S137.18,131.14,135.95,131.25Z"/><path class="cls-16" d="M67.59,80.45c-.18,1-.39,1.84-1.45,1.77A1.25,1.25,0,0,1,65,80.71a1.72,1.72,0,0,1,1.62-1.51C67.45,79.12,67.4,80,67.59,80.45Z"/><path class="cls-7" d="M75.37,83.28c0,.94-.29,1.45-1.14,1.46s-1.13-.66-1.18-1.33c-.06-.89.56-1.27,1.35-1.27S75.37,82.76,75.37,83.28Z"/><path class="cls-9" d="M123.1,120.44c0,1-.4,1.79-1.49,1.79a1.24,1.24,0,0,1-1.25-1.41,2.11,2.11,0,0,1,1.76-2C122.76,118.84,123.12,119.44,123.1,120.44Z"/><path class="cls-9" d="M129.42,120.53c0-.83.21-1.48,1.15-1.43a1.48,1.48,0,0,1,1.48,1.67c0,.64-.17,1.53-1.14,1.48A1.46,1.46,0,0,1,129.42,120.53Z"/></svg>