<svg id="圖層_1" data-name="圖層 1" xmlns="http://www.w3.org/2000/svg" xmlns:xlink="http://www.w3.org/1999/xlink" viewBox="0 0 385.81 392.23"><defs><style>.cls-1{fill:none;clip-rule:evenodd;}.cls-2{clip-path:url(#clip-path);}.cls-3{fill:#090506;}.cls-10,.cls-11,.cls-12,.cls-13,.cls-14,.cls-15,.cls-3,.cls-4,.cls-5,.cls-6,.cls-7,.cls-8,.cls-9{fill-rule:evenodd;}.cls-4{fill:#335e9a;}.cls-5{fill:#fefefe;}.cls-6{fill:#4674aa;}.cls-7{fill:#213755;}.cls-8{fill:#ab2b27;}.cls-9{fill:#345f9a;}.cls-10{fill:#dcb536;}.cls-11{fill:#c25540;}.cls-12{fill:#f8f8f8;}.cls-13{fill:#273956;}.cls-14{fill:#f4f4f5;}.cls-15{fill:#d6b13e;}</style><clipPath id="clip-path"><polygon class="cls-1" points="118.82 17.23 134.74 72.55 231.96 75.9 210.17 31.48 128.04 4.66 118.82 17.23"/></clipPath></defs><title>graphic</title><g class="cls-2"><path class="cls-3" d="M66.3,260.29a23.63,23.63,0,0,0-3.09,7.81,23.34,23.34,0,0,1-4.68,8.56c-2.22,2.84-5.63,2.61-8.69,1.12-8.75-4.25-8.39-12-7.26-19.42C45,242.16,49.77,226.72,59.4,213A148.76,148.76,0,0,0,72,192.57c3.41-7,7.31-13.87,10.38-21.05,5.05-11.83,12.86-21.68,21.07-31.28,3.45-4,6.11-8.87,10.81-11.75,1.44-.88.65-1.7.25-2.71-3-7.49-4-15.16-1.79-23,2.06-7.29,12.7-15.92,20.29-16.45,3.15-.22,6.32-.26,9.48-.28,2.28,0,3.11-1,2.49-3.2-3.54-12.41-3-25.48-6.39-37.95-2.25-8.19,1.51-15.57,5.61-22.38,2.74-4.56,7.79-4.21,11.71-.51,4.94,4.66,7.27,10.58,9.09,16.74,1.58,5.35,3.77,10.43,5.85,16.33,1.59-4.09,2-7.95,3.85-11.27.71-1.27,1.2-2.67,2-3.91,2.29-3.75,4-3.55,7.6-1C190.1,43,191,49.17,192.05,55.4a9.76,9.76,0,0,0,1.36,4.46A22.38,22.38,0,0,1,197,52c1.61-2.44,3.59-2.72,6.28-1.48,5.69,2.62,7.24,7.46,7.46,13.05.39,10-.92,19.85-1.93,29.73-.2,2,.06,2.61,2,2.78,12.67,1.11,24.66,4.71,36.55,9.16,8.75,3.28,17.83,5.64,25.73,10.86,1.43.95,2.15-.05,3.12-.81,5.74-4.5,10.83-9.77,16.84-13.94,5.79-4,12.54-5.14,19.21-6.28,3.89-.66,7.54,3.62,6.69,7.66-1.77,8.44-3.62,16.86-10.79,22.88-2.85,2.39-4.6,6-7.74,8.16-2.21,1.54-1.8,3-.12,4.66,10.28,9.92,16.08,22.72,22.51,35.11,2.39,4.61,3.17,9.68,4.16,14.65a49.15,49.15,0,0,0,3.59,11.41c1.41,3,1.45,6.33,2.32,9.47,1.72,6.24,5.64,10.76,10.09,14.85,4.82,4.43,10,8.58,16.28,10.85a23.4,23.4,0,0,1,6.19,3.8,7.16,7.16,0,0,1,.58,11.09c-8,7.83-11.14,8.32-21.24,3.33-2.49-1.23-5-2.36-8-3.74-.9,6.25-3,11.93-4,18-1.67,10.47-6,20-11,29.47a110.4,110.4,0,0,1-18.4,25.61c-8.88,9.07-19,16.21-31.1,20.39-2.75,1-5.15,2.7-8,3.4-1.56.38-2.22,1.84-2.68,3.25-2.31,7.15-5.5,14-7.27,21.35a35.39,35.39,0,0,1-3.95,9c-1.72,3-.72,4.36,2.17,5.28,1.85.59,3.63,1.38,5.47,2a3.26,3.26,0,0,1,2.48,3.24c-.16,1.77-1.88,2.11-3.38,2a34.55,34.55,0,0,1-15.18-4.59c-2.22-1.32-2.86-3.71-2.2-6.4a102.75,102.75,0,0,0,2.83-24.87c0-2.2-.6-3.16-2.91-2.83-9,1.3-18.12.59-27.17,1.8-15.1,2-30.22-.26-45.32-.92-2.86-.13-5.7-1.1-8.51-1.84-1.68-.43-2.7-.62-2.61,1.77.37,9.1.56,18.2,3.11,27.05,1.21,4.21-1.65,9.12-6.33,11s-10,.35-12.13-3.61c-.72-1.33-1.3-2.83-.35-4.12s2.46-.66,3.74-.4a5.79,5.79,0,0,1,2.37.84c1.89,1.49,3.64.69,4.89-.58,1.46-1.48.94-3.3-.17-5-6.34-9.74-10.57-20.47-14.17-31.43-1.28-3.91-2.86-6.41-7.22-7.49-5-1.24-9.76-3.66-14.65-5.46-5.68-2.08-9.08-6.72-12.72-11.1a27.09,27.09,0,0,0-4.24-4,51.09,51.09,0,0,1-13.75-16.32,258.83,258.83,0,0,1-16.77-37.14A38.52,38.52,0,0,1,66.3,260.29ZM218.8,247.76c2-.27,4.06-.13,6.1-.74a82.42,82.42,0,0,1,17.41-3.16c10.64-.78,21-2.95,31.33-5.44,16.06-3.87,31.24-10.15,46-17.57a16.35,16.35,0,0,0,4.88-3.12,3.34,3.34,0,0,0,.53-4.34c-1.13-1.68-2.39-.12-3.44.42-7,3.55-13.91,7.29-21.36,10.21-10,3.93-20.32,7.06-30.38,10.85s-20.64,4.54-31,7l-15.17.65a32.82,32.82,0,0,1-11.46-1c-5.08-1.59-10.36-.29-15.54-.45-7.24-.24-14.26-2.87-21.57-1.65a7.46,7.46,0,0,1-3.54-.53c-10.62-3.41-21.69-4.77-32.63-6.45-8.29-1.28-15.91-4.09-23.53-7.09-13.28-5.23-22-16.35-31.91-25.79-1.68-1.6-2.88-3.71-4.5-5.84-1.93,3.71-1.62,6.26,1.24,8.84,3.8,3.41,8.25,6,11.63,9.91,6.45,7.4,14.65,12,23.6,15.86,10.65,4.53,21.84,7.2,32.78,10.73,4.48,1.44,8.83,3.67,13.59,3.77,5.72.12,11.27,1.17,16.86,2.08,8.68,1.42,17.27,3.61,26.16,3.46A28.6,28.6,0,0,0,218.8,247.76Zm-31.33,4.38c-6.89-1.24-13.63-3.4-20.72-3.48-5.94-.06-12,.39-17.67-1.6-11.66-4.09-23.42-7.85-34.84-12.68C102,229.2,90.85,222.68,82.1,212.48c-1.71-2-3.77-3.69-6.1-5.95-1.26,5.57-1.46,10.51-1.87,15.42-.87,10.38-1.84,20.78-1.48,31.19.12,3.28-1,6.51.37,10,5,12.32,10.35,24.33,17.31,35.79,5.12,8.43,11.78,15,18.43,21.85a10.68,10.68,0,0,0,6.29,3.41c3.19.42,6,1.81,8.83,3.19,7.3,3.57,14.48,7.39,21.89,10.7,7.71,3.45,15.24,7.54,23.76,8.75,6.51.92,13.09.38,19.64.48,5.7.08,11.41.35,17-.94,3.7-.85,4.55-3,2.47-6.38a48.1,48.1,0,0,1-3.35-5.61c-4.75-10.61,1.78-20,13.23-19.11a2.07,2.07,0,0,1,.37,0c3.73,1,5.14-.82,5.17-4.28a17,17,0,0,1,1.75-7.73c3.71-7.25,10.75-9.66,17.92-6,2.59,1.32,5.11,2.81,7.64,4.26,4.19,2.4,4.91,2.18,6.18-2.64,1.32-5,2.22-10.16,3.58-15.17,3.47-12.71,15.17-22.74,27-21.2a38.68,38.68,0,0,1,26.17,14.89c2.29,3,3.14,6.45,4.42,10.23,3.64-5.5,6-10.67,6.94-16.58,1.74-11,5.22-21.9,1.35-33.13a.91.91,0,0,1,0-.69c2.81-4.23-.3-8.16-.68-12.21-.12-1.25-.73-1.73-2.25-.92-4,2.17-8.27,4-12.39,6-20.5,10.1-42.25,15.8-64.85,18.72-6.72.87-13.55,1.14-20.14,3-2.56.71-5.17,1.22-7.76,1.82-1.86.43-6.53,5.21-6.13,6.69.6,2.14,3,2,4.66,2.87,1.8,1,4.07,1.59,3.49,4.34a43.74,43.74,0,0,1-1.71,5.91,3.39,3.39,0,0,1-5,2c-2.23-1.07-4.64-1.37-6.89-2.22-3.46-1.29-5.51-.13-6.47,3.67,3,.68,6.1,1.33,9.13,2.06,1.55.37,3.09.73,2.8,3-1.15,8.91-6,12.09-14.59,9.5-7-2.12-7-2.12-8.14,5a3.94,3.94,0,0,1-.16.71c-.67,1.9-1.93,3.29-4,2.89s-1.79-2.38-1.58-3.89a36.71,36.71,0,0,1,1.41-6.37c.65-2,.1-2.88-1.75-3.58-3.06-1.17-6.06-2.5-9-3.86-5.23-2.4-5.21-2.43-2-7.4a15.43,15.43,0,0,0,1.37-2.56c1.63-4.09,2.74-4.73,6.84-3.27s8,3,11.83,4.68c2,.88,3.11.71,3.83-1.38.86-2.52-1.3-2.11-2.45-2.42A60.05,60.05,0,0,1,183,266.18c-3.6-1.81-3.69-3-1-5.92,1.94-2.15,3.71-4.47,5.55-6.72a3.72,3.72,0,0,1,4,0c3,1.48,6.1,2.89,9.24,4.09,2.94,1.13,5.61.85,7.58-2.87C201.08,254.45,194.46,252,187.46,252.14ZM86.23,178.33c1.12.64,1.89.17,2.71,0a42.57,42.57,0,0,1,21.52.32c8.66,2.4,16.89,5.87,25.28,9,16.61,6.12,32.32,14,46,25.22,7,5.77,13.12,12.6,19.58,19,4.2,4.17,9.22,3.67,12.33-1.2,3.47-5.44,7.21-10.82,12.14-14.93,25.16-21,51.67-39.71,84.15-47.81,2.52-.63,3.11-1.13,1.57-3.61a188.85,188.85,0,0,0-16.28-22.34c-1.55-1.82-2.61-1.76-4.4-.54a126.21,126.21,0,0,1-19.22,11c-11.18,5-22.69,8.87-35.1,10-7.77.71-15.21-1.11-22.81-1.32-1.35,0-3.4.63-3.56-1.38a3.57,3.57,0,0,1,3.28-3.77,31.39,31.39,0,0,0,6.9-2.17c11.82-4.66,22.22-11.84,32.65-18.83,5.09-3.41,10.76-6.11,15.06-10.74,1.5-1.61,1.48-2.28-.29-3.43-4.24-2.75-9-4.18-13.75-5.55-14.22-4.09-27.71-10.38-43.08-10.8-12.59-.35-24.66.24-36.34,5.09-1,.4-2.07.5-1.93,2.11.42,4.75-1.16,9.29-3.19,13.25-3.19,6.24-8,11.66-15.28,13-10.54,2-21.23,3.26-30.84-3.65-2.23-1.6-4.06-.93-6.12.81-8.16,6.9-14.42,15.45-20.72,23.91C92.1,164.8,89.3,171.68,86.23,178.33ZM216.9,346c9.85,1.64,19.61.24,29-1.7a108.66,108.66,0,0,0,33.85-13.57c2.59-1.55,2.67-2.81.37-4.5-2.75-2-5.77-3.15-9.21-2.32-5.06,1.21-7.45,4.36-7.46,9.72,0,1.78.08,3.65-2.34,3.73s-2.09-1.87-2.34-3.39c-1.54-9.37,4.29-16.82,13.76-17.67,6.07-.54,10.59,2.12,14,6.81,1.44,2,2.56,1.93,4.29.52,3.19-2.61,6.84-4.75,9.68-7.68,7-7.25,15.25-13.73,11.47-26.33-2.06-6.88-5.5-11.7-11.35-15.12-3.27-1.91-7.1-2.31-10.76-3.08-4.58-1-8.86-.1-12.08,3.35-8,8.54-13.33,18.4-14.21,30.27-.23,3.11-1.45,4.35-4.65,4.69-6,.65-11.13-2.12-16.58-3.41-9.76-2.31-11.93-1.11-12.69,9.15-.37,5.05-2,6.84-7,7.43a12.83,12.83,0,0,1-5.76-.22c-2.6-.87-4.41.25-5.61,2.66-2.66,5.35-1.29,8.82,4.36,11.17,2.36,1,4.9,2,5.16,5.06C221.07,344.18,218.61,344.65,216.9,346ZM240,235.4c8.32-.53,16-1.21,23.16-3.93,9.72-3.69,19.74-6.58,29.32-10.54,9.95-4.11,19.71-8.8,26.86-17.47,2.74-3.33,3.26-6.55,1.56-10.39s-3.66-7.69-4.16-11.94c-.27-2.31-1.45-2.19-3-1.66-7.16,2.56-14.58,4.59-21.28,8.2-13.09,7.06-26,14.46-37.83,23.59-8.5,6.56-16.59,13.47-23.38,21.81-.51.63-1.6,1.13-1.23,2,.47,1.15,1.7.59,2.59.58C235.36,235.64,238,235.48,240,235.4ZM166.23,116.28c-.17-6-5.69-14.32-10.72-17.68a32.83,32.83,0,0,0-18.69-5.51,17.6,17.6,0,0,0-15.91,8.69c-5.09,8.6-4.87,20.07,6.71,26.65,9.21,5.24,18.47,4.53,28,1.23C162.68,127.22,164.07,120.82,166.23,116.28Zm-80.86,76a17.09,17.09,0,0,0,1.22,1.87c6.62,7.33,13.6,14.2,22.56,18.75,4.1,2.09,8.15,4.34,12,6.82a29.48,29.48,0,0,0,9.34,3.84c12.7,3,25.41,5.95,38.34,7.76,1.92.27,3.85,1.38,6.29.35a19,19,0,0,0-2.41-2.86c-4.65-3.69-9.06-7.82-14.15-10.8-12.34-7.23-25.22-13.4-39.27-16.71-3.53-.83-6.9-2.25-10.35-3.3C101.4,195.69,93.84,193.15,85.37,192.28Zm145-36.13c1,1.4,2.27,1,3.42,1,4.39,0,8.07-1.81,12.1-3.51,6.64-2.8,13.76-4.67,20.66-7,19.74-6.55,32.7-20.57,43.5-37.29a17.54,17.54,0,0,0,1.48-3.7c.4-1.14.88-2.48-.08-3.42s-2.36-.27-3.46.06a27.26,27.26,0,0,0-7.21,3.37,238.08,238.08,0,0,0-29.09,22.54c-11.93,10.92-25,20.31-39.91,26.93A8.61,8.61,0,0,0,230.34,156.15ZM170.53,97.1c-1.19-8.4-2.23-17.44-3.8-26.39a177.5,177.5,0,0,0-10.87-36.46,46.58,46.58,0,0,0-2.27-5.33c-1-1.81-2.57-2.13-3.27.15C148,36.72,145.91,44.45,147,52.62c1.29,9.88,4.53,19.33,6.34,29.09.57,3.07,1.5,6.55,4.49,8A21,21,0,0,1,168.2,100.4c.3.69.67,1.84,1.75,1.42.92-.36.68-1.45.69-2.28C170.64,98.93,170.59,98.32,170.53,97.1Zm-84.3,85.72c-1.29.07-2.75.43-3,1.91s1.31,1.55,2.32,1.73c2.84.51,5.74.77,8.57,1.35a262.57,262.57,0,0,1,42.22,12.09c9,3.46,18,7,25.76,12.62a259.68,259.68,0,0,1,23.1,18.91,10.72,10.72,0,0,0,5.78,2.84c.69.1,1.55.14,2-.59a1.61,1.61,0,0,0-.5-2c-6.21-6.5-12.25-13.34-19.93-18.07-13.11-8.06-26.33-16-41-21.1-8.7-3-17.44-5.94-26.15-9C98.93,181.36,92.59,185.21,86.24,182.82ZM180.08,45.25c-3.43,11.81-6.37,23-4.22,34.79a137.17,137.17,0,0,1,2.07,15.11c.1,1.36-.08,4.09,2,3.37,2.25-.79,5.87,1.33,6.77-3.38,2.23-11.77.27-23.43-.46-35.09C185.91,55.13,185.22,49.62,180.08,45.25ZM51.86,268.59A97.9,97.9,0,0,0,65.22,245a13,13,0,0,0,1-5.3c-.28-4.79.79-9.35,2.08-13.92s.77-9.46,1.13-14.36c-.65.2-1,.2-1.07.34-.45.57-.85,1.18-1.26,1.78C58.38,226.32,54.35,241,51,255.86,50.13,260,48.86,264.37,51.86,268.59ZM307.8,175a10.45,10.45,0,0,0-5.59.18c-11,3.17-20.6,9.16-30.51,14.48-15.57,8.34-29.5,19.12-42.76,30.7A53.56,53.56,0,0,0,217.55,235c6.19,1.3,6.22,1.32,9.29-3.85a58.76,58.76,0,0,1,13.31-15.31c13.69-11.3,28.51-21,43.75-30.05C291.43,181.28,299.82,178.74,307.8,175ZM200.39,58.82c-3.62,7.12-6.61,24.28-6.08,34.32.07,1.33-.74,3.78,1.88,3.39,2.46-.37,5.83,2,7.16-2.6,2.15-7.43,2.09-14.9.92-22.34C203.63,67.42,202.93,63.07,200.39,58.82ZM335.31,225.2c-1.09,13.39-.19,15.59,7.65,20,5.18,2.91,12,2.15,17.87-2.39C350.61,239.53,342.59,233.52,335.31,225.2Zm-132.56,62c1.81,0,3.79-.21,4-2.24s-2.06-1.61-3.24-2.06c-6.65-2.51-13.37-4.83-20-7.31-1.94-.72-4.17-2.14-5.14.68-.79,2.33,1.74,2.93,3.36,3.78a6.67,6.67,0,0,0,1,.34c3.76,1.24,7.57,2.23,11,4.38A17.42,17.42,0,0,0,202.74,287.19Zm-12.65-28.56c-1.32.2-1.84,1.32-2.33,2.41-.75,1.67.8,1.73,1.65,2.16,7.4,3.73,15.68,4.51,23.46,7,1.37.43,2.23,0,2.55-1.2s-.9-1.58-1.74-1.9c-7.24-2.67-14.5-5.28-21.76-7.9C191.36,259,190.77,258.83,190.09,258.64Zm66.12,90.26c-7.75,1.55-7.75,1.56-8,8.52,0,1-.2,1.94-.23,2.91-.15,3.65-.27,7.3-.4,10.95l1,.16Zm-114.88-1.78,8.91,21c.3-5.18.07-10.15-.12-15.13a3.85,3.85,0,0,0-2.75-3.85Z"/><path class="cls-4" d="M187.56,253.53c-1.84,2.25-3.6,4.57-5.55,6.72-2.66,2.94-2.56,4.11,1,5.92a60.05,60.05,0,0,0,11.31,3.89c1.14.31,3.31-.1,2.45,2.42-.72,2.1-1.86,2.27-3.83,1.38-3.87-1.73-7.83-3.26-11.83-4.68s-5.21-.82-6.84,3.27a15.43,15.43,0,0,1-1.37,2.56c-3.19,5-3.22,5,2,7.4,3,1.36,6,2.69,9,3.86,1.85.7,2.4,1.63,1.75,3.58a36.71,36.71,0,0,0-1.41,6.37c-.22,1.51-.58,3.47,1.58,3.89s3.35-1,4-2.89a3.94,3.94,0,0,0,.16-.71c1.1-7.13,1.1-7.13,8.14-5,8.61,2.59,13.44-.59,14.59-9.5.29-2.28-1.25-2.64-2.8-3-3-.73-6.09-1.37-9.13-2.06,1-3.8,3-5,6.47-3.67,2.25.84,4.66,1.14,6.89,2.22a3.39,3.39,0,0,0,5-2,43.74,43.74,0,0,0,1.71-5.91c.58-2.76-1.7-3.35-3.49-4.34-1.61-.89-4.06-.72-4.66-2.87-.41-1.48,4.26-6.26,6.13-6.69,2.59-.6,5.2-1.11,7.76-1.82,6.6-1.81,13.42-2.08,20.14-3,22.59-2.91,44.35-8.61,64.85-18.72,4.13-2,8.35-3.87,12.39-6,1.51-.81,2.13-.34,2.25.92.38,4.06,3.48,8,.68,12.21a.91.91,0,0,0,0,.69c3.87,11.23.39,22.11-1.35,33.13-.93,5.91-3.3,11.08-6.94,16.58-1.28-3.78-2.13-7.28-4.42-10.23a38.68,38.68,0,0,0-26.17-14.89c-11.79-1.53-23.49,8.49-27,21.2-1.36,5-2.26,10.15-3.58,15.17-1.26,4.82-2,5-6.18,2.64-2.53-1.45-5-2.94-7.64-4.26-7.17-3.66-14.21-1.25-17.92,6A17,17,0,0,0,224.1,311c0,3.45-1.44,5.27-5.17,4.28a2.07,2.07,0,0,0-.37,0c-11.45-.88-18,8.5-13.23,19.11a48.1,48.1,0,0,0,3.35,5.61c2.08,3.33,1.23,5.53-2.47,6.38-5.63,1.29-11.34,1-17,.94-6.55-.09-13.13.44-19.64-.48-8.52-1.21-16.05-5.3-23.76-8.75-7.41-3.31-14.6-7.13-21.89-10.7-2.82-1.38-5.64-2.77-8.83-3.19a10.68,10.68,0,0,1-6.29-3.41c-6.66-6.84-13.31-13.42-18.43-21.85C83.37,287.43,78,275.42,73,263.1c-1.41-3.45-.25-6.68-.37-10-.37-10.41.61-20.81,1.48-31.19.41-4.91.6-9.85,1.87-15.42,2.34,2.25,4.39,4,6.1,5.95,8.75,10.21,19.86,16.72,32.13,21.91,11.42,4.83,23.18,8.59,34.84,12.68,5.69,2,11.74,1.53,17.67,1.6,7.09.08,13.83,2.24,20.72,3.48Q187.51,252.84,187.56,253.53Z"/><path class="cls-5" d="M86.23,178.33c3.07-6.65,5.87-13.54,10.25-19.42,6.3-8.46,12.57-17,20.72-23.91,2.06-1.74,3.89-2.41,6.12-.81,9.61,6.91,20.3,5.63,30.84,3.65,7.28-1.37,12.09-6.79,15.28-13,2-4,3.61-8.5,3.19-13.25-.14-1.61,1-1.71,1.93-2.11,11.68-4.85,23.75-5.43,36.34-5.09,15.37.42,28.86,6.71,43.08,10.8,4.77,1.37,9.51,2.8,13.75,5.55,1.78,1.15,1.79,1.82.29,3.43-4.3,4.63-10,7.33-15.06,10.74-10.43,7-20.83,14.17-32.65,18.83a31.39,31.39,0,0,1-6.9,2.17,3.57,3.57,0,0,0-3.28,3.77c.16,2,2.21,1.35,3.56,1.38,7.61.21,15,2,22.81,1.32,12.41-1.14,23.92-5,35.1-10a126.21,126.21,0,0,0,19.22-11c1.79-1.22,2.85-1.28,4.4.54a188.85,188.85,0,0,1,16.28,22.34c1.54,2.48,1,3-1.57,3.61-32.48,8.11-59,26.83-84.15,47.81-4.93,4.12-8.67,9.5-12.14,14.93-3.11,4.87-8.13,5.37-12.33,1.2-6.46-6.41-12.58-13.25-19.58-19-13.68-11.27-29.39-19.11-46-25.22-8.39-3.09-16.62-6.56-25.28-9a42.57,42.57,0,0,0-21.52-.32C88.12,178.51,87.36,179,86.23,178.33ZM224.93,133c3.59-.19,5.12-1.53,5-4.32-.19-3.23-2.14-5.58-4.57-5.52-2.71.07-5.79,3-5.76,5.55C219.61,131.75,221.45,133.23,224.93,133Zm-27.68,1.06a5.25,5.25,0,0,0-5.14,5.45c0,2.46,1.07,3.94,3.64,3.95,2.83,0,5.85-3.15,5.77-5.94S199.32,134.46,197.25,134.1Z"/><path class="cls-6" d="M216.9,346c1.71-1.32,4.17-1.79,4-4.43-.26-3-2.8-4.08-5.16-5.06-5.66-2.35-7-5.83-4.36-11.17,1.2-2.41,3-3.53,5.61-2.66a12.83,12.83,0,0,0,5.76.22c5-.6,6.66-2.38,7-7.43.75-10.26,2.92-11.46,12.69-9.15,5.45,1.29,10.62,4.06,16.58,3.41,3.21-.35,4.42-1.58,4.65-4.69.87-11.87,6.25-21.73,14.21-30.27,3.22-3.46,7.51-4.3,12.08-3.35,3.66.76,7.49,1.17,10.76,3.08,5.85,3.42,9.29,8.24,11.35,15.12,3.78,12.6-4.43,19.08-11.47,26.33-2.84,2.93-6.49,5.07-9.68,7.68-1.73,1.42-2.85,1.45-4.29-.52-3.43-4.69-8-7.35-14-6.81-9.47.85-15.3,8.3-13.76,17.67.25,1.52,0,3.47,2.34,3.39s2.33-2,2.34-3.73c0-5.36,2.41-8.51,7.46-9.72,3.44-.83,6.45.3,9.21,2.32,2.3,1.69,2.22,3-.37,4.5a108.66,108.66,0,0,1-33.85,13.57C236.51,346.21,226.75,347.62,216.9,346Z"/><path class="cls-4" d="M240,235.4c-2,.09-4.66.24-7.33.29-.89,0-2.12.58-2.59-.58-.37-.9.72-1.41,1.23-2,6.79-8.35,14.88-15.26,23.38-21.81,11.84-9.13,24.74-16.52,37.83-23.59,6.7-3.62,14.12-5.64,21.28-8.2,1.5-.54,2.68-.65,3,1.66.5,4.25,2.45,8.08,4.16,11.94s1.18,7.07-1.56,10.39c-7.15,8.67-16.91,13.36-26.86,17.47-9.58,4-19.6,6.84-29.32,10.54C256,234.18,248.34,234.86,240,235.4Z"/><path class="cls-7" d="M238.84,241.85c10.35-2.26,21-3.22,31-7S290.17,228,300.2,224c7.45-2.92,14.31-6.66,21.36-10.21,1.06-.53,2.31-2.1,3.44-.42a3.34,3.34,0,0,1-.53,4.34,16.35,16.35,0,0,1-4.88,3.12c-14.73,7.42-29.9,13.7-46,17.57-10.31,2.49-20.69,4.66-31.33,5.44A82.42,82.42,0,0,0,224.9,247c-2,.61-4.07.47-6.11.74-3.74.77-5.79,2.78-13.92.58-8.89.15-17.48-2-26.16-3.46-5.59-.92-11.14-2-16.86-2.08-4.76-.11-9.11-2.33-13.59-3.77-10.94-3.53-22.14-6.2-32.78-10.73-9-3.82-17.15-8.46-23.6-15.86-3.38-3.88-7.84-6.5-11.63-9.91-2.87-2.57-3.17-5.12-1.24-8.84,1.62,2.13,2.82,4.24,4.5,5.84,9.95,9.45,18.63,20.56,31.91,25.79,7.62,3,15.24,5.82,23.53,7.09,10.93,1.68,22,3,32.63,6.45a7.45,7.45,0,0,0,3.54.53c7.31-1.22,14.33,1.41,21.57,1.65,5.17.17,10.46-1.14,15.54.45a32.08,32.08,0,0,0,11.46,1C230.34,242.22,230.32,241.75,238.84,241.85Z"/><path class="cls-8" d="M166.23,116.28c-2.16,4.54-3.56,10.94-10.62,13.38-9.52,3.3-18.78,4-28-1.23-11.58-6.59-11.8-18-6.71-26.65a17.6,17.6,0,0,1,15.91-8.69,32.83,32.83,0,0,1,18.69,5.51C160.54,102,166.07,110.33,166.23,116.28Zm-24.37,6.13a9.32,9.32,0,0,0,8.55-6.08c1.3-3.5.27-7-2.72-9.78s-7.34-2.76-10.71-4.93c-1.28-.83-2.38,1.12-2.91,2.16a35.66,35.66,0,0,0-2.16,6.09C129.74,117.26,134.07,122.7,141.86,122.41Z"/><path class="cls-9" d="M85.37,192.28c8.47.87,16,3.41,23.6,5.72,3.46,1.05,6.82,2.47,10.35,3.3,14.05,3.31,26.93,9.49,39.27,16.71,5.09,3,9.49,7.11,14.15,10.8a19,19,0,0,1,2.41,2.86c-2.44,1-4.37-.08-6.29-.35-12.93-1.81-25.64-4.77-38.34-7.76a29.48,29.48,0,0,1-9.34-3.84c-3.87-2.48-7.92-4.74-12-6.82-9-4.55-15.94-11.42-22.56-18.75A17.09,17.09,0,0,1,85.37,192.28Z"/><path class="cls-10" d="M230.34,156.15a8.61,8.61,0,0,1,1.42-1c14.9-6.62,28-16,39.91-26.93a238.08,238.08,0,0,1,29.09-22.54,27.26,27.26,0,0,1,7.21-3.37c1.1-.33,2.47-1,3.46-.06s.48,2.28.08,3.42a17.54,17.54,0,0,1-1.48,3.7c-10.8,16.72-23.76,30.74-43.5,37.29-6.91,2.29-14,4.17-20.66,7-4,1.69-7.7,3.51-12.1,3.51C232.61,157.13,231.34,157.55,230.34,156.15Z"/><path class="cls-11" d="M170.53,97.1c.05,1.22.11,1.83.1,2.44,0,.83.22,1.93-.69,2.28-1.07.42-1.44-.73-1.75-1.42a21,21,0,0,0-10.39-10.66c-3-1.48-3.92-5-4.49-8-1.81-9.77-5.06-19.22-6.34-29.09-1.06-8.17,1-15.9,3.35-23.56.7-2.28,2.26-2,3.27-.15a46.58,46.58,0,0,1,2.27,5.33A177.5,177.5,0,0,1,166.74,70.7C168.3,79.66,169.35,88.7,170.53,97.1Z"/><path class="cls-7" d="M86.24,182.82c6.35,2.38,12.69-1.46,19.11.77,8.7,3,17.45,5.91,26.15,9,14.7,5.14,27.92,13,41,21.1,7.68,4.72,13.72,11.57,19.93,18.07a1.61,1.61,0,0,1,.5,2c-.42.73-1.28.69-2,.59a10.72,10.72,0,0,1-5.78-2.84,259.68,259.68,0,0,0-23.1-18.91c-7.8-5.61-16.81-9.16-25.76-12.62a262.57,262.57,0,0,0-42.22-12.09c-2.83-.58-5.73-.84-8.57-1.35-1-.18-2.57-.26-2.32-1.73S84.95,182.89,86.24,182.82Z"/><path class="cls-11" d="M180.08,45.25c5.14,4.37,5.83,9.88,6.14,14.8.72,11.65,2.69,23.32.46,35.09-.89,4.71-4.52,2.59-6.77,3.38-2.05.72-1.87-2-2-3.37A137.17,137.17,0,0,0,175.86,80C173.71,68.23,176.65,57.06,180.08,45.25Z"/><path class="cls-12" d="M51.86,268.59c-3-4.23-1.74-8.59-.82-12.74,3.3-14.89,7.33-29.54,16.1-42.37.41-.6.81-1.21,1.26-1.78.12-.15.42-.14,1.07-.34-.37,4.9.18,9.71-1.13,14.36s-2.36,9.13-2.08,13.92a13,13,0,0,1-1,5.3A97.9,97.9,0,0,1,51.86,268.59Z"/><path class="cls-13" d="M307.8,175c-8,3.73-16.37,6.27-23.9,10.74-15.24,9.06-30.07,18.75-43.75,30.05a58.76,58.76,0,0,0-13.31,15.31c-3.06,5.17-3.1,5.15-9.29,3.85a53.56,53.56,0,0,1,11.39-14.59c13.26-11.58,27.19-22.36,42.76-30.7,9.91-5.31,19.54-11.31,30.51-14.48A10.45,10.45,0,0,1,307.8,175Z"/><path class="cls-11" d="M200.39,58.82c2.53,4.26,3.23,8.6,3.89,12.77,1.16,7.44,1.23,14.91-.92,22.34-1.34,4.61-4.71,2.23-7.16,2.6-2.62.39-1.81-2.06-1.88-3.39C193.78,83.09,196.77,65.93,200.39,58.82Z"/><path class="cls-14" d="M335.31,225.2c7.28,8.31,15.3,14.32,25.52,17.6-5.83,4.54-12.69,5.3-17.87,2.39C335.12,240.79,334.21,238.59,335.31,225.2Z"/><path class="cls-7" d="M202.74,287.19a17.42,17.42,0,0,1-9-2.44c-3.46-2.15-7.26-3.14-11-4.38a6.67,6.67,0,0,1-1-.34c-1.62-.85-4.16-1.45-3.36-3.78,1-2.83,3.19-1.4,5.14-.68,6.66,2.48,13.38,4.8,20,7.31,1.19.45,3.5,0,3.24,2.06S204.55,287.21,202.74,287.19Z"/><path class="cls-13" d="M190.09,258.64c.68.19,1.27.32,1.83.53,7.26,2.62,14.52,5.24,21.76,7.9.84.31,2.08.65,1.74,1.9s-1.18,1.63-2.55,1.2c-7.78-2.45-16.06-3.23-23.46-7-.85-.43-2.4-.49-1.65-2.16C188.25,260,188.77,258.84,190.09,258.64Z"/><path class="cls-15" d="M256.21,348.9l-7.64,22.53-1-.16c.13-3.65.25-7.3.4-10.95,0-1,.21-1.94.23-2.91C248.46,350.45,248.46,350.45,256.21,348.9Z"/><path class="cls-15" d="M141.33,347.12l6,2.07a3.85,3.85,0,0,1,2.75,3.85c.19,5,.42,10,.12,15.13Z"/><path class="cls-9" d="M187.56,253.53q-.05-.7-.1-1.39c7-.1,13.62,2.31,20.94,2.62-2,3.72-4.64,4-7.58,2.87-3.14-1.2-6.22-2.61-9.24-4.09A3.72,3.72,0,0,0,187.56,253.53Z"/><path class="cls-3" d="M224.93,133c-3.48.18-5.32-1.29-5.36-4.29,0-2.51,3-5.48,5.76-5.55,2.43-.06,4.38,2.29,4.57,5.52C230.05,131.52,228.52,132.86,224.93,133Z"/><path class="cls-3" d="M197.25,134.11c2.07.35,4.19.65,4.28,3.45s-2.94,5.95-5.77,5.94c-2.58,0-3.65-1.49-3.64-3.95A5.24,5.24,0,0,1,197.25,134.11Z"/><path class="cls-3" d="M141.86,122.41c-7.8.28-12.13-5.15-9.94-12.54a35.66,35.66,0,0,1,2.16-6.09c.53-1,1.63-3,2.91-2.16,3.36,2.17,7.67,2.14,10.71,4.93s4,6.28,2.72,9.78A9.32,9.32,0,0,1,141.86,122.41Zm3.92-8.11c-.84-2.86-3.15-5.1-5.87-6.95-2.07-1.4-3.67-.71-4.69,1.48-1.35,2.92-.59,5.44,1.66,7.54s5,2.07,7.77.86C145.86,116.71,145.72,115.76,145.79,114.3Z"/><path class="cls-8" d="M145.79,114.3c-.07,1.46.07,2.41-1.13,2.93-2.79,1.21-5.43,1.31-7.77-.86s-3-4.61-1.66-7.54c1-2.19,2.62-2.89,4.69-1.48C142.64,109.2,144.95,111.44,145.79,114.3Z"/></g><path class="cls-3" d="M67.36,256.25a23.12,23.12,0,0,0-3,7.66,22.87,22.87,0,0,1-4.61,8.39c-2.19,2.79-5.55,2.56-8.56,1.1-8.62-4.17-8.27-11.74-7.15-19,2.42-15.89,7.09-31,16.57-44.45A145.81,145.81,0,0,0,73,189.83c3.36-6.91,7.2-13.61,10.22-20.65,5-11.6,12.67-21.27,20.75-30.69,3.4-4,6-8.7,10.65-11.52,1.41-.87.64-1.67.25-2.66-2.92-7.35-4-14.87-1.76-22.61,2-7.16,12.51-15.62,20-16.13,3.1-.21,6.22-.26,9.34-.28,2.24,0,3.06-1,2.45-3.13-3.49-12.17-2.92-25-6.3-37.22-2.22-8,1.49-15.27,5.53-22,2.7-4.47,7.68-4.13,11.54-.5,4.86,4.57,7.16,10.38,9,16.42,1.56,5.25,3.71,10.23,5.77,16,1.56-4,2-7.8,3.8-11,.7-1.25,1.18-2.62,1.93-3.83,2.26-3.68,4-3.49,7.49-1,5.74,4.1,6.66,10.12,7.67,16.23a9.54,9.54,0,0,0,1.34,4.38,21.91,21.91,0,0,1,3.53-7.73c1.58-2.39,3.54-2.67,6.19-1.45,5.6,2.57,7.13,7.32,7.35,12.8.39,9.78-.91,19.47-1.9,29.16-.2,1.92.06,2.56,2,2.73,12.48,1.09,24.29,4.62,36,9,8.62,3.22,17.57,5.53,25.35,10.66,1.41.93,2.12-.05,3.07-.79,5.65-4.41,10.66-9.58,16.59-13.67,5.7-3.94,12.35-5,18.92-6.16,3.83-.65,7.42,3.55,6.59,7.51-1.74,8.28-3.56,16.53-10.63,22.44-2.81,2.34-4.53,5.86-7.63,8-2.18,1.51-1.77,3-.11,4.57,10.13,9.73,15.84,22.28,22.17,34.44,2.35,4.52,3.12,9.5,4.09,14.37a48.07,48.07,0,0,0,3.54,11.19c1.39,3,1.43,6.21,2.29,9.29,1.7,6.13,5.55,10.55,9.94,14.56,4.74,4.34,9.81,8.41,16,10.65A23.06,23.06,0,0,1,362,235a7,7,0,0,1,.58,10.88c-7.86,7.68-11,8.16-20.92,3.27-2.46-1.21-5-2.32-7.86-3.67-.89,6.13-3,11.71-3.94,17.68C328.25,273.38,324,282.76,319,292a108.3,108.3,0,0,1-18.13,25.12c-8.74,8.9-18.74,15.9-30.64,20-2.71.94-5.08,2.64-7.91,3.34-1.54.37-2.19,1.8-2.64,3.18-2.27,7-5.41,13.73-7.16,20.94a34.63,34.63,0,0,1-3.89,8.81c-1.69,2.94-.71,4.28,2.14,5.18,1.82.58,3.58,1.35,5.39,2a3.2,3.2,0,0,1,2.44,3.18c-.15,1.73-1.85,2.07-3.33,2a34.14,34.14,0,0,1-15-4.5c-2.18-1.29-2.82-3.64-2.16-6.28a100.38,100.38,0,0,0,2.78-24.39c0-2.16-.59-3.1-2.87-2.78-8.87,1.28-17.85.58-26.77,1.77-14.88,2-29.77-.25-44.65-.91-2.82-.12-5.62-1.08-8.39-1.8-1.66-.43-2.66-.61-2.57,1.73.37,8.92.55,17.86,3.07,26.54,1.2,4.13-1.63,8.94-6.24,10.79s-9.84.35-11.95-3.54c-.71-1.3-1.28-2.77-.34-4s2.42-.65,3.68-.39a5.72,5.72,0,0,1,2.34.83c1.86,1.46,3.58.68,4.82-.57,1.44-1.45.92-3.23-.17-4.91-6.24-9.56-10.41-20.08-14-30.83-1.26-3.84-2.82-6.29-7.12-7.35-5-1.22-9.61-3.59-14.44-5.35-5.6-2-8.94-6.59-12.53-10.89a26.64,26.64,0,0,0-4.17-3.88,50.17,50.17,0,0,1-13.54-16,253.35,253.35,0,0,1-16.52-36.43A37.64,37.64,0,0,1,67.36,256.25ZM217.58,244c2-.26,4-.13,6-.72a81.5,81.5,0,0,1,17.15-3.1c10.48-.76,20.71-2.89,30.86-5.33,15.82-3.8,30.77-10,45.28-17.23a16.12,16.12,0,0,0,4.8-3.06,3.26,3.26,0,0,0,.52-4.26c-1.12-1.65-2.35-.11-3.39.41-6.94,3.48-13.7,7.15-21,10-9.88,3.86-20,6.92-29.92,10.64s-20.34,4.45-30.52,6.86l-14.94.64a32.46,32.46,0,0,1-11.29-1c-5-1.56-10.21-.28-15.3-.45-7.13-.23-14-2.81-21.25-1.62a7.37,7.37,0,0,1-3.49-.52c-10.46-3.35-21.37-4.68-32.14-6.33-8.17-1.25-15.67-4-23.18-7-13.09-5.13-21.63-16-31.43-25.3-1.66-1.57-2.84-3.64-4.43-5.73-1.9,3.64-1.6,6.14,1.23,8.67,3.74,3.34,8.13,5.92,11.46,9.72,6.36,7.26,14.43,11.81,23.25,15.55,10.49,4.45,21.52,7.07,32.29,10.53,4.41,1.41,8.69,3.6,13.38,3.7,5.63.12,11.1,1.15,16.61,2,8.55,1.39,17,3.54,25.77,3.4A28.28,28.28,0,0,0,217.58,244Zm-30.87,4.3c-6.79-1.22-13.43-3.34-20.41-3.42-5.85-.06-11.8.39-17.41-1.57-11.48-4-23.07-7.7-34.32-12.43-12.09-5.09-23-11.48-31.65-21.49-1.69-2-3.71-3.62-6-5.83-1.24,5.46-1.44,10.31-1.84,15.12-.85,10.18-1.82,20.39-1.46,30.6.11,3.22-1,6.39.37,9.77,4.92,12.08,10.19,23.86,17,35.11,5,8.27,11.6,14.72,18.16,21.43a10.53,10.53,0,0,0,6.19,3.35,28.25,28.25,0,0,1,8.7,3.13c7.19,3.5,14.27,7.25,21.57,10.5,7.59,3.38,15,7.39,23.41,8.58,6.41.9,12.9.38,19.35.47,5.62.08,11.24.35,16.79-.92,3.64-.83,4.48-3,2.43-6.25a47.14,47.14,0,0,1-3.3-5.5c-4.68-10.4,1.75-19.6,13-18.74a2.05,2.05,0,0,1,.36,0c3.67,1,5.06-.81,5.09-4.19a16.58,16.58,0,0,1,1.73-7.58c3.66-7.11,10.59-9.48,17.66-5.88,2.55,1.3,5,2.76,7.52,4.18,4.12,2.35,4.84,2.14,6.08-2.59,1.3-4.93,2.18-10,3.53-14.88,3.41-12.47,14.94-22.3,26.56-20.8A38.14,38.14,0,0,1,311.65,273c2.26,2.9,3.09,6.33,4.35,10,3.59-5.4,5.91-10.46,6.83-16.26,1.72-10.8,5.15-21.48,1.33-32.49a.89.89,0,0,1,0-.68c2.76-4.15-.3-8-.67-12-.11-1.23-.72-1.7-2.21-.9-4,2.13-8.14,3.94-12.21,5.93-20.19,9.91-41.62,15.5-63.88,18.36-6.62.85-13.34,1.12-19.84,2.89-2.52.69-5.1,1.19-7.65,1.78-1.83.42-6.44,5.11-6,6.56.59,2.1,3,1.94,4.59,2.81,1.77,1,4,1.56,3.44,4.26a42.77,42.77,0,0,1-1.69,5.8,3.34,3.34,0,0,1-5,2c-2.2-1.05-4.57-1.35-6.79-2.18-3.41-1.27-5.42-.12-6.37,3.6,3,.67,6,1.3,9,2,1.52.37,3,.72,2.76,3-1.13,8.74-5.89,11.86-14.37,9.32-6.94-2.08-6.94-2.08-8,4.92a3.85,3.85,0,0,1-.15.69c-.66,1.86-1.9,3.22-4,2.83s-1.77-2.34-1.55-3.81a35.88,35.88,0,0,1,1.39-6.25c.64-1.92.09-2.82-1.73-3.52-3-1.15-6-2.45-8.9-3.79-5.16-2.36-5.13-2.38-2-7.26a15.11,15.11,0,0,0,1.35-2.51c1.61-4,2.7-4.64,6.74-3.21s7.84,2.9,11.65,4.59c1.94.87,3.06.7,3.77-1.36.85-2.47-1.28-2.07-2.41-2.38A59.33,59.33,0,0,1,182.37,262c-3.55-1.78-3.64-2.93-1-5.81,1.92-2.11,3.65-4.39,5.47-6.59a3.68,3.68,0,0,1,4,0c3,1.45,6,2.83,9.1,4,2.89,1.1,5.53.84,7.47-2.81C200.13,250.52,193.61,248.16,186.72,248.26ZM87,175.86c1.11.63,1.86.17,2.67,0a42.1,42.1,0,0,1,21.2.31c8.54,2.35,16.63,5.76,24.9,8.79,16.36,6,31.83,13.68,45.31,24.74C188,215.34,194,222,200.37,228.34c4.14,4.09,9.08,3.6,12.15-1.18,3.42-5.33,7.1-10.61,12-14.65,24.78-20.58,50.9-38.95,82.89-46.9,2.48-.62,3.07-1.11,1.54-3.55a185.27,185.27,0,0,0-16-21.92c-1.52-1.79-2.57-1.73-4.33-.53a124.46,124.46,0,0,1-18.94,10.74c-11,4.93-22.35,8.7-34.58,9.82-7.66.7-15-1.09-22.47-1.29-1.33,0-3.35.62-3.51-1.36a3.51,3.51,0,0,1,3.24-3.7,31,31,0,0,0,6.8-2.12c11.64-4.57,21.89-11.61,32.16-18.47,5-3.34,10.6-6,14.83-10.53,1.47-1.58,1.46-2.23-.29-3.37-4.17-2.69-8.85-4.1-13.55-5.44-14-4-27.3-10.18-42.44-10.59-12.4-.34-24.29.24-35.79,5-.95.4-2,.49-1.9,2.07.42,4.66-1.14,9.11-3.14,13-3.15,6.12-7.88,11.44-15.05,12.78-10.39,1.94-20.91,3.2-30.38-3.58-2.2-1.57-4-.91-6,.79-8,6.77-14.21,15.16-20.41,23.45C92.78,162.58,90,169.34,87,175.86ZM215.72,340.3c9.7,1.61,19.31.23,28.61-1.67a107.3,107.3,0,0,0,33.35-13.31c2.55-1.52,2.63-2.75.36-4.41-2.71-2-5.68-3.09-9.07-2.28-5,1.19-7.34,4.27-7.35,9.53,0,1.74.08,3.58-2.3,3.66s-2.06-1.84-2.3-3.32c-1.51-9.19,4.23-16.5,13.56-17.33,6-.53,10.44,2.08,13.81,6.68,1.42,1.92,2.52,1.9,4.23.51,3.14-2.56,6.73-4.66,9.54-7.53,6.94-7.11,15-13.47,11.3-25.83-2-6.74-5.42-11.47-11.18-14.83-3.22-1.87-7-2.27-10.6-3-4.51-.93-8.73-.1-11.9,3.29-7.84,8.37-13.14,18-14,29.69-.23,3.05-1.42,4.26-4.58,4.6-5.87.64-11-2.08-16.33-3.34-9.62-2.26-11.76-1.09-12.5,9-.36,5-2,6.71-6.92,7.29a12.69,12.69,0,0,1-5.68-.22c-2.56-.86-4.35.25-5.53,2.61-2.62,5.24-1.27,8.66,4.3,11,2.33,1,4.83,2,5.08,5C219.82,338.54,217.4,339,215.72,340.3Zm22.78-108.46c8.19-.52,15.77-1.19,22.81-3.85,9.57-3.62,19.44-6.45,28.88-10.33,9.8-4,19.42-8.63,26.46-17.13,2.7-3.26,3.21-6.43,1.54-10.19s-3.6-7.55-4.09-11.71c-.26-2.26-1.43-2.15-2.91-1.62-7.05,2.51-14.36,4.5-21,8-12.9,6.93-25.6,14.18-37.27,23.14-8.37,6.43-16.34,13.21-23,21.4-.5.61-1.58,1.11-1.21,2,.46,1.13,1.67.58,2.55.57C233.9,232.07,236.53,231.92,238.49,231.83ZM165.81,115c-.17-5.84-5.61-14.05-10.56-17.34a32.44,32.44,0,0,0-18.41-5.41,17.35,17.35,0,0,0-15.67,8.52c-5,8.44-4.8,19.68,6.61,26.14,9.07,5.14,18.2,4.44,27.57,1.21C162.3,125.72,163.67,119.45,165.81,115ZM86.15,189.54a16.76,16.76,0,0,0,1.2,1.84c6.52,7.19,13.4,13.93,22.22,18.4,4,2,8,4.26,11.84,6.69a29.11,29.11,0,0,0,9.2,3.77c12.51,2.93,25,5.83,37.77,7.61,1.89.26,3.79,1.35,6.19.34a18.69,18.69,0,0,0-2.37-2.81c-4.58-3.62-8.93-7.68-13.94-10.59-12.16-7.09-24.84-13.14-38.68-16.4-3.48-.82-6.79-2.2-10.2-3.24C101.94,192.88,94.5,190.39,86.15,189.54ZM229,154.1c1,1.37,2.23,1,3.37,1,4.33,0,8-1.78,11.92-3.44,6.54-2.74,13.55-4.58,20.35-6.83,19.45-6.43,32.21-20.18,42.85-36.58a17.16,17.16,0,0,0,1.45-3.62c.4-1.12.87-2.43-.08-3.36s-2.32-.27-3.4.06a26.91,26.91,0,0,0-7.1,3.31,234.4,234.4,0,0,0-28.66,22.1c-11.76,10.71-24.64,19.93-39.31,26.42A8.48,8.48,0,0,0,229,154.1ZM170,96.18c-1.17-8.24-2.2-17.11-3.74-25.89a173.55,173.55,0,0,0-10.7-35.77,45.58,45.58,0,0,0-2.24-5.23c-1-1.77-2.53-2.09-3.22.15-2.32,7.51-4.35,15.1-3.3,23.11,1.27,9.69,4.46,19,6.25,28.54.56,3,1.47,6.42,4.42,7.87a20.59,20.59,0,0,1,10.23,10.46c.3.67.66,1.81,1.72,1.39.9-.35.67-1.42.68-2.24C170.15,98,170.09,97.38,170,96.18ZM87,180.26c-1.27.06-2.7.42-3,1.88s1.29,1.52,2.28,1.7c2.8.5,5.66.75,8.44,1.32A259.5,259.5,0,0,1,136.36,197c8.82,3.39,17.69,6.87,25.38,12.37a255.59,255.59,0,0,1,22.76,18.54,10.58,10.58,0,0,0,5.7,2.79c.68.1,1.53.14,1.94-.58a1.58,1.58,0,0,0-.49-1.93c-6.12-6.38-12.07-13.09-19.64-17.72-12.92-7.91-25.94-15.66-40.42-20.7-8.57-3-17.18-5.82-25.76-8.78C99.5,178.83,93.26,182.6,87,180.26ZM179.44,45.33c-3.38,11.58-6.27,22.54-4.15,34.13a134,134,0,0,1,2,14.82c.09,1.34-.08,4,1.94,3.31,2.22-.77,5.79,1.31,6.67-3.32,2.2-11.55.26-23-.45-34.42C185.19,55,184.51,49.61,179.44,45.33ZM53.14,264.4A95.92,95.92,0,0,0,66.3,241.21a12.69,12.69,0,0,0,1-5.2c-.27-4.7.78-9.18,2.05-13.66s.75-9.28,1.11-14.09c-.64.2-.94.19-1.05.34-.45.55-.84,1.15-1.24,1.74-8.63,12.58-12.6,27-15.86,41.56C51.43,256,50.18,260.25,53.14,264.4Zm252.11-91.8a10.34,10.34,0,0,0-5.5.17c-10.8,3.11-20.29,9-30.05,14.2-15.34,8.18-29.06,18.75-42.13,30.11a52.57,52.57,0,0,0-11.22,14.31c6.1,1.27,6.13,1.3,9.15-3.78a57.71,57.71,0,0,1,13.11-15c13.48-11.08,28.09-20.59,43.1-29.48C289.13,178.75,297.39,176.26,305.26,172.6Zm-105.8-114c-3.57,7-6.51,23.81-6,33.66.07,1.31-.73,3.71,1.85,3.32,2.42-.36,5.74,2,7.06-2.55,2.12-7.29,2.06-14.61.91-21.91C202.64,67.06,202,62.8,199.45,58.63Zm132.9,163.21c-1.08,13.13-.19,15.29,7.53,19.61,5.1,2.85,11.87,2.11,17.61-2.35C347.43,235.88,339.53,230,332.35,221.83Zm-130.58,60.8c1.78,0,3.73-.21,4-2.19s-2-1.58-3.19-2c-6.55-2.46-13.17-4.74-19.73-7.17-1.91-.71-4.11-2.1-5.06.67-.78,2.28,1.72,2.87,3.31,3.7a6.59,6.59,0,0,0,1,.34c3.71,1.21,7.45,2.18,10.86,4.29A17.21,17.21,0,0,0,201.77,282.64Zm-12.47-28c-1.3.2-1.81,1.3-2.3,2.37-.74,1.64.79,1.7,1.62,2.12,7.29,3.66,15.44,4.43,23.11,6.83,1.34.42,2.2,0,2.51-1.18s-.89-1.55-1.71-1.86c-7.13-2.61-14.28-5.18-21.43-7.75C190.55,254.95,190,254.82,189.3,254.63Zm65.13,88.53c-7.64,1.52-7.63,1.53-7.84,8.35,0,1-.19,1.9-.23,2.85-.15,3.58-.27,7.16-.4,10.74l.94.16Zm-113.16-1.74,8.77,20.64c.3-5.08.07-10-.12-14.84a3.77,3.77,0,0,0-2.71-3.78Z"/><path class="cls-4" d="M186.81,249.62c-1.82,2.21-3.55,4.48-5.47,6.59-2.62,2.88-2.53,4,1,5.81a59.33,59.33,0,0,0,11.14,3.81c1.13.31,3.26-.1,2.41,2.38-.71,2.06-1.83,2.22-3.77,1.36-3.81-1.7-7.72-3.2-11.65-4.59s-5.13-.8-6.74,3.21a15.11,15.11,0,0,1-1.35,2.51c-3.14,4.88-3.17,4.9,2,7.26,2.93,1.34,5.89,2.64,8.9,3.79,1.82.69,2.37,1.6,1.73,3.52a35.88,35.88,0,0,0-1.39,6.25c-.21,1.48-.57,3.41,1.55,3.81s3.3-1,4-2.83a3.85,3.85,0,0,0,.15-.69c1.08-7,1.08-7,8-4.92,8.48,2.54,13.24-.58,14.37-9.32.29-2.24-1.24-2.59-2.76-3-3-.72-6-1.35-9-2,.95-3.73,3-4.87,6.37-3.6,2.22.83,4.59,1.12,6.79,2.18a3.34,3.34,0,0,0,5-2,42.77,42.77,0,0,0,1.69-5.8c.57-2.7-1.67-3.29-3.44-4.26-1.58-.87-4-.71-4.59-2.81-.4-1.45,4.2-6.14,6-6.56,2.55-.59,5.13-1.09,7.65-1.78,6.5-1.78,13.22-2,19.84-2.89,22.25-2.86,43.68-8.45,63.88-18.36,4.06-2,8.22-3.8,12.21-5.93,1.49-.8,2.1-.33,2.21.9.37,4,3.43,7.82.67,12a.89.89,0,0,0,0,.68c3.82,11,.39,21.69-1.33,32.49-.92,5.8-3.25,10.86-6.83,16.26-1.26-3.71-2.1-7.14-4.35-10a38.14,38.14,0,0,0-25.77-14.6c-11.62-1.5-23.14,8.33-26.56,20.8-1.34,4.92-2.23,10-3.53,14.88-1.25,4.73-2,4.94-6.08,2.59-2.49-1.42-5-2.88-7.52-4.18-7.06-3.59-14-1.22-17.66,5.88a16.58,16.58,0,0,0-1.73,7.58c0,3.39-1.42,5.17-5.09,4.19a2.05,2.05,0,0,0-.36,0c-11.28-.86-17.71,8.34-13,18.74a47.14,47.14,0,0,0,3.3,5.5c2.05,3.27,1.22,5.42-2.43,6.25-5.54,1.27-11.17,1-16.79.92-6.45-.09-12.93.44-19.35-.47-8.4-1.19-15.81-5.2-23.41-8.58-7.3-3.25-14.38-7-21.57-10.5a28.25,28.25,0,0,0-8.7-3.13,10.53,10.53,0,0,1-6.19-3.35c-6.56-6.71-13.11-13.16-18.16-21.43-6.86-11.25-12.13-23-17-35.11-1.38-3.39-.25-6.55-.37-9.77-.36-10.21.6-20.41,1.46-30.6.4-4.81.6-9.66,1.84-15.12,2.3,2.21,4.33,3.88,6,5.83,8.62,10,19.56,16.4,31.65,21.49,11.25,4.74,22.83,8.42,34.32,12.43,5.61,2,11.56,1.5,17.41,1.57,7,.08,13.62,2.2,20.41,3.42Q186.76,248.94,186.81,249.62Z"/><path class="cls-5" d="M87,175.86c3-6.52,5.78-13.28,10.1-19,6.21-8.29,12.38-16.68,20.41-23.45,2-1.71,3.83-2.37,6-.79,9.47,6.78,20,5.52,30.38,3.58,7.17-1.35,11.91-6.66,15.05-12.78,2-3.89,3.56-8.34,3.14-13-.14-1.58.95-1.68,1.9-2.07,11.51-4.75,23.39-5.33,35.79-5,15.14.41,28.43,6.59,42.44,10.59,4.7,1.34,9.37,2.75,13.55,5.44,1.75,1.13,1.76,1.78.29,3.37-4.23,4.54-9.82,7.19-14.83,10.53-10.27,6.86-20.52,13.9-32.16,18.47a31,31,0,0,1-6.8,2.12,3.51,3.51,0,0,0-3.24,3.7c.16,2,2.18,1.32,3.51,1.36,7.49.21,14.82,2,22.47,1.29,12.23-1.12,23.56-4.89,34.58-9.82a124.46,124.46,0,0,0,18.94-10.74c1.76-1.2,2.81-1.26,4.33.53a185.27,185.27,0,0,1,16,21.92c1.52,2.44.94,2.93-1.54,3.55-32,8-58.11,26.32-82.89,46.9-4.86,4-8.54,9.32-12,14.65-3.07,4.78-8,5.27-12.15,1.18-6.36-6.29-12.4-13-19.29-18.65-13.48-11.06-29-18.74-45.31-24.74-8.27-3-16.37-6.43-24.9-8.79a42.1,42.1,0,0,0-21.2-.31C88.86,176,88.11,176.49,87,175.86Zm136.63-44.42c3.53-.18,5-1.5,4.89-4.24-.18-3.17-2.11-5.48-4.5-5.42-2.67.07-5.7,3-5.67,5.44C218.39,130.17,220.2,131.62,223.63,131.44Zm-27.27,1a5.16,5.16,0,0,0-5.06,5.35c0,2.41,1,3.87,3.59,3.87,2.79,0,5.77-3.09,5.69-5.83S198.4,132.82,196.36,132.48Z"/><path class="cls-6" d="M215.72,340.3c1.69-1.3,4.11-1.76,3.89-4.34-.26-3-2.76-4-5.08-5-5.57-2.3-6.92-5.71-4.3-11,1.18-2.36,3-3.46,5.53-2.61a12.69,12.69,0,0,0,5.68.22c5-.58,6.56-2.34,6.92-7.29.74-10.07,2.88-11.24,12.5-9,5.37,1.26,10.46,4,16.33,3.34,3.16-.34,4.36-1.55,4.58-4.6.86-11.64,6.16-21.32,14-29.69,3.17-3.39,7.4-4.22,11.9-3.29,3.6.75,7.38,1.14,10.6,3,5.76,3.36,9.15,8.09,11.18,14.83,3.72,12.36-4.36,18.71-11.3,25.83-2.8,2.87-6.4,5-9.54,7.53-1.7,1.39-2.81,1.42-4.23-.51-3.38-4.6-7.84-7.21-13.81-6.68-9.33.84-15.07,8.14-13.56,17.33.25,1.49,0,3.41,2.3,3.32s2.3-1.92,2.3-3.66c0-5.26,2.37-8.34,7.35-9.53,3.39-.81,6.36.3,9.07,2.28,2.27,1.66,2.18,2.9-.36,4.41a107.3,107.3,0,0,1-33.35,13.31C235,340.53,225.42,341.91,215.72,340.3Z"/><path class="cls-4" d="M238.49,231.83c-2,.08-4.59.24-7.22.29-.88,0-2.09.57-2.55-.57-.37-.89.71-1.38,1.21-2,6.69-8.19,14.66-15,23-21.4,11.67-9,24.37-16.21,37.27-23.14,6.6-3.55,13.91-5.53,21-8,1.48-.53,2.64-.64,2.91,1.62.49,4.16,2.41,7.92,4.09,11.71s1.16,6.93-1.54,10.19c-7,8.51-16.66,13.1-26.46,17.13-9.44,3.88-19.31,6.71-28.88,10.33C254.26,230.64,246.69,231.31,238.49,231.83Z"/><path class="cls-7" d="M237.33,238.16c10.19-2.21,20.7-3.16,30.52-6.85s20-6.78,29.92-10.63c7.34-2.86,14.1-6.53,21-10,1-.52,2.27-2.06,3.39-.41a3.26,3.26,0,0,1-.52,4.26,16.12,16.12,0,0,1-4.8,3.06c-14.51,7.27-29.46,13.43-45.28,17.23-10.16,2.44-20.38,4.57-30.86,5.33a81.5,81.5,0,0,0-17.15,3.1c-2,.59-4,.46-6,.72-3.69.75-5.7,2.72-13.71.57-8.76.15-17.22-2-25.77-3.4-5.51-.9-11-1.92-16.61-2-4.69-.1-9-2.29-13.38-3.7-10.78-3.46-21.81-6.08-32.29-10.53-8.82-3.74-16.89-8.29-23.25-15.55-3.33-3.8-7.72-6.38-11.46-9.72-2.82-2.52-3.12-5-1.23-8.67,1.59,2.09,2.78,4.16,4.43,5.73,9.8,9.26,18.35,20.17,31.43,25.3,7.51,2.94,15,5.7,23.18,7,10.77,1.65,21.68,3,32.14,6.33a7.37,7.37,0,0,0,3.49.52c7.2-1.2,14.12,1.38,21.25,1.61,5.1.16,10.3-1.12,15.3.44a31.73,31.73,0,0,0,11.29,1C229,238.52,228.94,238.06,237.33,238.16Z"/><path class="cls-8" d="M165.81,115c-2.13,4.45-3.51,10.73-10.46,13.13-9.38,3.23-18.5,3.93-27.57-1.21-11.41-6.46-11.63-17.7-6.61-26.14a17.35,17.35,0,0,1,15.67-8.52,32.44,32.44,0,0,1,18.41,5.41C160.2,100.94,165.64,109.16,165.81,115Zm-24,6a9.18,9.18,0,0,0,8.42-6c1.28-3.43.27-6.89-2.68-9.59s-7.24-2.71-10.55-4.84c-1.26-.81-2.34,1.1-2.86,2.12a34.88,34.88,0,0,0-2.12,6C129.85,116,134.12,121.29,141.8,121Z"/><path class="cls-9" d="M86.15,189.54c8.34.85,15.79,3.34,23.25,5.61,3.4,1,6.72,2.42,10.2,3.24,13.84,3.25,26.53,9.31,38.68,16.4,5,2.92,9.35,7,13.94,10.59a18.69,18.69,0,0,1,2.37,2.81c-2.4,1-4.31-.08-6.19-.34-12.74-1.77-25.26-4.68-37.77-7.61a29.11,29.11,0,0,1-9.2-3.77c-3.82-2.44-7.8-4.64-11.84-6.69-8.82-4.47-15.7-11.2-22.22-18.4A16.76,16.76,0,0,1,86.15,189.54Z"/><path class="cls-10" d="M229,154.1a8.48,8.48,0,0,1,1.4-1c14.67-6.49,27.56-15.7,39.31-26.42a234.4,234.4,0,0,1,28.66-22.1,26.91,26.91,0,0,1,7.1-3.31c1.08-.33,2.44-1,3.4-.06s.47,2.23.08,3.36a17.16,17.16,0,0,1-1.45,3.62c-10.64,16.4-23.41,30.15-42.85,36.58-6.8,2.25-13.82,4.09-20.35,6.83-4,1.66-7.59,3.44-11.92,3.44C231.19,155.06,229.93,155.47,229,154.1Z"/><path class="cls-11" d="M170,96.18c.05,1.2.1,1.8.1,2.39,0,.82.22,1.89-.68,2.24-1.06.41-1.42-.72-1.72-1.39A20.59,20.59,0,0,0,157.51,89c-3-1.45-3.86-4.86-4.42-7.87-1.79-9.58-5-18.85-6.25-28.54-1-8,1-15.59,3.3-23.11.69-2.23,2.22-1.92,3.22-.15a45.58,45.58,0,0,1,2.24,5.23,173.55,173.55,0,0,1,10.7,35.77C167.84,79.07,168.87,87.94,170,96.18Z"/><path class="cls-7" d="M87,180.26c6.25,2.34,12.5-1.43,18.83.76,8.57,3,17.19,5.8,25.76,8.78,14.48,5,27.5,12.79,40.42,20.7,7.57,4.63,13.51,11.34,19.64,17.72a1.58,1.58,0,0,1,.49,1.93c-.41.72-1.26.68-1.94.58a10.58,10.58,0,0,1-5.7-2.79,255.59,255.59,0,0,0-22.76-18.54c-7.68-5.5-16.55-9-25.38-12.37a259.5,259.5,0,0,0-41.59-11.86c-2.79-.57-5.64-.82-8.44-1.32-1-.18-2.53-.25-2.28-1.7S85.74,180.33,87,180.26Z"/><path class="cls-11" d="M179.44,45.33c5.06,4.28,5.75,9.69,6,14.52.71,11.43,2.65,22.87.45,34.42-.88,4.62-4.45,2.54-6.67,3.32-2,.71-1.85-2-1.94-3.31a134,134,0,0,0-2-14.82C173.17,67.86,176.06,56.91,179.44,45.33Z"/><path class="cls-12" d="M53.14,264.4c-3-4.15-1.71-8.43-.8-12.49,3.25-14.6,7.22-29,15.86-41.56.4-.59.8-1.19,1.24-1.74.11-.14.41-.14,1.05-.34-.36,4.81.18,9.52-1.11,14.09s-2.32,9-2.05,13.66a12.69,12.69,0,0,1-1,5.2A95.92,95.92,0,0,1,53.14,264.4Z"/><path class="cls-13" d="M305.26,172.6c-7.86,3.66-16.13,6.15-23.54,10.54-15,8.89-29.62,18.4-43.1,29.48a57.71,57.71,0,0,0-13.11,15c-3,5.07-3.05,5.05-9.15,3.78a52.57,52.57,0,0,1,11.22-14.31c13.06-11.36,26.79-21.93,42.13-30.11,9.76-5.21,19.25-11.09,30.05-14.2A10.34,10.34,0,0,1,305.26,172.6Z"/><path class="cls-11" d="M199.45,58.63c2.5,4.18,3.19,8.44,3.83,12.52,1.15,7.3,1.21,14.62-.91,21.91-1.32,4.53-4.63,2.19-7.06,2.55-2.58.39-1.78-2-1.85-3.32C192.94,82.44,195.89,65.61,199.45,58.63Z"/><path class="cls-14" d="M332.35,221.83c7.17,8.15,15.08,14.05,25.14,17.26-5.74,4.45-12.5,5.2-17.61,2.35C332.17,237.13,331.28,235,332.35,221.83Z"/><path class="cls-7" d="M201.77,282.64a17.21,17.21,0,0,1-8.82-2.39c-3.41-2.11-7.15-3.08-10.86-4.29a6.59,6.59,0,0,1-1-.34c-1.6-.83-4.1-1.42-3.31-3.7,1-2.77,3.15-1.38,5.06-.67,6.56,2.43,13.18,4.71,19.73,7.17,1.17.44,3.45,0,3.19,2S203.55,282.66,201.77,282.64Z"/><path class="cls-13" d="M189.3,254.63c.67.19,1.25.32,1.8.52,7.15,2.57,14.3,5.14,21.43,7.75.83.31,2,.64,1.71,1.86s-1.16,1.6-2.51,1.18c-7.67-2.4-15.82-3.17-23.11-6.83-.83-.42-2.36-.48-1.62-2.12C187.49,255.92,188,254.82,189.3,254.63Z"/><path class="cls-15" d="M254.44,343.16l-7.53,22.1-.94-.16c.13-3.58.25-7.16.4-10.74,0-1,.2-1.9.23-2.85C246.81,344.69,246.8,344.69,254.44,343.16Z"/><path class="cls-15" d="M141.28,341.42l5.95,2a3.77,3.77,0,0,1,2.71,3.78c.19,4.88.42,9.76.12,14.84Z"/><path class="cls-9" d="M186.81,249.62q-.05-.69-.1-1.37c6.89-.1,13.42,2.27,20.62,2.57-1.94,3.65-4.57,3.91-7.47,2.81-3.1-1.18-6.12-2.56-9.1-4A3.68,3.68,0,0,0,186.81,249.62Z"/><path class="cls-3" d="M223.63,131.44c-3.43.18-5.24-1.27-5.28-4.21,0-2.47,3-5.38,5.67-5.44,2.4-.06,4.32,2.25,4.5,5.42C228.67,129.94,227.16,131.25,223.63,131.44Z"/><path class="cls-3" d="M196.36,132.48c2,.34,4.13.64,4.21,3.39s-2.89,5.83-5.69,5.83c-2.54,0-3.6-1.46-3.59-3.87A5.15,5.15,0,0,1,196.36,132.48Z"/><path class="cls-3" d="M141.8,121c-7.68.28-11.95-5.05-9.79-12.3a34.88,34.88,0,0,1,2.12-6c.52-1,1.61-2.93,2.86-2.12,3.31,2.13,7.56,2.1,10.55,4.84s4,6.16,2.68,9.59A9.18,9.18,0,0,1,141.8,121Zm3.87-8c-.83-2.81-3.1-5-5.78-6.81-2-1.38-3.62-.7-4.62,1.45-1.33,2.87-.59,5.34,1.63,7.39s4.9,2,7.65.85C145.74,115.42,145.6,114.49,145.67,113.05Z"/><path class="cls-8" d="M145.67,113.05c-.07,1.43.07,2.36-1.11,2.88-2.75,1.19-5.35,1.28-7.65-.85s-3-4.52-1.63-7.39c1-2.15,2.58-2.83,4.62-1.45C142.56,108,144.84,110.25,145.67,113.05Z"/></svg>