<svg id="圖層_1" data-name="圖層 1" xmlns="http://www.w3.org/2000/svg" viewBox="0 0 132.42 135.61"><defs><style>.cls-1{fill:#0d0c0c;}.cls-1,.cls-2,.cls-3,.cls-4{fill-rule:evenodd;}.cls-2{fill:#fdfeff;}.cls-3{fill:#b75742;}.cls-4{fill:#c8af48;}</style></defs><title>graphic</title><path class="cls-1" d="M108.14,13.74c1.63-.37,2.64-.62,3.64-.82,2.45-.48,4.21,1.38,3.81,4.1-.21,1.43-1.19,3.12-.77,4.17.6,1.47,2.37-.08,3.62.41s2.7.7,3.06,2.65c.4,2.12.54,4-1.33,5.43-4.33,3.2-8.7,6.34-13.25,9.16-2.12,1.31-4.24,2.6-6.4,3.81A1.42,1.42,0,0,0,100,45a25.18,25.18,0,0,1,4.63,14.63,4.14,4.14,0,0,0,1.51,2.84c1.92,2,1.79,3.68-.42,5.28a3,3,0,0,0-1.35,2.74C104.18,75.88,102.54,81,101,86c-.62,2-.18,2.09,1.29,1.83,3.32-.59,6.79-.2,9.93-2a4.72,4.72,0,0,1,2.17-.39c1.46-.06,3.18-.4,3.83,1.54a4.62,4.62,0,0,1-1.87,5.28c-2.27,1.51-4.54,3.2-7.38,3.55-4.39.55-8.73,1.61-13.18,1.43-1.19,0-1.87.9-2.53,1.75-5.66,7.16-12.1,13.24-20,17.29-2.59,1.33-5.42,1.52-8.15,2.17-3.16.76-3.39,1.13-2.52,4.58a24.93,24.93,0,0,0,2.75,7.12c.55.89,1.26,2.1.48,3.13s-2.13.87-3.29.4a4.94,4.94,0,0,1-2.67-2.75c-1.33-3-2.79-5.89-4-8.92a3.49,3.49,0,0,0-2.67-2.43c-2.74-.68-5.58-.5-8.31-1.31-4.23-1.24-7.7-4.07-11.34-6.47-4.08-2.68-8.66-4.75-11.68-9a55.45,55.45,0,0,1-9-20.89c-.71-3.4-1.67-6.89-.95-10.54.31-1.54-.94-1.77-1.94-2.09A11.86,11.86,0,0,1,1.9,60.76a3.07,3.07,0,0,1,1-3.64c1.26-1,2.42-.8,3.6.33,1.38,1.32,2.93,2.44,4.34,3.73.91.84,1.28.35,1.58-.57.7-2.13,1.54-4.23,2-6.41a23.12,23.12,0,0,1,5.29-9.92C24.4,38.79,30,34.61,35.66,30.54c2-1.45,3-3.05,2.58-5.79-.82-5.12.09-9.69,3.5-13.66,1.55-1.81,2.9-1.05,4.38-.54s1.77,2,1.6,3.58c-.24,2.17-.7,4.32-.84,6.49-.24,3.75.53,4.38,3.67,3.06,8.19-3.44,16.5-3.44,24.92-1.29a14,14,0,0,1,5.85,2.77c1.62,1.39,2.58.72,3.56-.89,2.54-4.14,5-8.33,7.78-12.29,2.56-3.7,6.48-5.77,9.61-8.78,1.93-1.87,4-2.12,6.29-2.13,1.93,0,2.44,1,2.38,2.83A18.3,18.3,0,0,1,108.14,13.74ZM71.18,49c-.81,1.39-.28,2.43.16,3.42.71,1.59,1.55,3.12,2.27,4.71a2.81,2.81,0,0,1-.42,3.14,2,2,0,0,1-2.17.8C67.37,60,63.38,51,65.32,47.42c1.28-2.33,3-4.84,5.93-4.89s5.27,1.73,6.59,4.78a17.13,17.13,0,0,0,2.47,4c5.13,6.33,11.42,9.74,19.25,9.62,2.77,0,2.89.08,2.35-2.78-2.07-11-8-19.22-15.71-26.1C80,26.55,72.59,25.39,65,24.73a26.32,26.32,0,0,0-15.68,3.13c-3.17,1.79-4.06,1.35-5.07-2.49a9.94,9.94,0,0,1-.24-2.63,23.52,23.52,0,0,1,1.08-8.11c.55-1.48-.4-1.47-1.23-1.3s-1.19.81-1.58,1.56a13,13,0,0,0-1.39,9.53c.5,2,.53,4.54-.67,5.78-1.85,1.91-3.35,4.38-5.71,5.64-3.43,1.82-6.16,4.71-9.23,7.06C19.24,47.56,16.86,54.68,14.7,62c-.24.8.2,1.22.69,1.61.85.68.91-.2,1.2-.73.54-1,1.09-.86,1.69,0a8.6,8.6,0,0,1,.27,8.69c-1.13,1.76-2,1.79-3.26.18-.26-.33-.6-.75-1.31-.34.37,3.28.49,6.7,1.17,10a46.51,46.51,0,0,0,10.67,21.9c2.83,3.15,6.61,4.77,10,7.06,5.27,3.59,11.1,5,17,6.3.56.12,1.52.55,1.47-.66,0-.84-.06-2-1-2.34-.62-.21-1.56.44-1.58-.94a2.14,2.14,0,0,1,1.56-2.08,12,12,0,0,1,6.51-.9,4.88,4.88,0,0,1,3,2.23c.29.39.58.78.2,1.27a1,1,0,0,1-1.16.44c-.35-.11-.61-.89-1.08-.21.19,2.76.25,2.84,2.75,2.34,3-.6,5.61-2.53,8.54-3.16,4.17-.91,7.43-3.37,10.55-6.26a115.31,115.31,0,0,0,9.21-10.16,5,5,0,0,1,4.5-1.8,37,37,0,0,0,17.81-3.87c.74-.37,1.76-.86,1.33-1.87s-1.39-.49-2.19-.23q-4.12,1.36-8.26,2.64a9.51,9.51,0,0,1-7.14-.3c-1.48-.7-1.71-1.73-.78-3,3.49-4.83,4-10.62,4.6-16.42.16-1.58-.33-1.66-1.63-1.3-3.45,1-7.42,1.1-10.14-.91C82.66,63.75,74.87,58.75,71.18,49ZM97.71,10.68A75,75,0,0,0,86.59,27.41a1.62,1.62,0,0,0,.57,2.27,1.74,1.74,0,0,0,2.59-.2c5.19-5.6,11-10.45,15.71-16.62a18.66,18.66,0,0,0,2.09-3.4C108.24,8,109,6.08,108,4.94s-2.8-.15-4,.71A39.33,39.33,0,0,0,97.71,10.68ZM72.22,58.61C71,56.1,69.92,54.1,69,52a4.79,4.79,0,0,1,.64-5.39C71,45,72.36,45.34,73,47.49a15.94,15.94,0,0,0,3.1,5.8A61.36,61.36,0,0,0,89,65.32,13.87,13.87,0,0,0,103.1,66.6c.52-.23,1.26-.51,1.16-1.26s-.87-.88-1.42-1c-2.1-.41-4.23-.69-6.34-1.06-7.63-1.34-14.2-4.58-18.6-12a49.4,49.4,0,0,0-4.32-5.83c-1.23-1.53-2.66-1.56-4.07-.22C65.66,48.89,66.9,56.24,72.22,58.61Zm45-30.43c.26-.95,1.95-1.09,1.34-2.42s-1.9-.89-3-.62a11,11,0,0,0-1.25.46,71.92,71.92,0,0,0-17,9.58c-2.63,1.95-2.62,2.38-.5,4.81.81.93,1.44.89,2.25.22a43.66,43.66,0,0,1,6-3.56C109.37,34.18,113.19,31,117.27,28.18ZM97,26.73c-1.84,1.87-3.27,3.28-4.64,4.74-.44.47-1.4.68-1.13,1.57a3,3,0,0,0,1.85,1.64c.68.32,1.29-.25,1.82-.62,2.41-1.7,4.72-3.6,7.2-5.18a34.6,34.6,0,0,0,9.63-9.15c.79-1.1,1.55-2.51,1-3.49-.67-1.27-2-.11-3,.24C104.4,18.53,100.79,23.29,97,26.73ZM4.12,59.93c1.51,4.63,8.87,9.86,12.59,9.35a2.5,2.5,0,0,0,.43-.07,1.07,1.07,0,0,0,.81-1,.82.82,0,0,0-.59-.88C12.76,65.64,8.75,62.61,4.12,59.93Zm58.3,70a74.52,74.52,0,0,1-3.93-17.15c-.15-1.49-1-1-1.72-.93-1,.09-1.24.64-1,1.63,1.14,3.92,2.15,7.89,3.45,11.75C59.87,127,60.54,129,62.42,130Z"/><path class="cls-2" d="M71.18,49c3.69,9.74,11.48,14.73,18.72,20.08,2.72,2,6.69,1.86,10.14.91,1.3-.36,1.79-.27,1.63,1.3-.57,5.8-1.11,11.6-4.6,16.42-.93,1.29-.7,2.33.78,3a9.51,9.51,0,0,0,7.14.3q4.14-1.27,8.26-2.64c.8-.26,1.82-.65,2.19.23s-.59,1.5-1.33,1.87A37,37,0,0,1,96.3,94.38a5,5,0,0,0-4.5,1.8,115.31,115.31,0,0,1-9.21,10.16c-3.13,2.89-6.38,5.35-10.55,6.26-2.93.63-5.55,2.56-8.54,3.16-2.49.5-2.56.42-2.75-2.34.47-.68.73.1,1.08.21a1,1,0,0,0,1.16-.44c.38-.49.1-.88-.2-1.27a4.88,4.88,0,0,0-3-2.23,12,12,0,0,0-6.51.9,2.14,2.14,0,0,0-1.56,2.08c0,1.38,1,.73,1.58.94.95.33,1,1.5,1,2.34,0,1.21-.91.78-1.47.66-5.91-1.31-11.74-2.71-17-6.3-3.37-2.29-7.15-3.91-10-7.06a46.51,46.51,0,0,1-10.67-21.9c-.69-3.28-.81-6.7-1.17-10,.71-.41,1,0,1.31.34,1.29,1.61,2.13,1.58,3.26-.18a8.6,8.6,0,0,0-.27-8.69c-.6-.85-1.15-1-1.69,0-.28.53-.34,1.41-1.2.73-.48-.39-.92-.81-.69-1.61,2.17-7.27,4.54-14.39,10.62-19.06,3.07-2.36,5.8-5.24,9.23-7.06,2.36-1.26,3.86-3.73,5.71-5.64,1.2-1.24,1.18-3.74.67-5.78a13,13,0,0,1,1.39-9.53c.39-.75.84-1.4,1.58-1.56s1.78-.18,1.23,1.3a23.52,23.52,0,0,0-1.08,8.11,9.94,9.94,0,0,0,.24,2.63c1,3.84,1.9,4.28,5.07,2.49A26.32,26.32,0,0,1,65,24.73c7.54.67,15,1.83,21.15,7.32,7.75,6.88,13.64,15.13,15.71,26.1.54,2.86.42,2.74-2.35,2.78-7.82.12-14.12-3.29-19.25-9.62a17.13,17.13,0,0,1-2.47-4c-1.32-3-3.48-4.83-6.59-4.78s-4.65,2.56-5.93,4.89C63.38,51,67.37,60,71,61.09a2,2,0,0,0,2.17-.8,2.81,2.81,0,0,0,.42-3.14c-.72-1.59-1.55-3.12-2.27-4.71C70.9,51.44,70.37,50.4,71.18,49Zm21.13-.93c-.44-.45-1.24-1.29-2.32-.26-1.41,1.33-.53,2.69.17,3.87s1.45.46,2.15-.21C93.27,50.56,93.73,49.62,92.31,48.09ZM80.92,36.24a3.35,3.35,0,0,0-.22-3.88c-.82-1-1.93-.37-2.69.42a1.89,1.89,0,0,0,0,2.76A2.31,2.31,0,0,0,80.92,36.24Z"/><path class="cls-3" d="M97.71,10.68a39.33,39.33,0,0,1,6.22-5c1.23-.86,2.94-1.88,4-.71s.28,3-.41,4.53a18.66,18.66,0,0,1-2.09,3.4c-4.69,6.17-10.53,11-15.71,16.62a1.74,1.74,0,0,1-2.59.2,1.62,1.62,0,0,1-.57-2.27A75,75,0,0,1,97.71,10.68Z"/><path class="cls-4" d="M72.22,58.61c-5.33-2.37-6.56-9.72-2.7-13.38,1.41-1.34,2.85-1.31,4.07.22a49.4,49.4,0,0,1,4.32,5.83c4.39,7.44,11,10.68,18.6,12,2.11.37,4.24.66,6.34,1.06.55.11,1.32.28,1.42,1s-.64,1-1.16,1.26A13.87,13.87,0,0,1,89,65.32a61.36,61.36,0,0,1-12.89-12,15.94,15.94,0,0,1-3.1-5.8c-.63-2.15-2-2.49-3.38-.83A4.79,4.79,0,0,0,69,52C69.92,54.1,71,56.1,72.22,58.61Z"/><path class="cls-3" d="M117.27,28.18c-4.07,2.86-7.9,6-12.12,8.48a43.66,43.66,0,0,0-6,3.56c-.81.66-1.44.71-2.25-.22-2.12-2.43-2.13-2.86.5-4.81a71.92,71.92,0,0,1,17-9.58,11,11,0,0,1,1.25-.46c1.08-.27,2.37-.73,3,.62S117.53,27.23,117.27,28.18Z"/><path class="cls-3" d="M97,26.73c3.77-3.44,7.37-8.2,12.79-10.25.95-.36,2.3-1.52,3-.24.52,1-.24,2.39-1,3.49a34.6,34.6,0,0,1-9.63,9.15c-2.47,1.58-4.78,3.48-7.2,5.18-.53.37-1.13.94-1.82.62A3,3,0,0,1,91.25,33c-.26-.89.7-1.1,1.13-1.57C93.75,30,95.18,28.6,97,26.73Z"/><path class="cls-4" d="M4.12,59.93c4.63,2.68,8.63,5.71,13.25,7.39a.82.82,0,0,1,.59.88,1.07,1.07,0,0,1-.81,1,2.5,2.5,0,0,1-.43.07C13,69.78,5.64,64.55,4.12,59.93Z"/><path class="cls-4" d="M62.42,130c-1.88-1-2.55-2.92-3.16-4.71-1.3-3.85-2.31-7.83-3.45-11.75-.29-1-.06-1.53,1-1.63.77-.07,1.57-.56,1.72.93A74.52,74.52,0,0,0,62.42,130Z"/><path class="cls-1" d="M92.31,48.09c1.43,1.53,1,2.48,0,3.4-.7.67-1.44,1.42-2.15.21s-1.58-2.54-.17-3.87C91.06,46.8,91.87,47.64,92.31,48.09Z"/><path class="cls-1" d="M80.92,36.24a2.31,2.31,0,0,1-2.91-.7,1.89,1.89,0,0,1,0-2.76c.77-.79,1.87-1.44,2.69-.42A3.35,3.35,0,0,1,80.92,36.24Z"/></svg>