<svg id="圖層_1" data-name="圖層 1" xmlns="http://www.w3.org/2000/svg" viewBox="0 0 442.42 468.53"><defs><style>.cls-1{fill:#0d0c0c;}.cls-1,.cls-2,.cls-3,.cls-4{fill-rule:evenodd;}.cls-2{fill:#feffff;}.cls-3{fill:#b75742;}.cls-4{fill:#c9b048;}</style></defs><title>graphic</title><path class="cls-1" d="M123.9,34.9c1.31-5.94,2.05-9.61,3-13.23,2.2-8.81,10.48-12.13,18.12-7.08,4,2.66,7.67,8.22,11.5,8.23,5.33,0,3.3-8,6.65-11.48,3.52-3.66,6.16-8,12.6-6.58,7,1.55,13.07,3.72,14.47,11.82,3.22,18.76,6.24,37.55,8,56.52.81,8.82,1.55,17.65,2,26.49.24,4.49,2.63,5.78,6.35,4.87,17.62-4.32,34.66-2.65,51.25,4.52,3.76,1.63,7.26.31,10.87-1.15,9-3.63,13.82-1,15.36,8.59.67,4.14,2.37,6.25,6.31,8.21,16,8,29,20.4,41.87,32.53,5,4.71,6.07,3.46,7.48-1.79,3.18-11.84,9.55-22.86,8.74-35.75-.17-2.53,1-5.28,2.05-7.76,2-4.93,3.55-11.13,10.4-10.64,7.83.55,12.41,7.07,13.22,13.42,1.2,9.6,2.92,19.45-.26,29.39-4.89,15.34-8.16,31.2-15.34,45.79-1.91,3.88-.06,7.43,1.51,10.8,13.26,28.57,22.06,58.25,22.55,90,.16,10.41-3.49,20.08-5.58,30-2.4,11.53-1.65,12.81,10.14,14.61,8.53,1.32,17,2.06,25.67.56,3.53-.61,8.24-1.32,10.2,2.67,2.16,4.39-.53,8.26-3.69,11.49A17.22,17.22,0,0,1,407,355.12c-11,.38-22,1.28-33,1.16-5.18-.06-8.31,1.53-11.34,5.56-6.16,8.2-9.85,17.86-16.38,25.87-10.09,12.37-23.84,20-36.54,28.9-14.2,9.91-27.35,22.33-44.76,26.56a176.22,176.22,0,0,1-76.7,1.33c-11.35-2.27-23.39-3.82-33.37-11.21-4.22-3.13-6.76.71-9.22,3.63-9.95,11.7-22.49,16.95-37.88,15.29-5.12-.56-8.64-2.94-9.62-8.15-1-5.5,1.19-9.12,6.4-11.53,6.08-2.8,11.76-6.44,17.78-9.36,3.91-1.9,3-3.79.64-6-5.41-5.22-10.51-10.87-16.38-15.54-10.45-8.31-17.09-19-22.17-31.11-9.63-23-14-47.33-17.84-71.72-1.39-8.64-4.74-14.2-13.71-16.48-16.74-4.24-29.24-13.5-36.2-30.23-3.17-7.63,1.15-11.07,4.92-15.3,4-4.48,8.85-3.09,13.23-.45,6.22,3.74,12,8.21,18.4,11.63,11,5.92,14.07,4.2,14.76-8.05,1.81-31.9,14.21-59.56,33.3-84.64,4.78-6.29,10.13-12,17.13-15.68,6.63-3.5,6-7.59,2.64-13.05-8.75-14.09-17.72-28.07-25.64-42.62C88,70.33,87.61,54.5,83.13,40c-2.77-9-.53-16,2.93-23.81,2.86-6.43,6.54-6.8,12.13-4.06C108.25,17.06,117.07,23.39,123.9,34.9Zm51.73,170.93c3,4.58,6.94,4.25,10.61,4.13,5.9-.2,11.77-.89,17.66-1.13a8.7,8.7,0,0,1,8.9,5.67c1.22,2.87,1.33,5.66-.82,8.32-8.65,10.69-42.07,11.62-49.93.32-5.16-7.44-10.24-16.46-6-26.39,4.48-10.43,13.12-15.17,24.32-15.41a56.33,56.33,0,0,0,15.81-2.76c26.83-8.43,46.6-24.72,57.91-50.9,4-9.27,4.55-9.5-4.92-11.59-36.37-8.05-70.14.28-102.58,16.7-25.87,13.07-40.49,36.19-53.77,60.35-9.6,17.48-15,36.15-13.93,56.41.7,13-2,15.33-15.13,13.48a30.21,30.21,0,0,1-8.34-2.79c-8.3-3.84-16.5-7.85-23-14.64-3.66-3.85-5.07-.66-5.78,2.33-.62,2.69.68,5.07,2.37,7.39,6.73,9.32,15.16,15.78,26.79,17.6C62.81,274,70.44,277.35,72.4,283c3,8.77,8.27,17.1,8.55,26.68.4,13.88,5.07,26.88,7.64,40.3,5.07,26.56,23.1,44.15,41.91,61.26,2.08,1.87,4,1,5.91-.1,3.32-1.92.74-3.32-.43-5-2.25-3.17-1-4.8,2.49-5.63,9.51-2.27,21.87,2.74,26.73,10.94,3.63,6.15,2.48,9-4.32,11.08-1.38.42-3.16,1-3,3.88,10.49,3.25,21,7.51,32,9.69,27.84,5.5,55.55,4.29,82.33-5.66,13.76-5.12,24.32-15.49,36.3-23.57,18.76-12.64,31.7-30.13,44.49-48,1.21-1.69,3.93-4.31.2-5.79-2.59-1-6.16-2.53-8.59.16-1.56,1.77-1,5.79-5.21,4-3.59-1.53-4.17-4.86-4-8a47.45,47.45,0,0,1,7-22.86c2.66-4.2,6.83-5.85,11.31-7.1,1.61-.45,3.22-.86,4.14,1.07a3.75,3.75,0,0,1-.4,4.45c-.84,1-3.6.82-2.24,3.31,8.66,3.13,9,3,11.21-5.94,2.65-10.77.72-22.11,3.18-32.72,3.49-15.12.88-29.28-3.21-43.61-4.4-15.31-10.86-29.81-17-44.44-2.57-6.11-1.77-11.15,1.26-17.41a145.84,145.84,0,0,0,14.86-64.5c0-3,0-7-3.67-7-3.22,0-3.56,4-4,7q-2,15.55-4.32,31.06c-1.35,9-4.64,17-11.57,23.35-4.34,4-7.81,3.34-10.34-1.52-9.41-18.19-26.17-27.88-42.91-37.66-4.55-2.67-5.53-1.15-6.38,3.66-2.27,12.78-7.75,26.17-17.91,32.48C237.43,187.7,210.65,206.82,175.63,205.83ZM99.06,65.43a248.91,248.91,0,0,0,34.11,59.75c2.29,3,4.93,3,7.74,1.21,3.2-2.07,4.78-4.78,3.25-8.88-9.22-24.87-15.22-50.9-26.92-74.89A61.35,61.35,0,0,0,110.07,31c-3.45-4.31-8.05-9.51-13.12-7.52s-4.63,9.12-3.86,14.37C94.46,47.16,95.85,56.48,99.06,65.43Zm107.21,150c-9.47.74-17.12,1.54-24.76,1.86-7.1.29-12.58-2.81-15.37-9.47-2.92-7,.1-10.92,7.56-10.1a51.67,51.67,0,0,0,22.2-2.42c19.67-6.52,38.58-14.65,55.73-26.47,15.82-10.92,24.3-25.95,25-45.21.07-2,.33-4.9-2.08-5.58-2.27-.64-4,1.69-5.1,3.37-4.37,6.44-8.41,13.12-12.68,19.63-15.45,23.54-35.1,41-64.21,45.47-8.18,1.25-16.18,3.93-24.12,6.41-6.46,2-8.71,6.72-6.74,13.25C167,224,191.14,229.91,206.27,215.42ZM181.3,24.2c-2.48-2.16-.4-8-5.33-7.76s-5.54,5.11-6.34,9.07a42.76,42.76,0,0,0-.46,4.78c-2,23.34-.33,46.48,3.68,69.5,2,11.39,3.31,12,13.84,8.21,4-1.44,4.83-3.57,4-7.18-1.83-8.18-1.26-16.52-1.83-24.79C187.71,58.64,183.89,41.64,181.3,24.2ZM146.68,89.55c2.93,8.68,5.05,15.32,7.43,21.87.78,2.09,0,5.57,3.08,5.91s5.58-1.94,7.72-3.92c2-1.83,1.16-4.62.83-6.88-1.56-10.35-3.86-20.6-5-31A122.07,122.07,0,0,0,147.45,31c-2.16-4.11-5.29-8.56-9.05-8.18-4.86.49-3.35,6.56-3.69,10.19C132.83,53.87,141.89,72.35,146.68,89.55ZM108.55,443.68c16.29,1.26,43.13-16.09,47.15-29.14a9.92,9.92,0,0,0,.43-1.55c.16-1.69-.16-3.21-1.85-4.05a2.74,2.74,0,0,0-3.56.75C138.75,422.74,123.58,431.94,108.55,443.68Zm299.37-98.53a229.31,229.31,0,0,1-57.87-10.29c-4.74-1.51-4.46,1.8-5.4,4.47-1.23,3.5.1,5,3.5,5.38,13.58,1.56,27.13,3.61,40.76,4.53C395.26,349.66,402.17,350.08,407.92,345.15Z"/><path class="cls-2" d="M175.63,205.83c35,1,61.8-18.13,88.82-34.92,10.17-6.31,15.64-19.7,17.91-32.48.85-4.8,1.84-6.32,6.38-3.66,16.74,9.79,33.5,19.48,42.91,37.66,2.53,4.86,6,5.5,10.34,1.52,6.94-6.34,10.22-14.36,11.57-23.35q2.32-15.5,4.32-31.06c.4-3,.75-6.93,4-7,3.7-.06,3.67,4,3.67,7A145.84,145.84,0,0,1,350.67,184c-3,6.26-3.84,11.3-1.26,17.41,6.17,14.62,12.63,29.13,17,44.44,4.1,14.33,6.7,28.5,3.21,43.61-2.46,10.61-.52,21.95-3.18,32.72-2.21,9-2.54,9.07-11.21,5.94-1.36-2.49,1.4-2.3,2.24-3.31a3.75,3.75,0,0,0,.4-4.45c-.93-1.93-2.53-1.52-4.14-1.07-4.48,1.25-8.65,2.9-11.31,7.1a47.45,47.45,0,0,0-7,22.86c-.19,3.17.39,6.5,4,8,4.22,1.8,3.65-2.22,5.21-4,2.43-2.7,6-1.18,8.59-.16,3.73,1.48,1,4.1-.2,5.79-12.79,17.85-25.74,35.34-44.49,48-12,8.08-22.55,18.46-36.3,23.57-26.79,9.95-54.49,11.16-82.33,5.66-11-2.18-21.52-6.44-32-9.69-.18-2.91,1.6-3.47,3-3.88,6.8-2.11,8-4.93,4.32-11.08-4.86-8.2-17.22-13.21-26.73-10.94-3.47.83-4.75,2.46-2.49,5.63,1.17,1.66,3.75,3.06.43,5-1.9,1.08-3.83,2-5.91.1C111.69,394.16,93.66,376.57,88.58,350c-2.56-13.42-7.23-26.41-7.64-40.3-.28-9.57-5.53-17.91-8.55-26.68-2-5.69-9.59-9-16.52-10.11-11.63-1.83-20.07-8.29-26.79-17.6-1.68-2.32-3-4.7-2.37-7.39.71-3,2.12-6.18,5.78-2.33,6.45,6.79,14.66,10.8,23,14.64A30.21,30.21,0,0,0,63.79,263c13.17,1.85,15.83-.5,15.13-13.48-1.1-20.26,4.33-38.94,13.93-56.41,13.28-24.16,27.9-47.28,53.77-60.35,32.44-16.42,66.22-24.75,102.58-16.7,9.47,2.09,8.93,2.32,4.92,11.59-11.31,26.18-31.07,42.47-57.91,50.9a56.33,56.33,0,0,1-15.81,2.76c-11.21.23-19.84,5-24.32,15.41-4.27,9.93.81,18.95,6,26.39,7.86,11.3,41.27,10.37,49.93-.32,2.15-2.66,2-5.45.82-8.32a8.7,8.7,0,0,0-8.9-5.67c-5.89.24-11.76.92-17.66,1.13C182.57,210.08,178.62,210.41,175.63,205.83Zm28.74-71.52c-2,.85-5.76,2.37-4.27,7.37,1.94,6.49,7.36,5.4,12,4.7s3.56-4.2,2.58-7.43C213.33,134.47,211.14,131.65,204.38,134.31Zm-52.92,21.74c-3.09-4.6-7.71-5.93-12.08-4.57s-4,5.89-2.76,9.52c1.33,3.87,4.59,5.15,8.36,3.77C149,163.3,151.44,160.4,151.45,156.05Z"/><path class="cls-3" d="M99.06,65.43c-3.21-8.94-4.61-18.26-6-27.54-.77-5.25-1.32-12.34,3.86-14.37s9.66,3.21,13.12,7.52a61.35,61.35,0,0,1,7.18,11.59c11.7,24,17.69,50,26.92,74.89,1.52,4.1-.05,6.81-3.25,8.88-2.81,1.81-5.45,1.81-7.74-1.21A248.91,248.91,0,0,1,99.06,65.43Z"/><path class="cls-4" d="M206.27,215.42c-15.13,14.49-39.27,8.58-44.59-9.24-2-6.53.28-11.25,6.74-13.25,7.94-2.48,15.94-5.16,24.12-6.41,29.11-4.48,48.76-21.94,64.21-45.47,4.27-6.51,8.31-13.19,12.68-19.63,1.14-1.68,2.83-4,5.1-3.37,2.42.67,2.15,3.54,2.08,5.58-.68,19.26-9.17,34.3-25,45.21-17.15,11.82-36.05,20-55.73,26.47a51.67,51.67,0,0,1-22.2,2.42c-7.46-.82-10.48,3.12-7.56,10.1,2.78,6.66,8.27,9.76,15.37,9.47C189.16,217,196.8,216.16,206.27,215.42Z"/><path class="cls-3" d="M181.3,24.2c2.59,17.44,6.41,34.44,7.6,51.83.57,8.27,0,16.61,1.83,24.79.8,3.61,0,5.75-4,7.18-10.54,3.75-11.86,3.18-13.84-8.21-4-23-5.66-46.16-3.68-69.5a42.76,42.76,0,0,1,.46-4.78c.8-4,1.33-8.87,6.34-9.07S178.82,22,181.3,24.2Z"/><path class="cls-3" d="M146.68,89.55c-4.79-17.2-13.84-35.68-12-56.5.33-3.63-1.17-9.7,3.69-10.19,3.76-.38,6.89,4.07,9.05,8.18a122.07,122.07,0,0,1,13.33,44.49c1.1,10.38,3.4,20.64,5,31,.33,2.26,1.15,5.05-.83,6.88-2.14,2-4.67,4.26-7.72,3.92s-2.3-3.82-3.08-5.91C151.73,104.88,149.6,98.23,146.68,89.55Z"/><path class="cls-4" d="M108.55,443.68c15-11.74,30.2-20.94,42.18-34a2.74,2.74,0,0,1,3.56-.75c1.69.84,2,2.36,1.85,4.05a9.92,9.92,0,0,1-.43,1.55C151.68,427.59,124.84,444.94,108.55,443.68Z"/><path class="cls-4" d="M407.92,345.15c-5.75,4.93-12.66,4.51-19,4.1-13.62-.92-27.17-3-40.76-4.53-3.41-.38-4.74-1.88-3.5-5.38.93-2.67.66-6,5.4-4.47A229.31,229.31,0,0,0,407.92,345.15Z"/><path class="cls-1" d="M204.38,134.31c6.77-2.66,9,.15,10.31,4.64,1,3.22,2.18,6.71-2.58,7.43s-10.07,1.79-12-4.7C198.61,136.68,202.35,135.16,204.38,134.31Z"/><path class="cls-1" d="M151.45,156.05c0,4.35-2.5,7.25-6.48,8.72-3.77,1.39-7,.1-8.36-3.77-1.25-3.63-1.58-8.18,2.76-9.52S148.36,151.46,151.45,156.05Z"/></svg>