<svg id="圖層_1" data-name="圖層 1" xmlns="http://www.w3.org/2000/svg" viewBox="0 0 229 180.24"><defs><style>.cls-1,.cls-9{fill:#080505;}.cls-1{stroke:#0a0808;stroke-miterlimit:10;stroke-width:2px;}.cls-1,.cls-10,.cls-11,.cls-12,.cls-13,.cls-14,.cls-15,.cls-16,.cls-2,.cls-3,.cls-4,.cls-5,.cls-6,.cls-7,.cls-8,.cls-9{fill-rule:evenodd;}.cls-2{fill:#fefefe;}.cls-3{fill:#97907c;}.cls-4{fill:#918c7a;}.cls-5{fill:#0b0a0a;}.cls-6{fill:#0f1010;}.cls-7{fill:#121312;}.cls-8{fill:#0b0a09;}.cls-10{fill:#308cad;}.cls-11{fill:#fdfefe;}.cls-12{fill:#b55549;}.cls-13{fill:#ad5a4e;}.cls-14{fill:#dcb73b;}.cls-15{fill:#977b5d;}.cls-16{fill:#1b1d1c;}</style></defs><title>graphic</title><path class="cls-1" d="M70,11c10.2-.78,19.09,3.46,27.68,8.33a71.2,71.2,0,0,1,15.9,12.19c1.18,1.21,2.33,2.45,3.41,3.75a2.46,2.46,0,0,0,3.17.78c4.63-1.71,9.25-3.49,14-4.89a83.21,83.21,0,0,1,13.25-2.68c2-.26,4.07,0,6.11-.1,3.37-.1,6.75.16,10.13-.32a18.41,18.41,0,0,1,5,.25c6.67.91,13.32,2,19.92,3.29,2.81.57,5,2.29,7.36,3.77a110.28,110.28,0,0,1,9.12,6.22,16.59,16.59,0,0,0,5,2.84c2.5.86,3.88,3.38,5.41,5.44,2.11,2.86,3.94,5.92,6.11,8.75a2.09,2.09,0,0,1,.11,2.52c-2.46,4.31-4,9-5.73,13.64-3.55,9.55-5.52,19.61-9.72,28.94a21.65,21.65,0,0,0-1.16,3.42c-1.76,6.77-4.54,13.19-7,19.72-1.52,4.08-1.95,8.3-2.56,12.51a31.46,31.46,0,0,1-1.69,7.37,18.38,18.38,0,0,0-1.39,5.58c-.27,3.84-1.89,7.32-2.91,11-.84,3-1.88,5.94-1.64,9.12a4.32,4.32,0,0,1-.91,2.88c-.67.93-1.34,1.86-2.07,2.74-2.13,2.55-4.54,3-7.43,1.24a71.39,71.39,0,0,0-7.05-3.69,15.78,15.78,0,0,1-5.82-4.2,4.67,4.67,0,0,0-2.2-1.53c-5.34-1.68-10.63-3.22-16.36-3.43-5.9-.22-11.8-.87-17.7-.54a42.39,42.39,0,0,0-16.22,3.94c-2.31,1.11-4.3,2.65-5.1,5.32-.5,1.68-1.62,2.24-3.37,1.62-5.17-1.81-10.61-2.62-15.86-4.14a5.83,5.83,0,0,0-2.67,0c-2.37.39-3-.15-4-2.31-1.28-2.93-2.74-5.77-4.13-8.65a7.38,7.38,0,0,0-3-2.8c-4.88-3.07-9.55-6.51-15-8.63a28.38,28.38,0,0,0-13.83-1.58c-3.63.41-7.35.1-11,.84-2.77.56-5.58.94-8.3,1.66-5.5,1.45-9.68-2.49-11.35-6.8-1-2.52-2.53-4.74-3.52-7.3-2.11-5.46-1.53-11-1.3-16.62.09-2.1.42-4.23.41-6.3,0-7.49,1.67-14.69,3.18-21.94a125.35,125.35,0,0,1,7.26-22.85C24,61.12,26.28,52.54,28.67,44a222.66,222.66,0,0,1,8.58-24.37,3.84,3.84,0,0,1,1.9-2.11c5.18-2.46,10.39-5,16.12-5.74A80.92,80.92,0,0,1,70,11Zm27.84,139.8a64.13,64.13,0,0,1,1.33-9.59,7.78,7.78,0,0,0,0-2.69c-.72-6.8-1.07-13.67.53-20.34,3.2-13.28,6.37-26.56,9.31-39.9,1.29-5.88,2.31-11.83,3.86-17.64,1.73-6.51,3-13,2.21-19.78A6.09,6.09,0,0,0,113.41,37,84.79,84.79,0,0,0,90.29,19.81C83,16.2,75.56,14.05,67.18,14.88A85.93,85.93,0,0,0,43,20.36,6,6,0,0,0,39.2,23.9c-1.62,4.65-3.64,9.16-5.1,13.88-2.68,8.67-4.78,17.52-7.94,26-1.59,4.28-3.5,8.45-5,12.73-1.65,4.6-2.64,9.48-4,14.21a128.17,128.17,0,0,0-4.44,26.68c-.31,4.74-.6,9.51.42,14.21.39,1.79,1,2.14,2.68,1.42a51.42,51.42,0,0,1,8.11-2.42c4.67-1.13,9.28-2.9,14.13-2.66,7.41.36,14.84,0,22.24.74,7.59.73,14.82,2.39,21,7.23C87.09,140.46,93.65,144,97.85,150.75Zm3.35,2.53c1.72-1.8,3.37-3.1,5.4-3.45,2.63-.46,5.1-1.39,7.64-2.1a51.84,51.84,0,0,1,9.08-1.39c3.12-.29,6.23.48,9.32-.24a14.36,14.36,0,0,1,3.23-.19c8,0,15.66,1.8,23.39,3.36a100.5,100.5,0,0,1,13.6,4.21c1.58.56,2.16,0,2.27-1.47a16.89,16.89,0,0,1,1-4.2c2.09-6.14,4.67-12.15,6.18-18.43,2.48-10.35,4.87-20.72,7.39-31.06,1.44-5.89,3.92-11.45,5.36-17.37.82-3.37,2.55-6.59,3.55-10,2-6.77,5.33-13,7.44-19.73a3.48,3.48,0,0,0-.94-4.14,49,49,0,0,0-9.66-7.28c-3.41-2-6.76-4.08-10.78-4.86-4.75-.92-9.59-1-14.33-1.91a34.47,34.47,0,0,0-10.61-.41,96.55,96.55,0,0,1-10.27.85c-9.73.11-18.69,3-27.36,7.1a5.32,5.32,0,0,0-3.24,5.66,19.19,19.19,0,0,1-.69,6.45c-2.15,7.45-4.44,14.84-5.57,22.56-1.61,11-4.64,21.65-7.24,32.41-1.23,5.1-2.69,10.18-2.93,15.4-.26,5.7-1,11.44-.13,17.17a9.21,9.21,0,0,1-.13,3.06A67.81,67.81,0,0,0,101.2,153.28Zm-6.88,13.53a5.21,5.21,0,0,1,0,.78c-.11,1-.56,2,.86,2.56s2.29,0,3.1-1,1.37-1.84,2.12-2.7c4-4.62,9.71-6.35,15-8.58,8.4-3.52,17.54-3.21,26.39-4.35,3.89-.5,7.65.69,11.47,1.63,6,1.47,10.69,5.13,15.94,7.86a1.35,1.35,0,0,1,.8,1.49c-.2.7-.91.71-1.52.62a6.7,6.7,0,0,1-2.27-.48c-3.59-2-7.63-2.87-11.42-4.4-4.15-1.67-8.5-3.25-12.94-2.59-5.15.76-10.38.55-15.48,1.64-3.74.8-7.66.68-11.2,2.49-4.59,2.35-9.68,3.84-13.26,7.86-.38.42-1.64.78-.75,1.59s1.86,1.26,2.93.32a5,5,0,0,0,.81-1,11.69,11.69,0,0,1,6.46-4.66c1.66-.53,3.3-1.11,4.94-1.7A40.41,40.41,0,0,1,135,162c3.16.37,6.34,1.23,9.52.72a21.2,21.2,0,0,1,11.43,1.64c4.74,1.88,9.69,3.17,14.1,5.9,2.76,1.71,5.64,3.23,8.24,5.21.58.44,1.17,1,1.94.67s.42-1.17.43-1.78a15.85,15.85,0,0,0-1.41-7.2c-4.36-9.19-2.09-7.63-11.13-10.95a106.15,106.15,0,0,0-28.51-5.71,19.29,19.29,0,0,0-4.66-.27,29.68,29.68,0,0,1-8.47,0,11,11,0,0,0-4.14.1c-5.4,1.37-10.8,2.73-16.09,4.46a4.78,4.78,0,0,0-2.64,2.07,5,5,0,0,1-2.57,2.19c-1.91.64-2.69.24-3-1.72a4.2,4.2,0,0,0-1-2.08,93.23,93.23,0,0,0-14.42-13.93c-5.07-4.1-11.18-6.12-17.3-7.82-4.82-1.34-9.83-2.33-14.93-1.46a11.87,11.87,0,0,1-3.75.1,29.65,29.65,0,0,0-6.29-.48c-3.81.29-7.66.4-11.41,1.4-4.11,1.08-8.41,1.56-12,4.21-.72.53-1.42,1-1.26,2,.41,2.56,1.61,3.37,4.17,2.65a161.9,161.9,0,0,0,17-5.3,8.19,8.19,0,0,1,4-.73c3.41.42,6.78-.21,10.2-.07A105.27,105.27,0,0,1,72.65,139a25.44,25.44,0,0,1,15.68,11.59c.87,1.38,1.75,2.75,2.65,4.1A19.71,19.71,0,0,1,94.32,166.81Zm89,2.79a12.28,12.28,0,0,0,1-1.66c1.6-4.08,3.6-8,4.66-12.28,1.93-7.79,4.09-15.51,5.17-23.51.64-4.74,2.53-9.26,4.22-13.72,3-8,5.18-16.34,8.52-24.24,1.09-2.56,1.24-5.37,2.14-8q4.16-12,8.31-24c.41-1.19.87-2.32.32-3.65a18.62,18.62,0,0,0-6.25-8.42c-.85-.61-1.18-.42-1.83.41-1.75,2.24-1.71,5.08-2.8,7.53a145.5,145.5,0,0,0-6.14,15.74c-3.78,12.14-7.35,24.33-10.86,36.54-4.08,14.16-7.23,28.59-11.67,42.66a3.5,3.5,0,0,0-.29,1.58C178.54,159.88,181.14,164.44,183.28,169.6Zm-91.1-4.37A14.42,14.42,0,0,0,88.6,156c-3-3.37-5.71-7-9.46-9.62a24.11,24.11,0,0,0-10.83-4.56c-4.4-.6-8.86-.91-13.21-1.69-7-1.28-13.89-.71-20.77.57-2.76.51-5.4,1.7-8.16,2.13a14.5,14.5,0,0,0-5.77,2.34c-1,.61-.73,1.06,0,1.58a5.77,5.77,0,0,0,5.29,1.06,50.29,50.29,0,0,1,17.11-2.43c5.53.11,11-.28,16.35,1.84,1.55.62,3.28,1.31,4.85-.24.23-.23.83-.17,1.23-.1,4.51.78,9,1.68,12.75,4.55,4.93,3.82,7.77,9.24,10.6,14.62.59,1.11.91,3.1,2.28,2.8S92.25,166.67,92.18,165.23Zm-26.8-15.94a96.87,96.87,0,0,0,8.53,6.21c2,1.41,4.1,2.72,5.44,4.91a49,49,0,0,1,3.74,7,1.73,1.73,0,0,0,2.33,1.14c1-.54-.07-1.34-.36-1.9A40.86,40.86,0,0,0,72.29,152,18,18,0,0,0,65.38,149.29Z"/><path class="cls-2" d="M97.85,150.75C93.65,144,87.09,140.46,81.34,136c-6.21-4.85-13.44-6.51-21-7.23-7.4-.72-14.83-.37-22.24-.74-4.85-.24-9.46,1.53-14.13,2.66a51.42,51.42,0,0,0-8.11,2.42c-1.67.71-2.29.37-2.68-1.42-1-4.7-.73-9.47-.42-14.21a128.17,128.17,0,0,1,4.44-26.68c1.33-4.73,2.33-9.61,4-14.21,1.53-4.27,3.44-8.45,5-12.73,3.16-8.53,5.25-17.38,7.94-26,1.46-4.72,3.48-9.23,5.1-13.88A6,6,0,0,1,43,20.36a85.93,85.93,0,0,1,24.14-5.48c8.38-.83,15.81,1.33,23.1,4.94A84.79,84.79,0,0,1,113.41,37a6.09,6.09,0,0,1,1.66,3.83c.79,6.79-.48,13.27-2.21,19.78-1.55,5.81-2.57,11.76-3.86,17.64-2.94,13.34-6.11,26.62-9.31,39.9-1.6,6.67-1.25,13.54-.53,20.34a7.78,7.78,0,0,1,0,2.69A64.13,64.13,0,0,0,97.85,150.75Zm2.4-101.58c-.28-3-1-6-4.43-7.11-1.95-.66-3.94-1.11-5.92-1.63C81.13,38.14,73,33.89,64,32.28a41.57,41.57,0,0,0-9.71-.56,3.76,3.76,0,0,0-3.17,2.07,70,70,0,0,0-3.27,6.43c-3,6.61-4.48,13.71-6.87,20.51a97.72,97.72,0,0,0-3.48,14.18c-.44,2.26.38,3.3,2.63,3.54,1.32.15,2.64.25,4,.3,6.15.23,12.23.74,18.12,2.87a65.51,65.51,0,0,0,11.64,3.2c2.67.44,4.88,2,7.26,3.11s2.65,1.06,4.08-1.11c.76-1.15,1.48-2.34,2.18-3.54a131.14,131.14,0,0,0,10.8-24.75A76.51,76.51,0,0,0,100.25,49.17ZM34.09,105.5c0,.84,0,1.69,0,2.53,0,1.05.52,1.81,1.58,1.83s1.2-.85,1.31-1.66c.22-1.61.4-3.22.65-4.83.58-3.69,1.19-7.37,1.79-11,.19-1.16.06-2.46-1.12-2.71-.93-.19-1.27,1.09-1.54,1.94C35.34,96.1,34,100.67,34.09,105.5Zm44.28,11.37c0,.42,0,.84,0,1.26,0,.68.18,1.25.9,1.35a1.2,1.2,0,0,0,1.32-1,4.8,4.8,0,0,0,.29-1c.42-5.34,1.74-10.54,2.42-15.84a2.74,2.74,0,0,0-.87-2.41,1,1,0,0,0-1.12-.38,1.1,1.1,0,0,0-.79,1.08C80.4,105.64,78.21,111.11,78.37,116.87Zm-30.9-9.58c-.11.77.51,2,1.51,2.07s1.21-1.39,1.22-2.43a19.18,19.18,0,0,1,1.89-8.55,7.64,7.64,0,0,0,.79-4.92c-.13-.65-.34-1.41-1.19-1.34a1.6,1.6,0,0,0-1.6,1.21A93.86,93.86,0,0,0,47.47,107.29Zm15.21-12a1.25,1.25,0,0,0-1.08-1.16c-1-.17-1.45.58-1.62,1.36-1,4.58-2,9.17-3,13.75a1.61,1.61,0,0,0,1.3,2c.88.16,1.26-.82,1.28-1.61a19.35,19.35,0,0,1,1.34-5.4A61.71,61.71,0,0,0,62.68,95.29Zm5.85,15c.18.93-.65,2.37.9,2.55s1.54-1.3,1.76-2.4c.64-3.3,1.25-6.61,2-9.89a3.25,3.25,0,0,0-.63-2.87c-.67-.86-1.52-.8-1.7.25C70.15,102.07,68.75,106.08,68.52,110.28Z"/><path class="cls-2" d="M101.2,153.28a67.81,67.81,0,0,1,1-10,9.21,9.21,0,0,0,.13-3.06c-.83-5.73-.14-11.47.13-17.17.24-5.21,1.69-10.3,2.93-15.4C108,96.88,111,86.2,112.59,75.23c1.13-7.73,3.42-15.11,5.57-22.56a19.19,19.19,0,0,0,.69-6.45,5.32,5.32,0,0,1,3.24-5.66c8.67-4.13,17.63-7,27.36-7.1a96.55,96.55,0,0,0,10.27-.85,34.47,34.47,0,0,1,10.61.41c4.73.9,9.57,1,14.33,1.91,4,.78,7.37,2.88,10.78,4.86a49,49,0,0,1,9.66,7.28,3.48,3.48,0,0,1,.94,4.14c-2.11,6.72-5.46,13-7.44,19.73-1,3.4-2.74,6.63-3.55,10-1.44,5.92-3.92,11.48-5.36,17.37-2.52,10.34-4.91,20.72-7.39,31.06-1.51,6.28-4.09,12.3-6.18,18.43a16.89,16.89,0,0,0-1,4.2c-.11,1.44-.69,2-2.27,1.47a100.5,100.5,0,0,0-13.6-4.21c-7.73-1.56-15.44-3.35-23.39-3.36a14.36,14.36,0,0,0-3.23.19c-3.09.72-6.2,0-9.32.24a51.84,51.84,0,0,0-9.08,1.39c-2.54.71-5,1.64-7.64,2.1C104.57,150.18,102.92,151.47,101.2,153.28Zm51-13.64c2.7-.22,5.43.14,8.12-.32a2.48,2.48,0,0,0,2.37-2.32c.43-6,2.79-11.66,4-17.53a75.84,75.84,0,0,1,4-14.38c1.73-4,1.57-7.24-1-10.72a5.51,5.51,0,0,0-3.42-2.57c-4.95-1-9.88-2.17-14.83-3.2-2.7-.56-5.18-2-8-1.94-4.52.14-9,.25-13.57.41a3.21,3.21,0,0,0-2.91,1.55,22,22,0,0,0-2.68,7c-1.14,7.5-2.47,15-3.44,22.51-.55,4.2-2,8.2-2.43,12.4a4.55,4.55,0,0,0,4.34,5.47c2.27.27,4.56.5,6.8,1C137.09,138.61,144.55,140,152.23,139.64Zm30.26-82.92a1.45,1.45,0,0,0-1.11-1.67c-.76-.17-1.28.35-1.59,1.08a51.81,51.81,0,0,0-3,8.29C175.43,70.22,174,76,172.66,81.79c-.2.83-.33,1.77.86,2,1,.2,1.42-.6,1.6-1.36,1.4-5.9,3.57-11.6,4.55-17.61A17.89,17.89,0,0,1,182,58.23,2.4,2.4,0,0,0,182.49,56.73ZM161,76.73a1,1,0,0,0,.74.94,1.22,1.22,0,0,0,1.55-.57,4.73,4.73,0,0,0,.68-1.84c.58-3.63,1-7.28,1.81-10.86.65-3.05,1.68-6,2.48-9,.25-.94.38-2-.93-2.35s-1.64.64-2,1.59A66.66,66.66,0,0,0,162.85,66C162.33,69.48,161.69,72.92,161,76.73Zm-9.42-4.63c0,.82,0,1.18,0,1.54,0,.75,0,1.68.91,1.69s1.24-.82,1.31-1.68c0-.18,0-.36,0-.54a24.42,24.42,0,0,1,1.69-7.9c1.38-3.71,2.44-7.54,3.62-11.33a2.62,2.62,0,0,0,.09-1.25c-.16-.79-.52-1.48-1.47-1.59s-1.16.68-1.36,1.36a94.14,94.14,0,0,0-2.9,11.18C153,66.61,151.38,69.38,151.62,72.1ZM140,52.1c.13-1.32,0-2-1.07-2.12s-1.46.41-1.51,1.48a32.38,32.38,0,0,1-1.23,6.9q-1.86,6.86-3.67,13.74c-.17.63-.41,1.36.49,1.67a1.32,1.32,0,0,0,1.71-.86,11,11,0,0,0,.62-1.68c.84-2.88,1.69-5.76,2.48-8.65A59.11,59.11,0,0,0,140,52.1ZM142.21,71c-.06,1.15.1,1.77.94,1.91s1.15-.39,1.26-1.14q.26-1.69.59-3.37c1.21-6.06,3.35-11.89,4.7-17.92.22-1,.27-1.93-.81-2.22s-1.44.77-1.66,1.64c-1.1,4.3-2.22,8.59-3.26,12.9C143.28,65.68,142.73,68.57,142.21,71Z"/><path class="cls-3" d="M94.32,166.81A19.71,19.71,0,0,0,91,154.73c-.9-1.35-1.78-2.72-2.65-4.1A25.44,25.44,0,0,0,72.65,139a105.27,105.27,0,0,0-21.53-3.16c-3.42-.14-6.8.49-10.2.07a8.19,8.19,0,0,0-4,.73,161.9,161.9,0,0,1-17,5.3c-2.56.72-3.75-.09-4.17-2.65-.16-1,.54-1.45,1.26-2,3.56-2.65,7.86-3.13,12-4.21,3.75-1,7.59-1.11,11.41-1.4a29.65,29.65,0,0,1,6.29.48,11.87,11.87,0,0,0,3.75-.1c5.1-.86,10.11.12,14.93,1.46,6.12,1.7,12.23,3.72,17.3,7.82A93.23,93.23,0,0,1,97,155.32a4.2,4.2,0,0,1,1,2.08c.29,2,1.07,2.36,3,1.72a5,5,0,0,0,2.57-2.19,4.78,4.78,0,0,1,2.64-2.07c5.3-1.73,10.7-3.09,16.09-4.46a11,11,0,0,1,4.14-.1,29.68,29.68,0,0,0,8.47,0,19.29,19.29,0,0,1,4.66.27,106.15,106.15,0,0,1,28.51,5.71c9,3.32,6.77,1.75,11.13,10.95a15.85,15.85,0,0,1,1.41,7.2c0,.61.36,1.43-.43,1.78s-1.36-.23-1.94-.67c-2.6-2-5.48-3.49-8.24-5.21-4.41-2.74-9.37-4-14.1-5.9a21.2,21.2,0,0,0-11.43-1.64c-3.18.51-6.36-.35-9.52-.72a40.41,40.41,0,0,0-18.64,2.11c-1.64.59-3.28,1.17-4.94,1.7a11.69,11.69,0,0,0-6.46,4.66,5,5,0,0,1-.81,1c-1.07.94-2.18.36-2.93-.32s.38-1.16.75-1.59c3.58-4,8.67-5.51,13.26-7.86,3.54-1.81,7.46-1.69,11.2-2.49,5.1-1.09,10.33-.87,15.48-1.64,4.44-.66,8.79.91,12.94,2.59,3.78,1.52,7.83,2.35,11.42,4.4a6.7,6.7,0,0,0,2.27.48c.61.09,1.33.08,1.52-.62a1.35,1.35,0,0,0-.8-1.49c-5.25-2.73-10-6.39-15.94-7.86-3.82-.94-7.58-2.13-11.47-1.63-8.85,1.14-18,.83-26.39,4.35-5.33,2.23-11,4-15,8.58-.75.86-1.42,1.8-2.12,2.7s-1.66,1.62-3.1,1-1-1.57-.86-2.56A5.21,5.21,0,0,0,94.32,166.81Z"/><path class="cls-3" d="M183.28,169.6c-2.14-5.16-4.74-9.72-5.48-15a3.5,3.5,0,0,1,.29-1.58c4.45-14.07,7.59-28.49,11.67-42.66,3.51-12.21,7.08-24.41,10.86-36.54a145.5,145.5,0,0,1,6.14-15.74c1.09-2.46,1.05-5.29,2.8-7.53.65-.83,1-1,1.83-.41a18.62,18.62,0,0,1,6.25,8.42c.54,1.33.09,2.46-.32,3.65q-4.15,12-8.31,24c-.9,2.61-1.06,5.41-2.14,8-3.35,7.9-5.48,16.23-8.52,24.24-1.69,4.46-3.58,9-4.22,13.72-1.08,8-3.24,15.72-5.17,23.51-1.05,4.26-3.06,8.21-4.66,12.28A12.28,12.28,0,0,1,183.28,169.6Zm29-110.1c.1-1.51,0-2.6-1.29-2.84s-1.67.84-1.81,1.92A29.16,29.16,0,0,1,206,67.72a49.88,49.88,0,0,0-2.89,7.74c-1.9,6.26-2.28,12.87-4.71,19C195.79,101,194.55,108,192,114.54c-4.76,12.3-8.05,25-10.92,37.82-.2.89-.36,2.12.58,2.36s1.72-.65,2-1.73c.06-.29.21-.57.25-.86,1.28-8.57,4.08-16.76,6.41-25.07,1.68-6,4.62-11.63,6.24-17.64,2.84-10.52,6.34-20.84,9.09-31.37a94.55,94.55,0,0,1,4.87-13C211.31,63.15,212.26,61.25,212.26,59.5Z"/><path class="cls-3" d="M92.18,165.23c.07,1.44.07,3.34-1.31,3.63s-1.69-1.69-2.28-2.8c-2.84-5.39-5.68-10.81-10.6-14.62-3.7-2.87-8.24-3.77-12.75-4.55-.4-.07-1-.12-1.23.1-1.57,1.55-3.3.86-4.85.24-5.3-2.13-10.82-1.74-16.35-1.84a50.29,50.29,0,0,0-17.11,2.43,5.77,5.77,0,0,1-5.29-1.06c-.72-.52-.94-1,0-1.58a14.5,14.5,0,0,1,5.77-2.34c2.76-.43,5.4-1.61,8.16-2.13,6.87-1.28,13.74-1.85,20.77-.57,4.34.79,8.81,1.09,13.21,1.69a24.11,24.11,0,0,1,10.83,4.56c3.75,2.67,6.5,6.25,9.46,9.62A14.42,14.42,0,0,1,92.18,165.23Z"/><path class="cls-4" d="M65.38,149.29a18,18,0,0,1,6.9,2.66,40.86,40.86,0,0,1,12.76,14.68c.3.56,1.39,1.35.36,1.9a1.73,1.73,0,0,1-2.33-1.14,49,49,0,0,0-3.74-7c-1.34-2.19-3.41-3.5-5.44-4.91A96.87,96.87,0,0,1,65.38,149.29Z"/><path class="cls-5" d="M100.25,49.17a76.51,76.51,0,0,1-2.08,9.38A131.14,131.14,0,0,1,87.36,83.3c-.7,1.2-1.42,2.39-2.18,3.54C83.75,89,83.43,89,81.1,87.94s-4.59-2.67-7.26-3.11a65.51,65.51,0,0,1-11.64-3.2c-5.88-2.13-12-2.64-18.12-2.87-1.33,0-2.65-.16-4-.3-2.26-.24-3.07-1.28-2.63-3.54A97.72,97.72,0,0,1,41,60.73c2.4-6.8,3.87-13.9,6.87-20.51a70,70,0,0,1,3.27-6.43,3.76,3.76,0,0,1,3.17-2.07,41.57,41.57,0,0,1,9.71.56c9,1.61,17.16,5.86,25.93,8.15,2,.51,4,1,5.92,1.63C99.22,43.21,100,46.17,100.25,49.17ZM43.31,63.28A62.21,62.21,0,0,1,50.07,60c2.33-.78,4.69-1.5,7-2.19A2.31,2.31,0,0,0,58.72,56c.52-1.78,1-3.6,1.55-5.36a12.51,12.51,0,0,1,5.28-7.09c1.14-.71,2.24-.78,2.83.65.73,1.77,1.67,1.71,3,.67s3-.92,3.68.36c1.07,2,2.43,1.93,4.21,1.68,2.57-.36,3.91,1.35,3.17,3.88s-1.78,5-2.76,7.42c-.48,1.19-.67,2.35.76,3.11,3.43,1.82,5.72,4.72,7.65,8,1.11,1.89,1.53,1.88,2.66,0,1.57-2.55,2.06-5.49,2.88-8.3a90,90,0,0,0,2.91-11c.45-2.75-1.43-5.93-3.83-6.14-4.6-.42-8.62-2.5-12.87-3.94-7.77-2.62-15.4-5.84-23.91-5.24A4,4,0,0,0,52,37.54c-1.26,3.12-2.6,6.21-3.89,9.31C45.93,52.06,44.76,57.54,43.31,63.28Zm24.43-3c-8,.25-14.41.88-20.39,3.91-3.94,2-5.52,5.46-6.56,9.37-.28,1,.24,1.74,1.34,1.92.71.12,1.42.28,2.14.33A95.1,95.1,0,0,1,58.55,78c3.52.83,6.69,2.69,10.22,3.52a118.52,118.52,0,0,1,12.4,3.81c1.17.41,1.78.27,2.3-.83.87-1.85,1.74-3.71,2.74-5.49,1.43-2.54,1.08-4.92-.24-7.38C81.72,63.78,74.56,61.06,67.74,60.27Zm6.65-1.86a1.93,1.93,0,0,0,1.41-.59,15.57,15.57,0,0,0,3.48-6.62c.16-.63-.15-.71-.64-.75a1.93,1.93,0,0,0-1.93.71c-1.23,1.85-2.48,3.69-3.58,5.61C72.61,57.65,72.91,58.41,74.39,58.4ZM67.48,57a2.13,2.13,0,0,0,2.06-1.24c.88-1.84,1.8-3.66,2.7-5.49.27-.55.59-1.26.05-1.65s-1.26.12-1.63.65c-1.4,2-2.78,4.06-4.1,6.14C65.92,56.46,66.37,57,67.48,57Zm-2.27-8.6c-1.92,1.26-3.33,4.65-3,7.12C63.82,54.31,65.13,51.19,65.21,48.44Z"/><path class="cls-6" d="M34.09,105.5c-.06-4.83,1.25-9.4,2.68-13.94.27-.85.6-2.13,1.54-1.94,1.18.25,1.32,1.55,1.12,2.71-.6,3.68-1.21,7.36-1.79,11-.25,1.61-.43,3.22-.65,4.83-.11.81-.34,1.68-1.31,1.66s-1.57-.77-1.58-1.83C34.09,107.19,34.09,106.35,34.09,105.5Z"/><path class="cls-7" d="M78.37,116.87c-.16-5.76,2-11.23,2.15-17a1.1,1.1,0,0,1,.79-1.08,1,1,0,0,1,1.12.38,2.74,2.74,0,0,1,.87,2.41c-.68,5.3-2,10.5-2.42,15.84a4.8,4.8,0,0,1-.29,1,1.2,1.2,0,0,1-1.32,1c-.72-.1-.93-.67-.9-1.35C78.39,117.72,78.37,117.3,78.37,116.87Z"/><path class="cls-6" d="M47.47,107.29a93.86,93.86,0,0,1,2.62-14,1.6,1.6,0,0,1,1.6-1.21c.86-.07,1.07.69,1.19,1.34a7.64,7.64,0,0,1-.79,4.92,19.18,19.18,0,0,0-1.89,8.55c0,1-.17,2.46-1.22,2.43S47.36,108.07,47.47,107.29Z"/><path class="cls-7" d="M62.68,95.29a61.71,61.71,0,0,1-1.79,9,19.35,19.35,0,0,0-1.34,5.4c0,.79-.4,1.77-1.28,1.61a1.61,1.61,0,0,1-1.3-2c1-4.58,2-9.18,3-13.75.18-.78.66-1.53,1.62-1.36A1.25,1.25,0,0,1,62.68,95.29Z"/><path class="cls-6" d="M68.52,110.28c.23-4.2,1.62-8.21,2.31-12.35.17-1.05,1-1.12,1.7-.25a3.25,3.25,0,0,1,.63,2.87c-.73,3.28-1.34,6.59-2,9.89-.22,1.1-.15,2.59-1.76,2.4S68.7,111.22,68.52,110.28Z"/><path class="cls-8" d="M152.23,139.64c-7.68.4-15.14-1-22.58-2.61-2.24-.47-4.53-.7-6.8-1a4.55,4.55,0,0,1-4.34-5.47c.47-4.2,1.88-8.2,2.43-12.4,1-7.53,2.3-15,3.44-22.51a22,22,0,0,1,2.68-7A3.21,3.21,0,0,1,130,87.08c4.52-.16,9-.27,13.57-.41,2.86-.09,5.34,1.37,8,1.94,4.95,1,9.88,2.16,14.83,3.2a5.51,5.51,0,0,1,3.42,2.57c2.55,3.47,2.71,6.73,1,10.72a75.84,75.84,0,0,0-4,14.38c-1.25,5.87-3.61,11.49-4,17.53a2.48,2.48,0,0,1-2.37,2.32C157.66,139.78,154.93,139.42,152.23,139.64ZM141.72,89.91a42.09,42.09,0,0,1-7.14.51c-6.06.26-5.68.56-7.46,5.85-2.16,6.43-1.91,13.31-3.33,19.9a1.2,1.2,0,0,0,.43,1.31c.62.39,1-.21,1.32-.58a16.64,16.64,0,0,1,5.28-3.75c2.38-1.08,4.61-2.18,4.45-5.33a1.36,1.36,0,0,1,.16-.51c.3-.74.59-1.6,1.54-1.52s1,1.08,1.21,1.8a2.17,2.17,0,0,1,0,.72c0,1.18.67,1.39,1.65,1.33a4.82,4.82,0,0,0,3.76-2.5,47.73,47.73,0,0,1,6.3-7.68c.47-.46,1.09-.78,1.57-.42s.24,1,0,1.52a7.57,7.57,0,0,1-.7,1.06l-3.67,4.93c-.57.77-1,1.71-.19,2.4s1.41-.29,1.92-.82c2.76-2.79,5.53-5.56,8.52-8.11.67-.57,1.37-1.13,2.18-.24a1.28,1.28,0,0,1-.41,2.14c-3,1.61-4.13,5-6.83,6.84-1,.65-.82,1.5.23,2.14,1.2.74,2.13.32,3.1-.49a2.87,2.87,0,0,1,3.08-.3,1.14,1.14,0,0,1,.56,1.54c-.52,1.64.11,2.75,1.33,3.79a8,8,0,0,1,1.23,1.77c.42.64.69,1.59,1.64,1.45s1-1.16,1.11-1.87c.64-4.8,2.17-9.37,3.57-14a14.17,14.17,0,0,0,.56-2.09,5.35,5.35,0,0,0-4.28-6.2c-4.33-.78-8.66-1.5-12.94-2.48C148.25,91.32,145.11,90.23,141.72,89.91Zm2.08,22.33c-1,.29-1.94.2-2.83.45-1.21.34-1.63.89-1.14,2.08.25.62.52,1.29-.17,1.8a1.31,1.31,0,0,1-1.88-.53c-1.64-2.51-3.46-1.64-5.37-.47a8.55,8.55,0,0,1-1.45.72c-1.2.46-1.72,1-.92,2.36a10.1,10.1,0,0,1,1.27,6.27,27,27,0,0,1-2.12,7.41c-.47,1.13-.38,1.61,1,2,5.46,1.42,10.89,2.86,16.59,3,3,.08,3.46-.06,3.75-2.89a9.08,9.08,0,0,1,5-7.44c1.43-.78,2.88-1.52,4.31-2.29,1.12-.6,1.57-1.39.9-2.65-.85-1.59-1.56-3.25-2.4-4.85-.74-1.4-1.51-1.52-2.73-.49-.69.58-1.29,1.26-2,1.87a1.62,1.62,0,0,1-2.15.08c-.72-.47-.6-1.06-.32-1.74s.28-1.18.54-1.71c.46-1,.22-1.49-.83-1.67A62,62,0,0,1,143.8,112.24Zm-15,13.28a14.09,14.09,0,0,0-.57-4.09c-.21-.81.17-2.1-.9-2.33s-1.48,1-1.93,1.65c-.71,1.09-2.29,1.25-2.64,2.59a18.9,18.9,0,0,0-1,4.55c0,1.42-.44,3.12.64,4.27,1.29,1.36,4,.75,4.94-.94A12.37,12.37,0,0,0,128.75,125.52Zm27.76,11.84c1.67-.14,2.89-.5,3.21-2.27s.94-3.72,1.4-5.59c.38-1.52.1-1.78-1.45-1.43-2.74.63-6.42,5-6.57,7.79,0,.59-.14,1.34.77,1.31A8.92,8.92,0,0,1,156.51,137.35Z"/><path class="cls-7" d="M182.49,56.73a2.4,2.4,0,0,1-.47,1.5,17.89,17.89,0,0,0-2.36,6.58c-1,6-3.15,11.71-4.55,17.61-.18.77-.57,1.56-1.6,1.36-1.19-.23-1.05-1.17-.86-2,1.36-5.79,2.77-11.57,4.13-17.35a51.81,51.81,0,0,1,3-8.29c.31-.74.83-1.26,1.59-1.08A1.45,1.45,0,0,1,182.49,56.73Z"/><path class="cls-6" d="M161,76.73c.65-3.81,1.28-7.25,1.8-10.7a66.66,66.66,0,0,1,2.55-11.43c.32-1,.66-1.93,2-1.59s1.18,1.41.93,2.35c-.8,3-1.82,6-2.48,9-.76,3.59-1.24,7.23-1.81,10.86a4.73,4.73,0,0,1-.68,1.84,1.22,1.22,0,0,1-1.55.57A1,1,0,0,1,161,76.73Z"/><path class="cls-7" d="M151.62,72.1c-.24-2.72,1.43-5.49,1.9-8.52a94.14,94.14,0,0,1,2.9-11.18c.19-.67.32-1.48,1.36-1.36s1.31.8,1.47,1.59a2.62,2.62,0,0,1-.09,1.25c-1.18,3.79-2.24,7.62-3.62,11.33a24.42,24.42,0,0,0-1.69,7.9c0,.18,0,.36,0,.54-.07.85-.45,1.69-1.31,1.68s-.92-.95-.91-1.69C151.63,73.28,151.62,72.92,151.62,72.1Z"/><path class="cls-6" d="M140,52.1a59.11,59.11,0,0,1-2.17,10.47c-.79,2.89-1.64,5.77-2.48,8.65a11,11,0,0,1-.62,1.68,1.32,1.32,0,0,1-1.71.86c-.9-.31-.66-1-.49-1.67q1.81-6.87,3.67-13.74a32.38,32.38,0,0,0,1.23-6.9c.05-1.08.43-1.56,1.51-1.48S140.13,50.78,140,52.1Z"/><path class="cls-7" d="M142.21,71c.52-2.46,1.07-5.35,1.76-8.21,1-4.31,2.16-8.61,3.26-12.9.22-.87.45-2,1.66-1.64s1,1.24.81,2.22c-1.35,6-3.49,11.85-4.7,17.92q-.34,1.68-.59,3.37c-.11.75-.39,1.29-1.26,1.14S142.16,72.18,142.21,71Z"/><path class="cls-9" d="M212.26,59.5c0,1.75-.95,3.65-1.77,5.58a94.55,94.55,0,0,0-4.87,13c-2.75,10.53-6.25,20.85-9.09,31.37-1.62,6-4.55,11.62-6.24,17.64-2.33,8.31-5.13,16.49-6.41,25.07,0,.29-.19.57-.25.86-.23,1.08-1,2-2,1.73s-.78-1.48-.58-2.36c2.87-12.83,6.15-25.52,10.92-37.82,2.53-6.54,3.77-13.53,6.35-20.06,2.43-6.15,2.81-12.76,4.71-19A49.88,49.88,0,0,1,206,67.72a29.16,29.16,0,0,0,3.18-9.14c.14-1.07.41-2.18,1.81-1.92S212.36,58,212.26,59.5Z"/><path class="cls-10" d="M43.31,63.28c1.45-5.73,2.62-11.22,4.8-16.43,1.29-3.1,2.63-6.19,3.89-9.31a4,4,0,0,1,3.94-2.71c8.52-.6,16.14,2.62,23.91,5.24C84.1,41.5,88.12,43.58,92.73,44c2.4.21,4.28,3.39,3.83,6.14a90,90,0,0,1-2.91,11c-.83,2.81-1.32,5.74-2.88,8.3-1.13,1.84-1.55,1.85-2.66,0-1.92-3.27-4.22-6.17-7.65-8-1.43-.76-1.24-1.92-.76-3.11,1-2.45,2-4.88,2.76-7.42s-.6-4.24-3.17-3.88c-1.78.25-3.14.27-4.21-1.68-.7-1.29-2.38-1.37-3.68-.36s-2.29,1.1-3-.67c-.59-1.42-1.68-1.35-2.83-.65a12.51,12.51,0,0,0-5.28,7.09c-.58,1.77-1,3.58-1.55,5.36a2.31,2.31,0,0,1-1.61,1.78c-2.36.69-4.71,1.4-7,2.19A62.21,62.21,0,0,0,43.31,63.28Z"/><path class="cls-11" d="M67.74,60.27c6.82.79,14,3.51,18.23,11.35,1.33,2.45,1.67,4.84.24,7.38-1,1.78-1.87,3.64-2.74,5.49-.52,1.1-1.13,1.24-2.3.83a118.52,118.52,0,0,0-12.4-3.81c-3.53-.83-6.7-2.69-10.22-3.52a95.1,95.1,0,0,0-14.28-2.19c-.72-.06-1.43-.22-2.14-.33-1.1-.18-1.62-.87-1.34-1.92,1-3.91,2.62-7.37,6.56-9.37C53.33,61.15,59.75,60.52,67.74,60.27Zm-4.27,7.94c-.25-.57-.19-1.81-1.35-1.7a2.33,2.33,0,0,0-2.2,2.06,1.7,1.7,0,0,0,1.58,2.06C62.93,70.72,63.22,69.58,63.47,68.21Zm10.6,3.85c0-.7-.19-1.56-1.31-1.56s-1.93.52-1.84,1.73c.07.92.42,1.82,1.61,1.81S74.09,73.34,74.07,72.06Z"/><path class="cls-12" d="M74.39,58.4c-1.48,0-1.78-.75-1.26-1.65,1.1-1.92,2.36-3.76,3.58-5.61a1.93,1.93,0,0,1,1.93-.71c.49,0,.8.12.64.75a15.57,15.57,0,0,1-3.48,6.62A1.93,1.93,0,0,1,74.39,58.4Z"/><path class="cls-12" d="M67.48,57c-1.11,0-1.56-.58-.92-1.59,1.32-2.08,2.7-4.12,4.1-6.14.37-.53,1-1.12,1.63-.65s.22,1.1-.05,1.65c-.9,1.83-1.81,3.65-2.7,5.49A2.13,2.13,0,0,1,67.48,57Z"/><path class="cls-13" d="M65.21,48.44c-.09,2.75-1.39,5.87-3,7.12C61.88,53.08,63.29,49.69,65.21,48.44Z"/><path class="cls-14" d="M141.72,89.91c3.39.32,6.53,1.41,9.75,2.14,4.29,1,8.62,1.69,12.94,2.48a5.35,5.35,0,0,1,4.28,6.2,14.17,14.17,0,0,1-.56,2.09c-1.4,4.6-2.93,9.16-3.57,14-.1.71-.12,1.74-1.11,1.87s-1.21-.82-1.64-1.45a8,8,0,0,0-1.23-1.77c-1.22-1-1.85-2.15-1.33-3.79a1.14,1.14,0,0,0-.56-1.54,2.87,2.87,0,0,0-3.08.3c-1,.82-1.9,1.24-3.1.49-1-.64-1.18-1.49-.23-2.14,2.71-1.86,3.87-5.22,6.83-6.84a1.28,1.28,0,0,0,.41-2.14c-.81-.89-1.51-.33-2.18.24-3,2.55-5.76,5.32-8.52,8.11-.52.53-1.11,1.48-1.92.82s-.38-1.63.19-2.4l3.67-4.93a7.57,7.57,0,0,0,.7-1.06c.25-.5.39-1.23,0-1.52s-1.09,0-1.57.42a47.73,47.73,0,0,0-6.3,7.68,4.82,4.82,0,0,1-3.76,2.5c-1,.06-1.69-.14-1.65-1.33a2.17,2.17,0,0,0,0-.72c-.23-.72-.22-1.71-1.21-1.8s-1.24.78-1.54,1.52a1.36,1.36,0,0,0-.16.51c.16,3.16-2.07,4.25-4.45,5.33a16.64,16.64,0,0,0-5.28,3.75c-.35.37-.7,1-1.32.58a1.2,1.2,0,0,1-.43-1.31c1.42-6.59,1.18-13.47,3.33-19.9,1.77-5.3,1.4-5.59,7.46-5.85A42.09,42.09,0,0,0,141.72,89.91Z"/><path class="cls-15" d="M143.8,112.24a62,62,0,0,0,7.1,1.3c1,.18,1.28.7.83,1.67-.26.53-.3,1.17-.54,1.71s-.4,1.27.32,1.74a1.62,1.62,0,0,0,2.15-.08c.68-.6,1.28-1.28,2-1.87,1.21-1,2-.91,2.73.49.84,1.59,1.55,3.26,2.4,4.85.67,1.27.22,2.06-.9,2.65-1.43.77-2.88,1.51-4.31,2.29a9.08,9.08,0,0,0-5,7.44c-.29,2.83-.78,3-3.75,2.89-5.7-.15-11.13-1.59-16.59-3-1.37-.35-1.46-.84-1-2a27,27,0,0,0,2.12-7.41,10.1,10.1,0,0,0-1.27-6.27c-.8-1.38-.28-1.91.92-2.36a8.55,8.55,0,0,0,1.45-.72c1.91-1.17,3.72-2,5.37.47a1.31,1.31,0,0,0,1.88.53c.69-.51.42-1.18.17-1.8-.49-1.19-.07-1.74,1.14-2.08C141.86,112.44,142.76,112.53,143.8,112.24ZM139,122.65c0-1.36-.45-2.17-1.32-2.2-1.12,0-2.39,1.42-2.4,2.71a1.69,1.69,0,0,0,1.7,1.92C138.47,125.09,139,124,139,122.65Zm8.6.12a2,2,0,0,0,2,2.34c1.31.07,1.52-1.13,1.55-2a2,2,0,0,0-2-2.28C147.9,120.75,147.6,121.63,147.62,122.76Z"/><path class="cls-12" d="M128.75,125.52a12.37,12.37,0,0,1-1.42,5.7c-.93,1.69-3.65,2.31-4.94.94-1.08-1.15-.65-2.85-.64-4.27a18.9,18.9,0,0,1,1-4.55c.35-1.34,1.93-1.5,2.64-2.59.45-.69.93-1.87,1.93-1.65s.69,1.52.9,2.33A14.09,14.09,0,0,1,128.75,125.52Z"/><path class="cls-12" d="M156.51,137.35a8.92,8.92,0,0,0-2.64-.19c-.91,0-.81-.72-.77-1.31.16-2.82,3.83-7.16,6.57-7.79,1.55-.35,1.83-.09,1.45,1.43-.46,1.86-1.06,3.7-1.4,5.59S158.19,137.22,156.51,137.35Z"/><path class="cls-16" d="M63.47,68.21c-.25,1.37-.54,2.51-2,2.41a1.7,1.7,0,0,1-1.58-2.06,2.33,2.33,0,0,1,2.2-2.06C63.28,66.4,63.22,67.64,63.47,68.21Z"/><path class="cls-7" d="M74.07,72.06c0,1.28-.39,2-1.55,2s-1.54-.9-1.61-1.81c-.08-1.21.76-1.73,1.84-1.73S74.06,71.36,74.07,72.06Z"/><path class="cls-9" d="M139,122.65c0,1.35-.55,2.44-2,2.44a1.69,1.69,0,0,1-1.7-1.92c0-1.29,1.28-2.75,2.4-2.71C138.57,120.47,139.05,121.28,139,122.65Z"/><path class="cls-9" d="M147.62,122.76c0-1.13.28-2,1.57-1.94a2,2,0,0,1,2,2.28c0,.88-.24,2.08-1.55,2A2,2,0,0,1,147.62,122.76Z"/></svg>