<svg id="圖層_1" data-name="圖層 1" xmlns="http://www.w3.org/2000/svg" viewBox="0 0 40.13 37.38"><defs><style>.cls-1{fill:#221c1c;}.cls-1,.cls-2{fill-rule:evenodd;}.cls-2{fill:#e58c8a;}</style></defs><title>graphic</title><path class="cls-1" d="M7.59,15.21a11.16,11.16,0,0,1,.78-3.66C9.51,9.27,10.18,6.7,12.2,4.93a2.86,2.86,0,0,1,2-.84,18.48,18.48,0,0,1,9.55,3.12A3.78,3.78,0,0,1,25.44,10c.13.73.22,1.47.32,2.2A1.23,1.23,0,0,0,27,13.33a11.6,11.6,0,0,1,6.46,2.56,4.64,4.64,0,0,1,1.8,3.2,9,9,0,0,1-2,7.11A38.5,38.5,0,0,1,30,30.34,10.18,10.18,0,0,1,25.42,33a6.38,6.38,0,0,1-4-.37c-2.65-1-5.28-2-7.93-2.93-2-.73-4.1-1.34-6.18-1.91a6,6,0,0,1-1.36-.56c-.71-.4-.8-1.16-.13-1.58,1.81-1.14,2.19-2.85,2-4.83q-.13-1.59-.26-3.19A6,6,0,0,1,7.59,15.21Z"/><path class="cls-2" d="M16.93,27.3a26.11,26.11,0,0,1-4.37-2.76A1.33,1.33,0,0,1,12,23.41c-.05-3.23-.11-6.45-.14-9.68a6,6,0,0,1,.21-1.53,3.25,3.25,0,0,1,2.5-2.58,6,6,0,0,1,7.2,3.48,1.87,1.87,0,0,1-.11,1.72c-.5.82-.79,1.8-1.81,2.2-.25.1-.31.36-.29.62s0,.55,0,.82c.08,1.53.17,1.61,1.68,1.44a4.86,4.86,0,0,0,2.91-1.49,4.18,4.18,0,0,1,4.85-1c.53.22,1.09.38,1.63.57a1.62,1.62,0,0,1,1.26,2,9.91,9.91,0,0,1-2.17,4.92,8.58,8.58,0,0,1-10.27,3.24A18.87,18.87,0,0,1,16.93,27.3Z"/></svg>