<svg id="圖層_1" data-name="圖層 1" xmlns="http://www.w3.org/2000/svg" viewBox="0 0 43.8 42.5"><defs><style>.cls-1{fill:#0e0d0d;}.cls-1,.cls-2,.cls-3{fill-rule:evenodd;}.cls-2{fill:#fdfefe;}.cls-3{fill:#c46e8e;}</style></defs><title>graphic</title><path class="cls-1" d="M23,38.55a10.69,10.69,0,0,1-5.2-1.05A28.06,28.06,0,0,1,6.86,28.71C2.1,22.28,4.31,12.92,11.4,8.65a19.13,19.13,0,0,1,11.48-3.1,6.27,6.27,0,0,0,1.56,0c4.78-.87,8.28,1.4,11.55,4.5,2.25,2.14,3,4.85,3.51,7.7C41.26,28,35.89,35.94,25.74,38.32A14.71,14.71,0,0,1,23,38.55Zm.77-30.43C19,7.55,15,8.71,11.91,12.49a21.09,21.09,0,0,0-3.83,7.09c-1.3,4.25.52,7,4.86,7.55l.34,0A21.57,21.57,0,0,0,35.27,16a2.51,2.51,0,0,0-.35-3.14C32,9.28,28.49,7.06,23.77,8.12Zm13.06,9.26c-.58.15-.7.57-.93.88a31.48,31.48,0,0,1-6,6.4c-5.2,4.11-11.19,5.12-17.6,4.42-.37,0-.83-.33-1.06.2s.29.69.59.91c1.72,1.25,3.41,2.56,5.21,3.71a11.8,11.8,0,0,0,7.86,2A13.83,13.83,0,0,0,37.33,23.41C37.55,21.42,37.92,19.3,36.83,17.38Z"/><path class="cls-2" d="M23.77,8.12C28.49,7.06,32,9.28,34.93,12.84A2.51,2.51,0,0,1,35.27,16a21.57,21.57,0,0,1-22,11.19l-.34,0c-4.34-.54-6.16-3.3-4.86-7.55a21.09,21.09,0,0,1,3.83-7.09C15,8.71,19,7.55,23.77,8.12Z"/><path class="cls-3" d="M36.83,17.38c1.09,1.93.72,4,.51,6A13.83,13.83,0,0,1,24.87,35.94a11.8,11.8,0,0,1-7.86-2c-1.79-1.15-3.48-2.46-5.21-3.71-.3-.22-.81-.38-.59-.91s.68-.25,1.06-.2c6.41.7,12.4-.31,17.6-4.42a31.48,31.48,0,0,0,6-6.4C36.12,17.94,36.25,17.53,36.83,17.38Z"/></svg>