<svg id="圖層_1" data-name="圖層 1" xmlns="http://www.w3.org/2000/svg" viewBox="0 0 76.99 80"><defs><style>.cls-1{fill:#221714;}.cls-1,.cls-10,.cls-11,.cls-2,.cls-3,.cls-4,.cls-5,.cls-6,.cls-7,.cls-8,.cls-9{fill-rule:evenodd;}.cls-2{fill:#fdfcf9;}.cls-3{fill:#fdfbf7;}.cls-4{fill:#fcfbf8;}.cls-5{fill:#f7f6f2;}.cls-6{fill:#f5f5f0;}.cls-7{fill:#f7f6f3;}.cls-8{fill:#f4f3ee;}.cls-9{fill:#f4f4ef;}.cls-10{fill:#f0efec;}.cls-11{fill:#e1dedb;}</style></defs><title>graphic</title><path class="cls-1" d="M70,37.72a22.75,22.75,0,0,1-1.15,8.56,23.53,23.53,0,0,1-2.28,5.17,4.93,4.93,0,0,0-.72,1.92,8.84,8.84,0,0,1-1.54,3.55c-1,1.49-2,3-3,4.44A12.41,12.41,0,0,1,53,66.27c-2.91.44-5.8,1-8.69,1.56a15.33,15.33,0,0,1-4.19.05c-2.08-.2-4.17-.28-6.24-.53a16.53,16.53,0,0,1-6.65-2.23c-1.88-1.13-3.58-.74-5.46,0-1.52.61-3,1.29-4.56,1.82a3,3,0,0,1-3.71-2.39,8.25,8.25,0,0,1-.05-2c.07-.88,0-1.78.11-2.65a4.67,4.67,0,0,0-1.69-4.23c-.14-.13-.25-.38-.45-.34-.78.14-1.06-.55-1.22-1C9.5,52.7,8.28,51.23,8,49.34c-.08-.67-.61-1.16-.8-1.81a1.93,1.93,0,0,1,.32-2.12.73.73,0,0,0,.14-.76,15.46,15.46,0,0,1,0-4.12.88.88,0,0,1,.11-.42,12.74,12.74,0,0,0,1.26-3.82,26,26,0,0,1,5.95-11.2,15.19,15.19,0,0,0,2.27-2.89c.23-.43.7-.52,1.06-.76,1.23-.83,2.13-2,3.37-2.85,1-.65,2-1.27,3-1.95a18.28,18.28,0,0,1,6.27-3c1.14-.27,2.27-.55,3.39-.9a2,2,0,0,0,1.09-.56c.27-.32.71-.08,1.05-.2,1.39-.52,2.88.05,4.27-.4a.34.34,0,0,1,.22,0c1.86.82,3.79.22,5.68.28a13.07,13.07,0,0,1,7.56,2.63c1.28.94,2.22,2.3,3.7,3,0,0,.05,0,.07,0,1.38,1.83,3.6,2.72,5,4.5,1.76,2.22,3.68,4.32,4.88,6.93a11.71,11.71,0,0,1,1.29,3.1,27.44,27.44,0,0,1,.67,2.78Q69.92,36.29,70,37.72Z"/><path class="cls-2" d="M17,59.7a9.24,9.24,0,0,1,.33-2.33A2.83,2.83,0,0,0,15.87,54a5.44,5.44,0,0,1-2.71-3.23c-.59-1.58-1.21-3.16-1.72-4.76-.77-2.44-.31-4.87.32-7.25a33.33,33.33,0,0,1,2.38-6.77,4.1,4.1,0,0,1,.81-1.21,3.84,3.84,0,0,0,.61-.74,29.2,29.2,0,0,1,7.34-7.85c.88-.64,1.59-1.55,2.74-1.8a.22.22,0,0,0,.13-.07c1.09-1.53,3.06-1.56,4.43-2.63a.82.82,0,0,1,.34-.13c3.38-.66,6.66-1.84,10.16-1.77.5,0,1-.34,1.51.1.08.07.34,0,.48-.09a5.33,5.33,0,0,1,4.67.12,12,12,0,0,0,2.9,1c.66.11,1.21.79,1.83,1.19.28.19.51.53,1,.34.18-.08.32.12.4.27a3.36,3.36,0,0,0,1.4,1.26A8.47,8.47,0,0,1,57,22a27.36,27.36,0,0,0,2.55,2.42,9.69,9.69,0,0,1,2.61,3.33,1.18,1.18,0,0,0,.33.39,3.68,3.68,0,0,1,1,1.37c.83,2.17,1.67,4.35,2.63,6.45,1.22,2.66.26,5.1-.23,7.61a41.59,41.59,0,0,1-2.5,7.51,15.8,15.8,0,0,1-3.93,5.65,13.87,13.87,0,0,1-4.5,3c-1.95.73-3.53,2.2-5.58,2.77a15.27,15.27,0,0,1-2.27.6c-1.69.2-3.29,1.09-5,1s-3.1.62-4.72.2a34.76,34.76,0,0,0-4.74-.69,6.19,6.19,0,0,1-2.71-1c-.89-.57-1.83-1-2.73-1.6A4.19,4.19,0,0,0,23,60.75a18.35,18.35,0,0,1-4,1.46c-1.46.3-1.69.16-2-1.33A10.09,10.09,0,0,1,17,59.7Z"/><path class="cls-1" d="M58.06,36.55a4.81,4.81,0,0,1-.52,2.71,3.48,3.48,0,0,0-.1,2.93c.38,1,.68,2,1,3.09a4,4,0,0,1-.75,3.61,6,6,0,0,1-1.28,1.32,32.66,32.66,0,0,0-4.5,4.14,7,7,0,0,1-3.17,1.93,13,13,0,0,1-5.19.85,6.37,6.37,0,0,0-2.51.5,17.61,17.61,0,0,1-4.85.81A3.64,3.64,0,0,1,34,57.91c-.12-.08-.23-.2-.4-.14-1,.35-1.83-.19-2.73-.32A4.29,4.29,0,0,1,28.39,56,8.78,8.78,0,0,0,27,54.83,5.66,5.66,0,0,1,25,53.11c-.27-.48-.88-.69-1.3-1-1.43-1.23-2.87-2.51-3.41-4.42-.15-.51-.45-.92-.63-1.38-.85-2.25-1.78-4.52-1.63-7a9.18,9.18,0,0,1,2.87-6.36,2.81,2.81,0,0,0,.45-.58c1.3-2.1,3.3-3.49,5.14-5a4.41,4.41,0,0,1,2.15-.69c3.13-.55,5.93-2,8.85-3.13a15.73,15.73,0,0,1,9.46-1,15.16,15.16,0,0,1,5.75,3.32,10,10,0,0,1,2.37,2.6c.4.65,1,1.1,1.48,1.78A10.93,10.93,0,0,1,58.06,36.55Z"/><path class="cls-3" d="M56,35.32a3.82,3.82,0,0,1-.3,1.49c-.31.77-.73.91-1.33.36a29.07,29.07,0,0,1-3.1-3.05,42.31,42.31,0,0,1-2.65-3.54A12.34,12.34,0,0,0,44.82,27c-.16-.1-.5-.11-.37-.43s.41-.26.64-.17c1.41.53,2.87.87,4.27,1.51a26.31,26.31,0,0,1,4.45,3.19A5.51,5.51,0,0,1,56,35.32Z"/><path class="cls-3" d="M45.47,31.91c-2.68-.44-5.39-.26-8.08-.49a1.23,1.23,0,0,1-.22,0c-.57-.16-1.23-.28-1.44-.89s.37-.91.71-1.27c1.25-1.39,2.07-1.59,3.77-.86,1,.41,1.89.93,2.84,1.37a3.33,3.33,0,0,0,1.17.41,1.76,1.76,0,0,1,1.56,1.25C46,31.78,46,32,45.47,31.91Z"/><path class="cls-3" d="M55.26,44.88c-.63,1.78-1,3.78-2.53,5.16a6,6,0,0,1-2.86,1.07c-.45.09-.86-.73-.59-1.24a8.14,8.14,0,0,1,2.25-3.21,27,27,0,0,0,2.6-2.39.62.62,0,0,1,.74-.15C55.14,44.25,55.18,44.54,55.26,44.88Z"/><path class="cls-4" d="M26.2,50.79c-.06.25.12.54-.16.64s-.32-.18-.45-.31a19.08,19.08,0,0,1-5-9.1c-.09-.39-.22-.93.13-1.17s.69.22.88.46c1.16,1.46,2.55,2.77,3,4.72.31,1.45.45,3,1.5,4.17C26.21,50.35,26.17,50.62,26.2,50.79Z"/><path class="cls-3" d="M38,36.26a1.33,1.33,0,0,1-.09.47,37.63,37.63,0,0,0-1.53,3.88,1.45,1.45,0,0,1-.13.26c-.21.32-.32.8-.79.78s-.58-.52-.63-.88c-.18-1.2-.48-2.38-.61-3.58a2.61,2.61,0,0,1,2.31-2.54C37.42,34.55,38,35.18,38,36.26Z"/><path class="cls-4" d="M41.29,36.91a4.32,4.32,0,0,1,2.91,2c.08.22-.05.32-.15.45a3.8,3.8,0,0,1-1.67,1.28c-1,.36-1.93.68-2.9,1-.46.17-.63-.05-.55-.45a12.87,12.87,0,0,1,1.25-3.58A1.35,1.35,0,0,1,41.29,36.91Z"/><path class="cls-4" d="M27.71,38.94c-.27-.42-.45-.78-.24-1.22A40.58,40.58,0,0,1,30.36,32a1.33,1.33,0,0,1,1.06-.69c1.17-.07,1.66.57,1.26,1.63A2.79,2.79,0,0,1,32,34.12C30.41,35.55,29.2,37.33,27.71,38.94Z"/><path class="cls-4" d="M23.76,34a1.74,1.74,0,0,1,.3-1,3.57,3.57,0,0,1,3.58-.87c.29.14.34.24.2.54a36.29,36.29,0,0,0-1.93,4.12c-.11.34-.32.8-.78.76s-.69-.43-.82-.85A11.35,11.35,0,0,1,23.76,34Z"/><path class="cls-4" d="M42.25,45.5a2.69,2.69,0,0,1-2.17-1,.67.67,0,0,1,.11-1.08,4.71,4.71,0,0,1,1.46-.84A7.38,7.38,0,0,0,44,41.55a.88.88,0,0,1,1.15-.09,1.06,1.06,0,0,1,.26,1.21A4,4,0,0,1,42.25,45.5Z"/><path class="cls-5" d="M35.46,48.45a6.64,6.64,0,0,1-3.35-1.1c-.4-.25-.34-.39,0-.56a1.7,1.7,0,0,1,1.55,0c.61.31,1.2.66,1.8,1,.2.11.43.21.38.47S35.54,48.44,35.46,48.45Z"/><path class="cls-6" d="M52.52,40.3c-.39,0-.62-.37-.58-.82a1.39,1.39,0,0,1,.69-1.27c.33-.14,1.08.81,1.05,1.25S53.2,40.32,52.52,40.3Z"/><path class="cls-7" d="M27.85,30.25c-.17,0-.51.1-.6-.15s.21-.41.38-.57a4.61,4.61,0,0,1,1.13-.81c.37-.19.75-.24,1,.16a.69.69,0,0,1-.36.93A2.55,2.55,0,0,1,27.85,30.25Z"/><path class="cls-8" d="M50.4,37.45c-.11.41-.13,1-.6,1a1,1,0,0,1-.91-1c0-.49.49-1.2.85-1.13C50.38,36.42,50.2,37,50.4,37.45Z"/><path class="cls-5" d="M33.89,29.09a1,1,0,0,1-1,1,.82.82,0,0,1-.79-.3c-.19-.27.15-.41.25-.61a5.23,5.23,0,0,1,.41-.61.6.6,0,0,1,.77-.24C33.86,28.45,33.91,28.71,33.89,29.09Z"/><path class="cls-9" d="M45.47,51.06c-.2-.06-.51.14-.62-.19a.59.59,0,0,1,.35-.73,4.2,4.2,0,0,1,1.24-.59c.39-.08.55.09.45.49A1.33,1.33,0,0,1,45.47,51.06Z"/><path class="cls-9" d="M47.45,35.33a.72.72,0,0,1-.35.63c-.29.15-.43-.12-.59-.3s-.42-.48-.62-.72-.32-.31-.17-.5a.67.67,0,0,1,.53-.21A1.19,1.19,0,0,1,47.45,35.33Z"/><path class="cls-8" d="M32.84,39.87a1.26,1.26,0,0,1-.06.34c-.12.26-.26.62-.55.62s-.32-.42-.43-.67a.78.78,0,0,1,0-.36c0-.41-.08-1.08.36-1.08S32.8,39.33,32.84,39.87Z"/><path class="cls-10" d="M29.18,49.69c.56.46,1.13.9,1.69,1.37.15.12.29.35.17.51s-.36,0-.51-.08A2.46,2.46,0,0,1,29.18,49.69Z"/><path class="cls-11" d="M50.23,41.06c-.52.16-.59.82-1.1.53-.2-.11-.59-.49-.4-.66C49.13,40.57,49.6,41,50.23,41.06Z"/></svg>