<svg id="圖層_1" data-name="圖層 1" xmlns="http://www.w3.org/2000/svg" viewBox="0 0 715.57 639.11"><defs><style>.cls-1{fill:#0a0808;stroke:#0a0808;stroke-miterlimit:10;stroke-width:3px;}.cls-1,.cls-2,.cls-3,.cls-4,.cls-5,.cls-6{fill-rule:evenodd;}.cls-2{fill:#cb5029;}.cls-3{fill:#3086a8;}.cls-4{fill:#eeebea;}.cls-5{fill:#569e37;}.cls-6{fill:#5c5d5d;}</style></defs><title>graphic</title><path class="cls-1" d="M142.12,296.74c-6.24-2.56-13-2.95-19.46-4.43-11.25-2.57-21.86-7-32.54-11.14a7.62,7.62,0,0,1-4.4-4.78,31.08,31.08,0,0,1,1-23.74c3-6.73,7.46-8.67,14.32-6,19.4,7.69,39.07,14.73,57.93,23.71,9.86,4.7,20.54,6.85,30.79,10.32,3.5,1.19,2.91-.77,2.42-2.85-1.54-6.5-2.83-13.07-4.62-19.49-6.26-22.37.7-41.34,14.68-58.61,3.6-4.46,7.35-8.85,10.5-13.62,5.46-8.26,13.27-13.39,21.53-18.41,17.07-10.37,35.33-18.4,53-27.62,14.51-7.59,29-7.38,43.24,1.23a193.55,193.55,0,0,1,17.14,12.14c11.36,8.69,23.89,15.86,33.9,26.3,2.47,2.57,3.69,2,4.39-1.62,2.94-15.18,9.66-28.21,22.25-37.77a31.77,31.77,0,0,1,16.86-6c5.33-.46,7.35-3.11,8-8.14,2.59-20.87,5.37-41.72,8.19-62.56.94-6.94,2.08-13.87,3.35-20.76,1-5.47,3.27-7,8.67-6.46,3.32.36,6.65.74,9.95,1.29,2.67.44,5.55.91,7.18,3.35,3,4.55,7.81,5.76,12.61,6.93,6.08,1.48,7.75,3.56,7.4,9.62-.39,6.8,1.89,10.35,8.25,12.82.45.17.91.29,1.36.47,11.38,4.43,13.82,9.79,9.62,21.06-5.73,15.37-10.53,31.1-17.6,46-1.34,2.82-1.08,5.56,1.39,7.32,7.3,5.21,9.08,12.74,9.28,21,.08,3.37,1.19,5.37,4.8,4.54,10.34-2.38,16.49,3.6,21.06,11.27,11,18.45,21.93,37,30.34,56.81A131.1,131.1,0,0,0,569,257.78c6.86,10.82,11.46,22.73,15.49,34.84,5,14.92,13.28,28.16,20.87,41.77,3.52,6.31,8.79,11.77,8.75,19.68a6.41,6.41,0,0,0,1.14,3.12c6.71,10.8,8.24,23.37,11.14,35.27,3.18,13-1.9,25-9.54,35.87a152,152,0,0,1-40.72,39.14c-7,4.63-12.71,10.54-18.53,16.42-1.83,1.85-3.67,3.53-6.36,3.92-10.62,1.53-19.27,7.3-27.77,13.19a271.15,271.15,0,0,1-29.34,17.84c-12.15,6.32-23.82,13.37-35.36,20.78a121.84,121.84,0,0,1-43.82,17,183.09,183.09,0,0,0-34.15,10.46c-4.91,2-9.16,5.71-14.13,7.89-19.22,8.42-38.32,16.69-59.48,19.95-25.92,4-45.74-5.72-62.67-23.82-6.74-7.21-11.7-15.84-17.47-23.83a73.41,73.41,0,0,0-4.88-6.46c-1.32-1.46-2.9-3.1-2.94-4.81-.15-7.35-5.15-12-8.92-17.42-7.14-10.24-12.38-21.59-17.37-32.94-5.39-12.28-11.51-24.17-17.72-36a273.1,273.1,0,0,1-23.59-61.31c-2-8.15-2-15.42,3.77-22.42,4.92-6,9-12.76,13.13-19.37,4.29-6.86,10.61-11.3,17.2-15.52,1.3-.83,2.94-1.34,3.33-3.62-16.37,2.13-32.63,3.77-48.67,7.2-9.65,2.06-19.44,3.37-29.16,5.09-3.62.64-6.14-.37-7.68-3.93-2-4.67-4.76-9-6.15-14-2-7.2-.2-11.3,6.91-13.71,11.59-3.92,23.26-7.67,35.35-9.8a17.66,17.66,0,0,0,2.28-.71c.55.21,1.33.32,1.41-.3C143.44,296.49,142.59,296.82,142.12,296.74ZM530.83,483c3.7-1.43,7.65-2.25,10.91-4.7,2-.52,4.12-.8,3.12-3.93-3.08-9.7-5.6-19.58-10-28.82q-8.65-18.11-17.14-36.29c-8.48-18.18-16.12-36.75-25.69-54.41-4.41-8.14-10-15.53-15.08-23.23-8.64-13-16.18-26.66-24.06-40.12-12.07-20.61-25.06-40.65-37.85-60.81-8.45-13.32-17.28-26.32-28.7-37.34-2.15-2.08-4.28-3.88-7.52-2.44a102.71,102.71,0,0,0-45.14-5.21c-1.8-.16-3.64-.53-5.25.66.66,2.41,2.53,3.44,4.13,4.7a86.22,86.22,0,0,1,10.83,10c8.43,9.49,17.14,18.74,25.59,28.22,15.44,17.33,30.92,34.63,43.47,54.27,7.11,11.13,13.39,22.8,21.3,33.41a512.52,512.52,0,0,1,38,59.52c8.21,14.93,14.94,30.68,23.15,45.61,10.6,19.27,20.41,38.91,29.68,58.84C526.17,484.39,527.73,485.3,530.83,483ZM399.62,548.42c1.94-.61,4.54-.77,2.6-3.94-2.49-4.07-4.94-8.16-7.5-12.2-7.83-12.37-16.5-24.3-23.38-37.17-12.05-22.54-26.46-43.47-41.07-64.33-3.84-5.47-9.16-10.09-12.15-15.71-4.77-9-9.89-17.77-15-26.53-12.59-21.42-26.75-41.83-40.83-62.28-6.85-9.95-14.62-19.24-20.86-29.64-8.08-13.45-10.73-28.87-16.09-43.3-1.89-5.08-2.7-10.66-6.52-15.06-1.36,1.58-2.54,2.86-2.85,4.67-1.88,4.72-4.62,9-7.11,13.37-3.4,6-6.88,12.09-7.16,19.3-2.39,6.25-.22,11.83,2.74,17.18,6.46,11.7,13.21,23.24,19.55,35,7.12,13.21,16.5,24.91,24.54,37.51,12.07,18.9,24.56,37.54,36.67,56.42,10.91,17,22.11,33.82,32,51.47,5.6,10,10.53,20.46,17,29.83,11.65,16.85,24.31,33,36.41,49.55,2.13,2.92,4.57,4,7.94,3.37ZM337,243.48c6.23-2.52,12.4-7.14,19.15-10.71,3.32-1.76,3.82-3.76,1-6.68-9.33-9.57-18.46-19.33-27.75-28.94-5.87-6.08-13.2-9.32-21.47-10.56-3.93-.59-8-.63-11.67-2.34-6.14-2.84-12.18-2.21-17.89,1C260.77,195,246,208.31,233,223.44a21.47,21.47,0,0,0-4.32,19.86c3.49,12.87,8.06,25.45,12.23,38.13,2.31,7,8.67,8.69,14,3.64a57.22,57.22,0,0,1,19.45-12.73,133.34,133.34,0,0,0,26.32-13.4c3.2-2.09,6.51-4.2,10.24-5.09A102.6,102.6,0,0,0,337,243.48Zm99,237.33c-8.4,2.82-16.55,9.74-25.93,14.49-6.66,3.38-12.93,7.51-19.36,11.31-2,1.18-3.28,2.63-1.79,5,5.53,8.92,10.74,18.06,16.68,26.7,8.53,12.39,7.69,9.42,18.48,4.34,2.23-1,4.32-3.38,7-2.11,3.51,1.65,6.46.65,9.47-1.06,21.18-12,42.23-24.29,63.87-35.48,4.85-2.5,9-6,13.33-9.15,2-1.44,3.2-3.61,2.15-6.29-5-12.73-9-25.85-16.24-37.58-3.28-5.29-3.25-5.34-8.65-2.14C476.28,460,457.27,470.66,436,480.81Zm3.56-243.24a124.94,124.94,0,0,0,26.53-20c1.11-1.11,3.21-2.47.32-3.78-2.49-1.13-3.26-2.81-2.68-5.33.7-3,3.23-2.69,5.37-2.74,4.8-.09,9.51-.44,13.84-2.77.92-.5,2.41-.68,2.13-2.16s-1.74-1-2.75-1c-7.13.28-14.26.67-21.39.89-2.27.07-5.46.51-5.59-2.76-.12-3,2.45-3.91,5.29-4.15a223.54,223.54,0,0,0,25.93-3.25c2.7-.54,5.39-1.14,5.85-4.58.7-5.2,1.68-10.37,2.06-15.59.76-10.12-1.86-14.83-10-18.17-21.93-9-44.57-9.15-67.46-4.95-4.29.79-7.83,3.35-10.74,6.7-8.08,9.33-12,20.44-14,32.4a5.91,5.91,0,0,0,1.2,4.92c11.62,14.33,21.78,29.72,32.37,44.8C430.21,242.46,430.38,242.35,439.53,237.56Zm46.3,179.13-.2.1c-3.1-6.12-6.29-12.19-9.27-18.35-1.36-2.81-2.62-3.9-5.76-1.89-6,3.87-12.36,7.25-18.5,10.94-29.52,17.72-59.84,33.91-91.47,47.57-2.37,1-3.33,2-2.08,4.6a441.58,441.58,0,0,0,21.73,38.73c1.56,2.53,3.34,2.54,5.52.79a51.71,51.71,0,0,1,6.51-4.81Q420.6,478.3,450,464.48a462.29,462.29,0,0,0,43.95-24c2.2-1.34,2.68-2.64,1.41-5C492.08,429.25,489,422.95,485.83,416.69Zm-109.72-32.1c24.69-12.65,44.41-22.66,63.31-34.24,6.41-3.93,6.87-6.31,2.28-13.26-4.45-6.74-9.34-13.18-13.25-20.3-1.51-2.75-3.61-3.73-7.15-2.61a168,168,0,0,0-18.63,7.29c-10.43,4.72-21.27,8.59-31.33,14.11-16.27,8.91-32,18.84-47.78,28.5-6,3.64-12.16,6.94-18.31,10.3-2.69,1.47-3.25,3.65-1.77,6,5.91,9.23,12,18.33,18,27.52.88,1.35,1.53,1.49,3,.81C343.56,400.18,362.77,392,376.11,384.59Zm-77.34-66.21-21.7,11c-2.31,1.17-3.67,2.82-2,5.32q10.11,15.33,20.38,30.54c1.49,2.22,3.26,2.84,6,1.46,15.57-7.72,30.44-16.6,45.15-25.8a328.37,328.37,0,0,1,33.21-18.71c11.23-5.33,22.91-9.53,34.25-14.56,3.49-1.55,5.38-3.36,2.81-7.18q-8.79-13.05-17.5-26.17c-1.87-2.79-4-3.55-7.27-1.9C361.15,288,329.75,302.8,298.76,318.38Zm40.54,92.33c-2.27,1.15-4.49,2.42-6.83,3.43-3.24,1.39-3.9,3.51-2.17,6.46a217.8,217.8,0,0,0,19.06,27.91c1.59,1.93,2.67,2.15,4.65.92a82.21,82.21,0,0,1,9.51-5.44c13.61-6.18,27.51-11.73,40.91-18.33,22-10.81,42.71-24,63.78-36.43,2.5-1.47,2.37-2.82,1.18-5Q461.88,370.7,454.52,357c-2.92-5.43-3.09-5.8-8.2-2.66-19.61,12.08-40.88,21.19-60.14,33.87a23.49,23.49,0,0,1-3.61,2.3C367.86,396.65,354.13,404.86,339.3,410.71Zm203.93,3.77c22.17-11,41.56-25.76,59.25-42.94,4.41-4.28,5.41-8.94,3.16-14.71-4.31-11-10.85-20.84-16.88-30.92-1.8-3-4-2.62-6.23-.39-10.46,10.22-23.13,17.31-35.38,25-11,6.92-22,13.95-33.12,20.82-3.31,2.05-4.15,5-2.75,8.19,5.44,12.56,11.07,25,16.72,37.49,1.27,2.82,3.46,3.52,6.29,2S540.25,416,543.24,414.47ZM334.39,526c6.33-3.07,6.33-3.07,2.83-8.78-.17-.27-.31-.56-.48-.83-6.61-10.49-13.35-20.91-19.42-31.74-2.54-4.54-4.42-4.84-8.93-2.53a24.34,24.34,0,0,1-6.17,2.48c-27.45,5.24-52,17.7-76.16,30.9-5,2.73-5.34,3.69-2.3,8.48,4.76,7.52,9.8,14.87,14.54,22.41s4.77,7.92,13.3,5.35c16.58-5,32.79-11.13,49.55-15.6C312.33,533.17,323.68,530.6,334.39,526ZM534.17,211.59c-5.59-9.47-9.67-17.41-14.8-24.73-2.73-3.9-4.8-4.19-7.86-.51C495.84,205.21,476,219.53,458,235.9c-5.76,5.25-13.16,8.33-19,13.54-2.13,1.88-3.06,3.65-1.32,6.13,5.86,8.34,11.23,17,16.32,25.84,1.7,3,3.33,3.46,6.36,1.47,11.3-7.44,22.9-14.42,34.15-21.94,13.95-9.33,26.6-20.13,37-33.54C535.92,221.6,538.34,216.23,534.17,211.59Zm-20.66,96A120.53,120.53,0,0,0,487,323.49c-3.63,2.8-3.94,5.19-1.41,8.7,6.62,9.21,11.37,19.51,17,29.31,2.84,5,2.95,5,7.91,2.33,14.46-7.74,27.75-17.41,42.22-25.18a115.94,115.94,0,0,0,25.47-19.12c3.12-3,4.71-6.27,3-10.64-4.19-11-8.26-22-12.47-33-1.78-4.66-3-5.05-6.69-1.76C547.21,287.28,531.53,299.12,513.51,307.59ZM188.84,423.78c-2.84,1.44-5.63,3-8.54,4.3s-3.77,2.78-2.31,5.93c4.54,9.81,8.72,19.78,13.19,29.63,1.3,2.87,3.33,4.59,6.81,2.66,18.64-10.38,39.58-14.59,59.34-21.95,8.34-3.1,16.38-6.93,23.2-12.85,1.94-1.69,4.13-3.74,2.13-6.49-7.26-10-14.07-20.36-20.86-30.72-1.38-2.11-3.25-2.69-5.75-1.42C234,404,210.81,412.53,188.84,423.78ZM549.55,421c-4.16,2.11-7.21,3.91-10.44,5.22-3.91,1.6-4.26,3.95-2.73,7.54,5,11.69,9.82,23.43,14,35.45,1.88,5.42,4.09,6,8.69,2.38l17.44-13.93c14.7-11.74,28.12-24.62,37-41.51,4.06-7.7,5.87-15.83,3.19-24.38-1.17-3.75-3.06-7.2-3.66-11.23-.88-6-2.73-6.7-7.12-2.27-6.81,6.85-13.63,13.55-21.44,19.35C572.87,406.26,561.88,415.68,549.55,421ZM304.11,474.75c6.25-2.67,6.39-2.75,2.72-8.78-5.63-9.23-11.55-18.28-17.15-27.52-2-3.23-3.59-2.1-5.6-.31-7.63,6.74-16.64,11.09-26.13,14.33-18.82,6.43-37.32,13.67-55.69,21.25-3,1.22-4.09,2.67-2.51,5.75,4.44,8.64,8.84,17.28,13.9,25.58,2.43,4,4.8,5,8.87,2.46,10.72-6.64,22.6-10.9,34.07-16,8.85-3.9,17.65-8.08,27.15-10.35C290.68,479.55,297.7,478.1,304.11,474.75Zm-107.64-213c7.09-9.92,11.33-21.52,18.62-31.43,15.19-20.64,34.64-36.73,54.64-52.26,8-6.21,17-8.2,26.95-4.19,8.5,3.42,17.41,3.64,26.31,1.45a63.28,63.28,0,0,1,23.21-1.61,37.29,37.29,0,0,0,5.71.08c1.08,0,2.45.09,3-1.09.73-1.67-1-2.13-1.87-2.88-6.65-5.71-14-10.56-21-15.75-8.92-6.58-18.52-9.31-29.61-8-7.9.93-14.2,4.55-20.86,8.54-15.34,9.21-30.16,19.42-46.89,26.16a13,13,0,0,0-4.47,2.69c-13.05,13.51-25.82,27.27-33.77,44.65a18.64,18.64,0,0,0-2.14,8.27C194.56,244.91,194.62,253.49,196.46,261.71ZM366.18,566.39c3.55-1.11,4.28-2.48,1.85-5.74-5-6.74-9.39-14-14.21-20.85-6.59-9.43-7.55-9.61-18.25-4.79-.15.06-.28.15-.43.21-10.9,4-21.16,9.73-32.45,12.52-16.76,4.14-33.37,8.79-49.93,13.67-1.24.37-2.51.47-2.92,2-.48,1.79,1.14,2.15,2,2.82,6.59,5,13.28,9.85,19.89,14.8,3.54,2.64,7.55,4.55,11.86,4.63,11.72.2,23.66,1.24,35.08-1.6C335.2,580,350.93,573.49,366.18,566.39Zm189.14-313c-3.09-6.1-6.16-12.2-9.28-18.28-4-7.87-5.39-8.1-10.33-.95-9.8,14.18-22.77,24.95-36.79,34.57-10.86,7.44-21.87,14.66-32.87,21.9-3.28,2.16-3.93,4.6-2,8,2.78,4.82,5.37,9.75,8,14.67,3,5.64,3,5.61,9.07,2.93a135,135,0,0,0,19.45-11.1c5.9-3.88,12.79-5.76,18.63-9.56,11.16-7.25,21.69-15.41,32.39-23.31C562.13,264.48,561.8,265.13,555.32,253.35ZM252,387.29c3.37-.78,3.32-2.26,1.54-4.77-5-7.13-9.89-14.41-14.8-21.64-3.58-5.25-4-5.3-9.59-2.63-20.38,9.71-40.81,19.3-62.28,26.45-4.28,1.42-5.29,4.11-4.1,8.1,2.31,7.76,4.72,15.49,6.88,23.29,1.13,4.09,3.12,5,7,3.2,6.78-3.13,13.75-5.85,20.58-8.87C215.35,402.39,233.31,393.85,252,387.29ZM109.05,316.6c-2.83,1.68-4,3.69-3.33,6.61,1.2,5.28,4.72,7.41,10.9,6.39,16.42-2.72,32.39-7.76,49.14-8.84,12.67-.81,25.16-3.36,37.68-5.45,5.1-.85,6.06-3.76,2.95-8a12.49,12.49,0,0,0-11.89-5.47c-9,.7-18.09,1.27-27.14,1.44C146.82,303.68,128.11,311.78,109.05,316.6Zm86.31-23.23a10.4,10.4,0,0,0-6.4-4.11c-8.29-2.25-16.71-4-24.68-7.43-20.65-8.83-41.1-18.17-62.55-25-3.44-1.09-6.65-1.83-8.22,2.67-2,5.73-.32,11.89,3.45,13.42a309.91,309.91,0,0,0,54,16c12.45,2.57,24.57,6.8,37.5,6.71C190.9,295.58,193.22,295.41,195.37,293.38ZM462.44,48.44a4.12,4.12,0,0,0-3.7-1.67c-5.44.06-8.19,2.38-9.39,9.22-4.32,24.61-5.71,49.61-9.95,74.23-.67,3.9,1.49,5.53,5.4,5,3.34-.48,4.3-2.86,4.84-5.66,1.3-6.72,2.72-13.41,3.9-20.15,3.26-18.63,8.46-36.92,9.7-55.9C463.33,52.09,463.86,50.64,462.44,48.44Zm1.51,86.85c2.28-1,3.07-3.1,3.76-5.25,7-21.78,10.28-44.37,14.79-66.7.79-3.9-.77-6.54-4.91-7.23s-6.19,1.16-7.1,5.13c-5.18,22.85-9,46-13.32,69-.36,1.91-.76,4,1.23,5.17C460.17,136.45,462.12,136,463.95,135.29Zm18,4.49a6.06,6.06,0,0,0,2.67-3.54c5.54-14.24,11.16-28.45,16.61-42.72,2.41-6.32,1.14-9.47-4.66-12.93-4.77-2.84-6.64-2.19-8.21,3.27-4.81,16.67-9.51,33.37-14.25,50.06-.49,1.73-1.11,3.68.75,4.75A9,9,0,0,0,481.94,139.78ZM298.76,306.48l-.14-1.15-46-7.29c-.76-.12-1.61-.5-2.18.31s-.24,1.71.38,2.56q7.26,10,14.42,20.14c1.47,2.06,3.26,2.36,5.38,1.18Zm77.7-59.37q-4.76,12.73-9.5,25.44c-.26.69-.71,1.49,0,2.22s1.5.24,2.16-.1c6.51-3.3,13.44-5.76,19.52-9.93,2.3-1.57,2.48-3,.55-4.94C384.69,255.36,380.23,250.88,376.47,247.11Z"/><path class="cls-2" d="M201.66,275.59c.28-7.21,3.76-13.3,7.16-19.3,2.49-4.4,5.24-8.65,7.11-13.37a8.7,8.7,0,0,1,3.45,4.43c2,6.38,4.22,12.68,6,19.12,4.39,16.3,11.05,31.43,21.19,45.06,19.85,26.69,38.12,54.45,55.62,82.75,6.2,10,10.7,20.93,18.52,30.3,11.35,13.62,20.81,28.89,30.45,43.87,7.58,11.75,13.93,24.29,21.34,36.15,9.09,14.57,18.82,28.75,27.17,43.8l-21.11,7.5c-3.86-5-7.86-10-11.57-15.12-10.32-14.32-22.29-27.5-31.16-42.77-11.75-20.22-22.86-40.8-35.66-60.42q-23.61-36.19-47-72.51c-10.5-16.31-22.21-31.81-31.18-49.15C215,302.56,207,289.76,201.66,275.59Z"/><path class="cls-2" d="M333.67,185.7a102.71,102.71,0,0,1,45.14,5.21c-.48.64-.21.9.37,1.42a111.71,111.71,0,0,1,17,18c18.32,25.28,34.38,52,50.61,78.69,9,14.81,17.13,30.17,26.78,44.62,7.15,10.71,14.78,21.14,20.19,32.95,9.82,21.41,19.59,42.85,29.79,64.09,7.38,15.4,14.13,31,18.21,47.61-3.26,2.45-7.21,3.27-10.91,4.7-1.52-1.07-2.11-2.75-2.87-4.32-6-12.5-11.53-25.24-18.14-37.4-8.07-14.84-16.12-29.68-23.51-44.87q-7.22-14.83-15.2-29.27c-16.47-29.92-37.28-57-55.67-85.69-22.38-34.91-51-65-80.76-93.77C334.11,187.12,333.47,186.63,333.67,185.7Z"/><path class="cls-3" d="M436,480.81c21.3-10.15,40.31-20.81,59.06-31.95,5.4-3.21,5.37-3.15,8.65,2.14,7.27,11.74,11.28,24.86,16.24,37.58,1,2.67-.16,4.85-2.15,6.29-4.37,3.15-8.49,6.65-13.33,9.15-21.64,11.19-42.69,23.45-63.87,35.48-3,1.72-6,2.71-9.47,1.06-2.72-1.28-4.81,1.07-7,2.11-10.79,5.09-10,8.06-18.48-4.34-5.94-8.63-11.15-17.77-16.68-26.7-1.49-2.39-.2-3.85,1.79-5,6.43-3.8,12.71-7.94,19.36-11.31C419.42,490.55,427.57,483.62,436,480.81Z"/><path class="cls-4" d="M439.53,237.56c-9.15,4.78-9.32,4.9-13.78-1.45C415.17,221,405,205.65,393.39,191.32a5.91,5.91,0,0,1-1.2-4.92c2-12,5.93-23.07,14-32.4,2.91-3.36,6.45-5.92,10.74-6.7,22.89-4.2,45.53-4,67.46,4.95,8.18,3.34,10.8,8.05,10,18.17-.39,5.22-1.37,10.39-2.06,15.59-.46,3.44-3.16,4-5.85,4.58a223.54,223.54,0,0,1-25.93,3.25c-2.84.23-5.41,1.19-5.29,4.15.13,3.27,3.32,2.82,5.59,2.76,7.13-.21,14.26-.61,21.39-.89,1,0,2.45-.58,2.75,1s-1.21,1.66-2.13,2.16c-4.33,2.33-9,2.67-13.84,2.77-2.13,0-4.66-.31-5.37,2.74-.58,2.52.18,4.19,2.68,5.33,2.89,1.31.79,2.67-.32,3.78A124.94,124.94,0,0,1,439.53,237.56Z"/><path class="cls-2" d="M485.83,416.69c3.17,6.25,6.25,12.55,9.57,18.73,1.28,2.38.79,3.67-1.41,5a462.29,462.29,0,0,1-43.95,24q-29.43,13.76-57.72,29.88a51.71,51.71,0,0,0-6.51,4.81c-2.18,1.75-4,1.74-5.52-.79a441.58,441.58,0,0,1-21.73-38.73c-1.26-2.6-.29-3.58,2.08-4.6,31.62-13.67,61.95-29.85,91.47-47.57,6.14-3.69,12.47-7.07,18.5-10.94,3.14-2,4.4-.92,5.76,1.89,3,6.16,6.17,12.23,9.27,18.35Z"/><path class="cls-3" d="M376.11,384.59c-13.34,7.45-32.55,15.58-51.59,24.09-1.51.67-2.15.54-3-.81-6-9.19-12.1-18.29-18-27.52-1.48-2.31-.92-4.5,1.77-6,6.15-3.35,12.34-6.65,18.31-10.3,15.83-9.67,31.51-19.59,47.78-28.5,10.07-5.52,20.9-9.39,31.33-14.11a168,168,0,0,1,18.63-7.29c3.54-1.12,5.64-.14,7.15,2.61,3.91,7.12,8.8,13.56,13.25,20.3,4.59,7,4.13,9.33-2.28,13.26C420.52,361.93,400.8,371.95,376.11,384.59Z"/><path class="cls-2" d="M298.76,318.38c31-15.58,62.38-30.36,93.35-46,3.27-1.65,5.4-.89,7.27,1.9q8.74,13.09,17.5,26.17c2.57,3.82.68,5.63-2.81,7.18-11.34,5-23,9.23-34.25,14.56a328.37,328.37,0,0,0-33.21,18.71c-14.71,9.2-29.59,18.08-45.15,25.8-2.79,1.38-4.55.76-6-1.46Q285.16,350,275,334.7c-1.64-2.5-.28-4.16,2-5.32Z"/><path class="cls-5" d="M339.3,410.71c14.83-5.85,28.55-14.05,43.26-20.15a23.49,23.49,0,0,0,3.61-2.3c19.26-12.67,40.53-21.79,60.14-33.87,5.11-3.14,5.28-2.77,8.2,2.66q7.34,13.67,14.88,27.21c1.19,2.14,1.31,3.49-1.18,5-21.07,12.48-41.78,25.62-63.78,36.43C391,432.25,377.13,437.8,363.52,444a82.21,82.21,0,0,0-9.51,5.44c-2,1.24-3.07,1-4.65-.92a217.8,217.8,0,0,1-19.06-27.91c-1.73-2.94-1.07-5.07,2.17-6.46C334.81,413.13,337,411.86,339.3,410.71Z"/><path class="cls-2" d="M543.24,414.47c-3,1.51-6,3-8.95,4.56s-5,.79-6.29-2c-5.65-12.46-11.28-24.93-16.72-37.49-1.4-3.23-.55-6.13,2.75-8.19,11.08-6.88,22.07-13.9,33.12-20.82,12.25-7.68,24.93-14.77,35.38-25,2.27-2.23,4.44-2.61,6.23.39,6,10.08,12.57,19.88,16.88,30.92,2.25,5.77,1.25,10.44-3.16,14.71C584.8,388.71,565.41,403.5,543.24,414.47Z"/><path class="cls-2" d="M334.39,526c-10.71,4.59-22.05,7.16-33.24,10.14-16.76,4.47-33,10.62-49.55,15.6-8.52,2.57-8.49,2.28-13.3-5.35s-9.79-14.89-14.54-22.41c-3-4.8-2.68-5.76,2.3-8.48,24.2-13.2,48.71-25.66,76.16-30.9a24.34,24.34,0,0,0,6.17-2.48c4.51-2.31,6.39-2,8.93,2.53,6.07,10.83,12.81,21.25,19.42,31.74.17.27.31.56.48.83C340.71,522.94,340.71,522.94,334.39,526Z"/><path class="cls-2" d="M534.17,211.59c4.18,4.64,1.75,10-2.72,15.8-10.36,13.41-23,24.2-37,33.54-11.25,7.52-22.85,14.5-34.15,21.94-3,2-4.66,1.48-6.36-1.47-5.09-8.84-10.46-17.5-16.32-25.84-1.74-2.48-.81-4.24,1.32-6.13,5.88-5.21,13.28-8.29,19-13.54,18-16.38,37.83-30.7,53.5-49.55,3.06-3.68,5.12-3.39,7.86.51C524.5,194.19,528.58,202.12,534.17,211.59Z"/><path class="cls-5" d="M513.51,307.59c18-8.47,33.71-20.31,48.51-33.47,3.7-3.3,4.9-2.9,6.69,1.76,4.21,11,8.28,22,12.47,33,1.66,4.37.08,7.61-3,10.64a115.94,115.94,0,0,1-25.47,19.12c-14.46,7.77-27.75,17.44-42.22,25.18-5,2.67-5.06,2.63-7.91-2.33-5.61-9.8-10.37-20.09-17-29.31-2.52-3.51-2.22-5.9,1.41-8.7A120.53,120.53,0,0,1,513.51,307.59Z"/><path class="cls-3" d="M188.84,423.78C210.81,412.53,234,404,256,392.87c2.5-1.27,4.37-.69,5.75,1.42,6.79,10.36,13.6,20.69,20.86,30.72,2,2.75-.18,4.8-2.13,6.49-6.82,5.92-14.86,9.75-23.2,12.85-19.77,7.36-40.7,11.56-59.34,21.95-3.48,1.94-5.51.21-6.81-2.66-4.47-9.85-8.66-19.82-13.19-29.63-1.46-3.15-.52-4.66,2.31-5.93S186,425.22,188.84,423.78Z"/><path class="cls-3" d="M549.55,421c12.33-5.37,23.32-14.79,34.91-23.38,7.8-5.8,14.63-12.5,21.44-19.35,4.39-4.43,6.24-3.71,7.12,2.27.59,4,2.49,7.48,3.66,11.23,2.68,8.55.87,16.68-3.19,24.38-8.9,16.89-22.32,29.78-37,41.51L559,471.63c-4.6,3.66-6.81,3-8.69-2.38-4.14-12-9-23.75-14-35.45-1.53-3.6-1.18-5.94,2.73-7.54C542.34,425,545.39,423.16,549.55,421Z"/><path class="cls-5" d="M304.11,474.75c-6.41,3.35-13.42,4.79-20.37,6.45-9.5,2.27-18.3,6.45-27.15,10.35-11.47,5.06-23.35,9.32-34.07,16-4.07,2.52-6.44,1.52-8.87-2.46-5.07-8.31-9.46-16.95-13.9-25.58-1.58-3.08-.45-4.53,2.51-5.75,18.37-7.58,36.87-14.82,55.69-21.25,9.49-3.24,18.5-7.59,26.13-14.33,2-1.78,3.64-2.92,5.6.31,5.6,9.24,11.52,18.29,17.15,27.52C310.49,472,310.35,472.09,304.11,474.75Z"/><path class="cls-2" d="M196.46,261.71c-1.84-8.21-1.9-16.8-2.2-25.34a18.64,18.64,0,0,1,2.14-8.27c8-17.38,20.71-31.14,33.77-44.65a13,13,0,0,1,4.47-2.69c16.74-6.74,31.56-17,46.89-26.16,6.66-4,13-7.61,20.86-8.54,11.09-1.31,20.69,1.42,29.61,8,7,5.19,14.35,10,21,15.75.88.75,2.59,1.21,1.87,2.88-.52,1.18-1.88,1.06-3,1.09a37.29,37.29,0,0,1-5.71-.08A63.28,63.28,0,0,0,323,175.29c-8.9,2.19-17.81,2-26.31-1.45-10-4-19-2-26.95,4.19-20,15.52-39.45,31.62-54.64,52.26C207.79,240.19,203.55,251.78,196.46,261.71Z"/><path class="cls-3" d="M366.18,566.39c-15.25,7.1-31,13.6-47.47,17.68-11.42,2.84-23.36,1.8-35.08,1.6-4.31-.08-8.32-2-11.86-4.63-6.62-5-13.3-9.82-19.89-14.8-.89-.67-2.51-1-2-2.82.41-1.54,1.68-1.64,2.92-2,16.55-4.88,33.17-9.53,49.93-13.67,11.29-2.79,21.55-8.54,32.45-12.52.15-.06.29-.14.43-.21,10.7-4.83,11.66-4.64,18.25,4.79,4.82,6.9,9.2,14.11,14.21,20.85C370.46,563.91,369.73,565.28,366.18,566.39Z"/><path class="cls-3" d="M555.32,253.35c6.48,11.78,6.81,11.13-3.72,18.9-10.71,7.91-21.23,16.06-32.39,23.31-5.85,3.8-12.73,5.69-18.63,9.56a135,135,0,0,1-19.45,11.1c-6.1,2.68-6.09,2.71-9.07-2.93-2.6-4.92-5.18-9.85-8-14.67-2-3.43-1.32-5.87,2-8,11-7.23,22-14.45,32.87-21.9,14-9.62,27-20.39,36.79-34.57,4.95-7.15,6.29-6.92,10.33.95C549.16,241.15,552.23,247.26,555.32,253.35Z"/><path class="cls-2" d="M252,387.29c-18.65,6.56-36.61,15.1-54.77,23.14-6.83,3-13.8,5.74-20.58,8.87-3.88,1.79-5.87.89-7-3.2-2.16-7.8-4.57-15.53-6.88-23.29-1.19-4-.18-6.68,4.1-8.1,21.46-7.15,41.9-16.74,62.28-26.45,5.59-2.67,6-2.62,9.59,2.63,4.91,7.23,9.76,14.5,14.8,21.64C255.28,385,255.33,386.51,252,387.29Z"/><path class="cls-5" d="M109.05,316.6c19.05-4.83,37.77-12.92,58.31-13.3,9.05-.17,18.11-.73,27.14-1.44a12.49,12.49,0,0,1,11.89,5.47c3.11,4.21,2.15,7.12-2.95,8-12.52,2.09-25,4.64-37.68,5.45-16.75,1.07-32.72,6.12-49.14,8.84-6.18,1-9.7-1.11-10.9-6.39C105.05,320.29,106.22,318.28,109.05,316.6Z"/><path class="cls-4" d="M399.62,548.42c-8.35-15-18.07-29.22-27.17-43.8-7.41-11.87-13.76-24.4-21.34-36.15-9.64-15-19.1-30.25-30.45-43.87-7.81-9.37-12.32-20.26-18.52-30.3-17.5-28.3-35.76-56.06-55.62-82.75-10.14-13.63-16.8-28.76-21.19-45.06-1.73-6.44-4-12.75-6-19.12a8.7,8.7,0,0,0-3.45-4.43c.3-1.82,1.49-3.1,2.85-4.68,3.82,4.4,4.63,10,6.52,15.06,5.35,14.44,8,29.85,16.09,43.3,6.24,10.4,14,19.69,20.86,29.64,14.08,20.45,28.24,40.86,40.83,62.28,5.15,8.76,10.27,17.54,15,26.53,3,5.63,8.31,10.24,12.15,15.71,14.61,20.86,29,41.79,41.07,64.33,6.88,12.88,15.55,24.8,23.38,37.17,2.56,4,5,8.13,7.5,12.2C404.16,547.65,401.56,547.81,399.62,548.42Z"/><path class="cls-4" d="M333.67,185.7c-.2.94.44,1.43,1,2,29.8,28.78,58.37,58.86,80.76,93.77,18.39,28.68,39.2,55.77,55.67,85.69q8,14.47,15.2,29.27c7.39,15.19,15.44,30,23.51,44.87,6.61,12.16,12.14,24.9,18.14,37.4.76,1.57,1.35,3.26,2.87,4.32-3.1,2.3-4.66,1.39-6.28-2.08-9.27-19.92-19.08-39.56-29.68-58.84-8.21-14.93-14.94-30.68-23.15-45.61a512.52,512.52,0,0,0-38-59.52c-7.91-10.61-14.19-22.28-21.3-33.41-12.55-19.64-28-36.94-43.47-54.27-8.45-9.48-17.16-18.73-25.59-28.22a86.22,86.22,0,0,0-10.83-10c-1.6-1.27-3.47-2.3-4.13-4.7C330,185.17,331.87,185.54,333.67,185.7Z"/><path class="cls-5" d="M195.37,293.38c-2.15,2-4.46,2.2-6.92,2.22-12.93.09-25.05-4.14-37.5-6.71a309.91,309.91,0,0,1-54-16c-3.77-1.53-5.43-7.69-3.45-13.42,1.57-4.5,4.78-3.77,8.22-2.67,21.45,6.83,41.91,16.17,62.55,25,8,3.41,16.39,5.18,24.68,7.43A10.4,10.4,0,0,1,195.37,293.38Z"/><path class="cls-4" d="M541.74,478.3c-4.08-16.63-10.83-32.22-18.21-47.61-10.19-21.24-20-42.68-29.79-64.09-5.42-11.81-13-22.23-20.19-32.95-9.65-14.45-17.75-29.81-26.78-44.62-16.23-26.64-32.29-53.41-50.61-78.69a111.71,111.71,0,0,0-17-18c-.58-.52-.86-.78-.37-1.42,3.24-1.44,5.37.37,7.52,2.44,11.43,11,20.26,24,28.7,37.34,12.79,20.17,25.78,40.2,37.85,60.81,7.88,13.46,15.42,27.12,24.06,40.12,5.11,7.69,10.67,15.09,15.08,23.23,9.57,17.66,17.21,36.23,25.69,54.41q8.48,18.19,17.14,36.29c4.41,9.24,6.93,19.11,10,28.82C545.86,477.51,543.76,477.78,541.74,478.3Z"/><path class="cls-4" d="M201.66,275.59c5.33,14.17,13.36,27,20.28,40.35,9,17.34,20.67,32.84,31.18,49.15q23.4,36.32,47,72.51C312.92,457.22,324,477.8,335.78,498c8.87,15.28,20.84,28.46,31.16,42.77,3.71,5.14,7.71,10.09,11.57,15.12-3.38.6-5.81-.44-7.94-3.37C358.48,536,345.82,519.85,334.17,503c-6.49-9.37-11.42-19.84-17-29.83-9.88-17.65-21.09-34.47-32-51.47-12.11-18.88-24.6-37.52-36.67-56.42-8-12.59-17.42-24.3-24.54-37.51-6.34-11.77-13.08-23.31-19.55-35C201.44,287.42,199.27,281.84,201.66,275.59Z"/><path class="cls-5" d="M462.44,48.44c1.42,2.2.89,3.65.8,5-1.24,19-6.44,37.27-9.7,55.9-1.18,6.74-2.59,13.43-3.9,20.15-.54,2.8-1.5,5.18-4.84,5.66-3.92.57-6.08-1.06-5.4-5C443.64,105.6,445,80.6,449.35,56c1.2-6.84,3.95-9.17,9.39-9.22A4.12,4.12,0,0,1,462.44,48.44Z"/><path class="cls-5" d="M464,135.29c-1.84.68-3.78,1.16-5.53.1-2-1.21-1.59-3.26-1.23-5.17,4.27-23,8.13-46.13,13.32-69,.91-4,3-5.81,7.1-5.13s5.7,3.33,4.91,7.23c-4.52,22.32-7.83,44.92-14.79,66.7C467,132.19,466.23,134.27,464,135.29Z"/><path class="cls-5" d="M481.94,139.78a9,9,0,0,1-7.09-1.11c-1.86-1.07-1.25-3-.75-4.75,4.74-16.69,9.44-33.39,14.25-50.06,1.58-5.47,3.45-6.12,8.21-3.27,5.8,3.46,7.07,6.61,4.66,12.93-5.45,14.27-11.07,28.48-16.61,42.72A6.06,6.06,0,0,1,481.94,139.78Z"/><path class="cls-4" d="M298.76,306.48,270.6,322.23c-2.12,1.18-3.92.87-5.38-1.18Q258,311,250.79,300.91c-.62-.85-1-1.64-.38-2.56s1.43-.43,2.18-.31l46,7.29Z"/><path class="cls-4" d="M376.47,247.11c3.77,3.77,8.22,8.25,12.71,12.7,1.93,1.92,1.75,3.36-.55,4.94-6.08,4.17-13,6.63-19.52,9.93-.66.34-1.42.86-2.16.1s-.25-1.53,0-2.22Q371.68,259.83,376.47,247.11Z"/><path class="cls-6" d="M142.12,296.74c.47.07,1.32-.26,1.22.53-.08.62-.86.51-1.41.3C142,297.3,142.05,297,142.12,296.74Z"/></svg>