<svg id="圖層_1" data-name="圖層 1" xmlns="http://www.w3.org/2000/svg" viewBox="0 0 197.82 186.02"><defs><style>.cls-1,.cls-14{fill:#070304;stroke-miterlimit:10;}.cls-1{stroke:#090405;stroke-width:2px;}.cls-1,.cls-10,.cls-11,.cls-12,.cls-13,.cls-14,.cls-2,.cls-3,.cls-4,.cls-5,.cls-6,.cls-7,.cls-8,.cls-9{fill-rule:evenodd;}.cls-2{fill:#d1af85;}.cls-3{fill:#fff;}.cls-4{fill:#fefefe;}.cls-5{fill:#ae352a;}.cls-6{fill:#d3b13f;}.cls-7{fill:#d1b041;}.cls-8{fill:#3885a3;}.cls-9{fill:#ad372b;}.cls-10{fill:#ad382b;}.cls-11{fill:#3984a3;}.cls-12{fill:#ceac84;}.cls-13{fill:#7e5848;}.cls-14{stroke:#231815;}</style></defs><title>graphic</title><path class="cls-1" d="M165.72,80.61c2.25.56,4.32,1.07,6.39,1.6a10.36,10.36,0,0,1,2.11.68,1,1,0,0,1,.49,1.55A4.11,4.11,0,0,1,173.35,86l-6.91,5.19c-.13.1-.25.22-.45.4,1.82.61,3.56,1.19,5.3,1.79a14.33,14.33,0,0,1,1.73.72,1,1,0,0,1,.51,1.5,6.82,6.82,0,0,1-2.41,2.61,9.51,9.51,0,0,1-6.71,2.56,1.53,1.53,0,0,0-.5.08c-.46.14-1.08.16-1.34.47s.33.73.46,1.15a4.5,4.5,0,0,1,0,2.69c-.34,1.06-.75,2.09-1.15,3.13a2.77,2.77,0,0,0,.52,3.1,1.69,1.69,0,0,1,.37,1.6,10.94,10.94,0,0,1-1,2.83,4.16,4.16,0,0,0,0,3.85,51.36,51.36,0,0,1,4.05,12.93,44.36,44.36,0,0,1,.43,7.59c0,1.4,0,2.8,0,4.2s-.9,2.16-2.32,1.72a4.23,4.23,0,0,1-2.66-1.53,2.61,2.61,0,0,0-2-.94c-.14,0-.29,0-.43,0a4,4,0,0,0-4,1.67c-1.88,2.45-4.85,2.21-6.78-.22a.87.87,0,0,0-.6-.42,3.34,3.34,0,0,0-3.2,1.7c-.76,1.57-1.53,1.91-3.2,1.33a8.54,8.54,0,0,1-1.29-.66,1.78,1.78,0,0,0-1.63-.21,2.36,2.36,0,0,1-1.75.07c-2.41-.8-4.55-1.94-5.15-4.71A22.34,22.34,0,0,1,131,139c-.2-2.76-.23-5.53-.42-8.29a12.4,12.4,0,0,1,.18-4,4.86,4.86,0,0,0-.18-2.45,3.28,3.28,0,0,1,0-1.93,5.2,5.2,0,0,0-.33-3.59c-.56-1.4-1.39-2.69-1.82-4.15a1,1,0,0,0-1.08-.67c-.65,0-.9.58-1,1a23.48,23.48,0,0,0-.37,2.79c0,.3.22.36.43.45a4.9,4.9,0,0,1,3.22,4.07,13.73,13.73,0,0,1,.07,3.42c-.21,1.94-2.81,4.21-4.76,4.16a1.59,1.59,0,0,0-1.59.9,18.09,18.09,0,0,1-9.18,7.74,29.69,29.69,0,0,1-6.51,1.77c-2.23.26-4.46.58-6.7.76a37.7,37.7,0,0,1-4.76.49c-2.25-.11-4.48-.4-6.72-.58a36.66,36.66,0,0,1-4.82-.59,32.32,32.32,0,0,1-10.25-3.66c-2.09-1.28-4-2.74-5-5.14a27.28,27.28,0,0,1-.93-4,1.1,1.1,0,0,0-1-1c-1.76-.32-4.59-2.64-4.43-5.23a17.74,17.74,0,0,1,.68-4.55,2.92,2.92,0,0,1,1.73-1.89,5.51,5.51,0,0,1,3-.75.79.79,0,0,0,1-.84,4.78,4.78,0,0,1,.56-2.13c-.41-.15-.66.09-.9.25-2.1,1.43-4.25,2.78-6.31,4.27a3.6,3.6,0,0,0-1.53,2.9,63.07,63.07,0,0,1-1.55,10.37,45.07,45.07,0,0,1-2.16,6.75,20.2,20.2,0,0,0-.79,2.53c-.55,2-1.55,3.67-3.78,4.23a2.61,2.61,0,0,1-3.37-1.4,2.93,2.93,0,0,1-.2-.38c-.31-.78-.63-1.3-1.72-1-1.51.35-2.39-.84-3.25-1.82-1-1.14-1-1.16-1.89.09-1.23,1.68-1.76,1.83-3.58.93a4.49,4.49,0,0,0-3.85-.37c-2.3.88-3.53.4-3.7-2.75a22,22,0,0,1,0-2.23c0-.55-.2-.72-.71-.66-.17,0-.34,0-.51,0-2.08.27-3.07-.59-3.23-2.7a21.28,21.28,0,0,1,.52-5.34,103.77,103.77,0,0,1,3.21-13.71,7.09,7.09,0,0,1,3.3-4.49,1.19,1.19,0,0,0,.54-1.17,14.23,14.23,0,0,0-.41-3.3,6.21,6.21,0,0,1,1.2-5.23c.36-.48.64-1,1-1.47s.28-.71-.32-.9C34.59,94,33,93.4,31.48,92.83a13,13,0,0,1-4.86-3.27,2.8,2.8,0,0,1-.53-.77c-.57-1.23-.27-1.91,1.05-2.16a22,22,0,0,1,2.8-.3c1.51-.09,3-.12,4.53-.2A7,7,0,0,0,37.19,85a6.42,6.42,0,0,0-1.53-.81c-2.43-1.2-4.9-2.32-7.25-3.69-.82-.48-1.66-1.12-1.44-2.11a2.52,2.52,0,0,1,2.16-1.71c1.57-.33,3.17-.28,4.75-.49a18.24,18.24,0,0,0,3.84-1.14c.57-.21.18-.46,0-.68-1.49-1.95-3-3.89-4.48-5.84C32,67,32.44,65.89,34.4,65.39s4-.66,6.05-1c2.32-.45,4.58-1.17,6.85-1.8a3.36,3.36,0,0,0,2.13-1.67c1.68-2.85,3.35-5.71,5.13-8.5A31.76,31.76,0,0,1,66.83,40.85a69.25,69.25,0,0,1,6.66-2.67c3.75-1.45,7.45-3,11.33-4.11a63.6,63.6,0,0,1,12.57-2.33,49.26,49.26,0,0,1,8.43.35c2.29.23,4.59.41,6.9.55,5.43.33,10.87.54,16.08,2.35a51.65,51.65,0,0,1,15.32,8.38,48.33,48.33,0,0,1,5.16,5.48c1.08,1.18,2.26,2.27,3.28,3.5,1.9,2.3,2.86,5.11,4,7.82a27.08,27.08,0,0,0,3.8,6.77,10.59,10.59,0,0,0,6.13,3.78,9,9,0,0,1,3,1,4.22,4.22,0,0,1,2,3.43,2.07,2.07,0,0,1-1.13,2A37.18,37.18,0,0,0,165.72,80.61ZM38.08,88.19c0-.22,0-.5-.37-.34L32,90.22a11.77,11.77,0,0,0,4.13,1.86c1.14.27,1.7-.08,2-1.15A4.92,4.92,0,0,0,38.08,88.19Zm35.29,24.53c-.14.37-.46.9.18,1a3.79,3.79,0,0,0,2.08-.12,24.15,24.15,0,0,0,2.46-.17c3-.52,6-.88,8.9-1.45a28.24,28.24,0,0,1,9.8,0c3.12.48,6.22,1.09,9.33,1.63,5,.86,9.94,1.69,14.59,3.78a2.65,2.65,0,0,0,2.4-.47,2.93,2.93,0,0,0-.11-2.28,5.34,5.34,0,0,0-2.48-2.15c-2-.82-4-1.73-6-2.55-6.08-2.47-12-5.39-18.71-5.94a6.93,6.93,0,0,0-3.25,0,36.53,36.53,0,0,0-5.3.73,30.43,30.43,0,0,0-11.71,4.67A4.44,4.44,0,0,0,73.37,112.72Zm-1.44,8.66a20.09,20.09,0,0,0,.09,4.35c.37,1.71.44,3.47,1.65,4.94a14.91,14.91,0,0,0,5.23,4,32.07,32.07,0,0,0,12.5,3.1,67.23,67.23,0,0,0,13.14-.57,43,43,0,0,0,8.54-1.89,8.71,8.71,0,0,0,3.51-2.48,63.27,63.27,0,0,0,4.63-5.8,7.46,7.46,0,0,0,1.57-5.67c-.07-.41-.16-.59-.59-.64a16,16,0,0,1-3.86-1c-1.48-.57-2.95-1.18-4.43-1.76a21.28,21.28,0,0,0-7-1.44c-2.93-.12-5.76-1-8.63-1.56a25.81,25.81,0,0,0-12,0c-3.45.95-6.91,1.86-10.41,2.58-1.2.25-2.39.83-3.63.06-.36-.22-.32.16-.32.37C71.93,119.1,71.93,120.24,71.93,121.39ZM91.21,36.21c-.37,0-.74,0-1.11.08a13.54,13.54,0,0,0-1.35.23,73.08,73.08,0,0,0-22.84,9.66A13.56,13.56,0,0,0,62.69,49c-.34.42-.35.68.16,1,1,.59,1.91,1.24,2.86,1.87A12.08,12.08,0,0,1,70,56.08c.93,1.73,1.89,3.44,2.66,5.25C75.43,67.8,76.82,74.63,78,81.5c.53,3,1,6.07,1.5,9.11.05.34.07.64.54.47a30.4,30.4,0,0,1,7.27-1.44c1.35-.15,1.49-.45,1.18-1.75a13.34,13.34,0,0,1-.44-3.29c0-1.77-.05-3.54-.06-5.31,0-5.17-.08-10.34-.07-15.51a94,94,0,0,1,1-10.73,75.59,75.59,0,0,1,3.27-15.43C92.73,36.16,92.73,36.16,91.21,36.21Zm9.37.07c.29.78.53,1.51.82,2.21a11.29,11.29,0,0,1,1,4.72c-.08,2.54,0,5.08-.14,7.62a135.19,135.19,0,0,1-2,17.92C99.11,75.19,98,81.65,96.84,88.1c-.13.71.14.67.62.67,1.71,0,3.43,0,5.14,0,.66,0,.86-.18.76-.82a9.63,9.63,0,0,1,1.34-6.13q3.22-5.92,6.22-12c3.32-6.7,6.9-13.23,11.64-19.05,2.73-3.35,5-7.08,8.73-9.57,0,0,0-.09.08-.17a33.42,33.42,0,0,0-6.9-3.11C116.67,35.47,108.68,35.75,100.58,36.27ZM55.85,57.36c-1.78,2.46-3.79,4.57-5,7.18a182.51,182.51,0,0,0-9.35,23.33,5.87,5.87,0,0,0,.91,5.55A14,14,0,0,0,49,98.29a62.09,62.09,0,0,0,11.74,2.93c1.84.32,3.64.41,5.21-.86,1.31-1.06,2.63-2.1,3.92-3.18a2.13,2.13,0,0,0,.62-2.48,11.82,11.82,0,0,0-.65-1.48c-1.06-2.11-2.21-4.18-3.18-6.33C64.09,81.11,62.18,75.06,60,69.1,58.62,65.26,57.28,61.39,55.85,57.36Zm68.8,41c2.17,2.52,4.19,5.11,6.53,7.41a5.79,5.79,0,0,0,5.89,1.6c1.66-.45,3.34-.71,5-1A25,25,0,0,0,155.54,100c2.65-2.55,4.29-5.44,4.16-9.27-.13-4-.38-8-.82-11.95a52.62,52.62,0,0,0-1.57-6.92c-.27.31-.47.52-.65.74a3.48,3.48,0,0,0-.29.42,38.24,38.24,0,0,1-7.1,8.51,107.2,107.2,0,0,1-15.37,11.1C130.85,94.56,127.76,96.44,124.65,98.37ZM111,89.83c2.1,1,4.14,1.86,6.12,2.85.73.36,1,.18,1.45-.45a37.09,37.09,0,0,1,5-6.79c2.93-2.8,6.05-5.38,9.14-8q10-8.47,20-17c.45-.38.45-.64.15-1.1-.83-1.3-1.65-2.59-2.55-3.84a34.75,34.75,0,0,0-11.17-10.17c-.51-.28-.77-.42-.94.35-.26,1.19-.68,2.35-1.05,3.51-3.94,12.09-10.57,22.63-18.68,32.32C116,84.36,113.55,87.08,111,89.83Zm-3.54-2.1a4.83,4.83,0,0,0,3.28-1.47,57.21,57.21,0,0,0,6.4-6.66c8.22-10,13.56-21.63,18.17-33.63.23-.59-.17-1.66-.76-1.72-1.36-.15-2.79-.46-4,.56a15.42,15.42,0,0,0-2.49,2.7c-2.26,3.05-4,6.4-6,9.63-1.64,2.68-3.72,5-5.38,7.71-2.82,4.54-5.28,9.3-7.75,14a51.64,51.64,0,0,0-2.72,6.15C105.6,86.5,106.21,87.74,107.42,87.73Zm-30.78.14c0-.22,0-.62-.11-1q-.72-5-1.8-9.92a78.24,78.24,0,0,0-4.81-15.72,17.51,17.51,0,0,0-7.15-8.07,2.57,2.57,0,0,0-3.31.14c-.95.8-1.08,1.84-.39,3.44a41.92,41.92,0,0,1,1.65,4C62.5,66.29,64.11,71.89,66,77.41a134.52,134.52,0,0,0,6,14,2.86,2.86,0,0,0,2.9,1.4A2,2,0,0,0,76.43,91C76.53,90,76.56,89,76.63,87.87Zm23.1-45.11a6.24,6.24,0,0,0-2.13-5.08c-1.3-1.05-2.3-.81-2.95.73a30.11,30.11,0,0,0-2.07,7.81c-.47,3.62-.8,7.25-1.14,10.89-.35,3.8-.63,7.61-.91,11.42a111.54,111.54,0,0,0-.07,11.29c.06,2.31.28,4.61.43,6.91,0,.35.08.61.52.61s.68.37,1-.16a27.08,27.08,0,0,0,2.46-4.95,82.25,82.25,0,0,0,2.88-19.13A98.58,98.58,0,0,1,98.7,52,81,81,0,0,0,99.73,42.76Zm24.36,52.43A5.14,5.14,0,0,0,127,94c9-6.59,17.38-13.87,25.81-21.14a13.44,13.44,0,0,0,3.34-5.26c0-.1.11-.28.07-.32-.61-.62-.44-1.48-.67-2.22-.53-1.68-1.17-2-2.67-1a36.64,36.64,0,0,0-4.35,3.17q-11.57,10.1-23.11,20.24a16.19,16.19,0,0,0-3.91,4.93c-.3.6-.55,1.24.11,1.78A4.34,4.34,0,0,0,124.09,95.18ZM52.84,138.72a5.93,5.93,0,0,0,2.5-2.67,32.33,32.33,0,0,0,1.91-6.36c.6-3.3,1.14-6.61,1.72-9.92a1.92,1.92,0,0,0-.67-2c-.5-.42-1-.85-1.48-1.3s-.61-.61-.8.22c-1.19,5.35-2.48,10.69-3.68,16C51.89,134.76,51.15,136.83,52.84,138.72Zm-10.77-26.3c-1.22.38-2.3.73-3.39,1a1,1,0,0,0-.8.85q-.68,2.81-1.46,5.61a70.93,70.93,0,0,0-2.25,14,1.69,1.69,0,0,0,.75,1.54c.35.21.71-.42,1-.71a1.89,1.89,0,0,0,.53-1c1.37-4.81,2.75-9.61,4.09-14.43C41.21,117.11,41.61,114.85,42.07,112.42Zm-2.89,21.79c-.06,1.06.61,1.56,1.38,2,.36.21.53.15.7-.23a39.79,39.79,0,0,0,2-4.6c1.48-4.87,2.71-9.8,3.88-14.75.37-1.58-.06-2.32-1.48-3.17-.61-.36-.86-.35-1.08.41-1.54,5.35-3.17,10.67-4.33,16.13C40,131.43,39.56,132.81,39.19,134.21Zm118.89,4.16h0c0-.43,0-.86,0-1.28-.17-3.53-.6-7-1-10.55-.31-2.4-.65-4.8-.84-7.22,0-.26,0-.52-.42-.43a4.29,4.29,0,0,0-3.21,3.85,7.75,7.75,0,0,0,.31,1.93,44.13,44.13,0,0,1,1.61,7.76,16.57,16.57,0,0,0,2.38,8.1c.18.27.26.57.69.43s.58-.26.55-.7C158,139.63,158.08,139,158.08,138.37ZM46.3,133.71c0,.66,0,1.31,0,2a1.27,1.27,0,0,0,1.17,1.17c.66.12.69-.49.87-.86a40,40,0,0,0,2.31-7,58,58,0,0,0,2-10.65c.09-1.31,0-1.28-1.22-1a2,2,0,0,0-1.73,1.71,32.44,32.44,0,0,1-1,3.51A40.72,40.72,0,0,0,46.3,133.71Zm64.38-39.95c1.61,2.94.55,5.36-1.19,7.66l-1.44,1.91c-.13.18-.32.34.06.5,2.05.86,4.1,1.75,6.24,2.67a8.67,8.67,0,0,1-.29-2.91,7.45,7.45,0,0,1,2.49-4.07c.55-.54,1.69-.81,1.54-1.68s-.93-1.34-1.57-1.86a13.33,13.33,0,0,0-1.66-1.2A6.1,6.1,0,0,0,110.69,93.76ZM30.17,130.41a4.07,4.07,0,0,0,2.07-2.47c1.06-3.89,2.17-7.77,3.17-11.68.53-2.07,1.43-4.12.78-6.35-.07-.24.13-.64-.34-.64s-.74-.06-.95.39-.61,1.09-.89,1.65a37,37,0,0,0-3.62,12.9A53,53,0,0,0,30.17,130.41Zm122.67,10.2c0-.42,0-.65-.08-.88q-1.09-6.82-2.18-13.64c-.13-.83-.1-1.73-1-2.26-.16-.1-.24-.33-.5-.22a.5.5,0,0,0-.29.56c0,.57.08,1.14.11,1.7q.38,7.59.75,15.19a2.91,2.91,0,0,0,1.54,2.18.27.27,0,0,0,.35-.12C152.2,142.32,153,141.58,152.83,140.61Zm-52.14-39c0-.1,0-.13,0-.15-.09-.21-.18-.42-.28-.61a5.12,5.12,0,0,1,.38-5.71A19.67,19.67,0,0,1,102.76,93c.16-.17.53-.26.37-.58a.83.83,0,0,0-.79-.41c-.91,0-1.82-.09-2.73-.2-2.66-.3-2.93-.11-2.89,2.6a10.12,10.12,0,0,1-1.58,5.92c-.08.12-.14.25-.21.37-.21.32-.08.49.25.51Zm-59.14,1.88a3.32,3.32,0,0,0,.76-.06,12,12,0,0,0,3.9-2.39c.35-.29,0-.42-.14-.56-1.94-1.5-3.88-3-5.81-4.49-.32-.25-.51-.24-.76.08-.67.88-1.35,1.76-2.07,2.61a1.34,1.34,0,0,0,0,1.85,11.33,11.33,0,0,0,2.17,2.28A2.67,2.67,0,0,0,41.56,103.47Zm114.67,6c2.66-.13,5.29-3.79,3.76-6.08a15.49,15.49,0,0,1-1-1.8c-.14-.28-.24-.41-.56-.19-1.75,1.27-3.53,2.5-5.26,3.8a1.56,1.56,0,0,0-.43,2A4,4,0,0,0,156.23,109.46ZM87.4,92.67a6.52,6.52,0,0,0-1.92.19,13.29,13.29,0,0,0-5.55,1.78c-.49.32-.66.55,0,.91a5.59,5.59,0,0,1,2.9,4.37c.09.73.18,1.47.3,2.2,0,.23,0,.57.43.44l3.56-1.14C85.12,98.07,85.17,97,87.4,92.67Zm76.28,50.66c.7-7.85-1.27-17.19-4-19.13.31,2.35.65,4.71.93,7.08a28.93,28.93,0,0,1,.44,6.88C160.81,140.46,161.78,142,163.68,143.33ZM133.91,131c0,.8,0,1.6,0,2.4a58.06,58.06,0,0,0,.84,9.35c0,.26,0,.53.42.5s.26-.32.28-.52c.45-5.22.91-10.44,1.34-15.66.19-2.25.16-2.23-2.09-2.72-.55-.12-.6,0-.63.5C133.9,126.87,133.9,128.92,133.91,131Zm12.44,11.29c.42-.87,1.08-1.49,1-2.42q-.32-7.39-.64-14.77c0-.32.12-.67-.41-.78a.73.73,0,0,0-.88.47,7.72,7.72,0,0,0-.74,2.61,34.45,34.45,0,0,0,0,9.2A14.86,14.86,0,0,0,146.35,142.26Zm22-67.17-1.84-1-5.8-3.27c-.24-.14-.51-.37-.79-.21s0,.5,0,.75c.22,1.43.46,2.86.69,4.29s.46,2.76.71,4.27Zm-65.85,23.4a2.72,2.72,0,0,0,3.59,2.77A5.11,5.11,0,0,0,109,96a1.81,1.81,0,0,0-1.56-1.62C104.83,94.11,102.54,95.52,102.53,98.49Zm38.38,26a.42.42,0,0,0-.31.35,8,8,0,0,0-.17,2.38,93.49,93.49,0,0,1-.66,13c-.21,1.37-.63,2.83.51,4.07.19.21.23.56.7.43s.7-.25.81-.73a28.13,28.13,0,0,0,.41-9.59C141.82,131.05,141.35,127.79,140.92,124.47ZM47.23,65.65a1,1,0,0,0-.29-.05l-9,1.86c-.33.07-.68.09-.76.53s.21.61.47.83a12.15,12.15,0,0,0,4.7,2.5,2.46,2.46,0,0,0,2.75-1A30.49,30.49,0,0,0,47.23,65.65Zm-14.7,14.3c2.21,1,4.26,1.87,6.39,2.56a1.23,1.23,0,0,0,1.63-.82C41.31,80,42.18,78.3,43,76.6c.1-.21.35-.43.08-.69a.66.66,0,0,0-.79-.05l-1.18.5Zm39.3,20.38L68,104.07c-.16.16-.31.34-.49.48-.33.27-.24.5,0,.8a9.28,9.28,0,0,0,1.87,2,3.55,3.55,0,0,0,4.75-.31c.17-.17.39-.3.24-.64C73.47,104.4,72.67,102.4,71.82,100.32Zm8.63.31A2.59,2.59,0,0,0,78.1,97.8,3.31,3.31,0,0,0,74.6,101c0,1.6,1.42,3.37,2.77,3.39C78.9,104.37,80.4,102.56,80.45,100.63Zm44.5,10a5.41,5.41,0,0,0,.77,0,2.71,2.71,0,0,0,2.38-1.81,2.36,2.36,0,0,0-.76-2.69c-.42-.39-.85-.76-1.27-1.15-.18-.17-.32-.28-.58-.09-1.69,1.26-3.4,2.51-5.1,3.76-.17.13-.42.28,0,.47C121.85,109.82,123.25,110.71,125,110.65ZM145.57,112c0,.14,0,.29,0,.43-.18,1.89.9,2.36,2.53,1.82,2.9-1,3.41-4.43,1.9-6.74a.36.36,0,0,0-.42-.16A4.33,4.33,0,0,0,145.57,112ZM50.7,114.27a4.66,4.66,0,0,0,2.81-1.13,1.08,1.08,0,0,0,.43-1.34,23.76,23.76,0,0,0-1.16-2.65c-.14-.33-.36-.26-.63-.21l-4.77.88c-.37.07-.51.18-.26.56.72,1.1,1.4,2.22,2.21,3.25A1.38,1.38,0,0,0,50.7,114.27ZM164.08,98a5.89,5.89,0,0,0,4.63-1.71c.36-.36.52-.66-.16-.9-1.86-.63-3.71-1.3-5.56-2-.46-.17-.68,0-.84.4-.38,1-.78,2.08-1.21,3.11-.19.45,0,.6.39.71A10.12,10.12,0,0,0,164.08,98Zm.63-13.72c-2.37-.13-2.86.34-2.64,1.93a13.09,13.09,0,0,0,.62,2.82c.22.58.37.76,1,.38,1.74-1.08,3.54-2.09,5.3-3.13.23-.13.61-.18.55-.56a.82.82,0,0,0-.76-.69C167.18,84.79,165.64,84.38,164.7,84.29Zm-45.33,16.76a1.56,1.56,0,0,0-1.45.5c-.51.61-1,1.24-1.49,1.86a.47.47,0,0,0,0,.68c2.21,2.74,5.13,2,6.68-.45a1.17,1.17,0,0,0-.49-1.73A7.28,7.28,0,0,0,119.38,101.05Zm14.12,9.43a4.77,4.77,0,0,1-1,0c-.75-.2-.88.15-.83.8.08,1.22.13,2.45.17,3.67,0,.62.48,1,.72,1.52.1.2.26.2.41,0a29.49,29.49,0,0,0,3.65-3.72,1.38,1.38,0,0,0-1.06-2.14A15.37,15.37,0,0,0,133.49,110.49Zm-96-5.91a12.34,12.34,0,0,0,1.14,4.07c.5,1.08,1.18,1.4,2.26.93,1.54-.67,3-1.41,4.55-2.13.17-.08.39-.12.42-.37a1.5,1.5,0,0,0-1.76-1.48c-.57.18-1.1.47-1.66.68a3,3,0,0,1-3.84-1.06A2,2,0,0,0,37.53,104.57ZM142,109.82c-1.29,0-2.09.68-2.56,2.19a5.49,5.49,0,0,1-1.42,2.93.63.63,0,0,0,.06,1,2.73,2.73,0,0,0,3.67-.52,4.69,4.69,0,0,0,.93-2c.21-.87,0-1.77.23-2.62S142.61,109.83,142,109.82Zm-84.14-5a4.23,4.23,0,0,0-2.77.88c-.49.32-.66.57-.08,1a7,7,0,0,1,1.13,1,2.11,2.11,0,0,0,2.31.61c1.55-.37,3-1,4.52-1.49.31-.1.58-.22.47-.66a.54.54,0,0,0-.65-.49,6.67,6.67,0,0,1-2.09-.35A8.84,8.84,0,0,0,57.83,104.84Zm2.67,8.9a2.43,2.43,0,0,0,1.47-.48c1.78-1,3.44-2.24,5.16-3.36.44-.29.47-.5.05-.8a2.35,2.35,0,0,1-.5-.46c-.36-.48-.7-.49-1.21-.15a19,19,0,0,1-3.18,1.82c-.84.36-1.69.67-2.5,1.09-.52.27-1.06.66-.87,1.4S59.74,113.76,60.5,113.74Zm95-1.38a4.21,4.21,0,0,0-3.16,1.44c-.3.33-.38.5.18.66,1.9.54,3.79,1.13,5.68,1.73.37.12.49.06.6-.3.31-1.06.65-2.11,1-3.16.1-.33,0-.48-.36-.37C158.26,112.7,157.13,112.41,155.48,112.36ZM91.35,98.53a2.68,2.68,0,0,0,2.95-3.32,1.25,1.25,0,0,0-1-1.13,3.38,3.38,0,0,0-3.4,1.06,2.43,2.43,0,0,0-.42,2.56C89.79,98.55,90.61,98.5,91.35,98.53Zm-41.18,7.72a1.42,1.42,0,0,0,.92-.39c.45-.4.88-.8,1.3-1.23,1.16-1.19,1.16-1.19-.28-2.06s-2.44-.86-3.64.18c-1,.86-1,.87-.21,1.95a16.05,16.05,0,0,0,1.06,1.21A1.07,1.07,0,0,0,50.17,106.25Zm95.35,11.5a3.71,3.71,0,0,0,3.63,2.17,4.42,4.42,0,0,0,3.35-2.22.43.43,0,0,0-.06-.46c-.7-1.06-1.38-1.15-2.28-.27C148.42,118.67,147.85,118.77,145.52,117.74Zm-17.91,5.81a2.47,2.47,0,0,0-.9-2.13.85.85,0,0,0-.83-.34c-.29.08-.17.44-.23.68a28.79,28.79,0,0,0-.8,4.69c0,.25-.21.57,0,.73s.53-.08.77-.2A3.85,3.85,0,0,0,127.61,123.55Zm-58.85-4.79a2.07,2.07,0,0,0,0-.34c0-.24.21-.55,0-.71s-.56,0-.8.18a3.15,3.15,0,0,0-1.58,2.81,2.91,2.91,0,0,0,1.54,2.79c.36.25.67.25.65-.38A34.26,34.26,0,0,1,68.76,118.76Zm65.61.53a5.74,5.74,0,0,1,.2,1.09c0,.59.28.65.75.51.73-.22,1.45-.46,2.19-.64.51-.13.56-.42.36-.81a3.91,3.91,0,0,0-1.63-1.53C135.31,117.37,134.3,118.06,134.36,119.29Zm7.11-.46a4.62,4.62,0,0,0,.5,2.49,1.81,1.81,0,0,0,2.52.57c.22-.16.25-.28,0-.46Z"/><path class="cls-2" d="M71.93,121.39c0-1.14,0-2.28,0-3.43,0-.21,0-.59.32-.37,1.24.77,2.43.19,3.63-.06,3.51-.72,7-1.63,10.41-2.58a25.81,25.81,0,0,1,12,0c2.87.57,5.7,1.43,8.63,1.56a21.28,21.28,0,0,1,7,1.44c1.48.58,2.94,1.19,4.43,1.76a16,16,0,0,0,3.86,1c.43.05.52.24.59.64a7.46,7.46,0,0,1-1.57,5.67,63.27,63.27,0,0,1-4.63,5.8,8.71,8.71,0,0,1-3.51,2.48,43,43,0,0,1-8.54,1.89,67.23,67.23,0,0,1-13.14.57,32.07,32.07,0,0,1-12.5-3.1,14.91,14.91,0,0,1-5.23-4c-1.2-1.47-1.28-3.23-1.65-4.94A20.09,20.09,0,0,1,71.93,121.39Zm24.63,9a2.35,2.35,0,0,0,2.74-2.86c-.1-.62-.4-1.16-1.07-1.08s-.88.56-.73,1.22c.07.3.11.7-.23.83a1.81,1.81,0,0,1-1.72-.15,1,1,0,0,1-.4-1.34,2.94,2.94,0,0,0,.2-.74c.07-.49,0-.93-.57-1.08a.89.89,0,0,0-1.09.58C92.47,128.15,93.86,130.4,96.56,130.41Zm-13.41-7.64c0,1.49.86,2.31,2,1.88a2.48,2.48,0,0,0,1-2.69,3.67,3.67,0,0,0-3.3-1.73A.93.93,0,0,0,82,121a.71.71,0,0,0,.58.9C83.16,122,83.24,122.34,83.15,122.77Zm26-2.2a4,4,0,0,0-2.89,1.47c-.6.61-.1,1.18,0,1.79a1.28,1.28,0,0,0,1.18,1.23,1.41,1.41,0,0,0,1.48-.9,2.56,2.56,0,0,0,.13-1.25c0-.28,0-.51.37-.61s1-.38.8-1A.92.92,0,0,0,109.17,120.57Z"/><path class="cls-3" d="M91.21,36.21c1.52,0,1.52,0,1,1.42A75.59,75.59,0,0,0,89,53.05a94,94,0,0,0-1,10.73c0,5.17,0,10.34.07,15.51,0,1.77.08,3.54.06,5.31a13.34,13.34,0,0,0,.44,3.29c.31,1.3.17,1.6-1.18,1.75a30.4,30.4,0,0,0-7.27,1.44c-.48.18-.49-.13-.54-.47-.49-3-1-6.08-1.5-9.11-1.2-6.87-2.59-13.7-5.32-20.17C71.94,59.52,71,57.81,70,56.08a12.08,12.08,0,0,0-4.33-4.27c-1-.63-1.89-1.28-2.86-1.87-.51-.31-.51-.57-.16-1a13.56,13.56,0,0,1,3.23-2.79,73.08,73.08,0,0,1,22.84-9.66,13.54,13.54,0,0,1,1.35-.23C90.47,36.24,90.84,36.23,91.21,36.21Z"/><path class="cls-3" d="M100.58,36.27c8.1-.53,16.09-.8,23.89,1.7a33.42,33.42,0,0,1,6.9,3.11c0,.08,0,.15-.08.17-3.68,2.48-6,6.22-8.73,9.57-4.74,5.82-8.33,12.35-11.64,19.05q-3,6-6.22,12A9.63,9.63,0,0,0,103.37,88c.09.64-.1.83-.76.82-1.71,0-3.43,0-5.14,0-.48,0-.75,0-.62-.67,1.16-6.45,2.27-12.9,3.38-19.36a135.19,135.19,0,0,0,2-17.92c.09-2.54.06-5.08.14-7.62a11.29,11.29,0,0,0-1-4.72C101.11,37.78,100.87,37.05,100.58,36.27Z"/><path class="cls-3" d="M55.85,57.36c1.43,4,2.77,7.9,4.17,11.74,2.16,6,4.08,12,6.68,17.79,1,2.15,2.12,4.22,3.18,6.33a11.82,11.82,0,0,1,.65,1.48,2.13,2.13,0,0,1-.62,2.48c-1.29,1.08-2.61,2.12-3.92,3.18-1.57,1.27-3.38,1.18-5.21.86A62.09,62.09,0,0,1,49,98.29a14,14,0,0,1-6.66-4.87,5.87,5.87,0,0,1-.91-5.55,182.51,182.51,0,0,1,9.35-23.33C52.06,61.93,54.07,59.82,55.85,57.36Z"/><path class="cls-3" d="M124.65,98.37c3.11-1.92,6.19-3.81,9.25-5.73a107.2,107.2,0,0,0,15.37-11.1,38.24,38.24,0,0,0,7.1-8.51,3.48,3.48,0,0,1,.29-.42c.18-.22.37-.43.65-.74a52.62,52.62,0,0,1,1.57,6.92c.44,4,.68,8,.82,11.95.13,3.83-1.5,6.72-4.16,9.27a25,25,0,0,1-13.45,6.36c-1.68.3-3.36.55-5,1a5.79,5.79,0,0,1-5.89-1.6C128.84,103.48,126.83,100.89,124.65,98.37Z"/><path class="cls-4" d="M111,89.83c2.6-2.75,5.08-5.47,7.44-8.29,8.1-9.69,14.74-20.22,18.68-32.32.38-1.16.79-2.32,1.05-3.51.17-.77.43-.64.94-.35a34.75,34.75,0,0,1,11.17,10.17c.9,1.25,1.73,2.54,2.55,3.84.3.47.3.72-.15,1.1q-10,8.46-20,17c-3.09,2.62-6.21,5.2-9.14,8a37.09,37.09,0,0,0-5,6.79c-.41.63-.72.81-1.45.45C115.09,91.69,113.06,90.8,111,89.83Z"/><path class="cls-4" d="M107.42,87.73c-1.2,0-1.81-1.23-1.29-2.68a51.64,51.64,0,0,1,2.72-6.15c2.47-4.74,4.92-9.5,7.75-14,1.66-2.66,3.74-5,5.38-7.71,2-3.23,3.76-6.58,6-9.63a15.42,15.42,0,0,1,2.49-2.7c1.22-1,2.65-.7,4-.56.59.06,1,1.13.76,1.72-4.6,12-9.94,23.59-18.17,33.63a57.21,57.21,0,0,1-6.4,6.66A4.83,4.83,0,0,1,107.42,87.73Z"/><path class="cls-4" d="M76.63,87.87C76.56,89,76.53,90,76.43,91a2,2,0,0,1-1.48,1.79,2.86,2.86,0,0,1-2.9-1.4,134.52,134.52,0,0,1-6-14c-1.9-5.51-3.5-11.12-5.27-16.67a41.92,41.92,0,0,0-1.65-4c-.7-1.6-.56-2.63.39-3.44a2.57,2.57,0,0,1,3.31-.14,17.51,17.51,0,0,1,7.15,8.07,78.24,78.24,0,0,1,4.81,15.72q1.08,4.92,1.8,9.92C76.59,87.25,76.61,87.65,76.63,87.87Z"/><path class="cls-5" d="M95.84,104c6.69.55,12.63,3.48,18.71,5.94,2,.81,4,1.73,6,2.55A5.34,5.34,0,0,1,123,114.6a2.93,2.93,0,0,1,.11,2.28,2.65,2.65,0,0,1-2.4.47c-4.65-2.09-9.62-2.92-14.59-3.78-3.11-.54-6.21-1.14-9.33-1.63a28.24,28.24,0,0,0-9.8,0c-2.95.57-5.94.93-8.9,1.45a24.15,24.15,0,0,1-2.46.17,9.82,9.82,0,0,0-1.35,0c-.7.09-1-.17-.9-.86a4.44,4.44,0,0,1,2.21-3.36,30.43,30.43,0,0,1,11.71-4.67,36.53,36.53,0,0,1,5.3-.73Z"/><path class="cls-4" d="M99.73,42.76a81,81,0,0,1-1,9.2,98.58,98.58,0,0,0-1,11.15,82.25,82.25,0,0,1-2.88,19.13,27.08,27.08,0,0,1-2.46,4.95c-.27.53-.63.15-1,.16s-.49-.26-.52-.61c-.15-2.3-.37-4.6-.43-6.91a111.54,111.54,0,0,1,.07-11.29c.28-3.81.56-7.62.91-11.42.34-3.63.66-7.27,1.14-10.89a30.11,30.11,0,0,1,2.07-7.81c.65-1.54,1.65-1.79,2.95-.73A6.24,6.24,0,0,1,99.73,42.76Z"/><path class="cls-4" d="M124.09,95.18a4.34,4.34,0,0,1-2.49-1c-.66-.54-.41-1.18-.11-1.78a16.19,16.19,0,0,1,3.91-4.93q11.53-10.14,23.11-20.24a36.64,36.64,0,0,1,4.35-3.17c1.5-1,2.14-.67,2.67,1,.23.73.07,1.59.67,2.22,0,0,0,.22-.07.32a13.44,13.44,0,0,1-3.34,5.26C144.36,80.14,136,87.43,127,94A5.14,5.14,0,0,1,124.09,95.18Z"/><path class="cls-6" d="M52.84,138.72c-1.69-1.89-.95-4-.49-6,1.2-5.35,2.48-10.69,3.68-16,.19-.84.39-.6.8-.22s1,.88,1.48,1.3a1.92,1.92,0,0,1,.67,2c-.58,3.31-1.12,6.62-1.72,9.92a32.33,32.33,0,0,1-1.91,6.36A5.93,5.93,0,0,1,52.84,138.72Z"/><path class="cls-6" d="M42.07,112.42c-.46,2.43-.86,4.7-1.48,6.91-1.34,4.82-2.72,9.62-4.09,14.43a1.89,1.89,0,0,1-.53,1c-.33.29-.69.92-1,.71a1.69,1.69,0,0,1-.75-1.54,70.93,70.93,0,0,1,2.25-14q.77-2.79,1.46-5.61a1,1,0,0,1,.8-.85C39.77,113.15,40.85,112.8,42.07,112.42Z"/><path class="cls-6" d="M39.19,134.21c.37-1.4.8-2.78,1.1-4.19,1.16-5.45,2.79-10.78,4.33-16.13.22-.76.47-.78,1.08-.41,1.42.85,1.85,1.59,1.48,3.17-1.17,4.95-2.4,9.88-3.88,14.75a39.79,39.79,0,0,1-2,4.6c-.17.38-.34.44-.7.23C39.79,135.77,39.13,135.27,39.19,134.21Z"/><path class="cls-6" d="M158.08,138.37c0,.63,0,1.26,0,1.88,0,.44-.19.58-.55.7s-.51-.16-.69-.43a16.57,16.57,0,0,1-2.38-8.1,44.13,44.13,0,0,0-1.61-7.76,7.75,7.75,0,0,1-.31-1.93,4.29,4.29,0,0,1,3.21-3.85c.44-.08.39.18.42.43.19,2.42.54,4.81.84,7.22.45,3.51.87,7,1,10.55,0,.43,0,.86,0,1.28Z"/><path class="cls-6" d="M46.3,133.71a40.72,40.72,0,0,1,2.32-11.15,32.44,32.44,0,0,0,1-3.51,2,2,0,0,1,1.73-1.71c1.27-.33,1.31-.36,1.22,1a58,58,0,0,1-2,10.65,40,40,0,0,1-2.31,7c-.17.37-.21,1-.87.86a1.27,1.27,0,0,1-1.17-1.17C46.26,135,46.3,134.37,46.3,133.71Z"/><path class="cls-6" d="M110.69,93.76a6.1,6.1,0,0,1,4.19,1,13.33,13.33,0,0,1,1.66,1.2c.64.53,1.45,1.11,1.57,1.86s-1,1.13-1.54,1.68a7.45,7.45,0,0,0-2.49,4.07,8.67,8.67,0,0,0,.29,2.91c-2.14-.92-4.18-1.8-6.24-2.67-.38-.16-.2-.32-.06-.5l1.44-1.91C111.24,99.12,112.3,96.7,110.69,93.76Z"/><path class="cls-6" d="M30.17,130.41a53,53,0,0,1,.22-6.19A37,37,0,0,1,34,111.31c.28-.56.62-1.09.89-1.65s.59-.39.95-.39.28.4.34.64c.65,2.22-.25,4.28-.78,6.35-1,3.91-2.12,7.78-3.17,11.68A4.07,4.07,0,0,1,30.17,130.41Z"/><path class="cls-7" d="M152.83,140.61c.14,1-.63,1.71-1.25,2.52a.27.27,0,0,1-.35.12,2.91,2.91,0,0,1-1.54-2.18q-.37-7.59-.75-15.19c0-.57-.07-1.14-.11-1.7a.5.5,0,0,1,.29-.56c.26-.12.35.12.5.22.85.53.82,1.43,1,2.26q1.08,6.82,2.18,13.64C152.79,140,152.8,140.19,152.83,140.61Z"/><path class="cls-7" d="M100.7,101.59l-5.51-.41c-.34,0-.46-.2-.25-.51.08-.12.14-.25.21-.37a10.12,10.12,0,0,0,1.58-5.92c0-2.71.23-2.9,2.89-2.6.91.1,1.82.16,2.73.2a.83.83,0,0,1,.79.41c.16.32-.22.42-.37.58a19.67,19.67,0,0,0-1.94,2.16,5.12,5.12,0,0,0-.38,5.71c.1.2.19.41.28.61C100.73,101.46,100.71,101.49,100.7,101.59Z"/><path class="cls-8" d="M41.56,103.47a2.67,2.67,0,0,1-2-.67,11.33,11.33,0,0,1-2.17-2.28,1.34,1.34,0,0,1,0-1.85c.72-.85,1.4-1.73,2.07-2.61.25-.32.44-.34.76-.08,1.93,1.51,3.87,3,5.81,4.49.18.14.5.28.14.56a12,12,0,0,1-3.9,2.39A3.32,3.32,0,0,1,41.56,103.47Z"/><path class="cls-8" d="M156.23,109.46a4,4,0,0,1-3.45-2.27,1.56,1.56,0,0,1,.43-2c1.73-1.3,3.51-2.53,5.26-3.8.31-.23.42-.09.56.19a15.49,15.49,0,0,0,1,1.8C161.52,105.66,158.89,109.32,156.23,109.46Z"/><path class="cls-7" d="M87.4,92.67c-2.23,4.32-2.27,5.4-.32,8.75l-3.56,1.14c-.41.13-.4-.21-.43-.44-.11-.73-.21-1.46-.3-2.2a5.59,5.59,0,0,0-2.9-4.37c-.63-.36-.47-.59,0-.91a13.29,13.29,0,0,1,5.55-1.78A6.52,6.52,0,0,1,87.4,92.67Z"/><path class="cls-7" d="M163.68,143.33c-1.9-1.29-2.87-2.87-2.59-5.17a28.93,28.93,0,0,0-.44-6.88c-.28-2.37-.62-4.73-.93-7.08C162.42,126.14,164.38,135.48,163.68,143.33Z"/><path class="cls-7" d="M133.91,131c0-2.05,0-4.11.16-6.15,0-.48.09-.62.63-.5,2.25.49,2.28.47,2.09,2.72-.43,5.22-.89,10.44-1.34,15.66,0,.21.08.48-.28.52s-.37-.24-.42-.5a58.06,58.06,0,0,1-.84-9.35C133.9,132.57,133.91,131.78,133.91,131Z"/><path class="cls-7" d="M146.35,142.26a14.86,14.86,0,0,1-1.61-5.69,34.45,34.45,0,0,1,0-9.2,7.72,7.72,0,0,1,.74-2.61.73.73,0,0,1,.88-.47c.53.1.4.46.41.78q.32,7.38.64,14.77C147.43,140.77,146.76,141.39,146.35,142.26Z"/><path class="cls-9" d="M168.39,75.09l-7,4.79c-.25-1.5-.48-2.88-.71-4.27s-.48-2.86-.69-4.29c0-.25-.39-.54,0-.75s.54.08.79.21l5.8,3.27Z"/><path class="cls-9" d="M102.53,98.49c0-3,2.3-4.39,4.94-4.08A1.81,1.81,0,0,1,109,96a5.11,5.11,0,0,1-2.9,5.23A2.72,2.72,0,0,1,102.53,98.49Z"/><path class="cls-7" d="M140.92,124.47c.44,3.31.9,6.58,1.29,9.86a28.13,28.13,0,0,1-.41,9.59c-.11.48-.38.6-.81.73s-.51-.22-.7-.43c-1.14-1.23-.72-2.7-.51-4.07a93.49,93.49,0,0,0,.66-13,8,8,0,0,1,.17-2.38A.42.42,0,0,1,140.92,124.47Z"/><path class="cls-9" d="M47.23,65.65a30.49,30.49,0,0,1-2.12,4.66,2.46,2.46,0,0,1-2.75,1,12.15,12.15,0,0,1-4.7-2.5c-.26-.22-.55-.41-.47-.83s.43-.47.76-.53l9-1.86A1,1,0,0,1,47.23,65.65Z"/><path class="cls-10" d="M32.53,79.95l8.58-3.58,1.18-.5a.66.66,0,0,1,.79.05c.28.25,0,.48-.08.69-.81,1.7-1.68,3.37-2.45,5.08a1.23,1.23,0,0,1-1.63.82C36.79,81.81,34.74,80.9,32.53,79.95Z"/><path class="cls-6" d="M71.82,100.32c.85,2.08,1.65,4.08,2.48,6.07.14.34-.07.47-.24.64a3.55,3.55,0,0,1-4.75.31,9.28,9.28,0,0,1-1.87-2c-.22-.29-.31-.53,0-.8.18-.14.32-.32.49-.48Z"/><path class="cls-9" d="M80.45,100.63c-.05,1.93-1.55,3.74-3.08,3.72-1.36,0-2.81-1.79-2.77-3.39A3.31,3.31,0,0,1,78.1,97.8,2.59,2.59,0,0,1,80.45,100.63Z"/><path class="cls-6" d="M125,110.65c-1.71.06-3.1-.82-4.56-1.51-.41-.19-.16-.34,0-.47,1.7-1.26,3.4-2.5,5.1-3.76.25-.19.4-.08.58.09.42.39.85.76,1.27,1.15a2.36,2.36,0,0,1,.76,2.69,2.71,2.71,0,0,1-2.38,1.81A5.41,5.41,0,0,1,125,110.65Z"/><path class="cls-8" d="M145.57,112a4.33,4.33,0,0,1,4-4.65.36.36,0,0,1,.42.16c1.51,2.31,1,5.78-1.9,6.74-1.63.54-2.71.06-2.53-1.82C145.58,112.27,145.57,112.13,145.57,112Z"/><path class="cls-8" d="M50.7,114.27a1.38,1.38,0,0,1-1.37-.64c-.81-1-1.49-2.15-2.21-3.25-.25-.38-.11-.49.26-.56l4.77-.88c.27-.05.48-.12.63.21a23.76,23.76,0,0,1,1.16,2.65,1.08,1.08,0,0,1-.43,1.34A4.66,4.66,0,0,1,50.7,114.27Z"/><path class="cls-10" d="M164.08,98a10.12,10.12,0,0,1-2.75-.36c-.42-.12-.58-.26-.39-.71.43-1,.83-2.06,1.21-3.11.16-.44.38-.57.84-.4,1.85.68,3.7,1.34,5.56,2,.68.23.51.53.16.9A5.89,5.89,0,0,1,164.08,98Z"/><path class="cls-10" d="M164.7,84.29c.94.09,2.48.5,4.05.75a.82.82,0,0,1,.76.69c.06.37-.33.42-.55.56-1.77,1-3.56,2.05-5.3,3.13-.61.38-.76.2-1-.38a13.09,13.09,0,0,1-.62-2.82C161.84,84.63,162.33,84.16,164.7,84.29Z"/><path class="cls-9" d="M119.38,101.05a7.28,7.28,0,0,1,3.28.86,1.17,1.17,0,0,1,.49,1.73c-1.56,2.47-4.48,3.19-6.68.45a.47.47,0,0,1,0-.68c.5-.62,1-1.25,1.49-1.86A1.56,1.56,0,0,1,119.38,101.05Z"/><path class="cls-8" d="M133.49,110.49a15.37,15.37,0,0,1,2.09.18,1.38,1.38,0,0,1,1.06,2.14,29.49,29.49,0,0,1-3.65,3.72c-.15.15-.32.15-.41,0-.24-.51-.7-.9-.72-1.52,0-1.23-.09-2.45-.17-3.67,0-.64.09-1,.83-.8A4.77,4.77,0,0,0,133.49,110.49Z"/><path class="cls-11" d="M37.53,104.57a2,2,0,0,1,1.11.65,3,3,0,0,0,3.84,1.06c.56-.21,1.09-.49,1.66-.68a1.5,1.5,0,0,1,1.76,1.48c0,.25-.24.29-.42.37-1.52.71-3,1.46-4.55,2.13-1.08.47-1.76.15-2.26-.93A12.34,12.34,0,0,1,37.53,104.57Z"/><path class="cls-11" d="M142,109.82c.64,0,1.09.09.91,1s0,1.75-.23,2.62a4.69,4.69,0,0,1-.93,2,2.73,2.73,0,0,1-3.67.52.63.63,0,0,1-.06-1,5.49,5.49,0,0,0,1.42-2.93C139.88,110.51,140.68,109.83,142,109.82Z"/><path class="cls-11" d="M57.83,104.84a8.84,8.84,0,0,1,2.85.51,6.67,6.67,0,0,0,2.09.35.54.54,0,0,1,.65.49c.1.43-.17.56-.47.66-1.51.5-3,1.11-4.52,1.49a2.11,2.11,0,0,1-2.31-.61,7,7,0,0,0-1.13-1c-.58-.41-.41-.65.08-1A4.23,4.23,0,0,1,57.83,104.84Z"/><path class="cls-11" d="M60.5,113.74c-.76,0-1.37-.17-1.58-.93s.35-1.13.87-1.4c.8-.42,1.66-.74,2.5-1.09a19,19,0,0,0,3.18-1.82c.5-.34.84-.34,1.21.15a2.35,2.35,0,0,0,.5.46c.41.31.39.51-.05.8-1.72,1.12-3.38,2.33-5.16,3.36A2.43,2.43,0,0,1,60.5,113.74Z"/><path class="cls-11" d="M155.48,112.36c1.65,0,2.79.34,3.91,0,.38-.11.46,0,.36.37-.33,1.05-.67,2.1-1,3.16-.1.36-.23.42-.6.3-1.88-.6-3.77-1.19-5.68-1.73-.56-.16-.49-.33-.18-.66A4.21,4.21,0,0,1,155.48,112.36Z"/><path class="cls-9" d="M91.35,98.53c-.74,0-1.56,0-1.89-.83a2.43,2.43,0,0,1,.42-2.56,3.38,3.38,0,0,1,3.4-1.06,1.25,1.25,0,0,1,1,1.13A2.68,2.68,0,0,1,91.35,98.53Z"/><path class="cls-8" d="M50.17,106.25a1.07,1.07,0,0,1-.84-.33,16.05,16.05,0,0,1-1.06-1.21c-.79-1.08-.78-1.09.21-1.95,1.2-1,2.14-1.09,3.64-.18s1.44.88.28,2.06c-.42.43-.85.83-1.3,1.23A1.42,1.42,0,0,1,50.17,106.25Z"/><path class="cls-10" d="M38.08,90.93c-.26,1.07-.83,1.42-2,1.15A11.77,11.77,0,0,1,32,90.22l5.73-2.36c.39-.16.35.11.37.34Q38.08,89.56,38.08,90.93Z"/><path class="cls-11" d="M145.52,117.74c2.33,1,2.9.92,4.64-.78.9-.88,1.58-.79,2.28.27a.43.43,0,0,1,.06.46,4.42,4.42,0,0,1-3.35,2.22A3.71,3.71,0,0,1,145.52,117.74Z"/><path class="cls-12" d="M127.61,123.55a3.85,3.85,0,0,1-2,3.43c-.25.12-.53.37-.77.2s0-.48,0-.73a28.79,28.79,0,0,1,.8-4.69c.05-.24-.07-.6.23-.68a.85.85,0,0,1,.83.34A2.47,2.47,0,0,1,127.61,123.55Z"/><path class="cls-12" d="M68.76,118.76a34.26,34.26,0,0,0-.22,4.35c0,.63-.3.63-.65.38a2.91,2.91,0,0,1-1.54-2.79,3.15,3.15,0,0,1,1.58-2.81c.24-.13.53-.34.8-.18s0,.47,0,.71A2.07,2.07,0,0,1,68.76,118.76Z"/><path class="cls-11" d="M134.36,119.29c-.06-1.23.95-1.92,1.88-1.38a3.91,3.91,0,0,1,1.63,1.53c.2.39.14.68-.36.81-.74.19-1.46.42-2.19.64-.47.15-.74.08-.75-.51A5.74,5.74,0,0,0,134.36,119.29Z"/><path class="cls-11" d="M141.48,118.83l3,2.6c.21.18.18.3,0,.46a1.81,1.81,0,0,1-2.52-.57A4.62,4.62,0,0,1,141.48,118.83Z"/><path class="cls-13" d="M73.37,112.72c-.09.69.2,1,.9.86a9.82,9.82,0,0,1,1.35,0,3.79,3.79,0,0,1-2.08.12C72.91,113.62,73.23,113.1,73.37,112.72Z"/><path class="cls-13" d="M95.84,104H92.59A6.93,6.93,0,0,1,95.84,104Z"/><path class="cls-13" d="M38.08,90.93q0-1.37,0-2.73A4.92,4.92,0,0,1,38.08,90.93Z"/><path class="cls-14" d="M96.56,130.41c-2.69,0-4.09-2.26-2.87-4.61a.89.89,0,0,1,1.09-.58c.55.15.64.59.57,1.08a2.94,2.94,0,0,1-.2.74,1,1,0,0,0,.4,1.34,1.81,1.81,0,0,0,1.72.15c.35-.14.3-.53.23-.83-.15-.66.14-1.15.73-1.22s1,.46,1.07,1.08A2.35,2.35,0,0,1,96.56,130.41Z"/><path class="cls-14" d="M83.15,122.77c.1-.43,0-.78-.6-.9A.71.71,0,0,1,82,121a.93.93,0,0,1,.84-.73,3.67,3.67,0,0,1,3.3,1.73,2.48,2.48,0,0,1-1,2.69C84,125.08,83.13,124.27,83.15,122.77Z"/><path class="cls-14" d="M109.17,120.57a.92.92,0,0,1,1.06.73c.18.61-.34.89-.8,1s-.36.33-.37.61a2.56,2.56,0,0,1-.13,1.25,1.41,1.41,0,0,1-1.48.9,1.28,1.28,0,0,1-1.18-1.23c-.07-.61-.57-1.18,0-1.79A4,4,0,0,1,109.17,120.57Z"/></svg>