<svg id="圖層_1" data-name="圖層 1" xmlns="http://www.w3.org/2000/svg" viewBox="0 0 41.05 37.33"><defs><style>.cls-1{fill:#221c1c;}.cls-1,.cls-2{fill-rule:evenodd;}.cls-2{fill:#e58c8a;}</style></defs><title>graphic</title><path class="cls-1" d="M35.72,21.87c-2.41,3.56-5.52,7.34-10.67,8.77a20.07,20.07,0,0,0-2.23,1,27.33,27.33,0,0,1-6.54,1.64,6.73,6.73,0,0,1-3.44-.5,1.29,1.29,0,0,1-.81-2c.1-.22.25-.42.36-.64a2.93,2.93,0,0,0,.1-3,15.42,15.42,0,0,0-2.12-3.7c-.48-.5-.42-1.4-.75-2.07a25.41,25.41,0,0,0-2-3.49c-2.67-3.76-1.77-7.46.75-10.44C12,3.21,16.63,2,22,3.89a4.91,4.91,0,0,1,3.33,3.69c.08.35.17.69.28,1A1.74,1.74,0,0,0,27.26,10a50.76,50.76,0,0,1,5.32.88,2.1,2.1,0,0,1,.89.39C36.6,13.6,37.65,17.66,35.72,21.87Z"/><path class="cls-2" d="M10.07,11c.83-1.71,2.23-2.23,3.6-2.72a7.51,7.51,0,0,1,5.5.13A1.82,1.82,0,0,1,20.4,9.8,7.64,7.64,0,0,1,20,14.37c-.51,1.24-.46,1.9.22,2.57a2.21,2.21,0,0,0,2.84.41,10.88,10.88,0,0,0,3.34-2.41c1.19-1.22,1.84-1.31,3.31-.44.92.54,1.82,1.13,2.69,1.75a1.75,1.75,0,0,1,.57,2.63,16.19,16.19,0,0,1-3.66,4.2,22,22,0,0,1-5.79,4.26,19.38,19.38,0,0,1-4.95,1.28c-.29.05-.39,0-.41-.31-.16-2.17-1.3-3.94-2.4-5.72-1.91-3.09-3.7-6.25-5.46-9.42A2.27,2.27,0,0,1,10.07,11Z"/></svg>