<svg id="圖層_1" data-name="圖層 1" xmlns="http://www.w3.org/2000/svg" viewBox="0 0 612.8 628.66"><defs><style>.cls-1{fill:none;stroke:#fff;stroke-width:11px;}.cls-1,.cls-2{stroke-miterlimit:10;}.cls-10,.cls-2{fill:#080505;}.cls-2{stroke:#0a0808;stroke-width:2px;}.cls-10,.cls-11,.cls-12,.cls-13,.cls-14,.cls-15,.cls-16,.cls-17,.cls-2,.cls-3,.cls-4,.cls-5,.cls-6,.cls-7,.cls-8,.cls-9{fill-rule:evenodd;}.cls-3{fill:#fefefe;}.cls-4{fill:#97907c;}.cls-5{fill:#918c7a;}.cls-6{fill:#0b0a0a;}.cls-7{fill:#0f1010;}.cls-8{fill:#121312;}.cls-9{fill:#0b0a09;}.cls-11{fill:#308cad;}.cls-12{fill:#fdfefe;}.cls-13{fill:#b55549;}.cls-14{fill:#ad5a4e;}.cls-15{fill:#dcb73b;}.cls-16{fill:#977b5d;}.cls-17{fill:#1b1d1c;}</style></defs><title>graphic</title><circle class="cls-1" cx="310.09" cy="314.99" r="279.47"/><path class="cls-2" d="M142.3,143.33c21.85-1.67,40.92,7.41,59.33,17.86a152.61,152.61,0,0,1,34.09,26.14c2.53,2.59,5,5.24,7.3,8,1.94,2.36,3.92,2.73,6.8,1.67,9.93-3.66,19.84-7.47,30-10.49a178.35,178.35,0,0,1,28.4-5.75c4.31-.55,8.73-.07,13.1-.21,7.23-.21,14.47.35,21.71-.68,3.56-.51,7.18,0,10.8.54,14.3,1.95,28.55,4.19,42.69,7.06,6,1.22,10.79,4.91,15.78,8.08a236.39,236.39,0,0,1,19.54,13.33A35.55,35.55,0,0,0,442.45,215c5.36,1.85,8.33,7.24,11.59,11.65,4.52,6.13,8.45,12.7,13.11,18.75a4.48,4.48,0,0,1,.24,5.41c-5.27,9.25-8.58,19.3-12.28,29.23-7.61,20.46-11.84,42-20.83,62a46.41,46.41,0,0,0-2.49,7.32c-3.76,14.52-9.72,28.27-14.94,42.26-3.26,8.74-4.17,17.78-5.48,26.82-.77,5.37-1.58,10.71-3.62,15.79a39.39,39.39,0,0,0-3,12c-.58,8.23-4,15.7-6.25,23.5-1.8,6.37-4,12.72-3.51,19.55a9.26,9.26,0,0,1-1.94,6.17c-1.43,2-2.86,4-4.44,5.88-4.56,5.46-9.73,6.35-15.92,2.65a153,153,0,0,0-15.12-7.9,33.81,33.81,0,0,1-12.48-9,10,10,0,0,0-4.72-3.28c-11.44-3.61-22.78-6.89-35.07-7.35-12.64-.47-25.3-1.86-37.95-1.16-12,.66-23.81,3.16-34.77,8.45-5,2.39-9.21,5.69-10.92,11.41-1.08,3.59-3.48,4.79-7.22,3.48-11.09-3.87-22.74-5.62-34-8.88a12.51,12.51,0,0,0-5.73,0c-5.07.84-6.5-.32-8.52-5-2.74-6.27-5.87-12.37-8.85-18.54-1.37-2.83-4.05-4.48-6.48-6-10.47-6.59-20.47-13.95-32.19-18.49C109,438,99.29,437.18,89,438.34c-7.79.88-15.74.22-23.53,1.8-5.93,1.2-12,2-17.8,3.55C35.91,446.8,27,438.35,23.38,429.11c-2.09-5.39-5.43-10.16-7.54-15.65-4.52-11.71-3.29-23.66-2.79-35.63.19-4.51.9-9.07.87-13.5-.11-16.07,3.57-31.49,6.81-47a268.68,268.68,0,0,1,15.56-49c7.33-17.47,12.3-35.87,17.4-54.16a477.26,477.26,0,0,1,18.39-52.24,8.24,8.24,0,0,1,4.07-4.52c11.1-5.27,22.27-10.77,34.55-12.3C121,143.83,131.5,142.71,142.3,143.33ZM202,443a137.47,137.47,0,0,1,2.85-20.56,16.68,16.68,0,0,0,0-5.78c-1.54-14.58-2.29-29.3,1.14-43.59,6.85-28.46,13.65-56.93,19.95-85.52,2.77-12.6,5-25.36,8.27-37.81,3.71-14,6.43-27.85,4.74-42.4a13,13,0,0,0-3.55-8.21c-14.55-14.93-30.82-27.51-49.56-36.79-15.63-7.74-31.56-12.35-49.52-10.58s-35.12,5-51.74,11.74c-3.76,1.52-6.86,3.63-8.25,7.61-3.48,10-7.8,19.64-10.94,29.75-5.75,18.59-10.24,37.56-17,55.83-3.4,9.17-7.5,18.12-10.78,27.28C34,293.82,31.87,304.27,29,314.41a274.73,274.73,0,0,0-9.51,57.18c-.66,10.17-1.3,20.38.9,30.46.84,3.85,2.16,4.58,5.74,3.05,5.62-2.39,11.51-3.76,17.39-5.19,10-2.43,19.89-6.22,30.29-5.71,15.89.78,31.82.05,47.68,1.59,16.27,1.56,31.76,5.12,45.08,15.51C178.92,420.91,193,428.52,202,443Zm7.19,5.42c3.68-3.87,7.22-6.64,11.57-7.39,5.63-1,10.92-3,16.37-4.5,6.36-1.77,12.89-2.37,19.47-3s13.35,1,20-.51a30.79,30.79,0,0,1,6.92-.4c17.05,0,33.57,3.86,50.14,7.2,10,2,19.56,5.63,29.15,9,3.39,1.2,4.63-.07,4.86-3.16a36.21,36.21,0,0,1,2.14-9c4.48-13.15,10-26.05,13.25-39.51,5.32-22.18,10.43-44.41,15.83-66.58,3.08-12.63,8.4-24.55,11.48-37.24,1.75-7.22,5.47-14.13,7.61-21.43,4.24-14.51,11.43-27.89,15.95-42.3,1.14-3.61.91-6-2-8.88a105.05,105.05,0,0,0-20.71-15.6c-7.32-4.24-14.48-8.75-23.11-10.41-10.18-2-20.57-2.18-30.71-4.1a73.89,73.89,0,0,0-22.74-.87,207,207,0,0,1-22,1.83c-20.85.23-40.06,6.36-58.65,15.21-5.25,2.51-7.28,6.53-6.95,12.13a41.14,41.14,0,0,1-1.48,13.82c-4.61,16-9.52,31.8-11.94,48.37-3.44,23.51-9.94,46.41-15.51,69.47-2.64,10.93-5.76,21.83-6.27,33-.57,12.23-2,24.52-.27,36.81a19.74,19.74,0,0,1-.28,6.56C209.92,433.7,209.52,440.52,209.17,448.4Zm-14.76,29a11.17,11.17,0,0,1,0,1.66c-.24,2.12-1.2,4.23,1.84,5.48s4.91,0,6.64-2.21c1.51-1.94,2.94-3.94,4.55-5.79,8.58-9.91,20.82-13.61,32.24-18.38,18-7.54,37.6-6.88,56.56-9.31,8.34-1.07,16.39,1.48,24.58,3.49,12.79,3.15,22.92,11,34.17,16.84a2.89,2.89,0,0,1,1.72,3.19c-.42,1.49-1.95,1.53-3.26,1.33-1.65-.25-3.5-.24-4.87-1-7.69-4.38-16.36-6.16-24.47-9.42-8.9-3.59-18.22-7-27.75-5.55-11,1.63-22.25,1.18-33.18,3.51-8,1.71-16.41,1.45-24,5.34-9.83,5-20.74,8.23-28.42,16.84-.8.9-3.52,1.67-1.61,3.4,1.62,1.46,4,2.71,6.29.68a10.73,10.73,0,0,0,1.73-2.09c3.37-5.07,8.13-8.15,13.84-10,3.55-1.15,7.07-2.38,10.58-3.65a86.61,86.61,0,0,1,40-4.53c6.78.79,13.59,2.63,20.41,1.55,8.64-1.38,16.58.36,24.5,3.51,10.15,4,20.78,6.79,30.23,12.65,5.91,3.68,12.09,6.93,17.65,11.16,1.24.94,2.52,2.17,4.16,1.43s.9-2.52.93-3.83a34,34,0,0,0-3-15.43c-9.35-19.71-4.49-16.35-23.86-23.47-19.62-7.21-40.25-10.62-61.1-12.24-3.33-.25-6.59-1.13-10-.58a63.62,63.62,0,0,1-18.15.08,23.59,23.59,0,0,0-8.88.22c-11.57,2.94-23.14,5.85-34.5,9.56a10.24,10.24,0,0,0-5.67,4.43,10.61,10.61,0,0,1-5.5,4.69c-4.08,1.37-5.76.52-6.38-3.68a9,9,0,0,0-2.09-4.46c-9-11.26-19.73-20.83-30.91-29.86-10.87-8.78-24-13.11-37.09-16.75-10.33-2.88-21.07-5-32-3.14a25.45,25.45,0,0,1-8,.21c-4.46-.64-9-1.36-13.49-1-8.18.61-16.41.87-24.45,3-8.81,2.32-18,3.35-25.66,9-1.53,1.14-3,2.13-2.69,4.24.89,5.49,3.46,7.23,8.93,5.69,12.24-3.44,24.58-6.58,36.41-11.36a17.55,17.55,0,0,1,8.66-1.57c7.3.91,14.54-.45,21.87-.15A225.65,225.65,0,0,1,148,417.86c14.5,3.66,25.62,12.21,33.6,24.85,1.87,3,3.74,5.89,5.68,8.79A42.24,42.24,0,0,1,194.41,477.4Zm190.69,6a26.33,26.33,0,0,0,2.19-3.56c3.43-8.74,7.72-17.2,10-26.33,4.14-16.69,8.76-33.25,11.08-50.39,1.37-10.15,5.41-19.84,9-29.4,6.52-17.18,11.09-35,18.27-52,2.33-5.49,2.65-11.51,4.59-17.09q8.91-25.7,17.82-51.39c.88-2.54,1.86-5,.69-7.82-2.93-7.19-7-13.44-13.4-18.05-1.82-1.31-2.52-.91-3.91.87-3.76,4.8-3.67,10.88-6,16.15a311.87,311.87,0,0,0-13.17,33.73c-8.1,26-15.75,52.16-23.28,78.33-8.74,30.36-15.49,61.28-25,91.44a7.51,7.51,0,0,0-.61,3.39C374.93,462.56,380.52,472.32,385.1,483.39ZM189.83,474a30.91,30.91,0,0,0-7.67-19.78c-6.36-7.23-12.25-14.91-20.29-20.62-7.1-5.06-14.62-8.59-23.22-9.77-9.42-1.29-19-1.94-28.3-3.63-15.06-2.74-29.78-1.52-44.51,1.23-5.92,1.1-11.57,3.64-17.49,4.56A31.08,31.08,0,0,0,36,431c-2,1.31-1.57,2.27,0,3.39,3.44,2.49,7.39,3.59,11.34,2.28A107.79,107.79,0,0,1,84,431.48c11.85.23,23.68-.61,35.05,4,3.32,1.34,7,2.81,10.4-.51.49-.48,1.78-.37,2.64-.22,9.68,1.68,19.39,3.59,27.33,9.75,10.56,8.18,16.65,19.8,22.73,31.34,1.26,2.39,1.95,6.64,4.88,6S190,477.11,189.83,474Zm-57.44-34.17c6.28,5.41,12.39,9.21,18.28,13.32,4.34,3,8.79,5.84,11.65,10.53a105,105,0,0,1,8,14.94c.9,2.22,3.13,3.43,5,2.44,2.2-1.16-.14-2.87-.78-4.06a87.58,87.58,0,0,0-27.36-31.46C143,442.66,138.35,441.1,132.39,439.85Z"/><path class="cls-3" d="M202,443c-9-14.45-23.06-22.06-35.4-31.68-13.32-10.39-28.81-13.94-45.08-15.51-15.86-1.53-31.79-.8-47.68-1.59-10.39-.51-20.28,3.28-30.29,5.71-5.88,1.43-11.77,2.8-17.39,5.19-3.58,1.53-4.9.79-5.74-3.05-2.2-10.08-1.56-20.29-.9-30.46A274.73,274.73,0,0,1,29,314.41c2.86-10.14,5-20.59,8.52-30.46,3.28-9.16,7.38-18.1,10.78-27.28,6.77-18.27,11.26-37.25,17-55.83,3.14-10.11,7.45-19.78,10.94-29.75,1.39-4,4.48-6.08,8.25-7.61,16.62-6.72,33.87-10,51.74-11.74s33.89,2.84,49.52,10.58c18.74,9.28,35,21.85,49.56,36.79a13,13,0,0,1,3.55,8.21c1.69,14.55-1,28.44-4.74,42.4-3.32,12.46-5.5,25.21-8.27,37.81-6.3,28.59-13.1,57.06-19.95,85.52-3.43,14.29-2.68,29-1.14,43.59a16.68,16.68,0,0,1,0,5.78A137.47,137.47,0,0,0,202,443Zm5.13-217.72c-.61-6.44-2.19-12.79-9.5-15.25-4.18-1.41-8.44-2.39-12.68-3.49-18.81-4.9-36.26-14-55.58-17.47a89.11,89.11,0,0,0-20.81-1.19,8.07,8.07,0,0,0-6.8,4.44,150.11,150.11,0,0,0-7,13.77c-6.43,14.16-9.6,29.38-14.73,44-3.49,9.89-5.48,20.15-7.45,30.4-.94,4.85.81,7.07,5.65,7.6,2.82.31,5.66.54,8.51.65,13.19.5,26.22,1.59,38.83,6.16a140.43,140.43,0,0,0,25,6.86c5.72.94,10.46,4.26,15.57,6.67s5.68,2.28,8.75-2.37c1.63-2.47,3.17-5,4.67-7.58,9.8-16.78,17-34.69,23.15-53C204.87,238.73,205.8,231.78,207.11,225.25ZM65.32,346c0,1.81,0,3.62,0,5.43,0,2.26,1.12,3.88,3.39,3.92,2.09,0,2.58-1.82,2.81-3.55.48-3.45.86-6.91,1.4-10.36,1.25-7.9,2.55-15.79,3.84-23.68.41-2.48.12-5.27-2.41-5.8-2-.42-2.71,2.34-3.29,4.16C68,325.85,65.19,335.63,65.32,346Zm94.9,24.37c0,.9,0,1.81,0,2.71-.06,1.45.39,2.68,1.92,2.89s2.38-.76,2.83-2.12a10.29,10.29,0,0,0,.63-2.23c.89-11.44,3.73-22.6,5.2-34a5.88,5.88,0,0,0-1.87-5.16,2.1,2.1,0,0,0-2.4-.81,2.35,2.35,0,0,0-1.69,2.32C164.57,346.29,159.88,358,160.23,370.36ZM94,349.83c-.24,1.66,1.1,4.38,3.25,4.44s2.59-3,2.61-5.2a41.12,41.12,0,0,1,4-18.34,16.38,16.38,0,0,0,1.7-10.54c-.28-1.39-.72-3-2.56-2.86a3.42,3.42,0,0,0-3.43,2.6A201.18,201.18,0,0,0,94,349.83Zm32.6-25.73a2.67,2.67,0,0,0-2.32-2.49c-2.06-.36-3.1,1.25-3.48,2.92-2.22,9.81-4.31,19.66-6.46,29.48a3.46,3.46,0,0,0,2.8,4.37c1.89.34,2.69-1.76,2.75-3.45.14-4.09,1.62-7.78,2.87-11.59C124.74,337.32,125.41,331,126.59,324.1Zm12.53,32.13c.38,2-1.4,5.08,1.93,5.46s3.3-2.79,3.76-5.15c1.37-7.08,2.69-14.16,4.26-21.19a7,7,0,0,0-1.36-6.14c-1.43-1.85-3.26-1.71-3.64.54C142.6,338.63,139.61,347.24,139.12,356.24Z"/><path class="cls-3" d="M209.17,448.4c.36-7.88.75-14.7,2.07-21.45a19.74,19.74,0,0,0,.28-6.56c-1.77-12.29-.29-24.58.27-36.81.51-11.17,3.63-22.07,6.27-33,5.57-23.07,12.07-46,15.51-69.47,2.42-16.57,7.33-32.4,11.94-48.37A41.14,41.14,0,0,0,247,218.93c-.33-5.61,1.7-9.63,6.95-12.13,18.59-8.84,37.8-15,58.65-15.21a207,207,0,0,0,22-1.83,73.89,73.89,0,0,1,22.74.87c10.14,1.92,20.52,2.13,30.71,4.1,8.63,1.66,15.8,6.17,23.11,10.41a105.05,105.05,0,0,1,20.71,15.6c2.93,2.85,3.16,5.27,2,8.88-4.52,14.4-11.71,27.79-15.95,42.3-2.14,7.29-5.86,14.21-7.61,21.43-3.08,12.7-8.41,24.62-11.48,37.24-5.4,22.17-10.51,44.4-15.83,66.58-3.23,13.46-8.77,26.35-13.25,39.51a36.21,36.21,0,0,0-2.14,9c-.23,3.09-1.48,4.36-4.86,3.16-9.6-3.4-19.14-7-29.15-9-16.57-3.34-33.09-7.17-50.14-7.2a30.79,30.79,0,0,0-6.92.4c-6.63,1.54-13.29-.11-20,.51s-13.11,1.22-19.47,3c-5.45,1.52-10.74,3.52-16.37,4.5C216.38,441.76,212.85,444.53,209.17,448.4Zm109.37-29.23c5.78-.48,11.63.3,17.41-.69,2.88-.49,4.87-2,5.08-5,.93-13,6-25,8.66-37.58,2.2-10.35,4.45-21,8.68-30.81,3.7-8.55,3.36-15.53-2.11-23-2.06-2.81-3.95-4.8-7.33-5.52-10.61-2.24-21.17-4.66-31.78-6.86-5.8-1.2-11.11-4.34-17.24-4.15-9.7.31-19.39.54-29.08.89-2.55.1-5,1-6.24,3.33-2.55,4.77-4.91,9.63-5.74,15.11-2.44,16.09-5.3,32.12-7.38,48.25-1.17,9-4.19,17.58-5.21,26.59-.74,6.56,2.72,10.94,9.3,11.73,4.87.59,9.78,1.07,14.58,2.08C286.1,416.95,302.08,420,318.54,419.17ZM383.4,241.44a3.1,3.1,0,0,0-2.39-3.58c-1.62-.37-2.74.74-3.41,2.32-2.47,5.81-4.95,11.6-6.41,17.78-2.92,12.41-5.94,24.79-8.86,37.2-.42,1.77-.71,3.79,1.84,4.29,2.2.43,3-1.28,3.43-2.92,3-12.65,7.65-24.86,9.75-37.76a38.35,38.35,0,0,1,5.05-14.11A5.14,5.14,0,0,0,383.4,241.44Zm-46,42.88a2.21,2.21,0,0,0,1.58,2,2.61,2.61,0,0,0,3.33-1.23,10.14,10.14,0,0,0,1.45-3.94c1.23-7.78,2.25-15.6,3.89-23.29,1.4-6.54,3.59-12.91,5.31-19.39.53-2,.81-4.31-2-5s-3.51,1.38-4.21,3.42a142.88,142.88,0,0,0-5.48,24.51C340.18,268.78,338.82,276.15,337.44,284.32Zm-20.2-9.92c0,1.75,0,2.53,0,3.3,0,1.6,0,3.59,1.95,3.63s2.66-1.76,2.81-3.59c0-.39,0-.78,0-1.16a52.34,52.34,0,0,1,3.63-16.93c3-8,5.24-16.17,7.76-24.29a5.62,5.62,0,0,0,.19-2.68c-.35-1.69-1.12-3.17-3.14-3.4-2.22-.26-2.49,1.46-2.91,2.91-2.27,7.93-4.93,15.77-6.21,24C320.3,262.63,316.72,268.56,317.24,274.4Zm-24.92-42.88c.28-2.82.06-4.37-2.29-4.55s-3.13.87-3.24,3.18a69.4,69.4,0,0,1-2.63,14.8q-4,14.71-7.86,29.45c-.36,1.34-.87,2.92,1.05,3.57s3-.35,3.67-1.85a23.55,23.55,0,0,0,1.33-3.61c1.8-6.17,3.62-12.34,5.31-18.54C289.77,246.27,291.78,238.54,292.32,231.52Zm4.74,40.59c-.12,2.47.22,3.8,2,4.1s2.46-.83,2.71-2.45q.55-3.63,1.27-7.23c2.59-13,7.17-25.48,10.07-38.4.47-2.11.58-4.15-1.74-4.77-2.59-.69-3.09,1.64-3.56,3.5-2.36,9.21-4.77,18.41-7,27.65C299.36,260.64,298.18,266.83,297.06,272.11Z"/><path class="cls-4" d="M194.41,477.4a42.24,42.24,0,0,0-7.17-25.89c-1.94-2.9-3.81-5.84-5.68-8.79-8-12.64-19.1-21.19-33.6-24.85a225.65,225.65,0,0,0-46.15-6.77c-7.33-.3-14.57,1.06-21.87.15a17.55,17.55,0,0,0-8.66,1.57c-11.83,4.78-24.17,7.91-36.41,11.36-5.48,1.55-8-.19-8.93-5.69-.34-2.11,1.16-3.1,2.69-4.24,7.64-5.68,16.85-6.71,25.66-9,8-2.13,16.27-2.38,24.45-3,4.45-.33,9,.39,13.49,1a25.45,25.45,0,0,0,8-.21c10.93-1.84,21.67.26,32,3.14,13.11,3.64,26.22,8,37.09,16.75,11.18,9,21.87,18.6,30.91,29.86a9,9,0,0,1,2.09,4.46c.61,4.2,2.29,5.05,6.38,3.68a10.61,10.61,0,0,0,5.5-4.69,10.24,10.24,0,0,1,5.67-4.43c11.36-3.71,22.93-6.61,34.5-9.56a23.59,23.59,0,0,1,8.88-.22,63.62,63.62,0,0,0,18.15-.08c3.41-.55,6.67.32,10,.58,20.86,1.63,41.48,5,61.1,12.24,19.38,7.11,14.51,3.76,23.86,23.47a34,34,0,0,1,3,15.43c0,1.31.77,3.07-.93,3.83s-2.92-.48-4.16-1.43c-5.56-4.24-11.74-7.49-17.65-11.16-9.45-5.86-20.07-8.62-30.23-12.65-7.92-3.14-15.86-4.89-24.5-3.51-6.82,1.09-13.63-.76-20.41-1.55a86.61,86.61,0,0,0-40,4.53c-3.51,1.27-7,2.5-10.58,3.65-5.71,1.84-10.47,4.91-13.84,10a10.73,10.73,0,0,1-1.73,2.09c-2.3,2-4.67.78-6.29-.68-1.91-1.73.81-2.49,1.61-3.4,7.68-8.62,18.59-11.81,28.42-16.84,7.59-3.89,16-3.63,24-5.34,10.93-2.33,22.14-1.88,33.18-3.51,9.53-1.41,18.84,2,27.75,5.55,8.11,3.27,16.78,5,24.47,9.42,1.37.79,3.23.78,4.87,1,1.31.2,2.84.17,3.26-1.33a2.89,2.89,0,0,0-1.72-3.19c-11.25-5.85-21.38-13.69-34.17-16.84-8.18-2-16.24-4.56-24.58-3.49-19,2.44-38.55,1.77-56.56,9.31-11.42,4.78-23.66,8.48-32.24,18.38-1.61,1.85-3,3.85-4.55,5.79-1.72,2.22-3.56,3.47-6.64,2.21s-2.08-3.36-1.84-5.48A11.17,11.17,0,0,0,194.41,477.4Z"/><path class="cls-4" d="M385.1,483.39c-4.58-11.06-10.17-20.83-11.75-32.1a7.51,7.51,0,0,1,.61-3.39c9.53-30.16,16.28-61.08,25-91.44,7.53-26.17,15.18-52.31,23.28-78.33a311.87,311.87,0,0,1,13.17-33.73c2.34-5.27,2.26-11.35,6-16.15,1.39-1.78,2.09-2.18,3.91-.87,6.39,4.62,10.47,10.87,13.4,18.05,1.17,2.85.19,5.28-.69,7.82q-8.9,25.7-17.82,51.39c-1.94,5.59-2.26,11.6-4.59,17.09-7.17,16.93-11.74,34.78-18.27,52-3.63,9.56-7.67,19.25-9,29.4-2.32,17.14-6.94,33.7-11.08,50.39-2.26,9.13-6.55,17.59-10,26.33A26.33,26.33,0,0,1,385.1,483.39Zm62.11-236c.21-3.24,0-5.58-2.78-6.09-3-.57-3.58,1.8-3.89,4.11-.92,7-3.7,13.34-6.81,19.6a106.92,106.92,0,0,0-6.19,16.6c-4.08,13.41-4.89,27.59-10.1,40.77-5.54,14-8.19,29-13.62,43-10.21,26.36-17.25,53.57-23.4,81.06-.43,1.9-.78,4.55,1.24,5.07s3.69-1.39,4.18-3.7c.14-.62.45-1.21.54-1.84,2.75-18.38,8.75-35.93,13.74-53.73,3.61-12.9,9.9-24.92,13.37-37.81,6.08-22.55,13.58-44.67,19.48-67.25,2.53-9.67,6.55-18.7,10.43-27.82C445.18,255.21,447.21,251.15,447.21,247.39Z"/><path class="cls-4" d="M189.83,474c.15,3.09.16,7.15-2.81,7.79s-3.63-3.62-4.88-6c-6.08-11.55-12.17-23.16-22.73-31.34-7.94-6.16-17.66-8.07-27.33-9.75-.86-.15-2.15-.26-2.64.22-3.37,3.32-7.08,1.85-10.4.51-11.37-4.56-23.2-3.72-35.05-4a107.79,107.79,0,0,0-36.68,5.2c-4,1.32-7.91.21-11.34-2.28-1.55-1.12-2-2.08,0-3.39a31.08,31.08,0,0,1,12.36-5c5.92-.92,11.57-3.46,17.49-4.56,14.73-2.74,29.45-4,44.51-1.23,9.31,1.69,18.88,2.35,28.3,3.63,8.6,1.18,16.13,4.71,23.22,9.77,8,5.72,13.93,13.39,20.29,20.62A30.91,30.91,0,0,1,189.83,474Z"/><path class="cls-5" d="M132.39,439.85c6,1.25,10.64,2.81,14.8,5.71A87.58,87.58,0,0,1,174.54,477c.64,1.19,3,2.9.78,4.06-1.87,1-4.09-.22-5-2.44a105,105,0,0,0-8-14.94c-2.86-4.69-7.31-7.51-11.65-10.53C144.78,449.07,138.67,445.26,132.39,439.85Z"/><path class="cls-6" d="M207.11,225.25c-1.31,6.53-2.24,13.47-4.46,20.1-6.14,18.36-13.35,36.27-23.15,53-1.5,2.57-3,5.11-4.67,7.58-3.07,4.65-3.76,4.73-8.75,2.37s-9.85-5.73-15.57-6.67a140.43,140.43,0,0,1-25-6.86c-12.61-4.57-25.64-5.66-38.83-6.16-2.84-.11-5.69-.33-8.51-.65-4.84-.52-6.58-2.74-5.65-7.6,2-10.25,4-20.51,7.45-30.4,5.14-14.57,8.3-29.79,14.73-44a150.11,150.11,0,0,1,7-13.77,8.07,8.07,0,0,1,6.8-4.44A89.11,89.11,0,0,1,129.36,189c19.31,3.45,36.77,12.57,55.58,17.47,4.24,1.1,8.5,2.08,12.68,3.49C204.93,212.46,206.5,218.81,207.11,225.25Zm-122,30.23c5.28-2.56,9.63-5.38,14.49-7s10-3.21,15.1-4.69A5,5,0,0,0,118.1,240c1.12-3.82,2.09-7.71,3.32-11.5,2.06-6.31,5.55-11.63,11.32-15.2,2.45-1.52,4.8-1.67,6.06,1.38,1.55,3.8,3.58,3.67,6.46,1.44s6.39-2,7.88.78c2.28,4.19,5.2,4.15,9,3.61,5.51-.76,8.37,2.9,6.8,8.32s-3.81,10.65-5.92,15.9c-1,2.55-1.44,5,1.64,6.67,7.34,3.9,12.27,10.12,16.39,17.13,2.38,4.05,3.28,4,5.7.09,3.36-5.48,4.4-11.76,6.18-17.78,2.29-7.77,4.94-15.47,6.24-23.47,1-5.9-3.07-12.71-8.2-13.17-9.86-.89-18.48-5.36-27.59-8.44-16.66-5.62-33-12.51-51.26-11.23-4.48.32-6.87,1.93-8.44,5.82-2.7,6.68-5.56,13.31-8.34,20C90.7,231.43,88.18,243.19,85.07,255.48ZM137.43,249c-17.12.54-30.89,1.89-43.72,8.37-8.45,4.27-11.84,11.7-14.07,20.08-.6,2.25.52,3.72,2.88,4.12,1.52.25,3,.59,4.59.72A203.84,203.84,0,0,1,117.73,287c7.54,1.78,14.34,5.77,21.91,7.55a254.05,254.05,0,0,1,26.58,8.16c2.5.89,3.82.59,4.93-1.78,1.87-4,3.74-7.94,5.88-11.76,3.06-5.45,2.32-10.55-.52-15.81C167.41,256.56,152.06,250.73,137.43,249Zm14.26-4a4.14,4.14,0,0,0,3-1.26,33.37,33.37,0,0,0,7.46-14.2c.34-1.34-.33-1.52-1.38-1.6-1.62-.12-3.18.08-4.13,1.52-2.63,4-5.31,7.91-7.68,12C147.89,243.42,148.51,245.06,151.69,245Zm-14.81-2.93a4.57,4.57,0,0,0,4.41-2.65c1.9-3.94,3.86-7.85,5.78-11.77.58-1.18,1.27-2.7.11-3.54-1.4-1-2.7.26-3.49,1.39-3,4.33-6,8.7-8.79,13.15C133.53,240.87,134.51,242,136.88,242.1ZM132,223.68c-4.12,2.69-7.14,10-6.36,15.27C129,236.27,131.83,229.57,132,223.68Z"/><path class="cls-7" d="M65.32,346c-.13-10.36,2.67-20.15,5.74-29.88.58-1.82,1.3-4.58,3.29-4.16,2.53.54,2.82,3.32,2.41,5.8-1.29,7.89-2.6,15.78-3.84,23.68-.54,3.44-.92,6.9-1.4,10.36-.24,1.73-.72,3.6-2.81,3.55-2.27,0-3.36-1.66-3.39-3.92C65.3,349.61,65.32,347.8,65.32,346Z"/><path class="cls-8" d="M160.23,370.36c-.35-12.35,4.34-24.08,4.62-36.35a2.35,2.35,0,0,1,1.69-2.32,2.1,2.1,0,0,1,2.4.81,5.88,5.88,0,0,1,1.87,5.16c-1.46,11.36-4.3,22.51-5.2,34a10.29,10.29,0,0,1-.63,2.23c-.45,1.36-1.36,2.33-2.83,2.12s-2-1.44-1.92-2.89C160.26,372.17,160.23,371.27,160.23,370.36Z"/><path class="cls-7" d="M94,349.83a201.18,201.18,0,0,1,5.61-29.91,3.42,3.42,0,0,1,3.43-2.6c1.84-.16,2.28,1.47,2.56,2.86a16.38,16.38,0,0,1-1.7,10.54,41.12,41.12,0,0,0-4,18.34c0,2.23-.36,5.27-2.61,5.2S93.76,351.49,94,349.83Z"/><path class="cls-8" d="M126.59,324.1c-1.18,6.89-1.85,13.21-3.84,19.24-1.26,3.8-2.73,7.5-2.87,11.59-.06,1.7-.86,3.79-2.75,3.45a3.46,3.46,0,0,1-2.8-4.37c2.15-9.82,4.24-19.67,6.46-29.48.38-1.67,1.42-3.28,3.48-2.92A2.67,2.67,0,0,1,126.59,324.1Z"/><path class="cls-7" d="M139.12,356.24c.49-9,3.48-17.6,5-26.48.37-2.25,2.2-2.39,3.64-.54a7,7,0,0,1,1.36,6.14c-1.57,7-2.88,14.12-4.26,21.19-.46,2.36-.33,5.54-3.76,5.15S139.5,358.24,139.12,356.24Z"/><path class="cls-9" d="M318.54,419.17c-16.46.86-32.44-2.23-48.41-5.59-4.79-1-9.7-1.49-14.58-2.08-6.58-.79-10-5.17-9.3-11.73,1-9,4-17.58,5.21-26.59,2.08-16.13,4.94-32.16,7.38-48.25.83-5.48,3.19-10.34,5.74-15.11,1.27-2.37,3.68-3.23,6.24-3.33,9.69-.34,19.38-.58,29.08-.89,6.13-.19,11.44,2.95,17.24,4.15,10.61,2.2,21.17,4.62,31.78,6.86,3.39.72,5.27,2.7,7.33,5.52,5.47,7.44,5.81,14.42,2.11,23-4.23,9.77-6.48,20.47-8.68,30.81C347,388.51,342,400.54,341,413.5c-.21,3-2.2,4.49-5.08,5C330.17,419.47,324.32,418.7,318.54,419.17ZM296,312.57c-5,1.08-10.15.87-15.31,1.1-13,.57-12.18,1.19-16,12.54-4.62,13.79-4.1,28.54-7.15,42.65a2.58,2.58,0,0,0,.93,2.8c1.34.84,2.08-.45,2.84-1.25a35.67,35.67,0,0,1,11.33-8c5.1-2.32,9.88-4.66,9.54-11.43a2.92,2.92,0,0,1,.33-1.1c.64-1.58,1.26-3.43,3.3-3.25s2.1,2.32,2.59,3.86a4.64,4.64,0,0,1,.07,1.55c-.09,2.54,1.43,3,3.54,2.85,3.73-.24,6.12-2.45,8.07-5.35A102.3,102.3,0,0,1,313.6,333c1-1,2.34-1.66,3.36-.9.83.63.52,2.19,0,3.26a16.22,16.22,0,0,1-1.49,2.26q-3.93,5.3-7.87,10.57c-1.23,1.65-2.24,3.67-.4,5.15s3-.62,4.12-1.75c5.91-6,11.86-11.92,18.26-17.39,1.44-1.23,2.94-2.42,4.67-.51s.78,3.68-.88,4.58C327,341.77,324.51,349,318.71,353c-2,1.4-1.76,3.21.49,4.59,2.57,1.59,4.56.69,6.64-1.06s4.3-1.55,6.6-.65c1.57.61,1.57,2.15,1.2,3.31-1.12,3.51.24,5.9,2.85,8.12,1.14,1,1.77,2.52,2.63,3.8s1.48,3.4,3.51,3.12,2.17-2.49,2.37-4c1.37-10.29,4.65-20.08,7.65-29.94a30.38,30.38,0,0,0,1.19-4.48c.93-6.41-3-12.16-9.18-13.29-9.27-1.68-18.56-3.21-27.75-5.31C310,315.59,303.27,313.26,296,312.57Zm4.46,47.86c-2.23.61-4.16.44-6.07,1-2.6.72-3.5,1.91-2.45,4.45.54,1.33,1.11,2.78-.36,3.86-1.73,1.28-3.37-.12-4-1.14-3.52-5.39-7.41-3.51-11.5-1a18.33,18.33,0,0,1-3.11,1.55c-2.57,1-3.68,2.1-2,5.06a21.65,21.65,0,0,1,2.73,13.44,57.76,57.76,0,0,1-4.55,15.89c-1,2.42-.82,3.45,2.11,4.21,11.71,3,23.34,6.14,35.57,6.46,6.37.17,7.42-.13,8-6.19.75-7.3,4.41-12.5,10.75-16,3.06-1.66,6.17-3.25,9.23-4.91,2.39-1.28,3.37-3,1.93-5.69-1.81-3.41-3.35-7-5.14-10.39-1.58-3-3.25-3.27-5.85-1-1.48,1.25-2.78,2.71-4.23,4a3.47,3.47,0,0,1-4.6.18c-1.54-1-1.3-2.28-.68-3.73.51-1.17.6-2.53,1.15-3.68,1-2.06.47-3.19-1.77-3.57C310.49,362.34,305.24,361.84,300.46,360.43Zm-32.24,28.46a30.21,30.21,0,0,0-1.22-8.77c-.46-1.74.36-4.49-1.94-5-2.14-.47-3.17,2.06-4.14,3.54-1.52,2.33-4.9,2.67-5.65,5.55-.85,3.22-2,6.5-2,9.75,0,3-.94,6.68,1.37,9.14,2.76,2.92,8.59,1.61,10.58-2A26.51,26.51,0,0,0,268.22,388.89Zm59.5,25.38c3.59-.29,6.19-1.06,6.87-4.87.73-4,2-8,3-12,.81-3.26.22-3.83-3.1-3.07-5.87,1.34-13.75,10.66-14.09,16.7-.07,1.27-.29,2.88,1.66,2.81A19.12,19.12,0,0,1,327.72,414.26Z"/><path class="cls-8" d="M383.4,241.44a5.14,5.14,0,0,1-1,3.21,38.35,38.35,0,0,0-5.05,14.11c-2.1,12.89-6.76,25.11-9.75,37.76-.39,1.64-1.23,3.35-3.43,2.92-2.55-.49-2.26-2.51-1.84-4.29,2.92-12.41,5.93-24.79,8.86-37.2,1.46-6.17,3.94-12,6.41-17.78.67-1.58,1.78-2.69,3.41-2.32A3.1,3.1,0,0,1,383.4,241.44Z"/><path class="cls-7" d="M337.44,284.32c1.38-8.17,2.74-15.53,3.86-22.94a142.88,142.88,0,0,1,5.48-24.51c.69-2,1.41-4.14,4.21-3.42s2.53,3,2,5c-1.71,6.48-3.91,12.85-5.31,19.39-1.64,7.69-2.65,15.51-3.89,23.29a10.14,10.14,0,0,1-1.45,3.94,2.61,2.61,0,0,1-3.33,1.23A2.21,2.21,0,0,1,337.44,284.32Z"/><path class="cls-8" d="M317.24,274.4c-.52-5.84,3.06-11.77,4.08-18.25,1.29-8.19,3.95-16,6.21-24,.41-1.44.69-3.17,2.91-2.91,2,.24,2.8,1.71,3.14,3.4a5.62,5.62,0,0,1-.19,2.68c-2.53,8.12-4.8,16.33-7.76,24.29A52.34,52.34,0,0,0,322,276.58c0,.39,0,.78,0,1.16-.15,1.83-1,3.63-2.81,3.59s-2-2-1.95-3.63C317.25,276.93,317.24,276.15,317.24,274.4Z"/><path class="cls-7" d="M292.32,231.52c-.54,7-2.55,14.75-4.65,22.45-1.7,6.2-3.52,12.36-5.31,18.54a23.55,23.55,0,0,1-1.33,3.61c-.72,1.5-1.89,2.45-3.67,1.85s-1.41-2.23-1.05-3.57q3.89-14.74,7.86-29.45a69.4,69.4,0,0,0,2.63-14.8c.11-2.31.93-3.35,3.24-3.18S292.6,228.7,292.32,231.52Z"/><path class="cls-8" d="M297.06,272.11c1.12-5.27,2.3-11.47,3.76-17.59,2.22-9.24,4.63-18.45,7-27.65.47-1.86,1-4.19,3.56-3.5,2.33.62,2.22,2.66,1.74,4.77-2.89,12.92-7.47,25.41-10.07,38.4q-.72,3.6-1.27,7.23c-.24,1.62-.84,2.76-2.71,2.45S296.95,274.58,297.06,272.11Z"/><path class="cls-10" d="M447.21,247.39c0,3.76-2,7.82-3.79,12-3.88,9.12-7.9,18.15-10.43,27.82-5.9,22.58-13.4,44.7-19.48,67.25-3.47,12.89-9.76,24.91-13.37,37.81-5,17.8-11,35.35-13.74,53.73-.09.63-.4,1.22-.54,1.84-.49,2.31-2.21,4.21-4.18,3.7s-1.67-3.17-1.24-5.07c6.14-27.5,13.19-54.7,23.4-81.06,5.42-14,8.08-29,13.62-43,5.21-13.18,6-27.36,10.1-40.77a106.92,106.92,0,0,1,6.19-16.6c3.11-6.26,5.88-12.59,6.81-19.6.3-2.3.87-4.67,3.89-4.11C447.16,241.81,447.42,244.15,447.21,247.39Z"/><path class="cls-11" d="M85.07,255.48c3.1-12.29,5.63-24,10.29-35.21,2.78-6.65,5.64-13.27,8.34-20,1.57-3.89,4-5.5,8.44-5.82,18.26-1.28,34.6,5.61,51.26,11.23,9.11,3.07,17.73,7.54,27.59,8.44,5.14.46,9.17,7.27,8.2,13.17-1.3,8-3.95,15.7-6.24,23.47-1.78,6-2.82,12.31-6.18,17.78-2.43,3.95-3.32,4-5.7-.09-4.12-7-9-13.23-16.39-17.13-3.07-1.63-2.67-4.11-1.64-6.67,2.11-5.25,4.33-10.45,5.92-15.9s-1.3-9.08-6.8-8.32c-3.82.54-6.74.58-9-3.61-1.49-2.76-5.1-2.93-7.88-.78s-4.9,2.35-6.46-1.44c-1.26-3.05-3.61-2.9-6.06-1.38-5.77,3.57-9.26,8.89-11.32,15.2-1.23,3.79-2.2,7.67-3.32,11.5a5,5,0,0,1-3.44,3.81c-5.05,1.48-10.1,3-15.1,4.69S90.35,252.92,85.07,255.48Z"/><path class="cls-12" d="M137.43,249c14.63,1.7,30,7.53,39.07,24.33,2.84,5.26,3.57,10.36.52,15.81-2.14,3.82-4,7.8-5.88,11.76-1.11,2.37-2.43,2.67-4.93,1.78a254.05,254.05,0,0,0-26.58-8.16c-7.57-1.78-14.37-5.77-21.91-7.55a203.84,203.84,0,0,0-30.62-4.69c-1.54-.12-3.06-.46-4.59-.72-2.36-.4-3.48-1.87-2.88-4.12,2.23-8.38,5.61-15.81,14.07-20.08C106.55,250.92,120.31,249.57,137.43,249Zm-9.15,17c-.54-1.22-.42-3.87-2.89-3.65a5,5,0,0,0-4.73,4.41c-.22,2.25.88,4.23,3.38,4.41C127.13,271.44,127.76,269,128.29,266.06ZM151,274.32c0-1.5-.41-3.35-2.81-3.35s-4.13,1.12-3.95,3.71c.14,2,.89,3.9,3.45,3.89S151.06,277.06,151,274.32Z"/><path class="cls-13" d="M151.69,245c-3.18,0-3.81-1.62-2.71-3.53,2.37-4.11,5.05-8.06,7.68-12,1-1.43,2.51-1.64,4.13-1.52,1,.08,1.72.25,1.38,1.6a33.37,33.37,0,0,1-7.46,14.2A4.14,4.14,0,0,1,151.69,245Z"/><path class="cls-13" d="M136.88,242.1c-2.37-.1-3.35-1.24-2-3.41,2.83-4.45,5.78-8.82,8.79-13.15.79-1.13,2.09-2.4,3.49-1.39,1.16.84.47,2.36-.11,3.54-1.92,3.92-3.89,7.83-5.78,11.77A4.57,4.57,0,0,1,136.88,242.1Z"/><path class="cls-14" d="M132,223.68c-.18,5.89-3,12.59-6.36,15.27C124.87,233.64,127.9,226.37,132,223.68Z"/><path class="cls-15" d="M296,312.57c7.26.69,14,3,20.9,4.59,9.19,2.09,18.48,3.63,27.75,5.31,6.21,1.13,10.11,6.89,9.18,13.29a30.38,30.38,0,0,1-1.19,4.48c-3,9.86-6.29,19.64-7.65,29.94-.21,1.53-.26,3.73-2.37,4s-2.6-1.76-3.51-3.12-1.49-2.84-2.63-3.8c-2.61-2.21-4-4.6-2.85-8.12.37-1.16.37-2.7-1.2-3.31-2.29-.9-4.64-1-6.6.65s-4.06,2.65-6.64,1.06c-2.24-1.38-2.53-3.19-.49-4.59,5.8-4,8.3-11.2,14.65-14.66,1.66-.9,2.55-2.73.88-4.58s-3.23-.72-4.67.51c-6.4,5.46-12.35,11.4-18.26,17.39-1.11,1.13-2.38,3.17-4.12,1.75s-.82-3.5.4-5.15q3.93-5.28,7.87-10.57a16.22,16.22,0,0,0,1.49-2.26c.53-1.08.84-2.63,0-3.26-1-.77-2.35-.09-3.36.9a102.3,102.3,0,0,0-13.5,16.47c-1.95,2.9-4.33,5.11-8.07,5.35-2.11.14-3.63-.31-3.54-2.85a4.64,4.64,0,0,0-.07-1.55c-.48-1.54-.46-3.68-2.59-3.86s-2.67,1.67-3.3,3.25a2.92,2.92,0,0,0-.33,1.1c.34,6.77-4.44,9.11-9.54,11.43a35.67,35.67,0,0,0-11.33,8c-.76.8-1.5,2.1-2.84,1.25a2.58,2.58,0,0,1-.93-2.8c3-14.12,2.52-28.87,7.15-42.65,3.8-11.35,3-12,16-12.54C285.86,313.44,291,313.65,296,312.57Z"/><path class="cls-16" d="M300.46,360.43c4.78,1.41,10,1.91,15.21,2.78,2.24.38,2.75,1.51,1.77,3.57-.55,1.15-.65,2.5-1.15,3.68-.62,1.45-.86,2.71.68,3.73a3.47,3.47,0,0,0,4.6-.18c1.45-1.29,2.75-2.75,4.23-4,2.6-2.22,4.27-1.94,5.85,1,1.79,3.42,3.32,7,5.14,10.39,1.44,2.71.46,4.4-1.93,5.69-3.07,1.65-6.17,3.24-9.23,4.91-6.34,3.45-10,8.65-10.75,16-.63,6.06-1.67,6.35-8,6.19-12.23-.32-23.86-3.42-35.57-6.46-2.93-.76-3.12-1.8-2.11-4.21a57.76,57.76,0,0,0,4.55-15.89A21.65,21.65,0,0,0,271,374.18c-1.71-3-.6-4.08,2-5.06a18.33,18.33,0,0,0,3.11-1.55c4.09-2.5,8-4.38,11.5,1,.66,1,2.3,2.42,4,1.14,1.47-1.09.9-2.53.36-3.86-1.05-2.55-.15-3.73,2.45-4.45C296.3,360.87,298.24,361,300.46,360.43Zm-10.24,22.31c.07-2.92-1-4.66-2.82-4.72-2.4-.07-5.12,3-5.15,5.81,0,2.51,1.39,4.11,3.64,4.12C289,388,290.16,385.64,290.23,382.74Zm18.44.25c-.19,3,1.35,4.86,4.36,5,2.82.15,3.25-2.43,3.32-4.31.09-2.65-1.35-4.73-4.32-4.88C309.27,378.68,308.62,380.57,308.67,383Z"/><path class="cls-13" d="M268.22,388.89a26.51,26.51,0,0,1-3,12.21c-2,3.62-7.82,4.94-10.58,2-2.32-2.46-1.39-6.11-1.37-9.14,0-3.26,1.19-6.53,2-9.75.75-2.88,4.13-3.22,5.65-5.55,1-1.48,2-4,4.14-3.54,2.3.51,1.48,3.25,1.94,5A30.21,30.21,0,0,1,268.22,388.89Z"/><path class="cls-13" d="M327.72,414.26a19.12,19.12,0,0,0-5.67-.4c-1.95.07-1.73-1.55-1.66-2.81.34-6,8.22-15.35,14.09-16.7,3.32-.76,3.91-.19,3.1,3.07-1,4-2.27,7.94-3,12C333.91,413.2,331.31,414,327.72,414.26Z"/><path class="cls-17" d="M128.29,266.06c-.53,2.95-1.15,5.38-4.23,5.17-2.5-.18-3.6-2.16-3.38-4.41a5,5,0,0,1,4.73-4.41C127.87,262.18,127.75,264.84,128.29,266.06Z"/><path class="cls-8" d="M151,274.32c.06,2.75-.84,4.24-3.32,4.25s-3.31-1.92-3.45-3.89c-.18-2.59,1.64-3.72,3.95-3.71S151,272.82,151,274.32Z"/><path class="cls-10" d="M290.23,382.74c-.06,2.9-1.18,5.24-4.33,5.22-2.24,0-3.65-1.62-3.64-4.12,0-2.77,2.74-5.89,5.15-5.81C289.26,378.08,290.29,379.82,290.23,382.74Z"/><path class="cls-10" d="M308.67,383c0-2.42.6-4.31,3.36-4.17,3,.15,4.41,2.23,4.32,4.88-.07,1.88-.51,4.46-3.32,4.31C310,387.85,308.48,386,308.67,383Z"/></svg>