<svg id="圖層_1" data-name="圖層 1" xmlns="http://www.w3.org/2000/svg" xmlns:xlink="http://www.w3.org/1999/xlink" viewBox="0 0 391.16 397.94"><defs><style>.cls-1{fill:none;clip-rule:evenodd;}.cls-2{clip-path:url(#clip-path);}.cls-3{fill:#080505;}.cls-10,.cls-11,.cls-12,.cls-13,.cls-14,.cls-15,.cls-16,.cls-17,.cls-3,.cls-4,.cls-5,.cls-6,.cls-7,.cls-8,.cls-9{fill-rule:evenodd;}.cls-4{fill:#fff;}.cls-5{fill:#fcfdfd;}.cls-6{fill:#deb735;}.cls-7{fill:#c5543e;}.cls-8{fill:#6e5330;}.cls-9{fill:#5b7e36;}.cls-10{fill:#c35640;}.cls-11{fill:#d7b23c;}.cls-12{fill:#626752;}.cls-13{fill:#64714e;}.cls-14{fill:#5a5144;}.cls-15{fill:#6b7c49;}.cls-16{fill:#0c0d0d;}.cls-17{fill:#131313;}</style><clipPath id="clip-path"><path class="cls-1" d="M115.68,11l11.4,107.37s27.61-10.08,40.2-10.44,27.31-4,37.94-1.87S209.85-4,209.85-4Z"/></clipPath></defs><title>graphic</title><g class="cls-2"><path class="cls-3" d="M311.6,269.26c-.55,5.92-1.34,11.83-1.59,17.76-.23,5.52-2.35,10.46-3.95,15.57-1.34,4.28-2.82,8.51-4,12.82a9.64,9.64,0,0,1-6.91,7.19,25.08,25.08,0,0,0-12.91,8c-5.59,6.65-13.23,10.85-20.4,15.55-2.68,1.76-4.4,3.19-3,7.15,1.07,3-.37,6.63-.88,10A152.9,152.9,0,0,1,250,392.36c-1.27,3.47-1.18,3.49,2.49,4.65,1.9.6,3.81,1.2,5.66,1.93a2.75,2.75,0,0,1,1.71,3.67c-.51,1.57-2,1.14-3.09.86-4.59-1.17-9.6-.87-13.66-3.9a.92.92,0,0,0-.28-.11c-4.49-1.44-4.48-1.44-4.56-6.36-.13-8.39.93-16.7,1.76-25,.26-2.67,0-5.39.14-8.08.06-1.81-.67-1.89-2.18-1.45-4.49,1.31-8.56,3.82-13.26,4.53-6.79,1-13.55,2.46-20.46,2.1-6.2-.33-12.33.64-18.51.76a97.84,97.84,0,0,1-27.46-3.35c-3.48-.93-3.77-.54-3.9,3-.31,8.69.22,17.35.64,26,.27,5.51-2.15,7.81-7.71,7.79-3.2,0-6.39-.06-9.59-.05a5.47,5.47,0,0,1-4.88-2.93,3.72,3.72,0,0,1-.27-4c.88-1.44,2.28-.75,3.51-.39a34.78,34.78,0,0,0,8.1,1c-.6-3.51-2.2-6.49-3.58-9.54-3.18-7-3.82-14.6-4.71-22.1-.41-3.42-1.88-5.31-5.32-6.57a165.52,165.52,0,0,0-30.73-8.53,17.51,17.51,0,0,1-10.55-5.79c-.55-.62-1.08-1.79-2.07-1.3s-.5,1.63-.51,2.48c-.15,9.18,1.32,18.36.43,27.51-.93,9.55.28,19.14-1,28.69-.47,3.53-1.84,5.68-5.24,6.7a20,20,0,0,1-8,.75c-3.92-.43-6.24-2.76-6.71-6.77a91.56,91.56,0,0,1,0-20.58,35,35,0,0,0-.22-11c-.54-2.54.25-5,.3-7.43a250,250,0,0,0-2.74-43.79c-1.25-7.93-1.06-16.09-3.71-23.82-.32-.94-.36-2-1.66-2.58-1.46,2.37-.8,5-.8,7.44a10.76,10.76,0,0,1-3.43,8c-3.17,3.09-7.42,2.46-9.51-1.4-2.77-5.1-5.38-10.25-5-16.34.12-2.07-.85-2.81-3-2.13a9.16,9.16,0,0,0-6.6,8.33,47.83,47.83,0,0,0,0,5.69c.19,3.41-1.64,5.45-4.5,6.7-6.9,3-14.41-1.78-15.23-9.76a20.9,20.9,0,0,1,.49-7.12c1.6-6.59,3.08-13.16,7.65-18.54,5.9-7,13.63-10.16,22.45-11,2-.18,2.77-.84,3.29-2.6A92.64,92.64,0,0,0,47,238.73c.74-8.19,3.35-15.94,5.51-23.81,4.86-17.69,12.33-34.28,20.4-50.67,5.28-10.71,13-19.27,22.09-26.78,11.77-9.72,25.24-16.29,39.36-21.73,1.67-.64,2.19-1.43,1.71-3.38-2.75-11.11-5.34-22.31-6.07-33.73-.86-13.54-.86-27.13-.88-40.7,0-7.33,1.84-14.16,4.52-20.87a8.81,8.81,0,0,1,4.09-4.59c2.29-1.25,3.94-1,6.34.78,5.8,4.34,6.72,10.68,7.8,16.83,1.86,10.57,3.07,21.25,4.6,32.24,1.77-2.33,2.34-4.94,3.33-7.32a20.37,20.37,0,0,1,4.93-7.39,3.83,3.83,0,0,1,4.87-.66c5.2,2.54,6.11,7.33,6.32,12.33.19,4.48,1.19,8.91.55,13.42,1.51.24,1.63-.87,2-1.56a32.88,32.88,0,0,1,6.17-8c3.09-2.76,6.5-2.38,8,1.37,2.88,7.08,4.51,14.44,3.33,22.18A129.26,129.26,0,0,1,193,103c-.62,2.15,1.1,2.31,2.43,2.46a69.22,69.22,0,0,0,9.83.56c14.17-.44,26.23,5.24,37.74,12.47,14.46,9.08,28.57,18.77,41,30.46,5.41,5.08,11.81,9.63,14.83,17,.79,1.92,2.17,1.51,3.74.92,6.34-2.36,12.47-5.43,19.25-6.35,5.3-.72,10.57-1,14.75,3.51a10.84,10.84,0,0,1,1,13c-6.18,8.85-14.77,14.4-24.76,18-6.38,2.28-6.65,2.31-4,8.32,3.3,7.38,3.9,15.18,4.34,23a4.63,4.63,0,0,0,1.94,3.82c5.13,3.62,8.34,8.78,11.25,14.15,4.18,7.69,9.1,15,11.15,23.73a36.78,36.78,0,0,1,.43,15.7c-.72,3.67-3.66,4.56-6.69,5.52s-5.66.6-7.51-2c-2.32-3.23-4.34-6.68-6.48-10q-2.56-4-5.1-8.07Zm-30.26.69v14.29c0,2.44-.52,4.89-.56,7.33-1.08,3.52-.64,7.12-.75,10.69-.48,5.52-1.09,11-1.55,16.57-.06.67-.88,1.6.46,1.92,1.8.42,6.25-1.94,6.64-3.71a79,79,0,0,0,1.35-8.17c.67-6.12.61-12.36,1.47-18.4,1-7,2.12-13.9.93-21-.3-1.81.7-4.09-2.59-3.86C281.9,266,281.34,266.49,281.34,269.95Zm11,44.33c.26,1.06.54,1.7,2,1.37a4.27,4.27,0,0,0,3.33-3.38,185.92,185.92,0,0,0,4.8-20.23c1.18-6.11.91-12.43,2.88-18.47.7-2.16.34-4.78,0-7.13-.57-4.28-2-5.09-5.47-3.82a18.57,18.57,0,0,1-3.94.68c-1.92.2-2.63,1.18-2.63,3v9.51c0,8.61-.83,17.21-1.46,25.82A27.72,27.72,0,0,0,292.33,314.28ZM264.74,310c0,4.39.09,8.77,0,13.16,0,2,.67,2.54,2.48,1.75s3.45-1.56,5.22-2.21c1.25-.46,1.61-1.11,1.82-2.54A218.89,218.89,0,0,0,276.34,289V278.34c0-1.69.47-3.44.18-5.08-1.15-6.53.42-5.53-5.74-4.36-1.17.22-2.26.63-3.42.84-3,.53-4.13,2.3-3.92,5.29.45,6.66.95,13.32.78,20C264.31,300,263.65,305.06,264.74,310ZM159.89,336.44a12.27,12.27,0,0,0-.14-3.57c-2.84-8.17-2.46-16.85-4.08-25.21-1.32-6.8-2.27-13.68-3.43-20.51-.15-.88.08-2.11-1.41-2.25-1.77-.16-3.52-.52-5.29-.58-4.08-.13-4.76.67-4.87,4.83-.36,14.11,2.09,27.87,5.2,41.54.8,3.52.58,7.29,2.5,10.54,3.67,1.31,7.45.38,11.17.52.76,0,1-.67.9-1.29C160.27,339.12,160.86,337.67,159.89,336.44Zm85.06-28.63q.06,1.76.12,3.51c.07,3.17-.6,6.38.52,9.5a24.69,24.69,0,0,1-.51,6.82c-.46,1.62.24,2.48,2,2.16,3.61-.64,7.23-1.24,10.83-2,1.08-.21,2.32-.77,2.45-1.94.33-3,1.07-6.09-.13-8.86a13.1,13.1,0,0,1-.67-6.68c.12-1.48.23-3,.41-4.45.65-5.49-1-10.89-.62-16.37s-1.19-10.62-2.17-15.88c-.31-1.67-1-2.19-2.59-1.92-2.93.52-5.84,1.22-8.78,1.48-3.29.29-3.73,2.37-3.13,4.77,1.6,6.44,1.09,13,1.78,19.54C244.49,301,243.93,304.42,244.95,307.81Zm-5.31-6.7c-.07-7.76-1.65-15.37-2.47-23-.17-1.6-1.18-2.12-2.67-2.17a50.71,50.71,0,0,0-10.33.83c-2.07.35-2.7,1.25-2.58,3.35.57,10,2.39,19.94,1.9,30q0,11.07-.09,22.14c0,1.65,0,3.32,2.39,1.86,3.88-.62,7.74-1.33,11.64-1.82,2.43-.31,3.38-1.47,3.42-3.9a143.76,143.76,0,0,0-.69-14.8C240,309.4,240.73,305.22,239.63,301.11ZM136.44,284.95c-4-1.24-8-.83-12.08-.11-6,.15-6.13.17-5.24,6.09q2,13.18,4.27,26.31c1.25,7.29,2.73,14.55,4,21.84.37,2.12,1.42,2.82,3.46,2.77,3.69-.09,7.39-.12,11.07,0,2.15.08,2.36-.63,2-2.62-1.73-10.87-4.95-21.48-5.9-32.46-.41-4.7-2.38-9.12-2.08-13.91C136.14,290.23,137.22,287.64,136.44,284.95Zm83.42,42.64c.72-.85.55-1.89.55-2.86,0-6,.05-12,0-17.94,0-1.35.38-2.81-.52-4.06.26-7.41-1.62-14.59-2.31-21.9-.19-2.06-1.19-2.81-3.11-2.64a108.63,108.63,0,0,0-12.65,1.91A2.78,2.78,0,0,0,199.3,283a50.77,50.77,0,0,0,.41,9.24c1.36,8.82,3.69,17.52,3.31,26.55-.2,4.67-.79,9.33-.61,14,.44,1.2-1,3.27,1.22,3.56,1.74.22,3.68.61,5.37-.51.9,0,1.8,0,2.7,0C219.05,335.64,219.66,335,219.86,327.59ZM71.79,347.23q0,10.81,0,21.62c0,.87-.2,1.8.57,2.5,0,6.95-1.15,13.76-2.19,20.6-.46,3,.79,5.2,3.38,5.61,5,.78,5.34.56,6.06-3.62a139.7,139.7,0,0,0,1.8-24.54c1.32-3.93.36-8,.53-11.94.08-1.79.65-3.73-.53-5.44-.88-7.63.18-15.27,0-22.9a13.46,13.46,0,0,0-.11-2.68c-2.36-10.13-3.16-20.54-5.32-30.7-1.19-5.6-1.64-11.38-4.32-16.62-1.13-2.2-2.28-4.21-4.75-5.06-2.1-.72-4.33-1.42-6.07.56-2.13,2.44-2.26,5.83,0,7.84,6,5.44,7.28,12.47,7.44,20a120.89,120.89,0,0,0,.72,14.57C70.33,327.08,70.43,337.22,71.79,347.23ZM186.67,190c.46-2.48,1.85-3,4.12-3,6.88.11,13.88.7,20.61-.36s13.52-2.41,20.35-3A257.49,257.49,0,0,0,290.84,171c1.43-.48,1.58-.9,1.21-2.3-1.17-4.45-3.89-7.69-7.27-10.68a344,344,0,0,0-33.18-25.93c-7.41-5.09-14.92-9.92-22.72-14.34a18.54,18.54,0,0,0-6.07-2.41c-13.66-2.21-27.29-4.91-41.24-3.61-3.76.35-8.07-.48-11.17,1.41-5.35,3.27-11.17,4.44-17,5-19.54,2-36,11.14-51.54,22-9.18,6.42-15.7,15.47-21.5,25-8.61,14.21-16.82,28.59-20.82,44.91-2.77,11.29-6.3,22.4-6.66,34.21a66.77,66.77,0,0,1-4.44,21.86c-1.57,4.11-3,8.2-3.34,12.63-.39,5.26-1,10.54.93,15.66.56,1.46,1.6,3.17,2.78,3.25,1.43.09,2-1.92,2.61-3.26a8.69,8.69,0,0,0,.58-3.21c.36-5.27.58-10.56,1.19-15.8.65-5.57,3-10.29,8.06-13.28.68-.4,1.78-1.46,2.12,0,.5,2.13,2.28,2.54,3.71,3a17.58,17.58,0,0,1,10.11,8.37c1.21,2,3,2.7,5.23,2.78,18,.62,36.08,1.46,54.13,1.84,11.17.23,22.36-.14,33.53-.39a230.44,230.44,0,0,0,29.43-2.94c10.92-1.67,21.65-4.45,32.66-5.56,23.44-2.37,46.34-7.55,69.14-13.25a4,4,0,0,0,3.1-3.16c1.93-6.28,1.19-12.66,1.13-19a112.35,112.35,0,0,0-5-33c-.32-1-.32-2.25-2.23-2-7,.93-14,1.77-21.1,2.34-7.24.59-14.47,1.64-21.76,1.24-3.18-.18-6.35-.58-9.52-.95-11.09-1.28-22.19-2.5-33.26-3.9C203.56,196.53,195.51,192,186.67,190ZM133.55,348.06c4.7,4.22,10.62,4.46,15.86,6.08,6.79,2.1,14,2.95,21.05,4.12,6.37,1.06,12.79,2.45,19.27,1.73a214.41,214.41,0,0,0,44.11-10.07c12.62-4.21,24.91-8.86,35.66-16.89,1.06-.79,2.5-1.29,2.4-3.35l-7.54,2c-16.09,4.28-32.63,5.94-49,8.36-7.7,1.14-15.53,1.29-23.06,3.62-5.28,1.63-10.78,1.85-16.28,1.77-12.17-.16-24.24,2.09-36.44,1.3A14.8,14.8,0,0,0,133.55,348.06ZM221.7,190.58a5.81,5.81,0,0,0,3.7,1.34c11,1.27,22,1.58,33,2.93,8.93,1.1,17.91-.19,26.86-.76a109.56,109.56,0,0,0,22.1-3.34c9.85-2.7,18.42-7.35,25.14-15.22,3.22-3.77,2.39-6.94-2.49-8a23,23,0,0,0-5.06-.28c-5.17.07-9.86,2.06-14.69,3.59-6.05,1.93-12.5,2.77-18.34,5.16-17.81,7.28-36.61,9.76-55.41,12.41C231.74,189.11,227,189.81,221.7,190.58ZM154,94.66a225.81,225.81,0,0,0-3.89-40.36c-1.55-8.51-2-17.2-4.53-25.55-.59-1.95-2.48-3.64-2.22-5.33.31-2-.43-2.53-1.84-2.9-1.93-.51-2.82.78-3.18,2.34-1.41,6.2-3.48,12.3-3.66,18.72-.46,15.78.92,31.48,2.5,47.14.74,7.31,2.36,14.54,3.57,21.8.32,1.89,1.11,2.77,3.25,2.12a48.86,48.86,0,0,1,7-1.48c2.22-.33,3-1.49,3-3.65C154,103.22,154,98.94,154,94.66Zm43,206.16c.22-7-2-12.38-1.86-18.08,0-1.28-1-1.7-2.11-1.54-5.38.8-10.88.79-16.18,2.22-1.17.31-2,.78-1.93,2.2.41,6.06.28,12.21,1.28,18.17,2,11.65,3.19,23.41,5.6,35,.33,1.61,1,2,2.43,1.78,3.62-.62,7.25-1.21,10.85-1.95,1.08-.22,2.51-.42,2.49-2.09-.09-6.79,1.27-13.56.47-20.32C197.42,310.66,198,305.06,197,300.82Zm-91.63-16c-1.25,0-1.95,0-2.64,0-3.19-.1-4.15.71-3.32,3.85,1,3.62.68,7.32.93,10.93.88,12.54,3.45,24.75,6.14,37,.47,2.14,1.54,3.08,3.7,3a35.42,35.42,0,0,1,10.65,1.1c2.94.81,2.82-.84,2.31-2.51-1.39-4.61-1.57-9.4-2.19-14.12-1.63-12.42-5.1-24.49-6.69-36.91-.13-1-.63-1.71-1.73-1.67C110,285.61,107.47,284.39,105.4,284.86Zm50.79,2.36c.43,3.15.88,6.29,1.28,9.44q1.74,13.73,3.45,27.46c.64,5.12,3,9.93,2.6,15.23-.12,1.83,1.38,2,2.75,1.83a51.91,51.91,0,0,1,7.14-.58c4.64,0,5.31-.66,4.33-5.25-3.44-16.06-4.67-32.4-6.44-48.67-.25-2.34-1.2-3.3-3.43-2.92a42.8,42.8,0,0,1-8.64.47C156.94,284.16,155.75,284.71,156.19,287.22Zm-61.83,2.84a11.06,11.06,0,0,0,.41-3.09c-.14-.73.09-1.87-1.24-2.07-3.71-.56-7.41-1.21-11.12-1.8-1.47-.23-2.07.08-1.74,1.88a123,123,0,0,1,2.15,13.81c.54,8,2.63,15.8,4,23.69,1.06,6,2.82,11.68,8.5,15.07,1.47.88,3.14,2.5,4.83,1.41s1.14-3.23,1-5c-.69-8.32-2.95-16.38-4-24.65C96.38,302.72,95.28,296.18,94.37,290.06ZM160,92.61a80.3,80.3,0,0,0-.13,9.94c.54,7.27.49,7.27,7.45,5.38a3.38,3.38,0,0,0,2.83-3.32c.95-10.11,2.45-20.19,2.47-30.36,0-6.43.55-13-2.3-19.1-.46-1-.76-2.27-2-2.43a3.36,3.36,0,0,0-3.19,1.85,16.07,16.07,0,0,0-2.23,5.5C160.66,71,159.27,82.06,160,92.61ZM314.75,236.41c-1.48,5.81-1.08,11.41-1.67,16.91-.34,3.22.64,5.76,2.06,8.46,3.57,6.78,8.71,12.59,12,19.54.66,1.38,1.9,2.87,3.79,2.1a4.73,4.73,0,0,0,3.1-5,64.5,64.5,0,0,0-1.38-9.74c-2.28-9.33-7.48-17.26-12.63-25.18C318.42,241.05,316.52,238.78,314.75,236.41ZM191.65,84.77c-.09-4.74-1.33-8.64-2.14-12.63-.28-1.39-.94-3.11-2.24-3.28-1.46-.19-2.48,1.34-3.25,2.66-5.89,10.06-7.48,21.25-8.65,32.56-.08.8-.09,1.93.82,2a28.7,28.7,0,0,0,10.5-1.29c.42-.14.73-.92.92-1.46A82,82,0,0,0,191.65,84.77ZM17.2,289.52c-.35,2.59,1.06,5.1,1.8,7.77.23.83.72,1.63,1.54,1.6S21.77,298,22,297.2c1-3.33,2.08-6.63,3-10,1-3.73,2.95-6.22,7.07-6.51,6-.42,10-2.87,10-9.57a5.87,5.87,0,0,1,.24-.86c.44-2.74-.55-3.9-3.33-3.94C28.12,266.2,17.23,277.64,17.2,289.52Zm132.64,102c.25-.75.44-1,.42-1.29-.8-9.12-.59-18.34-2.57-27.35-.32-1.45-.69-3.36-2.62-3-1.71.34-1.19,2.23-1.26,3.57a8.78,8.78,0,0,0,.05.89,107.64,107.64,0,0,0,3,18.85C147.51,386,147.4,389,149.84,391.56Zm98.05-15.17a1.07,1.07,0,0,0,1.13-1.06,182,182,0,0,0,3-20c.07-.83,1-2.47-.88-2.49-1.35,0-2.85.48-3.07,2.25a32.65,32.65,0,0,0-.18,3.87C247.88,364.75,247.89,370.56,247.89,376.39Z"/><path class="cls-4" d="M186.67,190c8.83,2,16.89,6.53,25.94,7.67,11.07,1.4,22.17,2.63,33.26,3.9,3.17.36,6.34.77,9.52.95,7.29.41,14.52-.64,21.76-1.24,7-.58,14.08-1.42,21.1-2.34,1.91-.25,1.91,1,2.23,2a112.35,112.35,0,0,1,5,33c.06,6.36.8,12.74-1.13,19a4,4,0,0,1-3.1,3.16c-22.8,5.7-45.7,10.88-69.14,13.25-11,1.11-21.75,3.89-32.66,5.56a230.44,230.44,0,0,1-29.43,2.94c-11.18.26-22.36.63-33.53.39-18-.38-36.08-1.22-54.13-1.84-2.24-.08-4-.75-5.23-2.78a17.58,17.58,0,0,0-10.11-8.37c-1.44-.44-3.21-.85-3.71-3-.34-1.46-1.44-.41-2.12,0-5,3-7.41,7.71-8.06,13.28-.61,5.24-.83,10.53-1.19,15.8a8.69,8.69,0,0,1-.58,3.21c-.63,1.34-1.18,3.36-2.61,3.26-1.18-.08-2.22-1.79-2.78-3.25-2-5.13-1.32-10.4-.93-15.66.33-4.42,1.77-8.52,3.34-12.63a66.77,66.77,0,0,0,4.44-21.86c.36-11.81,3.89-22.92,6.66-34.21,4-16.32,12.21-30.7,20.82-44.91,5.8-9.56,12.32-18.6,21.5-25,15.58-10.9,32-20.06,51.54-22,5.85-.59,11.66-1.76,17-5,3.1-1.89,7.41-1.06,11.17-1.41,14-1.3,27.58,1.4,41.24,3.61a18.54,18.54,0,0,1,6.07,2.41c7.8,4.42,15.31,9.25,22.72,14.34A344,344,0,0,1,284.79,158c3.37,3,6.09,6.22,7.27,10.68.37,1.39.21,1.82-1.21,2.3a257.49,257.49,0,0,1-59.09,12.66c-6.83.6-13.58,1.94-20.35,3s-13.73.46-20.61.36C188.53,187,187.13,187.52,186.67,190Zm36.7-21.9c-.14-5.8-.41-6.26-4.33-7.63-5.7-2-10.72-1.13-15,3.39-1.51,1.6-3.26,2.94-5.66,3-6.49,0-12.91-.26-19.14-2.41-1.85-.64-3.42-1.14-3.9-3.38a4.49,4.49,0,0,0-2.62-2.72,9.41,9.41,0,0,0-12.62,3c-1.24,1.8-2.46,3.62-3.53,5.52-2.27,4-.75,8,3.68,9.54a43.67,43.67,0,0,0,6.55,1.75c4,.72,6.92-.78,8.92-4.38.58-1,1.07-2.12,1.59-3.19.37-.75.73-1.29,1.78-.83,5.55,2.4,11.5,2,17.33,2.33a5.46,5.46,0,0,1,4.25,2.07c2.62,3,5.75,5.77,9.78,6.35C217.15,181.48,223.54,175.09,223.37,168.11Zm-14.64-34.94a10,10,0,0,0-4.68.71c-.81.32-1.64.8-1.67,1.87a2.13,2.13,0,0,0,1.46,2.06,13.18,13.18,0,0,0,2.54.8,37.8,37.8,0,0,0,13.61.62c4.33-.69,8.57-1.63,12.43-3.83a2.58,2.58,0,0,0,1.31-3.3c-.52-1.45-1.74-1.26-3-.86C223.57,133.56,216.27,134.73,208.74,133.17ZM151,138.3c3.9,0,7.72-.81,11.59-1,1.42-.07,2.89-.49,2.72-2.42s-1.62-2.26-3.24-2.09a53.7,53.7,0,0,1-9.21.22,43.75,43.75,0,0,0-6.83.4c-1.74.16-3.12.84-2.92,2.94.19,2,1.73,1.9,3.13,1.93C147.81,138.33,149.4,138.3,151,138.3Zm-23.71,7.35c-1.18,0-2.37-.08-3.55,0s-2.47.34-2.63,1.46c-.11.71.82,1.73,1.52,2.36,1.69,1.55,9.44,1.5,11.11,0a2.94,2.94,0,0,0,1.06-3.18c-.49-1.44-1.75-1-2.78-.88A15.51,15.51,0,0,1,127.28,145.65ZM246,150.83c1.79-.08,3.59-.05,5.37-.27a2.3,2.3,0,0,0,2.13-2.45c0-.84-.15-1.71-1.18-1.77a37.23,37.23,0,0,0-11.78,1.3,1.61,1.61,0,0,0-1.14,1.88c.19,1,1,1.09,1.83,1.11C242.84,150.66,244.43,150.76,246,150.83Zm-93.35-4.4c-2.14,0-4.4,1.85-4,3.48.45,1.89,1.07,3.88,3.74,3.79s5.1-1.66,5.08-3.44C157.46,148.17,155.19,146.37,152.67,146.42Zm68.41,4.12c-2.56,0-4.38,1.62-4.24,3.89.15,2.42,1.72,3.4,4,3.43s4.67-2.06,4.64-3.76S223.23,150.52,221.07,150.55Zm20.51,5.09a12.45,12.45,0,0,0,7.84,4.44,3.21,3.21,0,0,0,3.55-1.6c.64-1.14,1-3-.79-3C248.71,155.54,245.19,154,241.58,155.63Zm-116.26,2.82c2-.31,3.86-.57,5.72-.91,1-.17,1.71-.62,1.39-1.82-.27-1-.64-2.2-1.8-2a72.43,72.43,0,0,0-7.78,1.85,2,2,0,0,0-.94,1.41c-.11.74.69.89,1.24,1C123.9,158.23,124.68,158.33,125.33,158.45Z"/><path class="cls-5" d="M133.55,348.06a14.8,14.8,0,0,1,6-1.33c12.2.79,24.28-1.46,36.44-1.3,5.5.07,11-.14,16.28-1.77,7.53-2.33,15.36-2.48,23.06-3.62,16.4-2.42,32.94-4.08,49-8.36l7.54-2c.09,2.06-1.34,2.56-2.4,3.35-10.76,8-23,12.68-35.66,16.89A214.41,214.41,0,0,1,189.74,360c-6.48.72-12.9-.67-19.27-1.73-7.06-1.17-14.26-2-21.05-4.12C144.17,352.52,138.24,352.28,133.55,348.06Z"/><path class="cls-6" d="M221.7,190.58c5.28-.76,10-1.47,14.8-2.14,18.8-2.65,37.6-5.13,55.41-12.41,5.84-2.39,12.29-3.24,18.34-5.16,4.83-1.54,9.52-3.53,14.69-3.59a23,23,0,0,1,5.06.28c4.88,1,5.71,4.21,2.49,8-6.72,7.87-15.29,12.52-25.14,15.22a109.56,109.56,0,0,1-22.1,3.34c-8.95.57-17.93,1.86-26.86.76-11-1.35-22-1.66-33-2.93A5.81,5.81,0,0,1,221.7,190.58Z"/><path class="cls-7" d="M154,94.66c0,4.28,0,8.56,0,12.84,0,2.16-.79,3.32-3,3.65a48.86,48.86,0,0,0-7,1.48c-2.14.65-2.94-.23-3.25-2.12-1.22-7.27-2.84-14.49-3.57-21.8-1.58-15.66-3-31.37-2.5-47.14.19-6.41,2.25-12.51,3.66-18.72.35-1.56,1.25-2.85,3.18-2.34,1.41.37,2.15.86,1.84,2.9-.26,1.69,1.63,3.38,2.22,5.33,2.52,8.36,3,17,4.53,25.55A225.81,225.81,0,0,1,154,94.66Z"/><path class="cls-8" d="M82.34,369.4a145.25,145.25,0,0,1-2.29,24.54c-.72,4.18-1.35,4.4-6.31,3.62-2.6-.41-4-2.59-3.5-5.61,1-6.83,2.17-13.65,2.13-20.6q0-10.81,0-21.62c0-.86.21-1.8-.57-2.5-1.36-10-1.47-20.14-2.9-30.16a120.89,120.89,0,0,1-.72-14.57c-.16-7.56-1.44-14.59-7.44-20-2.22-2-2.1-5.41,0-7.84,1.73-2,4-1.28,6.07-.56,2.47.84,3.62,2.85,4.75,5.06,2.68,5.24,3.13,11,4.32,16.62,2.16,10.16,3,20.57,5.32,30.7a13.91,13.91,0,0,1,.6,2.68c.19,7.63-1.5,15.27.5,22.9Z"/><path class="cls-9" d="M197,300.82c.92,4.24.39,9.84,1,15.38.8,6.77-.56,13.54-.47,20.32,0,1.67-1.41,1.87-2.49,2.09-3.6.74-7.23,1.33-10.85,1.95-1.38.24-2.1-.18-2.43-1.78-2.4-11.58-3.63-23.34-5.6-35-1-6-.88-12.11-1.28-18.17-.1-1.43.76-1.89,1.93-2.2,5.3-1.42,10.8-1.41,16.18-2.22,1.08-.16,2.15.25,2.11,1.54C195,288.44,197.25,293.86,197,300.82Z"/><path class="cls-9" d="M202.41,332.79c-.18-4.69.41-9.35.61-14,.38-9-2-17.73-3.31-26.55a50.77,50.77,0,0,1-.41-9.24,2.78,2.78,0,0,1,2.48-2.89,108.63,108.63,0,0,1,12.65-1.91c1.93-.17,2.66.59,2.86,2.64.69,7.31,2.05,14.49,2.05,21.9v24.86c0,7.43-.55,8-7.91,8.24-.9,0-1.67,0-2.57,0C206.33,335.56,203,337.2,202.41,332.79Z"/><path class="cls-9" d="M136.44,284.95c.78,2.7-.3,5.29-.47,7.93-.3,4.79,1.67,9.21,2.08,13.91.95,11,4.17,21.6,5.9,32.46.32,2,.11,2.7-2,2.62-3.69-.14-7.38-.1-11.07,0-2,0-3.09-.65-3.46-2.77-1.26-7.29-2.74-14.55-4-21.84q-2.26-13.13-4.27-26.31c-.89-5.92-.78-5.94,5.24-6.09Z"/><path class="cls-9" d="M223.48,310.07c.49-10.07-1.33-20-1.9-30-.12-2.09.51-3,2.58-3.35a50.71,50.71,0,0,1,10.33-.83c1.49.05,2.5.57,2.67,2.17.82,7.68,2.4,15.29,2.47,23,.15,4.15-.55,8.33.51,12.45a143.76,143.76,0,0,1,.69,14.8c0,2.43-1,3.59-3.42,3.9-3.89.49-7.76,1.2-11.64,1.82-2.05.09-1.78-1.37-1.78-2.65,0-6.07,0-12.15,0-18.22C224,312.15,224.38,311,223.48,310.07Z"/><path class="cls-9" d="M105.4,284.86c2.07-.48,4.55.74,7.15.64,1.1,0,1.6.65,1.73,1.67,1.59,12.42,5.06,24.49,6.69,36.91.62,4.71.8,9.5,2.19,14.12.51,1.67.63,3.32-2.31,2.51a35.42,35.42,0,0,0-10.65-1.1c-2.15.07-3.23-.88-3.7-3-2.69-12.21-5.26-24.42-6.14-37-.25-3.61,0-7.3-.93-10.93-.83-3.14.13-4,3.32-3.85C103.46,284.88,104.15,284.86,105.4,284.86Z"/><path class="cls-9" d="M245.06,311.32q-.06-1.76-.12-3.52c-.13-3.42.55-6.89-.48-10.27-.69-6.5-.18-13.1-1.78-19.54-.6-2.41-.16-4.48,3.13-4.77,2.95-.26,5.86-1,8.78-1.48,1.55-.28,2.28.25,2.59,1.92,1,5.26,2.5,10.45,2.17,15.88s1.27,10.88.62,16.37c-.18,1.48-.28,3-.41,4.45a13.1,13.1,0,0,0,.67,6.68c1.2,2.77.46,5.91.13,8.86-.13,1.17-1.37,1.73-2.45,1.94-3.6.71-7.22,1.31-10.83,2-1.78.32-2.49-.54-2-2.16a24.69,24.69,0,0,0,.51-6.82C245.37,317.66,246.16,314.44,245.06,311.32Z"/><path class="cls-9" d="M156.19,287.22c-.45-2.51.74-3.06,3-3a42.8,42.8,0,0,0,8.64-.47c2.22-.38,3.17.59,3.43,2.92,1.77,16.27,3,32.62,6.44,48.67,1,4.58.32,5.29-4.33,5.25a51.91,51.91,0,0,0-7.14.58c-1.37.17-2.87,0-2.75-1.83.35-5.3-2-10.12-2.6-15.23q-1.71-13.73-3.45-27.46C157.08,293.51,156.62,290.37,156.19,287.22Z"/><path class="cls-9" d="M148.38,341.23c-1.92-3.25-1.7-7-2.5-10.54-3.11-13.67-5.55-27.43-5.2-41.54.11-4.16.78-5,4.87-4.83,1.77.06,3.52.42,5.29.58,1.5.14,1.26,1.37,1.41,2.25,1.16,6.84,2.12,13.71,3.43,20.51,1.62,8.36,1.23,17,4.08,25.21a12.27,12.27,0,0,1,.14,3.57,7.52,7.52,0,0,0,0,1.48c.5,2.85-.83,3.6-3.47,3.39S151.05,341.24,148.38,341.23Z"/><path class="cls-9" d="M94.37,290.06c.91,6.12,2,12.66,2.83,19.24,1,8.27,3.29,16.34,4,24.65.15,1.79.65,4-1,5s-3.35-.54-4.83-1.41c-5.68-3.39-7.45-9.1-8.5-15.07-1.4-7.88-3.48-15.66-4-23.69A123,123,0,0,0,80.68,285c-.33-1.8.27-2.12,1.74-1.88,3.71.59,7.41,1.24,11.12,1.8,1.33.2,1.1,1.34,1.24,2.07A11.06,11.06,0,0,1,94.37,290.06Z"/><path class="cls-9" d="M276.67,289c-.43,10.41-.75,20.82-2.24,31.15a2.69,2.69,0,0,1-2,2.54c-1.77.65-3.49,1.45-5.22,2.21s-2.51.24-2.48-1.75c.07-4.38,0-8.77,0-13.16-.17-5,.6-10-.51-15,.16-6.68-.32-13.34-.77-20-.2-3,.93-4.76,3.95-5.29,1.17-.21,2.3-.62,3.46-.84,6.15-1.17,4.67-2.17,5.82,4.36a27.89,27.89,0,0,1,0,5.08A24.1,24.1,0,0,0,276.67,289Z"/><path class="cls-10" d="M160,92.61c-.69-10.54.7-21.58,2.91-32.54a16.07,16.07,0,0,1,2.23-5.5,3.36,3.36,0,0,1,3.19-1.85c1.21.17,1.51,1.44,2,2.43,2.85,6.12,2.32,12.67,2.3,19.1,0,10.17-1.52,20.25-2.47,30.36a3.38,3.38,0,0,1-2.83,3.32c-7,1.89-6.91,1.89-7.45-5.38A80.3,80.3,0,0,1,160,92.61Z"/><path class="cls-5" d="M314.75,236.41c1.77,2.36,3.67,4.64,5.28,7.11,5.15,7.92,10.35,15.85,12.63,25.18a64.5,64.5,0,0,1,1.38,9.74,4.73,4.73,0,0,1-3.1,5c-1.89.77-3.13-.72-3.79-2.1-3.31-6.95-8.45-12.75-12-19.54-1.42-2.7-2.41-5.24-2.06-8.46C313.66,247.82,313.26,242.22,314.75,236.41Z"/><path class="cls-9" d="M292.33,301.67l1.91-25.82a18.88,18.88,0,0,0,0-9.51c-.44-1.85.26-2.82,2.18-3a14.69,14.69,0,0,0,3.49-.68c3.48-1.27,4.9-.47,5.47,3.82.32,2.35.68,5,0,7.13-2,6-1.7,12.36-2.88,18.47a185.92,185.92,0,0,1-4.8,20.23,4.27,4.27,0,0,1-3.33,3.38c-1.48.33-1.76-.31-2-1.37Q292.33,308,292.33,301.67Z"/><path class="cls-9" d="M280.33,291.56q.06-3.66.12-7.33a41.06,41.06,0,0,0,0-14.29c.05-3.45,1-4,5.84-4.3,3.29-.23,2.73,2.05,3,3.86,1.18,7.06.07,13.94-.94,21-.87,6-.8,12.27-1.48,18.4a79,79,0,0,1-1.37,8.17c-.39,1.78-4.86,4.13-6.66,3.71-1.35-.31-.57-1.24-.52-1.92.46-5.53,1-11,1.44-16.57C281,298.74,280.11,295.12,280.33,291.56Z"/><path class="cls-10" d="M191.65,84.77a82,82,0,0,1-4,18.54c-.18.54-.49,1.32-.92,1.46a28.7,28.7,0,0,1-10.5,1.29c-.92-.05-.9-1.19-.82-2,1.17-11.31,2.76-22.5,8.65-32.56.77-1.32,1.8-2.85,3.25-2.66,1.3.17,2,1.89,2.24,3.28C190.32,76.12,191.56,80,191.65,84.77Z"/><path class="cls-8" d="M17.2,289.52c0-11.88,10.92-23.32,21.78-23.19,2.78,0,3.77,1.2,3.33,3.94a5.87,5.87,0,0,0-.24.86c0,6.7-4.06,9.15-10,9.57-4.13.29-6.08,2.78-7.07,6.51-.89,3.36-2,6.66-3,10-.24.82-.66,1.67-1.47,1.69s-1.31-.78-1.54-1.6C18.26,294.63,16.85,292.11,17.2,289.52Z"/><path class="cls-11" d="M149.84,391.56c-2.44-2.55-2.33-5.61-2.95-8.31a107.64,107.64,0,0,1-3-18.85,8.78,8.78,0,0,1-.05-.89c.08-1.34-.45-3.23,1.26-3.57,1.94-.39,2.3,1.53,2.62,3,2,9,1.77,18.23,2.57,27.35C150.28,390.54,150.09,390.81,149.84,391.56Z"/><path class="cls-11" d="M247.89,376.39c0-5.83,0-11.64,0-17.44a32.65,32.65,0,0,1,.18-3.87c.22-1.76,1.72-2.26,3.07-2.25,1.83,0,.95,1.66.88,2.49a182,182,0,0,1-3,20A1.07,1.07,0,0,1,247.89,376.39Z"/><path class="cls-12" d="M223.48,310.07c.9.92.52,2.08.53,3.13,0,6.07,0,12.15,0,18.22,0,1.29-.27,2.75,1.78,2.65-2.42,1.46-2.39-.22-2.39-1.86Q223.43,321.14,223.48,310.07Z"/><path class="cls-13" d="M219.34,327.59V302.73c0,1.25.76,2.71.78,4.06.08,6-.07,12-.1,17.94C220,325.69,219.34,326.74,219.34,327.59Z"/><path class="cls-14" d="M71.79,347.23c.78.7.55,1.64.55,2.5q0,10.81,0,21.62c-.77-.7-.57-1.64-.57-2.5Q71.75,358,71.79,347.23Z"/><path class="cls-14" d="M82.34,369.4V352c2,1.71.61,3.64.53,5.44C82.7,361.44,84.34,365.48,82.34,369.4Z"/><path class="cls-13" d="M148.38,341.23c2.67,0,5.36-.13,8,.08s4-.54,3.47-3.39a7.52,7.52,0,0,1,0-1.48c1,1.23.38,2.69.56,4,.08.62-.13,1.32-.9,1.29C155.82,341.61,152,342.54,148.38,341.23Z"/><path class="cls-12" d="M264.23,295c1.11,5,.33,10,.51,15C263.65,305.06,264.32,300,264.23,295Z"/><path class="cls-12" d="M240.14,313.56c-1.06-4.11-.36-8.3-.51-12.45C240.73,305.22,240,309.4,240.14,313.56Z"/><path class="cls-13" d="M292.33,301.67q0,6.3,0,12.61A27.66,27.66,0,0,1,292.33,301.67Z"/><path class="cls-13" d="M136.44,284.95l-12.08-.11C128.39,284.11,132.42,283.7,136.44,284.95Z"/><path class="cls-12" d="M280.33,291.56c-.22,3.56.64,7.18-.52,10.69C279.92,298.69,279.25,295.08,280.33,291.56Z"/><path class="cls-13" d="M244.46,297.53c1,3.38.35,6.84.48,10.27C243.93,304.42,244.49,301,244.46,297.53Z"/><path class="cls-15" d="M293.34,266.33a8.29,8.29,0,0,1,0,9.51Z"/><path class="cls-13" d="M245.06,311.32c1.1,3.12.31,6.33.52,9.5C244.46,317.7,245.13,314.49,245.06,311.32Z"/><path class="cls-13" d="M202.41,332.79c.63,4.41,4.05,2.77,6.59,3.05-1.69,1.11-3.62.73-5.37.51C201.38,336.06,202.85,334,202.41,332.79Z"/><path class="cls-16" d="M223.37,168.11c.16,7-6.22,13.37-12.9,12.41-4-.58-7.17-3.4-9.78-6.35a5.46,5.46,0,0,0-4.25-2.07c-5.83-.33-11.78.07-17.33-2.33-1-.45-1.41.08-1.78.83-.52,1.07-1,2.15-1.59,3.19-2,3.6-4.9,5.09-8.92,4.38a43.67,43.67,0,0,1-6.55-1.75c-4.43-1.53-5.95-5.5-3.68-9.54,1.07-1.9,2.29-3.72,3.53-5.52a9.41,9.41,0,0,1,12.62-3,4.49,4.49,0,0,1,2.62,2.72c.48,2.24,2.06,2.74,3.9,3.38,6.23,2.15,12.66,2.45,19.14,2.41,2.4,0,4.15-1.35,5.66-3,4.26-4.51,9.28-5.38,15-3.39C223,161.85,223.24,162.31,223.37,168.11Zm-4.6.6c-.12-1.41.39-3.13-1.54-3.77s-3.83-1.3-5.81-1c-2.95.49-5.73,1.75-6.77,4.7s2,3.64,3.51,5.17c2.26,2.25,4.64,2.3,7.34,1S219,171.46,218.77,168.71Zm-51.45,4.79a5.14,5.14,0,0,0,5.5-3.28c.79-1.78-.35-6.52-1.69-7.55-.48-.37-1-.7-1.63-.37-2.17,1.2-4.83,1.23-6.83,2.79-1.48,1.15-3.18,2.33-2.73,4.57s2.24,2.81,4.2,3.14C165.22,173,166.27,173.26,167.32,173.5Z"/><path class="cls-16" d="M208.74,133.17c7.54,1.57,14.84.4,22-1.92,1.25-.4,2.47-.6,3,.86a2.58,2.58,0,0,1-1.31,3.3c-3.86,2.2-8.1,3.14-12.43,3.83a37.8,37.8,0,0,1-13.61-.62,13.18,13.18,0,0,1-2.54-.8,2.13,2.13,0,0,1-1.46-2.06c0-1.06.85-1.55,1.67-1.87A10,10,0,0,1,208.74,133.17Z"/><path class="cls-16" d="M151,138.3c-1.59,0-3.17,0-4.76,0-1.4,0-2.94,0-3.13-1.93-.21-2.1,1.17-2.79,2.92-2.94a43.75,43.75,0,0,1,6.83-.4,53.7,53.7,0,0,0,9.21-.22c1.62-.17,3.06.08,3.24,2.09s-1.3,2.36-2.72,2.42C158.71,137.49,154.88,138.33,151,138.3Z"/><path class="cls-17" d="M127.28,145.65a15.51,15.51,0,0,0,4.72-.24c1-.17,2.29-.57,2.78.88a2.94,2.94,0,0,1-1.06,3.18c-1.67,1.52-9.42,1.57-11.11,0-.69-.63-1.62-1.66-1.52-2.36.17-1.12,1.55-1.37,2.63-1.46S126.09,145.65,127.28,145.65Z"/><path class="cls-16" d="M246,150.83c-1.59-.07-3.18-.17-4.77-.2-.86,0-1.64-.1-1.83-1.11a1.61,1.61,0,0,1,1.14-1.88,37.23,37.23,0,0,1,11.78-1.3c1,.06,1.18.93,1.18,1.77a2.3,2.3,0,0,1-2.13,2.45C249.61,150.77,247.81,150.75,246,150.83Z"/><path class="cls-17" d="M152.67,146.42c2.53-.05,4.79,1.75,4.81,3.83,0,1.77-2.41,3.35-5.08,3.44s-3.28-1.91-3.74-3.79C148.27,148.27,150.52,146.47,152.67,146.42Z"/><path class="cls-16" d="M221.07,150.55c2.16,0,4.34,1.74,4.38,3.55s-2.48,3.79-4.64,3.76-3.83-1-4-3.43C216.69,152.17,218.51,150.57,221.07,150.55Z"/><path class="cls-17" d="M241.58,155.63c3.61-1.64,7.13-.09,10.61-.15,1.77,0,1.42,1.85.79,3a3.21,3.21,0,0,1-3.55,1.6A12.45,12.45,0,0,1,241.58,155.63Z"/><path class="cls-17" d="M125.33,158.45c-.65-.12-1.43-.22-2.18-.43-.55-.15-1.34-.3-1.24-1a2,2,0,0,1,.94-1.41,72.43,72.43,0,0,1,7.78-1.85c1.15-.19,1.53,1,1.8,2,.33,1.2-.42,1.65-1.39,1.82C129.19,157.88,127.33,158.14,125.33,158.45Z"/><path class="cls-5" d="M218.77,168.71c.23,2.75-.65,4.86-3.27,6.12s-5.08,1.25-7.34-1c-1.54-1.53-4.52-2.32-3.51-5.17s3.82-4.21,6.77-4.7c2-.33,3.93.35,5.81,1S218.65,167.3,218.77,168.71Z"/><path class="cls-5" d="M167.32,173.5c-1.06-.24-2.11-.52-3.17-.7-2-.32-3.76-.94-4.2-3.14s1.25-3.41,2.73-4.57c2-1.56,4.66-1.59,6.83-2.79.61-.34,1.15,0,1.63.37,1.34,1,2.48,5.77,1.69,7.55A5.14,5.14,0,0,1,167.32,173.5Z"/></g><path class="cls-3" d="M323.24,257.56c-.54,5.73-1.29,11.46-1.54,17.2-.23,5.35-2.27,10.13-3.82,15.08-1.3,4.14-2.73,8.25-3.92,12.42a9.34,9.34,0,0,1-6.69,7A24.29,24.29,0,0,0,294.76,317c-5.41,6.44-12.81,10.51-19.75,15.06-2.6,1.71-4.27,3.09-2.89,6.92,1,2.88-.36,6.42-.86,9.65a148.09,148.09,0,0,1-7.64,28.15c-1.23,3.36-1.15,3.38,2.42,4.5,1.84.58,3.69,1.16,5.48,1.87a2.67,2.67,0,0,1,1.66,3.56c-.49,1.52-2,1.1-3,.84-4.44-1.13-9.3-.84-13.23-3.78a.89.89,0,0,0-.27-.11c-4.35-1.4-4.34-1.4-4.42-6.16-.13-8.13.91-16.18,1.7-24.24.26-2.59,0-5.22.14-7.83.06-1.75-.65-1.83-2.11-1.4-4.35,1.26-8.29,3.7-12.85,4.39-6.58,1-13.12,2.38-19.81,2-6-.31-11.94.62-17.93.74A94.77,94.77,0,0,1,174.8,348c-3.37-.9-3.65-.53-3.77,2.87-.3,8.41.21,16.8.62,25.2.26,5.34-2.08,7.57-7.47,7.55-3.1,0-6.19-.06-9.29-.05a5.3,5.3,0,0,1-4.73-2.84,3.61,3.61,0,0,1-.26-3.86c.85-1.39,2.21-.73,3.4-.38a33.69,33.69,0,0,0,7.84,1c-.58-3.4-2.13-6.29-3.46-9.24-3.08-6.82-3.7-14.14-4.57-21.4-.4-3.32-1.82-5.14-5.16-6.37a160.32,160.32,0,0,0-29.76-8.26A17,17,0,0,1,108,326.55c-.53-.6-1-1.74-2-1.26s-.48,1.58-.49,2.4c-.15,8.89,1.28,17.78.42,26.64-.9,9.25.27,18.54-1,27.79-.45,3.42-1.79,5.5-5.07,6.49a19.34,19.34,0,0,1-7.73.73c-3.79-.41-6-2.67-6.5-6.56a88.68,88.68,0,0,1,0-19.93,33.85,33.85,0,0,0-.22-10.69c-.53-2.46.24-4.8.29-7.2A242.14,242.14,0,0,0,83,302.53c-1.21-7.68-1-15.58-3.6-23.07-.31-.91-.34-1.9-1.6-2.5-1.42,2.3-.78,4.83-.78,7.21a10.43,10.43,0,0,1-3.33,7.75c-3.07,3-7.19,2.38-9.21-1.35-2.68-4.94-5.21-9.93-4.88-15.82.11-2-.83-2.72-2.91-2.07a8.87,8.87,0,0,0-6.39,8.07,46.33,46.33,0,0,0,0,5.51c.18,3.3-1.59,5.28-4.36,6.49-6.68,2.93-14-1.72-14.75-9.46a20.25,20.25,0,0,1,.47-6.9c1.55-6.38,3-12.75,7.41-18,5.72-6.74,13.2-9.84,21.74-10.61,1.95-.18,2.68-.81,3.18-2.51A89.73,89.73,0,0,0,67,228c.71-7.94,3.24-15.43,5.34-23.06C77,187.79,84.28,171.72,92.1,155.85c5.11-10.38,12.58-18.66,21.4-25.94,11.4-9.41,24.45-15.78,38.12-21,1.62-.62,2.13-1.39,1.66-3.27-2.67-10.76-5.17-21.6-5.88-32.67-.83-13.11-.83-26.28-.85-39.42,0-7.1,1.78-13.72,4.38-20.22a8.54,8.54,0,0,1,4-4.44c2.21-1.22,3.82-1,6.14.76,5.62,4.21,6.51,10.35,7.55,16.3,1.8,10.23,3,20.58,4.46,31.23,1.72-2.25,2.27-4.78,3.22-7.09A19.73,19.73,0,0,1,181,42.88a3.71,3.71,0,0,1,4.72-.64c5,2.46,5.91,7.1,6.12,11.94.18,4.34,1.15,8.63.54,13,1.46.23,1.58-.84,2-1.51a31.85,31.85,0,0,1,6-7.79c3-2.67,6.3-2.31,7.77,1.33,2.79,6.85,4.36,14,3.22,21.48a125.2,125.2,0,0,1-3,15.88c-.6,2.08,1.06,2.23,2.35,2.38a67.05,67.05,0,0,0,9.52.54c13.73-.43,25.41,5.08,36.56,12.08,14,8.8,27.67,18.18,39.73,29.5,5.24,4.92,11.44,9.33,14.37,16.42.77,1.86,2.1,1.46,3.62.9,6.14-2.28,12.08-5.26,18.65-6.15,5.13-.69,10.24-1,14.28,3.4a10.5,10.5,0,0,1,1,12.55c-6,8.57-14.31,13.94-24,17.4-6.18,2.21-6.44,2.23-3.84,8.06,3.19,7.15,3.77,14.7,4.21,22.31a4.48,4.48,0,0,0,1.88,3.7c5,3.51,8.07,8.5,10.9,13.7,4,7.45,8.81,14.57,10.8,23a35.62,35.62,0,0,1,.42,15.21c-.7,3.56-3.55,4.42-6.48,5.34s-5.48.58-7.27-1.92c-2.25-3.13-4.2-6.47-6.28-9.73q-2.48-3.9-4.94-7.81Zm-29.9.67v13.84c0,2.37-.21,4.73-.25,7.1-1,3.41-.47,6.9-.57,10.36-.47,5.35-1,10.7-1.43,16.05-.06.65-.82,1.55.48,1.86,1.75.41,6.07-1.88,6.45-3.6a76.53,76.53,0,0,0,1.32-7.92c.65-5.93.59-12,1.43-17.82,1-6.8,2.05-13.46.91-20.3-.29-1.75.38-4-2.81-3.74C294.18,254.38,293.34,254.88,293.34,258.22Zm11.24,42.94c.25,1,.52,1.65,2,1.33a4.14,4.14,0,0,0,3.22-3.27,180.09,180.09,0,0,0,4.65-19.6c1.14-5.92.88-12,2.79-17.89.68-2.09.33-4.63,0-6.9-.56-4.15-1.93-4.93-5.3-3.7a19,19,0,0,1-3.93.66,2.59,2.59,0,0,0-2.65,2.93v9.21c0,8.34-.69,16.67-1.31,25C303.1,293,303.63,297.09,304.58,301.16ZM277.85,297c0,4.25.09,8.5,0,12.75,0,1.93.64,2.46,2.4,1.7s3.34-1.51,5.05-2.14c1.22-.45,1.19-1.07,1.39-2.46,1.44-10,1.63-20.1,1.63-30.17V266.35c0-1.64.83-3.33.55-4.92-1.11-6.32.59-5.35-5.37-4.22-1.13.21-2.09.61-3.22.81-2.92.51-4,2.23-3.75,5.12.44,6.45.94,12.9.78,19.38C277.41,287.37,276.8,292.23,277.85,297ZM176.3,322.62a11.88,11.88,0,0,0-.13-3.46c-2.75-7.91-2.38-16.32-3.95-24.42-1.27-6.59-2.2-13.25-3.33-19.87-.15-.85.08-2-1.37-2.18-1.71-.16-3.41-.51-5.12-.56-4-.12-4.61.65-4.71,4.68-.35,13.67,2,27,5,40.24.78,3.41.56,7.06,2.42,10.21,3.55,1.27,7.21.36,10.82.51.74,0,.94-.65.87-1.25C176.67,325.23,177.24,323.82,176.3,322.62Zm82.39-27.73q.05,1.7.11,3.4c.06,3.07-.59,6.18.5,9.2a23.92,23.92,0,0,1-.49,6.61c-.45,1.57.24,2.4,2,2.09,3.5-.62,7-1.2,10.49-1.89,1-.21,2.24-.74,2.37-1.88.32-2.86,1-5.9-.13-8.58a12.69,12.69,0,0,1-.65-6.47c.12-1.44.22-2.88.39-4.31.63-5.32-.92-10.55-.6-15.86s-1.15-10.29-2.1-15.38c-.3-1.61-1-2.13-2.51-1.86-2.83.5-5.65,1.18-8.51,1.43-3.19.28-3.62,2.29-3,4.62,1.55,6.24,1.06,12.63,1.72,18.93C258.24,288.27,257.7,291.62,258.68,294.89Zm-5.15-6.49c-.07-7.52-1.6-14.88-2.39-22.32C251,264.53,250,264,248.55,264a49.11,49.11,0,0,0-10,.81c-2,.34-2.61,1.21-2.5,3.24.55,9.69,2.32,19.31,1.84,29.07q0,10.72-.09,21.44c0,1.59,0,3.22,2.31,1.81,3.76-.6,7.5-1.29,11.27-1.76,2.36-.3,3.28-1.42,3.31-3.78a139.25,139.25,0,0,0-.67-14.34C253.92,296.44,254.6,292.39,253.54,288.4Zm-100-15.65c-3.89-1.2-7.79-.81-11.7-.1-5.83.15-5.94.17-5.07,5.9q1.92,12.76,4.13,25.49c1.22,7.06,2.65,14.09,3.87,21.16.35,2.05,1.38,2.73,3.35,2.68,3.57-.09,7.15-.12,10.72,0,2.08.07,2.28-.61,2-2.54-1.68-10.53-4.79-20.8-5.71-31.44-.39-4.55-2.3-8.83-2-13.47C153.29,277.87,154.34,275.36,153.59,272.75Zm80.8,41.3a3.93,3.93,0,0,0,.54-2.77c0-5.79.05-11.58,0-17.38,0-1.31.37-2.72-.51-3.93.25-7.18-1.57-14.14-2.24-21.22-.19-2-1.15-2.72-3-2.56A105.22,105.22,0,0,0,216.88,268a2.7,2.7,0,0,0-2.4,2.8,49.17,49.17,0,0,0,.39,9c1.31,8.54,3.58,17,3.21,25.72-.19,4.53-.77,9-.59,13.58.43,1.16-1,3.16,1.18,3.44,1.69.22,3.56.59,5.2-.49.87,0,1.74,0,2.61,0C233.6,321.85,234.19,321.25,234.38,314.05ZM91,333.08q0,10.47,0,20.95c0,.84-.19,1.74.55,2.42,0,6.73-1.12,13.33-2.12,19.95-.45,2.93.76,5,3.28,5.43,4.8.75,5.18.55,5.87-3.51a135.31,135.31,0,0,0,1.74-23.77c1.28-3.8.35-7.71.52-11.57.08-1.74.63-3.61-.52-5.26-.86-7.39.18-14.79,0-22.18a13,13,0,0,0-.11-2.6c-2.29-9.81-3.06-19.89-5.15-29.74-1.15-5.42-1.59-11-4.18-16.1-1.09-2.13-2.21-4.08-4.6-4.9-2-.69-4.2-1.38-5.88.55-2.07,2.36-2.19,5.65,0,7.6,5.81,5.26,7.05,12.08,7.21,19.4a117.09,117.09,0,0,0,.69,14.11C89.55,313.57,89.65,323.38,91,333.08ZM202.24,180.79c.45-2.41,1.79-2.9,4-2.87,6.66.1,13.45.68,20-.35s13.1-2.33,19.71-2.92a249.4,249.4,0,0,0,57.24-12.26c1.38-.46,1.53-.88,1.17-2.23-1.14-4.31-3.77-7.45-7-10.34a333.16,333.16,0,0,0-32.14-25.12c-7.18-4.93-14.45-9.61-22-13.89a18,18,0,0,0-5.88-2.33c-13.23-2.14-26.43-4.76-39.95-3.49-3.64.34-7.82-.47-10.82,1.37-5.18,3.17-10.82,4.3-16.48,4.88-18.93,1.92-34.84,10.79-49.93,21.35-8.89,6.22-15.21,15-20.82,24.24-8.34,13.76-16.29,27.69-20.17,43.5C76.4,211.26,73,222,72.63,233.46a64.67,64.67,0,0,1-4.3,21.17,43.11,43.11,0,0,0-3.24,12.23c-.38,5.1-1,10.21.9,15.17.54,1.41,1.55,3.07,2.7,3.15,1.39.09,1.92-1.86,2.53-3.16a8.42,8.42,0,0,0,.56-3.11c.35-5.1.56-10.23,1.15-15.3.63-5.4,2.92-10,7.81-12.86.66-.39,1.72-1.41,2.05,0,.48,2.06,2.21,2.46,3.6,2.89a17,17,0,0,1,9.79,8.11,5.53,5.53,0,0,0,5.07,2.69c17.48.6,34.95,1.42,52.43,1.79,10.82.23,21.66-.13,32.48-.38a223.21,223.21,0,0,0,28.5-2.85c10.58-1.61,21-4.31,31.64-5.39,22.71-2.29,44.89-7.31,67-12.83a3.88,3.88,0,0,0,3-3.06c1.87-6.08,1.15-12.26,1.1-18.42a108.82,108.82,0,0,0-4.89-31.92c-.31-1-.31-2.18-2.16-1.93-6.79.9-13.6,1.71-20.43,2.27-7,.58-14,1.59-21.07,1.2-3.08-.17-6.15-.57-9.22-.92-10.74-1.24-21.49-2.42-32.22-3.78C218.6,187.11,210.8,182.7,202.24,180.79ZM150.78,333.89c4.55,4.09,10.29,4.32,15.37,5.89,6.58,2,13.55,2.85,20.39,4,6.17,1,12.39,2.37,18.67,1.67a207.67,207.67,0,0,0,42.72-9.75c12.22-4.07,24.12-8.58,34.54-16.36,1-.77,2.42-1.25,2.33-3.24l-7.3,1.92c-15.58,4.15-31.6,5.76-47.49,8.1-7.46,1.1-15,1.25-22.33,3.51-5.11,1.58-10.44,1.79-15.77,1.72-11.78-.16-23.48,2-35.3,1.26A14.33,14.33,0,0,0,150.78,333.89Zm85.38-152.54a5.63,5.63,0,0,0,3.58,1.3c10.63,1.23,21.33,1.53,32,2.84,8.65,1.06,17.35-.19,26-.74a106.12,106.12,0,0,0,21.4-3.24c9.54-2.61,17.84-7.12,24.35-14.74,3.12-3.65,2.32-6.72-2.41-7.73a22.27,22.27,0,0,0-4.9-.27c-5,.06-9.55,2-14.23,3.48-5.86,1.87-12.11,2.69-17.77,5-17.25,7.05-35.46,9.45-53.67,12C245.89,179.92,241.28,180.61,236.17,181.35Zm-65.55-92.9a218.71,218.71,0,0,0-3.77-39.09c-1.5-8.24-1.95-16.66-4.38-24.75-.57-1.89-2.4-3.53-2.15-5.16.3-2-.42-2.45-1.78-2.81-1.87-.5-2.74.76-3.08,2.26-1.36,6-3.37,11.92-3.55,18.13-.44,15.28.89,30.49,2.42,45.66.71,7.08,2.28,14.08,3.46,21.12.31,1.83,1.08,2.68,3.15,2.06a47.32,47.32,0,0,1,6.78-1.44c2.15-.32,2.95-1.45,2.91-3.54C170.56,96.73,170.61,92.59,170.61,88.44Zm41.66,199.68c.21-6.74-2-12-1.8-17.51,0-1.24-1-1.65-2-1.49-5.21.78-10.54.77-15.67,2.15-1.13.3-2,.75-1.87,2.13.4,5.87.27,11.83,1.24,17.6,1.91,11.28,3.09,22.68,5.42,33.89.32,1.56,1,2,2.35,1.73,3.51-.6,7-1.17,10.51-1.89,1-.22,2.43-.41,2.41-2-.09-6.57,1.23-13.13.45-19.68C212.65,297.66,213.17,292.24,212.27,288.13Zm-88.75-15.45c-1.21,0-1.88,0-2.56,0-3.09-.1-4,.69-3.22,3.73.93,3.51.65,7.09.9,10.58.85,12.15,3.35,24,5.95,35.8.45,2.07,1.5,3,3.58,2.92a34.3,34.3,0,0,1,10.32,1.06c2.85.79,2.73-.81,2.24-2.43-1.35-4.47-1.52-9.11-2.12-13.67-1.58-12-4.94-23.72-6.48-35.75-.13-1-.61-1.65-1.68-1.61C127.93,273.39,125.53,272.21,123.52,272.67Zm49.2,2.28c.42,3.05.86,6.1,1.24,9.15q1.69,13.29,3.34,26.6c.62,5,2.86,9.62,2.52,14.76-.12,1.77,1.33,1.94,2.66,1.77a50.28,50.28,0,0,1,6.92-.56c4.5,0,5.14-.64,4.19-5.08-3.33-15.55-4.53-31.39-6.24-47.15-.25-2.26-1.17-3.2-3.32-2.83a41.46,41.46,0,0,1-8.37.45C173.44,272,172.29,272.52,172.72,275Zm-59.89,2.75a10.71,10.71,0,0,0,.4-3c-.13-.7.09-1.81-1.2-2-3.6-.54-7.18-1.17-10.77-1.74-1.42-.23-2,.08-1.69,1.82a119.09,119.09,0,0,1,2.08,13.38c.52,7.78,2.54,15.31,3.89,22.94,1,5.78,2.73,11.32,8.24,14.6,1.43.85,3,2.42,4.67,1.37s1.11-3.13,1-4.86c-.67-8.06-2.86-15.87-3.85-23.88C114.78,290,113.71,283.63,112.83,277.71ZM176.36,86.45a77.78,77.78,0,0,0-.13,9.63c.52,7,.47,7,7.21,5.21a3.28,3.28,0,0,0,2.74-3.21c.92-9.8,2.37-19.55,2.39-29.41,0-6.23.53-12.58-2.23-18.5-.45-1-.74-2.2-1.91-2.36a3.26,3.26,0,0,0-3.09,1.79,15.57,15.57,0,0,0-2.16,5.33C177,65.55,175.7,76.24,176.36,86.45ZM326.29,225.74c-1.44,5.63-1,11-1.62,16.38-.33,3.11.62,5.58,2,8.19,3.46,6.57,8.44,12.2,11.64,18.93.64,1.34,1.84,2.78,3.67,2a4.58,4.58,0,0,0,3-4.83,62.48,62.48,0,0,0-1.34-9.44c-2.21-9-7.25-16.72-12.24-24.39C329.85,230.24,328,228,326.29,225.74ZM207.06,78.86c-.09-4.59-1.29-8.37-2.07-12.23-.27-1.35-.91-3-2.17-3.17s-2.4,1.29-3.15,2.57c-5.71,9.74-7.25,20.58-8.38,31.53-.08.77-.09,1.87.8,1.92a27.8,27.8,0,0,0,10.17-1.25c.41-.13.71-.89.89-1.42A79.38,79.38,0,0,0,207.06,78.86Zm-169,198.33c-.34,2.51,1,4.94,1.75,7.53.22.8.7,1.58,1.49,1.55s1.19-.84,1.42-1.64c1-3.23,2-6.42,2.88-9.67,1-3.61,2.85-6,6.85-6.3,5.76-.41,9.71-2.78,9.69-9.27a5.68,5.68,0,0,1,.23-.83c.43-2.65-.53-3.78-3.22-3.81C48.67,254.59,38.12,265.67,38.09,277.18ZM166.56,376c.24-.73.43-1,.41-1.25-.77-8.84-.57-17.77-2.49-26.49-.31-1.41-.66-3.26-2.54-2.88-1.66.33-1.15,2.16-1.22,3.46a8.51,8.51,0,0,0,0,.87A104.26,104.26,0,0,0,163.71,368C164.31,370.59,164.2,373.55,166.56,376Zm95-14.69a1,1,0,0,0,1.09-1,176.31,176.31,0,0,0,2.91-19.38c.06-.81.92-2.39-.85-2.42-1.3,0-2.76.47-3,2.18a31.63,31.63,0,0,0-.17,3.75C261.52,350.05,261.53,355.68,261.53,361.33Z"/><path class="cls-4" d="M202.24,180.79c8.55,1.91,16.36,6.32,25.12,7.43,10.73,1.36,21.48,2.54,32.22,3.78,3.07.35,6.14.74,9.22.92,7.06.39,14.06-.62,21.07-1.2,6.83-.56,13.64-1.37,20.43-2.27,1.85-.25,1.85.95,2.16,1.93a108.82,108.82,0,0,1,4.89,31.92c.06,6.16.77,12.34-1.1,18.42a3.88,3.88,0,0,1-3,3.06c-22.09,5.52-44.26,10.54-67,12.83-10.67,1.08-21.06,3.77-31.64,5.39a223.21,223.21,0,0,1-28.5,2.85c-10.83.25-21.66.61-32.48.38-17.48-.37-35-1.18-52.43-1.79a5.53,5.53,0,0,1-5.07-2.69,17,17,0,0,0-9.79-8.11c-1.39-.43-3.11-.83-3.6-2.89-.33-1.42-1.39-.39-2.05,0-4.89,2.89-7.18,7.46-7.81,12.86-.59,5.08-.81,10.2-1.15,15.3a8.42,8.42,0,0,1-.56,3.11c-.61,1.3-1.14,3.25-2.53,3.16-1.15-.08-2.15-1.74-2.7-3.15-1.91-5-1.27-10.07-.9-15.17a43.11,43.11,0,0,1,3.24-12.23,64.67,64.67,0,0,0,4.3-21.17c.34-11.44,3.77-22.2,6.45-33.13,3.88-15.81,11.83-29.74,20.17-43.5,5.61-9.26,11.94-18,20.82-24.24,15.09-10.56,31-19.43,49.93-21.35,5.66-.57,11.3-1.71,16.48-4.88,3-1.83,7.18-1,10.82-1.37,13.52-1.26,26.72,1.36,39.95,3.49a18,18,0,0,1,5.88,2.33c7.55,4.28,14.83,9,22,13.89a333.16,333.16,0,0,1,32.14,25.12c3.27,2.89,5.9,6,7,10.34.36,1.35.21,1.76-1.17,2.23a249.4,249.4,0,0,1-57.24,12.26c-6.61.58-13.15,1.88-19.71,2.92s-13.3.45-20,.35C204,177.89,202.69,178.39,202.24,180.79Zm35.55-21.21c-.13-5.62-.39-6.06-4.19-7.39-5.52-1.93-10.38-1.09-14.51,3.28-1.46,1.55-3.16,2.84-5.48,2.86-6.28,0-12.51-.25-18.54-2.33-1.79-.62-3.31-1.11-3.78-3.27a4.35,4.35,0,0,0-2.54-2.63A9.12,9.12,0,0,0,176.52,153c-1.2,1.74-2.38,3.51-3.42,5.35-2.2,3.91-.72,7.76,3.57,9.24a42.3,42.3,0,0,0,6.35,1.69c3.89.69,6.71-.76,8.64-4.24.56-1,1-2.06,1.54-3.09.36-.73.71-1.25,1.72-.81,5.37,2.32,11.13,1.94,16.78,2.26a5.29,5.29,0,0,1,4.12,2c2.53,2.86,5.57,5.59,9.48,6.15C231.76,172.53,237.95,166.34,237.79,159.58Zm-14.18-33.84a9.64,9.64,0,0,0-4.53.69c-.79.31-1.59.78-1.61,1.81a2.06,2.06,0,0,0,1.42,2,12.77,12.77,0,0,0,2.46.78,36.61,36.61,0,0,0,13.18.6,34.9,34.9,0,0,0,12-3.71,2.5,2.5,0,0,0,1.27-3.19c-.5-1.41-1.69-1.22-2.9-.83C238,126.12,230.91,127.26,223.61,125.74Zm-55.94,5c3.77,0,7.48-.78,11.23-1,1.37-.06,2.8-.47,2.63-2.35s-1.57-2.19-3.14-2a52,52,0,0,1-8.92.21,42.38,42.38,0,0,0-6.62.38c-1.69.15-3,.82-2.82,2.85s1.67,1.84,3,1.87C164.6,130.74,166.14,130.71,167.67,130.71Zm-23,7.12c-1.15,0-2.3-.07-3.44,0s-2.39.33-2.55,1.41c-.1.69.8,1.68,1.47,2.29,1.64,1.5,9.14,1.46,10.76,0a2.85,2.85,0,0,0,1-3.08c-.47-1.4-1.69-1-2.69-.85A15,15,0,0,1,144.71,137.83Zm115,5c1.73-.08,3.48,0,5.2-.26a2.22,2.22,0,0,0,2.07-2.37c0-.81-.14-1.65-1.14-1.72a36.06,36.06,0,0,0-11.41,1.26,1.56,1.56,0,0,0-1.11,1.82c.18,1,.94,1.06,1.77,1.07C256.64,142.68,258.18,142.78,259.72,142.84Zm-90.42-4.27c-2.08,0-4.26,1.79-3.88,3.37.44,1.83,1,3.76,3.62,3.67S174,144,174,142.29C173.94,140.27,171.75,138.53,169.3,138.58Zm66.26,4c-2.48,0-4.24,1.57-4.11,3.76.15,2.35,1.67,3.3,3.86,3.32s4.53-2,4.49-3.64S237.65,142.55,235.56,142.57Zm19.87,4.93a12.06,12.06,0,0,0,7.6,4.3,3.11,3.11,0,0,0,3.44-1.55c.62-1.11,1-2.92-.76-2.89C262.33,147.41,258.92,145.91,255.43,147.5Zm-112.61,2.73c1.94-.3,3.74-.55,5.54-.88.93-.17,1.66-.6,1.34-1.76-.26-.94-.62-2.13-1.74-1.94a70.16,70.16,0,0,0-7.53,1.8,1.89,1.89,0,0,0-.91,1.37c-.1.72.66.86,1.2,1C141.44,150,142.19,150.11,142.82,150.23Z"/><path class="cls-5" d="M150.78,333.89a14.33,14.33,0,0,1,5.82-1.29c11.81.77,23.51-1.41,35.3-1.26,5.33.07,10.66-.14,15.77-1.72,7.3-2.26,14.88-2.41,22.33-3.51,15.89-2.35,31.91-4,47.49-8.1l7.3-1.92c.09,2-1.3,2.48-2.33,3.24-10.42,7.78-22.32,12.28-34.54,16.36a207.67,207.67,0,0,1-42.72,9.75c-6.27.7-12.49-.65-18.67-1.67-6.84-1.14-13.81-2-20.39-4C161.07,338.2,155.33,338,150.78,333.89Z"/><path class="cls-6" d="M236.17,181.35c5.12-.74,9.72-1.42,14.33-2.07,18.21-2.57,36.42-5,53.67-12,5.66-2.31,11.9-3.13,17.77-5,4.68-1.49,9.22-3.42,14.23-3.48a22.27,22.27,0,0,1,4.9.27c4.73,1,5.53,4.08,2.41,7.73-6.51,7.63-14.81,12.13-24.35,14.74a106.12,106.12,0,0,1-21.4,3.24c-8.66.55-17.37,1.8-26,.74-10.63-1.31-21.34-1.61-32-2.84A5.63,5.63,0,0,1,236.17,181.35Z"/><path class="cls-7" d="M170.61,88.44c0,4.14,0,8.29,0,12.44,0,2.09-.77,3.22-2.91,3.54a47.32,47.32,0,0,0-6.78,1.44c-2.07.63-2.84-.22-3.15-2.06-1.18-7-2.75-14-3.46-21.12C152.79,67.51,151.46,52.3,151.9,37c.18-6.21,2.18-12.12,3.55-18.13.34-1.51,1.21-2.76,3.08-2.26,1.36.36,2.08.84,1.78,2.81-.25,1.63,1.58,3.27,2.15,5.16,2.44,8.1,2.88,16.51,4.38,24.75A218.71,218.71,0,0,1,170.61,88.44Z"/><path class="cls-8" d="M101.34,354.56A140.79,140.79,0,0,1,99,378.33c-.69,4.05-1.34,4.26-6.15,3.51-2.51-.39-3.86-2.51-3.41-5.43,1-6.62,2.09-13.22,2.05-19.95,0-7,0-14,0-20.94,0-.84.2-1.74-.55-2.43-1.32-9.7-1.42-19.51-2.81-29.22a117.09,117.09,0,0,1-.7-14.11c-.15-7.32-1.4-14.14-7.21-19.4-2.15-2-2-5.24,0-7.6,1.68-1.92,3.84-1.24,5.88-.55,2.39.82,3.51,2.76,4.6,4.9,2.6,5.08,3,10.68,4.18,16.1,2.09,9.84,2.86,19.92,5.15,29.74a13.67,13.67,0,0,1,.66,2.6c.19,7.39-1.44,14.79.56,22.18Z"/><path class="cls-9" d="M212.27,288.13c.89,4.11.37,9.53,1,14.9.78,6.55-.54,13.11-.45,19.68,0,1.62-1.36,1.81-2.41,2-3.49.72-7,1.29-10.51,1.89-1.34.23-2-.17-2.35-1.73-2.33-11.21-3.51-22.61-5.42-33.89-1-5.77-.85-11.73-1.24-17.6-.09-1.38.73-1.83,1.87-2.13,5.14-1.38,10.46-1.37,15.67-2.15,1-.16,2.08.25,2,1.49C210.3,276.14,212.49,281.38,212.27,288.13Z"/><path class="cls-9" d="M217.48,319.1c-.18-4.54.4-9.06.59-13.58.37-8.75-1.89-17.18-3.21-25.72a49.17,49.17,0,0,1-.39-9,2.7,2.7,0,0,1,2.4-2.8,105.22,105.22,0,0,1,12.25-1.85c1.87-.16,3.31.57,3.5,2.56.67,7.08,2.72,14,2.72,21.22v24.08c0,7.2-1.26,7.8-8.39,8-.87,0-2,0-2.85,0C221.64,321.78,218.09,323.36,217.48,319.1Z"/><path class="cls-9" d="M153.59,272.75c.76,2.61-.29,5.12-.45,7.68-.29,4.64,1.62,8.92,2,13.47.92,10.64,4,20.92,5.71,31.44.31,1.93.11,2.61-2,2.54-3.57-.13-7.15-.1-10.72,0-2,0-3-.63-3.35-2.68-1.22-7.06-2.65-14.09-3.87-21.16q-2.19-12.72-4.13-25.49c-.86-5.73-.76-5.75,5.07-5.9Z"/><path class="cls-9" d="M237.89,297.09c.47-9.75-1.29-19.37-1.84-29.07-.11-2,.49-2.9,2.5-3.24a49.11,49.11,0,0,1,10-.81c1.45.05,2.42.55,2.59,2.11.8,7.44,2.32,14.81,2.39,22.32.14,4-.53,8.07.49,12.06a139.25,139.25,0,0,1,.67,14.34c0,2.36-1,3.48-3.31,3.78-3.77.47-7.52,1.16-11.27,1.76-2,.09-1.73-1.32-1.73-2.57,0-5.88,0-11.77,0-17.65C238.39,299.1,238.76,298,237.89,297.09Z"/><path class="cls-9" d="M123.52,272.67c2-.46,4.41.72,6.92.62,1.07,0,1.55.63,1.68,1.61,1.54,12,4.9,23.72,6.48,35.75.6,4.56.77,9.2,2.12,13.67.49,1.62.61,3.22-2.24,2.43a34.3,34.3,0,0,0-10.32-1.06c-2.08.07-3.13-.85-3.58-2.92-2.6-11.83-5.1-23.65-5.95-35.8-.25-3.49,0-7.07-.9-10.58-.8-3,.12-3.83,3.22-3.73C121.64,272.69,122.31,272.67,123.52,272.67Z"/><path class="cls-9" d="M258.8,298.3q-.05-1.7-.11-3.41c-.13-3.32.53-6.67-.47-9.95-.67-6.3-.17-12.69-1.72-18.93-.58-2.33-.15-4.34,3-4.62,2.86-.25,5.67-.93,8.51-1.43,1.5-.27,2.2.25,2.51,1.86,1,5.1,2.43,10.12,2.1,15.38s1.23,10.54.6,15.86c-.17,1.43-.28,2.87-.39,4.31a12.69,12.69,0,0,0,.65,6.47c1.16,2.68.44,5.72.13,8.58-.12,1.14-1.33,1.67-2.37,1.88-3.49.69-7,1.27-10.49,1.89-1.73.31-2.41-.52-2-2.09a23.91,23.91,0,0,0,.49-6.61C259.09,304.43,259.86,301.32,258.8,298.3Z"/><path class="cls-9" d="M172.72,275c-.43-2.44.72-3,2.94-2.89a41.46,41.46,0,0,0,8.37-.45c2.15-.37,3.07.57,3.32,2.83,1.72,15.76,2.91,31.59,6.24,47.15,1,4.44.31,5.13-4.19,5.08a50.28,50.28,0,0,0-6.92.56c-1.33.17-2.78,0-2.66-1.77.34-5.14-1.9-9.8-2.52-14.76q-1.66-13.3-3.34-26.6C173.57,281.05,173.13,278,172.72,275Z"/><path class="cls-9" d="M165.15,327.27c-1.86-3.15-1.65-6.8-2.42-10.21-3-13.24-5.38-26.57-5-40.24.1-4,.76-4.8,4.71-4.68,1.71.05,3.41.4,5.12.56,1.45.13,1.22,1.33,1.37,2.18,1.13,6.62,2.05,13.28,3.33,19.87,1.57,8.1,1.19,16.5,3.95,24.42a11.88,11.88,0,0,1,.13,3.46,7.29,7.29,0,0,0,0,1.43c.48,2.76-.81,3.49-3.36,3.29S167.74,327.28,165.15,327.27Z"/><path class="cls-9" d="M112.83,277.71c.88,5.93,2,12.27,2.74,18.64,1,8,3.19,15.82,3.85,23.88.14,1.73.63,3.84-1,4.86s-3.25-.52-4.67-1.37c-5.5-3.28-7.21-8.81-8.24-14.6-1.35-7.64-3.37-15.17-3.89-22.94a119.09,119.09,0,0,0-2.08-13.38c-.32-1.74.26-2.05,1.69-1.82,3.59.57,7.18,1.2,10.77,1.74,1.29.19,1.06,1.3,1.2,2A10.71,10.71,0,0,1,112.83,277.71Z"/><path class="cls-9" d="M289.41,276.71c-.42,10.08-.73,20.16-2.17,30.17a2.61,2.61,0,0,1-1.92,2.46c-1.71.63-3.38,1.4-5.05,2.14s-2.43.23-2.4-1.7c.07-4.25,0-8.5,0-12.74-.17-4.84.58-9.71-.49-14.51.16-6.47-.31-12.93-.75-19.38-.2-2.89.9-4.61,3.82-5.12,1.13-.2,2.23-.6,3.36-.81,6-1.13,4.52-2.1,5.63,4.22a27,27,0,0,1,0,4.92A23.34,23.34,0,0,0,289.41,276.71Z"/><path class="cls-10" d="M176.36,86.45c-.67-10.21.68-20.9,2.82-31.52a15.57,15.57,0,0,1,2.16-5.33,3.26,3.26,0,0,1,3.09-1.79c1.17.16,1.46,1.39,1.91,2.36,2.76,5.92,2.24,12.27,2.23,18.5,0,9.86-1.48,19.61-2.39,29.41a3.28,3.28,0,0,1-2.74,3.21c-6.74,1.83-6.69,1.83-7.21-5.21A77.78,77.78,0,0,1,176.36,86.45Z"/><path class="cls-5" d="M326.29,225.74c1.71,2.29,3.56,4.49,5.12,6.89,5,7.67,10,15.35,12.24,24.39a62.48,62.48,0,0,1,1.34,9.44,4.58,4.58,0,0,1-3,4.83c-1.83.74-3-.7-3.67-2-3.21-6.73-8.18-12.35-11.64-18.93-1.38-2.61-2.33-5.08-2-8.19C325.24,236.79,324.85,231.37,326.29,225.74Z"/><path class="cls-9" d="M304.58,288.95l1.85-25a18.29,18.29,0,0,0,0-9.21c-.42-1.79.26-2.74,2.11-2.93a14.22,14.22,0,0,0,3.38-.66c3.37-1.23,4.74-.45,5.3,3.7.31,2.28.66,4.81,0,6.9-1.91,5.85-1.65,12-2.79,17.89a180.09,180.09,0,0,1-4.65,19.6,4.14,4.14,0,0,1-3.22,3.27c-1.43.32-1.7-.3-2-1.33Q304.58,295.05,304.58,288.95Z"/><path class="cls-9" d="M293,279.16q.06-3.55.12-7.1a39.77,39.77,0,0,0,0-13.84c.05-3.35,1-3.84,5.66-4.17,3.19-.22,2.65,2,2.94,3.74,1.14,6.84.07,13.5-.91,20.3-.84,5.85-.78,11.89-1.43,17.82a76.55,76.55,0,0,1-1.32,7.92c-.38,1.72-4.71,4-6.45,3.6-1.3-.3-.56-1.21-.5-1.86.45-5.35.93-10.7,1.39-16.05C293.58,286.11,292.75,282.61,293,279.16Z"/><path class="cls-10" d="M207.06,78.86a79.38,79.38,0,0,1-3.92,18c-.18.53-.48,1.28-.89,1.42a27.8,27.8,0,0,1-10.17,1.25c-.89,0-.88-1.15-.8-1.92,1.13-11,2.68-21.8,8.38-31.53.75-1.28,1.74-2.76,3.15-2.57s1.9,1.83,2.17,3.17C205.77,70.48,207,74.27,207.06,78.86Z"/><path class="cls-8" d="M38.09,277.18c0-11.51,10.58-22.59,21.1-22.46,2.69,0,3.65,1.16,3.22,3.81a5.68,5.68,0,0,0-.23.83c0,6.49-3.93,8.86-9.69,9.27-4,.28-5.89,2.69-6.85,6.3-.86,3.25-1.93,6.45-2.88,9.67-.23.79-.64,1.61-1.42,1.64s-1.26-.75-1.49-1.55C39.12,282.13,37.75,279.69,38.09,277.18Z"/><path class="cls-11" d="M166.56,376c-2.36-2.47-2.25-5.43-2.85-8a104.26,104.26,0,0,1-2.94-18.26,8.51,8.51,0,0,1,0-.87c.07-1.29-.43-3.13,1.22-3.46,1.88-.37,2.23,1.48,2.54,2.88,1.92,8.73,1.71,17.66,2.49,26.49C167,375,166.8,375.29,166.56,376Z"/><path class="cls-11" d="M261.53,361.33c0-5.65,0-11.27,0-16.9a31.63,31.63,0,0,1,.17-3.75c.21-1.71,1.67-2.19,3-2.18,1.78,0,.92,1.61.85,2.42a176.31,176.31,0,0,1-2.91,19.38A1,1,0,0,1,261.53,361.33Z"/><path class="cls-12" d="M237.89,297.09c.87.89.51,2,.51,3,0,5.88,0,11.77,0,17.65,0,1.25-.26,2.66,1.73,2.57-2.35,1.41-2.32-.21-2.31-1.81Q237.84,307.81,237.89,297.09Z"/><path class="cls-13" d="M235.34,314.05V290c0,1.22,0,2.63,0,3.93.08,5.79.29,11.58.27,17.38C235.63,312.22,235.34,313.23,235.34,314.05Z"/><path class="cls-14" d="M91,333.08c.76.68.53,1.59.53,2.43q0,10.47,0,20.94c-.74-.68-.55-1.58-.55-2.42Q90.93,343.55,91,333.08Z"/><path class="cls-14" d="M101.34,354.56V337.72c1,1.65.59,3.53.52,5.26C101.69,346.84,102.34,350.75,101.34,354.56Z"/><path class="cls-13" d="M165.15,327.27c2.59,0,5.19-.13,7.76.08s3.84-.53,3.36-3.29a7.29,7.29,0,0,1,0-1.43c.94,1.19.37,2.6.54,3.9.08.6-.13,1.28-.87,1.25C172.36,327.63,168.7,328.53,165.15,327.27Z"/><path class="cls-12" d="M277.36,282.53c1.07,4.81.32,9.68.49,14.51C276.8,292.23,277.45,287.37,277.36,282.53Z"/><path class="cls-12" d="M254,300.46c-1-4-.35-8-.49-12.06C254.6,292.39,253.92,296.44,254,300.46Z"/><path class="cls-13" d="M304.58,288.95q0,6.1,0,12.21A26.8,26.8,0,0,1,304.58,288.95Z"/><path class="cls-13" d="M153.59,272.75l-11.7-.1C145.79,271.95,149.7,271.55,153.59,272.75Z"/><path class="cls-12" d="M293,279.16c-.21,3.45.62,7-.51,10.36C292.55,286.06,291.91,282.57,293,279.16Z"/><path class="cls-13" d="M258.22,284.94c1,3.28.34,6.63.47,9.95C257.7,291.62,258.24,288.27,258.22,284.94Z"/><path class="cls-15" d="M305.34,254.72a7.82,7.82,0,0,1,0,9.21Z"/><path class="cls-13" d="M258.8,298.3c1.06,3,.3,6.14.5,9.2C258.21,304.48,258.86,301.37,258.8,298.3Z"/><path class="cls-13" d="M217.48,319.1c.61,4.27,3.93,2.68,6.38,3-1.64,1.08-3.51.71-5.2.49C216.49,322.26,217.91,320.26,217.48,319.1Z"/><path class="cls-16" d="M237.79,159.58c.16,6.76-6,13-12.49,12-3.9-.57-6.94-3.29-9.48-6.15a5.29,5.29,0,0,0-4.12-2c-5.65-.32-11.41.07-16.78-2.26-1-.44-1.36.08-1.72.81-.51,1-1,2.08-1.54,3.09-1.93,3.48-4.74,4.93-8.64,4.24a42.3,42.3,0,0,1-6.35-1.69c-4.29-1.48-5.76-5.33-3.57-9.24,1-1.84,2.22-3.61,3.42-5.35a9.12,9.12,0,0,1,12.22-2.95,4.35,4.35,0,0,1,2.54,2.63c.47,2.17,2,2.66,3.78,3.27,6,2.08,12.26,2.37,18.54,2.33,2.32,0,4-1.31,5.48-2.86,4.13-4.37,9-5.21,14.51-3.28C237.39,153.52,237.66,154,237.79,159.58Zm-4.46.59c-.12-1.37.38-3-1.49-3.65a11.86,11.86,0,0,0-5.63-.94c-2.86.47-5.55,1.69-6.56,4.55s1.91,3.52,3.4,5c2.19,2.18,4.5,2.23,7.11,1S233.55,162.83,233.33,160.17Zm-49.83,4.64a5,5,0,0,0,5.32-3.17c.77-1.73-.34-6.31-1.63-7.31-.47-.36-1-.68-1.58-.35-2.1,1.17-4.67,1.19-6.61,2.7-1.43,1.12-3.08,2.26-2.64,4.42s2.17,2.72,4.07,3C181.46,164.3,182.48,164.58,183.5,164.81Z"/><path class="cls-16" d="M223.61,125.74c7.3,1.52,14.37.38,21.33-1.86,1.21-.39,2.4-.58,2.9.83a2.5,2.5,0,0,1-1.27,3.19,34.9,34.9,0,0,1-12,3.71,36.61,36.61,0,0,1-13.18-.6,12.77,12.77,0,0,1-2.46-.78,2.06,2.06,0,0,1-1.42-2c0-1,.82-1.5,1.61-1.81A9.64,9.64,0,0,1,223.61,125.74Z"/><path class="cls-16" d="M167.67,130.71c-1.54,0-3.07,0-4.61,0-1.36,0-2.84,0-3-1.87s1.14-2.7,2.82-2.85a42.38,42.38,0,0,1,6.62-.38,52,52,0,0,0,8.92-.21c1.57-.17,3,.07,3.14,2s-1.26,2.28-2.63,2.35C175.15,129.93,171.45,130.74,167.67,130.71Z"/><path class="cls-17" d="M144.71,137.83a15,15,0,0,0,4.57-.23c1-.17,2.22-.55,2.69.85a2.85,2.85,0,0,1-1,3.08c-1.62,1.48-9.12,1.52-10.76,0-.67-.61-1.57-1.6-1.47-2.29.16-1.08,1.5-1.33,2.55-1.41S143.56,137.83,144.71,137.83Z"/><path class="cls-16" d="M259.72,142.84c-1.54-.07-3.08-.16-4.62-.19-.83,0-1.59-.1-1.77-1.07a1.56,1.56,0,0,1,1.11-1.82,36.06,36.06,0,0,1,11.41-1.26c1,.06,1.15.9,1.14,1.72a2.22,2.22,0,0,1-2.07,2.37C263.2,142.79,261.45,142.77,259.72,142.84Z"/><path class="cls-17" d="M169.3,138.58c2.45-.05,4.64,1.7,4.66,3.71,0,1.72-2.34,3.25-4.93,3.33s-3.18-1.85-3.62-3.67C165,140.37,167.22,138.62,169.3,138.58Z"/><path class="cls-16" d="M235.56,142.57c2.09,0,4.21,1.69,4.24,3.44s-2.4,3.67-4.49,3.64-3.71-1-3.86-3.32C231.32,144.14,233.08,142.6,235.56,142.57Z"/><path class="cls-17" d="M255.43,147.5c3.49-1.59,6.91-.09,10.28-.14,1.71,0,1.38,1.79.76,2.89A3.11,3.11,0,0,1,263,151.8,12.06,12.06,0,0,1,255.43,147.5Z"/><path class="cls-17" d="M142.82,150.23c-.63-.12-1.38-.22-2.11-.42-.53-.15-1.3-.29-1.2-1a1.89,1.89,0,0,1,.91-1.37,70.16,70.16,0,0,1,7.53-1.8c1.12-.19,1.48,1,1.74,1.94.32,1.16-.41,1.59-1.34,1.76C146.56,149.67,144.76,149.93,142.82,150.23Z"/><path class="cls-5" d="M233.33,160.17c.22,2.66-.63,4.71-3.16,5.93s-4.92,1.21-7.11-1c-1.49-1.48-4.38-2.24-3.4-5s3.7-4.08,6.56-4.55a11.86,11.86,0,0,1,5.63.94C233.71,157.13,233.21,158.8,233.33,160.17Z"/><path class="cls-5" d="M183.5,164.81c-1-.23-2-.5-3.07-.68-1.9-.31-3.64-.91-4.07-3s1.21-3.31,2.64-4.42c1.94-1.51,4.51-1.54,6.61-2.7.59-.33,1.11,0,1.58.35,1.29,1,2.4,5.59,1.63,7.31A5,5,0,0,1,183.5,164.81Z"/></svg>