<svg id="圖層_1" data-name="圖層 1" xmlns="http://www.w3.org/2000/svg" viewBox="0 0 392.74 139.79"><defs><style>.cls-1{fill:#090405;}.cls-1,.cls-2{fill-rule:evenodd;}.cls-2{fill:#85acba;}</style></defs><title>graphic</title><path class="cls-1" d="M74.4,20.64c10.43-1.68,20.75-3.9,31.21-5.4,20.45-3,40.82-6.32,61.33-8.75a207.18,207.18,0,0,1,49.67-.32c6.36.78,12.68,1.92,19,3.19,6.08,1.23,12.24,1.4,18.37,1.7,27.52,1.31,54.54,5.33,80.85,13.81,10.78,3.48,21.68,6.55,31.84,11.72a125.82,125.82,0,0,1,15.29,9.75,30.75,30.75,0,0,0,7.51,6.46A2.49,2.49,0,0,1,390.76,56a96.42,96.42,0,0,1-6.59,18.61c-1.11,2.49-3.13,4.25-5.13,6-18.15,16-38,29.56-60.11,39.56-14.07,6.35-29,9.68-44,13-10.95,2.42-21.95,3.23-33.09,3.55-15.73.45-31.46,1.39-47.2,1.86-8.81.26-17.6,1.33-26.4,1.23-11.12-.13-21.84-3.06-32.58-5.57-15.75-3.68-31.6-7.25-46.62-13.31C64.83,111.14,42.23,98.5,22.9,80.62c-2.25-2.09-4.25-4.46-6.38-6.7-6.14-6.53-6.3-14.48-5.38-22.68a4.24,4.24,0,0,1,1.31-2.15c3.32-4.22,7.85-7.11,11.93-10.43,2.34-1.91,5.5-3,7.91-5a3.33,3.33,0,0,0,1.5-.09c6.71-2.2,13.43-4.37,20.15-6.53,6-.94,11.42-3.5,17.15-5.19C72.21,21.5,73.31,21,74.4,20.64ZM359,85.64c-.79.29-1.6.55-2.38.88-8.09,3.43-16,7.26-24.45,9.81-20.23,6.12-40.7,11.38-61,17.09a153.46,153.46,0,0,1-37.3,6q-13.47.37-26.94.71c-14.44.33-28.88,1.56-43.36.21-12.45-1.16-24.84-2.6-37-5.73-17.25-4.46-34.07-10.35-51-15.83-18.41-6-34.77-15-47.72-29.7a27.22,27.22,0,0,0-3.82-3,1,1,0,0,0-1.55,0c-.55.57-.43,1,.07,1.51C26,71.44,29,75.72,32.92,79c16.46,13.81,34.36,25.32,54.49,33.1,14.91,5.75,30.48,9.26,45.75,13.78a150.84,150.84,0,0,0,55.77,5.89c11-.9,22.06-1,33.08-1.59,7.77-.42,15.53-.74,23.29-1.54,9.09-1,18.06-2.63,27.15-3.58a131.15,131.15,0,0,0,34-8c12-4.68,23-11.32,33.84-18.12,6.5-4.06,13.57-7.33,19.07-12.89.2-.22.38-.44.56-.67A.66.66,0,0,0,359,85.64Zm9.44-14.41-4.1-1.87c-32.52-14.61-65.75-26.67-101.79-29-15.37-1-30.71-2.49-46.1-3.31-18.13-1-36.28-.59-54.43.2A235.36,235.36,0,0,0,130.6,40.3c-18.54,3.33-37,7-55.6,10.19-13.09,2.28-23.84,8.54-32.91,18-2.59,2.7-2.42,3.86.51,6.27a80.93,80.93,0,0,0,14.81,9.12A283.13,283.13,0,0,0,124.62,108c11.83,2.67,23.73,5.06,35.88,6,5.21.4,10.42.09,15.64,0,11-.21,21.91-.27,32.88-.33a308.46,308.46,0,0,0,42.43-3.13,354.73,354.73,0,0,0,52.79-12.16C322.67,92.7,341.09,87,358.25,78A44.72,44.72,0,0,0,368.39,71.23Zm7.71-16.17c-7.7-7.28-15.88-13.7-26-16.82-8.14-2.5-16.54-4.13-24.76-6.37a412.77,412.77,0,0,0-64.54-12.58c-12.4-1.31-24.7-3.54-37-5.44-9.23-1.43-18.48-2.61-27.78-3.16-14.54-.85-28.78,1.93-43.06,4s-28.67,4.31-43,6.62c-6.84,1.09-13.82,1.14-20.55,2.75A239.68,239.68,0,0,0,39.84,41.8c-3.53,1.72-7,3.57-10.39,5.55-3.15,1.83-4,4-3.18,6.79.33,1.19.72,1.55,1.91,1,11.49-5.65,23.29-10.66,34.45-17a70.87,70.87,0,0,1,14.82-6.21c11.83-3.5,24-4.27,36.22-4.86,16.68-.8,33.11-3.45,49.62-5.57,10.66-1.37,21.33-2.88,32.05-3.66,13-.95,25.79,1.28,38.59,2.94,9.67,1.25,19.3,2.74,28.94,4.24s19.08,3,28.56,4.73c13.67,2.55,27.13,6,40.63,9.3,14.47,3.53,28.6,8,41.46,15.71C374.23,55.19,374.94,55.75,376.1,55.05ZM35.3,67.74c.79-.85,1.58-1.75,2.43-2.6a78.55,78.55,0,0,1,38.09-21c18.07-4.33,36.46-6.31,54.78-8.94C140.68,33.79,150.83,33,161,32.41s20.48-1.43,30.73-1.87c10.69-.45,21.38-.29,32.09.32,12,.68,23.89,1.93,35.77,3.44,12,1.52,24,3.64,35.85,6.19,14.84,3.19,29.68,6.32,44.11,11.16a203.12,203.12,0,0,1,32.66,13.89c1.62.88,2.28.59,3-1,.87-1.8.57-2.92-1.26-3.67-3.23-1.33-6.51-2.54-9.66-4-33-15.6-68-23.29-104.12-26.75-10.56-1-21.12-2.19-31.61-3.71a228.4,228.4,0,0,0-37.64-2.28,228.17,228.17,0,0,0-30.42,2.18c-12.49,2-25,3.8-37.53,5.14a248.61,248.61,0,0,0-38.53,6.74C67.66,42.71,52,50.1,36.38,57.64,30,60.73,29.73,62.83,35.3,67.74Z"/><path class="cls-2" d="M368.39,71.23A44.72,44.72,0,0,1,358.25,78c-17.16,9-35.58,14.72-54,20.35a354.73,354.73,0,0,1-52.79,12.16A308.46,308.46,0,0,1,209,113.62c-11,.06-21.92.12-32.88.33-5.21.1-10.43.41-15.64,0-12.15-.92-24-3.31-35.88-6A283.13,283.13,0,0,1,57.42,83.87,80.93,80.93,0,0,1,42.6,74.75c-2.93-2.4-3.1-3.56-.51-6.27C51.16,59,61.91,52.77,75,50.49c18.57-3.23,37.06-6.87,55.6-10.19A235.36,235.36,0,0,1,162,37.25c18.15-.79,36.3-1.16,54.43-.2,15.39.82,30.73,2.32,46.1,3.31,36,2.33,69.27,14.39,101.79,29Z"/><path class="cls-2" d="M359.42,86.14C353.91,91.69,346.84,95,340.34,99c-10.87,6.8-21.82,13.44-33.84,18.12a131.15,131.15,0,0,1-34,8c-9.09.95-18.07,2.61-27.15,3.58-7.76.8-15.52,1.12-23.29,1.54-11,.59-22.09.69-33.08,1.59a150.84,150.84,0,0,1-55.77-5.89c-15.27-4.52-30.84-8-45.75-13.78-20.14-7.78-38-19.29-54.49-33.1C29,75.72,26,71.44,22.5,67.66c-.49-.53-.62-.94-.07-1.51a1,1,0,0,1,1.55,0,27.22,27.22,0,0,1,3.82,3c12.95,14.66,29.3,23.74,47.72,29.7,16.95,5.48,33.76,11.37,51,15.83,12.12,3.13,24.5,4.56,37,5.73,14.48,1.35,28.91.12,43.36-.21q13.46-.32,26.94-.71a153.46,153.46,0,0,0,37.3-6c20.34-5.71,40.81-11,61-17.09,8.45-2.55,16.36-6.38,24.45-9.81.78-.33,1.59-.59,2.38-.88C359.11,85.8,359.27,86,359.42,86.14Z"/><path class="cls-2" d="M376.1,55.05c-1.15.7-1.87.14-2.57-.29-12.86-7.75-27-12.18-41.46-15.71-13.5-3.29-27-6.75-40.63-9.3C282,28,272.41,26.51,262.87,25s-19.27-3-28.94-4.24c-12.8-1.66-25.63-3.88-38.59-2.94-10.72.79-21.39,2.29-32.05,3.66-16.51,2.12-32.95,4.76-49.62,5.57-12.18.59-24.39,1.36-36.22,4.86a70.87,70.87,0,0,0-14.82,6.21c-11.16,6.32-23,11.33-34.45,17-1.19.58-1.58.22-1.91-1-.78-2.81,0-5,3.18-6.79,3.39-2,6.86-3.83,10.39-5.55A239.68,239.68,0,0,1,89.37,24c6.74-1.61,13.72-1.65,20.55-2.75,14.31-2.31,28.63-4.55,43-6.62s28.52-4.83,43.06-4c9.3.56,18.55,1.74,27.78,3.16,12.33,1.9,24.63,4.13,37,5.44a412.77,412.77,0,0,1,64.54,12.58c8.22,2.24,16.62,3.87,24.76,6.37C360.22,41.35,368.4,47.78,376.1,55.05Z"/><path class="cls-2" d="M35.3,67.74c-5.58-4.91-5.31-7,1.08-10.1C52,50.1,67.66,42.71,84.46,38.18A248.61,248.61,0,0,1,123,31.44c12.56-1.35,25-3.17,37.53-5.14a228.17,228.17,0,0,1,30.42-2.18,228.4,228.4,0,0,1,37.64,2.28c10.49,1.52,21,2.7,31.61,3.71,36.12,3.46,71.12,11.14,104.12,26.75,3.14,1.48,6.43,2.69,9.66,4,1.83.75,2.13,1.87,1.26,3.67-.76,1.58-1.42,1.87-3,1a203.12,203.12,0,0,0-32.66-13.89c-14.43-4.85-29.28-8-44.11-11.16-11.87-2.55-23.81-4.66-35.85-6.19-11.88-1.5-23.8-2.76-35.77-3.44-10.71-.61-21.39-.77-32.09-.32-10.26.44-20.49,1.27-30.73,1.87s-20.3,1.38-30.37,2.83c-18.32,2.63-36.71,4.61-54.78,8.94a78.55,78.55,0,0,0-38.09,21C36.88,66,36.1,66.88,35.3,67.74Z"/><path class="cls-2" d="M359,85.64a.66.66,0,0,1,1-.18l-.55.68C359.27,86,359.11,85.8,359,85.64Z"/></svg>