<svg id="圖層_1" data-name="圖層 1" xmlns="http://www.w3.org/2000/svg" viewBox="0 0 1380.14 508.47"><defs><style>.cls-1{fill:#f6ee54;}.cls-2{fill:#eb666d;}.cls-3{fill:#94d4ea;}</style></defs><title>logo_2015</title><circle class="cls-1" cx="95" cy="349.33" r="7.45"/><path class="cls-2" d="M151.23,310.9a7.65,7.65,0,1,0,0-15.29H95a7.65,7.65,0,0,0-7.65,7.65c0,.06,0,.11,0,.17s0,.11,0,.17v25.62a7.65,7.65,0,1,0,15.29,0V310.9Z"/><path class="cls-2" d="M144.11,341.68h-29a7.65,7.65,0,1,0,0,15.29h29a7.65,7.65,0,0,0,0-15.29Z"/><path class="cls-2" d="M95,361.8a7.65,7.65,0,0,0-7.65,7.65v25.62a7.65,7.65,0,1,0,15.29,0V369.45A7.65,7.65,0,0,0,95,361.8Z"/><circle class="cls-3" cx="202.93" cy="356.78" r="7.45"/><path class="cls-2" d="M209.76,299.85l-.08-.14-.22-.38-.17-.28-.24-.34-.21-.27-.26-.3-.25-.26-.27-.26-.29-.25-.27-.21-.34-.24-.28-.17-.38-.22-.14-.08-.15-.07-.38-.17-.34-.13-.34-.11-.39-.11-.32-.07-.41-.07-.33,0-.4,0h-.73l-.4,0-.33,0-.41.07-.32.07-.39.11-.35.11-.34.13-.38.17-.15.07-.14.08-.38.22-.28.18-.34.24-.27.21-.29.26-.27.25-.25.27-.26.3-.21.27-.24.34-.17.28-.22.38-.08.14-46.44,91.78a7.65,7.65,0,1,0,13.67,6.85l39.6-78.14,39.17,78.36a7.65,7.65,0,0,0,13.67-6.85Z"/><circle class="cls-3" cx="362.71" cy="349.33" r="7.45"/><path class="cls-2" d="M411.82,357a7.65,7.65,0,1,0,0-15.29h-29a7.65,7.65,0,1,0,0,15.29Z"/><path class="cls-2" d="M418.94,295.52H362.71a7.65,7.65,0,0,0-7.65,7.65s0,.07,0,.11,0,.07,0,.11v25.82a7.65,7.65,0,1,0,15.29,0v-18.4h48.58a7.65,7.65,0,1,0,0-15.29Z"/><path class="cls-2" d="M418.94,387.42H370.35v-18a7.65,7.65,0,1,0-15.29,0v25.62a7.65,7.65,0,0,0,7.65,7.65h56.23a7.65,7.65,0,1,0,0-15.29Z"/><circle class="cls-3" cx="1230.62" cy="349.33" r="7.45"/><path class="cls-2" d="M1279.73,357a7.65,7.65,0,1,0,0-15.29h-29a7.65,7.65,0,0,0,0,15.29Z"/><path class="cls-2" d="M1286.85,295.52h-56.23a7.65,7.65,0,0,0-7.65,7.65s0,.07,0,.11,0,.07,0,.11v25.82a7.65,7.65,0,0,0,15.29,0v-18.4h48.58a7.65,7.65,0,0,0,0-15.29Z"/><path class="cls-2" d="M1286.85,387.42h-48.58v-18a7.65,7.65,0,0,0-15.29,0v25.62a7.65,7.65,0,0,0,7.65,7.65h56.23a7.65,7.65,0,0,0,0-15.29Z"/><circle class="cls-1" cx="331.39" cy="315.8" r="7.45"/><path class="cls-2" d="M326.75,377.81a35.08,35.08,0,0,1-24,9.61c-19.89,0-36.07-17-36.07-37.81s16.18-37.81,36.07-37.81a34.57,34.57,0,0,1,9.38,1.29,7.65,7.65,0,0,0,4.15-14.72,49.87,49.87,0,0,0-13.54-1.87c-28.32,0-51.36,23.82-51.36,53.1s23,53.1,51.36,53.1A50.31,50.31,0,0,0,337.2,389a7.65,7.65,0,1,0-10.45-11.16Z"/><circle class="cls-1" cx="569.2" cy="303.26" r="7.45"/><path class="cls-2" d="M562,313.52a7.65,7.65,0,0,0-10.65,1.88l-21.76,31.16-33.39-47.69a7.65,7.65,0,0,0-12.53,8.77l38,54.29v33.13a7.65,7.65,0,1,0,15.29,0v-32.4l26.9-38.5A7.65,7.65,0,0,0,562,313.52Z"/><circle class="cls-3" cx="791.29" cy="356.72" r="7.45"/><path class="cls-2" d="M791.48,369.05a7.65,7.65,0,0,0-7.65,7.65v18.37a7.65,7.65,0,1,0,15.29,0V376.7A7.65,7.65,0,0,0,791.48,369.05Z"/><path class="cls-2" d="M840.86,364.14l.1,0a33.44,33.44,0,0,0-6.48-66.24h-43a7.65,7.65,0,0,0-7.65,7.65v31.09a7.65,7.65,0,1,0,15.29,0V313.18h35.34a18.07,18.07,0,0,1,0,36.15H811.6a7.66,7.66,0,0,0,0,15.31h10.55v0l26.59,35.14a7.61,7.61,0,0,0,12.14-9.19Z"/><circle class="cls-3" cx="651.93" cy="316.17" r="7.45"/><path class="cls-2" d="M662.63,324.41a7.65,7.65,0,0,0-3.78,10.13,36.83,36.83,0,0,1,3.33,15.4c0,20.67-17,37.48-37.91,37.48s-37.91-16.81-37.91-37.48,17-37.48,37.91-37.48a38.61,38.61,0,0,1,8.07.85,7.65,7.65,0,1,0,3.2-15,54,54,0,0,0-11.27-1.19c-29.34,0-53.2,23.67-53.2,52.77s23.87,52.77,53.2,52.77,53.2-23.67,53.2-52.77a52,52,0,0,0-4.72-21.75A7.64,7.64,0,0,0,662.63,324.41Z"/><path class="cls-2" d="M767.34,297.46a7.65,7.65,0,0,0-7.65,7.65v55.26c0,10.83-4.42,21.18-13.87,26.49a7.65,7.65,0,1,0,7.49,13.33c14.26-8,21.68-23.48,21.68-39.83V305.11A7.65,7.65,0,0,0,767.34,297.46Z"/><path class="cls-2" d="M692.19,297.46a7.65,7.65,0,0,1,7.65,7.65v55.26c0,10.83,4.42,21.18,13.87,26.49a7.65,7.65,0,1,1-7.49,13.33c-14.26-8-21.68-23.48-21.68-39.83V305.11A7.65,7.65,0,0,1,692.19,297.46Z"/><circle class="cls-1" cx="729.71" cy="395.26" r="7.45"/><circle class="cls-3" cx="1012.94" cy="349.33" r="7.45" transform="translate(5.81 715.07) rotate(-38.99)"/><path class="cls-2" d="M1062.06,297a52.49,52.49,0,0,0-52.9,28.48,7.65,7.65,0,0,0,13.66,6.88,37.19,37.19,0,0,1,37.51-20.17A38.22,38.22,0,0,1,1093.91,354a37.18,37.18,0,0,1-41.3,33.14,37.88,37.88,0,0,1-25.37-14,38.74,38.74,0,0,1-4.39-6.83,7.65,7.65,0,0,0-13.67,6.87,54.07,54.07,0,0,0,6.12,9.53,53.08,53.08,0,0,0,35.56,19.66,53.81,53.81,0,0,0,5.89.35,52.47,52.47,0,0,0,52.35-47.09A53.51,53.51,0,0,0,1062.06,297Z"/><circle class="cls-1" cx="945.24" cy="307.96" r="7.45"/><path class="cls-2" d="M1006.78,387.42h-53.7V328.08a7.65,7.65,0,1,0-15.29,0v67a7.65,7.65,0,0,0,7.65,7.65h61.34a7.65,7.65,0,0,0,0-15.29Z"/><path class="cls-2" d="M1207.75,297.92a7.65,7.65,0,0,0-10.22,3.53l-36.92,76.15L1132,319.36a7.65,7.65,0,0,0-13.75,6.7l35.49,72.36.07.11a7.67,7.67,0,0,0,.43.74l.1.16a7.73,7.73,0,0,0,.59.75l.15.16a7.59,7.59,0,0,0,.55.52l.19.17a7.65,7.65,0,0,0,.77.55l.1.06c.18.11.37.22.57.31l.16.07.33.14c.2.08.41.16.62.22l.31.09c.23.06.47.11.7.15l.26,0a7.64,7.64,0,0,0,1,.07h0a7.63,7.63,0,0,0,1-.07l.26,0c.24,0,.47-.09.71-.15l.31-.09c.21-.06.42-.14.62-.22l.32-.14.16-.07c.2-.1.39-.21.57-.32l.09-.05a7.59,7.59,0,0,0,.77-.55l.19-.16a7.66,7.66,0,0,0,.56-.53l.15-.16a7.6,7.6,0,0,0,.6-.75l.1-.16a7.58,7.58,0,0,0,.43-.74l.07-.11,43.79-90.27A7.65,7.65,0,0,0,1207.75,297.92Z"/><circle class="cls-1" cx="1116.46" cy="304.6" r="7.45"/><path class="cls-3" d="M774.49,89.65a11,11,0,1,0,11,11A11,11,0,0,0,774.49,89.65Z"/><path class="cls-2" d="M798.15,123.85H750.83a14.68,14.68,0,0,0-14.66,14.66V242a14.68,14.68,0,0,0,14.66,14.66h47.31A14.68,14.68,0,0,0,812.81,242V138.51A14.68,14.68,0,0,0,798.15,123.85Zm-.6,114.82a7.57,7.57,0,0,1-7.56,7.56H759a7.57,7.57,0,0,1-7.56-7.56V195.89h46.11Zm0-53.25H751.43V141.89a7.57,7.57,0,0,1,7.56-7.56h31a7.57,7.57,0,0,1,7.56,7.56Z"/><path class="cls-2" d="M873.18,256.71h22.35a7.26,7.26,0,0,0,7.25-7.25V138.51a14.68,14.68,0,0,0-14.66-14.66H845.31l0-.19c2.66-10.82,4.8-24.39,4.82-24.53a7.28,7.28,0,1,0-13.88-4.37c0,.19-3.4,20.8-8,35.35a125.15,125.15,0,0,1-11,25.13,7.28,7.28,0,0,0,13.9,4.31c.08-.16,6.88-14.31,10.85-25.13l0-.1h40.15a7.57,7.57,0,0,1,7.56,7.56V242.37a3.86,3.86,0,0,1-3.86,3.86H864.31l2,5.68A7.28,7.28,0,0,0,873.18,256.71Z"/><path class="cls-2" d="M868.3,204.21l-8.62-28a7.28,7.28,0,1,0-13.92,4.29l8.62,28a7.28,7.28,0,1,0,13.92-4.29Z"/><path class="cls-3" d="M396.92,178.6a11,11,0,1,0,11,11A11,11,0,0,0,396.92,178.6Z"/><path class="cls-2" d="M361.06,94.48A6.17,6.17,0,0,0,355,99.85a105.52,105.52,0,0,1-2.35,12.63,6.1,6.1,0,0,0,1.15,5.21,6,6,0,0,0,4.71,2.27,6.06,6.06,0,0,0,5.92-4.79l.41-2c1-4.73,1.49-7.1,2.26-11.65a6,6,0,0,0-1.35-4.91A6.13,6.13,0,0,0,361.06,94.48Z"/><path class="cls-2" d="M297.35,99.85a6.12,6.12,0,0,0-10.76-3.2,6,6,0,0,0-1.35,4.91c.77,4.52,1.26,6.88,2.25,11.59l.42,2a6.06,6.06,0,0,0,5.92,4.79,6,6,0,0,0,4.71-2.27,6.09,6.09,0,0,0,1.15-5.21A106.14,106.14,0,0,1,297.35,99.85Z"/><path class="cls-2" d="M373.63,128.44A5.61,5.61,0,0,0,368,124H345.51V95.88a6.59,6.59,0,0,0-13.18,0V124H321.81V95.88a6.59,6.59,0,0,0-13.18,0V124H285.83a5.4,5.4,0,0,0-5.32,6.31,5.62,5.62,0,0,0,5.63,4.48h82.18a5.4,5.4,0,0,0,5.32-6.31Z"/><path class="cls-2" d="M402.13,256.38h22.35a7.26,7.26,0,0,0,7.25-7.25V134.44h6.44a5.24,5.24,0,0,0,0-10.48h-6.44V96.23a6.46,6.46,0,0,0-12.93,0V124H385.31a5.24,5.24,0,0,0,0,10.48H418.8V242a3.86,3.86,0,0,1-3.86,3.86H393.26l2,5.68A7.27,7.27,0,0,0,402.13,256.38Z"/><path class="cls-2" d="M288.06,256.31l81.68-13.11a5.24,5.24,0,1,0-1.66-10.34l-33.38,5.36V210.75H360a5.24,5.24,0,0,0,0-10.48H334.7V173.69h29.23a5.24,5.24,0,0,0,0-10.48H348.17L358.78,142H348a7.21,7.21,0,0,0-6.49,4l-8.61,17.24h-12l0-.09L312.33,146a7.21,7.21,0,0,0-6.49-4H295.1l10.61,21.25H290.9a5.24,5.24,0,1,0,0,10.48h28.54v26.58H295.39a5.24,5.24,0,1,0,0,10.48h24.05v29.92l-.13,0L286.4,246a5.23,5.23,0,0,0-4.34,6A5.24,5.24,0,0,0,288.06,256.31Z"/><path class="cls-1" d="M165.85,179.81a11,11,0,1,0,11,11A11,11,0,0,0,165.85,179.81Z"/><path class="cls-2" d="M242.06,89.29H89.63a5.24,5.24,0,0,0,0,10.48h64.08l-.06.2-7.54,24H102.74a14.68,14.68,0,0,0-14.66,14.66V242.92a14.68,14.68,0,0,0,14.66,14.66H229a14.68,14.68,0,0,0,14.66-14.66V138.62A14.68,14.68,0,0,0,229,124h-67.6l.06-.2,7.54-24h73.1a5.24,5.24,0,0,0,0-10.48Zm-110.55,157H110.91a7.57,7.57,0,0,1-7.56-7.56V141.24a7.57,7.57,0,0,1,7.56-7.56h20.61Zm68.66-112.66H221a7.57,7.57,0,0,1,7.56,7.56v97.54a7.57,7.57,0,0,1-7.56,7.56H200.18Zm-15.26,0V246.34H146.78V133.67Z"/><path class="cls-1" d="M1081.43,189.92a11,11,0,1,0,11,11A11,11,0,0,0,1081.43,189.92Z"/><path class="cls-2" d="M961.64,257.13a7.64,7.64,0,0,0,7.63-7.63V134.44h15.24a5.24,5.24,0,1,0,0-10.48H969.27V97.4a7.63,7.63,0,1,0-15.26,0V124H938.77a5.24,5.24,0,0,0,0,10.48H954V249.49A7.64,7.64,0,0,0,961.64,257.13Z"/><path class="cls-2" d="M931.7,234.66a5.21,5.21,0,0,0,9-3c0-.16,3.12-14.69,5.6-34.08,2-16,3.54-46.25,3.55-46.55a5.21,5.21,0,1,0-10.38-1c0,.24.35,25.62-2.33,45.31-2.3,16.83-6.77,35.17-6.82,35.35A5.22,5.22,0,0,0,931.7,234.66Z"/><path class="cls-2" d="M977.48,145.3a5.21,5.21,0,0,0-5.19,5.7c0,.31,1.51,30.54,3.55,46.56,2.47,19.39,5.56,33.92,5.59,34.06a5.21,5.21,0,1,0,10.38-.95c-.13-.55-4.54-18.68-6.81-35.34-2.69-19.69-2.34-45.07-2.34-45.33A5.19,5.19,0,0,0,977.48,145.3Z"/><path class="cls-2" d="M1036.2,256.82h15.22a7.26,7.26,0,0,0,7.25-7.25V220l.28.35c6.36,8.12,11.52,13.94,15.33,17.3A145.74,145.74,0,0,0,1097,253.31a181.3,181.3,0,0,1-25.15-33.48c-6.73-11.71-11.42-26.89-13.12-32.87v0a7.26,7.26,0,0,0-7.25-7.24h-33.56a5.24,5.24,0,0,0,0,10.49l24,.06a3.86,3.86,0,0,1,3.85,3.86v48.4a3.86,3.86,0,0,1-3.86,3.86h-14.56l2,5.68A7.28,7.28,0,0,0,1036.2,256.82Z"/><path class="cls-2" d="M1088.94,164.37a5.24,5.24,0,1,0,0-10.48h-38.17V140.8h27.55a5.24,5.24,0,0,0,0-10.48h-27.55V117.24h34.09a5.24,5.24,0,1,0,0-10.48h-21.44l4.93-7.63a6.38,6.38,0,0,0-10.72-6.93l-9.41,14.55h-11l0-.07-9.37-14.48a6.38,6.38,0,1,0-10.72,6.93l4.93,7.63h-20.61a5.24,5.24,0,1,0,0,10.48h34.09v13.09h-28.38a5.24,5.24,0,0,0,0,10.48h28.38v13.09H997.08a5.24,5.24,0,1,0,0,10.48h30.21l0,0,10.87,9.53a9.39,9.39,0,0,0,6.19,2.33h8.23a1.26,1.26,0,0,0,.83-2.2l-11.07-9.69Z"/><path class="cls-2" d="M1029.05,224.46c5-7.88,7.89-15.33,7.89-20.44a3.35,3.35,0,0,0-3.35-3.34H1005a5.24,5.24,0,1,0,0,10.47h15a1.48,1.48,0,0,1,1.28.49,2.37,2.37,0,0,1,0,2.07,96.59,96.59,0,0,1-10.12,18.75c-7.49,10.88-17.93,18.93-20.54,20.84,2.81-.63,13.16-3.19,19.69-8.1A81.61,81.61,0,0,0,1029.05,224.46Z"/><path class="cls-3" d="M1142,132a10.61,10.61,0,1,0,10.61,10.61A10.62,10.62,0,0,0,1142,132Z"/><path class="cls-2" d="M1231.9,184a6.18,6.18,0,0,0-6.12,5.37c0,.19-2.92,19-4.86,28.3-3,14.09-9.65,36.65-10.57,39h6.73a8.53,8.53,0,0,0,8.07-5.74,322.2,322.2,0,0,0,9.64-37.09A194.86,194.86,0,0,0,1238,191a6.17,6.17,0,0,0-6.12-7Z"/><path class="cls-2" d="M1194.5,89.89c-.45.14-21,6.39-29.19,8.22s-32.79,5.6-33,5.63a5.18,5.18,0,0,0,2.28,10.12c.16,0,18.24-2.52,32.62-5.54a256.63,256.63,0,0,0,29.55-8.3,5.19,5.19,0,1,0-2.25-10.13Z"/><path class="cls-2" d="M1138.24,208.51c-.18.26-.24.47-.16.63.32.63,2.56.6,4,.59h13.07c.46-.61,4.25-5.62,8.77-12,5.39-7.67,8.6-12.58,9.32-13.69h-15c-.43.6-3.81,5.22-7.14,9.47C1146.1,199.87,1138.32,208.42,1138.24,208.51Z"/><path class="cls-2" d="M1136.76,242.53c-.18.26-.24.47-.16.63.32.63,2.57.6,4,.6h13.07c.46-.61,4.25-5.62,8.77-12,5.56-7.91,10.26-15.64,11.12-17.07h-15c-.54.83-5.57,8.54-8.95,12.85C1144.61,233.89,1136.83,242.44,1136.76,242.53Z"/><path class="cls-2" d="M1179.27,131.95h0l0,0h0c-.29.39-1.27,1.44-4.15,4.53l-.17.18-.09-.22-7.52-18.22a7.08,7.08,0,0,0-13,5.6l9.69,24.27-.07.07c-.11.12-12.06,11.92-16.27,15.56-9.66,8.34-18,16.15-19.75,17.52l14.14,0h0a11.08,11.08,0,0,0,6.53-2.11c4.24-3.07,11.15-7.86,16.17-12.59l0,0h.06l10.93,0a3.87,3.87,0,0,1,3.85,3.86l0,71.92a3.86,3.86,0,0,1-3.86,3.86h-14.56l2,5.68a7.27,7.27,0,0,0,6.82,4.8h15.22a7.26,7.26,0,0,0,7.25-7.25l0-86.16a7.26,7.26,0,0,0-7.25-7.25h-10.19l.25-.26c9.23-9.89,23.3-25.34,25.3-27.53H1188A12.19,12.19,0,0,0,1179.27,131.95Z"/><path class="cls-2" d="M1244.19,89.67a6.34,6.34,0,0,0-5.32,2.88l-7.44,11.38h-10.64a14.68,14.68,0,0,0-14.66,14.66v42.49a14.68,14.68,0,0,0,14.66,14.66h52.53A14.68,14.68,0,0,0,1288,161.08V118.59a14.68,14.68,0,0,0-14.66-14.66h-26.69l2.89-4.42a6.36,6.36,0,0,0-5.32-9.84ZM1274,157.35a7.57,7.57,0,0,1-7.56,7.57h-38.8a7.57,7.57,0,0,1-7.56-7.57V145.07H1274Zm-7.56-42.6a7.57,7.57,0,0,1,7.56,7.56v12.28h-53.93V122.31a7.57,7.57,0,0,1,7.56-7.56Z"/><path class="cls-2" d="M1263.73,185.89a6.46,6.46,0,0,0-11,4.56l0,59a7.26,7.26,0,0,0,7.25,7.25h30.81l3.77-10.48h-25a3.86,3.86,0,0,1-3.86-3.86l0-51.91A6.42,6.42,0,0,0,1263.73,185.89Z"/><path class="cls-1" d="M635.4,145.3A10.66,10.66,0,1,0,646.06,156,10.67,10.67,0,0,0,635.4,145.3Z"/><path class="cls-2" d="M606.21,141.73a10.35,10.35,0,0,0-10.34,10.34v17.32a14.28,14.28,0,0,0,14.27,14.27h45.3a10.36,10.36,0,0,0,10.34-10.19H618.07a7.37,7.37,0,0,1-7.37-7.37V141.73Z"/><path class="cls-2" d="M580.8,145.85a6.17,6.17,0,0,0-5.19,2.81l-14.22,21.8a6.19,6.19,0,0,0,5.19,9.57,6.17,6.17,0,0,0,5.19-2.81L586,155.43a6.19,6.19,0,0,0-5.19-9.58Z"/><path class="cls-2" d="M691.07,170l-14.22-21.8a6.19,6.19,0,0,0-10.63.43,6.11,6.11,0,0,0,.26,6.33l14.22,21.8A6.19,6.19,0,0,0,691.07,170Z"/><path class="cls-2" d="M700.11,151.65h.08a7.32,7.32,0,0,0,7.34-7.34v-6.15a14.28,14.28,0,0,0-14.26-14.26H678.78l.17-.24,7.6-10.82a6,6,0,0,0-4.85-9.5,6,6,0,0,0-4.86,2.48L664,123.89H637.46l0-.09-10.35-20.6,73.36-2.78a5.09,5.09,0,0,0-.19-10.18H700l-145.21,5.5a5.09,5.09,0,0,0,.19,10.18h.2l13.28-.5,0,.09,9.23,18.38H561.94a14.28,14.28,0,0,0-14.26,14.26v6.07a7.42,7.42,0,1,0,14.85,0v-2.78a7.37,7.37,0,0,1,7.37-7.37H685.32a7.37,7.37,0,0,1,7.37,7.37v2.78A7.43,7.43,0,0,0,700.11,151.65ZM592.58,123.89l0-.09L583,104.87l29.51-1.12,0,.09,10.08,20Z"/><path class="cls-2" d="M570.09,256.71h10.58a51.82,51.82,0,0,0,24.54-6.2c.17-.09,18.63-9.12,27.78-13.58l.07,0,.07,0c8.83,4.47,20.15,10.19,23.95,12,11.19,5.5,20.58,7.73,31,7.73q.95,0,1.87,0l8.59-.12a1.28,1.28,0,0,0,.54-2.45l-52-24.29.28-.15c17.41-9.27,33.64-19.24,35.5-20.67l-.05-.11a8.46,8.46,0,0,0-3.74-16H587.26l.07-.2c2.31-7.16,4.09-12.95,4.49-14.32h-7.74a10.1,10.1,0,0,0-9.72,7.1l-1,3.3c-5.3,17.11-9.13,29.48-21,50.39a2.33,2.33,0,0,0,0,2.34,2.18,2.18,0,0,0,1.92,1.1c7.34,0,14.14-4.26,18.66-11.69,2.31-3.79,6-13.12,10.92-27.72l0-.11h82.83a.71.71,0,0,1,.31,1.35c-.19.11-20.28,11.31-34.32,18.79l-.07,0-.07,0-12.37-5.69a25.73,25.73,0,0,0-10.8-2.36H594.22a1,1,0,0,0-.46,1.84l25.37,12.87.28.14-.28.14c-16.83,8.35-49.3,24-49.61,24.15a1.29,1.29,0,0,0,.57,2.44Z"/></svg>