<svg xmlns="http://www.w3.org/2000/svg" xmlns:xlink="http://www.w3.org/1999/xlink" viewBox="0 0 854.06 296.09"><defs><style>.cls-1{fill:none;}.cls-2{isolation:isolate;}.cls-3{mix-blend-mode:multiply;}.cls-4{clip-path:url(#clip-path);}.cls-5{fill:#004186;}.cls-6{clip-path:url(#clip-path-2);}.cls-7{clip-path:url(#clip-path-3);}.cls-8{clip-path:url(#clip-path-4);}.cls-9{clip-path:url(#clip-path-5);}.cls-10{clip-path:url(#clip-path-6);}.cls-11{clip-path:url(#clip-path-7);}</style><clipPath id="clip-path"><rect class="cls-1" x="53.67" y="154.05" width="98.52" height="5.86"/></clipPath><clipPath id="clip-path-2"><rect class="cls-1" x="181.37" y="99.84" width="100.7" height="117.74"/></clipPath><clipPath id="clip-path-3"><rect class="cls-1" x="304.55" y="95.16" width="96.78" height="120.4"/></clipPath><clipPath id="clip-path-4"><rect class="cls-1" x="472.65" y="96.05" width="96.78" height="120.4"/></clipPath><clipPath id="clip-path-5"><rect class="cls-1" x="591.09" y="103.47" width="99.83" height="109.75"/></clipPath><clipPath id="clip-path-6"><rect class="cls-1" x="717.74" y="102.68" width="83.27" height="114.54"/></clipPath><clipPath id="clip-path-7"><rect class="cls-1" x="728.41" y="148.48" width="60.89" height="55.16"/></clipPath></defs><title>logo_2014</title><g class="cls-2"><g id="圖層_1" data-name="圖層 1"><g class="cls-3"><g class="cls-4"><path class="cls-5" d="M53.67,154q3.48.54,51.87.53,41.41,0,46.65-.53v5.86a16.62,16.62,0,0,0-5.23-.53l-93.29.53Z"/></g></g><g class="cls-3"><g class="cls-6"><path class="cls-5" d="M279,214.91l-36.62.54q-20.92-.54-30.08-6.93-5.23-3.73-15.69-18.11-3.92,12.79-9.59,27.17a15.54,15.54,0,0,0-5.67-2.67,5.38,5.38,0,0,0,1.31-1.06q10.47-13.33,12.21-48.48a25.53,25.53,0,0,0,6.54,1.07,13.82,13.82,0,0,0-2.18,6.92l-1.75,9.59a108.45,108.45,0,0,0,12.21,16.51V152.58q-23.11,0-24.85.53v-6.39q3,1.07,22.67,1.07V127.55q-17,.54-18.74,1.06v-6.39h1.31l17.44.53q-.44-16.51-.87-22.91h7a24.73,24.73,0,0,0-2.18,9.05v13.85q14.81,0,17.87-.53v6.39q-2.19-1.06-17.87-1.06v20.24q18.31-.53,20.92-1.07v6.39c-.59,0-.87-.17-.87-.53H214.06v19.18q14.39,0,17.44-.53v6.39q-2.62-1.06-17.44-1.06V203.2l.44.53q6.54,4.8,20.92,6.39,36.18-.54,46.64-2.66a14.16,14.16,0,0,0-2.18,4.79Zm-7.84-106.55v4.26q-1.31,13.32,0,34.63l-30.08-1.07v34.1q0,6.93,3.92,7.46,2.62,1.08,10.9,1.07a92,92,0,0,0,10-1.07q3.48-1.6,5.23-6.92a63.46,63.46,0,0,0,1.3-8.52,14.46,14.46,0,0,1,1.75,1.6l1.31.53a2.69,2.69,0,0,0,2.18,1.07,21.8,21.8,0,0,0-.87,2.66,55.89,55.89,0,0,0-2.18,6.93q-3.05,6.93-8.28,7.46-3.92,1.08-13.08,1.07-7.85-.52-10.9-1.07-5.23-2.66-5.23-9.59-.44-32-.43-38.89c-.29-2.13-.44-3-.44-2.66l30.51.53v-27.7q-29.21,0-33.13.53v-6.39l1.74.53H270.3a1.18,1.18,0,0,1,.87-.53"/></g></g><g class="cls-3"><g class="cls-7"><path class="cls-5" d="M307.6,215.57a46.9,46.9,0,0,0-3.05-6.93q20.92,4.26,43.59-8.52a94.25,94.25,0,0,1-13.95-15.45,8.83,8.83,0,0,0,3.92-2.13,67.84,67.84,0,0,0,15.26,14.91,151.53,151.53,0,0,0,18.31-18.11H331.57Q322,192.66,313.7,199a55.59,55.59,0,0,0-6.1-3.73H308q20-11.19,25.72-30.9l6.54,5.33a8.46,8.46,0,0,0-5.67,4.79q38.36,0,42.29-.53c.29,0,2.18-.18,5.67-.53q-9.15,13.32-24.85,26.1,24,10.11,43.59,8.52-3.06,4.26-3.49,7.46a6,6,0,0,0-1.74-.53q-27.47-4.8-43.16-11.72-6.11,3.2-10.46,5.33Q324.59,215,310.22,215Zm3.49-78.31q.43,9.59.43,16h-5.23q.43-7.45,0-21.84c.29,0,.44.18.44.53q5.23.54,63.21.53,7.85-16.5,9.15-22.9l7,5.86a18.47,18.47,0,0,0-5.67,4.79c.28,0,0,.53-.88,1.6a6.4,6.4,0,0,1-.87,1.6l-4.79,9.05q16.56,0,19.18-.53l3.49-.53q-.44,16,0,21.31H391.3q.42-1.06.44-15.45Zm79.34-33a42,42,0,0,0-6.1-.53l-3.05.53q-29.65,5.33-68.88,5.33a57.38,57.38,0,0,0-2.18-6.4,74.73,74.73,0,0,0,16.56,1.6q48.39-2.66,60.16-9.59Zm-61.9,47.41q-3.5.53-6.1,5.33-5.24,9.06-7,12.25l-5.23-1.6a46.39,46.39,0,0,0,11.33-21.31Zm-2.18-22.38a63.51,63.51,0,0,0-7-13.32,5,5,0,0,0,1.31-1.07,5.49,5.49,0,0,1,2.18-1.6q4.35,4.8,7,13.32a10.22,10.22,0,0,0-3.49,2.66m13.08,14.92q-1.75,3.73-1.74,11.72c.29,2.49,1,3.91,2.18,4.26q6.54,1.07,24,.53c2.9-.71,4.51-1.77,4.79-3.19a49.23,49.23,0,0,0,.44-7.46q1.31,1.6,5.23,3.2a86.6,86.6,0,0,0-1.75,8.52c-1.16,2.13-3.64,3.38-7.41,3.73q-18.31,0-26.16-.53a6.52,6.52,0,0,1-3.92-2.13q-1.75-2.66-1.74-15.45c0-1.77-.15-2.84-.44-3.2Zm9.16-33.56q3,6.93,7,15.45l-4.36,2.66a78,78,0,0,0-6.11-15.45Zm1.3,29.3A80.73,80.73,0,0,1,360.34,150l-3,3.73a46.77,46.77,0,0,0-10-10.12,33.07,33.07,0,0,0,2.61-3.73m27,7.46a19.1,19.1,0,0,0,3.49-3.2q9.16,13.32,11.77,20.24a11.77,11.77,0,0,0-3.93,3.19q-4.81-13.31-11.34-20.24"/></g></g><g class="cls-3"><g class="cls-8"><path class="cls-5" d="M475.7,216.46a46.64,46.64,0,0,0-3.05-6.93q20.92,4.25,43.59-8.53a94.26,94.26,0,0,1-14-15.45,8.79,8.79,0,0,0,3.93-2.13,67.86,67.86,0,0,0,15.26,14.92,151.23,151.23,0,0,0,18.31-18.11H499.67q-9.59,13.32-17.88,19.71a54.88,54.88,0,0,0-6.1-3.73h.44q20-11.19,25.72-30.9l6.54,5.33a8.46,8.46,0,0,0-5.67,4.79q38.36,0,42.29-.53c.29,0,2.18-.17,5.67-.53q-9.15,13.32-24.85,26.11,24,10.11,43.59,8.52-3.06,4.26-3.49,7.46a5.83,5.83,0,0,0-1.74-.54Q536.73,211.13,521,204.2q-6.11,3.2-10.46,5.33-17.89,6.39-32.26,6.39Zm3.49-78.32q.43,9.59.43,16h-5.23q.43-7.46,0-21.84c.29,0,.44.18.44.53q5.23.54,63.21.53,7.85-16.5,9.15-22.91l7,5.86a18.48,18.48,0,0,0-5.67,4.79c.29,0,0,.53-.88,1.6a6.38,6.38,0,0,1-.87,1.6L542,133.34q16.56,0,19.18-.53l3.49-.53q-.44,16,0,21.31H559.4q.42-1.06.44-15.45Zm79.34-33a42,42,0,0,0-6.1-.53l-3.05.53q-29.65,5.33-68.88,5.33a57,57,0,0,0-2.18-6.39,75,75,0,0,0,16.56,1.6Q543.27,103,555,96.05Zm-61.9,47.42q-3.5.54-6.1,5.33-5.24,9.06-7,12.25l-5.23-1.6a46.38,46.38,0,0,0,11.33-21.31Zm-2.18-22.37a63.66,63.66,0,0,0-7-13.32,5.07,5.07,0,0,0,1.31-1.06,5.41,5.41,0,0,1,2.18-1.6q4.35,4.8,7,13.32a10.28,10.28,0,0,0-3.49,2.66m13.08,14.92q-1.74,3.73-1.74,11.72c.29,2.49,1,3.92,2.18,4.26q6.54,1.07,24,.53c2.9-.71,4.5-1.77,4.79-3.2a48.93,48.93,0,0,0,.44-7.46q1.31,1.6,5.23,3.2a86.29,86.29,0,0,0-1.75,8.52c-1.16,2.13-3.64,3.38-7.41,3.73q-18.31,0-26.16-.53a6.54,6.54,0,0,1-3.92-2.13q-1.75-2.66-1.74-15.45c0-1.77-.15-2.84-.44-3.2Zm9.16-33.56q3,6.93,7,15.45l-4.35,2.66a77.94,77.94,0,0,0-6.11-15.45Zm1.3,29.3a80.38,80.38,0,0,1,10.46,10.12l-3,3.73a46.72,46.72,0,0,0-10-10.12,33.16,33.16,0,0,0,2.62-3.73m27,7.46a19,19,0,0,0,3.49-3.2q9.16,13.32,11.77,20.25a11.72,11.72,0,0,0-3.92,3.2q-4.8-13.31-11.34-20.24"/></g></g><g class="cls-3"><g class="cls-9"><path class="cls-5" d="M638.6,133.3q-21.81,32-41.41,46.88a15,15,0,0,0-6.11-4.26,44.52,44.52,0,0,0,14-9.06,201.38,201.38,0,0,0,41-58.07q-48.38.53-52.75,1.06v-6.39l4.36.54q87.18,0,91.55-.54v6.39q-5.67-1.06-37.49-1.06l-8.71,16v78.31c.28,2.48.58,5.86.87,10.12h-5.66q.43-5.34.44-10.12Zm52.31,40a3.39,3.39,0,0,0-1.31,2.13l-2.18,3.73a27,27,0,0,0-4.36-6.39q-18.31-23.43-30.52-30.37A20.81,20.81,0,0,0,655.6,137q24.41,23.45,35.31,36.23"/></g></g><g class="cls-3"><g class="cls-10"><path class="cls-5" d="M722.54,103.21q73.23-.52,78.47-.53l-.44,97.49q-.44,8.52-3,11.72-3.92,3.2-17.44,4.8a24.84,24.84,0,0,0-2.18-8q8.27,2.12,13.95,0,4.36-1.6,4.36-8.52V108H722.1v50.08q.43,55.42.87,59.13h-5.23v-2.13l.44-55.4q-.43-42.61-.44-57a14.68,14.68,0,0,1,4.8.53M733,128.78q2.61.54,47.52.53l4.79-.53v6.39a4.18,4.18,0,0,0-2.18-.53q-48.39,0-50.13.53Z"/></g></g><g class="cls-3"><g class="cls-11"><path class="cls-5" d="M759,203.64l-1-.58c-25.71-14.86-29.56-28.9-29.56-35.94,0-11.52,8.42-18.64,16.22-18.64,3.11,0,9.84,0,14.22,6.69,4.39-6.69,11.11-6.69,14.23-6.69,7.8,0,16.21,7.13,16.21,18.64,0,7.08-3.81,21.19-29.34,35.94Zm-14.33-51.17c-5.89,0-12.23,5.61-12.23,14.66C732.39,172,735,184.88,759,199c16.76-9.91,26.35-21.5,26.35-31.91,0-9.05-6.35-14.66-12.23-14.66-3.48,0-9.31,0-12.37,7.8L758.85,165,757,160.27c-3.06-7.8-8.89-7.8-12.37-7.8"/></g></g></g></g></svg>