<svg id="圖層_2" data-name="圖層 2" xmlns="http://www.w3.org/2000/svg" viewBox="0 0 1919.99 875.88"><defs><style>.cls-1{fill:#ffd629;}.cls-1,.cls-10,.cls-11,.cls-12,.cls-13,.cls-14,.cls-4,.cls-5,.cls-6,.cls-7,.cls-8,.cls-9{fill-rule:evenodd;}.cls-2{fill:#5f1c00;}.cls-15,.cls-16,.cls-3{fill:none;stroke-miterlimit:10;}.cls-3{stroke:#fff;stroke-width:11px;}.cls-4{fill:#1c1715;}.cls-5{fill:#fdfcf8;}.cls-6{fill:#de5b4c;}.cls-7{fill:#f1c524;}.cls-8{fill:#fcf9f4;}.cls-9{fill:#f0c524;}.cls-10{fill:#fcfbf8;}.cls-11{fill:#2391b2;}.cls-12{fill:#2b7f95;}.cls-13{fill:#8c8781;}.cls-14{fill:#fff;}.cls-15,.cls-16{stroke:#5f1c00;}.cls-15{stroke-width:3px;}</style></defs><title>mockup</title><polygon class="cls-1" points="1920 905.42 0 958.63 0 0 1919.65 -86.39 1920 905.42"/><path class="cls-2" d="M987.32,250.42a52,52,0,0,1-5.06,7.7v21.37h-3.8V262.43a34.49,34.49,0,0,1-6.33,4.41l-3.44-2.58a37.53,37.53,0,0,0,15.75-16.11Zm-17.93-6v-3.7l10,0v-6.63h3.85v6.58l6.84,0-.05,3.65-6.79-.05v5.52l-3.85-.05v-5.47Zm43.6,22.08c-1.92,10.08-2.13,11.6-6,11.6H994.66c-2.63,0-3.9-2.08-3.9-4.51v-23.8h3.85V260.5a27.48,27.48,0,0,0,12.86-7l2.84,2.68a37,37,0,0,1-15.7,8.05v8.81c0,1,.56,1.37,1.27,1.37h10.58c1.37,0,1.62-1.92,2.79-9.37Zm-14.38-32.36h3.9l-.05,6.63,10,0,.05,3.7-10-.05-.05,6.28-3.8,0-.05-6.18h-6.84v-3.7h6.84Z"/><path class="cls-2" d="M1036.9,247.59a28,28,0,0,1-3,2.94l-2.89-2.63a14.19,14.19,0,0,0,1.82-1.37h-5.72V253h8a208.54,208.54,0,0,1-1,21.67c-.25,2.53-1.57,4.05-4,3.9a41.51,41.51,0,0,1-4.3-.46l-.71-3.54c1.47.2,2.63.41,4,.56,1,.1,1.37-.1,1.47-1.17a159.86,159.86,0,0,0,.86-17.32h-4.25c-.25,8.36-1,14.94-6,23.25l-3.29-2c5-7.09,5.57-14,5.57-24.36v-6.94h-3.9v-3.65h8a16.52,16.52,0,0,0-6.23-6.73l3.14-2.23a19.14,19.14,0,0,1,6.69,7.44l-2.23,1.52h6.79c2-2.33,2.84-5.72,3.39-9.22l3.7,1a17.39,17.39,0,0,1-.71,3.19h20.61v3.65H1040.8a28.64,28.64,0,0,1-3,5h2.84v-3.75h3.75v3.75h9.83v-3.8l3.85,0-.05,3.85h4.51l0,3.55h-4.41l-.05,15.65h5.12v3.49h-27.6v-3.49h5.06V250.07h-3.7Zm-2.58,28.66a23.81,23.81,0,0,0,10.53-6.43l2.84,2.68a33.26,33.26,0,0,1-11.14,7.14Zm19.9-23.45v-2.73h-9.83v2.73Zm-9.83,6.43h9.83V256.3h-9.83Zm9.83,3.54h-9.83v2.94h9.83Zm7.5,16.46a27.15,27.15,0,0,0-11.09-6.28l2.58-3a29.52,29.52,0,0,1,11.24,6.38Z"/><path class="cls-2" d="M1085.22,275.64c4.56-.51,8.61-2.73,9.42-6h-7.34l.05-9.47h3.85l-.05,5.93,4.15-.05c.2-2,.15-4.61.2-7.14h3.7c-.1,5,.51,10.13-1.92,14-2,3.24-6.84,5.93-10.13,6.28l-1.77-2.94-.1,3.09h-4l0-11.55-9.77,3-2.13-3.44,3.5-.86V240.09H1070V236.6l18.18-.1v3.6h-2.89Zm-8.51-35.5v5.27h4.76v-5.32Zm4.76,14.89v-6l-4.71.05-.05,6Zm-4.76,3.65.05,7c1.37-.25,3.19-.91,4.76-1.37v-5.67Zm8.76-13.22a37.18,37.18,0,0,0,7.9-11.4l3.44,1.72a31.16,31.16,0,0,1-6.18,9,31.85,31.85,0,0,0,3.9-.41,19.5,19.5,0,0,0,2.53-4.81l3.54,1.67a50.07,50.07,0,0,1-9.22,12.56c.76-.05,2.74-.35,4.2-.56-.3-.61-.71-1.27-1.22-2.28l3.14-1.06a26.11,26.11,0,0,1,3.34,7.8,20.76,20.76,0,0,1-3.54,1.16,13.88,13.88,0,0,0-.46-2.28,87,87,0,0,0-9.27,1.77,26,26,0,0,1-2-3.7,51.91,51.91,0,0,0,6.28-6.33c-1.37.2-2.68.56-4.76.91Zm26.13,13.42a12.45,12.45,0,0,0-.61-2.73c-2.89.3-5.93.86-9.27,1.42l-1.87-3.65a41.13,41.13,0,0,0,5.62-5.82,28.2,28.2,0,0,0-5,.91l-1.87-3.65a34,34,0,0,0,8-11.24l3.29,1.57a30.41,30.41,0,0,1-6.53,9.17l4.86-.56c.76-1.32,1.52-2.84,2.38-4.61l3.44,1.72c-2.53,4.66-5.82,9.47-8.81,11.85a36.85,36.85,0,0,0,4.3-.46,17.53,17.53,0,0,0-1.27-2.33l3.34-1.11c1.42,2.73,2.89,5.27,3.54,8.46Zm-10.89,20.36V258.88h3.85V266l4.36-.05v-5.82h3.85v9.47h-8.2v9.62Z"/><path class="cls-2" d="M1146.3,234.82l-1.57,1.57c5.93,7.5,16.56,14.84,21.12,16.26a41.9,41.9,0,0,1-2.53,3.39c-1.87-.76-3.54-1.42-10.28-6.33-3.39-2.53-7.55-7.55-10.28-10.79-4.71,5.62-9.67,10.33-20.56,17.72l-2.74-3c11.29-7.29,20.05-16.51,23.09-21.32Zm7.14,44.42-.05-3.14H1132v3.39h-4.05V260.65h29.63v18.59Zm1.82-24h-25.42v-3.9h25.37Zm-23.25,17h21.37l.05-7.8H1132Z"/><path class="cls-2" d="M1193.81,277.72c.35-.35.71-.76,1.06-1.17h-14.58v3.34h-4V264.1a26.26,26.26,0,0,1-2.63,2.18l-3-2.58c3.75-2.74,6.53-6.08,7.45-9.52h-3.8V244.4h10.94v8.81l1.17-.66V244.4h11l.05,9.62h-9.77a11.69,11.69,0,0,1,1.72,2.68h9.07v3.75h-8.61l.05,1.27h7v3.7h-7.09V267H1197v3.7h-7.09l.05,2.23h7.39c3.9-6.33,5-13.22,5.37-23.75h-4l0-3.7h4c.2-3.65.2-7.14.15-11.34h3.85c.05,4.3-.05,7.9-.1,11.34h7.65c-.1,10.48-.51,20.51-1.42,28.92-.3,2.84-2.08,3.9-4.71,4a31.11,31.11,0,0,1-4.81-.3c-.25-1.42-.46-2.48-.76-3.85,1.77.2,3.44.35,4.76.46s1.72-.2,1.82-1.32c.86-8.31,1.22-16.31,1.27-24.21h-4c-.46,10.84-1.47,20.41-9.27,30.79ZM1181,237.91v-3.49h3.8v9.37H1181v-2.23h-9v-3.65Zm-2.84,12.61h3.29v-2.43h-3.29Zm2.08,9.93v1.27h5.77v-1.27Zm0,5V267h5.77v-1.57Zm0,5.27v2.23h5.77v-2.23Zm1.67-16.51a14.63,14.63,0,0,1-.86,2.53h4.46a11,11,0,0,0-2.33-2.23l.46-.3Zm8.56-19.8v3.39h8.86v3.75h-8.86v2.28h-3.85v-9.42Zm-.25,16h3.39V248h-3.39Z"/><path class="cls-2" d="M1231.49,267.69a34.4,34.4,0,0,1-7.5,2.63l-2.33-3.54c4.41-1.06,8.31-2.28,10.48-3.7l-8.76-.1v-3.6h13.22c.56-.66,1.27-1.57,1.42-1.82h-7.9l0-13.93h3.19v-2.23h-10.48v-3.6h10.48v-4.1h3.8v4.1h6.69v3.6h-6.69v2.18l14.59,0v-2.23l-6.74-.05V238l6.63-.05v-4.2l3.9.05v4.15l10.53-.05-.05,3.55h-10.48v2.28h3.19v13.88l-16.51.05a12.38,12.38,0,0,1-.91,1.72h24.21V263h-8.81c2.28,1.82,6.18,3.34,11,3.9a28.28,28.28,0,0,1-2.48,3.54,43,43,0,0,1-7.09-2.33c-.35,2.38-.35,5.57-1.62,8.26-2.28,3.65-7.09,1.67-10.43,1.57l-1.16-4c2.94.51,5.17,1.06,7.55,1,1-.15.81-1.42,1.16-2.43l.35-2.28h-9.77a13,13,0,0,1-6.23,6c-4,1.77-8.46,2.48-13.22,3l-2-3.6c5.57-.61,10.58-1.06,14.79-3.44a14.65,14.65,0,0,0,2.23-1.87h-8.25Zm7-4.71a16.79,16.79,0,0,1-4.86,3.49l7.9.1a26.38,26.38,0,0,0,.51-3.6Zm16.41-15.85H1234v1.57h20.92Zm0,4.91H1234l-.05,2.08,20.87.05Zm-9.12,11.8a9.72,9.72,0,0,1-.41,2.74h10.23a19.16,19.16,0,0,1-4.25-3.54L1243,263Z"/><path class="cls-2" d="M1301.69,262.68a25.11,25.11,0,0,0,1.72-5.06l4.61,1a24.76,24.76,0,0,1-3.24,7.85,29.43,29.43,0,0,0,5.67,5.57l-3,3.54a31,31,0,0,1-5.57-5.12,13.27,13.27,0,0,1-10.38,4.86c-7.75,0-11.5-5.93-11.5-10.58,0-4.05,2.23-7.75,8.61-10.84-3.14-3.65-4.05-5.72-4.05-8,0-4.25,3.7-8.1,9-8.1,5.06,0,8.41,3.6,8.41,7.75,0,3.34-2,6.28-6.84,8.81ZM1291,256.75c-3.14,1.92-6.13,4.2-6.13,7.65,0,2.38,2,6.94,6.74,6.94,2.94,0,6-2.08,7.55-4.46Zm1.92-5.22c2.23-1.32,4.56-2.73,4.56-5.87a4.15,4.15,0,0,0-8.31-.2c0,1,.3,2,1.77,3.75Z"/><path class="cls-2" d="M1363.18,279.29c-4.41-3.49-8.76-5.12-15-7.75a42.23,42.23,0,0,1-21.83,8.1l-2.48-3.6c7.85-.61,14.48-2.43,19.6-5.82a123,123,0,0,0-12.76-3.34,71.67,71.67,0,0,0,6.08-9.72l-11.34.05v-3.7h13.37l4.2-8,3.49,1.72-3.34,6.28h22.59v3.65l-8.15.05c-1.47,4.1-3.19,8.46-6.33,11.6a61.19,61.19,0,0,1,14.38,7.14Zm-2.23-29.73V244h-30.64v5.82h-3.8v-9.62h18.69c-1.37-1.52-4.05-2.84-7.44-4l3.09-2.58a17.18,17.18,0,0,1,8.46,5.37l-1.47,1.06,16.92.1,0,9.32Zm-23.8,14.89c3.19.81,6.79,1.82,10.13,2.94a21.58,21.58,0,0,0,6.23-10.18l-12.1-.05Z"/><path class="cls-2" d="M1375.44,254.42a23.48,23.48,0,0,0,9-7.85,11.35,11.35,0,0,0-.86-5.62l3.65-.56a14.11,14.11,0,0,1,.81,6.53l-2.74.4,2.08,1.72a16.89,16.89,0,0,1-4.56,4.3,37.12,37.12,0,0,0,4.71-.25,33.81,33.81,0,0,0,3.85-4.36l3,2.48a40.73,40.73,0,0,1-11.19,9.32l6.28-.41-1.32-1,3-2.38a18.6,18.6,0,0,1,6,6.23l-2.94,2.38a11.19,11.19,0,0,0-1.62-2l-5.37.35a17.79,17.79,0,0,1-.15,2.13h9.67v3.65h-10.38a13,13,0,0,1-1.72,3.29,18.46,18.46,0,0,1-9.27,6.74l-2.79-2.84c4.36-1.37,8.21-4,9.72-7.19h-8.66v-3.65h9.67a4.47,4.47,0,0,0,.25-1.67,61.74,61.74,0,0,0-6.53.76l-1.87-3.29c3.19-1.67,6.08-3.39,7.75-4.51a26.81,26.81,0,0,0-5.67.71Zm22.69-17.78c-7.39,3.29-15.19,4.36-23.55,4.56l-1.82-3.65a75.5,75.5,0,0,0,11.14-.71l.35-.05a42.4,42.4,0,0,0,11.55-3.09Zm-19.7,4.66a15.13,15.13,0,0,1,3.75,6.89l-3.34,1.72a11.66,11.66,0,0,0-3.65-6.89Zm8.86,29c3.75,1.06,6.79,3.24,9.82,6.18l-2.53,2.63a20.32,20.32,0,0,0-9.67-6Zm9.37-29.88a20.79,20.79,0,0,1-4.15,7.8l-3.29-1.82a16,16,0,0,0,4.36-7.7Zm21.12,5.92h-7v6.18h6.18v3.7h-6.18v6.28h6.18v3.75h-6.23v6.58h8.41v3.7h-17v3H1398l.05-26a32.59,32.59,0,0,1-3.24,3.85l-3-2.33a33.71,33.71,0,0,0,8.51-16.66,34.26,34.26,0,0,0,.66-4.86l3.6,1.42a32.27,32.27,0,0,1-1.42,7.65h6.18a11.05,11.05,0,0,0-4.2-6.23l3.44-2a16.76,16.76,0,0,1,4.41,6.84l-2.28,1.32,7.09.1Zm-15.7,0v6.18h4.76v-6.18Zm0,16.21h4.71v-6.28h-4.71Zm0,3.65v6.58h4.71v-6.58Z"/><path class="cls-2" d="M1424.36,273.11a42,42,0,0,0,16.05-7.09l-14-.05v-3.7h18.84c.05-.61,0-1.52,0-3h3.85l.05,3h18.59v3.7h-13.78c4.2,3.6,11.14,6,16,7.14L1468,276.4c-7.65-1.47-15.29-6.13-18.89-9.93l-.05,12.81-3.85.05v-13c-4.66,5-11.39,8.3-18.84,10.18Zm13.17-12.41a6.71,6.71,0,0,0-.51-2.38c-2.73.46-6,.76-9.27,1.47a19.47,19.47,0,0,0-2-3.14,33.8,33.8,0,0,0,6.43-7.44,48.68,48.68,0,0,0-4.86.71l-2.08-3.24c4.2-3,6.28-7.5,8.46-12l3.24,1.67c-1.72,3.7-3.54,7.24-5.72,9.42.51,0,1.92-.3,3.24-.4.51-.86,1.27-2.28,1.72-3.19l3.24,1.62c-2.33,4.66-4.66,9-7.65,11.65a34.9,34.9,0,0,0,4.15-.51c-.15-.25-.61-.81-1.32-1.93l3.19-1a11.91,11.91,0,0,1,2.58,5.37l.1-19h4.71a17.88,17.88,0,0,0,2.53-5.22l3.44,1.16c-.71,1.42-1.72,3.6-2,4h5v20.11l-13.42.05c.05.2.3,1.32.3,1.32Zm6.53-18.64v4.25h6.48v-4.2Zm6.48,12.81-.05-4.91h-6.43v5Zm14.79,6.23a7.14,7.14,0,0,0-.41-2.58c-2.68.4-4.86.66-8.46,1.32l-1.92-3.09a32,32,0,0,0,5.82-6.94c-1,.05-2.58.46-4.61.81l-1.42-3.44c3.49-3.39,5.37-7.55,7.44-12.36l3,1.82c-1.47,3.85-3.29,7.45-5.32,9.57a16.65,16.65,0,0,0,3.19-.2c.76-1.27,1.47-2.73,2.28-4.46l3.39,1.62c-2.28,4.76-4.81,9.37-7.8,12.26a21.24,21.24,0,0,0,3.24-.41,19.11,19.11,0,0,0-1-2l2.89-1a21.42,21.42,0,0,1,3.14,8.05Z"/><path class="cls-2" d="M1495.62,267.54a39,39,0,0,1-18.94,9.93l-2.08-3.29c7.19-1.47,12-3.7,15.8-6.94h-13.62v-3.7h18.84v-2.48h-15v-3.49h15v-2.28h-17.37v-3.6h11.09a20.92,20.92,0,0,0-4.36-3.09l1.92-1.37h-10.69v-3.6h15.14v-9.47h3.9v9.47h4.66v-9.52h3.9v9.52h15.24v3.5h-12l1.72.91a24.85,24.85,0,0,1-3.29,3.65h11.09v3.6h-17v2.28h14.48v3.49h-14.48v2.48h19.25v3.7h-14.79c4,3.34,9.32,5.27,16.76,6.74l-2.08,3.39c-7.39-1.47-13-3.7-19.14-9.83v12.05h-4Zm-13-32.46a22.16,22.16,0,0,1,6.38,6l-2.94,2.13a25.83,25.83,0,0,0-6.23-5.93Zm7.14,12.05a23.77,23.77,0,0,1,4.46,4.56h6.38a19.35,19.35,0,0,0,4-4.56ZM1515.32,237a28.19,28.19,0,0,1-6.28,6.23l-3-2.33a20.84,20.84,0,0,0,6.23-6Z"/><path class="cls-2" d="M1544.6,263.94a21.6,21.6,0,0,0-5-8.41v24.16h-3.75V258.48c-1.22,2.79-4.25,7.09-8.1,11l-2.89-2.53c5.67-5.93,9.47-12.26,10.84-19h-8.41v-3.7h8.51v-9.83h3.85l-.05,9.83h6.23v3.65h-6.18v4.81l1.06-1.06a31.51,31.51,0,0,1,7.24,10Zm2.28-16.05v-3.7l13.52.05-.05-10.13h3.85v10.08h6.58l-.05,3.7h-6.48l-.05,25.22c0,3.54-1.27,6.43-5.62,6.43h-5l-1.32-4.25c2.89.1,3.8.41,6.08.2,1.47-.1,2.08-.61,2.08-1.92l-.05-25.63Zm7.34,19.35c-1.32-5.06-3.19-9.47-7-13.32l3.24-2c4,3.85,5.88,8.56,7.24,13.52Z"/><path class="cls-2" d="M960.57,381.45c1.11-.62,2-1,2.64-1.43V364.58l2.18,0v14.2c1.89-1,4-2.29,6.49-3.72v2.37c-2.26,1.29-4.45,2.53-6.58,3.83-.86.51-1.75,1.11-2.78,1.7Zm6.2,3.34a20.13,20.13,0,0,0,8.25-7.54,18.6,18.6,0,0,0,1.89-6.76c.13-1.89.19-4.12.24-6.79h2.21c-.22,5.25.11,9.78-2.18,14.23a22.26,22.26,0,0,1,6.36,6.66L981.78,386a19.84,19.84,0,0,0-5.69-6.28,26.37,26.37,0,0,1-8,7Zm5.82-12.26a13.57,13.57,0,0,0-5.69-4.26l1.43-1.48a14.5,14.5,0,0,1,3,1.59,21.43,21.43,0,0,1,2.69,2.37Z"/><path class="cls-2" d="M988.23,382a16.91,16.91,0,0,0,6.55-5.31,1.91,1.91,0,0,1-1.05-1,21.05,21.05,0,0,1-.11-3.48h2l0,2.07a.57.57,0,0,0,.62.65l5.23,0c.59,0,.75-.75.92-1.89l1.94.67c-.48,1.89-1.35,3.15-2.56,3.15h-6.2l1.08.32c-.3.54-.43.73-.35.65h9.27v1.7a12.87,12.87,0,0,1-3.8,3.48,42.62,42.62,0,0,0,8.76,2.1l-1.1,1.86a38.65,38.65,0,0,1-9.81-2.8,40.86,40.86,0,0,1-11.53,2.88L987,385.27c4.58-.62,7.3-1,10.59-2.26a13.83,13.83,0,0,1-3.21-2.91,17.51,17.51,0,0,1-4.47,3.21Zm19-11h-9a7.94,7.94,0,0,1,2.86,2.4l-1.59,1.32a5.56,5.56,0,0,0-3.72-2.61L997.2,371l-7.09-.05v2.8l-2,0,0-4.77h4.55a6.17,6.17,0,0,0-2-1.78l1.48-.57c-.92,0-2,0-2.94,0l-1.16-2a64.29,64.29,0,0,0,19.35-1.83l1.37,1.62c-.94.32-2.13.62-3.29.89l1.67.86a12,12,0,0,1-1.78,2.86h3.93v4.63l-1.62,0a17,17,0,0,1,1.48,2l-1.59,1.1a8.9,8.9,0,0,0-3.72-3.75l1.67-1.16a7.93,7.93,0,0,1,1.72,1.27Zm-18.78,4.55a5.57,5.57,0,0,0,3.07-3.29l1.7.94a7.5,7.5,0,0,1-3.13,3.8Zm9.43-9.05c-1.64.13-2.86.13-4.77.16a9.23,9.23,0,0,1,1.78,2.4h3.61a6.82,6.82,0,0,0-1.94-2.26Zm-1.21,13.29a14.84,14.84,0,0,0,3.13,2.32,12.58,12.58,0,0,0,3.15-2.32Zm6.17-10.73a11.74,11.74,0,0,0,2.34-3.64c-1.89.35-4.07.67-6.14.86a12,12,0,0,1,1.46,2.75Z"/><path class="cls-2" d="M1014.86,369.4a11.94,11.94,0,0,1,4.39,3.42l-1.43,1.46a10.57,10.57,0,0,0-4.42-3.42Zm12.72,3.67.7-.32c.81,1.1,1.21,1.48,1.7,2.18l6.66,0v1.89h-6.22v1.05l5.25,0v1.72h-5.28v1.21l5.31,0v1.75l-5.31,0v1.1l7.38,0v1.91h-13.69v1.59h-2v-8.95c-.35.32-1.05.89-1.94,1.59l-1.24-1.27a21,21,0,0,1-3.53,7.84l-1.78-1a19.14,19.14,0,0,0,3.83-9.59l1.81.73a16.07,16.07,0,0,1-.24,1.64,9.86,9.86,0,0,0,4.18-4.77h-2.67v-5l7.11,0Zm-9.11-4.42a8.23,8.23,0,0,0-4.1-3l1.37-1.43a9.74,9.74,0,0,1,4.2,3Zm1.29-3.85,6,0V363h1.86v4.88l-1.86,0V366.6h-6Zm2.59,5.34v1.46l3.31,0v-1.43Zm6,6.66h-4.28v1.05h4.28Zm0,4v-1.24h-4.28l0,1.21Zm-4.26,2.83,4.26,0v-1.11h-4.28Zm1-10.24a9,9,0,0,1-.57,1.48h3.37a5.54,5.54,0,0,0-1.54-1.16l.67-.3Zm5.61-6.84,0,1.29-1.89,0V363h1.89l0,1.86,6.36,0,0,1.81Zm5.28,1.78v5h-7.17v-5Zm-1.91,1.78-3.34,0v1.43l3.34,0Z"/><path class="cls-2" d="M1045.53,374.09a11.17,11.17,0,0,0-5-3.58l1.37-1.67a12.52,12.52,0,0,1,5,3.88Zm-5,11.35a20.8,20.8,0,0,0,5.28-9.76l2,.92c-.65,2.62-2.18,7-5.23,9.94Zm6.39-16.9a11,11,0,0,0-4.77-3.53l1.43-1.7a16.89,16.89,0,0,1,4.8,3.72Zm.3,16.92,0-2h7.28l0-5.87H1049v-2l5.5,0,0-5.12h-6.63v-2h15.47v2h-6.82v5.09h5.74v2h-5.74v5.87h7.65v2Zm7.84-17.09a11.45,11.45,0,0,0-4.23-4.2l1.48-1.37a11.43,11.43,0,0,1,4.42,4.29Z"/><path class="cls-2" d="M1073.58,378.08a38.22,38.22,0,0,1-4.74,2.43l-1.24-1.67c3.4-1.43,6.44-3.07,8.54-5.33l-7.52,0,0-1.94h9.24a24.25,24.25,0,0,0,1.8-2.75l1.7.84a19.11,19.11,0,0,1-1.05,1.91h10.94v1.94h-12.37a25,25,0,0,1-2.91,2.94h4l0-2.29,2,0,0,2.32h6.6l0,5.9a2.07,2.07,0,0,1-1.56,1.94,22.35,22.35,0,0,1-2.72.13l-.67-1.91c1.19,0,2.24.27,2.8-.19a.82.82,0,0,0,.22-.62l0-3.31-4.55,0,0,8.68-2,0,0-8.65h-4.45v6.28l-1.94,0Zm14.58-6.79a28.46,28.46,0,0,0-7.17-3.34,24.9,24.9,0,0,1-10,3.4l-1.19-1.94a25.51,25.51,0,0,0,8.54-2.18,32,32,0,0,0-7.09-1.05l1.29-1.86a42.66,42.66,0,0,1,8.25,1.51,21.18,21.18,0,0,0,4-3.29,20,20,0,0,1,1.72,1.19,43.53,43.53,0,0,1-3.31,2.83,27.1,27.1,0,0,1,6.39,3.18Z"/><path class="cls-2" d="M1105.87,366.81v1.94h-7.14v3.31a.71.71,0,0,0,.73.67h5.07v1.94l-5.79,0a2.06,2.06,0,0,1-2.1-2v-3.93l-1.72,0,0-2,5.66,0a8.69,8.69,0,0,0-3-3.07l1.75-.94a9.8,9.8,0,0,1,3.26,3.53l-.62.43Zm-.54,12c-2.07.08-5.74.16-8.41.05l-1.05-2.1c4.74.35,14.63.27,19.73-1.19l1.24,1.62a50.07,50.07,0,0,1-9.32,1.59v1.46h7.79l0,1.89-7.84,0v1.7l10.4,0v1.91H1095v-1.91h10.32v-1.75l-7.87,0v-1.91h7.84Zm3.21-6.28c0,1.05-1.4,2.94-2.94,4.07-.62-.4-1-.86-1.7-1.4a5.11,5.11,0,0,0,2.61-3.69,54.12,54.12,0,0,0,.13-7.3l9.94,0v9.27a2.16,2.16,0,0,1-1.7,2,24.78,24.78,0,0,1-3.21.08,19.75,19.75,0,0,0-.75-1.89l2.91.11a.59.59,0,0,0,.67-.67l0-.62Zm.22-3.12v1.21l5.74,0v-1.21Zm0-3.26v1.32h5.71v-1.35Z"/><path class="cls-2" d="M1121,380.21c2.26-1.91,3.75-5.79,4.28-8.49h-3.26V369.8h3.42v-3.53a18.44,18.44,0,0,1-2.83.4l-1.16-1.91c2.56-.05,5.28-.38,7.33-1.72l1.32,1.35c5-.05,9.11-.3,13.39-1.62.35.54.81,1,1.29,1.67a35.49,35.49,0,0,1-6.76,1.32v1.4h7v1.89h-7l0,1.05h5.12l0,9.16h-5.15v1.32h5.85l0,1.86-5.82,0V384h7.46v1.89H1128.7V384h7.3l0-1.51h-5.74l0-1.86H1136l0-1.32h-5.2v-1.21l-1.75.81a10.56,10.56,0,0,0-1.46-3.07l0,11.26h-2v-9.81a17.2,17.2,0,0,1-2.91,4.39Zm15-10.11V369l-6.66,0,0-1.86,6.6-.05a5,5,0,0,0,0-1.11c-1.48.13-3.29.19-5.17.24l-.94-1.51a16.56,16.56,0,0,1-2.37,1l0,4,2.8,0v1.89h-2.83v1.75l.54-.22a12.58,12.58,0,0,1,2.67,4.47l.05-7.63Zm-3.18,3.67H1136V372h-3.18Zm3.15,1.83h-3.15v1.8l3.18,0Zm5.15,0h-3v1.78h3Zm-3-3.61v1.78h3V372Z"/><path class="cls-2" d="M1158.62,384.92c.73,0,1.08-.59,1.08-1.27v-7.89h-10.32v-2h10.32l0-2.7a27.26,27.26,0,0,0,5.55-4.77h-12.58v-2l15.52,0v1.51a27.71,27.71,0,0,1-6.47,6.22v1.7h9.81v2h-9.81l0,9a2.22,2.22,0,0,1-1.24,1.86c-.73.46-3.67.27-4.29.27l-1.54-1.94Z"/><path class="cls-2" d="M1185.52,372.72h3v2.83a4.11,4.11,0,0,1-2.34,3.8l-.78-1a2.65,2.65,0,0,0,1.62-2.67h-1.46Z"/><path class="cls-2" d="M1209.91,364.9l6.49,0a14.34,14.34,0,0,0-1.54-1.35l1.86-1a14.55,14.55,0,0,1,2,2.32h7v1.89l-15.25,0v1.81h-8.22l0-1.89h3.72a7.58,7.58,0,0,0-2.07-3.1l1.8-1a12.3,12.3,0,0,1,2.32,3.58l-1,.43,2.94.05ZM1210,372l-6.79,0v-1.91H1210Zm0,3.61h-6.79v-1.91H1210Zm-.38,7.46-.05,3.48h-1.91v-1.83h-2.26v1.86h-1.94v-8.92h6.12v5.12a12.18,12.18,0,0,0,5.09-2.13l-4.58-.05v-1.83h3.8V377.7h-2.75v-1.78l2.75,0v-.84h-3.61l0-1.78h3.61v-1.1h-3V367.6h6.2v4.58h-1.32a7.43,7.43,0,0,0,0,1.1h3.88l0-1.1-1.4,0V367.6h6.22v4.55h-2.94v1.13h3.61v1.78h-3.64v.86h2.83v1.81h-2.83v1.05h3.93l0,1.8h-1.75l1.24,1.13a11.12,11.12,0,0,1-2.7,2.1,8.66,8.66,0,0,0,4.1,1.48l-.86,1.78c-2.7-.56-5.36-1.8-6.76-4.31a11.4,11.4,0,0,1-1-2.16h-.65a9.18,9.18,0,0,1-1.72,1.67v2.18c.81-.21,2.32-.62,3.4-.84l.05,1.81a49.08,49.08,0,0,0-5.42,1.67l-1-1.62c.73-.27.92-.32,1-.46v-1.54a26,26,0,0,1-2.72.92Zm-4.2-3.58,0,3.4h2.21v-3.4Zm7.25-9h2.56v-1.29h-2.56Zm3.07,4.53v.86h3.88v-.86Zm.11,2.67v1.05h3.77l0-1.05Zm3.93,2.83a8.76,8.76,0,0,0,1.1,2.13,11.32,11.32,0,0,0,2.67-2.13Zm2.83-11.32h-2.51v1.24h2.51Z"/><path class="cls-2" d="M1228.86,380.21c2.26-1.91,3.75-5.79,4.28-8.49h-3.26V369.8h3.42v-3.53a18.44,18.44,0,0,1-2.83.4l-1.16-1.91c2.56-.05,5.28-.38,7.33-1.72l1.32,1.35c5-.05,9.11-.3,13.39-1.62.35.54.81,1,1.29,1.67a35.49,35.49,0,0,1-6.76,1.32v1.4h7v1.89h-7l0,1.05H1251l0,9.16h-5.15v1.32h5.85l0,1.86-5.82,0V384h7.46v1.89h-16.84V384h7.3l0-1.51H1238l0-1.86h5.74l0-1.32h-5.2v-1.21l-1.75.81a10.53,10.53,0,0,0-1.46-3.07l0,11.26h-2v-9.81a17.2,17.2,0,0,1-2.91,4.39Zm15-10.11V369l-6.66,0,0-1.86,6.6-.05a5,5,0,0,0,0-1.11c-1.48.13-3.29.19-5.17.24l-.94-1.51a16.56,16.56,0,0,1-2.37,1l0,4,2.8,0v1.89h-2.83v1.75l.54-.22a12.58,12.58,0,0,1,2.67,4.47l.05-7.63Zm-3.18,3.67h3.18V372h-3.18Zm3.15,1.83h-3.15v1.8l3.18,0Zm5.15,0h-3v1.78h3Zm-3-3.61v1.78h3V372Z"/><path class="cls-2" d="M1266.43,384.92c.73,0,1.08-.59,1.08-1.27v-7.89h-10.32v-2h10.32l0-2.7a27.26,27.26,0,0,0,5.55-4.77H1260.5v-2l15.52,0v1.51a27.71,27.71,0,0,1-6.47,6.22v1.7h9.81v2h-9.81l0,9a2.22,2.22,0,0,1-1.24,1.86c-.73.46-3.67.27-4.29.27l-1.54-1.94Z"/><path class="cls-2" d="M1300,370.88a16.69,16.69,0,0,1-5.23-7.14l1.83-.78a18.38,18.38,0,0,0,1.94,3.53,7,7,0,0,0,2.37-2.78l1.62.94a8.62,8.62,0,0,1-2.91,3.23,7,7,0,0,0,1.13,1,11.32,11.32,0,0,0,2.8-3.31l1.59,1.16a10.28,10.28,0,0,1-2.86,3.21,16.4,16.4,0,0,0,5,2.21l-1.48,1.72a21.71,21.71,0,0,1-3.64-1.62v2c0,.38.13.65.67.65h2.56v1.86l-3.42,0a1.55,1.55,0,0,1-1.67-1.62v-2.29h-3.1c0,2.61-.7,3.8-1.72,4.82l7.95,0a9.45,9.45,0,0,1-1.83,4.58,17.62,17.62,0,0,1,4.1,3.26l-1.32,1.54a19,19,0,0,0-4.18-3.29,17.42,17.42,0,0,1-6.09,3.37l-1.19-1.72a15.22,15.22,0,0,0,5.39-2.61,24.48,24.48,0,0,0-3.34-1.21l1.29-1.51a29.82,29.82,0,0,1,3.56,1.24,8.23,8.23,0,0,0,1.08-1.67h-5.9V378a12,12,0,0,1-1.05.73l-1.54-1.56a1.58,1.58,0,0,1,.43-.13l-4.77,0-.51,2.35h5.74a21.34,21.34,0,0,1-1.32,6.39,2.7,2.7,0,0,1-2.7,1.24,23.81,23.81,0,0,1-3.39-.59l-.3-2.24a21.44,21.44,0,0,0,4.07.89c.46,0,.73-.35.92-.89a21.17,21.17,0,0,0,.59-2.83h-6l1.27-6.28h4.82l0-2.16h-4c-.81.38-1.81,1-2.86,1.37l-1.32-1.83a22,22,0,0,0,4.63-2.16,7.27,7.27,0,0,0-2.94-2.18l1.67-1.27a8.31,8.31,0,0,1,2.7,2.45,21.07,21.07,0,0,0,3-2.75h-7.36v-2h9.84v1.7a15.08,15.08,0,0,1-4.29,4.58l3,.05v5.87c2.07-1.46,2-2,1.91-5.87Z"/><path class="cls-2" d="M1333.83,375.84l0,2-6.74,0v6.55a2.93,2.93,0,0,1-1.37,2c-1.4.62-3.13.24-4.72.35l-.83-2.18a24.44,24.44,0,0,0,4.07.19,1.16,1.16,0,0,0,.73-.65l.05-.65v-5.63h-1c-2.45,4.66-7.65,6.44-12.67,7.52-.46-.62-.83-1.19-1.37-2,4.77-.65,9.24-2.18,11.67-5.55l-8.87,0c.67-2,1.24-3.75,1.86-5.63a15,15,0,0,1,1.94.7c-.4,1.19-.73,2.18-1,2.88h9.4v-3.61h-12.37V370.1h19.11v2.1h-4.66v3.64Zm-15.55-13.12,0,2.64,3.34,0v1.94h-3.37l0,2.4h-2.07v-2.4h-5.52v-2h5.52v-2.64Zm7.65,7.09v-2.42h-3.5v-2h3.5v-2.7H1328v2.7h5.63v1.94H1328l0,2.45Z"/><path class="cls-2" d="M1337.53,367.62l0-2h5.74V362.8h2.13l0,2.86h3.4v2h-3.42v2.83h-2.13v-2.83Zm18.16,3.37c.75,0,1.35,0,2.1,0v6.71h-7.6v5.39h6.52v-4.2l2.07,0V387l-2,0,0-2-15.09,0v1.86h-2.1v-8.19h2.1l0,4.39,6.41,0v-5.36h-7.57l0-6.84h2v4.77h5.5v-6.55l2.16,0,0,6.58h5.5Zm-.57-8.14,0,2.94h5.55v1.94h-5.58v2.8l-2.1,0,0-2.83h-3.58v-2H1353v-2.91Z"/><path class="cls-2" d="M1364.91,375.22l7,0v-2.78l-6,0v-7.79l2.1,0,0,5.74h3.88l0-7.38h2.1v24.09h-2.13v-9.89l-2.75,0c.13,3.37-.65,7-4,9.54l-1.56-1.4c2.56-2.21,3.61-4.2,3.53-8.11h-2.24ZM1382.32,363v8.19h5.85l0,2h-5.82V383h4.74l0,2h-11.59l0-2h4.69v-9.7h-5.71l0-2h5.74V363Z"/><path class="cls-2" d="M1391.14,385.27a6.94,6.94,0,0,0,4.1-4.9,13.36,13.36,0,0,0,.35-3c.75.13,1.29.13,2,.32a13.62,13.62,0,0,1-.16,2.24,11.73,11.73,0,0,0,4.47,3l0-6.33h-10l0-2h22v1.94h-10l0,2.13,7.92,0v1.94l-7.92.05,0,2.88a12.48,12.48,0,0,0,2.18.24l9-.11-1,2.08-9.08,0c-3.42,0-5.52-1.4-8.19-3.72a9.32,9.32,0,0,1-4.58,5ZM1410.41,364l0,9.4-14.79,0-.05-9.38Zm-2.18,2h-10.59v1.67h10.59Zm0,5.5v-1.86h-10.62v1.86Z"/><path class="cls-2" d="M1426.07,385.06c2.43-.27,4.58-1.46,5-3.18h-3.91l0-5h2l0,3.15,2.21,0c.11-1.08.08-2.45.11-3.8h2c-.05,2.67.27,5.39-1,7.46a8.37,8.37,0,0,1-5.39,3.34l-.94-1.56-.05,1.64H1424l0-6.14-5.2,1.59-1.13-1.83,1.86-.46V366.14H1418v-1.86l9.67-.05v1.91h-1.54Zm-4.53-18.89V369h2.53v-2.83Zm2.53,7.92v-3.21l-2.51,0,0,3.18Zm-2.53,1.94,0,3.72c.73-.13,1.7-.49,2.53-.73v-3Zm4.66-7a19.8,19.8,0,0,0,4.2-6.06l1.83.92a16.58,16.58,0,0,1-3.29,4.77,17,17,0,0,0,2.07-.22,10.35,10.35,0,0,0,1.35-2.56l1.89.89a26.65,26.65,0,0,1-4.9,6.68c.4,0,1.46-.19,2.24-.3-.16-.32-.38-.67-.65-1.21l1.67-.57a13.93,13.93,0,0,1,1.78,4.15,11.16,11.16,0,0,1-1.89.62,7.53,7.53,0,0,0-.24-1.21,46.24,46.24,0,0,0-4.93.94,13.83,13.83,0,0,1-1.05-2,27.72,27.72,0,0,0,3.34-3.37c-.73.11-1.43.3-2.53.49Zm13.9,7.14a6.6,6.6,0,0,0-.32-1.46c-1.54.16-3.15.46-4.93.75l-1-1.94a22,22,0,0,0,3-3.1,15,15,0,0,0-2.67.49l-1-1.94a18.11,18.11,0,0,0,4.26-6l1.75.84a16.18,16.18,0,0,1-3.48,4.88l2.59-.3c.4-.7.81-1.51,1.27-2.45l1.83.92a22.45,22.45,0,0,1-4.69,6.3,19.55,19.55,0,0,0,2.29-.24,9.36,9.36,0,0,0-.67-1.24l1.78-.59a17.1,17.1,0,0,1,1.89,4.5ZM1434.31,387V376.14h2v3.8l2.32,0v-3.1h2v5h-4.37V387Z"/><path class="cls-2" d="M1458.57,363.34l-.83.84c3.15,4,8.81,7.9,11.24,8.65a22.48,22.48,0,0,1-1.35,1.8c-1-.4-1.89-.75-5.47-3.37a40.87,40.87,0,0,1-5.47-5.74c-2.51,3-5.15,5.5-10.94,9.43l-1.46-1.62c6-3.88,10.67-8.79,12.29-11.34Zm3.8,23.63,0-1.67h-11.4v1.8h-2.16v-10h15.76V387Zm1-12.75h-13.53v-2.07h13.5Zm-12.37,9h11.37l0-4.15H1451Z"/><path class="cls-2" d="M1483.85,386.16c.19-.19.38-.4.57-.62h-7.76v1.78h-2.1v-8.41a14.05,14.05,0,0,1-1.4,1.16l-1.59-1.37a9.92,9.92,0,0,0,4-5.07h-2v-5.2h5.82v4.69l.62-.35v-4.34h5.85l0,5.12h-5.2a6.25,6.25,0,0,1,.92,1.43h4.82v2h-4.58l0,.67h3.75v2h-3.77v.83h3.77v2h-3.77l0,1.19h3.93c2.08-3.37,2.67-7,2.86-12.64h-2.1l0-2h2.13c.11-1.94.11-3.8.08-6h2c0,2.29,0,4.2-.05,6h4.07c-.05,5.58-.27,10.91-.75,15.39-.16,1.51-1.1,2.07-2.51,2.13a16.8,16.8,0,0,1-2.56-.16c-.13-.75-.24-1.32-.4-2,.94.11,1.83.19,2.53.24s.92-.11,1-.7c.46-4.42.65-8.68.67-12.88h-2.13c-.24,5.77-.78,10.86-4.93,16.38ZM1477.06,365v-1.86h2v5h-2v-1.19h-4.77V365Zm-1.51,6.71h1.75V370.4h-1.75Zm1.1,5.28v.67h3.07V377Zm0,2.64v.83h3.07v-.83Zm0,2.8v1.19h3.07v-1.19Zm.89-8.78a7.83,7.83,0,0,1-.46,1.35h2.37a5.87,5.87,0,0,0-1.24-1.19l.24-.16Zm4.55-10.54v1.81h4.72v2h-4.72v1.21h-2v-5Zm-.13,8.49h1.81v-1.21H1482Z"/><path class="cls-2" d="M1503.91,380.83a18.31,18.31,0,0,1-4,1.4l-1.24-1.89a20.12,20.12,0,0,0,5.58-2l-4.66-.05v-1.91h7c.3-.35.67-.84.75-1h-4.2l0-7.41h1.7v-1.19h-5.58v-1.91h5.58v-2.18h2v2.18h3.56v1.91h-3.56V368l7.76,0v-1.19l-3.58,0V365l3.53,0v-2.24l2.08,0V365l5.6,0,0,1.89h-5.58v1.21h1.7v7.38l-8.79,0a6.5,6.5,0,0,1-.48.92H1522v2h-4.69a11.84,11.84,0,0,0,5.85,2.08,15,15,0,0,1-1.32,1.89,22.9,22.9,0,0,1-3.77-1.24,15.08,15.08,0,0,1-.86,4.39c-1.21,1.94-3.77.89-5.55.83l-.62-2.13a19.27,19.27,0,0,0,4,.51c.51-.08.43-.75.62-1.29l.19-1.21h-5.2a6.92,6.92,0,0,1-3.31,3.18,23.35,23.35,0,0,1-7,1.59l-1.08-1.91c3-.32,5.63-.57,7.87-1.83a7.72,7.72,0,0,0,1.19-1h-4.39Zm3.72-2.51a8.92,8.92,0,0,1-2.59,1.86l4.2.05a13.9,13.9,0,0,0,.27-1.91Zm8.73-8.43h-11.13v.84h11.13Zm0,2.61h-11.1l0,1.11,11.1,0Zm-4.85,6.28a5.17,5.17,0,0,1-.22,1.46h5.44a10.2,10.2,0,0,1-2.26-1.89l-4.42,0Z"/><path class="cls-2" d="M1529.16,379.18c5-1.83,8.81-4,11.59-7.6-3.72,2.37-8.62,3.88-13,4.9l-1.29-1.8a60.28,60.28,0,0,0,8.41-2.43,9.64,9.64,0,0,0-3-2.26l1.89-1.21a12.18,12.18,0,0,1,3,2.67,21.38,21.38,0,0,0,5.36-3.83h-7.41a28.12,28.12,0,0,1-5.9,3l-1.78-1.67a20.52,20.52,0,0,0,10.4-6.52l1.89,1a23.07,23.07,0,0,1-2,2.16h7.6v1.81a21.23,21.23,0,0,1-3.8,3.83l1.59.86a11.82,11.82,0,0,1-1.43,1.91l7.28,0,0,1.8c-4.39,8.46-14.82,10.21-20.78,11.32l-1.35-1.86a52.65,52.65,0,0,0,12.07-3.18,10.17,10.17,0,0,0-3-2.7l1.94-1.1a8.49,8.49,0,0,1,2.78,2.94,13.8,13.8,0,0,0,5.85-5.17h-6.9a30.71,30.71,0,0,1-8.51,4.85Z"/><path class="cls-2" d="M1560,363.47a10.78,10.78,0,0,1-.51,2.1h15.09v2l-8.22.05,0,3.45h6.87v2h-6.87v4.37h9.3v2l-9.3,0v7.76h-2.13V379.4H1553.8v-2l3.34,0V371l7.17,0v-3.45h-5.55A17.34,17.34,0,0,1,1555,373l-1.7-1.37c2.45-2.18,4-5.12,5-8.95Zm-.84,9.57v4.37h5.07l0-4.37Z"/><path class="cls-2" d="M1579.67,383.44a22,22,0,0,0,7.65-5.12,17.65,17.65,0,0,0,3.26-4.2l0-6h-9.86v-2h9.84V362.8h2.18v3.31h9.81v2h-9.81v6a26,26,0,0,0,7.92,7.79,20.74,20.74,0,0,0,3.1,1.51l-1.48,1.64a22.05,22.05,0,0,1-9.49-7.81l-.05,9.73-2.16,0v-9.43a23.5,23.5,0,0,1-9.62,7.68Zm1.32-6.66a9.5,9.5,0,0,0,3.53-6,16.49,16.49,0,0,0,.19-2.29l1.91.54a12.34,12.34,0,0,1-.3,2.72,13.06,13.06,0,0,1,3.56,3.29l-1.51,1.46a12.6,12.6,0,0,0-2.53-2.83,11,11,0,0,1-3.1,4.42Zm19.86.57a10.83,10.83,0,0,0-2.75-3.45,12.71,12.71,0,0,1-2.13,3.18c-.65-.38-1.11-.59-1.78-1.05,2.08-2.16,2.67-4.66,2.83-7.65l1.89.4a16.93,16.93,0,0,1-.32,3.15,11.69,11.69,0,0,1,3.93,4.15Z"/><path class="cls-2" d="M1623.28,363.2a36.56,36.56,0,0,1-1.16,4.07h7.28c-.13,5.74.05,11.88-1.7,17.16a3.24,3.24,0,0,1-2.08,2.26c-1.19.22-3.42-.46-4.8-.84l-.35-2.26a19,19,0,0,0,4.07,1.13,1,1,0,0,0,1-.48,15.94,15.94,0,0,0,.89-3.18,85.42,85.42,0,0,0,.89-11.91h-5.74a21.55,21.55,0,0,1-3.13,5.63l-1.4-.89v12.42l-2.08,0c-.08-1,0-1.75,0-2.21l-4.53,0v2.18h-2.13V367.7h2.48a16.11,16.11,0,0,0,1.64-4.77l1.94.78a16.64,16.64,0,0,1-1.46,4h4.12l0,5.31a23.39,23.39,0,0,0,4.07-10.29Zm-12.85,6.41,0,5.23,4.47,0v-5.25Zm4.55,12.61,0-5.44-4.47,0v5.39Zm8.81-1.83a23.37,23.37,0,0,0-3.67-6.33l1.67-1.1a19.57,19.57,0,0,1,3.93,6.57Z"/><path class="cls-2" d="M1634.6,383.58c-.57-.51-1.08-.92-1.78-1.62,1.67-.49,2.91-1,4.07-1.43v-6.22h-2.75l0-1.91,2.67,0,0-5.34-3.23,0v-2l8.35,0v1.91h-3l0,5.34,2.64,0v1.91H1639v5.44c.78-.3,1.94-.83,3.26-1.32v2Zm21.13-19.13-.05,11.72h-5.47v2.59h5.31v1.94h-5.36v3.1h7.19v1.91H1641v-1.91h7.09l0-3.1h-5.39v-1.94h5.36l0-2.59h-5.58V364.42Zm-7.65,4.8,0-2.86-3.53,0v2.88Zm-3.5,1.91v3.1h3.5l0-3.13Zm5.6,0v3l3.48,0v-3Zm.05-1.91h3.45l.05-2.88-3.53,0Z"/><path class="cls-2" d="M1659.72,371.21a28.43,28.43,0,0,0,12.67-9.11c.67.19,1.08.51,1.78.78l-.46.65c3.15,3.83,6.22,5.71,11.16,7.33l-1.24,1.86a31,31,0,0,1-6.41-3.18v1.19h-10.16v-1.11a26.06,26.06,0,0,1-5.93,3.31Zm6.31,9.32a10.87,10.87,0,0,1-4.55,4.74l-1.46-1.43a9.53,9.53,0,0,0,4.53-4.5Zm-1.08-7.71h14.82v1.83a11.42,11.42,0,0,1-6.09,4.29l-1.16-1.59a31.85,31.85,0,0,0,4.5-2.48h-12.07Zm14.12,9.11a13.48,13.48,0,0,1-1.1,2.64,2.11,2.11,0,0,1-2,1.32l-6.9,0c-.81-.16-1.86-.62-1.86-1.8v-4.74l2.13,0v4c0,.3.11.49.57.54h5.79c.67-.08,1.08-1.67,1.43-2.61Zm-3-13.23a20.93,20.93,0,0,1-3.67-3.58,28.16,28.16,0,0,1-3.85,3.53Zm-5.36,8.33a17.17,17.17,0,0,1,4.23,3.91,11.8,11.8,0,0,1-1.59,1.19,11.48,11.48,0,0,0-4.42-3.83Zm12.56,8a13,13,0,0,0-4.26-4.58c.65-.54,1.13-.78,1.64-1.19a13.94,13.94,0,0,1,4.1,4.42Z"/><path class="cls-2" d="M1697.61,372.72h3v2.83a4.11,4.11,0,0,1-2.34,3.8l-.78-1a2.65,2.65,0,0,0,1.62-2.67h-1.46Z"/><path class="cls-2" d="M1720.63,367.81c-.24.62-.57,1.48-.78,2l0,17.41h-1.94V373.66c-.35.51-1.35,1.83-2.29,3l-1.51-1.35c3.42-4,4.93-9,6-12.5l1.89.7c-.21.65-.46,1.56-.7,2.26h7.06v-3l2.13,0v3h7.28v2l-7.28-.05v1.83l6.14,0,0,7.41-6.2,0a11.67,11.67,0,0,1-1.51,4.9,26.89,26.89,0,0,0,10.38,2.94l-1.24,1.94c-2.8-.16-8.14-1.62-10.46-3.26a20.26,20.26,0,0,1-5.6,3.58l-1.59-1.8a13.82,13.82,0,0,0,5.42-3,30.17,30.17,0,0,1-3.42-3.77l1.75-1.1a15.08,15.08,0,0,0,3,3.26,7.79,7.79,0,0,0,1.1-3.67l-6,.05v-7.52h6.09l0-1.78Zm7.68,3.88h-4.1v3.42h4.1Zm6.28-.08h-4.1v3.5h4.07Z"/><path class="cls-2" d="M1762.38,369c-.05,2.32-.27,4.31-.38,6.12h2.8v2h-2.94l-.62,4.5,2.4,0,0,2H1761c-.49,2.48-1.35,3.15-2.4,3.34a17.46,17.46,0,0,1-5-.19l-.73-2.07a18.06,18.06,0,0,0,4.66.46c.86-.05,1-.89,1.16-1.54h-14.63c.59-2.4,1-4.42,1.35-6.44h-4l0-2,4.28,0c.32-1.8.49-4,.7-6.14Zm-14.69-2.13a27.43,27.43,0,0,1-4.55,5.58l-1.67-1.27a21.26,21.26,0,0,0,5.93-8.62l2,.65c-.27.92-.65,1.4-.73,1.72h15.6v1.94Zm3.23,10.19a15.76,15.76,0,0,1,6.09,3l-1.43,1.4a15.88,15.88,0,0,0-6.33-2.91l1.13-1.48h-2.83l-.78,4.5,12.29,0c.22-1.43.43-3,.59-4.5Zm8.89-1.91c.13-1.19.32-3,.32-4.18l-11.83,0c-.16,1.24-.3,3-.49,4.12Zm-4.07-.11a12.55,12.55,0,0,0-6-2.45l1.4-1.48c3,.49,4.77,1.27,6.06,2.45Z"/><path class="cls-2" d="M1775.7,363.63a44.44,44.44,0,0,1-1.83,5.82v17.68h-2.13l0-13.55c-.24.32-1.08,1.13-2.16,2.43l-1.62-1.62c3.29-3.15,5-8.33,5.85-11.67Zm2.78,23.5h-2.13v-23h15.09l0,22.88-2.1,0v-1.56h-10.83Zm10.83-3.64V366.17l-10.83,0,0,17.38Zm-6.47-13.85v-3.26h2l0,3.29H1789v1.94h-4.07v2.67l2.8,0,0,7.73h-7.49l0-7.73h2.64v-2.7h-4.1l0-2Zm2.86,10.46v-3.85h-3.5v3.85Z"/><path class="cls-2" d="M967,437.37a14.39,14.39,0,0,1-2.7,5.23l-1.56-.78a13.61,13.61,0,0,1-1.54,3.45L959.41,444c1.43-2.16,2.07-6,2.07-10.16V422.31l11,0v1.89H969.9c-.27.67-.7,1.67-.86,2h3.31l0,9.62h-2.86l0,6.85a2.31,2.31,0,0,1-1.19,1.86,10.24,10.24,0,0,1-3.23.38l-.73-2a10.68,10.68,0,0,0,2.75.05.9.9,0,0,0,.43-.81l0-6.3-3.15,0v-9.62h2.34a7.1,7.1,0,0,0,1-2h-4.1l0,10.91A30.65,30.65,0,0,1,963,441a11.15,11.15,0,0,0,2.18-4.34Zm-.75-5.44c0,.62,0,1.32,0,2h4l0-2Zm4-1.86v-2h-4l0,2Zm1.1,6.63a12.74,12.74,0,0,1,2.37,4.66c-.62.35-1.13.59-1.86,1a11.15,11.15,0,0,0-2.34-4.93Zm.35,7.06a11,11,0,0,0,4.53-3.61l1.4,1.35a10.89,10.89,0,0,1-4.53,3.69Zm11.75-19.62h-3.88a10.64,10.64,0,0,1-.73,2l3.31,0V440l-8.52,0,0-13.88h2.78a6.37,6.37,0,0,0,1-2h-4.85l0-1.91H983.5Zm-7.87,14h4.55V436h-4.58Zm0-10.16v2.13h4.55V428Zm0,4v2.08l4.55,0V432Zm7,13.18a11,11,0,0,0-4.39-3.58l1.46-1.46a14.65,14.65,0,0,1,4.34,3.56Z"/><path class="cls-2" d="M998.06,424.93v1.94h-7.14v3.31a.71.71,0,0,0,.73.67h5.07v1.94l-5.79,0a2.06,2.06,0,0,1-2.1-2v-3.94l-1.72,0,0-2,5.66,0a8.69,8.69,0,0,0-3-3.07l1.75-.94a9.77,9.77,0,0,1,3.26,3.53l-.62.43Zm-.54,12c-2.07.08-5.74.16-8.41.05l-1.05-2.1c4.74.35,14.63.27,19.73-1.19l1.24,1.62a50.07,50.07,0,0,1-9.32,1.59v1.46h7.79l0,1.88-7.84,0v1.7l10.4,0v1.91H987.23V442h10.32V440.2l-7.87,0v-1.91h7.84Zm3.21-6.28c0,1.05-1.4,2.94-2.94,4.07-.62-.4-1-.86-1.7-1.4a5.11,5.11,0,0,0,2.61-3.69,54.09,54.09,0,0,0,.13-7.3l9.94,0v9.27a2.16,2.16,0,0,1-1.7,2,25,25,0,0,1-3.21.08,19.62,19.62,0,0,0-.75-1.88l2.91.11a.59.59,0,0,0,.67-.67l0-.62Zm.22-3.13v1.21l5.74,0v-1.21Zm0-3.26v1.32h5.71V424.2Z"/><path class="cls-2" d="M1013.19,436.13c3.42-3,6.09-6.28,7.3-9.7l-5.66,0v-2h6.41a31.57,31.57,0,0,0,1.05-3.77l2.08.46c-.27,1.19-.67,2.59-.89,3.34h13.72v1.94l-14.5,0a20.52,20.52,0,0,1-1,2.51h12.21v13.77a2.08,2.08,0,0,1-1.4,1.7,22.42,22.42,0,0,1-3.58.13c-.32-.67-.59-1.19-.94-2.08a18.74,18.74,0,0,0,3.4.13.48.48,0,0,0,.51-.46v-2.67l-10.16,0v5.71h-2.13V432.31a46.5,46.5,0,0,1-4.55,5.07Zm8.51,1.38h10.19v-2.43l-10.19,0Zm.05-6.6v2.18l10.1,0v-2.21Z"/><path class="cls-2" d="M1046.47,427.75v-2.24h-5.9v-2h5.9v-2.72h2.08v2.72h3.5v2h-3.5v2.24Zm2,14.12v-1.59h-4.31v1.62h-2V428.8l8.35,0,0,13Zm-4.31-8.41h4.31v-2.69h-4.31Zm4.31,2h-4.31v2.8h4.31Zm6.28,3.29c-.73,3.69-3.07,5-5.09,6.52l-1.64-1.67c2.53-1.29,4.55-3.23,4.8-5.79.3-3.42.11-8.11.11-10.05H1063l0,14.58a2.52,2.52,0,0,1-1.46,2.21,13.86,13.86,0,0,1-3.4.21c-.3-.67-.51-1.24-.89-2a18.71,18.71,0,0,0,3.29,0,.87.87,0,0,0,.35-.62v-3.34Zm1.43-11.29v-2h-3.5v-1.94h3.48V420.8h2.13l0,2.72h5.87l0,2h-5.85v1.94Zm-1.13,6.66c0,.92,0,1.78-.05,2.67h5.9v-2.67Zm5.85-2v-2.42H1055v2.4Z"/><path class="cls-2" d="M1091.26,434l0,2-6.74,0v6.55a2.94,2.94,0,0,1-1.37,2c-1.4.62-3.13.24-4.72.35l-.83-2.18a24.45,24.45,0,0,0,4.07.19,1.15,1.15,0,0,0,.73-.65l.05-.65V436h-1c-2.45,4.66-7.65,6.44-12.67,7.52-.46-.62-.83-1.19-1.37-2,4.77-.65,9.24-2.18,11.67-5.55l-8.87,0c.67-2,1.24-3.75,1.86-5.63a14.87,14.87,0,0,1,1.94.7c-.4,1.19-.73,2.18-1,2.88h9.4v-3.61h-12.37v-2.13h19.11v2.1h-4.66V434Zm-15.55-13.12,0,2.64,3.34,0v1.94h-3.37l0,2.4h-2.07v-2.4h-5.52v-2h5.52v-2.64Zm7.65,7.09v-2.43h-3.5v-2h3.5v-2.7h2.08v2.7h5.63v1.94h-5.66l0,2.45Z"/><path class="cls-2" d="M1111.18,421.31a36.53,36.53,0,0,1-1.16,4.07h7.28c-.13,5.74.05,11.88-1.7,17.17a3.25,3.25,0,0,1-2.08,2.26c-1.19.21-3.42-.46-4.8-.84l-.35-2.26a19,19,0,0,0,4.07,1.13,1,1,0,0,0,1-.49,15.91,15.91,0,0,0,.89-3.18,85.37,85.37,0,0,0,.89-11.91h-5.74a21.53,21.53,0,0,1-3.13,5.63L1105,432v12.42l-2.08,0c-.08-1,0-1.75,0-2.21l-4.53,0v2.18h-2.13V425.81h2.48a16.11,16.11,0,0,0,1.64-4.77l1.94.78a16.61,16.61,0,0,1-1.46,4H1105l0,5.31a23.41,23.41,0,0,0,4.07-10.29Zm-12.85,6.41,0,5.23,4.47,0v-5.26Zm4.55,12.61,0-5.44-4.47,0v5.39Zm8.81-1.83a23.39,23.39,0,0,0-3.67-6.33l1.67-1.11a19.57,19.57,0,0,1,3.93,6.58Z"/><path class="cls-2" d="M1135.36,421.23l2,0c0,4.37.24,8.71.67,13.72h2.75a13.31,13.31,0,0,0-1.91-1.43l1-.89-1.29.24-.75-1.62a20.11,20.11,0,0,0,2.91-3.61l-2.26.54-.94-1.54a31.88,31.88,0,0,0,3.29-5.47l1.72,1.13a23.3,23.3,0,0,1-2.37,3.58l1.72-.21c.35-.51.73-1.19,1.16-1.91l1.59.92a25,25,0,0,1-4.1,6c.46-.08,1.1-.16,1.83-.27-.16-.35-.3-.59-.48-1.08l1.51-.7a13.84,13.84,0,0,1,1.67,4.37l-1.75.65a8,8,0,0,0-.4-1.48l-2.37.32a19.56,19.56,0,0,1,2.61,2.1l-.32.4h2v1.89h-6.49a13.16,13.16,0,0,0,1,2.86,24.32,24.32,0,0,0,3.26-2.61l1.35,1.29a32.79,32.79,0,0,1-3.53,2.88,6.33,6.33,0,0,0,1.67,1.32c.51.27.89.13,1-.35l.57-2.88,2,.81a17.89,17.89,0,0,1-1,3.42c-.78,1.59-2.08,1.59-3.48.78a11.6,11.6,0,0,1-2.45-2,22.18,22.18,0,0,1-6.39,2.29l-1-1.83a17.44,17.44,0,0,0,6.28-2,13.59,13.59,0,0,1-1.24-4h-3.61l-.16,1a14,14,0,0,1,3.69,2.32l-1.1,1.56a11.19,11.19,0,0,0-3-2,11,11,0,0,1-3.64,5l-1.48-1.54a8.75,8.75,0,0,0,3.72-6.36h-3V435h3.13v-1.54h2V435h3.26c-.05-.49-.11-.89-.13-1.54l-1.67.51-.48-1.46c-1.32.21-2.51.38-4,.59l-.81-1.46a25.34,25.34,0,0,0,2.94-3.91l-2.24.51-.67-1.37v1.43h-2.21v2.21l.51-.49a15.46,15.46,0,0,1,2.53,3.72l-1.46,1.13a19.86,19.86,0,0,0-1.59-2.75v13.12h-2V434.52a30.1,30.1,0,0,1-2.21,4.37l-1.86-1a24.54,24.54,0,0,0,4-9.59h-3v-1.89l3,0v-5.2h2v5.2h2.26a22.37,22.37,0,0,0,2.86-5.07l1.75,1a25.15,25.15,0,0,1-2.18,3.66l1.51-.27c.27-.51.57-1.08.92-1.88l1.51.81ZM1131.5,431c.35,0,1.11-.16,1.81-.24l-.54-1,1.64-.73a22,22,0,0,1,1.4,3.69c-.19-2.61-.32-5.25-.32-7.76A25.64,25.64,0,0,1,1131.5,431Z"/><path class="cls-2" d="M1161.5,421.58c3.37,2.64,6.93,5.36,11.59,6.25l-1.29,1.78c-.78-.19-1.46-.43-1.81-.54l0,5.44h-19.51V428.8a17.34,17.34,0,0,1-1.72.73c-.4-.59-.67-1.13-1.1-1.78,4.63-1.83,8.92-3.85,12.53-7.62l1.86,1Zm3.15,5.52h-8.79l0-1.11a27.89,27.89,0,0,1-4.1,2.18l16.3.05a27.64,27.64,0,0,1-3.4-1.94ZM1152.07,445v-9.46l16.33,0,0,9.48h-2.13v-1.32h-12.18V445Zm.46-14.82v2.45h2.8a20.89,20.89,0,0,0-1.89-1.7,8.41,8.41,0,0,1,1.4-.7Zm1.62,8.41,12.21,0v-1.16h-12.21Zm12.21,1.91h-12.21v1.27h12.18Zm-11.1-10.32a11.55,11.55,0,0,1,2.34,2.45h1.62l0-2.45Zm7.9-5c-.7-.57-2-1.64-2.8-2.37a33.86,33.86,0,0,1-3.07,2.32Zm-1.89,4.93,0,2.51H1163a9.91,9.91,0,0,0,1.83-2.51Zm5.28.81c-.48.84-1,1.72-1,1.7h2.32l0-2.51h-2.69Z"/><path class="cls-2" d="M1185.52,430.83h3v2.83a4.1,4.1,0,0,1-2.34,3.8l-.78-1a2.65,2.65,0,0,0,1.62-2.67h-1.46Z"/><path class="cls-2" d="M1209.91,423l6.49,0a14.16,14.16,0,0,0-1.54-1.35l1.86-1a14.6,14.6,0,0,1,2,2.32h7v1.89l-15.25,0v1.8h-8.22l0-1.89h3.72a7.58,7.58,0,0,0-2.07-3.1l1.8-1a12.28,12.28,0,0,1,2.32,3.58l-1,.43,2.94.05Zm.13,7.11-6.79,0v-1.91H1210Zm0,3.61h-6.79v-1.91H1210Zm-.38,7.46-.05,3.48h-1.91v-1.83h-2.26v1.86h-1.94v-8.92h6.12v5.12a12.15,12.15,0,0,0,5.09-2.13l-4.58-.05v-1.83h3.8v-1.08h-2.75V434l2.75,0v-.84h-3.61l0-1.78h3.61v-1.11h-3v-4.58h6.2v4.58h-1.32a7.46,7.46,0,0,0,0,1.11h3.88l0-1.11-1.4,0v-4.61h6.22v4.55h-2.94v1.13h3.61v1.78h-3.64V434h2.83v1.8h-2.83v1.05h3.93l0,1.81h-1.75l1.24,1.13a11,11,0,0,1-2.7,2.1,8.65,8.65,0,0,0,4.1,1.48l-.86,1.78c-2.7-.57-5.36-1.81-6.76-4.31a11.36,11.36,0,0,1-1-2.15h-.65a9.27,9.27,0,0,1-1.72,1.67v2.18c.81-.22,2.32-.62,3.4-.84l.05,1.8a49.49,49.49,0,0,0-5.42,1.67l-1-1.62c.73-.27.92-.32,1-.46V441.6a25.83,25.83,0,0,1-2.72.92Zm-4.2-3.58,0,3.39h2.21v-3.39Zm7.25-9h2.56v-1.29h-2.56Zm3.07,4.53V434h3.88v-.86Zm.11,2.67v1.05h3.77l0-1.05Zm3.93,2.83a8.8,8.8,0,0,0,1.1,2.13,11.32,11.32,0,0,0,2.67-2.13Zm2.83-11.32h-2.51v1.24h2.51Z"/><path class="cls-2" d="M1237.75,439.23l-7.09,3.13L1229,441l8.7-4Zm-4.77,3a24.13,24.13,0,0,0,3.56.94c.75.13,1-.81,1.21-1.67a35.9,35.9,0,0,0,.89-8.44h-8.57l1.94-6.36h6.31v-2.53h-7.87v-2l9.89,0v6.41l-6.87,0-.67,2.43h8.08a41,41,0,0,1-1.43,12c-.4,1.21-.51,2.26-2.42,2.16a15,15,0,0,1-3.4-.76Zm2.64-4.77a10.43,10.43,0,0,0-5.42-2.45l1.51-1.54a13.08,13.08,0,0,1,5.15,2.43Zm13.53,1.81-7.22,3-1.64-1.54,8.87-3.53Zm-6.31-5.5a13.83,13.83,0,0,1,5.44,2.4l-1.21,1.62a10.68,10.68,0,0,0-5.79-2.32Zm3.37,8.92c1,.38,2.4.56,2.61-.27a28,28,0,0,0,1.27-9.32h-8.76l1.81-6.39,6.33,0v-2.51h-8.11v-1.94l10.13,0v6.47h-6.76l-.81,2.48h8.49a41.8,41.8,0,0,1-2,12.72,2.17,2.17,0,0,1-1.89,1.19,15.14,15.14,0,0,1-3.42-.7l-.67-2.34Z"/><path class="cls-2" d="M1268.21,438.77c-1.72,5.42-8.08,6-11.29,6.52l-1.16-2c2.86-.19,8.57-.83,10.16-4.5h-7.71v-2h8.33l.32-1.51,1.89.27-.13,1.24h9.49a22.41,22.41,0,0,1-1.78,6.28,2.39,2.39,0,0,1-2.29,1.48,19.41,19.41,0,0,1-4.23-.78l-.49-2.21a17,17,0,0,0,4.31,1c1,0,1-.62,1.67-2.53.13-.43.27-1,.4-1.29Zm-2.29-11.18c0,.38.16.62.57.62h2.37v1.59h-3.69c-.73,0-1.13-.73-1.13-1.59v-.62h-1.89c-.21,1.56-1.8,2.59-3.29,3l3,.05v-1.75h2v1.75h4v1.81h-4v1.13l4.82-.46,0,.51a6.8,6.8,0,0,0,2.45-3.58A5.88,5.88,0,0,0,1269,429l1-1.48a14.78,14.78,0,0,1,1.75.73,17.55,17.55,0,0,0,.13-2.21H1269v-1.94h2.83l0-2.94h2v2.94h3.31l-.08,4.74a13.71,13.71,0,0,0,.51,4.45,12.5,12.5,0,0,0,.78-3.69l1.78,1a13.82,13.82,0,0,1-1.35,4.18,1.24,1.24,0,0,1-1.21.67,1.55,1.55,0,0,1-1.51-.81c-1-2-.94-4.53-.94-6.9v-1.72h-1.35a20.41,20.41,0,0,1-.35,3.37c.51.46,1.05,1,1.75,1.72l-1.05,1.56a13.79,13.79,0,0,0-1.27-1.35,12.21,12.21,0,0,1-3.26,4.2l-.89-.84V435l-11.64,1.08-.78-2c2.16,0,4-.13,5.55-.27V432.5h-4V431a4.75,4.75,0,0,1-1.05.21l-.75-1.7c1.78-.16,3.31-.59,4.18-1.91h-3.48v-1.83h5.09v-1.05l-4.23,0V422.9l4.26,0,0-1.81h2l0,1.78h4v1.8l-4.07,0,0,1.08h5v1.83Z"/><path class="cls-2" d="M1292.54,443.49h-4.61v1.59h-2V438a17.39,17.39,0,0,1-1.83,1.62l-1.7-1.35a12.71,12.71,0,0,0,4.39-5.5l-2.24,0v-1.94h2.64a15.91,15.91,0,0,0,.35-2.53h-4.34l0-1.94h4.37l0-2.32-3,0v-2h10.38v4.23H1296v-.89h3.37a9.67,9.67,0,0,0-3.07-3.69l1.72-1.08a10.31,10.31,0,0,1,3.37,4l-1,.67,1.13.05a9,9,0,0,0,2.4-4.93l1.81,1.11a8.58,8.58,0,0,1-1.75,3.83h2.69v1.94l-4.31,0,0,3.45h3.42v1.94h-3.45v3.72l5,0v1.94h-5l0,6.6h-2.08v-6.58l-5.09,0v-2h5.09v-3.69h-3.42v-2h3.42v-3.48h-3.69v.92h-1.67v4.5h-6.2a10.33,10.33,0,0,1-.67,1.78h6.52v10.51h-2Zm0-7h-4.63v5h4.61Zm.3-5.69v-2.53h-3.34a14.93,14.93,0,0,1-.35,2.53Zm0-6.79h-3.34v2.29h3.34Z"/><path class="cls-2" d="M1317.61,434.73a18.76,18.76,0,0,1-1.1,3.23l3.75,2-.57,2.1a26.69,26.69,0,0,0-4.1-2.51,14.51,14.51,0,0,1-4.2,3.8L1310,441.9c3.64-2.24,4.72-4,5.82-7.73Zm-6.06-4.85,0-7.62h20.18v7.6Zm20.08,2.21a70.69,70.69,0,0,1-8.87,1.29v11.8l-2.13,0V433.55c-.78,0-1.78.11-2.8.13l-5,.13-.75-2.1,5.5,0,4.12-.16a65.36,65.36,0,0,0,8.78-1.16Zm-18-4.26h3.93v-3.58l-3.93,0Zm10,0,0-3.61-4,0,0,3.61Zm6,6.2a12.24,12.24,0,0,1-.62,2.64,10.57,10.57,0,0,0,4.74,4.58l-1.35,1.56a10.41,10.41,0,0,1-4.28-4,13.7,13.7,0,0,1-3.34,3.91l-1.86-1.21c3.42-2.45,4.26-4.28,4.74-8Zm.05-9.78-3.88,0-.05,3.61,3.93,0Z"/><path class="cls-2" d="M1353.75,421.31a36.53,36.53,0,0,1-1.16,4.07h7.28c-.13,5.74.05,11.88-1.7,17.17a3.25,3.25,0,0,1-2.08,2.26c-1.19.21-3.42-.46-4.8-.84l-.35-2.26a19,19,0,0,0,4.07,1.13,1,1,0,0,0,1-.49,15.91,15.91,0,0,0,.89-3.18,85.37,85.37,0,0,0,.89-11.91h-5.74a21.53,21.53,0,0,1-3.13,5.63l-1.4-.89v12.42l-2.08,0c-.08-1,0-1.75,0-2.21l-4.53,0v2.18h-2.13V425.81h2.48a16.11,16.11,0,0,0,1.64-4.77l1.94.78a16.61,16.61,0,0,1-1.46,4h4.12l0,5.31a23.41,23.41,0,0,0,4.07-10.29Zm-12.85,6.41,0,5.23,4.47,0v-5.26Zm4.55,12.61,0-5.44-4.47,0v5.39Zm8.81-1.83a23.39,23.39,0,0,0-3.67-6.33l1.67-1.11a19.57,19.57,0,0,1,3.93,6.58Z"/><path class="cls-2" d="M1364.11,441a23.84,23.84,0,0,0,8.73-8.08h-7.22v-2H1375v-4l-7.63,0v-2h7.6l0-4,2.21,0,0,4,7.52,0,0,2h-7.52v4.07h9.4v2l-7.41,0a12.29,12.29,0,0,0,1.59,2.51,19.26,19.26,0,0,0,7.17,5.61l-1.21,1.7a18.19,18.19,0,0,1-9.49-9.62v12.07l-2.13-.05V433.25a26.53,26.53,0,0,1-4.53,5.66,27.81,27.81,0,0,1-5.09,3.77Z"/><path class="cls-2" d="M1391,441.55a22,22,0,0,0,7.65-5.12,17.73,17.73,0,0,0,3.26-4.2l0-6H1392v-2h9.84v-3.31H1404v3.31h9.81v2H1404v6A26,26,0,0,0,1412,440a20.94,20.94,0,0,0,3.1,1.51l-1.48,1.64a22.05,22.05,0,0,1-9.49-7.81l-.05,9.73-2.16,0V435.7a23.47,23.47,0,0,1-9.62,7.68Zm1.32-6.66a9.5,9.5,0,0,0,3.53-6,16.47,16.47,0,0,0,.19-2.29l1.91.54a12.36,12.36,0,0,1-.3,2.72,13,13,0,0,1,3.56,3.29l-1.51,1.46a12.61,12.61,0,0,0-2.53-2.83,11,11,0,0,1-3.1,4.42Zm19.86.57a10.85,10.85,0,0,0-2.75-3.45,12.69,12.69,0,0,1-2.13,3.18c-.65-.38-1.11-.59-1.78-1.05,2.08-2.16,2.67-4.66,2.83-7.65l1.89.4a16.93,16.93,0,0,1-.32,3.15,11.7,11.7,0,0,1,3.93,4.15Z"/><path class="cls-2" d="M1417.47,436.13c3.42-3,6.09-6.28,7.3-9.7l-5.66,0v-2h6.41a31.57,31.57,0,0,0,1.05-3.77l2.08.46c-.27,1.19-.67,2.59-.89,3.34h13.72v1.94l-14.5,0a20.52,20.52,0,0,1-1,2.51h12.21v13.77a2.08,2.08,0,0,1-1.4,1.7,22.42,22.42,0,0,1-3.58.13c-.32-.67-.59-1.19-.94-2.08a18.74,18.74,0,0,0,3.4.13.48.48,0,0,0,.51-.46v-2.67l-10.16,0v5.71h-2.13V432.31a46.5,46.5,0,0,1-4.55,5.07Zm8.51,1.38h10.19v-2.43l-10.19,0Zm.05-6.6v2.18l10.1,0v-2.21Z"/><path class="cls-2" d="M1445.34,425.73l0-2h5.74v-2.86h2.13l0,2.86h3.4v2h-3.42v2.83h-2.13v-2.83Zm18.16,3.37c.75,0,1.35,0,2.1,0v6.71H1458v5.39h6.52V437l2.07,0v8.19l-2,0,0-2-15.09,0V445h-2.1v-8.19h2.1l0,4.39,6.41,0v-5.36h-7.57l0-6.85h2v4.77h5.5v-6.55l2.16,0,0,6.57h5.5Zm-.57-8.14,0,2.94h5.55v1.94h-5.58v2.8l-2.1,0,0-2.83h-3.58v-2h3.58V421Z"/><path class="cls-2" d="M1472.72,433.33l7,0v-2.78l-6,0v-7.79l2.1,0,0,5.74h3.88l0-7.38h2.1v24.09h-2.13v-9.89l-2.75,0c.13,3.37-.65,7-4,9.54l-1.56-1.4c2.56-2.21,3.61-4.2,3.53-8.11h-2.24Zm17.41-12.21v8.19H1496l0,2h-5.82v9.7h4.74l0,2h-11.59l0-2h4.69v-9.7h-5.71l0-2h5.74v-8.19Z"/><path class="cls-2" d="M1515.47,421.31a36.53,36.53,0,0,1-1.16,4.07h7.28c-.13,5.74.05,11.88-1.7,17.17a3.25,3.25,0,0,1-2.08,2.26c-1.19.21-3.42-.46-4.8-.84l-.35-2.26a19,19,0,0,0,4.07,1.13,1,1,0,0,0,1-.49,15.91,15.91,0,0,0,.89-3.18,85.37,85.37,0,0,0,.89-11.91h-5.74a21.53,21.53,0,0,1-3.13,5.63l-1.4-.89v12.42l-2.08,0c-.08-1,0-1.75,0-2.21l-4.53,0v2.18h-2.13V425.81H1503a16.11,16.11,0,0,0,1.64-4.77l1.94.78a16.61,16.61,0,0,1-1.46,4h4.12l0,5.31a23.41,23.41,0,0,0,4.07-10.29Zm-12.85,6.41,0,5.23,4.47,0v-5.26Zm4.55,12.61,0-5.44-4.47,0v5.39Zm8.81-1.83a23.39,23.39,0,0,0-3.67-6.33l1.67-1.11a19.57,19.57,0,0,1,3.93,6.58Z"/><path class="cls-2" d="M1539.64,445.13c-.24-.75-.43-1.37-.78-2.24,1.56.16,2.8,0,4.07,0a.6.6,0,0,0,.54-.65V424.74l-16.76,0v-2l22.31,0v2h-3.42l0,17.38c0,1.67-.32,2.78-1.86,3Zm-9.54-17.22h9.78V440l-2.1,0v-2h-5.58v2l-2.1,0Zm7.65,8v-6h-5.55v6Z"/><path class="cls-2" d="M1560,421.61a20,20,0,0,1-3.88,5.36l5.74-.48a14.82,14.82,0,0,0-1.67-1.78l1.81-1a14.44,14.44,0,0,1,3.8,5.5,15.36,15.36,0,0,1-1.94.81,11.18,11.18,0,0,0-.67-1.67c-3,.19-5.87.62-9,1l-1.48-1.8a8.89,8.89,0,0,0,1.16-1c1.86-1.56,3-3.69,4.31-5.93Zm4,21c-.27,1.67-.92,1.89-1.67,2a17.16,17.16,0,0,1-2.91.08l-.75-2.08a15,15,0,0,0,2.83.11c.27,0,.43-.38.43-.67v-2.53h-5.6c0,1.78,0,3.53,0,5.63l-2,0V430.42h9.73ZM1562,434v-1.62h-5.6l0,1.64Zm-5.6,3.61h5.6l0-1.64h-5.63Zm11.64-4.5,0,3.77a18.49,18.49,0,0,0,6.55-2.83l1.37,1.43a19.41,19.41,0,0,1-7.92,3.42l0,2.53c0,.32.22.67,1,.67h4.15c.32,0,.62-.43.81-.75a10.76,10.76,0,0,0,.65-2.83l1.91.73c-.43,1.37-.54,2.78-1.37,3.88a2.58,2.58,0,0,1-1.75.89l-4.88,0a2.51,2.51,0,0,1-2.51-2.29v-8.62Zm8.22-5.55a28.62,28.62,0,0,1-.89,3.07c-.3.78-1.08,1.75-2,1.75h-4.8a2.37,2.37,0,0,1-2.48-2l0-9.35,2,0,0,4.66a20.07,20.07,0,0,0,6.36-3.31l1.24,1.54a21.23,21.23,0,0,1-7.6,3.8v2c0,.43.65.78,1.35.78H1573c.59,0,1-2.16,1.27-3.64Z"/><path class="cls-2" d="M1595.11,434.22a4,4,0,0,1-3.29,2.67,3.86,3.86,0,1,1-.73-7.68,3.76,3.76,0,0,1,3.42,1.54A3.82,3.82,0,0,1,1595.11,434.22Zm-3.13-3.37a2.2,2.2,0,0,0-2.16.65,2.25,2.25,0,0,0,.67,3.61,2.26,2.26,0,0,0,3-2.91A2.39,2.39,0,0,0,1592,430.85Z"/><path class="cls-2" d="M981,561.33c-2.34-1.86-4.66-2.72-8-4.12a22.47,22.47,0,0,1-11.61,4.31l-1.32-1.91a21.75,21.75,0,0,0,10.43-3.1,65.65,65.65,0,0,0-6.79-1.78,38.29,38.29,0,0,0,3.23-5.17l-6,0v-2h7.11l2.24-4.26,1.86.92-1.78,3.34h12v1.94l-4.34,0a16.26,16.26,0,0,1-3.37,6.17,32.56,32.56,0,0,1,7.65,3.8Zm-1.19-15.82v-2.94h-16.3v3.1h-2v-5.12h9.94a9.58,9.58,0,0,0-4-2.1l1.64-1.37a9.14,9.14,0,0,1,4.5,2.86l-.78.57,9,.05,0,5Zm-12.67,7.92c1.7.43,3.61,1,5.39,1.56a11.49,11.49,0,0,0,3.31-5.42l-6.44,0Z"/><path class="cls-2" d="M987.55,548.1a12.5,12.5,0,0,0,4.77-4.18,6,6,0,0,0-.46-3l1.94-.3a7.52,7.52,0,0,1,.43,3.48l-1.46.21,1.1.92a9,9,0,0,1-2.42,2.29,19.8,19.8,0,0,0,2.51-.13,17.88,17.88,0,0,0,2-2.32l1.62,1.32a21.65,21.65,0,0,1-6,5l3.34-.21-.7-.54,1.59-1.27a9.92,9.92,0,0,1,3.21,3.31l-1.56,1.27a6,6,0,0,0-.86-1.05l-2.86.19a9.38,9.38,0,0,1-.08,1.13h5.15v1.94h-5.52a6.88,6.88,0,0,1-.92,1.75,9.82,9.82,0,0,1-4.93,3.58L986,560c2.32-.73,4.37-2.13,5.17-3.83h-4.61v-1.94h5.15a2.37,2.37,0,0,0,.13-.89,33.37,33.37,0,0,0-3.48.4l-1-1.75c1.7-.89,3.23-1.81,4.12-2.4a14.21,14.21,0,0,0-3,.38Zm12.07-9.46a32,32,0,0,1-12.53,2.43l-1-1.94a40.13,40.13,0,0,0,5.93-.38l.19,0a22.54,22.54,0,0,0,6.14-1.64Zm-10.48,2.48a8.06,8.06,0,0,1,2,3.67l-1.78.92a6.21,6.21,0,0,0-1.94-3.67Zm4.72,15.41a12.36,12.36,0,0,1,5.23,3.29l-1.35,1.4a10.81,10.81,0,0,0-5.15-3.18Zm5-15.9a11.09,11.09,0,0,1-2.21,4.15l-1.75-1a8.49,8.49,0,0,0,2.32-4.1Zm11.24,3.15h-3.75v3.29h3.29v2h-3.29v3.34h3.29v2h-3.31v3.5h4.47v2h-9v1.59h-2.21l0-13.85a17.53,17.53,0,0,1-1.72,2l-1.59-1.24a17.93,17.93,0,0,0,4.53-8.87,18.2,18.2,0,0,0,.35-2.59l1.91.75a17.17,17.17,0,0,1-.75,4.07h3.29a5.89,5.89,0,0,0-2.24-3.31l1.83-1.08a8.91,8.91,0,0,1,2.34,3.64l-1.21.7,3.77.05Zm-8.35,0v3.29h2.53v-3.29Zm0,8.62h2.51v-3.34h-2.51Zm0,1.94v3.5h2.51v-3.5Z"/><path class="cls-2" d="M1013.59,558a22.38,22.38,0,0,0,8.54-3.77l-7.46,0v-2h10c0-.32,0-.81,0-1.62h2l0,1.59h9.89v2h-7.33c2.24,1.91,5.93,3.18,8.49,3.8l-1,1.78a20.72,20.72,0,0,1-10.05-5.28l0,6.82-2,0v-6.93a20.49,20.49,0,0,1-10,5.42Zm7-6.6a3.57,3.57,0,0,0-.27-1.27c-1.46.24-3.18.4-4.93.78a10.3,10.3,0,0,0-1.08-1.67,18,18,0,0,0,3.42-4,25.18,25.18,0,0,0-2.59.38L1014,544c2.24-1.62,3.34-4,4.5-6.39l1.72.89a18.31,18.31,0,0,1-3,5c.27,0,1-.16,1.72-.21.27-.46.67-1.21.92-1.7l1.72.86c-1.24,2.48-2.48,4.8-4.07,6.2a18.85,18.85,0,0,0,2.21-.27c-.08-.13-.32-.43-.7-1l1.7-.51a6.34,6.34,0,0,1,1.37,2.86l.05-10.11h2.51a9.52,9.52,0,0,0,1.35-2.78l1.83.62c-.38.75-.92,1.91-1.05,2.13h2.67v10.7l-7.14,0c0,.11.16.7.16.7Zm3.48-9.92v2.26h3.45v-2.24Zm3.45,6.82,0-2.61h-3.42v2.64Zm7.87,3.31a3.8,3.8,0,0,0-.22-1.37c-1.43.22-2.59.35-4.5.7l-1-1.64a17,17,0,0,0,3.1-3.69c-.51,0-1.37.24-2.45.43l-.75-1.83c1.86-1.81,2.86-4,4-6.58l1.62,1a16.11,16.11,0,0,1-2.83,5.09,8.92,8.92,0,0,0,1.7-.11c.4-.67.78-1.46,1.21-2.37l1.81.86a23.43,23.43,0,0,1-4.15,6.52,11.56,11.56,0,0,0,1.72-.22,10.17,10.17,0,0,0-.51-1.05l1.54-.51a11.42,11.42,0,0,1,1.67,4.29Z"/><path class="cls-2" d="M1051.51,555.08a20.73,20.73,0,0,1-10.08,5.28l-1.1-1.75a17.92,17.92,0,0,0,8.41-3.69h-7.25v-2h10v-1.32h-8v-1.86h8v-1.21h-9.24v-1.91h5.9a11.13,11.13,0,0,0-2.32-1.64l1-.73h-5.69v-1.91h8.06v-5h2.08v5h2.48v-5.07h2.07v5.07H1064v1.86h-6.36l.92.48a13.28,13.28,0,0,1-1.75,1.94h5.9v1.91h-9.05v1.21h7.71v1.86h-7.71v1.32h10.24v2H1056c2.13,1.78,5,2.8,8.92,3.58l-1.1,1.81a17.91,17.91,0,0,1-10.19-5.23v6.41h-2.13Zm-6.92-17.27A11.82,11.82,0,0,1,1048,541l-1.56,1.13a13.7,13.7,0,0,0-3.31-3.15Zm3.8,6.41a12.59,12.59,0,0,1,2.37,2.43h3.39a10.3,10.3,0,0,0,2.1-2.43ZM1062,538.8a15,15,0,0,1-3.34,3.31l-1.59-1.24a11.11,11.11,0,0,0,3.31-3.21Z"/><path class="cls-2" d="M1077.57,553.16a11.51,11.51,0,0,0-2.67-4.47v12.85h-2V550.25a22.9,22.9,0,0,1-4.31,5.88l-1.54-1.35a20.8,20.8,0,0,0,5.77-10.13h-4.47v-2h4.53v-5.23h2l0,5.23h3.31v1.94h-3.29v2.56l.57-.57a16.76,16.76,0,0,1,3.85,5.34Zm1.21-8.54v-2l7.2,0,0-5.39h2v5.36h3.5l0,2H1088l0,13.42c0,1.89-.67,3.42-3,3.42h-2.67l-.7-2.26a23,23,0,0,0,3.23.11c.78-.05,1.1-.32,1.1-1l0-13.63Zm3.91,10.29a14.81,14.81,0,0,0-3.72-7.09l1.72-1.05a14.93,14.93,0,0,1,3.85,7.19Z"/><path class="cls-2" d="M1094.28,559.36c3.1-1,5.82-2.37,7.44-4.69a6.63,6.63,0,0,0-3.29-2.45l1.62-1.56a9.11,9.11,0,0,1,2.72,2.24,12.91,12.91,0,0,0,1.29-4.82l-3.45,0c-.7,2.29-2.37,3.93-4,5.74l-1.72-1.43a12.89,12.89,0,0,0,5.09-9.59l1.86.62a14.18,14.18,0,0,1-.57,2.75h5c-.38,5.93-1.24,11.56-10.51,15.09Zm24.25-4c-.59,2.48-.78,4.71-2.83,4.71h-6.06c-2,0-2.51-1.4-2.51-2.86v-12h8.14v-2.86h-17.65V545h-2.16v-4.71l10.78,0a7.2,7.2,0,0,0-3.26-2.1l1.37-1.4a8.92,8.92,0,0,1,4,2.83l-.7.67,9.7,0v5l-2,0,0,7.33c0,1.11-.49,2.43-2,2.4l-2.26,0-.81-2.15a19.57,19.57,0,0,0,2.34.21c.49,0,.65-.24.65-.73l0-5.23h-4.1l0,10.29a.73.73,0,0,0,.83.81h5c.81,0,1.27-.57,1.43-3.83Z"/><path class="cls-2" d="M1121.72,555.35c3.31-2,6.17-4,8.06-6.52h-7.06v-1.94H1131a18.61,18.61,0,0,0,1.7-3.67l1.89.81a29.08,29.08,0,0,1-1.16,2.86h10.94v1.94l-12.13,0a22.84,22.84,0,0,1-2.24,2.86h11.56l0,9.65h-2l0-1.89-9.57,0v1.89h-2v-7.65a49,49,0,0,1-4.61,3.18Zm5.77-9.48v-3l-5.55,0,0-1.94,5.58,0v-3.53h2v3.56h3.61v2h-3.61v3Zm12,11.64v-3.83h-9.59v3.85Zm-2.24-11.72V542.9h-3.56v-2h3.53v-3.58h2v3.58h5.63l0,1.94h-5.58v2.91Z"/><path class="cls-2" d="M1148.57,559.6a6.94,6.94,0,0,0,4.1-4.9,13.36,13.36,0,0,0,.35-3c.75.13,1.29.13,2,.32a13.63,13.63,0,0,1-.16,2.24,11.73,11.73,0,0,0,4.47,3l0-6.33h-10l0-2h22V551h-10l0,2.13,7.92,0V555l-7.92.05,0,2.88a12.38,12.38,0,0,0,2.18.24l9-.11-1,2.08-9.08,0c-3.42,0-5.52-1.4-8.19-3.72a9.32,9.32,0,0,1-4.58,5Zm19.27-21.26,0,9.4-14.79,0-.05-9.38Zm-2.18,2h-10.59V542h10.59Zm0,5.5v-1.86h-10.62v1.86Z"/><path class="cls-2" d="M1196.81,550.6a17.06,17.06,0,0,0-2.18-3.67c-5.31.4-10.91.43-16.28,1.24-.43-.67-.75-1.32-1.24-2a23.85,23.85,0,0,0,8.76-9.67l1.89,1.38a23.6,23.6,0,0,1-6.9,7.84c3.31-.16,8.89-.54,12.1-.65a29.54,29.54,0,0,0-3.61-3l1.51-1.43a26.88,26.88,0,0,1,7.71,8.41ZM1181.23,561h-2.13V549.85h15.84l0,11.13h-2v-2h-11.67Zm0-9.21V557h11.64v-5.2Z"/><path class="cls-2" d="M1205.6,548.37a7.84,7.84,0,0,0-3.61-3.13l1.24-1.35a8.35,8.35,0,0,1,3.88,3.13Zm-3.5,11.51a18.4,18.4,0,0,0,3.42-8.81l1.81.59a19.5,19.5,0,0,1-3.29,9Zm4.26-17.81a7.78,7.78,0,0,0-3.67-2.69l1.37-1.35a7.9,7.9,0,0,1,3.72,2.78Zm12.42,8.17h-5.23v-3.94l-1.4.49-.13-.62c-1.19.13-2.37.32-3.8.54l.92.27a7.68,7.68,0,0,1-1.19,3.75l-1.64-.54a6.45,6.45,0,0,0,1.32-3.64l.22.11-.92-1.51a16.93,16.93,0,0,0,2.29-2.13l-1.35.19-.81-1.54a15.69,15.69,0,0,0,3.31-4.45l1.56.83a13.68,13.68,0,0,1-2.1,3.21l.81-.05.92-1.35,1.35.75v-1.7h2.18a14.11,14.11,0,0,0-1.1-1.13l1.64-.86a18.58,18.58,0,0,1,1.43,2h2.29v1.78h-6.25a22.55,22.55,0,0,1-2.13,3l1.21-.43a6.37,6.37,0,0,1,1.46,2.59h5.28v4a7,7,0,0,0,.83-3.26l1.51.24a6.76,6.76,0,0,1-1,3.88l-1.56-.38Zm-1.86,10.86-.78-1.94a54.3,54.3,0,0,0,5.55.49c.67,0,1-.92,1.1-1.62h-15.22l1.56-4.45h13v-.83h-14V551h16v4.31l-13.42,0-.35.86,14.69,0a23.66,23.66,0,0,1-1.05,4.29,2.23,2.23,0,0,1-2.24,1Zm-6-14.23a7,7,0,0,1-.19,3.58l-1.78.05a6.68,6.68,0,0,0,.49-3.61Zm-.11-3a5.49,5.49,0,0,1-.81.7l1.19-.08Zm1.78,2.8a6.76,6.76,0,0,1,.73,3.21l-1.64.35a5.7,5.7,0,0,0-.59-3.12Zm6.31-5.55v1.64h-5.36v-1.67Zm-5.36,4v-1.7l5.36,0v1.75Zm3.64,3.58v-1.37l-1.86,0,0,1.38Zm5.71-4.93,1.27-.67a7.32,7.32,0,0,1,1.86,3l-1.35.57a8.59,8.59,0,0,1,1.13,3.42l-1.67.35a6.78,6.78,0,0,0-1-3.5l1.35-.32-.19-.54c-1.27.11-2.72.27-4.26.54l-1.05-1.51a14.58,14.58,0,0,0,2.34-2.37c-.32,0-1,.08-1.54.16l-.75-1.54a17.5,17.5,0,0,0,3-4.07l1.56.76a11.13,11.13,0,0,1-2,3l1.16-.05.78-1.35,1.56.75a19.52,19.52,0,0,1-3.13,4.23l1.56-.13Zm-1.32,6.74a7.16,7.16,0,0,0-.19-3.56l1.46-.24a8,8,0,0,1,.49,3.58Z"/><path class="cls-2" d="M1245.94,537.53a36.56,36.56,0,0,1-1.16,4.07h7.28c-.13,5.74.05,11.88-1.7,17.16a3.24,3.24,0,0,1-2.08,2.26c-1.19.22-3.42-.46-4.8-.84l-.35-2.26a19.13,19.13,0,0,0,4.07,1.13,1,1,0,0,0,1-.48,15.94,15.94,0,0,0,.89-3.18,85.42,85.42,0,0,0,.89-11.91h-5.74a21.53,21.53,0,0,1-3.13,5.63l-1.4-.89v12.42l-2.08,0c-.08-1,0-1.75,0-2.21l-4.53,0v2.18H1231V542h2.48a16.09,16.09,0,0,0,1.64-4.77l1.94.78a16.61,16.61,0,0,1-1.46,4h4.12l0,5.31a23.39,23.39,0,0,0,4.07-10.29Zm-12.85,6.41,0,5.23,4.47,0v-5.25Zm4.55,12.61,0-5.44-4.47,0v5.39Zm8.81-1.83a23.37,23.37,0,0,0-3.67-6.33l1.67-1.1a19.58,19.58,0,0,1,3.93,6.57Z"/><path class="cls-2" d="M1256.46,552.09a21.58,21.58,0,0,0,5.47-9l1.8.92a22,22,0,0,1-5.6,9.46Zm12.75-14.5V557.8a2.41,2.41,0,0,1-1,2.34c-1.56.92-3.31.46-4.93.57l-.89-2.21c1.56.11,2.75.11,4,.08a.79.79,0,0,0,.7-.78V537.59Zm8.38,15.79a21,21,0,0,0-6.12-9.27l1.91-1a20.33,20.33,0,0,1,6.14,9.35Z"/><path class="cls-2" d="M1283.41,552.09a21.58,21.58,0,0,0,5.47-9l1.8.92a22,22,0,0,1-5.6,9.46Zm12.75-14.5V557.8a2.41,2.41,0,0,1-1,2.34c-1.56.92-3.31.46-4.93.57l-.89-2.21c1.56.11,2.75.11,4,.08a.79.79,0,0,0,.7-.78V537.59Zm8.38,15.79a21,21,0,0,0-6.12-9.27l1.91-1a20.33,20.33,0,0,1,6.14,9.35Z"/><path class="cls-2" d="M1309.93,560.28a11.21,11.21,0,0,0,1.86-6l1.83.16a12.35,12.35,0,0,1-1.83,6.39Zm23.9-16.73,0,2-4.12,0a9,9,0,0,1-.59,2.13h3.48l0,13.74h-2.08v-1.56h-4.45v1.59h-2l0-13.77h2.83a14.79,14.79,0,0,0,.78-2.13h-4.29l0-1.24c-.27.75-.54,1.7-.94,2.61v14.53h-2V550.47a6,6,0,0,1-.92,1.05l-1-.67c.08.35.43,1.29.67,2.48l-1.86.54a3.9,3.9,0,0,0-.35-1.48c-1.64.24-3.45.59-5.39,1l-1.13-1.7a19.45,19.45,0,0,0,4.12-4.93c-.86.05-2,.4-3.45.59l-.94-1.62a24.51,24.51,0,0,0,4.66-8.11l1.8,1a24.43,24.43,0,0,1-3.56,6.52c.54-.05,1.56-.27,2.53-.38a15.07,15.07,0,0,0,1.08-2.43l1.83.94a23.83,23.83,0,0,1-4.9,7.76c1.05-.11,2.16-.19,2.78-.3a10.72,10.72,0,0,0-.92-1.54l1.72-.59.89,1.48a20.72,20.72,0,0,0,3.93-8.25l1.7.75a3.07,3.07,0,0,1-.21,1Zm-18.11,10.78a11.62,11.62,0,0,1,.75,5.15l-2,.38a9.77,9.77,0,0,0-.54-5.17Zm2.26,5a11.28,11.28,0,0,0-1.48-5l1.75-.46a13.72,13.72,0,0,1,1.62,5Zm2.91-17.95,0,2.59h-2v-4.53h6.22a6.81,6.81,0,0,0-2-1.56l2.18-.94a8.64,8.64,0,0,1,2.16,2.51h5.82v3.69h-2v-1.75Zm9.67,11.32v-3.1h-4.45v3.13Zm-4.45,1.94v3.23h4.45v-3.23Z"/><path class="cls-2" d="M1343.62,557a12.87,12.87,0,0,1-5.66,3.07l-1.29-1.64a12,12,0,0,0,5.77-2.91Zm-6.06-7.76v-1.91l6.76,0c-.27-.38-.49-.62-.81-1.08h-4.39v-7.73h11.94v7.73h-5.17a6.81,6.81,0,0,1,.51,1.08l6.36,0v1.91Zm3.8,10.19a13,13,0,0,0,2.21.05.75.75,0,0,0,.73-.78v-3.4l-4.69,0v-5l11.24,0v5h-4.5l0,3.8a2.08,2.08,0,0,1-2,2.32h-1.89Zm-.22-18H1349v-1l-7.87,0Zm0,1.75v1.16H1349v-1.16Zm7.68,10.16v-1.13h-7.2l0,1.16Zm2.29,5.85a12.17,12.17,0,0,0-4.42-2.21l1.43-1.54a11,11,0,0,1,4.34,2.32Zm-.83.7a22.22,22.22,0,0,0,9.57-8.46l1.46,1.27a26.32,26.32,0,0,1-9.35,8.84Zm1.24-16.06c2.43-.73,5.85-4,7.44-6.55l1.32,1.29a17.84,17.84,0,0,1-7.11,6.74Zm.13,7.57a19.28,19.28,0,0,0,7.52-6.9l1.35,1.4a22.36,22.36,0,0,1-7.11,6.93Z"/><path class="cls-2" d="M1374.18,547h3v2.83a4.11,4.11,0,0,1-2.34,3.8l-.78-1a2.65,2.65,0,0,0,1.62-2.67h-1.46Z"/><path class="cls-2" d="M1396,549.66c-.78.92-2.18,2.32-3.69,3.77l-1.56-1.56a29.13,29.13,0,0,0,6.92-8.65l-5.52,0v-2h6.52a19,19,0,0,0,1.27-4.07l2,.65a18.52,18.52,0,0,1-.94,3.42h12.64v2H1400a37.37,37.37,0,0,1-2,3.61l0,14.61h-2.1Zm2.83,8.25h6.09l0-6.58h-5.28v-2l5.31,0v-4.47l2,0,0,4.5h5.85l0,2H1407v6.58l7.25,0v2l-15.41,0Z"/><path class="cls-2" d="M1424.32,554c-1.08,2.35-3.58,4.12-5.25,5.09l-1.48-1.64a10.39,10.39,0,0,0,5-4.53Zm-2.4-9.13c-.3.35-1.59,1.16-2.48,1.94a21.17,21.17,0,0,1-1.72-1.48c2.91-1.35,5.52-4.74,6.93-8.27.73.27,1.19.57,1.83.86-.32,1.54-1.7,3.23-2.37,4.47V552h-2.16ZM1440.7,540a17.59,17.59,0,0,1-1.16,4.93l-2-.54a11.47,11.47,0,0,0,.75-2.35h-8.57a22.06,22.06,0,0,1-3,3.26l-2-1.29c2.4-2,4.39-4.21,5.17-7.06.75.21,1.19.54,1.86.78-.35.94-.59,1.8-.84,2.26Zm-7.44,18.13a1.26,1.26,0,0,0,1-1l.24-2,2,.51c-.4,2.78-.83,4-2.75,4.58l-1,.05h-5.31a2.57,2.57,0,0,1-2.4-2.45v-5h2.1v4.58c.13.35.11.78,1,.78Zm-1.05-13.37a12.13,12.13,0,0,1-5.66,5.61l-1.35-1.62a13.44,13.44,0,0,0,5.39-5Zm-2.4,6.82c1.32.65,2.18,2.8,3,4.18l-2,1a10.48,10.48,0,0,0-2.78-4.61Zm5-2.67a2.61,2.61,0,0,1-1.4,2.69,8.66,8.66,0,0,1-2.53.19l-.81-2c1.16-.16,2.32.43,2.61-.35v-6.71h2.13Zm1.86-4.93a13.39,13.39,0,0,1,5.15,5.2c-.48.43-1,.86-1.62,1.32a16.3,16.3,0,0,0-5-5.39Zm3.64,15.44c-.54-1.4-3-4.79-4.77-5.36l1.7-1c1.72.62,3.85,3,5,5.15Z"/><path class="cls-2" d="M1446.42,556.29A16.91,16.91,0,0,0,1453,551a1.91,1.91,0,0,1-1.05-1,21,21,0,0,1-.11-3.47h2l0,2.07a.57.57,0,0,0,.62.65l5.23,0c.59,0,.75-.75.92-1.89l1.94.67c-.48,1.89-1.35,3.15-2.56,3.15h-6.2l1.08.32c-.3.54-.43.73-.35.65h9.27v1.7a12.85,12.85,0,0,1-3.8,3.48,42.6,42.6,0,0,0,8.76,2.1l-1.1,1.86a38.65,38.65,0,0,1-9.81-2.8,40.86,40.86,0,0,1-11.53,2.88l-1.16-1.78c4.58-.62,7.3-1,10.59-2.26a13.81,13.81,0,0,1-3.21-2.91,17.51,17.51,0,0,1-4.47,3.21Zm19-11h-9a7.92,7.92,0,0,1,2.86,2.4l-1.59,1.32a5.56,5.56,0,0,0-3.72-2.62l1.43-1.05-7.09-.05v2.8l-2,0,0-4.77h4.55a6.17,6.17,0,0,0-2-1.78l1.48-.57c-.92,0-2,0-2.94,0l-1.16-2a64.25,64.25,0,0,0,19.35-1.83l1.37,1.62c-.94.32-2.13.62-3.29.89l1.67.86a12,12,0,0,1-1.78,2.86h3.93V548l-1.62,0a17,17,0,0,1,1.48,2l-1.59,1.1a8.9,8.9,0,0,0-3.72-3.74l1.67-1.16a7.9,7.9,0,0,1,1.72,1.27Zm-18.78,4.55a5.56,5.56,0,0,0,3.07-3.29l1.7.94a7.51,7.51,0,0,1-3.13,3.8Zm9.43-9.05c-1.64.13-2.86.13-4.77.16a9.23,9.23,0,0,1,1.78,2.4h3.61a6.81,6.81,0,0,0-1.94-2.26Zm-1.21,13.28a14.81,14.81,0,0,0,3.13,2.32,12.56,12.56,0,0,0,3.15-2.32Zm6.17-10.72a11.74,11.74,0,0,0,2.34-3.64c-1.89.35-4.07.67-6.14.86a12,12,0,0,1,1.46,2.75Z"/><path class="cls-2" d="M1471.27,554.83a27.57,27.57,0,0,0,3.88-9.16l1.89.78a25.61,25.61,0,0,1-3.91,9.38Zm9.49-11.1,0,13.15a1.52,1.52,0,0,0,1,.89h4.2a1.23,1.23,0,0,0,1-.7,33.77,33.77,0,0,0,1.1-4.71l2.1.75a26.72,26.72,0,0,1-1.62,5.25,2.77,2.77,0,0,1-2.53,1.48l-4.31,0c-1.4,0-3.1-.75-3.1-2.72V543.76Zm4.5,2a20.67,20.67,0,0,0-6.47-6.49c.78-.46,1.19-.89,1.86-1.24a22.81,22.81,0,0,1,6.41,6.63Zm8.76,9.59a27.5,27.5,0,0,0-5.52-8.84,19.91,19.91,0,0,1,1.83-.94,30.41,30.41,0,0,1,5.66,8.78Z"/><path class="cls-2" d="M1515.47,537.53a36.56,36.56,0,0,1-1.16,4.07h7.28c-.13,5.74.05,11.88-1.7,17.16a3.24,3.24,0,0,1-2.08,2.26c-1.19.22-3.42-.46-4.8-.84l-.35-2.26a19.13,19.13,0,0,0,4.07,1.13,1,1,0,0,0,1-.48,15.94,15.94,0,0,0,.89-3.18,85.42,85.42,0,0,0,.89-11.91h-5.74a21.53,21.53,0,0,1-3.13,5.63l-1.4-.89v12.42l-2.08,0c-.08-1,0-1.75,0-2.21l-4.53,0v2.18h-2.13V542H1503a16.09,16.09,0,0,0,1.64-4.77l1.94.78a16.61,16.61,0,0,1-1.46,4h4.12l0,5.31a23.39,23.39,0,0,0,4.07-10.29Zm-12.85,6.41,0,5.23,4.47,0v-5.25Zm4.55,12.61,0-5.44-4.47,0v5.39Zm8.81-1.83a23.37,23.37,0,0,0-3.67-6.33l1.67-1.1a19.58,19.58,0,0,1,3.93,6.57Z"/><path class="cls-2" d="M1527,543.73a11.93,11.93,0,0,1,4.39,3.42l-1.43,1.46a10.56,10.56,0,0,0-4.42-3.42Zm12.72,3.66.7-.32c.81,1.11,1.21,1.48,1.7,2.18l6.66,0v1.89h-6.22v1.05l5.25,0v1.72h-5.28v1.21l5.31,0v1.75l-5.31,0V558l7.38,0v1.91h-13.69v1.59h-2v-8.95c-.35.32-1.05.89-1.94,1.59l-1.24-1.27a21,21,0,0,1-3.53,7.84l-1.78-1a19.14,19.14,0,0,0,3.83-9.59l1.81.73a16.13,16.13,0,0,1-.24,1.64,9.87,9.87,0,0,0,4.18-4.77h-2.67v-5l7.11,0Zm-9.11-4.42a8.23,8.23,0,0,0-4.1-3l1.37-1.43a9.74,9.74,0,0,1,4.2,3Zm1.29-3.85,6,0v-1.86h1.86v4.88l-1.86,0v-1.27h-6Zm2.59,5.34v1.46l3.31,0v-1.43Zm6,6.66h-4.28v1.05h4.28Zm0,4v-1.24h-4.28l0,1.21ZM1536.2,558l4.26,0v-1.11h-4.28Zm1-10.24a9.07,9.07,0,0,1-.57,1.48H1540a5.54,5.54,0,0,0-1.54-1.16l.67-.3Zm5.61-6.84,0,1.29-1.89,0v-4.88h1.89l0,1.86,6.36,0,0,1.81Zm5.28,1.78v5h-7.17v-5Zm-1.91,1.78-3.34,0v1.43l3.34,0Z"/><path class="cls-2" d="M1557.62,548.42a11.17,11.17,0,0,0-5-3.58l1.37-1.67a12.52,12.52,0,0,1,5,3.88Zm-5,11.35a20.8,20.8,0,0,0,5.28-9.76l2,.92c-.65,2.62-2.18,7-5.23,9.94Zm6.39-16.9a11,11,0,0,0-4.77-3.53l1.43-1.7a16.88,16.88,0,0,1,4.8,3.72Zm.3,16.92,0-2h7.28l0-5.87h-5.52v-2l5.5,0,0-5.12H1560v-2h15.47v2h-6.82V550h5.74v2h-5.74v5.88h7.65v2Zm7.84-17.09a11.45,11.45,0,0,0-4.23-4.2l1.48-1.37a11.43,11.43,0,0,1,4.42,4.29Z"/><path class="cls-2" d="M1589.18,559.63V539.47h-9.05v-2l22.45,0,0,2h-11.26l0,20.16Zm9.92-6.71a20,20,0,0,0-6.66-5.6l.92-1.54a15.22,15.22,0,0,1,4.42,2.67,23.9,23.9,0,0,1,2.83,2.88Z"/><path class="cls-2" d="M1616.76,547h3v2.83a4.11,4.11,0,0,1-2.34,3.8l-.78-1a2.65,2.65,0,0,0,1.62-2.67h-1.46Z"/><path class="cls-2" d="M1654.41,558.2l3.4-.13c-.32.89-.59,1.48-.86,2.15l-10.67,0a13.78,13.78,0,0,1-7.76-2.15,17.68,17.68,0,0,1-3.58,3.48l-1.51-1.51c3.18-2.29,4.58-3.77,5.47-7.63h-4.63V550.6a28.48,28.48,0,0,0,4.31-5h-4.72v-1.94h7.22v1.81a35,35,0,0,1-3.83,5l4,0a14.14,14.14,0,0,1-1.64,6c1.67,1.56,5.69,2,10.21,1.94Zm-16.52-15.31a12.92,12.92,0,0,0-3.15-4.55l1.7-1a13.7,13.7,0,0,1,3.23,4.53Zm9.75-6a9.55,9.55,0,0,1,2.13,2.8l7.14,0v1.91l-16.25,0v-1.91h6.92a8.06,8.06,0,0,0-2-1.83Zm7.65,8.06h-12.8l0-1.91h12.8Zm-12.8,1.59h12.8l0,1.91h-12.75Zm12.64,10.11h-12.42V550.2h12.42Zm-10.35-1.94,8.25,0v-2.59h-8.25Z"/><path class="cls-2" d="M1664.81,540.69v9.13c.62-.11,1.37-.46,2.13-.65v-11.8H1669v4.45h3.64v2H1669l0,4.77c1-.32,2.56-.73,4.12-1.13v2l-11,3.15c-.54-.54-.89-1-1.51-1.67,1-.27,1.67-.43,2.18-.54l0-9.65Zm18.86,19.38-22.5,0,0-2h22.47Zm-2.61-4.69-17.3,0v-1.94H1681Zm-7.44-18.08c.78,0,1.29,0,2.08,0v5.61a19.14,19.14,0,0,0,6.52-3l1.32,1.32a17.3,17.3,0,0,1-7.84,3.56v3.94a.85.85,0,0,0,.78.86h3.85c1,0,1.37-2,1.86-3.53l1.78.84a11.76,11.76,0,0,1-1.19,3.39,3.1,3.1,0,0,1-2.67,1.27h-3.77a2.62,2.62,0,0,1-2.72-2.48Z"/><path class="cls-2" d="M1701.36,561.35c-.24-.76-.43-1.37-.78-2.24,1.56.16,2.8,0,4.07,0a.6.6,0,0,0,.54-.65V541l-16.76,0v-2l22.31,0v2h-3.42l0,17.38c0,1.67-.32,2.78-1.86,3Zm-9.54-17.22h9.78v12.07l-2.1,0v-2h-5.58v2l-2.1,0Zm7.65,8v-6h-5.55v6Z"/><path class="cls-2" d="M1715.94,556.29a16.91,16.91,0,0,0,6.55-5.31,1.91,1.91,0,0,1-1.05-1,21,21,0,0,1-.11-3.47h2l0,2.07a.57.57,0,0,0,.62.65l5.23,0c.59,0,.75-.75.92-1.89l1.94.67c-.48,1.89-1.35,3.15-2.56,3.15h-6.2l1.08.32c-.3.54-.43.73-.35.65h9.27v1.7a12.85,12.85,0,0,1-3.8,3.48,42.6,42.6,0,0,0,8.76,2.1l-1.1,1.86a38.65,38.65,0,0,1-9.81-2.8,40.86,40.86,0,0,1-11.53,2.88l-1.16-1.78c4.58-.62,7.3-1,10.59-2.26a13.81,13.81,0,0,1-3.21-2.91,17.51,17.51,0,0,1-4.47,3.21Zm19-11h-9a7.92,7.92,0,0,1,2.86,2.4l-1.59,1.32a5.56,5.56,0,0,0-3.72-2.62l1.43-1.05-7.09-.05v2.8l-2,0,0-4.77h4.55a6.17,6.17,0,0,0-2-1.78l1.48-.57c-.92,0-2,0-2.94,0l-1.16-2a64.25,64.25,0,0,0,19.35-1.83l1.37,1.62c-.94.32-2.13.62-3.29.89l1.67.86a12,12,0,0,1-1.78,2.86H1737V548l-1.62,0a17,17,0,0,1,1.48,2l-1.59,1.1a8.9,8.9,0,0,0-3.72-3.74l1.67-1.16a7.9,7.9,0,0,1,1.72,1.27Zm-18.78,4.55a5.56,5.56,0,0,0,3.07-3.29l1.7.94a7.51,7.51,0,0,1-3.13,3.8Zm9.43-9.05c-1.64.13-2.86.13-4.77.16a9.23,9.23,0,0,1,1.78,2.4h3.61a6.81,6.81,0,0,0-1.94-2.26Zm-1.21,13.28a14.81,14.81,0,0,0,3.13,2.32,12.56,12.56,0,0,0,3.15-2.32Zm6.17-10.72a11.74,11.74,0,0,0,2.34-3.64c-1.89.35-4.07.67-6.14.86a12,12,0,0,1,1.46,2.75Z"/><path class="cls-2" d="M1758,537.53a36.56,36.56,0,0,1-1.16,4.07h7.28c-.13,5.74.05,11.88-1.7,17.16a3.24,3.24,0,0,1-2.08,2.26c-1.19.22-3.42-.46-4.8-.84l-.35-2.26a19.13,19.13,0,0,0,4.07,1.13,1,1,0,0,0,1-.48,15.94,15.94,0,0,0,.89-3.18,85.42,85.42,0,0,0,.89-11.91h-5.74a21.53,21.53,0,0,1-3.13,5.63l-1.4-.89v12.42l-2.08,0c-.08-1,0-1.75,0-2.21l-4.53,0v2.18h-2.13V542h2.48a16.09,16.09,0,0,0,1.64-4.77l1.94.78a16.61,16.61,0,0,1-1.46,4h4.12l0,5.31a23.39,23.39,0,0,0,4.07-10.29Zm-12.85,6.41,0,5.23,4.47,0v-5.25Zm4.55,12.61,0-5.44-4.47,0v5.39Zm8.81-1.83a23.37,23.37,0,0,0-3.67-6.33l1.67-1.1a19.58,19.58,0,0,1,3.93,6.57Z"/><path class="cls-2" d="M1779,549.23a21.67,21.67,0,0,0,3.67-12l2,.67a40.26,40.26,0,0,1-.48,4.23l7.33,0V544l-2.08,0a21.87,21.87,0,0,1-2.59,10.62,14.5,14.5,0,0,0,5.61,5.09l-1.56,1.7a14.1,14.1,0,0,1-5.25-4.82,28.48,28.48,0,0,1-5.25,4.82l-1.59-1.83a17.26,17.26,0,0,0,5.63-5,21.9,21.9,0,0,1-2.21-6.36,10.91,10.91,0,0,1-1.37,2l-1.48-.7v9.3l-7.25,0,0,2h-2v-11.7h3.69v-4.63h-5.66v-2l5.63,0v-5.31h2v5.31l5,0v2h-5.07l0,4.63Zm-1.67,2h-5.2l0,5.77,5.23,0Zm6.28-6.74c.24,2.43,1.19,6.52,2.1,8a21.16,21.16,0,0,0,1.72-8.44l-3.64,0Z"/><path class="cls-2" d="M962.22,613.91h8.27l.05-1.56-10.86,0v-1.83l10.86-.05v-1.35l-8.35,0,0-1.83,8.33-.05V606l-7.68-.05,0-5.33h7.68l0-1.19-10.7,0v-1.89h10.67l0-2.13h2.16l0,2.13h10.75l0,1.86H972.62l0,1.24,7.6-.05V606h-7.6v1.19l8.54,0v3.23h2.45l0,1.91-2.53,0v3.47l-8.51,0c0,1,.27,2.75-.94,3.29s-3,.35-4.53.43c-.32-.67-.43-1.27-.78-2.08a21.87,21.87,0,0,0,3.69.11c.62-.08.4-.73.43-1.72h-8.25Zm2.61-9.76,5.63,0,0-1.59-5.66,0Zm14.23,6.31v-1.4l-6.5,0v1.4Zm-.05,3.45,0-1.62-6.47,0,.05,1.64Zm-.81-9.7v-1.67h-5.55v1.64Z"/><path class="cls-2" d="M998,615.91V599.33h-9.57v-1.94l20.37,0v2h-8.7V606l7.33.05v2h-7.3v7.9h9.65l0,2h-22.1l0-2H991V603.73h2.13l0,12.18Z"/><path class="cls-2" d="M1018.63,607.77c-.78.92-2.18,2.32-3.69,3.77l-1.56-1.56a29.13,29.13,0,0,0,6.92-8.65l-5.52,0v-2h6.52a19,19,0,0,0,1.27-4.07l2,.65a18.52,18.52,0,0,1-.94,3.42h12.64v2h-13.55a37.37,37.37,0,0,1-2,3.61l0,14.61h-2.1Zm2.83,8.25h6.09l0-6.58h-5.28v-2l5.31,0v-4.47l2,0,0,4.5h5.85l0,2h-5.82V616l7.25,0v2l-15.41,0Z"/><path class="cls-2" d="M1057.41,603.32a16.68,16.68,0,0,1-5.23-7.14l1.83-.78a18.45,18.45,0,0,0,1.94,3.53,7,7,0,0,0,2.37-2.78l1.62.94a8.62,8.62,0,0,1-2.91,3.23,7,7,0,0,0,1.13,1A11.31,11.31,0,0,0,1061,598l1.59,1.16a10.27,10.27,0,0,1-2.86,3.21,16.4,16.4,0,0,0,5,2.21l-1.48,1.72a21.71,21.71,0,0,1-3.64-1.62v2c0,.38.13.65.67.65h2.56v1.86l-3.42,0a1.55,1.55,0,0,1-1.67-1.62v-2.29h-3.1c0,2.61-.7,3.8-1.72,4.82l7.95,0a9.45,9.45,0,0,1-1.83,4.58,17.65,17.65,0,0,1,4.1,3.26l-1.32,1.54a19,19,0,0,0-4.18-3.29,17.42,17.42,0,0,1-6.09,3.37l-1.19-1.72a15.22,15.22,0,0,0,5.39-2.61,24.48,24.48,0,0,0-3.34-1.21l1.29-1.51a29.81,29.81,0,0,1,3.56,1.24,8.26,8.26,0,0,0,1.08-1.67h-5.9v-1.59a12,12,0,0,1-1.05.73l-1.54-1.56a1.62,1.62,0,0,1,.43-.13l-4.77,0-.51,2.35h5.74a21.34,21.34,0,0,1-1.32,6.39,2.7,2.7,0,0,1-2.7,1.24,23.81,23.81,0,0,1-3.39-.59l-.3-2.24a21.37,21.37,0,0,0,4.07.89c.46,0,.73-.35.92-.89a21.12,21.12,0,0,0,.59-2.83h-6l1.27-6.28h4.82l0-2.16h-4c-.81.38-1.81,1-2.86,1.38l-1.32-1.83a21.91,21.91,0,0,0,4.63-2.16,7.25,7.25,0,0,0-2.94-2.18l1.67-1.27a8.3,8.3,0,0,1,2.7,2.45,21.14,21.14,0,0,0,3-2.75h-7.36v-2h9.84v1.7a15.06,15.06,0,0,1-4.29,4.58l3,.05v5.88c2.07-1.46,2-2,1.91-5.87Z"/><path class="cls-2" d="M1074.47,598a14.66,14.66,0,0,1-.57,3.26h4.53l0-5.74h2.1v5.74h8.81v2l-8.79,0v5h7.52v2l-7.52,0,0,5.77H1091v2h-22.23v-2h9.62l0-5.74h-7v-2h7l0-5h-5.25a16.51,16.51,0,0,1-3.64,5.25l-2-1.1a14,14,0,0,0,4.93-10Z"/><path class="cls-2" d="M1104.66,605.16h3V608a4.11,4.11,0,0,1-2.34,3.8l-.78-1a2.65,2.65,0,0,0,1.62-2.67h-1.46Z"/><path class="cls-2" d="M1136.7,595.32c0,2,.08,6.28.24,8.25h7.17v2h-7a31.6,31.6,0,0,0,1.08,5.17,18.82,18.82,0,0,0,3-4.42l1.83.78a22.86,22.86,0,0,1-4,5.69,12.45,12.45,0,0,0,1.08,1.78c.65.92,1.86,2.69,2,2.13a14.32,14.32,0,0,0,.67-3.74l2.1.81a16.08,16.08,0,0,1-.92,4.45,2,2,0,0,1-.89.94,3.18,3.18,0,0,1-2.78-1.11,14.12,14.12,0,0,1-2.91-3.66,29.74,29.74,0,0,1-5.23,3.39l-1.81-1.51a24.43,24.43,0,0,0,6.09-3.91,33.69,33.69,0,0,1-1.51-6.76h-5.17l0,3.88,4.1-1.05,0,2.07-4.12,1.11,0,5.58a2.1,2.1,0,0,1-1.16,1.86c-1.32.48-2.88.19-4.18.27-.27-.67-.43-1.27-.75-2.1l3.31.08a.63.63,0,0,0,.62-.7v-4.39l-4.72,1.27-1.51-2c2.37-.46,4.39-.94,6.2-1.4v-4.5l-5.5,0,0-2h5.5v-3.88a17.14,17.14,0,0,1-4.37.73,15.69,15.69,0,0,0-1.27-2,19.58,19.58,0,0,0,10.54-3l1.35,1.54a34.65,34.65,0,0,1-4.07,2.21v4.39l5,0a78.9,78.9,0,0,1-.16-8.22Zm2.4,1.13a11.55,11.55,0,0,1,4.63,4.55,11.9,11.9,0,0,1-1.72,1.48,9.15,9.15,0,0,0-4.63-4.47Z"/><path class="cls-2" d="M1155.71,595.83a50.85,50.85,0,0,1-1.72,5.28v18.51h-2.1V605.45c-.43.62-.94,1.46-1.83,2.59l-1.89-1a41.91,41.91,0,0,0,5.63-11.94Zm7.84,11.07h-5l0,12.72-2.08-.05,0-23h7.14Zm-5-2h2.88l0-2.26h-2.86Zm.08-6.36v2.21l2.78,0,0-2.21Zm7.3,18.54c1.32,0,2.1.08,2.78,0,.38,0,.62-.3.62-.83l0-9.41h-4.88V596.59l7,.05,0,19.46a2.82,2.82,0,0,1-1,2.67c-1.24.67-2.4.32-3.56.4Zm.54-18.59,0,2.21h2.88l.05-2.24Zm0,4.15v2.26l2.88,0v-2.29Z"/><path class="cls-2" d="M1187.38,600c.38-.57,1.27-1.72,1.8-2.59l1.54,1.21a39.85,39.85,0,0,1-3.13,4.26h3.26v1.91h-5a18.39,18.39,0,0,1-2.64,2.1l5.77,0v12.59h-2.08v-1.78H1181v1.8h-2V609.33c-.78.38-1.78.92-2.75,1.4L1175,609a38,38,0,0,0,7.79-4.2l-7-.05,0-1.88,5.82,0V600.3l-4.37,0,0-1.88,4.42,0v-3.18h2v3.15h3.69Zm-6.31,8.87v2.43h5.79v-2.4Zm0,4.31v2.64l5.77,0,0-2.59Zm2.61-10.29,1.29,0a29,29,0,0,0,2.13-2.59l-3.42,0Zm9.54,16.63-2,.05.05-23.07h7.57a6,6,0,0,1-.3,2.91c-.59,2.16-1.43,4.18-2.18,6.17a10.41,10.41,0,0,1,2.88,5.58,4.84,4.84,0,0,1-1.05,3.77c-1.08,1.24-2.88.65-4.26.46l-.49-2.24a8.45,8.45,0,0,0,3,.49c.81-.38.78-1.4.75-2.32a8.9,8.9,0,0,0-3.21-5.36,76.74,76.74,0,0,0,2.83-7.57l-3.61,0Z"/><path class="cls-2" d="M1202.47,617.71a6.94,6.94,0,0,0,4.1-4.9,13.36,13.36,0,0,0,.35-3c.75.13,1.29.13,2,.32a13.63,13.63,0,0,1-.16,2.24,11.73,11.73,0,0,0,4.47,3l0-6.33h-10l0-2h22v1.94h-10l0,2.13,7.92,0v1.94l-7.92.05,0,2.88a12.38,12.38,0,0,0,2.18.24l9-.11-1,2.08-9.08,0c-3.42,0-5.52-1.4-8.19-3.72a9.32,9.32,0,0,1-4.58,5Zm19.27-21.26,0,9.4-14.79,0-.05-9.38Zm-2.18,2H1209v1.67h10.59Zm0,5.5v-1.86H1209v1.86Z"/><path class="cls-2" d="M1232.52,606.58a32.25,32.25,0,0,1-2.1,2.7l-2-1.11c3.67-3.8,5.25-8.41,6.76-13.18l2,.86a61.87,61.87,0,0,1-2.64,7v16.73h-2.1Zm2.78.94a15.14,15.14,0,0,0-.62-2c1.29-.4,2.43-.7,3.37-1l0-5.31h2.21l0,4.61,3.15-.94.05-7.81,2.1,0v7.12l6.41-1.94a57.58,57.58,0,0,1-1.24,10.48,2.48,2.48,0,0,1-1.43,1.86,7,7,0,0,1-3,0l-.57-2.18a7,7,0,0,0,2.45.24c.43-.08.43-.43.54-.78a65.19,65.19,0,0,0,.94-6.63l-4.1,1.38,0,9.54-2.13,0,0-9.08-3.23,1v9a1.18,1.18,0,0,0,1,1.24h8.3a1.16,1.16,0,0,0,1.19-.94c.19-.86.46-1.62.62-2.78l2.08.92a18.83,18.83,0,0,1-1.08,3.4,2.94,2.94,0,0,1-2.48,1.51l-8.78,0a2.74,2.74,0,0,1-2.94-2.43v-9.4Z"/><path class="cls-2" d="M1263.52,595.83a50.85,50.85,0,0,1-1.72,5.28v18.51h-2.1V605.45c-.43.62-.94,1.46-1.83,2.59l-1.89-1a41.91,41.91,0,0,0,5.63-11.94Zm7.84,11.07h-5l0,12.72-2.08-.05,0-23h7.14Zm-5-2h2.88l0-2.26h-2.86Zm.08-6.36v2.21l2.78,0,0-2.21Zm7.3,18.54c1.32,0,2.1.08,2.78,0,.38,0,.62-.3.62-.83l0-9.41h-4.88V596.59l7,.05,0,19.46a2.82,2.82,0,0,1-1,2.67c-1.24.67-2.4.32-3.56.4Zm.54-18.59,0,2.21h2.88l.05-2.24Zm0,4.15v2.26l2.88,0v-2.29Z"/><path class="cls-2" d="M1283.09,616.2l2.8-.27,0-8.81-2.42,0v-1.91l22.82,0v1.94h-10.86V619.6h-2.16l0-2.88-9.14,1.43Zm19.46-19.56,0,8.27-2,0,0-6.39h-11.21v6.44h-2.07l0-8.3Zm-9.24,12v-1.46H1288v1.48Zm-5.34,1.88v1.4h5.36v-1.4Zm0,3.26,0,1.91c1.72-.24,3.58-.46,5.31-.75l0-1.19Zm1.51-12.45v-1.78h10.7v1.78Zm10.7,1.1v1.81h-10.7v-1.81Zm4.91,5.77a14.49,14.49,0,0,1-2.8,6.76,13,13,0,0,0,4.58,3c-.54.62-.84,1.05-1.35,1.56a13.78,13.78,0,0,1-4.5-3.1,25.4,25.4,0,0,1-4.18,3.31l-1.21-1.62a21,21,0,0,0,4.12-3.1,12.09,12.09,0,0,1-2.4-4.9h-1.13v-1.91Zm-5.87,1.91a12.11,12.11,0,0,0,1.72,3.37,14.37,14.37,0,0,0,1.81-3.37Z"/><path class="cls-2" d="M1309.66,610.46c3.42-3,6.09-6.28,7.3-9.7l-5.66,0v-2h6.41a31.71,31.71,0,0,0,1.05-3.77l2.08.46c-.27,1.19-.67,2.59-.89,3.34h13.72v1.94l-14.5,0a20.65,20.65,0,0,1-1,2.51h12.21V617a2.08,2.08,0,0,1-1.4,1.7,22.2,22.2,0,0,1-3.58.13c-.32-.67-.59-1.19-.94-2.07a18.92,18.92,0,0,0,3.4.13.49.49,0,0,0,.51-.46V613.8l-10.16,0v5.71h-2.13V606.64a46.32,46.32,0,0,1-4.55,5.07Zm8.51,1.37h10.19v-2.42l-10.19,0Zm.05-6.6v2.18l10.1,0v-2.21Z"/><path class="cls-2" d="M1358.66,601.54a71.84,71.84,0,0,1-1.48,14.36,3.15,3.15,0,0,1-2.67,2.4,12.88,12.88,0,0,1-5.44-.81l-.46-2.35a22.18,22.18,0,0,0,4.93,1.21,1.62,1.62,0,0,0,1.32-.73c.73-1,1.54-8.41,1.62-12.1l-6.76,0c-.46,10.29-5.15,13.26-10.89,15.68l-1.54-2c4.71-1.75,9.89-3.83,10.27-13.71h-6.66v-2h6.74v-6h2.07l0,6Z"/><path class="cls-2" d="M1380.7,595.64a36.56,36.56,0,0,1-1.16,4.07h7.28c-.13,5.74.05,11.88-1.7,17.16a3.24,3.24,0,0,1-2.08,2.26c-1.19.22-3.42-.46-4.8-.84l-.35-2.26a19.13,19.13,0,0,0,4.07,1.13,1,1,0,0,0,1-.48,15.94,15.94,0,0,0,.89-3.18,85.42,85.42,0,0,0,.89-11.91H1379a21.53,21.53,0,0,1-3.13,5.63l-1.4-.89v12.42l-2.08,0c-.08-1,0-1.75,0-2.21l-4.53,0v2.18h-2.13V600.14h2.48a16.09,16.09,0,0,0,1.64-4.77l1.94.78a16.61,16.61,0,0,1-1.46,4h4.12l0,5.31a23.39,23.39,0,0,0,4.07-10.29Zm-12.85,6.41,0,5.23,4.47,0v-5.25Zm4.55,12.61,0-5.44-4.47,0v5.39Zm8.81-1.83a23.37,23.37,0,0,0-3.67-6.33l1.67-1.1a19.58,19.58,0,0,1,3.93,6.57Z"/><path class="cls-2" d="M1391.41,617.6a33.94,33.94,0,0,0,10-3.85,21.94,21.94,0,0,1-5.2-6.28h-1.8l0-2,7.63,0v-3.8h-9.89v-1.94l9.86,0v-4.45h2.16l.05,4.42H1414v2h-9.92l.05,3.75h6.76v1.8a22.05,22.05,0,0,1-6,6.52,26.2,26.2,0,0,0,9.86,3.69l-.92,2c-2.75-.4-8.54-2.64-10.64-4.47a38.13,38.13,0,0,1-10.75,4.47Zm7.06-10.13a18.49,18.49,0,0,0,4.66,5.09,20.88,20.88,0,0,0,5.28-5.09Z"/><path class="cls-2" d="M1418.74,600.68l3.88,0,0-5.2,2.07,0,0,5.17h2.72l0,1.94-2.69,0v2.72l.75-.51a13,13,0,0,1,3.23,3.74l-1.62,1.13a11.33,11.33,0,0,0-2.37-3.07v12.85h-2V608.47a21.45,21.45,0,0,1-3.67,5.36l-1.59-1.29a23.57,23.57,0,0,0,5.17-9.89h-3.8Zm15,.11a9.08,9.08,0,0,0-4-4.47l1.86-1.19a11.84,11.84,0,0,1,4,4.66l-1.62.94,6.87.05v1.94l-5.66,0V608l4.63,0V610l-4.63,0v6l6.79,0V618l-15.47,0V616h6.63v-6h-4.45l0-2h4.42v-5.31h-5.5v-1.94Z"/><path class="cls-2" d="M1455.2,602.11v-4.29h2.94v4.29l-.67,10.21h-1.54Zm.11,12.31H1458v2.69h-2.69Z"/><rect class="cls-3" x="235.61" y="246.89" width="481.12" height="481.12" transform="translate(484.14 -193.93) rotate(45)"/><path class="cls-4" d="M358.66,458.64c-1.23-9-.87-17.59-.86-26.2a68.75,68.75,0,0,1,6.06-28.14c3.68-8.32,6.9-16.87,11.64-24.67a172.38,172.38,0,0,1,25.53-33c6.63-6.6,14.07-12.19,21.38-17.94a24.66,24.66,0,0,1,7.31-3.94c-1.52-1-3-.77-4.55-1.05,1.08-1.94-.27-3.09-1.32-4.38-5.36-6.53-10.75-13.07-14.26-20.83a94.41,94.41,0,0,1-7.77-25.56,21.87,21.87,0,0,1,.62-9.3A71.12,71.12,0,0,1,408,249.76a4.71,4.71,0,0,1,2.5-2.12,36.63,36.63,0,0,1,27.07-.8c3.37,1.15,6.58,2.28,8.25,5.85.69,1.47,2.19,2,3.84,1.73a2.76,2.76,0,0,0,2.66-2.23,113,113,0,0,1,5.12-16.45c3.33-8.45,6.76-16.86,13.79-23.12A21.37,21.37,0,0,1,486,207a7.6,7.6,0,0,1,4.42,1.31c3.67,2.52,7.38,5.1,10,8.7a38.49,38.49,0,0,1,6.11,14.2,24.16,24.16,0,0,1,.8,6.83,28.41,28.41,0,0,0,.41,6.9,24.71,24.71,0,0,1-.32,8.76,8.32,8.32,0,0,0-.16,2.8,2.85,2.85,0,0,0,4.87,1.53,5,5,0,0,0,.68-.89c5.31-8.67,12.22-16.1,18.54-24,3.15-3.93,5.68-8.39,9.11-12.12,6.43-7,11.87-14.84,18.73-21.47,5.42-5.24,12-8.6,18.69-11.63,3-1.36,6.53-.31,9.76.48,5.12,1.25,7.32,5.31,7.62,10.08.14,2.24,0,4.5,0,6.75,0,1.29.25,2.66-1.29,3.4-.24.11-.3.65-.39,1-1.53,6.05-2.78,12.18-5.6,17.84-2.47,5-5.61,9.54-8.35,14.36-1.73,3-3.64,6-5.43,9-.75,1.26-1.8,2.41-1.61,4.09,0,.34-.35.78-.63,1.1a170.3,170.3,0,0,0-12,15.84,185.68,185.68,0,0,0-10.3,15.85c-2.12,3.82-5.55,6.89-8.18,10.46-4.13,5.63-9.41,10.38-12.74,16.63-.56,1.05-.74,1.54.55,2,5.49,1.94,10.36,5.2,15.84,7.23,4.41,1.63,7.91,5,11.74,7.66a27.88,27.88,0,0,0,4.1,2.6,43.71,43.71,0,0,1,8.73,5.68c3.26,2.61,6.31,5.48,9.75,7.87a21,21,0,0,1,6.85,7.08,3.79,3.79,0,0,0,.81,1c4.18,3.64,6.63,8.56,9.83,12.93a138.93,138.93,0,0,1,13,21,3.1,3.1,0,0,0,3.8,1.92c4.69-1.13,9.56-.91,14.25-2.08,2.59-.65,5.35.05,8-.48,4.34-.86,8.84-1.17,13-2.52,3.63-1.17,7.16-2.83,10.82-4A108.7,108.7,0,0,1,675,378.8a14.17,14.17,0,0,1,4.3,0,34.19,34.19,0,0,0,7.3.09,4.91,4.91,0,0,1,5.43,4.65,8.47,8.47,0,0,1-1.44,5.71c-3.76,5.13-6.7,10.84-11.23,15.43-5.24,5.31-10.69,10.32-17.53,13.55a7.66,7.66,0,0,0-1.75,1.08,36.33,36.33,0,0,1-12.92,7.34,1.92,1.92,0,0,0-1.2.84c-1.07,2-3,2.7-5,3.36q-7.09,2.38-14.16,4.8c-3.1,1.06-3.69,1.83-3.78,5.13-.07,2.56-.18,5.13-.13,7.69A137.77,137.77,0,0,1,620,478.57c-2,10.15-3.84,20.34-6.56,30.33-1.9,7-3.49,14.09-6,20.83-3.24,8.79-5.73,17.94-10.56,26.11-1.65,2.8-1.51,2.91,1.11,4.76a123.21,123.21,0,0,1,10.62,8.32,2.49,2.49,0,0,0,2.9.4,25.47,25.47,0,0,0,11.67-9.57c1.69-2.4,3.42-4.78,5.11-7.18a7.38,7.38,0,0,0,1.67-3.31c.42-4.4,4-5.72,7.12-7.37,6.43-3.38,12.62-2.37,18.61,1.29a46.8,46.8,0,0,0,4.94,2.67,8.68,8.68,0,0,1,3.57,3.69,1.54,1.54,0,0,1,.09,1.41,45.59,45.59,0,0,1-11.82,20.33,85.62,85.62,0,0,0-8.27,9.94,40.77,40.77,0,0,1-7.24,7.56c-2.36,1.86-4.53,3.92-6.69,6a14.41,14.41,0,0,1-8,3.71c-3.82.56-7.72.6-11.58.84a12.12,12.12,0,0,1-5.49-1c-3.94-1.66-8.11-2.83-11.57-5.57-2-1.55-2.83-1.07-3.36,1.44-.78,3.66-1.46,7.34-2.32,11-1.29,5.44-3.2,10.61-6.79,15a2.43,2.43,0,0,0-.54,2.61c.25.57.76,1.27,1.41.67.91-.84,1.72-.43,2.6-.15a25.46,25.46,0,0,0,8,.81c6.13,0,12.26-.38,18.38.28a49.13,49.13,0,0,1,19.94,7.07,6.54,6.54,0,0,1,2.11,2.59c.59,1,1,.9,1.79.13,1.72-1.73,3.56-3.33,5.3-5s3.41-3.12,5.83-3.52a4,4,0,0,0,2.16-1.42,5.4,5.4,0,0,1,4.57-1.71,12.25,12.25,0,0,0,4.44,0,2,2,0,0,1,2.11.91c.57.8.2,1.56-.16,2.28a4.88,4.88,0,0,1-1.83,1.84c-6.6,4.33-12,10.06-18,15.18-3.33,2.88-6,6.54-9,9.83-1.09,1.21-2.19,2.41-3.35,3.54-2.2,2.15-3.51,2.28-6.13.61a8.21,8.21,0,0,0-2.84-.86A203.57,203.57,0,0,0,589.09,652c-5.48-.43-9.82.44-14.28,3.6-6.13,4.34-13.4,4.73-20.68,4.4-2.43-.11-4.86-.39-7.29-.57a4.48,4.48,0,0,0-3.24.49,1.83,1.83,0,0,1-1.64.12c-3.61-1.18-7.32-.7-11-.57a44.48,44.48,0,0,1-11.36-.84,29.81,29.81,0,0,0-5.21-.54,78.28,78.28,0,0,1-15.34-1.73,60.93,60.93,0,0,0-8.95-1.29c-4.44-.39-8.53-1.9-12.63-3.27-15.19-5.07-30.69-9.09-46-13.67a35,35,0,0,1-7-3.16c-2.89-1.61-4.22-.87-4.26,2.4-.05,4.5,0,9,0,13.51a21.25,21.25,0,0,1-2.77,10.55c-5.09,9.09-12.72,15-22.39,18.64A112.05,112.05,0,0,1,375,686c-2.45.43-2.92,1-2.47,3.44,1.5,7.94.5,15.66-1.81,23.29-.14.47,0,1.3-.79,1.15a1.25,1.25,0,0,1-.87-1.48c.19-2,.34-4,.63-6a11.25,11.25,0,0,0-.49-5.53,27.77,27.77,0,0,1-1.93-7.19c-.15-1.93-1.52-3.35-2.6-4.89-1.81-2.59-3.89-5.06-4.31-8.39-.3-2.39.21-3.4,2.49-4.1a6.65,6.65,0,0,0,4-2.85c1.13-1.75,3.12-2.46,5-3.19,3.2-1.27,6.49-2.33,8.43-5.52a2.18,2.18,0,0,1,1-.78c4.24-1.65,6-5.47,7.81-9.14s1.8-7.46,1-11.36c-.4-2-.78-4-1-6.09a5.86,5.86,0,0,0-3.77-5.13,69.85,69.85,0,0,1-19.64-12.36c-10-8.9-17.4-19.47-23.25-31.35A56,56,0,0,1,337.49,574c-.79-4.27-1.37-8.74.28-12.95,1.56-4,1.62-8.3,3.21-12.28s2-8.47,3-12.72c.39-1.7.76-3.41,1-5.13s1.66-2.67,2-4.33c.14-.7.76-1.46.71-2.34a5.34,5.34,0,0,1,.65-2.5,51.86,51.86,0,0,0,3.06-7.83,2.37,2.37,0,0,1,.21-.71,30.42,30.42,0,0,0,3.85-9.74,5.43,5.43,0,0,1,.77-1.47c1.41-2.5,1.24-3.27-1.5-4.07-3.57-1-6.7-3-10-4.49-3.6-1.64-6.39-4.27-9.09-7.1-5.6-5.86-9.58-12.82-12.88-20a42.06,42.06,0,0,1-3.18-23c1.06-8.68,3.36-17,5.77-25.31,1.11-3.85,3.66-7.07,5.51-10.6a2.34,2.34,0,0,1,1.89-1.06c3.64-.54,7.27-1.21,10.92-1.66,5.22-.64,10.45,3.28,12.28,9,1,3.23,1.05,6.32-.87,9.33a85.34,85.34,0,0,0-8.32,16.71c-2.6,7.12.49,13.75,7.72,16.11C356.08,456.36,357.12,457.54,358.66,458.64Z"/><path class="cls-4" d="M290.7,302.76a14.26,14.26,0,0,1-5.49-1c-3.58-1.39-4.63-4.74-2.41-7.84a13.48,13.48,0,0,1,10.65-5.76,52.11,52.11,0,0,0,7.59-1.1c.76-.16,1.5-.33,1.66-1.24s-.47-1.24-1-1.64c-1.8-1.25-3.65-2.41-5.4-3.72-2.64-2-2.39-4.35.6-5.77,4.17-2,8.7-2.59,13.17-3.43l12.87-2.4a12.67,12.67,0,0,0,4.15-1.65c3.87-2.31,6.78-.78,7.18,3.77a6,6,0,0,1-.33,3,6.12,6.12,0,0,0-.39,1.24c-.82,4.34.59,5.63,4.67,4.27,3.78-1.26,7.32-3.17,11.22-4.13,2.2-.54,4.37-.84,5.94,1.34,1.31,1.81,1.1,4.93-.43,7a12.18,12.18,0,0,1-7,4.76c-5.24,1.36-10.44,2.91-15.87,3.44a3.38,3.38,0,0,1-3.9-2c-1.56-3.13-1-6.33-.57-9.55,0-.25.14-.48.18-.73.68-3.86-.25-4.78-4.11-4.26-3.4.46-6.82.79-10.23,1.23-2.51.33-4.73,1.52-7,2.57-1,.45-.86,1.17-.26,1.81.9.95,1.87,1.84,2.86,2.7a32.88,32.88,0,0,1,4.9,5.16c1.12,1.52.93,2.67-.59,3.62-3.65,2.29-7.27,4.62-11,6.8A23.65,23.65,0,0,1,290.7,302.76Z"/><path class="cls-4" d="M728.05,305.64a23.88,23.88,0,0,1-12.2-4.8c-1.11-.81-2.17-1.7-3.2-2.6s-1.91-.87-2.45.64a44.76,44.76,0,0,0-2.07,8.72,109,109,0,0,1-2.25,11,8.23,8.23,0,0,1-4.34,5.59,5.91,5.91,0,0,0-1.8,1.31c-4.45,5-10.24,7.65-16.61,9.18-1.93.47-3.81,1.23-5.85,1.16-3.18-.1-3.89-1.09-3-4.12a11,11,0,0,1,2.87-5C683,321,689.39,316.12,697.94,315c2.56-.33,3.8-1.91,4.1-4.66a102.69,102.69,0,0,1,3.36-16.1c1.22-4.48,4.54-5.49,7.92-2.26a27.76,27.76,0,0,0,8.86,5.8,10.4,10.4,0,0,0,7.13.4,4.39,4.39,0,0,1,2.75,0c1.31.43,2.9.76,3,2.39a4.25,4.25,0,0,1-2.45,4.1A12.8,12.8,0,0,1,728.05,305.64Z"/><path class="cls-4" d="M256.17,605.71A31.85,31.85,0,0,0,258,617.47c1.81,5,3,10.28,5.08,15.22.86,2,.24,3.82-1,5.59-4.9,6.85-11.61,10.74-19.72,12.54-2.56.57-5,1.39-7.72.73-2-.49-2.4-1.05-1.88-3a19.32,19.32,0,0,1,9.89-12.33,75.35,75.35,0,0,1,10-4.2c3.61-1.37,4.24-2.76,3.24-6.46-1.2-4.44-3.12-8.69-3.88-13.24-.57-3.37-.65-6.83-.92-10.25a3.27,3.27,0,0,1,.69-2.28,2.54,2.54,0,0,1,2.55-1.22c1.1.18,1.51,1,1.81,1.94C256.68,602.22,256.14,604,256.17,605.71Z"/><path class="cls-4" d="M262.43,456.81A41.37,41.37,0,0,1,266,444a63.26,63.26,0,0,1,6.88-11.76c2.08-2.94,4.65-2.95,6.89-.11a7.62,7.62,0,0,1,.88,8.9c-2.82,5.41-5.76,10.76-7.82,16.54a24.07,24.07,0,0,0-1.43,8.62,26.06,26.06,0,0,1-.26,3.73,8.57,8.57,0,0,0,4,8.66,6.18,6.18,0,0,1,2.41,2.28c.84,1.77.09,3.1-1.89,3.26a7,7,0,0,1-6.38-2.78,28.88,28.88,0,0,1-6-16C263.06,462.59,262.75,459.93,262.43,456.81Z"/><path class="cls-4" d="M695.66,455.49a15.26,15.26,0,0,0,10.89-4.67c4-3.84,8-7.74,11.69-11.89a28.79,28.79,0,0,0,4.13-6.43,3.13,3.13,0,0,0,.21-2.88c-.6-1.21.1-1.73,1-2.19a4.78,4.78,0,0,1,5.22.88,3.65,3.65,0,0,1,1,4.57c-4.44,10.63-10.63,19.75-21.43,24.92a10.7,10.7,0,0,1-4.49,1.15,19.89,19.89,0,0,0-5.36.67c-1.69.5-4.69-1.16-5.3-2.78a.87.87,0,0,1,.8-1.33A14.44,14.44,0,0,1,695.66,455.49Z"/><path class="cls-4" d="M703.35,671.18a5.64,5.64,0,0,1-1.79,4c-7.19,7.75-15.9,13.44-25.16,18.36a12.77,12.77,0,0,1-5.06,1.22c-.8.06-1.74.26-2.16-.65a2.68,2.68,0,0,1,.22-2.51c.71-1.27,2-1.64,3.23-2.07,6.15-2.19,11.7-5.31,16-10.34A27.51,27.51,0,0,0,695.34,664c.29-2.59,2.32-3.5,4.68-2.35a2,2,0,0,1,1.4,2,8.09,8.09,0,0,0,1.4,5.13A4.48,4.48,0,0,1,703.35,671.18Z"/><path class="cls-4" d="M684.47,657.28a7,7,0,0,1-1,3.54,26.8,26.8,0,0,1-7.79,9,79,79,0,0,1-11.45,7.43,14.54,14.54,0,0,1-12.9.62c-.66-.28-1.06-.67-1-1.39s.8-1.11,1.48-1.21c6.13-1,11.31-4,16.47-7.23A23.33,23.33,0,0,0,678,655.85a15.72,15.72,0,0,1,.77-1.9,2.52,2.52,0,0,1,4.32-.45A5.26,5.26,0,0,1,684.47,657.28Z"/><path class="cls-4" d="M698.35,416.78a4.19,4.19,0,0,1,4,2c.72,1.23,0,2.38-.67,3.47-1.63,2.65-3.22,5.33-4.86,8-3.32,5.36-8.49,8.08-14.28,9.84a4.28,4.28,0,0,1-3.74-.73c-1-.69-2-1.56-1.84-2.83.16-1.1,1.51-.92,2.35-1.14a16.46,16.46,0,0,0,8.72-5.79c1.36-1.63,2.71-3.27,4.15-4.82a8.37,8.37,0,0,0,2.65-5.19C694.91,417.79,696.36,416.81,698.35,416.78Z"/><path class="cls-4" d="M280.68,464.25a11.57,11.57,0,0,1,2.4-6.76,4,4,0,0,1,4.93-1c1.59.85,1.54,2.24,1.2,3.74-.55,2.36-1,4.76-1.64,7.09a3.22,3.22,0,0,0,1.1,3.51L291,473a1.94,1.94,0,0,1,.45,2.67c-.6,1-1.4,1-2.4.68C283.24,474.66,280.77,471.11,280.68,464.25Z"/><path class="cls-5" d="M481.17,469a3,3,0,0,1,3.41-1.85c6.22.51,12.42.86,18.66-.31,5.39-1,10.86-1.7,16.33-2.25,4.21-.42,6.84-3,9.4-5.89a2.24,2.24,0,0,0,.51-1c.84-4,1-8-1.14-11.79-1.32-2.33-3.51-3-6-3.18-2.73-.16-3-.47-2.48-3.22a27.46,27.46,0,0,0,.47-3c.13-1.9,1.22-2.22,2.84-2,8.84,1.29,17.68,2.55,26.57,3.42a14.51,14.51,0,0,0,1.86.2c10-.33,19.84,1.2,29.76,1.54,7.77.27,15.56.56,23.34-.24a38.32,38.32,0,0,1,6.37.06c2.48.16,3,.79,3.13,3.25a84.68,84.68,0,0,1-1.12,20.74,231.8,231.8,0,0,0-3.72,25,59.41,59.41,0,0,1-4.12,16.08c-2.55,6.61-3.64,13.59-5.63,20.34s-4.28,13.4-6.72,20a50.43,50.43,0,0,1-6.31,11.22c-2.41,3.46-2.17,6.39.8,9.4a8.89,8.89,0,0,0,2.15,1.8c6.11,3.1,11.16,7.74,16.87,11.42a6.31,6.31,0,0,0,7.09.15c5.06-3.3,10.26-6.48,14.43-11a30.49,30.49,0,0,0,5.93-8.14c1.32-3,4.09-4.89,5.7-7.62a4.87,4.87,0,0,1,4.85-2.36,32,32,0,0,1,5.36.82c3.83.8,5,3.76,2.81,7.06-2.78,4.13-5.41,8.29-9.4,11.57a60.85,60.85,0,0,0-7.14,7c-1.05,1.21-1.22,3-3,3.77-4,1.61-6.41,5.35-10.49,7.12-9.49,4.11-17.89,2.4-25.85-3.4a21.93,21.93,0,0,1-6.76-8.16c-.4-.81-.46-2.31-1.9-1.72-1.27.52-2.73,1.65-2.16,3.1.85,2.15,0,3.79-.86,5.45-5.5,10.84-8,22.64-10.85,34.3-.43,1.76-1.26.55-1.66.3a34.29,34.29,0,0,0-8-4,50.88,50.88,0,0,0-16-2.54,28.64,28.64,0,0,1-8.26-1.53c-6.35-1.83-12.84-1.79-19.34-1.77-2,0-3.35,2-3.51,5a3.12,3.12,0,0,0,3.12,3.28,18.8,18.8,0,0,0,3.55-.13,32.36,32.36,0,0,1,12.24.7,90.39,90.39,0,0,0,18.78,3.23,10.77,10.77,0,0,1,5.11,1.65c4.5,2.81,9,5.67,13.49,8.45a5.1,5.1,0,0,1,2.55,3.92c.24,2,.33,4,.51,6a2.27,2.27,0,0,1-.46,1.57,7.46,7.46,0,0,0-.93,1.4c-2.07,5.07-6.46,6.94-11.27,8.24a5.13,5.13,0,0,1-1.28.23c-6.56,0-13.13.17-19.69.07-7.58-.11-15-1.59-22.53-2.5-4-.49-8-1.12-12.05-1.71a27.94,27.94,0,0,1-6-1.54,78.7,78.7,0,0,0-13.64-3.92c-3.92-.74-7.75-1.85-11.69-2.46a6.29,6.29,0,0,1-2.67-.82c-1.77-1.2-3.59-2-5.78-1.12-.24.1-.61,0-.9-.13a190.55,190.55,0,0,0-25.43-5.34c-4.71-.7-9.1-2.6-13.74-3.56-1.54-.32-1.58-1.37-.87-2.56a22.52,22.52,0,0,0,3.31-7.67c.68-3.91-.42-7.56-1.27-11.26-.4-1.76-1.09-3.47-1.34-5.25-.67-4.7-3.11-8.54-5.88-12.15-3.21-4.17-7.91-5.19-12.87-5.21a1.28,1.28,0,0,0-1.11,2c1.28,2.29,2.09,5,4.95,6a4.59,4.59,0,0,1,2.1,1.83c1.76,2.58,4.18,5,5,7.84,1.21,4.19,1.65,8.9-.09,13-1.49,3.55-5,5.44-8.64,6.71a42.13,42.13,0,0,1-29,0,38.18,38.18,0,0,1-16.25-11.37c-6.91-8.18-13.14-16.87-17.6-26.64a32.9,32.9,0,0,1-3.16-18c1.39-11.11,5.87-21.19,10.2-31.32a140.19,140.19,0,0,1,8.27-15.66,112.86,112.86,0,0,0,8.21-18,3.63,3.63,0,0,0-2.23-4.41,7.49,7.49,0,0,1-3.58-2.84,4.88,4.88,0,0,0-1.79-1.3c-6.4-3.56-12.54-7.47-17.76-12.71a68.87,68.87,0,0,1-6.6-7.16c-2-2.7-4-5.39-6.22-8-3.93-4.63-5.51-10.4-7-16.16a19.76,19.76,0,0,1-.09-7.25c.9-8.07,4.92-14.69,9.55-21a16.18,16.18,0,0,1,4.45-3.71c1.38-.9,2.88-1.75,4.46-.52s2,4.21,1.11,5.88c-.77,1.43-1.64,2.8-2.46,4.2a47.52,47.52,0,0,0-6.74,18.69,19.51,19.51,0,0,0,4.48,15,32.26,32.26,0,0,0,7.27,6.73c4.84,3.2,9.77,6.28,14.65,9.42a5,5,0,0,0,5.64.27c2-1.21,2.45-3.19,2.39-5.37a3.4,3.4,0,0,0-2-3c-3-1.55-4.55-3.43-4.15-7.29.46-4.36-.63-8.82-.75-13.27-.22-7.74,2-15,3.5-22.5,2.15-10.65,6.92-20.1,12.4-29.28,5-8.46,9.5-17.28,15.27-25.31a40.18,40.18,0,0,1,3.5-4.62c8.45-8.76,16.53-17.83,26.61-25,6.76-4.79,14-8.55,21-12.88,4-2.46,8.61-3.22,13.16-4,4.73-.83,9.46-1.7,14.21-2.36A28.4,28.4,0,0,1,488.84,322a2.92,2.92,0,0,0,3,0,3.26,3.26,0,0,1,2.56-.06c7,1.59,14.1,2.61,21.07,4.21,7.68,1.77,15.34,3.63,22.54,7.21,4.89,2.43,9.87,4.76,14.87,7a28.74,28.74,0,0,1,6.7,4.07c10.71,8.94,21,18.27,29.55,29.43a14.84,14.84,0,0,1,2.06,3.34c2,4.78,4,9.55,5.85,14.36,1.05,2.67.74,3.41-2,4-1.81.37-3.24,1.59-5,1.84a98.34,98.34,0,0,0-10.9,2.42,62.34,62.34,0,0,1-10.86,2.1c-9.43.69-18.92,1.25-28.13,3.77-7.12,1.94-14.33,1.32-21.59.68a109.54,109.54,0,0,1-14.44-2c-4.75-1.07-9.51-2.46-14.14-4a33.14,33.14,0,0,1-9.61-4.46,5.84,5.84,0,0,0-5.2-.84c-2.66.77-5.55,1.11-7.27,3.74-.13.2-.43.49-.57.45-2-.56-2.46,1.14-3.17,2.25-1.38,2.16-2.79,4.29-4.34,6.33a11.57,11.57,0,0,0-2.53,5.48c-.4,2.65-2,5.09-2.73,7.71-2.43,8.61-3.55,17.25.5,25.75,1.77,3.72,3.89,7.14,7.92,8.83.37.15.75.35.81.71.34,2,2,2.48,3.53,3.21,4.26,2.07,8.09,5,12.54,6.67C481.18,466.62,480.15,468.08,481.17,469Z"/><path class="cls-6" d="M560.28,206.89a32.76,32.76,0,0,1,27.08-10.24c1.8.14,2.62,1,2.61,2.91a14.85,14.85,0,0,1-1.2,6.55c-2.11,4.4-2.91,9.31-5,13.71-5.09,10.71-10.29,21.36-16.86,31.29-7.76,11.74-16.16,23-24.65,34.22a11.88,11.88,0,0,1-1.89,2.08c-7,5.7-12.17,13.05-18,19.82a39.17,39.17,0,0,1-2.81,3,4.56,4.56,0,0,1-4.29,1.41c-4.11-1.1-8.28-1.07-12.47-1a2.16,2.16,0,0,1-.78-.8c-1.28-4.62-.28-8.92,2-13a18.88,18.88,0,0,0,2-4.4,13.58,13.58,0,0,1,1.75-3.72,17.3,17.3,0,0,0,2-4.24,8,8,0,0,1,.91-2.25c2.55-3.65,4-7.87,6.17-11.76,2-3.71,4.19-7.37,6.27-11,2.36-4.17,4.49-8.51,7.5-12.29a14.58,14.58,0,0,0,1.59-2.75,18.21,18.21,0,0,1,2.77-4.22,17.62,17.62,0,0,0,2.53-3.71,39,39,0,0,1,3.54-5c2.29-3.12,4.78-6.06,7.13-9.12,3.08-4,6-8.08,9.39-11.86A14.56,14.56,0,0,0,560.28,206.89Z"/><path class="cls-7" d="M523.71,453.9a52,52,0,0,0-9.47,3.18,8.1,8.1,0,0,1-4.21.73c-3.39-.27-6.73.36-10.09.6a53.27,53.27,0,0,1-22.29-3,6.63,6.63,0,0,0-1.6-.52c-5.6-.5-9.33-3.82-12.45-8.12a11.48,11.48,0,0,0-1.4-1.76c-4.11-3.8-4.46-8.53-2.94-13.43,2-6.54,4.32-13,8.38-18.67,3.43-4.78,8-6.32,13.64-4.8,8.67,2.34,17.41,4.41,26.26,5.95a100.72,100.72,0,0,0,28,.74c12.3-1.31,24.53-3.16,36.84-4.39,8.25-.82,16.53-1.65,24.63-3.6a.64.64,0,0,1,.19,0c7.13.44,13.6-2.89,20.54-3.58,16.18-1.61,30.91-8.55,46.39-12.74a6,6,0,0,1,2.55-.28c2.68.4,5.18-.56,7.73-1.12a29.55,29.55,0,0,1,3.48-.66c.67-.07,1.59-.45,2,.4s-.13,1.42-.6,2c-1.21,1.59-2.42,3.18-3.58,4.81a30,30,0,0,1-7.69,7.57c-2.89,2-5.62,4.17-8.41,6.29a17.68,17.68,0,0,1-4.69,2.7,11.9,11.9,0,0,0-4.63,2.73,8.3,8.3,0,0,1-3.4,1.93c-5,1.64-9.68,4.27-14.6,6.24-2,.78-3.48,1.56-5.51.8a1.57,1.57,0,0,0-1.42.23c-1.13,1.55-2.68,1.07-4.1.95-4.23-.35-8.32.71-12.49,1a65.41,65.41,0,0,1-10.24-.36c-6-.52-12.15-2.2-18.18-1.18s-12-1-18-1.11c-4.48-.11-8.92-1.19-13.45-.63-2.22.28-4.25-.82-6.42-1.08-6.4-.77-12.84-1.08-19.27-1.32a143.51,143.51,0,0,1-29.45-4c-4-1-8-1.71-12-3a9.65,9.65,0,0,0-5.18-.27,4.58,4.58,0,0,0-3,2.31c-4.6,7.42-5.47,15.85-6.37,24.18-.29,2.71,1.35,5.54,3.66,7.47,3.44,2.88,7.84,3.39,11.92,4.66,1.19.37,2.42.59,3.62.94,2.23.65,4.41,1.26,6.76.32a4.8,4.8,0,0,1,2.6-.11c5.73,1.16,11.14-.59,16.63-1.68a35.16,35.16,0,0,1,5.71-1C521.09,450.15,522.46,451,523.71,453.9Z"/><path class="cls-6" d="M475.44,220.78c3.91-2.75,8.26-3.3,12.85-2.5a5.54,5.54,0,0,1,4.39,3.42c2.26,5.36,4.31,10.91,5,16.6a58.17,58.17,0,0,1,.15,16.06c-1.19,7.89-2.1,15.82-3.67,23.65-1,5-2.8,9.71-4.07,14.59-1.62,6.22-4.67,11.82-7.31,17.6a3.78,3.78,0,0,1-3.87,2.38c-4.25-.12-8.33.87-12.48,1.7-3.33.66-6.77,1.74-10.3,1a2.41,2.41,0,0,1-2.19-2.76c.09-1.68-.23-3.37.17-5a109.19,109.19,0,0,1,1.39-11.27,12.46,12.46,0,0,1,.26-2.23c1.49-4.46,1.77-9.18,3.13-13.69a74.9,74.9,0,0,0,1.86-8.57c.74-4.19,2.38-8.16,2.79-12.41.24-2.5,1.34-4.8,1.95-7.22,1.27-5.07,2.44-10.18,4.19-15.14,1.28-3.64,2.39-7.35,3.66-11A23.4,23.4,0,0,1,475.44,220.78Z"/><path class="cls-6" d="M419.3,255c12.32-4.66,22.84,4.26,25.3,14.79a146.35,146.35,0,0,1,2.85,15,142.72,142.72,0,0,1,1.23,23.45c-.07,1.67-.23,3.35-.3,5a3.58,3.58,0,0,1-2.47,3.41,27.76,27.76,0,0,1-10.11,2.46c-1.77,0-3.13-.67-3.68-2.32-1.17-3.55-3.3-6.57-5-9.81-1.87-3.79-1.78-8-2.33-12a129.08,129.08,0,0,1-1.58-13c-.13-3.67-.8-7.32-1.28-11C421.17,265.67,420.69,260.23,419.3,255Z"/><path class="cls-8" d="M560.28,206.89c.27,1.45-.81,2.25-1.62,3.1-3.84,4-6.89,8.64-10.17,13.09-1.25,1.7-2.93,3.1-4.11,4.84-1.29,1.91-2.84,3.66-4.05,5.56-2.64,4.14-5.61,8.06-8.17,12.26-2.13,3.49-4.11,7.09-6.44,10.47a6.19,6.19,0,0,0-.75,1.07c-1.77,4.34-4.64,8.07-6.78,12.22-1.87,3.63-3.54,7.39-5.7,10.89a6.92,6.92,0,0,0-.84,1.45c-1.32,4.24-4.09,7.83-5.36,12.1a5.34,5.34,0,0,1-.68,1.53,18.47,18.47,0,0,0-3.2,14.38,2.67,2.67,0,0,1-2.84.32,16.1,16.1,0,0,1-2.42.08c-2.82-.32-3.9-2.17-3.13-4.91a125,125,0,0,1,8.41-21.59c3.49-7,7.2-14,12.7-19.79,3.81-4,6.81-8.78,10-13.32a393.17,393.17,0,0,1,27.73-35.32C555.36,212.53,557.61,209.53,560.28,206.89Z"/><path class="cls-8" d="M475.44,220.78a35.6,35.6,0,0,1-2.19,7.76,22.7,22.7,0,0,0-2.12,6.55,8.77,8.77,0,0,1-1,2.81,14.35,14.35,0,0,0-1.62,5.34c-.11,2.06-1.34,3.79-1.63,5.72-.65,4.32-2.17,8.4-3,12.67-.81,4-1.88,8-2.8,12-1.08,4.65-2.48,9.25-3,14-.16,1.52-.91,2.88-1.08,4.34-.59,4.87-2.26,9.57-2.32,14.52,0,.42.09.9-.53,1,.05-3.31.08-6.61.17-9.92.26-9.24.21-18.49.69-27.72a30.9,30.9,0,0,1,1.16-6.81,40.8,40.8,0,0,0,1.6-7.69,5.33,5.33,0,0,1,.47-1.8c2.46-5.22,3.9-10.77,5.59-16.26C465.89,230.6,469.31,224.69,475.44,220.78Z"/><path class="cls-8" d="M419.3,255c1.27.23,1.08,1.34,1.29,2.19a102.54,102.54,0,0,1,2,13.62c.45,4.06,1,8.13,1.43,12.21.45,4.74,1,9.5,1.89,14.2.63,3.24.82,6.56,1.2,9.84-5.22-6.31-8.73-13.63-12.21-21a11.41,11.41,0,0,1-1-4.16c-.46-6.83-1.44-13.66-.3-20.52A7.64,7.64,0,0,1,419.3,255Z"/><path class="cls-7" d="M390.65,672a30.24,30.24,0,0,1,2.81-5.13,44.83,44.83,0,0,0,6.9-16.22,8.21,8.21,0,0,0-.15-4.61,23.27,23.27,0,0,1-.8-5.54c-.1-1.15.4-1.79,1.6-1.78h.19c4.77.14,6.08-1.21,6.8,5.45.49,4.47,1.07,8.92.58,13.43a9.19,9.19,0,0,1-3.15,6.15,73.88,73.88,0,0,1-8.74,6.4A11.86,11.86,0,0,1,390.65,672Z"/><path class="cls-9" d="M592.25,638.64c-1.43.08-2.87.16-4.3.23-.62,0-1.37.09-1.56-.68a17.62,17.62,0,0,1-.66-4.61c0-.73.7-.6,1.13-.71,2-.47,3.95.31,5.88.75,7.33,1.7,14.66,3.39,22,5.21a79.16,79.16,0,0,1,10.7,3.88c.44.18,1.33.33.67,1.11-.46.53-.72,1.87-1.73,1.23-4.53-2.87-9.85-2.44-14.78-3.63-4.59-1.11-9.17-2.4-13.92-2.71-1.12-.07-2.25,0-3.37,0C592.25,638.67,592.25,638.66,592.25,638.64Z"/><path class="cls-10" d="M496.2,436.09c0,2.49.07,5,0,7.48s-1,3.19-3.47,2.94c-1.61-.17-3.2-.45-4.8-.71-1-.16-1.76-.73-1.31-1.77,2.19-5,2.33-10.55,4.47-15.54a3.24,3.24,0,0,1,4.91-1.09c.45.42.26.93.27,1.4,0,2.43,0,4.86,0,7.3Z"/><path class="cls-5" d="M501.49,444.31a12.71,12.71,0,0,1,1.31-4.71,7.57,7.57,0,0,0,.85-5,8.55,8.55,0,0,1,.65-4.21,1.39,1.39,0,0,1,2.08-.91,20.18,20.18,0,0,0,2.23.93c2.83.86,4.32,2.51,3.55,5.64a3.11,3.11,0,0,0,.1,1.48c.25.91,1.65,2.09-.69,2.25-.35,0-.22.65-.27,1-.38,2.74-.39,2.7-3.22,2.89C505.93,443.79,503.78,444.07,501.49,444.31Z"/><path class="cls-5" d="M481.21,423.21c.43.08.86.15,1.28.25,2.83.72,2.71.71,2.42,3.63-.39,3.93-.91,7.77-3.16,11.17a8.64,8.64,0,0,0-.83,3.42c-.24,1.42-1,1.54-2.08.75-2.44-1.7-3.52-3.65-2.47-6.8s1.31-6.83,2.38-10.15C479.11,424.32,479.48,423,481.21,423.21Z"/><path class="cls-11" d="M361.69,511.46a.77.77,0,0,1-.46-1.17c1-1.44,1.24-3.22,2.13-4.71a2.59,2.59,0,0,1,1.32-1.25c.42-.14.85,0,.62.51-1.06,2.16-2.18,4.29-3.3,6.43C362,511.36,361.81,511.39,361.69,511.46Z"/><path class="cls-12" d="M499.56,310.18l2.84-.32.4.75C501.72,310.5,500.43,311.89,499.56,310.18Z"/><path class="cls-13" d="M521.55,325.77l4.7,1.27A4.26,4.26,0,0,1,521.55,325.77Z"/><path class="cls-4" d="M526.56,372.87c-3.09.05-5.68-.7-7.53-3.2s-2.24-5.73-.72-7.87c1.72-2.42,4.41-2.55,7-2.51a4.6,4.6,0,0,1,4.37,2.91c.76,1.63,1.83,3.11,2.72,4.68,1,1.78.83,2.43-.85,3.53a3.73,3.73,0,0,0-1.15.92A3.15,3.15,0,0,1,526.56,372.87Z"/><path class="cls-4" d="M486.29,359.2a5.65,5.65,0,0,1-1.85,4.54c-1.17,1-2.33,2.07-3.43,3.18a1.77,1.77,0,0,1-2.64.3c-1.27-1-2.51-2-3.75-3.09a2.69,2.69,0,0,1-.84-1.43c-1.09-4,1.62-9.1,5.56-10.38.45-.14.86-.5,1.36,0,1.58,1.51,3.24,2.93,4.75,4.5A3.2,3.2,0,0,1,486.29,359.2Z"/><polygon class="cls-14" points="1828.24 420.59 1830.47 492.8 1865.43 455.61 1828.24 420.59"/><polygon class="cls-14" points="92.54 516.69 90.31 444.47 55.35 481.66 92.54 516.69"/><rect class="cls-15" x="958.11" y="678.28" width="150.47" height="53.38"/><rect class="cls-15" x="1128.02" y="678.28" width="165.06" height="53.38"/><path class="cls-2" d="M1003.59,719.6c-4.9-.3-9.62-.89-13.58-2.88-.22.11-.51.35-.83.57a19,19,0,0,1-7.73,2.56L980.22,718a29,29,0,0,0,7.84-2.37,18.86,18.86,0,0,1-3.91-3.45l1.56-1.05a35.61,35.61,0,0,0,3.93,3.07,7.63,7.63,0,0,0,1.48-3.4h-7.33l0-10h7.73v-2l-10.56,0V697h23v1.91l-10.43,0v2h7.49v10h-7.87a9.4,9.4,0,0,1-1.75,4.42c2.69,1.46,9.19,2.18,13.42,2.26Zm-17.76-14.74h5.74v-2l-5.74,0Zm0,4,5.58,0,.11-2.13h-5.69Zm7.71-2.1-.13,2.13h5.71v-2.13Zm5.55-4h-5.47l0,2.08h5.5Z"/><path class="cls-2" d="M1011,711.78c5-1.83,8.81-4,11.59-7.6-3.72,2.37-8.62,3.88-13,4.9l-1.29-1.81a60.42,60.42,0,0,0,8.41-2.42,9.61,9.61,0,0,0-3-2.26l1.89-1.21a12.16,12.16,0,0,1,3,2.67,21.43,21.43,0,0,0,5.36-3.83h-7.41a28.12,28.12,0,0,1-5.9,3l-1.78-1.67a20.53,20.53,0,0,0,10.4-6.52l1.89,1a22.8,22.8,0,0,1-2,2.16h7.6V700a21.2,21.2,0,0,1-3.8,3.83l1.59.86a11.84,11.84,0,0,1-1.43,1.91l7.28,0,0,1.81c-4.39,8.46-14.82,10.21-20.78,11.32l-1.35-1.86a52.6,52.6,0,0,0,12.07-3.18,10.16,10.16,0,0,0-3-2.69l1.94-1.1a8.48,8.48,0,0,1,2.78,2.94,13.78,13.78,0,0,0,5.85-5.17h-6.9a30.68,30.68,0,0,1-8.51,4.85Z"/><path class="cls-2" d="M1041.62,702.3a22.24,22.24,0,0,1-5.9,4.29l-1.24-1.7a12,12,0,0,0,5.77-3.85Zm7.22,13.37-4.82,0,1.13,1.32a23,23,0,0,1-9.57,2.78l-1.05-1.94a22.15,22.15,0,0,0,9.05-2.1l-5-.05,0-10.64h3.75l-.94-1.72c3.5-.24,6.71-1.59,7.38-4l-2.88,0a9.73,9.73,0,0,1-2.59,2.56l-1.72-1.21a10.8,10.8,0,0,0,4.37-5.34l1.56.7a4.82,4.82,0,0,1-.43,1.32H1057a16.43,16.43,0,0,1-1.83,4.53l-1.75-.89a4.32,4.32,0,0,0,1-1.67l-3.58,0c-.19.43-.38.86-.57,1.21,1.89,1.89,3.93,2.72,8,3.07l-1,1.89c-3.42-.57-5.69-1.24-8-3.4a9.65,9.65,0,0,1-5.82,2.86l10.94.05,0,10.67-3.66,0a25.51,25.51,0,0,1,7.41,2.45l-1.13,1.7a21.81,21.81,0,0,0-9.19-2.59Zm-12.34-19.43a11.81,11.81,0,0,1,4.55,2.75l-1.21,1.54a10.05,10.05,0,0,0-4.61-2.75Zm15.82,13.45-11.72,0v1.27h11.72Zm-11.69,4.12,11.69,0v-1.16H1040.6Zm11.69-6.9-11.69,0v1.05l11.69,0Z"/><path class="cls-2" d="M1071.35,699.39v1.89l-10.16,0v-1.89h4.72a17.63,17.63,0,0,0-2.78-3l1.75-1.19a18.52,18.52,0,0,1,3.4,3.58l-.86.51Zm-9.08,3.42,8.41,0v1.89l-8.43,0Zm.05,3.58,8.3,0v1.91h-8.33Zm.24,3.93h7.81v8.87l-2,0v-1.81h-3.72v1.78l-2.1.05Zm2,5.2,3.83,0,0-3.26h-3.83Zm21.15-2a31.83,31.83,0,0,1-1.7,5.61,1.59,1.59,0,0,1-2.21.24,5.85,5.85,0,0,1-1.05-3.1,77.31,77.31,0,0,1-.46-17.43l-9.35,0,0-2h11.53l-.22,3.29c-.13,2-.16,4.47-.19,6.6-.05,3,.46,10.56.92,10.43a29.51,29.51,0,0,0,.75-4.58Zm-14.55-5.63v-2l3.1,0,0-6.09,2.08-.05v6.14l3.5,0v2l-3.45,0v11.48h-2.1V707.88Z"/><path class="cls-2" d="M1182.85,715.58h-22v-2h10.64a26.78,26.78,0,0,0,5-12.88l2,.86a28.26,28.26,0,0,1-4.61,12h9Zm-11-17.33a9,9,0,0,0-4.39-3.61l1.72-1.4a10.53,10.53,0,0,1,4.55,4l-1.43,1,9.3,0v2H1162v-2Zm-3.31,14.31c-.35-3.61-1.72-8.33-4.26-11l1.89-.92c2.56,2.75,4.18,7.52,4.42,11.29Z"/><path class="cls-2" d="M1195.92,708.36a21.77,21.77,0,0,1,4.55,6.92c-.67.3-1.13.54-1.83.78a17.3,17.3,0,0,0-1.64-3.18c-2,.89-4.63,2.1-7.22,3.5l-1.8-1.54c.81-.4,1-.73,1-1.51V694.83h9.78V707.3l-7.65,0-.05,6.14,4.8-2.24c-.35-.46-.94-1.13-1.7-1.94ZM1191.1,702l-.05,3.34h5.63V702Zm0-2,5.58,0v-3.15h-5.61Zm13.2,11.24a12.1,12.1,0,0,0,2.51-.08c.35-.13.46-.54.46-1l0-13.07h-4.47l0,20.8h-2.07v-22.8l8.68,0v16.09a2.26,2.26,0,0,1-1.54,1.94,13,13,0,0,1-3,.16Z"/><path class="cls-2" d="M1216.92,705a12.22,12.22,0,0,1-2,.67l-1-1.59a10,10,0,0,0,4.5-1.78,13.05,13.05,0,0,0-2.86.4l-1.08-1.54c1.32-.86,2.56-1.64,3.15-2.13a8,8,0,0,0-2.26.32l-1.05-1.51a9.8,9.8,0,0,0,4-4.2l1.46.92a10.48,10.48,0,0,1-2.21,2.75l1.78-.11.81-1.1,1.38.92c-.46,1.27-2.21,2.7-3.23,3.53l1.59-.05a3.37,3.37,0,0,0,.38-1.27l1.54.62v-4.58h2.91a3.59,3.59,0,0,0-1.67-1.08l2.29-.86a6.17,6.17,0,0,1,1.38,1.94h2.8v6l-.75,0a10,10,0,0,1,1.64,3l-1.8.54a3.26,3.26,0,0,0-.24-1.05l-2.45.24.35.89h8v1.91l-3.07,0a11.46,11.46,0,0,1-.84,1.24h7v1.91h-23.55V708h7.63a6.15,6.15,0,0,0-1.29-1.24l-3.29,0Zm7.41-.13c-.16-.16-.27-.4-.48-.67l-1.86.19-1-1.4c.65-.27.76-.48.84-1.05l0-1.59a8.89,8.89,0,0,1-4.55,4.47Zm7,12.8,0-1.16h-11.13v1.16h-2l0-7.11,15.22,0v7.14Zm-11.13-4.9h11.1v-.57h-11.13Zm0,1.51,0,.65h11.1v-.65Zm7.92-6.28a7.33,7.33,0,0,0,.89-1.21l-6.14,0a12.94,12.94,0,0,1,.73,1.24Zm-.54-11h-3.8v.54h3.8Zm-3.8,1.91,0,.75,3.77,0v-.78Zm0,2.37,0,1.35,3.72-.4a3.92,3.92,0,0,1-.59-.7l1.35-.19Zm9,.51c1.16.38,2,.59,2.26.35.19-.46-.3-1.11-.67-1.64a4.33,4.33,0,0,0-1.24-1l1.46-3h-1.89v8.19l-1.91,0V694.8h5.9l0,1.51-1.35,2.59a3.69,3.69,0,0,1,1.38,3.85,1.9,1.9,0,0,1-1.78,1.11,10.83,10.83,0,0,1-1.72-.27Z"/><path class="cls-2" d="M1252.09,695.45a11,11,0,0,0-1.75-1.19l1.89-1.1a16.45,16.45,0,0,1,2.4,2.29h9.68v1.91h-11.16l1.43.54a14,14,0,0,1-.67,1.7h2.94a8.78,8.78,0,0,0-1.21-1l1.67-1a8.62,8.62,0,0,1,1.91,2h4.31v1.86H1259v1h3.69v1.89H1259v1.05h3.66v1.86H1259v1.05h5v1.86h-10.21a8.93,8.93,0,0,1,3.31,2.24l-1.56,1.21a10.05,10.05,0,0,0-3.45-2.53l1.27-.86-1.83-.05v-6.87a9.45,9.45,0,0,1-1.35,1.51l-1-.67v6.33h-1.91v-5.9a16,16,0,0,1-1.46,1.64l-.86-.62V708a15.34,15.34,0,0,1-3.15,9.75l-1.67-1.37a12,12,0,0,0,2.35-4.45,24.79,24.79,0,0,0,.43-6.22V695.45Zm-2.64,17.14a12,12,0,0,1-4,3.5L1244,714.8a14.79,14.79,0,0,0,4.1-3.37Zm-4.45-8.17a17.18,17.18,0,0,0,4.15-7.06H1245Zm6-6.47a27.86,27.86,0,0,1-1.72,4v.86a14.82,14.82,0,0,0,3.31-5.5h-3Zm8.95,15.33c-.51,1.21-.89,2.94-2.4,3.15h-5.17a1.9,1.9,0,0,1-2-1.32v-3.75h2v2.75a.5.5,0,0,0,.43.57h4.34c.51,0,.73-1.08,1-2Zm-6.33-10.83h3.34v-1h-3.34Zm0,2.94h3.34v-1.05h-3.34Zm0,2.91h3.34v-1.05h-3.34Zm7.06,3a13.3,13.3,0,0,1,4.15,3.64l-1.64,1.16a11.22,11.22,0,0,0-3.85-3.69Z"/><line class="cls-16" x1="957.27" y1="304.68" x2="1802.12" y2="304.68"/></svg>